  0
SECTION
  2
HEADER
  9
$ACADVER
  1
AC1009
  9
$FILLMODE
 70
0
  9
$EXTMIN
 10
4.4450
 20
0.6350
 30
0.0000
  9
$EXTMAX
 10
97.0080
 20
54.7370
 30
0.0000
  0
ENDSEC
  0
SECTION
  2
TABLES
  0
TABLE
  2
LTYPE
 70
1
  0
LTYPE
  2
CONTINUOUS
 70
64
  3
Solid line
 72
65
 73
0
 40
0
  0
ENDTAB
  0
TABLE
  2
LAYER
 70
255
  0
LAYER
  2
20
 70
64
 62
7
  6
CONTINUOUS
  0
LAYER
  2
32
 70
64
 62
253
  6
CONTINUOUS
  0
ENDTAB
  0
ENDSEC
  0
SECTION
  2
BLOCKS
  0
BLOCK
  8
0
  2
RECT
 70
64
 10
0.0000
 20
0.0000
 30
0.0000
  3
RECT
  0
SOLID
  8
0
 10
-0.5000
 20
-0.5000
 30
0.0000
 11
0.5000
 21
-0.5000
 31
0.0000
 12
-0.5000
 22
0.5000
 32
0.0000
 13
0.5000
 23
0.5000
 33
0.0000
  0
ENDBLK
  8
0
  0
BLOCK
  8
0
  2
PIE
 70
64
 10
0.0000
 20
0.0000
 30
0.0000
  3
PIE
  0
CIRCLE
  8
0
 10
0.0000
 20
0.0000
 30
0.0000
 40
0.5000
  0
ENDBLK
  8
0
  0
BLOCK
  8
0
  2
OCTAGONP
 70
64
 10
0.0000
 20
0.0000
 30
0.0000
  3
OCTAGONP
  0
POLYLINE
  8
0
 66
1
 10
0.0000
 20
0.0000
 30
0.0000
 40
0.0000
 41
0.0000
 70
1
  0
VERTEX
  8
0
 10
-0.5000
 20
-0.2071
 30
0.0000
  0
VERTEX
  8
0
 10
-0.5000
 20
0.2071
 30
0.0000
  0
VERTEX
  8
0
 10
-0.2071
 20
0.5000
 30
0.0000
  0
VERTEX
  8
0
 10
0.2071
 20
0.5000
 30
0.0000
  0
VERTEX
  8
0
 10
0.5000
 20
0.2071
 30
0.0000
  0
VERTEX
  8
0
 10
0.5000
 20
-0.2071
 30
0.0000
  0
VERTEX
  8
0
 10
0.2071
 20
-0.5000
 30
0.0000
  0
VERTEX
  8
0
 10
-0.2071
 20
-0.5000
 30
0.0000
  0
SEQEND
  8
0
  0
ENDBLK
  8
0
  0
BLOCK
  8
0
  2
SQUAREP
 70
64
 10
0.0000
 20
0.0000
 30
0.0000
  3
SQUAREP
  0
SOLID
  8
0
 10
-0.5000
 20
-0.5000
 30
0.0000
 11
0.5000
 21
-0.5000
 31
0.0000
 12
-0.5000
 22
0.5000
 32
0.0000
 13
0.5000
 23
0.5000
 33
0.0000
  0
ENDBLK
  8
0
  0
BLOCK
  8
0
  2
ROUNDP
 70
64
 10
0.0000
 20
0.0000
 30
0.0000
  3
ROUNDP
  0
CIRCLE
  8
0
 10
0.0000
 20
0.0000
 30
0.0000
 40
0.5000
  0
ENDBLK
  8
0
  0
BLOCK
  8
0
  2
ANNULUSP
 70
64
 10
0.0000
 20
0.0000
 30
0.0000
  3
ANNULUSP
  0
CIRCLE
  8
0
 10
0.0000
 20
0.0000
 30
0.0000
 40
0.5000
  0
ENDBLK
  8
0
  0
BLOCK
  8
0
  2
THERMALP
 70
64
 10
0.0000
 20
0.0000
 30
0.0000
  3
THERMALP
  0
LINE
  8
0
 10
-0.2379
 20
0.4500
 30
0.0000
 11
0.2379
 21
0.4500
 31
0.0000
  0
LINE
  8
0
 10
0.4500
 20
0.2379
 30
0.0000
 11
0.4500
 21
-0.2379
 31
0.0000
  0
LINE
  8
0
 10
0.2379
 20
-0.4500
 30
0.0000
 11
-0.2379
 21
-0.4500
 31
0.0000
  0
LINE
  8
0
 10
-0.4500
 20
-0.2379
 30
0.0000
 11
-0.4500
 21
0.2379
 31
0.0000
  0
ENDBLK
  8
0
  0
BLOCK
  8
0
  2
OCTAGONV
 70
64
 10
0.0000
 20
0.0000
 30
0.0000
  3
OCTAGONV
  0
POLYLINE
  8
0
 66
1
 10
0.0000
 20
0.0000
 30
0.0000
 40
0.0000
 41
0.0000
 70
1
  0
VERTEX
  8
0
 10
-0.5000
 20
-0.2071
 30
0.0000
  0
VERTEX
  8
0
 10
-0.5000
 20
0.2071
 30
0.0000
  0
VERTEX
  8
0
 10
-0.2071
 20
0.5000
 30
0.0000
  0
VERTEX
  8
0
 10
0.2071
 20
0.5000
 30
0.0000
  0
VERTEX
  8
0
 10
0.5000
 20
0.2071
 30
0.0000
  0
VERTEX
  8
0
 10
0.5000
 20
-0.2071
 30
0.0000
  0
VERTEX
  8
0
 10
0.2071
 20
-0.5000
 30
0.0000
  0
VERTEX
  8
0
 10
-0.2071
 20
-0.5000
 30
0.0000
  0
SEQEND
  8
0
  0
ENDBLK
  8
0
  0
BLOCK
  8
0
  2
SQUAREV
 70
64
 10
0.0000
 20
0.0000
 30
0.0000
  3
SQUAREV
  0
SOLID
  8
0
 10
-0.5000
 20
-0.5000
 30
0.0000
 11
0.5000
 21
-0.5000
 31
0.0000
 12
-0.5000
 22
0.5000
 32
0.0000
 13
0.5000
 23
0.5000
 33
0.0000
  0
ENDBLK
  8
0
  0
BLOCK
  8
0
  2
ROUNDV
 70
64
 10
0.0000
 20
0.0000
 30
0.0000
  3
ROUNDV
  0
CIRCLE
  8
0
 10
0.0000
 20
0.0000
 30
0.0000
 40
0.5000
  0
ENDBLK
  8
0
  0
BLOCK
  8
0
  2
ANNULUSV
 70
64
 10
0.0000
 20
0.0000
 30
0.0000
  3
ANNULUSV
  0
CIRCLE
  8
0
 10
0.0000
 20
0.0000
 30
0.0000
 40
0.5000
  0
ENDBLK
  8
0
  0
BLOCK
  8
0
  2
THERMALV
 70
64
 10
0.0000
 20
0.0000
 30
0.0000
  3
THERMALV
  0
LINE
  8
0
 10
-0.2379
 20
0.4500
 30
0.0000
 11
0.2379
 21
0.4500
 31
0.0000
  0
LINE
  8
0
 10
0.4500
 20
0.2379
 30
0.0000
 11
0.4500
 21
-0.2379
 31
0.0000
  0
LINE
  8
0
 10
0.2379
 20
-0.4500
 30
0.0000
 11
-0.2379
 21
-0.4500
 31
0.0000
  0
LINE
  8
0
 10
-0.4500
 20
-0.2379
 30
0.0000
 11
-0.4500
 21
0.2379
 31
0.0000
  0
ENDBLK
  8
0
  0
BLOCK
  8
0
  2
LONGP100
 70
64
 10
0.0000
 20
0.0000
 30
0.0000
  3
LONGP100
  0
POLYLINE
  8
0
 66
1
 10
0.0000
 20
0.0000
 30
0.0000
 40
0.0000
 41
0.0000
 70
1
  0
VERTEX
  8
0
 10
-0.5000
 20
-0.5000
 30
0.0000
  0
VERTEX
  8
0
 10
0.5000
 20
-0.5000
 30
0.0000
 42
1.0000
  0
VERTEX
  8
0
 10
0.5000
 20
0.5000
 30
0.0000
  0
VERTEX
  8
0
 10
-0.5000
 20
0.5000
 30
0.0000
 42
1.0000
  0
SEQEND
  8
0
  0
ENDBLK
  8
0
  0
BLOCK
  8
0
  2
RECT162560X223520R25
 70
64
 10
0.0000
 20
0.0000
 30
0.0000
  3
RECT162560X223520R25
  0
POLYLINE
  8
0
 66
1
 10
0.0000
 20
0.0000
 30
0.0000
 40
0.0000
 41
0.0000
 70
1
  0
VERTEX
  8
0
 10
0.5080
 20
-0.5715
 30
0.0000
  0
VERTEX
  8
0
 10
0.5080
 20
0.5715
 30
0.0000
 42
0.4142
  0
VERTEX
  8
0
 10
0.3810
 20
0.6985
 30
0.0000
  0
VERTEX
  8
0
 10
-0.3810
 20
0.6985
 30
0.0000
 42
0.4142
  0
VERTEX
  8
0
 10
-0.5080
 20
0.5715
 30
0.0000
  0
VERTEX
  8
0
 10
-0.5080
 20
-0.5715
 30
0.0000
 42
0.4142
  0
VERTEX
  8
0
 10
-0.3810
 20
-0.6985
 30
0.0000
  0
VERTEX
  8
0
 10
0.3810
 20
-0.6985
 30
0.0000
 42
0.4142
  0
SEQEND
  8
0
  0
ENDBLK
  8
0
  0
BLOCK
  8
0
  2
RECT325120X584000R75
 70
64
 10
0.0000
 20
0.0000
 30
0.0000
  3
RECT325120X584000R75
  0
POLYLINE
  8
0
 66
1
 10
0.0000
 20
0.0000
 30
0.0000
 40
0.0000
 41
0.0000
 70
1
  0
VERTEX
  8
0
 10
1.0160
 20
-1.0630
 30
0.0000
  0
VERTEX
  8
0
 10
1.0160
 20
1.0630
 30
0.0000
 42
0.4142
  0
VERTEX
  8
0
 10
0.2540
 20
1.8250
 30
0.0000
  0
VERTEX
  8
0
 10
-0.2540
 20
1.8250
 30
0.0000
 42
0.4142
  0
VERTEX
  8
0
 10
-1.0160
 20
1.0630
 30
0.0000
  0
VERTEX
  8
0
 10
-1.0160
 20
-1.0630
 30
0.0000
 42
0.4142
  0
VERTEX
  8
0
 10
-0.2540
 20
-1.8250
 30
0.0000
  0
VERTEX
  8
0
 10
0.2540
 20
-1.8250
 30
0.0000
 42
0.4142
  0
SEQEND
  8
0
  0
ENDBLK
  8
0
  0
BLOCK
  8
0
  2
RECT0X0R100
 70
64
 10
0.0000
 20
0.0000
 30
0.0000
  3
RECT0X0R100
  0
POLYLINE
  8
0
 66
1
 10
0.0000
 20
0.0000
 30
0.0000
 40
0.0000
 41
0.0000
 70
1
  0
VERTEX
  8
0
 10
0.0000
 20
0.0000
 30
0.0000
  0
VERTEX
  8
0
 10
0.0000
 20
0.0000
 30
0.0000
 42
0.4142
  0
VERTEX
  8
0
 10
0.0000
 20
0.0000
 30
0.0000
  0
VERTEX
  8
0
 10
0.0000
 20
0.0000
 30
0.0000
 42
0.4142
  0
VERTEX
  8
0
 10
0.0000
 20
0.0000
 30
0.0000
  0
VERTEX
  8
0
 10
0.0000
 20
0.0000
 30
0.0000
 42
0.4142
  0
VERTEX
  8
0
 10
0.0000
 20
0.0000
 30
0.0000
  0
VERTEX
  8
0
 10
0.0000
 20
0.0000
 30
0.0000
 42
0.4142
  0
SEQEND
  8
0
  0
ENDBLK
  8
0
  0
ENDSEC
  0
SECTION
  2
ENTITIES
  0
LINE
  8
20
 10
5.0800
 20
2.5000
 30
0.0000
 11
96.0000
 21
2.5000
 31
0.0000
  0
LINE
  8
20
 10
96.0000
 20
52.5000
 30
0.0000
 11
5.0800
 21
52.5000
 31
0.0000
  0
LINE
  8
20
 10
5.0800
 20
52.5000
 30
0.0000
 11
5.0800
 21
2.5000
 31
0.0000
  0
LINE
  8
20
 10
96.0000
 20
2.5000
 30
0.0000
 11
96.0000
 21
52.5000
 31
0.0000
  0
CIRCLE
  8
20
 10
95.1865
 20
5.2070
 30
0.0000
 40
0.5080
  0
CIRCLE
  8
20
 10
93.9165
 20
5.1435
 30
0.0000
 40
0.5080
  0
CIRCLE
  8
20
 10
92.7735
 20
4.8260
 30
0.0000
 40
0.5080
  0
CIRCLE
  8
20
 10
94.5000
 20
7.1000
 30
0.0000
 40
1.0922
  0
CIRCLE
  8
20
 10
91.5670
 20
4.2545
 30
0.0000
 40
0.5080
  0
CIRCLE
  8
20
 10
62.5000
 20
3.5560
 30
0.0000
 40
0.2000
  0
CIRCLE
  8
20
 10
90.7605
 20
3.2655
 30
0.0000
 40
0.5080
  0
CIRCLE
  8
20
 10
61.9000
 20
3.3560
 30
0.0000
 40
0.2000
  0
CIRCLE
  8
20
 10
61.5000
 20
2.9560
 30
0.0000
 40
0.2000
  0
CIRCLE
  8
20
 10
63.1000
 20
3.3560
 30
0.0000
 40
0.2000
  0
CIRCLE
  8
20
 10
63.5000
 20
2.9560
 30
0.0000
 40
0.2000
  0
CIRCLE
  8
20
 10
11.5000
 20
3.5560
 30
0.0000
 40
0.2000
  0
CIRCLE
  8
20
 10
10.9000
 20
3.3560
 30
0.0000
 40
0.2000
  0
CIRCLE
  8
20
 10
10.5000
 20
2.9560
 30
0.0000
 40
0.2000
  0
CIRCLE
  8
20
 10
12.1000
 20
3.3560
 30
0.0000
 40
0.2000
  0
CIRCLE
  8
20
 10
12.5000
 20
2.9560
 30
0.0000
 40
0.2000
  0
CIRCLE
  8
20
 10
11.5000
 20
51.4440
 30
0.0000
 40
0.2000
  0
CIRCLE
  8
20
 10
12.1000
 20
51.6440
 30
0.0000
 40
0.2000
  0
CIRCLE
  8
20
 10
12.5000
 20
52.0440
 30
0.0000
 40
0.2000
  0
CIRCLE
  8
20
 10
10.9000
 20
51.6440
 30
0.0000
 40
0.2000
  0
CIRCLE
  8
20
 10
10.5000
 20
52.0440
 30
0.0000
 40
0.2000
  0
CIRCLE
  8
20
 10
62.5000
 20
51.4440
 30
0.0000
 40
0.2000
  0
CIRCLE
  8
20
 10
63.1000
 20
51.6440
 30
0.0000
 40
0.2000
  0
CIRCLE
  8
20
 10
63.5000
 20
52.0440
 30
0.0000
 40
0.2000
  0
CIRCLE
  8
20
 10
61.9000
 20
51.6440
 30
0.0000
 40
0.2000
  0
CIRCLE
  8
20
 10
61.5000
 20
52.0440
 30
0.0000
 40
0.2000
  0
CIRCLE
  8
20
 10
90.3000
 20
51.4440
 30
0.0000
 40
0.2000
  0
CIRCLE
  8
20
 10
90.9000
 20
51.6440
 30
0.0000
 40
0.2000
  0
CIRCLE
  8
20
 10
91.3000
 20
52.0440
 30
0.0000
 40
0.2000
  0
CIRCLE
  8
20
 10
89.7000
 20
51.6440
 30
0.0000
 40
0.2000
  0
CIRCLE
  8
20
 10
89.3000
 20
52.0440
 30
0.0000
 40
0.2000
  0
CIRCLE
  8
20
 10
9.0000
 20
46.5000
 30
0.0000
 40
1.0922
  0
INSERT
  8
32
  2
RECT162560X223520R25
 10
23.7490
 20
33.7820
 30
0.0000
 41
1.0000
 42
1.0000
 43
1.0000
 50
180.0000
  0
INSERT
  8
32
  2
RECT162560X223520R25
 10
21.9710
 20
33.7820
 30
0.0000
 41
1.0000
 42
1.0000
 43
1.0000
 50
180.0000
  0
INSERT
  8
32
  2
RECT
 10
53.6575
 20
23.9395
 30
0.0000
 41
1.2700
 42
2.0320
 43
1.0000
 50
90.0000
  0
INSERT
  8
32
  2
RECT
 10
53.6575
 20
27.2415
 30
0.0000
 41
1.2700
 42
2.0320
 43
1.0000
 50
90.0000
  0
INSERT
  8
32
  2
RECT
 10
50.1015
 20
23.9395
 30
0.0000
 41
1.2700
 42
2.0320
 43
1.0000
 50
90.0000
  0
INSERT
  8
32
  2
RECT
 10
50.1015
 20
27.2415
 30
0.0000
 41
1.2700
 42
2.0320
 43
1.0000
 50
90.0000
  0
INSERT
  8
32
  2
RECT162560X223520R25
 10
65.2780
 20
11.6840
 30
0.0000
 41
1.0000
 42
1.0000
 43
1.0000
 50
0.0000
  0
INSERT
  8
32
  2
RECT162560X223520R25
 10
67.0560
 20
11.6840
 30
0.0000
 41
1.0000
 42
1.0000
 43
1.0000
 50
0.0000
  0
INSERT
  8
32
  2
RECT162560X223520R25
 10
46.9900
 20
5.7150
 30
0.0000
 41
1.0000
 42
1.0000
 43
1.0000
 50
270.0000
  0
INSERT
  8
32
  2
RECT162560X223520R25
 10
46.9900
 20
3.9370
 30
0.0000
 41
1.0000
 42
1.0000
 43
1.0000
 50
270.0000
  0
INSERT
  8
32
  2
RECT162560X223520R25
 10
24.1300
 20
49.4030
 30
0.0000
 41
1.0000
 42
1.0000
 43
1.0000
 50
180.0000
  0
INSERT
  8
32
  2
RECT162560X223520R25
 10
22.3520
 20
49.4030
 30
0.0000
 41
1.0000
 42
1.0000
 43
1.0000
 50
180.0000
  0
INSERT
  8
32
  2
RECT162560X223520R25
 10
33.1470
 20
6.8580
 30
0.0000
 41
1.0000
 42
1.0000
 43
1.0000
 50
180.0000
  0
INSERT
  8
32
  2
RECT162560X223520R25
 10
31.3690
 20
6.8580
 30
0.0000
 41
1.0000
 42
1.0000
 43
1.0000
 50
180.0000
  0
INSERT
  8
32
  2
RECT162560X223520R25
 10
46.7360
 20
26.4160
 30
0.0000
 41
1.0000
 42
1.0000
 43
1.0000
 50
270.0000
  0
INSERT
  8
32
  2
RECT162560X223520R25
 10
46.7360
 20
24.6380
 30
0.0000
 41
1.0000
 42
1.0000
 43
1.0000
 50
270.0000
  0
INSERT
  8
32
  2
RECT162560X223520R25
 10
27.3050
 20
35.1790
 30
0.0000
 41
1.0000
 42
1.0000
 43
1.0000
 50
180.0000
  0
INSERT
  8
32
  2
RECT162560X223520R25
 10
25.5270
 20
35.1790
 30
0.0000
 41
1.0000
 42
1.0000
 43
1.0000
 50
180.0000
  0
INSERT
  8
32
  2
RECT
 10
27.5150
 20
18.2880
 30
0.0000
 41
1.7700
 42
2.2000
 43
1.0000
 50
90.0000
  0
INSERT
  8
32
  2
RECT
 10
23.0310
 20
18.2880
 30
0.0000
 41
1.7700
 42
2.2000
 43
1.0000
 50
90.0000
  0
INSERT
  8
32
  2
RECT
 10
27.5150
 20
14.2240
 30
0.0000
 41
1.7700
 42
2.2000
 43
1.0000
 50
90.0000
  0
INSERT
  8
32
  2
RECT
 10
23.0310
 20
14.2240
 30
0.0000
 41
1.7700
 42
2.2000
 43
1.0000
 50
90.0000
  0
INSERT
  8
32
  2
RECT
 10
27.2610
 20
30.4800
 30
0.0000
 41
1.7700
 42
2.2000
 43
1.0000
 50
90.0000
  0
INSERT
  8
32
  2
RECT
 10
22.7770
 20
30.4800
 30
0.0000
 41
1.7700
 42
2.2000
 43
1.0000
 50
90.0000
  0
INSERT
  8
32
  2
RECT
 10
57.5310
 20
22.9040
 30
0.0000
 41
1.7700
 42
2.2000
 43
1.0000
 50
0.0000
  0
INSERT
  8
32
  2
RECT
 10
57.5310
 20
27.3880
 30
0.0000
 41
1.7700
 42
2.2000
 43
1.0000
 50
0.0000
  0
INSERT
  8
32
  2
RECT
 10
57.3210
 20
41.4020
 30
0.0000
 41
1.7700
 42
2.2000
 43
1.0000
 50
270.0000
  0
INSERT
  8
32
  2
RECT
 10
61.8050
 20
41.4020
 30
0.0000
 41
1.7700
 42
2.2000
 43
1.0000
 50
270.0000
  0
INSERT
  8
32
  2
RECT
 10
57.3210
 20
45.7200
 30
0.0000
 41
1.7700
 42
2.2000
 43
1.0000
 50
270.0000
  0
INSERT
  8
32
  2
RECT
 10
61.8050
 20
45.7200
 30
0.0000
 41
1.7700
 42
2.2000
 43
1.0000
 50
270.0000
  0
INSERT
  8
32
  2
RECT
 10
27.5150
 20
10.1600
 30
0.0000
 41
1.7700
 42
2.2000
 43
1.0000
 50
90.0000
  0
INSERT
  8
32
  2
RECT
 10
23.0310
 20
10.1600
 30
0.0000
 41
1.7700
 42
2.2000
 43
1.0000
 50
90.0000
  0
INSERT
  8
32
  2
RECT
 10
27.5150
 20
6.0960
 30
0.0000
 41
1.7700
 42
2.2000
 43
1.0000
 50
90.0000
  0
INSERT
  8
32
  2
RECT
 10
23.0310
 20
6.0960
 30
0.0000
 41
1.7700
 42
2.2000
 43
1.0000
 50
90.0000
  0
INSERT
  8
32
  2
RECT
 10
57.3210
 20
37.5920
 30
0.0000
 41
1.7700
 42
2.2000
 43
1.0000
 50
270.0000
  0
INSERT
  8
32
  2
RECT
 10
61.8050
 20
37.5920
 30
0.0000
 41
1.7700
 42
2.2000
 43
1.0000
 50
270.0000
  0
INSERT
  8
32
  2
RECT
 10
27.5150
 20
22.3520
 30
0.0000
 41
1.7700
 42
2.2000
 43
1.0000
 50
90.0000
  0
INSERT
  8
32
  2
RECT
 10
23.0310
 20
22.3520
 30
0.0000
 41
1.7700
 42
2.2000
 43
1.0000
 50
90.0000
  0
INSERT
  8
32
  2
RECT
 10
59.2270
 20
7.5960
 30
0.0000
 41
0.8000
 42
1.9000
 43
1.0000
 50
270.0000
  0
INSERT
  8
32
  2
RECT
 10
59.0270
 20
6.0960
 30
0.0000
 41
0.8000
 42
1.5000
 43
1.0000
 50
270.0000
  0
INSERT
  8
32
  2
RECT
 10
59.2270
 20
4.5960
 30
0.0000
 41
0.8000
 42
1.9000
 43
1.0000
 50
270.0000
  0
INSERT
  8
32
  2
RECT
 10
56.0770
 20
6.0960
 30
0.0000
 41
2.3000
 42
3.6000
 43
1.0000
 50
270.0000
  0
INSERT
  8
32
  2
RECT
 10
93.2434
 20
48.8950
 30
0.0000
 41
0.6604
 42
2.0320
 43
1.0000
 50
270.0000
  0
INSERT
  8
32
  2
RECT
 10
93.2434
 20
47.6250
 30
0.0000
 41
0.6604
 42
2.0320
 43
1.0000
 50
270.0000
  0
INSERT
  8
32
  2
RECT
 10
93.2434
 20
46.3550
 30
0.0000
 41
0.6604
 42
2.0320
 43
1.0000
 50
270.0000
  0
INSERT
  8
32
  2
RECT
 10
93.2434
 20
45.0850
 30
0.0000
 41
0.6604
 42
2.0320
 43
1.0000
 50
270.0000
  0
INSERT
  8
32
  2
RECT
 10
93.2434
 20
43.8150
 30
0.0000
 41
0.6604
 42
2.0320
 43
1.0000
 50
270.0000
  0
INSERT
  8
32
  2
RECT
 10
93.2434
 20
42.5450
 30
0.0000
 41
0.6604
 42
2.0320
 43
1.0000
 50
270.0000
  0
INSERT
  8
32
  2
RECT
 10
93.2434
 20
41.2750
 30
0.0000
 41
0.6604
 42
2.0320
 43
1.0000
 50
270.0000
  0
INSERT
  8
32
  2
RECT
 10
93.2434
 20
40.0050
 30
0.0000
 41
0.6604
 42
2.0320
 43
1.0000
 50
270.0000
  0
INSERT
  8
32
  2
RECT
 10
87.0966
 20
40.0050
 30
0.0000
 41
0.6604
 42
2.0320
 43
1.0000
 50
270.0000
  0
INSERT
  8
32
  2
RECT
 10
87.0966
 20
41.2750
 30
0.0000
 41
0.6604
 42
2.0320
 43
1.0000
 50
270.0000
  0
INSERT
  8
32
  2
RECT
 10
87.0966
 20
42.5450
 30
0.0000
 41
0.6604
 42
2.0320
 43
1.0000
 50
270.0000
  0
INSERT
  8
32
  2
RECT
 10
87.0966
 20
43.8150
 30
0.0000
 41
0.6604
 42
2.0320
 43
1.0000
 50
270.0000
  0
INSERT
  8
32
  2
RECT
 10
87.0966
 20
45.0850
 30
0.0000
 41
0.6604
 42
2.0320
 43
1.0000
 50
270.0000
  0
INSERT
  8
32
  2
RECT
 10
87.0966
 20
46.3550
 30
0.0000
 41
0.6604
 42
2.0320
 43
1.0000
 50
270.0000
  0
INSERT
  8
32
  2
RECT
 10
87.0966
 20
47.6250
 30
0.0000
 41
0.6604
 42
2.0320
 43
1.0000
 50
270.0000
  0
INSERT
  8
32
  2
RECT
 10
87.0966
 20
48.8950
 30
0.0000
 41
0.6604
 42
2.0320
 43
1.0000
 50
270.0000
  0
INSERT
  8
32
  2
RECT
 10
29.9720
 20
40.0650
 30
0.0000
 41
0.6000
 42
2.2000
 43
1.0000
 50
0.0000
  0
INSERT
  8
32
  2
RECT
 10
31.2420
 20
40.0650
 30
0.0000
 41
0.6000
 42
2.2000
 43
1.0000
 50
0.0000
  0
INSERT
  8
32
  2
RECT
 10
32.5120
 20
40.0650
 30
0.0000
 41
0.6000
 42
2.2000
 43
1.0000
 50
0.0000
  0
INSERT
  8
32
  2
RECT
 10
33.7820
 20
40.0650
 30
0.0000
 41
0.6000
 42
2.2000
 43
1.0000
 50
0.0000
  0
INSERT
  8
32
  2
RECT
 10
33.7820
 20
34.8650
 30
0.0000
 41
0.6000
 42
2.2000
 43
1.0000
 50
0.0000
  0
INSERT
  8
32
  2
RECT
 10
32.5120
 20
34.8650
 30
0.0000
 41
0.6000
 42
2.2000
 43
1.0000
 50
0.0000
  0
INSERT
  8
32
  2
RECT
 10
31.2420
 20
34.8650
 30
0.0000
 41
0.6000
 42
2.2000
 43
1.0000
 50
0.0000
  0
INSERT
  8
32
  2
RECT
 10
29.9720
 20
34.8650
 30
0.0000
 41
0.6000
 42
2.2000
 43
1.0000
 50
0.0000
  0
INSERT
  8
32
  2
RECT
 10
93.2434
 20
30.8610
 30
0.0000
 41
0.6604
 42
2.0320
 43
1.0000
 50
270.0000
  0
INSERT
  8
32
  2
RECT
 10
93.2434
 20
29.5910
 30
0.0000
 41
0.6604
 42
2.0320
 43
1.0000
 50
270.0000
  0
INSERT
  8
32
  2
RECT
 10
93.2434
 20
28.3210
 30
0.0000
 41
0.6604
 42
2.0320
 43
1.0000
 50
270.0000
  0
INSERT
  8
32
  2
RECT
 10
93.2434
 20
27.0510
 30
0.0000
 41
0.6604
 42
2.0320
 43
1.0000
 50
270.0000
  0
INSERT
  8
32
  2
RECT
 10
93.2434
 20
25.7810
 30
0.0000
 41
0.6604
 42
2.0320
 43
1.0000
 50
270.0000
  0
INSERT
  8
32
  2
RECT
 10
93.2434
 20
24.5110
 30
0.0000
 41
0.6604
 42
2.0320
 43
1.0000
 50
270.0000
  0
INSERT
  8
32
  2
RECT
 10
93.2434
 20
23.2410
 30
0.0000
 41
0.6604
 42
2.0320
 43
1.0000
 50
270.0000
  0
INSERT
  8
32
  2
RECT
 10
93.2434
 20
21.9710
 30
0.0000
 41
0.6604
 42
2.0320
 43
1.0000
 50
270.0000
  0
INSERT
  8
32
  2
RECT
 10
87.0966
 20
21.9710
 30
0.0000
 41
0.6604
 42
2.0320
 43
1.0000
 50
270.0000
  0
INSERT
  8
32
  2
RECT
 10
87.0966
 20
23.2410
 30
0.0000
 41
0.6604
 42
2.0320
 43
1.0000
 50
270.0000
  0
INSERT
  8
32
  2
RECT
 10
87.0966
 20
24.5110
 30
0.0000
 41
0.6604
 42
2.0320
 43
1.0000
 50
270.0000
  0
INSERT
  8
32
  2
RECT
 10
87.0966
 20
25.7810
 30
0.0000
 41
0.6604
 42
2.0320
 43
1.0000
 50
270.0000
  0
INSERT
  8
32
  2
RECT
 10
87.0966
 20
27.0510
 30
0.0000
 41
0.6604
 42
2.0320
 43
1.0000
 50
270.0000
  0
INSERT
  8
32
  2
RECT
 10
87.0966
 20
28.3210
 30
0.0000
 41
0.6604
 42
2.0320
 43
1.0000
 50
270.0000
  0
INSERT
  8
32
  2
RECT
 10
87.0966
 20
29.5910
 30
0.0000
 41
0.6604
 42
2.0320
 43
1.0000
 50
270.0000
  0
INSERT
  8
32
  2
RECT
 10
87.0966
 20
30.8610
 30
0.0000
 41
0.6604
 42
2.0320
 43
1.0000
 50
270.0000
  0
INSERT
  8
32
  2
RECT
 10
52.3300
 20
16.5100
 30
0.0000
 41
0.6000
 42
2.2000
 43
1.0000
 50
270.0000
  0
INSERT
  8
32
  2
RECT
 10
52.3300
 20
15.2400
 30
0.0000
 41
0.6000
 42
2.2000
 43
1.0000
 50
270.0000
  0
INSERT
  8
32
  2
RECT
 10
52.3300
 20
13.9700
 30
0.0000
 41
0.6000
 42
2.2000
 43
1.0000
 50
270.0000
  0
INSERT
  8
32
  2
RECT
 10
52.3300
 20
12.7000
 30
0.0000
 41
0.6000
 42
2.2000
 43
1.0000
 50
270.0000
  0
INSERT
  8
32
  2
RECT
 10
52.3300
 20
11.4300
 30
0.0000
 41
0.6000
 42
2.2000
 43
1.0000
 50
270.0000
  0
INSERT
  8
32
  2
RECT
 10
52.3300
 20
10.1600
 30
0.0000
 41
0.6000
 42
2.2000
 43
1.0000
 50
270.0000
  0
INSERT
  8
32
  2
RECT
 10
52.3300
 20
8.8900
 30
0.0000
 41
0.6000
 42
2.2000
 43
1.0000
 50
270.0000
  0
INSERT
  8
32
  2
RECT
 10
46.7300
 20
8.8900
 30
0.0000
 41
0.6000
 42
2.2000
 43
1.0000
 50
270.0000
  0
INSERT
  8
32
  2
RECT
 10
46.7300
 20
10.1600
 30
0.0000
 41
0.6000
 42
2.2000
 43
1.0000
 50
270.0000
  0
INSERT
  8
32
  2
RECT
 10
46.7300
 20
11.4300
 30
0.0000
 41
0.6000
 42
2.2000
 43
1.0000
 50
270.0000
  0
INSERT
  8
32
  2
RECT
 10
46.7300
 20
12.7000
 30
0.0000
 41
0.6000
 42
2.2000
 43
1.0000
 50
270.0000
  0
INSERT
  8
32
  2
RECT
 10
46.7300
 20
13.9700
 30
0.0000
 41
0.6000
 42
2.2000
 43
1.0000
 50
270.0000
  0
INSERT
  8
32
  2
RECT
 10
46.7300
 20
15.2400
 30
0.0000
 41
0.6000
 42
2.2000
 43
1.0000
 50
270.0000
  0
INSERT
  8
32
  2
RECT
 10
46.7300
 20
16.5100
 30
0.0000
 41
0.6000
 42
2.2000
 43
1.0000
 50
270.0000
  0
INSERT
  8
32
  2
RECT
 10
26.5430
 20
50.4444
 30
0.0000
 41
0.6604
 42
2.0320
 43
1.0000
 50
0.0000
  0
INSERT
  8
32
  2
RECT
 10
27.8130
 20
50.4444
 30
0.0000
 41
0.6604
 42
2.0320
 43
1.0000
 50
0.0000
  0
INSERT
  8
32
  2
RECT
 10
29.0830
 20
50.4444
 30
0.0000
 41
0.6604
 42
2.0320
 43
1.0000
 50
0.0000
  0
INSERT
  8
32
  2
RECT
 10
30.3530
 20
50.4444
 30
0.0000
 41
0.6604
 42
2.0320
 43
1.0000
 50
0.0000
  0
INSERT
  8
32
  2
RECT
 10
31.6230
 20
50.4444
 30
0.0000
 41
0.6604
 42
2.0320
 43
1.0000
 50
0.0000
  0
INSERT
  8
32
  2
RECT
 10
32.8930
 20
50.4444
 30
0.0000
 41
0.6604
 42
2.0320
 43
1.0000
 50
0.0000
  0
INSERT
  8
32
  2
RECT
 10
34.1630
 20
50.4444
 30
0.0000
 41
0.6604
 42
2.0320
 43
1.0000
 50
0.0000
  0
INSERT
  8
32
  2
RECT
 10
35.4330
 20
50.4444
 30
0.0000
 41
0.6604
 42
2.0320
 43
1.0000
 50
0.0000
  0
INSERT
  8
32
  2
RECT
 10
35.4330
 20
44.2976
 30
0.0000
 41
0.6604
 42
2.0320
 43
1.0000
 50
0.0000
  0
INSERT
  8
32
  2
RECT
 10
34.1630
 20
44.2976
 30
0.0000
 41
0.6604
 42
2.0320
 43
1.0000
 50
0.0000
  0
INSERT
  8
32
  2
RECT
 10
32.8930
 20
44.2976
 30
0.0000
 41
0.6604
 42
2.0320
 43
1.0000
 50
0.0000
  0
INSERT
  8
32
  2
RECT
 10
31.6230
 20
44.2976
 30
0.0000
 41
0.6604
 42
2.0320
 43
1.0000
 50
0.0000
  0
INSERT
  8
32
  2
RECT
 10
30.3530
 20
44.2976
 30
0.0000
 41
0.6604
 42
2.0320
 43
1.0000
 50
0.0000
  0
INSERT
  8
32
  2
RECT
 10
29.0830
 20
44.2976
 30
0.0000
 41
0.6604
 42
2.0320
 43
1.0000
 50
0.0000
  0
INSERT
  8
32
  2
RECT
 10
27.8130
 20
44.2976
 30
0.0000
 41
0.6604
 42
2.0320
 43
1.0000
 50
0.0000
  0
INSERT
  8
32
  2
RECT
 10
26.5430
 20
44.2976
 30
0.0000
 41
0.6604
 42
2.0320
 43
1.0000
 50
0.0000
  0
INSERT
  8
32
  2
RECT
 10
24.7410
 20
41.4840
 30
0.0000
 41
0.8000
 42
1.9000
 43
1.0000
 50
180.0000
  0
INSERT
  8
32
  2
RECT
 10
23.2410
 20
41.6840
 30
0.0000
 41
0.8000
 42
1.5000
 43
1.0000
 50
180.0000
  0
INSERT
  8
32
  2
RECT
 10
21.7410
 20
41.4840
 30
0.0000
 41
0.8000
 42
1.9000
 43
1.0000
 50
180.0000
  0
INSERT
  8
32
  2
RECT
 10
23.2410
 20
44.6340
 30
0.0000
 41
2.3000
 42
3.6000
 43
1.0000
 50
180.0000
  0
INSERT
  8
32
  2
RECT
 10
10.8970
 20
20.8060
 30
0.0000
 41
0.8000
 42
1.8000
 43
1.0000
 50
180.0000
  0
INSERT
  8
32
  2
RECT
 10
9.3980
 20
21.0600
 30
0.0000
 41
0.8000
 42
2.3000
 43
1.0000
 50
180.0000
  0
INSERT
  8
32
  2
RECT325120X584000R75
 10
9.3980
 20
23.9270
 30
0.0000
 41
1.0000
 42
1.0000
 43
1.0000
 50
180.0000
  0
INSERT
  8
32
  2
RECT
 10
7.8990
 20
20.8060
 30
0.0000
 41
0.8000
 42
1.8000
 43
1.0000
 50
180.0000
  0
INSERT
  8
32
  2
RECT
 10
49.6350
 20
42.9510
 30
0.0000
 41
0.8000
 42
1.8000
 43
1.0000
 50
90.0000
  0
INSERT
  8
32
  2
RECT
 10
49.8890
 20
44.4500
 30
0.0000
 41
0.8000
 42
2.3000
 43
1.0000
 50
90.0000
  0
INSERT
  8
32
  2
RECT325120X584000R75
 10
52.7560
 20
44.4500
 30
0.0000
 41
1.0000
 42
1.0000
 43
1.0000
 50
90.0000
  0
INSERT
  8
32
  2
RECT
 10
49.6350
 20
45.9490
 30
0.0000
 41
0.8000
 42
1.8000
 43
1.0000
 50
90.0000
  0
INSERT
  8
32
  2
RECT
 10
11.7094
 20
18.2372
 30
0.0000
 41
1.2192
 42
2.2352
 43
1.0000
 50
180.0000
  0
INSERT
  8
32
  2
RECT
 10
9.3980
 20
18.2372
 30
0.0000
 41
1.2192
 42
2.2352
 43
1.0000
 50
180.0000
  0
INSERT
  8
32
  2
RECT
 10
7.0866
 20
18.2372
 30
0.0000
 41
1.2192
 42
2.2352
 43
1.0000
 50
180.0000
  0
INSERT
  8
32
  2
RECT
 10
9.3980
 20
24.4350
 30
0.0000
 41
3.6000
 42
2.2000
 43
1.0000
 50
180.0000
  0
INSERT
  8
32
  2
RECT
 10
46.9392
 20
42.1386
 30
0.0000
 41
1.2192
 42
2.2352
 43
1.0000
 50
90.0000
  0
INSERT
  8
32
  2
RECT
 10
46.9392
 20
44.4500
 30
0.0000
 41
1.2192
 42
2.2352
 43
1.0000
 50
90.0000
  0
INSERT
  8
32
  2
RECT
 10
46.9392
 20
46.7614
 30
0.0000
 41
1.2192
 42
2.2352
 43
1.0000
 50
90.0000
  0
INSERT
  8
32
  2
RECT
 10
53.1370
 20
44.4500
 30
0.0000
 41
3.6000
 42
2.2000
 43
1.0000
 50
90.0000
  0
INSERT
  8
32
  2
RECT
 10
83.6710
 20
3.8350
 30
0.0000
 41
0.8000
 42
1.8000
 43
1.0000
 50
90.0000
  0
INSERT
  8
32
  2
RECT
 10
83.9250
 20
5.3340
 30
0.0000
 41
0.8000
 42
2.3000
 43
1.0000
 50
90.0000
  0
INSERT
  8
32
  2
RECT325120X584000R75
 10
86.7920
 20
5.3340
 30
0.0000
 41
1.0000
 42
1.0000
 43
1.0000
 50
90.0000
  0
INSERT
  8
32
  2
RECT
 10
83.6710
 20
6.8330
 30
0.0000
 41
0.8000
 42
1.8000
 43
1.0000
 50
90.0000
  0
INSERT
  8
32
  2
RECT
 10
70.7170
 20
3.5810
 30
0.0000
 41
0.8000
 42
1.8000
 43
1.0000
 50
90.0000
  0
INSERT
  8
32
  2
RECT
 10
70.9710
 20
5.0800
 30
0.0000
 41
0.8000
 42
2.3000
 43
1.0000
 50
90.0000
  0
INSERT
  8
32
  2
RECT325120X584000R75
 10
73.8380
 20
5.0800
 30
0.0000
 41
1.0000
 42
1.0000
 43
1.0000
 50
90.0000
  0
INSERT
  8
32
  2
RECT
 10
70.7170
 20
6.5790
 30
0.0000
 41
0.8000
 42
1.8000
 43
1.0000
 50
90.0000
  0
INSERT
  8
32
  2
RECT
 10
34.5190
 20
17.2500
 30
0.0000
 41
0.8000
 42
1.8000
 43
1.0000
 50
180.0000
  0
INSERT
  8
32
  2
RECT
 10
33.0200
 20
17.5040
 30
0.0000
 41
0.8000
 42
2.3000
 43
1.0000
 50
180.0000
  0
INSERT
  8
32
  2
RECT325120X584000R75
 10
33.0200
 20
20.3710
 30
0.0000
 41
1.0000
 42
1.0000
 43
1.0000
 50
180.0000
  0
INSERT
  8
32
  2
RECT
 10
31.5210
 20
17.2500
 30
0.0000
 41
0.8000
 42
1.8000
 43
1.0000
 50
180.0000
  0
INSERT
  8
32
  2
RECT
 10
46.3550
 20
29.4640
 30
0.0000
 41
1.0160
 42
1.1430
 43
1.0000
 50
270.0000
  0
INSERT
  8
32
  2
RECT
 10
46.3550
 20
31.2420
 30
0.0000
 41
1.0160
 42
1.1430
 43
1.0000
 50
90.0000
  0
INSERT
  8
32
  2
RECT
 10
48.3870
 20
30.3530
 30
0.0000
 41
1.0160
 42
1.1430
 43
1.0000
 50
90.0000
  0
INSERT
  8
32
  2
RECT162560X223520R25
 10
33.1470
 20
10.1600
 30
0.0000
 41
1.0000
 42
1.0000
 43
1.0000
 50
180.0000
  0
INSERT
  8
32
  2
RECT162560X223520R25
 10
31.3690
 20
10.1600
 30
0.0000
 41
1.0000
 42
1.0000
 43
1.0000
 50
180.0000
  0
INSERT
  8
32
  2
RECT162560X223520R25
 10
43.8150
 20
9.7155
 30
0.0000
 41
1.0000
 42
1.0000
 43
1.0000
 50
90.0000
  0
INSERT
  8
32
  2
RECT162560X223520R25
 10
43.8150
 20
11.4935
 30
0.0000
 41
1.0000
 42
1.0000
 43
1.0000
 50
90.0000
  0
INSERT
  8
32
  2
RECT162560X223520R25
 10
43.8150
 20
17.6530
 30
0.0000
 41
1.0000
 42
1.0000
 43
1.0000
 50
270.0000
  0
INSERT
  8
32
  2
RECT162560X223520R25
 10
43.8150
 20
15.8750
 30
0.0000
 41
1.0000
 42
1.0000
 43
1.0000
 50
270.0000
  0
INSERT
  8
32
  2
RECT162560X223520R25
 10
66.8020
 20
26.2890
 30
0.0000
 41
1.0000
 42
1.0000
 43
1.0000
 50
0.0000
  0
INSERT
  8
32
  2
RECT162560X223520R25
 10
68.5800
 20
26.2890
 30
0.0000
 41
1.0000
 42
1.0000
 43
1.0000
 50
0.0000
  0
INSERT
  8
32
  2
RECT162560X223520R25
 10
34.5440
 20
25.2730
 30
0.0000
 41
1.0000
 42
1.0000
 43
1.0000
 50
180.0000
  0
INSERT
  8
32
  2
RECT162560X223520R25
 10
32.7660
 20
25.2730
 30
0.0000
 41
1.0000
 42
1.0000
 43
1.0000
 50
180.0000
  0
INSERT
  8
32
  2
RECT162560X223520R25
 10
52.1970
 20
5.7150
 30
0.0000
 41
1.0000
 42
1.0000
 43
1.0000
 50
270.0000
  0
INSERT
  8
32
  2
RECT162560X223520R25
 10
52.1970
 20
3.9370
 30
0.0000
 41
1.0000
 42
1.0000
 43
1.0000
 50
270.0000
  0
INSERT
  8
32
  2
RECT162560X223520R25
 10
52.5780
 20
31.3690
 30
0.0000
 41
1.0000
 42
1.0000
 43
1.0000
 50
180.0000
  0
INSERT
  8
32
  2
RECT162560X223520R25
 10
50.8000
 20
31.3690
 30
0.0000
 41
1.0000
 42
1.0000
 43
1.0000
 50
180.0000
  0
INSERT
  8
32
  2
RECT162560X223520R25
 10
44.3230
 20
3.9370
 30
0.0000
 41
1.0000
 42
1.0000
 43
1.0000
 50
90.0000
  0
INSERT
  8
32
  2
RECT162560X223520R25
 10
44.3230
 20
5.7150
 30
0.0000
 41
1.0000
 42
1.0000
 43
1.0000
 50
90.0000
  0
INSERT
  8
32
  2
RECT162560X223520R25
 10
44.1960
 20
26.4160
 30
0.0000
 41
1.0000
 42
1.0000
 43
1.0000
 50
270.0000
  0
INSERT
  8
32
  2
RECT162560X223520R25
 10
44.1960
 20
24.6380
 30
0.0000
 41
1.0000
 42
1.0000
 43
1.0000
 50
270.0000
  0
INSERT
  8
32
  2
RECT162560X223520R25
 10
52.2605
 20
21.4630
 30
0.0000
 41
1.0000
 42
1.0000
 43
1.0000
 50
0.0000
  0
INSERT
  8
32
  2
RECT162560X223520R25
 10
54.0385
 20
21.4630
 30
0.0000
 41
1.0000
 42
1.0000
 43
1.0000
 50
0.0000
  0
INSERT
  8
32
  2
RECT162560X223520R25
 10
58.1660
 20
11.0490
 30
0.0000
 41
1.0000
 42
1.0000
 43
1.0000
 50
270.0000
  0
INSERT
  8
32
  2
RECT162560X223520R25
 10
58.1660
 20
9.2710
 30
0.0000
 41
1.0000
 42
1.0000
 43
1.0000
 50
270.0000
  0
INSERT
  8
32
  2
RECT162560X223520R25
 10
47.3075
 20
21.4630
 30
0.0000
 41
1.0000
 42
1.0000
 43
1.0000
 50
0.0000
  0
INSERT
  8
32
  2
RECT162560X223520R25
 10
49.0855
 20
21.4630
 30
0.0000
 41
1.0000
 42
1.0000
 43
1.0000
 50
0.0000
  0
INSERT
  8
32
  2
RECT162560X223520R25
 10
9.6520
 20
15.2400
 30
0.0000
 41
1.0000
 42
1.0000
 43
1.0000
 50
0.0000
  0
INSERT
  8
32
  2
RECT162560X223520R25
 10
11.4300
 20
15.2400
 30
0.0000
 41
1.0000
 42
1.0000
 43
1.0000
 50
0.0000
  0
INSERT
  8
32
  2
RECT162560X223520R25
 10
76.7080
 20
26.7970
 30
0.0000
 41
1.0000
 42
1.0000
 43
1.0000
 50
0.0000
  0
INSERT
  8
32
  2
RECT162560X223520R25
 10
78.4860
 20
26.7970
 30
0.0000
 41
1.0000
 42
1.0000
 43
1.0000
 50
0.0000
  0
INSERT
  8
32
  2
RECT162560X223520R25
 10
55.4990
 20
12.5730
 30
0.0000
 41
1.0000
 42
1.0000
 43
1.0000
 50
90.0000
  0
INSERT
  8
32
  2
RECT162560X223520R25
 10
55.4990
 20
14.3510
 30
0.0000
 41
1.0000
 42
1.0000
 43
1.0000
 50
90.0000
  0
INSERT
  8
32
  2
RECT162560X223520R25
 10
58.1660
 20
13.9065
 30
0.0000
 41
1.0000
 42
1.0000
 43
1.0000
 50
90.0000
  0
INSERT
  8
32
  2
RECT162560X223520R25
 10
58.1660
 20
15.6845
 30
0.0000
 41
1.0000
 42
1.0000
 43
1.0000
 50
90.0000
  0
INSERT
  8
32
  2
RECT162560X223520R25
 10
58.1660
 20
20.2565
 30
0.0000
 41
1.0000
 42
1.0000
 43
1.0000
 50
270.0000
  0
INSERT
  8
32
  2
RECT162560X223520R25
 10
58.1660
 20
18.4785
 30
0.0000
 41
1.0000
 42
1.0000
 43
1.0000
 50
270.0000
  0
INSERT
  8
32
  2
RECT
 10
47.6250
 20
39.2430
 30
0.0000
 41
1.2700
 42
1.5240
 43
1.0000
 50
0.0000
  0
INSERT
  8
32
  2
RECT
 10
50.1650
 20
39.2430
 30
0.0000
 41
1.2700
 42
1.5240
 43
1.0000
 50
0.0000
  0
INSERT
  8
32
  2
RECT162560X223520R25
 10
50.8635
 20
19.2405
 30
0.0000
 41
1.0000
 42
1.0000
 43
1.0000
 50
0.0000
  0
INSERT
  8
32
  2
RECT162560X223520R25
 10
52.6415
 20
19.2405
 30
0.0000
 41
1.0000
 42
1.0000
 43
1.0000
 50
0.0000
  0
INSERT
  8
32
  2
RECT
 10
81.0260
 20
15.2400
 30
0.0000
 41
1.2700
 42
1.5240
 43
1.0000
 50
0.0000
  0
INSERT
  8
32
  2
RECT
 10
83.5660
 20
15.2400
 30
0.0000
 41
1.2700
 42
1.5240
 43
1.0000
 50
0.0000
  0
INSERT
  8
32
  2
RECT
 10
77.2160
 20
10.9220
 30
0.0000
 41
1.2700
 42
1.5240
 43
1.0000
 50
0.0000
  0
INSERT
  8
32
  2
RECT
 10
79.7560
 20
10.9220
 30
0.0000
 41
1.2700
 42
1.5240
 43
1.0000
 50
0.0000
  0
INSERT
  8
32
  2
RECT162560X223520R25
 10
72.5170
 20
22.0980
 30
0.0000
 41
1.0000
 42
1.0000
 43
1.0000
 50
180.0000
  0
INSERT
  8
32
  2
RECT162560X223520R25
 10
70.7390
 20
22.0980
 30
0.0000
 41
1.0000
 42
1.0000
 43
1.0000
 50
180.0000
  0
INSERT
  8
32
  2
RECT162560X223520R25
 10
82.4230
 20
35.8140
 30
0.0000
 41
1.0000
 42
1.0000
 43
1.0000
 50
0.0000
  0
INSERT
  8
32
  2
RECT162560X223520R25
 10
84.2010
 20
35.8140
 30
0.0000
 41
1.0000
 42
1.0000
 43
1.0000
 50
0.0000
  0
INSERT
  8
32
  2
RECT162560X223520R25
 10
21.9710
 20
36.8300
 30
0.0000
 41
1.0000
 42
1.0000
 43
1.0000
 50
0.0000
  0
INSERT
  8
32
  2
RECT162560X223520R25
 10
23.7490
 20
36.8300
 30
0.0000
 41
1.0000
 42
1.0000
 43
1.0000
 50
0.0000
  0
INSERT
  8
32
  2
RECT162560X223520R25
 10
49.6570
 20
5.7150
 30
0.0000
 41
1.0000
 42
1.0000
 43
1.0000
 50
270.0000
  0
INSERT
  8
32
  2
RECT162560X223520R25
 10
49.6570
 20
3.9370
 30
0.0000
 41
1.0000
 42
1.0000
 43
1.0000
 50
270.0000
  0
INSERT
  8
32
  2
RECT162560X223520R25
 10
35.4330
 20
41.6560
 30
0.0000
 41
1.0000
 42
1.0000
 43
1.0000
 50
270.0000
  0
INSERT
  8
32
  2
RECT162560X223520R25
 10
35.4330
 20
39.8780
 30
0.0000
 41
1.0000
 42
1.0000
 43
1.0000
 50
270.0000
  0
INSERT
  8
32
  2
RECT162560X223520R25
 10
12.0650
 20
43.4340
 30
0.0000
 41
1.0000
 42
1.0000
 43
1.0000
 50
180.0000
  0
INSERT
  8
32
  2
RECT162560X223520R25
 10
10.2870
 20
43.4340
 30
0.0000
 41
1.0000
 42
1.0000
 43
1.0000
 50
180.0000
  0
INSERT
  8
32
  2
RECT162560X223520R25
 10
12.0650
 20
40.5130
 30
0.0000
 41
1.0000
 42
1.0000
 43
1.0000
 50
180.0000
  0
INSERT
  8
32
  2
RECT162560X223520R25
 10
10.2870
 20
40.5130
 30
0.0000
 41
1.0000
 42
1.0000
 43
1.0000
 50
180.0000
  0
INSERT
  8
32
  2
RECT162560X223520R25
 10
12.0650
 20
37.5920
 30
0.0000
 41
1.0000
 42
1.0000
 43
1.0000
 50
180.0000
  0
INSERT
  8
32
  2
RECT162560X223520R25
 10
10.2870
 20
37.5920
 30
0.0000
 41
1.0000
 42
1.0000
 43
1.0000
 50
180.0000
  0
INSERT
  8
32
  2
RECT162560X223520R25
 10
26.5430
 20
25.9080
 30
0.0000
 41
1.0000
 42
1.0000
 43
1.0000
 50
0.0000
  0
INSERT
  8
32
  2
RECT162560X223520R25
 10
28.3210
 20
25.9080
 30
0.0000
 41
1.0000
 42
1.0000
 43
1.0000
 50
0.0000
  0
INSERT
  8
32
  2
RECT162560X223520R25
 10
29.9720
 20
30.4800
 30
0.0000
 41
1.0000
 42
1.0000
 43
1.0000
 50
0.0000
  0
INSERT
  8
32
  2
RECT162560X223520R25
 10
31.7500
 20
30.4800
 30
0.0000
 41
1.0000
 42
1.0000
 43
1.0000
 50
0.0000
  0
INSERT
  8
32
  2
RECT162560X223520R25
 10
25.5270
 20
38.6080
 30
0.0000
 41
1.0000
 42
1.0000
 43
1.0000
 50
0.0000
  0
INSERT
  8
32
  2
RECT162560X223520R25
 10
27.3050
 20
38.6080
 30
0.0000
 41
1.0000
 42
1.0000
 43
1.0000
 50
0.0000
  0
INSERT
  8
32
  2
RECT162560X223520R25
 10
69.9770
 20
50.0380
 30
0.0000
 41
1.0000
 42
1.0000
 43
1.0000
 50
180.0000
  0
INSERT
  8
32
  2
RECT162560X223520R25
 10
68.1990
 20
50.0380
 30
0.0000
 41
1.0000
 42
1.0000
 43
1.0000
 50
180.0000
  0
INSERT
  8
32
  2
RECT162560X223520R25
 10
91.9480
 20
10.0330
 30
0.0000
 41
1.0000
 42
1.0000
 43
1.0000
 50
0.0000
  0
INSERT
  8
32
  2
RECT162560X223520R25
 10
93.7260
 20
10.0330
 30
0.0000
 41
1.0000
 42
1.0000
 43
1.0000
 50
0.0000
  0
INSERT
  8
32
  2
RECT
 10
86.8172
 20
14.3510
 30
0.0000
 41
1.0160
 42
2.2352
 43
1.0000
 50
90.0000
  0
INSERT
  8
32
  2
RECT
 10
86.8172
 20
15.8750
 30
0.0000
 41
1.0160
 42
2.2352
 43
1.0000
 50
90.0000
  0
INSERT
  8
32
  2
RECT
 10
86.8172
 20
17.3990
 30
0.0000
 41
1.0160
 42
2.2352
 43
1.0000
 50
90.0000
  0
INSERT
  8
32
  2
RECT
 10
86.8172
 20
18.9230
 30
0.0000
 41
1.0160
 42
2.2352
 43
1.0000
 50
90.0000
  0
INSERT
  8
32
  2
RECT
 10
93.0148
 20
18.9230
 30
0.0000
 41
1.0160
 42
2.2352
 43
1.0000
 50
90.0000
  0
INSERT
  8
32
  2
RECT
 10
93.0148
 20
17.3990
 30
0.0000
 41
1.0160
 42
2.2352
 43
1.0000
 50
90.0000
  0
INSERT
  8
32
  2
RECT
 10
93.0148
 20
15.8750
 30
0.0000
 41
1.0160
 42
2.2352
 43
1.0000
 50
90.0000
  0
INSERT
  8
32
  2
RECT
 10
93.0148
 20
14.3510
 30
0.0000
 41
1.0160
 42
2.2352
 43
1.0000
 50
90.0000
  0
INSERT
  8
32
  2
RECT
 10
33.9700
 20
13.1240
 30
0.0000
 41
1.0000
 42
1.4000
 43
1.0000
 50
180.0000
  0
INSERT
  8
32
  2
RECT
 10
33.0200
 20
15.3240
 30
0.0000
 41
1.0000
 42
1.4000
 43
1.0000
 50
180.0000
  0
INSERT
  8
32
  2
RECT
 10
32.0700
 20
13.1240
 30
0.0000
 41
1.0000
 42
1.4000
 43
1.0000
 50
180.0000
  0
ENDSEC
  0
EOF
