%
M48
M72
T01C0.0236
T02C0.0354
T03C0.0360
%
T01
X5439Y16568
X5939Y16568
X5439Y10013
X5939Y10013
X7137Y9539
X9026Y8046
X9755Y6371
X9322Y4897
X7301Y6173
X6853Y7112
X6923Y5073
X12089Y10013
X12589Y10013
X15971Y4897
X16404Y6371
X15676Y8046
X13786Y9539
X15971Y11452
X16404Y12926
X23173Y10961
X23673Y10961
X22189Y9345
X21811Y8246
X22259Y7306
X20086Y6373
X19357Y8047
X19790Y9522
X21975Y11435
X20086Y12928
X19357Y14603
X12089Y23123
X12589Y23123
X13786Y22649
X15676Y21156
X16404Y19481
X23173Y17516
X23673Y17516
X22189Y15900
X21811Y14801
X22259Y13861
X19790Y16077
X21975Y17990
X20086Y19483
X19357Y21158
X19790Y22632
X21811Y21356
X22259Y20417
X22189Y22455
X15971Y18007
X13951Y19283
X13502Y20222
X13573Y18184
X12589Y16568
X12089Y16568
X13786Y16094
X15676Y14601
X13502Y13667
X13951Y12728
X13573Y11629
X9755Y12926
X9322Y11452
X7301Y12728
X6853Y13667
X6923Y11629
X9026Y14601
X7137Y16094
X6923Y18184
X7301Y19283
X6853Y20222
X9026Y21156
X9755Y19481
X9322Y18007
X7137Y22649
X5939Y23123
X5439Y23123
X13502Y7112
X13951Y6173
X13573Y5073
X21975Y4880
X23173Y4406
X23673Y4406
T02
X11231Y4325
X11231Y4778
X11231Y5231
X11231Y5684
X11231Y6136
X11231Y6589
X11231Y7042
X11231Y7495
X11231Y7947
X11231Y8400
X11231Y8853
X11231Y9306
X11231Y9758
X11231Y10211
X10877Y10487
X11231Y10880
X11641Y10487
X11641Y10487
X12093Y10487
X12546Y10487
X12999Y10487
X13452Y10487
X13904Y10487
X14357Y10487
X14810Y10487
X15263Y10487
X15715Y10487
X16168Y10487
X16621Y10487
X17074Y10487
X17526Y10487
X17881Y10211
X18235Y10487
X17881Y10880
X17881Y11333
X17881Y11786
X17881Y12239
X17881Y12691
X17881Y13144
X17881Y13597
X17881Y14050
X17881Y14503
X17881Y14955
X17881Y15408
X17881Y15861
X17881Y16314
X17881Y16766
X18235Y17042
X18688Y17042
X19141Y17042
X19593Y17042
X20046Y17042
X20499Y17042
X20952Y17042
X21404Y17042
X21857Y17042
X22310Y17042
X22763Y17042
X23215Y17042
X23668Y17042
X24121Y17042
X24121Y17042
X17881Y17436
X17881Y17888
X17881Y18341
X17881Y18794
X17881Y19247
X17881Y19699
X17881Y20152
X17881Y20605
X17881Y21058
X17881Y21510
X17881Y21963
X17881Y22416
X17881Y22869
X17526Y17042
X17074Y17042
X16621Y17042
X16168Y17042
X15715Y17042
X15263Y17042
X14810Y17042
X14357Y17042
X13904Y17042
X13452Y17042
X12999Y17042
X12546Y17042
X12093Y17042
X11641Y17042
X11641Y17042
X11231Y16766
X10877Y17042
X10424Y17042
X9971Y17042
X9519Y17042
X9066Y17042
X8613Y17042
X8160Y17042
X7708Y17042
X7255Y17042
X6802Y17042
X6349Y17042
X5897Y17042
X5444Y17042
X4991Y17042
X4991Y17042
X11231Y17436
X11231Y17888
X11231Y18341
X11231Y18794
X11231Y19247
X11231Y19699
X11231Y20152
X11231Y20605
X11231Y21058
X11231Y21510
X11231Y21963
X11231Y22416
X11231Y22869
X11231Y16314
X11231Y15861
X11231Y15408
X11231Y14955
X11231Y14503
X11231Y14050
X11231Y13597
X11231Y13144
X11231Y12691
X11231Y12239
X11231Y11786
X11231Y11333
X10424Y10487
X9971Y10487
X9519Y10487
X9066Y10487
X8613Y10487
X8160Y10487
X7708Y10487
X7255Y10487
X6802Y10487
X6349Y10487
X5897Y10487
X5444Y10487
X4991Y10487
X4991Y10487
X17881Y9758
X17881Y9306
X17881Y8853
X17881Y8400
X17881Y7947
X17881Y7495
X17881Y7042
X17881Y6589
X17881Y6136
X17881Y5684
X17881Y5231
X17881Y4778
X17881Y4325
X18688Y10487
X19141Y10487
X19593Y10487
X20046Y10487
X20499Y10487
X20952Y10487
X21404Y10487
X21857Y10487
X22310Y10487
X22763Y10487
X23215Y10487
X23668Y10487
X24121Y10487
X24121Y10487
T03
X8101Y6604
X10582Y7160
X10582Y9798
X8101Y13159
X10582Y13715
X15932Y9916
X17231Y9798
X17231Y7160
X18530Y4621
X19830Y4503
X18530Y7258
X21011Y7814
X17231Y13715
X17231Y16353
X8101Y19714
X10582Y20270
X10582Y22908
X9282Y23026
X10582Y16353
X9282Y16471
X14751Y19714
X17231Y20270
X17231Y22908
X15932Y23026
X18530Y20369
X19830Y17613
X21011Y14369
X18530Y13814
X15932Y16471
X18530Y17731
X21011Y20925
X14751Y13159
X18530Y11176
X19830Y11058
X14751Y6604
X9282Y9916
M30
