  0
SECTION
  2
HEADER
  9
$ACADVER
  1
AC1009
  9
$FILLMODE
 70
0
  9
$EXTMIN
 10
-5.0127
 20
0.6350
 30
0.0000
  9
$EXTMAX
 10
101.0127
 20
54.7370
 30
0.0000
  0
ENDSEC
  0
SECTION
  2
TABLES
  0
TABLE
  2
LTYPE
 70
1
  0
LTYPE
  2
CONTINUOUS
 70
64
  3
Solid line
 72
65
 73
0
 40
0
  0
ENDTAB
  0
TABLE
  2
LAYER
 70
255
  0
LAYER
  2
17
 70
64
 62
178
  6
CONTINUOUS
  0
LAYER
  2
20
 70
64
 62
178
  6
CONTINUOUS
  0
LAYER
  2
22
 70
64
 62
251
  6
CONTINUOUS
  0
LAYER
  2
24
 70
64
 62
178
  6
CONTINUOUS
  0
LAYER
  2
44
 70
64
 62
251
  6
CONTINUOUS
  0
LAYER
  2
45
 70
64
 62
251
  6
CONTINUOUS
  0
ENDTAB
  0
ENDSEC
  0
SECTION
  2
BLOCKS
  0
BLOCK
  8
0
  2
RECT
 70
64
 10
0.0000
 20
0.0000
 30
0.0000
  3
RECT
  0
SOLID
  8
0
 10
-0.5000
 20
-0.5000
 30
0.0000
 11
0.5000
 21
-0.5000
 31
0.0000
 12
-0.5000
 22
0.5000
 32
0.0000
 13
0.5000
 23
0.5000
 33
0.0000
  0
ENDBLK
  8
0
  0
BLOCK
  8
0
  2
PIE
 70
64
 10
0.0000
 20
0.0000
 30
0.0000
  3
PIE
  0
CIRCLE
  8
0
 10
0.0000
 20
0.0000
 30
0.0000
 40
0.5000
  0
ENDBLK
  8
0
  0
BLOCK
  8
0
  2
OCTAGONP
 70
64
 10
0.0000
 20
0.0000
 30
0.0000
  3
OCTAGONP
  0
POLYLINE
  8
0
 66
1
 10
0.0000
 20
0.0000
 30
0.0000
 40
0.0000
 41
0.0000
 70
1
  0
VERTEX
  8
0
 10
-0.5000
 20
-0.2071
 30
0.0000
  0
VERTEX
  8
0
 10
-0.5000
 20
0.2071
 30
0.0000
  0
VERTEX
  8
0
 10
-0.2071
 20
0.5000
 30
0.0000
  0
VERTEX
  8
0
 10
0.2071
 20
0.5000
 30
0.0000
  0
VERTEX
  8
0
 10
0.5000
 20
0.2071
 30
0.0000
  0
VERTEX
  8
0
 10
0.5000
 20
-0.2071
 30
0.0000
  0
VERTEX
  8
0
 10
0.2071
 20
-0.5000
 30
0.0000
  0
VERTEX
  8
0
 10
-0.2071
 20
-0.5000
 30
0.0000
  0
SEQEND
  8
0
  0
ENDBLK
  8
0
  0
BLOCK
  8
0
  2
SQUAREP
 70
64
 10
0.0000
 20
0.0000
 30
0.0000
  3
SQUAREP
  0
SOLID
  8
0
 10
-0.5000
 20
-0.5000
 30
0.0000
 11
0.5000
 21
-0.5000
 31
0.0000
 12
-0.5000
 22
0.5000
 32
0.0000
 13
0.5000
 23
0.5000
 33
0.0000
  0
ENDBLK
  8
0
  0
BLOCK
  8
0
  2
ROUNDP
 70
64
 10
0.0000
 20
0.0000
 30
0.0000
  3
ROUNDP
  0
CIRCLE
  8
0
 10
0.0000
 20
0.0000
 30
0.0000
 40
0.5000
  0
ENDBLK
  8
0
  0
BLOCK
  8
0
  2
ANNULUSP
 70
64
 10
0.0000
 20
0.0000
 30
0.0000
  3
ANNULUSP
  0
CIRCLE
  8
0
 10
0.0000
 20
0.0000
 30
0.0000
 40
0.5000
  0
ENDBLK
  8
0
  0
BLOCK
  8
0
  2
THERMALP
 70
64
 10
0.0000
 20
0.0000
 30
0.0000
  3
THERMALP
  0
LINE
  8
0
 10
-0.2379
 20
0.4500
 30
0.0000
 11
0.2379
 21
0.4500
 31
0.0000
  0
LINE
  8
0
 10
0.4500
 20
0.2379
 30
0.0000
 11
0.4500
 21
-0.2379
 31
0.0000
  0
LINE
  8
0
 10
0.2379
 20
-0.4500
 30
0.0000
 11
-0.2379
 21
-0.4500
 31
0.0000
  0
LINE
  8
0
 10
-0.4500
 20
-0.2379
 30
0.0000
 11
-0.4500
 21
0.2379
 31
0.0000
  0
ENDBLK
  8
0
  0
BLOCK
  8
0
  2
OCTAGONV
 70
64
 10
0.0000
 20
0.0000
 30
0.0000
  3
OCTAGONV
  0
POLYLINE
  8
0
 66
1
 10
0.0000
 20
0.0000
 30
0.0000
 40
0.0000
 41
0.0000
 70
1
  0
VERTEX
  8
0
 10
-0.5000
 20
-0.2071
 30
0.0000
  0
VERTEX
  8
0
 10
-0.5000
 20
0.2071
 30
0.0000
  0
VERTEX
  8
0
 10
-0.2071
 20
0.5000
 30
0.0000
  0
VERTEX
  8
0
 10
0.2071
 20
0.5000
 30
0.0000
  0
VERTEX
  8
0
 10
0.5000
 20
0.2071
 30
0.0000
  0
VERTEX
  8
0
 10
0.5000
 20
-0.2071
 30
0.0000
  0
VERTEX
  8
0
 10
0.2071
 20
-0.5000
 30
0.0000
  0
VERTEX
  8
0
 10
-0.2071
 20
-0.5000
 30
0.0000
  0
SEQEND
  8
0
  0
ENDBLK
  8
0
  0
BLOCK
  8
0
  2
SQUAREV
 70
64
 10
0.0000
 20
0.0000
 30
0.0000
  3
SQUAREV
  0
SOLID
  8
0
 10
-0.5000
 20
-0.5000
 30
0.0000
 11
0.5000
 21
-0.5000
 31
0.0000
 12
-0.5000
 22
0.5000
 32
0.0000
 13
0.5000
 23
0.5000
 33
0.0000
  0
ENDBLK
  8
0
  0
BLOCK
  8
0
  2
ROUNDV
 70
64
 10
0.0000
 20
0.0000
 30
0.0000
  3
ROUNDV
  0
CIRCLE
  8
0
 10
0.0000
 20
0.0000
 30
0.0000
 40
0.5000
  0
ENDBLK
  8
0
  0
BLOCK
  8
0
  2
ANNULUSV
 70
64
 10
0.0000
 20
0.0000
 30
0.0000
  3
ANNULUSV
  0
CIRCLE
  8
0
 10
0.0000
 20
0.0000
 30
0.0000
 40
0.5000
  0
ENDBLK
  8
0
  0
BLOCK
  8
0
  2
THERMALV
 70
64
 10
0.0000
 20
0.0000
 30
0.0000
  3
THERMALV
  0
LINE
  8
0
 10
-0.2379
 20
0.4500
 30
0.0000
 11
0.2379
 21
0.4500
 31
0.0000
  0
LINE
  8
0
 10
0.4500
 20
0.2379
 30
0.0000
 11
0.4500
 21
-0.2379
 31
0.0000
  0
LINE
  8
0
 10
0.2379
 20
-0.4500
 30
0.0000
 11
-0.2379
 21
-0.4500
 31
0.0000
  0
LINE
  8
0
 10
-0.4500
 20
-0.2379
 30
0.0000
 11
-0.4500
 21
0.2379
 31
0.0000
  0
ENDBLK
  8
0
  0
BLOCK
  8
0
  2
LONGP100
 70
64
 10
0.0000
 20
0.0000
 30
0.0000
  3
LONGP100
  0
POLYLINE
  8
0
 66
1
 10
0.0000
 20
0.0000
 30
0.0000
 40
0.0000
 41
0.0000
 70
1
  0
VERTEX
  8
0
 10
-0.5000
 20
-0.5000
 30
0.0000
  0
VERTEX
  8
0
 10
0.5000
 20
-0.5000
 30
0.0000
 42
1.0000
  0
VERTEX
  8
0
 10
0.5000
 20
0.5000
 30
0.0000
  0
VERTEX
  8
0
 10
-0.5000
 20
0.5000
 30
0.0000
 42
1.0000
  0
SEQEND
  8
0
  0
ENDBLK
  8
0
  0
ENDSEC
  0
SECTION
  2
ENTITIES
  0
LINE
  8
22
 10
35.0400
 20
34.5440
 30
0.0000
 11
35.0400
 21
37.0840
 31
0.0000
  0
LINE
  8
22
 10
33.7700
 20
35.5600
 30
0.0000
 11
33.7700
 21
37.0840
 31
0.0000
  0
LINE
  8
22
 10
35.6750
 20
37.0840
 30
0.0000
 11
35.0400
 21
37.0840
 31
0.0000
  0
LINE
  8
22
 10
35.0400
 20
37.0840
 30
0.0000
 11
33.7700
 21
37.0840
 31
0.0000
  0
LINE
  8
22
 10
33.7700
 20
37.0840
 30
0.0000
 11
33.1350
 21
37.0840
 31
0.0000
  0
LINE
  8
22
 10
33.1350
 20
37.0840
 30
0.0000
 11
33.1350
 21
37.9730
 31
0.0000
  0
LINE
  8
22
 10
35.6750
 20
37.0840
 30
0.0000
 11
35.6750
 21
37.9730
 31
0.0000
  0
LINE
  8
22
 10
34.7860
 20
37.9730
 30
0.0000
 11
34.7860
 21
38.9890
 31
0.0000
  0
LINE
  8
22
 10
34.7860
 20
38.9890
 30
0.0000
 11
34.0240
 21
38.9890
 31
0.0000
  0
LINE
  8
22
 10
34.0240
 20
38.9890
 30
0.0000
 11
34.0240
 21
37.9730
 31
0.0000
  0
LINE
  8
22
 10
34.0240
 20
37.9730
 30
0.0000
 11
33.1350
 21
37.9730
 31
0.0000
  0
LINE
  8
22
 10
34.7860
 20
37.9730
 30
0.0000
 11
35.6750
 21
37.9730
 31
0.0000
  0
LINE
  8
20
 10
96.0000
 20
53.8000
 30
0.0000
 11
96.0000
 21
1.2000
 31
0.0000
  0
LINE
  8
22
 10
72.5050
 20
13.0810
 30
0.0000
 11
62.5990
 21
13.0810
 31
0.0000
  0
LINE
  8
22
 10
62.5990
 20
13.0810
 30
0.0000
 11
62.5990
 21
23.3680
 31
0.0000
  0
LINE
  8
22
 10
62.5990
 20
23.3680
 30
0.0000
 11
72.5050
 21
23.3680
 31
0.0000
  0
LINE
  8
22
 10
72.5050
 20
23.3680
 30
0.0000
 11
72.5050
 21
13.0810
 31
0.0000
  0
LINE
  8
22
 10
72.5050
 20
29.9720
 30
0.0000
 11
72.5050
 21
41.1480
 31
0.0000
  0
LINE
  8
22
 10
72.5050
 20
41.1480
 30
0.0000
 11
62.7260
 21
41.1480
 31
0.0000
  0
LINE
  8
22
 10
72.5050
 20
41.7830
 30
0.0000
 11
72.5050
 21
51.5620
 31
0.0000
  0
LINE
  8
22
 10
72.5050
 20
51.5620
 30
0.0000
 11
61.4560
 21
51.5620
 31
0.0000
  0
LINE
  8
22
 10
61.4560
 20
51.5620
 30
0.0000
 11
61.4560
 21
24.1300
 31
0.0000
  0
LINE
  8
22
 10
61.4560
 20
24.1300
 30
0.0000
 11
72.5050
 21
24.1300
 31
0.0000
  0
LINE
  8
22
 10
72.5050
 20
24.1300
 30
0.0000
 11
72.5050
 21
29.9720
 31
0.0000
  0
LINE
  8
22
 10
72.5050
 20
29.9720
 30
0.0000
 11
62.7260
 21
29.9720
 31
0.0000
  0
LINE
  8
22
 10
62.7260
 20
29.9720
 30
0.0000
 11
62.7260
 21
41.1480
 31
0.0000
  0
LINE
  8
22
 10
62.7260
 20
41.1480
 30
0.0000
 11
62.7260
 21
41.7830
 31
0.0000
  0
LINE
  8
22
 10
62.7260
 20
41.7830
 30
0.0000
 11
72.5050
 21
41.7830
 31
0.0000
  0
LINE
  8
22
 10
64.2500
 20
43.0530
 30
0.0000
 11
62.7260
 21
43.0530
 31
0.0000
  0
LINE
  8
22
 10
62.7260
 20
43.0530
 30
0.0000
 11
62.0910
 21
42.4180
 31
0.0000
  0
LINE
  8
22
 10
62.0910
 20
42.4180
 30
0.0000
 11
62.0910
 21
41.0210
 31
0.0000
  0
LINE
  8
22
 10
62.0910
 20
40.8940
 30
0.0000
 11
62.3450
 21
41.1480
 31
0.0000
  0
LINE
  8
22
 10
62.0910
 20
40.8940
 30
0.0000
 11
61.8370
 21
41.1480
 31
0.0000
  0
LINE
  8
22
 10
39.3580
 20
34.5440
 30
0.0000
 11
39.3580
 21
34.0360
 31
0.0000
  0
LINE
  8
22
 10
39.3580
 20
34.0360
 30
0.0000
 11
39.1040
 21
33.7820
 31
0.0000
  0
LINE
  8
22
 10
39.1040
 20
33.7820
 30
0.0000
 11
37.0720
 21
33.7820
 31
0.0000
  0
LINE
  8
22
 10
37.0720
 20
33.7820
 30
0.0000
 11
36.8180
 21
34.0360
 31
0.0000
  0
LINE
  8
22
 10
36.8180
 20
34.0360
 30
0.0000
 11
36.8180
 21
34.5440
 31
0.0000
  0
LINE
  8
22
 10
38.0880
 20
33.6550
 30
0.0000
 11
38.0880
 21
32.6390
 31
0.0000
  0
LINE
  8
22
 10
38.0880
 20
32.6390
 30
0.0000
 11
38.9770
 21
31.7500
 31
0.0000
  0
LINE
  8
22
 10
38.9770
 20
31.7500
 30
0.0000
 11
40.8820
 21
31.7500
 31
0.0000
  0
LINE
  8
22
 10
41.6440
 20
32.5120
 30
0.0000
 11
48.3750
 21
32.5120
 31
0.0000
  0
LINE
  8
22
 10
48.3750
 20
32.5120
 30
0.0000
 11
48.3750
 21
26.0350
 31
0.0000
  0
LINE
  8
22
 10
48.3750
 20
26.0350
 30
0.0000
 11
48.1210
 21
25.7810
 31
0.0000
  0
LINE
  8
22
 10
48.1210
 20
25.7810
 30
0.0000
 11
42.5330
 21
25.7810
 31
0.0000
  0
LINE
  8
22
 10
42.5330
 20
25.7810
 30
0.0000
 11
41.0090
 21
27.3050
 31
0.0000
  0
LINE
  8
22
 10
41.0090
 20
27.3050
 30
0.0000
 11
41.0090
 21
31.8770
 31
0.0000
  0
LINE
  8
22
 10
41.0090
 20
31.8770
 30
0.0000
 11
41.6440
 21
32.5120
 31
0.0000
  0
LINE
  8
20
 10
0.0000
 20
1.2000
 30
0.0000
 11
96.0000
 21
1.2000
 31
0.0000
  0
LINE
  8
20
 10
0.0000
 20
53.8000
 30
0.0000
 11
96.0000
 21
53.8000
 31
0.0000
  0
LINE
  8
20
 10
0.0000
 20
53.8000
 30
0.0000
 11
0.0000
 21
1.2000
 31
0.0000
  0
LINE
  8
20
 10
0.0000
 20
53.8000
 30
0.0000
 11
-5.0000
 21
53.8000
 31
0.0000
  0
LINE
  8
20
 10
0.0000
 20
1.2000
 30
0.0000
 11
-5.0000
 21
1.2000
 31
0.0000
  0
LINE
  8
20
 10
101.0000
 20
1.2000
 30
0.0000
 11
96.0000
 21
1.2000
 31
0.0000
  0
LINE
  8
20
 10
101.0000
 20
53.8000
 30
0.0000
 11
96.0000
 21
53.8000
 31
0.0000
  0
LINE
  8
20
 10
-5.0000
 20
53.8000
 30
0.0000
 11
-5.0000
 21
1.2000
 31
0.0000
  0
LINE
  8
20
 10
101.0000
 20
1.2000
 30
0.0000
 11
101.0000
 21
53.8000
 31
0.0000
  0
LINE
  8
22
 10
47.7400
 20
5.4612
 30
0.0000
 11
47.7400
 21
6.4781
 31
0.0000
  0
LINE
  8
22
 10
47.7400
 20
6.4781
 30
0.0000
 11
47.4858
 21
6.7323
 31
0.0000
  0
LINE
  8
22
 10
47.4858
 20
6.7323
 30
0.0000
 11
46.9774
 21
6.7323
 31
0.0000
  0
LINE
  8
22
 10
46.9774
 20
6.7323
 30
0.0000
 11
46.7231
 21
6.4781
 31
0.0000
  0
LINE
  8
22
 10
46.7231
 20
6.4781
 30
0.0000
 11
46.7231
 21
5.4612
 31
0.0000
  0
LINE
  8
22
 10
46.7231
 20
5.4612
 30
0.0000
 11
46.9774
 21
5.2070
 31
0.0000
  0
LINE
  8
22
 10
46.9774
 20
5.2070
 30
0.0000
 11
47.4858
 21
5.2070
 31
0.0000
  0
LINE
  8
22
 10
47.4858
 20
5.2070
 30
0.0000
 11
47.7400
 21
5.4612
 31
0.0000
  0
LINE
  8
22
 10
47.2316
 20
5.7154
 30
0.0000
 11
46.7231
 21
5.2070
 31
0.0000
  0
LINE
  8
22
 10
45.0860
 20
6.4781
 30
0.0000
 11
45.3402
 21
6.7323
 31
0.0000
  0
LINE
  8
22
 10
45.3402
 20
6.7323
 30
0.0000
 11
45.8486
 21
6.7323
 31
0.0000
  0
LINE
  8
22
 10
45.8486
 20
6.7323
 30
0.0000
 11
46.1028
 21
6.4781
 31
0.0000
  0
LINE
  8
22
 10
46.1028
 20
6.4781
 30
0.0000
 11
46.1028
 21
5.4612
 31
0.0000
  0
LINE
  8
22
 10
46.1028
 20
5.4612
 30
0.0000
 11
45.8486
 21
5.2070
 31
0.0000
  0
LINE
  8
22
 10
45.8486
 20
5.2070
 30
0.0000
 11
45.3402
 21
5.2070
 31
0.0000
  0
LINE
  8
22
 10
45.3402
 20
5.2070
 30
0.0000
 11
45.0860
 21
5.4612
 31
0.0000
  0
CIRCLE
  8
22
 10
45.9620
 20
5.9690
 30
0.0000
 40
3.1750
  0
CIRCLE
  8
20
 10
0.8135
 20
5.2070
 30
0.0000
 40
0.5080
  0
CIRCLE
  8
20
 10
2.0835
 20
5.1435
 30
0.0000
 40
0.5080
  0
CIRCLE
  8
20
 10
3.4265
 20
5.0260
 30
0.0000
 40
0.5080
  0
CIRCLE
  8
20
 10
1.5000
 20
7.1000
 30
0.0000
 40
1.0922
  0
CIRCLE
  8
20
 10
4.4330
 20
4.2545
 30
0.0000
 40
0.5080
  0
CIRCLE
  8
20
 10
5.2395
 20
3.2655
 30
0.0000
 40
0.5080
  0
CIRCLE
  8
20
 10
87.0000
 20
46.5000
 30
0.0000
 40
1.0922
  0
CIRCLE
  8
20
 10
95.4475
 20
50.1555
 30
0.0000
 40
0.5080
  0
CIRCLE
  8
20
 10
94.3140
 20
50.0730
 30
0.0000
 40
0.5080
  0
CIRCLE
  8
20
 10
93.0440
 20
50.3270
 30
0.0000
 40
0.5080
  0
CIRCLE
  8
20
 10
92.0280
 20
51.0890
 30
0.0000
 40
0.5080
  0
CIRCLE
  8
20
 10
95.1865
 20
5.2070
 30
0.0000
 40
0.5080
  0
CIRCLE
  8
20
 10
93.9165
 20
5.1435
 30
0.0000
 40
0.5080
  0
CIRCLE
  8
20
 10
92.7735
 20
4.8260
 30
0.0000
 40
0.5080
  0
CIRCLE
  8
20
 10
91.5670
 20
4.2545
 30
0.0000
 40
0.5080
  0
CIRCLE
  8
20
 10
90.7605
 20
3.2655
 30
0.0000
 40
0.5080
  0
CIRCLE
  8
20
 10
0.5525
 20
50.1555
 30
0.0000
 40
0.5080
  0
CIRCLE
  8
20
 10
1.8860
 20
50.0730
 30
0.0000
 40
0.5080
  0
CIRCLE
  8
20
 10
3.3560
 20
50.1270
 30
0.0000
 40
0.5080
  0
CIRCLE
  8
20
 10
4.3720
 20
50.8890
 30
0.0000
 40
0.5080
  0
CIRCLE
  8
20
 10
84.5000
 20
2.5000
 30
0.0000
 40
1.1000
  0
CIRCLE
  8
20
 10
33.5000
 20
2.5000
 30
0.0000
 40
1.1000
  0
CIRCLE
  8
20
 10
33.5000
 20
52.5000
 30
0.0000
 40
1.1000
  0
CIRCLE
  8
20
 10
84.5000
 20
52.5000
 30
0.0000
 40
1.1000
  0
CIRCLE
  8
20
 10
91.6280
 20
52.0890
 30
0.0000
 40
0.5080
  0
CIRCLE
  8
20
 10
91.0280
 20
53.0890
 30
0.0000
 40
0.5080
  0
CIRCLE
  8
20
 10
5.3720
 20
51.6890
 30
0.0000
 40
0.5080
  0
CIRCLE
  8
20
 10
6.5720
 20
52.0890
 30
0.0000
 40
0.5080
  0
CIRCLE
  8
20
 10
7.3720
 20
53.0890
 30
0.0000
 40
0.5080
  0
CIRCLE
  8
20
 10
5.4395
 20
1.8655
 30
0.0000
 40
0.5080
  0
CIRCLE
  8
20
 10
90.5605
 20
1.8655
 30
0.0000
 40
0.5080
  0
POINT
  8
24
 10
15.9900
 20
27.5000
 30
0.0000
  0
LINE
  8
22
 10
20.6400
 20
48.5000
 30
0.0000
 11
20.6400
 21
6.5000
 31
0.0000
  0
LINE
  8
22
 10
20.6400
 20
48.5000
 30
0.0000
 11
11.3400
 21
48.5000
 31
0.0000
  0
LINE
  8
22
 10
11.3400
 20
6.5000
 30
0.0000
 11
11.3400
 21
48.5000
 31
0.0000
  0
LINE
  8
22
 10
11.3400
 20
6.5000
 30
0.0000
 11
20.6400
 21
6.5000
 31
0.0000
  0
INSERT
  8
17
  2
LONGP100
 10
18.4400
 20
8.2500
 30
0.0000
 41
1.5240
 42
1.5240
 43
1.0000
 50
0.0000
  0
INSERT
  8
17
  2
LONGP100
 10
18.4400
 20
8.2500
 30
0.0000
 41
1.5240
 42
1.5240
 43
1.0000
 50
0.0000
  0
CIRCLE
  8
44
 10
18.4400
 20
8.2500
 30
0.0000
 40
0.5588
  0
INSERT
  8
17
  2
LONGP100
 10
12.9400
 20
11.7500
 30
0.0000
 41
1.5240
 42
1.5240
 43
1.0000
 50
0.0000
  0
INSERT
  8
17
  2
LONGP100
 10
12.9400
 20
11.7500
 30
0.0000
 41
1.5240
 42
1.5240
 43
1.0000
 50
0.0000
  0
CIRCLE
  8
44
 10
12.9400
 20
11.7500
 30
0.0000
 40
0.5588
  0
INSERT
  8
17
  2
LONGP100
 10
18.4400
 20
15.2500
 30
0.0000
 41
1.5240
 42
1.5240
 43
1.0000
 50
0.0000
  0
INSERT
  8
17
  2
LONGP100
 10
18.4400
 20
15.2500
 30
0.0000
 41
1.5240
 42
1.5240
 43
1.0000
 50
0.0000
  0
CIRCLE
  8
44
 10
18.4400
 20
15.2500
 30
0.0000
 40
0.5588
  0
INSERT
  8
17
  2
LONGP100
 10
12.9400
 20
18.7500
 30
0.0000
 41
1.5240
 42
1.5240
 43
1.0000
 50
0.0000
  0
INSERT
  8
17
  2
LONGP100
 10
12.9400
 20
18.7500
 30
0.0000
 41
1.5240
 42
1.5240
 43
1.0000
 50
0.0000
  0
CIRCLE
  8
44
 10
12.9400
 20
18.7500
 30
0.0000
 40
0.5588
  0
INSERT
  8
17
  2
LONGP100
 10
18.4400
 20
22.2500
 30
0.0000
 41
1.5240
 42
1.5240
 43
1.0000
 50
0.0000
  0
INSERT
  8
17
  2
LONGP100
 10
18.4400
 20
22.2500
 30
0.0000
 41
1.5240
 42
1.5240
 43
1.0000
 50
0.0000
  0
CIRCLE
  8
44
 10
18.4400
 20
22.2500
 30
0.0000
 40
0.5588
  0
INSERT
  8
17
  2
LONGP100
 10
12.9400
 20
25.7500
 30
0.0000
 41
1.5240
 42
1.5240
 43
1.0000
 50
0.0000
  0
INSERT
  8
17
  2
LONGP100
 10
12.9400
 20
25.7500
 30
0.0000
 41
1.5240
 42
1.5240
 43
1.0000
 50
0.0000
  0
CIRCLE
  8
44
 10
12.9400
 20
25.7500
 30
0.0000
 40
0.5588
  0
INSERT
  8
17
  2
LONGP100
 10
18.4400
 20
29.2500
 30
0.0000
 41
1.5240
 42
1.5240
 43
1.0000
 50
0.0000
  0
INSERT
  8
17
  2
LONGP100
 10
18.4400
 20
29.2500
 30
0.0000
 41
1.5240
 42
1.5240
 43
1.0000
 50
0.0000
  0
CIRCLE
  8
44
 10
18.4400
 20
29.2500
 30
0.0000
 40
0.5588
  0
INSERT
  8
17
  2
LONGP100
 10
12.9400
 20
32.7500
 30
0.0000
 41
1.5240
 42
1.5240
 43
1.0000
 50
0.0000
  0
INSERT
  8
17
  2
LONGP100
 10
12.9400
 20
32.7500
 30
0.0000
 41
1.5240
 42
1.5240
 43
1.0000
 50
0.0000
  0
CIRCLE
  8
44
 10
12.9400
 20
32.7500
 30
0.0000
 40
0.5588
  0
INSERT
  8
17
  2
LONGP100
 10
18.4400
 20
36.2500
 30
0.0000
 41
1.5240
 42
1.5240
 43
1.0000
 50
0.0000
  0
INSERT
  8
17
  2
LONGP100
 10
18.4400
 20
36.2500
 30
0.0000
 41
1.5240
 42
1.5240
 43
1.0000
 50
0.0000
  0
CIRCLE
  8
44
 10
18.4400
 20
36.2500
 30
0.0000
 40
0.5588
  0
INSERT
  8
17
  2
LONGP100
 10
12.9400
 20
39.7500
 30
0.0000
 41
1.5240
 42
1.5240
 43
1.0000
 50
0.0000
  0
INSERT
  8
17
  2
LONGP100
 10
12.9400
 20
39.7500
 30
0.0000
 41
1.5240
 42
1.5240
 43
1.0000
 50
0.0000
  0
CIRCLE
  8
44
 10
12.9400
 20
39.7500
 30
0.0000
 40
0.5588
  0
INSERT
  8
17
  2
LONGP100
 10
18.4400
 20
43.2500
 30
0.0000
 41
1.5240
 42
1.5240
 43
1.0000
 50
0.0000
  0
INSERT
  8
17
  2
LONGP100
 10
18.4400
 20
43.2500
 30
0.0000
 41
1.5240
 42
1.5240
 43
1.0000
 50
0.0000
  0
CIRCLE
  8
44
 10
18.4400
 20
43.2500
 30
0.0000
 40
0.5588
  0
INSERT
  8
17
  2
LONGP100
 10
12.9400
 20
46.7500
 30
0.0000
 41
1.5240
 42
1.5240
 43
1.0000
 50
0.0000
  0
INSERT
  8
17
  2
LONGP100
 10
12.9400
 20
46.7500
 30
0.0000
 41
1.5240
 42
1.5240
 43
1.0000
 50
0.0000
  0
CIRCLE
  8
44
 10
12.9400
 20
46.7500
 30
0.0000
 40
0.5588
  0
POINT
  8
24
 10
26.7850
 20
27.5000
 30
0.0000
  0
LINE
  8
22
 10
31.4350
 20
48.5000
 30
0.0000
 11
31.4350
 21
6.5000
 31
0.0000
  0
LINE
  8
22
 10
31.4350
 20
48.5000
 30
0.0000
 11
22.1350
 21
48.5000
 31
0.0000
  0
LINE
  8
22
 10
22.1350
 20
6.5000
 30
0.0000
 11
22.1350
 21
48.5000
 31
0.0000
  0
LINE
  8
22
 10
22.1350
 20
6.5000
 30
0.0000
 11
31.4350
 21
6.5000
 31
0.0000
  0
INSERT
  8
17
  2
LONGP100
 10
29.2350
 20
8.2500
 30
0.0000
 41
1.5240
 42
1.5240
 43
1.0000
 50
0.0000
  0
INSERT
  8
17
  2
LONGP100
 10
29.2350
 20
8.2500
 30
0.0000
 41
1.5240
 42
1.5240
 43
1.0000
 50
0.0000
  0
CIRCLE
  8
44
 10
29.2350
 20
8.2500
 30
0.0000
 40
0.5588
  0
INSERT
  8
17
  2
LONGP100
 10
23.7350
 20
11.7500
 30
0.0000
 41
1.5240
 42
1.5240
 43
1.0000
 50
0.0000
  0
INSERT
  8
17
  2
LONGP100
 10
23.7350
 20
11.7500
 30
0.0000
 41
1.5240
 42
1.5240
 43
1.0000
 50
0.0000
  0
CIRCLE
  8
44
 10
23.7350
 20
11.7500
 30
0.0000
 40
0.5588
  0
INSERT
  8
17
  2
LONGP100
 10
29.2350
 20
15.2500
 30
0.0000
 41
1.5240
 42
1.5240
 43
1.0000
 50
0.0000
  0
INSERT
  8
17
  2
LONGP100
 10
29.2350
 20
15.2500
 30
0.0000
 41
1.5240
 42
1.5240
 43
1.0000
 50
0.0000
  0
CIRCLE
  8
44
 10
29.2350
 20
15.2500
 30
0.0000
 40
0.5588
  0
INSERT
  8
17
  2
LONGP100
 10
23.7350
 20
18.7500
 30
0.0000
 41
1.5240
 42
1.5240
 43
1.0000
 50
0.0000
  0
INSERT
  8
17
  2
LONGP100
 10
23.7350
 20
18.7500
 30
0.0000
 41
1.5240
 42
1.5240
 43
1.0000
 50
0.0000
  0
CIRCLE
  8
44
 10
23.7350
 20
18.7500
 30
0.0000
 40
0.5588
  0
INSERT
  8
17
  2
LONGP100
 10
29.2350
 20
22.2500
 30
0.0000
 41
1.5240
 42
1.5240
 43
1.0000
 50
0.0000
  0
INSERT
  8
17
  2
LONGP100
 10
29.2350
 20
22.2500
 30
0.0000
 41
1.5240
 42
1.5240
 43
1.0000
 50
0.0000
  0
CIRCLE
  8
44
 10
29.2350
 20
22.2500
 30
0.0000
 40
0.5588
  0
INSERT
  8
17
  2
LONGP100
 10
23.7350
 20
25.7500
 30
0.0000
 41
1.5240
 42
1.5240
 43
1.0000
 50
0.0000
  0
INSERT
  8
17
  2
LONGP100
 10
23.7350
 20
25.7500
 30
0.0000
 41
1.5240
 42
1.5240
 43
1.0000
 50
0.0000
  0
CIRCLE
  8
44
 10
23.7350
 20
25.7500
 30
0.0000
 40
0.5588
  0
INSERT
  8
17
  2
LONGP100
 10
29.2350
 20
29.2500
 30
0.0000
 41
1.5240
 42
1.5240
 43
1.0000
 50
0.0000
  0
INSERT
  8
17
  2
LONGP100
 10
29.2350
 20
29.2500
 30
0.0000
 41
1.5240
 42
1.5240
 43
1.0000
 50
0.0000
  0
CIRCLE
  8
44
 10
29.2350
 20
29.2500
 30
0.0000
 40
0.5588
  0
INSERT
  8
17
  2
LONGP100
 10
23.7350
 20
32.7500
 30
0.0000
 41
1.5240
 42
1.5240
 43
1.0000
 50
0.0000
  0
INSERT
  8
17
  2
LONGP100
 10
23.7350
 20
32.7500
 30
0.0000
 41
1.5240
 42
1.5240
 43
1.0000
 50
0.0000
  0
CIRCLE
  8
44
 10
23.7350
 20
32.7500
 30
0.0000
 40
0.5588
  0
INSERT
  8
17
  2
LONGP100
 10
29.2350
 20
36.2500
 30
0.0000
 41
1.5240
 42
1.5240
 43
1.0000
 50
0.0000
  0
INSERT
  8
17
  2
LONGP100
 10
29.2350
 20
36.2500
 30
0.0000
 41
1.5240
 42
1.5240
 43
1.0000
 50
0.0000
  0
CIRCLE
  8
44
 10
29.2350
 20
36.2500
 30
0.0000
 40
0.5588
  0
INSERT
  8
17
  2
LONGP100
 10
23.7350
 20
39.7500
 30
0.0000
 41
1.5240
 42
1.5240
 43
1.0000
 50
0.0000
  0
INSERT
  8
17
  2
LONGP100
 10
23.7350
 20
39.7500
 30
0.0000
 41
1.5240
 42
1.5240
 43
1.0000
 50
0.0000
  0
CIRCLE
  8
44
 10
23.7350
 20
39.7500
 30
0.0000
 40
0.5588
  0
INSERT
  8
17
  2
LONGP100
 10
29.2350
 20
43.2500
 30
0.0000
 41
1.5240
 42
1.5240
 43
1.0000
 50
0.0000
  0
INSERT
  8
17
  2
LONGP100
 10
29.2350
 20
43.2500
 30
0.0000
 41
1.5240
 42
1.5240
 43
1.0000
 50
0.0000
  0
CIRCLE
  8
44
 10
29.2350
 20
43.2500
 30
0.0000
 40
0.5588
  0
INSERT
  8
17
  2
LONGP100
 10
23.7350
 20
46.7500
 30
0.0000
 41
1.5240
 42
1.5240
 43
1.0000
 50
0.0000
  0
INSERT
  8
17
  2
LONGP100
 10
23.7350
 20
46.7500
 30
0.0000
 41
1.5240
 42
1.5240
 43
1.0000
 50
0.0000
  0
CIRCLE
  8
44
 10
23.7350
 20
46.7500
 30
0.0000
 40
0.5588
  0
POINT
  8
24
 10
65.0120
 20
8.5090
 30
0.0000
  0
POINT
  8
24
 10
34.5320
 20
7.3660
 30
0.0000
  0
ARC
  8
22
 10
34.5320
 20
7.3660
 30
0.0000
 40
2.6670
 50
51.7543
 51
162.8532
  0
ARC
  8
22
 10
34.5320
 20
7.3655
 30
0.0000
 40
2.6670
 50
197.1473
 51
308.2469
  0
LINE
  8
22
 10
36.1830
 20
9.4610
 30
0.0000
 11
36.1830
 21
5.2710
 31
0.0000
  0
LINE
  8
22
 10
34.7860
 20
10.0210
 30
0.0000
 11
34.7860
 21
9.6200
 31
0.0000
  0
LINE
  8
22
 10
34.7860
 20
5.1120
 30
0.0000
 11
34.7860
 21
4.7110
 31
0.0000
  0
INSERT
  8
17
  2
OCTAGONP
 10
32.6270
 20
7.3660
 30
0.0000
 41
1.2192
 42
1.2192
 43
1.0000
 50
270.0000
  0
INSERT
  8
17
  2
OCTAGONP
 10
32.6270
 20
7.3660
 30
0.0000
 41
1.2192
 42
1.2192
 43
1.0000
 50
270.0000
  0
CIRCLE
  8
44
 10
32.6270
 20
7.3660
 30
0.0000
 40
0.4064
  0
INSERT
  8
17
  2
OCTAGONP
 10
34.5320
 20
6.0960
 30
0.0000
 41
1.2192
 42
1.2192
 43
1.0000
 50
270.0000
  0
INSERT
  8
17
  2
OCTAGONP
 10
34.5320
 20
6.0960
 30
0.0000
 41
1.2192
 42
1.2192
 43
1.0000
 50
270.0000
  0
CIRCLE
  8
44
 10
34.5320
 20
6.0960
 30
0.0000
 40
0.4064
  0
INSERT
  8
17
  2
OCTAGONP
 10
34.5320
 20
8.6360
 30
0.0000
 41
1.2192
 42
1.2192
 43
1.0000
 50
270.0000
  0
INSERT
  8
17
  2
OCTAGONP
 10
34.5320
 20
8.6360
 30
0.0000
 41
1.2192
 42
1.2192
 43
1.0000
 50
270.0000
  0
CIRCLE
  8
44
 10
34.5320
 20
8.6360
 30
0.0000
 40
0.4064
  0
POINT
  8
24
 10
45.8350
 20
44.4500
 30
0.0000
  0
LINE
  8
22
 10
50.4070
 20
37.4650
 30
0.0000
 11
41.2630
 21
37.4650
 31
0.0000
  0
LINE
  8
22
 10
41.2630
 20
45.7200
 30
0.0000
 11
41.2630
 21
37.4650
 31
0.0000
  0
LINE
  8
22
 10
41.2630
 20
45.7200
 30
0.0000
 11
50.4070
 21
45.7200
 31
0.0000
  0
LINE
  8
22
 10
50.4070
 20
37.4650
 30
0.0000
 11
50.4070
 21
45.7200
 31
0.0000
  0
INSERT
  8
17
  2
LONGP100
 10
48.3750
 20
34.2900
 30
0.0000
 41
1.5240
 42
1.5240
 43
1.0000
 50
90.0000
  0
INSERT
  8
17
  2
LONGP100
 10
48.3750
 20
34.2900
 30
0.0000
 41
1.5240
 42
1.5240
 43
1.0000
 50
90.0000
  0
CIRCLE
  8
44
 10
48.3750
 20
34.2900
 30
0.0000
 40
0.5588
  0
INSERT
  8
17
  2
LONGP100
 10
45.8350
 20
34.2900
 30
0.0000
 41
1.5240
 42
1.5240
 43
1.0000
 50
90.0000
  0
INSERT
  8
17
  2
LONGP100
 10
45.8350
 20
34.2900
 30
0.0000
 41
1.5240
 42
1.5240
 43
1.0000
 50
90.0000
  0
CIRCLE
  8
44
 10
45.8350
 20
34.2900
 30
0.0000
 40
0.5588
  0
INSERT
  8
17
  2
LONGP100
 10
43.2950
 20
34.2900
 30
0.0000
 41
1.5240
 42
1.5240
 43
1.0000
 50
90.0000
  0
INSERT
  8
17
  2
LONGP100
 10
43.2950
 20
34.2900
 30
0.0000
 41
1.5240
 42
1.5240
 43
1.0000
 50
90.0000
  0
CIRCLE
  8
44
 10
43.2950
 20
34.2900
 30
0.0000
 40
0.5588
  0
POINT
  8
24
 10
67.5520
 20
26.1620
 30
0.0000
  0
LINE
  8
22
 10
63.3020
 20
28.1620
 30
0.0000
 11
63.3020
 21
24.1620
 31
0.0000
  0
LINE
  8
22
 10
63.3020
 20
28.1620
 30
0.0000
 11
71.8020
 21
28.1620
 31
0.0000
  0
LINE
  8
22
 10
71.8020
 20
24.1620
 30
0.0000
 11
71.8020
 21
28.1620
 31
0.0000
  0
LINE
  8
22
 10
63.3020
 20
24.1620
 30
0.0000
 11
71.8020
 21
24.1620
 31
0.0000
  0
CIRCLE
  8
20
 10
70.0920
 20
26.1620
 30
0.0000
 40
0.3500
  0
INSERT
  8
17
  2
ROUNDP
 10
65.0120
 20
26.1620
 30
0.0000
 41
1.2564
 42
1.2564
 43
1.0000
 50
270.0000
  0
INSERT
  8
17
  2
ROUNDP
 10
65.0120
 20
26.1620
 30
0.0000
 41
1.2564
 42
1.2564
 43
1.0000
 50
270.0000
  0
CIRCLE
  8
44
 10
65.0120
 20
26.1620
 30
0.0000
 40
0.4250
  0
INSERT
  8
17
  2
LONGP100
 10
67.5520
 20
26.1620
 30
0.0000
 41
1.2564
 42
1.2564
 43
1.0000
 50
270.0000
  0
INSERT
  8
17
  2
LONGP100
 10
67.5520
 20
26.1620
 30
0.0000
 41
1.2564
 42
1.2564
 43
1.0000
 50
270.0000
  0
CIRCLE
  8
44
 10
67.5520
 20
26.1620
 30
0.0000
 40
0.4250
  0
POINT
  8
24
 10
87.5030
 20
7.3540
 30
0.0000
  0
LINE
  8
22
 10
83.2530
 20
9.3540
 30
0.0000
 11
83.2530
 21
5.3540
 31
0.0000
  0
LINE
  8
22
 10
83.2530
 20
9.3540
 30
0.0000
 11
91.7530
 21
9.3540
 31
0.0000
  0
LINE
  8
22
 10
91.7530
 20
5.3540
 30
0.0000
 11
91.7530
 21
9.3540
 31
0.0000
  0
LINE
  8
22
 10
83.2530
 20
5.3540
 30
0.0000
 11
91.7530
 21
5.3540
 31
0.0000
  0
CIRCLE
  8
20
 10
90.0430
 20
7.3540
 30
0.0000
 40
0.3500
  0
INSERT
  8
17
  2
ROUNDP
 10
84.9630
 20
7.3540
 30
0.0000
 41
1.2564
 42
1.2564
 43
1.0000
 50
270.0000
  0
INSERT
  8
17
  2
ROUNDP
 10
84.9630
 20
7.3540
 30
0.0000
 41
1.2564
 42
1.2564
 43
1.0000
 50
270.0000
  0
CIRCLE
  8
44
 10
84.9630
 20
7.3540
 30
0.0000
 40
0.4250
  0
INSERT
  8
17
  2
LONGP100
 10
87.5030
 20
7.3540
 30
0.0000
 41
1.2564
 42
1.2564
 43
1.0000
 50
270.0000
  0
INSERT
  8
17
  2
LONGP100
 10
87.5030
 20
7.3540
 30
0.0000
 41
1.2564
 42
1.2564
 43
1.0000
 50
270.0000
  0
CIRCLE
  8
44
 10
87.5030
 20
7.3540
 30
0.0000
 40
0.4250
  0
POINT
  8
24
 10
36.8180
 20
35.0520
 30
0.0000
  0
LINE
  8
22
 10
41.0680
 20
33.0520
 30
0.0000
 11
41.0680
 21
37.0520
 31
0.0000
  0
LINE
  8
22
 10
41.0680
 20
33.0520
 30
0.0000
 11
32.5680
 21
33.0520
 31
0.0000
  0
LINE
  8
22
 10
32.5680
 20
37.0520
 30
0.0000
 11
32.5680
 21
33.0520
 31
0.0000
  0
LINE
  8
22
 10
41.0680
 20
37.0520
 30
0.0000
 11
32.5680
 21
37.0520
 31
0.0000
  0
CIRCLE
  8
20
 10
34.2780
 20
35.0520
 30
0.0000
 40
0.3500
  0
INSERT
  8
17
  2
ROUNDP
 10
39.3580
 20
35.0520
 30
0.0000
 41
1.2564
 42
1.2564
 43
1.0000
 50
90.0000
  0
INSERT
  8
17
  2
ROUNDP
 10
39.3580
 20
35.0520
 30
0.0000
 41
1.2564
 42
1.2564
 43
1.0000
 50
90.0000
  0
CIRCLE
  8
44
 10
39.3580
 20
35.0520
 30
0.0000
 40
0.4250
  0
INSERT
  8
17
  2
LONGP100
 10
36.8180
 20
35.0520
 30
0.0000
 41
1.2564
 42
1.2564
 43
1.0000
 50
90.0000
  0
INSERT
  8
17
  2
LONGP100
 10
36.8180
 20
35.0520
 30
0.0000
 41
1.2564
 42
1.2564
 43
1.0000
 50
90.0000
  0
CIRCLE
  8
44
 10
36.8180
 20
35.0520
 30
0.0000
 40
0.4250
  0
POINT
  8
24
 10
67.5520
 20
32.0040
 30
0.0000
  0
LINE
  8
22
 10
63.3020
 20
34.0040
 30
0.0000
 11
63.3020
 21
30.0040
 31
0.0000
  0
LINE
  8
22
 10
63.3020
 20
34.0040
 30
0.0000
 11
71.8020
 21
34.0040
 31
0.0000
  0
LINE
  8
22
 10
71.8020
 20
30.0040
 30
0.0000
 11
71.8020
 21
34.0040
 31
0.0000
  0
LINE
  8
22
 10
63.3020
 20
30.0040
 30
0.0000
 11
71.8020
 21
30.0040
 31
0.0000
  0
CIRCLE
  8
20
 10
70.0920
 20
32.0040
 30
0.0000
 40
0.3500
  0
INSERT
  8
17
  2
ROUNDP
 10
65.0120
 20
32.0040
 30
0.0000
 41
1.2564
 42
1.2564
 43
1.0000
 50
270.0000
  0
INSERT
  8
17
  2
ROUNDP
 10
65.0120
 20
32.0040
 30
0.0000
 41
1.2564
 42
1.2564
 43
1.0000
 50
270.0000
  0
CIRCLE
  8
44
 10
65.0120
 20
32.0040
 30
0.0000
 40
0.4250
  0
INSERT
  8
17
  2
LONGP100
 10
67.5520
 20
32.0040
 30
0.0000
 41
1.2564
 42
1.2564
 43
1.0000
 50
270.0000
  0
INSERT
  8
17
  2
LONGP100
 10
67.5520
 20
32.0040
 30
0.0000
 41
1.2564
 42
1.2564
 43
1.0000
 50
270.0000
  0
CIRCLE
  8
44
 10
67.5520
 20
32.0040
 30
0.0000
 40
0.4250
  0
POINT
  8
24
 10
67.5520
 20
21.3360
 30
0.0000
  0
LINE
  8
22
 10
63.3020
 20
23.3360
 30
0.0000
 11
63.3020
 21
19.3360
 31
0.0000
  0
LINE
  8
22
 10
63.3020
 20
23.3360
 30
0.0000
 11
71.8020
 21
23.3360
 31
0.0000
  0
LINE
  8
22
 10
71.8020
 20
19.3360
 30
0.0000
 11
71.8020
 21
23.3360
 31
0.0000
  0
LINE
  8
22
 10
63.3020
 20
19.3360
 30
0.0000
 11
71.8020
 21
19.3360
 31
0.0000
  0
INSERT
  8
17
  2
ROUNDP
 10
65.0120
 20
21.3360
 30
0.0000
 41
1.2564
 42
1.2564
 43
1.0000
 50
270.0000
  0
INSERT
  8
17
  2
ROUNDP
 10
65.0120
 20
21.3360
 30
0.0000
 41
1.2564
 42
1.2564
 43
1.0000
 50
270.0000
  0
CIRCLE
  8
44
 10
65.0120
 20
21.3360
 30
0.0000
 40
0.4250
  0
INSERT
  8
17
  2
LONGP100
 10
67.5520
 20
21.3360
 30
0.0000
 41
1.2564
 42
1.2564
 43
1.0000
 50
270.0000
  0
INSERT
  8
17
  2
LONGP100
 10
67.5520
 20
21.3360
 30
0.0000
 41
1.2564
 42
1.2564
 43
1.0000
 50
270.0000
  0
CIRCLE
  8
44
 10
67.5520
 20
21.3360
 30
0.0000
 40
0.4250
  0
INSERT
  8
17
  2
ROUNDP
 10
70.0920
 20
21.3360
 30
0.0000
 41
1.2564
 42
1.2564
 43
1.0000
 50
270.0000
  0
INSERT
  8
17
  2
ROUNDP
 10
70.0920
 20
21.3360
 30
0.0000
 41
1.2564
 42
1.2564
 43
1.0000
 50
270.0000
  0
CIRCLE
  8
44
 10
70.0920
 20
21.3360
 30
0.0000
 40
0.4250
  0
POINT
  8
24
 10
34.2780
 20
29.2500
 30
0.0000
  0
LINE
  8
22
 10
35.5480
 20
27.9800
 30
0.0000
 11
34.2780
 21
27.9800
 31
0.0000
  0
LINE
  8
22
 10
34.2780
 20
27.9800
 30
0.0000
 11
33.0080
 21
27.9800
 31
0.0000
  0
LINE
  8
22
 10
33.0080
 20
30.5200
 30
0.0000
 11
34.2780
 21
30.5200
 31
0.0000
  0
LINE
  8
22
 10
34.2780
 20
30.5200
 30
0.0000
 11
35.5480
 21
30.5200
 31
0.0000
  0
LINE
  8
22
 10
33.0080
 20
27.9800
 30
0.0000
 11
33.0080
 21
28.3610
 31
0.0000
  0
LINE
  8
22
 10
33.0080
 20
30.5200
 30
0.0000
 11
33.0080
 21
30.1390
 31
0.0000
  0
LINE
  8
22
 10
35.5480
 20
30.5200
 30
0.0000
 11
35.5480
 21
30.1390
 31
0.0000
  0
LINE
  8
22
 10
35.5480
 20
27.9800
 30
0.0000
 11
35.5480
 21
28.3610
 31
0.0000
  0
ARC
  8
22
 10
34.2780
 20
29.2500
 30
0.0000
 40
1.2700
 50
89.9988
 51
141.3380
  0
ARC
  8
22
 10
34.2780
 20
29.2500
 30
0.0000
 40
1.2700
 50
38.6620
 51
90.0012
  0
ARC
  8
22
 10
34.2780
 20
29.2500
 30
0.0000
 40
1.2700
 50
218.6620
 51
270.0012
  0
ARC
  8
22
 10
34.2780
 20
29.2500
 30
0.0000
 40
1.2700
 50
269.9988
 51
321.3380
  0
ARC
  8
22
 10
34.2780
 20
29.2500
 30
0.0000
 40
0.5080
 50
180.0000
 51
270.0000
  0
INSERT
  8
22
  2
RECT
 10
32.3095
 20
29.2500
 30
0.0000
 41
0.1270
 42
1.2700
 43
1.0000
 50
180.0000
  0
INSERT
  8
17
  2
OCTAGONP
 10
35.5480
 20
29.2500
 30
0.0000
 41
1.2192
 42
1.2192
 43
1.0000
 50
180.0000
  0
INSERT
  8
17
  2
OCTAGONP
 10
35.5480
 20
29.2500
 30
0.0000
 41
1.2192
 42
1.2192
 43
1.0000
 50
180.0000
  0
CIRCLE
  8
44
 10
35.5480
 20
29.2500
 30
0.0000
 40
0.4064
  0
INSERT
  8
17
  2
OCTAGONP
 10
33.0080
 20
29.2500
 30
0.0000
 41
1.2192
 42
1.2192
 43
1.0000
 50
180.0000
  0
INSERT
  8
17
  2
OCTAGONP
 10
33.0080
 20
29.2500
 30
0.0000
 41
1.2192
 42
1.2192
 43
1.0000
 50
180.0000
  0
CIRCLE
  8
44
 10
33.0080
 20
29.2500
 30
0.0000
 40
0.4064
  0
POINT
  8
24
 10
34.2780
 20
11.7500
 30
0.0000
  0
LINE
  8
22
 10
35.5480
 20
10.4800
 30
0.0000
 11
34.2780
 21
10.4800
 31
0.0000
  0
LINE
  8
22
 10
34.2780
 20
10.4800
 30
0.0000
 11
33.0080
 21
10.4800
 31
0.0000
  0
LINE
  8
22
 10
33.0080
 20
13.0200
 30
0.0000
 11
34.2780
 21
13.0200
 31
0.0000
  0
LINE
  8
22
 10
34.2780
 20
13.0200
 30
0.0000
 11
35.5480
 21
13.0200
 31
0.0000
  0
LINE
  8
22
 10
33.0080
 20
10.4800
 30
0.0000
 11
33.0080
 21
10.8610
 31
0.0000
  0
LINE
  8
22
 10
33.0080
 20
13.0200
 30
0.0000
 11
33.0080
 21
12.6390
 31
0.0000
  0
LINE
  8
22
 10
35.5480
 20
13.0200
 30
0.0000
 11
35.5480
 21
12.6390
 31
0.0000
  0
LINE
  8
22
 10
35.5480
 20
10.4800
 30
0.0000
 11
35.5480
 21
10.8610
 31
0.0000
  0
ARC
  8
22
 10
34.2780
 20
11.7500
 30
0.0000
 40
1.2700
 50
89.9988
 51
141.3380
  0
ARC
  8
22
 10
34.2780
 20
11.7500
 30
0.0000
 40
1.2700
 50
38.6620
 51
90.0012
  0
ARC
  8
22
 10
34.2780
 20
11.7500
 30
0.0000
 40
1.2700
 50
218.6620
 51
270.0012
  0
ARC
  8
22
 10
34.2780
 20
11.7500
 30
0.0000
 40
1.2700
 50
269.9988
 51
321.3380
  0
ARC
  8
22
 10
34.2780
 20
11.7500
 30
0.0000
 40
0.5080
 50
180.0000
 51
270.0000
  0
INSERT
  8
22
  2
RECT
 10
32.3095
 20
11.7500
 30
0.0000
 41
0.1270
 42
1.2700
 43
1.0000
 50
180.0000
  0
INSERT
  8
17
  2
OCTAGONP
 10
35.5480
 20
11.7500
 30
0.0000
 41
1.2192
 42
1.2192
 43
1.0000
 50
180.0000
  0
INSERT
  8
17
  2
OCTAGONP
 10
35.5480
 20
11.7500
 30
0.0000
 41
1.2192
 42
1.2192
 43
1.0000
 50
180.0000
  0
CIRCLE
  8
44
 10
35.5480
 20
11.7500
 30
0.0000
 40
0.4064
  0
INSERT
  8
17
  2
OCTAGONP
 10
33.0080
 20
11.7500
 30
0.0000
 41
1.2192
 42
1.2192
 43
1.0000
 50
180.0000
  0
INSERT
  8
17
  2
OCTAGONP
 10
33.0080
 20
11.7500
 30
0.0000
 41
1.2192
 42
1.2192
 43
1.0000
 50
180.0000
  0
CIRCLE
  8
44
 10
33.0080
 20
11.7500
 30
0.0000
 40
0.4064
  0
POINT
  8
24
 10
34.2780
 20
15.2500
 30
0.0000
  0
LINE
  8
22
 10
35.5480
 20
13.9800
 30
0.0000
 11
34.2780
 21
13.9800
 31
0.0000
  0
LINE
  8
22
 10
34.2780
 20
13.9800
 30
0.0000
 11
33.0080
 21
13.9800
 31
0.0000
  0
LINE
  8
22
 10
33.0080
 20
16.5200
 30
0.0000
 11
34.2780
 21
16.5200
 31
0.0000
  0
LINE
  8
22
 10
34.2780
 20
16.5200
 30
0.0000
 11
35.5480
 21
16.5200
 31
0.0000
  0
LINE
  8
22
 10
33.0080
 20
13.9800
 30
0.0000
 11
33.0080
 21
14.3610
 31
0.0000
  0
LINE
  8
22
 10
33.0080
 20
16.5200
 30
0.0000
 11
33.0080
 21
16.1390
 31
0.0000
  0
LINE
  8
22
 10
35.5480
 20
16.5200
 30
0.0000
 11
35.5480
 21
16.1390
 31
0.0000
  0
LINE
  8
22
 10
35.5480
 20
13.9800
 30
0.0000
 11
35.5480
 21
14.3610
 31
0.0000
  0
ARC
  8
22
 10
34.2780
 20
15.2500
 30
0.0000
 40
1.2700
 50
89.9988
 51
141.3380
  0
ARC
  8
22
 10
34.2780
 20
15.2500
 30
0.0000
 40
1.2700
 50
38.6620
 51
90.0012
  0
ARC
  8
22
 10
34.2780
 20
15.2500
 30
0.0000
 40
1.2700
 50
218.6620
 51
270.0012
  0
ARC
  8
22
 10
34.2780
 20
15.2500
 30
0.0000
 40
1.2700
 50
269.9988
 51
321.3380
  0
ARC
  8
22
 10
34.2780
 20
15.2500
 30
0.0000
 40
0.5080
 50
180.0000
 51
270.0000
  0
INSERT
  8
22
  2
RECT
 10
32.3095
 20
15.2500
 30
0.0000
 41
0.1270
 42
1.2700
 43
1.0000
 50
180.0000
  0
INSERT
  8
17
  2
OCTAGONP
 10
35.5480
 20
15.2500
 30
0.0000
 41
1.2192
 42
1.2192
 43
1.0000
 50
180.0000
  0
INSERT
  8
17
  2
OCTAGONP
 10
35.5480
 20
15.2500
 30
0.0000
 41
1.2192
 42
1.2192
 43
1.0000
 50
180.0000
  0
CIRCLE
  8
44
 10
35.5480
 20
15.2500
 30
0.0000
 40
0.4064
  0
INSERT
  8
17
  2
OCTAGONP
 10
33.0080
 20
15.2500
 30
0.0000
 41
1.2192
 42
1.2192
 43
1.0000
 50
180.0000
  0
INSERT
  8
17
  2
OCTAGONP
 10
33.0080
 20
15.2500
 30
0.0000
 41
1.2192
 42
1.2192
 43
1.0000
 50
180.0000
  0
CIRCLE
  8
44
 10
33.0080
 20
15.2500
 30
0.0000
 40
0.4064
  0
POINT
  8
24
 10
34.2780
 20
18.7500
 30
0.0000
  0
LINE
  8
22
 10
35.5480
 20
17.4800
 30
0.0000
 11
34.2780
 21
17.4800
 31
0.0000
  0
LINE
  8
22
 10
34.2780
 20
17.4800
 30
0.0000
 11
33.0080
 21
17.4800
 31
0.0000
  0
LINE
  8
22
 10
33.0080
 20
20.0200
 30
0.0000
 11
34.2780
 21
20.0200
 31
0.0000
  0
LINE
  8
22
 10
34.2780
 20
20.0200
 30
0.0000
 11
35.5480
 21
20.0200
 31
0.0000
  0
LINE
  8
22
 10
33.0080
 20
17.4800
 30
0.0000
 11
33.0080
 21
17.8610
 31
0.0000
  0
LINE
  8
22
 10
33.0080
 20
20.0200
 30
0.0000
 11
33.0080
 21
19.6390
 31
0.0000
  0
LINE
  8
22
 10
35.5480
 20
20.0200
 30
0.0000
 11
35.5480
 21
19.6390
 31
0.0000
  0
LINE
  8
22
 10
35.5480
 20
17.4800
 30
0.0000
 11
35.5480
 21
17.8610
 31
0.0000
  0
ARC
  8
22
 10
34.2780
 20
18.7500
 30
0.0000
 40
1.2700
 50
89.9988
 51
141.3380
  0
ARC
  8
22
 10
34.2780
 20
18.7500
 30
0.0000
 40
1.2700
 50
38.6620
 51
90.0012
  0
ARC
  8
22
 10
34.2780
 20
18.7500
 30
0.0000
 40
1.2700
 50
218.6620
 51
270.0012
  0
ARC
  8
22
 10
34.2780
 20
18.7500
 30
0.0000
 40
1.2700
 50
269.9988
 51
321.3380
  0
ARC
  8
22
 10
34.2780
 20
18.7500
 30
0.0000
 40
0.5080
 50
180.0000
 51
270.0000
  0
INSERT
  8
22
  2
RECT
 10
32.3095
 20
18.7500
 30
0.0000
 41
0.1270
 42
1.2700
 43
1.0000
 50
180.0000
  0
INSERT
  8
17
  2
OCTAGONP
 10
35.5480
 20
18.7500
 30
0.0000
 41
1.2192
 42
1.2192
 43
1.0000
 50
180.0000
  0
INSERT
  8
17
  2
OCTAGONP
 10
35.5480
 20
18.7500
 30
0.0000
 41
1.2192
 42
1.2192
 43
1.0000
 50
180.0000
  0
CIRCLE
  8
44
 10
35.5480
 20
18.7500
 30
0.0000
 40
0.4064
  0
INSERT
  8
17
  2
OCTAGONP
 10
33.0080
 20
18.7500
 30
0.0000
 41
1.2192
 42
1.2192
 43
1.0000
 50
180.0000
  0
INSERT
  8
17
  2
OCTAGONP
 10
33.0080
 20
18.7500
 30
0.0000
 41
1.2192
 42
1.2192
 43
1.0000
 50
180.0000
  0
CIRCLE
  8
44
 10
33.0080
 20
18.7500
 30
0.0000
 40
0.4064
  0
POINT
  8
24
 10
34.2780
 20
22.2500
 30
0.0000
  0
LINE
  8
22
 10
35.5480
 20
20.9800
 30
0.0000
 11
34.2780
 21
20.9800
 31
0.0000
  0
LINE
  8
22
 10
34.2780
 20
20.9800
 30
0.0000
 11
33.0080
 21
20.9800
 31
0.0000
  0
LINE
  8
22
 10
33.0080
 20
23.5200
 30
0.0000
 11
34.2780
 21
23.5200
 31
0.0000
  0
LINE
  8
22
 10
34.2780
 20
23.5200
 30
0.0000
 11
35.5480
 21
23.5200
 31
0.0000
  0
LINE
  8
22
 10
33.0080
 20
20.9800
 30
0.0000
 11
33.0080
 21
21.3610
 31
0.0000
  0
LINE
  8
22
 10
33.0080
 20
23.5200
 30
0.0000
 11
33.0080
 21
23.1390
 31
0.0000
  0
LINE
  8
22
 10
35.5480
 20
23.5200
 30
0.0000
 11
35.5480
 21
23.1390
 31
0.0000
  0
LINE
  8
22
 10
35.5480
 20
20.9800
 30
0.0000
 11
35.5480
 21
21.3610
 31
0.0000
  0
ARC
  8
22
 10
34.2780
 20
22.2500
 30
0.0000
 40
1.2700
 50
89.9988
 51
141.3380
  0
ARC
  8
22
 10
34.2780
 20
22.2500
 30
0.0000
 40
1.2700
 50
38.6620
 51
90.0012
  0
ARC
  8
22
 10
34.2780
 20
22.2500
 30
0.0000
 40
1.2700
 50
218.6620
 51
270.0012
  0
ARC
  8
22
 10
34.2780
 20
22.2500
 30
0.0000
 40
1.2700
 50
269.9988
 51
321.3380
  0
ARC
  8
22
 10
34.2780
 20
22.2500
 30
0.0000
 40
0.5080
 50
180.0000
 51
270.0000
  0
INSERT
  8
22
  2
RECT
 10
32.3095
 20
22.2500
 30
0.0000
 41
0.1270
 42
1.2700
 43
1.0000
 50
180.0000
  0
INSERT
  8
17
  2
OCTAGONP
 10
35.5480
 20
22.2500
 30
0.0000
 41
1.2192
 42
1.2192
 43
1.0000
 50
180.0000
  0
INSERT
  8
17
  2
OCTAGONP
 10
35.5480
 20
22.2500
 30
0.0000
 41
1.2192
 42
1.2192
 43
1.0000
 50
180.0000
  0
CIRCLE
  8
44
 10
35.5480
 20
22.2500
 30
0.0000
 40
0.4064
  0
INSERT
  8
17
  2
OCTAGONP
 10
33.0080
 20
22.2500
 30
0.0000
 41
1.2192
 42
1.2192
 43
1.0000
 50
180.0000
  0
INSERT
  8
17
  2
OCTAGONP
 10
33.0080
 20
22.2500
 30
0.0000
 41
1.2192
 42
1.2192
 43
1.0000
 50
180.0000
  0
CIRCLE
  8
44
 10
33.0080
 20
22.2500
 30
0.0000
 40
0.4064
  0
POINT
  8
24
 10
34.2780
 20
32.6230
 30
0.0000
  0
LINE
  8
22
 10
35.5480
 20
31.3530
 30
0.0000
 11
34.2780
 21
31.3530
 31
0.0000
  0
LINE
  8
22
 10
34.2780
 20
31.3530
 30
0.0000
 11
33.0080
 21
31.3530
 31
0.0000
  0
LINE
  8
22
 10
33.0080
 20
33.8930
 30
0.0000
 11
34.2780
 21
33.8930
 31
0.0000
  0
LINE
  8
22
 10
34.2780
 20
33.8930
 30
0.0000
 11
35.5480
 21
33.8930
 31
0.0000
  0
LINE
  8
22
 10
33.0080
 20
31.3530
 30
0.0000
 11
33.0080
 21
31.7340
 31
0.0000
  0
LINE
  8
22
 10
33.0080
 20
33.8930
 30
0.0000
 11
33.0080
 21
33.5120
 31
0.0000
  0
LINE
  8
22
 10
35.5480
 20
33.8930
 30
0.0000
 11
35.5480
 21
33.5120
 31
0.0000
  0
LINE
  8
22
 10
35.5480
 20
31.3530
 30
0.0000
 11
35.5480
 21
31.7340
 31
0.0000
  0
ARC
  8
22
 10
34.2780
 20
32.6230
 30
0.0000
 40
1.2700
 50
89.9988
 51
141.3380
  0
ARC
  8
22
 10
34.2780
 20
32.6230
 30
0.0000
 40
1.2700
 50
38.6620
 51
90.0012
  0
ARC
  8
22
 10
34.2780
 20
32.6230
 30
0.0000
 40
1.2700
 50
218.6620
 51
270.0012
  0
ARC
  8
22
 10
34.2780
 20
32.6230
 30
0.0000
 40
1.2700
 50
269.9988
 51
321.3380
  0
ARC
  8
22
 10
34.2780
 20
32.6230
 30
0.0000
 40
0.5080
 50
180.0000
 51
270.0000
  0
INSERT
  8
22
  2
RECT
 10
32.3095
 20
32.6230
 30
0.0000
 41
0.1270
 42
1.2700
 43
1.0000
 50
180.0000
  0
INSERT
  8
17
  2
OCTAGONP
 10
35.5480
 20
32.6230
 30
0.0000
 41
1.2192
 42
1.2192
 43
1.0000
 50
180.0000
  0
INSERT
  8
17
  2
OCTAGONP
 10
35.5480
 20
32.6230
 30
0.0000
 41
1.2192
 42
1.2192
 43
1.0000
 50
180.0000
  0
CIRCLE
  8
44
 10
35.5480
 20
32.6230
 30
0.0000
 40
0.4064
  0
INSERT
  8
17
  2
OCTAGONP
 10
33.0080
 20
32.6230
 30
0.0000
 41
1.2192
 42
1.2192
 43
1.0000
 50
180.0000
  0
INSERT
  8
17
  2
OCTAGONP
 10
33.0080
 20
32.6230
 30
0.0000
 41
1.2192
 42
1.2192
 43
1.0000
 50
180.0000
  0
CIRCLE
  8
44
 10
33.0080
 20
32.6230
 30
0.0000
 40
0.4064
  0
POINT
  8
24
 10
3.6710
 20
10.7950
 30
0.0000
  0
POINT
  8
24
 10
92.9520
 20
19.8120
 30
0.0000
  0
INSERT
  8
17
  2
ROUNDP
 10
92.9520
 20
10.9220
 30
0.0000
 41
1.7780
 42
1.7780
 43
1.0000
 50
90.0000
  0
INSERT
  8
17
  2
ROUNDP
 10
92.9520
 20
10.9220
 30
0.0000
 41
1.7780
 42
1.7780
 43
1.0000
 50
90.0000
  0
CIRCLE
  8
44
 10
92.9520
 20
10.9220
 30
0.0000
 40
0.5000
  0
INSERT
  8
17
  2
ROUNDP
 10
92.9520
 20
28.7020
 30
0.0000
 41
1.7780
 42
1.7780
 43
1.0000
 50
90.0000
  0
INSERT
  8
17
  2
ROUNDP
 10
92.9520
 20
28.7020
 30
0.0000
 41
1.7780
 42
1.7780
 43
1.0000
 50
90.0000
  0
CIRCLE
  8
44
 10
92.9520
 20
28.7020
 30
0.0000
 40
0.5000
  0
POINT
  8
24
 10
92.9520
 20
39.6875
 30
0.0000
  0
INSERT
  8
17
  2
ROUNDP
 10
92.9520
 20
30.7975
 30
0.0000
 41
1.7780
 42
1.7780
 43
1.0000
 50
90.0000
  0
INSERT
  8
17
  2
ROUNDP
 10
92.9520
 20
30.7975
 30
0.0000
 41
1.7780
 42
1.7780
 43
1.0000
 50
90.0000
  0
CIRCLE
  8
44
 10
92.9520
 20
30.7975
 30
0.0000
 40
0.5000
  0
INSERT
  8
17
  2
ROUNDP
 10
92.9520
 20
48.5775
 30
0.0000
 41
1.7780
 42
1.7780
 43
1.0000
 50
90.0000
  0
INSERT
  8
17
  2
ROUNDP
 10
92.9520
 20
48.5775
 30
0.0000
 41
1.7780
 42
1.7780
 43
1.0000
 50
90.0000
  0
CIRCLE
  8
44
 10
92.9520
 20
48.5775
 30
0.0000
 40
0.5000
  0
POINT
  8
24
 10
87.3640
 20
20.3200
 30
0.0000
  0
INSERT
  8
17
  2
ROUNDP
 10
87.3640
 20
11.4300
 30
0.0000
 41
1.7780
 42
1.7780
 43
1.0000
 50
90.0000
  0
INSERT
  8
17
  2
ROUNDP
 10
87.3640
 20
11.4300
 30
0.0000
 41
1.7780
 42
1.7780
 43
1.0000
 50
90.0000
  0
CIRCLE
  8
44
 10
87.3640
 20
11.4300
 30
0.0000
 40
0.5000
  0
INSERT
  8
17
  2
ROUNDP
 10
87.3640
 20
29.2100
 30
0.0000
 41
1.7780
 42
1.7780
 43
1.0000
 50
90.0000
  0
INSERT
  8
17
  2
ROUNDP
 10
87.3640
 20
29.2100
 30
0.0000
 41
1.7780
 42
1.7780
 43
1.0000
 50
90.0000
  0
CIRCLE
  8
44
 10
87.3640
 20
29.2100
 30
0.0000
 40
0.5000
  0
POINT
  8
24
 10
87.3640
 20
40.1955
 30
0.0000
  0
INSERT
  8
17
  2
ROUNDP
 10
87.3640
 20
49.0855
 30
0.0000
 41
1.7780
 42
1.7780
 43
1.0000
 50
270.0000
  0
INSERT
  8
17
  2
ROUNDP
 10
87.3640
 20
49.0855
 30
0.0000
 41
1.7780
 42
1.7780
 43
1.0000
 50
270.0000
  0
CIRCLE
  8
44
 10
87.3640
 20
49.0855
 30
0.0000
 40
0.5000
  0
INSERT
  8
17
  2
ROUNDP
 10
87.3640
 20
31.3055
 30
0.0000
 41
1.7780
 42
1.7780
 43
1.0000
 50
270.0000
  0
INSERT
  8
17
  2
ROUNDP
 10
87.3640
 20
31.3055
 30
0.0000
 41
1.7780
 42
1.7780
 43
1.0000
 50
270.0000
  0
CIRCLE
  8
44
 10
87.3640
 20
31.3055
 30
0.0000
 40
0.5000
  0
POINT
  8
24
 10
67.0440
 20
35.3060
 30
0.0000
  0
POINT
  8
24
 10
72.6320
 20
3.9370
 30
0.0000
  0
LINE
  8
22
 10
68.7280
 20
5.0115
 30
0.0000
 11
68.7280
 21
4.0445
 31
0.0000
  0
LINE
  8
22
 10
68.7280
 20
4.0445
 30
0.0000
 11
69.2124
 21
4.0420
 31
0.0000
  0
LINE
  8
22
 10
69.2124
 20
4.0420
 30
0.0000
 11
69.6925
 21
4.1057
 31
0.0000
  0
LINE
  8
22
 10
69.6925
 20
4.1057
 30
0.0000
 11
70.1595
 21
4.2345
 31
0.0000
  0
LINE
  8
22
 10
70.1595
 20
4.2345
 30
0.0000
 11
70.6045
 21
4.4258
 31
0.0000
  0
LINE
  8
22
 10
70.6045
 20
4.4258
 30
0.0000
 11
71.0192
 21
4.6761
 31
0.0000
  0
LINE
  8
22
 10
71.0192
 20
4.6761
 30
0.0000
 11
71.3958
 21
4.9807
 31
0.0000
  0
LINE
  8
22
 10
71.3958
 20
4.9807
 30
0.0000
 11
71.7273
 21
5.3339
 31
0.0000
  0
LINE
  8
22
 10
71.7273
 20
5.3339
 30
0.0000
 11
72.0074
 21
5.7290
 31
0.0000
  0
LINE
  8
22
 10
72.0074
 20
5.7290
 30
0.0000
 11
72.2309
 21
6.1587
 31
0.0000
  0
LINE
  8
22
 10
72.2309
 20
6.1587
 30
0.0000
 11
72.3937
 21
6.6150
 31
0.0000
  0
LINE
  8
22
 10
72.3937
 20
6.6150
 30
0.0000
 11
72.4925
 21
7.0892
 31
0.0000
  0
LINE
  8
22
 10
72.4925
 20
7.0892
 30
0.0000
 11
72.5257
 21
7.5724
 31
0.0000
  0
LINE
  8
22
 10
72.5257
 20
7.5724
 30
0.0000
 11
72.4925
 21
8.0556
 31
0.0000
  0
LINE
  8
22
 10
72.4925
 20
8.0556
 30
0.0000
 11
72.3937
 21
8.5298
 31
0.0000
  0
LINE
  8
22
 10
72.3937
 20
8.5298
 30
0.0000
 11
72.2309
 21
8.9861
 31
0.0000
  0
LINE
  8
22
 10
72.2309
 20
8.9861
 30
0.0000
 11
72.0074
 21
9.4158
 31
0.0000
  0
LINE
  8
22
 10
72.0074
 20
9.4158
 30
0.0000
 11
71.7273
 21
9.8109
 31
0.0000
  0
LINE
  8
22
 10
71.7273
 20
9.8109
 30
0.0000
 11
71.3958
 21
10.1641
 31
0.0000
  0
LINE
  8
22
 10
71.3958
 20
10.1641
 30
0.0000
 11
71.0192
 21
10.4687
 31
0.0000
  0
LINE
  8
22
 10
71.0192
 20
10.4687
 30
0.0000
 11
70.6045
 21
10.7190
 31
0.0000
  0
LINE
  8
22
 10
70.6045
 20
10.7190
 30
0.0000
 11
70.1595
 21
10.9103
 31
0.0000
  0
LINE
  8
22
 10
70.1595
 20
10.9103
 30
0.0000
 11
69.6925
 21
11.0391
 31
0.0000
  0
LINE
  8
22
 10
69.6925
 20
11.0391
 30
0.0000
 11
69.2124
 21
11.1028
 31
0.0000
  0
LINE
  8
22
 10
69.2124
 20
11.1028
 30
0.0000
 11
68.7280
 21
11.1003
 31
0.0000
  0
LINE
  8
22
 10
68.7280
 20
11.1003
 30
0.0000
 11
68.7280
 21
10.1333
 31
0.0000
  0
LINE
  8
22
 10
68.7280
 20
10.1333
 30
0.0000
 11
69.1217
 21
10.1474
 31
0.0000
  0
LINE
  8
22
 10
69.1217
 20
10.1474
 30
0.0000
 11
69.5129
 21
10.1013
 31
0.0000
  0
LINE
  8
22
 10
69.5129
 20
10.1013
 30
0.0000
 11
69.8926
 21
9.9962
 31
0.0000
  0
LINE
  8
22
 10
69.8926
 20
9.9962
 30
0.0000
 11
70.2517
 21
9.8344
 31
0.0000
  0
LINE
  8
22
 10
70.2517
 20
9.8344
 30
0.0000
 11
70.5821
 21
9.6197
 31
0.0000
  0
LINE
  8
22
 10
70.5821
 20
9.6197
 30
0.0000
 11
70.8758
 21
9.3572
 31
0.0000
  0
LINE
  8
22
 10
70.8758
 20
9.3572
 30
0.0000
 11
71.1261
 21
9.0531
 31
0.0000
  0
LINE
  8
22
 10
71.1261
 20
9.0531
 30
0.0000
 11
71.3272
 21
8.7143
 31
0.0000
  0
LINE
  8
22
 10
71.3272
 20
8.7143
 30
0.0000
 11
71.4742
 21
8.3488
 31
0.0000
  0
LINE
  8
22
 10
71.4742
 20
8.3488
 30
0.0000
 11
71.5638
 21
7.9652
 31
0.0000
  0
LINE
  8
22
 10
71.5638
 20
7.9652
 30
0.0000
 11
71.5939
 21
7.5724
 31
0.0000
  0
LINE
  8
22
 10
71.5939
 20
7.5724
 30
0.0000
 11
71.5638
 21
7.1796
 31
0.0000
  0
LINE
  8
22
 10
71.5638
 20
7.1796
 30
0.0000
 11
71.4742
 21
6.7960
 31
0.0000
  0
LINE
  8
22
 10
71.4742
 20
6.7960
 30
0.0000
 11
71.3272
 21
6.4305
 31
0.0000
  0
LINE
  8
22
 10
71.3272
 20
6.4305
 30
0.0000
 11
71.1261
 21
6.0918
 31
0.0000
  0
LINE
  8
22
 10
71.1261
 20
6.0918
 30
0.0000
 11
70.8758
 21
5.7876
 31
0.0000
  0
LINE
  8
22
 10
70.8758
 20
5.7876
 30
0.0000
 11
70.5821
 21
5.5251
 31
0.0000
  0
LINE
  8
22
 10
70.5821
 20
5.5251
 30
0.0000
 11
70.2517
 21
5.3104
 31
0.0000
  0
LINE
  8
22
 10
70.2517
 20
5.3104
 30
0.0000
 11
69.8926
 21
5.1486
 31
0.0000
  0
LINE
  8
22
 10
69.8926
 20
5.1486
 30
0.0000
 11
69.5129
 21
5.0435
 31
0.0000
  0
LINE
  8
22
 10
69.5129
 20
5.0435
 30
0.0000
 11
69.1217
 21
4.9974
 31
0.0000
  0
LINE
  8
22
 10
69.1217
 20
4.9974
 30
0.0000
 11
68.7280
 21
5.0115
 31
0.0000
  0
LINE
  8
22
 10
69.5000
 20
4.0802
 30
0.0000
 11
68.7280
 21
4.0802
 31
0.0000
  0
LINE
  8
22
 10
70.1194
 20
4.2234
 30
0.0000
 11
68.7280
 21
4.2234
 31
0.0000
  0
LINE
  8
22
 10
70.4669
 20
4.3666
 30
0.0000
 11
68.7280
 21
4.3666
 31
0.0000
  0
LINE
  8
22
 10
70.7437
 20
4.5098
 30
0.0000
 11
68.7280
 21
4.5098
 31
0.0000
  0
LINE
  8
22
 10
70.9810
 20
4.6530
 30
0.0000
 11
68.7280
 21
4.6530
 31
0.0000
  0
LINE
  8
22
 10
71.1677
 20
4.7962
 30
0.0000
 11
68.7280
 21
4.7962
 31
0.0000
  0
LINE
  8
22
 10
71.3448
 20
4.9394
 30
0.0000
 11
68.7280
 21
4.9394
 31
0.0000
  0
LINE
  8
22
 10
71.4915
 20
5.0826
 30
0.0000
 11
69.6542
 21
5.0826
 31
0.0000
  0
LINE
  8
22
 10
71.6259
 20
5.2258
 30
0.0000
 11
70.0639
 21
5.2258
 31
0.0000
  0
LINE
  8
22
 10
71.7522
 20
5.3690
 30
0.0000
 11
70.3419
 21
5.3690
 31
0.0000
  0
LINE
  8
22
 10
71.8537
 20
5.5122
 30
0.0000
 11
70.5623
 21
5.5122
 31
0.0000
  0
LINE
  8
22
 10
71.9552
 20
5.6554
 30
0.0000
 11
70.7279
 21
5.6554
 31
0.0000
  0
LINE
  8
22
 10
72.0436
 20
5.7986
 30
0.0000
 11
70.8849
 21
5.7986
 31
0.0000
  0
LINE
  8
22
 10
72.1181
 20
5.9418
 30
0.0000
 11
71.0027
 21
5.9418
 31
0.0000
  0
LINE
  8
22
 10
72.1926
 20
6.0850
 30
0.0000
 11
71.1206
 21
6.0850
 31
0.0000
  0
LINE
  8
22
 10
72.2557
 20
6.2282
 30
0.0000
 11
71.2071
 21
6.2282
 31
0.0000
  0
LINE
  8
22
 10
72.3068
 20
6.3714
 30
0.0000
 11
71.2921
 21
6.3714
 31
0.0000
  0
LINE
  8
22
 10
72.3579
 20
6.5146
 30
0.0000
 11
71.3610
 21
6.5146
 31
0.0000
  0
LINE
  8
22
 10
72.4026
 20
6.6578
 30
0.0000
 11
71.4186
 21
6.6578
 31
0.0000
  0
LINE
  8
22
 10
72.4324
 20
6.8010
 30
0.0000
 11
71.4754
 21
6.8010
 31
0.0000
  0
LINE
  8
22
 10
72.4623
 20
6.9442
 30
0.0000
 11
71.5088
 21
6.9442
 31
0.0000
  0
LINE
  8
22
 10
72.4922
 20
7.0874
 30
0.0000
 11
71.5423
 21
7.0874
 31
0.0000
  0
LINE
  8
22
 10
72.5022
 20
7.2306
 30
0.0000
 11
71.5677
 21
7.2306
 31
0.0000
  0
LINE
  8
22
 10
72.5121
 20
7.3738
 30
0.0000
 11
71.5787
 21
7.3738
 31
0.0000
  0
LINE
  8
22
 10
72.5219
 20
7.5170
 30
0.0000
 11
71.5897
 21
7.5170
 31
0.0000
  0
LINE
  8
22
 10
72.5197
 20
7.6602
 30
0.0000
 11
71.5872
 21
7.6602
 31
0.0000
  0
LINE
  8
22
 10
72.5098
 20
7.8034
 30
0.0000
 11
71.5762
 21
7.8034
 31
0.0000
  0
LINE
  8
22
 10
72.5000
 20
7.9466
 30
0.0000
 11
71.5652
 21
7.9466
 31
0.0000
  0
LINE
  8
22
 10
72.4854
 20
8.0898
 30
0.0000
 11
71.5347
 21
8.0898
 31
0.0000
  0
LINE
  8
22
 10
72.4555
 20
8.2330
 30
0.0000
 11
71.5013
 21
8.2330
 31
0.0000
  0
LINE
  8
22
 10
72.4257
 20
8.3762
 30
0.0000
 11
71.4632
 21
8.3762
 31
0.0000
  0
LINE
  8
22
 10
72.3958
 20
8.5194
 30
0.0000
 11
71.4056
 21
8.5194
 31
0.0000
  0
LINE
  8
22
 10
72.3463
 20
8.6626
 30
0.0000
 11
71.3479
 21
8.6626
 31
0.0000
  0
LINE
  8
22
 10
72.2952
 20
8.8058
 30
0.0000
 11
71.2728
 21
8.8058
 31
0.0000
  0
LINE
  8
22
 10
72.2442
 20
8.9490
 30
0.0000
 11
71.1879
 21
8.9490
 31
0.0000
  0
LINE
  8
22
 10
72.1757
 20
9.0922
 30
0.0000
 11
71.0939
 21
9.0922
 31
0.0000
  0
LINE
  8
22
 10
72.1013
 20
9.2354
 30
0.0000
 11
70.9761
 21
9.2354
 31
0.0000
  0
LINE
  8
22
 10
72.0268
 20
9.3786
 30
0.0000
 11
70.8519
 21
9.3786
 31
0.0000
  0
LINE
  8
22
 10
71.9323
 20
9.5218
 30
0.0000
 11
70.6917
 21
9.5218
 31
0.0000
  0
LINE
  8
22
 10
71.8308
 20
9.6650
 30
0.0000
 11
70.5124
 21
9.6650
 31
0.0000
  0
LINE
  8
22
 10
71.7293
 20
9.8082
 30
0.0000
 11
70.2920
 21
9.8082
 31
0.0000
  0
LINE
  8
22
 10
71.5955
 20
9.9514
 30
0.0000
 11
69.9920
 21
9.9514
 31
0.0000
  0
LINE
  8
22
 10
71.4611
 20
10.0946
 30
0.0000
 11
69.5372
 21
10.0946
 31
0.0000
  0
LINE
  8
22
 10
71.3047
 20
10.2378
 30
0.0000
 11
68.7280
 21
10.2378
 31
0.0000
  0
LINE
  8
22
 10
71.1277
 20
10.3810
 30
0.0000
 11
68.7280
 21
10.3810
 31
0.0000
  0
LINE
  8
22
 10
70.9273
 20
10.5242
 30
0.0000
 11
68.7280
 21
10.5242
 31
0.0000
  0
LINE
  8
22
 10
70.6901
 20
10.6674
 30
0.0000
 11
68.7280
 21
10.6674
 31
0.0000
  0
LINE
  8
22
 10
70.3915
 20
10.8106
 30
0.0000
 11
68.7280
 21
10.8106
 31
0.0000
  0
LINE
  8
22
 10
70.0018
 20
10.9538
 30
0.0000
 11
68.7280
 21
10.9538
 31
0.0000
  0
LINE
  8
22
 10
69.2559
 20
11.0970
 30
0.0000
 11
68.7280
 21
11.0970
 31
0.0000
  0
LINE
  8
22
 10
62.6750
 20
5.0115
 30
0.0000
 11
62.6750
 21
4.0445
 31
0.0000
  0
LINE
  8
22
 10
62.6750
 20
4.0445
 30
0.0000
 11
63.1594
 21
4.0420
 31
0.0000
  0
LINE
  8
22
 10
63.1594
 20
4.0420
 30
0.0000
 11
63.6395
 21
4.1057
 31
0.0000
  0
LINE
  8
22
 10
63.6395
 20
4.1057
 30
0.0000
 11
64.1065
 21
4.2345
 31
0.0000
  0
LINE
  8
22
 10
64.1065
 20
4.2345
 30
0.0000
 11
64.5515
 21
4.4258
 31
0.0000
  0
LINE
  8
22
 10
64.5515
 20
4.4258
 30
0.0000
 11
64.9662
 21
4.6761
 31
0.0000
  0
LINE
  8
22
 10
64.9662
 20
4.6761
 30
0.0000
 11
65.3428
 21
4.9807
 31
0.0000
  0
LINE
  8
22
 10
65.3428
 20
4.9807
 30
0.0000
 11
65.6743
 21
5.3339
 31
0.0000
  0
LINE
  8
22
 10
65.6743
 20
5.3339
 30
0.0000
 11
65.9544
 21
5.7290
 31
0.0000
  0
LINE
  8
22
 10
65.9544
 20
5.7290
 30
0.0000
 11
66.1779
 21
6.1587
 31
0.0000
  0
LINE
  8
22
 10
66.1779
 20
6.1587
 30
0.0000
 11
66.3407
 21
6.6150
 31
0.0000
  0
LINE
  8
22
 10
66.3407
 20
6.6150
 30
0.0000
 11
66.4395
 21
7.0892
 31
0.0000
  0
LINE
  8
22
 10
66.4395
 20
7.0892
 30
0.0000
 11
66.4727
 21
7.5724
 31
0.0000
  0
LINE
  8
22
 10
66.4727
 20
7.5724
 30
0.0000
 11
66.4395
 21
8.0556
 31
0.0000
  0
LINE
  8
22
 10
66.4395
 20
8.0556
 30
0.0000
 11
66.3407
 21
8.5298
 31
0.0000
  0
LINE
  8
22
 10
66.3407
 20
8.5298
 30
0.0000
 11
66.1779
 21
8.9861
 31
0.0000
  0
LINE
  8
22
 10
66.1779
 20
8.9861
 30
0.0000
 11
65.9544
 21
9.4158
 31
0.0000
  0
LINE
  8
22
 10
65.9544
 20
9.4158
 30
0.0000
 11
65.6743
 21
9.8109
 31
0.0000
  0
LINE
  8
22
 10
65.6743
 20
9.8109
 30
0.0000
 11
65.3428
 21
10.1641
 31
0.0000
  0
LINE
  8
22
 10
65.3428
 20
10.1641
 30
0.0000
 11
64.9662
 21
10.4687
 31
0.0000
  0
LINE
  8
22
 10
64.9662
 20
10.4687
 30
0.0000
 11
64.5515
 21
10.7190
 31
0.0000
  0
LINE
  8
22
 10
64.5515
 20
10.7190
 30
0.0000
 11
64.1065
 21
10.9103
 31
0.0000
  0
LINE
  8
22
 10
64.1065
 20
10.9103
 30
0.0000
 11
63.6395
 21
11.0391
 31
0.0000
  0
LINE
  8
22
 10
63.6395
 20
11.0391
 30
0.0000
 11
63.1594
 21
11.1028
 31
0.0000
  0
LINE
  8
22
 10
63.1594
 20
11.1028
 30
0.0000
 11
62.6750
 21
11.1003
 31
0.0000
  0
LINE
  8
22
 10
62.6750
 20
11.1003
 30
0.0000
 11
62.6750
 21
10.1333
 31
0.0000
  0
LINE
  8
22
 10
62.6750
 20
10.1333
 30
0.0000
 11
63.0687
 21
10.1474
 31
0.0000
  0
LINE
  8
22
 10
63.0687
 20
10.1474
 30
0.0000
 11
63.4599
 21
10.1013
 31
0.0000
  0
LINE
  8
22
 10
63.4599
 20
10.1013
 30
0.0000
 11
63.8396
 21
9.9962
 31
0.0000
  0
LINE
  8
22
 10
63.8396
 20
9.9962
 30
0.0000
 11
64.1987
 21
9.8344
 31
0.0000
  0
LINE
  8
22
 10
64.1987
 20
9.8344
 30
0.0000
 11
64.5291
 21
9.6197
 31
0.0000
  0
LINE
  8
22
 10
64.5291
 20
9.6197
 30
0.0000
 11
64.8228
 21
9.3572
 31
0.0000
  0
LINE
  8
22
 10
64.8228
 20
9.3572
 30
0.0000
 11
65.0731
 21
9.0531
 31
0.0000
  0
LINE
  8
22
 10
65.0731
 20
9.0531
 30
0.0000
 11
65.2742
 21
8.7143
 31
0.0000
  0
LINE
  8
22
 10
65.2742
 20
8.7143
 30
0.0000
 11
65.4212
 21
8.3488
 31
0.0000
  0
LINE
  8
22
 10
65.4212
 20
8.3488
 30
0.0000
 11
65.5108
 21
7.9652
 31
0.0000
  0
LINE
  8
22
 10
65.5108
 20
7.9652
 30
0.0000
 11
65.5409
 21
7.5724
 31
0.0000
  0
LINE
  8
22
 10
65.5409
 20
7.5724
 30
0.0000
 11
65.5108
 21
7.1796
 31
0.0000
  0
LINE
  8
22
 10
65.5108
 20
7.1796
 30
0.0000
 11
65.4212
 21
6.7960
 31
0.0000
  0
LINE
  8
22
 10
65.4212
 20
6.7960
 30
0.0000
 11
65.2742
 21
6.4305
 31
0.0000
  0
LINE
  8
22
 10
65.2742
 20
6.4305
 30
0.0000
 11
65.0731
 21
6.0918
 31
0.0000
  0
LINE
  8
22
 10
65.0731
 20
6.0918
 30
0.0000
 11
64.8228
 21
5.7876
 31
0.0000
  0
LINE
  8
22
 10
64.8228
 20
5.7876
 30
0.0000
 11
64.5291
 21
5.5251
 31
0.0000
  0
LINE
  8
22
 10
64.5291
 20
5.5251
 30
0.0000
 11
64.1987
 21
5.3104
 31
0.0000
  0
LINE
  8
22
 10
64.1987
 20
5.3104
 30
0.0000
 11
63.8396
 21
5.1486
 31
0.0000
  0
LINE
  8
22
 10
63.8396
 20
5.1486
 30
0.0000
 11
63.4599
 21
5.0435
 31
0.0000
  0
LINE
  8
22
 10
63.4599
 20
5.0435
 30
0.0000
 11
63.0687
 21
4.9974
 31
0.0000
  0
LINE
  8
22
 10
63.0687
 20
4.9974
 30
0.0000
 11
62.6750
 21
5.0115
 31
0.0000
  0
LINE
  8
22
 10
63.4470
 20
4.0802
 30
0.0000
 11
62.6750
 21
4.0802
 31
0.0000
  0
LINE
  8
22
 10
64.0664
 20
4.2234
 30
0.0000
 11
62.6750
 21
4.2234
 31
0.0000
  0
LINE
  8
22
 10
64.4139
 20
4.3666
 30
0.0000
 11
62.6750
 21
4.3666
 31
0.0000
  0
LINE
  8
22
 10
64.6907
 20
4.5098
 30
0.0000
 11
62.6750
 21
4.5098
 31
0.0000
  0
LINE
  8
22
 10
64.9280
 20
4.6530
 30
0.0000
 11
62.6750
 21
4.6530
 31
0.0000
  0
LINE
  8
22
 10
65.1148
 20
4.7962
 30
0.0000
 11
62.6750
 21
4.7962
 31
0.0000
  0
LINE
  8
22
 10
65.2918
 20
4.9394
 30
0.0000
 11
62.6750
 21
4.9394
 31
0.0000
  0
LINE
  8
22
 10
65.4385
 20
5.0826
 30
0.0000
 11
63.6012
 21
5.0826
 31
0.0000
  0
LINE
  8
22
 10
65.5729
 20
5.2258
 30
0.0000
 11
64.0109
 21
5.2258
 31
0.0000
  0
LINE
  8
22
 10
65.6992
 20
5.3690
 30
0.0000
 11
64.2889
 21
5.3690
 31
0.0000
  0
LINE
  8
22
 10
65.8007
 20
5.5122
 30
0.0000
 11
64.5093
 21
5.5122
 31
0.0000
  0
LINE
  8
22
 10
65.9022
 20
5.6554
 30
0.0000
 11
64.6749
 21
5.6554
 31
0.0000
  0
LINE
  8
22
 10
65.9906
 20
5.7986
 30
0.0000
 11
64.8319
 21
5.7986
 31
0.0000
  0
LINE
  8
22
 10
66.0651
 20
5.9418
 30
0.0000
 11
64.9497
 21
5.9418
 31
0.0000
  0
LINE
  8
22
 10
66.1396
 20
6.0850
 30
0.0000
 11
65.0676
 21
6.0850
 31
0.0000
  0
LINE
  8
22
 10
66.2027
 20
6.2282
 30
0.0000
 11
65.1541
 21
6.2282
 31
0.0000
  0
LINE
  8
22
 10
66.2538
 20
6.3714
 30
0.0000
 11
65.2391
 21
6.3714
 31
0.0000
  0
LINE
  8
22
 10
66.3049
 20
6.5146
 30
0.0000
 11
65.3080
 21
6.5146
 31
0.0000
  0
LINE
  8
22
 10
66.3496
 20
6.6578
 30
0.0000
 11
65.3656
 21
6.6578
 31
0.0000
  0
LINE
  8
22
 10
66.3794
 20
6.8010
 30
0.0000
 11
65.4224
 21
6.8010
 31
0.0000
  0
LINE
  8
22
 10
66.4093
 20
6.9442
 30
0.0000
 11
65.4558
 21
6.9442
 31
0.0000
  0
LINE
  8
22
 10
66.4391
 20
7.0874
 30
0.0000
 11
65.4893
 21
7.0874
 31
0.0000
  0
LINE
  8
22
 10
66.4492
 20
7.2306
 30
0.0000
 11
65.5147
 21
7.2306
 31
0.0000
  0
LINE
  8
22
 10
66.4591
 20
7.3738
 30
0.0000
 11
65.5257
 21
7.3738
 31
0.0000
  0
LINE
  8
22
 10
66.4689
 20
7.5170
 30
0.0000
 11
65.5367
 21
7.5170
 31
0.0000
  0
LINE
  8
22
 10
66.4667
 20
7.6602
 30
0.0000
 11
65.5342
 21
7.6602
 31
0.0000
  0
LINE
  8
22
 10
66.4568
 20
7.8034
 30
0.0000
 11
65.5232
 21
7.8034
 31
0.0000
  0
LINE
  8
22
 10
66.4470
 20
7.9466
 30
0.0000
 11
65.5122
 21
7.9466
 31
0.0000
  0
LINE
  8
22
 10
66.4324
 20
8.0898
 30
0.0000
 11
65.4817
 21
8.0898
 31
0.0000
  0
LINE
  8
22
 10
66.4025
 20
8.2330
 30
0.0000
 11
65.4483
 21
8.2330
 31
0.0000
  0
LINE
  8
22
 10
66.3727
 20
8.3762
 30
0.0000
 11
65.4102
 21
8.3762
 31
0.0000
  0
LINE
  8
22
 10
66.3428
 20
8.5194
 30
0.0000
 11
65.3526
 21
8.5194
 31
0.0000
  0
LINE
  8
22
 10
66.2933
 20
8.6626
 30
0.0000
 11
65.2949
 21
8.6626
 31
0.0000
  0
LINE
  8
22
 10
66.2422
 20
8.8058
 30
0.0000
 11
65.2198
 21
8.8058
 31
0.0000
  0
LINE
  8
22
 10
66.1912
 20
8.9490
 30
0.0000
 11
65.1349
 21
8.9490
 31
0.0000
  0
LINE
  8
22
 10
66.1227
 20
9.0922
 30
0.0000
 11
65.0409
 21
9.0922
 31
0.0000
  0
LINE
  8
22
 10
66.0483
 20
9.2354
 30
0.0000
 11
64.9231
 21
9.2354
 31
0.0000
  0
LINE
  8
22
 10
65.9738
 20
9.3786
 30
0.0000
 11
64.7989
 21
9.3786
 31
0.0000
  0
LINE
  8
22
 10
65.8793
 20
9.5218
 30
0.0000
 11
64.6387
 21
9.5218
 31
0.0000
  0
LINE
  8
22
 10
65.7778
 20
9.6650
 30
0.0000
 11
64.4594
 21
9.6650
 31
0.0000
  0
LINE
  8
22
 10
65.6763
 20
9.8082
 30
0.0000
 11
64.2390
 21
9.8082
 31
0.0000
  0
LINE
  8
22
 10
65.5425
 20
9.9514
 30
0.0000
 11
63.9390
 21
9.9514
 31
0.0000
  0
LINE
  8
22
 10
65.4081
 20
10.0946
 30
0.0000
 11
63.4842
 21
10.0946
 31
0.0000
  0
LINE
  8
22
 10
65.2518
 20
10.2378
 30
0.0000
 11
62.6750
 21
10.2378
 31
0.0000
  0
LINE
  8
22
 10
65.0747
 20
10.3810
 30
0.0000
 11
62.6750
 21
10.3810
 31
0.0000
  0
LINE
  8
22
 10
64.8743
 20
10.5242
 30
0.0000
 11
62.6750
 21
10.5242
 31
0.0000
  0
LINE
  8
22
 10
64.6371
 20
10.6674
 30
0.0000
 11
62.6750
 21
10.6674
 31
0.0000
  0
LINE
  8
22
 10
64.3385
 20
10.8106
 30
0.0000
 11
62.6750
 21
10.8106
 31
0.0000
  0
LINE
  8
22
 10
63.9488
 20
10.9538
 30
0.0000
 11
62.6750
 21
10.9538
 31
0.0000
  0
LINE
  8
22
 10
63.2029
 20
11.0970
 30
0.0000
 11
62.6750
 21
11.0970
 31
0.0000
  0
INSERT
  8
22
  2
RECT
 10
64.4211
 20
7.5724
 30
0.0000
 41
2.2385
 42
1.0745
 43
1.0000
 50
180.0000
  0
POINT
  8
24
 10
67.3650
 20
27.5000
 30
0.0000
  0
INSERT
  8
17
  2
LONGP100
 10
78.3650
 20
49.2800
 30
0.0000
 41
2.1844
 42
2.1844
 43
1.0000
 50
180.0000
  0
INSERT
  8
17
  2
LONGP100
 10
78.3650
 20
49.2800
 30
0.0000
 41
2.1844
 42
2.1844
 43
1.0000
 50
180.0000
  0
CIRCLE
  8
44
 10
78.3650
 20
49.2800
 30
0.0000
 40
0.8890
  0
INSERT
  8
17
  2
LONGP100
 10
78.3650
 20
45.3200
 30
0.0000
 41
2.1844
 42
2.1844
 43
1.0000
 50
180.0000
  0
INSERT
  8
17
  2
LONGP100
 10
78.3650
 20
45.3200
 30
0.0000
 41
2.1844
 42
2.1844
 43
1.0000
 50
180.0000
  0
CIRCLE
  8
44
 10
78.3650
 20
45.3200
 30
0.0000
 40
0.8890
  0
INSERT
  8
17
  2
LONGP100
 10
78.3650
 20
41.3600
 30
0.0000
 41
2.1844
 42
2.1844
 43
1.0000
 50
180.0000
  0
INSERT
  8
17
  2
LONGP100
 10
78.3650
 20
41.3600
 30
0.0000
 41
2.1844
 42
2.1844
 43
1.0000
 50
180.0000
  0
CIRCLE
  8
44
 10
78.3650
 20
41.3600
 30
0.0000
 40
0.8890
  0
INSERT
  8
17
  2
LONGP100
 10
78.3650
 20
37.4000
 30
0.0000
 41
2.1844
 42
2.1844
 43
1.0000
 50
180.0000
  0
INSERT
  8
17
  2
LONGP100
 10
78.3650
 20
37.4000
 30
0.0000
 41
2.1844
 42
2.1844
 43
1.0000
 50
180.0000
  0
CIRCLE
  8
44
 10
78.3650
 20
37.4000
 30
0.0000
 40
0.8890
  0
INSERT
  8
17
  2
LONGP100
 10
78.3650
 20
33.4400
 30
0.0000
 41
2.1844
 42
2.1844
 43
1.0000
 50
180.0000
  0
INSERT
  8
17
  2
LONGP100
 10
78.3650
 20
33.4400
 30
0.0000
 41
2.1844
 42
2.1844
 43
1.0000
 50
180.0000
  0
CIRCLE
  8
44
 10
78.3650
 20
33.4400
 30
0.0000
 40
0.8890
  0
INSERT
  8
17
  2
LONGP100
 10
78.3650
 20
29.4800
 30
0.0000
 41
2.1844
 42
2.1844
 43
1.0000
 50
180.0000
  0
INSERT
  8
17
  2
LONGP100
 10
78.3650
 20
29.4800
 30
0.0000
 41
2.1844
 42
2.1844
 43
1.0000
 50
180.0000
  0
CIRCLE
  8
44
 10
78.3650
 20
29.4800
 30
0.0000
 40
0.8890
  0
INSERT
  8
17
  2
LONGP100
 10
78.3650
 20
25.5200
 30
0.0000
 41
2.1844
 42
2.1844
 43
1.0000
 50
180.0000
  0
INSERT
  8
17
  2
LONGP100
 10
78.3650
 20
25.5200
 30
0.0000
 41
2.1844
 42
2.1844
 43
1.0000
 50
180.0000
  0
CIRCLE
  8
44
 10
78.3650
 20
25.5200
 30
0.0000
 40
0.8890
  0
INSERT
  8
17
  2
LONGP100
 10
78.3650
 20
21.5600
 30
0.0000
 41
2.1844
 42
2.1844
 43
1.0000
 50
180.0000
  0
INSERT
  8
17
  2
LONGP100
 10
78.3650
 20
21.5600
 30
0.0000
 41
2.1844
 42
2.1844
 43
1.0000
 50
180.0000
  0
CIRCLE
  8
44
 10
78.3650
 20
21.5600
 30
0.0000
 40
0.8890
  0
INSERT
  8
17
  2
LONGP100
 10
78.3650
 20
17.6000
 30
0.0000
 41
2.1844
 42
2.1844
 43
1.0000
 50
180.0000
  0
INSERT
  8
17
  2
LONGP100
 10
78.3650
 20
17.6000
 30
0.0000
 41
2.1844
 42
2.1844
 43
1.0000
 50
180.0000
  0
CIRCLE
  8
44
 10
78.3650
 20
17.6000
 30
0.0000
 40
0.8890
  0
INSERT
  8
17
  2
LONGP100
 10
78.3650
 20
13.6400
 30
0.0000
 41
2.1844
 42
2.1844
 43
1.0000
 50
180.0000
  0
INSERT
  8
17
  2
LONGP100
 10
78.3650
 20
13.6400
 30
0.0000
 41
2.1844
 42
2.1844
 43
1.0000
 50
180.0000
  0
CIRCLE
  8
44
 10
78.3650
 20
13.6400
 30
0.0000
 40
0.8890
  0
INSERT
  8
17
  2
LONGP100
 10
78.3650
 20
9.6800
 30
0.0000
 41
2.1844
 42
2.1844
 43
1.0000
 50
180.0000
  0
INSERT
  8
17
  2
LONGP100
 10
78.3650
 20
9.6800
 30
0.0000
 41
2.1844
 42
2.1844
 43
1.0000
 50
180.0000
  0
CIRCLE
  8
44
 10
78.3650
 20
9.6800
 30
0.0000
 40
0.8890
  0
INSERT
  8
17
  2
LONGP100
 10
78.3650
 20
5.7200
 30
0.0000
 41
2.1844
 42
2.1844
 43
1.0000
 50
180.0000
  0
INSERT
  8
17
  2
LONGP100
 10
78.3650
 20
5.7200
 30
0.0000
 41
2.1844
 42
2.1844
 43
1.0000
 50
180.0000
  0
CIRCLE
  8
44
 10
78.3650
 20
5.7200
 30
0.0000
 40
0.8890
  0
INSERT
  8
17
  2
LONGP100
 10
56.3650
 20
49.2800
 30
0.0000
 41
2.1844
 42
2.1844
 43
1.0000
 50
180.0000
  0
INSERT
  8
17
  2
LONGP100
 10
56.3650
 20
49.2800
 30
0.0000
 41
2.1844
 42
2.1844
 43
1.0000
 50
180.0000
  0
CIRCLE
  8
44
 10
56.3650
 20
49.2800
 30
0.0000
 40
0.8890
  0
INSERT
  8
17
  2
LONGP100
 10
56.3650
 20
45.3200
 30
0.0000
 41
2.1844
 42
2.1844
 43
1.0000
 50
180.0000
  0
INSERT
  8
17
  2
LONGP100
 10
56.3650
 20
45.3200
 30
0.0000
 41
2.1844
 42
2.1844
 43
1.0000
 50
180.0000
  0
CIRCLE
  8
44
 10
56.3650
 20
45.3200
 30
0.0000
 40
0.8890
  0
INSERT
  8
17
  2
LONGP100
 10
56.3650
 20
41.3600
 30
0.0000
 41
2.1844
 42
2.1844
 43
1.0000
 50
180.0000
  0
INSERT
  8
17
  2
LONGP100
 10
56.3650
 20
41.3600
 30
0.0000
 41
2.1844
 42
2.1844
 43
1.0000
 50
180.0000
  0
CIRCLE
  8
44
 10
56.3650
 20
41.3600
 30
0.0000
 40
0.8890
  0
INSERT
  8
17
  2
LONGP100
 10
56.3650
 20
37.4000
 30
0.0000
 41
2.1844
 42
2.1844
 43
1.0000
 50
180.0000
  0
INSERT
  8
17
  2
LONGP100
 10
56.3650
 20
37.4000
 30
0.0000
 41
2.1844
 42
2.1844
 43
1.0000
 50
180.0000
  0
CIRCLE
  8
44
 10
56.3650
 20
37.4000
 30
0.0000
 40
0.8890
  0
INSERT
  8
17
  2
LONGP100
 10
56.3650
 20
33.4400
 30
0.0000
 41
2.1844
 42
2.1844
 43
1.0000
 50
180.0000
  0
INSERT
  8
17
  2
LONGP100
 10
56.3650
 20
33.4400
 30
0.0000
 41
2.1844
 42
2.1844
 43
1.0000
 50
180.0000
  0
CIRCLE
  8
44
 10
56.3650
 20
33.4400
 30
0.0000
 40
0.8890
  0
INSERT
  8
17
  2
LONGP100
 10
56.3650
 20
29.4800
 30
0.0000
 41
2.1844
 42
2.1844
 43
1.0000
 50
180.0000
  0
INSERT
  8
17
  2
LONGP100
 10
56.3650
 20
29.4800
 30
0.0000
 41
2.1844
 42
2.1844
 43
1.0000
 50
180.0000
  0
CIRCLE
  8
44
 10
56.3650
 20
29.4800
 30
0.0000
 40
0.8890
  0
INSERT
  8
17
  2
LONGP100
 10
56.3650
 20
25.5200
 30
0.0000
 41
2.1844
 42
2.1844
 43
1.0000
 50
180.0000
  0
INSERT
  8
17
  2
LONGP100
 10
56.3650
 20
25.5200
 30
0.0000
 41
2.1844
 42
2.1844
 43
1.0000
 50
180.0000
  0
CIRCLE
  8
44
 10
56.3650
 20
25.5200
 30
0.0000
 40
0.8890
  0
INSERT
  8
17
  2
LONGP100
 10
56.3650
 20
21.5600
 30
0.0000
 41
2.1844
 42
2.1844
 43
1.0000
 50
180.0000
  0
INSERT
  8
17
  2
LONGP100
 10
56.3650
 20
21.5600
 30
0.0000
 41
2.1844
 42
2.1844
 43
1.0000
 50
180.0000
  0
CIRCLE
  8
44
 10
56.3650
 20
21.5600
 30
0.0000
 40
0.8890
  0
INSERT
  8
17
  2
LONGP100
 10
56.3650
 20
17.6000
 30
0.0000
 41
2.1844
 42
2.1844
 43
1.0000
 50
180.0000
  0
INSERT
  8
17
  2
LONGP100
 10
56.3650
 20
17.6000
 30
0.0000
 41
2.1844
 42
2.1844
 43
1.0000
 50
180.0000
  0
CIRCLE
  8
44
 10
56.3650
 20
17.6000
 30
0.0000
 40
0.8890
  0
INSERT
  8
17
  2
LONGP100
 10
56.3650
 20
13.6400
 30
0.0000
 41
2.1844
 42
2.1844
 43
1.0000
 50
180.0000
  0
INSERT
  8
17
  2
LONGP100
 10
56.3650
 20
13.6400
 30
0.0000
 41
2.1844
 42
2.1844
 43
1.0000
 50
180.0000
  0
CIRCLE
  8
44
 10
56.3650
 20
13.6400
 30
0.0000
 40
0.8890
  0
INSERT
  8
17
  2
LONGP100
 10
56.3650
 20
9.6800
 30
0.0000
 41
2.1844
 42
2.1844
 43
1.0000
 50
180.0000
  0
INSERT
  8
17
  2
LONGP100
 10
56.3650
 20
9.6800
 30
0.0000
 41
2.1844
 42
2.1844
 43
1.0000
 50
180.0000
  0
CIRCLE
  8
44
 10
56.3650
 20
9.6800
 30
0.0000
 40
0.8890
  0
INSERT
  8
17
  2
LONGP100
 10
56.3650
 20
5.7200
 30
0.0000
 41
2.1844
 42
2.1844
 43
1.0000
 50
180.0000
  0
INSERT
  8
17
  2
LONGP100
 10
56.3650
 20
5.7200
 30
0.0000
 41
2.1844
 42
2.1844
 43
1.0000
 50
180.0000
  0
CIRCLE
  8
44
 10
56.3650
 20
5.7200
 30
0.0000
 40
0.8890
  0
POINT
  8
24
 10
7.7350
 20
10.1600
 30
0.0000
  0
INSERT
  8
17
  2
ROUNDP
 10
7.7350
 20
8.8900
 30
0.0000
 41
1.6764
 42
1.6764
 43
1.0000
 50
0.0000
  0
INSERT
  8
17
  2
ROUNDP
 10
7.7350
 20
8.8900
 30
0.0000
 41
1.6764
 42
1.6764
 43
1.0000
 50
0.0000
  0
CIRCLE
  8
44
 10
7.7350
 20
8.8900
 30
0.0000
 40
0.5000
  0
INSERT
  8
17
  2
ROUNDP
 10
7.7350
 20
11.4300
 30
0.0000
 41
1.6764
 42
1.6764
 43
1.0000
 50
0.0000
  0
INSERT
  8
17
  2
ROUNDP
 10
7.7350
 20
11.4300
 30
0.0000
 41
1.6764
 42
1.6764
 43
1.0000
 50
0.0000
  0
CIRCLE
  8
44
 10
7.7350
 20
11.4300
 30
0.0000
 40
0.5000
  0
POINT
  8
24
 10
17.5775
 20
51.4350
 30
0.0000
  0
INSERT
  8
17
  2
ROUNDP
 10
12.4975
 20
51.4350
 30
0.0000
 41
1.6764
 42
1.6764
 43
1.0000
 50
270.0000
  0
INSERT
  8
17
  2
ROUNDP
 10
12.4975
 20
51.4350
 30
0.0000
 41
1.6764
 42
1.6764
 43
1.0000
 50
270.0000
  0
CIRCLE
  8
44
 10
12.4975
 20
51.4350
 30
0.0000
 40
0.5000
  0
INSERT
  8
17
  2
ROUNDP
 10
15.0375
 20
51.4350
 30
0.0000
 41
1.6764
 42
1.6764
 43
1.0000
 50
270.0000
  0
INSERT
  8
17
  2
ROUNDP
 10
15.0375
 20
51.4350
 30
0.0000
 41
1.6764
 42
1.6764
 43
1.0000
 50
270.0000
  0
CIRCLE
  8
44
 10
15.0375
 20
51.4350
 30
0.0000
 40
0.5000
  0
INSERT
  8
17
  2
ROUNDP
 10
17.5775
 20
51.4350
 30
0.0000
 41
1.6764
 42
1.6764
 43
1.0000
 50
270.0000
  0
INSERT
  8
17
  2
ROUNDP
 10
17.5775
 20
51.4350
 30
0.0000
 41
1.6764
 42
1.6764
 43
1.0000
 50
270.0000
  0
CIRCLE
  8
44
 10
17.5775
 20
51.4350
 30
0.0000
 40
0.5000
  0
INSERT
  8
17
  2
ROUNDP
 10
20.1175
 20
51.4350
 30
0.0000
 41
1.6764
 42
1.6764
 43
1.0000
 50
270.0000
  0
INSERT
  8
17
  2
ROUNDP
 10
20.1175
 20
51.4350
 30
0.0000
 41
1.6764
 42
1.6764
 43
1.0000
 50
270.0000
  0
CIRCLE
  8
44
 10
20.1175
 20
51.4350
 30
0.0000
 40
0.5000
  0
INSERT
  8
17
  2
ROUNDP
 10
22.6575
 20
51.4350
 30
0.0000
 41
1.6764
 42
1.6764
 43
1.0000
 50
270.0000
  0
INSERT
  8
17
  2
ROUNDP
 10
22.6575
 20
51.4350
 30
0.0000
 41
1.6764
 42
1.6764
 43
1.0000
 50
270.0000
  0
CIRCLE
  8
44
 10
22.6575
 20
51.4350
 30
0.0000
 40
0.5000
  0
ENDSEC
  0
EOF
