  0
SECTION
  2
HEADER
  9
$ACADVER
  1
AC1009
  9
$FILLMODE
 70
0
  9
$EXTMIN
 10
-0.6820
 20
0.6350
 30
0.0000
  9
$EXTMAX
 10
108.0120
 20
81.4832
 30
0.0000
  0
ENDSEC
  0
SECTION
  2
TABLES
  0
TABLE
  2
LTYPE
 70
1
  0
LTYPE
  2
CONTINUOUS
 70
64
  3
Solid line
 72
65
 73
0
 40
0
  0
ENDTAB
  0
TABLE
  2
LAYER
 70
255
  0
LAYER
  2
1
 70
64
 62
22
  6
CONTINUOUS
  0
LAYER
  2
16
 70
64
 62
175
  6
CONTINUOUS
  0
LAYER
  2
17
 70
64
 62
82
  6
CONTINUOUS
  0
LAYER
  2
18
 70
64
 62
82
  6
CONTINUOUS
  0
LAYER
  2
20
 70
64
 62
7
  6
CONTINUOUS
  0
LAYER
  2
44
 70
64
 62
253
  6
CONTINUOUS
  0
LAYER
  2
45
 70
64
 62
253
  6
CONTINUOUS
  0
ENDTAB
  0
ENDSEC
  0
SECTION
  2
BLOCKS
  0
BLOCK
  8
0
  2
RECT
 70
64
 10
0.0000
 20
0.0000
 30
0.0000
  3
RECT
  0
SOLID
  8
0
 10
-0.5000
 20
-0.5000
 30
0.0000
 11
0.5000
 21
-0.5000
 31
0.0000
 12
-0.5000
 22
0.5000
 32
0.0000
 13
0.5000
 23
0.5000
 33
0.0000
  0
ENDBLK
  8
0
  0
BLOCK
  8
0
  2
PIE
 70
64
 10
0.0000
 20
0.0000
 30
0.0000
  3
PIE
  0
CIRCLE
  8
0
 10
0.0000
 20
0.0000
 30
0.0000
 40
0.5000
  0
ENDBLK
  8
0
  0
BLOCK
  8
0
  2
OCTAGONP
 70
64
 10
0.0000
 20
0.0000
 30
0.0000
  3
OCTAGONP
  0
POLYLINE
  8
0
 66
1
 10
0.0000
 20
0.0000
 30
0.0000
 40
0.0000
 41
0.0000
 70
1
  0
VERTEX
  8
0
 10
-0.5000
 20
-0.2071
 30
0.0000
  0
VERTEX
  8
0
 10
-0.5000
 20
0.2071
 30
0.0000
  0
VERTEX
  8
0
 10
-0.2071
 20
0.5000
 30
0.0000
  0
VERTEX
  8
0
 10
0.2071
 20
0.5000
 30
0.0000
  0
VERTEX
  8
0
 10
0.5000
 20
0.2071
 30
0.0000
  0
VERTEX
  8
0
 10
0.5000
 20
-0.2071
 30
0.0000
  0
VERTEX
  8
0
 10
0.2071
 20
-0.5000
 30
0.0000
  0
VERTEX
  8
0
 10
-0.2071
 20
-0.5000
 30
0.0000
  0
SEQEND
  8
0
  0
ENDBLK
  8
0
  0
BLOCK
  8
0
  2
SQUAREP
 70
64
 10
0.0000
 20
0.0000
 30
0.0000
  3
SQUAREP
  0
SOLID
  8
0
 10
-0.5000
 20
-0.5000
 30
0.0000
 11
0.5000
 21
-0.5000
 31
0.0000
 12
-0.5000
 22
0.5000
 32
0.0000
 13
0.5000
 23
0.5000
 33
0.0000
  0
ENDBLK
  8
0
  0
BLOCK
  8
0
  2
ROUNDP
 70
64
 10
0.0000
 20
0.0000
 30
0.0000
  3
ROUNDP
  0
CIRCLE
  8
0
 10
0.0000
 20
0.0000
 30
0.0000
 40
0.5000
  0
ENDBLK
  8
0
  0
BLOCK
  8
0
  2
ANNULUSP
 70
64
 10
0.0000
 20
0.0000
 30
0.0000
  3
ANNULUSP
  0
CIRCLE
  8
0
 10
0.0000
 20
0.0000
 30
0.0000
 40
0.5000
  0
ENDBLK
  8
0
  0
BLOCK
  8
0
  2
THERMALP
 70
64
 10
0.0000
 20
0.0000
 30
0.0000
  3
THERMALP
  0
LINE
  8
0
 10
-0.2379
 20
0.4500
 30
0.0000
 11
0.2379
 21
0.4500
 31
0.0000
  0
LINE
  8
0
 10
0.4500
 20
0.2379
 30
0.0000
 11
0.4500
 21
-0.2379
 31
0.0000
  0
LINE
  8
0
 10
0.2379
 20
-0.4500
 30
0.0000
 11
-0.2379
 21
-0.4500
 31
0.0000
  0
LINE
  8
0
 10
-0.4500
 20
-0.2379
 30
0.0000
 11
-0.4500
 21
0.2379
 31
0.0000
  0
ENDBLK
  8
0
  0
BLOCK
  8
0
  2
OCTAGONV
 70
64
 10
0.0000
 20
0.0000
 30
0.0000
  3
OCTAGONV
  0
POLYLINE
  8
0
 66
1
 10
0.0000
 20
0.0000
 30
0.0000
 40
0.0000
 41
0.0000
 70
1
  0
VERTEX
  8
0
 10
-0.5000
 20
-0.2071
 30
0.0000
  0
VERTEX
  8
0
 10
-0.5000
 20
0.2071
 30
0.0000
  0
VERTEX
  8
0
 10
-0.2071
 20
0.5000
 30
0.0000
  0
VERTEX
  8
0
 10
0.2071
 20
0.5000
 30
0.0000
  0
VERTEX
  8
0
 10
0.5000
 20
0.2071
 30
0.0000
  0
VERTEX
  8
0
 10
0.5000
 20
-0.2071
 30
0.0000
  0
VERTEX
  8
0
 10
0.2071
 20
-0.5000
 30
0.0000
  0
VERTEX
  8
0
 10
-0.2071
 20
-0.5000
 30
0.0000
  0
SEQEND
  8
0
  0
ENDBLK
  8
0
  0
BLOCK
  8
0
  2
SQUAREV
 70
64
 10
0.0000
 20
0.0000
 30
0.0000
  3
SQUAREV
  0
SOLID
  8
0
 10
-0.5000
 20
-0.5000
 30
0.0000
 11
0.5000
 21
-0.5000
 31
0.0000
 12
-0.5000
 22
0.5000
 32
0.0000
 13
0.5000
 23
0.5000
 33
0.0000
  0
ENDBLK
  8
0
  0
BLOCK
  8
0
  2
ROUNDV
 70
64
 10
0.0000
 20
0.0000
 30
0.0000
  3
ROUNDV
  0
CIRCLE
  8
0
 10
0.0000
 20
0.0000
 30
0.0000
 40
0.5000
  0
ENDBLK
  8
0
  0
BLOCK
  8
0
  2
ANNULUSV
 70
64
 10
0.0000
 20
0.0000
 30
0.0000
  3
ANNULUSV
  0
CIRCLE
  8
0
 10
0.0000
 20
0.0000
 30
0.0000
 40
0.5000
  0
ENDBLK
  8
0
  0
BLOCK
  8
0
  2
THERMALV
 70
64
 10
0.0000
 20
0.0000
 30
0.0000
  3
THERMALV
  0
LINE
  8
0
 10
-0.2379
 20
0.4500
 30
0.0000
 11
0.2379
 21
0.4500
 31
0.0000
  0
LINE
  8
0
 10
0.4500
 20
0.2379
 30
0.0000
 11
0.4500
 21
-0.2379
 31
0.0000
  0
LINE
  8
0
 10
0.2379
 20
-0.4500
 30
0.0000
 11
-0.2379
 21
-0.4500
 31
0.0000
  0
LINE
  8
0
 10
-0.4500
 20
-0.2379
 30
0.0000
 11
-0.4500
 21
0.2379
 31
0.0000
  0
ENDBLK
  8
0
  0
BLOCK
  8
0
  2
LONGP100
 70
64
 10
0.0000
 20
0.0000
 30
0.0000
  3
LONGP100
  0
POLYLINE
  8
0
 66
1
 10
0.0000
 20
0.0000
 30
0.0000
 40
0.0000
 41
0.0000
 70
1
  0
VERTEX
  8
0
 10
-0.5000
 20
-0.5000
 30
0.0000
  0
VERTEX
  8
0
 10
0.5000
 20
-0.5000
 30
0.0000
 42
1.0000
  0
VERTEX
  8
0
 10
0.5000
 20
0.5000
 30
0.0000
  0
VERTEX
  8
0
 10
-0.5000
 20
0.5000
 30
0.0000
 42
1.0000
  0
SEQEND
  8
0
  0
ENDBLK
  8
0
  0
ENDSEC
  0
SECTION
  2
ENTITIES
  0
LINE
  8
20
 10
106.6030
 20
76.5000
 30
0.0000
 11
0.0000
 21
76.5000
 31
0.0000
  0
LINE
  8
20
 10
0.0000
 20
76.5000
 30
0.0000
 11
0.0000
 21
52.5000
 31
0.0000
  0
LINE
  8
20
 10
106.6030
 20
52.5000
 30
0.0000
 11
106.6030
 21
76.5000
 31
0.0000
  0
LINE
  8
20
 10
5.0800
 20
2.5000
 30
0.0000
 11
96.0000
 21
2.5000
 31
0.0000
  0
LINE
  8
20
 10
5.0800
 20
52.5000
 30
0.0000
 11
5.0800
 21
2.5000
 31
0.0000
  0
LINE
  8
20
 10
96.0000
 20
2.5000
 30
0.0000
 11
96.0000
 21
52.5000
 31
0.0000
  0
LINE
  8
20
 10
0.0000
 20
52.5000
 30
0.0000
 11
5.0800
 21
52.5000
 31
0.0000
  0
LINE
  8
20
 10
96.0000
 20
52.5000
 30
0.0000
 11
106.6030
 21
52.5000
 31
0.0000
  0
CIRCLE
  8
20
 10
95.1865
 20
5.2070
 30
0.0000
 40
0.5080
  0
CIRCLE
  8
20
 10
93.9165
 20
5.1435
 30
0.0000
 40
0.5080
  0
CIRCLE
  8
20
 10
92.7735
 20
4.8260
 30
0.0000
 40
0.5080
  0
CIRCLE
  8
20
 10
94.5000
 20
7.1000
 30
0.0000
 40
1.0922
  0
CIRCLE
  8
20
 10
91.5670
 20
4.2545
 30
0.0000
 40
0.5080
  0
CIRCLE
  8
20
 10
62.5000
 20
3.5560
 30
0.0000
 40
0.2000
  0
CIRCLE
  8
20
 10
90.7605
 20
3.2655
 30
0.0000
 40
0.5080
  0
CIRCLE
  8
20
 10
61.9000
 20
3.3560
 30
0.0000
 40
0.2000
  0
CIRCLE
  8
20
 10
61.5000
 20
2.9560
 30
0.0000
 40
0.2000
  0
CIRCLE
  8
20
 10
63.1000
 20
3.3560
 30
0.0000
 40
0.2000
  0
CIRCLE
  8
20
 10
63.5000
 20
2.9560
 30
0.0000
 40
0.2000
  0
CIRCLE
  8
20
 10
11.5000
 20
3.5560
 30
0.0000
 40
0.2000
  0
CIRCLE
  8
20
 10
10.9000
 20
3.3560
 30
0.0000
 40
0.2000
  0
CIRCLE
  8
20
 10
10.5000
 20
2.9560
 30
0.0000
 40
0.2000
  0
CIRCLE
  8
20
 10
12.1000
 20
3.3560
 30
0.0000
 40
0.2000
  0
CIRCLE
  8
20
 10
12.5000
 20
2.9560
 30
0.0000
 40
0.2000
  0
CIRCLE
  8
20
 10
11.5000
 20
51.4440
 30
0.0000
 40
0.2000
  0
CIRCLE
  8
20
 10
12.1000
 20
51.6440
 30
0.0000
 40
0.2000
  0
CIRCLE
  8
20
 10
12.5000
 20
52.0440
 30
0.0000
 40
0.2000
  0
CIRCLE
  8
20
 10
10.9000
 20
51.6440
 30
0.0000
 40
0.2000
  0
CIRCLE
  8
20
 10
10.5000
 20
52.0440
 30
0.0000
 40
0.2000
  0
CIRCLE
  8
20
 10
62.5000
 20
51.4440
 30
0.0000
 40
0.2000
  0
CIRCLE
  8
20
 10
63.1000
 20
51.6440
 30
0.0000
 40
0.2000
  0
CIRCLE
  8
20
 10
63.5000
 20
52.0440
 30
0.0000
 40
0.2000
  0
CIRCLE
  8
20
 10
61.9000
 20
51.6440
 30
0.0000
 40
0.2000
  0
CIRCLE
  8
20
 10
61.5000
 20
52.0440
 30
0.0000
 40
0.2000
  0
CIRCLE
  8
20
 10
90.3000
 20
51.4440
 30
0.0000
 40
0.2000
  0
CIRCLE
  8
20
 10
90.9000
 20
51.6440
 30
0.0000
 40
0.2000
  0
CIRCLE
  8
20
 10
91.3000
 20
52.0440
 30
0.0000
 40
0.2000
  0
CIRCLE
  8
20
 10
89.7000
 20
51.6440
 30
0.0000
 40
0.2000
  0
CIRCLE
  8
20
 10
89.3000
 20
52.0440
 30
0.0000
 40
0.2000
  0
CIRCLE
  8
20
 10
9.0000
 20
46.5000
 30
0.0000
 40
1.0922
  0
CIRCLE
  8
20
 10
11.5000
 20
52.5000
 30
0.0000
 40
1.0922
  0
CIRCLE
  8
20
 10
62.5000
 20
52.5000
 30
0.0000
 40
1.0922
  0
CIRCLE
  8
20
 10
11.5000
 20
2.5000
 30
0.0000
 40
1.0922
  0
CIRCLE
  8
20
 10
62.5000
 20
2.5000
 30
0.0000
 40
1.0922
  0
CIRCLE
  8
20
 10
3.5560
 20
50.9270
 30
0.0000
 40
0.5080
  0
CIRCLE
  8
20
 10
4.5720
 20
51.6890
 30
0.0000
 40
0.5080
  0
CIRCLE
  8
20
 10
5.2070
 20
54.1020
 30
0.0000
 40
0.5080
  0
CIRCLE
  8
20
 10
95.1865
 20
5.2070
 30
0.0000
 40
0.5080
  0
CIRCLE
  8
20
 10
93.9165
 20
5.1435
 30
0.0000
 40
0.5080
  0
CIRCLE
  8
20
 10
92.7735
 20
4.8260
 30
0.0000
 40
0.5080
  0
CIRCLE
  8
20
 10
90.3000
 20
52.5000
 30
0.0000
 40
1.0922
  0
CIRCLE
  8
20
 10
94.5000
 20
7.1000
 30
0.0000
 40
1.0922
  0
CIRCLE
  8
20
 10
91.5670
 20
4.2545
 30
0.0000
 40
0.5080
  0
CIRCLE
  8
20
 10
5.0800
 20
52.8320
 30
0.0000
 40
0.5080
  0
INSERT
  8
17
  2
ROUNDP
 10
74.9300
 20
8.2550
 30
0.0000
 41
2.5400
 42
2.5400
 43
1.0000
 50
180.0000
  0
INSERT
  8
17
  2
ROUNDP
 10
74.9300
 20
8.2550
 30
0.0000
 41
2.5400
 42
2.5400
 43
1.0000
 50
180.0000
  0
CIRCLE
  8
44
 10
74.9300
 20
8.2550
 30
0.0000
 40
0.6800
  0
INSERT
  8
17
  2
ROUNDP
 10
83.8200
 20
8.8900
 30
0.0000
 41
2.5400
 42
2.5400
 43
1.0000
 50
180.0000
  0
INSERT
  8
17
  2
ROUNDP
 10
83.8200
 20
8.8900
 30
0.0000
 41
2.5400
 42
2.5400
 43
1.0000
 50
180.0000
  0
CIRCLE
  8
44
 10
83.8200
 20
8.8900
 30
0.0000
 40
0.6800
  0
INSERT
  8
17
  2
ROUNDP
 10
77.7875
 20
13.3350
 30
0.0000
 41
2.5400
 42
2.5400
 43
1.0000
 50
180.0000
  0
INSERT
  8
17
  2
ROUNDP
 10
77.7875
 20
13.3350
 30
0.0000
 41
2.5400
 42
2.5400
 43
1.0000
 50
180.0000
  0
CIRCLE
  8
44
 10
77.7875
 20
13.3350
 30
0.0000
 40
0.6800
  0
INSERT
  8
17
  2
ROUNDP
 10
80.3275
 20
18.7325
 30
0.0000
 41
2.5400
 42
2.5400
 43
1.0000
 50
180.0000
  0
INSERT
  8
17
  2
ROUNDP
 10
80.3275
 20
18.7325
 30
0.0000
 41
2.5400
 42
2.5400
 43
1.0000
 50
180.0000
  0
CIRCLE
  8
44
 10
80.3275
 20
18.7325
 30
0.0000
 40
0.6800
  0
INSERT
  8
17
  2
ROUNDP
 10
77.7875
 20
24.1300
 30
0.0000
 41
2.5400
 42
2.5400
 43
1.0000
 50
180.0000
  0
INSERT
  8
17
  2
ROUNDP
 10
77.7875
 20
24.1300
 30
0.0000
 41
2.5400
 42
2.5400
 43
1.0000
 50
180.0000
  0
CIRCLE
  8
44
 10
77.7875
 20
24.1300
 30
0.0000
 40
0.6800
  0
INSERT
  8
17
  2
ROUNDP
 10
80.3275
 20
25.7175
 30
0.0000
 41
2.5400
 42
2.5400
 43
1.0000
 50
180.0000
  0
INSERT
  8
17
  2
ROUNDP
 10
80.3275
 20
25.7175
 30
0.0000
 41
2.5400
 42
2.5400
 43
1.0000
 50
180.0000
  0
CIRCLE
  8
44
 10
80.3275
 20
25.7175
 30
0.0000
 40
0.6800
  0
INSERT
  8
17
  2
ROUNDP
 10
77.4700
 20
31.4325
 30
0.0000
 41
2.5400
 42
2.5400
 43
1.0000
 50
180.0000
  0
INSERT
  8
17
  2
ROUNDP
 10
77.4700
 20
31.4325
 30
0.0000
 41
2.5400
 42
2.5400
 43
1.0000
 50
180.0000
  0
CIRCLE
  8
44
 10
77.4700
 20
31.4325
 30
0.0000
 40
0.6800
  0
INSERT
  8
17
  2
ROUNDP
 10
80.3275
 20
32.7025
 30
0.0000
 41
2.5400
 42
2.5400
 43
1.0000
 50
180.0000
  0
INSERT
  8
17
  2
ROUNDP
 10
80.3275
 20
32.7025
 30
0.0000
 41
2.5400
 42
2.5400
 43
1.0000
 50
180.0000
  0
CIRCLE
  8
44
 10
80.3275
 20
32.7025
 30
0.0000
 40
0.6800
  0
INSERT
  8
17
  2
ROUNDP
 10
74.9300
 20
36.5125
 30
0.0000
 41
2.5400
 42
2.5400
 43
1.0000
 50
180.0000
  0
INSERT
  8
17
  2
ROUNDP
 10
74.9300
 20
36.5125
 30
0.0000
 41
2.5400
 42
2.5400
 43
1.0000
 50
180.0000
  0
CIRCLE
  8
44
 10
74.9300
 20
36.5125
 30
0.0000
 40
0.6800
  0
INSERT
  8
17
  2
ROUNDP
 10
80.3275
 20
39.0525
 30
0.0000
 41
2.5400
 42
2.5400
 43
1.0000
 50
180.0000
  0
INSERT
  8
17
  2
ROUNDP
 10
80.3275
 20
39.0525
 30
0.0000
 41
2.5400
 42
2.5400
 43
1.0000
 50
180.0000
  0
CIRCLE
  8
44
 10
80.3275
 20
39.0525
 30
0.0000
 40
0.6800
  0
INSERT
  8
17
  2
ROUNDP
 10
74.6125
 20
43.4975
 30
0.0000
 41
2.5400
 42
2.5400
 43
1.0000
 50
180.0000
  0
INSERT
  8
17
  2
ROUNDP
 10
74.6125
 20
43.4975
 30
0.0000
 41
2.5400
 42
2.5400
 43
1.0000
 50
180.0000
  0
CIRCLE
  8
44
 10
74.6125
 20
43.4975
 30
0.0000
 40
0.6800
  0
INSERT
  8
17
  2
ROUNDP
 10
69.5325
 20
8.2550
 30
0.0000
 41
2.5400
 42
2.5400
 43
1.0000
 50
180.0000
  0
INSERT
  8
17
  2
ROUNDP
 10
69.5325
 20
8.2550
 30
0.0000
 41
2.5400
 42
2.5400
 43
1.0000
 50
180.0000
  0
CIRCLE
  8
44
 10
69.5325
 20
8.2550
 30
0.0000
 40
0.6800
  0
INSERT
  8
17
  2
ROUNDP
 10
75.6920
 20
46.7360
 30
0.0000
 41
2.5400
 42
2.5400
 43
1.0000
 50
180.0000
  0
INSERT
  8
17
  2
ROUNDP
 10
75.6920
 20
46.7360
 30
0.0000
 41
2.5400
 42
2.5400
 43
1.0000
 50
180.0000
  0
CIRCLE
  8
44
 10
75.6920
 20
46.7360
 30
0.0000
 40
0.6800
  0
INSERT
  8
17
  2
ROUNDP
 10
69.5325
 20
11.7475
 30
0.0000
 41
2.5400
 42
2.5400
 43
1.0000
 50
180.0000
  0
INSERT
  8
17
  2
ROUNDP
 10
69.5325
 20
11.7475
 30
0.0000
 41
2.5400
 42
2.5400
 43
1.0000
 50
180.0000
  0
CIRCLE
  8
44
 10
69.5325
 20
11.7475
 30
0.0000
 40
0.6800
  0
INSERT
  8
17
  2
ROUNDP
 10
69.5325
 20
15.2400
 30
0.0000
 41
2.5400
 42
2.5400
 43
1.0000
 50
180.0000
  0
INSERT
  8
17
  2
ROUNDP
 10
69.5325
 20
15.2400
 30
0.0000
 41
2.5400
 42
2.5400
 43
1.0000
 50
180.0000
  0
CIRCLE
  8
44
 10
69.5325
 20
15.2400
 30
0.0000
 40
0.6800
  0
INSERT
  8
17
  2
ROUNDP
 10
75.2475
 20
18.7325
 30
0.0000
 41
2.5400
 42
2.5400
 43
1.0000
 50
180.0000
  0
INSERT
  8
17
  2
ROUNDP
 10
75.2475
 20
18.7325
 30
0.0000
 41
2.5400
 42
2.5400
 43
1.0000
 50
180.0000
  0
CIRCLE
  8
44
 10
75.2475
 20
18.7325
 30
0.0000
 40
0.6800
  0
INSERT
  8
17
  2
ROUNDP
 10
64.1350
 20
21.2725
 30
0.0000
 41
2.5400
 42
2.5400
 43
1.0000
 50
180.0000
  0
INSERT
  8
17
  2
ROUNDP
 10
64.1350
 20
21.2725
 30
0.0000
 41
2.5400
 42
2.5400
 43
1.0000
 50
180.0000
  0
CIRCLE
  8
44
 10
64.1350
 20
21.2725
 30
0.0000
 40
0.6800
  0
INSERT
  8
17
  2
ROUNDP
 10
74.9300
 20
25.7175
 30
0.0000
 41
2.5400
 42
2.5400
 43
1.0000
 50
180.0000
  0
INSERT
  8
17
  2
ROUNDP
 10
74.9300
 20
25.7175
 30
0.0000
 41
2.5400
 42
2.5400
 43
1.0000
 50
180.0000
  0
CIRCLE
  8
44
 10
74.9300
 20
25.7175
 30
0.0000
 40
0.6800
  0
INSERT
  8
17
  2
ROUNDP
 10
69.5325
 20
29.2100
 30
0.0000
 41
2.5400
 42
2.5400
 43
1.0000
 50
180.0000
  0
INSERT
  8
17
  2
ROUNDP
 10
69.5325
 20
29.2100
 30
0.0000
 41
2.5400
 42
2.5400
 43
1.0000
 50
180.0000
  0
CIRCLE
  8
44
 10
69.5325
 20
29.2100
 30
0.0000
 40
0.6800
  0
INSERT
  8
17
  2
ROUNDP
 10
69.5325
 20
33.3375
 30
0.0000
 41
2.5400
 42
2.5400
 43
1.0000
 50
180.0000
  0
INSERT
  8
17
  2
ROUNDP
 10
69.5325
 20
33.3375
 30
0.0000
 41
2.5400
 42
2.5400
 43
1.0000
 50
180.0000
  0
CIRCLE
  8
44
 10
69.5325
 20
33.3375
 30
0.0000
 40
0.6800
  0
INSERT
  8
17
  2
ROUNDP
 10
64.4525
 20
35.2425
 30
0.0000
 41
2.5400
 42
2.5400
 43
1.0000
 50
180.0000
  0
INSERT
  8
17
  2
ROUNDP
 10
64.4525
 20
35.2425
 30
0.0000
 41
2.5400
 42
2.5400
 43
1.0000
 50
180.0000
  0
CIRCLE
  8
44
 10
64.4525
 20
35.2425
 30
0.0000
 40
0.6800
  0
INSERT
  8
17
  2
ROUNDP
 10
74.8665
 20
39.1795
 30
0.0000
 41
2.5400
 42
2.5400
 43
1.0000
 50
180.0000
  0
INSERT
  8
17
  2
ROUNDP
 10
74.8665
 20
39.1795
 30
0.0000
 41
2.5400
 42
2.5400
 43
1.0000
 50
180.0000
  0
CIRCLE
  8
44
 10
74.8665
 20
39.1795
 30
0.0000
 40
0.6800
  0
INSERT
  8
17
  2
ROUNDP
 10
75.1840
 20
33.7820
 30
0.0000
 41
2.5400
 42
2.5400
 43
1.0000
 50
180.0000
  0
INSERT
  8
17
  2
ROUNDP
 10
75.1840
 20
33.7820
 30
0.0000
 41
2.5400
 42
2.5400
 43
1.0000
 50
180.0000
  0
CIRCLE
  8
44
 10
75.1840
 20
33.7820
 30
0.0000
 40
0.6800
  0
CIRCLE
  8
20
 10
3.1496
 20
63.5000
 30
0.0000
 40
1.6510
  0
CIRCLE
  8
20
 10
50.1904
 20
63.5000
 30
0.0000
 40
1.6510
  0
INSERT
  8
17
  2
OCTAGONP
 10
10.1092
 20
62.2300
 30
0.0000
 41
1.5240
 42
1.5240
 43
1.0000
 50
0.0000
  0
INSERT
  8
17
  2
OCTAGONP
 10
10.1092
 20
62.2300
 30
0.0000
 41
1.5240
 42
1.5240
 43
1.0000
 50
0.0000
  0
CIRCLE
  8
44
 10
10.1092
 20
62.2300
 30
0.0000
 40
0.5080
  0
INSERT
  8
17
  2
OCTAGONP
 10
12.8778
 20
62.2300
 30
0.0000
 41
1.5240
 42
1.5240
 43
1.0000
 50
0.0000
  0
INSERT
  8
17
  2
OCTAGONP
 10
12.8778
 20
62.2300
 30
0.0000
 41
1.5240
 42
1.5240
 43
1.0000
 50
0.0000
  0
CIRCLE
  8
44
 10
12.8778
 20
62.2300
 30
0.0000
 40
0.5080
  0
INSERT
  8
17
  2
OCTAGONP
 10
15.6210
 20
62.2300
 30
0.0000
 41
1.5240
 42
1.5240
 43
1.0000
 50
0.0000
  0
INSERT
  8
17
  2
OCTAGONP
 10
15.6210
 20
62.2300
 30
0.0000
 41
1.5240
 42
1.5240
 43
1.0000
 50
0.0000
  0
CIRCLE
  8
44
 10
15.6210
 20
62.2300
 30
0.0000
 40
0.5080
  0
INSERT
  8
17
  2
OCTAGONP
 10
18.3896
 20
62.2300
 30
0.0000
 41
1.5240
 42
1.5240
 43
1.0000
 50
0.0000
  0
INSERT
  8
17
  2
OCTAGONP
 10
18.3896
 20
62.2300
 30
0.0000
 41
1.5240
 42
1.5240
 43
1.0000
 50
0.0000
  0
CIRCLE
  8
44
 10
18.3896
 20
62.2300
 30
0.0000
 40
0.5080
  0
INSERT
  8
17
  2
OCTAGONP
 10
21.1582
 20
62.2300
 30
0.0000
 41
1.5240
 42
1.5240
 43
1.0000
 50
0.0000
  0
INSERT
  8
17
  2
OCTAGONP
 10
21.1582
 20
62.2300
 30
0.0000
 41
1.5240
 42
1.5240
 43
1.0000
 50
0.0000
  0
CIRCLE
  8
44
 10
21.1582
 20
62.2300
 30
0.0000
 40
0.5080
  0
INSERT
  8
17
  2
OCTAGONP
 10
23.9014
 20
62.2300
 30
0.0000
 41
1.6700
 42
1.6700
 43
1.0000
 50
0.0000
  0
INSERT
  8
17
  2
OCTAGONP
 10
23.9014
 20
62.2300
 30
0.0000
 41
1.6700
 42
1.6700
 43
1.0000
 50
0.0000
  0
CIRCLE
  8
44
 10
23.9014
 20
62.2300
 30
0.0000
 40
0.5080
  0
INSERT
  8
17
  2
OCTAGONP
 10
26.6700
 20
62.2300
 30
0.0000
 41
1.6700
 42
1.6700
 43
1.0000
 50
0.0000
  0
INSERT
  8
17
  2
OCTAGONP
 10
26.6700
 20
62.2300
 30
0.0000
 41
1.6700
 42
1.6700
 43
1.0000
 50
0.0000
  0
CIRCLE
  8
44
 10
26.6700
 20
62.2300
 30
0.0000
 40
0.5080
  0
INSERT
  8
17
  2
OCTAGONP
 10
29.4386
 20
62.2300
 30
0.0000
 41
1.5240
 42
1.5240
 43
1.0000
 50
0.0000
  0
INSERT
  8
17
  2
OCTAGONP
 10
29.4386
 20
62.2300
 30
0.0000
 41
1.5240
 42
1.5240
 43
1.0000
 50
0.0000
  0
CIRCLE
  8
44
 10
29.4386
 20
62.2300
 30
0.0000
 40
0.5080
  0
INSERT
  8
17
  2
OCTAGONP
 10
32.1818
 20
62.2300
 30
0.0000
 41
1.5240
 42
1.5240
 43
1.0000
 50
0.0000
  0
INSERT
  8
17
  2
OCTAGONP
 10
32.1818
 20
62.2300
 30
0.0000
 41
1.5240
 42
1.5240
 43
1.0000
 50
0.0000
  0
CIRCLE
  8
44
 10
32.1818
 20
62.2300
 30
0.0000
 40
0.5080
  0
INSERT
  8
17
  2
OCTAGONP
 10
34.9504
 20
62.2300
 30
0.0000
 41
1.5240
 42
1.5240
 43
1.0000
 50
0.0000
  0
INSERT
  8
17
  2
OCTAGONP
 10
34.9504
 20
62.2300
 30
0.0000
 41
1.5240
 42
1.5240
 43
1.0000
 50
0.0000
  0
CIRCLE
  8
44
 10
34.9504
 20
62.2300
 30
0.0000
 40
0.5080
  0
INSERT
  8
17
  2
OCTAGONP
 10
37.7190
 20
62.2300
 30
0.0000
 41
1.5240
 42
1.5240
 43
1.0000
 50
0.0000
  0
INSERT
  8
17
  2
OCTAGONP
 10
37.7190
 20
62.2300
 30
0.0000
 41
1.5240
 42
1.5240
 43
1.0000
 50
0.0000
  0
CIRCLE
  8
44
 10
37.7190
 20
62.2300
 30
0.0000
 40
0.5080
  0
INSERT
  8
17
  2
OCTAGONP
 10
40.4622
 20
62.2300
 30
0.0000
 41
1.5240
 42
1.5240
 43
1.0000
 50
0.0000
  0
INSERT
  8
17
  2
OCTAGONP
 10
40.4622
 20
62.2300
 30
0.0000
 41
1.5240
 42
1.5240
 43
1.0000
 50
0.0000
  0
CIRCLE
  8
44
 10
40.4622
 20
62.2300
 30
0.0000
 40
0.5080
  0
INSERT
  8
17
  2
OCTAGONP
 10
43.2308
 20
62.2300
 30
0.0000
 41
1.5240
 42
1.5240
 43
1.0000
 50
0.0000
  0
INSERT
  8
17
  2
OCTAGONP
 10
43.2308
 20
62.2300
 30
0.0000
 41
1.5240
 42
1.5240
 43
1.0000
 50
0.0000
  0
CIRCLE
  8
44
 10
43.2308
 20
62.2300
 30
0.0000
 40
0.5080
  0
INSERT
  8
17
  2
OCTAGONP
 10
11.4808
 20
64.7700
 30
0.0000
 41
1.5240
 42
1.5240
 43
1.0000
 50
0.0000
  0
INSERT
  8
17
  2
OCTAGONP
 10
11.4808
 20
64.7700
 30
0.0000
 41
1.5240
 42
1.5240
 43
1.0000
 50
0.0000
  0
CIRCLE
  8
44
 10
11.4808
 20
64.7700
 30
0.0000
 40
0.5080
  0
INSERT
  8
17
  2
OCTAGONP
 10
14.2494
 20
64.7700
 30
0.0000
 41
1.5240
 42
1.5240
 43
1.0000
 50
0.0000
  0
INSERT
  8
17
  2
OCTAGONP
 10
14.2494
 20
64.7700
 30
0.0000
 41
1.5240
 42
1.5240
 43
1.0000
 50
0.0000
  0
CIRCLE
  8
44
 10
14.2494
 20
64.7700
 30
0.0000
 40
0.5080
  0
INSERT
  8
17
  2
OCTAGONP
 10
17.0180
 20
64.7700
 30
0.0000
 41
1.5240
 42
1.5240
 43
1.0000
 50
0.0000
  0
INSERT
  8
17
  2
OCTAGONP
 10
17.0180
 20
64.7700
 30
0.0000
 41
1.5240
 42
1.5240
 43
1.0000
 50
0.0000
  0
CIRCLE
  8
44
 10
17.0180
 20
64.7700
 30
0.0000
 40
0.5080
  0
INSERT
  8
17
  2
OCTAGONP
 10
19.7612
 20
64.7700
 30
0.0000
 41
1.6700
 42
1.6700
 43
1.0000
 50
0.0000
  0
INSERT
  8
17
  2
OCTAGONP
 10
19.7612
 20
64.7700
 30
0.0000
 41
1.6700
 42
1.6700
 43
1.0000
 50
0.0000
  0
CIRCLE
  8
44
 10
19.7612
 20
64.7700
 30
0.0000
 40
0.5080
  0
INSERT
  8
17
  2
OCTAGONP
 10
22.5298
 20
64.7700
 30
0.0000
 41
1.6700
 42
1.6700
 43
1.0000
 50
0.0000
  0
INSERT
  8
17
  2
OCTAGONP
 10
22.5298
 20
64.7700
 30
0.0000
 41
1.6700
 42
1.6700
 43
1.0000
 50
0.0000
  0
CIRCLE
  8
44
 10
22.5298
 20
64.7700
 30
0.0000
 40
0.5080
  0
INSERT
  8
17
  2
OCTAGONP
 10
25.2984
 20
64.7700
 30
0.0000
 41
1.6700
 42
1.6700
 43
1.0000
 50
0.0000
  0
INSERT
  8
17
  2
OCTAGONP
 10
25.2984
 20
64.7700
 30
0.0000
 41
1.6700
 42
1.6700
 43
1.0000
 50
0.0000
  0
CIRCLE
  8
44
 10
25.2984
 20
64.7700
 30
0.0000
 40
0.5080
  0
INSERT
  8
17
  2
OCTAGONP
 10
28.0416
 20
64.7700
 30
0.0000
 41
1.5240
 42
1.5240
 43
1.0000
 50
0.0000
  0
INSERT
  8
17
  2
OCTAGONP
 10
28.0416
 20
64.7700
 30
0.0000
 41
1.5240
 42
1.5240
 43
1.0000
 50
0.0000
  0
CIRCLE
  8
44
 10
28.0416
 20
64.7700
 30
0.0000
 40
0.5080
  0
INSERT
  8
17
  2
OCTAGONP
 10
30.8102
 20
64.7700
 30
0.0000
 41
1.5240
 42
1.5240
 43
1.0000
 50
0.0000
  0
INSERT
  8
17
  2
OCTAGONP
 10
30.8102
 20
64.7700
 30
0.0000
 41
1.5240
 42
1.5240
 43
1.0000
 50
0.0000
  0
CIRCLE
  8
44
 10
30.8102
 20
64.7700
 30
0.0000
 40
0.5080
  0
INSERT
  8
17
  2
OCTAGONP
 10
33.5788
 20
64.7700
 30
0.0000
 41
1.5240
 42
1.5240
 43
1.0000
 50
0.0000
  0
INSERT
  8
17
  2
OCTAGONP
 10
33.5788
 20
64.7700
 30
0.0000
 41
1.5240
 42
1.5240
 43
1.0000
 50
0.0000
  0
CIRCLE
  8
44
 10
33.5788
 20
64.7700
 30
0.0000
 40
0.5080
  0
INSERT
  8
17
  2
OCTAGONP
 10
36.3220
 20
64.7700
 30
0.0000
 41
1.5240
 42
1.5240
 43
1.0000
 50
0.0000
  0
INSERT
  8
17
  2
OCTAGONP
 10
36.3220
 20
64.7700
 30
0.0000
 41
1.5240
 42
1.5240
 43
1.0000
 50
0.0000
  0
CIRCLE
  8
44
 10
36.3220
 20
64.7700
 30
0.0000
 40
0.5080
  0
INSERT
  8
17
  2
OCTAGONP
 10
39.0906
 20
64.7700
 30
0.0000
 41
1.5240
 42
1.5240
 43
1.0000
 50
0.0000
  0
INSERT
  8
17
  2
OCTAGONP
 10
39.0906
 20
64.7700
 30
0.0000
 41
1.5240
 42
1.5240
 43
1.0000
 50
0.0000
  0
CIRCLE
  8
44
 10
39.0906
 20
64.7700
 30
0.0000
 40
0.5080
  0
INSERT
  8
17
  2
OCTAGONP
 10
41.8592
 20
64.7700
 30
0.0000
 41
1.5240
 42
1.5240
 43
1.0000
 50
0.0000
  0
INSERT
  8
17
  2
OCTAGONP
 10
41.8592
 20
64.7700
 30
0.0000
 41
1.5240
 42
1.5240
 43
1.0000
 50
0.0000
  0
CIRCLE
  8
44
 10
41.8592
 20
64.7700
 30
0.0000
 40
0.5080
  0
CIRCLE
  8
20
 10
56.4896
 20
63.5000
 30
0.0000
 40
1.6510
  0
CIRCLE
  8
20
 10
103.5304
 20
63.5000
 30
0.0000
 40
1.6510
  0
INSERT
  8
17
  2
OCTAGONP
 10
63.4492
 20
62.2300
 30
0.0000
 41
1.5240
 42
1.5240
 43
1.0000
 50
0.0000
  0
INSERT
  8
17
  2
OCTAGONP
 10
63.4492
 20
62.2300
 30
0.0000
 41
1.5240
 42
1.5240
 43
1.0000
 50
0.0000
  0
CIRCLE
  8
44
 10
63.4492
 20
62.2300
 30
0.0000
 40
0.5080
  0
INSERT
  8
17
  2
OCTAGONP
 10
66.2178
 20
62.2300
 30
0.0000
 41
1.5240
 42
1.5240
 43
1.0000
 50
0.0000
  0
INSERT
  8
17
  2
OCTAGONP
 10
66.2178
 20
62.2300
 30
0.0000
 41
1.5240
 42
1.5240
 43
1.0000
 50
0.0000
  0
CIRCLE
  8
44
 10
66.2178
 20
62.2300
 30
0.0000
 40
0.5080
  0
INSERT
  8
17
  2
OCTAGONP
 10
68.9610
 20
62.2300
 30
0.0000
 41
1.5240
 42
1.5240
 43
1.0000
 50
0.0000
  0
INSERT
  8
17
  2
OCTAGONP
 10
68.9610
 20
62.2300
 30
0.0000
 41
1.5240
 42
1.5240
 43
1.0000
 50
0.0000
  0
CIRCLE
  8
44
 10
68.9610
 20
62.2300
 30
0.0000
 40
0.5080
  0
INSERT
  8
17
  2
OCTAGONP
 10
71.7296
 20
62.2300
 30
0.0000
 41
1.5240
 42
1.5240
 43
1.0000
 50
0.0000
  0
INSERT
  8
17
  2
OCTAGONP
 10
71.7296
 20
62.2300
 30
0.0000
 41
1.5240
 42
1.5240
 43
1.0000
 50
0.0000
  0
CIRCLE
  8
44
 10
71.7296
 20
62.2300
 30
0.0000
 40
0.5080
  0
INSERT
  8
17
  2
OCTAGONP
 10
74.4982
 20
62.2300
 30
0.0000
 41
1.5240
 42
1.5240
 43
1.0000
 50
0.0000
  0
INSERT
  8
17
  2
OCTAGONP
 10
74.4982
 20
62.2300
 30
0.0000
 41
1.5240
 42
1.5240
 43
1.0000
 50
0.0000
  0
CIRCLE
  8
44
 10
74.4982
 20
62.2300
 30
0.0000
 40
0.5080
  0
INSERT
  8
17
  2
OCTAGONP
 10
77.2414
 20
62.2300
 30
0.0000
 41
1.6700
 42
1.6700
 43
1.0000
 50
0.0000
  0
INSERT
  8
17
  2
OCTAGONP
 10
77.2414
 20
62.2300
 30
0.0000
 41
1.6700
 42
1.6700
 43
1.0000
 50
0.0000
  0
CIRCLE
  8
44
 10
77.2414
 20
62.2300
 30
0.0000
 40
0.5080
  0
INSERT
  8
17
  2
OCTAGONP
 10
80.0100
 20
62.2300
 30
0.0000
 41
1.6700
 42
1.6700
 43
1.0000
 50
0.0000
  0
INSERT
  8
17
  2
OCTAGONP
 10
80.0100
 20
62.2300
 30
0.0000
 41
1.6700
 42
1.6700
 43
1.0000
 50
0.0000
  0
CIRCLE
  8
44
 10
80.0100
 20
62.2300
 30
0.0000
 40
0.5080
  0
INSERT
  8
17
  2
OCTAGONP
 10
82.7786
 20
62.2300
 30
0.0000
 41
1.5240
 42
1.5240
 43
1.0000
 50
0.0000
  0
INSERT
  8
17
  2
OCTAGONP
 10
82.7786
 20
62.2300
 30
0.0000
 41
1.5240
 42
1.5240
 43
1.0000
 50
0.0000
  0
CIRCLE
  8
44
 10
82.7786
 20
62.2300
 30
0.0000
 40
0.5080
  0
INSERT
  8
17
  2
OCTAGONP
 10
85.5218
 20
62.2300
 30
0.0000
 41
1.5240
 42
1.5240
 43
1.0000
 50
0.0000
  0
INSERT
  8
17
  2
OCTAGONP
 10
85.5218
 20
62.2300
 30
0.0000
 41
1.5240
 42
1.5240
 43
1.0000
 50
0.0000
  0
CIRCLE
  8
44
 10
85.5218
 20
62.2300
 30
0.0000
 40
0.5080
  0
INSERT
  8
17
  2
OCTAGONP
 10
88.2904
 20
62.2300
 30
0.0000
 41
1.5240
 42
1.5240
 43
1.0000
 50
0.0000
  0
INSERT
  8
17
  2
OCTAGONP
 10
88.2904
 20
62.2300
 30
0.0000
 41
1.5240
 42
1.5240
 43
1.0000
 50
0.0000
  0
CIRCLE
  8
44
 10
88.2904
 20
62.2300
 30
0.0000
 40
0.5080
  0
INSERT
  8
17
  2
OCTAGONP
 10
91.0590
 20
62.2300
 30
0.0000
 41
1.5240
 42
1.5240
 43
1.0000
 50
0.0000
  0
INSERT
  8
17
  2
OCTAGONP
 10
91.0590
 20
62.2300
 30
0.0000
 41
1.5240
 42
1.5240
 43
1.0000
 50
0.0000
  0
CIRCLE
  8
44
 10
91.0590
 20
62.2300
 30
0.0000
 40
0.5080
  0
INSERT
  8
17
  2
OCTAGONP
 10
93.8022
 20
62.2300
 30
0.0000
 41
1.5240
 42
1.5240
 43
1.0000
 50
0.0000
  0
INSERT
  8
17
  2
OCTAGONP
 10
93.8022
 20
62.2300
 30
0.0000
 41
1.5240
 42
1.5240
 43
1.0000
 50
0.0000
  0
CIRCLE
  8
44
 10
93.8022
 20
62.2300
 30
0.0000
 40
0.5080
  0
INSERT
  8
17
  2
OCTAGONP
 10
96.5708
 20
62.2300
 30
0.0000
 41
1.5240
 42
1.5240
 43
1.0000
 50
0.0000
  0
INSERT
  8
17
  2
OCTAGONP
 10
96.5708
 20
62.2300
 30
0.0000
 41
1.5240
 42
1.5240
 43
1.0000
 50
0.0000
  0
CIRCLE
  8
44
 10
96.5708
 20
62.2300
 30
0.0000
 40
0.5080
  0
INSERT
  8
17
  2
OCTAGONP
 10
64.8208
 20
64.7700
 30
0.0000
 41
1.5240
 42
1.5240
 43
1.0000
 50
0.0000
  0
INSERT
  8
17
  2
OCTAGONP
 10
64.8208
 20
64.7700
 30
0.0000
 41
1.5240
 42
1.5240
 43
1.0000
 50
0.0000
  0
CIRCLE
  8
44
 10
64.8208
 20
64.7700
 30
0.0000
 40
0.5080
  0
INSERT
  8
17
  2
OCTAGONP
 10
67.5894
 20
64.7700
 30
0.0000
 41
1.5240
 42
1.5240
 43
1.0000
 50
0.0000
  0
INSERT
  8
17
  2
OCTAGONP
 10
67.5894
 20
64.7700
 30
0.0000
 41
1.5240
 42
1.5240
 43
1.0000
 50
0.0000
  0
CIRCLE
  8
44
 10
67.5894
 20
64.7700
 30
0.0000
 40
0.5080
  0
INSERT
  8
17
  2
OCTAGONP
 10
70.3580
 20
64.7700
 30
0.0000
 41
1.5240
 42
1.5240
 43
1.0000
 50
0.0000
  0
INSERT
  8
17
  2
OCTAGONP
 10
70.3580
 20
64.7700
 30
0.0000
 41
1.5240
 42
1.5240
 43
1.0000
 50
0.0000
  0
CIRCLE
  8
44
 10
70.3580
 20
64.7700
 30
0.0000
 40
0.5080
  0
INSERT
  8
17
  2
OCTAGONP
 10
73.1012
 20
64.7700
 30
0.0000
 41
1.6700
 42
1.6700
 43
1.0000
 50
0.0000
  0
INSERT
  8
17
  2
OCTAGONP
 10
73.1012
 20
64.7700
 30
0.0000
 41
1.6700
 42
1.6700
 43
1.0000
 50
0.0000
  0
CIRCLE
  8
44
 10
73.1012
 20
64.7700
 30
0.0000
 40
0.5080
  0
INSERT
  8
17
  2
OCTAGONP
 10
75.8698
 20
64.7700
 30
0.0000
 41
1.6700
 42
1.6700
 43
1.0000
 50
0.0000
  0
INSERT
  8
17
  2
OCTAGONP
 10
75.8698
 20
64.7700
 30
0.0000
 41
1.6700
 42
1.6700
 43
1.0000
 50
0.0000
  0
CIRCLE
  8
44
 10
75.8698
 20
64.7700
 30
0.0000
 40
0.5080
  0
INSERT
  8
17
  2
OCTAGONP
 10
78.6384
 20
64.7700
 30
0.0000
 41
1.6700
 42
1.6700
 43
1.0000
 50
0.0000
  0
INSERT
  8
17
  2
OCTAGONP
 10
78.6384
 20
64.7700
 30
0.0000
 41
1.6700
 42
1.6700
 43
1.0000
 50
0.0000
  0
CIRCLE
  8
44
 10
78.6384
 20
64.7700
 30
0.0000
 40
0.5080
  0
INSERT
  8
17
  2
OCTAGONP
 10
81.3816
 20
64.7700
 30
0.0000
 41
1.5240
 42
1.5240
 43
1.0000
 50
0.0000
  0
INSERT
  8
17
  2
OCTAGONP
 10
81.3816
 20
64.7700
 30
0.0000
 41
1.5240
 42
1.5240
 43
1.0000
 50
0.0000
  0
CIRCLE
  8
44
 10
81.3816
 20
64.7700
 30
0.0000
 40
0.5080
  0
INSERT
  8
17
  2
OCTAGONP
 10
84.1502
 20
64.7700
 30
0.0000
 41
1.5240
 42
1.5240
 43
1.0000
 50
0.0000
  0
INSERT
  8
17
  2
OCTAGONP
 10
84.1502
 20
64.7700
 30
0.0000
 41
1.5240
 42
1.5240
 43
1.0000
 50
0.0000
  0
CIRCLE
  8
44
 10
84.1502
 20
64.7700
 30
0.0000
 40
0.5080
  0
INSERT
  8
17
  2
OCTAGONP
 10
86.9188
 20
64.7700
 30
0.0000
 41
1.5240
 42
1.5240
 43
1.0000
 50
0.0000
  0
INSERT
  8
17
  2
OCTAGONP
 10
86.9188
 20
64.7700
 30
0.0000
 41
1.5240
 42
1.5240
 43
1.0000
 50
0.0000
  0
CIRCLE
  8
44
 10
86.9188
 20
64.7700
 30
0.0000
 40
0.5080
  0
INSERT
  8
17
  2
OCTAGONP
 10
89.6620
 20
64.7700
 30
0.0000
 41
1.5240
 42
1.5240
 43
1.0000
 50
0.0000
  0
INSERT
  8
17
  2
OCTAGONP
 10
89.6620
 20
64.7700
 30
0.0000
 41
1.5240
 42
1.5240
 43
1.0000
 50
0.0000
  0
CIRCLE
  8
44
 10
89.6620
 20
64.7700
 30
0.0000
 40
0.5080
  0
INSERT
  8
17
  2
OCTAGONP
 10
92.4306
 20
64.7700
 30
0.0000
 41
1.5240
 42
1.5240
 43
1.0000
 50
0.0000
  0
INSERT
  8
17
  2
OCTAGONP
 10
92.4306
 20
64.7700
 30
0.0000
 41
1.5240
 42
1.5240
 43
1.0000
 50
0.0000
  0
CIRCLE
  8
44
 10
92.4306
 20
64.7700
 30
0.0000
 40
0.5080
  0
INSERT
  8
17
  2
OCTAGONP
 10
95.1992
 20
64.7700
 30
0.0000
 41
1.5240
 42
1.5240
 43
1.0000
 50
0.0000
  0
INSERT
  8
17
  2
OCTAGONP
 10
95.1992
 20
64.7700
 30
0.0000
 41
1.5240
 42
1.5240
 43
1.0000
 50
0.0000
  0
CIRCLE
  8
44
 10
95.1992
 20
64.7700
 30
0.0000
 40
0.5080
  0
INSERT
  8
17
  2
LONGP100
 10
41.3950
 20
5.7200
 30
0.0000
 41
3.2000
 42
3.2000
 43
1.0000
 50
180.0000
  0
INSERT
  8
17
  2
LONGP100
 10
41.3950
 20
5.7200
 30
0.0000
 41
3.2000
 42
3.2000
 43
1.0000
 50
180.0000
  0
CIRCLE
  8
44
 10
41.3950
 20
5.7200
 30
0.0000
 40
0.6800
  0
INSERT
  8
17
  2
LONGP100
 10
41.3950
 20
9.6800
 30
0.0000
 41
3.2000
 42
3.2000
 43
1.0000
 50
180.0000
  0
INSERT
  8
17
  2
LONGP100
 10
41.3950
 20
9.6800
 30
0.0000
 41
3.2000
 42
3.2000
 43
1.0000
 50
180.0000
  0
CIRCLE
  8
44
 10
41.3950
 20
9.6800
 30
0.0000
 40
0.6800
  0
INSERT
  8
17
  2
LONGP100
 10
41.3950
 20
13.6400
 30
0.0000
 41
3.2000
 42
3.2000
 43
1.0000
 50
180.0000
  0
INSERT
  8
17
  2
LONGP100
 10
41.3950
 20
13.6400
 30
0.0000
 41
3.2000
 42
3.2000
 43
1.0000
 50
180.0000
  0
CIRCLE
  8
44
 10
41.3950
 20
13.6400
 30
0.0000
 40
0.6800
  0
INSERT
  8
17
  2
LONGP100
 10
41.3950
 20
17.6000
 30
0.0000
 41
3.2000
 42
3.2000
 43
1.0000
 50
180.0000
  0
INSERT
  8
17
  2
LONGP100
 10
41.3950
 20
17.6000
 30
0.0000
 41
3.2000
 42
3.2000
 43
1.0000
 50
180.0000
  0
CIRCLE
  8
44
 10
41.3950
 20
17.6000
 30
0.0000
 40
0.6800
  0
INSERT
  8
17
  2
LONGP100
 10
41.3950
 20
21.5600
 30
0.0000
 41
3.2000
 42
3.2000
 43
1.0000
 50
180.0000
  0
INSERT
  8
17
  2
LONGP100
 10
41.3950
 20
21.5600
 30
0.0000
 41
3.2000
 42
3.2000
 43
1.0000
 50
180.0000
  0
CIRCLE
  8
44
 10
41.3950
 20
21.5600
 30
0.0000
 40
0.6800
  0
INSERT
  8
17
  2
LONGP100
 10
41.3950
 20
25.5200
 30
0.0000
 41
3.2000
 42
3.2000
 43
1.0000
 50
180.0000
  0
INSERT
  8
17
  2
LONGP100
 10
41.3950
 20
25.5200
 30
0.0000
 41
3.2000
 42
3.2000
 43
1.0000
 50
180.0000
  0
CIRCLE
  8
44
 10
41.3950
 20
25.5200
 30
0.0000
 40
0.6800
  0
INSERT
  8
17
  2
LONGP100
 10
41.3950
 20
29.4800
 30
0.0000
 41
3.2000
 42
3.2000
 43
1.0000
 50
180.0000
  0
INSERT
  8
17
  2
LONGP100
 10
41.3950
 20
29.4800
 30
0.0000
 41
3.2000
 42
3.2000
 43
1.0000
 50
180.0000
  0
CIRCLE
  8
44
 10
41.3950
 20
29.4800
 30
0.0000
 40
0.6800
  0
INSERT
  8
17
  2
LONGP100
 10
41.3950
 20
33.4400
 30
0.0000
 41
3.2000
 42
3.2000
 43
1.0000
 50
180.0000
  0
INSERT
  8
17
  2
LONGP100
 10
41.3950
 20
33.4400
 30
0.0000
 41
3.2000
 42
3.2000
 43
1.0000
 50
180.0000
  0
CIRCLE
  8
44
 10
41.3950
 20
33.4400
 30
0.0000
 40
0.6800
  0
INSERT
  8
17
  2
LONGP100
 10
41.3950
 20
37.4000
 30
0.0000
 41
3.2000
 42
3.2000
 43
1.0000
 50
180.0000
  0
INSERT
  8
17
  2
LONGP100
 10
41.3950
 20
37.4000
 30
0.0000
 41
3.2000
 42
3.2000
 43
1.0000
 50
180.0000
  0
CIRCLE
  8
44
 10
41.3950
 20
37.4000
 30
0.0000
 40
0.6800
  0
INSERT
  8
17
  2
LONGP100
 10
41.3950
 20
41.3600
 30
0.0000
 41
3.2000
 42
3.2000
 43
1.0000
 50
180.0000
  0
INSERT
  8
17
  2
LONGP100
 10
41.3950
 20
41.3600
 30
0.0000
 41
3.2000
 42
3.2000
 43
1.0000
 50
180.0000
  0
CIRCLE
  8
44
 10
41.3950
 20
41.3600
 30
0.0000
 40
0.6800
  0
INSERT
  8
17
  2
LONGP100
 10
41.3950
 20
45.3200
 30
0.0000
 41
3.2000
 42
3.2000
 43
1.0000
 50
180.0000
  0
INSERT
  8
17
  2
LONGP100
 10
41.3950
 20
45.3200
 30
0.0000
 41
3.2000
 42
3.2000
 43
1.0000
 50
180.0000
  0
CIRCLE
  8
44
 10
41.3950
 20
45.3200
 30
0.0000
 40
0.6800
  0
INSERT
  8
17
  2
LONGP100
 10
41.3950
 20
49.2800
 30
0.0000
 41
3.2000
 42
3.2000
 43
1.0000
 50
180.0000
  0
INSERT
  8
17
  2
LONGP100
 10
41.3950
 20
49.2800
 30
0.0000
 41
3.2000
 42
3.2000
 43
1.0000
 50
180.0000
  0
CIRCLE
  8
44
 10
41.3950
 20
49.2800
 30
0.0000
 40
0.6800
  0
INSERT
  8
17
  2
LONGP100
 10
15.8750
 20
5.7200
 30
0.0000
 41
3.2000
 42
3.2000
 43
1.0000
 50
180.0000
  0
INSERT
  8
17
  2
LONGP100
 10
15.8750
 20
5.7200
 30
0.0000
 41
3.2000
 42
3.2000
 43
1.0000
 50
180.0000
  0
CIRCLE
  8
44
 10
15.8750
 20
5.7200
 30
0.0000
 40
0.6800
  0
INSERT
  8
17
  2
LONGP100
 10
15.8750
 20
9.6800
 30
0.0000
 41
3.2000
 42
3.2000
 43
1.0000
 50
180.0000
  0
INSERT
  8
17
  2
LONGP100
 10
15.8750
 20
9.6800
 30
0.0000
 41
3.2000
 42
3.2000
 43
1.0000
 50
180.0000
  0
CIRCLE
  8
44
 10
15.8750
 20
9.6800
 30
0.0000
 40
0.6800
  0
INSERT
  8
17
  2
LONGP100
 10
15.8750
 20
13.6400
 30
0.0000
 41
3.2000
 42
3.2000
 43
1.0000
 50
180.0000
  0
INSERT
  8
17
  2
LONGP100
 10
15.8750
 20
13.6400
 30
0.0000
 41
3.2000
 42
3.2000
 43
1.0000
 50
180.0000
  0
CIRCLE
  8
44
 10
15.8750
 20
13.6400
 30
0.0000
 40
0.6800
  0
INSERT
  8
17
  2
LONGP100
 10
15.8750
 20
17.6000
 30
0.0000
 41
3.2000
 42
3.2000
 43
1.0000
 50
180.0000
  0
INSERT
  8
17
  2
LONGP100
 10
15.8750
 20
17.6000
 30
0.0000
 41
3.2000
 42
3.2000
 43
1.0000
 50
180.0000
  0
CIRCLE
  8
44
 10
15.8750
 20
17.6000
 30
0.0000
 40
0.6800
  0
INSERT
  8
17
  2
LONGP100
 10
15.8750
 20
21.5600
 30
0.0000
 41
3.2000
 42
3.2000
 43
1.0000
 50
180.0000
  0
INSERT
  8
17
  2
LONGP100
 10
15.8750
 20
21.5600
 30
0.0000
 41
3.2000
 42
3.2000
 43
1.0000
 50
180.0000
  0
CIRCLE
  8
44
 10
15.8750
 20
21.5600
 30
0.0000
 40
0.6800
  0
INSERT
  8
17
  2
LONGP100
 10
15.8750
 20
25.5200
 30
0.0000
 41
3.2000
 42
3.2000
 43
1.0000
 50
180.0000
  0
INSERT
  8
17
  2
LONGP100
 10
15.8750
 20
25.5200
 30
0.0000
 41
3.2000
 42
3.2000
 43
1.0000
 50
180.0000
  0
CIRCLE
  8
44
 10
15.8750
 20
25.5200
 30
0.0000
 40
0.6800
  0
INSERT
  8
17
  2
LONGP100
 10
15.8750
 20
29.4800
 30
0.0000
 41
3.2000
 42
3.2000
 43
1.0000
 50
180.0000
  0
INSERT
  8
17
  2
LONGP100
 10
15.8750
 20
29.4800
 30
0.0000
 41
3.2000
 42
3.2000
 43
1.0000
 50
180.0000
  0
CIRCLE
  8
44
 10
15.8750
 20
29.4800
 30
0.0000
 40
0.6800
  0
INSERT
  8
17
  2
LONGP100
 10
15.8750
 20
33.4400
 30
0.0000
 41
3.2000
 42
3.2000
 43
1.0000
 50
180.0000
  0
INSERT
  8
17
  2
LONGP100
 10
15.8750
 20
33.4400
 30
0.0000
 41
3.2000
 42
3.2000
 43
1.0000
 50
180.0000
  0
CIRCLE
  8
44
 10
15.8750
 20
33.4400
 30
0.0000
 40
0.6800
  0
INSERT
  8
17
  2
LONGP100
 10
15.8750
 20
37.4000
 30
0.0000
 41
3.2000
 42
3.2000
 43
1.0000
 50
180.0000
  0
INSERT
  8
17
  2
LONGP100
 10
15.8750
 20
37.4000
 30
0.0000
 41
3.2000
 42
3.2000
 43
1.0000
 50
180.0000
  0
CIRCLE
  8
44
 10
15.8750
 20
37.4000
 30
0.0000
 40
0.6800
  0
INSERT
  8
17
  2
LONGP100
 10
15.8750
 20
41.3600
 30
0.0000
 41
3.2000
 42
3.2000
 43
1.0000
 50
180.0000
  0
INSERT
  8
17
  2
LONGP100
 10
15.8750
 20
41.3600
 30
0.0000
 41
3.2000
 42
3.2000
 43
1.0000
 50
180.0000
  0
CIRCLE
  8
44
 10
15.8750
 20
41.3600
 30
0.0000
 40
0.6800
  0
INSERT
  8
17
  2
LONGP100
 10
15.8750
 20
45.3200
 30
0.0000
 41
3.2000
 42
3.2000
 43
1.0000
 50
180.0000
  0
INSERT
  8
17
  2
LONGP100
 10
15.8750
 20
45.3200
 30
0.0000
 41
3.2000
 42
3.2000
 43
1.0000
 50
180.0000
  0
CIRCLE
  8
44
 10
15.8750
 20
45.3200
 30
0.0000
 40
0.6800
  0
INSERT
  8
17
  2
LONGP100
 10
15.8750
 20
49.2800
 30
0.0000
 41
3.2000
 42
3.2000
 43
1.0000
 50
180.0000
  0
INSERT
  8
17
  2
LONGP100
 10
15.8750
 20
49.2800
 30
0.0000
 41
3.2000
 42
3.2000
 43
1.0000
 50
180.0000
  0
CIRCLE
  8
44
 10
15.8750
 20
49.2800
 30
0.0000
 40
0.6800
  0
LINE
  8
1
 10
10.1600
 20
57.9120
 30
0.0000
 11
10.1600
 21
62.2300
 31
0.0000
  0
LINE
  8
1
 10
15.8750
 20
52.1970
 30
0.0000
 11
10.1600
 21
57.9120
 31
0.0000
  0
LINE
  8
1
 10
15.8750
 20
49.2800
 30
0.0000
 11
15.8750
 21
52.1970
 31
0.0000
  0
LINE
  8
1
 10
10.1600
 20
62.2300
 30
0.0000
 11
10.1092
 21
62.2300
 31
0.0000
  0
LINE
  8
16
 10
12.8270
 20
58.1660
 30
0.0000
 11
12.8270
 21
62.2300
 31
0.0000
  0
LINE
  8
16
 10
9.6520
 20
56.0070
 30
0.0000
 11
12.8270
 21
58.1660
 31
0.0000
  0
LINE
  8
16
 10
9.6520
 20
48.5140
 30
0.0000
 11
9.6520
 21
56.0070
 31
0.0000
  0
LINE
  8
16
 10
14.4780
 20
45.3390
 30
0.0000
 11
9.6520
 21
48.5140
 31
0.0000
  0
LINE
  8
16
 10
15.8750
 20
45.3390
 30
0.0000
 11
14.4780
 21
45.3390
 31
0.0000
  0
LINE
  8
16
 10
12.8270
 20
62.2300
 30
0.0000
 11
12.8778
 21
62.2300
 31
0.0000
  0
LINE
  8
16
 10
15.8750
 20
45.3390
 30
0.0000
 11
15.8750
 21
45.3200
 31
0.0000
  0
LINE
  8
16
 10
15.6210
 20
54.3560
 30
0.0000
 11
15.6210
 21
62.2300
 31
0.0000
  0
LINE
  8
16
 10
18.9230
 20
51.8160
 30
0.0000
 11
15.6210
 21
54.3560
 31
0.0000
  0
LINE
  8
16
 10
20.7010
 20
50.0380
 30
0.0000
 11
18.9230
 21
51.8160
 31
0.0000
  0
LINE
  8
16
 10
20.7010
 20
43.3070
 30
0.0000
 11
20.7010
 21
50.0380
 31
0.0000
  0
LINE
  8
16
 10
19.5580
 20
41.4020
 30
0.0000
 11
20.7010
 21
43.3070
 31
0.0000
  0
LINE
  8
16
 10
15.8750
 20
41.4020
 30
0.0000
 11
19.5580
 21
41.4020
 31
0.0000
  0
LINE
  8
16
 10
15.8750
 20
41.4020
 30
0.0000
 11
15.8750
 21
41.3600
 31
0.0000
  0
LINE
  8
16
 10
18.6690
 20
54.4830
 30
0.0000
 11
18.4150
 21
62.2300
 31
0.0000
  0
LINE
  8
16
 10
21.8440
 20
50.4190
 30
0.0000
 11
18.6690
 21
54.4830
 31
0.0000
  0
LINE
  8
16
 10
21.8440
 20
40.3860
 30
0.0000
 11
21.8440
 21
50.4190
 31
0.0000
  0
LINE
  8
16
 10
17.3990
 20
37.4650
 30
0.0000
 11
21.8440
 21
40.3860
 31
0.0000
  0
LINE
  8
16
 10
15.8750
 20
37.4650
 30
0.0000
 11
17.3990
 21
37.4650
 31
0.0000
  0
LINE
  8
16
 10
18.4150
 20
62.2300
 30
0.0000
 11
18.3896
 21
62.2300
 31
0.0000
  0
LINE
  8
16
 10
15.8750
 20
37.4650
 30
0.0000
 11
15.8750
 21
37.4000
 31
0.0000
  0
LINE
  8
16
 10
22.6060
 20
55.6260
 30
0.0000
 11
21.0820
 21
62.2300
 31
0.0000
  0
LINE
  8
16
 10
22.6060
 20
37.2110
 30
0.0000
 11
22.6060
 21
55.6260
 31
0.0000
  0
LINE
  8
16
 10
17.3990
 20
33.5280
 30
0.0000
 11
22.6060
 21
37.2110
 31
0.0000
  0
LINE
  8
16
 10
15.8750
 20
33.5280
 30
0.0000
 11
17.3990
 21
33.5280
 31
0.0000
  0
LINE
  8
16
 10
21.0820
 20
62.2300
 30
0.0000
 11
21.1582
 21
62.2300
 31
0.0000
  0
LINE
  8
16
 10
15.8750
 20
33.5280
 30
0.0000
 11
15.8750
 21
33.4400
 31
0.0000
  0
LINE
  8
16
 10
23.8760
 20
56.0070
 30
0.0000
 11
23.8760
 21
62.2300
 31
0.0000
  0
LINE
  8
16
 10
23.3680
 20
53.9750
 30
0.0000
 11
23.8760
 21
56.0070
 31
0.0000
  0
LINE
  8
16
 10
23.3680
 20
34.0360
 30
0.0000
 11
23.3680
 21
53.9750
 31
0.0000
  0
LINE
  8
16
 10
17.3990
 20
29.5910
 30
0.0000
 11
23.3680
 21
34.0360
 31
0.0000
  0
LINE
  8
16
 10
15.8750
 20
29.5910
 30
0.0000
 11
17.3990
 21
29.5910
 31
0.0000
  0
LINE
  8
16
 10
23.8760
 20
62.2300
 30
0.0000
 11
23.9014
 21
62.2300
 31
0.0000
  0
LINE
  8
16
 10
15.8750
 20
29.5910
 30
0.0000
 11
15.8750
 21
29.4800
 31
0.0000
  0
LINE
  8
16
 10
26.6700
 20
57.6580
 30
0.0000
 11
26.6700
 21
62.2300
 31
0.0000
  0
LINE
  8
16
 10
24.1300
 20
53.5940
 30
0.0000
 11
26.6700
 21
57.6580
 31
0.0000
  0
LINE
  8
16
 10
24.1300
 20
30.8610
 30
0.0000
 11
24.1300
 21
53.5940
 31
0.0000
  0
LINE
  8
16
 10
17.2720
 20
25.5270
 30
0.0000
 11
24.1300
 21
30.8610
 31
0.0000
  0
LINE
  8
16
 10
15.8750
 20
25.5270
 30
0.0000
 11
17.2720
 21
25.5270
 31
0.0000
  0
LINE
  8
16
 10
15.8750
 20
25.5270
 30
0.0000
 11
15.8750
 21
25.5200
 31
0.0000
  0
LINE
  8
16
 10
29.3370
 20
59.1820
 30
0.0000
 11
29.3370
 21
62.2300
 31
0.0000
  0
LINE
  8
16
 10
24.8920
 20
53.2130
 30
0.0000
 11
29.3370
 21
59.1820
 31
0.0000
  0
LINE
  8
16
 10
24.8920
 20
27.6860
 30
0.0000
 11
24.8920
 21
53.2130
 31
0.0000
  0
LINE
  8
16
 10
17.2720
 20
21.5900
 30
0.0000
 11
24.8920
 21
27.6860
 31
0.0000
  0
LINE
  8
16
 10
15.8750
 20
21.5900
 30
0.0000
 11
17.2720
 21
21.5900
 31
0.0000
  0
LINE
  8
16
 10
29.3370
 20
62.2300
 30
0.0000
 11
29.4386
 21
62.2300
 31
0.0000
  0
LINE
  8
16
 10
15.8750
 20
21.5900
 30
0.0000
 11
15.8750
 21
21.5600
 31
0.0000
  0
LINE
  8
16
 10
32.1310
 20
60.8330
 30
0.0000
 11
32.1310
 21
62.2300
 31
0.0000
  0
LINE
  8
16
 10
25.6540
 20
52.8320
 30
0.0000
 11
32.1310
 21
60.8330
 31
0.0000
  0
LINE
  8
16
 10
25.6540
 20
24.5110
 30
0.0000
 11
25.6540
 21
52.8320
 31
0.0000
  0
LINE
  8
16
 10
17.2720
 20
17.6530
 30
0.0000
 11
25.6540
 21
24.5110
 31
0.0000
  0
LINE
  8
16
 10
15.8750
 20
17.6530
 30
0.0000
 11
17.2720
 21
17.6530
 31
0.0000
  0
LINE
  8
16
 10
32.1310
 20
62.2300
 30
0.0000
 11
32.1818
 21
62.2300
 31
0.0000
  0
LINE
  8
16
 10
15.8750
 20
17.6530
 30
0.0000
 11
15.8750
 21
17.6000
 31
0.0000
  0
LINE
  8
1
 10
34.2900
 20
62.2300
 30
0.0000
 11
34.9504
 21
62.2300
 31
0.0000
  0
LINE
  8
1
 10
32.1310
 20
64.3890
 30
0.0000
 11
34.2900
 21
62.2300
 31
0.0000
  0
LINE
  8
1
 10
32.1310
 20
65.2780
 30
0.0000
 11
32.1310
 21
64.3890
 31
0.0000
  0
LINE
  8
1
 10
30.7340
 20
66.6750
 30
0.0000
 11
32.1310
 21
65.2780
 31
0.0000
  0
LINE
  8
1
 10
10.7950
 20
66.6750
 30
0.0000
 11
30.7340
 21
66.6750
 31
0.0000
  0
LINE
  8
1
 10
6.9850
 20
64.2620
 30
0.0000
 11
10.7950
 21
66.6750
 31
0.0000
  0
LINE
  8
1
 10
6.9850
 20
19.9390
 30
0.0000
 11
6.9850
 21
64.2620
 31
0.0000
  0
LINE
  8
1
 10
14.3510
 20
13.7160
 30
0.0000
 11
6.9850
 21
19.9390
 31
0.0000
  0
LINE
  8
1
 10
15.8750
 20
13.7160
 30
0.0000
 11
14.3510
 21
13.7160
 31
0.0000
  0
LINE
  8
1
 10
15.8750
 20
13.7160
 30
0.0000
 11
15.8750
 21
13.6400
 31
0.0000
  0
LINE
  8
16
 10
32.0040
 20
56.2610
 30
0.0000
 11
37.7190
 21
62.2300
 31
0.0000
  0
LINE
  8
16
 10
29.7180
 20
56.2610
 30
0.0000
 11
32.0040
 21
56.2610
 31
0.0000
  0
LINE
  8
16
 10
26.4160
 20
52.4510
 30
0.0000
 11
29.7180
 21
56.2610
 31
0.0000
  0
LINE
  8
16
 10
26.4160
 20
17.2720
 30
0.0000
 11
26.4160
 21
52.4510
 31
0.0000
  0
LINE
  8
16
 10
17.3990
 20
9.7790
 30
0.0000
 11
26.4160
 21
17.2720
 31
0.0000
  0
LINE
  8
16
 10
15.8750
 20
9.7790
 30
0.0000
 11
17.3990
 21
9.7790
 31
0.0000
  0
LINE
  8
16
 10
15.8750
 20
9.7790
 30
0.0000
 11
15.8750
 21
9.6800
 31
0.0000
  0
LINE
  8
1
 10
40.5130
 20
58.4200
 30
0.0000
 11
40.5130
 21
62.2300
 31
0.0000
  0
LINE
  8
1
 10
48.8950
 20
51.1810
 30
0.0000
 11
40.5130
 21
58.4200
 31
0.0000
  0
LINE
  8
1
 10
48.8950
 20
5.2070
 30
0.0000
 11
48.8950
 21
51.1810
 31
0.0000
  0
LINE
  8
1
 10
44.0690
 20
3.0480
 30
0.0000
 11
48.8950
 21
5.2070
 31
0.0000
  0
LINE
  8
1
 10
18.6690
 20
3.0480
 30
0.0000
 11
44.0690
 21
3.0480
 31
0.0000
  0
LINE
  8
1
 10
15.8750
 20
5.8420
 30
0.0000
 11
18.6690
 21
3.0480
 31
0.0000
  0
LINE
  8
1
 10
40.5130
 20
62.2300
 30
0.0000
 11
40.4622
 21
62.2300
 31
0.0000
  0
LINE
  8
1
 10
15.8750
 20
5.8420
 30
0.0000
 11
15.8750
 21
5.7200
 31
0.0000
  0
LINE
  8
1
 10
11.4808
 20
64.7700
 30
0.0000
 11
11.4808
 21
59.1312
 31
0.0000
  0
LINE
  8
1
 10
11.4808
 20
59.1312
 30
0.0000
 11
14.0970
 21
56.5150
 31
0.0000
  0
LINE
  8
1
 10
14.0970
 20
56.5150
 30
0.0000
 11
24.6380
 21
56.5150
 31
0.0000
  0
LINE
  8
1
 10
24.6380
 20
56.5150
 30
0.0000
 11
35.9410
 21
45.2120
 31
0.0000
  0
LINE
  8
1
 10
35.9410
 20
45.2120
 30
0.0000
 11
41.2870
 21
45.2120
 31
0.0000
  0
LINE
  8
1
 10
41.2870
 20
45.2120
 30
0.0000
 11
41.3950
 21
45.3200
 31
0.0000
  0
LINE
  8
1
 10
14.2494
 20
64.7700
 30
0.0000
 11
14.2494
 21
60.6806
 31
0.0000
  0
LINE
  8
1
 10
14.2494
 20
60.6806
 30
0.0000
 11
15.4940
 21
59.4360
 31
0.0000
  0
LINE
  8
1
 10
15.4940
 20
59.4360
 30
0.0000
 11
35.3060
 21
59.4360
 31
0.0000
  0
LINE
  8
1
 10
35.3060
 20
59.4360
 30
0.0000
 11
42.2910
 21
52.4510
 31
0.0000
  0
LINE
  8
1
 10
42.2910
 20
52.4510
 30
0.0000
 11
43.5610
 21
52.4510
 31
0.0000
  0
LINE
  8
1
 10
43.5610
 20
52.4510
 30
0.0000
 11
45.7200
 21
50.6730
 31
0.0000
  0
LINE
  8
1
 10
45.7200
 20
50.6730
 30
0.0000
 11
45.7200
 21
42.6720
 31
0.0000
  0
LINE
  8
1
 10
45.7200
 20
42.6720
 30
0.0000
 11
44.3230
 21
41.2750
 31
0.0000
  0
LINE
  8
1
 10
44.3230
 20
41.2750
 30
0.0000
 11
41.4800
 21
41.2750
 31
0.0000
  0
LINE
  8
1
 10
41.4800
 20
41.2750
 30
0.0000
 11
41.3950
 21
41.3600
 31
0.0000
  0
LINE
  8
16
 10
17.0180
 20
64.7700
 30
0.0000
 11
17.0180
 21
65.2780
 31
0.0000
  0
LINE
  8
16
 10
17.0180
 20
65.2780
 30
0.0000
 11
22.7330
 21
71.1200
 31
0.0000
  0
LINE
  8
16
 10
22.7330
 20
71.1200
 30
0.0000
 11
43.8150
 21
71.1200
 31
0.0000
  0
LINE
  8
16
 10
43.8150
 20
71.1200
 30
0.0000
 11
46.7360
 21
64.6430
 31
0.0000
  0
LINE
  8
16
 10
46.7360
 20
64.6430
 30
0.0000
 11
46.7360
 21
60.5790
 31
0.0000
  0
LINE
  8
16
 10
46.7360
 20
60.5790
 30
0.0000
 11
43.5610
 21
57.4040
 31
0.0000
  0
LINE
  8
16
 10
43.5610
 20
57.4040
 30
0.0000
 11
42.6720
 21
57.4040
 31
0.0000
  0
LINE
  8
16
 10
42.6720
 20
57.4040
 30
0.0000
 11
34.6710
 21
49.4030
 31
0.0000
  0
LINE
  8
16
 10
34.6710
 20
49.4030
 30
0.0000
 11
32.2580
 21
49.4030
 31
0.0000
  0
LINE
  8
16
 10
32.2580
 20
49.4030
 30
0.0000
 11
31.1150
 21
48.2600
 31
0.0000
  0
LINE
  8
16
 10
31.1150
 20
48.2600
 30
0.0000
 11
31.1150
 21
41.7830
 31
0.0000
  0
LINE
  8
16
 10
31.1150
 20
41.7830
 30
0.0000
 11
35.5600
 21
37.3380
 31
0.0000
  0
LINE
  8
16
 10
35.5600
 20
37.3380
 30
0.0000
 11
41.3330
 21
37.3380
 31
0.0000
  0
LINE
  8
16
 10
41.3330
 20
37.3380
 30
0.0000
 11
41.3950
 21
37.4000
 31
0.0000
  0
LINE
  8
16
 10
19.7612
 20
64.7700
 30
0.0000
 11
19.7612
 21
66.1162
 31
0.0000
  0
LINE
  8
16
 10
19.7612
 20
66.1162
 30
0.0000
 11
23.7490
 21
70.2310
 31
0.0000
  0
LINE
  8
16
 10
23.7490
 20
70.2310
 30
0.0000
 11
43.0530
 21
70.2310
 31
0.0000
  0
LINE
  8
16
 10
43.0530
 20
70.2310
 30
0.0000
 11
45.7200
 21
64.2620
 31
0.0000
  0
LINE
  8
16
 10
45.7200
 20
64.2620
 30
0.0000
 11
45.7200
 21
60.8330
 31
0.0000
  0
LINE
  8
16
 10
45.7200
 20
60.8330
 30
0.0000
 11
43.3070
 21
58.4200
 31
0.0000
  0
LINE
  8
16
 10
43.3070
 20
58.4200
 30
0.0000
 11
42.4180
 21
58.4200
 31
0.0000
  0
LINE
  8
16
 10
42.4180
 20
58.4200
 30
0.0000
 11
34.4170
 21
50.4190
 31
0.0000
  0
LINE
  8
16
 10
34.4170
 20
50.4190
 30
0.0000
 11
31.6230
 21
50.4190
 31
0.0000
  0
LINE
  8
16
 10
31.6230
 20
50.4190
 30
0.0000
 11
30.0990
 21
48.8950
 31
0.0000
  0
LINE
  8
16
 10
30.0990
 20
48.8950
 30
0.0000
 11
30.0990
 21
37.8460
 31
0.0000
  0
LINE
  8
16
 10
30.0990
 20
37.8460
 30
0.0000
 11
34.4170
 21
33.5280
 31
0.0000
  0
LINE
  8
16
 10
34.4170
 20
33.5280
 30
0.0000
 11
41.4020
 21
33.5280
 31
0.0000
  0
LINE
  8
16
 10
41.4020
 20
33.5280
 30
0.0000
 11
41.7830
 21
33.1470
 31
0.0000
  0
LINE
  8
16
 10
41.7830
 20
33.1470
 30
0.0000
 11
41.6880
 21
33.1470
 31
0.0000
  0
LINE
  8
16
 10
41.6880
 20
33.1470
 30
0.0000
 11
41.3950
 21
33.4400
 31
0.0000
  0
LINE
  8
16
 10
25.2984
 20
64.7700
 30
0.0000
 11
25.2984
 21
65.6844
 31
0.0000
  0
LINE
  8
16
 10
25.2984
 20
65.6844
 30
0.0000
 11
28.7020
 21
69.2150
 31
0.0000
  0
LINE
  8
16
 10
28.7020
 20
69.2150
 30
0.0000
 11
42.4180
 21
69.2150
 31
0.0000
  0
LINE
  8
16
 10
42.4180
 20
69.2150
 30
0.0000
 11
44.7040
 21
64.0080
 31
0.0000
  0
LINE
  8
16
 10
44.7040
 20
64.0080
 30
0.0000
 11
44.7040
 21
61.2140
 31
0.0000
  0
LINE
  8
16
 10
44.7040
 20
61.2140
 30
0.0000
 11
42.7990
 21
59.3090
 31
0.0000
  0
LINE
  8
16
 10
42.7990
 20
59.3090
 30
0.0000
 11
42.0370
 21
59.3090
 31
0.0000
  0
LINE
  8
16
 10
42.0370
 20
59.3090
 30
0.0000
 11
34.2900
 21
51.5620
 31
0.0000
  0
LINE
  8
16
 10
34.2900
 20
51.5620
 30
0.0000
 11
29.9720
 21
51.5620
 31
0.0000
  0
LINE
  8
16
 10
29.9720
 20
51.5620
 30
0.0000
 11
29.3370
 21
50.9270
 31
0.0000
  0
LINE
  8
16
 10
29.3370
 20
50.9270
 30
0.0000
 11
29.3370
 21
32.1310
 31
0.0000
  0
LINE
  8
16
 10
29.3370
 20
32.1310
 30
0.0000
 11
35.9410
 21
25.5270
 31
0.0000
  0
LINE
  8
16
 10
35.9410
 20
25.5270
 30
0.0000
 11
41.3880
 21
25.5270
 31
0.0000
  0
LINE
  8
16
 10
41.3880
 20
25.5270
 30
0.0000
 11
41.3950
 21
25.5200
 31
0.0000
  0
LINE
  8
16
 10
30.8102
 20
64.7700
 30
0.0000
 11
30.8102
 21
65.8622
 31
0.0000
  0
LINE
  8
16
 10
30.8102
 20
65.8622
 30
0.0000
 11
31.6230
 21
66.6750
 31
0.0000
  0
LINE
  8
16
 10
31.6230
 20
66.6750
 30
0.0000
 11
39.2430
 21
66.6750
 31
0.0000
  0
LINE
  8
16
 10
39.2430
 20
66.6750
 30
0.0000
 11
40.5130
 21
65.4050
 31
0.0000
  0
LINE
  8
16
 10
40.5130
 20
65.4050
 30
0.0000
 11
40.5130
 21
64.1350
 31
0.0000
  0
LINE
  8
16
 10
40.5130
 20
64.1350
 30
0.0000
 11
41.9100
 21
62.7380
 31
0.0000
  0
LINE
  8
16
 10
41.9100
 20
62.7380
 30
0.0000
 11
41.9100
 21
60.7060
 31
0.0000
  0
LINE
  8
16
 10
41.9100
 20
60.7060
 30
0.0000
 11
34.1630
 21
52.9590
 31
0.0000
  0
LINE
  8
16
 10
34.1630
 20
52.9590
 30
0.0000
 11
29.9720
 21
52.9590
 31
0.0000
  0
LINE
  8
16
 10
29.9720
 20
52.9590
 30
0.0000
 11
28.3210
 21
51.3080
 31
0.0000
  0
LINE
  8
16
 10
28.3210
 20
51.3080
 30
0.0000
 11
28.3210
 21
26.5430
 31
0.0000
  0
LINE
  8
16
 10
28.3210
 20
26.5430
 30
0.0000
 11
37.0840
 21
17.7800
 31
0.0000
  0
LINE
  8
16
 10
37.0840
 20
17.7800
 30
0.0000
 11
41.2150
 21
17.7800
 31
0.0000
  0
LINE
  8
16
 10
41.2150
 20
17.7800
 30
0.0000
 11
41.3950
 21
17.6000
 31
0.0000
  0
LINE
  8
16
 10
30.0990
 20
54.6100
 30
0.0000
 11
33.5280
 21
54.6100
 31
0.0000
  0
LINE
  8
16
 10
27.1780
 20
51.8160
 30
0.0000
 11
30.0990
 21
54.6100
 31
0.0000
  0
LINE
  8
16
 10
27.1780
 20
24.5110
 30
0.0000
 11
27.1780
 21
51.8160
 31
0.0000
  0
LINE
  8
16
 10
29.9720
 20
19.1770
 30
0.0000
 11
27.1780
 21
24.5110
 31
0.0000
  0
LINE
  8
16
 10
38.2270
 20
13.7160
 30
0.0000
 11
29.9720
 21
19.1770
 31
0.0000
  0
LINE
  8
16
 10
33.5280
 20
64.7700
 30
0.0000
 11
33.5788
 21
64.7700
 31
0.0000
  0
LINE
  8
16
 10
38.2270
 20
13.7160
 30
0.0000
 11
41.3950
 21
13.6400
 31
0.0000
  0
LINE
  8
16
 10
33.5280
 20
64.7700
 30
0.0000
 11
33.5280
 21
64.6430
 31
0.0000
  0
LINE
  8
16
 10
33.5280
 20
64.6430
 30
0.0000
 11
34.5440
 21
63.5000
 31
0.0000
  0
LINE
  8
16
 10
34.5440
 20
63.5000
 30
0.0000
 11
38.3540
 21
63.5000
 31
0.0000
  0
LINE
  8
16
 10
38.3540
 20
63.5000
 30
0.0000
 11
39.1160
 21
62.7380
 31
0.0000
  0
LINE
  8
16
 10
39.1160
 20
62.7380
 30
0.0000
 11
39.1160
 21
60.1980
 31
0.0000
  0
LINE
  8
16
 10
39.1160
 20
60.1980
 30
0.0000
 11
33.5280
 21
54.6100
 31
0.0000
  0
LINE
  8
1
 10
39.1160
 20
58.2930
 30
0.0000
 11
39.1160
 21
64.7700
 31
0.0000
  0
LINE
  8
1
 10
47.2440
 20
51.1810
 30
0.0000
 11
39.1160
 21
58.2930
 31
0.0000
  0
LINE
  8
1
 10
47.2440
 20
8.6360
 30
0.0000
 11
47.2440
 21
51.1810
 31
0.0000
  0
LINE
  8
1
 10
42.9260
 20
5.8420
 30
0.0000
 11
47.2440
 21
8.6360
 31
0.0000
  0
LINE
  8
1
 10
41.4020
 20
5.8420
 30
0.0000
 11
42.9260
 21
5.8420
 31
0.0000
  0
LINE
  8
1
 10
39.1160
 20
64.7700
 30
0.0000
 11
39.0906
 21
64.7700
 31
0.0000
  0
LINE
  8
1
 10
41.4020
 20
5.8420
 30
0.0000
 11
41.3950
 21
5.7200
 31
0.0000
  0
LINE
  8
16
 10
0.0800
 20
76.5780
 30
0.0000
 11
107.8850
 21
76.5780
 31
0.0000
  0
LINE
  8
16
 10
107.8850
 20
76.5780
 30
0.0000
 11
104.2020
 21
2.5570
 31
0.0000
  0
LINE
  8
16
 10
104.2020
 20
2.5570
 30
0.0000
 11
85.8360
 21
2.6990
 31
0.0000
  0
LINE
  8
16
 10
85.8360
 20
2.6990
 30
0.0000
 11
-0.5550
 21
2.0320
 31
0.0000
  0
LINE
  8
16
 10
-0.5550
 20
2.0320
 30
0.0000
 11
0.0800
 21
76.5780
 31
0.0000
  0
LINE
  8
1
 10
-0.4280
 20
76.5780
 30
0.0000
 11
107.8850
 21
76.5780
 31
0.0000
  0
LINE
  8
1
 10
107.8850
 20
76.5780
 30
0.0000
 11
104.2020
 21
2.4450
 31
0.0000
  0
LINE
  8
1
 10
104.2020
 20
2.4450
 30
0.0000
 11
-0.5550
 21
1.9050
 31
0.0000
  0
LINE
  8
1
 10
-0.5550
 20
1.9050
 30
0.0000
 11
-0.4280
 21
76.5780
 31
0.0000
  0
INSERT
  8
18
  2
ROUNDV
 10
3.1496
 20
63.5000
 30
0.0000
 41
1.3620
 42
1.3620
 43
1.0000
 50
0.0000
  0
INSERT
  8
18
  2
ROUNDV
 10
3.1496
 20
63.5000
 30
0.0000
 41
1.3620
 42
1.3620
 43
1.0000
 50
0.0000
  0
CIRCLE
  8
44
 10
3.1496
 20
63.5000
 30
0.0000
 40
0.3000
  0
INSERT
  8
18
  2
ROUNDV
 10
50.1904
 20
63.5000
 30
0.0000
 41
1.3620
 42
1.3620
 43
1.0000
 50
0.0000
  0
INSERT
  8
18
  2
ROUNDV
 10
50.1904
 20
63.5000
 30
0.0000
 41
1.3620
 42
1.3620
 43
1.0000
 50
0.0000
  0
CIRCLE
  8
44
 10
50.1904
 20
63.5000
 30
0.0000
 40
0.3000
  0
INSERT
  8
18
  2
ROUNDV
 10
56.4896
 20
63.5000
 30
0.0000
 41
1.3620
 42
1.3620
 43
1.0000
 50
0.0000
  0
INSERT
  8
18
  2
ROUNDV
 10
56.4896
 20
63.5000
 30
0.0000
 41
1.3620
 42
1.3620
 43
1.0000
 50
0.0000
  0
CIRCLE
  8
44
 10
56.4896
 20
63.5000
 30
0.0000
 40
0.3000
  0
INSERT
  8
18
  2
ROUNDV
 10
103.5304
 20
63.5000
 30
0.0000
 41
1.3620
 42
1.3620
 43
1.0000
 50
0.0000
  0
INSERT
  8
18
  2
ROUNDV
 10
103.5304
 20
63.5000
 30
0.0000
 41
1.3620
 42
1.3620
 43
1.0000
 50
0.0000
  0
CIRCLE
  8
44
 10
103.5304
 20
63.5000
 30
0.0000
 40
0.3000
  0
LINE
  8
1
 10
63.3730
 20
46.6090
 30
0.0000
 11
64.8970
 21
48.2600
 31
0.0000
  0
LINE
  8
1
 10
64.8970
 20
48.2600
 30
0.0000
 11
64.8970
 21
57.7850
 31
0.0000
  0
LINE
  8
1
 10
64.8970
 20
57.7850
 30
0.0000
 11
63.3730
 21
59.3090
 31
0.0000
  0
LINE
  8
1
 10
63.3730
 20
59.3090
 30
0.0000
 11
63.3730
 21
62.2300
 31
0.0000
  0
LINE
  8
1
 10
59.8170
 20
43.0530
 30
0.0000
 11
63.3730
 21
46.6090
 31
0.0000
  0
LINE
  8
1
 10
59.8170
 20
28.5750
 30
0.0000
 11
59.8170
 21
43.0530
 31
0.0000
  0
LINE
  8
1
 10
74.6760
 20
13.7160
 30
0.0000
 11
59.8170
 21
28.5750
 31
0.0000
  0
LINE
  8
1
 10
74.6760
 20
8.5090
 30
0.0000
 11
74.6760
 21
13.7160
 31
0.0000
  0
LINE
  8
1
 10
74.9300
 20
8.2550
 30
0.0000
 11
74.6760
 21
8.5090
 31
0.0000
  0
LINE
  8
1
 10
63.3730
 20
62.2300
 30
0.0000
 11
63.4492
 21
62.2300
 31
0.0000
  0
LINE
  8
1
 10
66.1670
 20
48.2600
 30
0.0000
 11
66.1670
 21
62.2300
 31
0.0000
  0
LINE
  8
1
 10
60.5790
 20
42.6720
 30
0.0000
 11
66.1670
 21
48.2600
 31
0.0000
  0
LINE
  8
1
 10
60.5790
 20
28.9560
 30
0.0000
 11
60.5790
 21
42.6720
 31
0.0000
  0
LINE
  8
1
 10
75.4380
 20
14.0970
 30
0.0000
 11
60.5790
 21
28.9560
 31
0.0000
  0
LINE
  8
1
 10
75.4380
 20
12.4460
 30
0.0000
 11
75.4380
 21
14.0970
 31
0.0000
  0
LINE
  8
1
 10
78.7400
 20
9.1440
 30
0.0000
 11
75.4380
 21
12.4460
 31
0.0000
  0
LINE
  8
1
 10
83.5660
 20
9.1440
 30
0.0000
 11
78.7400
 21
9.1440
 31
0.0000
  0
LINE
  8
1
 10
83.8200
 20
8.8900
 30
0.0000
 11
83.5660
 21
9.1440
 31
0.0000
  0
LINE
  8
1
 10
66.1670
 20
62.2300
 30
0.0000
 11
66.2178
 21
62.2300
 31
0.0000
  0
LINE
  8
1
 10
68.9610
 20
49.9110
 30
0.0000
 11
68.9610
 21
62.2300
 31
0.0000
  0
LINE
  8
1
 10
61.3410
 20
42.2910
 30
0.0000
 11
68.9610
 21
49.9110
 31
0.0000
  0
LINE
  8
1
 10
61.3410
 20
29.3370
 30
0.0000
 11
61.3410
 21
42.2910
 31
0.0000
  0
LINE
  8
1
 10
77.3430
 20
13.3350
 30
0.0000
 11
61.3410
 21
29.3370
 31
0.0000
  0
LINE
  8
1
 10
77.7875
 20
13.3350
 30
0.0000
 11
77.3430
 21
13.3350
 31
0.0000
  0
LINE
  8
1
 10
71.6280
 20
51.4350
 30
0.0000
 11
71.6280
 21
62.2300
 31
0.0000
  0
LINE
  8
1
 10
62.1030
 20
41.9100
 30
0.0000
 11
71.6280
 21
51.4350
 31
0.0000
  0
LINE
  8
1
 10
62.1030
 20
30.6070
 30
0.0000
 11
62.1030
 21
41.9100
 31
0.0000
  0
LINE
  8
1
 10
71.6280
 20
21.0820
 30
0.0000
 11
62.1030
 21
30.6070
 31
0.0000
  0
LINE
  8
1
 10
77.8510
 20
21.0820
 30
0.0000
 11
71.6280
 21
21.0820
 31
0.0000
  0
LINE
  8
1
 10
80.2640
 20
18.6690
 30
0.0000
 11
77.8510
 21
21.0820
 31
0.0000
  0
LINE
  8
1
 10
71.6280
 20
62.2300
 30
0.0000
 11
71.7296
 21
62.2300
 31
0.0000
  0
LINE
  8
1
 10
80.2640
 20
18.6690
 30
0.0000
 11
80.3275
 21
18.7325
 31
0.0000
  0
LINE
  8
1
 10
75.3110
 20
56.7690
 30
0.0000
 11
75.3110
 21
57.5310
 31
0.0000
  0
LINE
  8
1
 10
75.3110
 20
57.5310
 30
0.0000
 11
74.4220
 21
58.4200
 31
0.0000
  0
LINE
  8
1
 10
74.4220
 20
58.4200
 30
0.0000
 11
74.4220
 21
62.2300
 31
0.0000
  0
LINE
  8
16
 10
74.4220
 20
48.7680
 30
0.0000
 11
74.4220
 21
55.1180
 31
0.0000
  0
LINE
  8
16
 10
74.4220
 20
55.1180
 30
0.0000
 11
75.3110
 21
56.0070
 31
0.0000
  0
LINE
  8
16
 10
75.3110
 20
56.0070
 30
0.0000
 11
75.3110
 21
56.7690
 31
0.0000
  0
LINE
  8
16
 10
72.2630
 20
46.6090
 30
0.0000
 11
74.4220
 21
48.7680
 31
0.0000
  0
LINE
  8
16
 10
72.2630
 20
31.6230
 30
0.0000
 11
72.2630
 21
34.4170
 31
0.0000
  0
LINE
  8
16
 10
72.2630
 20
34.4170
 30
0.0000
 11
70.9930
 21
36.7030
 31
0.0000
  0
LINE
  8
16
 10
70.9930
 20
36.7030
 30
0.0000
 11
70.9930
 21
41.4020
 31
0.0000
  0
LINE
  8
16
 10
70.9930
 20
41.4020
 30
0.0000
 11
72.2630
 21
42.6720
 31
0.0000
  0
LINE
  8
16
 10
72.2630
 20
42.6720
 30
0.0000
 11
72.2630
 21
46.6090
 31
0.0000
  0
LINE
  8
16
 10
77.7240
 20
26.1620
 30
0.0000
 11
72.2630
 21
31.6230
 31
0.0000
  0
LINE
  8
16
 10
77.7240
 20
24.1300
 30
0.0000
 11
77.7240
 21
26.1620
 31
0.0000
  0
LINE
  8
1
 10
74.4220
 20
62.2300
 30
0.0000
 11
74.4982
 21
62.2300
 31
0.0000
  0
LINE
  8
16
 10
77.7240
 20
24.1300
 30
0.0000
 11
77.7875
 21
24.1300
 31
0.0000
  0
INSERT
  8
18
  2
ROUNDV
 10
75.3110
 20
56.7690
 30
0.0000
 41
1.2700
 42
1.2700
 43
1.0000
 50
0.0000
  0
INSERT
  8
18
  2
ROUNDV
 10
75.3110
 20
56.7690
 30
0.0000
 41
1.2700
 42
1.2700
 43
1.0000
 50
0.0000
  0
CIRCLE
  8
44
 10
75.3110
 20
56.7690
 30
0.0000
 40
0.2540
  0
LINE
  8
16
 10
77.2160
 20
65.2780
 30
0.0000
 11
77.2160
 21
62.2300
 31
0.0000
  0
LINE
  8
16
 10
78.1050
 20
66.1670
 30
0.0000
 11
77.2160
 21
65.2780
 31
0.0000
  0
LINE
  8
16
 10
90.1700
 20
66.1670
 30
0.0000
 11
78.1050
 21
66.1670
 31
0.0000
  0
LINE
  8
16
 10
91.0590
 20
65.2780
 30
0.0000
 11
90.1700
 21
66.1670
 31
0.0000
  0
LINE
  8
16
 10
91.0590
 20
64.1350
 30
0.0000
 11
91.0590
 21
65.2780
 31
0.0000
  0
LINE
  8
16
 10
92.3290
 20
62.8650
 30
0.0000
 11
91.0590
 21
64.1350
 31
0.0000
  0
LINE
  8
16
 10
92.3290
 20
37.7190
 30
0.0000
 11
92.3290
 21
62.8650
 31
0.0000
  0
LINE
  8
16
 10
80.3275
 20
25.7175
 30
0.0000
 11
92.3290
 21
37.7190
 31
0.0000
  0
LINE
  8
16
 10
77.2160
 20
62.2300
 30
0.0000
 11
77.2414
 21
62.2300
 31
0.0000
  0
LINE
  8
16
 10
80.0100
 20
50.6730
 30
0.0000
 11
80.0100
 21
62.2300
 31
0.0000
  0
LINE
  8
16
 10
77.9780
 20
48.6410
 30
0.0000
 11
80.0100
 21
50.6730
 31
0.0000
  0
LINE
  8
16
 10
77.9780
 20
42.2910
 30
0.0000
 11
77.9780
 21
48.6410
 31
0.0000
  0
LINE
  8
16
 10
77.9780
 20
42.2910
 30
0.0000
 11
75.6920
 21
41.4020
 31
0.0000
  0
LINE
  8
16
 10
75.6920
 20
41.4020
 30
0.0000
 11
73.4060
 21
41.4020
 31
0.0000
  0
LINE
  8
16
 10
73.4060
 20
41.4020
 30
0.0000
 11
72.6440
 21
41.0210
 31
0.0000
  0
LINE
  8
16
 10
72.6440
 20
41.0210
 30
0.0000
 11
72.6440
 21
36.0680
 31
0.0000
  0
LINE
  8
16
 10
72.6440
 20
36.0680
 30
0.0000
 11
73.1520
 21
35.1790
 31
0.0000
  0
LINE
  8
16
 10
73.1520
 20
35.1790
 30
0.0000
 11
73.1520
 21
32.5120
 31
0.0000
  0
LINE
  8
16
 10
73.1520
 20
32.5120
 30
0.0000
 11
74.2315
 21
31.4325
 31
0.0000
  0
LINE
  8
16
 10
74.2315
 20
31.4325
 30
0.0000
 11
77.4700
 21
31.4325
 31
0.0000
  0
LINE
  8
1
 10
80.2640
 20
32.7660
 30
0.0000
 11
82.6770
 21
35.1790
 31
0.0000
  0
LINE
  8
1
 10
80.2640
 20
32.7660
 30
0.0000
 11
80.3275
 21
32.7025
 31
0.0000
  0
LINE
  8
1
 10
82.6770
 20
62.2300
 30
0.0000
 11
82.7405
 21
62.2935
 31
0.0000
  0
LINE
  8
1
 10
82.7405
 20
62.2935
 30
0.0000
 11
83.9470
 21
63.5000
 31
0.0000
  0
LINE
  8
1
 10
83.9470
 20
63.5000
 30
0.0000
 11
84.9630
 21
63.5000
 31
0.0000
  0
LINE
  8
1
 10
84.9630
 20
63.5000
 30
0.0000
 11
85.4710
 21
64.0080
 31
0.0000
  0
LINE
  8
1
 10
85.4710
 20
64.0080
 30
0.0000
 11
85.4710
 21
65.6590
 31
0.0000
  0
LINE
  8
1
 10
85.4710
 20
65.6590
 30
0.0000
 11
86.1060
 21
66.2940
 31
0.0000
  0
LINE
  8
1
 10
86.1060
 20
66.2940
 30
0.0000
 11
96.5200
 21
66.2940
 31
0.0000
  0
LINE
  8
1
 10
96.5200
 20
66.2940
 30
0.0000
 11
98.5520
 21
64.2620
 31
0.0000
  0
LINE
  8
1
 10
98.5520
 20
64.2620
 30
0.0000
 11
98.5520
 21
60.9600
 31
0.0000
  0
LINE
  8
1
 10
98.5520
 20
60.9600
 30
0.0000
 11
93.8530
 21
56.2610
 31
0.0000
  0
LINE
  8
1
 10
93.8530
 20
56.2610
 30
0.0000
 11
90.1700
 21
56.2610
 31
0.0000
  0
LINE
  8
1
 10
90.1700
 20
56.2610
 30
0.0000
 11
82.6770
 21
48.7680
 31
0.0000
  0
LINE
  8
1
 10
82.6770
 20
48.7680
 30
0.0000
 11
82.6770
 21
35.1790
 31
0.0000
  0
LINE
  8
1
 10
82.8040
 20
62.2300
 30
0.0000
 11
82.7786
 21
62.2300
 31
0.0000
  0
LINE
  8
1
 10
82.8040
 20
62.2300
 30
0.0000
 11
82.7405
 21
62.2935
 31
0.0000
  0
LINE
  8
16
 10
85.4710
 20
53.8480
 30
0.0000
 11
85.4710
 21
62.2300
 31
0.0000
  0
LINE
  8
16
 10
81.0260
 20
49.4030
 30
0.0000
 11
85.4710
 21
53.8480
 31
0.0000
  0
LINE
  8
16
 10
81.0260
 20
43.0530
 30
0.0000
 11
81.0260
 21
49.4030
 31
0.0000
  0
LINE
  8
16
 10
77.2160
 20
39.2430
 30
0.0000
 11
81.0260
 21
43.0530
 31
0.0000
  0
LINE
  8
16
 10
77.2160
 20
38.2270
 30
0.0000
 11
77.2160
 21
39.2430
 31
0.0000
  0
LINE
  8
16
 10
75.5650
 20
36.5760
 30
0.0000
 11
77.2160
 21
38.2270
 31
0.0000
  0
LINE
  8
16
 10
74.9300
 20
36.5760
 30
0.0000
 11
75.5650
 21
36.5760
 31
0.0000
  0
LINE
  8
16
 10
85.4710
 20
62.2300
 30
0.0000
 11
85.5218
 21
62.2300
 31
0.0000
  0
LINE
  8
16
 10
74.9300
 20
36.5760
 30
0.0000
 11
74.9300
 21
36.5125
 31
0.0000
  0
LINE
  8
16
 10
88.2650
 20
55.4990
 30
0.0000
 11
88.2650
 21
62.2300
 31
0.0000
  0
LINE
  8
16
 10
81.7880
 20
49.0220
 30
0.0000
 11
88.2650
 21
55.4990
 31
0.0000
  0
LINE
  8
16
 10
81.7880
 20
40.7670
 30
0.0000
 11
81.7880
 21
49.0220
 31
0.0000
  0
LINE
  8
16
 10
80.3910
 20
39.3700
 30
0.0000
 11
81.7880
 21
40.7670
 31
0.0000
  0
LINE
  8
16
 10
80.3910
 20
39.1160
 30
0.0000
 11
80.3910
 21
39.3700
 31
0.0000
  0
LINE
  8
16
 10
88.2650
 20
62.2300
 30
0.0000
 11
88.2904
 21
62.2300
 31
0.0000
  0
LINE
  8
16
 10
80.3910
 20
39.1160
 30
0.0000
 11
80.3275
 21
39.0525
 31
0.0000
  0
LINE
  8
1
 10
91.0590
 20
58.8010
 30
0.0000
 11
91.0590
 21
62.2300
 31
0.0000
  0
LINE
  8
1
 10
75.6920
 20
43.4340
 30
0.0000
 11
91.0590
 21
58.8010
 31
0.0000
  0
LINE
  8
1
 10
74.6760
 20
43.4340
 30
0.0000
 11
75.6920
 21
43.4340
 31
0.0000
  0
LINE
  8
1
 10
74.6760
 20
43.4340
 30
0.0000
 11
74.6125
 21
43.4975
 31
0.0000
  0
LINE
  8
16
 10
93.7260
 20
35.6870
 30
0.0000
 11
93.7260
 21
54.8640
 31
0.0000
  0
LINE
  8
16
 10
93.7260
 20
54.8640
 30
0.0000
 11
96.5200
 21
57.6580
 31
0.0000
  0
LINE
  8
16
 10
96.5200
 20
57.6580
 30
0.0000
 11
96.5200
 21
62.2300
 31
0.0000
  0
LINE
  8
16
 10
77.5970
 20
19.3040
 30
0.0000
 11
79.6290
 21
21.3360
 31
0.0000
  0
LINE
  8
16
 10
79.6290
 20
21.3360
 30
0.0000
 11
81.2800
 21
21.3360
 31
0.0000
  0
LINE
  8
16
 10
81.2800
 20
21.3360
 30
0.0000
 11
93.7260
 21
35.6870
 31
0.0000
  0
LINE
  8
16
 10
77.5970
 20
16.3830
 30
0.0000
 11
77.5970
 21
19.3040
 31
0.0000
  0
LINE
  8
16
 10
69.4690
 20
8.2550
 30
0.0000
 11
77.5970
 21
16.3830
 31
0.0000
  0
LINE
  8
16
 10
96.5200
 20
62.2300
 30
0.0000
 11
96.5708
 21
62.2300
 31
0.0000
  0
LINE
  8
16
 10
69.4690
 20
8.2550
 30
0.0000
 11
69.5325
 21
8.2550
 31
0.0000
  0
LINE
  8
16
 10
63.2460
 20
64.7700
 30
0.0000
 11
64.8208
 21
64.7700
 31
0.0000
  0
LINE
  8
16
 10
60.5790
 20
62.4840
 30
0.0000
 11
63.2460
 21
64.7700
 31
0.0000
  0
LINE
  8
16
 10
60.5790
 20
20.8280
 30
0.0000
 11
60.5790
 21
62.4840
 31
0.0000
  0
LINE
  8
16
 10
69.5960
 20
11.8110
 30
0.0000
 11
60.5790
 21
20.8280
 31
0.0000
  0
LINE
  8
16
 10
69.5960
 20
11.8110
 30
0.0000
 11
69.5325
 21
11.7475
 31
0.0000
  0
LINE
  8
16
 10
67.5640
 20
52.4510
 30
0.0000
 11
67.5640
 21
64.7700
 31
0.0000
  0
LINE
  8
16
 10
61.3410
 20
46.2280
 30
0.0000
 11
67.5640
 21
52.4510
 31
0.0000
  0
LINE
  8
16
 10
61.3410
 20
27.3050
 30
0.0000
 11
61.3410
 21
46.2280
 31
0.0000
  0
LINE
  8
16
 10
69.4690
 20
19.1770
 30
0.0000
 11
61.3410
 21
27.3050
 31
0.0000
  0
LINE
  8
16
 10
69.4690
 20
15.2400
 30
0.0000
 11
69.4690
 21
19.1770
 31
0.0000
  0
LINE
  8
16
 10
67.5640
 20
64.7700
 30
0.0000
 11
67.5894
 21
64.7700
 31
0.0000
  0
LINE
  8
16
 10
69.4690
 20
15.2400
 30
0.0000
 11
69.5325
 21
15.2400
 31
0.0000
  0
LINE
  8
16
 10
70.3580
 20
54.1020
 30
0.0000
 11
70.3580
 21
64.7700
 31
0.0000
  0
LINE
  8
16
 10
68.0720
 20
51.8160
 30
0.0000
 11
70.3580
 21
54.1020
 31
0.0000
  0
LINE
  8
16
 10
68.0720
 20
42.1640
 30
0.0000
 11
68.0720
 21
51.8160
 31
0.0000
  0
LINE
  8
16
 10
62.1030
 20
36.1950
 30
0.0000
 11
68.0720
 21
42.1640
 31
0.0000
  0
LINE
  8
16
 10
62.1030
 20
32.0040
 30
0.0000
 11
62.1030
 21
36.1950
 31
0.0000
  0
LINE
  8
16
 10
75.3110
 20
18.7960
 30
0.0000
 11
62.1030
 21
32.0040
 31
0.0000
  0
LINE
  8
16
 10
75.3110
 20
18.7960
 30
0.0000
 11
75.2475
 21
18.7325
 31
0.0000
  0
LINE
  8
1
 10
71.2470
 20
66.5480
 30
0.0000
 11
73.0250
 21
64.7700
 31
0.0000
  0
LINE
  8
1
 10
64.0080
 20
66.5480
 30
0.0000
 11
71.2470
 21
66.5480
 31
0.0000
  0
LINE
  8
1
 10
59.0550
 20
61.5950
 30
0.0000
 11
64.0080
 21
66.5480
 31
0.0000
  0
LINE
  8
1
 10
59.0550
 20
26.5430
 30
0.0000
 11
59.0550
 21
61.5950
 31
0.0000
  0
LINE
  8
1
 10
64.1350
 20
21.4630
 30
0.0000
 11
59.0550
 21
26.5430
 31
0.0000
  0
LINE
  8
1
 10
64.1350
 20
21.2725
 30
0.0000
 11
64.1350
 21
21.4630
 31
0.0000
  0
LINE
  8
1
 10
73.0250
 20
64.7700
 30
0.0000
 11
73.1012
 21
64.7700
 31
0.0000
  0
LINE
  8
1
 10
75.1840
 20
64.7700
 30
0.0000
 11
75.8698
 21
64.7700
 31
0.0000
  0
LINE
  8
1
 10
73.0250
 20
62.6110
 30
0.0000
 11
75.1840
 21
64.7700
 31
0.0000
  0
LINE
  8
1
 10
73.0250
 20
51.6890
 30
0.0000
 11
73.0250
 21
62.6110
 31
0.0000
  0
LINE
  8
1
 10
67.1830
 20
45.8470
 30
0.0000
 11
73.0250
 21
51.6890
 31
0.0000
  0
LINE
  8
1
 10
67.1830
 20
40.1320
 30
0.0000
 11
67.1830
 21
45.8470
 31
0.0000
  0
LINE
  8
1
 10
66.2940
 20
29.2100
 30
0.0000
 11
66.2940
 21
39.2430
 31
0.0000
  0
LINE
  8
1
 10
66.2940
 20
39.2430
 30
0.0000
 11
67.1830
 21
40.1320
 31
0.0000
  0
LINE
  8
1
 10
69.7230
 20
25.7810
 30
0.0000
 11
66.2940
 21
29.2100
 31
0.0000
  0
LINE
  8
1
 10
74.9300
 20
25.7810
 30
0.0000
 11
69.7230
 21
25.7810
 31
0.0000
  0
LINE
  8
1
 10
74.9300
 20
25.7810
 30
0.0000
 11
74.9300
 21
25.7175
 31
0.0000
  0
LINE
  8
1
 10
77.8510
 20
64.7700
 30
0.0000
 11
78.6384
 21
64.7700
 31
0.0000
  0
LINE
  8
1
 10
75.8190
 20
62.7380
 30
0.0000
 11
77.8510
 21
64.7700
 31
0.0000
  0
LINE
  8
1
 10
77.8510
 20
54.9910
 30
0.0000
 11
77.8510
 21
59.1820
 31
0.0000
  0
LINE
  8
1
 10
77.8510
 20
59.1820
 30
0.0000
 11
75.8190
 21
60.3250
 31
0.0000
  0
LINE
  8
1
 10
75.8190
 20
60.3250
 30
0.0000
 11
75.8190
 21
62.7380
 31
0.0000
  0
LINE
  8
1
 10
68.3260
 20
45.8470
 30
0.0000
 11
77.8510
 21
54.9910
 31
0.0000
  0
LINE
  8
1
 10
68.3260
 20
39.7510
 30
0.0000
 11
68.3260
 21
45.8470
 31
0.0000
  0
LINE
  8
1
 10
67.1830
 20
38.6080
 30
0.0000
 11
68.3260
 21
39.7510
 31
0.0000
  0
LINE
  8
1
 10
67.1830
 20
30.9880
 30
0.0000
 11
67.1830
 21
38.6080
 31
0.0000
  0
LINE
  8
1
 10
69.4690
 20
28.7020
 30
0.0000
 11
67.1830
 21
30.9880
 31
0.0000
  0
LINE
  8
1
 10
69.4690
 20
29.2100
 30
0.0000
 11
69.4690
 21
28.7020
 31
0.0000
  0
LINE
  8
1
 10
69.4690
 20
29.2100
 30
0.0000
 11
69.5325
 21
29.2100
 31
0.0000
  0
LINE
  8
1
 10
81.4070
 20
56.5150
 30
0.0000
 11
81.4070
 21
64.7700
 31
0.0000
  0
LINE
  8
1
 10
70.9930
 20
46.1010
 30
0.0000
 11
81.4070
 21
56.5150
 31
0.0000
  0
LINE
  8
1
 10
70.9930
 20
35.0520
 30
0.0000
 11
70.9930
 21
46.1010
 31
0.0000
  0
LINE
  8
1
 10
69.5960
 20
33.6550
 30
0.0000
 11
70.9930
 21
35.0520
 31
0.0000
  0
LINE
  8
1
 10
69.5960
 20
33.4010
 30
0.0000
 11
69.5960
 21
33.6550
 31
0.0000
  0
LINE
  8
1
 10
81.4070
 20
64.7700
 30
0.0000
 11
81.3816
 21
64.7700
 31
0.0000
  0
LINE
  8
1
 10
69.5960
 20
33.4010
 30
0.0000
 11
69.5325
 21
33.3375
 31
0.0000
  0
LINE
  8
16
 10
83.1850
 20
64.7700
 30
0.0000
 11
84.1502
 21
64.7700
 31
0.0000
  0
LINE
  8
16
 10
81.9150
 20
63.5000
 30
0.0000
 11
83.1850
 21
64.7700
 31
0.0000
  0
LINE
  8
16
 10
80.6450
 20
63.5000
 30
0.0000
 11
81.9150
 21
63.5000
 31
0.0000
  0
LINE
  8
16
 10
80.5180
 20
63.6270
 30
0.0000
 11
80.6450
 21
63.5000
 31
0.0000
  0
LINE
  8
16
 10
79.5020
 20
63.6270
 30
0.0000
 11
80.5180
 21
63.6270
 31
0.0000
  0
LINE
  8
16
 10
78.6130
 20
62.7380
 30
0.0000
 11
79.5020
 21
63.6270
 31
0.0000
  0
LINE
  8
16
 10
78.6130
 20
59.8170
 30
0.0000
 11
78.6130
 21
62.7380
 31
0.0000
  0
LINE
  8
16
 10
70.9930
 20
52.3240
 30
0.0000
 11
72.3900
 21
53.7210
 31
0.0000
  0
LINE
  8
16
 10
72.3900
 20
53.7210
 30
0.0000
 11
72.3900
 21
58.8010
 31
0.0000
  0
LINE
  8
16
 10
72.3900
 20
58.8010
 30
0.0000
 11
78.6130
 21
59.8170
 31
0.0000
  0
LINE
  8
16
 10
70.8660
 20
43.9420
 30
0.0000
 11
70.9930
 21
52.3240
 31
0.0000
  0
LINE
  8
16
 10
64.3890
 20
35.3060
 30
0.0000
 11
65.2780
 21
36.4490
 31
0.0000
  0
LINE
  8
16
 10
65.2780
 20
36.4490
 30
0.0000
 11
68.7070
 21
39.8780
 31
0.0000
  0
LINE
  8
16
 10
68.7070
 20
39.8780
 30
0.0000
 11
68.7070
 21
40.7670
 31
0.0000
  0
LINE
  8
16
 10
68.7070
 20
40.7670
 30
0.0000
 11
70.8660
 21
42.9260
 31
0.0000
  0
LINE
  8
16
 10
70.8660
 20
42.9260
 30
0.0000
 11
70.8660
 21
43.9420
 31
0.0000
  0
LINE
  8
16
 10
64.3890
 20
35.3060
 30
0.0000
 11
64.4525
 21
35.2425
 31
0.0000
  0
LINE
  8
1
 10
86.8680
 20
60.8330
 30
0.0000
 11
86.8680
 21
64.7700
 31
0.0000
  0
LINE
  8
1
 10
72.2630
 20
46.2280
 30
0.0000
 11
86.8680
 21
60.8330
 31
0.0000
  0
LINE
  8
1
 10
72.2630
 20
41.9100
 30
0.0000
 11
72.2630
 21
46.2280
 31
0.0000
  0
LINE
  8
1
 10
74.9300
 20
39.2430
 30
0.0000
 11
72.2630
 21
41.9100
 31
0.0000
  0
LINE
  8
1
 10
86.8680
 20
64.7700
 30
0.0000
 11
86.9188
 21
64.7700
 31
0.0000
  0
LINE
  8
1
 10
74.9300
 20
39.2430
 30
0.0000
 11
74.8665
 21
39.1795
 31
0.0000
  0
LINE
  8
16
 10
89.6620
 20
55.7530
 30
0.0000
 11
89.6620
 21
64.7700
 31
0.0000
  0
LINE
  8
16
 10
82.6770
 20
48.7680
 30
0.0000
 11
89.6620
 21
55.7530
 31
0.0000
  0
LINE
  8
16
 10
82.6770
 20
38.1000
 30
0.0000
 11
82.6770
 21
48.7680
 31
0.0000
  0
LINE
  8
16
 10
78.4860
 20
33.9090
 30
0.0000
 11
82.6770
 21
38.1000
 31
0.0000
  0
LINE
  8
16
 10
75.3110
 20
33.9090
 30
0.0000
 11
78.4860
 21
33.9090
 31
0.0000
  0
LINE
  8
16
 10
75.1840
 20
33.7820
 30
0.0000
 11
75.3110
 21
33.9090
 31
0.0000
  0
LINE
  8
1
 10
91.6940
 20
64.7700
 30
0.0000
 11
92.4306
 21
64.7700
 31
0.0000
  0
LINE
  8
1
 10
89.6620
 20
62.7380
 30
0.0000
 11
91.6940
 21
64.7700
 31
0.0000
  0
LINE
  8
1
 10
89.6620
 20
61.2140
 30
0.0000
 11
89.6620
 21
62.7380
 31
0.0000
  0
LINE
  8
1
 10
75.6920
 20
47.2440
 30
0.0000
 11
89.6620
 21
61.2140
 31
0.0000
  0
LINE
  8
1
 10
75.6920
 20
46.7360
 30
0.0000
 11
75.6920
 21
47.2440
 31
0.0000
  0
ENDSEC
  0
EOF
