  0
SECTION
  2
HEADER
  9
$ACADVER
  1
AC1009
  9
$FILLMODE
 70
0
  9
$EXTMIN
 10
-0.4572
 20
-0.3720
 30
0.0000
  9
$EXTMAX
 10
163.6275
 20
55.5660
 30
0.0000
  0
ENDSEC
  0
SECTION
  2
TABLES
  0
TABLE
  2
LTYPE
 70
1
  0
LTYPE
  2
CONTINUOUS
 70
64
  3
Solid line
 72
65
 73
0
 40
0
  0
ENDTAB
  0
TABLE
  2
LAYER
 70
255
  0
LAYER
  2
17
 70
64
 62
94
  6
CONTINUOUS
  0
LAYER
  2
18
 70
64
 62
94
  6
CONTINUOUS
  0
LAYER
  2
20
 70
64
 62
178
  6
CONTINUOUS
  0
LAYER
  2
44
 70
64
 62
251
  6
CONTINUOUS
  0
LAYER
  2
45
 70
64
 62
251
  6
CONTINUOUS
  0
ENDTAB
  0
ENDSEC
  0
SECTION
  2
BLOCKS
  0
BLOCK
  8
0
  2
RECT
 70
64
 10
0.0000
 20
0.0000
 30
0.0000
  3
RECT
  0
SOLID
  8
0
 10
-0.5000
 20
-0.5000
 30
0.0000
 11
0.5000
 21
-0.5000
 31
0.0000
 12
-0.5000
 22
0.5000
 32
0.0000
 13
0.5000
 23
0.5000
 33
0.0000
  0
ENDBLK
  8
0
  0
BLOCK
  8
0
  2
PIE
 70
64
 10
0.0000
 20
0.0000
 30
0.0000
  3
PIE
  0
CIRCLE
  8
0
 10
0.0000
 20
0.0000
 30
0.0000
 40
0.5000
  0
ENDBLK
  8
0
  0
BLOCK
  8
0
  2
OCTAGONP
 70
64
 10
0.0000
 20
0.0000
 30
0.0000
  3
OCTAGONP
  0
POLYLINE
  8
0
 66
1
 10
0.0000
 20
0.0000
 30
0.0000
 40
0.0000
 41
0.0000
 70
1
  0
VERTEX
  8
0
 10
-0.5000
 20
-0.2071
 30
0.0000
  0
VERTEX
  8
0
 10
-0.5000
 20
0.2071
 30
0.0000
  0
VERTEX
  8
0
 10
-0.2071
 20
0.5000
 30
0.0000
  0
VERTEX
  8
0
 10
0.2071
 20
0.5000
 30
0.0000
  0
VERTEX
  8
0
 10
0.5000
 20
0.2071
 30
0.0000
  0
VERTEX
  8
0
 10
0.5000
 20
-0.2071
 30
0.0000
  0
VERTEX
  8
0
 10
0.2071
 20
-0.5000
 30
0.0000
  0
VERTEX
  8
0
 10
-0.2071
 20
-0.5000
 30
0.0000
  0
SEQEND
  8
0
  0
ENDBLK
  8
0
  0
BLOCK
  8
0
  2
SQUAREP
 70
64
 10
0.0000
 20
0.0000
 30
0.0000
  3
SQUAREP
  0
SOLID
  8
0
 10
-0.5000
 20
-0.5000
 30
0.0000
 11
0.5000
 21
-0.5000
 31
0.0000
 12
-0.5000
 22
0.5000
 32
0.0000
 13
0.5000
 23
0.5000
 33
0.0000
  0
ENDBLK
  8
0
  0
BLOCK
  8
0
  2
ROUNDP
 70
64
 10
0.0000
 20
0.0000
 30
0.0000
  3
ROUNDP
  0
CIRCLE
  8
0
 10
0.0000
 20
0.0000
 30
0.0000
 40
0.5000
  0
ENDBLK
  8
0
  0
BLOCK
  8
0
  2
ANNULUSP
 70
64
 10
0.0000
 20
0.0000
 30
0.0000
  3
ANNULUSP
  0
CIRCLE
  8
0
 10
0.0000
 20
0.0000
 30
0.0000
 40
0.5000
  0
ENDBLK
  8
0
  0
BLOCK
  8
0
  2
THERMALP
 70
64
 10
0.0000
 20
0.0000
 30
0.0000
  3
THERMALP
  0
POLYLINE
  8
0
 66
1
 10
0.0000
 20
0.0000
 30
0.0000
 40
0.0000
 41
0.0000
 70
1
  0
VERTEX
  8
0
 10
-0.2379
 20
0.4000
 30
0.0000
  0
VERTEX
  8
0
 10
0.2379
 20
0.4000
 30
0.0000
 42
1.0000
  0
VERTEX
  8
0
 10
0.2379
 20
0.5000
 30
0.0000
  0
VERTEX
  8
0
 10
-0.2379
 20
0.5000
 30
0.0000
 42
1.0000
  0
SEQEND
  8
0
  0
POLYLINE
  8
0
 66
1
 10
0.0000
 20
0.0000
 30
0.0000
 40
0.0000
 41
0.0000
 70
1
  0
VERTEX
  8
0
 10
0.4000
 20
0.2379
 30
0.0000
  0
VERTEX
  8
0
 10
0.4000
 20
-0.2379
 30
0.0000
 42
1.0000
  0
VERTEX
  8
0
 10
0.5000
 20
-0.2379
 30
0.0000
  0
VERTEX
  8
0
 10
0.5000
 20
0.2379
 30
0.0000
 42
1.0000
  0
SEQEND
  8
0
  0
POLYLINE
  8
0
 66
1
 10
0.0000
 20
0.0000
 30
0.0000
 40
0.0000
 41
0.0000
 70
1
  0
VERTEX
  8
0
 10
0.2379
 20
-0.4000
 30
0.0000
  0
VERTEX
  8
0
 10
-0.2379
 20
-0.4000
 30
0.0000
 42
1.0000
  0
VERTEX
  8
0
 10
-0.2379
 20
-0.5000
 30
0.0000
  0
VERTEX
  8
0
 10
0.2379
 20
-0.5000
 30
0.0000
 42
1.0000
  0
SEQEND
  8
0
  0
POLYLINE
  8
0
 66
1
 10
0.0000
 20
0.0000
 30
0.0000
 40
0.0000
 41
0.0000
 70
1
  0
VERTEX
  8
0
 10
-0.4000
 20
-0.2379
 30
0.0000
  0
VERTEX
  8
0
 10
-0.4000
 20
0.2379
 30
0.0000
 42
1.0000
  0
VERTEX
  8
0
 10
-0.5000
 20
0.2379
 30
0.0000
  0
VERTEX
  8
0
 10
-0.5000
 20
-0.2379
 30
0.0000
 42
1.0000
  0
SEQEND
  8
0
  0
ENDBLK
  8
0
  0
BLOCK
  8
0
  2
OCTAGONV
 70
64
 10
0.0000
 20
0.0000
 30
0.0000
  3
OCTAGONV
  0
POLYLINE
  8
0
 66
1
 10
0.0000
 20
0.0000
 30
0.0000
 40
0.0000
 41
0.0000
 70
1
  0
VERTEX
  8
0
 10
-0.5000
 20
-0.2071
 30
0.0000
  0
VERTEX
  8
0
 10
-0.5000
 20
0.2071
 30
0.0000
  0
VERTEX
  8
0
 10
-0.2071
 20
0.5000
 30
0.0000
  0
VERTEX
  8
0
 10
0.2071
 20
0.5000
 30
0.0000
  0
VERTEX
  8
0
 10
0.5000
 20
0.2071
 30
0.0000
  0
VERTEX
  8
0
 10
0.5000
 20
-0.2071
 30
0.0000
  0
VERTEX
  8
0
 10
0.2071
 20
-0.5000
 30
0.0000
  0
VERTEX
  8
0
 10
-0.2071
 20
-0.5000
 30
0.0000
  0
SEQEND
  8
0
  0
ENDBLK
  8
0
  0
BLOCK
  8
0
  2
SQUAREV
 70
64
 10
0.0000
 20
0.0000
 30
0.0000
  3
SQUAREV
  0
SOLID
  8
0
 10
-0.5000
 20
-0.5000
 30
0.0000
 11
0.5000
 21
-0.5000
 31
0.0000
 12
-0.5000
 22
0.5000
 32
0.0000
 13
0.5000
 23
0.5000
 33
0.0000
  0
ENDBLK
  8
0
  0
BLOCK
  8
0
  2
ROUNDV
 70
64
 10
0.0000
 20
0.0000
 30
0.0000
  3
ROUNDV
  0
CIRCLE
  8
0
 10
0.0000
 20
0.0000
 30
0.0000
 40
0.5000
  0
ENDBLK
  8
0
  0
BLOCK
  8
0
  2
ANNULUSV
 70
64
 10
0.0000
 20
0.0000
 30
0.0000
  3
ANNULUSV
  0
CIRCLE
  8
0
 10
0.0000
 20
0.0000
 30
0.0000
 40
0.5000
  0
ENDBLK
  8
0
  0
BLOCK
  8
0
  2
THERMALV
 70
64
 10
0.0000
 20
0.0000
 30
0.0000
  3
THERMALV
  0
POLYLINE
  8
0
 66
1
 10
0.0000
 20
0.0000
 30
0.0000
 40
0.0000
 41
0.0000
 70
1
  0
VERTEX
  8
0
 10
-0.2379
 20
0.4000
 30
0.0000
  0
VERTEX
  8
0
 10
0.2379
 20
0.4000
 30
0.0000
 42
1.0000
  0
VERTEX
  8
0
 10
0.2379
 20
0.5000
 30
0.0000
  0
VERTEX
  8
0
 10
-0.2379
 20
0.5000
 30
0.0000
 42
1.0000
  0
SEQEND
  8
0
  0
POLYLINE
  8
0
 66
1
 10
0.0000
 20
0.0000
 30
0.0000
 40
0.0000
 41
0.0000
 70
1
  0
VERTEX
  8
0
 10
0.4000
 20
0.2379
 30
0.0000
  0
VERTEX
  8
0
 10
0.4000
 20
-0.2379
 30
0.0000
 42
1.0000
  0
VERTEX
  8
0
 10
0.5000
 20
-0.2379
 30
0.0000
  0
VERTEX
  8
0
 10
0.5000
 20
0.2379
 30
0.0000
 42
1.0000
  0
SEQEND
  8
0
  0
POLYLINE
  8
0
 66
1
 10
0.0000
 20
0.0000
 30
0.0000
 40
0.0000
 41
0.0000
 70
1
  0
VERTEX
  8
0
 10
0.2379
 20
-0.4000
 30
0.0000
  0
VERTEX
  8
0
 10
-0.2379
 20
-0.4000
 30
0.0000
 42
1.0000
  0
VERTEX
  8
0
 10
-0.2379
 20
-0.5000
 30
0.0000
  0
VERTEX
  8
0
 10
0.2379
 20
-0.5000
 30
0.0000
 42
1.0000
  0
SEQEND
  8
0
  0
POLYLINE
  8
0
 66
1
 10
0.0000
 20
0.0000
 30
0.0000
 40
0.0000
 41
0.0000
 70
1
  0
VERTEX
  8
0
 10
-0.4000
 20
-0.2379
 30
0.0000
  0
VERTEX
  8
0
 10
-0.4000
 20
0.2379
 30
0.0000
 42
1.0000
  0
VERTEX
  8
0
 10
-0.5000
 20
0.2379
 30
0.0000
  0
VERTEX
  8
0
 10
-0.5000
 20
-0.2379
 30
0.0000
 42
1.0000
  0
SEQEND
  8
0
  0
ENDBLK
  8
0
  0
BLOCK
  8
0
  2
LONGP100
 70
64
 10
0.0000
 20
0.0000
 30
0.0000
  3
LONGP100
  0
POLYLINE
  8
0
 66
1
 10
0.0000
 20
0.0000
 30
0.0000
 40
0.0000
 41
0.0000
 70
1
  0
VERTEX
  8
0
 10
-0.5000
 20
-0.5000
 30
0.0000
  0
VERTEX
  8
0
 10
0.5000
 20
-0.5000
 30
0.0000
 42
1.0000
  0
VERTEX
  8
0
 10
0.5000
 20
0.5000
 30
0.0000
  0
VERTEX
  8
0
 10
-0.5000
 20
0.5000
 30
0.0000
 42
1.0000
  0
SEQEND
  8
0
  0
ENDBLK
  8
0
  0
ENDSEC
  0
SECTION
  2
ENTITIES
  0
LINE
  8
20
 10
0.0000
 20
0.0000
 30
0.0000
 11
96.0000
 21
0.0000
 31
0.0000
  0
LINE
  8
20
 10
96.0000
 20
55.0000
 30
0.0000
 11
0.0000
 21
55.0000
 31
0.0000
  0
LINE
  8
20
 10
0.0000
 20
55.0000
 30
0.0000
 11
0.0000
 21
0.0000
 31
0.0000
  0
LINE
  8
20
 10
96.0000
 20
55.0000
 30
0.0000
 11
163.4250
 21
55.0000
 31
0.0000
  0
LINE
  8
20
 10
163.4250
 20
0.0000
 30
0.0000
 11
96.0000
 21
0.0000
 31
0.0000
  0
LINE
  8
20
 10
163.4250
 20
55.0000
 30
0.0000
 11
163.4250
 21
0.0000
 31
0.0000
  0
CIRCLE
  8
20
 10
28.6350
 20
27.5000
 30
0.0000
 40
2.9000
  0
CIRCLE
  8
20
 10
11.5000
 20
52.5000
 30
0.0000
 40
0.9525
  0
CIRCLE
  8
20
 10
62.5000
 20
52.5000
 30
0.0000
 40
0.9525
  0
CIRCLE
  8
20
 10
11.5000
 20
2.5000
 30
0.0000
 40
0.9525
  0
CIRCLE
  8
20
 10
62.5000
 20
2.5000
 30
0.0000
 40
0.9525
  0
CIRCLE
  8
20
 10
0.9525
 20
50.4825
 30
0.0000
 40
0.5080
  0
CIRCLE
  8
20
 10
2.5400
 20
50.8000
 30
0.0000
 40
0.5080
  0
CIRCLE
  8
20
 10
3.8100
 20
51.4350
 30
0.0000
 40
0.5080
  0
CIRCLE
  8
20
 10
4.4450
 20
52.7050
 30
0.0000
 40
0.5080
  0
CIRCLE
  8
20
 10
4.4450
 20
53.9750
 30
0.0000
 40
0.5080
  0
CIRCLE
  8
20
 10
94.9325
 20
4.9530
 30
0.0000
 40
0.5080
  0
CIRCLE
  8
20
 10
93.6625
 20
4.7625
 30
0.0000
 40
0.5080
  0
CIRCLE
  8
20
 10
92.3925
 20
4.4450
 30
0.0000
 40
0.5080
  0
CIRCLE
  8
20
 10
91.4400
 20
3.4925
 30
0.0000
 40
0.5080
  0
CIRCLE
  8
20
 10
91.1225
 20
2.2225
 30
0.0000
 40
0.5080
  0
CIRCLE
  8
20
 10
91.1225
 20
0.9525
 30
0.0000
 40
0.5080
  0
CIRCLE
  8
20
 10
90.3000
 20
52.5000
 30
0.0000
 40
0.9525
  0
CIRCLE
  8
20
 10
94.5000
 20
7.1000
 30
0.0000
 40
0.9525
  0
CIRCLE
  8
20
 10
129.9250
 20
2.5000
 30
0.0000
 40
0.9525
  0
CIRCLE
  8
20
 10
129.9250
 20
52.5000
 30
0.0000
 40
0.9525
  0
CIRCLE
  8
20
 10
157.7250
 20
2.5000
 30
0.0000
 40
0.9525
  0
CIRCLE
  8
20
 10
161.9250
 20
47.9000
 30
0.0000
 40
0.9525
  0
INSERT
  8
17
  2
LONGP100
 10
77.5600
 20
8.2500
 30
0.0000
 41
1.5240
 42
1.5240
 43
1.0000
 50
180.0000
  0
INSERT
  8
17
  2
LONGP100
 10
77.5600
 20
8.2500
 30
0.0000
 41
1.5240
 42
1.5240
 43
1.0000
 50
180.0000
  0
CIRCLE
  8
44
 10
77.5600
 20
8.2500
 30
0.0000
 40
0.5588
  0
INSERT
  8
17
  2
LONGP100
 10
83.0600
 20
11.7500
 30
0.0000
 41
1.5240
 42
1.5240
 43
1.0000
 50
180.0000
  0
INSERT
  8
17
  2
LONGP100
 10
83.0600
 20
11.7500
 30
0.0000
 41
1.5240
 42
1.5240
 43
1.0000
 50
180.0000
  0
CIRCLE
  8
44
 10
83.0600
 20
11.7500
 30
0.0000
 40
0.5588
  0
INSERT
  8
17
  2
LONGP100
 10
77.5600
 20
15.2500
 30
0.0000
 41
1.5240
 42
1.5240
 43
1.0000
 50
180.0000
  0
INSERT
  8
17
  2
LONGP100
 10
77.5600
 20
15.2500
 30
0.0000
 41
1.5240
 42
1.5240
 43
1.0000
 50
180.0000
  0
CIRCLE
  8
44
 10
77.5600
 20
15.2500
 30
0.0000
 40
0.5588
  0
INSERT
  8
17
  2
LONGP100
 10
83.0600
 20
18.7500
 30
0.0000
 41
1.5240
 42
1.5240
 43
1.0000
 50
180.0000
  0
INSERT
  8
17
  2
LONGP100
 10
83.0600
 20
18.7500
 30
0.0000
 41
1.5240
 42
1.5240
 43
1.0000
 50
180.0000
  0
CIRCLE
  8
44
 10
83.0600
 20
18.7500
 30
0.0000
 40
0.5588
  0
INSERT
  8
17
  2
LONGP100
 10
77.5600
 20
22.2500
 30
0.0000
 41
1.5240
 42
1.5240
 43
1.0000
 50
180.0000
  0
INSERT
  8
17
  2
LONGP100
 10
77.5600
 20
22.2500
 30
0.0000
 41
1.5240
 42
1.5240
 43
1.0000
 50
180.0000
  0
CIRCLE
  8
44
 10
77.5600
 20
22.2500
 30
0.0000
 40
0.5588
  0
INSERT
  8
17
  2
LONGP100
 10
83.0600
 20
25.7500
 30
0.0000
 41
1.5240
 42
1.5240
 43
1.0000
 50
180.0000
  0
INSERT
  8
17
  2
LONGP100
 10
83.0600
 20
25.7500
 30
0.0000
 41
1.5240
 42
1.5240
 43
1.0000
 50
180.0000
  0
CIRCLE
  8
44
 10
83.0600
 20
25.7500
 30
0.0000
 40
0.5588
  0
INSERT
  8
17
  2
LONGP100
 10
77.5600
 20
29.2500
 30
0.0000
 41
1.5240
 42
1.5240
 43
1.0000
 50
180.0000
  0
INSERT
  8
17
  2
LONGP100
 10
77.5600
 20
29.2500
 30
0.0000
 41
1.5240
 42
1.5240
 43
1.0000
 50
180.0000
  0
CIRCLE
  8
44
 10
77.5600
 20
29.2500
 30
0.0000
 40
0.5588
  0
INSERT
  8
17
  2
LONGP100
 10
83.0600
 20
32.7500
 30
0.0000
 41
1.5240
 42
1.5240
 43
1.0000
 50
180.0000
  0
INSERT
  8
17
  2
LONGP100
 10
83.0600
 20
32.7500
 30
0.0000
 41
1.5240
 42
1.5240
 43
1.0000
 50
180.0000
  0
CIRCLE
  8
44
 10
83.0600
 20
32.7500
 30
0.0000
 40
0.5588
  0
INSERT
  8
17
  2
LONGP100
 10
77.5600
 20
36.2500
 30
0.0000
 41
1.5240
 42
1.5240
 43
1.0000
 50
180.0000
  0
INSERT
  8
17
  2
LONGP100
 10
77.5600
 20
36.2500
 30
0.0000
 41
1.5240
 42
1.5240
 43
1.0000
 50
180.0000
  0
CIRCLE
  8
44
 10
77.5600
 20
36.2500
 30
0.0000
 40
0.5588
  0
INSERT
  8
17
  2
LONGP100
 10
83.0600
 20
39.7500
 30
0.0000
 41
1.5240
 42
1.5240
 43
1.0000
 50
180.0000
  0
INSERT
  8
17
  2
LONGP100
 10
83.0600
 20
39.7500
 30
0.0000
 41
1.5240
 42
1.5240
 43
1.0000
 50
180.0000
  0
CIRCLE
  8
44
 10
83.0600
 20
39.7500
 30
0.0000
 40
0.5588
  0
INSERT
  8
17
  2
LONGP100
 10
77.5600
 20
43.2500
 30
0.0000
 41
1.5240
 42
1.5240
 43
1.0000
 50
180.0000
  0
INSERT
  8
17
  2
LONGP100
 10
77.5600
 20
43.2500
 30
0.0000
 41
1.5240
 42
1.5240
 43
1.0000
 50
180.0000
  0
CIRCLE
  8
44
 10
77.5600
 20
43.2500
 30
0.0000
 40
0.5588
  0
INSERT
  8
17
  2
LONGP100
 10
83.0600
 20
46.7500
 30
0.0000
 41
1.5240
 42
1.5240
 43
1.0000
 50
180.0000
  0
INSERT
  8
17
  2
LONGP100
 10
83.0600
 20
46.7500
 30
0.0000
 41
1.5240
 42
1.5240
 43
1.0000
 50
180.0000
  0
CIRCLE
  8
44
 10
83.0600
 20
46.7500
 30
0.0000
 40
0.5588
  0
INSERT
  8
17
  2
LONGP100
 10
66.7650
 20
8.2500
 30
0.0000
 41
1.5240
 42
1.5240
 43
1.0000
 50
180.0000
  0
INSERT
  8
17
  2
LONGP100
 10
66.7650
 20
8.2500
 30
0.0000
 41
1.5240
 42
1.5240
 43
1.0000
 50
180.0000
  0
CIRCLE
  8
44
 10
66.7650
 20
8.2500
 30
0.0000
 40
0.5588
  0
INSERT
  8
17
  2
LONGP100
 10
72.2650
 20
11.7500
 30
0.0000
 41
1.5240
 42
1.5240
 43
1.0000
 50
180.0000
  0
INSERT
  8
17
  2
LONGP100
 10
72.2650
 20
11.7500
 30
0.0000
 41
1.5240
 42
1.5240
 43
1.0000
 50
180.0000
  0
CIRCLE
  8
44
 10
72.2650
 20
11.7500
 30
0.0000
 40
0.5588
  0
INSERT
  8
17
  2
LONGP100
 10
66.7650
 20
15.2500
 30
0.0000
 41
1.5240
 42
1.5240
 43
1.0000
 50
180.0000
  0
INSERT
  8
17
  2
LONGP100
 10
66.7650
 20
15.2500
 30
0.0000
 41
1.5240
 42
1.5240
 43
1.0000
 50
180.0000
  0
CIRCLE
  8
44
 10
66.7650
 20
15.2500
 30
0.0000
 40
0.5588
  0
INSERT
  8
17
  2
LONGP100
 10
72.2650
 20
18.7500
 30
0.0000
 41
1.5240
 42
1.5240
 43
1.0000
 50
180.0000
  0
INSERT
  8
17
  2
LONGP100
 10
72.2650
 20
18.7500
 30
0.0000
 41
1.5240
 42
1.5240
 43
1.0000
 50
180.0000
  0
CIRCLE
  8
44
 10
72.2650
 20
18.7500
 30
0.0000
 40
0.5588
  0
INSERT
  8
17
  2
LONGP100
 10
66.7650
 20
22.2500
 30
0.0000
 41
1.5240
 42
1.5240
 43
1.0000
 50
180.0000
  0
INSERT
  8
17
  2
LONGP100
 10
66.7650
 20
22.2500
 30
0.0000
 41
1.5240
 42
1.5240
 43
1.0000
 50
180.0000
  0
CIRCLE
  8
44
 10
66.7650
 20
22.2500
 30
0.0000
 40
0.5588
  0
INSERT
  8
17
  2
LONGP100
 10
72.2650
 20
25.7500
 30
0.0000
 41
1.5240
 42
1.5240
 43
1.0000
 50
180.0000
  0
INSERT
  8
17
  2
LONGP100
 10
72.2650
 20
25.7500
 30
0.0000
 41
1.5240
 42
1.5240
 43
1.0000
 50
180.0000
  0
CIRCLE
  8
44
 10
72.2650
 20
25.7500
 30
0.0000
 40
0.5588
  0
INSERT
  8
17
  2
LONGP100
 10
66.7650
 20
29.2500
 30
0.0000
 41
1.5240
 42
1.5240
 43
1.0000
 50
180.0000
  0
INSERT
  8
17
  2
LONGP100
 10
66.7650
 20
29.2500
 30
0.0000
 41
1.5240
 42
1.5240
 43
1.0000
 50
180.0000
  0
CIRCLE
  8
44
 10
66.7650
 20
29.2500
 30
0.0000
 40
0.5588
  0
INSERT
  8
17
  2
LONGP100
 10
72.2650
 20
32.7500
 30
0.0000
 41
1.5240
 42
1.5240
 43
1.0000
 50
180.0000
  0
INSERT
  8
17
  2
LONGP100
 10
72.2650
 20
32.7500
 30
0.0000
 41
1.5240
 42
1.5240
 43
1.0000
 50
180.0000
  0
CIRCLE
  8
44
 10
72.2650
 20
32.7500
 30
0.0000
 40
0.5588
  0
INSERT
  8
17
  2
LONGP100
 10
66.7650
 20
36.2500
 30
0.0000
 41
1.5240
 42
1.5240
 43
1.0000
 50
180.0000
  0
INSERT
  8
17
  2
LONGP100
 10
66.7650
 20
36.2500
 30
0.0000
 41
1.5240
 42
1.5240
 43
1.0000
 50
180.0000
  0
CIRCLE
  8
44
 10
66.7650
 20
36.2500
 30
0.0000
 40
0.5588
  0
INSERT
  8
17
  2
LONGP100
 10
72.2650
 20
39.7500
 30
0.0000
 41
1.5240
 42
1.5240
 43
1.0000
 50
180.0000
  0
INSERT
  8
17
  2
LONGP100
 10
72.2650
 20
39.7500
 30
0.0000
 41
1.5240
 42
1.5240
 43
1.0000
 50
180.0000
  0
CIRCLE
  8
44
 10
72.2650
 20
39.7500
 30
0.0000
 40
0.5588
  0
INSERT
  8
17
  2
LONGP100
 10
66.7650
 20
43.2500
 30
0.0000
 41
1.5240
 42
1.5240
 43
1.0000
 50
180.0000
  0
INSERT
  8
17
  2
LONGP100
 10
66.7650
 20
43.2500
 30
0.0000
 41
1.5240
 42
1.5240
 43
1.0000
 50
180.0000
  0
CIRCLE
  8
44
 10
66.7650
 20
43.2500
 30
0.0000
 40
0.5588
  0
INSERT
  8
17
  2
LONGP100
 10
72.2650
 20
46.7500
 30
0.0000
 41
1.5240
 42
1.5240
 43
1.0000
 50
180.0000
  0
INSERT
  8
17
  2
LONGP100
 10
72.2650
 20
46.7500
 30
0.0000
 41
1.5240
 42
1.5240
 43
1.0000
 50
180.0000
  0
CIRCLE
  8
44
 10
72.2650
 20
46.7500
 30
0.0000
 40
0.5588
  0
INSERT
  8
17
  2
ROUNDP
 10
101.7150
 20
49.6025
 30
0.0000
 41
1.9304
 42
1.9304
 43
1.0000
 50
180.0000
  0
INSERT
  8
17
  2
ROUNDP
 10
101.7150
 20
49.6025
 30
0.0000
 41
1.9304
 42
1.9304
 43
1.0000
 50
180.0000
  0
CIRCLE
  8
44
 10
101.7150
 20
49.6025
 30
0.0000
 40
0.7620
  0
INSERT
  8
17
  2
ROUNDP
 10
101.7150
 20
47.0625
 30
0.0000
 41
1.9304
 42
1.9304
 43
1.0000
 50
180.0000
  0
INSERT
  8
17
  2
ROUNDP
 10
101.7150
 20
47.0625
 30
0.0000
 41
1.9304
 42
1.9304
 43
1.0000
 50
180.0000
  0
CIRCLE
  8
44
 10
101.7150
 20
47.0625
 30
0.0000
 40
0.7620
  0
INSERT
  8
17
  2
OCTAGONP
 10
136.2590
 20
12.9630
 30
0.0000
 41
1.2192
 42
1.2192
 43
1.0000
 50
0.0000
  0
INSERT
  8
17
  2
OCTAGONP
 10
136.2590
 20
12.9630
 30
0.0000
 41
1.2192
 42
1.2192
 43
1.0000
 50
0.0000
  0
CIRCLE
  8
44
 10
136.2590
 20
12.9630
 30
0.0000
 40
0.4064
  0
INSERT
  8
17
  2
OCTAGONP
 10
138.7990
 20
12.9630
 30
0.0000
 41
1.2192
 42
1.2192
 43
1.0000
 50
0.0000
  0
INSERT
  8
17
  2
OCTAGONP
 10
138.7990
 20
12.9630
 30
0.0000
 41
1.2192
 42
1.2192
 43
1.0000
 50
0.0000
  0
CIRCLE
  8
44
 10
138.7990
 20
12.9630
 30
0.0000
 40
0.4064
  0
INSERT
  8
17
  2
OCTAGONP
 10
152.7690
 20
12.4550
 30
0.0000
 41
1.2192
 42
1.2192
 43
1.0000
 50
0.0000
  0
INSERT
  8
17
  2
OCTAGONP
 10
152.7690
 20
12.4550
 30
0.0000
 41
1.2192
 42
1.2192
 43
1.0000
 50
0.0000
  0
CIRCLE
  8
44
 10
152.7690
 20
12.4550
 30
0.0000
 40
0.4064
  0
INSERT
  8
17
  2
OCTAGONP
 10
155.3090
 20
12.4550
 30
0.0000
 41
1.2192
 42
1.2192
 43
1.0000
 50
0.0000
  0
INSERT
  8
17
  2
OCTAGONP
 10
155.3090
 20
12.4550
 30
0.0000
 41
1.2192
 42
1.2192
 43
1.0000
 50
0.0000
  0
CIRCLE
  8
44
 10
155.3090
 20
12.4550
 30
0.0000
 40
0.4064
  0
INSERT
  8
17
  2
ROUNDP
 10
102.9850
 20
16.2650
 30
0.0000
 41
1.9304
 42
1.9304
 43
1.0000
 50
90.0000
  0
INSERT
  8
17
  2
ROUNDP
 10
102.9850
 20
16.2650
 30
0.0000
 41
1.9304
 42
1.9304
 43
1.0000
 50
90.0000
  0
CIRCLE
  8
44
 10
102.9850
 20
16.2650
 30
0.0000
 40
0.7620
  0
INSERT
  8
17
  2
ROUNDP
 10
133.4650
 20
2.6125
 30
0.0000
 41
1.9304
 42
1.9304
 43
1.0000
 50
180.0000
  0
INSERT
  8
17
  2
ROUNDP
 10
133.4650
 20
2.6125
 30
0.0000
 41
1.9304
 42
1.9304
 43
1.0000
 50
180.0000
  0
CIRCLE
  8
44
 10
133.4650
 20
2.6125
 30
0.0000
 40
0.7620
  0
INSERT
  8
17
  2
ROUNDP
 10
123.3050
 20
1.6600
 30
0.0000
 41
1.9304
 42
1.9304
 43
1.0000
 50
180.0000
  0
INSERT
  8
17
  2
ROUNDP
 10
123.3050
 20
1.6600
 30
0.0000
 41
1.9304
 42
1.9304
 43
1.0000
 50
180.0000
  0
CIRCLE
  8
44
 10
123.3050
 20
1.6600
 30
0.0000
 40
0.7620
  0
INSERT
  8
17
  2
ROUNDP
 10
103.6200
 20
9.9150
 30
0.0000
 41
1.9304
 42
1.9304
 43
1.0000
 50
0.0000
  0
INSERT
  8
17
  2
ROUNDP
 10
103.6200
 20
9.9150
 30
0.0000
 41
1.9304
 42
1.9304
 43
1.0000
 50
0.0000
  0
CIRCLE
  8
44
 10
103.6200
 20
9.9150
 30
0.0000
 40
0.7620
  0
INSERT
  8
17
  2
ROUNDP
 10
101.7150
 20
41.3475
 30
0.0000
 41
1.9304
 42
1.9304
 43
1.0000
 50
180.0000
  0
INSERT
  8
17
  2
ROUNDP
 10
101.7150
 20
41.3475
 30
0.0000
 41
1.9304
 42
1.9304
 43
1.0000
 50
180.0000
  0
CIRCLE
  8
44
 10
101.7150
 20
41.3475
 30
0.0000
 40
0.7620
  0
INSERT
  8
17
  2
ROUNDP
 10
97.9050
 20
16.5825
 30
0.0000
 41
1.9304
 42
1.9304
 43
1.0000
 50
180.0000
  0
INSERT
  8
17
  2
ROUNDP
 10
97.9050
 20
16.5825
 30
0.0000
 41
1.9304
 42
1.9304
 43
1.0000
 50
180.0000
  0
CIRCLE
  8
44
 10
97.9050
 20
16.5825
 30
0.0000
 40
0.7620
  0
INSERT
  8
17
  2
ROUNDP
 10
102.0325
 20
34.0450
 30
0.0000
 41
1.9304
 42
1.9304
 43
1.0000
 50
90.0000
  0
INSERT
  8
17
  2
ROUNDP
 10
102.0325
 20
34.0450
 30
0.0000
 41
1.9304
 42
1.9304
 43
1.0000
 50
90.0000
  0
CIRCLE
  8
44
 10
102.0325
 20
34.0450
 30
0.0000
 40
0.7620
  0
INSERT
  8
17
  2
ROUNDP
 10
101.7150
 20
38.8075
 30
0.0000
 41
1.9304
 42
1.9304
 43
1.0000
 50
180.0000
  0
INSERT
  8
17
  2
ROUNDP
 10
101.7150
 20
38.8075
 30
0.0000
 41
1.9304
 42
1.9304
 43
1.0000
 50
180.0000
  0
CIRCLE
  8
44
 10
101.7150
 20
38.8075
 30
0.0000
 40
0.7620
  0
INSERT
  8
17
  2
OCTAGONP
 10
101.3340
 20
1.6600
 30
0.0000
 41
1.2192
 42
1.2192
 43
1.0000
 50
180.0000
  0
INSERT
  8
17
  2
OCTAGONP
 10
101.3340
 20
1.6600
 30
0.0000
 41
1.2192
 42
1.2192
 43
1.0000
 50
180.0000
  0
CIRCLE
  8
44
 10
101.3340
 20
1.6600
 30
0.0000
 40
0.4064
  0
INSERT
  8
17
  2
OCTAGONP
 10
98.7940
 20
1.6600
 30
0.0000
 41
1.2192
 42
1.2192
 43
1.0000
 50
180.0000
  0
INSERT
  8
17
  2
OCTAGONP
 10
98.7940
 20
1.6600
 30
0.0000
 41
1.2192
 42
1.2192
 43
1.0000
 50
180.0000
  0
CIRCLE
  8
44
 10
98.7940
 20
1.6600
 30
0.0000
 40
0.4064
  0
INSERT
  8
17
  2
OCTAGONP
 10
108.9540
 20
31.8860
 30
0.0000
 41
1.2192
 42
1.2192
 43
1.0000
 50
180.0000
  0
INSERT
  8
17
  2
OCTAGONP
 10
108.9540
 20
31.8860
 30
0.0000
 41
1.2192
 42
1.2192
 43
1.0000
 50
180.0000
  0
CIRCLE
  8
44
 10
108.9540
 20
31.8860
 30
0.0000
 40
0.4064
  0
INSERT
  8
17
  2
OCTAGONP
 10
106.4140
 20
31.8860
 30
0.0000
 41
1.2192
 42
1.2192
 43
1.0000
 50
180.0000
  0
INSERT
  8
17
  2
OCTAGONP
 10
106.4140
 20
31.8860
 30
0.0000
 41
1.2192
 42
1.2192
 43
1.0000
 50
180.0000
  0
CIRCLE
  8
44
 10
106.4140
 20
31.8860
 30
0.0000
 40
0.4064
  0
INSERT
  8
17
  2
OCTAGONP
 10
108.9540
 20
28.7110
 30
0.0000
 41
1.2192
 42
1.2192
 43
1.0000
 50
180.0000
  0
INSERT
  8
17
  2
OCTAGONP
 10
108.9540
 20
28.7110
 30
0.0000
 41
1.2192
 42
1.2192
 43
1.0000
 50
180.0000
  0
CIRCLE
  8
44
 10
108.9540
 20
28.7110
 30
0.0000
 40
0.4064
  0
INSERT
  8
17
  2
OCTAGONP
 10
106.4140
 20
28.7110
 30
0.0000
 41
1.2192
 42
1.2192
 43
1.0000
 50
180.0000
  0
INSERT
  8
17
  2
OCTAGONP
 10
106.4140
 20
28.7110
 30
0.0000
 41
1.2192
 42
1.2192
 43
1.0000
 50
180.0000
  0
CIRCLE
  8
44
 10
106.4140
 20
28.7110
 30
0.0000
 40
0.4064
  0
INSERT
  8
17
  2
OCTAGONP
 10
130.8615
 20
48.0150
 30
0.0000
 41
1.2192
 42
1.2192
 43
1.0000
 50
0.0000
  0
INSERT
  8
17
  2
OCTAGONP
 10
130.8615
 20
48.0150
 30
0.0000
 41
1.2192
 42
1.2192
 43
1.0000
 50
0.0000
  0
CIRCLE
  8
44
 10
130.8615
 20
48.0150
 30
0.0000
 40
0.4064
  0
INSERT
  8
17
  2
OCTAGONP
 10
133.4015
 20
48.0150
 30
0.0000
 41
1.2192
 42
1.2192
 43
1.0000
 50
0.0000
  0
INSERT
  8
17
  2
OCTAGONP
 10
133.4015
 20
48.0150
 30
0.0000
 41
1.2192
 42
1.2192
 43
1.0000
 50
0.0000
  0
CIRCLE
  8
44
 10
133.4015
 20
48.0150
 30
0.0000
 40
0.4064
  0
INSERT
  8
17
  2
OCTAGONP
 10
146.4190
 20
50.9995
 30
0.0000
 41
1.2192
 42
1.2192
 43
1.0000
 50
0.0000
  0
INSERT
  8
17
  2
OCTAGONP
 10
146.4190
 20
50.9995
 30
0.0000
 41
1.2192
 42
1.2192
 43
1.0000
 50
0.0000
  0
CIRCLE
  8
44
 10
146.4190
 20
50.9995
 30
0.0000
 40
0.4064
  0
INSERT
  8
17
  2
OCTAGONP
 10
148.9590
 20
50.9995
 30
0.0000
 41
1.2192
 42
1.2192
 43
1.0000
 50
0.0000
  0
INSERT
  8
17
  2
OCTAGONP
 10
148.9590
 20
50.9995
 30
0.0000
 41
1.2192
 42
1.2192
 43
1.0000
 50
0.0000
  0
CIRCLE
  8
44
 10
148.9590
 20
50.9995
 30
0.0000
 40
0.4064
  0
INSERT
  8
17
  2
OCTAGONP
 10
136.2590
 20
8.3910
 30
0.0000
 41
1.2192
 42
1.2192
 43
1.0000
 50
0.0000
  0
INSERT
  8
17
  2
OCTAGONP
 10
136.2590
 20
8.3910
 30
0.0000
 41
1.2192
 42
1.2192
 43
1.0000
 50
0.0000
  0
CIRCLE
  8
44
 10
136.2590
 20
8.3910
 30
0.0000
 40
0.4064
  0
INSERT
  8
17
  2
OCTAGONP
 10
138.7990
 20
8.3910
 30
0.0000
 41
1.2192
 42
1.2192
 43
1.0000
 50
0.0000
  0
INSERT
  8
17
  2
OCTAGONP
 10
138.7990
 20
8.3910
 30
0.0000
 41
1.2192
 42
1.2192
 43
1.0000
 50
0.0000
  0
CIRCLE
  8
44
 10
138.7990
 20
8.3910
 30
0.0000
 40
0.4064
  0
INSERT
  8
17
  2
OCTAGONP
 10
160.5160
 20
37.4740
 30
0.0000
 41
1.2192
 42
1.2192
 43
1.0000
 50
180.0000
  0
INSERT
  8
17
  2
OCTAGONP
 10
160.5160
 20
37.4740
 30
0.0000
 41
1.2192
 42
1.2192
 43
1.0000
 50
180.0000
  0
CIRCLE
  8
44
 10
160.5160
 20
37.4740
 30
0.0000
 40
0.4064
  0
INSERT
  8
17
  2
OCTAGONP
 10
157.9760
 20
37.4740
 30
0.0000
 41
1.2192
 42
1.2192
 43
1.0000
 50
180.0000
  0
INSERT
  8
17
  2
OCTAGONP
 10
157.9760
 20
37.4740
 30
0.0000
 41
1.2192
 42
1.2192
 43
1.0000
 50
180.0000
  0
CIRCLE
  8
44
 10
157.9760
 20
37.4740
 30
0.0000
 40
0.4064
  0
INSERT
  8
17
  2
OCTAGONP
 10
160.5160
 20
32.9020
 30
0.0000
 41
1.2192
 42
1.2192
 43
1.0000
 50
180.0000
  0
INSERT
  8
17
  2
OCTAGONP
 10
160.5160
 20
32.9020
 30
0.0000
 41
1.2192
 42
1.2192
 43
1.0000
 50
180.0000
  0
CIRCLE
  8
44
 10
160.5160
 20
32.9020
 30
0.0000
 40
0.4064
  0
INSERT
  8
17
  2
OCTAGONP
 10
157.9760
 20
32.9020
 30
0.0000
 41
1.2192
 42
1.2192
 43
1.0000
 50
180.0000
  0
INSERT
  8
17
  2
OCTAGONP
 10
157.9760
 20
32.9020
 30
0.0000
 41
1.2192
 42
1.2192
 43
1.0000
 50
180.0000
  0
CIRCLE
  8
44
 10
157.9760
 20
32.9020
 30
0.0000
 40
0.4064
  0
INSERT
  8
17
  2
OCTAGONP
 10
160.5160
 20
28.3300
 30
0.0000
 41
1.2192
 42
1.2192
 43
1.0000
 50
180.0000
  0
INSERT
  8
17
  2
OCTAGONP
 10
160.5160
 20
28.3300
 30
0.0000
 41
1.2192
 42
1.2192
 43
1.0000
 50
180.0000
  0
CIRCLE
  8
44
 10
160.5160
 20
28.3300
 30
0.0000
 40
0.4064
  0
INSERT
  8
17
  2
OCTAGONP
 10
157.9760
 20
28.3300
 30
0.0000
 41
1.2192
 42
1.2192
 43
1.0000
 50
180.0000
  0
INSERT
  8
17
  2
OCTAGONP
 10
157.9760
 20
28.3300
 30
0.0000
 41
1.2192
 42
1.2192
 43
1.0000
 50
180.0000
  0
CIRCLE
  8
44
 10
157.9760
 20
28.3300
 30
0.0000
 40
0.4064
  0
INSERT
  8
17
  2
OCTAGONP
 10
160.5160
 20
23.7580
 30
0.0000
 41
1.2192
 42
1.2192
 43
1.0000
 50
180.0000
  0
INSERT
  8
17
  2
OCTAGONP
 10
160.5160
 20
23.7580
 30
0.0000
 41
1.2192
 42
1.2192
 43
1.0000
 50
180.0000
  0
CIRCLE
  8
44
 10
160.5160
 20
23.7580
 30
0.0000
 40
0.4064
  0
INSERT
  8
17
  2
OCTAGONP
 10
157.9760
 20
23.7580
 30
0.0000
 41
1.2192
 42
1.2192
 43
1.0000
 50
180.0000
  0
INSERT
  8
17
  2
OCTAGONP
 10
157.9760
 20
23.7580
 30
0.0000
 41
1.2192
 42
1.2192
 43
1.0000
 50
180.0000
  0
CIRCLE
  8
44
 10
157.9760
 20
23.7580
 30
0.0000
 40
0.4064
  0
INSERT
  8
17
  2
OCTAGONP
 10
160.5160
 20
19.1860
 30
0.0000
 41
1.2192
 42
1.2192
 43
1.0000
 50
180.0000
  0
INSERT
  8
17
  2
OCTAGONP
 10
160.5160
 20
19.1860
 30
0.0000
 41
1.2192
 42
1.2192
 43
1.0000
 50
180.0000
  0
CIRCLE
  8
44
 10
160.5160
 20
19.1860
 30
0.0000
 40
0.4064
  0
INSERT
  8
17
  2
OCTAGONP
 10
157.9760
 20
19.1860
 30
0.0000
 41
1.2192
 42
1.2192
 43
1.0000
 50
180.0000
  0
INSERT
  8
17
  2
OCTAGONP
 10
157.9760
 20
19.1860
 30
0.0000
 41
1.2192
 42
1.2192
 43
1.0000
 50
180.0000
  0
CIRCLE
  8
44
 10
157.9760
 20
19.1860
 30
0.0000
 40
0.4064
  0
INSERT
  8
17
  2
ROUNDP
 10
117.5900
 20
8.9625
 30
0.0000
 41
1.9304
 42
1.9304
 43
1.0000
 50
0.0000
  0
INSERT
  8
17
  2
ROUNDP
 10
117.5900
 20
8.9625
 30
0.0000
 41
1.9304
 42
1.9304
 43
1.0000
 50
0.0000
  0
CIRCLE
  8
44
 10
117.5900
 20
8.9625
 30
0.0000
 40
0.7620
  0
INSERT
  8
17
  2
ROUNDP
 10
117.5900
 20
13.7250
 30
0.0000
 41
1.9304
 42
1.9304
 43
1.0000
 50
0.0000
  0
INSERT
  8
17
  2
ROUNDP
 10
117.5900
 20
13.7250
 30
0.0000
 41
1.9304
 42
1.9304
 43
1.0000
 50
0.0000
  0
CIRCLE
  8
44
 10
117.5900
 20
13.7250
 30
0.0000
 40
0.7620
  0
INSERT
  8
17
  2
ROUNDP
 10
119.4950
 20
4.8350
 30
0.0000
 41
1.9304
 42
1.9304
 43
1.0000
 50
0.0000
  0
INSERT
  8
17
  2
ROUNDP
 10
119.4950
 20
4.8350
 30
0.0000
 41
1.9304
 42
1.9304
 43
1.0000
 50
0.0000
  0
CIRCLE
  8
44
 10
119.4950
 20
4.8350
 30
0.0000
 40
0.7620
  0
INSERT
  8
17
  2
OCTAGONP
 10
141.9740
 20
3.5015
 30
0.0000
 41
1.2192
 42
1.2192
 43
1.0000
 50
0.0000
  0
INSERT
  8
17
  2
OCTAGONP
 10
141.9740
 20
3.5015
 30
0.0000
 41
1.2192
 42
1.2192
 43
1.0000
 50
0.0000
  0
CIRCLE
  8
44
 10
141.9740
 20
3.5015
 30
0.0000
 40
0.4064
  0
INSERT
  8
17
  2
OCTAGONP
 10
144.5140
 20
3.5015
 30
0.0000
 41
1.2192
 42
1.2192
 43
1.0000
 50
0.0000
  0
INSERT
  8
17
  2
OCTAGONP
 10
144.5140
 20
3.5015
 30
0.0000
 41
1.2192
 42
1.2192
 43
1.0000
 50
0.0000
  0
CIRCLE
  8
44
 10
144.5140
 20
3.5015
 30
0.0000
 40
0.4064
  0
INSERT
  8
17
  2
ROUNDP
 10
98.2225
 20
52.4600
 30
0.0000
 41
1.9304
 42
1.9304
 43
1.0000
 50
0.0000
  0
INSERT
  8
17
  2
ROUNDP
 10
98.2225
 20
52.4600
 30
0.0000
 41
1.9304
 42
1.9304
 43
1.0000
 50
0.0000
  0
CIRCLE
  8
44
 10
98.2225
 20
52.4600
 30
0.0000
 40
0.7620
  0
INSERT
  8
17
  2
ROUNDP
 10
98.2225
 20
5.4700
 30
0.0000
 41
1.9304
 42
1.9304
 43
1.0000
 50
0.0000
  0
INSERT
  8
17
  2
ROUNDP
 10
98.2225
 20
5.4700
 30
0.0000
 41
1.9304
 42
1.9304
 43
1.0000
 50
0.0000
  0
CIRCLE
  8
44
 10
98.2225
 20
5.4700
 30
0.0000
 40
0.7620
  0
INSERT
  8
17
  2
ROUNDP
 10
101.7150
 20
52.4600
 30
0.0000
 41
1.9304
 42
1.9304
 43
1.0000
 50
180.0000
  0
INSERT
  8
17
  2
ROUNDP
 10
101.7150
 20
52.4600
 30
0.0000
 41
1.9304
 42
1.9304
 43
1.0000
 50
180.0000
  0
CIRCLE
  8
44
 10
101.7150
 20
52.4600
 30
0.0000
 40
0.7620
  0
INSERT
  8
17
  2
OCTAGONP
 10
60.3250
 20
27.9400
 30
0.0000
 41
1.2192
 42
1.2192
 43
1.0000
 50
90.0000
  0
INSERT
  8
17
  2
OCTAGONP
 10
60.3250
 20
27.9400
 30
0.0000
 41
1.2192
 42
1.2192
 43
1.0000
 50
90.0000
  0
CIRCLE
  8
44
 10
60.3250
 20
27.9400
 30
0.0000
 40
0.4064
  0
INSERT
  8
17
  2
OCTAGONP
 10
62.2300
 20
29.2100
 30
0.0000
 41
1.2192
 42
1.2192
 43
1.0000
 50
90.0000
  0
INSERT
  8
17
  2
OCTAGONP
 10
62.2300
 20
29.2100
 30
0.0000
 41
1.2192
 42
1.2192
 43
1.0000
 50
90.0000
  0
CIRCLE
  8
44
 10
62.2300
 20
29.2100
 30
0.0000
 40
0.4064
  0
INSERT
  8
17
  2
OCTAGONP
 10
62.2300
 20
26.6700
 30
0.0000
 41
1.2192
 42
1.2192
 43
1.0000
 50
90.0000
  0
INSERT
  8
17
  2
OCTAGONP
 10
62.2300
 20
26.6700
 30
0.0000
 41
1.2192
 42
1.2192
 43
1.0000
 50
90.0000
  0
CIRCLE
  8
44
 10
62.2300
 20
26.6700
 30
0.0000
 40
0.4064
  0
CIRCLE
  8
20
 10
50.1650
 20
46.7360
 30
0.0000
 40
1.6510
  0
INSERT
  8
17
  2
LONGP100
 10
47.6250
 20
31.7500
 30
0.0000
 41
1.5240
 42
1.5240
 43
1.0000
 50
90.0000
  0
INSERT
  8
17
  2
LONGP100
 10
47.6250
 20
31.7500
 30
0.0000
 41
1.5240
 42
1.5240
 43
1.0000
 50
90.0000
  0
CIRCLE
  8
44
 10
47.6250
 20
31.7500
 30
0.0000
 40
0.5588
  0
INSERT
  8
17
  2
LONGP100
 10
50.1650
 20
31.7500
 30
0.0000
 41
1.5240
 42
1.5240
 43
1.0000
 50
90.0000
  0
INSERT
  8
17
  2
LONGP100
 10
50.1650
 20
31.7500
 30
0.0000
 41
1.5240
 42
1.5240
 43
1.0000
 50
90.0000
  0
CIRCLE
  8
44
 10
50.1650
 20
31.7500
 30
0.0000
 40
0.5588
  0
INSERT
  8
17
  2
LONGP100
 10
52.7050
 20
31.7500
 30
0.0000
 41
1.5240
 42
1.5240
 43
1.0000
 50
90.0000
  0
INSERT
  8
17
  2
LONGP100
 10
52.7050
 20
31.7500
 30
0.0000
 41
1.5240
 42
1.5240
 43
1.0000
 50
90.0000
  0
CIRCLE
  8
44
 10
52.7050
 20
31.7500
 30
0.0000
 40
0.5588
  0
INSERT
  8
17
  2
LONGP100
 10
120.3840
 20
7.5020
 30
0.0000
 41
1.2192
 42
1.2192
 43
1.0000
 50
0.0000
  0
INSERT
  8
17
  2
LONGP100
 10
120.3840
 20
7.5020
 30
0.0000
 41
1.2192
 42
1.2192
 43
1.0000
 50
0.0000
  0
CIRCLE
  8
44
 10
120.3840
 20
7.5020
 30
0.0000
 40
0.4064
  0
INSERT
  8
17
  2
LONGP100
 10
120.3840
 20
10.0420
 30
0.0000
 41
1.2192
 42
1.2192
 43
1.0000
 50
0.0000
  0
INSERT
  8
17
  2
LONGP100
 10
120.3840
 20
10.0420
 30
0.0000
 41
1.2192
 42
1.2192
 43
1.0000
 50
0.0000
  0
CIRCLE
  8
44
 10
120.3840
 20
10.0420
 30
0.0000
 40
0.4064
  0
INSERT
  8
17
  2
LONGP100
 10
120.3840
 20
12.5820
 30
0.0000
 41
1.2192
 42
1.2192
 43
1.0000
 50
0.0000
  0
INSERT
  8
17
  2
LONGP100
 10
120.3840
 20
12.5820
 30
0.0000
 41
1.2192
 42
1.2192
 43
1.0000
 50
0.0000
  0
CIRCLE
  8
44
 10
120.3840
 20
12.5820
 30
0.0000
 40
0.4064
  0
INSERT
  8
17
  2
LONGP100
 10
120.3840
 20
15.1220
 30
0.0000
 41
1.2192
 42
1.2192
 43
1.0000
 50
0.0000
  0
INSERT
  8
17
  2
LONGP100
 10
120.3840
 20
15.1220
 30
0.0000
 41
1.2192
 42
1.2192
 43
1.0000
 50
0.0000
  0
CIRCLE
  8
44
 10
120.3840
 20
15.1220
 30
0.0000
 40
0.4064
  0
INSERT
  8
17
  2
LONGP100
 10
120.3840
 20
17.6620
 30
0.0000
 41
1.2192
 42
1.2192
 43
1.0000
 50
0.0000
  0
INSERT
  8
17
  2
LONGP100
 10
120.3840
 20
17.6620
 30
0.0000
 41
1.2192
 42
1.2192
 43
1.0000
 50
0.0000
  0
CIRCLE
  8
44
 10
120.3840
 20
17.6620
 30
0.0000
 40
0.4064
  0
INSERT
  8
17
  2
LONGP100
 10
120.3840
 20
20.2020
 30
0.0000
 41
1.2192
 42
1.2192
 43
1.0000
 50
0.0000
  0
INSERT
  8
17
  2
LONGP100
 10
120.3840
 20
20.2020
 30
0.0000
 41
1.2192
 42
1.2192
 43
1.0000
 50
0.0000
  0
CIRCLE
  8
44
 10
120.3840
 20
20.2020
 30
0.0000
 40
0.4064
  0
INSERT
  8
17
  2
LONGP100
 10
120.3840
 20
22.7420
 30
0.0000
 41
1.2192
 42
1.2192
 43
1.0000
 50
0.0000
  0
INSERT
  8
17
  2
LONGP100
 10
120.3840
 20
22.7420
 30
0.0000
 41
1.2192
 42
1.2192
 43
1.0000
 50
0.0000
  0
CIRCLE
  8
44
 10
120.3840
 20
22.7420
 30
0.0000
 40
0.4064
  0
INSERT
  8
17
  2
LONGP100
 10
120.3840
 20
25.2820
 30
0.0000
 41
1.2192
 42
1.2192
 43
1.0000
 50
0.0000
  0
INSERT
  8
17
  2
LONGP100
 10
120.3840
 20
25.2820
 30
0.0000
 41
1.2192
 42
1.2192
 43
1.0000
 50
0.0000
  0
CIRCLE
  8
44
 10
120.3840
 20
25.2820
 30
0.0000
 40
0.4064
  0
INSERT
  8
17
  2
LONGP100
 10
128.0040
 20
25.2820
 30
0.0000
 41
1.2192
 42
1.2192
 43
1.0000
 50
0.0000
  0
INSERT
  8
17
  2
LONGP100
 10
128.0040
 20
25.2820
 30
0.0000
 41
1.2192
 42
1.2192
 43
1.0000
 50
0.0000
  0
CIRCLE
  8
44
 10
128.0040
 20
25.2820
 30
0.0000
 40
0.4064
  0
INSERT
  8
17
  2
LONGP100
 10
128.0040
 20
22.7420
 30
0.0000
 41
1.2192
 42
1.2192
 43
1.0000
 50
0.0000
  0
INSERT
  8
17
  2
LONGP100
 10
128.0040
 20
22.7420
 30
0.0000
 41
1.2192
 42
1.2192
 43
1.0000
 50
0.0000
  0
CIRCLE
  8
44
 10
128.0040
 20
22.7420
 30
0.0000
 40
0.4064
  0
INSERT
  8
17
  2
LONGP100
 10
128.0040
 20
20.2020
 30
0.0000
 41
1.2192
 42
1.2192
 43
1.0000
 50
0.0000
  0
INSERT
  8
17
  2
LONGP100
 10
128.0040
 20
20.2020
 30
0.0000
 41
1.2192
 42
1.2192
 43
1.0000
 50
0.0000
  0
CIRCLE
  8
44
 10
128.0040
 20
20.2020
 30
0.0000
 40
0.4064
  0
INSERT
  8
17
  2
LONGP100
 10
128.0040
 20
17.6620
 30
0.0000
 41
1.2192
 42
1.2192
 43
1.0000
 50
0.0000
  0
INSERT
  8
17
  2
LONGP100
 10
128.0040
 20
17.6620
 30
0.0000
 41
1.2192
 42
1.2192
 43
1.0000
 50
0.0000
  0
CIRCLE
  8
44
 10
128.0040
 20
17.6620
 30
0.0000
 40
0.4064
  0
INSERT
  8
17
  2
LONGP100
 10
128.0040
 20
15.1220
 30
0.0000
 41
1.2192
 42
1.2192
 43
1.0000
 50
0.0000
  0
INSERT
  8
17
  2
LONGP100
 10
128.0040
 20
15.1220
 30
0.0000
 41
1.2192
 42
1.2192
 43
1.0000
 50
0.0000
  0
CIRCLE
  8
44
 10
128.0040
 20
15.1220
 30
0.0000
 40
0.4064
  0
INSERT
  8
17
  2
LONGP100
 10
128.0040
 20
12.5820
 30
0.0000
 41
1.2192
 42
1.2192
 43
1.0000
 50
0.0000
  0
INSERT
  8
17
  2
LONGP100
 10
128.0040
 20
12.5820
 30
0.0000
 41
1.2192
 42
1.2192
 43
1.0000
 50
0.0000
  0
CIRCLE
  8
44
 10
128.0040
 20
12.5820
 30
0.0000
 40
0.4064
  0
INSERT
  8
17
  2
LONGP100
 10
128.0040
 20
10.0420
 30
0.0000
 41
1.2192
 42
1.2192
 43
1.0000
 50
0.0000
  0
INSERT
  8
17
  2
LONGP100
 10
128.0040
 20
10.0420
 30
0.0000
 41
1.2192
 42
1.2192
 43
1.0000
 50
0.0000
  0
CIRCLE
  8
44
 10
128.0040
 20
10.0420
 30
0.0000
 40
0.4064
  0
INSERT
  8
17
  2
LONGP100
 10
128.0040
 20
7.5020
 30
0.0000
 41
1.2192
 42
1.2192
 43
1.0000
 50
0.0000
  0
INSERT
  8
17
  2
LONGP100
 10
128.0040
 20
7.5020
 30
0.0000
 41
1.2192
 42
1.2192
 43
1.0000
 50
0.0000
  0
CIRCLE
  8
44
 10
128.0040
 20
7.5020
 30
0.0000
 40
0.4064
  0
INSERT
  8
17
  2
LONGP100
 10
124.1940
 20
36.4580
 30
0.0000
 41
1.2192
 42
1.2192
 43
1.0000
 50
180.0000
  0
INSERT
  8
17
  2
LONGP100
 10
124.1940
 20
36.4580
 30
0.0000
 41
1.2192
 42
1.2192
 43
1.0000
 50
180.0000
  0
CIRCLE
  8
44
 10
124.1940
 20
36.4580
 30
0.0000
 40
0.4064
  0
INSERT
  8
17
  2
LONGP100
 10
124.1940
 20
33.9180
 30
0.0000
 41
1.2192
 42
1.2192
 43
1.0000
 50
180.0000
  0
INSERT
  8
17
  2
LONGP100
 10
124.1940
 20
33.9180
 30
0.0000
 41
1.2192
 42
1.2192
 43
1.0000
 50
180.0000
  0
CIRCLE
  8
44
 10
124.1940
 20
33.9180
 30
0.0000
 40
0.4064
  0
INSERT
  8
17
  2
LONGP100
 10
124.1940
 20
31.3780
 30
0.0000
 41
1.2192
 42
1.2192
 43
1.0000
 50
180.0000
  0
INSERT
  8
17
  2
LONGP100
 10
124.1940
 20
31.3780
 30
0.0000
 41
1.2192
 42
1.2192
 43
1.0000
 50
180.0000
  0
CIRCLE
  8
44
 10
124.1940
 20
31.3780
 30
0.0000
 40
0.4064
  0
INSERT
  8
17
  2
LONGP100
 10
124.1940
 20
28.8380
 30
0.0000
 41
1.2192
 42
1.2192
 43
1.0000
 50
180.0000
  0
INSERT
  8
17
  2
LONGP100
 10
124.1940
 20
28.8380
 30
0.0000
 41
1.2192
 42
1.2192
 43
1.0000
 50
180.0000
  0
CIRCLE
  8
44
 10
124.1940
 20
28.8380
 30
0.0000
 40
0.4064
  0
INSERT
  8
17
  2
LONGP100
 10
116.5740
 20
28.8380
 30
0.0000
 41
1.2192
 42
1.2192
 43
1.0000
 50
180.0000
  0
INSERT
  8
17
  2
LONGP100
 10
116.5740
 20
28.8380
 30
0.0000
 41
1.2192
 42
1.2192
 43
1.0000
 50
180.0000
  0
CIRCLE
  8
44
 10
116.5740
 20
28.8380
 30
0.0000
 40
0.4064
  0
INSERT
  8
17
  2
LONGP100
 10
116.5740
 20
31.3780
 30
0.0000
 41
1.2192
 42
1.2192
 43
1.0000
 50
180.0000
  0
INSERT
  8
17
  2
LONGP100
 10
116.5740
 20
31.3780
 30
0.0000
 41
1.2192
 42
1.2192
 43
1.0000
 50
180.0000
  0
CIRCLE
  8
44
 10
116.5740
 20
31.3780
 30
0.0000
 40
0.4064
  0
INSERT
  8
17
  2
LONGP100
 10
116.5740
 20
33.9180
 30
0.0000
 41
1.2192
 42
1.2192
 43
1.0000
 50
180.0000
  0
INSERT
  8
17
  2
LONGP100
 10
116.5740
 20
33.9180
 30
0.0000
 41
1.2192
 42
1.2192
 43
1.0000
 50
180.0000
  0
CIRCLE
  8
44
 10
116.5740
 20
33.9180
 30
0.0000
 40
0.4064
  0
INSERT
  8
17
  2
LONGP100
 10
116.5740
 20
36.4580
 30
0.0000
 41
1.2192
 42
1.2192
 43
1.0000
 50
180.0000
  0
INSERT
  8
17
  2
LONGP100
 10
116.5740
 20
36.4580
 30
0.0000
 41
1.2192
 42
1.2192
 43
1.0000
 50
180.0000
  0
CIRCLE
  8
44
 10
116.5740
 20
36.4580
 30
0.0000
 40
0.4064
  0
INSERT
  8
17
  2
OCTAGONP
 10
136.2590
 20
17.5350
 30
0.0000
 41
1.2192
 42
1.2192
 43
1.0000
 50
0.0000
  0
INSERT
  8
17
  2
OCTAGONP
 10
136.2590
 20
17.5350
 30
0.0000
 41
1.2192
 42
1.2192
 43
1.0000
 50
0.0000
  0
CIRCLE
  8
44
 10
136.2590
 20
17.5350
 30
0.0000
 40
0.4064
  0
INSERT
  8
17
  2
OCTAGONP
 10
138.7990
 20
17.5350
 30
0.0000
 41
1.2192
 42
1.2192
 43
1.0000
 50
0.0000
  0
INSERT
  8
17
  2
OCTAGONP
 10
138.7990
 20
17.5350
 30
0.0000
 41
1.2192
 42
1.2192
 43
1.0000
 50
0.0000
  0
CIRCLE
  8
44
 10
138.7990
 20
17.5350
 30
0.0000
 40
0.4064
  0
INSERT
  8
17
  2
OCTAGONP
 10
127.8770
 20
35.0610
 30
0.0000
 41
1.2192
 42
1.2192
 43
1.0000
 50
270.0000
  0
INSERT
  8
17
  2
OCTAGONP
 10
127.8770
 20
35.0610
 30
0.0000
 41
1.2192
 42
1.2192
 43
1.0000
 50
270.0000
  0
CIRCLE
  8
44
 10
127.8770
 20
35.0610
 30
0.0000
 40
0.4064
  0
INSERT
  8
17
  2
OCTAGONP
 10
127.8770
 20
32.5210
 30
0.0000
 41
1.2192
 42
1.2192
 43
1.0000
 50
270.0000
  0
INSERT
  8
17
  2
OCTAGONP
 10
127.8770
 20
32.5210
 30
0.0000
 41
1.2192
 42
1.2192
 43
1.0000
 50
270.0000
  0
CIRCLE
  8
44
 10
127.8770
 20
32.5210
 30
0.0000
 40
0.4064
  0
INSERT
  8
17
  2
OCTAGONP
 10
146.7365
 20
12.5820
 30
0.0000
 41
1.2192
 42
1.2192
 43
1.0000
 50
0.0000
  0
INSERT
  8
17
  2
OCTAGONP
 10
146.7365
 20
12.5820
 30
0.0000
 41
1.2192
 42
1.2192
 43
1.0000
 50
0.0000
  0
CIRCLE
  8
44
 10
146.7365
 20
12.5820
 30
0.0000
 40
0.4064
  0
INSERT
  8
17
  2
OCTAGONP
 10
149.2765
 20
12.5820
 30
0.0000
 41
1.2192
 42
1.2192
 43
1.0000
 50
0.0000
  0
INSERT
  8
17
  2
OCTAGONP
 10
149.2765
 20
12.5820
 30
0.0000
 41
1.2192
 42
1.2192
 43
1.0000
 50
0.0000
  0
CIRCLE
  8
44
 10
149.2765
 20
12.5820
 30
0.0000
 40
0.4064
  0
INSERT
  8
17
  2
OCTAGONP
 10
156.0710
 20
42.8715
 30
0.0000
 41
1.2192
 42
1.2192
 43
1.0000
 50
180.0000
  0
INSERT
  8
17
  2
OCTAGONP
 10
156.0710
 20
42.8715
 30
0.0000
 41
1.2192
 42
1.2192
 43
1.0000
 50
180.0000
  0
CIRCLE
  8
44
 10
156.0710
 20
42.8715
 30
0.0000
 40
0.4064
  0
INSERT
  8
17
  2
OCTAGONP
 10
153.5310
 20
42.8715
 30
0.0000
 41
1.2192
 42
1.2192
 43
1.0000
 50
180.0000
  0
INSERT
  8
17
  2
OCTAGONP
 10
153.5310
 20
42.8715
 30
0.0000
 41
1.2192
 42
1.2192
 43
1.0000
 50
180.0000
  0
CIRCLE
  8
44
 10
153.5310
 20
42.8715
 30
0.0000
 40
0.4064
  0
INSERT
  8
17
  2
OCTAGONP
 10
44.4500
 20
28.5750
 30
0.0000
 41
1.2192
 42
1.2192
 43
1.0000
 50
0.0000
  0
INSERT
  8
17
  2
OCTAGONP
 10
44.4500
 20
28.5750
 30
0.0000
 41
1.2192
 42
1.2192
 43
1.0000
 50
0.0000
  0
CIRCLE
  8
44
 10
44.4500
 20
28.5750
 30
0.0000
 40
0.4064
  0
INSERT
  8
17
  2
OCTAGONP
 10
54.6100
 20
28.5750
 30
0.0000
 41
1.2192
 42
1.2192
 43
1.0000
 50
0.0000
  0
INSERT
  8
17
  2
OCTAGONP
 10
54.6100
 20
28.5750
 30
0.0000
 41
1.2192
 42
1.2192
 43
1.0000
 50
0.0000
  0
CIRCLE
  8
44
 10
54.6100
 20
28.5750
 30
0.0000
 40
0.4064
  0
INSERT
  8
17
  2
OCTAGONP
 10
2.5400
 20
1.5875
 30
0.0000
 41
1.6002
 42
1.6002
 43
1.0000
 50
90.0000
  0
INSERT
  8
17
  2
OCTAGONP
 10
2.5400
 20
1.5875
 30
0.0000
 41
1.6002
 42
1.6002
 43
1.0000
 50
90.0000
  0
CIRCLE
  8
44
 10
2.5400
 20
1.5875
 30
0.0000
 40
0.5969
  0
INSERT
  8
17
  2
OCTAGONP
 10
2.5400
 20
19.3675
 30
0.0000
 41
1.6002
 42
1.6002
 43
1.0000
 50
90.0000
  0
INSERT
  8
17
  2
OCTAGONP
 10
2.5400
 20
19.3675
 30
0.0000
 41
1.6002
 42
1.6002
 43
1.0000
 50
90.0000
  0
CIRCLE
  8
44
 10
2.5400
 20
19.3675
 30
0.0000
 40
0.5969
  0
INSERT
  8
17
  2
OCTAGONP
 10
2.5400
 20
21.9075
 30
0.0000
 41
1.6002
 42
1.6002
 43
1.0000
 50
90.0000
  0
INSERT
  8
17
  2
OCTAGONP
 10
2.5400
 20
21.9075
 30
0.0000
 41
1.6002
 42
1.6002
 43
1.0000
 50
90.0000
  0
CIRCLE
  8
44
 10
2.5400
 20
21.9075
 30
0.0000
 40
0.5969
  0
INSERT
  8
17
  2
OCTAGONP
 10
2.5400
 20
39.6875
 30
0.0000
 41
1.6002
 42
1.6002
 43
1.0000
 50
90.0000
  0
INSERT
  8
17
  2
OCTAGONP
 10
2.5400
 20
39.6875
 30
0.0000
 41
1.6002
 42
1.6002
 43
1.0000
 50
90.0000
  0
CIRCLE
  8
44
 10
2.5400
 20
39.6875
 30
0.0000
 40
0.5969
  0
INSERT
  8
17
  2
OCTAGONP
 10
116.2565
 20
1.6600
 30
0.0000
 41
1.2192
 42
1.2192
 43
1.0000
 50
180.0000
  0
INSERT
  8
17
  2
OCTAGONP
 10
116.2565
 20
1.6600
 30
0.0000
 41
1.2192
 42
1.2192
 43
1.0000
 50
180.0000
  0
CIRCLE
  8
44
 10
116.2565
 20
1.6600
 30
0.0000
 40
0.4064
  0
INSERT
  8
17
  2
OCTAGONP
 10
103.5565
 20
1.6600
 30
0.0000
 41
1.2192
 42
1.2192
 43
1.0000
 50
180.0000
  0
INSERT
  8
17
  2
OCTAGONP
 10
103.5565
 20
1.6600
 30
0.0000
 41
1.2192
 42
1.2192
 43
1.0000
 50
180.0000
  0
CIRCLE
  8
44
 10
103.5565
 20
1.6600
 30
0.0000
 40
0.4064
  0
INSERT
  8
17
  2
OCTAGONP
 10
116.2565
 20
4.3270
 30
0.0000
 41
1.2192
 42
1.2192
 43
1.0000
 50
180.0000
  0
INSERT
  8
17
  2
OCTAGONP
 10
116.2565
 20
4.3270
 30
0.0000
 41
1.2192
 42
1.2192
 43
1.0000
 50
180.0000
  0
CIRCLE
  8
44
 10
116.2565
 20
4.3270
 30
0.0000
 40
0.4064
  0
INSERT
  8
17
  2
OCTAGONP
 10
103.5565
 20
4.3270
 30
0.0000
 41
1.2192
 42
1.2192
 43
1.0000
 50
180.0000
  0
INSERT
  8
17
  2
OCTAGONP
 10
103.5565
 20
4.3270
 30
0.0000
 41
1.2192
 42
1.2192
 43
1.0000
 50
180.0000
  0
CIRCLE
  8
44
 10
103.5565
 20
4.3270
 30
0.0000
 40
0.4064
  0
INSERT
  8
17
  2
OCTAGONP
 10
101.8420
 20
19.0590
 30
0.0000
 41
1.2192
 42
1.2192
 43
1.0000
 50
90.0000
  0
INSERT
  8
17
  2
OCTAGONP
 10
101.8420
 20
19.0590
 30
0.0000
 41
1.2192
 42
1.2192
 43
1.0000
 50
90.0000
  0
CIRCLE
  8
44
 10
101.8420
 20
19.0590
 30
0.0000
 40
0.4064
  0
INSERT
  8
17
  2
OCTAGONP
 10
101.8420
 20
31.7590
 30
0.0000
 41
1.2192
 42
1.2192
 43
1.0000
 50
90.0000
  0
INSERT
  8
17
  2
OCTAGONP
 10
101.8420
 20
31.7590
 30
0.0000
 41
1.2192
 42
1.2192
 43
1.0000
 50
90.0000
  0
CIRCLE
  8
44
 10
101.8420
 20
31.7590
 30
0.0000
 40
0.4064
  0
INSERT
  8
17
  2
OCTAGONP
 10
100.4450
 20
16.6460
 30
0.0000
 41
1.2192
 42
1.2192
 43
1.0000
 50
270.0000
  0
INSERT
  8
17
  2
OCTAGONP
 10
100.4450
 20
16.6460
 30
0.0000
 41
1.2192
 42
1.2192
 43
1.0000
 50
270.0000
  0
CIRCLE
  8
44
 10
100.4450
 20
16.6460
 30
0.0000
 40
0.4064
  0
INSERT
  8
17
  2
OCTAGONP
 10
100.4450
 20
3.9460
 30
0.0000
 41
1.2192
 42
1.2192
 43
1.0000
 50
270.0000
  0
INSERT
  8
17
  2
OCTAGONP
 10
100.4450
 20
3.9460
 30
0.0000
 41
1.2192
 42
1.2192
 43
1.0000
 50
270.0000
  0
CIRCLE
  8
44
 10
100.4450
 20
3.9460
 30
0.0000
 40
0.4064
  0
INSERT
  8
17
  2
OCTAGONP
 10
98.6670
 20
31.8860
 30
0.0000
 41
1.2192
 42
1.2192
 43
1.0000
 50
270.0000
  0
INSERT
  8
17
  2
OCTAGONP
 10
98.6670
 20
31.8860
 30
0.0000
 41
1.2192
 42
1.2192
 43
1.0000
 50
270.0000
  0
CIRCLE
  8
44
 10
98.6670
 20
31.8860
 30
0.0000
 40
0.4064
  0
INSERT
  8
17
  2
OCTAGONP
 10
98.6670
 20
19.1860
 30
0.0000
 41
1.2192
 42
1.2192
 43
1.0000
 50
270.0000
  0
INSERT
  8
17
  2
OCTAGONP
 10
98.6670
 20
19.1860
 30
0.0000
 41
1.2192
 42
1.2192
 43
1.0000
 50
270.0000
  0
CIRCLE
  8
44
 10
98.6670
 20
19.1860
 30
0.0000
 40
0.4064
  0
INSERT
  8
17
  2
OCTAGONP
 10
112.0020
 20
40.7760
 30
0.0000
 41
1.2192
 42
1.2192
 43
1.0000
 50
90.0000
  0
INSERT
  8
17
  2
OCTAGONP
 10
112.0020
 20
40.7760
 30
0.0000
 41
1.2192
 42
1.2192
 43
1.0000
 50
90.0000
  0
CIRCLE
  8
44
 10
112.0020
 20
40.7760
 30
0.0000
 40
0.4064
  0
INSERT
  8
17
  2
OCTAGONP
 10
112.0020
 20
53.4760
 30
0.0000
 41
1.2192
 42
1.2192
 43
1.0000
 50
90.0000
  0
INSERT
  8
17
  2
OCTAGONP
 10
112.0020
 20
53.4760
 30
0.0000
 41
1.2192
 42
1.2192
 43
1.0000
 50
90.0000
  0
CIRCLE
  8
44
 10
112.0020
 20
53.4760
 30
0.0000
 40
0.4064
  0
INSERT
  8
17
  2
OCTAGONP
 10
127.3690
 20
38.1090
 30
0.0000
 41
1.2192
 42
1.2192
 43
1.0000
 50
180.0000
  0
INSERT
  8
17
  2
OCTAGONP
 10
127.3690
 20
38.1090
 30
0.0000
 41
1.2192
 42
1.2192
 43
1.0000
 50
180.0000
  0
CIRCLE
  8
44
 10
127.3690
 20
38.1090
 30
0.0000
 40
0.4064
  0
INSERT
  8
17
  2
OCTAGONP
 10
112.1290
 20
38.1090
 30
0.0000
 41
1.2192
 42
1.2192
 43
1.0000
 50
180.0000
  0
INSERT
  8
17
  2
OCTAGONP
 10
112.1290
 20
38.1090
 30
0.0000
 41
1.2192
 42
1.2192
 43
1.0000
 50
180.0000
  0
CIRCLE
  8
44
 10
112.1290
 20
38.1090
 30
0.0000
 40
0.4064
  0
INSERT
  8
17
  2
OCTAGONP
 10
158.4840
 20
12.3280
 30
0.0000
 41
1.2192
 42
1.2192
 43
1.0000
 50
0.0000
  0
INSERT
  8
17
  2
OCTAGONP
 10
158.4840
 20
12.3280
 30
0.0000
 41
1.2192
 42
1.2192
 43
1.0000
 50
0.0000
  0
CIRCLE
  8
44
 10
158.4840
 20
12.3280
 30
0.0000
 40
0.4064
  0
INSERT
  8
17
  2
OCTAGONP
 10
161.0240
 20
12.3280
 30
0.0000
 41
1.2192
 42
1.2192
 43
1.0000
 50
0.0000
  0
INSERT
  8
17
  2
OCTAGONP
 10
161.0240
 20
12.3280
 30
0.0000
 41
1.2192
 42
1.2192
 43
1.0000
 50
0.0000
  0
CIRCLE
  8
44
 10
161.0240
 20
12.3280
 30
0.0000
 40
0.4064
  0
CIRCLE
  8
20
 10
114.4150
 20
44.5860
 30
0.0000
 40
0.6500
  0
CIRCLE
  8
20
 10
106.7950
 20
52.2060
 30
0.0000
 40
0.6500
  0
INSERT
  8
17
  2
OCTAGONP
 10
114.4150
 20
52.2060
 30
0.0000
 41
1.4064
 42
1.4064
 43
1.0000
 50
270.0000
  0
INSERT
  8
17
  2
OCTAGONP
 10
114.4150
 20
52.2060
 30
0.0000
 41
1.4064
 42
1.4064
 43
1.0000
 50
270.0000
  0
CIRCLE
  8
44
 10
114.4150
 20
52.2060
 30
0.0000
 40
0.5000
  0
INSERT
  8
17
  2
OCTAGONP
 10
110.6050
 20
48.3960
 30
0.0000
 41
1.4064
 42
1.4064
 43
1.0000
 50
270.0000
  0
INSERT
  8
17
  2
OCTAGONP
 10
110.6050
 20
48.3960
 30
0.0000
 41
1.4064
 42
1.4064
 43
1.0000
 50
270.0000
  0
CIRCLE
  8
44
 10
110.6050
 20
48.3960
 30
0.0000
 40
0.5000
  0
CIRCLE
  8
20
 10
114.4150
 20
30.6160
 30
0.0000
 40
0.6500
  0
CIRCLE
  8
20
 10
106.7950
 20
38.2360
 30
0.0000
 40
0.6500
  0
INSERT
  8
17
  2
OCTAGONP
 10
114.4150
 20
38.2360
 30
0.0000
 41
1.4064
 42
1.4064
 43
1.0000
 50
270.0000
  0
INSERT
  8
17
  2
OCTAGONP
 10
114.4150
 20
38.2360
 30
0.0000
 41
1.4064
 42
1.4064
 43
1.0000
 50
270.0000
  0
CIRCLE
  8
44
 10
114.4150
 20
38.2360
 30
0.0000
 40
0.5000
  0
INSERT
  8
17
  2
OCTAGONP
 10
110.6050
 20
34.4260
 30
0.0000
 41
1.4064
 42
1.4064
 43
1.0000
 50
270.0000
  0
INSERT
  8
17
  2
OCTAGONP
 10
110.6050
 20
34.4260
 30
0.0000
 41
1.4064
 42
1.4064
 43
1.0000
 50
270.0000
  0
CIRCLE
  8
44
 10
110.6050
 20
34.4260
 30
0.0000
 40
0.5000
  0
CIRCLE
  8
20
 10
114.4150
 20
17.9160
 30
0.0000
 40
0.6500
  0
CIRCLE
  8
20
 10
106.7950
 20
25.5360
 30
0.0000
 40
0.6500
  0
INSERT
  8
17
  2
OCTAGONP
 10
114.4150
 20
25.5360
 30
0.0000
 41
1.4064
 42
1.4064
 43
1.0000
 50
270.0000
  0
INSERT
  8
17
  2
OCTAGONP
 10
114.4150
 20
25.5360
 30
0.0000
 41
1.4064
 42
1.4064
 43
1.0000
 50
270.0000
  0
CIRCLE
  8
44
 10
114.4150
 20
25.5360
 30
0.0000
 40
0.5000
  0
INSERT
  8
17
  2
OCTAGONP
 10
110.6050
 20
21.7260
 30
0.0000
 41
1.4064
 42
1.4064
 43
1.0000
 50
270.0000
  0
INSERT
  8
17
  2
OCTAGONP
 10
110.6050
 20
21.7260
 30
0.0000
 41
1.4064
 42
1.4064
 43
1.0000
 50
270.0000
  0
CIRCLE
  8
44
 10
110.6050
 20
21.7260
 30
0.0000
 40
0.5000
  0
CIRCLE
  8
20
 10
114.4150
 20
5.2160
 30
0.0000
 40
0.6500
  0
CIRCLE
  8
20
 10
106.7950
 20
12.8360
 30
0.0000
 40
0.6500
  0
INSERT
  8
17
  2
OCTAGONP
 10
114.4150
 20
12.8360
 30
0.0000
 41
1.4064
 42
1.4064
 43
1.0000
 50
270.0000
  0
INSERT
  8
17
  2
OCTAGONP
 10
114.4150
 20
12.8360
 30
0.0000
 41
1.4064
 42
1.4064
 43
1.0000
 50
270.0000
  0
CIRCLE
  8
44
 10
114.4150
 20
12.8360
 30
0.0000
 40
0.5000
  0
INSERT
  8
17
  2
OCTAGONP
 10
110.6050
 20
9.0260
 30
0.0000
 41
1.4064
 42
1.4064
 43
1.0000
 50
270.0000
  0
INSERT
  8
17
  2
OCTAGONP
 10
110.6050
 20
9.0260
 30
0.0000
 41
1.4064
 42
1.4064
 43
1.0000
 50
270.0000
  0
CIRCLE
  8
44
 10
110.6050
 20
9.0260
 30
0.0000
 40
0.5000
  0
INSERT
  8
17
  2
OCTAGONP
 10
158.8015
 20
42.8715
 30
0.0000
 41
1.2192
 42
1.2192
 43
1.0000
 50
0.0000
  0
INSERT
  8
17
  2
OCTAGONP
 10
158.8015
 20
42.8715
 30
0.0000
 41
1.2192
 42
1.2192
 43
1.0000
 50
0.0000
  0
CIRCLE
  8
44
 10
158.8015
 20
42.8715
 30
0.0000
 40
0.4064
  0
INSERT
  8
17
  2
OCTAGONP
 10
161.3415
 20
42.8715
 30
0.0000
 41
1.2192
 42
1.2192
 43
1.0000
 50
0.0000
  0
INSERT
  8
17
  2
OCTAGONP
 10
161.3415
 20
42.8715
 30
0.0000
 41
1.2192
 42
1.2192
 43
1.0000
 50
0.0000
  0
CIRCLE
  8
44
 10
161.3415
 20
42.8715
 30
0.0000
 40
0.4064
  0
INSERT
  8
17
  2
ROUNDP
 10
160.1350
 20
51.1900
 30
0.0000
 41
1.9304
 42
1.9304
 43
1.0000
 50
180.0000
  0
INSERT
  8
17
  2
ROUNDP
 10
160.1350
 20
51.1900
 30
0.0000
 41
1.9304
 42
1.9304
 43
1.0000
 50
180.0000
  0
CIRCLE
  8
44
 10
160.1350
 20
51.1900
 30
0.0000
 40
0.7620
  0
INSERT
  8
17
  2
OCTAGONP
 10
138.9260
 20
3.5650
 30
0.0000
 41
1.2192
 42
1.2192
 43
1.0000
 50
180.0000
  0
INSERT
  8
17
  2
OCTAGONP
 10
138.9260
 20
3.5650
 30
0.0000
 41
1.2192
 42
1.2192
 43
1.0000
 50
180.0000
  0
CIRCLE
  8
44
 10
138.9260
 20
3.5650
 30
0.0000
 40
0.4064
  0
INSERT
  8
17
  2
OCTAGONP
 10
136.3860
 20
3.5650
 30
0.0000
 41
1.2192
 42
1.2192
 43
1.0000
 50
180.0000
  0
INSERT
  8
17
  2
OCTAGONP
 10
136.3860
 20
3.5650
 30
0.0000
 41
1.2192
 42
1.2192
 43
1.0000
 50
180.0000
  0
CIRCLE
  8
44
 10
136.3860
 20
3.5650
 30
0.0000
 40
0.4064
  0
INSERT
  8
17
  2
OCTAGONP
 10
146.5460
 20
27.3140
 30
0.0000
 41
1.2192
 42
1.2192
 43
1.0000
 50
180.0000
  0
INSERT
  8
17
  2
OCTAGONP
 10
146.5460
 20
27.3140
 30
0.0000
 41
1.2192
 42
1.2192
 43
1.0000
 50
180.0000
  0
CIRCLE
  8
44
 10
146.5460
 20
27.3140
 30
0.0000
 40
0.4064
  0
INSERT
  8
17
  2
OCTAGONP
 10
144.0060
 20
27.3140
 30
0.0000
 41
1.2192
 42
1.2192
 43
1.0000
 50
180.0000
  0
INSERT
  8
17
  2
OCTAGONP
 10
144.0060
 20
27.3140
 30
0.0000
 41
1.2192
 42
1.2192
 43
1.0000
 50
180.0000
  0
CIRCLE
  8
44
 10
144.0060
 20
27.3140
 30
0.0000
 40
0.4064
  0
INSERT
  8
17
  2
OCTAGONP
 10
130.5440
 20
38.1090
 30
0.0000
 41
1.2192
 42
1.2192
 43
1.0000
 50
0.0000
  0
INSERT
  8
17
  2
OCTAGONP
 10
130.5440
 20
38.1090
 30
0.0000
 41
1.2192
 42
1.2192
 43
1.0000
 50
0.0000
  0
CIRCLE
  8
44
 10
130.5440
 20
38.1090
 30
0.0000
 40
0.4064
  0
INSERT
  8
17
  2
OCTAGONP
 10
133.0840
 20
38.1090
 30
0.0000
 41
1.2192
 42
1.2192
 43
1.0000
 50
0.0000
  0
INSERT
  8
17
  2
OCTAGONP
 10
133.0840
 20
38.1090
 30
0.0000
 41
1.2192
 42
1.2192
 43
1.0000
 50
0.0000
  0
CIRCLE
  8
44
 10
133.0840
 20
38.1090
 30
0.0000
 40
0.4064
  0
INSERT
  8
17
  2
ROUNDP
 10
142.3550
 20
46.7450
 30
0.0000
 41
1.9304
 42
1.9304
 43
1.0000
 50
0.0000
  0
INSERT
  8
17
  2
ROUNDP
 10
142.3550
 20
46.7450
 30
0.0000
 41
1.9304
 42
1.9304
 43
1.0000
 50
0.0000
  0
CIRCLE
  8
44
 10
142.3550
 20
46.7450
 30
0.0000
 40
0.7620
  0
INSERT
  8
17
  2
ROUNDP
 10
151.2450
 20
46.1100
 30
0.0000
 41
1.9304
 42
1.9304
 43
1.0000
 50
0.0000
  0
INSERT
  8
17
  2
ROUNDP
 10
151.2450
 20
46.1100
 30
0.0000
 41
1.9304
 42
1.9304
 43
1.0000
 50
0.0000
  0
CIRCLE
  8
44
 10
151.2450
 20
46.1100
 30
0.0000
 40
0.7620
  0
INSERT
  8
17
  2
ROUNDP
 10
145.2125
 20
41.6650
 30
0.0000
 41
1.9304
 42
1.9304
 43
1.0000
 50
0.0000
  0
INSERT
  8
17
  2
ROUNDP
 10
145.2125
 20
41.6650
 30
0.0000
 41
1.9304
 42
1.9304
 43
1.0000
 50
0.0000
  0
CIRCLE
  8
44
 10
145.2125
 20
41.6650
 30
0.0000
 40
0.7620
  0
INSERT
  8
17
  2
ROUNDP
 10
147.7525
 20
36.2675
 30
0.0000
 41
1.9304
 42
1.9304
 43
1.0000
 50
0.0000
  0
INSERT
  8
17
  2
ROUNDP
 10
147.7525
 20
36.2675
 30
0.0000
 41
1.9304
 42
1.9304
 43
1.0000
 50
0.0000
  0
CIRCLE
  8
44
 10
147.7525
 20
36.2675
 30
0.0000
 40
0.7620
  0
INSERT
  8
17
  2
ROUNDP
 10
145.2125
 20
30.8700
 30
0.0000
 41
1.9304
 42
1.9304
 43
1.0000
 50
0.0000
  0
INSERT
  8
17
  2
ROUNDP
 10
145.2125
 20
30.8700
 30
0.0000
 41
1.9304
 42
1.9304
 43
1.0000
 50
0.0000
  0
CIRCLE
  8
44
 10
145.2125
 20
30.8700
 30
0.0000
 40
0.7620
  0
INSERT
  8
17
  2
ROUNDP
 10
147.7525
 20
29.2825
 30
0.0000
 41
1.9304
 42
1.9304
 43
1.0000
 50
0.0000
  0
INSERT
  8
17
  2
ROUNDP
 10
147.7525
 20
29.2825
 30
0.0000
 41
1.9304
 42
1.9304
 43
1.0000
 50
0.0000
  0
CIRCLE
  8
44
 10
147.7525
 20
29.2825
 30
0.0000
 40
0.7620
  0
INSERT
  8
17
  2
ROUNDP
 10
144.8950
 20
23.5675
 30
0.0000
 41
1.9304
 42
1.9304
 43
1.0000
 50
0.0000
  0
INSERT
  8
17
  2
ROUNDP
 10
144.8950
 20
23.5675
 30
0.0000
 41
1.9304
 42
1.9304
 43
1.0000
 50
0.0000
  0
CIRCLE
  8
44
 10
144.8950
 20
23.5675
 30
0.0000
 40
0.7620
  0
INSERT
  8
17
  2
ROUNDP
 10
147.7525
 20
22.2975
 30
0.0000
 41
1.9304
 42
1.9304
 43
1.0000
 50
0.0000
  0
INSERT
  8
17
  2
ROUNDP
 10
147.7525
 20
22.2975
 30
0.0000
 41
1.9304
 42
1.9304
 43
1.0000
 50
0.0000
  0
CIRCLE
  8
44
 10
147.7525
 20
22.2975
 30
0.0000
 40
0.7620
  0
INSERT
  8
17
  2
ROUNDP
 10
142.3550
 20
18.4875
 30
0.0000
 41
1.9304
 42
1.9304
 43
1.0000
 50
0.0000
  0
INSERT
  8
17
  2
ROUNDP
 10
142.3550
 20
18.4875
 30
0.0000
 41
1.9304
 42
1.9304
 43
1.0000
 50
0.0000
  0
CIRCLE
  8
44
 10
142.3550
 20
18.4875
 30
0.0000
 40
0.7620
  0
INSERT
  8
17
  2
ROUNDP
 10
147.7525
 20
15.9475
 30
0.0000
 41
1.9304
 42
1.9304
 43
1.0000
 50
0.0000
  0
INSERT
  8
17
  2
ROUNDP
 10
147.7525
 20
15.9475
 30
0.0000
 41
1.9304
 42
1.9304
 43
1.0000
 50
0.0000
  0
CIRCLE
  8
44
 10
147.7525
 20
15.9475
 30
0.0000
 40
0.7620
  0
INSERT
  8
17
  2
ROUNDP
 10
142.0375
 20
11.5025
 30
0.0000
 41
1.9304
 42
1.9304
 43
1.0000
 50
0.0000
  0
INSERT
  8
17
  2
ROUNDP
 10
142.0375
 20
11.5025
 30
0.0000
 41
1.9304
 42
1.9304
 43
1.0000
 50
0.0000
  0
CIRCLE
  8
44
 10
142.0375
 20
11.5025
 30
0.0000
 40
0.7620
  0
INSERT
  8
17
  2
ROUNDP
 10
136.9575
 20
46.7450
 30
0.0000
 41
1.9304
 42
1.9304
 43
1.0000
 50
0.0000
  0
INSERT
  8
17
  2
ROUNDP
 10
136.9575
 20
46.7450
 30
0.0000
 41
1.9304
 42
1.9304
 43
1.0000
 50
0.0000
  0
CIRCLE
  8
44
 10
136.9575
 20
46.7450
 30
0.0000
 40
0.7620
  0
INSERT
  8
17
  2
ROUNDP
 10
136.9575
 20
43.2525
 30
0.0000
 41
1.9304
 42
1.9304
 43
1.0000
 50
0.0000
  0
INSERT
  8
17
  2
ROUNDP
 10
136.9575
 20
43.2525
 30
0.0000
 41
1.9304
 42
1.9304
 43
1.0000
 50
0.0000
  0
CIRCLE
  8
44
 10
136.9575
 20
43.2525
 30
0.0000
 40
0.7620
  0
INSERT
  8
17
  2
ROUNDP
 10
136.9575
 20
39.7600
 30
0.0000
 41
1.9304
 42
1.9304
 43
1.0000
 50
0.0000
  0
INSERT
  8
17
  2
ROUNDP
 10
136.9575
 20
39.7600
 30
0.0000
 41
1.9304
 42
1.9304
 43
1.0000
 50
0.0000
  0
CIRCLE
  8
44
 10
136.9575
 20
39.7600
 30
0.0000
 40
0.7620
  0
INSERT
  8
17
  2
ROUNDP
 10
142.6725
 20
36.2675
 30
0.0000
 41
1.9304
 42
1.9304
 43
1.0000
 50
0.0000
  0
INSERT
  8
17
  2
ROUNDP
 10
142.6725
 20
36.2675
 30
0.0000
 41
1.9304
 42
1.9304
 43
1.0000
 50
0.0000
  0
CIRCLE
  8
44
 10
142.6725
 20
36.2675
 30
0.0000
 40
0.7620
  0
INSERT
  8
17
  2
ROUNDP
 10
131.5600
 20
33.7275
 30
0.0000
 41
1.9304
 42
1.9304
 43
1.0000
 50
0.0000
  0
INSERT
  8
17
  2
ROUNDP
 10
131.5600
 20
33.7275
 30
0.0000
 41
1.9304
 42
1.9304
 43
1.0000
 50
0.0000
  0
CIRCLE
  8
44
 10
131.5600
 20
33.7275
 30
0.0000
 40
0.7620
  0
INSERT
  8
17
  2
ROUNDP
 10
142.3550
 20
29.2825
 30
0.0000
 41
1.9304
 42
1.9304
 43
1.0000
 50
0.0000
  0
INSERT
  8
17
  2
ROUNDP
 10
142.3550
 20
29.2825
 30
0.0000
 41
1.9304
 42
1.9304
 43
1.0000
 50
0.0000
  0
CIRCLE
  8
44
 10
142.3550
 20
29.2825
 30
0.0000
 40
0.7620
  0
INSERT
  8
17
  2
ROUNDP
 10
136.9575
 20
25.7900
 30
0.0000
 41
1.9304
 42
1.9304
 43
1.0000
 50
0.0000
  0
INSERT
  8
17
  2
ROUNDP
 10
136.9575
 20
25.7900
 30
0.0000
 41
1.9304
 42
1.9304
 43
1.0000
 50
0.0000
  0
CIRCLE
  8
44
 10
136.9575
 20
25.7900
 30
0.0000
 40
0.7620
  0
INSERT
  8
17
  2
ROUNDP
 10
136.9575
 20
21.6625
 30
0.0000
 41
1.9304
 42
1.9304
 43
1.0000
 50
0.0000
  0
INSERT
  8
17
  2
ROUNDP
 10
136.9575
 20
21.6625
 30
0.0000
 41
1.9304
 42
1.9304
 43
1.0000
 50
0.0000
  0
CIRCLE
  8
44
 10
136.9575
 20
21.6625
 30
0.0000
 40
0.7620
  0
INSERT
  8
17
  2
ROUNDP
 10
131.8775
 20
19.7575
 30
0.0000
 41
1.9304
 42
1.9304
 43
1.0000
 50
0.0000
  0
INSERT
  8
17
  2
ROUNDP
 10
131.8775
 20
19.7575
 30
0.0000
 41
1.9304
 42
1.9304
 43
1.0000
 50
0.0000
  0
CIRCLE
  8
44
 10
131.8775
 20
19.7575
 30
0.0000
 40
0.7620
  0
INSERT
  8
17
  2
ROUNDP
 10
142.2915
 20
15.8205
 30
0.0000
 41
1.9304
 42
1.9304
 43
1.0000
 50
0.0000
  0
INSERT
  8
17
  2
ROUNDP
 10
142.2915
 20
15.8205
 30
0.0000
 41
1.9304
 42
1.9304
 43
1.0000
 50
0.0000
  0
CIRCLE
  8
44
 10
142.2915
 20
15.8205
 30
0.0000
 40
0.7620
  0
INSERT
  8
17
  2
ROUNDP
 10
142.6090
 20
21.2180
 30
0.0000
 41
1.9304
 42
1.9304
 43
1.0000
 50
0.0000
  0
INSERT
  8
17
  2
ROUNDP
 10
142.6090
 20
21.2180
 30
0.0000
 41
1.9304
 42
1.9304
 43
1.0000
 50
0.0000
  0
CIRCLE
  8
44
 10
142.6090
 20
21.2180
 30
0.0000
 40
0.7620
  0
INSERT
  8
17
  2
ROUNDP
 10
122.9875
 20
52.4600
 30
0.0000
 41
1.9304
 42
1.9304
 43
1.0000
 50
180.0000
  0
INSERT
  8
17
  2
ROUNDP
 10
122.9875
 20
52.4600
 30
0.0000
 41
1.9304
 42
1.9304
 43
1.0000
 50
180.0000
  0
CIRCLE
  8
44
 10
122.9875
 20
52.4600
 30
0.0000
 40
0.7620
  0
INSERT
  8
17
  2
ROUNDP
 10
102.3500
 20
44.2050
 30
0.0000
 41
1.9304
 42
1.9304
 43
1.0000
 50
90.0000
  0
INSERT
  8
17
  2
ROUNDP
 10
102.3500
 20
44.2050
 30
0.0000
 41
1.9304
 42
1.9304
 43
1.0000
 50
90.0000
  0
CIRCLE
  8
44
 10
102.3500
 20
44.2050
 30
0.0000
 40
0.7620
  0
INSERT
  8
17
  2
OCTAGONP
 10
134.3540
 20
33.6640
 30
0.0000
 41
1.2192
 42
1.2192
 43
1.0000
 50
0.0000
  0
INSERT
  8
17
  2
OCTAGONP
 10
134.3540
 20
33.6640
 30
0.0000
 41
1.2192
 42
1.2192
 43
1.0000
 50
0.0000
  0
CIRCLE
  8
44
 10
134.3540
 20
33.6640
 30
0.0000
 40
0.4064
  0
INSERT
  8
17
  2
OCTAGONP
 10
136.8940
 20
33.6640
 30
0.0000
 41
1.2192
 42
1.2192
 43
1.0000
 50
0.0000
  0
INSERT
  8
17
  2
OCTAGONP
 10
136.8940
 20
33.6640
 30
0.0000
 41
1.2192
 42
1.2192
 43
1.0000
 50
0.0000
  0
CIRCLE
  8
44
 10
136.8940
 20
33.6640
 30
0.0000
 40
0.4064
  0
INSERT
  8
17
  2
ROUNDP
 10
102.6675
 20
13.0900
 30
0.0000
 41
1.9304
 42
1.9304
 43
1.0000
 50
90.0000
  0
INSERT
  8
17
  2
ROUNDP
 10
102.6675
 20
13.0900
 30
0.0000
 41
1.9304
 42
1.9304
 43
1.0000
 50
90.0000
  0
CIRCLE
  8
44
 10
102.6675
 20
13.0900
 30
0.0000
 40
0.7620
  0
INSERT
  8
17
  2
ROUNDP
 10
103.6200
 20
6.7400
 30
0.0000
 41
1.9304
 42
1.9304
 43
1.0000
 50
90.0000
  0
INSERT
  8
17
  2
ROUNDP
 10
103.6200
 20
6.7400
 30
0.0000
 41
1.9304
 42
1.9304
 43
1.0000
 50
90.0000
  0
CIRCLE
  8
44
 10
103.6200
 20
6.7400
 30
0.0000
 40
0.7620
  0
INSERT
  8
17
  2
ROUNDP
 10
98.2225
 20
34.0450
 30
0.0000
 41
1.9304
 42
1.9304
 43
1.0000
 50
90.0000
  0
INSERT
  8
17
  2
ROUNDP
 10
98.2225
 20
34.0450
 30
0.0000
 41
1.9304
 42
1.9304
 43
1.0000
 50
90.0000
  0
CIRCLE
  8
44
 10
98.2225
 20
34.0450
 30
0.0000
 40
0.7620
  0
INSERT
  8
17
  2
LONGP100
 10
17.7850
 20
49.2800
 30
0.0000
 41
2.1844
 42
2.1844
 43
1.0000
 50
0.0000
  0
INSERT
  8
17
  2
LONGP100
 10
17.7850
 20
49.2800
 30
0.0000
 41
2.1844
 42
2.1844
 43
1.0000
 50
0.0000
  0
CIRCLE
  8
44
 10
17.7850
 20
49.2800
 30
0.0000
 40
0.8890
  0
INSERT
  8
17
  2
LONGP100
 10
17.7850
 20
45.3200
 30
0.0000
 41
2.1844
 42
2.1844
 43
1.0000
 50
0.0000
  0
INSERT
  8
17
  2
LONGP100
 10
17.7850
 20
45.3200
 30
0.0000
 41
2.1844
 42
2.1844
 43
1.0000
 50
0.0000
  0
CIRCLE
  8
44
 10
17.7850
 20
45.3200
 30
0.0000
 40
0.8890
  0
INSERT
  8
17
  2
LONGP100
 10
17.7850
 20
41.3600
 30
0.0000
 41
2.1844
 42
2.1844
 43
1.0000
 50
0.0000
  0
INSERT
  8
17
  2
LONGP100
 10
17.7850
 20
41.3600
 30
0.0000
 41
2.1844
 42
2.1844
 43
1.0000
 50
0.0000
  0
CIRCLE
  8
44
 10
17.7850
 20
41.3600
 30
0.0000
 40
0.8890
  0
INSERT
  8
17
  2
LONGP100
 10
17.7850
 20
37.4000
 30
0.0000
 41
2.1844
 42
2.1844
 43
1.0000
 50
0.0000
  0
INSERT
  8
17
  2
LONGP100
 10
17.7850
 20
37.4000
 30
0.0000
 41
2.1844
 42
2.1844
 43
1.0000
 50
0.0000
  0
CIRCLE
  8
44
 10
17.7850
 20
37.4000
 30
0.0000
 40
0.8890
  0
INSERT
  8
17
  2
LONGP100
 10
17.7850
 20
33.4400
 30
0.0000
 41
2.1844
 42
2.1844
 43
1.0000
 50
0.0000
  0
INSERT
  8
17
  2
LONGP100
 10
17.7850
 20
33.4400
 30
0.0000
 41
2.1844
 42
2.1844
 43
1.0000
 50
0.0000
  0
CIRCLE
  8
44
 10
17.7850
 20
33.4400
 30
0.0000
 40
0.8890
  0
INSERT
  8
17
  2
LONGP100
 10
17.7850
 20
29.4800
 30
0.0000
 41
2.1844
 42
2.1844
 43
1.0000
 50
0.0000
  0
INSERT
  8
17
  2
LONGP100
 10
17.7850
 20
29.4800
 30
0.0000
 41
2.1844
 42
2.1844
 43
1.0000
 50
0.0000
  0
CIRCLE
  8
44
 10
17.7850
 20
29.4800
 30
0.0000
 40
0.8890
  0
INSERT
  8
17
  2
LONGP100
 10
17.7850
 20
25.5200
 30
0.0000
 41
2.1844
 42
2.1844
 43
1.0000
 50
0.0000
  0
INSERT
  8
17
  2
LONGP100
 10
17.7850
 20
25.5200
 30
0.0000
 41
2.1844
 42
2.1844
 43
1.0000
 50
0.0000
  0
CIRCLE
  8
44
 10
17.7850
 20
25.5200
 30
0.0000
 40
0.8890
  0
INSERT
  8
17
  2
LONGP100
 10
17.7850
 20
21.5600
 30
0.0000
 41
2.1844
 42
2.1844
 43
1.0000
 50
0.0000
  0
INSERT
  8
17
  2
LONGP100
 10
17.7850
 20
21.5600
 30
0.0000
 41
2.1844
 42
2.1844
 43
1.0000
 50
0.0000
  0
CIRCLE
  8
44
 10
17.7850
 20
21.5600
 30
0.0000
 40
0.8890
  0
INSERT
  8
17
  2
LONGP100
 10
17.7850
 20
17.6000
 30
0.0000
 41
2.1844
 42
2.1844
 43
1.0000
 50
0.0000
  0
INSERT
  8
17
  2
LONGP100
 10
17.7850
 20
17.6000
 30
0.0000
 41
2.1844
 42
2.1844
 43
1.0000
 50
0.0000
  0
CIRCLE
  8
44
 10
17.7850
 20
17.6000
 30
0.0000
 40
0.8890
  0
INSERT
  8
17
  2
LONGP100
 10
17.7850
 20
13.6400
 30
0.0000
 41
2.1844
 42
2.1844
 43
1.0000
 50
0.0000
  0
INSERT
  8
17
  2
LONGP100
 10
17.7850
 20
13.6400
 30
0.0000
 41
2.1844
 42
2.1844
 43
1.0000
 50
0.0000
  0
CIRCLE
  8
44
 10
17.7850
 20
13.6400
 30
0.0000
 40
0.8890
  0
INSERT
  8
17
  2
LONGP100
 10
17.7850
 20
9.6800
 30
0.0000
 41
2.1844
 42
2.1844
 43
1.0000
 50
0.0000
  0
INSERT
  8
17
  2
LONGP100
 10
17.7850
 20
9.6800
 30
0.0000
 41
2.1844
 42
2.1844
 43
1.0000
 50
0.0000
  0
CIRCLE
  8
44
 10
17.7850
 20
9.6800
 30
0.0000
 40
0.8890
  0
INSERT
  8
17
  2
LONGP100
 10
17.7850
 20
5.7200
 30
0.0000
 41
2.1844
 42
2.1844
 43
1.0000
 50
0.0000
  0
INSERT
  8
17
  2
LONGP100
 10
17.7850
 20
5.7200
 30
0.0000
 41
2.1844
 42
2.1844
 43
1.0000
 50
0.0000
  0
CIRCLE
  8
44
 10
17.7850
 20
5.7200
 30
0.0000
 40
0.8890
  0
INSERT
  8
17
  2
LONGP100
 10
39.4850
 20
49.2800
 30
0.0000
 41
2.1844
 42
2.1844
 43
1.0000
 50
0.0000
  0
INSERT
  8
17
  2
LONGP100
 10
39.4850
 20
49.2800
 30
0.0000
 41
2.1844
 42
2.1844
 43
1.0000
 50
0.0000
  0
CIRCLE
  8
44
 10
39.4850
 20
49.2800
 30
0.0000
 40
0.8890
  0
INSERT
  8
17
  2
LONGP100
 10
39.4850
 20
45.3200
 30
0.0000
 41
2.1844
 42
2.1844
 43
1.0000
 50
0.0000
  0
INSERT
  8
17
  2
LONGP100
 10
39.4850
 20
45.3200
 30
0.0000
 41
2.1844
 42
2.1844
 43
1.0000
 50
0.0000
  0
CIRCLE
  8
44
 10
39.4850
 20
45.3200
 30
0.0000
 40
0.8890
  0
INSERT
  8
17
  2
LONGP100
 10
39.4850
 20
41.3600
 30
0.0000
 41
2.1844
 42
2.1844
 43
1.0000
 50
0.0000
  0
INSERT
  8
17
  2
LONGP100
 10
39.4850
 20
41.3600
 30
0.0000
 41
2.1844
 42
2.1844
 43
1.0000
 50
0.0000
  0
CIRCLE
  8
44
 10
39.4850
 20
41.3600
 30
0.0000
 40
0.8890
  0
INSERT
  8
17
  2
LONGP100
 10
39.4850
 20
37.4000
 30
0.0000
 41
2.1844
 42
2.1844
 43
1.0000
 50
0.0000
  0
INSERT
  8
17
  2
LONGP100
 10
39.4850
 20
37.4000
 30
0.0000
 41
2.1844
 42
2.1844
 43
1.0000
 50
0.0000
  0
CIRCLE
  8
44
 10
39.4850
 20
37.4000
 30
0.0000
 40
0.8890
  0
INSERT
  8
17
  2
LONGP100
 10
39.4850
 20
33.4400
 30
0.0000
 41
2.1844
 42
2.1844
 43
1.0000
 50
0.0000
  0
INSERT
  8
17
  2
LONGP100
 10
39.4850
 20
33.4400
 30
0.0000
 41
2.1844
 42
2.1844
 43
1.0000
 50
0.0000
  0
CIRCLE
  8
44
 10
39.4850
 20
33.4400
 30
0.0000
 40
0.8890
  0
INSERT
  8
17
  2
LONGP100
 10
39.4850
 20
29.4800
 30
0.0000
 41
2.1844
 42
2.1844
 43
1.0000
 50
0.0000
  0
INSERT
  8
17
  2
LONGP100
 10
39.4850
 20
29.4800
 30
0.0000
 41
2.1844
 42
2.1844
 43
1.0000
 50
0.0000
  0
CIRCLE
  8
44
 10
39.4850
 20
29.4800
 30
0.0000
 40
0.8890
  0
INSERT
  8
17
  2
LONGP100
 10
39.4850
 20
25.5200
 30
0.0000
 41
2.1844
 42
2.1844
 43
1.0000
 50
0.0000
  0
INSERT
  8
17
  2
LONGP100
 10
39.4850
 20
25.5200
 30
0.0000
 41
2.1844
 42
2.1844
 43
1.0000
 50
0.0000
  0
CIRCLE
  8
44
 10
39.4850
 20
25.5200
 30
0.0000
 40
0.8890
  0
INSERT
  8
17
  2
LONGP100
 10
39.4850
 20
21.5600
 30
0.0000
 41
2.1844
 42
2.1844
 43
1.0000
 50
0.0000
  0
INSERT
  8
17
  2
LONGP100
 10
39.4850
 20
21.5600
 30
0.0000
 41
2.1844
 42
2.1844
 43
1.0000
 50
0.0000
  0
CIRCLE
  8
44
 10
39.4850
 20
21.5600
 30
0.0000
 40
0.8890
  0
INSERT
  8
17
  2
LONGP100
 10
39.4850
 20
17.6000
 30
0.0000
 41
2.1844
 42
2.1844
 43
1.0000
 50
0.0000
  0
INSERT
  8
17
  2
LONGP100
 10
39.4850
 20
17.6000
 30
0.0000
 41
2.1844
 42
2.1844
 43
1.0000
 50
0.0000
  0
CIRCLE
  8
44
 10
39.4850
 20
17.6000
 30
0.0000
 40
0.8890
  0
INSERT
  8
17
  2
LONGP100
 10
39.4850
 20
13.6400
 30
0.0000
 41
2.1844
 42
2.1844
 43
1.0000
 50
0.0000
  0
INSERT
  8
17
  2
LONGP100
 10
39.4850
 20
13.6400
 30
0.0000
 41
2.1844
 42
2.1844
 43
1.0000
 50
0.0000
  0
CIRCLE
  8
44
 10
39.4850
 20
13.6400
 30
0.0000
 40
0.8890
  0
INSERT
  8
17
  2
LONGP100
 10
39.4850
 20
9.6800
 30
0.0000
 41
2.1844
 42
2.1844
 43
1.0000
 50
0.0000
  0
INSERT
  8
17
  2
LONGP100
 10
39.4850
 20
9.6800
 30
0.0000
 41
2.1844
 42
2.1844
 43
1.0000
 50
0.0000
  0
CIRCLE
  8
44
 10
39.4850
 20
9.6800
 30
0.0000
 40
0.8890
  0
INSERT
  8
17
  2
LONGP100
 10
39.4850
 20
5.7200
 30
0.0000
 41
2.1844
 42
2.1844
 43
1.0000
 50
0.0000
  0
INSERT
  8
17
  2
LONGP100
 10
39.4850
 20
5.7200
 30
0.0000
 41
2.1844
 42
2.1844
 43
1.0000
 50
0.0000
  0
CIRCLE
  8
44
 10
39.4850
 20
5.7200
 30
0.0000
 40
0.8890
  0
INSERT
  8
17
  2
LONGP100
 10
88.2650
 20
8.8900
 30
0.0000
 41
1.4064
 42
1.4064
 43
1.0000
 50
180.0000
  0
INSERT
  8
17
  2
LONGP100
 10
88.2650
 20
8.8900
 30
0.0000
 41
1.4064
 42
1.4064
 43
1.0000
 50
180.0000
  0
CIRCLE
  8
44
 10
88.2650
 20
8.8900
 30
0.0000
 40
0.5000
  0
INSERT
  8
17
  2
LONGP100
 10
88.2650
 20
11.4300
 30
0.0000
 41
1.4064
 42
1.4064
 43
1.0000
 50
180.0000
  0
INSERT
  8
17
  2
LONGP100
 10
88.2650
 20
11.4300
 30
0.0000
 41
1.4064
 42
1.4064
 43
1.0000
 50
180.0000
  0
CIRCLE
  8
44
 10
88.2650
 20
11.4300
 30
0.0000
 40
0.5000
  0
INSERT
  8
17
  2
LONGP100
 10
83.5025
 20
51.4350
 30
0.0000
 41
1.4064
 42
1.4064
 43
1.0000
 50
270.0000
  0
INSERT
  8
17
  2
LONGP100
 10
83.5025
 20
51.4350
 30
0.0000
 41
1.4064
 42
1.4064
 43
1.0000
 50
270.0000
  0
CIRCLE
  8
44
 10
83.5025
 20
51.4350
 30
0.0000
 40
0.5000
  0
INSERT
  8
17
  2
LONGP100
 10
80.9625
 20
51.4350
 30
0.0000
 41
1.4064
 42
1.4064
 43
1.0000
 50
270.0000
  0
INSERT
  8
17
  2
LONGP100
 10
80.9625
 20
51.4350
 30
0.0000
 41
1.4064
 42
1.4064
 43
1.0000
 50
270.0000
  0
CIRCLE
  8
44
 10
80.9625
 20
51.4350
 30
0.0000
 40
0.5000
  0
INSERT
  8
17
  2
LONGP100
 10
78.4225
 20
51.4350
 30
0.0000
 41
1.4064
 42
1.4064
 43
1.0000
 50
270.0000
  0
INSERT
  8
17
  2
LONGP100
 10
78.4225
 20
51.4350
 30
0.0000
 41
1.4064
 42
1.4064
 43
1.0000
 50
270.0000
  0
CIRCLE
  8
44
 10
78.4225
 20
51.4350
 30
0.0000
 40
0.5000
  0
INSERT
  8
17
  2
LONGP100
 10
75.8825
 20
51.4350
 30
0.0000
 41
1.4064
 42
1.4064
 43
1.0000
 50
270.0000
  0
INSERT
  8
17
  2
LONGP100
 10
75.8825
 20
51.4350
 30
0.0000
 41
1.4064
 42
1.4064
 43
1.0000
 50
270.0000
  0
CIRCLE
  8
44
 10
75.8825
 20
51.4350
 30
0.0000
 40
0.5000
  0
INSERT
  8
17
  2
LONGP100
 10
73.3425
 20
51.4350
 30
0.0000
 41
1.4064
 42
1.4064
 43
1.0000
 50
270.0000
  0
INSERT
  8
17
  2
LONGP100
 10
73.3425
 20
51.4350
 30
0.0000
 41
1.4064
 42
1.4064
 43
1.0000
 50
270.0000
  0
CIRCLE
  8
44
 10
73.3425
 20
51.4350
 30
0.0000
 40
0.5000
  0
INSERT
  8
17
  2
LONGP100
 10
7.9375
 20
38.7350
 30
0.0000
 41
1.4064
 42
1.4064
 43
1.0000
 50
180.0000
  0
INSERT
  8
17
  2
LONGP100
 10
7.9375
 20
38.7350
 30
0.0000
 41
1.4064
 42
1.4064
 43
1.0000
 50
180.0000
  0
CIRCLE
  8
44
 10
7.9375
 20
38.7350
 30
0.0000
 40
0.5000
  0
INSERT
  8
17
  2
LONGP100
 10
7.9375
 20
41.2750
 30
0.0000
 41
1.4064
 42
1.4064
 43
1.0000
 50
180.0000
  0
INSERT
  8
17
  2
LONGP100
 10
7.9375
 20
41.2750
 30
0.0000
 41
1.4064
 42
1.4064
 43
1.0000
 50
180.0000
  0
CIRCLE
  8
44
 10
7.9375
 20
41.2750
 30
0.0000
 40
0.5000
  0
INSERT
  8
17
  2
LONGP100
 10
7.9375
 20
43.8150
 30
0.0000
 41
1.4064
 42
1.4064
 43
1.0000
 50
180.0000
  0
INSERT
  8
17
  2
LONGP100
 10
7.9375
 20
43.8150
 30
0.0000
 41
1.4064
 42
1.4064
 43
1.0000
 50
180.0000
  0
CIRCLE
  8
44
 10
7.9375
 20
43.8150
 30
0.0000
 40
0.5000
  0
INSERT
  8
17
  2
LONGP100
 10
7.9375
 20
46.3550
 30
0.0000
 41
1.4064
 42
1.4064
 43
1.0000
 50
180.0000
  0
INSERT
  8
17
  2
LONGP100
 10
7.9375
 20
46.3550
 30
0.0000
 41
1.4064
 42
1.4064
 43
1.0000
 50
180.0000
  0
CIRCLE
  8
44
 10
7.9375
 20
46.3550
 30
0.0000
 40
0.5000
  0
INSERT
  8
17
  2
LONGP100
 10
7.9375
 20
48.8950
 30
0.0000
 41
1.4064
 42
1.4064
 43
1.0000
 50
180.0000
  0
INSERT
  8
17
  2
LONGP100
 10
7.9375
 20
48.8950
 30
0.0000
 41
1.4064
 42
1.4064
 43
1.0000
 50
180.0000
  0
CIRCLE
  8
44
 10
7.9375
 20
48.8950
 30
0.0000
 40
0.5000
  0
INSERT
  8
17
  2
ROUNDP
 10
43.1800
 20
5.8420
 30
0.0000
 41
1.4224
 42
1.4224
 43
1.0000
 50
180.0000
  0
INSERT
  8
17
  2
ROUNDP
 10
43.1800
 20
5.8420
 30
0.0000
 41
1.4224
 42
1.4224
 43
1.0000
 50
180.0000
  0
CIRCLE
  8
44
 10
43.1800
 20
5.8420
 30
0.0000
 40
0.5080
  0
INSERT
  8
17
  2
ROUNDP
 10
43.1800
 20
37.8460
 30
0.0000
 41
1.4224
 42
1.4224
 43
1.0000
 50
180.0000
  0
INSERT
  8
17
  2
ROUNDP
 10
43.1800
 20
37.8460
 30
0.0000
 41
1.4224
 42
1.4224
 43
1.0000
 50
180.0000
  0
CIRCLE
  8
44
 10
43.1800
 20
37.8460
 30
0.0000
 40
0.5080
  0
INSERT
  8
17
  2
OCTAGONP
 10
138.7990
 20
51.0630
 30
0.0000
 41
1.2192
 42
1.2192
 43
1.0000
 50
0.0000
  0
INSERT
  8
17
  2
OCTAGONP
 10
138.7990
 20
51.0630
 30
0.0000
 41
1.2192
 42
1.2192
 43
1.0000
 50
0.0000
  0
CIRCLE
  8
44
 10
138.7990
 20
51.0630
 30
0.0000
 40
0.4064
  0
INSERT
  8
17
  2
OCTAGONP
 10
141.3390
 20
51.0630
 30
0.0000
 41
1.2192
 42
1.2192
 43
1.0000
 50
0.0000
  0
INSERT
  8
17
  2
OCTAGONP
 10
141.3390
 20
51.0630
 30
0.0000
 41
1.2192
 42
1.2192
 43
1.0000
 50
0.0000
  0
CIRCLE
  8
44
 10
141.3390
 20
51.0630
 30
0.0000
 40
0.4064
  0
INSERT
  8
17
  2
OCTAGONP
 10
130.8615
 20
43.0620
 30
0.0000
 41
1.2192
 42
1.2192
 43
1.0000
 50
0.0000
  0
INSERT
  8
17
  2
OCTAGONP
 10
130.8615
 20
43.0620
 30
0.0000
 41
1.2192
 42
1.2192
 43
1.0000
 50
0.0000
  0
CIRCLE
  8
44
 10
130.8615
 20
43.0620
 30
0.0000
 40
0.4064
  0
INSERT
  8
17
  2
OCTAGONP
 10
133.4015
 20
43.0620
 30
0.0000
 41
1.2192
 42
1.2192
 43
1.0000
 50
0.0000
  0
INSERT
  8
17
  2
OCTAGONP
 10
133.4015
 20
43.0620
 30
0.0000
 41
1.2192
 42
1.2192
 43
1.0000
 50
0.0000
  0
CIRCLE
  8
44
 10
133.4015
 20
43.0620
 30
0.0000
 40
0.4064
  0
INSERT
  8
18
  2
ROUNDV
 10
60.0075
 20
10.1600
 30
0.0000
 41
0.9048
 42
0.9048
 43
1.0000
 50
0.0000
  0
CIRCLE
  8
44
 10
60.0075
 20
10.1600
 30
0.0000
 40
0.3000
  0
INSERT
  8
18
  2
ROUNDV
 10
35.8775
 20
39.3700
 30
0.0000
 41
0.9048
 42
0.9048
 43
1.0000
 50
0.0000
  0
CIRCLE
  8
44
 10
35.8775
 20
39.3700
 30
0.0000
 40
0.3000
  0
INSERT
  8
18
  2
ROUNDV
 10
86.9950
 20
51.4350
 30
0.0000
 41
0.9048
 42
0.9048
 43
1.0000
 50
0.0000
  0
CIRCLE
  8
44
 10
86.9950
 20
51.4350
 30
0.0000
 40
0.3000
  0
INSERT
  8
18
  2
ROUNDV
 10
22.5425
 20
32.7025
 30
0.0000
 41
0.9048
 42
0.9048
 43
1.0000
 50
0.0000
  0
CIRCLE
  8
44
 10
22.5425
 20
32.7025
 30
0.0000
 40
0.3000
  0
INSERT
  8
18
  2
ROUNDV
 10
21.2725
 20
27.6225
 30
0.0000
 41
0.9048
 42
0.9048
 43
1.0000
 50
0.0000
  0
CIRCLE
  8
44
 10
21.2725
 20
27.6225
 30
0.0000
 40
0.3000
  0
INSERT
  8
18
  2
ROUNDV
 10
58.1025
 20
45.4025
 30
0.0000
 41
0.9048
 42
0.9048
 43
1.0000
 50
0.0000
  0
CIRCLE
  8
44
 10
58.1025
 20
45.4025
 30
0.0000
 40
0.3000
  0
INSERT
  8
18
  2
ROUNDV
 10
57.5945
 20
48.3235
 30
0.0000
 41
0.9048
 42
0.9048
 43
1.0000
 50
0.0000
  0
CIRCLE
  8
44
 10
57.5945
 20
48.3235
 30
0.0000
 40
0.3000
  0
INSERT
  8
18
  2
ROUNDV
 10
59.3725
 20
46.0375
 30
0.0000
 41
0.9048
 42
0.9048
 43
1.0000
 50
0.0000
  0
CIRCLE
  8
44
 10
59.3725
 20
46.0375
 30
0.0000
 40
0.3000
  0
INSERT
  8
18
  2
ROUNDV
 10
71.1200
 20
22.2250
 30
0.0000
 41
0.9048
 42
0.9048
 43
1.0000
 50
0.0000
  0
CIRCLE
  8
44
 10
71.1200
 20
22.2250
 30
0.0000
 40
0.3000
  0
INSERT
  8
18
  2
ROUNDV
 10
6.3500
 20
5.3975
 30
0.0000
 41
0.9048
 42
0.9048
 43
1.0000
 50
0.0000
  0
CIRCLE
  8
44
 10
6.3500
 20
5.3975
 30
0.0000
 40
0.3000
  0
INSERT
  8
18
  2
ROUNDV
 10
63.5000
 20
7.9375
 30
0.0000
 41
0.9048
 42
0.9048
 43
1.0000
 50
0.0000
  0
CIRCLE
  8
44
 10
63.5000
 20
7.9375
 30
0.0000
 40
0.3000
  0
INSERT
  8
18
  2
ROUNDV
 10
80.9625
 20
41.9100
 30
0.0000
 41
0.9048
 42
0.9048
 43
1.0000
 50
0.0000
  0
CIRCLE
  8
44
 10
80.9625
 20
41.9100
 30
0.0000
 40
0.3000
  0
INSERT
  8
18
  2
ROUNDV
 10
83.8200
 20
44.7675
 30
0.0000
 41
0.9048
 42
0.9048
 43
1.0000
 50
0.0000
  0
CIRCLE
  8
44
 10
83.8200
 20
44.7675
 30
0.0000
 40
0.3000
  0
INSERT
  8
18
  2
ROUNDV
 10
12.3825
 20
25.4000
 30
0.0000
 41
0.9048
 42
0.9048
 43
1.0000
 50
0.0000
  0
CIRCLE
  8
44
 10
12.3825
 20
25.4000
 30
0.0000
 40
0.3000
  0
INSERT
  8
18
  2
ROUNDV
 10
82.5500
 20
36.1950
 30
0.0000
 41
0.9048
 42
0.9048
 43
1.0000
 50
0.0000
  0
CIRCLE
  8
44
 10
82.5500
 20
36.1950
 30
0.0000
 40
0.3000
  0
INSERT
  8
18
  2
ROUNDV
 10
86.9950
 20
38.0975
 30
0.0000
 41
0.9048
 42
0.9048
 43
1.0000
 50
0.0000
  0
CIRCLE
  8
44
 10
86.9950
 20
38.0975
 30
0.0000
 40
0.3000
  0
INSERT
  8
18
  2
ROUNDV
 10
88.4175
 20
50.3650
 30
0.0000
 41
0.9048
 42
0.9048
 43
1.0000
 50
0.0000
  0
CIRCLE
  8
44
 10
88.4175
 20
50.3650
 30
0.0000
 40
0.3000
  0
INSERT
  8
18
  2
ROUNDV
 10
10.1600
 20
22.2250
 30
0.0000
 41
0.9048
 42
0.9048
 43
1.0000
 50
0.0000
  0
CIRCLE
  8
44
 10
10.1600
 20
22.2250
 30
0.0000
 40
0.3000
  0
INSERT
  8
18
  2
ROUNDV
 10
46.6725
 20
26.0350
 30
0.0000
 41
0.9048
 42
0.9048
 43
1.0000
 50
0.0000
  0
CIRCLE
  8
44
 10
46.6725
 20
26.0350
 30
0.0000
 40
0.3000
  0
INSERT
  8
18
  2
ROUNDV
 10
32.0675
 20
31.4325
 30
0.0000
 41
0.9048
 42
0.9048
 43
1.0000
 50
0.0000
  0
CIRCLE
  8
44
 10
32.0675
 20
31.4325
 30
0.0000
 40
0.3000
  0
INSERT
  8
18
  2
ROUNDV
 10
79.0575
 20
46.6725
 30
0.0000
 41
0.9048
 42
0.9048
 43
1.0000
 50
0.0000
  0
CIRCLE
  8
44
 10
79.0575
 20
46.6725
 30
0.0000
 40
0.3000
  0
INSERT
  8
18
  2
ROUNDV
 10
58.4200
 20
36.8300
 30
0.0000
 41
1.1176
 42
1.1176
 43
1.0000
 50
0.0000
  0
CIRCLE
  8
44
 10
58.4200
 20
36.8300
 30
0.0000
 40
0.4064
  0
INSERT
  8
18
  2
ROUNDV
 10
56.1975
 20
35.2425
 30
0.0000
 41
0.9048
 42
0.9048
 43
1.0000
 50
0.0000
  0
CIRCLE
  8
44
 10
56.1975
 20
35.2425
 30
0.0000
 40
0.3000
  0
INSERT
  8
18
  2
ROUNDV
 10
72.3900
 20
34.9250
 30
0.0000
 41
0.9048
 42
0.9048
 43
1.0000
 50
0.0000
  0
CIRCLE
  8
44
 10
72.3900
 20
34.9250
 30
0.0000
 40
0.3000
  0
INSERT
  8
18
  2
ROUNDV
 10
56.5150
 20
23.3585
 30
0.0000
 41
0.9048
 42
0.9048
 43
1.0000
 50
0.0000
  0
CIRCLE
  8
44
 10
56.5150
 20
23.3585
 30
0.0000
 40
0.3000
  0
INSERT
  8
18
  2
ROUNDV
 10
22.5425
 20
34.2900
 30
0.0000
 41
0.9048
 42
0.9048
 43
1.0000
 50
0.0000
  0
CIRCLE
  8
44
 10
22.5425
 20
34.2900
 30
0.0000
 40
0.3000
  0
INSERT
  8
18
  2
ROUNDV
 10
33.3375
 20
34.9250
 30
0.0000
 41
0.9048
 42
0.9048
 43
1.0000
 50
0.0000
  0
CIRCLE
  8
44
 10
33.3375
 20
34.9250
 30
0.0000
 40
0.3000
  0
INSERT
  8
18
  2
ROUNDV
 10
90.4875
 20
14.2875
 30
0.0000
 41
0.9048
 42
0.9048
 43
1.0000
 50
0.0000
  0
CIRCLE
  8
44
 10
90.4875
 20
14.2875
 30
0.0000
 40
0.3000
  0
INSERT
  8
18
  2
ROUNDV
 10
88.9000
 20
38.7350
 30
0.0000
 41
0.9048
 42
0.9048
 43
1.0000
 50
0.0000
  0
CIRCLE
  8
44
 10
88.9000
 20
38.7350
 30
0.0000
 40
0.3000
  0
INSERT
  8
18
  2
ROUNDV
 10
90.8050
 20
49.5300
 30
0.0000
 41
0.9048
 42
0.9048
 43
1.0000
 50
0.0000
  0
CIRCLE
  8
44
 10
90.8050
 20
49.5300
 30
0.0000
 40
0.3000
  0
INSERT
  8
18
  2
ROUNDV
 10
93.3450
 20
20.6375
 30
0.0000
 41
0.9048
 42
0.9048
 43
1.0000
 50
0.0000
  0
CIRCLE
  8
44
 10
93.3450
 20
20.6375
 30
0.0000
 40
0.3000
  0
INSERT
  8
18
  2
ROUNDV
 10
52.7050
 20
24.4475
 30
0.0000
 41
0.9048
 42
0.9048
 43
1.0000
 50
0.0000
  0
CIRCLE
  8
44
 10
52.7050
 20
24.4475
 30
0.0000
 40
0.3000
  0
INSERT
  8
18
  2
ROUNDV
 10
43.4975
 20
25.4000
 30
0.0000
 41
0.9048
 42
0.9048
 43
1.0000
 50
0.0000
  0
CIRCLE
  8
44
 10
43.4975
 20
25.4000
 30
0.0000
 40
0.3000
  0
INSERT
  8
18
  2
ROUNDV
 10
34.6075
 20
15.7163
 30
0.0000
 41
0.9048
 42
0.9048
 43
1.0000
 50
0.0000
  0
CIRCLE
  8
44
 10
34.6075
 20
15.7163
 30
0.0000
 40
0.3000
  0
INSERT
  8
18
  2
ROUNDV
 10
27.9400
 20
17.7800
 30
0.0000
 41
0.9048
 42
0.9048
 43
1.0000
 50
0.0000
  0
CIRCLE
  8
44
 10
27.9400
 20
17.7800
 30
0.0000
 40
0.3000
  0
INSERT
  8
18
  2
ROUNDV
 10
65.4050
 20
39.6875
 30
0.0000
 41
0.9048
 42
0.9048
 43
1.0000
 50
0.0000
  0
CIRCLE
  8
44
 10
65.4050
 20
39.6875
 30
0.0000
 40
0.3000
  0
INSERT
  8
18
  2
ROUNDV
 10
92.7100
 20
30.4800
 30
0.0000
 41
0.9048
 42
0.9048
 43
1.0000
 50
0.0000
  0
CIRCLE
  8
44
 10
92.7100
 20
30.4800
 30
0.0000
 40
0.3000
  0
INSERT
  8
18
  2
ROUNDV
 10
92.3925
 20
27.9400
 30
0.0000
 41
0.9048
 42
0.9048
 43
1.0000
 50
0.0000
  0
CIRCLE
  8
44
 10
92.3925
 20
27.9400
 30
0.0000
 40
0.3000
  0
INSERT
  8
18
  2
ROUNDV
 10
92.7100
 20
50.8000
 30
0.0000
 41
0.9048
 42
0.9048
 43
1.0000
 50
0.0000
  0
CIRCLE
  8
44
 10
92.7100
 20
50.8000
 30
0.0000
 40
0.3000
  0
INSERT
  8
18
  2
ROUNDV
 10
91.4400
 20
21.5900
 30
0.0000
 41
0.9048
 42
0.9048
 43
1.0000
 50
0.0000
  0
CIRCLE
  8
44
 10
91.4400
 20
21.5900
 30
0.0000
 40
0.3000
  0
INSERT
  8
18
  2
ROUNDV
 10
90.1700
 20
37.4650
 30
0.0000
 41
0.9048
 42
0.9048
 43
1.0000
 50
0.0000
  0
CIRCLE
  8
44
 10
90.1700
 20
37.4650
 30
0.0000
 40
0.3000
  0
INSERT
  8
18
  2
ROUNDV
 10
14.9225
 20
1.9050
 30
0.0000
 41
0.9048
 42
0.9048
 43
1.0000
 50
0.0000
  0
CIRCLE
  8
44
 10
14.9225
 20
1.9050
 30
0.0000
 40
0.3000
  0
INSERT
  8
18
  2
ROUNDV
 10
8.2550
 20
3.1750
 30
0.0000
 41
0.9048
 42
0.9048
 43
1.0000
 50
0.0000
  0
CIRCLE
  8
44
 10
8.2550
 20
3.1750
 30
0.0000
 40
0.3000
  0
INSERT
  8
18
  2
ROUNDV
 10
130.6075
 20
26.1075
 30
0.0000
 41
0.9144
 42
0.9144
 43
1.0000
 50
0.0000
  0
CIRCLE
  8
44
 10
130.6075
 20
26.1075
 30
0.0000
 40
0.3048
  0
INSERT
  8
18
  2
ROUNDV
 10
125.5275
 20
17.8525
 30
0.0000
 41
0.9144
 42
0.9144
 43
1.0000
 50
0.0000
  0
CIRCLE
  8
44
 10
125.5275
 20
17.8525
 30
0.0000
 40
0.3048
  0
INSERT
  8
18
  2
ROUNDV
 10
110.6050
 20
14.3600
 30
0.0000
 41
0.9144
 42
0.9144
 43
1.0000
 50
0.0000
  0
CIRCLE
  8
44
 10
110.6050
 20
14.3600
 30
0.0000
 40
0.3048
  0
INSERT
  8
18
  2
ROUNDV
 10
124.2575
 20
14.9950
 30
0.0000
 41
0.9144
 42
0.9144
 43
1.0000
 50
0.0000
  0
CIRCLE
  8
44
 10
124.2575
 20
14.9950
 30
0.0000
 40
0.3048
  0
ENDSEC
  0
EOF
