%
M48
M72
T01C0.0236
T02C0.0320
T03C0.0394
T04C0.0400
T05C0.0440
T06C0.0700
T07C0.0860
%
T01
X1755Y1000
X2005Y1150
X2255Y1000
X9580Y3650
X11130Y3650
X14730Y7250
X14380Y8300
X15430Y8450
X9380Y8650
X9480Y9750
X10755Y12225
X11355Y12225
X15030Y11400
X16230Y12200
X17430Y11400
X19030Y12200
X20555Y12375
X20530Y12950
X23230Y15475
X25980Y13600
X26530Y11200
X33080Y9200
X33080Y7300
X33080Y6100
X33105Y4475
X27080Y4150
X22080Y1150
X21830Y1000
X22330Y1000
X19330Y3550
X19330Y5550
X33780Y13400
X31630Y14750
X29355Y16350
X30480Y17475
X28605Y18225
X31730Y20100
X32755Y20375
X33030Y20200
X33305Y20375
X33980Y19850
X33080Y19350
X22355Y20375
X22080Y20200
X21805Y20375
X14630Y18500
X2280Y20375
X2005Y20200
X1730Y20375
T02
X20480Y14600
X21280Y12744
X22280Y12744
X22280Y11366
X21280Y11366
X21280Y9988
X22280Y9988
X22280Y8610
X21280Y8610
X21280Y7232
X22280Y7232
X22280Y5854
X21280Y5854
X21280Y4476
X22280Y4476
X21580Y3250
X22330Y2750
X21580Y2250
T03
X1280Y18175
X1280Y11175
X1280Y10075
X1280Y3075
X32230Y3350
X32230Y4350
X30355Y20100
X29355Y20100
X28355Y20100
X27355Y20100
X26355Y20100
T04
X20530Y19600
X23930Y20100
X24930Y20100
X34455Y1875
X34005Y1750
X33530Y1525
X32755Y1275
X34955Y1900
X11680Y2150
T05
X23765Y3098
X25931Y4476
X28015Y3098
X30181Y4476
X28015Y5854
X25931Y7232
X23765Y5854
X23765Y8610
X25931Y9988
X28015Y11366
X30181Y9988
X28015Y8610
X30181Y7232
X23765Y11366
X25931Y12744
X28015Y14122
X30181Y12744
X30181Y15500
X28015Y16878
X25931Y18256
X23765Y16878
X25931Y15500
X23765Y14122
X18230Y13950
X17230Y13950
X16230Y13950
X30181Y18256
T06
X4482Y2102
X4482Y3661
X4482Y5220
X4482Y6779
X4482Y8338
X4482Y9897
X4482Y11456
X4482Y13015
X4482Y14574
X4482Y16133
X4482Y17693
X4482Y19252
X13025Y19252
X13025Y17693
X13025Y16133
X13025Y14574
X13025Y13015
X13025Y11456
X13025Y9897
X13025Y8338
X13025Y6779
X13025Y5220
X13025Y3661
X13025Y2102
T07
X34685Y2645
M30
