G75*
%MOIN*%
%OFA0B0*%
%FSLAX24Y24*%
%IPPOS*%
%LPD*%
%AMOC8*
5,1,8,0,0,1.08239X$1,22.5*
%
%ADD10C,0.0000*%
%ADD11C,0.0060*%
%ADD12C,0.0140*%
%ADD13C,0.0700*%
%ADD14OC8,0.0520*%
%ADD15C,0.0660*%
%ADD16C,0.1050*%
%ADD17C,0.0594*%
%ADD18R,0.0591X0.0512*%
%ADD19C,0.0600*%
%ADD20C,0.0600*%
%ADD21C,0.0356*%
%ADD22C,0.0240*%
%ADD23C,0.0320*%
%ADD24C,0.0160*%
%ADD25C,0.0500*%
%ADD26C,0.0400*%
%ADD27C,0.0280*%
%ADD28C,0.0560*%
%ADD29C,0.0039*%
%ADD30C,0.0480*%
%ADD31C,0.0200*%
D10*
X000280Y000834D02*
X000280Y020519D01*
X035275Y020519D01*
X035275Y000834D01*
X000280Y000834D01*
X001637Y001000D02*
X001639Y001021D01*
X001645Y001041D01*
X001654Y001061D01*
X001666Y001078D01*
X001681Y001092D01*
X001699Y001104D01*
X001719Y001112D01*
X001739Y001117D01*
X001760Y001118D01*
X001781Y001115D01*
X001801Y001109D01*
X001820Y001098D01*
X001837Y001085D01*
X001850Y001069D01*
X001861Y001051D01*
X001869Y001031D01*
X001873Y001011D01*
X001873Y000989D01*
X001869Y000969D01*
X001861Y000949D01*
X001850Y000931D01*
X001837Y000915D01*
X001820Y000902D01*
X001801Y000891D01*
X001781Y000885D01*
X001760Y000882D01*
X001739Y000883D01*
X001719Y000888D01*
X001699Y000896D01*
X001681Y000908D01*
X001666Y000922D01*
X001654Y000939D01*
X001645Y000959D01*
X001639Y000979D01*
X001637Y001000D01*
X001887Y001150D02*
X001889Y001171D01*
X001895Y001191D01*
X001904Y001211D01*
X001916Y001228D01*
X001931Y001242D01*
X001949Y001254D01*
X001969Y001262D01*
X001989Y001267D01*
X002010Y001268D01*
X002031Y001265D01*
X002051Y001259D01*
X002070Y001248D01*
X002087Y001235D01*
X002100Y001219D01*
X002111Y001201D01*
X002119Y001181D01*
X002123Y001161D01*
X002123Y001139D01*
X002119Y001119D01*
X002111Y001099D01*
X002100Y001081D01*
X002087Y001065D01*
X002070Y001052D01*
X002051Y001041D01*
X002031Y001035D01*
X002010Y001032D01*
X001989Y001033D01*
X001969Y001038D01*
X001949Y001046D01*
X001931Y001058D01*
X001916Y001072D01*
X001904Y001089D01*
X001895Y001109D01*
X001889Y001129D01*
X001887Y001150D01*
X002137Y001000D02*
X002139Y001021D01*
X002145Y001041D01*
X002154Y001061D01*
X002166Y001078D01*
X002181Y001092D01*
X002199Y001104D01*
X002219Y001112D01*
X002239Y001117D01*
X002260Y001118D01*
X002281Y001115D01*
X002301Y001109D01*
X002320Y001098D01*
X002337Y001085D01*
X002350Y001069D01*
X002361Y001051D01*
X002369Y001031D01*
X002373Y001011D01*
X002373Y000989D01*
X002369Y000969D01*
X002361Y000949D01*
X002350Y000931D01*
X002337Y000915D01*
X002320Y000902D01*
X002301Y000891D01*
X002281Y000885D01*
X002260Y000882D01*
X002239Y000883D01*
X002219Y000888D01*
X002199Y000896D01*
X002181Y000908D01*
X002166Y000922D01*
X002154Y000939D01*
X002145Y000959D01*
X002139Y000979D01*
X002137Y001000D01*
X021712Y001000D02*
X021714Y001021D01*
X021720Y001041D01*
X021729Y001061D01*
X021741Y001078D01*
X021756Y001092D01*
X021774Y001104D01*
X021794Y001112D01*
X021814Y001117D01*
X021835Y001118D01*
X021856Y001115D01*
X021876Y001109D01*
X021895Y001098D01*
X021912Y001085D01*
X021925Y001069D01*
X021936Y001051D01*
X021944Y001031D01*
X021948Y001011D01*
X021948Y000989D01*
X021944Y000969D01*
X021936Y000949D01*
X021925Y000931D01*
X021912Y000915D01*
X021895Y000902D01*
X021876Y000891D01*
X021856Y000885D01*
X021835Y000882D01*
X021814Y000883D01*
X021794Y000888D01*
X021774Y000896D01*
X021756Y000908D01*
X021741Y000922D01*
X021729Y000939D01*
X021720Y000959D01*
X021714Y000979D01*
X021712Y001000D01*
X021962Y001150D02*
X021964Y001171D01*
X021970Y001191D01*
X021979Y001211D01*
X021991Y001228D01*
X022006Y001242D01*
X022024Y001254D01*
X022044Y001262D01*
X022064Y001267D01*
X022085Y001268D01*
X022106Y001265D01*
X022126Y001259D01*
X022145Y001248D01*
X022162Y001235D01*
X022175Y001219D01*
X022186Y001201D01*
X022194Y001181D01*
X022198Y001161D01*
X022198Y001139D01*
X022194Y001119D01*
X022186Y001099D01*
X022175Y001081D01*
X022162Y001065D01*
X022145Y001052D01*
X022126Y001041D01*
X022106Y001035D01*
X022085Y001032D01*
X022064Y001033D01*
X022044Y001038D01*
X022024Y001046D01*
X022006Y001058D01*
X021991Y001072D01*
X021979Y001089D01*
X021970Y001109D01*
X021964Y001129D01*
X021962Y001150D01*
X022212Y001000D02*
X022214Y001021D01*
X022220Y001041D01*
X022229Y001061D01*
X022241Y001078D01*
X022256Y001092D01*
X022274Y001104D01*
X022294Y001112D01*
X022314Y001117D01*
X022335Y001118D01*
X022356Y001115D01*
X022376Y001109D01*
X022395Y001098D01*
X022412Y001085D01*
X022425Y001069D01*
X022436Y001051D01*
X022444Y001031D01*
X022448Y001011D01*
X022448Y000989D01*
X022444Y000969D01*
X022436Y000949D01*
X022425Y000931D01*
X022412Y000915D01*
X022395Y000902D01*
X022376Y000891D01*
X022356Y000885D01*
X022335Y000882D01*
X022314Y000883D01*
X022294Y000888D01*
X022274Y000896D01*
X022256Y000908D01*
X022241Y000922D01*
X022229Y000939D01*
X022220Y000959D01*
X022214Y000979D01*
X022212Y001000D01*
X032555Y001275D02*
X032557Y001303D01*
X032563Y001330D01*
X032572Y001356D01*
X032585Y001381D01*
X032602Y001404D01*
X032621Y001424D01*
X032643Y001441D01*
X032667Y001455D01*
X032693Y001465D01*
X032720Y001472D01*
X032748Y001475D01*
X032776Y001474D01*
X032803Y001469D01*
X032830Y001460D01*
X032855Y001448D01*
X032878Y001433D01*
X032899Y001414D01*
X032917Y001393D01*
X032932Y001369D01*
X032943Y001343D01*
X032951Y001317D01*
X032955Y001289D01*
X032955Y001261D01*
X032951Y001233D01*
X032943Y001207D01*
X032932Y001181D01*
X032917Y001157D01*
X032899Y001136D01*
X032878Y001117D01*
X032855Y001102D01*
X032830Y001090D01*
X032803Y001081D01*
X032776Y001076D01*
X032748Y001075D01*
X032720Y001078D01*
X032693Y001085D01*
X032667Y001095D01*
X032643Y001109D01*
X032621Y001126D01*
X032602Y001146D01*
X032585Y001169D01*
X032572Y001194D01*
X032563Y001220D01*
X032557Y001247D01*
X032555Y001275D01*
X033330Y001525D02*
X033332Y001553D01*
X033338Y001580D01*
X033347Y001606D01*
X033360Y001631D01*
X033377Y001654D01*
X033396Y001674D01*
X033418Y001691D01*
X033442Y001705D01*
X033468Y001715D01*
X033495Y001722D01*
X033523Y001725D01*
X033551Y001724D01*
X033578Y001719D01*
X033605Y001710D01*
X033630Y001698D01*
X033653Y001683D01*
X033674Y001664D01*
X033692Y001643D01*
X033707Y001619D01*
X033718Y001593D01*
X033726Y001567D01*
X033730Y001539D01*
X033730Y001511D01*
X033726Y001483D01*
X033718Y001457D01*
X033707Y001431D01*
X033692Y001407D01*
X033674Y001386D01*
X033653Y001367D01*
X033630Y001352D01*
X033605Y001340D01*
X033578Y001331D01*
X033551Y001326D01*
X033523Y001325D01*
X033495Y001328D01*
X033468Y001335D01*
X033442Y001345D01*
X033418Y001359D01*
X033396Y001376D01*
X033377Y001396D01*
X033360Y001419D01*
X033347Y001444D01*
X033338Y001470D01*
X033332Y001497D01*
X033330Y001525D01*
X033805Y001750D02*
X033807Y001778D01*
X033813Y001805D01*
X033822Y001831D01*
X033835Y001856D01*
X033852Y001879D01*
X033871Y001899D01*
X033893Y001916D01*
X033917Y001930D01*
X033943Y001940D01*
X033970Y001947D01*
X033998Y001950D01*
X034026Y001949D01*
X034053Y001944D01*
X034080Y001935D01*
X034105Y001923D01*
X034128Y001908D01*
X034149Y001889D01*
X034167Y001868D01*
X034182Y001844D01*
X034193Y001818D01*
X034201Y001792D01*
X034205Y001764D01*
X034205Y001736D01*
X034201Y001708D01*
X034193Y001682D01*
X034182Y001656D01*
X034167Y001632D01*
X034149Y001611D01*
X034128Y001592D01*
X034105Y001577D01*
X034080Y001565D01*
X034053Y001556D01*
X034026Y001551D01*
X033998Y001550D01*
X033970Y001553D01*
X033943Y001560D01*
X033917Y001570D01*
X033893Y001584D01*
X033871Y001601D01*
X033852Y001621D01*
X033835Y001644D01*
X033822Y001669D01*
X033813Y001695D01*
X033807Y001722D01*
X033805Y001750D01*
X034255Y001875D02*
X034257Y001903D01*
X034263Y001930D01*
X034272Y001956D01*
X034285Y001981D01*
X034302Y002004D01*
X034321Y002024D01*
X034343Y002041D01*
X034367Y002055D01*
X034393Y002065D01*
X034420Y002072D01*
X034448Y002075D01*
X034476Y002074D01*
X034503Y002069D01*
X034530Y002060D01*
X034555Y002048D01*
X034578Y002033D01*
X034599Y002014D01*
X034617Y001993D01*
X034632Y001969D01*
X034643Y001943D01*
X034651Y001917D01*
X034655Y001889D01*
X034655Y001861D01*
X034651Y001833D01*
X034643Y001807D01*
X034632Y001781D01*
X034617Y001757D01*
X034599Y001736D01*
X034578Y001717D01*
X034555Y001702D01*
X034530Y001690D01*
X034503Y001681D01*
X034476Y001676D01*
X034448Y001675D01*
X034420Y001678D01*
X034393Y001685D01*
X034367Y001695D01*
X034343Y001709D01*
X034321Y001726D01*
X034302Y001746D01*
X034285Y001769D01*
X034272Y001794D01*
X034263Y001820D01*
X034257Y001847D01*
X034255Y001875D01*
X034755Y001900D02*
X034757Y001928D01*
X034763Y001955D01*
X034772Y001981D01*
X034785Y002006D01*
X034802Y002029D01*
X034821Y002049D01*
X034843Y002066D01*
X034867Y002080D01*
X034893Y002090D01*
X034920Y002097D01*
X034948Y002100D01*
X034976Y002099D01*
X035003Y002094D01*
X035030Y002085D01*
X035055Y002073D01*
X035078Y002058D01*
X035099Y002039D01*
X035117Y002018D01*
X035132Y001994D01*
X035143Y001968D01*
X035151Y001942D01*
X035155Y001914D01*
X035155Y001886D01*
X035151Y001858D01*
X035143Y001832D01*
X035132Y001806D01*
X035117Y001782D01*
X035099Y001761D01*
X035078Y001742D01*
X035055Y001727D01*
X035030Y001715D01*
X035003Y001706D01*
X034976Y001701D01*
X034948Y001700D01*
X034920Y001703D01*
X034893Y001710D01*
X034867Y001720D01*
X034843Y001734D01*
X034821Y001751D01*
X034802Y001771D01*
X034785Y001794D01*
X034772Y001819D01*
X034763Y001845D01*
X034757Y001872D01*
X034755Y001900D01*
X034255Y002645D02*
X034257Y002686D01*
X034263Y002726D01*
X034272Y002766D01*
X034286Y002805D01*
X034303Y002842D01*
X034323Y002877D01*
X034347Y002911D01*
X034374Y002942D01*
X034403Y002970D01*
X034436Y002995D01*
X034470Y003017D01*
X034506Y003036D01*
X034544Y003051D01*
X034584Y003063D01*
X034624Y003071D01*
X034665Y003075D01*
X034705Y003075D01*
X034746Y003071D01*
X034786Y003063D01*
X034826Y003051D01*
X034864Y003036D01*
X034900Y003017D01*
X034934Y002995D01*
X034967Y002970D01*
X034996Y002942D01*
X035023Y002911D01*
X035047Y002877D01*
X035067Y002842D01*
X035084Y002805D01*
X035098Y002766D01*
X035107Y002726D01*
X035113Y002686D01*
X035115Y002645D01*
X035113Y002604D01*
X035107Y002564D01*
X035098Y002524D01*
X035084Y002485D01*
X035067Y002448D01*
X035047Y002413D01*
X035023Y002379D01*
X034996Y002348D01*
X034967Y002320D01*
X034934Y002295D01*
X034900Y002273D01*
X034864Y002254D01*
X034826Y002239D01*
X034786Y002227D01*
X034746Y002219D01*
X034705Y002215D01*
X034665Y002215D01*
X034624Y002219D01*
X034584Y002227D01*
X034544Y002239D01*
X034506Y002254D01*
X034470Y002273D01*
X034436Y002295D01*
X034403Y002320D01*
X034374Y002348D01*
X034347Y002379D01*
X034323Y002413D01*
X034303Y002448D01*
X034286Y002485D01*
X034272Y002524D01*
X034263Y002564D01*
X034257Y002604D01*
X034255Y002645D01*
X032912Y020200D02*
X032914Y020221D01*
X032920Y020241D01*
X032929Y020261D01*
X032941Y020278D01*
X032956Y020292D01*
X032974Y020304D01*
X032994Y020312D01*
X033014Y020317D01*
X033035Y020318D01*
X033056Y020315D01*
X033076Y020309D01*
X033095Y020298D01*
X033112Y020285D01*
X033125Y020269D01*
X033136Y020251D01*
X033144Y020231D01*
X033148Y020211D01*
X033148Y020189D01*
X033144Y020169D01*
X033136Y020149D01*
X033125Y020131D01*
X033112Y020115D01*
X033095Y020102D01*
X033076Y020091D01*
X033056Y020085D01*
X033035Y020082D01*
X033014Y020083D01*
X032994Y020088D01*
X032974Y020096D01*
X032956Y020108D01*
X032941Y020122D01*
X032929Y020139D01*
X032920Y020159D01*
X032914Y020179D01*
X032912Y020200D01*
X032637Y020375D02*
X032639Y020396D01*
X032645Y020416D01*
X032654Y020436D01*
X032666Y020453D01*
X032681Y020467D01*
X032699Y020479D01*
X032719Y020487D01*
X032739Y020492D01*
X032760Y020493D01*
X032781Y020490D01*
X032801Y020484D01*
X032820Y020473D01*
X032837Y020460D01*
X032850Y020444D01*
X032861Y020426D01*
X032869Y020406D01*
X032873Y020386D01*
X032873Y020364D01*
X032869Y020344D01*
X032861Y020324D01*
X032850Y020306D01*
X032837Y020290D01*
X032820Y020277D01*
X032801Y020266D01*
X032781Y020260D01*
X032760Y020257D01*
X032739Y020258D01*
X032719Y020263D01*
X032699Y020271D01*
X032681Y020283D01*
X032666Y020297D01*
X032654Y020314D01*
X032645Y020334D01*
X032639Y020354D01*
X032637Y020375D01*
X033187Y020375D02*
X033189Y020396D01*
X033195Y020416D01*
X033204Y020436D01*
X033216Y020453D01*
X033231Y020467D01*
X033249Y020479D01*
X033269Y020487D01*
X033289Y020492D01*
X033310Y020493D01*
X033331Y020490D01*
X033351Y020484D01*
X033370Y020473D01*
X033387Y020460D01*
X033400Y020444D01*
X033411Y020426D01*
X033419Y020406D01*
X033423Y020386D01*
X033423Y020364D01*
X033419Y020344D01*
X033411Y020324D01*
X033400Y020306D01*
X033387Y020290D01*
X033370Y020277D01*
X033351Y020266D01*
X033331Y020260D01*
X033310Y020257D01*
X033289Y020258D01*
X033269Y020263D01*
X033249Y020271D01*
X033231Y020283D01*
X033216Y020297D01*
X033204Y020314D01*
X033195Y020334D01*
X033189Y020354D01*
X033187Y020375D01*
X022237Y020375D02*
X022239Y020396D01*
X022245Y020416D01*
X022254Y020436D01*
X022266Y020453D01*
X022281Y020467D01*
X022299Y020479D01*
X022319Y020487D01*
X022339Y020492D01*
X022360Y020493D01*
X022381Y020490D01*
X022401Y020484D01*
X022420Y020473D01*
X022437Y020460D01*
X022450Y020444D01*
X022461Y020426D01*
X022469Y020406D01*
X022473Y020386D01*
X022473Y020364D01*
X022469Y020344D01*
X022461Y020324D01*
X022450Y020306D01*
X022437Y020290D01*
X022420Y020277D01*
X022401Y020266D01*
X022381Y020260D01*
X022360Y020257D01*
X022339Y020258D01*
X022319Y020263D01*
X022299Y020271D01*
X022281Y020283D01*
X022266Y020297D01*
X022254Y020314D01*
X022245Y020334D01*
X022239Y020354D01*
X022237Y020375D01*
X021962Y020200D02*
X021964Y020221D01*
X021970Y020241D01*
X021979Y020261D01*
X021991Y020278D01*
X022006Y020292D01*
X022024Y020304D01*
X022044Y020312D01*
X022064Y020317D01*
X022085Y020318D01*
X022106Y020315D01*
X022126Y020309D01*
X022145Y020298D01*
X022162Y020285D01*
X022175Y020269D01*
X022186Y020251D01*
X022194Y020231D01*
X022198Y020211D01*
X022198Y020189D01*
X022194Y020169D01*
X022186Y020149D01*
X022175Y020131D01*
X022162Y020115D01*
X022145Y020102D01*
X022126Y020091D01*
X022106Y020085D01*
X022085Y020082D01*
X022064Y020083D01*
X022044Y020088D01*
X022024Y020096D01*
X022006Y020108D01*
X021991Y020122D01*
X021979Y020139D01*
X021970Y020159D01*
X021964Y020179D01*
X021962Y020200D01*
X021687Y020375D02*
X021689Y020396D01*
X021695Y020416D01*
X021704Y020436D01*
X021716Y020453D01*
X021731Y020467D01*
X021749Y020479D01*
X021769Y020487D01*
X021789Y020492D01*
X021810Y020493D01*
X021831Y020490D01*
X021851Y020484D01*
X021870Y020473D01*
X021887Y020460D01*
X021900Y020444D01*
X021911Y020426D01*
X021919Y020406D01*
X021923Y020386D01*
X021923Y020364D01*
X021919Y020344D01*
X021911Y020324D01*
X021900Y020306D01*
X021887Y020290D01*
X021870Y020277D01*
X021851Y020266D01*
X021831Y020260D01*
X021810Y020257D01*
X021789Y020258D01*
X021769Y020263D01*
X021749Y020271D01*
X021731Y020283D01*
X021716Y020297D01*
X021704Y020314D01*
X021695Y020334D01*
X021689Y020354D01*
X021687Y020375D01*
X002162Y020375D02*
X002164Y020396D01*
X002170Y020416D01*
X002179Y020436D01*
X002191Y020453D01*
X002206Y020467D01*
X002224Y020479D01*
X002244Y020487D01*
X002264Y020492D01*
X002285Y020493D01*
X002306Y020490D01*
X002326Y020484D01*
X002345Y020473D01*
X002362Y020460D01*
X002375Y020444D01*
X002386Y020426D01*
X002394Y020406D01*
X002398Y020386D01*
X002398Y020364D01*
X002394Y020344D01*
X002386Y020324D01*
X002375Y020306D01*
X002362Y020290D01*
X002345Y020277D01*
X002326Y020266D01*
X002306Y020260D01*
X002285Y020257D01*
X002264Y020258D01*
X002244Y020263D01*
X002224Y020271D01*
X002206Y020283D01*
X002191Y020297D01*
X002179Y020314D01*
X002170Y020334D01*
X002164Y020354D01*
X002162Y020375D01*
X001887Y020200D02*
X001889Y020221D01*
X001895Y020241D01*
X001904Y020261D01*
X001916Y020278D01*
X001931Y020292D01*
X001949Y020304D01*
X001969Y020312D01*
X001989Y020317D01*
X002010Y020318D01*
X002031Y020315D01*
X002051Y020309D01*
X002070Y020298D01*
X002087Y020285D01*
X002100Y020269D01*
X002111Y020251D01*
X002119Y020231D01*
X002123Y020211D01*
X002123Y020189D01*
X002119Y020169D01*
X002111Y020149D01*
X002100Y020131D01*
X002087Y020115D01*
X002070Y020102D01*
X002051Y020091D01*
X002031Y020085D01*
X002010Y020082D01*
X001989Y020083D01*
X001969Y020088D01*
X001949Y020096D01*
X001931Y020108D01*
X001916Y020122D01*
X001904Y020139D01*
X001895Y020159D01*
X001889Y020179D01*
X001887Y020200D01*
X001612Y020375D02*
X001614Y020396D01*
X001620Y020416D01*
X001629Y020436D01*
X001641Y020453D01*
X001656Y020467D01*
X001674Y020479D01*
X001694Y020487D01*
X001714Y020492D01*
X001735Y020493D01*
X001756Y020490D01*
X001776Y020484D01*
X001795Y020473D01*
X001812Y020460D01*
X001825Y020444D01*
X001836Y020426D01*
X001844Y020406D01*
X001848Y020386D01*
X001848Y020364D01*
X001844Y020344D01*
X001836Y020324D01*
X001825Y020306D01*
X001812Y020290D01*
X001795Y020277D01*
X001776Y020266D01*
X001756Y020260D01*
X001735Y020257D01*
X001714Y020258D01*
X001694Y020263D01*
X001674Y020271D01*
X001656Y020283D01*
X001641Y020297D01*
X001629Y020314D01*
X001620Y020334D01*
X001614Y020354D01*
X001612Y020375D01*
D11*
X024710Y001557D02*
X024823Y001557D01*
X024767Y001614D02*
X024767Y001387D01*
X024823Y001330D01*
X024956Y001387D02*
X025012Y001330D01*
X025126Y001330D01*
X025182Y001387D01*
X025182Y001500D01*
X025126Y001557D01*
X025012Y001557D01*
X024956Y001500D01*
X024956Y001387D01*
X025324Y001330D02*
X025494Y001330D01*
X025551Y001387D01*
X025551Y001500D01*
X025494Y001557D01*
X025324Y001557D01*
X025324Y001217D01*
D12*
X027575Y001045D02*
X027575Y001419D01*
X027668Y001419D01*
X027762Y001325D01*
X027855Y001419D01*
X027949Y001325D01*
X027949Y001045D01*
X027762Y001045D02*
X027762Y001325D01*
X028220Y001138D02*
X028313Y001232D01*
X028593Y001232D01*
X028593Y001325D02*
X028593Y001045D01*
X028313Y001045D01*
X028220Y001138D01*
X028313Y001419D02*
X028500Y001419D01*
X028593Y001325D01*
X028864Y001232D02*
X029051Y001419D01*
X029144Y001419D01*
X029401Y001419D02*
X029401Y001138D01*
X029495Y001045D01*
X029775Y001045D01*
X029775Y001419D01*
X030046Y001325D02*
X030419Y001325D01*
X030690Y001605D02*
X030784Y001605D01*
X030784Y001045D01*
X030877Y001045D02*
X030690Y001045D01*
X031120Y001138D02*
X031213Y001232D01*
X031494Y001232D01*
X031494Y001325D02*
X031494Y001045D01*
X031213Y001045D01*
X031120Y001138D01*
X031213Y001419D02*
X031400Y001419D01*
X031494Y001325D01*
X031765Y001419D02*
X032045Y001419D01*
X032138Y001325D01*
X032138Y001138D01*
X032045Y001045D01*
X031765Y001045D01*
X031765Y001605D01*
X032409Y001325D02*
X032503Y001419D01*
X032783Y001419D01*
X032689Y001232D02*
X032503Y001232D01*
X032409Y001325D01*
X032689Y001232D02*
X032783Y001138D01*
X032689Y001045D01*
X032409Y001045D01*
X033054Y001045D02*
X033054Y001138D01*
X033147Y001138D01*
X033147Y001045D01*
X033054Y001045D01*
X033376Y001138D02*
X033469Y001045D01*
X033750Y001045D01*
X034020Y001138D02*
X034114Y001045D01*
X034301Y001045D01*
X034394Y001138D01*
X034394Y001325D01*
X034301Y001419D01*
X034114Y001419D01*
X034020Y001325D01*
X034020Y001138D01*
X033750Y001419D02*
X033469Y001419D01*
X033376Y001325D01*
X033376Y001138D01*
X034665Y001045D02*
X034665Y001419D01*
X034758Y001419D01*
X034852Y001325D01*
X034945Y001419D01*
X035039Y001325D01*
X035039Y001045D01*
X034852Y001045D02*
X034852Y001325D01*
X034394Y002095D02*
X034020Y002095D01*
X034207Y002095D02*
X034207Y002655D01*
X034020Y002469D01*
X033792Y002188D02*
X033792Y002095D01*
X033698Y002095D01*
X033698Y002188D01*
X033792Y002188D01*
X033427Y002095D02*
X033054Y002095D01*
X033427Y002469D01*
X033427Y002562D01*
X033334Y002655D01*
X033147Y002655D01*
X033054Y002562D01*
X032783Y002655D02*
X032783Y002282D01*
X032596Y002095D01*
X032409Y002282D01*
X032409Y002655D01*
X031494Y002469D02*
X031120Y002095D01*
X030849Y002188D02*
X030756Y002095D01*
X030569Y002095D01*
X030475Y002188D01*
X030475Y002375D01*
X030569Y002469D01*
X030756Y002469D01*
X030849Y002375D01*
X030849Y002188D01*
X031120Y002469D02*
X031494Y002095D01*
X030205Y002188D02*
X030205Y002375D01*
X030111Y002469D01*
X029831Y002469D01*
X029831Y002655D02*
X029831Y002095D01*
X030111Y002095D01*
X030205Y002188D01*
X029588Y002095D02*
X029495Y002188D01*
X029495Y002562D01*
X029588Y002469D02*
X029401Y002469D01*
X029130Y002375D02*
X029130Y002188D01*
X029037Y002095D01*
X028850Y002095D01*
X028757Y002188D01*
X028757Y002375D01*
X028850Y002469D01*
X029037Y002469D01*
X029130Y002375D01*
X028500Y002469D02*
X028406Y002469D01*
X028220Y002282D01*
X028220Y002095D02*
X028220Y002469D01*
X027949Y002469D02*
X027855Y002375D01*
X027575Y002375D01*
X027575Y002095D02*
X027575Y002655D01*
X027855Y002655D01*
X027949Y002562D01*
X027949Y002469D01*
X027855Y002375D02*
X027949Y002282D01*
X027949Y002188D01*
X027855Y002095D01*
X027575Y002095D01*
X028864Y001419D02*
X028864Y001045D01*
D13*
X001280Y003075D03*
X001280Y010075D03*
X001280Y011175D03*
X001280Y018175D03*
D14*
X021280Y012744D03*
X022280Y012744D03*
X022280Y011366D03*
X021280Y011366D03*
X021280Y009988D03*
X022280Y009988D03*
X022280Y008610D03*
X021280Y008610D03*
X021280Y007232D03*
X022280Y007232D03*
X022280Y005854D03*
X021280Y005854D03*
X021280Y004476D03*
X022280Y004476D03*
X021580Y003250D03*
X022330Y002750D03*
X021580Y002250D03*
D15*
X023435Y003098D02*
X024095Y003098D01*
X025601Y004476D02*
X026261Y004476D01*
X027685Y003098D02*
X028345Y003098D01*
X029851Y004476D02*
X030511Y004476D01*
X028345Y005854D02*
X027685Y005854D01*
X026261Y007232D02*
X025601Y007232D01*
X024095Y005854D02*
X023435Y005854D01*
X023435Y008610D02*
X024095Y008610D01*
X025601Y009988D02*
X026261Y009988D01*
X027685Y011366D02*
X028345Y011366D01*
X029851Y009988D02*
X030511Y009988D01*
X028345Y008610D02*
X027685Y008610D01*
X029851Y007232D02*
X030511Y007232D01*
X024095Y011366D02*
X023435Y011366D01*
X025601Y012744D02*
X026261Y012744D01*
X027685Y014122D02*
X028345Y014122D01*
X029851Y012744D02*
X030511Y012744D01*
X030511Y015500D02*
X029851Y015500D01*
X028345Y016878D02*
X027685Y016878D01*
X026261Y018256D02*
X025601Y018256D01*
X024095Y016878D02*
X023435Y016878D01*
X025601Y015500D02*
X026261Y015500D01*
X024095Y014122D02*
X023435Y014122D01*
X018230Y014280D02*
X018230Y013620D01*
X017230Y013620D02*
X017230Y014280D01*
X016230Y014280D02*
X016230Y013620D01*
X029851Y018256D02*
X030511Y018256D01*
D16*
X013550Y017693D02*
X012500Y017693D01*
X012500Y019252D02*
X013550Y019252D01*
X013550Y016133D02*
X012500Y016133D01*
X012500Y014574D02*
X013550Y014574D01*
X013550Y013015D02*
X012500Y013015D01*
X012500Y011456D02*
X013550Y011456D01*
X013550Y009897D02*
X012500Y009897D01*
X012500Y008338D02*
X013550Y008338D01*
X013550Y006779D02*
X012500Y006779D01*
X012500Y005220D02*
X013550Y005220D01*
X013550Y003661D02*
X012500Y003661D01*
X012500Y002102D02*
X013550Y002102D01*
X005007Y002102D02*
X003957Y002102D01*
X003957Y003661D02*
X005007Y003661D01*
X005007Y005220D02*
X003957Y005220D01*
X003957Y006779D02*
X005007Y006779D01*
X005007Y008338D02*
X003957Y008338D01*
X003957Y009897D02*
X005007Y009897D01*
X005007Y011456D02*
X003957Y011456D01*
X003957Y013015D02*
X005007Y013015D01*
X005007Y014574D02*
X003957Y014574D01*
X003957Y016133D02*
X005007Y016133D01*
X005007Y017693D02*
X003957Y017693D01*
X003957Y019252D02*
X005007Y019252D01*
D17*
X026355Y019803D02*
X026355Y020397D01*
X027355Y020397D02*
X027355Y019803D01*
X028355Y019803D02*
X028355Y020397D01*
X029355Y020397D02*
X029355Y019803D01*
X030355Y019803D02*
X030355Y020397D01*
X031933Y004350D02*
X032527Y004350D01*
X032527Y003350D02*
X031933Y003350D01*
D18*
X033830Y003726D03*
X033830Y004474D03*
D19*
X011680Y002150D03*
X020530Y019600D03*
D20*
X023930Y019800D02*
X023930Y020400D01*
X024930Y020400D02*
X024930Y019800D01*
D21*
X028605Y018225D03*
X030480Y017475D03*
X029355Y016350D03*
X031630Y014750D03*
X033780Y013400D03*
X026530Y011200D03*
X025980Y013600D03*
X023230Y015475D03*
X020530Y012950D03*
X020555Y012375D03*
X019030Y012200D03*
X017430Y011400D03*
X016230Y012200D03*
X015030Y011400D03*
X011355Y012225D03*
X010755Y012225D03*
X009480Y009750D03*
X009380Y008650D03*
X014380Y008300D03*
X015430Y008450D03*
X014730Y007250D03*
X019330Y005550D03*
X019330Y003550D03*
X027080Y004150D03*
X033105Y004475D03*
X033080Y006100D03*
X033080Y007300D03*
X033080Y009200D03*
X014630Y018500D03*
X031730Y020100D03*
X033080Y019350D03*
X033980Y019850D03*
X011130Y003650D03*
X009580Y003650D03*
D22*
X011680Y002150D02*
X011832Y002102D01*
X013025Y002102D01*
X014210Y004445D02*
X017405Y006150D01*
X020630Y006150D01*
X021280Y005854D02*
X021280Y004476D01*
X019330Y003550D02*
X019330Y005550D01*
X020680Y006850D02*
X016430Y006850D01*
X014730Y005995D01*
X014118Y007538D02*
X014043Y007538D01*
X014118Y007538D02*
X014780Y007900D01*
X016030Y007900D01*
X016740Y008200D01*
X020780Y008200D01*
X021280Y008610D02*
X021280Y009988D01*
X022030Y010550D01*
X022630Y010750D01*
X022830Y010900D01*
X022255Y011350D02*
X021605Y010825D01*
X021330Y010800D01*
X021030Y010800D01*
X019480Y009100D01*
X013980Y009100D01*
X013025Y009897D02*
X019002Y009897D01*
X019005Y009900D02*
X020555Y011500D01*
X020555Y012375D01*
X021280Y012744D02*
X021874Y012150D01*
X022480Y012150D01*
X022830Y011700D01*
X025537Y012850D02*
X025931Y012744D01*
X025155Y013250D02*
X025155Y014575D01*
X024055Y015700D01*
X023855Y015850D01*
X023605Y016100D01*
X023105Y016100D01*
X022730Y016600D01*
X022530Y017200D02*
X022980Y017550D01*
X024330Y017550D01*
X025480Y016500D01*
X026130Y016500D01*
X026180Y016450D01*
X027930Y014750D01*
X031630Y014750D01*
X031680Y014050D02*
X032180Y014250D01*
X032180Y015300D01*
X031780Y015490D01*
X031770Y016200D01*
X031770Y020060D01*
X031730Y020100D01*
X030855Y019225D02*
X031230Y018850D01*
X031230Y016775D01*
X030780Y016325D01*
X029380Y016325D01*
X029355Y016350D01*
X028480Y015975D01*
X027605Y015975D01*
X024730Y017975D01*
X024605Y018475D02*
X025230Y018850D01*
X024605Y019225D02*
X024230Y018975D01*
X027230Y019225D02*
X027230Y020100D01*
X027355Y020100D01*
X028355Y020100D02*
X028355Y019225D01*
X028480Y019100D01*
X029355Y019475D02*
X029605Y019225D01*
X030855Y019225D01*
X029355Y019475D02*
X029355Y020100D01*
X033080Y019350D02*
X033080Y018650D01*
X033830Y019650D02*
X033980Y019850D01*
X033830Y019650D02*
X033830Y014075D01*
X033825Y013421D01*
X031680Y014050D02*
X029480Y013500D01*
X028480Y013450D01*
X027430Y012050D01*
X026530Y011200D01*
X027730Y010400D01*
X027730Y009750D01*
X027030Y008750D01*
X027030Y008300D01*
X027880Y007550D01*
X027880Y007100D01*
X027080Y006300D01*
X027080Y004150D01*
X026980Y004150D01*
X026080Y003250D01*
X023917Y003250D01*
X023765Y003098D01*
X023680Y003000D02*
X022880Y002150D01*
X021780Y002150D01*
X022261Y005850D02*
X022261Y006319D01*
X024530Y007975D02*
X026380Y008275D01*
X026930Y009700D01*
X026930Y010300D01*
X025830Y011000D01*
X025830Y011600D01*
X026730Y012000D01*
X026980Y012400D01*
X026980Y013100D01*
X026230Y013850D01*
X025980Y013600D01*
X024630Y015950D02*
X023765Y016815D01*
X023765Y016878D01*
X022530Y017200D02*
X016430Y017200D01*
X015130Y018300D01*
X014930Y018500D01*
X014630Y018500D01*
X011055Y018500D02*
X011055Y018525D01*
X011055Y018500D02*
X010430Y018500D01*
X005480Y014600D01*
X004508Y014600D01*
X004482Y014574D01*
X004482Y016133D02*
X004574Y016225D01*
X005855Y016225D01*
X009980Y019400D01*
X010355Y019775D01*
X009530Y020150D02*
X009430Y020050D01*
X005730Y017725D01*
X004514Y017725D01*
X004482Y017693D01*
X015930Y012200D02*
X016230Y012200D01*
X017930Y010650D02*
X019580Y011750D01*
X017930Y010650D02*
X011830Y010650D01*
X011680Y010600D01*
X009380Y008650D01*
X010743Y008038D02*
X007892Y008038D01*
X007580Y008350D01*
X004482Y008338D01*
X004482Y006779D02*
X004536Y006725D01*
X005980Y006725D01*
X007880Y007550D01*
X011580Y007550D01*
X010743Y008038D02*
X011605Y009100D01*
X022280Y008610D02*
X023765Y008610D01*
X022280Y009988D02*
X025931Y009988D01*
X032930Y007850D02*
X033080Y007300D01*
X033080Y006100D02*
X034530Y006100D01*
X033730Y004475D02*
X033105Y004475D01*
X032230Y004350D01*
X033830Y003726D02*
X033730Y003350D01*
X032230Y003350D01*
D23*
X025931Y004476D02*
X022280Y004476D01*
X022030Y003850D01*
X020830Y003850D01*
X019856Y002876D01*
X019856Y002880D01*
X014030Y002880D01*
X009335Y004445D02*
X005919Y003661D01*
X004482Y003661D01*
X004482Y005220D02*
X004487Y005225D01*
X011355Y005225D01*
X011855Y005995D01*
X007980Y002880D02*
X005980Y002100D01*
X004484Y002100D01*
X004482Y002102D01*
X022261Y005850D02*
X023765Y005854D01*
X025112Y007232D02*
X022255Y007225D01*
X025112Y007232D02*
X025931Y007232D01*
X019580Y011750D02*
X019880Y012650D01*
X019880Y013700D01*
X021655Y013725D01*
X022855Y013725D01*
X023252Y014122D01*
X023765Y014122D01*
X025155Y013250D02*
X025537Y012850D01*
X020480Y014600D02*
X019480Y014600D01*
X019080Y014300D01*
X019080Y013550D01*
X018630Y012900D01*
X014230Y012900D01*
X013715Y013015D01*
X013025Y013015D01*
X014880Y013790D02*
X015480Y013800D01*
X016230Y013950D01*
X014480Y015975D02*
X013025Y016133D01*
X014480Y015975D02*
X021697Y015975D01*
X022980Y015475D01*
X023230Y015475D01*
X022730Y016600D02*
X015730Y016600D01*
X014637Y017693D01*
X013025Y017693D01*
X030355Y020100D02*
X031730Y020100D01*
D24*
X033080Y018650D02*
X033080Y009200D01*
X033803Y013300D02*
X033825Y013421D01*
X033780Y013400D02*
X033803Y013300D01*
X026230Y014000D02*
X025880Y014350D01*
X024830Y015450D01*
X024630Y015950D01*
X027480Y017600D02*
X027105Y018600D01*
X026605Y018850D01*
X025230Y018850D01*
X024605Y018475D02*
X017105Y018475D01*
X014705Y019940D01*
X010455Y019940D01*
X010355Y019775D01*
X009630Y020240D02*
X009530Y020150D01*
X009630Y020240D02*
X015155Y020240D01*
X017130Y018975D01*
X024230Y018975D01*
X024605Y019225D02*
X027230Y019225D01*
X028605Y018225D01*
X029105Y018475D02*
X029105Y017666D01*
X029318Y017453D01*
X028730Y017600D01*
X027480Y017600D01*
X028480Y019100D02*
X029105Y018475D01*
X029318Y017453D02*
X029730Y017350D01*
X030355Y017350D01*
X030480Y017475D01*
X024730Y017975D02*
X016905Y017975D01*
X015180Y019100D01*
X014330Y019100D01*
X013930Y018525D01*
X011055Y018525D01*
X019930Y012950D02*
X019880Y012650D01*
X019930Y012950D02*
X020530Y012950D01*
X013980Y009100D02*
X011605Y009100D01*
X014380Y008300D02*
X014530Y008450D01*
X015430Y008450D01*
X014043Y007538D02*
X011668Y007538D01*
X011580Y007550D01*
X014730Y007250D02*
X015033Y007350D01*
X015028Y007355D01*
X020480Y007350D02*
X020880Y007760D01*
X021930Y007760D01*
X022255Y007975D01*
X021805Y008090D02*
X020930Y008090D01*
X020780Y008200D01*
X021805Y008090D02*
X022280Y008610D01*
X022255Y007225D02*
X022130Y006710D01*
X020780Y006710D01*
X020680Y006850D01*
X020830Y006390D02*
X020630Y006150D01*
X020830Y006390D02*
X022080Y006390D01*
X022261Y006319D01*
X023667Y003000D02*
X023680Y003000D01*
X021780Y002150D02*
X021680Y002250D01*
X021580Y002250D01*
D25*
X017430Y011400D02*
X015030Y011400D01*
D26*
X014005Y012240D02*
X016230Y012200D01*
X019030Y012200D01*
X012155Y013790D02*
X011020Y013790D01*
X009680Y012350D01*
X009680Y010496D01*
X009680Y009950D01*
X009480Y009750D01*
X009044Y009859D02*
X004520Y009859D01*
X004482Y009897D01*
X009044Y009859D02*
X009680Y010496D01*
X011355Y012225D02*
X011955Y012240D01*
X003580Y019225D02*
X003005Y018500D01*
X003005Y001525D01*
X003580Y001200D01*
X014555Y001200D01*
X015730Y001625D01*
X023180Y001575D01*
X024055Y002225D01*
X025890Y002225D01*
X028015Y003098D01*
X013080Y003650D02*
X009580Y003650D01*
X004482Y019252D02*
X003580Y019225D01*
D27*
X012155Y013790D02*
X014880Y013790D01*
X014005Y012240D02*
X011955Y012240D01*
X011855Y005995D02*
X014730Y005995D01*
X014210Y004445D02*
X009335Y004445D01*
X007980Y002880D02*
X014030Y002880D01*
D28*
X011355Y012225D02*
X010755Y012225D01*
D29*
X027180Y006450D02*
X032830Y006450D01*
X032830Y006400D01*
X033480Y006400D01*
X033480Y012950D01*
X033680Y012950D01*
X033680Y006450D01*
X033880Y006450D01*
X033880Y012950D01*
X034080Y012950D01*
X034080Y006450D01*
X034280Y006450D01*
X034280Y019550D01*
X034480Y019550D01*
X034480Y006400D01*
X034680Y006400D01*
X034680Y019850D01*
X034880Y019850D01*
X034880Y006250D01*
X034730Y006100D01*
X033080Y006100D01*
D30*
X020480Y014600D03*
D31*
X026230Y014000D02*
X026230Y013850D01*
X022830Y011700D02*
X022830Y010900D01*
X022255Y007975D02*
X024530Y007975D01*
X020480Y007350D02*
X015530Y007350D01*
X015028Y007355D01*
M02*
