G75*
%MOIN*%
%OFA0B0*%
%FSLAX24Y24*%
%IPPOS*%
%LPD*%
%AMOC8*
5,1,8,0,0,1.08239X$1,22.5*
%
%ADD10C,0.0000*%
%ADD11R,0.0800X0.0260*%
%ADD12R,0.0500X0.0600*%
%ADD13C,0.0088*%
%ADD14C,0.0100*%
%ADD15R,0.0800X0.0500*%
%ADD16R,0.0512X0.0591*%
%ADD17R,0.0450X0.0400*%
%ADD18R,0.0591X0.0591*%
%ADD19R,0.0866X0.0236*%
%ADD20R,0.0591X0.0512*%
%ADD21R,0.0880X0.0400*%
%ADD22R,0.0480X0.0880*%
%ADD23R,0.1417X0.0866*%
%ADD24R,0.0709X0.0697*%
%ADD25R,0.0697X0.0709*%
D10*
X000280Y000834D02*
X000280Y020519D01*
X035275Y020519D01*
X035275Y000834D01*
X000280Y000834D01*
X001637Y001000D02*
X001639Y001021D01*
X001645Y001041D01*
X001654Y001061D01*
X001666Y001078D01*
X001681Y001092D01*
X001699Y001104D01*
X001719Y001112D01*
X001739Y001117D01*
X001760Y001118D01*
X001781Y001115D01*
X001801Y001109D01*
X001820Y001098D01*
X001837Y001085D01*
X001850Y001069D01*
X001861Y001051D01*
X001869Y001031D01*
X001873Y001011D01*
X001873Y000989D01*
X001869Y000969D01*
X001861Y000949D01*
X001850Y000931D01*
X001837Y000915D01*
X001820Y000902D01*
X001801Y000891D01*
X001781Y000885D01*
X001760Y000882D01*
X001739Y000883D01*
X001719Y000888D01*
X001699Y000896D01*
X001681Y000908D01*
X001666Y000922D01*
X001654Y000939D01*
X001645Y000959D01*
X001639Y000979D01*
X001637Y001000D01*
X001887Y001150D02*
X001889Y001171D01*
X001895Y001191D01*
X001904Y001211D01*
X001916Y001228D01*
X001931Y001242D01*
X001949Y001254D01*
X001969Y001262D01*
X001989Y001267D01*
X002010Y001268D01*
X002031Y001265D01*
X002051Y001259D01*
X002070Y001248D01*
X002087Y001235D01*
X002100Y001219D01*
X002111Y001201D01*
X002119Y001181D01*
X002123Y001161D01*
X002123Y001139D01*
X002119Y001119D01*
X002111Y001099D01*
X002100Y001081D01*
X002087Y001065D01*
X002070Y001052D01*
X002051Y001041D01*
X002031Y001035D01*
X002010Y001032D01*
X001989Y001033D01*
X001969Y001038D01*
X001949Y001046D01*
X001931Y001058D01*
X001916Y001072D01*
X001904Y001089D01*
X001895Y001109D01*
X001889Y001129D01*
X001887Y001150D01*
X002137Y001000D02*
X002139Y001021D01*
X002145Y001041D01*
X002154Y001061D01*
X002166Y001078D01*
X002181Y001092D01*
X002199Y001104D01*
X002219Y001112D01*
X002239Y001117D01*
X002260Y001118D01*
X002281Y001115D01*
X002301Y001109D01*
X002320Y001098D01*
X002337Y001085D01*
X002350Y001069D01*
X002361Y001051D01*
X002369Y001031D01*
X002373Y001011D01*
X002373Y000989D01*
X002369Y000969D01*
X002361Y000949D01*
X002350Y000931D01*
X002337Y000915D01*
X002320Y000902D01*
X002301Y000891D01*
X002281Y000885D01*
X002260Y000882D01*
X002239Y000883D01*
X002219Y000888D01*
X002199Y000896D01*
X002181Y000908D01*
X002166Y000922D01*
X002154Y000939D01*
X002145Y000959D01*
X002139Y000979D01*
X002137Y001000D01*
X021712Y001000D02*
X021714Y001021D01*
X021720Y001041D01*
X021729Y001061D01*
X021741Y001078D01*
X021756Y001092D01*
X021774Y001104D01*
X021794Y001112D01*
X021814Y001117D01*
X021835Y001118D01*
X021856Y001115D01*
X021876Y001109D01*
X021895Y001098D01*
X021912Y001085D01*
X021925Y001069D01*
X021936Y001051D01*
X021944Y001031D01*
X021948Y001011D01*
X021948Y000989D01*
X021944Y000969D01*
X021936Y000949D01*
X021925Y000931D01*
X021912Y000915D01*
X021895Y000902D01*
X021876Y000891D01*
X021856Y000885D01*
X021835Y000882D01*
X021814Y000883D01*
X021794Y000888D01*
X021774Y000896D01*
X021756Y000908D01*
X021741Y000922D01*
X021729Y000939D01*
X021720Y000959D01*
X021714Y000979D01*
X021712Y001000D01*
X021962Y001150D02*
X021964Y001171D01*
X021970Y001191D01*
X021979Y001211D01*
X021991Y001228D01*
X022006Y001242D01*
X022024Y001254D01*
X022044Y001262D01*
X022064Y001267D01*
X022085Y001268D01*
X022106Y001265D01*
X022126Y001259D01*
X022145Y001248D01*
X022162Y001235D01*
X022175Y001219D01*
X022186Y001201D01*
X022194Y001181D01*
X022198Y001161D01*
X022198Y001139D01*
X022194Y001119D01*
X022186Y001099D01*
X022175Y001081D01*
X022162Y001065D01*
X022145Y001052D01*
X022126Y001041D01*
X022106Y001035D01*
X022085Y001032D01*
X022064Y001033D01*
X022044Y001038D01*
X022024Y001046D01*
X022006Y001058D01*
X021991Y001072D01*
X021979Y001089D01*
X021970Y001109D01*
X021964Y001129D01*
X021962Y001150D01*
X022212Y001000D02*
X022214Y001021D01*
X022220Y001041D01*
X022229Y001061D01*
X022241Y001078D01*
X022256Y001092D01*
X022274Y001104D01*
X022294Y001112D01*
X022314Y001117D01*
X022335Y001118D01*
X022356Y001115D01*
X022376Y001109D01*
X022395Y001098D01*
X022412Y001085D01*
X022425Y001069D01*
X022436Y001051D01*
X022444Y001031D01*
X022448Y001011D01*
X022448Y000989D01*
X022444Y000969D01*
X022436Y000949D01*
X022425Y000931D01*
X022412Y000915D01*
X022395Y000902D01*
X022376Y000891D01*
X022356Y000885D01*
X022335Y000882D01*
X022314Y000883D01*
X022294Y000888D01*
X022274Y000896D01*
X022256Y000908D01*
X022241Y000922D01*
X022229Y000939D01*
X022220Y000959D01*
X022214Y000979D01*
X022212Y001000D01*
X032555Y001275D02*
X032557Y001303D01*
X032563Y001330D01*
X032572Y001356D01*
X032585Y001381D01*
X032602Y001404D01*
X032621Y001424D01*
X032643Y001441D01*
X032667Y001455D01*
X032693Y001465D01*
X032720Y001472D01*
X032748Y001475D01*
X032776Y001474D01*
X032803Y001469D01*
X032830Y001460D01*
X032855Y001448D01*
X032878Y001433D01*
X032899Y001414D01*
X032917Y001393D01*
X032932Y001369D01*
X032943Y001343D01*
X032951Y001317D01*
X032955Y001289D01*
X032955Y001261D01*
X032951Y001233D01*
X032943Y001207D01*
X032932Y001181D01*
X032917Y001157D01*
X032899Y001136D01*
X032878Y001117D01*
X032855Y001102D01*
X032830Y001090D01*
X032803Y001081D01*
X032776Y001076D01*
X032748Y001075D01*
X032720Y001078D01*
X032693Y001085D01*
X032667Y001095D01*
X032643Y001109D01*
X032621Y001126D01*
X032602Y001146D01*
X032585Y001169D01*
X032572Y001194D01*
X032563Y001220D01*
X032557Y001247D01*
X032555Y001275D01*
X033330Y001525D02*
X033332Y001553D01*
X033338Y001580D01*
X033347Y001606D01*
X033360Y001631D01*
X033377Y001654D01*
X033396Y001674D01*
X033418Y001691D01*
X033442Y001705D01*
X033468Y001715D01*
X033495Y001722D01*
X033523Y001725D01*
X033551Y001724D01*
X033578Y001719D01*
X033605Y001710D01*
X033630Y001698D01*
X033653Y001683D01*
X033674Y001664D01*
X033692Y001643D01*
X033707Y001619D01*
X033718Y001593D01*
X033726Y001567D01*
X033730Y001539D01*
X033730Y001511D01*
X033726Y001483D01*
X033718Y001457D01*
X033707Y001431D01*
X033692Y001407D01*
X033674Y001386D01*
X033653Y001367D01*
X033630Y001352D01*
X033605Y001340D01*
X033578Y001331D01*
X033551Y001326D01*
X033523Y001325D01*
X033495Y001328D01*
X033468Y001335D01*
X033442Y001345D01*
X033418Y001359D01*
X033396Y001376D01*
X033377Y001396D01*
X033360Y001419D01*
X033347Y001444D01*
X033338Y001470D01*
X033332Y001497D01*
X033330Y001525D01*
X033805Y001750D02*
X033807Y001778D01*
X033813Y001805D01*
X033822Y001831D01*
X033835Y001856D01*
X033852Y001879D01*
X033871Y001899D01*
X033893Y001916D01*
X033917Y001930D01*
X033943Y001940D01*
X033970Y001947D01*
X033998Y001950D01*
X034026Y001949D01*
X034053Y001944D01*
X034080Y001935D01*
X034105Y001923D01*
X034128Y001908D01*
X034149Y001889D01*
X034167Y001868D01*
X034182Y001844D01*
X034193Y001818D01*
X034201Y001792D01*
X034205Y001764D01*
X034205Y001736D01*
X034201Y001708D01*
X034193Y001682D01*
X034182Y001656D01*
X034167Y001632D01*
X034149Y001611D01*
X034128Y001592D01*
X034105Y001577D01*
X034080Y001565D01*
X034053Y001556D01*
X034026Y001551D01*
X033998Y001550D01*
X033970Y001553D01*
X033943Y001560D01*
X033917Y001570D01*
X033893Y001584D01*
X033871Y001601D01*
X033852Y001621D01*
X033835Y001644D01*
X033822Y001669D01*
X033813Y001695D01*
X033807Y001722D01*
X033805Y001750D01*
X034255Y001875D02*
X034257Y001903D01*
X034263Y001930D01*
X034272Y001956D01*
X034285Y001981D01*
X034302Y002004D01*
X034321Y002024D01*
X034343Y002041D01*
X034367Y002055D01*
X034393Y002065D01*
X034420Y002072D01*
X034448Y002075D01*
X034476Y002074D01*
X034503Y002069D01*
X034530Y002060D01*
X034555Y002048D01*
X034578Y002033D01*
X034599Y002014D01*
X034617Y001993D01*
X034632Y001969D01*
X034643Y001943D01*
X034651Y001917D01*
X034655Y001889D01*
X034655Y001861D01*
X034651Y001833D01*
X034643Y001807D01*
X034632Y001781D01*
X034617Y001757D01*
X034599Y001736D01*
X034578Y001717D01*
X034555Y001702D01*
X034530Y001690D01*
X034503Y001681D01*
X034476Y001676D01*
X034448Y001675D01*
X034420Y001678D01*
X034393Y001685D01*
X034367Y001695D01*
X034343Y001709D01*
X034321Y001726D01*
X034302Y001746D01*
X034285Y001769D01*
X034272Y001794D01*
X034263Y001820D01*
X034257Y001847D01*
X034255Y001875D01*
X034755Y001900D02*
X034757Y001928D01*
X034763Y001955D01*
X034772Y001981D01*
X034785Y002006D01*
X034802Y002029D01*
X034821Y002049D01*
X034843Y002066D01*
X034867Y002080D01*
X034893Y002090D01*
X034920Y002097D01*
X034948Y002100D01*
X034976Y002099D01*
X035003Y002094D01*
X035030Y002085D01*
X035055Y002073D01*
X035078Y002058D01*
X035099Y002039D01*
X035117Y002018D01*
X035132Y001994D01*
X035143Y001968D01*
X035151Y001942D01*
X035155Y001914D01*
X035155Y001886D01*
X035151Y001858D01*
X035143Y001832D01*
X035132Y001806D01*
X035117Y001782D01*
X035099Y001761D01*
X035078Y001742D01*
X035055Y001727D01*
X035030Y001715D01*
X035003Y001706D01*
X034976Y001701D01*
X034948Y001700D01*
X034920Y001703D01*
X034893Y001710D01*
X034867Y001720D01*
X034843Y001734D01*
X034821Y001751D01*
X034802Y001771D01*
X034785Y001794D01*
X034772Y001819D01*
X034763Y001845D01*
X034757Y001872D01*
X034755Y001900D01*
X034255Y002645D02*
X034257Y002686D01*
X034263Y002726D01*
X034272Y002766D01*
X034286Y002805D01*
X034303Y002842D01*
X034323Y002877D01*
X034347Y002911D01*
X034374Y002942D01*
X034403Y002970D01*
X034436Y002995D01*
X034470Y003017D01*
X034506Y003036D01*
X034544Y003051D01*
X034584Y003063D01*
X034624Y003071D01*
X034665Y003075D01*
X034705Y003075D01*
X034746Y003071D01*
X034786Y003063D01*
X034826Y003051D01*
X034864Y003036D01*
X034900Y003017D01*
X034934Y002995D01*
X034967Y002970D01*
X034996Y002942D01*
X035023Y002911D01*
X035047Y002877D01*
X035067Y002842D01*
X035084Y002805D01*
X035098Y002766D01*
X035107Y002726D01*
X035113Y002686D01*
X035115Y002645D01*
X035113Y002604D01*
X035107Y002564D01*
X035098Y002524D01*
X035084Y002485D01*
X035067Y002448D01*
X035047Y002413D01*
X035023Y002379D01*
X034996Y002348D01*
X034967Y002320D01*
X034934Y002295D01*
X034900Y002273D01*
X034864Y002254D01*
X034826Y002239D01*
X034786Y002227D01*
X034746Y002219D01*
X034705Y002215D01*
X034665Y002215D01*
X034624Y002219D01*
X034584Y002227D01*
X034544Y002239D01*
X034506Y002254D01*
X034470Y002273D01*
X034436Y002295D01*
X034403Y002320D01*
X034374Y002348D01*
X034347Y002379D01*
X034323Y002413D01*
X034303Y002448D01*
X034286Y002485D01*
X034272Y002524D01*
X034263Y002564D01*
X034257Y002604D01*
X034255Y002645D01*
X032912Y020200D02*
X032914Y020221D01*
X032920Y020241D01*
X032929Y020261D01*
X032941Y020278D01*
X032956Y020292D01*
X032974Y020304D01*
X032994Y020312D01*
X033014Y020317D01*
X033035Y020318D01*
X033056Y020315D01*
X033076Y020309D01*
X033095Y020298D01*
X033112Y020285D01*
X033125Y020269D01*
X033136Y020251D01*
X033144Y020231D01*
X033148Y020211D01*
X033148Y020189D01*
X033144Y020169D01*
X033136Y020149D01*
X033125Y020131D01*
X033112Y020115D01*
X033095Y020102D01*
X033076Y020091D01*
X033056Y020085D01*
X033035Y020082D01*
X033014Y020083D01*
X032994Y020088D01*
X032974Y020096D01*
X032956Y020108D01*
X032941Y020122D01*
X032929Y020139D01*
X032920Y020159D01*
X032914Y020179D01*
X032912Y020200D01*
X032637Y020375D02*
X032639Y020396D01*
X032645Y020416D01*
X032654Y020436D01*
X032666Y020453D01*
X032681Y020467D01*
X032699Y020479D01*
X032719Y020487D01*
X032739Y020492D01*
X032760Y020493D01*
X032781Y020490D01*
X032801Y020484D01*
X032820Y020473D01*
X032837Y020460D01*
X032850Y020444D01*
X032861Y020426D01*
X032869Y020406D01*
X032873Y020386D01*
X032873Y020364D01*
X032869Y020344D01*
X032861Y020324D01*
X032850Y020306D01*
X032837Y020290D01*
X032820Y020277D01*
X032801Y020266D01*
X032781Y020260D01*
X032760Y020257D01*
X032739Y020258D01*
X032719Y020263D01*
X032699Y020271D01*
X032681Y020283D01*
X032666Y020297D01*
X032654Y020314D01*
X032645Y020334D01*
X032639Y020354D01*
X032637Y020375D01*
X033187Y020375D02*
X033189Y020396D01*
X033195Y020416D01*
X033204Y020436D01*
X033216Y020453D01*
X033231Y020467D01*
X033249Y020479D01*
X033269Y020487D01*
X033289Y020492D01*
X033310Y020493D01*
X033331Y020490D01*
X033351Y020484D01*
X033370Y020473D01*
X033387Y020460D01*
X033400Y020444D01*
X033411Y020426D01*
X033419Y020406D01*
X033423Y020386D01*
X033423Y020364D01*
X033419Y020344D01*
X033411Y020324D01*
X033400Y020306D01*
X033387Y020290D01*
X033370Y020277D01*
X033351Y020266D01*
X033331Y020260D01*
X033310Y020257D01*
X033289Y020258D01*
X033269Y020263D01*
X033249Y020271D01*
X033231Y020283D01*
X033216Y020297D01*
X033204Y020314D01*
X033195Y020334D01*
X033189Y020354D01*
X033187Y020375D01*
X022237Y020375D02*
X022239Y020396D01*
X022245Y020416D01*
X022254Y020436D01*
X022266Y020453D01*
X022281Y020467D01*
X022299Y020479D01*
X022319Y020487D01*
X022339Y020492D01*
X022360Y020493D01*
X022381Y020490D01*
X022401Y020484D01*
X022420Y020473D01*
X022437Y020460D01*
X022450Y020444D01*
X022461Y020426D01*
X022469Y020406D01*
X022473Y020386D01*
X022473Y020364D01*
X022469Y020344D01*
X022461Y020324D01*
X022450Y020306D01*
X022437Y020290D01*
X022420Y020277D01*
X022401Y020266D01*
X022381Y020260D01*
X022360Y020257D01*
X022339Y020258D01*
X022319Y020263D01*
X022299Y020271D01*
X022281Y020283D01*
X022266Y020297D01*
X022254Y020314D01*
X022245Y020334D01*
X022239Y020354D01*
X022237Y020375D01*
X021962Y020200D02*
X021964Y020221D01*
X021970Y020241D01*
X021979Y020261D01*
X021991Y020278D01*
X022006Y020292D01*
X022024Y020304D01*
X022044Y020312D01*
X022064Y020317D01*
X022085Y020318D01*
X022106Y020315D01*
X022126Y020309D01*
X022145Y020298D01*
X022162Y020285D01*
X022175Y020269D01*
X022186Y020251D01*
X022194Y020231D01*
X022198Y020211D01*
X022198Y020189D01*
X022194Y020169D01*
X022186Y020149D01*
X022175Y020131D01*
X022162Y020115D01*
X022145Y020102D01*
X022126Y020091D01*
X022106Y020085D01*
X022085Y020082D01*
X022064Y020083D01*
X022044Y020088D01*
X022024Y020096D01*
X022006Y020108D01*
X021991Y020122D01*
X021979Y020139D01*
X021970Y020159D01*
X021964Y020179D01*
X021962Y020200D01*
X021687Y020375D02*
X021689Y020396D01*
X021695Y020416D01*
X021704Y020436D01*
X021716Y020453D01*
X021731Y020467D01*
X021749Y020479D01*
X021769Y020487D01*
X021789Y020492D01*
X021810Y020493D01*
X021831Y020490D01*
X021851Y020484D01*
X021870Y020473D01*
X021887Y020460D01*
X021900Y020444D01*
X021911Y020426D01*
X021919Y020406D01*
X021923Y020386D01*
X021923Y020364D01*
X021919Y020344D01*
X021911Y020324D01*
X021900Y020306D01*
X021887Y020290D01*
X021870Y020277D01*
X021851Y020266D01*
X021831Y020260D01*
X021810Y020257D01*
X021789Y020258D01*
X021769Y020263D01*
X021749Y020271D01*
X021731Y020283D01*
X021716Y020297D01*
X021704Y020314D01*
X021695Y020334D01*
X021689Y020354D01*
X021687Y020375D01*
X002162Y020375D02*
X002164Y020396D01*
X002170Y020416D01*
X002179Y020436D01*
X002191Y020453D01*
X002206Y020467D01*
X002224Y020479D01*
X002244Y020487D01*
X002264Y020492D01*
X002285Y020493D01*
X002306Y020490D01*
X002326Y020484D01*
X002345Y020473D01*
X002362Y020460D01*
X002375Y020444D01*
X002386Y020426D01*
X002394Y020406D01*
X002398Y020386D01*
X002398Y020364D01*
X002394Y020344D01*
X002386Y020324D01*
X002375Y020306D01*
X002362Y020290D01*
X002345Y020277D01*
X002326Y020266D01*
X002306Y020260D01*
X002285Y020257D01*
X002264Y020258D01*
X002244Y020263D01*
X002224Y020271D01*
X002206Y020283D01*
X002191Y020297D01*
X002179Y020314D01*
X002170Y020334D01*
X002164Y020354D01*
X002162Y020375D01*
X001887Y020200D02*
X001889Y020221D01*
X001895Y020241D01*
X001904Y020261D01*
X001916Y020278D01*
X001931Y020292D01*
X001949Y020304D01*
X001969Y020312D01*
X001989Y020317D01*
X002010Y020318D01*
X002031Y020315D01*
X002051Y020309D01*
X002070Y020298D01*
X002087Y020285D01*
X002100Y020269D01*
X002111Y020251D01*
X002119Y020231D01*
X002123Y020211D01*
X002123Y020189D01*
X002119Y020169D01*
X002111Y020149D01*
X002100Y020131D01*
X002087Y020115D01*
X002070Y020102D01*
X002051Y020091D01*
X002031Y020085D01*
X002010Y020082D01*
X001989Y020083D01*
X001969Y020088D01*
X001949Y020096D01*
X001931Y020108D01*
X001916Y020122D01*
X001904Y020139D01*
X001895Y020159D01*
X001889Y020179D01*
X001887Y020200D01*
X001612Y020375D02*
X001614Y020396D01*
X001620Y020416D01*
X001629Y020436D01*
X001641Y020453D01*
X001656Y020467D01*
X001674Y020479D01*
X001694Y020487D01*
X001714Y020492D01*
X001735Y020493D01*
X001756Y020490D01*
X001776Y020484D01*
X001795Y020473D01*
X001812Y020460D01*
X001825Y020444D01*
X001836Y020426D01*
X001844Y020406D01*
X001848Y020386D01*
X001848Y020364D01*
X001844Y020344D01*
X001836Y020324D01*
X001825Y020306D01*
X001812Y020290D01*
X001795Y020277D01*
X001776Y020266D01*
X001756Y020260D01*
X001735Y020257D01*
X001714Y020258D01*
X001694Y020263D01*
X001674Y020271D01*
X001656Y020283D01*
X001641Y020297D01*
X001629Y020314D01*
X001620Y020334D01*
X001614Y020354D01*
X001612Y020375D01*
D11*
X031770Y019100D03*
X031770Y018600D03*
X031770Y018100D03*
X031770Y017600D03*
X031770Y017100D03*
X031770Y016600D03*
X031770Y016100D03*
X031770Y015600D03*
X034190Y015600D03*
X034190Y016100D03*
X034190Y016600D03*
X034190Y017100D03*
X034190Y017600D03*
X034190Y018100D03*
X034190Y018600D03*
X034190Y019100D03*
X034190Y012000D03*
X034190Y011500D03*
X034190Y011000D03*
X034190Y010500D03*
X034190Y010000D03*
X034190Y009500D03*
X034190Y009000D03*
X034190Y008500D03*
X031770Y008500D03*
X031770Y009000D03*
X031770Y009500D03*
X031770Y010000D03*
X031770Y010500D03*
X031770Y011000D03*
X031770Y011500D03*
X031770Y012000D03*
D12*
X017130Y015500D03*
X016130Y015500D03*
D13*
X007611Y015694D02*
X007349Y015694D01*
X007349Y015956D01*
X007611Y015956D01*
X007611Y015694D01*
X007611Y015781D02*
X007349Y015781D01*
X007349Y015868D02*
X007611Y015868D01*
X007611Y015955D02*
X007349Y015955D01*
X007011Y015694D02*
X006749Y015694D01*
X006749Y015956D01*
X007011Y015956D01*
X007011Y015694D01*
X007011Y015781D02*
X006749Y015781D01*
X006749Y015868D02*
X007011Y015868D01*
X007011Y015955D02*
X006749Y015955D01*
X006749Y017369D02*
X007011Y017369D01*
X006749Y017369D02*
X006749Y017631D01*
X007011Y017631D01*
X007011Y017369D01*
X007011Y017456D02*
X006749Y017456D01*
X006749Y017543D02*
X007011Y017543D01*
X007011Y017630D02*
X006749Y017630D01*
X007349Y017369D02*
X007611Y017369D01*
X007349Y017369D02*
X007349Y017631D01*
X007611Y017631D01*
X007611Y017369D01*
X007611Y017456D02*
X007349Y017456D01*
X007349Y017543D02*
X007611Y017543D01*
X007611Y017630D02*
X007349Y017630D01*
X007349Y018844D02*
X007611Y018844D01*
X007349Y018844D02*
X007349Y019106D01*
X007611Y019106D01*
X007611Y018844D01*
X007611Y018931D02*
X007349Y018931D01*
X007349Y019018D02*
X007611Y019018D01*
X007611Y019105D02*
X007349Y019105D01*
X007011Y018844D02*
X006749Y018844D01*
X006749Y019106D01*
X007011Y019106D01*
X007011Y018844D01*
X007011Y018931D02*
X006749Y018931D01*
X006749Y019018D02*
X007011Y019018D01*
X007011Y019105D02*
X006749Y019105D01*
X016074Y007769D02*
X016336Y007769D01*
X016074Y007769D02*
X016074Y008031D01*
X016336Y008031D01*
X016336Y007769D01*
X016336Y007856D02*
X016074Y007856D01*
X016074Y007943D02*
X016336Y007943D01*
X016336Y008030D02*
X016074Y008030D01*
X016674Y007769D02*
X016936Y007769D01*
X016674Y007769D02*
X016674Y008031D01*
X016936Y008031D01*
X016936Y007769D01*
X016936Y007856D02*
X016674Y007856D01*
X016674Y007943D02*
X016936Y007943D01*
X016936Y008030D02*
X016674Y008030D01*
X018024Y007769D02*
X018286Y007769D01*
X018024Y007769D02*
X018024Y008031D01*
X018286Y008031D01*
X018286Y007769D01*
X018286Y007856D02*
X018024Y007856D01*
X018024Y007943D02*
X018286Y007943D01*
X018286Y008030D02*
X018024Y008030D01*
X018624Y007769D02*
X018886Y007769D01*
X018624Y007769D02*
X018624Y008031D01*
X018886Y008031D01*
X018886Y007769D01*
X018886Y007856D02*
X018624Y007856D01*
X018624Y007943D02*
X018886Y007943D01*
X018886Y008030D02*
X018624Y008030D01*
X019311Y004981D02*
X019311Y004719D01*
X019049Y004719D01*
X019049Y004981D01*
X019311Y004981D01*
X019311Y004806D02*
X019049Y004806D01*
X019049Y004893D02*
X019311Y004893D01*
X019311Y004980D02*
X019049Y004980D01*
X019311Y004381D02*
X019311Y004119D01*
X019049Y004119D01*
X019049Y004381D01*
X019311Y004381D01*
X019311Y004206D02*
X019049Y004206D01*
X019049Y004293D02*
X019311Y004293D01*
X019311Y004380D02*
X019049Y004380D01*
X014861Y002131D02*
X014861Y001869D01*
X014599Y001869D01*
X014599Y002131D01*
X014861Y002131D01*
X014861Y001956D02*
X014599Y001956D01*
X014599Y002043D02*
X014861Y002043D01*
X014861Y002130D02*
X014599Y002130D01*
X014861Y001531D02*
X014861Y001269D01*
X014599Y001269D01*
X014599Y001531D01*
X014861Y001531D01*
X014861Y001356D02*
X014599Y001356D01*
X014599Y001443D02*
X014861Y001443D01*
X014861Y001530D02*
X014599Y001530D01*
X016199Y001569D02*
X016461Y001569D01*
X016199Y001569D02*
X016199Y001831D01*
X016461Y001831D01*
X016461Y001569D01*
X016461Y001656D02*
X016199Y001656D01*
X016199Y001743D02*
X016461Y001743D01*
X016461Y001830D02*
X016199Y001830D01*
X016799Y001569D02*
X017061Y001569D01*
X016799Y001569D02*
X016799Y001831D01*
X017061Y001831D01*
X017061Y001569D01*
X017061Y001656D02*
X016799Y001656D01*
X016799Y001743D02*
X017061Y001743D01*
X017061Y001830D02*
X016799Y001830D01*
D14*
X018155Y001475D02*
X018455Y001475D01*
X018155Y001475D02*
X018155Y001925D01*
X018455Y001925D01*
X018455Y001475D01*
X018455Y001574D02*
X018155Y001574D01*
X018155Y001673D02*
X018455Y001673D01*
X018455Y001772D02*
X018155Y001772D01*
X018155Y001871D02*
X018455Y001871D01*
X018855Y001475D02*
X019155Y001475D01*
X018855Y001475D02*
X018855Y001925D01*
X019155Y001925D01*
X019155Y001475D01*
X019155Y001574D02*
X018855Y001574D01*
X018855Y001673D02*
X019155Y001673D01*
X019155Y001772D02*
X018855Y001772D01*
X018855Y001871D02*
X019155Y001871D01*
X020055Y002050D02*
X020055Y002350D01*
X020505Y002350D01*
X020505Y002050D01*
X020055Y002050D01*
X020055Y002149D02*
X020505Y002149D01*
X020505Y002248D02*
X020055Y002248D01*
X020055Y002347D02*
X020505Y002347D01*
X020055Y001650D02*
X020055Y001350D01*
X020055Y001650D02*
X020505Y001650D01*
X020505Y001350D01*
X020055Y001350D01*
X020055Y001449D02*
X020505Y001449D01*
X020505Y001548D02*
X020055Y001548D01*
X020055Y001647D02*
X020505Y001647D01*
X014505Y003975D02*
X014505Y004275D01*
X014955Y004275D01*
X014955Y003975D01*
X014505Y003975D01*
X014505Y004074D02*
X014955Y004074D01*
X014955Y004173D02*
X014505Y004173D01*
X014505Y004272D02*
X014955Y004272D01*
X014505Y004675D02*
X014505Y004975D01*
X014955Y004975D01*
X014955Y004675D01*
X014505Y004675D01*
X014505Y004774D02*
X014955Y004774D01*
X014955Y004873D02*
X014505Y004873D01*
X014505Y004972D02*
X014955Y004972D01*
X014505Y005750D02*
X014505Y006050D01*
X014955Y006050D01*
X014955Y005750D01*
X014505Y005750D01*
X014505Y005849D02*
X014955Y005849D01*
X014955Y005948D02*
X014505Y005948D01*
X014505Y006047D02*
X014955Y006047D01*
X014505Y006450D02*
X014505Y006750D01*
X014955Y006750D01*
X014955Y006450D01*
X014505Y006450D01*
X014505Y006549D02*
X014955Y006549D01*
X014955Y006648D02*
X014505Y006648D01*
X014505Y006747D02*
X014955Y006747D01*
X017405Y006600D02*
X017705Y006600D01*
X017405Y006600D02*
X017405Y007050D01*
X017705Y007050D01*
X017705Y006600D01*
X017705Y006699D02*
X017405Y006699D01*
X017405Y006798D02*
X017705Y006798D01*
X017705Y006897D02*
X017405Y006897D01*
X017405Y006996D02*
X017705Y006996D01*
X018105Y006600D02*
X018405Y006600D01*
X018105Y006600D02*
X018105Y007050D01*
X018405Y007050D01*
X018405Y006600D01*
X018405Y006699D02*
X018105Y006699D01*
X018105Y006798D02*
X018405Y006798D01*
X018405Y006897D02*
X018105Y006897D01*
X018105Y006996D02*
X018405Y006996D01*
X020155Y006975D02*
X020155Y007275D01*
X020605Y007275D01*
X020605Y006975D01*
X020155Y006975D01*
X020155Y007074D02*
X020605Y007074D01*
X020605Y007173D02*
X020155Y007173D01*
X020155Y007272D02*
X020605Y007272D01*
X020155Y007675D02*
X020155Y007975D01*
X020605Y007975D01*
X020605Y007675D01*
X020155Y007675D01*
X020155Y007774D02*
X020605Y007774D01*
X020605Y007873D02*
X020155Y007873D01*
X020155Y007972D02*
X020605Y007972D01*
X020605Y006175D02*
X020605Y005875D01*
X020155Y005875D01*
X020155Y006175D01*
X020605Y006175D01*
X020605Y005974D02*
X020155Y005974D01*
X020155Y006073D02*
X020605Y006073D01*
X020605Y006172D02*
X020155Y006172D01*
X020605Y005475D02*
X020605Y005175D01*
X020155Y005175D01*
X020155Y005475D01*
X020605Y005475D01*
X020605Y005274D02*
X020155Y005274D01*
X020155Y005373D02*
X020605Y005373D01*
X020605Y005472D02*
X020155Y005472D01*
X014655Y009100D02*
X014655Y009400D01*
X015105Y009400D01*
X015105Y009100D01*
X014655Y009100D01*
X014655Y009199D02*
X015105Y009199D01*
X015105Y009298D02*
X014655Y009298D01*
X014655Y009397D02*
X015105Y009397D01*
X014655Y009800D02*
X014655Y010100D01*
X015105Y010100D01*
X015105Y009800D01*
X014655Y009800D01*
X014655Y009899D02*
X015105Y009899D01*
X015105Y009998D02*
X014655Y009998D01*
X014655Y010097D02*
X015105Y010097D01*
X011380Y009500D02*
X011080Y009500D01*
X011380Y009500D02*
X011380Y009050D01*
X011080Y009050D01*
X011080Y009500D01*
X011080Y009149D02*
X011380Y009149D01*
X011380Y009248D02*
X011080Y009248D01*
X011080Y009347D02*
X011380Y009347D01*
X011380Y009446D02*
X011080Y009446D01*
X010680Y009500D02*
X010380Y009500D01*
X010680Y009500D02*
X010680Y009050D01*
X010380Y009050D01*
X010380Y009500D01*
X010380Y009149D02*
X010680Y009149D01*
X010680Y009248D02*
X010380Y009248D01*
X010380Y009347D02*
X010680Y009347D01*
X010680Y009446D02*
X010380Y009446D01*
X010955Y007600D02*
X010955Y007300D01*
X010955Y007600D02*
X011405Y007600D01*
X011405Y007300D01*
X010955Y007300D01*
X010955Y007399D02*
X011405Y007399D01*
X011405Y007498D02*
X010955Y007498D01*
X010955Y007597D02*
X011405Y007597D01*
X010955Y006900D02*
X010955Y006600D01*
X010955Y006900D02*
X011405Y006900D01*
X011405Y006600D01*
X010955Y006600D01*
X010955Y006699D02*
X011405Y006699D01*
X011405Y006798D02*
X010955Y006798D01*
X010955Y006897D02*
X011405Y006897D01*
X010705Y005250D02*
X010705Y004950D01*
X010255Y004950D01*
X010255Y005250D01*
X010705Y005250D01*
X010705Y005049D02*
X010255Y005049D01*
X010255Y005148D02*
X010705Y005148D01*
X010705Y005247D02*
X010255Y005247D01*
X010705Y004550D02*
X010705Y004250D01*
X010255Y004250D01*
X010255Y004550D01*
X010705Y004550D01*
X010705Y004349D02*
X010255Y004349D01*
X010255Y004448D02*
X010705Y004448D01*
X010705Y004547D02*
X010255Y004547D01*
X010255Y003050D02*
X010255Y002750D01*
X010255Y003050D02*
X010705Y003050D01*
X010705Y002750D01*
X010255Y002750D01*
X010255Y002849D02*
X010705Y002849D01*
X010705Y002948D02*
X010255Y002948D01*
X010255Y003047D02*
X010705Y003047D01*
X010255Y002350D02*
X010255Y002050D01*
X010255Y002350D02*
X010705Y002350D01*
X010705Y002050D01*
X010255Y002050D01*
X010255Y002149D02*
X010705Y002149D01*
X010705Y002248D02*
X010255Y002248D01*
X010255Y002347D02*
X010705Y002347D01*
X033605Y003600D02*
X033605Y003900D01*
X034055Y003900D01*
X034055Y003600D01*
X033605Y003600D01*
X033605Y003699D02*
X034055Y003699D01*
X034055Y003798D02*
X033605Y003798D01*
X033605Y003897D02*
X034055Y003897D01*
X033605Y004300D02*
X033605Y004600D01*
X034055Y004600D01*
X034055Y004300D01*
X033605Y004300D01*
X033605Y004399D02*
X034055Y004399D01*
X034055Y004498D02*
X033605Y004498D01*
X033605Y004597D02*
X034055Y004597D01*
X010905Y016950D02*
X010905Y017250D01*
X011355Y017250D01*
X011355Y016950D01*
X010905Y016950D01*
X010905Y017049D02*
X011355Y017049D01*
X011355Y017148D02*
X010905Y017148D01*
X010905Y017247D02*
X011355Y017247D01*
X010905Y017650D02*
X010905Y017950D01*
X011355Y017950D01*
X011355Y017650D01*
X010905Y017650D01*
X010905Y017749D02*
X011355Y017749D01*
X011355Y017848D02*
X010905Y017848D01*
X010905Y017947D02*
X011355Y017947D01*
D15*
X016255Y010325D03*
X017755Y010325D03*
X017755Y009025D03*
X016255Y009025D03*
D16*
X019256Y011000D03*
X020004Y011000D03*
X028006Y004150D03*
X028754Y004150D03*
X023954Y002050D03*
X023206Y002050D03*
D17*
X017130Y012100D03*
X017930Y012450D03*
X017130Y012800D03*
D18*
X019150Y009050D03*
X020410Y009050D03*
D19*
X018054Y005750D03*
X018054Y005250D03*
X018054Y004750D03*
X018054Y004250D03*
X018054Y003750D03*
X018054Y003250D03*
X018054Y002750D03*
X016006Y002750D03*
X016006Y003250D03*
X016006Y003750D03*
X016006Y004250D03*
X016006Y004750D03*
X016006Y005250D03*
X016006Y005750D03*
D20*
X020380Y004224D03*
X020380Y003476D03*
D21*
X031610Y005500D03*
X031610Y006100D03*
X031610Y006700D03*
X031610Y007300D03*
X034050Y007300D03*
X034050Y006700D03*
X034050Y006100D03*
X034050Y005500D03*
D22*
X010640Y013580D03*
X009730Y013580D03*
X008820Y013580D03*
D23*
X009730Y016020D03*
D24*
X020426Y017000D03*
X022034Y017000D03*
X022084Y015350D03*
X020476Y015350D03*
X020426Y013650D03*
X022034Y013650D03*
X008234Y007000D03*
X006626Y007000D03*
X006626Y005450D03*
X008234Y005450D03*
X008234Y003800D03*
X006626Y003800D03*
X006626Y002250D03*
X008234Y002250D03*
D25*
X009580Y017496D03*
X009580Y019104D03*
M02*
