G75*
%MOIN*%
%OFA0B0*%
%FSLAX24Y24*%
%IPPOS*%
%LPD*%
%AMOC8*
5,1,8,0,0,1.08239X$1,22.5*
%
%ADD10C,0.0000*%
%ADD11C,0.0100*%
%ADD12C,0.0030*%
%ADD13C,0.0160*%
%ADD14C,0.0060*%
%ADD15C,0.0020*%
%ADD16C,0.0050*%
%ADD17C,0.0040*%
%ADD18C,0.0080*%
D10*
X000280Y000834D02*
X000280Y020519D01*
X035275Y020519D01*
X035275Y000834D01*
X000280Y000834D01*
X001637Y001000D02*
X001639Y001021D01*
X001645Y001041D01*
X001654Y001061D01*
X001666Y001078D01*
X001681Y001092D01*
X001699Y001104D01*
X001719Y001112D01*
X001739Y001117D01*
X001760Y001118D01*
X001781Y001115D01*
X001801Y001109D01*
X001820Y001098D01*
X001837Y001085D01*
X001850Y001069D01*
X001861Y001051D01*
X001869Y001031D01*
X001873Y001011D01*
X001873Y000989D01*
X001869Y000969D01*
X001861Y000949D01*
X001850Y000931D01*
X001837Y000915D01*
X001820Y000902D01*
X001801Y000891D01*
X001781Y000885D01*
X001760Y000882D01*
X001739Y000883D01*
X001719Y000888D01*
X001699Y000896D01*
X001681Y000908D01*
X001666Y000922D01*
X001654Y000939D01*
X001645Y000959D01*
X001639Y000979D01*
X001637Y001000D01*
X001887Y001150D02*
X001889Y001171D01*
X001895Y001191D01*
X001904Y001211D01*
X001916Y001228D01*
X001931Y001242D01*
X001949Y001254D01*
X001969Y001262D01*
X001989Y001267D01*
X002010Y001268D01*
X002031Y001265D01*
X002051Y001259D01*
X002070Y001248D01*
X002087Y001235D01*
X002100Y001219D01*
X002111Y001201D01*
X002119Y001181D01*
X002123Y001161D01*
X002123Y001139D01*
X002119Y001119D01*
X002111Y001099D01*
X002100Y001081D01*
X002087Y001065D01*
X002070Y001052D01*
X002051Y001041D01*
X002031Y001035D01*
X002010Y001032D01*
X001989Y001033D01*
X001969Y001038D01*
X001949Y001046D01*
X001931Y001058D01*
X001916Y001072D01*
X001904Y001089D01*
X001895Y001109D01*
X001889Y001129D01*
X001887Y001150D01*
X002137Y001000D02*
X002139Y001021D01*
X002145Y001041D01*
X002154Y001061D01*
X002166Y001078D01*
X002181Y001092D01*
X002199Y001104D01*
X002219Y001112D01*
X002239Y001117D01*
X002260Y001118D01*
X002281Y001115D01*
X002301Y001109D01*
X002320Y001098D01*
X002337Y001085D01*
X002350Y001069D01*
X002361Y001051D01*
X002369Y001031D01*
X002373Y001011D01*
X002373Y000989D01*
X002369Y000969D01*
X002361Y000949D01*
X002350Y000931D01*
X002337Y000915D01*
X002320Y000902D01*
X002301Y000891D01*
X002281Y000885D01*
X002260Y000882D01*
X002239Y000883D01*
X002219Y000888D01*
X002199Y000896D01*
X002181Y000908D01*
X002166Y000922D01*
X002154Y000939D01*
X002145Y000959D01*
X002139Y000979D01*
X002137Y001000D01*
X021712Y001000D02*
X021714Y001021D01*
X021720Y001041D01*
X021729Y001061D01*
X021741Y001078D01*
X021756Y001092D01*
X021774Y001104D01*
X021794Y001112D01*
X021814Y001117D01*
X021835Y001118D01*
X021856Y001115D01*
X021876Y001109D01*
X021895Y001098D01*
X021912Y001085D01*
X021925Y001069D01*
X021936Y001051D01*
X021944Y001031D01*
X021948Y001011D01*
X021948Y000989D01*
X021944Y000969D01*
X021936Y000949D01*
X021925Y000931D01*
X021912Y000915D01*
X021895Y000902D01*
X021876Y000891D01*
X021856Y000885D01*
X021835Y000882D01*
X021814Y000883D01*
X021794Y000888D01*
X021774Y000896D01*
X021756Y000908D01*
X021741Y000922D01*
X021729Y000939D01*
X021720Y000959D01*
X021714Y000979D01*
X021712Y001000D01*
X021962Y001150D02*
X021964Y001171D01*
X021970Y001191D01*
X021979Y001211D01*
X021991Y001228D01*
X022006Y001242D01*
X022024Y001254D01*
X022044Y001262D01*
X022064Y001267D01*
X022085Y001268D01*
X022106Y001265D01*
X022126Y001259D01*
X022145Y001248D01*
X022162Y001235D01*
X022175Y001219D01*
X022186Y001201D01*
X022194Y001181D01*
X022198Y001161D01*
X022198Y001139D01*
X022194Y001119D01*
X022186Y001099D01*
X022175Y001081D01*
X022162Y001065D01*
X022145Y001052D01*
X022126Y001041D01*
X022106Y001035D01*
X022085Y001032D01*
X022064Y001033D01*
X022044Y001038D01*
X022024Y001046D01*
X022006Y001058D01*
X021991Y001072D01*
X021979Y001089D01*
X021970Y001109D01*
X021964Y001129D01*
X021962Y001150D01*
X022212Y001000D02*
X022214Y001021D01*
X022220Y001041D01*
X022229Y001061D01*
X022241Y001078D01*
X022256Y001092D01*
X022274Y001104D01*
X022294Y001112D01*
X022314Y001117D01*
X022335Y001118D01*
X022356Y001115D01*
X022376Y001109D01*
X022395Y001098D01*
X022412Y001085D01*
X022425Y001069D01*
X022436Y001051D01*
X022444Y001031D01*
X022448Y001011D01*
X022448Y000989D01*
X022444Y000969D01*
X022436Y000949D01*
X022425Y000931D01*
X022412Y000915D01*
X022395Y000902D01*
X022376Y000891D01*
X022356Y000885D01*
X022335Y000882D01*
X022314Y000883D01*
X022294Y000888D01*
X022274Y000896D01*
X022256Y000908D01*
X022241Y000922D01*
X022229Y000939D01*
X022220Y000959D01*
X022214Y000979D01*
X022212Y001000D01*
X032555Y001275D02*
X032557Y001303D01*
X032563Y001330D01*
X032572Y001356D01*
X032585Y001381D01*
X032602Y001404D01*
X032621Y001424D01*
X032643Y001441D01*
X032667Y001455D01*
X032693Y001465D01*
X032720Y001472D01*
X032748Y001475D01*
X032776Y001474D01*
X032803Y001469D01*
X032830Y001460D01*
X032855Y001448D01*
X032878Y001433D01*
X032899Y001414D01*
X032917Y001393D01*
X032932Y001369D01*
X032943Y001343D01*
X032951Y001317D01*
X032955Y001289D01*
X032955Y001261D01*
X032951Y001233D01*
X032943Y001207D01*
X032932Y001181D01*
X032917Y001157D01*
X032899Y001136D01*
X032878Y001117D01*
X032855Y001102D01*
X032830Y001090D01*
X032803Y001081D01*
X032776Y001076D01*
X032748Y001075D01*
X032720Y001078D01*
X032693Y001085D01*
X032667Y001095D01*
X032643Y001109D01*
X032621Y001126D01*
X032602Y001146D01*
X032585Y001169D01*
X032572Y001194D01*
X032563Y001220D01*
X032557Y001247D01*
X032555Y001275D01*
X033330Y001525D02*
X033332Y001553D01*
X033338Y001580D01*
X033347Y001606D01*
X033360Y001631D01*
X033377Y001654D01*
X033396Y001674D01*
X033418Y001691D01*
X033442Y001705D01*
X033468Y001715D01*
X033495Y001722D01*
X033523Y001725D01*
X033551Y001724D01*
X033578Y001719D01*
X033605Y001710D01*
X033630Y001698D01*
X033653Y001683D01*
X033674Y001664D01*
X033692Y001643D01*
X033707Y001619D01*
X033718Y001593D01*
X033726Y001567D01*
X033730Y001539D01*
X033730Y001511D01*
X033726Y001483D01*
X033718Y001457D01*
X033707Y001431D01*
X033692Y001407D01*
X033674Y001386D01*
X033653Y001367D01*
X033630Y001352D01*
X033605Y001340D01*
X033578Y001331D01*
X033551Y001326D01*
X033523Y001325D01*
X033495Y001328D01*
X033468Y001335D01*
X033442Y001345D01*
X033418Y001359D01*
X033396Y001376D01*
X033377Y001396D01*
X033360Y001419D01*
X033347Y001444D01*
X033338Y001470D01*
X033332Y001497D01*
X033330Y001525D01*
X033805Y001750D02*
X033807Y001778D01*
X033813Y001805D01*
X033822Y001831D01*
X033835Y001856D01*
X033852Y001879D01*
X033871Y001899D01*
X033893Y001916D01*
X033917Y001930D01*
X033943Y001940D01*
X033970Y001947D01*
X033998Y001950D01*
X034026Y001949D01*
X034053Y001944D01*
X034080Y001935D01*
X034105Y001923D01*
X034128Y001908D01*
X034149Y001889D01*
X034167Y001868D01*
X034182Y001844D01*
X034193Y001818D01*
X034201Y001792D01*
X034205Y001764D01*
X034205Y001736D01*
X034201Y001708D01*
X034193Y001682D01*
X034182Y001656D01*
X034167Y001632D01*
X034149Y001611D01*
X034128Y001592D01*
X034105Y001577D01*
X034080Y001565D01*
X034053Y001556D01*
X034026Y001551D01*
X033998Y001550D01*
X033970Y001553D01*
X033943Y001560D01*
X033917Y001570D01*
X033893Y001584D01*
X033871Y001601D01*
X033852Y001621D01*
X033835Y001644D01*
X033822Y001669D01*
X033813Y001695D01*
X033807Y001722D01*
X033805Y001750D01*
X034255Y001875D02*
X034257Y001903D01*
X034263Y001930D01*
X034272Y001956D01*
X034285Y001981D01*
X034302Y002004D01*
X034321Y002024D01*
X034343Y002041D01*
X034367Y002055D01*
X034393Y002065D01*
X034420Y002072D01*
X034448Y002075D01*
X034476Y002074D01*
X034503Y002069D01*
X034530Y002060D01*
X034555Y002048D01*
X034578Y002033D01*
X034599Y002014D01*
X034617Y001993D01*
X034632Y001969D01*
X034643Y001943D01*
X034651Y001917D01*
X034655Y001889D01*
X034655Y001861D01*
X034651Y001833D01*
X034643Y001807D01*
X034632Y001781D01*
X034617Y001757D01*
X034599Y001736D01*
X034578Y001717D01*
X034555Y001702D01*
X034530Y001690D01*
X034503Y001681D01*
X034476Y001676D01*
X034448Y001675D01*
X034420Y001678D01*
X034393Y001685D01*
X034367Y001695D01*
X034343Y001709D01*
X034321Y001726D01*
X034302Y001746D01*
X034285Y001769D01*
X034272Y001794D01*
X034263Y001820D01*
X034257Y001847D01*
X034255Y001875D01*
X034755Y001900D02*
X034757Y001928D01*
X034763Y001955D01*
X034772Y001981D01*
X034785Y002006D01*
X034802Y002029D01*
X034821Y002049D01*
X034843Y002066D01*
X034867Y002080D01*
X034893Y002090D01*
X034920Y002097D01*
X034948Y002100D01*
X034976Y002099D01*
X035003Y002094D01*
X035030Y002085D01*
X035055Y002073D01*
X035078Y002058D01*
X035099Y002039D01*
X035117Y002018D01*
X035132Y001994D01*
X035143Y001968D01*
X035151Y001942D01*
X035155Y001914D01*
X035155Y001886D01*
X035151Y001858D01*
X035143Y001832D01*
X035132Y001806D01*
X035117Y001782D01*
X035099Y001761D01*
X035078Y001742D01*
X035055Y001727D01*
X035030Y001715D01*
X035003Y001706D01*
X034976Y001701D01*
X034948Y001700D01*
X034920Y001703D01*
X034893Y001710D01*
X034867Y001720D01*
X034843Y001734D01*
X034821Y001751D01*
X034802Y001771D01*
X034785Y001794D01*
X034772Y001819D01*
X034763Y001845D01*
X034757Y001872D01*
X034755Y001900D01*
X034255Y002645D02*
X034257Y002686D01*
X034263Y002726D01*
X034272Y002766D01*
X034286Y002805D01*
X034303Y002842D01*
X034323Y002877D01*
X034347Y002911D01*
X034374Y002942D01*
X034403Y002970D01*
X034436Y002995D01*
X034470Y003017D01*
X034506Y003036D01*
X034544Y003051D01*
X034584Y003063D01*
X034624Y003071D01*
X034665Y003075D01*
X034705Y003075D01*
X034746Y003071D01*
X034786Y003063D01*
X034826Y003051D01*
X034864Y003036D01*
X034900Y003017D01*
X034934Y002995D01*
X034967Y002970D01*
X034996Y002942D01*
X035023Y002911D01*
X035047Y002877D01*
X035067Y002842D01*
X035084Y002805D01*
X035098Y002766D01*
X035107Y002726D01*
X035113Y002686D01*
X035115Y002645D01*
X035113Y002604D01*
X035107Y002564D01*
X035098Y002524D01*
X035084Y002485D01*
X035067Y002448D01*
X035047Y002413D01*
X035023Y002379D01*
X034996Y002348D01*
X034967Y002320D01*
X034934Y002295D01*
X034900Y002273D01*
X034864Y002254D01*
X034826Y002239D01*
X034786Y002227D01*
X034746Y002219D01*
X034705Y002215D01*
X034665Y002215D01*
X034624Y002219D01*
X034584Y002227D01*
X034544Y002239D01*
X034506Y002254D01*
X034470Y002273D01*
X034436Y002295D01*
X034403Y002320D01*
X034374Y002348D01*
X034347Y002379D01*
X034323Y002413D01*
X034303Y002448D01*
X034286Y002485D01*
X034272Y002524D01*
X034263Y002564D01*
X034257Y002604D01*
X034255Y002645D01*
X032912Y020200D02*
X032914Y020221D01*
X032920Y020241D01*
X032929Y020261D01*
X032941Y020278D01*
X032956Y020292D01*
X032974Y020304D01*
X032994Y020312D01*
X033014Y020317D01*
X033035Y020318D01*
X033056Y020315D01*
X033076Y020309D01*
X033095Y020298D01*
X033112Y020285D01*
X033125Y020269D01*
X033136Y020251D01*
X033144Y020231D01*
X033148Y020211D01*
X033148Y020189D01*
X033144Y020169D01*
X033136Y020149D01*
X033125Y020131D01*
X033112Y020115D01*
X033095Y020102D01*
X033076Y020091D01*
X033056Y020085D01*
X033035Y020082D01*
X033014Y020083D01*
X032994Y020088D01*
X032974Y020096D01*
X032956Y020108D01*
X032941Y020122D01*
X032929Y020139D01*
X032920Y020159D01*
X032914Y020179D01*
X032912Y020200D01*
X032637Y020375D02*
X032639Y020396D01*
X032645Y020416D01*
X032654Y020436D01*
X032666Y020453D01*
X032681Y020467D01*
X032699Y020479D01*
X032719Y020487D01*
X032739Y020492D01*
X032760Y020493D01*
X032781Y020490D01*
X032801Y020484D01*
X032820Y020473D01*
X032837Y020460D01*
X032850Y020444D01*
X032861Y020426D01*
X032869Y020406D01*
X032873Y020386D01*
X032873Y020364D01*
X032869Y020344D01*
X032861Y020324D01*
X032850Y020306D01*
X032837Y020290D01*
X032820Y020277D01*
X032801Y020266D01*
X032781Y020260D01*
X032760Y020257D01*
X032739Y020258D01*
X032719Y020263D01*
X032699Y020271D01*
X032681Y020283D01*
X032666Y020297D01*
X032654Y020314D01*
X032645Y020334D01*
X032639Y020354D01*
X032637Y020375D01*
X033187Y020375D02*
X033189Y020396D01*
X033195Y020416D01*
X033204Y020436D01*
X033216Y020453D01*
X033231Y020467D01*
X033249Y020479D01*
X033269Y020487D01*
X033289Y020492D01*
X033310Y020493D01*
X033331Y020490D01*
X033351Y020484D01*
X033370Y020473D01*
X033387Y020460D01*
X033400Y020444D01*
X033411Y020426D01*
X033419Y020406D01*
X033423Y020386D01*
X033423Y020364D01*
X033419Y020344D01*
X033411Y020324D01*
X033400Y020306D01*
X033387Y020290D01*
X033370Y020277D01*
X033351Y020266D01*
X033331Y020260D01*
X033310Y020257D01*
X033289Y020258D01*
X033269Y020263D01*
X033249Y020271D01*
X033231Y020283D01*
X033216Y020297D01*
X033204Y020314D01*
X033195Y020334D01*
X033189Y020354D01*
X033187Y020375D01*
X022237Y020375D02*
X022239Y020396D01*
X022245Y020416D01*
X022254Y020436D01*
X022266Y020453D01*
X022281Y020467D01*
X022299Y020479D01*
X022319Y020487D01*
X022339Y020492D01*
X022360Y020493D01*
X022381Y020490D01*
X022401Y020484D01*
X022420Y020473D01*
X022437Y020460D01*
X022450Y020444D01*
X022461Y020426D01*
X022469Y020406D01*
X022473Y020386D01*
X022473Y020364D01*
X022469Y020344D01*
X022461Y020324D01*
X022450Y020306D01*
X022437Y020290D01*
X022420Y020277D01*
X022401Y020266D01*
X022381Y020260D01*
X022360Y020257D01*
X022339Y020258D01*
X022319Y020263D01*
X022299Y020271D01*
X022281Y020283D01*
X022266Y020297D01*
X022254Y020314D01*
X022245Y020334D01*
X022239Y020354D01*
X022237Y020375D01*
X021962Y020200D02*
X021964Y020221D01*
X021970Y020241D01*
X021979Y020261D01*
X021991Y020278D01*
X022006Y020292D01*
X022024Y020304D01*
X022044Y020312D01*
X022064Y020317D01*
X022085Y020318D01*
X022106Y020315D01*
X022126Y020309D01*
X022145Y020298D01*
X022162Y020285D01*
X022175Y020269D01*
X022186Y020251D01*
X022194Y020231D01*
X022198Y020211D01*
X022198Y020189D01*
X022194Y020169D01*
X022186Y020149D01*
X022175Y020131D01*
X022162Y020115D01*
X022145Y020102D01*
X022126Y020091D01*
X022106Y020085D01*
X022085Y020082D01*
X022064Y020083D01*
X022044Y020088D01*
X022024Y020096D01*
X022006Y020108D01*
X021991Y020122D01*
X021979Y020139D01*
X021970Y020159D01*
X021964Y020179D01*
X021962Y020200D01*
X021687Y020375D02*
X021689Y020396D01*
X021695Y020416D01*
X021704Y020436D01*
X021716Y020453D01*
X021731Y020467D01*
X021749Y020479D01*
X021769Y020487D01*
X021789Y020492D01*
X021810Y020493D01*
X021831Y020490D01*
X021851Y020484D01*
X021870Y020473D01*
X021887Y020460D01*
X021900Y020444D01*
X021911Y020426D01*
X021919Y020406D01*
X021923Y020386D01*
X021923Y020364D01*
X021919Y020344D01*
X021911Y020324D01*
X021900Y020306D01*
X021887Y020290D01*
X021870Y020277D01*
X021851Y020266D01*
X021831Y020260D01*
X021810Y020257D01*
X021789Y020258D01*
X021769Y020263D01*
X021749Y020271D01*
X021731Y020283D01*
X021716Y020297D01*
X021704Y020314D01*
X021695Y020334D01*
X021689Y020354D01*
X021687Y020375D01*
X002162Y020375D02*
X002164Y020396D01*
X002170Y020416D01*
X002179Y020436D01*
X002191Y020453D01*
X002206Y020467D01*
X002224Y020479D01*
X002244Y020487D01*
X002264Y020492D01*
X002285Y020493D01*
X002306Y020490D01*
X002326Y020484D01*
X002345Y020473D01*
X002362Y020460D01*
X002375Y020444D01*
X002386Y020426D01*
X002394Y020406D01*
X002398Y020386D01*
X002398Y020364D01*
X002394Y020344D01*
X002386Y020324D01*
X002375Y020306D01*
X002362Y020290D01*
X002345Y020277D01*
X002326Y020266D01*
X002306Y020260D01*
X002285Y020257D01*
X002264Y020258D01*
X002244Y020263D01*
X002224Y020271D01*
X002206Y020283D01*
X002191Y020297D01*
X002179Y020314D01*
X002170Y020334D01*
X002164Y020354D01*
X002162Y020375D01*
X001887Y020200D02*
X001889Y020221D01*
X001895Y020241D01*
X001904Y020261D01*
X001916Y020278D01*
X001931Y020292D01*
X001949Y020304D01*
X001969Y020312D01*
X001989Y020317D01*
X002010Y020318D01*
X002031Y020315D01*
X002051Y020309D01*
X002070Y020298D01*
X002087Y020285D01*
X002100Y020269D01*
X002111Y020251D01*
X002119Y020231D01*
X002123Y020211D01*
X002123Y020189D01*
X002119Y020169D01*
X002111Y020149D01*
X002100Y020131D01*
X002087Y020115D01*
X002070Y020102D01*
X002051Y020091D01*
X002031Y020085D01*
X002010Y020082D01*
X001989Y020083D01*
X001969Y020088D01*
X001949Y020096D01*
X001931Y020108D01*
X001916Y020122D01*
X001904Y020139D01*
X001895Y020159D01*
X001889Y020179D01*
X001887Y020200D01*
X001612Y020375D02*
X001614Y020396D01*
X001620Y020416D01*
X001629Y020436D01*
X001641Y020453D01*
X001656Y020467D01*
X001674Y020479D01*
X001694Y020487D01*
X001714Y020492D01*
X001735Y020493D01*
X001756Y020490D01*
X001776Y020484D01*
X001795Y020473D01*
X001812Y020460D01*
X001825Y020444D01*
X001836Y020426D01*
X001844Y020406D01*
X001848Y020386D01*
X001848Y020364D01*
X001844Y020344D01*
X001836Y020324D01*
X001825Y020306D01*
X001812Y020290D01*
X001795Y020277D01*
X001776Y020266D01*
X001756Y020260D01*
X001735Y020257D01*
X001714Y020258D01*
X001694Y020263D01*
X001674Y020271D01*
X001656Y020283D01*
X001641Y020297D01*
X001629Y020314D01*
X001620Y020334D01*
X001614Y020354D01*
X001612Y020375D01*
D11*
X016805Y005750D02*
X016799Y005719D01*
X016797Y005688D01*
X016799Y005657D01*
X016804Y005626D01*
X016814Y005596D01*
X016826Y005568D01*
X016842Y005541D01*
X016862Y005516D01*
X016884Y005494D01*
X016908Y005475D01*
X016935Y005459D01*
X016963Y005446D01*
X016993Y005437D01*
X017024Y005431D01*
X017055Y005429D01*
X017086Y005431D01*
X017117Y005437D01*
X017147Y005446D01*
X017175Y005459D01*
X017202Y005475D01*
X017226Y005494D01*
X017248Y005516D01*
X017268Y005541D01*
X017284Y005568D01*
X017296Y005596D01*
X017306Y005626D01*
X017311Y005657D01*
X017313Y005688D01*
X017311Y005719D01*
X017305Y005750D01*
D12*
X033820Y012340D02*
X033820Y012710D01*
X034067Y012340D01*
X034067Y012710D01*
X034700Y011185D02*
X034947Y011185D01*
X034947Y011000D01*
X034823Y011062D01*
X034762Y011062D01*
X034700Y011000D01*
X034700Y010877D01*
X034762Y010815D01*
X034885Y010815D01*
X034947Y010877D01*
X035068Y010877D02*
X035068Y011000D01*
X035192Y011000D01*
X035315Y010877D02*
X035315Y011124D01*
X035253Y011185D01*
X035130Y011185D01*
X035068Y011124D01*
X035068Y010877D02*
X035130Y010815D01*
X035253Y010815D01*
X035315Y010877D01*
X035253Y010685D02*
X035315Y010624D01*
X035315Y010377D01*
X035253Y010315D01*
X035130Y010315D01*
X035068Y010377D01*
X035068Y010500D01*
X035192Y010500D01*
X035068Y010624D02*
X035130Y010685D01*
X035253Y010685D01*
X034947Y010500D02*
X034700Y010500D01*
X034762Y010315D02*
X034762Y010685D01*
X034947Y010500D01*
X034860Y010185D02*
X034737Y010185D01*
X034675Y010124D01*
X034675Y010062D01*
X034737Y010000D01*
X034675Y009938D01*
X034675Y009877D01*
X034737Y009815D01*
X034860Y009815D01*
X034922Y009877D01*
X035043Y009877D02*
X035043Y010000D01*
X035167Y010000D01*
X035290Y009877D02*
X035228Y009815D01*
X035105Y009815D01*
X035043Y009877D01*
X035080Y009685D02*
X035018Y009624D01*
X035080Y009685D02*
X035203Y009685D01*
X035265Y009624D01*
X035265Y009377D01*
X035203Y009315D01*
X035080Y009315D01*
X035018Y009377D01*
X035018Y009500D01*
X035142Y009500D01*
X034897Y009562D02*
X034773Y009685D01*
X034773Y009315D01*
X034650Y009315D02*
X034897Y009315D01*
X034835Y009185D02*
X034897Y009124D01*
X034835Y009185D02*
X034712Y009185D01*
X034650Y009124D01*
X034650Y009062D01*
X034897Y008815D01*
X034650Y008815D01*
X035018Y008877D02*
X035018Y009000D01*
X035142Y009000D01*
X035265Y008877D02*
X035203Y008815D01*
X035080Y008815D01*
X035018Y008877D01*
X035018Y009124D02*
X035080Y009185D01*
X035203Y009185D01*
X035265Y009124D01*
X035265Y008877D01*
X035290Y009877D02*
X035290Y010124D01*
X035228Y010185D01*
X035105Y010185D01*
X035043Y010124D01*
X034922Y010124D02*
X034860Y010185D01*
X034798Y010000D02*
X034737Y010000D01*
D13*
X011280Y001950D02*
X011130Y001750D01*
X011130Y001500D01*
D14*
X032210Y008400D02*
X032210Y012100D01*
X032212Y012123D01*
X032217Y012146D01*
X032226Y012168D01*
X032239Y012188D01*
X032254Y012206D01*
X032272Y012221D01*
X032292Y012234D01*
X032314Y012243D01*
X032337Y012248D01*
X032360Y012250D01*
X033600Y012250D01*
X033623Y012248D01*
X033646Y012243D01*
X033668Y012234D01*
X033688Y012221D01*
X033706Y012206D01*
X033721Y012188D01*
X033734Y012168D01*
X033743Y012146D01*
X033748Y012123D01*
X033750Y012100D01*
X033750Y008400D01*
X033748Y008377D01*
X033743Y008354D01*
X033734Y008332D01*
X033721Y008312D01*
X033706Y008294D01*
X033688Y008279D01*
X033668Y008266D01*
X033646Y008257D01*
X033623Y008252D01*
X033600Y008250D01*
X032360Y008250D01*
X032337Y008252D01*
X032314Y008257D01*
X032292Y008266D01*
X032272Y008279D01*
X032254Y008294D01*
X032239Y008312D01*
X032226Y008332D01*
X032217Y008354D01*
X032212Y008377D01*
X032210Y008400D01*
X032780Y012250D02*
X032782Y012223D01*
X032787Y012196D01*
X032797Y012170D01*
X032809Y012146D01*
X032825Y012124D01*
X032843Y012104D01*
X032865Y012087D01*
X032888Y012072D01*
X032913Y012062D01*
X032939Y012054D01*
X032966Y012050D01*
X032994Y012050D01*
X033021Y012054D01*
X033047Y012062D01*
X033072Y012072D01*
X033095Y012087D01*
X033117Y012104D01*
X033135Y012124D01*
X033151Y012146D01*
X033163Y012170D01*
X033173Y012196D01*
X033178Y012223D01*
X033180Y012250D01*
X033600Y015350D02*
X032360Y015350D01*
X032337Y015352D01*
X032314Y015357D01*
X032292Y015366D01*
X032272Y015379D01*
X032254Y015394D01*
X032239Y015412D01*
X032226Y015432D01*
X032217Y015454D01*
X032212Y015477D01*
X032210Y015500D01*
X032210Y019200D01*
X032212Y019223D01*
X032217Y019246D01*
X032226Y019268D01*
X032239Y019288D01*
X032254Y019306D01*
X032272Y019321D01*
X032292Y019334D01*
X032314Y019343D01*
X032337Y019348D01*
X032360Y019350D01*
X032780Y019350D01*
X033180Y019350D01*
X033600Y019350D01*
X033623Y019348D01*
X033646Y019343D01*
X033668Y019334D01*
X033688Y019321D01*
X033706Y019306D01*
X033721Y019288D01*
X033734Y019268D01*
X033743Y019246D01*
X033748Y019223D01*
X033750Y019200D01*
X033750Y015500D01*
X033748Y015477D01*
X033743Y015454D01*
X033734Y015432D01*
X033721Y015412D01*
X033706Y015394D01*
X033688Y015379D01*
X033668Y015366D01*
X033646Y015357D01*
X033623Y015352D01*
X033600Y015350D01*
X033180Y019350D02*
X033178Y019323D01*
X033173Y019296D01*
X033163Y019270D01*
X033151Y019246D01*
X033135Y019224D01*
X033117Y019204D01*
X033095Y019187D01*
X033072Y019172D01*
X033047Y019162D01*
X033021Y019154D01*
X032994Y019150D01*
X032966Y019150D01*
X032939Y019154D01*
X032913Y019162D01*
X032888Y019172D01*
X032865Y019187D01*
X032843Y019204D01*
X032825Y019224D01*
X032809Y019246D01*
X032797Y019270D01*
X032787Y019296D01*
X032782Y019323D01*
X032780Y019350D01*
D15*
X033610Y019350D02*
X033610Y015350D01*
X033610Y012250D02*
X033610Y008250D01*
D16*
X033480Y004750D02*
X033480Y003450D01*
X034180Y003450D01*
X034180Y004750D01*
X033480Y004750D01*
X020730Y005025D02*
X020730Y006325D01*
X020030Y006325D01*
X020030Y005025D01*
X020730Y005025D01*
X019430Y005100D02*
X018930Y005100D01*
X018930Y004000D01*
X019430Y004000D01*
X019430Y005100D01*
X018555Y006475D02*
X017255Y006475D01*
X017255Y007175D01*
X018555Y007175D01*
X018555Y006475D01*
X020030Y006825D02*
X020030Y008125D01*
X020730Y008125D01*
X020730Y006825D01*
X020030Y006825D01*
X019005Y007650D02*
X019005Y008150D01*
X017905Y008150D01*
X017905Y007650D01*
X019005Y007650D01*
X017055Y007650D02*
X017055Y008150D01*
X015955Y008150D01*
X015955Y007650D01*
X017055Y007650D01*
X017275Y008705D02*
X018235Y008705D01*
X018235Y010645D01*
X017275Y010645D01*
X017275Y008705D01*
X016735Y008705D02*
X015775Y008705D01*
X015775Y010645D01*
X016735Y010645D01*
X016735Y008705D01*
X015230Y008950D02*
X015230Y010250D01*
X014530Y010250D01*
X014530Y008950D01*
X015230Y008950D01*
X011530Y008925D02*
X011530Y009625D01*
X010230Y009625D01*
X010230Y008925D01*
X011530Y008925D01*
X011530Y007750D02*
X010830Y007750D01*
X010830Y006450D01*
X011530Y006450D01*
X011530Y007750D01*
X014380Y006900D02*
X014380Y005600D01*
X015080Y005600D01*
X015080Y006900D01*
X014380Y006900D01*
X010830Y005400D02*
X010830Y004100D01*
X010130Y004100D01*
X010130Y005400D01*
X010830Y005400D01*
X008276Y005056D02*
X008276Y004938D01*
X008274Y004919D02*
X006586Y004919D01*
X006584Y004938D02*
X006584Y005056D01*
X007230Y005450D02*
X007580Y005150D01*
X007580Y005750D01*
X007230Y005450D01*
X007256Y005428D02*
X007580Y005428D01*
X007580Y005476D02*
X007260Y005476D01*
X007317Y005525D02*
X007580Y005525D01*
X007580Y005573D02*
X007374Y005573D01*
X007430Y005622D02*
X007580Y005622D01*
X007580Y005670D02*
X007487Y005670D01*
X007543Y005719D02*
X007580Y005719D01*
X008276Y005844D02*
X008276Y005962D01*
X008274Y005981D02*
X006586Y005981D01*
X006584Y005962D02*
X006584Y005844D01*
X006586Y006469D02*
X008274Y006469D01*
X008276Y006488D02*
X008276Y006606D01*
X007580Y006700D02*
X007580Y007300D01*
X007230Y007000D01*
X007580Y006700D01*
X007580Y006737D02*
X007537Y006737D01*
X007580Y006786D02*
X007480Y006786D01*
X007424Y006834D02*
X007580Y006834D01*
X007580Y006883D02*
X007367Y006883D01*
X007310Y006931D02*
X007580Y006931D01*
X007580Y006980D02*
X007254Y006980D01*
X007263Y007028D02*
X007580Y007028D01*
X007580Y007077D02*
X007319Y007077D01*
X007376Y007125D02*
X007580Y007125D01*
X007580Y007174D02*
X007432Y007174D01*
X007489Y007222D02*
X007580Y007222D01*
X007580Y007271D02*
X007546Y007271D01*
X008276Y007394D02*
X008276Y007512D01*
X008274Y007531D02*
X006586Y007531D01*
X006584Y007512D02*
X006584Y007394D01*
X006584Y006606D02*
X006584Y006488D01*
X007313Y005379D02*
X007580Y005379D01*
X007580Y005331D02*
X007369Y005331D01*
X007426Y005282D02*
X007580Y005282D01*
X007580Y005234D02*
X007483Y005234D01*
X007539Y005185D02*
X007580Y005185D01*
X008274Y004331D02*
X006586Y004331D01*
X006584Y004312D02*
X006584Y004194D01*
X007230Y003800D02*
X007580Y003500D01*
X007580Y004100D01*
X007230Y003800D01*
X007255Y003779D02*
X007580Y003779D01*
X007580Y003827D02*
X007262Y003827D01*
X007318Y003876D02*
X007580Y003876D01*
X007580Y003924D02*
X007375Y003924D01*
X007431Y003973D02*
X007580Y003973D01*
X007580Y004021D02*
X007488Y004021D01*
X007544Y004070D02*
X007580Y004070D01*
X007580Y003730D02*
X007312Y003730D01*
X007368Y003682D02*
X007580Y003682D01*
X007580Y003633D02*
X007425Y003633D01*
X007481Y003585D02*
X007580Y003585D01*
X007580Y003536D02*
X007538Y003536D01*
X008276Y003406D02*
X008276Y003288D01*
X008274Y003269D02*
X006586Y003269D01*
X006584Y003288D02*
X006584Y003406D01*
X006586Y002781D02*
X008274Y002781D01*
X008276Y002762D02*
X008276Y002644D01*
X007580Y002550D02*
X007580Y001950D01*
X007230Y002250D01*
X007580Y002550D01*
X007580Y002518D02*
X007542Y002518D01*
X007580Y002469D02*
X007486Y002469D01*
X007429Y002421D02*
X007580Y002421D01*
X007580Y002372D02*
X007372Y002372D01*
X007316Y002324D02*
X007580Y002324D01*
X007580Y002275D02*
X007259Y002275D01*
X007257Y002227D02*
X007580Y002227D01*
X007580Y002178D02*
X007314Y002178D01*
X007371Y002130D02*
X007580Y002130D01*
X007580Y002081D02*
X007427Y002081D01*
X007484Y002033D02*
X007580Y002033D01*
X007580Y001984D02*
X007540Y001984D01*
X008276Y001856D02*
X008276Y001738D01*
X008274Y001719D02*
X006586Y001719D01*
X006584Y001738D02*
X006584Y001856D01*
X006584Y002644D02*
X006584Y002762D01*
X008276Y004194D02*
X008276Y004312D01*
X010130Y003200D02*
X010130Y001900D01*
X010830Y001900D01*
X010830Y003200D01*
X010130Y003200D01*
X010151Y001475D02*
X010451Y001475D01*
X010451Y001025D01*
X010151Y001025D01*
X009990Y001025D02*
X009690Y001025D01*
X009990Y001025D02*
X009990Y001475D01*
X010301Y001250D02*
X010451Y001250D01*
X010611Y001175D02*
X010611Y001100D01*
X010686Y001025D01*
X010911Y001025D01*
X010911Y001475D01*
X010686Y001475D01*
X010611Y001400D01*
X010611Y001325D01*
X010686Y001250D01*
X010911Y001250D01*
X010686Y001250D02*
X010611Y001175D01*
X011071Y000950D02*
X011372Y000950D01*
X011532Y001100D02*
X011607Y001025D01*
X011757Y001025D01*
X011832Y001100D01*
X011832Y001400D01*
X011757Y001475D01*
X011607Y001475D01*
X011532Y001400D01*
X011532Y001100D01*
X011992Y001025D02*
X011992Y001475D01*
X011992Y001250D02*
X012292Y001250D01*
X012453Y001100D02*
X012528Y001025D01*
X012678Y001025D01*
X012753Y001100D01*
X012753Y001400D01*
X012678Y001475D01*
X012528Y001475D01*
X012453Y001400D01*
X012292Y001475D02*
X012292Y001025D01*
X012913Y001025D02*
X012913Y001325D01*
X013063Y001475D01*
X013213Y001325D01*
X013213Y001025D01*
X013213Y001250D02*
X012913Y001250D01*
X013373Y001475D02*
X013674Y001475D01*
X013523Y001475D02*
X013523Y001025D01*
X014480Y001150D02*
X014980Y001150D01*
X014980Y002250D01*
X014480Y002250D01*
X014480Y001150D01*
X016080Y001450D02*
X016080Y001950D01*
X017180Y001950D01*
X017180Y001450D01*
X016080Y001450D01*
X018005Y001350D02*
X018005Y002050D01*
X019305Y002050D01*
X019305Y001350D01*
X018005Y001350D01*
X019930Y001200D02*
X019930Y002500D01*
X020630Y002500D01*
X020630Y001200D01*
X019930Y001200D01*
X015080Y003825D02*
X014380Y003825D01*
X014380Y005125D01*
X015080Y005125D01*
X015080Y003825D01*
X019465Y008755D02*
X020095Y008755D01*
X019930Y008850D02*
X019630Y009050D01*
X019930Y009250D01*
X019930Y008850D01*
X019930Y008871D02*
X019898Y008871D01*
X019880Y008900D02*
X019880Y009200D01*
X019871Y009211D02*
X019930Y009211D01*
X019930Y009162D02*
X019798Y009162D01*
X019725Y009114D02*
X019930Y009114D01*
X019930Y009065D02*
X019653Y009065D01*
X019680Y009017D02*
X019930Y009017D01*
X019930Y008968D02*
X019753Y008968D01*
X019826Y008920D02*
X019930Y008920D01*
X020095Y009345D02*
X019504Y009345D01*
X017780Y011875D02*
X017430Y011875D01*
X017780Y011875D02*
X017780Y012175D01*
X017280Y012375D02*
X017280Y012525D01*
X017780Y012725D02*
X017780Y013025D01*
X017430Y013025D01*
X020384Y013138D02*
X020384Y013256D01*
X020386Y013119D02*
X022074Y013119D01*
X022076Y013138D02*
X022076Y013256D01*
X021430Y013650D02*
X021080Y013950D01*
X021080Y013350D01*
X021430Y013650D01*
X021404Y013673D02*
X021080Y013673D01*
X021080Y013721D02*
X021347Y013721D01*
X021291Y013770D02*
X021080Y013770D01*
X021080Y013818D02*
X021234Y013818D01*
X021177Y013867D02*
X021080Y013867D01*
X021080Y013915D02*
X021121Y013915D01*
X021080Y013624D02*
X021400Y013624D01*
X021343Y013576D02*
X021080Y013576D01*
X021080Y013527D02*
X021287Y013527D01*
X021230Y013479D02*
X021080Y013479D01*
X021080Y013430D02*
X021173Y013430D01*
X021117Y013382D02*
X021080Y013382D01*
X020384Y014044D02*
X020384Y014162D01*
X020386Y014181D02*
X022074Y014181D01*
X022076Y014162D02*
X022076Y014044D01*
X022124Y014819D02*
X020436Y014819D01*
X020434Y014838D02*
X020434Y014956D01*
X021130Y015050D02*
X021130Y015650D01*
X021480Y015350D01*
X021130Y015050D01*
X021130Y015079D02*
X021164Y015079D01*
X021130Y015128D02*
X021221Y015128D01*
X021277Y015176D02*
X021130Y015176D01*
X021130Y015225D02*
X021334Y015225D01*
X021390Y015273D02*
X021130Y015273D01*
X021130Y015322D02*
X021447Y015322D01*
X021457Y015370D02*
X021130Y015370D01*
X021130Y015419D02*
X021400Y015419D01*
X021343Y015467D02*
X021130Y015467D01*
X021130Y015516D02*
X021287Y015516D01*
X021230Y015564D02*
X021130Y015564D01*
X021130Y015613D02*
X021174Y015613D01*
X020434Y015744D02*
X020434Y015862D01*
X020436Y015881D02*
X022124Y015881D01*
X022126Y015862D02*
X022126Y015744D01*
X022074Y016469D02*
X020386Y016469D01*
X020384Y016488D02*
X020384Y016606D01*
X021080Y016700D02*
X021080Y017300D01*
X021430Y017000D01*
X021080Y016700D01*
X021080Y016728D02*
X021113Y016728D01*
X021080Y016777D02*
X021169Y016777D01*
X021226Y016825D02*
X021080Y016825D01*
X021080Y016874D02*
X021283Y016874D01*
X021339Y016922D02*
X021080Y016922D01*
X021080Y016971D02*
X021396Y016971D01*
X021408Y017019D02*
X021080Y017019D01*
X021080Y017068D02*
X021351Y017068D01*
X021295Y017116D02*
X021080Y017116D01*
X021080Y017165D02*
X021238Y017165D01*
X021181Y017213D02*
X021080Y017213D01*
X021080Y017262D02*
X021125Y017262D01*
X020384Y017394D02*
X020384Y017512D01*
X020386Y017531D02*
X022074Y017531D01*
X022076Y017512D02*
X022076Y017394D01*
X022076Y016606D02*
X022076Y016488D01*
X022126Y014956D02*
X022126Y014838D01*
X017480Y015100D02*
X017480Y015900D01*
X015780Y015900D01*
X015780Y015100D01*
X017480Y015100D01*
X011480Y016800D02*
X011480Y018100D01*
X010780Y018100D01*
X010780Y016800D01*
X011480Y016800D01*
X010111Y017456D02*
X010111Y019144D01*
X010092Y019146D02*
X009974Y019146D01*
X009186Y019146D02*
X009068Y019146D01*
X009049Y019144D02*
X009049Y017456D01*
X009068Y017454D02*
X009186Y017454D01*
X009974Y017454D02*
X010092Y017454D01*
X009580Y018100D02*
X009880Y018450D01*
X009280Y018450D01*
X009580Y018100D01*
X009550Y018135D02*
X009610Y018135D01*
X009651Y018183D02*
X009509Y018183D01*
X009467Y018232D02*
X009693Y018232D01*
X009734Y018280D02*
X009426Y018280D01*
X009384Y018329D02*
X009776Y018329D01*
X009818Y018377D02*
X009342Y018377D01*
X009301Y018426D02*
X009859Y018426D01*
X007730Y018725D02*
X007730Y019225D01*
X006630Y019225D01*
X006630Y018725D01*
X007730Y018725D01*
X007730Y017750D02*
X006630Y017750D01*
X006630Y017250D01*
X007730Y017250D01*
X007730Y017750D01*
X007730Y016075D02*
X006630Y016075D01*
X006630Y015575D01*
X007730Y015575D01*
X007730Y016075D01*
D17*
X007703Y016245D02*
X007807Y016348D01*
X007755Y016348D02*
X007910Y016348D01*
X007910Y016245D02*
X007910Y016555D01*
X007755Y016555D01*
X007703Y016504D01*
X007703Y016400D01*
X007755Y016348D01*
X007588Y016297D02*
X007536Y016245D01*
X007433Y016245D01*
X007381Y016297D01*
X007381Y016348D01*
X007433Y016400D01*
X007484Y016400D01*
X007433Y016400D02*
X007381Y016452D01*
X007381Y016504D01*
X007433Y016555D01*
X007536Y016555D01*
X007588Y016504D01*
X007265Y016452D02*
X007162Y016555D01*
X007162Y016245D01*
X007265Y016245D02*
X007059Y016245D01*
X010400Y016603D02*
X010710Y016603D01*
X010710Y016758D01*
X010659Y016810D01*
X010555Y016810D01*
X010503Y016758D01*
X010503Y016603D01*
X010503Y016707D02*
X010400Y016810D01*
X010400Y016925D02*
X010400Y017132D01*
X010400Y017029D02*
X010710Y017029D01*
X010607Y016925D01*
X010659Y017248D02*
X010710Y017299D01*
X010710Y017403D01*
X010659Y017455D01*
X010607Y017455D01*
X010555Y017403D01*
X010503Y017455D01*
X010452Y017455D01*
X010400Y017403D01*
X010400Y017299D01*
X010452Y017248D01*
X010555Y017351D02*
X010555Y017403D01*
X008910Y018103D02*
X008600Y018103D01*
X008600Y018258D01*
X008652Y018310D01*
X008859Y018310D01*
X008910Y018258D01*
X008910Y018103D01*
X008807Y018425D02*
X008910Y018529D01*
X008600Y018529D01*
X008600Y018632D02*
X008600Y018425D01*
X007910Y018230D02*
X007755Y018230D01*
X007703Y018179D01*
X007703Y018075D01*
X007755Y018023D01*
X007910Y018023D01*
X007910Y017920D02*
X007910Y018230D01*
X007807Y018023D02*
X007703Y017920D01*
X007588Y017972D02*
X007536Y017920D01*
X007433Y017920D01*
X007381Y017972D01*
X007381Y018023D01*
X007433Y018075D01*
X007484Y018075D01*
X007433Y018075D02*
X007381Y018127D01*
X007381Y018179D01*
X007433Y018230D01*
X007536Y018230D01*
X007588Y018179D01*
X007265Y018179D02*
X007265Y017972D01*
X007059Y018179D01*
X007059Y017972D01*
X007110Y017920D01*
X007214Y017920D01*
X007265Y017972D01*
X007265Y018179D02*
X007214Y018230D01*
X007110Y018230D01*
X007059Y018179D01*
X008600Y018799D02*
X008652Y018748D01*
X008600Y018799D02*
X008600Y018903D01*
X008652Y018955D01*
X008755Y018955D01*
X008807Y018903D01*
X008807Y018851D01*
X008755Y018748D01*
X008910Y018748D01*
X008910Y018955D01*
X007910Y019395D02*
X007910Y019705D01*
X007755Y019705D01*
X007703Y019654D01*
X007703Y019550D01*
X007755Y019498D01*
X007910Y019498D01*
X007807Y019498D02*
X007703Y019395D01*
X007588Y019395D02*
X007381Y019602D01*
X007381Y019654D01*
X007433Y019705D01*
X007536Y019705D01*
X007588Y019654D01*
X007588Y019395D02*
X007381Y019395D01*
X007265Y019447D02*
X007214Y019395D01*
X007110Y019395D01*
X007059Y019447D01*
X007059Y019654D01*
X007110Y019705D01*
X007214Y019705D01*
X007265Y019654D01*
X007265Y019602D01*
X007214Y019550D01*
X007059Y019550D01*
X015975Y014929D02*
X015975Y014877D01*
X016027Y014825D01*
X016131Y014825D01*
X016182Y014877D01*
X016182Y014929D01*
X016131Y014980D01*
X016027Y014980D01*
X015975Y014929D01*
X016027Y014825D02*
X015975Y014773D01*
X015975Y014722D01*
X016027Y014670D01*
X016131Y014670D01*
X016182Y014722D01*
X016182Y014773D01*
X016131Y014825D01*
X016298Y014670D02*
X016505Y014670D01*
X016401Y014670D02*
X016401Y014980D01*
X016505Y014877D01*
X016620Y014929D02*
X016620Y014825D01*
X016672Y014773D01*
X016827Y014773D01*
X016827Y014670D02*
X016827Y014980D01*
X016672Y014980D01*
X016620Y014929D01*
X016723Y014773D02*
X016620Y014670D01*
X019625Y014579D02*
X019832Y014372D01*
X019781Y014320D01*
X019677Y014320D01*
X019625Y014372D01*
X019625Y014579D01*
X019677Y014630D01*
X019781Y014630D01*
X019832Y014579D01*
X019832Y014372D01*
X019948Y014320D02*
X020155Y014320D01*
X020051Y014320D02*
X020051Y014630D01*
X020155Y014527D01*
X020270Y014579D02*
X020322Y014630D01*
X020477Y014630D01*
X020477Y014320D01*
X020322Y014320D01*
X020270Y014372D01*
X020270Y014579D01*
X020327Y013180D02*
X020172Y013180D01*
X020120Y013129D01*
X020120Y012922D01*
X020172Y012870D01*
X020327Y012870D01*
X020327Y013180D01*
X020005Y013077D02*
X019901Y013180D01*
X019901Y012870D01*
X019798Y012870D02*
X020005Y012870D01*
X019682Y013025D02*
X019475Y013025D01*
X019527Y012870D02*
X019527Y013180D01*
X019682Y013025D01*
X018610Y012197D02*
X018610Y012094D01*
X018559Y012042D01*
X018559Y011927D02*
X018352Y011927D01*
X018300Y011875D01*
X018300Y011772D01*
X018352Y011720D01*
X018559Y011720D01*
X018610Y011772D01*
X018610Y011875D01*
X018559Y011927D01*
X018403Y011823D02*
X018300Y011927D01*
X018300Y012042D02*
X018507Y012249D01*
X018559Y012249D01*
X018610Y012197D01*
X018300Y012249D02*
X018300Y012042D01*
X019269Y011830D02*
X019500Y011600D01*
X019193Y011600D01*
X019269Y011370D02*
X019269Y011830D01*
X019653Y011754D02*
X019653Y011600D01*
X019730Y011523D01*
X019960Y011523D01*
X019960Y011370D02*
X019960Y011830D01*
X019730Y011830D01*
X019653Y011754D01*
X019807Y011523D02*
X019653Y011370D01*
X020283Y009780D02*
X020231Y009729D01*
X020231Y009677D01*
X020283Y009625D01*
X020386Y009625D01*
X020438Y009677D01*
X020438Y009729D01*
X020386Y009780D01*
X020283Y009780D01*
X020283Y009625D02*
X020231Y009573D01*
X020231Y009522D01*
X020283Y009470D01*
X020386Y009470D01*
X020438Y009522D01*
X020438Y009573D01*
X020386Y009625D01*
X020553Y009522D02*
X020553Y009729D01*
X020605Y009780D01*
X020760Y009780D01*
X020760Y009470D01*
X020605Y009470D01*
X020553Y009522D01*
X018685Y009172D02*
X018685Y009069D01*
X018634Y009017D01*
X018634Y008902D02*
X018685Y008850D01*
X018685Y008747D01*
X018634Y008695D01*
X018427Y008695D01*
X018375Y008747D01*
X018375Y008850D01*
X018427Y008902D01*
X018375Y009017D02*
X018582Y009224D01*
X018634Y009224D01*
X018685Y009172D01*
X018375Y009224D02*
X018375Y009017D01*
X018480Y008530D02*
X018428Y008479D01*
X018428Y008375D01*
X018480Y008323D01*
X018635Y008323D01*
X018635Y008220D02*
X018635Y008530D01*
X018480Y008530D01*
X018313Y008427D02*
X018209Y008530D01*
X018209Y008220D01*
X018106Y008220D02*
X018313Y008220D01*
X018428Y008220D02*
X018532Y008323D01*
X017990Y008272D02*
X017784Y008479D01*
X017784Y008272D01*
X017835Y008220D01*
X017939Y008220D01*
X017990Y008272D01*
X017990Y008479D01*
X017939Y008530D01*
X017835Y008530D01*
X017784Y008479D01*
X017235Y008423D02*
X017080Y008423D01*
X017028Y008475D01*
X017028Y008579D01*
X017080Y008630D01*
X017235Y008630D01*
X017235Y008320D01*
X017132Y008423D02*
X017028Y008320D01*
X016913Y008320D02*
X016706Y008320D01*
X016809Y008320D02*
X016809Y008630D01*
X016913Y008527D01*
X016927Y008695D02*
X016875Y008747D01*
X016875Y008850D01*
X016927Y008902D01*
X016927Y009017D02*
X016875Y009069D01*
X016875Y009172D01*
X016927Y009224D01*
X016978Y009224D01*
X017030Y009172D01*
X017030Y009121D01*
X017030Y009172D02*
X017082Y009224D01*
X017134Y009224D01*
X017185Y009172D01*
X017185Y009069D01*
X017134Y009017D01*
X017134Y008902D02*
X017185Y008850D01*
X017185Y008747D01*
X017134Y008695D01*
X016927Y008695D01*
X016590Y008579D02*
X016539Y008630D01*
X016435Y008630D01*
X016384Y008579D01*
X016384Y008527D01*
X016590Y008320D01*
X016384Y008320D01*
X014310Y006853D02*
X014259Y006905D01*
X014207Y006905D01*
X014155Y006853D01*
X014103Y006905D01*
X014052Y006905D01*
X014000Y006853D01*
X014000Y006749D01*
X014052Y006698D01*
X014000Y006582D02*
X014103Y006479D01*
X014103Y006531D02*
X014103Y006375D01*
X014000Y006375D02*
X014310Y006375D01*
X014310Y006531D01*
X014259Y006582D01*
X014155Y006582D01*
X014103Y006531D01*
X014259Y006698D02*
X014310Y006749D01*
X014310Y006853D01*
X014155Y006853D02*
X014155Y006801D01*
X017250Y006354D02*
X017250Y006147D01*
X017302Y006095D01*
X017406Y006095D01*
X017457Y006147D01*
X017406Y006250D02*
X017250Y006250D01*
X017250Y006354D02*
X017302Y006405D01*
X017406Y006405D01*
X017457Y006354D01*
X017457Y006302D01*
X017406Y006250D01*
X017573Y006095D02*
X017780Y006095D01*
X017676Y006095D02*
X017676Y006405D01*
X017780Y006302D01*
X017895Y006354D02*
X017895Y006250D01*
X017947Y006198D01*
X018102Y006198D01*
X018102Y006095D02*
X018102Y006405D01*
X017947Y006405D01*
X017895Y006354D01*
X017998Y006198D02*
X017895Y006095D01*
X018502Y005205D02*
X018450Y005153D01*
X018450Y005049D01*
X018502Y004998D01*
X018605Y004998D02*
X018657Y005101D01*
X018657Y005153D01*
X018605Y005205D01*
X018502Y005205D01*
X018605Y004998D02*
X018760Y004998D01*
X018760Y005205D01*
X018760Y004779D02*
X018450Y004779D01*
X018450Y004882D02*
X018450Y004675D01*
X018450Y004560D02*
X018553Y004457D01*
X018553Y004508D02*
X018553Y004353D01*
X018450Y004353D02*
X018760Y004353D01*
X018760Y004508D01*
X018709Y004560D01*
X018605Y004560D01*
X018553Y004508D01*
X018657Y004675D02*
X018760Y004779D01*
X019550Y004267D02*
X019550Y003960D01*
X019550Y004113D02*
X020010Y004113D01*
X019857Y003960D01*
X019550Y003806D02*
X019550Y003499D01*
X019550Y003346D02*
X019703Y003192D01*
X019703Y003269D02*
X019703Y003039D01*
X019550Y003039D02*
X020010Y003039D01*
X020010Y003269D01*
X019934Y003346D01*
X019780Y003346D01*
X019703Y003269D01*
X019857Y003499D02*
X020010Y003653D01*
X019550Y003653D01*
X019655Y002505D02*
X019655Y002298D01*
X019810Y002453D01*
X019500Y002453D01*
X019552Y002182D02*
X019500Y002131D01*
X019500Y002027D01*
X019552Y001975D01*
X019759Y001975D01*
X019810Y002027D01*
X019810Y002131D01*
X019759Y002182D01*
X018530Y001280D02*
X018374Y001280D01*
X018323Y001229D01*
X018323Y001125D01*
X018374Y001073D01*
X018530Y001073D01*
X018530Y000970D02*
X018530Y001280D01*
X018426Y001073D02*
X018323Y000970D01*
X018207Y001022D02*
X018156Y000970D01*
X018052Y000970D01*
X018000Y001022D01*
X018000Y001073D01*
X018052Y001125D01*
X018207Y001125D01*
X018207Y001022D01*
X018207Y001125D02*
X018104Y001229D01*
X018000Y001280D01*
X017360Y002120D02*
X017360Y002430D01*
X017205Y002430D01*
X017153Y002379D01*
X017153Y002275D01*
X017205Y002223D01*
X017360Y002223D01*
X017257Y002223D02*
X017153Y002120D01*
X017038Y002120D02*
X017038Y002172D01*
X016831Y002379D01*
X016831Y002430D01*
X017038Y002430D01*
X014310Y002303D02*
X014259Y002355D01*
X014207Y002355D01*
X014155Y002303D01*
X014155Y002199D01*
X014207Y002148D01*
X014259Y002148D01*
X014310Y002199D01*
X014310Y002303D01*
X014155Y002303D02*
X014103Y002355D01*
X014052Y002355D01*
X014000Y002303D01*
X014000Y002199D01*
X014052Y002148D01*
X014103Y002148D01*
X014155Y002199D01*
X014155Y002032D02*
X014103Y001981D01*
X014103Y001825D01*
X014000Y001825D02*
X014310Y001825D01*
X014310Y001981D01*
X014259Y002032D01*
X014155Y002032D01*
X014103Y001929D02*
X014000Y002032D01*
X010010Y002405D02*
X009959Y002353D01*
X009752Y002353D01*
X009700Y002405D01*
X009700Y002508D01*
X009752Y002560D01*
X009700Y002675D02*
X009700Y002882D01*
X009700Y002779D02*
X010010Y002779D01*
X009907Y002675D01*
X009959Y002560D02*
X010010Y002508D01*
X010010Y002405D01*
X010010Y002998D02*
X009700Y002998D01*
X009700Y003153D01*
X009752Y003205D01*
X009803Y003205D01*
X009855Y003153D01*
X009855Y002998D01*
X009855Y003153D02*
X009907Y003205D01*
X009959Y003205D01*
X010010Y003153D01*
X010010Y002998D01*
X009160Y003130D02*
X009160Y002820D01*
X009005Y002820D01*
X008953Y002872D01*
X008953Y003079D01*
X009005Y003130D01*
X009160Y003130D01*
X008838Y003027D02*
X008734Y003130D01*
X008734Y002820D01*
X008631Y002820D02*
X008838Y002820D01*
X008515Y002872D02*
X008464Y002820D01*
X008360Y002820D01*
X008309Y002872D01*
X008309Y002923D01*
X008360Y002975D01*
X008412Y002975D01*
X008360Y002975D02*
X008309Y003027D01*
X008309Y003079D01*
X008360Y003130D01*
X008464Y003130D01*
X008515Y003079D01*
X010900Y004020D02*
X011210Y004020D01*
X011210Y004175D01*
X011159Y004227D01*
X011055Y004227D01*
X011003Y004175D01*
X011003Y004020D01*
X011003Y004123D02*
X010900Y004227D01*
X010900Y004342D02*
X010900Y004549D01*
X010900Y004446D02*
X011210Y004446D01*
X011107Y004342D01*
X009060Y004470D02*
X008905Y004470D01*
X008853Y004522D01*
X008853Y004729D01*
X008905Y004780D01*
X009060Y004780D01*
X009060Y004470D01*
X008738Y004470D02*
X008531Y004470D01*
X008634Y004470D02*
X008634Y004780D01*
X008738Y004677D01*
X008415Y004729D02*
X008364Y004780D01*
X008260Y004780D01*
X008209Y004729D01*
X008209Y004677D01*
X008415Y004470D01*
X008209Y004470D01*
X008281Y006020D02*
X008488Y006020D01*
X008281Y006227D01*
X008281Y006279D01*
X008333Y006330D01*
X008436Y006330D01*
X008488Y006279D01*
X008603Y006279D02*
X008655Y006330D01*
X008810Y006330D01*
X008810Y006020D01*
X008655Y006020D01*
X008603Y006072D01*
X008603Y006279D01*
X010400Y007277D02*
X010400Y007381D01*
X010452Y007432D01*
X010452Y007548D02*
X010400Y007599D01*
X010400Y007703D01*
X010452Y007755D01*
X010555Y007755D01*
X010607Y007703D01*
X010607Y007651D01*
X010555Y007548D01*
X010710Y007548D01*
X010710Y007755D01*
X010659Y007432D02*
X010710Y007381D01*
X010710Y007277D01*
X010659Y007225D01*
X010452Y007225D01*
X010400Y007277D01*
X008710Y007670D02*
X008710Y007980D01*
X008555Y007980D01*
X008503Y007929D01*
X008503Y007722D01*
X008555Y007670D01*
X008710Y007670D01*
X008388Y007670D02*
X008181Y007670D01*
X008284Y007670D02*
X008284Y007980D01*
X008388Y007877D01*
X011081Y009747D02*
X011133Y009695D01*
X011236Y009695D01*
X011288Y009747D01*
X011288Y009850D02*
X011184Y009902D01*
X011133Y009902D01*
X011081Y009850D01*
X011081Y009747D01*
X011288Y009850D02*
X011288Y010005D01*
X011081Y010005D01*
X011403Y009954D02*
X011403Y009850D01*
X011455Y009798D01*
X011610Y009798D01*
X011610Y009695D02*
X011610Y010005D01*
X011455Y010005D01*
X011403Y009954D01*
X011507Y009798D02*
X011403Y009695D01*
X014150Y009725D02*
X014460Y009725D01*
X014460Y009881D01*
X014409Y009932D01*
X014305Y009932D01*
X014253Y009881D01*
X014253Y009725D01*
X014253Y009829D02*
X014150Y009932D01*
X014202Y010048D02*
X014150Y010099D01*
X014150Y010203D01*
X014202Y010255D01*
X014409Y010255D01*
X014460Y010203D01*
X014460Y010099D01*
X014409Y010048D01*
X014357Y010048D01*
X014305Y010099D01*
X014305Y010255D01*
X019650Y007923D02*
X019702Y007923D01*
X019909Y008130D01*
X019960Y008130D01*
X019960Y007923D01*
X019960Y007704D02*
X019650Y007704D01*
X019650Y007807D02*
X019650Y007600D01*
X019650Y007485D02*
X019753Y007382D01*
X019753Y007433D02*
X019753Y007278D01*
X019650Y007278D02*
X019960Y007278D01*
X019960Y007433D01*
X019909Y007485D01*
X019805Y007485D01*
X019753Y007433D01*
X019857Y007600D02*
X019960Y007704D01*
X020852Y005796D02*
X020903Y005796D01*
X020955Y005745D01*
X020955Y005590D01*
X020852Y005590D01*
X020800Y005641D01*
X020800Y005745D01*
X020852Y005796D01*
X020955Y005590D02*
X021059Y005693D01*
X021110Y005796D01*
X020800Y005474D02*
X020800Y005267D01*
X020800Y005371D02*
X021110Y005371D01*
X021007Y005267D01*
X021059Y005152D02*
X020955Y005152D01*
X020903Y005100D01*
X020903Y004945D01*
X020800Y004945D02*
X021110Y004945D01*
X021110Y005100D01*
X021059Y005152D01*
X020903Y005048D02*
X020800Y005152D01*
X014310Y005078D02*
X014310Y004974D01*
X014259Y004923D01*
X014259Y004807D02*
X014155Y004807D01*
X014103Y004756D01*
X014103Y004600D01*
X014000Y004600D02*
X014310Y004600D01*
X014310Y004756D01*
X014259Y004807D01*
X014103Y004704D02*
X014000Y004807D01*
X014000Y004923D02*
X014207Y005130D01*
X014259Y005130D01*
X014310Y005078D01*
X014000Y005130D02*
X014000Y004923D01*
X032161Y005258D02*
X033184Y005258D01*
X033499Y005180D01*
X033184Y005258D02*
X033184Y007542D01*
X033499Y007620D01*
X033184Y007542D02*
X032161Y007542D01*
X033152Y004755D02*
X033100Y004703D01*
X033100Y004599D01*
X033152Y004548D01*
X033203Y004548D01*
X033255Y004599D01*
X033255Y004703D01*
X033203Y004755D01*
X033152Y004755D01*
X033255Y004703D02*
X033307Y004755D01*
X033359Y004755D01*
X033410Y004703D01*
X033410Y004599D01*
X033359Y004548D01*
X033307Y004548D01*
X033255Y004599D01*
X033203Y004432D02*
X033152Y004432D01*
X033100Y004381D01*
X033100Y004277D01*
X033152Y004225D01*
X033100Y004110D02*
X033203Y004007D01*
X033203Y004058D02*
X033203Y003903D01*
X033100Y003903D02*
X033410Y003903D01*
X033410Y004058D01*
X033359Y004110D01*
X033255Y004110D01*
X033203Y004058D01*
X033359Y004225D02*
X033410Y004277D01*
X033410Y004381D01*
X033359Y004432D01*
X033307Y004432D01*
X033255Y004381D01*
X033203Y004432D01*
X033255Y004381D02*
X033255Y004329D01*
X020477Y016020D02*
X020322Y016020D01*
X020270Y016072D01*
X020270Y016279D01*
X020322Y016330D01*
X020477Y016330D01*
X020477Y016020D01*
X020155Y016020D02*
X019948Y016020D01*
X020051Y016020D02*
X020051Y016330D01*
X020155Y016227D01*
X019832Y016227D02*
X019729Y016330D01*
X019729Y016020D01*
X019832Y016020D02*
X019625Y016020D01*
D18*
X011020Y015461D02*
X011020Y014139D01*
X008440Y014139D01*
X008440Y015461D01*
X011020Y015461D01*
X032130Y007651D02*
X032130Y005149D01*
X033530Y005149D01*
X033530Y007651D01*
X032130Y007651D01*
M02*
