  0
SECTION
  2
HEADER
  9
$ACADVER
  1
AC1009
  9
$FILLMODE
 70
0
  9
$EXTMIN
 10
-77.9272
 20
-0.2032
 30
0.0000
  9
$EXTMAX
 10
4.4407
 20
71.4163
 30
0.0000
  0
ENDSEC
  0
SECTION
  2
TABLES
  0
TABLE
  2
LTYPE
 70
1
  0
LTYPE
  2
CONTINUOUS
 70
64
  3
Solid line
 72
65
 73
0
 40
0
  0
ENDTAB
  0
TABLE
  2
LAYER
 70
255
  0
LAYER
  2
20
 70
64
 62
7
  6
CONTINUOUS
  0
LAYER
  2
21
 70
64
 62
253
  6
CONTINUOUS
  0
ENDTAB
  0
ENDSEC
  0
SECTION
  2
BLOCKS
  0
BLOCK
  8
0
  2
RECT
 70
64
 10
0.0000
 20
0.0000
 30
0.0000
  3
RECT
  0
SOLID
  8
0
 10
-0.5000
 20
-0.5000
 30
0.0000
 11
0.5000
 21
-0.5000
 31
0.0000
 12
-0.5000
 22
0.5000
 32
0.0000
 13
0.5000
 23
0.5000
 33
0.0000
  0
ENDBLK
  8
0
  0
BLOCK
  8
0
  2
PIE
 70
64
 10
0.0000
 20
0.0000
 30
0.0000
  3
PIE
  0
CIRCLE
  8
0
 10
0.0000
 20
0.0000
 30
0.0000
 40
0.5000
  0
ENDBLK
  8
0
  0
BLOCK
  8
0
  2
OCTAGONP
 70
64
 10
0.0000
 20
0.0000
 30
0.0000
  3
OCTAGONP
  0
POLYLINE
  8
0
 66
1
 10
0.0000
 20
0.0000
 30
0.0000
 40
0.0000
 41
0.0000
 70
1
  0
VERTEX
  8
0
 10
-0.5000
 20
-0.2071
 30
0.0000
  0
VERTEX
  8
0
 10
-0.5000
 20
0.2071
 30
0.0000
  0
VERTEX
  8
0
 10
-0.2071
 20
0.5000
 30
0.0000
  0
VERTEX
  8
0
 10
0.2071
 20
0.5000
 30
0.0000
  0
VERTEX
  8
0
 10
0.5000
 20
0.2071
 30
0.0000
  0
VERTEX
  8
0
 10
0.5000
 20
-0.2071
 30
0.0000
  0
VERTEX
  8
0
 10
0.2071
 20
-0.5000
 30
0.0000
  0
VERTEX
  8
0
 10
-0.2071
 20
-0.5000
 30
0.0000
  0
SEQEND
  8
0
  0
ENDBLK
  8
0
  0
BLOCK
  8
0
  2
SQUAREP
 70
64
 10
0.0000
 20
0.0000
 30
0.0000
  3
SQUAREP
  0
SOLID
  8
0
 10
-0.5000
 20
-0.5000
 30
0.0000
 11
0.5000
 21
-0.5000
 31
0.0000
 12
-0.5000
 22
0.5000
 32
0.0000
 13
0.5000
 23
0.5000
 33
0.0000
  0
ENDBLK
  8
0
  0
BLOCK
  8
0
  2
ROUNDP
 70
64
 10
0.0000
 20
0.0000
 30
0.0000
  3
ROUNDP
  0
CIRCLE
  8
0
 10
0.0000
 20
0.0000
 30
0.0000
 40
0.5000
  0
ENDBLK
  8
0
  0
BLOCK
  8
0
  2
ANNULUSP
 70
64
 10
0.0000
 20
0.0000
 30
0.0000
  3
ANNULUSP
  0
CIRCLE
  8
0
 10
0.0000
 20
0.0000
 30
0.0000
 40
0.5000
  0
ENDBLK
  8
0
  0
BLOCK
  8
0
  2
THERMALP
 70
64
 10
0.0000
 20
0.0000
 30
0.0000
  3
THERMALP
  0
POLYLINE
  8
0
 66
1
 10
0.0000
 20
0.0000
 30
0.0000
 40
0.0000
 41
0.0000
 70
1
  0
VERTEX
  8
0
 10
-0.2379
 20
0.4000
 30
0.0000
  0
VERTEX
  8
0
 10
0.2379
 20
0.4000
 30
0.0000
 42
1.0000
  0
VERTEX
  8
0
 10
0.2379
 20
0.5000
 30
0.0000
  0
VERTEX
  8
0
 10
-0.2379
 20
0.5000
 30
0.0000
 42
1.0000
  0
SEQEND
  8
0
  0
POLYLINE
  8
0
 66
1
 10
0.0000
 20
0.0000
 30
0.0000
 40
0.0000
 41
0.0000
 70
1
  0
VERTEX
  8
0
 10
0.4000
 20
0.2379
 30
0.0000
  0
VERTEX
  8
0
 10
0.4000
 20
-0.2379
 30
0.0000
 42
1.0000
  0
VERTEX
  8
0
 10
0.5000
 20
-0.2379
 30
0.0000
  0
VERTEX
  8
0
 10
0.5000
 20
0.2379
 30
0.0000
 42
1.0000
  0
SEQEND
  8
0
  0
POLYLINE
  8
0
 66
1
 10
0.0000
 20
0.0000
 30
0.0000
 40
0.0000
 41
0.0000
 70
1
  0
VERTEX
  8
0
 10
0.2379
 20
-0.4000
 30
0.0000
  0
VERTEX
  8
0
 10
-0.2379
 20
-0.4000
 30
0.0000
 42
1.0000
  0
VERTEX
  8
0
 10
-0.2379
 20
-0.5000
 30
0.0000
  0
VERTEX
  8
0
 10
0.2379
 20
-0.5000
 30
0.0000
 42
1.0000
  0
SEQEND
  8
0
  0
POLYLINE
  8
0
 66
1
 10
0.0000
 20
0.0000
 30
0.0000
 40
0.0000
 41
0.0000
 70
1
  0
VERTEX
  8
0
 10
-0.4000
 20
-0.2379
 30
0.0000
  0
VERTEX
  8
0
 10
-0.4000
 20
0.2379
 30
0.0000
 42
1.0000
  0
VERTEX
  8
0
 10
-0.5000
 20
0.2379
 30
0.0000
  0
VERTEX
  8
0
 10
-0.5000
 20
-0.2379
 30
0.0000
 42
1.0000
  0
SEQEND
  8
0
  0
ENDBLK
  8
0
  0
BLOCK
  8
0
  2
OCTAGONV
 70
64
 10
0.0000
 20
0.0000
 30
0.0000
  3
OCTAGONV
  0
POLYLINE
  8
0
 66
1
 10
0.0000
 20
0.0000
 30
0.0000
 40
0.0000
 41
0.0000
 70
1
  0
VERTEX
  8
0
 10
-0.5000
 20
-0.2071
 30
0.0000
  0
VERTEX
  8
0
 10
-0.5000
 20
0.2071
 30
0.0000
  0
VERTEX
  8
0
 10
-0.2071
 20
0.5000
 30
0.0000
  0
VERTEX
  8
0
 10
0.2071
 20
0.5000
 30
0.0000
  0
VERTEX
  8
0
 10
0.5000
 20
0.2071
 30
0.0000
  0
VERTEX
  8
0
 10
0.5000
 20
-0.2071
 30
0.0000
  0
VERTEX
  8
0
 10
0.2071
 20
-0.5000
 30
0.0000
  0
VERTEX
  8
0
 10
-0.2071
 20
-0.5000
 30
0.0000
  0
SEQEND
  8
0
  0
ENDBLK
  8
0
  0
BLOCK
  8
0
  2
SQUAREV
 70
64
 10
0.0000
 20
0.0000
 30
0.0000
  3
SQUAREV
  0
SOLID
  8
0
 10
-0.5000
 20
-0.5000
 30
0.0000
 11
0.5000
 21
-0.5000
 31
0.0000
 12
-0.5000
 22
0.5000
 32
0.0000
 13
0.5000
 23
0.5000
 33
0.0000
  0
ENDBLK
  8
0
  0
BLOCK
  8
0
  2
ROUNDV
 70
64
 10
0.0000
 20
0.0000
 30
0.0000
  3
ROUNDV
  0
CIRCLE
  8
0
 10
0.0000
 20
0.0000
 30
0.0000
 40
0.5000
  0
ENDBLK
  8
0
  0
BLOCK
  8
0
  2
ANNULUSV
 70
64
 10
0.0000
 20
0.0000
 30
0.0000
  3
ANNULUSV
  0
CIRCLE
  8
0
 10
0.0000
 20
0.0000
 30
0.0000
 40
0.5000
  0
ENDBLK
  8
0
  0
BLOCK
  8
0
  2
THERMALV
 70
64
 10
0.0000
 20
0.0000
 30
0.0000
  3
THERMALV
  0
POLYLINE
  8
0
 66
1
 10
0.0000
 20
0.0000
 30
0.0000
 40
0.0000
 41
0.0000
 70
1
  0
VERTEX
  8
0
 10
-0.2379
 20
0.4000
 30
0.0000
  0
VERTEX
  8
0
 10
0.2379
 20
0.4000
 30
0.0000
 42
1.0000
  0
VERTEX
  8
0
 10
0.2379
 20
0.5000
 30
0.0000
  0
VERTEX
  8
0
 10
-0.2379
 20
0.5000
 30
0.0000
 42
1.0000
  0
SEQEND
  8
0
  0
POLYLINE
  8
0
 66
1
 10
0.0000
 20
0.0000
 30
0.0000
 40
0.0000
 41
0.0000
 70
1
  0
VERTEX
  8
0
 10
0.4000
 20
0.2379
 30
0.0000
  0
VERTEX
  8
0
 10
0.4000
 20
-0.2379
 30
0.0000
 42
1.0000
  0
VERTEX
  8
0
 10
0.5000
 20
-0.2379
 30
0.0000
  0
VERTEX
  8
0
 10
0.5000
 20
0.2379
 30
0.0000
 42
1.0000
  0
SEQEND
  8
0
  0
POLYLINE
  8
0
 66
1
 10
0.0000
 20
0.0000
 30
0.0000
 40
0.0000
 41
0.0000
 70
1
  0
VERTEX
  8
0
 10
0.2379
 20
-0.4000
 30
0.0000
  0
VERTEX
  8
0
 10
-0.2379
 20
-0.4000
 30
0.0000
 42
1.0000
  0
VERTEX
  8
0
 10
-0.2379
 20
-0.5000
 30
0.0000
  0
VERTEX
  8
0
 10
0.2379
 20
-0.5000
 30
0.0000
 42
1.0000
  0
SEQEND
  8
0
  0
POLYLINE
  8
0
 66
1
 10
0.0000
 20
0.0000
 30
0.0000
 40
0.0000
 41
0.0000
 70
1
  0
VERTEX
  8
0
 10
-0.4000
 20
-0.2379
 30
0.0000
  0
VERTEX
  8
0
 10
-0.4000
 20
0.2379
 30
0.0000
 42
1.0000
  0
VERTEX
  8
0
 10
-0.5000
 20
0.2379
 30
0.0000
  0
VERTEX
  8
0
 10
-0.5000
 20
-0.2379
 30
0.0000
 42
1.0000
  0
SEQEND
  8
0
  0
ENDBLK
  8
0
  0
BLOCK
  8
0
  2
LONGP100
 70
64
 10
0.0000
 20
0.0000
 30
0.0000
  3
LONGP100
  0
POLYLINE
  8
0
 66
1
 10
0.0000
 20
0.0000
 30
0.0000
 40
0.0000
 41
0.0000
 70
1
  0
VERTEX
  8
0
 10
-0.5000
 20
-0.5000
 30
0.0000
  0
VERTEX
  8
0
 10
0.5000
 20
-0.5000
 30
0.0000
 42
1.0000
  0
VERTEX
  8
0
 10
0.5000
 20
0.5000
 30
0.0000
  0
VERTEX
  8
0
 10
-0.5000
 20
0.5000
 30
0.0000
 42
1.0000
  0
SEQEND
  8
0
  0
ENDBLK
  8
0
  0
ENDSEC
  0
SECTION
  2
ENTITIES
  0
ARC
  8
20
 10
-37.9194
 20
23.6358
 30
0.0000
 40
40.0000
 50
124.9805
 51
215.8536
  0
ARC
  8
20
 10
-60.5647
 20
56.0000
 30
0.0000
 40
0.5000
 50
90.0002
 51
124.9808
  0
LINE
  8
20
 10
-60.5647
 20
56.5000
 30
0.0000
 11
-0.5000
 21
56.5000
 31
0.0000
  0
ARC
  8
20
 10
-0.5000
 20
56.0000
 30
0.0000
 40
0.5000
 50
0.0000
 51
90.0000
  0
LINE
  8
20
 10
0.0000
 20
56.0000
 30
0.0000
 11
0.0000
 21
21.3360
 31
0.0000
  0
LINE
  8
20
 10
0.0000
 20
21.3360
 30
0.0000
 11
0.0000
 21
0.5000
 31
0.0000
  0
ARC
  8
20
 10
-0.5000
 20
0.5000
 30
0.0000
 40
0.5000
 50
270.0000
 51
0.0000
  0
LINE
  8
20
 10
-0.5000
 20
0.0000
 30
0.0000
 11
-34.9888
 21
0.0000
 31
0.0000
  0
ARC
  8
20
 10
-34.9888
 20
0.5000
 30
0.0000
 40
0.5000
 50
180.0000
 51
270.0000
  0
LINE
  8
20
 10
-35.4888
 20
0.5000
 30
0.0000
 11
-35.4888
 21
21.3360
 31
0.0000
  0
LINE
  8
20
 10
-35.4888
 20
21.3360
 30
0.0000
 11
-35.4888
 21
23.9520
 31
0.0000
  0
ARC
  8
20
 10
-39.4888
 20
23.9520
 30
0.0000
 40
4.0000
 50
0.0000
 51
180.0000
  0
LINE
  8
20
 10
-43.4888
 20
23.9520
 30
0.0000
 11
-43.4888
 21
0.5000
 31
0.0000
  0
ARC
  8
20
 10
-43.9888
 20
0.5000
 30
0.0000
 40
0.5000
 50
270.0000
 51
0.0000
  0
LINE
  8
20
 10
-43.9888
 20
0.0000
 30
0.0000
 11
-69.9348
 21
0.0000
 31
0.0000
  0
ARC
  8
20
 10
-69.9348
 20
0.5000
 30
0.0000
 40
0.5000
 50
215.8538
 51
270.0002
  0
LINE
  8
21
 10
-10.7863
 20
51.9242
 30
0.0000
 11
-5.9863
 21
51.9242
 31
0.0000
  0
LINE
  8
21
 10
-10.7863
 20
50.1242
 30
0.0000
 11
-10.7863
 21
51.9242
 31
0.0000
  0
LINE
  8
21
 10
-5.9863
 20
50.1242
 30
0.0000
 11
-10.7863
 21
50.1242
 31
0.0000
  0
LINE
  8
21
 10
-5.9863
 20
51.9242
 30
0.0000
 11
-5.9863
 21
50.1242
 31
0.0000
  0
LINE
  8
21
 10
-5.9863
 20
45.1242
 30
0.0000
 11
-10.7863
 21
45.1242
 31
0.0000
  0
LINE
  8
21
 10
-5.9863
 20
46.9242
 30
0.0000
 11
-5.9863
 21
45.1242
 31
0.0000
  0
LINE
  8
21
 10
-10.7863
 20
46.9242
 30
0.0000
 11
-5.9863
 21
46.9242
 31
0.0000
  0
LINE
  8
21
 10
-10.7863
 20
45.1242
 30
0.0000
 11
-10.7863
 21
46.9242
 31
0.0000
  0
LINE
  8
21
 10
-10.7863
 20
40.1242
 30
0.0000
 11
-5.9863
 21
40.1242
 31
0.0000
  0
LINE
  8
21
 10
-10.7863
 20
41.9242
 30
0.0000
 11
-10.7863
 21
40.1242
 31
0.0000
  0
LINE
  8
21
 10
-5.9863
 20
41.9242
 30
0.0000
 11
-10.7863
 21
41.9242
 31
0.0000
  0
LINE
  8
21
 10
-5.9863
 20
40.1242
 30
0.0000
 11
-5.9863
 21
41.9242
 31
0.0000
  0
LINE
  8
21
 10
-10.7863
 20
35.1242
 30
0.0000
 11
-5.9863
 21
35.1242
 31
0.0000
  0
LINE
  8
21
 10
-10.7863
 20
36.9242
 30
0.0000
 11
-10.7863
 21
35.1242
 31
0.0000
  0
LINE
  8
21
 10
-5.9863
 20
36.9242
 30
0.0000
 11
-10.7863
 21
36.9242
 31
0.0000
  0
LINE
  8
21
 10
-5.9863
 20
35.1242
 30
0.0000
 11
-5.9863
 21
36.9242
 31
0.0000
  0
LINE
  8
21
 10
-10.7863
 20
30.1242
 30
0.0000
 11
-5.9863
 21
30.1242
 31
0.0000
  0
LINE
  8
21
 10
-10.7863
 20
31.9242
 30
0.0000
 11
-10.7863
 21
30.1242
 31
0.0000
  0
LINE
  8
21
 10
-5.9863
 20
31.9242
 30
0.0000
 11
-10.7863
 21
31.9242
 31
0.0000
  0
LINE
  8
21
 10
-5.9863
 20
30.1242
 30
0.0000
 11
-5.9863
 21
31.9242
 31
0.0000
  0
LINE
  8
21
 10
-10.7863
 20
25.1242
 30
0.0000
 11
-5.9863
 21
25.1242
 31
0.0000
  0
LINE
  8
21
 10
-10.7863
 20
26.9242
 30
0.0000
 11
-10.7863
 21
25.1242
 31
0.0000
  0
LINE
  8
21
 10
-5.9863
 20
26.9242
 30
0.0000
 11
-10.7863
 21
26.9242
 31
0.0000
  0
LINE
  8
21
 10
-5.9863
 20
25.1242
 30
0.0000
 11
-5.9863
 21
26.9242
 31
0.0000
  0
LINE
  8
21
 10
-56.0000
 20
14.2500
 30
0.0000
 11
-66.0000
 21
14.2500
 31
0.0000
  0
LINE
  8
21
 10
-56.0000
 20
26.2500
 30
0.0000
 11
-56.0000
 21
14.2500
 31
0.0000
  0
LINE
  8
21
 10
-66.0000
 20
26.2500
 30
0.0000
 11
-56.0000
 21
26.2500
 31
0.0000
  0
LINE
  8
21
 10
-66.0000
 20
14.2500
 30
0.0000
 11
-66.0000
 21
26.2500
 31
0.0000
  0
LINE
  8
20
 10
0.0000
 20
21.3360
 30
0.0000
 11
-35.4888
 21
21.3360
 31
0.0000
  0
CIRCLE
  8
20
 10
-68.0216
 20
2.5721
 30
0.0000
 40
0.7500
  0
CIRCLE
  8
20
 10
-61.0000
 20
4.2932
 30
0.0000
 40
1.2500
  0
CIRCLE
  8
20
 10
-75.6591
 20
24.0864
 30
0.0000
 40
0.7500
  0
CIRCLE
  8
20
 10
-61.0000
 20
43.6645
 30
0.0000
 40
1.2500
  0
CIRCLE
  8
20
 10
-4.3391
 20
24.0864
 30
0.0000
 40
0.7500
  0
CIRCLE
  8
20
 10
-1.8649
 20
53.4535
 30
0.0000
 40
0.7500
  0
POLYLINE
  8
21
 66
1
 10
0.0000
 20
0.0000
 30
0.0000
 40
0.0000
 41
0.0000
 70
1
  0
VERTEX
  8
21
 10
-9.1483
 20
26.7100
 30
0.0000
  0
VERTEX
  8
21
 10
-8.8943
 20
26.7100
 30
0.0000
 42
1.0000
  0
VERTEX
  8
21
 10
-8.8943
 20
26.8624
 30
0.0000
  0
VERTEX
  8
21
 10
-9.1483
 20
26.8624
 30
0.0000
 42
1.0000
  0
SEQEND
  8
0
  0
POLYLINE
  8
21
 66
1
 10
0.0000
 20
0.0000
 30
0.0000
 40
0.0000
 41
0.0000
 70
1
  0
VERTEX
  8
21
 10
-9.2245
 20
26.7862
 30
0.0000
  0
VERTEX
  8
21
 10
-9.2245
 20
26.5322
 30
0.0000
 42
1.0000
  0
VERTEX
  8
21
 10
-9.0721
 20
26.5322
 30
0.0000
  0
VERTEX
  8
21
 10
-9.0721
 20
26.7862
 30
0.0000
 42
1.0000
  0
SEQEND
  8
0
  0
POLYLINE
  8
21
 66
1
 10
0.0000
 20
0.0000
 30
0.0000
 40
0.0000
 41
0.0000
 70
1
  0
VERTEX
  8
21
 10
-7.7005
 20
26.7862
 30
0.0000
  0
VERTEX
  8
21
 10
-7.7005
 20
26.5322
 30
0.0000
 42
1.0000
  0
VERTEX
  8
21
 10
-7.5481
 20
26.5322
 30
0.0000
  0
VERTEX
  8
21
 10
-7.5481
 20
26.7862
 30
0.0000
 42
1.0000
  0
SEQEND
  8
0
  0
POLYLINE
  8
21
 66
1
 10
0.0000
 20
0.0000
 30
0.0000
 40
0.0000
 41
0.0000
 70
1
  0
VERTEX
  8
21
 10
-7.6243
 20
26.8624
 30
0.0000
  0
VERTEX
  8
21
 10
-7.8783
 20
26.8624
 30
0.0000
 42
1.0000
  0
VERTEX
  8
21
 10
-7.8783
 20
26.7100
 30
0.0000
  0
VERTEX
  8
21
 10
-7.6243
 20
26.7100
 30
0.0000
 42
1.0000
  0
SEQEND
  8
0
  0
POLYLINE
  8
21
 66
1
 10
0.0000
 20
0.0000
 30
0.0000
 40
0.0000
 41
0.0000
 70
1
  0
VERTEX
  8
21
 10
-7.7005
 20
25.5162
 30
0.0000
  0
VERTEX
  8
21
 10
-7.7005
 20
25.2622
 30
0.0000
 42
1.0000
  0
VERTEX
  8
21
 10
-7.5481
 20
25.2622
 30
0.0000
  0
VERTEX
  8
21
 10
-7.5481
 20
25.5162
 30
0.0000
 42
1.0000
  0
SEQEND
  8
0
  0
POLYLINE
  8
21
 66
1
 10
0.0000
 20
0.0000
 30
0.0000
 40
0.0000
 41
0.0000
 70
1
  0
VERTEX
  8
21
 10
-7.6243
 20
25.3384
 30
0.0000
  0
VERTEX
  8
21
 10
-7.8783
 20
25.3384
 30
0.0000
 42
1.0000
  0
VERTEX
  8
21
 10
-7.8783
 20
25.1860
 30
0.0000
  0
VERTEX
  8
21
 10
-7.6243
 20
25.1860
 30
0.0000
 42
1.0000
  0
SEQEND
  8
0
  0
POLYLINE
  8
21
 66
1
 10
0.0000
 20
0.0000
 30
0.0000
 40
0.0000
 41
0.0000
 70
1
  0
VERTEX
  8
21
 10
-8.8943
 20
25.3384
 30
0.0000
  0
VERTEX
  8
21
 10
-9.1483
 20
25.3384
 30
0.0000
 42
1.0000
  0
VERTEX
  8
21
 10
-9.1483
 20
25.1860
 30
0.0000
  0
VERTEX
  8
21
 10
-8.8943
 20
25.1860
 30
0.0000
 42
1.0000
  0
SEQEND
  8
0
  0
POLYLINE
  8
21
 66
1
 10
0.0000
 20
0.0000
 30
0.0000
 40
0.0000
 41
0.0000
 70
1
  0
VERTEX
  8
21
 10
-9.0721
 20
25.2622
 30
0.0000
  0
VERTEX
  8
21
 10
-9.0721
 20
25.5162
 30
0.0000
 42
1.0000
  0
VERTEX
  8
21
 10
-9.2245
 20
25.5162
 30
0.0000
  0
VERTEX
  8
21
 10
-9.2245
 20
25.2622
 30
0.0000
 42
1.0000
  0
SEQEND
  8
0
  0
POLYLINE
  8
21
 66
1
 10
0.0000
 20
0.0000
 30
0.0000
 40
0.0000
 41
0.0000
 70
1
  0
VERTEX
  8
21
 10
-9.1483
 20
51.7100
 30
0.0000
  0
VERTEX
  8
21
 10
-8.8943
 20
51.7100
 30
0.0000
 42
1.0000
  0
VERTEX
  8
21
 10
-8.8943
 20
51.8624
 30
0.0000
  0
VERTEX
  8
21
 10
-9.1483
 20
51.8624
 30
0.0000
 42
1.0000
  0
SEQEND
  8
0
  0
POLYLINE
  8
21
 66
1
 10
0.0000
 20
0.0000
 30
0.0000
 40
0.0000
 41
0.0000
 70
1
  0
VERTEX
  8
21
 10
-9.2245
 20
51.7862
 30
0.0000
  0
VERTEX
  8
21
 10
-9.2245
 20
51.5322
 30
0.0000
 42
1.0000
  0
VERTEX
  8
21
 10
-9.0721
 20
51.5322
 30
0.0000
  0
VERTEX
  8
21
 10
-9.0721
 20
51.7862
 30
0.0000
 42
1.0000
  0
SEQEND
  8
0
  0
POLYLINE
  8
21
 66
1
 10
0.0000
 20
0.0000
 30
0.0000
 40
0.0000
 41
0.0000
 70
1
  0
VERTEX
  8
21
 10
-7.7005
 20
51.7862
 30
0.0000
  0
VERTEX
  8
21
 10
-7.7005
 20
51.5322
 30
0.0000
 42
1.0000
  0
VERTEX
  8
21
 10
-7.5481
 20
51.5322
 30
0.0000
  0
VERTEX
  8
21
 10
-7.5481
 20
51.7862
 30
0.0000
 42
1.0000
  0
SEQEND
  8
0
  0
POLYLINE
  8
21
 66
1
 10
0.0000
 20
0.0000
 30
0.0000
 40
0.0000
 41
0.0000
 70
1
  0
VERTEX
  8
21
 10
-7.6243
 20
51.8624
 30
0.0000
  0
VERTEX
  8
21
 10
-7.8783
 20
51.8624
 30
0.0000
 42
1.0000
  0
VERTEX
  8
21
 10
-7.8783
 20
51.7100
 30
0.0000
  0
VERTEX
  8
21
 10
-7.6243
 20
51.7100
 30
0.0000
 42
1.0000
  0
SEQEND
  8
0
  0
POLYLINE
  8
21
 66
1
 10
0.0000
 20
0.0000
 30
0.0000
 40
0.0000
 41
0.0000
 70
1
  0
VERTEX
  8
21
 10
-7.7005
 20
50.5162
 30
0.0000
  0
VERTEX
  8
21
 10
-7.7005
 20
50.2622
 30
0.0000
 42
1.0000
  0
VERTEX
  8
21
 10
-7.5481
 20
50.2622
 30
0.0000
  0
VERTEX
  8
21
 10
-7.5481
 20
50.5162
 30
0.0000
 42
1.0000
  0
SEQEND
  8
0
  0
POLYLINE
  8
21
 66
1
 10
0.0000
 20
0.0000
 30
0.0000
 40
0.0000
 41
0.0000
 70
1
  0
VERTEX
  8
21
 10
-7.6243
 20
50.3384
 30
0.0000
  0
VERTEX
  8
21
 10
-7.8783
 20
50.3384
 30
0.0000
 42
1.0000
  0
VERTEX
  8
21
 10
-7.8783
 20
50.1860
 30
0.0000
  0
VERTEX
  8
21
 10
-7.6243
 20
50.1860
 30
0.0000
 42
1.0000
  0
SEQEND
  8
0
  0
POLYLINE
  8
21
 66
1
 10
0.0000
 20
0.0000
 30
0.0000
 40
0.0000
 41
0.0000
 70
1
  0
VERTEX
  8
21
 10
-8.8943
 20
50.3384
 30
0.0000
  0
VERTEX
  8
21
 10
-9.1483
 20
50.3384
 30
0.0000
 42
1.0000
  0
VERTEX
  8
21
 10
-9.1483
 20
50.1860
 30
0.0000
  0
VERTEX
  8
21
 10
-8.8943
 20
50.1860
 30
0.0000
 42
1.0000
  0
SEQEND
  8
0
  0
POLYLINE
  8
21
 66
1
 10
0.0000
 20
0.0000
 30
0.0000
 40
0.0000
 41
0.0000
 70
1
  0
VERTEX
  8
21
 10
-9.0721
 20
50.2622
 30
0.0000
  0
VERTEX
  8
21
 10
-9.0721
 20
50.5162
 30
0.0000
 42
1.0000
  0
VERTEX
  8
21
 10
-9.2245
 20
50.5162
 30
0.0000
  0
VERTEX
  8
21
 10
-9.2245
 20
50.2622
 30
0.0000
 42
1.0000
  0
SEQEND
  8
0
  0
POLYLINE
  8
21
 66
1
 10
0.0000
 20
0.0000
 30
0.0000
 40
0.0000
 41
0.0000
 70
1
  0
VERTEX
  8
21
 10
-8.8943
 20
31.8624
 30
0.0000
  0
VERTEX
  8
21
 10
-9.1483
 20
31.8624
 30
0.0000
 42
1.0000
  0
VERTEX
  8
21
 10
-9.1483
 20
31.7100
 30
0.0000
  0
VERTEX
  8
21
 10
-8.8943
 20
31.7100
 30
0.0000
 42
1.0000
  0
SEQEND
  8
0
  0
POLYLINE
  8
21
 66
1
 10
0.0000
 20
0.0000
 30
0.0000
 40
0.0000
 41
0.0000
 70
1
  0
VERTEX
  8
21
 10
-9.2245
 20
31.7862
 30
0.0000
  0
VERTEX
  8
21
 10
-9.2245
 20
31.5322
 30
0.0000
 42
1.0000
  0
VERTEX
  8
21
 10
-9.0721
 20
31.5322
 30
0.0000
  0
VERTEX
  8
21
 10
-9.0721
 20
31.7862
 30
0.0000
 42
1.0000
  0
SEQEND
  8
0
  0
POLYLINE
  8
21
 66
1
 10
0.0000
 20
0.0000
 30
0.0000
 40
0.0000
 41
0.0000
 70
1
  0
VERTEX
  8
21
 10
-9.2245
 20
30.5162
 30
0.0000
  0
VERTEX
  8
21
 10
-9.2245
 20
30.2622
 30
0.0000
 42
1.0000
  0
VERTEX
  8
21
 10
-9.0721
 20
30.2622
 30
0.0000
  0
VERTEX
  8
21
 10
-9.0721
 20
30.5162
 30
0.0000
 42
1.0000
  0
SEQEND
  8
0
  0
POLYLINE
  8
21
 66
1
 10
0.0000
 20
0.0000
 30
0.0000
 40
0.0000
 41
0.0000
 70
1
  0
VERTEX
  8
21
 10
-9.1483
 20
30.1860
 30
0.0000
  0
VERTEX
  8
21
 10
-8.8943
 20
30.1860
 30
0.0000
 42
1.0000
  0
VERTEX
  8
21
 10
-8.8943
 20
30.3384
 30
0.0000
  0
VERTEX
  8
21
 10
-9.1483
 20
30.3384
 30
0.0000
 42
1.0000
  0
SEQEND
  8
0
  0
POLYLINE
  8
21
 66
1
 10
0.0000
 20
0.0000
 30
0.0000
 40
0.0000
 41
0.0000
 70
1
  0
VERTEX
  8
21
 10
-7.8783
 20
30.1860
 30
0.0000
  0
VERTEX
  8
21
 10
-7.6243
 20
30.1860
 30
0.0000
 42
1.0000
  0
VERTEX
  8
21
 10
-7.6243
 20
30.3384
 30
0.0000
  0
VERTEX
  8
21
 10
-7.8783
 20
30.3384
 30
0.0000
 42
1.0000
  0
SEQEND
  8
0
  0
POLYLINE
  8
21
 66
1
 10
0.0000
 20
0.0000
 30
0.0000
 40
0.0000
 41
0.0000
 70
1
  0
VERTEX
  8
21
 10
-7.5481
 20
30.2622
 30
0.0000
  0
VERTEX
  8
21
 10
-7.5481
 20
30.5162
 30
0.0000
 42
1.0000
  0
VERTEX
  8
21
 10
-7.7005
 20
30.5162
 30
0.0000
  0
VERTEX
  8
21
 10
-7.7005
 20
30.2622
 30
0.0000
 42
1.0000
  0
SEQEND
  8
0
  0
POLYLINE
  8
21
 66
1
 10
0.0000
 20
0.0000
 30
0.0000
 40
0.0000
 41
0.0000
 70
1
  0
VERTEX
  8
21
 10
-7.5481
 20
31.5322
 30
0.0000
  0
VERTEX
  8
21
 10
-7.5481
 20
31.7862
 30
0.0000
 42
1.0000
  0
VERTEX
  8
21
 10
-7.7005
 20
31.7862
 30
0.0000
  0
VERTEX
  8
21
 10
-7.7005
 20
31.5322
 30
0.0000
 42
1.0000
  0
SEQEND
  8
0
  0
POLYLINE
  8
21
 66
1
 10
0.0000
 20
0.0000
 30
0.0000
 40
0.0000
 41
0.0000
 70
1
  0
VERTEX
  8
21
 10
-7.6243
 20
31.8624
 30
0.0000
  0
VERTEX
  8
21
 10
-7.8783
 20
31.8624
 30
0.0000
 42
1.0000
  0
VERTEX
  8
21
 10
-7.8783
 20
31.7100
 30
0.0000
  0
VERTEX
  8
21
 10
-7.6243
 20
31.7100
 30
0.0000
 42
1.0000
  0
SEQEND
  8
0
  0
POLYLINE
  8
21
 66
1
 10
0.0000
 20
0.0000
 30
0.0000
 40
0.0000
 41
0.0000
 70
1
  0
VERTEX
  8
21
 10
-8.8943
 20
36.8624
 30
0.0000
  0
VERTEX
  8
21
 10
-9.1483
 20
36.8624
 30
0.0000
 42
1.0000
  0
VERTEX
  8
21
 10
-9.1483
 20
36.7100
 30
0.0000
  0
VERTEX
  8
21
 10
-8.8943
 20
36.7100
 30
0.0000
 42
1.0000
  0
SEQEND
  8
0
  0
POLYLINE
  8
21
 66
1
 10
0.0000
 20
0.0000
 30
0.0000
 40
0.0000
 41
0.0000
 70
1
  0
VERTEX
  8
21
 10
-9.2245
 20
36.7862
 30
0.0000
  0
VERTEX
  8
21
 10
-9.2245
 20
36.5322
 30
0.0000
 42
1.0000
  0
VERTEX
  8
21
 10
-9.0721
 20
36.5322
 30
0.0000
  0
VERTEX
  8
21
 10
-9.0721
 20
36.7862
 30
0.0000
 42
1.0000
  0
SEQEND
  8
0
  0
POLYLINE
  8
21
 66
1
 10
0.0000
 20
0.0000
 30
0.0000
 40
0.0000
 41
0.0000
 70
1
  0
VERTEX
  8
21
 10
-9.2245
 20
35.5162
 30
0.0000
  0
VERTEX
  8
21
 10
-9.2245
 20
35.2622
 30
0.0000
 42
1.0000
  0
VERTEX
  8
21
 10
-9.0721
 20
35.2622
 30
0.0000
  0
VERTEX
  8
21
 10
-9.0721
 20
35.5162
 30
0.0000
 42
1.0000
  0
SEQEND
  8
0
  0
POLYLINE
  8
21
 66
1
 10
0.0000
 20
0.0000
 30
0.0000
 40
0.0000
 41
0.0000
 70
1
  0
VERTEX
  8
21
 10
-9.1483
 20
35.1860
 30
0.0000
  0
VERTEX
  8
21
 10
-8.8943
 20
35.1860
 30
0.0000
 42
1.0000
  0
VERTEX
  8
21
 10
-8.8943
 20
35.3384
 30
0.0000
  0
VERTEX
  8
21
 10
-9.1483
 20
35.3384
 30
0.0000
 42
1.0000
  0
SEQEND
  8
0
  0
POLYLINE
  8
21
 66
1
 10
0.0000
 20
0.0000
 30
0.0000
 40
0.0000
 41
0.0000
 70
1
  0
VERTEX
  8
21
 10
-7.8783
 20
35.1860
 30
0.0000
  0
VERTEX
  8
21
 10
-7.6243
 20
35.1860
 30
0.0000
 42
1.0000
  0
VERTEX
  8
21
 10
-7.6243
 20
35.3384
 30
0.0000
  0
VERTEX
  8
21
 10
-7.8783
 20
35.3384
 30
0.0000
 42
1.0000
  0
SEQEND
  8
0
  0
POLYLINE
  8
21
 66
1
 10
0.0000
 20
0.0000
 30
0.0000
 40
0.0000
 41
0.0000
 70
1
  0
VERTEX
  8
21
 10
-7.5481
 20
35.2622
 30
0.0000
  0
VERTEX
  8
21
 10
-7.5481
 20
35.5162
 30
0.0000
 42
1.0000
  0
VERTEX
  8
21
 10
-7.7005
 20
35.5162
 30
0.0000
  0
VERTEX
  8
21
 10
-7.7005
 20
35.2622
 30
0.0000
 42
1.0000
  0
SEQEND
  8
0
  0
POLYLINE
  8
21
 66
1
 10
0.0000
 20
0.0000
 30
0.0000
 40
0.0000
 41
0.0000
 70
1
  0
VERTEX
  8
21
 10
-7.5481
 20
36.5322
 30
0.0000
  0
VERTEX
  8
21
 10
-7.5481
 20
36.7862
 30
0.0000
 42
1.0000
  0
VERTEX
  8
21
 10
-7.7005
 20
36.7862
 30
0.0000
  0
VERTEX
  8
21
 10
-7.7005
 20
36.5322
 30
0.0000
 42
1.0000
  0
SEQEND
  8
0
  0
POLYLINE
  8
21
 66
1
 10
0.0000
 20
0.0000
 30
0.0000
 40
0.0000
 41
0.0000
 70
1
  0
VERTEX
  8
21
 10
-7.6243
 20
36.8624
 30
0.0000
  0
VERTEX
  8
21
 10
-7.8783
 20
36.8624
 30
0.0000
 42
1.0000
  0
VERTEX
  8
21
 10
-7.8783
 20
36.7100
 30
0.0000
  0
VERTEX
  8
21
 10
-7.6243
 20
36.7100
 30
0.0000
 42
1.0000
  0
SEQEND
  8
0
  0
POLYLINE
  8
21
 66
1
 10
0.0000
 20
0.0000
 30
0.0000
 40
0.0000
 41
0.0000
 70
1
  0
VERTEX
  8
21
 10
-8.8943
 20
41.8624
 30
0.0000
  0
VERTEX
  8
21
 10
-9.1483
 20
41.8624
 30
0.0000
 42
1.0000
  0
VERTEX
  8
21
 10
-9.1483
 20
41.7100
 30
0.0000
  0
VERTEX
  8
21
 10
-8.8943
 20
41.7100
 30
0.0000
 42
1.0000
  0
SEQEND
  8
0
  0
POLYLINE
  8
21
 66
1
 10
0.0000
 20
0.0000
 30
0.0000
 40
0.0000
 41
0.0000
 70
1
  0
VERTEX
  8
21
 10
-9.2245
 20
41.7862
 30
0.0000
  0
VERTEX
  8
21
 10
-9.2245
 20
41.5322
 30
0.0000
 42
1.0000
  0
VERTEX
  8
21
 10
-9.0721
 20
41.5322
 30
0.0000
  0
VERTEX
  8
21
 10
-9.0721
 20
41.7862
 30
0.0000
 42
1.0000
  0
SEQEND
  8
0
  0
POLYLINE
  8
21
 66
1
 10
0.0000
 20
0.0000
 30
0.0000
 40
0.0000
 41
0.0000
 70
1
  0
VERTEX
  8
21
 10
-9.2245
 20
40.5162
 30
0.0000
  0
VERTEX
  8
21
 10
-9.2245
 20
40.2622
 30
0.0000
 42
1.0000
  0
VERTEX
  8
21
 10
-9.0721
 20
40.2622
 30
0.0000
  0
VERTEX
  8
21
 10
-9.0721
 20
40.5162
 30
0.0000
 42
1.0000
  0
SEQEND
  8
0
  0
POLYLINE
  8
21
 66
1
 10
0.0000
 20
0.0000
 30
0.0000
 40
0.0000
 41
0.0000
 70
1
  0
VERTEX
  8
21
 10
-9.1483
 20
40.1860
 30
0.0000
  0
VERTEX
  8
21
 10
-8.8943
 20
40.1860
 30
0.0000
 42
1.0000
  0
VERTEX
  8
21
 10
-8.8943
 20
40.3384
 30
0.0000
  0
VERTEX
  8
21
 10
-9.1483
 20
40.3384
 30
0.0000
 42
1.0000
  0
SEQEND
  8
0
  0
POLYLINE
  8
21
 66
1
 10
0.0000
 20
0.0000
 30
0.0000
 40
0.0000
 41
0.0000
 70
1
  0
VERTEX
  8
21
 10
-7.8783
 20
40.1860
 30
0.0000
  0
VERTEX
  8
21
 10
-7.6243
 20
40.1860
 30
0.0000
 42
1.0000
  0
VERTEX
  8
21
 10
-7.6243
 20
40.3384
 30
0.0000
  0
VERTEX
  8
21
 10
-7.8783
 20
40.3384
 30
0.0000
 42
1.0000
  0
SEQEND
  8
0
  0
POLYLINE
  8
21
 66
1
 10
0.0000
 20
0.0000
 30
0.0000
 40
0.0000
 41
0.0000
 70
1
  0
VERTEX
  8
21
 10
-7.5481
 20
40.2622
 30
0.0000
  0
VERTEX
  8
21
 10
-7.5481
 20
40.5162
 30
0.0000
 42
1.0000
  0
VERTEX
  8
21
 10
-7.7005
 20
40.5162
 30
0.0000
  0
VERTEX
  8
21
 10
-7.7005
 20
40.2622
 30
0.0000
 42
1.0000
  0
SEQEND
  8
0
  0
POLYLINE
  8
21
 66
1
 10
0.0000
 20
0.0000
 30
0.0000
 40
0.0000
 41
0.0000
 70
1
  0
VERTEX
  8
21
 10
-7.5481
 20
41.5322
 30
0.0000
  0
VERTEX
  8
21
 10
-7.5481
 20
41.7862
 30
0.0000
 42
1.0000
  0
VERTEX
  8
21
 10
-7.7005
 20
41.7862
 30
0.0000
  0
VERTEX
  8
21
 10
-7.7005
 20
41.5322
 30
0.0000
 42
1.0000
  0
SEQEND
  8
0
  0
POLYLINE
  8
21
 66
1
 10
0.0000
 20
0.0000
 30
0.0000
 40
0.0000
 41
0.0000
 70
1
  0
VERTEX
  8
21
 10
-7.6243
 20
41.8624
 30
0.0000
  0
VERTEX
  8
21
 10
-7.8783
 20
41.8624
 30
0.0000
 42
1.0000
  0
VERTEX
  8
21
 10
-7.8783
 20
41.7100
 30
0.0000
  0
VERTEX
  8
21
 10
-7.6243
 20
41.7100
 30
0.0000
 42
1.0000
  0
SEQEND
  8
0
  0
POLYLINE
  8
21
 66
1
 10
0.0000
 20
0.0000
 30
0.0000
 40
0.0000
 41
0.0000
 70
1
  0
VERTEX
  8
21
 10
-56.9595
 20
51.9430
 30
0.0000
  0
VERTEX
  8
21
 10
-56.9595
 20
53.7210
 30
0.0000
 42
1.0000
  0
VERTEX
  8
21
 10
-57.0865
 20
53.7210
 30
0.0000
  0
VERTEX
  8
21
 10
-57.0865
 20
51.9430
 30
0.0000
 42
1.0000
  0
SEQEND
  8
0
  0
POLYLINE
  8
21
 66
1
 10
0.0000
 20
0.0000
 30
0.0000
 40
0.0000
 41
0.0000
 70
1
  0
VERTEX
  8
21
 10
-57.0230
 20
53.6575
 30
0.0000
  0
VERTEX
  8
21
 10
-53.7210
 20
53.6575
 30
0.0000
 42
1.0000
  0
VERTEX
  8
21
 10
-53.7210
 20
53.7845
 30
0.0000
  0
VERTEX
  8
21
 10
-57.0230
 20
53.7845
 30
0.0000
 42
1.0000
  0
SEQEND
  8
0
  0
POLYLINE
  8
21
 66
1
 10
0.0000
 20
0.0000
 30
0.0000
 40
0.0000
 41
0.0000
 70
1
  0
VERTEX
  8
21
 10
-53.7845
 20
53.7210
 30
0.0000
  0
VERTEX
  8
21
 10
-53.7845
 20
51.9430
 30
0.0000
 42
1.0000
  0
VERTEX
  8
21
 10
-53.6575
 20
51.9430
 30
0.0000
  0
VERTEX
  8
21
 10
-53.6575
 20
53.7210
 30
0.0000
 42
1.0000
  0
SEQEND
  8
0
  0
POLYLINE
  8
21
 66
1
 10
0.0000
 20
0.0000
 30
0.0000
 40
0.0000
 41
0.0000
 70
1
  0
VERTEX
  8
21
 10
-53.7210
 20
52.0065
 30
0.0000
  0
VERTEX
  8
21
 10
-57.0230
 20
52.0065
 30
0.0000
 42
1.0000
  0
VERTEX
  8
21
 10
-57.0230
 20
51.8795
 30
0.0000
  0
VERTEX
  8
21
 10
-53.7210
 20
51.8795
 30
0.0000
 42
1.0000
  0
SEQEND
  8
0
  0
POLYLINE
  8
21
 66
1
 10
0.0000
 20
0.0000
 30
0.0000
 40
0.0000
 41
0.0000
 70
1
  0
VERTEX
  8
21
 10
-19.8755
 20
21.9710
 30
0.0000
  0
VERTEX
  8
21
 10
-19.8755
 20
23.7490
 30
0.0000
 42
1.0000
  0
VERTEX
  8
21
 10
-20.0025
 20
23.7490
 30
0.0000
  0
VERTEX
  8
21
 10
-20.0025
 20
21.9710
 30
0.0000
 42
1.0000
  0
SEQEND
  8
0
  0
POLYLINE
  8
21
 66
1
 10
0.0000
 20
0.0000
 30
0.0000
 40
0.0000
 41
0.0000
 70
1
  0
VERTEX
  8
21
 10
-19.9390
 20
23.6855
 30
0.0000
  0
VERTEX
  8
21
 10
-16.6370
 20
23.6855
 30
0.0000
 42
1.0000
  0
VERTEX
  8
21
 10
-16.6370
 20
23.8125
 30
0.0000
  0
VERTEX
  8
21
 10
-19.9390
 20
23.8125
 30
0.0000
 42
1.0000
  0
SEQEND
  8
0
  0
POLYLINE
  8
21
 66
1
 10
0.0000
 20
0.0000
 30
0.0000
 40
0.0000
 41
0.0000
 70
1
  0
VERTEX
  8
21
 10
-16.7005
 20
23.7490
 30
0.0000
  0
VERTEX
  8
21
 10
-16.7005
 20
21.9710
 30
0.0000
 42
1.0000
  0
VERTEX
  8
21
 10
-16.5735
 20
21.9710
 30
0.0000
  0
VERTEX
  8
21
 10
-16.5735
 20
23.7490
 30
0.0000
 42
1.0000
  0
SEQEND
  8
0
  0
POLYLINE
  8
21
 66
1
 10
0.0000
 20
0.0000
 30
0.0000
 40
0.0000
 41
0.0000
 70
1
  0
VERTEX
  8
21
 10
-16.6370
 20
22.0345
 30
0.0000
  0
VERTEX
  8
21
 10
-19.9390
 20
22.0345
 30
0.0000
 42
1.0000
  0
VERTEX
  8
21
 10
-19.9390
 20
21.9075
 30
0.0000
  0
VERTEX
  8
21
 10
-16.6370
 20
21.9075
 30
0.0000
 42
1.0000
  0
SEQEND
  8
0
  0
POLYLINE
  8
21
 66
1
 10
0.0000
 20
0.0000
 30
0.0000
 40
0.0000
 41
0.0000
 70
1
  0
VERTEX
  8
21
 10
-20.9137
 20
46.0222
 30
0.0000
  0
VERTEX
  8
21
 10
-21.8027
 20
46.7842
 30
0.0000
 42
1.0000
  0
VERTEX
  8
21
 10
-21.8853
 20
46.6878
 30
0.0000
  0
VERTEX
  8
21
 10
-20.9963
 20
45.9258
 30
0.0000
 42
1.0000
  0
SEQEND
  8
0
  0
POLYLINE
  8
21
 66
1
 10
0.0000
 20
0.0000
 30
0.0000
 40
0.0000
 41
0.0000
 70
1
  0
VERTEX
  8
21
 10
-21.8027
 20
46.6878
 30
0.0000
  0
VERTEX
  8
21
 10
-20.9137
 20
47.4498
 30
0.0000
 42
1.0000
  0
VERTEX
  8
21
 10
-20.9963
 20
47.5462
 30
0.0000
  0
VERTEX
  8
21
 10
-21.8853
 20
46.7842
 30
0.0000
 42
1.0000
  0
SEQEND
  8
0
  0
POLYLINE
  8
21
 66
1
 10
0.0000
 20
0.0000
 30
0.0000
 40
0.0000
 41
0.0000
 70
1
  0
VERTEX
  8
21
 10
-21.0185
 20
47.4980
 30
0.0000
  0
VERTEX
  8
21
 10
-21.0185
 20
45.9740
 30
0.0000
 42
1.0000
  0
VERTEX
  8
21
 10
-20.8915
 20
45.9740
 30
0.0000
  0
VERTEX
  8
21
 10
-20.8915
 20
47.4980
 30
0.0000
 42
1.0000
  0
SEQEND
  8
0
  0
POLYLINE
  8
21
 66
1
 10
0.0000
 20
0.0000
 30
0.0000
 40
0.0000
 41
0.0000
 70
1
  0
VERTEX
  8
21
 10
-20.9550
 20
47.4345
 30
0.0000
  0
VERTEX
  8
21
 10
-21.1032
 20
47.4345
 30
0.0000
 42
1.0000
  0
VERTEX
  8
21
 10
-21.1032
 20
47.3075
 30
0.0000
  0
VERTEX
  8
21
 10
-20.9550
 20
47.3075
 30
0.0000
 42
1.0000
  0
SEQEND
  8
0
  0
POLYLINE
  8
21
 66
1
 10
0.0000
 20
0.0000
 30
0.0000
 40
0.0000
 41
0.0000
 70
1
  0
VERTEX
  8
21
 10
-20.9550
 20
47.3075
 30
0.0000
  0
VERTEX
  8
21
 10
-21.2513
 20
47.3075
 30
0.0000
 42
1.0000
  0
VERTEX
  8
21
 10
-21.2513
 20
47.1805
 30
0.0000
  0
VERTEX
  8
21
 10
-20.9550
 20
47.1805
 30
0.0000
 42
1.0000
  0
SEQEND
  8
0
  0
POLYLINE
  8
21
 66
1
 10
0.0000
 20
0.0000
 30
0.0000
 40
0.0000
 41
0.0000
 70
1
  0
VERTEX
  8
21
 10
-20.9550
 20
47.1805
 30
0.0000
  0
VERTEX
  8
21
 10
-21.3995
 20
47.1805
 30
0.0000
 42
1.0000
  0
VERTEX
  8
21
 10
-21.3995
 20
47.0535
 30
0.0000
  0
VERTEX
  8
21
 10
-20.9550
 20
47.0535
 30
0.0000
 42
1.0000
  0
SEQEND
  8
0
  0
POLYLINE
  8
21
 66
1
 10
0.0000
 20
0.0000
 30
0.0000
 40
0.0000
 41
0.0000
 70
1
  0
VERTEX
  8
21
 10
-20.9550
 20
47.0535
 30
0.0000
  0
VERTEX
  8
21
 10
-21.5477
 20
47.0535
 30
0.0000
 42
1.0000
  0
VERTEX
  8
21
 10
-21.5477
 20
46.9265
 30
0.0000
  0
VERTEX
  8
21
 10
-20.9550
 20
46.9265
 30
0.0000
 42
1.0000
  0
SEQEND
  8
0
  0
POLYLINE
  8
21
 66
1
 10
0.0000
 20
0.0000
 30
0.0000
 40
0.0000
 41
0.0000
 70
1
  0
VERTEX
  8
21
 10
-20.9550
 20
46.9265
 30
0.0000
  0
VERTEX
  8
21
 10
-21.6958
 20
46.9265
 30
0.0000
 42
1.0000
  0
VERTEX
  8
21
 10
-21.6958
 20
46.7995
 30
0.0000
  0
VERTEX
  8
21
 10
-20.9550
 20
46.7995
 30
0.0000
 42
1.0000
  0
SEQEND
  8
0
  0
POLYLINE
  8
21
 66
1
 10
0.0000
 20
0.0000
 30
0.0000
 40
0.0000
 41
0.0000
 70
1
  0
VERTEX
  8
21
 10
-20.9550
 20
46.7995
 30
0.0000
  0
VERTEX
  8
21
 10
-21.8440
 20
46.7995
 30
0.0000
 42
1.0000
  0
VERTEX
  8
21
 10
-21.8440
 20
46.6725
 30
0.0000
  0
VERTEX
  8
21
 10
-20.9550
 20
46.6725
 30
0.0000
 42
1.0000
  0
SEQEND
  8
0
  0
POLYLINE
  8
21
 66
1
 10
0.0000
 20
0.0000
 30
0.0000
 40
0.0000
 41
0.0000
 70
1
  0
VERTEX
  8
21
 10
-20.9550
 20
46.6725
 30
0.0000
  0
VERTEX
  8
21
 10
-21.6958
 20
46.6725
 30
0.0000
 42
1.0000
  0
VERTEX
  8
21
 10
-21.6958
 20
46.5455
 30
0.0000
  0
VERTEX
  8
21
 10
-20.9550
 20
46.5455
 30
0.0000
 42
1.0000
  0
SEQEND
  8
0
  0
POLYLINE
  8
21
 66
1
 10
0.0000
 20
0.0000
 30
0.0000
 40
0.0000
 41
0.0000
 70
1
  0
VERTEX
  8
21
 10
-20.9550
 20
46.5455
 30
0.0000
  0
VERTEX
  8
21
 10
-21.5477
 20
46.5455
 30
0.0000
 42
1.0000
  0
VERTEX
  8
21
 10
-21.5477
 20
46.4185
 30
0.0000
  0
VERTEX
  8
21
 10
-20.9550
 20
46.4185
 30
0.0000
 42
1.0000
  0
SEQEND
  8
0
  0
POLYLINE
  8
21
 66
1
 10
0.0000
 20
0.0000
 30
0.0000
 40
0.0000
 41
0.0000
 70
1
  0
VERTEX
  8
21
 10
-20.9550
 20
46.4185
 30
0.0000
  0
VERTEX
  8
21
 10
-21.3995
 20
46.4185
 30
0.0000
 42
1.0000
  0
VERTEX
  8
21
 10
-21.3995
 20
46.2915
 30
0.0000
  0
VERTEX
  8
21
 10
-20.9550
 20
46.2915
 30
0.0000
 42
1.0000
  0
SEQEND
  8
0
  0
POLYLINE
  8
21
 66
1
 10
0.0000
 20
0.0000
 30
0.0000
 40
0.0000
 41
0.0000
 70
1
  0
VERTEX
  8
21
 10
-20.9550
 20
46.2915
 30
0.0000
  0
VERTEX
  8
21
 10
-21.2513
 20
46.2915
 30
0.0000
 42
1.0000
  0
VERTEX
  8
21
 10
-21.2513
 20
46.1645
 30
0.0000
  0
VERTEX
  8
21
 10
-20.9550
 20
46.1645
 30
0.0000
 42
1.0000
  0
SEQEND
  8
0
  0
POLYLINE
  8
21
 66
1
 10
0.0000
 20
0.0000
 30
0.0000
 40
0.0000
 41
0.0000
 70
1
  0
VERTEX
  8
21
 10
-20.9550
 20
46.1645
 30
0.0000
  0
VERTEX
  8
21
 10
-21.1032
 20
46.1645
 30
0.0000
 42
1.0000
  0
VERTEX
  8
21
 10
-21.1032
 20
46.0375
 30
0.0000
  0
VERTEX
  8
21
 10
-20.9550
 20
46.0375
 30
0.0000
 42
1.0000
  0
SEQEND
  8
0
  0
POLYLINE
  8
21
 66
1
 10
0.0000
 20
0.0000
 30
0.0000
 40
0.0000
 41
0.0000
 70
1
  0
VERTEX
  8
21
 10
-19.1910
 20
45.4495
 30
0.0000
  0
VERTEX
  8
21
 10
-23.4810
 20
45.4495
 30
0.0000
 42
1.0000
  0
VERTEX
  8
21
 10
-23.4810
 20
45.3225
 30
0.0000
  0
VERTEX
  8
21
 10
-19.1910
 20
45.3225
 30
0.0000
 42
1.0000
  0
SEQEND
  8
0
  0
POLYLINE
  8
21
 66
1
 10
0.0000
 20
0.0000
 30
0.0000
 40
0.0000
 41
0.0000
 70
1
  0
VERTEX
  8
21
 10
-23.4810
 20
48.0225
 30
0.0000
  0
VERTEX
  8
21
 10
-19.1910
 20
48.0225
 30
0.0000
 42
1.0000
  0
VERTEX
  8
21
 10
-19.1910
 20
48.1495
 30
0.0000
  0
VERTEX
  8
21
 10
-23.4810
 20
48.1495
 30
0.0000
 42
1.0000
  0
SEQEND
  8
0
  0
POLYLINE
  8
21
 66
1
 10
0.0000
 20
0.0000
 30
0.0000
 40
0.0000
 41
0.0000
 70
1
  0
VERTEX
  8
21
 10
-23.4225
 20
45.4360
 30
0.0000
  0
VERTEX
  8
21
 10
-23.4225
 20
45.7360
 30
0.0000
 42
1.0000
  0
VERTEX
  8
21
 10
-23.5495
 20
45.7360
 30
0.0000
  0
VERTEX
  8
21
 10
-23.5495
 20
45.4360
 30
0.0000
 42
1.0000
  0
SEQEND
  8
0
  0
POLYLINE
  8
21
 66
1
 10
0.0000
 20
0.0000
 30
0.0000
 40
0.0000
 41
0.0000
 70
1
  0
VERTEX
  8
21
 10
-23.5495
 20
48.0360
 30
0.0000
  0
VERTEX
  8
21
 10
-23.5495
 20
47.7360
 30
0.0000
 42
1.0000
  0
VERTEX
  8
21
 10
-23.4225
 20
47.7360
 30
0.0000
  0
VERTEX
  8
21
 10
-23.4225
 20
48.0360
 30
0.0000
 42
1.0000
  0
SEQEND
  8
0
  0
POLYLINE
  8
21
 66
1
 10
0.0000
 20
0.0000
 30
0.0000
 40
0.0000
 41
0.0000
 70
1
  0
VERTEX
  8
21
 10
-19.2495
 20
48.0360
 30
0.0000
  0
VERTEX
  8
21
 10
-19.2495
 20
47.7360
 30
0.0000
 42
1.0000
  0
VERTEX
  8
21
 10
-19.1225
 20
47.7360
 30
0.0000
  0
VERTEX
  8
21
 10
-19.1225
 20
48.0360
 30
0.0000
 42
1.0000
  0
SEQEND
  8
0
  0
POLYLINE
  8
21
 66
1
 10
0.0000
 20
0.0000
 30
0.0000
 40
0.0000
 41
0.0000
 70
1
  0
VERTEX
  8
21
 10
-19.1225
 20
45.4360
 30
0.0000
  0
VERTEX
  8
21
 10
-19.1225
 20
45.7360
 30
0.0000
 42
1.0000
  0
VERTEX
  8
21
 10
-19.2495
 20
45.7360
 30
0.0000
  0
VERTEX
  8
21
 10
-19.2495
 20
45.4360
 30
0.0000
 42
1.0000
  0
SEQEND
  8
0
  0
POLYLINE
  8
21
 66
1
 10
0.0000
 20
0.0000
 30
0.0000
 40
0.0000
 41
0.0000
 70
1
  0
VERTEX
  8
21
 10
-21.8725
 20
45.9360
 30
0.0000
  0
VERTEX
  8
21
 10
-21.8725
 20
47.5360
 30
0.0000
 42
1.0000
  0
VERTEX
  8
21
 10
-21.9995
 20
47.5360
 30
0.0000
  0
VERTEX
  8
21
 10
-21.9995
 20
45.9360
 30
0.0000
 42
1.0000
  0
SEQEND
  8
0
  0
POLYLINE
  8
21
 66
1
 10
0.0000
 20
0.0000
 30
0.0000
 40
0.0000
 41
0.0000
 70
1
  0
VERTEX
  8
21
 10
-20.9137
 20
41.9582
 30
0.0000
  0
VERTEX
  8
21
 10
-21.8027
 20
42.7202
 30
0.0000
 42
1.0000
  0
VERTEX
  8
21
 10
-21.8853
 20
42.6238
 30
0.0000
  0
VERTEX
  8
21
 10
-20.9963
 20
41.8618
 30
0.0000
 42
1.0000
  0
SEQEND
  8
0
  0
POLYLINE
  8
21
 66
1
 10
0.0000
 20
0.0000
 30
0.0000
 40
0.0000
 41
0.0000
 70
1
  0
VERTEX
  8
21
 10
-21.8027
 20
42.6238
 30
0.0000
  0
VERTEX
  8
21
 10
-20.9137
 20
43.3858
 30
0.0000
 42
1.0000
  0
VERTEX
  8
21
 10
-20.9963
 20
43.4822
 30
0.0000
  0
VERTEX
  8
21
 10
-21.8853
 20
42.7202
 30
0.0000
 42
1.0000
  0
SEQEND
  8
0
  0
POLYLINE
  8
21
 66
1
 10
0.0000
 20
0.0000
 30
0.0000
 40
0.0000
 41
0.0000
 70
1
  0
VERTEX
  8
21
 10
-21.0185
 20
43.4340
 30
0.0000
  0
VERTEX
  8
21
 10
-21.0185
 20
41.9100
 30
0.0000
 42
1.0000
  0
VERTEX
  8
21
 10
-20.8915
 20
41.9100
 30
0.0000
  0
VERTEX
  8
21
 10
-20.8915
 20
43.4340
 30
0.0000
 42
1.0000
  0
SEQEND
  8
0
  0
POLYLINE
  8
21
 66
1
 10
0.0000
 20
0.0000
 30
0.0000
 40
0.0000
 41
0.0000
 70
1
  0
VERTEX
  8
21
 10
-20.9550
 20
43.3705
 30
0.0000
  0
VERTEX
  8
21
 10
-21.1032
 20
43.3705
 30
0.0000
 42
1.0000
  0
VERTEX
  8
21
 10
-21.1032
 20
43.2435
 30
0.0000
  0
VERTEX
  8
21
 10
-20.9550
 20
43.2435
 30
0.0000
 42
1.0000
  0
SEQEND
  8
0
  0
POLYLINE
  8
21
 66
1
 10
0.0000
 20
0.0000
 30
0.0000
 40
0.0000
 41
0.0000
 70
1
  0
VERTEX
  8
21
 10
-20.9550
 20
43.2435
 30
0.0000
  0
VERTEX
  8
21
 10
-21.2513
 20
43.2435
 30
0.0000
 42
1.0000
  0
VERTEX
  8
21
 10
-21.2513
 20
43.1165
 30
0.0000
  0
VERTEX
  8
21
 10
-20.9550
 20
43.1165
 30
0.0000
 42
1.0000
  0
SEQEND
  8
0
  0
POLYLINE
  8
21
 66
1
 10
0.0000
 20
0.0000
 30
0.0000
 40
0.0000
 41
0.0000
 70
1
  0
VERTEX
  8
21
 10
-20.9550
 20
43.1165
 30
0.0000
  0
VERTEX
  8
21
 10
-21.3995
 20
43.1165
 30
0.0000
 42
1.0000
  0
VERTEX
  8
21
 10
-21.3995
 20
42.9895
 30
0.0000
  0
VERTEX
  8
21
 10
-20.9550
 20
42.9895
 30
0.0000
 42
1.0000
  0
SEQEND
  8
0
  0
POLYLINE
  8
21
 66
1
 10
0.0000
 20
0.0000
 30
0.0000
 40
0.0000
 41
0.0000
 70
1
  0
VERTEX
  8
21
 10
-20.9550
 20
42.9895
 30
0.0000
  0
VERTEX
  8
21
 10
-21.5477
 20
42.9895
 30
0.0000
 42
1.0000
  0
VERTEX
  8
21
 10
-21.5477
 20
42.8625
 30
0.0000
  0
VERTEX
  8
21
 10
-20.9550
 20
42.8625
 30
0.0000
 42
1.0000
  0
SEQEND
  8
0
  0
POLYLINE
  8
21
 66
1
 10
0.0000
 20
0.0000
 30
0.0000
 40
0.0000
 41
0.0000
 70
1
  0
VERTEX
  8
21
 10
-20.9550
 20
42.8625
 30
0.0000
  0
VERTEX
  8
21
 10
-21.6958
 20
42.8625
 30
0.0000
 42
1.0000
  0
VERTEX
  8
21
 10
-21.6958
 20
42.7355
 30
0.0000
  0
VERTEX
  8
21
 10
-20.9550
 20
42.7355
 30
0.0000
 42
1.0000
  0
SEQEND
  8
0
  0
POLYLINE
  8
21
 66
1
 10
0.0000
 20
0.0000
 30
0.0000
 40
0.0000
 41
0.0000
 70
1
  0
VERTEX
  8
21
 10
-20.9550
 20
42.7355
 30
0.0000
  0
VERTEX
  8
21
 10
-21.8440
 20
42.7355
 30
0.0000
 42
1.0000
  0
VERTEX
  8
21
 10
-21.8440
 20
42.6085
 30
0.0000
  0
VERTEX
  8
21
 10
-20.9550
 20
42.6085
 30
0.0000
 42
1.0000
  0
SEQEND
  8
0
  0
POLYLINE
  8
21
 66
1
 10
0.0000
 20
0.0000
 30
0.0000
 40
0.0000
 41
0.0000
 70
1
  0
VERTEX
  8
21
 10
-20.9550
 20
42.6085
 30
0.0000
  0
VERTEX
  8
21
 10
-21.6958
 20
42.6085
 30
0.0000
 42
1.0000
  0
VERTEX
  8
21
 10
-21.6958
 20
42.4815
 30
0.0000
  0
VERTEX
  8
21
 10
-20.9550
 20
42.4815
 30
0.0000
 42
1.0000
  0
SEQEND
  8
0
  0
POLYLINE
  8
21
 66
1
 10
0.0000
 20
0.0000
 30
0.0000
 40
0.0000
 41
0.0000
 70
1
  0
VERTEX
  8
21
 10
-20.9550
 20
42.4815
 30
0.0000
  0
VERTEX
  8
21
 10
-21.5477
 20
42.4815
 30
0.0000
 42
1.0000
  0
VERTEX
  8
21
 10
-21.5477
 20
42.3545
 30
0.0000
  0
VERTEX
  8
21
 10
-20.9550
 20
42.3545
 30
0.0000
 42
1.0000
  0
SEQEND
  8
0
  0
POLYLINE
  8
21
 66
1
 10
0.0000
 20
0.0000
 30
0.0000
 40
0.0000
 41
0.0000
 70
1
  0
VERTEX
  8
21
 10
-20.9550
 20
42.3545
 30
0.0000
  0
VERTEX
  8
21
 10
-21.3995
 20
42.3545
 30
0.0000
 42
1.0000
  0
VERTEX
  8
21
 10
-21.3995
 20
42.2275
 30
0.0000
  0
VERTEX
  8
21
 10
-20.9550
 20
42.2275
 30
0.0000
 42
1.0000
  0
SEQEND
  8
0
  0
POLYLINE
  8
21
 66
1
 10
0.0000
 20
0.0000
 30
0.0000
 40
0.0000
 41
0.0000
 70
1
  0
VERTEX
  8
21
 10
-20.9550
 20
42.2275
 30
0.0000
  0
VERTEX
  8
21
 10
-21.2513
 20
42.2275
 30
0.0000
 42
1.0000
  0
VERTEX
  8
21
 10
-21.2513
 20
42.1005
 30
0.0000
  0
VERTEX
  8
21
 10
-20.9550
 20
42.1005
 30
0.0000
 42
1.0000
  0
SEQEND
  8
0
  0
POLYLINE
  8
21
 66
1
 10
0.0000
 20
0.0000
 30
0.0000
 40
0.0000
 41
0.0000
 70
1
  0
VERTEX
  8
21
 10
-20.9550
 20
42.1005
 30
0.0000
  0
VERTEX
  8
21
 10
-21.1032
 20
42.1005
 30
0.0000
 42
1.0000
  0
VERTEX
  8
21
 10
-21.1032
 20
41.9735
 30
0.0000
  0
VERTEX
  8
21
 10
-20.9550
 20
41.9735
 30
0.0000
 42
1.0000
  0
SEQEND
  8
0
  0
POLYLINE
  8
21
 66
1
 10
0.0000
 20
0.0000
 30
0.0000
 40
0.0000
 41
0.0000
 70
1
  0
VERTEX
  8
21
 10
-19.1910
 20
41.3855
 30
0.0000
  0
VERTEX
  8
21
 10
-23.4810
 20
41.3855
 30
0.0000
 42
1.0000
  0
VERTEX
  8
21
 10
-23.4810
 20
41.2585
 30
0.0000
  0
VERTEX
  8
21
 10
-19.1910
 20
41.2585
 30
0.0000
 42
1.0000
  0
SEQEND
  8
0
  0
POLYLINE
  8
21
 66
1
 10
0.0000
 20
0.0000
 30
0.0000
 40
0.0000
 41
0.0000
 70
1
  0
VERTEX
  8
21
 10
-23.4810
 20
43.9585
 30
0.0000
  0
VERTEX
  8
21
 10
-19.1910
 20
43.9585
 30
0.0000
 42
1.0000
  0
VERTEX
  8
21
 10
-19.1910
 20
44.0855
 30
0.0000
  0
VERTEX
  8
21
 10
-23.4810
 20
44.0855
 30
0.0000
 42
1.0000
  0
SEQEND
  8
0
  0
POLYLINE
  8
21
 66
1
 10
0.0000
 20
0.0000
 30
0.0000
 40
0.0000
 41
0.0000
 70
1
  0
VERTEX
  8
21
 10
-23.4225
 20
41.3720
 30
0.0000
  0
VERTEX
  8
21
 10
-23.4225
 20
41.6720
 30
0.0000
 42
1.0000
  0
VERTEX
  8
21
 10
-23.5495
 20
41.6720
 30
0.0000
  0
VERTEX
  8
21
 10
-23.5495
 20
41.3720
 30
0.0000
 42
1.0000
  0
SEQEND
  8
0
  0
POLYLINE
  8
21
 66
1
 10
0.0000
 20
0.0000
 30
0.0000
 40
0.0000
 41
0.0000
 70
1
  0
VERTEX
  8
21
 10
-23.5495
 20
43.9720
 30
0.0000
  0
VERTEX
  8
21
 10
-23.5495
 20
43.6720
 30
0.0000
 42
1.0000
  0
VERTEX
  8
21
 10
-23.4225
 20
43.6720
 30
0.0000
  0
VERTEX
  8
21
 10
-23.4225
 20
43.9720
 30
0.0000
 42
1.0000
  0
SEQEND
  8
0
  0
POLYLINE
  8
21
 66
1
 10
0.0000
 20
0.0000
 30
0.0000
 40
0.0000
 41
0.0000
 70
1
  0
VERTEX
  8
21
 10
-19.2495
 20
43.9720
 30
0.0000
  0
VERTEX
  8
21
 10
-19.2495
 20
43.6720
 30
0.0000
 42
1.0000
  0
VERTEX
  8
21
 10
-19.1225
 20
43.6720
 30
0.0000
  0
VERTEX
  8
21
 10
-19.1225
 20
43.9720
 30
0.0000
 42
1.0000
  0
SEQEND
  8
0
  0
POLYLINE
  8
21
 66
1
 10
0.0000
 20
0.0000
 30
0.0000
 40
0.0000
 41
0.0000
 70
1
  0
VERTEX
  8
21
 10
-19.1225
 20
41.3720
 30
0.0000
  0
VERTEX
  8
21
 10
-19.1225
 20
41.6720
 30
0.0000
 42
1.0000
  0
VERTEX
  8
21
 10
-19.2495
 20
41.6720
 30
0.0000
  0
VERTEX
  8
21
 10
-19.2495
 20
41.3720
 30
0.0000
 42
1.0000
  0
SEQEND
  8
0
  0
POLYLINE
  8
21
 66
1
 10
0.0000
 20
0.0000
 30
0.0000
 40
0.0000
 41
0.0000
 70
1
  0
VERTEX
  8
21
 10
-21.8725
 20
41.8720
 30
0.0000
  0
VERTEX
  8
21
 10
-21.8725
 20
43.4720
 30
0.0000
 42
1.0000
  0
VERTEX
  8
21
 10
-21.9995
 20
43.4720
 30
0.0000
  0
VERTEX
  8
21
 10
-21.9995
 20
41.8720
 30
0.0000
 42
1.0000
  0
SEQEND
  8
0
  0
POLYLINE
  8
21
 66
1
 10
0.0000
 20
0.0000
 30
0.0000
 40
0.0000
 41
0.0000
 70
1
  0
VERTEX
  8
21
 10
-30.0577
 20
37.3862
 30
0.0000
  0
VERTEX
  8
21
 10
-30.9467
 20
38.1482
 30
0.0000
 42
1.0000
  0
VERTEX
  8
21
 10
-31.0293
 20
38.0518
 30
0.0000
  0
VERTEX
  8
21
 10
-30.1403
 20
37.2898
 30
0.0000
 42
1.0000
  0
SEQEND
  8
0
  0
POLYLINE
  8
21
 66
1
 10
0.0000
 20
0.0000
 30
0.0000
 40
0.0000
 41
0.0000
 70
1
  0
VERTEX
  8
21
 10
-30.9467
 20
38.0518
 30
0.0000
  0
VERTEX
  8
21
 10
-30.0577
 20
38.8138
 30
0.0000
 42
1.0000
  0
VERTEX
  8
21
 10
-30.1403
 20
38.9102
 30
0.0000
  0
VERTEX
  8
21
 10
-31.0293
 20
38.1482
 30
0.0000
 42
1.0000
  0
SEQEND
  8
0
  0
POLYLINE
  8
21
 66
1
 10
0.0000
 20
0.0000
 30
0.0000
 40
0.0000
 41
0.0000
 70
1
  0
VERTEX
  8
21
 10
-30.1625
 20
38.8620
 30
0.0000
  0
VERTEX
  8
21
 10
-30.1625
 20
37.3380
 30
0.0000
 42
1.0000
  0
VERTEX
  8
21
 10
-30.0355
 20
37.3380
 30
0.0000
  0
VERTEX
  8
21
 10
-30.0355
 20
38.8620
 30
0.0000
 42
1.0000
  0
SEQEND
  8
0
  0
POLYLINE
  8
21
 66
1
 10
0.0000
 20
0.0000
 30
0.0000
 40
0.0000
 41
0.0000
 70
1
  0
VERTEX
  8
21
 10
-30.0990
 20
38.7985
 30
0.0000
  0
VERTEX
  8
21
 10
-30.2472
 20
38.7985
 30
0.0000
 42
1.0000
  0
VERTEX
  8
21
 10
-30.2472
 20
38.6715
 30
0.0000
  0
VERTEX
  8
21
 10
-30.0990
 20
38.6715
 30
0.0000
 42
1.0000
  0
SEQEND
  8
0
  0
POLYLINE
  8
21
 66
1
 10
0.0000
 20
0.0000
 30
0.0000
 40
0.0000
 41
0.0000
 70
1
  0
VERTEX
  8
21
 10
-30.0990
 20
38.6715
 30
0.0000
  0
VERTEX
  8
21
 10
-30.3953
 20
38.6715
 30
0.0000
 42
1.0000
  0
VERTEX
  8
21
 10
-30.3953
 20
38.5445
 30
0.0000
  0
VERTEX
  8
21
 10
-30.0990
 20
38.5445
 30
0.0000
 42
1.0000
  0
SEQEND
  8
0
  0
POLYLINE
  8
21
 66
1
 10
0.0000
 20
0.0000
 30
0.0000
 40
0.0000
 41
0.0000
 70
1
  0
VERTEX
  8
21
 10
-30.0990
 20
38.5445
 30
0.0000
  0
VERTEX
  8
21
 10
-30.5435
 20
38.5445
 30
0.0000
 42
1.0000
  0
VERTEX
  8
21
 10
-30.5435
 20
38.4175
 30
0.0000
  0
VERTEX
  8
21
 10
-30.0990
 20
38.4175
 30
0.0000
 42
1.0000
  0
SEQEND
  8
0
  0
POLYLINE
  8
21
 66
1
 10
0.0000
 20
0.0000
 30
0.0000
 40
0.0000
 41
0.0000
 70
1
  0
VERTEX
  8
21
 10
-30.0990
 20
38.4175
 30
0.0000
  0
VERTEX
  8
21
 10
-30.6917
 20
38.4175
 30
0.0000
 42
1.0000
  0
VERTEX
  8
21
 10
-30.6917
 20
38.2905
 30
0.0000
  0
VERTEX
  8
21
 10
-30.0990
 20
38.2905
 30
0.0000
 42
1.0000
  0
SEQEND
  8
0
  0
POLYLINE
  8
21
 66
1
 10
0.0000
 20
0.0000
 30
0.0000
 40
0.0000
 41
0.0000
 70
1
  0
VERTEX
  8
21
 10
-30.0990
 20
38.2905
 30
0.0000
  0
VERTEX
  8
21
 10
-30.8398
 20
38.2905
 30
0.0000
 42
1.0000
  0
VERTEX
  8
21
 10
-30.8398
 20
38.1635
 30
0.0000
  0
VERTEX
  8
21
 10
-30.0990
 20
38.1635
 30
0.0000
 42
1.0000
  0
SEQEND
  8
0
  0
POLYLINE
  8
21
 66
1
 10
0.0000
 20
0.0000
 30
0.0000
 40
0.0000
 41
0.0000
 70
1
  0
VERTEX
  8
21
 10
-30.0990
 20
38.1635
 30
0.0000
  0
VERTEX
  8
21
 10
-30.9880
 20
38.1635
 30
0.0000
 42
1.0000
  0
VERTEX
  8
21
 10
-30.9880
 20
38.0365
 30
0.0000
  0
VERTEX
  8
21
 10
-30.0990
 20
38.0365
 30
0.0000
 42
1.0000
  0
SEQEND
  8
0
  0
POLYLINE
  8
21
 66
1
 10
0.0000
 20
0.0000
 30
0.0000
 40
0.0000
 41
0.0000
 70
1
  0
VERTEX
  8
21
 10
-30.0990
 20
38.0365
 30
0.0000
  0
VERTEX
  8
21
 10
-30.8398
 20
38.0365
 30
0.0000
 42
1.0000
  0
VERTEX
  8
21
 10
-30.8398
 20
37.9095
 30
0.0000
  0
VERTEX
  8
21
 10
-30.0990
 20
37.9095
 30
0.0000
 42
1.0000
  0
SEQEND
  8
0
  0
POLYLINE
  8
21
 66
1
 10
0.0000
 20
0.0000
 30
0.0000
 40
0.0000
 41
0.0000
 70
1
  0
VERTEX
  8
21
 10
-30.0990
 20
37.9095
 30
0.0000
  0
VERTEX
  8
21
 10
-30.6917
 20
37.9095
 30
0.0000
 42
1.0000
  0
VERTEX
  8
21
 10
-30.6917
 20
37.7825
 30
0.0000
  0
VERTEX
  8
21
 10
-30.0990
 20
37.7825
 30
0.0000
 42
1.0000
  0
SEQEND
  8
0
  0
POLYLINE
  8
21
 66
1
 10
0.0000
 20
0.0000
 30
0.0000
 40
0.0000
 41
0.0000
 70
1
  0
VERTEX
  8
21
 10
-30.0990
 20
37.7825
 30
0.0000
  0
VERTEX
  8
21
 10
-30.5435
 20
37.7825
 30
0.0000
 42
1.0000
  0
VERTEX
  8
21
 10
-30.5435
 20
37.6555
 30
0.0000
  0
VERTEX
  8
21
 10
-30.0990
 20
37.6555
 30
0.0000
 42
1.0000
  0
SEQEND
  8
0
  0
POLYLINE
  8
21
 66
1
 10
0.0000
 20
0.0000
 30
0.0000
 40
0.0000
 41
0.0000
 70
1
  0
VERTEX
  8
21
 10
-30.0990
 20
37.6555
 30
0.0000
  0
VERTEX
  8
21
 10
-30.3953
 20
37.6555
 30
0.0000
 42
1.0000
  0
VERTEX
  8
21
 10
-30.3953
 20
37.5285
 30
0.0000
  0
VERTEX
  8
21
 10
-30.0990
 20
37.5285
 30
0.0000
 42
1.0000
  0
SEQEND
  8
0
  0
POLYLINE
  8
21
 66
1
 10
0.0000
 20
0.0000
 30
0.0000
 40
0.0000
 41
0.0000
 70
1
  0
VERTEX
  8
21
 10
-30.0990
 20
37.5285
 30
0.0000
  0
VERTEX
  8
21
 10
-30.2472
 20
37.5285
 30
0.0000
 42
1.0000
  0
VERTEX
  8
21
 10
-30.2472
 20
37.4015
 30
0.0000
  0
VERTEX
  8
21
 10
-30.0990
 20
37.4015
 30
0.0000
 42
1.0000
  0
SEQEND
  8
0
  0
POLYLINE
  8
21
 66
1
 10
0.0000
 20
0.0000
 30
0.0000
 40
0.0000
 41
0.0000
 70
1
  0
VERTEX
  8
21
 10
-28.3350
 20
36.8135
 30
0.0000
  0
VERTEX
  8
21
 10
-32.6250
 20
36.8135
 30
0.0000
 42
1.0000
  0
VERTEX
  8
21
 10
-32.6250
 20
36.6865
 30
0.0000
  0
VERTEX
  8
21
 10
-28.3350
 20
36.6865
 30
0.0000
 42
1.0000
  0
SEQEND
  8
0
  0
POLYLINE
  8
21
 66
1
 10
0.0000
 20
0.0000
 30
0.0000
 40
0.0000
 41
0.0000
 70
1
  0
VERTEX
  8
21
 10
-32.6250
 20
39.3865
 30
0.0000
  0
VERTEX
  8
21
 10
-28.3350
 20
39.3865
 30
0.0000
 42
1.0000
  0
VERTEX
  8
21
 10
-28.3350
 20
39.5135
 30
0.0000
  0
VERTEX
  8
21
 10
-32.6250
 20
39.5135
 30
0.0000
 42
1.0000
  0
SEQEND
  8
0
  0
POLYLINE
  8
21
 66
1
 10
0.0000
 20
0.0000
 30
0.0000
 40
0.0000
 41
0.0000
 70
1
  0
VERTEX
  8
21
 10
-32.5665
 20
36.8000
 30
0.0000
  0
VERTEX
  8
21
 10
-32.5665
 20
37.1000
 30
0.0000
 42
1.0000
  0
VERTEX
  8
21
 10
-32.6935
 20
37.1000
 30
0.0000
  0
VERTEX
  8
21
 10
-32.6935
 20
36.8000
 30
0.0000
 42
1.0000
  0
SEQEND
  8
0
  0
POLYLINE
  8
21
 66
1
 10
0.0000
 20
0.0000
 30
0.0000
 40
0.0000
 41
0.0000
 70
1
  0
VERTEX
  8
21
 10
-32.6935
 20
39.4000
 30
0.0000
  0
VERTEX
  8
21
 10
-32.6935
 20
39.1000
 30
0.0000
 42
1.0000
  0
VERTEX
  8
21
 10
-32.5665
 20
39.1000
 30
0.0000
  0
VERTEX
  8
21
 10
-32.5665
 20
39.4000
 30
0.0000
 42
1.0000
  0
SEQEND
  8
0
  0
POLYLINE
  8
21
 66
1
 10
0.0000
 20
0.0000
 30
0.0000
 40
0.0000
 41
0.0000
 70
1
  0
VERTEX
  8
21
 10
-28.3935
 20
39.4000
 30
0.0000
  0
VERTEX
  8
21
 10
-28.3935
 20
39.1000
 30
0.0000
 42
1.0000
  0
VERTEX
  8
21
 10
-28.2665
 20
39.1000
 30
0.0000
  0
VERTEX
  8
21
 10
-28.2665
 20
39.4000
 30
0.0000
 42
1.0000
  0
SEQEND
  8
0
  0
POLYLINE
  8
21
 66
1
 10
0.0000
 20
0.0000
 30
0.0000
 40
0.0000
 41
0.0000
 70
1
  0
VERTEX
  8
21
 10
-28.2665
 20
36.8000
 30
0.0000
  0
VERTEX
  8
21
 10
-28.2665
 20
37.1000
 30
0.0000
 42
1.0000
  0
VERTEX
  8
21
 10
-28.3935
 20
37.1000
 30
0.0000
  0
VERTEX
  8
21
 10
-28.3935
 20
36.8000
 30
0.0000
 42
1.0000
  0
SEQEND
  8
0
  0
POLYLINE
  8
21
 66
1
 10
0.0000
 20
0.0000
 30
0.0000
 40
0.0000
 41
0.0000
 70
1
  0
VERTEX
  8
21
 10
-31.0165
 20
37.3000
 30
0.0000
  0
VERTEX
  8
21
 10
-31.0165
 20
38.9000
 30
0.0000
 42
1.0000
  0
VERTEX
  8
21
 10
-31.1435
 20
38.9000
 30
0.0000
  0
VERTEX
  8
21
 10
-31.1435
 20
37.3000
 30
0.0000
 42
1.0000
  0
SEQEND
  8
0
  0
POLYLINE
  8
21
 66
1
 10
0.0000
 20
0.0000
 30
0.0000
 40
0.0000
 41
0.0000
 70
1
  0
VERTEX
  8
21
 10
-30.0577
 20
41.9582
 30
0.0000
  0
VERTEX
  8
21
 10
-30.9467
 20
42.7202
 30
0.0000
 42
1.0000
  0
VERTEX
  8
21
 10
-31.0293
 20
42.6238
 30
0.0000
  0
VERTEX
  8
21
 10
-30.1403
 20
41.8618
 30
0.0000
 42
1.0000
  0
SEQEND
  8
0
  0
POLYLINE
  8
21
 66
1
 10
0.0000
 20
0.0000
 30
0.0000
 40
0.0000
 41
0.0000
 70
1
  0
VERTEX
  8
21
 10
-30.9467
 20
42.6238
 30
0.0000
  0
VERTEX
  8
21
 10
-30.0577
 20
43.3858
 30
0.0000
 42
1.0000
  0
VERTEX
  8
21
 10
-30.1403
 20
43.4822
 30
0.0000
  0
VERTEX
  8
21
 10
-31.0293
 20
42.7202
 30
0.0000
 42
1.0000
  0
SEQEND
  8
0
  0
POLYLINE
  8
21
 66
1
 10
0.0000
 20
0.0000
 30
0.0000
 40
0.0000
 41
0.0000
 70
1
  0
VERTEX
  8
21
 10
-30.1625
 20
43.4340
 30
0.0000
  0
VERTEX
  8
21
 10
-30.1625
 20
41.9100
 30
0.0000
 42
1.0000
  0
VERTEX
  8
21
 10
-30.0355
 20
41.9100
 30
0.0000
  0
VERTEX
  8
21
 10
-30.0355
 20
43.4340
 30
0.0000
 42
1.0000
  0
SEQEND
  8
0
  0
POLYLINE
  8
21
 66
1
 10
0.0000
 20
0.0000
 30
0.0000
 40
0.0000
 41
0.0000
 70
1
  0
VERTEX
  8
21
 10
-30.0990
 20
43.3705
 30
0.0000
  0
VERTEX
  8
21
 10
-30.2472
 20
43.3705
 30
0.0000
 42
1.0000
  0
VERTEX
  8
21
 10
-30.2472
 20
43.2435
 30
0.0000
  0
VERTEX
  8
21
 10
-30.0990
 20
43.2435
 30
0.0000
 42
1.0000
  0
SEQEND
  8
0
  0
POLYLINE
  8
21
 66
1
 10
0.0000
 20
0.0000
 30
0.0000
 40
0.0000
 41
0.0000
 70
1
  0
VERTEX
  8
21
 10
-30.0990
 20
43.2435
 30
0.0000
  0
VERTEX
  8
21
 10
-30.3953
 20
43.2435
 30
0.0000
 42
1.0000
  0
VERTEX
  8
21
 10
-30.3953
 20
43.1165
 30
0.0000
  0
VERTEX
  8
21
 10
-30.0990
 20
43.1165
 30
0.0000
 42
1.0000
  0
SEQEND
  8
0
  0
POLYLINE
  8
21
 66
1
 10
0.0000
 20
0.0000
 30
0.0000
 40
0.0000
 41
0.0000
 70
1
  0
VERTEX
  8
21
 10
-30.0990
 20
43.1165
 30
0.0000
  0
VERTEX
  8
21
 10
-30.5435
 20
43.1165
 30
0.0000
 42
1.0000
  0
VERTEX
  8
21
 10
-30.5435
 20
42.9895
 30
0.0000
  0
VERTEX
  8
21
 10
-30.0990
 20
42.9895
 30
0.0000
 42
1.0000
  0
SEQEND
  8
0
  0
POLYLINE
  8
21
 66
1
 10
0.0000
 20
0.0000
 30
0.0000
 40
0.0000
 41
0.0000
 70
1
  0
VERTEX
  8
21
 10
-30.0990
 20
42.9895
 30
0.0000
  0
VERTEX
  8
21
 10
-30.6917
 20
42.9895
 30
0.0000
 42
1.0000
  0
VERTEX
  8
21
 10
-30.6917
 20
42.8625
 30
0.0000
  0
VERTEX
  8
21
 10
-30.0990
 20
42.8625
 30
0.0000
 42
1.0000
  0
SEQEND
  8
0
  0
POLYLINE
  8
21
 66
1
 10
0.0000
 20
0.0000
 30
0.0000
 40
0.0000
 41
0.0000
 70
1
  0
VERTEX
  8
21
 10
-30.0990
 20
42.8625
 30
0.0000
  0
VERTEX
  8
21
 10
-30.8398
 20
42.8625
 30
0.0000
 42
1.0000
  0
VERTEX
  8
21
 10
-30.8398
 20
42.7355
 30
0.0000
  0
VERTEX
  8
21
 10
-30.0990
 20
42.7355
 30
0.0000
 42
1.0000
  0
SEQEND
  8
0
  0
POLYLINE
  8
21
 66
1
 10
0.0000
 20
0.0000
 30
0.0000
 40
0.0000
 41
0.0000
 70
1
  0
VERTEX
  8
21
 10
-30.0990
 20
42.7355
 30
0.0000
  0
VERTEX
  8
21
 10
-30.9880
 20
42.7355
 30
0.0000
 42
1.0000
  0
VERTEX
  8
21
 10
-30.9880
 20
42.6085
 30
0.0000
  0
VERTEX
  8
21
 10
-30.0990
 20
42.6085
 30
0.0000
 42
1.0000
  0
SEQEND
  8
0
  0
POLYLINE
  8
21
 66
1
 10
0.0000
 20
0.0000
 30
0.0000
 40
0.0000
 41
0.0000
 70
1
  0
VERTEX
  8
21
 10
-30.0990
 20
42.6085
 30
0.0000
  0
VERTEX
  8
21
 10
-30.8398
 20
42.6085
 30
0.0000
 42
1.0000
  0
VERTEX
  8
21
 10
-30.8398
 20
42.4815
 30
0.0000
  0
VERTEX
  8
21
 10
-30.0990
 20
42.4815
 30
0.0000
 42
1.0000
  0
SEQEND
  8
0
  0
POLYLINE
  8
21
 66
1
 10
0.0000
 20
0.0000
 30
0.0000
 40
0.0000
 41
0.0000
 70
1
  0
VERTEX
  8
21
 10
-30.0990
 20
42.4815
 30
0.0000
  0
VERTEX
  8
21
 10
-30.6917
 20
42.4815
 30
0.0000
 42
1.0000
  0
VERTEX
  8
21
 10
-30.6917
 20
42.3545
 30
0.0000
  0
VERTEX
  8
21
 10
-30.0990
 20
42.3545
 30
0.0000
 42
1.0000
  0
SEQEND
  8
0
  0
POLYLINE
  8
21
 66
1
 10
0.0000
 20
0.0000
 30
0.0000
 40
0.0000
 41
0.0000
 70
1
  0
VERTEX
  8
21
 10
-30.0990
 20
42.3545
 30
0.0000
  0
VERTEX
  8
21
 10
-30.5435
 20
42.3545
 30
0.0000
 42
1.0000
  0
VERTEX
  8
21
 10
-30.5435
 20
42.2275
 30
0.0000
  0
VERTEX
  8
21
 10
-30.0990
 20
42.2275
 30
0.0000
 42
1.0000
  0
SEQEND
  8
0
  0
POLYLINE
  8
21
 66
1
 10
0.0000
 20
0.0000
 30
0.0000
 40
0.0000
 41
0.0000
 70
1
  0
VERTEX
  8
21
 10
-30.0990
 20
42.2275
 30
0.0000
  0
VERTEX
  8
21
 10
-30.3953
 20
42.2275
 30
0.0000
 42
1.0000
  0
VERTEX
  8
21
 10
-30.3953
 20
42.1005
 30
0.0000
  0
VERTEX
  8
21
 10
-30.0990
 20
42.1005
 30
0.0000
 42
1.0000
  0
SEQEND
  8
0
  0
POLYLINE
  8
21
 66
1
 10
0.0000
 20
0.0000
 30
0.0000
 40
0.0000
 41
0.0000
 70
1
  0
VERTEX
  8
21
 10
-30.0990
 20
42.1005
 30
0.0000
  0
VERTEX
  8
21
 10
-30.2472
 20
42.1005
 30
0.0000
 42
1.0000
  0
VERTEX
  8
21
 10
-30.2472
 20
41.9735
 30
0.0000
  0
VERTEX
  8
21
 10
-30.0990
 20
41.9735
 30
0.0000
 42
1.0000
  0
SEQEND
  8
0
  0
POLYLINE
  8
21
 66
1
 10
0.0000
 20
0.0000
 30
0.0000
 40
0.0000
 41
0.0000
 70
1
  0
VERTEX
  8
21
 10
-28.3350
 20
41.3855
 30
0.0000
  0
VERTEX
  8
21
 10
-32.6250
 20
41.3855
 30
0.0000
 42
1.0000
  0
VERTEX
  8
21
 10
-32.6250
 20
41.2585
 30
0.0000
  0
VERTEX
  8
21
 10
-28.3350
 20
41.2585
 30
0.0000
 42
1.0000
  0
SEQEND
  8
0
  0
POLYLINE
  8
21
 66
1
 10
0.0000
 20
0.0000
 30
0.0000
 40
0.0000
 41
0.0000
 70
1
  0
VERTEX
  8
21
 10
-32.6250
 20
43.9585
 30
0.0000
  0
VERTEX
  8
21
 10
-28.3350
 20
43.9585
 30
0.0000
 42
1.0000
  0
VERTEX
  8
21
 10
-28.3350
 20
44.0855
 30
0.0000
  0
VERTEX
  8
21
 10
-32.6250
 20
44.0855
 30
0.0000
 42
1.0000
  0
SEQEND
  8
0
  0
POLYLINE
  8
21
 66
1
 10
0.0000
 20
0.0000
 30
0.0000
 40
0.0000
 41
0.0000
 70
1
  0
VERTEX
  8
21
 10
-32.5665
 20
41.3720
 30
0.0000
  0
VERTEX
  8
21
 10
-32.5665
 20
41.6720
 30
0.0000
 42
1.0000
  0
VERTEX
  8
21
 10
-32.6935
 20
41.6720
 30
0.0000
  0
VERTEX
  8
21
 10
-32.6935
 20
41.3720
 30
0.0000
 42
1.0000
  0
SEQEND
  8
0
  0
POLYLINE
  8
21
 66
1
 10
0.0000
 20
0.0000
 30
0.0000
 40
0.0000
 41
0.0000
 70
1
  0
VERTEX
  8
21
 10
-32.6935
 20
43.9720
 30
0.0000
  0
VERTEX
  8
21
 10
-32.6935
 20
43.6720
 30
0.0000
 42
1.0000
  0
VERTEX
  8
21
 10
-32.5665
 20
43.6720
 30
0.0000
  0
VERTEX
  8
21
 10
-32.5665
 20
43.9720
 30
0.0000
 42
1.0000
  0
SEQEND
  8
0
  0
POLYLINE
  8
21
 66
1
 10
0.0000
 20
0.0000
 30
0.0000
 40
0.0000
 41
0.0000
 70
1
  0
VERTEX
  8
21
 10
-28.3935
 20
43.9720
 30
0.0000
  0
VERTEX
  8
21
 10
-28.3935
 20
43.6720
 30
0.0000
 42
1.0000
  0
VERTEX
  8
21
 10
-28.2665
 20
43.6720
 30
0.0000
  0
VERTEX
  8
21
 10
-28.2665
 20
43.9720
 30
0.0000
 42
1.0000
  0
SEQEND
  8
0
  0
POLYLINE
  8
21
 66
1
 10
0.0000
 20
0.0000
 30
0.0000
 40
0.0000
 41
0.0000
 70
1
  0
VERTEX
  8
21
 10
-28.2665
 20
41.3720
 30
0.0000
  0
VERTEX
  8
21
 10
-28.2665
 20
41.6720
 30
0.0000
 42
1.0000
  0
VERTEX
  8
21
 10
-28.3935
 20
41.6720
 30
0.0000
  0
VERTEX
  8
21
 10
-28.3935
 20
41.3720
 30
0.0000
 42
1.0000
  0
SEQEND
  8
0
  0
POLYLINE
  8
21
 66
1
 10
0.0000
 20
0.0000
 30
0.0000
 40
0.0000
 41
0.0000
 70
1
  0
VERTEX
  8
21
 10
-31.0165
 20
41.8720
 30
0.0000
  0
VERTEX
  8
21
 10
-31.0165
 20
43.4720
 30
0.0000
 42
1.0000
  0
VERTEX
  8
21
 10
-31.1435
 20
43.4720
 30
0.0000
  0
VERTEX
  8
21
 10
-31.1435
 20
41.8720
 30
0.0000
 42
1.0000
  0
SEQEND
  8
0
  0
POLYLINE
  8
21
 66
1
 10
0.0000
 20
0.0000
 30
0.0000
 40
0.0000
 41
0.0000
 70
1
  0
VERTEX
  8
21
 10
-30.0577
 20
46.0222
 30
0.0000
  0
VERTEX
  8
21
 10
-30.9467
 20
46.7842
 30
0.0000
 42
1.0000
  0
VERTEX
  8
21
 10
-31.0293
 20
46.6878
 30
0.0000
  0
VERTEX
  8
21
 10
-30.1403
 20
45.9258
 30
0.0000
 42
1.0000
  0
SEQEND
  8
0
  0
POLYLINE
  8
21
 66
1
 10
0.0000
 20
0.0000
 30
0.0000
 40
0.0000
 41
0.0000
 70
1
  0
VERTEX
  8
21
 10
-30.9467
 20
46.6878
 30
0.0000
  0
VERTEX
  8
21
 10
-30.0577
 20
47.4498
 30
0.0000
 42
1.0000
  0
VERTEX
  8
21
 10
-30.1403
 20
47.5462
 30
0.0000
  0
VERTEX
  8
21
 10
-31.0293
 20
46.7842
 30
0.0000
 42
1.0000
  0
SEQEND
  8
0
  0
POLYLINE
  8
21
 66
1
 10
0.0000
 20
0.0000
 30
0.0000
 40
0.0000
 41
0.0000
 70
1
  0
VERTEX
  8
21
 10
-30.1625
 20
47.4980
 30
0.0000
  0
VERTEX
  8
21
 10
-30.1625
 20
45.9740
 30
0.0000
 42
1.0000
  0
VERTEX
  8
21
 10
-30.0355
 20
45.9740
 30
0.0000
  0
VERTEX
  8
21
 10
-30.0355
 20
47.4980
 30
0.0000
 42
1.0000
  0
SEQEND
  8
0
  0
POLYLINE
  8
21
 66
1
 10
0.0000
 20
0.0000
 30
0.0000
 40
0.0000
 41
0.0000
 70
1
  0
VERTEX
  8
21
 10
-30.0990
 20
47.4345
 30
0.0000
  0
VERTEX
  8
21
 10
-30.2472
 20
47.4345
 30
0.0000
 42
1.0000
  0
VERTEX
  8
21
 10
-30.2472
 20
47.3075
 30
0.0000
  0
VERTEX
  8
21
 10
-30.0990
 20
47.3075
 30
0.0000
 42
1.0000
  0
SEQEND
  8
0
  0
POLYLINE
  8
21
 66
1
 10
0.0000
 20
0.0000
 30
0.0000
 40
0.0000
 41
0.0000
 70
1
  0
VERTEX
  8
21
 10
-30.0990
 20
47.3075
 30
0.0000
  0
VERTEX
  8
21
 10
-30.3953
 20
47.3075
 30
0.0000
 42
1.0000
  0
VERTEX
  8
21
 10
-30.3953
 20
47.1805
 30
0.0000
  0
VERTEX
  8
21
 10
-30.0990
 20
47.1805
 30
0.0000
 42
1.0000
  0
SEQEND
  8
0
  0
POLYLINE
  8
21
 66
1
 10
0.0000
 20
0.0000
 30
0.0000
 40
0.0000
 41
0.0000
 70
1
  0
VERTEX
  8
21
 10
-30.0990
 20
47.1805
 30
0.0000
  0
VERTEX
  8
21
 10
-30.5435
 20
47.1805
 30
0.0000
 42
1.0000
  0
VERTEX
  8
21
 10
-30.5435
 20
47.0535
 30
0.0000
  0
VERTEX
  8
21
 10
-30.0990
 20
47.0535
 30
0.0000
 42
1.0000
  0
SEQEND
  8
0
  0
POLYLINE
  8
21
 66
1
 10
0.0000
 20
0.0000
 30
0.0000
 40
0.0000
 41
0.0000
 70
1
  0
VERTEX
  8
21
 10
-30.0990
 20
47.0535
 30
0.0000
  0
VERTEX
  8
21
 10
-30.6917
 20
47.0535
 30
0.0000
 42
1.0000
  0
VERTEX
  8
21
 10
-30.6917
 20
46.9265
 30
0.0000
  0
VERTEX
  8
21
 10
-30.0990
 20
46.9265
 30
0.0000
 42
1.0000
  0
SEQEND
  8
0
  0
POLYLINE
  8
21
 66
1
 10
0.0000
 20
0.0000
 30
0.0000
 40
0.0000
 41
0.0000
 70
1
  0
VERTEX
  8
21
 10
-30.0990
 20
46.9265
 30
0.0000
  0
VERTEX
  8
21
 10
-30.8398
 20
46.9265
 30
0.0000
 42
1.0000
  0
VERTEX
  8
21
 10
-30.8398
 20
46.7995
 30
0.0000
  0
VERTEX
  8
21
 10
-30.0990
 20
46.7995
 30
0.0000
 42
1.0000
  0
SEQEND
  8
0
  0
POLYLINE
  8
21
 66
1
 10
0.0000
 20
0.0000
 30
0.0000
 40
0.0000
 41
0.0000
 70
1
  0
VERTEX
  8
21
 10
-30.0990
 20
46.7995
 30
0.0000
  0
VERTEX
  8
21
 10
-30.9880
 20
46.7995
 30
0.0000
 42
1.0000
  0
VERTEX
  8
21
 10
-30.9880
 20
46.6725
 30
0.0000
  0
VERTEX
  8
21
 10
-30.0990
 20
46.6725
 30
0.0000
 42
1.0000
  0
SEQEND
  8
0
  0
POLYLINE
  8
21
 66
1
 10
0.0000
 20
0.0000
 30
0.0000
 40
0.0000
 41
0.0000
 70
1
  0
VERTEX
  8
21
 10
-30.0990
 20
46.6725
 30
0.0000
  0
VERTEX
  8
21
 10
-30.8398
 20
46.6725
 30
0.0000
 42
1.0000
  0
VERTEX
  8
21
 10
-30.8398
 20
46.5455
 30
0.0000
  0
VERTEX
  8
21
 10
-30.0990
 20
46.5455
 30
0.0000
 42
1.0000
  0
SEQEND
  8
0
  0
POLYLINE
  8
21
 66
1
 10
0.0000
 20
0.0000
 30
0.0000
 40
0.0000
 41
0.0000
 70
1
  0
VERTEX
  8
21
 10
-30.0990
 20
46.5455
 30
0.0000
  0
VERTEX
  8
21
 10
-30.6917
 20
46.5455
 30
0.0000
 42
1.0000
  0
VERTEX
  8
21
 10
-30.6917
 20
46.4185
 30
0.0000
  0
VERTEX
  8
21
 10
-30.0990
 20
46.4185
 30
0.0000
 42
1.0000
  0
SEQEND
  8
0
  0
POLYLINE
  8
21
 66
1
 10
0.0000
 20
0.0000
 30
0.0000
 40
0.0000
 41
0.0000
 70
1
  0
VERTEX
  8
21
 10
-30.0990
 20
46.4185
 30
0.0000
  0
VERTEX
  8
21
 10
-30.5435
 20
46.4185
 30
0.0000
 42
1.0000
  0
VERTEX
  8
21
 10
-30.5435
 20
46.2915
 30
0.0000
  0
VERTEX
  8
21
 10
-30.0990
 20
46.2915
 30
0.0000
 42
1.0000
  0
SEQEND
  8
0
  0
POLYLINE
  8
21
 66
1
 10
0.0000
 20
0.0000
 30
0.0000
 40
0.0000
 41
0.0000
 70
1
  0
VERTEX
  8
21
 10
-30.0990
 20
46.2915
 30
0.0000
  0
VERTEX
  8
21
 10
-30.3953
 20
46.2915
 30
0.0000
 42
1.0000
  0
VERTEX
  8
21
 10
-30.3953
 20
46.1645
 30
0.0000
  0
VERTEX
  8
21
 10
-30.0990
 20
46.1645
 30
0.0000
 42
1.0000
  0
SEQEND
  8
0
  0
POLYLINE
  8
21
 66
1
 10
0.0000
 20
0.0000
 30
0.0000
 40
0.0000
 41
0.0000
 70
1
  0
VERTEX
  8
21
 10
-30.0990
 20
46.1645
 30
0.0000
  0
VERTEX
  8
21
 10
-30.2472
 20
46.1645
 30
0.0000
 42
1.0000
  0
VERTEX
  8
21
 10
-30.2472
 20
46.0375
 30
0.0000
  0
VERTEX
  8
21
 10
-30.0990
 20
46.0375
 30
0.0000
 42
1.0000
  0
SEQEND
  8
0
  0
POLYLINE
  8
21
 66
1
 10
0.0000
 20
0.0000
 30
0.0000
 40
0.0000
 41
0.0000
 70
1
  0
VERTEX
  8
21
 10
-28.3350
 20
45.4495
 30
0.0000
  0
VERTEX
  8
21
 10
-32.6250
 20
45.4495
 30
0.0000
 42
1.0000
  0
VERTEX
  8
21
 10
-32.6250
 20
45.3225
 30
0.0000
  0
VERTEX
  8
21
 10
-28.3350
 20
45.3225
 30
0.0000
 42
1.0000
  0
SEQEND
  8
0
  0
POLYLINE
  8
21
 66
1
 10
0.0000
 20
0.0000
 30
0.0000
 40
0.0000
 41
0.0000
 70
1
  0
VERTEX
  8
21
 10
-32.6250
 20
48.0225
 30
0.0000
  0
VERTEX
  8
21
 10
-28.3350
 20
48.0225
 30
0.0000
 42
1.0000
  0
VERTEX
  8
21
 10
-28.3350
 20
48.1495
 30
0.0000
  0
VERTEX
  8
21
 10
-32.6250
 20
48.1495
 30
0.0000
 42
1.0000
  0
SEQEND
  8
0
  0
POLYLINE
  8
21
 66
1
 10
0.0000
 20
0.0000
 30
0.0000
 40
0.0000
 41
0.0000
 70
1
  0
VERTEX
  8
21
 10
-32.5665
 20
45.4360
 30
0.0000
  0
VERTEX
  8
21
 10
-32.5665
 20
45.7360
 30
0.0000
 42
1.0000
  0
VERTEX
  8
21
 10
-32.6935
 20
45.7360
 30
0.0000
  0
VERTEX
  8
21
 10
-32.6935
 20
45.4360
 30
0.0000
 42
1.0000
  0
SEQEND
  8
0
  0
POLYLINE
  8
21
 66
1
 10
0.0000
 20
0.0000
 30
0.0000
 40
0.0000
 41
0.0000
 70
1
  0
VERTEX
  8
21
 10
-32.6935
 20
48.0360
 30
0.0000
  0
VERTEX
  8
21
 10
-32.6935
 20
47.7360
 30
0.0000
 42
1.0000
  0
VERTEX
  8
21
 10
-32.5665
 20
47.7360
 30
0.0000
  0
VERTEX
  8
21
 10
-32.5665
 20
48.0360
 30
0.0000
 42
1.0000
  0
SEQEND
  8
0
  0
POLYLINE
  8
21
 66
1
 10
0.0000
 20
0.0000
 30
0.0000
 40
0.0000
 41
0.0000
 70
1
  0
VERTEX
  8
21
 10
-28.3935
 20
48.0360
 30
0.0000
  0
VERTEX
  8
21
 10
-28.3935
 20
47.7360
 30
0.0000
 42
1.0000
  0
VERTEX
  8
21
 10
-28.2665
 20
47.7360
 30
0.0000
  0
VERTEX
  8
21
 10
-28.2665
 20
48.0360
 30
0.0000
 42
1.0000
  0
SEQEND
  8
0
  0
POLYLINE
  8
21
 66
1
 10
0.0000
 20
0.0000
 30
0.0000
 40
0.0000
 41
0.0000
 70
1
  0
VERTEX
  8
21
 10
-28.2665
 20
45.4360
 30
0.0000
  0
VERTEX
  8
21
 10
-28.2665
 20
45.7360
 30
0.0000
 42
1.0000
  0
VERTEX
  8
21
 10
-28.3935
 20
45.7360
 30
0.0000
  0
VERTEX
  8
21
 10
-28.3935
 20
45.4360
 30
0.0000
 42
1.0000
  0
SEQEND
  8
0
  0
POLYLINE
  8
21
 66
1
 10
0.0000
 20
0.0000
 30
0.0000
 40
0.0000
 41
0.0000
 70
1
  0
VERTEX
  8
21
 10
-31.0165
 20
45.9360
 30
0.0000
  0
VERTEX
  8
21
 10
-31.0165
 20
47.5360
 30
0.0000
 42
1.0000
  0
VERTEX
  8
21
 10
-31.1435
 20
47.5360
 30
0.0000
  0
VERTEX
  8
21
 10
-31.1435
 20
45.9360
 30
0.0000
 42
1.0000
  0
SEQEND
  8
0
  0
POLYLINE
  8
21
 66
1
 10
0.0000
 20
0.0000
 30
0.0000
 40
0.0000
 41
0.0000
 70
1
  0
VERTEX
  8
21
 10
-15.3257
 20
32.3062
 30
0.0000
  0
VERTEX
  8
21
 10
-16.2147
 20
33.0682
 30
0.0000
 42
1.0000
  0
VERTEX
  8
21
 10
-16.2973
 20
32.9718
 30
0.0000
  0
VERTEX
  8
21
 10
-15.4083
 20
32.2098
 30
0.0000
 42
1.0000
  0
SEQEND
  8
0
  0
POLYLINE
  8
21
 66
1
 10
0.0000
 20
0.0000
 30
0.0000
 40
0.0000
 41
0.0000
 70
1
  0
VERTEX
  8
21
 10
-16.2147
 20
32.9718
 30
0.0000
  0
VERTEX
  8
21
 10
-15.3257
 20
33.7338
 30
0.0000
 42
1.0000
  0
VERTEX
  8
21
 10
-15.4083
 20
33.8302
 30
0.0000
  0
VERTEX
  8
21
 10
-16.2973
 20
33.0682
 30
0.0000
 42
1.0000
  0
SEQEND
  8
0
  0
POLYLINE
  8
21
 66
1
 10
0.0000
 20
0.0000
 30
0.0000
 40
0.0000
 41
0.0000
 70
1
  0
VERTEX
  8
21
 10
-15.4305
 20
33.7820
 30
0.0000
  0
VERTEX
  8
21
 10
-15.4305
 20
32.2580
 30
0.0000
 42
1.0000
  0
VERTEX
  8
21
 10
-15.3035
 20
32.2580
 30
0.0000
  0
VERTEX
  8
21
 10
-15.3035
 20
33.7820
 30
0.0000
 42
1.0000
  0
SEQEND
  8
0
  0
POLYLINE
  8
21
 66
1
 10
0.0000
 20
0.0000
 30
0.0000
 40
0.0000
 41
0.0000
 70
1
  0
VERTEX
  8
21
 10
-15.3670
 20
33.7185
 30
0.0000
  0
VERTEX
  8
21
 10
-15.5152
 20
33.7185
 30
0.0000
 42
1.0000
  0
VERTEX
  8
21
 10
-15.5152
 20
33.5915
 30
0.0000
  0
VERTEX
  8
21
 10
-15.3670
 20
33.5915
 30
0.0000
 42
1.0000
  0
SEQEND
  8
0
  0
POLYLINE
  8
21
 66
1
 10
0.0000
 20
0.0000
 30
0.0000
 40
0.0000
 41
0.0000
 70
1
  0
VERTEX
  8
21
 10
-15.3670
 20
33.5915
 30
0.0000
  0
VERTEX
  8
21
 10
-15.6633
 20
33.5915
 30
0.0000
 42
1.0000
  0
VERTEX
  8
21
 10
-15.6633
 20
33.4645
 30
0.0000
  0
VERTEX
  8
21
 10
-15.3670
 20
33.4645
 30
0.0000
 42
1.0000
  0
SEQEND
  8
0
  0
POLYLINE
  8
21
 66
1
 10
0.0000
 20
0.0000
 30
0.0000
 40
0.0000
 41
0.0000
 70
1
  0
VERTEX
  8
21
 10
-15.3670
 20
33.4645
 30
0.0000
  0
VERTEX
  8
21
 10
-15.8115
 20
33.4645
 30
0.0000
 42
1.0000
  0
VERTEX
  8
21
 10
-15.8115
 20
33.3375
 30
0.0000
  0
VERTEX
  8
21
 10
-15.3670
 20
33.3375
 30
0.0000
 42
1.0000
  0
SEQEND
  8
0
  0
POLYLINE
  8
21
 66
1
 10
0.0000
 20
0.0000
 30
0.0000
 40
0.0000
 41
0.0000
 70
1
  0
VERTEX
  8
21
 10
-15.3670
 20
33.3375
 30
0.0000
  0
VERTEX
  8
21
 10
-15.9597
 20
33.3375
 30
0.0000
 42
1.0000
  0
VERTEX
  8
21
 10
-15.9597
 20
33.2105
 30
0.0000
  0
VERTEX
  8
21
 10
-15.3670
 20
33.2105
 30
0.0000
 42
1.0000
  0
SEQEND
  8
0
  0
POLYLINE
  8
21
 66
1
 10
0.0000
 20
0.0000
 30
0.0000
 40
0.0000
 41
0.0000
 70
1
  0
VERTEX
  8
21
 10
-15.3670
 20
33.2105
 30
0.0000
  0
VERTEX
  8
21
 10
-16.1078
 20
33.2105
 30
0.0000
 42
1.0000
  0
VERTEX
  8
21
 10
-16.1078
 20
33.0835
 30
0.0000
  0
VERTEX
  8
21
 10
-15.3670
 20
33.0835
 30
0.0000
 42
1.0000
  0
SEQEND
  8
0
  0
POLYLINE
  8
21
 66
1
 10
0.0000
 20
0.0000
 30
0.0000
 40
0.0000
 41
0.0000
 70
1
  0
VERTEX
  8
21
 10
-15.3670
 20
33.0835
 30
0.0000
  0
VERTEX
  8
21
 10
-16.2560
 20
33.0835
 30
0.0000
 42
1.0000
  0
VERTEX
  8
21
 10
-16.2560
 20
32.9565
 30
0.0000
  0
VERTEX
  8
21
 10
-15.3670
 20
32.9565
 30
0.0000
 42
1.0000
  0
SEQEND
  8
0
  0
POLYLINE
  8
21
 66
1
 10
0.0000
 20
0.0000
 30
0.0000
 40
0.0000
 41
0.0000
 70
1
  0
VERTEX
  8
21
 10
-15.3670
 20
32.9565
 30
0.0000
  0
VERTEX
  8
21
 10
-16.1078
 20
32.9565
 30
0.0000
 42
1.0000
  0
VERTEX
  8
21
 10
-16.1078
 20
32.8295
 30
0.0000
  0
VERTEX
  8
21
 10
-15.3670
 20
32.8295
 30
0.0000
 42
1.0000
  0
SEQEND
  8
0
  0
POLYLINE
  8
21
 66
1
 10
0.0000
 20
0.0000
 30
0.0000
 40
0.0000
 41
0.0000
 70
1
  0
VERTEX
  8
21
 10
-15.3670
 20
32.8295
 30
0.0000
  0
VERTEX
  8
21
 10
-15.9597
 20
32.8295
 30
0.0000
 42
1.0000
  0
VERTEX
  8
21
 10
-15.9597
 20
32.7025
 30
0.0000
  0
VERTEX
  8
21
 10
-15.3670
 20
32.7025
 30
0.0000
 42
1.0000
  0
SEQEND
  8
0
  0
POLYLINE
  8
21
 66
1
 10
0.0000
 20
0.0000
 30
0.0000
 40
0.0000
 41
0.0000
 70
1
  0
VERTEX
  8
21
 10
-15.3670
 20
32.7025
 30
0.0000
  0
VERTEX
  8
21
 10
-15.8115
 20
32.7025
 30
0.0000
 42
1.0000
  0
VERTEX
  8
21
 10
-15.8115
 20
32.5755
 30
0.0000
  0
VERTEX
  8
21
 10
-15.3670
 20
32.5755
 30
0.0000
 42
1.0000
  0
SEQEND
  8
0
  0
POLYLINE
  8
21
 66
1
 10
0.0000
 20
0.0000
 30
0.0000
 40
0.0000
 41
0.0000
 70
1
  0
VERTEX
  8
21
 10
-15.3670
 20
32.5755
 30
0.0000
  0
VERTEX
  8
21
 10
-15.6633
 20
32.5755
 30
0.0000
 42
1.0000
  0
VERTEX
  8
21
 10
-15.6633
 20
32.4485
 30
0.0000
  0
VERTEX
  8
21
 10
-15.3670
 20
32.4485
 30
0.0000
 42
1.0000
  0
SEQEND
  8
0
  0
POLYLINE
  8
21
 66
1
 10
0.0000
 20
0.0000
 30
0.0000
 40
0.0000
 41
0.0000
 70
1
  0
VERTEX
  8
21
 10
-15.3670
 20
32.4485
 30
0.0000
  0
VERTEX
  8
21
 10
-15.5152
 20
32.4485
 30
0.0000
 42
1.0000
  0
VERTEX
  8
21
 10
-15.5152
 20
32.3215
 30
0.0000
  0
VERTEX
  8
21
 10
-15.3670
 20
32.3215
 30
0.0000
 42
1.0000
  0
SEQEND
  8
0
  0
POLYLINE
  8
21
 66
1
 10
0.0000
 20
0.0000
 30
0.0000
 40
0.0000
 41
0.0000
 70
1
  0
VERTEX
  8
21
 10
-13.6030
 20
31.7335
 30
0.0000
  0
VERTEX
  8
21
 10
-17.8930
 20
31.7335
 30
0.0000
 42
1.0000
  0
VERTEX
  8
21
 10
-17.8930
 20
31.6065
 30
0.0000
  0
VERTEX
  8
21
 10
-13.6030
 20
31.6065
 30
0.0000
 42
1.0000
  0
SEQEND
  8
0
  0
POLYLINE
  8
21
 66
1
 10
0.0000
 20
0.0000
 30
0.0000
 40
0.0000
 41
0.0000
 70
1
  0
VERTEX
  8
21
 10
-17.8930
 20
34.3065
 30
0.0000
  0
VERTEX
  8
21
 10
-13.6030
 20
34.3065
 30
0.0000
 42
1.0000
  0
VERTEX
  8
21
 10
-13.6030
 20
34.4335
 30
0.0000
  0
VERTEX
  8
21
 10
-17.8930
 20
34.4335
 30
0.0000
 42
1.0000
  0
SEQEND
  8
0
  0
POLYLINE
  8
21
 66
1
 10
0.0000
 20
0.0000
 30
0.0000
 40
0.0000
 41
0.0000
 70
1
  0
VERTEX
  8
21
 10
-17.8345
 20
31.7200
 30
0.0000
  0
VERTEX
  8
21
 10
-17.8345
 20
32.0200
 30
0.0000
 42
1.0000
  0
VERTEX
  8
21
 10
-17.9615
 20
32.0200
 30
0.0000
  0
VERTEX
  8
21
 10
-17.9615
 20
31.7200
 30
0.0000
 42
1.0000
  0
SEQEND
  8
0
  0
POLYLINE
  8
21
 66
1
 10
0.0000
 20
0.0000
 30
0.0000
 40
0.0000
 41
0.0000
 70
1
  0
VERTEX
  8
21
 10
-17.9615
 20
34.3200
 30
0.0000
  0
VERTEX
  8
21
 10
-17.9615
 20
34.0200
 30
0.0000
 42
1.0000
  0
VERTEX
  8
21
 10
-17.8345
 20
34.0200
 30
0.0000
  0
VERTEX
  8
21
 10
-17.8345
 20
34.3200
 30
0.0000
 42
1.0000
  0
SEQEND
  8
0
  0
POLYLINE
  8
21
 66
1
 10
0.0000
 20
0.0000
 30
0.0000
 40
0.0000
 41
0.0000
 70
1
  0
VERTEX
  8
21
 10
-13.6615
 20
34.3200
 30
0.0000
  0
VERTEX
  8
21
 10
-13.6615
 20
34.0200
 30
0.0000
 42
1.0000
  0
VERTEX
  8
21
 10
-13.5345
 20
34.0200
 30
0.0000
  0
VERTEX
  8
21
 10
-13.5345
 20
34.3200
 30
0.0000
 42
1.0000
  0
SEQEND
  8
0
  0
POLYLINE
  8
21
 66
1
 10
0.0000
 20
0.0000
 30
0.0000
 40
0.0000
 41
0.0000
 70
1
  0
VERTEX
  8
21
 10
-13.5345
 20
31.7200
 30
0.0000
  0
VERTEX
  8
21
 10
-13.5345
 20
32.0200
 30
0.0000
 42
1.0000
  0
VERTEX
  8
21
 10
-13.6615
 20
32.0200
 30
0.0000
  0
VERTEX
  8
21
 10
-13.6615
 20
31.7200
 30
0.0000
 42
1.0000
  0
SEQEND
  8
0
  0
POLYLINE
  8
21
 66
1
 10
0.0000
 20
0.0000
 30
0.0000
 40
0.0000
 41
0.0000
 70
1
  0
VERTEX
  8
21
 10
-16.2845
 20
32.2200
 30
0.0000
  0
VERTEX
  8
21
 10
-16.2845
 20
33.8200
 30
0.0000
 42
1.0000
  0
VERTEX
  8
21
 10
-16.4115
 20
33.8200
 30
0.0000
  0
VERTEX
  8
21
 10
-16.4115
 20
32.2200
 30
0.0000
 42
1.0000
  0
SEQEND
  8
0
  0
POLYLINE
  8
21
 66
1
 10
0.0000
 20
0.0000
 30
0.0000
 40
0.0000
 41
0.0000
 70
1
  0
VERTEX
  8
21
 10
-13.3480
 20
26.0670
 30
0.0000
  0
VERTEX
  8
21
 10
-18.1480
 20
26.0670
 30
0.0000
 42
1.0000
  0
VERTEX
  8
21
 10
-18.1480
 20
25.8130
 30
0.0000
  0
VERTEX
  8
21
 10
-13.3480
 20
25.8130
 30
0.0000
 42
1.0000
  0
SEQEND
  8
0
  0
POLYLINE
  8
21
 66
1
 10
0.0000
 20
0.0000
 30
0.0000
 40
0.0000
 41
0.0000
 70
1
  0
VERTEX
  8
21
 10
-18.1480
 20
29.8130
 30
0.0000
  0
VERTEX
  8
21
 10
-13.3480
 20
29.8130
 30
0.0000
 42
1.0000
  0
VERTEX
  8
21
 10
-13.3480
 20
30.0670
 30
0.0000
  0
VERTEX
  8
21
 10
-18.1480
 20
30.0670
 30
0.0000
 42
1.0000
  0
SEQEND
  8
0
  0
POLYLINE
  8
21
 66
1
 10
0.0000
 20
0.0000
 30
0.0000
 40
0.0000
 41
0.0000
 70
1
  0
VERTEX
  8
21
 10
-15.1328
 20
28.0345
 30
0.0000
  0
VERTEX
  8
21
 10
-17.0448
 20
26.3185
 30
0.0000
 42
1.0000
  0
VERTEX
  8
21
 10
-16.8752
 20
26.1295
 30
0.0000
  0
VERTEX
  8
21
 10
-14.9632
 20
27.8455
 30
0.0000
 42
1.0000
  0
SEQEND
  8
0
  0
POLYLINE
  8
21
 66
1
 10
0.0000
 20
0.0000
 30
0.0000
 40
0.0000
 41
0.0000
 70
1
  0
VERTEX
  8
21
 10
-16.8330
 20
26.2240
 30
0.0000
  0
VERTEX
  8
21
 10
-16.8330
 20
29.6560
 30
0.0000
 42
1.0000
  0
VERTEX
  8
21
 10
-17.0870
 20
29.6560
 30
0.0000
  0
VERTEX
  8
21
 10
-17.0870
 20
26.2240
 30
0.0000
 42
1.0000
  0
SEQEND
  8
0
  0
POLYLINE
  8
21
 66
1
 10
0.0000
 20
0.0000
 30
0.0000
 40
0.0000
 41
0.0000
 70
1
  0
VERTEX
  8
21
 10
-17.0448
 20
29.5615
 30
0.0000
  0
VERTEX
  8
21
 10
-15.1328
 20
27.8455
 30
0.0000
 42
1.0000
  0
VERTEX
  8
21
 10
-14.9632
 20
28.0345
 30
0.0000
  0
VERTEX
  8
21
 10
-16.8752
 20
29.7505
 30
0.0000
 42
1.0000
  0
SEQEND
  8
0
  0
POLYLINE
  8
21
 66
1
 10
0.0000
 20
0.0000
 30
0.0000
 40
0.0000
 41
0.0000
 70
1
  0
VERTEX
  8
21
 10
-13.4750
 20
29.9400
 30
0.0000
  0
VERTEX
  8
21
 10
-13.4750
 20
29.3400
 30
0.0000
 42
1.0000
  0
VERTEX
  8
21
 10
-13.2210
 20
29.3400
 30
0.0000
  0
VERTEX
  8
21
 10
-13.2210
 20
29.9400
 30
0.0000
 42
1.0000
  0
SEQEND
  8
0
  0
POLYLINE
  8
21
 66
1
 10
0.0000
 20
0.0000
 30
0.0000
 40
0.0000
 41
0.0000
 70
1
  0
VERTEX
  8
21
 10
-13.2210
 20
25.9400
 30
0.0000
  0
VERTEX
  8
21
 10
-13.2210
 20
26.5400
 30
0.0000
 42
1.0000
  0
VERTEX
  8
21
 10
-13.4750
 20
26.5400
 30
0.0000
  0
VERTEX
  8
21
 10
-13.4750
 20
25.9400
 30
0.0000
 42
1.0000
  0
SEQEND
  8
0
  0
POLYLINE
  8
21
 66
1
 10
0.0000
 20
0.0000
 30
0.0000
 40
0.0000
 41
0.0000
 70
1
  0
VERTEX
  8
21
 10
-18.0210
 20
25.9400
 30
0.0000
  0
VERTEX
  8
21
 10
-18.0210
 20
26.5400
 30
0.0000
 42
1.0000
  0
VERTEX
  8
21
 10
-18.2750
 20
26.5400
 30
0.0000
  0
VERTEX
  8
21
 10
-18.2750
 20
25.9400
 30
0.0000
 42
1.0000
  0
SEQEND
  8
0
  0
POLYLINE
  8
21
 66
1
 10
0.0000
 20
0.0000
 30
0.0000
 40
0.0000
 41
0.0000
 70
1
  0
VERTEX
  8
21
 10
-18.2750
 20
29.9400
 30
0.0000
  0
VERTEX
  8
21
 10
-18.2750
 20
29.3400
 30
0.0000
 42
1.0000
  0
VERTEX
  8
21
 10
-18.0210
 20
29.3400
 30
0.0000
  0
VERTEX
  8
21
 10
-18.0210
 20
29.9400
 30
0.0000
 42
1.0000
  0
SEQEND
  8
0
  0
POLYLINE
  8
21
 66
1
 10
0.0000
 20
0.0000
 30
0.0000
 40
0.0000
 41
0.0000
 70
1
  0
VERTEX
  8
21
 10
-14.9528
 20
29.7400
 30
0.0000
  0
VERTEX
  8
21
 10
-14.9528
 20
26.1400
 30
0.0000
 42
1.0000
  0
VERTEX
  8
21
 10
-14.3432
 20
26.1400
 30
0.0000
  0
VERTEX
  8
21
 10
-14.3432
 20
29.7400
 30
0.0000
 42
1.0000
  0
SEQEND
  8
0
  0
POLYLINE
  8
21
 66
1
 10
0.0000
 20
0.0000
 30
0.0000
 40
0.0000
 41
0.0000
 70
1
  0
VERTEX
  8
21
 10
-49.3140
 20
48.8230
 30
0.0000
  0
VERTEX
  8
21
 10
-49.3140
 20
40.6250
 30
0.0000
 42
1.0000
  0
VERTEX
  8
21
 10
-49.1616
 20
40.6250
 30
0.0000
  0
VERTEX
  8
21
 10
-49.1616
 20
48.8230
 30
0.0000
 42
1.0000
  0
SEQEND
  8
0
  0
POLYLINE
  8
21
 66
1
 10
0.0000
 20
0.0000
 30
0.0000
 40
0.0000
 41
0.0000
 70
1
  0
VERTEX
  8
21
 10
-46.3399
 20
48.8037
 30
0.0000
 42
1.0000
  0
VERTEX
  8
21
 10
-46.1925
 20
48.8423
 30
0.0000
 42
0.4142
  0
VERTEX
  8
21
 10
-46.7665
 20
49.1777
 30
0.0000
 42
1.0000
  0
VERTEX
  8
21
 10
-46.7279
 20
49.0303
 30
0.0000
 42
-0.4142
  0
SEQEND
  8
0
  0
POLYLINE
  8
21
 66
1
 10
0.0000
 20
0.0000
 30
0.0000
 40
0.0000
 41
0.0000
 70
1
  0
VERTEX
  8
21
 10
-49.1634
 20
40.6415
 30
0.0000
 42
1.0000
  0
VERTEX
  8
21
 10
-49.3122
 20
40.6085
 30
0.0000
 42
0.4142
  0
VERTEX
  8
21
 10
-48.7803
 20
40.2696
 30
0.0000
 42
1.0000
  0
VERTEX
  8
21
 10
-48.8133
 20
40.4184
 30
0.0000
 42
-0.4142
  0
SEQEND
  8
0
  0
POLYLINE
  8
21
 66
1
 10
0.0000
 20
0.0000
 30
0.0000
 40
0.0000
 41
0.0000
 70
1
  0
VERTEX
  8
21
 10
-48.9041
 20
49.0282
 30
0.0000
 42
1.0000
  0
VERTEX
  8
21
 10
-48.8895
 20
49.1798
 30
0.0000
 42
0.4142
  0
VERTEX
  8
21
 10
-49.3136
 20
48.8303
 30
0.0000
 42
1.0000
  0
VERTEX
  8
21
 10
-49.1620
 20
48.8157
 30
0.0000
 42
-0.4142
  0
SEQEND
  8
0
  0
POLYLINE
  8
21
 66
1
 10
0.0000
 20
0.0000
 30
0.0000
 40
0.0000
 41
0.0000
 70
1
  0
VERTEX
  8
21
 10
-46.6472
 20
40.4202
 30
0.0000
 42
1.0000
  0
VERTEX
  8
21
 10
-46.6472
 20
40.2678
 30
0.0000
 42
0.4142
  0
VERTEX
  8
21
 10
-46.1900
 20
40.7250
 30
0.0000
 42
1.0000
  0
VERTEX
  8
21
 10
-46.3424
 20
40.7250
 30
0.0000
 42
-0.4142
  0
SEQEND
  8
0
  0
POLYLINE
  8
21
 66
1
 10
0.0000
 20
0.0000
 30
0.0000
 40
0.0000
 41
0.0000
 70
1
  0
VERTEX
  8
21
 10
-46.1900
 20
40.7250
 30
0.0000
  0
VERTEX
  8
21
 10
-46.1900
 20
48.8230
 30
0.0000
 42
1.0000
  0
VERTEX
  8
21
 10
-46.3424
 20
48.8230
 30
0.0000
  0
VERTEX
  8
21
 10
-46.3424
 20
40.7250
 30
0.0000
 42
1.0000
  0
SEQEND
  8
0
  0
POLYLINE
  8
21
 66
1
 10
0.0000
 20
0.0000
 30
0.0000
 40
0.0000
 41
0.0000
 70
1
  0
VERTEX
  8
21
 10
-46.6479
 20
49.0228
 30
0.0000
  0
VERTEX
  8
21
 10
-46.6733
 20
49.1228
 30
0.0000
 42
1.0000
  0
VERTEX
  8
21
 10
-46.8211
 20
49.0852
 30
0.0000
  0
VERTEX
  8
21
 10
-46.7957
 20
48.9852
 30
0.0000
 42
1.0000
  0
SEQEND
  8
0
  0
POLYLINE
  8
21
 66
1
 10
0.0000
 20
0.0000
 30
0.0000
 40
0.0000
 41
0.0000
 70
1
  0
VERTEX
  8
21
 10
-46.7472
 20
49.1802
 30
0.0000
  0
VERTEX
  8
21
 10
-48.8968
 20
49.1802
 30
0.0000
 42
1.0000
  0
VERTEX
  8
21
 10
-48.8968
 20
49.0278
 30
0.0000
  0
VERTEX
  8
21
 10
-46.7472
 20
49.0278
 30
0.0000
 42
1.0000
  0
SEQEND
  8
0
  0
POLYLINE
  8
21
 66
1
 10
0.0000
 20
0.0000
 30
0.0000
 40
0.0000
 41
0.0000
 70
1
  0
VERTEX
  8
21
 10
-48.7968
 20
40.2678
 30
0.0000
  0
VERTEX
  8
21
 10
-48.2300
 20
40.2678
 30
0.0000
 42
1.0000
  0
VERTEX
  8
21
 10
-48.2300
 20
40.4202
 30
0.0000
  0
VERTEX
  8
21
 10
-48.7968
 20
40.4202
 30
0.0000
 42
1.0000
  0
SEQEND
  8
0
  0
POLYLINE
  8
21
 66
1
 10
0.0000
 20
0.0000
 30
0.0000
 40
0.0000
 41
0.0000
 70
1
  0
VERTEX
  8
21
 10
-48.2300
 20
40.2678
 30
0.0000
  0
VERTEX
  8
21
 10
-47.6140
 20
40.2678
 30
0.0000
 42
1.0000
  0
VERTEX
  8
21
 10
-47.6140
 20
40.4202
 30
0.0000
  0
VERTEX
  8
21
 10
-48.2300
 20
40.4202
 30
0.0000
 42
1.0000
  0
SEQEND
  8
0
  0
POLYLINE
  8
21
 66
1
 10
0.0000
 20
0.0000
 30
0.0000
 40
0.0000
 41
0.0000
 70
1
  0
VERTEX
  8
21
 10
-47.6140
 20
40.2678
 30
0.0000
  0
VERTEX
  8
21
 10
-46.7218
 20
40.2678
 30
0.0000
 42
1.0000
  0
VERTEX
  8
21
 10
-46.7218
 20
40.4202
 30
0.0000
  0
VERTEX
  8
21
 10
-47.6140
 20
40.4202
 30
0.0000
 42
1.0000
  0
SEQEND
  8
0
  0
POLYLINE
  8
21
 66
1
 10
0.0000
 20
0.0000
 30
0.0000
 40
0.0000
 41
0.0000
 70
1
  0
VERTEX
  8
21
 10
-46.7218
 20
40.2678
 30
0.0000
  0
VERTEX
  8
21
 10
-46.6472
 20
40.2678
 30
0.0000
 42
1.0000
  0
VERTEX
  8
21
 10
-46.6472
 20
40.4202
 30
0.0000
  0
VERTEX
  8
21
 10
-46.7218
 20
40.4202
 30
0.0000
 42
1.0000
  0
SEQEND
  8
0
  0
POLYLINE
  8
21
 66
1
 10
0.0000
 20
0.0000
 30
0.0000
 40
0.0000
 41
0.0000
 70
1
  0
VERTEX
  8
21
 10
-47.6902
 20
40.3440
 30
0.0000
 42
1.0000
  0
VERTEX
  8
21
 10
-47.5378
 20
40.3440
 30
0.0000
 42
1.0000
  0
VERTEX
  8
21
 10
-48.3062
 20
40.3440
 30
0.0000
 42
1.0000
  0
VERTEX
  8
21
 10
-48.1538
 20
40.3440
 30
0.0000
 42
-1.0000
  0
SEQEND
  8
0
  0
POLYLINE
  8
21
 66
1
 10
0.0000
 20
0.0000
 30
0.0000
 40
0.0000
 41
0.0000
 70
1
  0
VERTEX
  8
21
 10
-46.6583
 20
40.3440
 30
0.0000
  0
VERTEX
  8
21
 10
-46.6583
 20
49.0040
 30
0.0000
 42
1.0000
  0
VERTEX
  8
21
 10
-46.7853
 20
49.0040
 30
0.0000
  0
VERTEX
  8
21
 10
-46.7853
 20
40.3440
 30
0.0000
 42
1.0000
  0
SEQEND
  8
0
  0
CIRCLE
  8
21
 10
-46.7520
 20
40.9040
 30
0.0000
 40
0.2365
  0
CIRCLE
  8
21
 10
-46.7520
 20
40.9040
 30
0.0000
 40
0.3635
  0
POLYLINE
  8
21
 66
1
 10
0.0000
 20
0.0000
 30
0.0000
 40
0.0000
 41
0.0000
 70
1
  0
VERTEX
  8
21
 10
-53.4670
 20
31.3436
 30
0.0000
 42
1.0000
  0
VERTEX
  8
21
 10
-53.4670
 20
31.4960
 30
0.0000
 42
0.4142
  0
VERTEX
  8
21
 10
-53.9242
 20
31.0388
 30
0.0000
 42
1.0000
  0
VERTEX
  8
21
 10
-53.7718
 20
31.0388
 30
0.0000
 42
-0.4142
  0
SEQEND
  8
0
  0
POLYLINE
  8
21
 66
1
 10
0.0000
 20
0.0000
 30
0.0000
 40
0.0000
 41
0.0000
 70
1
  0
VERTEX
  8
21
 10
-44.0690
 20
27.5844
 30
0.0000
 42
1.0000
  0
VERTEX
  8
21
 10
-44.0690
 20
27.4320
 30
0.0000
 42
0.4142
  0
VERTEX
  8
21
 10
-43.6118
 20
27.8892
 30
0.0000
 42
1.0000
  0
VERTEX
  8
21
 10
-43.7642
 20
27.8892
 30
0.0000
 42
-0.4142
  0
SEQEND
  8
0
  0
POLYLINE
  8
21
 66
1
 10
0.0000
 20
0.0000
 30
0.0000
 40
0.0000
 41
0.0000
 70
1
  0
VERTEX
  8
21
 10
-53.7718
 20
27.8892
 30
0.0000
 42
1.0000
  0
VERTEX
  8
21
 10
-53.9242
 20
27.8892
 30
0.0000
 42
0.4142
  0
VERTEX
  8
21
 10
-53.4670
 20
27.4320
 30
0.0000
 42
1.0000
  0
VERTEX
  8
21
 10
-53.4670
 20
27.5844
 30
0.0000
 42
-0.4142
  0
SEQEND
  8
0
  0
POLYLINE
  8
21
 66
1
 10
0.0000
 20
0.0000
 30
0.0000
 40
0.0000
 41
0.0000
 70
1
  0
VERTEX
  8
21
 10
-43.7642
 20
31.0388
 30
0.0000
 42
1.0000
  0
VERTEX
  8
21
 10
-43.6118
 20
31.0388
 30
0.0000
 42
0.4142
  0
VERTEX
  8
21
 10
-44.0690
 20
31.4960
 30
0.0000
 42
1.0000
  0
VERTEX
  8
21
 10
-44.0690
 20
31.3436
 30
0.0000
 42
-0.4142
  0
SEQEND
  8
0
  0
POLYLINE
  8
21
 66
1
 10
0.0000
 20
0.0000
 30
0.0000
 40
0.0000
 41
0.0000
 70
1
  0
VERTEX
  8
21
 10
-53.9242
 20
31.0388
 30
0.0000
  0
VERTEX
  8
21
 10
-53.9242
 20
27.8892
 30
0.0000
 42
1.0000
  0
VERTEX
  8
21
 10
-53.7718
 20
27.8892
 30
0.0000
  0
VERTEX
  8
21
 10
-53.7718
 20
31.0388
 30
0.0000
 42
1.0000
  0
SEQEND
  8
0
  0
POLYLINE
  8
21
 66
1
 10
0.0000
 20
0.0000
 30
0.0000
 40
0.0000
 41
0.0000
 70
1
  0
VERTEX
  8
21
 10
-43.6118
 20
27.8892
 30
0.0000
  0
VERTEX
  8
21
 10
-43.6118
 20
28.9560
 30
0.0000
 42
1.0000
  0
VERTEX
  8
21
 10
-43.7642
 20
28.9560
 30
0.0000
  0
VERTEX
  8
21
 10
-43.7642
 20
27.8892
 30
0.0000
 42
1.0000
  0
SEQEND
  8
0
  0
POLYLINE
  8
21
 66
1
 10
0.0000
 20
0.0000
 30
0.0000
 40
0.0000
 41
0.0000
 70
1
  0
VERTEX
  8
21
 10
-43.6118
 20
28.9560
 30
0.0000
  0
VERTEX
  8
21
 10
-43.6118
 20
29.9720
 30
0.0000
 42
1.0000
  0
VERTEX
  8
21
 10
-43.7642
 20
29.9720
 30
0.0000
  0
VERTEX
  8
21
 10
-43.7642
 20
28.9560
 30
0.0000
 42
1.0000
  0
SEQEND
  8
0
  0
POLYLINE
  8
21
 66
1
 10
0.0000
 20
0.0000
 30
0.0000
 40
0.0000
 41
0.0000
 70
1
  0
VERTEX
  8
21
 10
-43.6118
 20
29.9720
 30
0.0000
  0
VERTEX
  8
21
 10
-43.6118
 20
31.0388
 30
0.0000
 42
1.0000
  0
VERTEX
  8
21
 10
-43.7642
 20
31.0388
 30
0.0000
  0
VERTEX
  8
21
 10
-43.7642
 20
29.9720
 30
0.0000
 42
1.0000
  0
SEQEND
  8
0
  0
POLYLINE
  8
21
 66
1
 10
0.0000
 20
0.0000
 30
0.0000
 40
0.0000
 41
0.0000
 70
1
  0
VERTEX
  8
21
 10
-43.6880
 20
29.8958
 30
0.0000
 42
1.0000
  0
VERTEX
  8
21
 10
-43.6880
 20
30.0482
 30
0.0000
 42
1.0000
  0
VERTEX
  8
21
 10
-43.6880
 20
28.8798
 30
0.0000
 42
1.0000
  0
VERTEX
  8
21
 10
-43.6880
 20
29.0322
 30
0.0000
 42
-1.0000
  0
SEQEND
  8
0
  0
POLYLINE
  8
21
 66
1
 10
0.0000
 20
0.0000
 30
0.0000
 40
0.0000
 41
0.0000
 70
1
  0
VERTEX
  8
21
 10
-43.6880
 20
31.0896
 30
0.0000
  0
VERTEX
  8
21
 10
-53.8480
 20
31.0896
 30
0.0000
 42
1.0000
  0
VERTEX
  8
21
 10
-53.8480
 20
31.0388
 30
0.0000
  0
VERTEX
  8
21
 10
-43.6880
 20
31.0388
 30
0.0000
 42
1.0000
  0
SEQEND
  8
0
  0
POLYLINE
  8
21
 66
1
 10
0.0000
 20
0.0000
 30
0.0000
 40
0.0000
 41
0.0000
 70
1
  0
VERTEX
  8
21
 10
-9.1483
 20
46.7100
 30
0.0000
  0
VERTEX
  8
21
 10
-8.8943
 20
46.7100
 30
0.0000
 42
1.0000
  0
VERTEX
  8
21
 10
-8.8943
 20
46.8624
 30
0.0000
  0
VERTEX
  8
21
 10
-9.1483
 20
46.8624
 30
0.0000
 42
1.0000
  0
SEQEND
  8
0
  0
POLYLINE
  8
21
 66
1
 10
0.0000
 20
0.0000
 30
0.0000
 40
0.0000
 41
0.0000
 70
1
  0
VERTEX
  8
21
 10
-9.2245
 20
46.7862
 30
0.0000
  0
VERTEX
  8
21
 10
-9.2245
 20
46.5322
 30
0.0000
 42
1.0000
  0
VERTEX
  8
21
 10
-9.0721
 20
46.5322
 30
0.0000
  0
VERTEX
  8
21
 10
-9.0721
 20
46.7862
 30
0.0000
 42
1.0000
  0
SEQEND
  8
0
  0
POLYLINE
  8
21
 66
1
 10
0.0000
 20
0.0000
 30
0.0000
 40
0.0000
 41
0.0000
 70
1
  0
VERTEX
  8
21
 10
-7.7005
 20
46.7862
 30
0.0000
  0
VERTEX
  8
21
 10
-7.7005
 20
46.5322
 30
0.0000
 42
1.0000
  0
VERTEX
  8
21
 10
-7.5481
 20
46.5322
 30
0.0000
  0
VERTEX
  8
21
 10
-7.5481
 20
46.7862
 30
0.0000
 42
1.0000
  0
SEQEND
  8
0
  0
POLYLINE
  8
21
 66
1
 10
0.0000
 20
0.0000
 30
0.0000
 40
0.0000
 41
0.0000
 70
1
  0
VERTEX
  8
21
 10
-7.6243
 20
46.8624
 30
0.0000
  0
VERTEX
  8
21
 10
-7.8783
 20
46.8624
 30
0.0000
 42
1.0000
  0
VERTEX
  8
21
 10
-7.8783
 20
46.7100
 30
0.0000
  0
VERTEX
  8
21
 10
-7.6243
 20
46.7100
 30
0.0000
 42
1.0000
  0
SEQEND
  8
0
  0
POLYLINE
  8
21
 66
1
 10
0.0000
 20
0.0000
 30
0.0000
 40
0.0000
 41
0.0000
 70
1
  0
VERTEX
  8
21
 10
-7.7005
 20
45.5162
 30
0.0000
  0
VERTEX
  8
21
 10
-7.7005
 20
45.2622
 30
0.0000
 42
1.0000
  0
VERTEX
  8
21
 10
-7.5481
 20
45.2622
 30
0.0000
  0
VERTEX
  8
21
 10
-7.5481
 20
45.5162
 30
0.0000
 42
1.0000
  0
SEQEND
  8
0
  0
POLYLINE
  8
21
 66
1
 10
0.0000
 20
0.0000
 30
0.0000
 40
0.0000
 41
0.0000
 70
1
  0
VERTEX
  8
21
 10
-7.6243
 20
45.3384
 30
0.0000
  0
VERTEX
  8
21
 10
-7.8783
 20
45.3384
 30
0.0000
 42
1.0000
  0
VERTEX
  8
21
 10
-7.8783
 20
45.1860
 30
0.0000
  0
VERTEX
  8
21
 10
-7.6243
 20
45.1860
 30
0.0000
 42
1.0000
  0
SEQEND
  8
0
  0
POLYLINE
  8
21
 66
1
 10
0.0000
 20
0.0000
 30
0.0000
 40
0.0000
 41
0.0000
 70
1
  0
VERTEX
  8
21
 10
-8.8943
 20
45.3384
 30
0.0000
  0
VERTEX
  8
21
 10
-9.1483
 20
45.3384
 30
0.0000
 42
1.0000
  0
VERTEX
  8
21
 10
-9.1483
 20
45.1860
 30
0.0000
  0
VERTEX
  8
21
 10
-8.8943
 20
45.1860
 30
0.0000
 42
1.0000
  0
SEQEND
  8
0
  0
POLYLINE
  8
21
 66
1
 10
0.0000
 20
0.0000
 30
0.0000
 40
0.0000
 41
0.0000
 70
1
  0
VERTEX
  8
21
 10
-9.0721
 20
45.2622
 30
0.0000
  0
VERTEX
  8
21
 10
-9.0721
 20
45.5162
 30
0.0000
 42
1.0000
  0
VERTEX
  8
21
 10
-9.2245
 20
45.5162
 30
0.0000
  0
VERTEX
  8
21
 10
-9.2245
 20
45.2622
 30
0.0000
 42
1.0000
  0
SEQEND
  8
0
  0
POLYLINE
  8
21
 66
1
 10
0.0000
 20
0.0000
 30
0.0000
 40
0.0000
 41
0.0000
 70
1
  0
VERTEX
  8
21
 10
-24.2300
 20
22.2250
 30
0.0000
  0
VERTEX
  8
21
 10
-27.5860
 20
22.2250
 30
0.0000
 42
1.0000
  0
VERTEX
  8
21
 10
-27.5860
 20
22.0218
 30
0.0000
  0
VERTEX
  8
21
 10
-24.2300
 20
22.0218
 30
0.0000
 42
1.0000
  0
SEQEND
  8
0
  0
POLYLINE
  8
21
 66
1
 10
0.0000
 20
0.0000
 30
0.0000
 40
0.0000
 41
0.0000
 70
1
  0
VERTEX
  8
21
 10
-27.4844
 20
22.1234
 30
0.0000
  0
VERTEX
  8
21
 10
-27.4844
 20
28.6766
 30
0.0000
 42
1.0000
  0
VERTEX
  8
21
 10
-27.6876
 20
28.6766
 30
0.0000
  0
VERTEX
  8
21
 10
-27.6876
 20
22.1234
 30
0.0000
 42
1.0000
  0
SEQEND
  8
0
  0
POLYLINE
  8
21
 66
1
 10
0.0000
 20
0.0000
 30
0.0000
 40
0.0000
 41
0.0000
 70
1
  0
VERTEX
  8
21
 10
-27.5860
 20
28.5750
 30
0.0000
  0
VERTEX
  8
21
 10
-24.2300
 20
28.5750
 30
0.0000
 42
1.0000
  0
VERTEX
  8
21
 10
-24.2300
 20
28.7782
 30
0.0000
  0
VERTEX
  8
21
 10
-27.5860
 20
28.7782
 30
0.0000
 42
1.0000
  0
SEQEND
  8
0
  0
POLYLINE
  8
21
 66
1
 10
0.0000
 20
0.0000
 30
0.0000
 40
0.0000
 41
0.0000
 70
1
  0
VERTEX
  8
21
 10
-24.3316
 20
28.6766
 30
0.0000
  0
VERTEX
  8
21
 10
-24.3316
 20
22.1234
 30
0.0000
 42
1.0000
  0
VERTEX
  8
21
 10
-24.1284
 20
22.1234
 30
0.0000
  0
VERTEX
  8
21
 10
-24.1284
 20
28.6766
 30
0.0000
 42
1.0000
  0
SEQEND
  8
0
  0
POLYLINE
  8
21
 66
1
 10
0.0000
 20
0.0000
 30
0.0000
 40
0.0000
 41
0.0000
 70
1
  0
VERTEX
  8
21
 10
-74.5160
 20
39.7728
 30
0.0000
  0
VERTEX
  8
21
 10
-69.6900
 20
39.7728
 30
0.0000
 42
1.0000
  0
VERTEX
  8
21
 10
-69.6900
 20
39.9252
 30
0.0000
  0
VERTEX
  8
21
 10
-74.5160
 20
39.9252
 30
0.0000
 42
1.0000
  0
SEQEND
  8
0
  0
POLYLINE
  8
21
 66
1
 10
0.0000
 20
0.0000
 30
0.0000
 40
0.0000
 41
0.0000
 70
1
  0
VERTEX
  8
21
 10
-69.6900
 20
30.2732
 30
0.0000
  0
VERTEX
  8
21
 10
-74.5160
 20
30.2732
 30
0.0000
 42
1.0000
  0
VERTEX
  8
21
 10
-74.5160
 20
30.1208
 30
0.0000
  0
VERTEX
  8
21
 10
-69.6900
 20
30.1208
 30
0.0000
 42
1.0000
  0
SEQEND
  8
0
  0
POLYLINE
  8
21
 66
1
 10
0.0000
 20
0.0000
 30
0.0000
 40
0.0000
 41
0.0000
 70
1
  0
VERTEX
  8
21
 10
-74.5922
 20
39.8490
 30
0.0000
  0
VERTEX
  8
21
 10
-74.5922
 20
37.0550
 30
0.0000
 42
1.0000
  0
VERTEX
  8
21
 10
-74.4398
 20
37.0550
 30
0.0000
  0
VERTEX
  8
21
 10
-74.4398
 20
39.8490
 30
0.0000
 42
1.0000
  0
SEQEND
  8
0
  0
POLYLINE
  8
21
 66
1
 10
0.0000
 20
0.0000
 30
0.0000
 40
0.0000
 41
0.0000
 70
1
  0
VERTEX
  8
21
 10
-69.6138
 20
30.1970
 30
0.0000
  0
VERTEX
  8
21
 10
-69.6138
 20
39.8490
 30
0.0000
 42
1.0000
  0
VERTEX
  8
21
 10
-69.7662
 20
39.8490
 30
0.0000
  0
VERTEX
  8
21
 10
-69.7662
 20
30.1970
 30
0.0000
 42
1.0000
  0
SEQEND
  8
0
  0
POLYLINE
  8
21
 66
1
 10
0.0000
 20
0.0000
 30
0.0000
 40
0.0000
 41
0.0000
 70
1
  0
VERTEX
  8
21
 10
-74.5160
 20
37.1312
 30
0.0000
  0
VERTEX
  8
21
 10
-74.6430
 20
37.1312
 30
0.0000
 42
1.0000
  0
VERTEX
  8
21
 10
-74.6430
 20
36.9788
 30
0.0000
  0
VERTEX
  8
21
 10
-74.5160
 20
36.9788
 30
0.0000
 42
1.0000
  0
SEQEND
  8
0
  0
POLYLINE
  8
21
 66
1
 10
0.0000
 20
0.0000
 30
0.0000
 40
0.0000
 41
0.0000
 70
1
  0
VERTEX
  8
21
 10
-74.5922
 20
37.0550
 30
0.0000
  0
VERTEX
  8
21
 10
-74.5922
 20
35.2770
 30
0.0000
 42
1.0000
  0
VERTEX
  8
21
 10
-74.4398
 20
35.2770
 30
0.0000
  0
VERTEX
  8
21
 10
-74.4398
 20
37.0550
 30
0.0000
 42
1.0000
  0
SEQEND
  8
0
  0
POLYLINE
  8
21
 66
1
 10
0.0000
 20
0.0000
 30
0.0000
 40
0.0000
 41
0.0000
 70
1
  0
VERTEX
  8
21
 10
-74.5922
 20
32.9910
 30
0.0000
  0
VERTEX
  8
21
 10
-74.5922
 20
30.1970
 30
0.0000
 42
1.0000
  0
VERTEX
  8
21
 10
-74.4398
 20
30.1970
 30
0.0000
  0
VERTEX
  8
21
 10
-74.4398
 20
32.9910
 30
0.0000
 42
1.0000
  0
SEQEND
  8
0
  0
POLYLINE
  8
21
 66
1
 10
0.0000
 20
0.0000
 30
0.0000
 40
0.0000
 41
0.0000
 70
1
  0
VERTEX
  8
21
 10
-74.7192
 20
37.0550
 30
0.0000
  0
VERTEX
  8
21
 10
-74.7192
 20
35.2770
 30
0.0000
 42
1.0000
  0
VERTEX
  8
21
 10
-74.5668
 20
35.2770
 30
0.0000
  0
VERTEX
  8
21
 10
-74.5668
 20
37.0550
 30
0.0000
 42
1.0000
  0
SEQEND
  8
0
  0
POLYLINE
  8
21
 66
1
 10
0.0000
 20
0.0000
 30
0.0000
 40
0.0000
 41
0.0000
 70
1
  0
VERTEX
  8
21
 10
-74.6430
 20
37.1312
 30
0.0000
  0
VERTEX
  8
21
 10
-74.7700
 20
37.1312
 30
0.0000
 42
1.0000
  0
VERTEX
  8
21
 10
-74.7700
 20
36.9788
 30
0.0000
  0
VERTEX
  8
21
 10
-74.6430
 20
36.9788
 30
0.0000
 42
1.0000
  0
SEQEND
  8
0
  0
POLYLINE
  8
21
 66
1
 10
0.0000
 20
0.0000
 30
0.0000
 40
0.0000
 41
0.0000
 70
1
  0
VERTEX
  8
21
 10
-74.7700
 20
32.9148
 30
0.0000
  0
VERTEX
  8
21
 10
-74.6430
 20
32.9148
 30
0.0000
 42
1.0000
  0
VERTEX
  8
21
 10
-74.6430
 20
33.0672
 30
0.0000
  0
VERTEX
  8
21
 10
-74.7700
 20
33.0672
 30
0.0000
 42
1.0000
  0
SEQEND
  8
0
  0
POLYLINE
  8
21
 66
1
 10
0.0000
 20
0.0000
 30
0.0000
 40
0.0000
 41
0.0000
 70
1
  0
VERTEX
  8
21
 10
-74.6430
 20
32.9148
 30
0.0000
  0
VERTEX
  8
21
 10
-74.5160
 20
32.9148
 30
0.0000
 42
1.0000
  0
VERTEX
  8
21
 10
-74.5160
 20
33.0672
 30
0.0000
  0
VERTEX
  8
21
 10
-74.6430
 20
33.0672
 30
0.0000
 42
1.0000
  0
SEQEND
  8
0
  0
POLYLINE
  8
21
 66
1
 10
0.0000
 20
0.0000
 30
0.0000
 40
0.0000
 41
0.0000
 70
1
  0
VERTEX
  8
21
 10
-74.6938
 20
32.9910
 30
0.0000
  0
VERTEX
  8
21
 10
-74.6938
 20
34.7690
 30
0.0000
 42
1.0000
  0
VERTEX
  8
21
 10
-74.8462
 20
34.7690
 30
0.0000
  0
VERTEX
  8
21
 10
-74.8462
 20
32.9910
 30
0.0000
 42
1.0000
  0
SEQEND
  8
0
  0
POLYLINE
  8
21
 66
1
 10
0.0000
 20
0.0000
 30
0.0000
 40
0.0000
 41
0.0000
 70
1
  0
VERTEX
  8
21
 10
-74.7700
 20
35.2008
 30
0.0000
  0
VERTEX
  8
21
 10
-74.6430
 20
35.2008
 30
0.0000
 42
1.0000
  0
VERTEX
  8
21
 10
-74.6430
 20
35.3532
 30
0.0000
  0
VERTEX
  8
21
 10
-74.7700
 20
35.3532
 30
0.0000
 42
1.0000
  0
SEQEND
  8
0
  0
POLYLINE
  8
21
 66
1
 10
0.0000
 20
0.0000
 30
0.0000
 40
0.0000
 41
0.0000
 70
1
  0
VERTEX
  8
21
 10
-74.6938
 20
35.2770
 30
0.0000
  0
VERTEX
  8
21
 10
-74.6938
 20
37.0550
 30
0.0000
 42
1.0000
  0
VERTEX
  8
21
 10
-74.8462
 20
37.0550
 30
0.0000
  0
VERTEX
  8
21
 10
-74.8462
 20
35.2770
 30
0.0000
 42
1.0000
  0
SEQEND
  8
0
  0
POLYLINE
  8
21
 66
1
 10
0.0000
 20
0.0000
 30
0.0000
 40
0.0000
 41
0.0000
 70
1
  0
VERTEX
  8
21
 10
-74.6430
 20
35.2008
 30
0.0000
  0
VERTEX
  8
21
 10
-74.5160
 20
35.2008
 30
0.0000
 42
1.0000
  0
VERTEX
  8
21
 10
-74.5160
 20
35.3532
 30
0.0000
  0
VERTEX
  8
21
 10
-74.6430
 20
35.3532
 30
0.0000
 42
1.0000
  0
SEQEND
  8
0
  0
POLYLINE
  8
21
 66
1
 10
0.0000
 20
0.0000
 30
0.0000
 40
0.0000
 41
0.0000
 70
1
  0
VERTEX
  8
21
 10
-74.5922
 20
35.2770
 30
0.0000
  0
VERTEX
  8
21
 10
-74.5922
 20
34.7690
 30
0.0000
 42
1.0000
  0
VERTEX
  8
21
 10
-74.4398
 20
34.7690
 30
0.0000
  0
VERTEX
  8
21
 10
-74.4398
 20
35.2770
 30
0.0000
 42
1.0000
  0
SEQEND
  8
0
  0
POLYLINE
  8
21
 66
1
 10
0.0000
 20
0.0000
 30
0.0000
 40
0.0000
 41
0.0000
 70
1
  0
VERTEX
  8
21
 10
-74.5922
 20
34.7690
 30
0.0000
  0
VERTEX
  8
21
 10
-74.5922
 20
32.9910
 30
0.0000
 42
1.0000
  0
VERTEX
  8
21
 10
-74.4398
 20
32.9910
 30
0.0000
  0
VERTEX
  8
21
 10
-74.4398
 20
34.7690
 30
0.0000
 42
1.0000
  0
SEQEND
  8
0
  0
POLYLINE
  8
21
 66
1
 10
0.0000
 20
0.0000
 30
0.0000
 40
0.0000
 41
0.0000
 70
1
  0
VERTEX
  8
21
 10
-74.7700
 20
34.6928
 30
0.0000
  0
VERTEX
  8
21
 10
-74.6430
 20
34.6928
 30
0.0000
 42
1.0000
  0
VERTEX
  8
21
 10
-74.6430
 20
34.8452
 30
0.0000
  0
VERTEX
  8
21
 10
-74.7700
 20
34.8452
 30
0.0000
 42
1.0000
  0
SEQEND
  8
0
  0
POLYLINE
  8
21
 66
1
 10
0.0000
 20
0.0000
 30
0.0000
 40
0.0000
 41
0.0000
 70
1
  0
VERTEX
  8
21
 10
-74.6430
 20
34.6928
 30
0.0000
  0
VERTEX
  8
21
 10
-74.5160
 20
34.6928
 30
0.0000
 42
1.0000
  0
VERTEX
  8
21
 10
-74.5160
 20
34.8452
 30
0.0000
  0
VERTEX
  8
21
 10
-74.6430
 20
34.8452
 30
0.0000
 42
1.0000
  0
SEQEND
  8
0
  0
POLYLINE
  8
21
 66
1
 10
0.0000
 20
0.0000
 30
0.0000
 40
0.0000
 41
0.0000
 70
1
  0
VERTEX
  8
21
 10
-74.7192
 20
34.7690
 30
0.0000
  0
VERTEX
  8
21
 10
-74.7192
 20
32.9910
 30
0.0000
 42
1.0000
  0
VERTEX
  8
21
 10
-74.5668
 20
32.9910
 30
0.0000
  0
VERTEX
  8
21
 10
-74.5668
 20
34.7690
 30
0.0000
 42
1.0000
  0
SEQEND
  8
0
  0
POLYLINE
  8
21
 66
1
 10
0.0000
 20
0.0000
 30
0.0000
 40
0.0000
 41
0.0000
 70
1
  0
VERTEX
  8
21
 10
-71.0429
 20
38.5340
 30
0.0000
  0
VERTEX
  8
21
 10
-71.2336
 20
38.7247
 30
0.0000
 42
1.0000
  0
VERTEX
  8
21
 10
-71.3234
 20
38.6349
 30
0.0000
  0
VERTEX
  8
21
 10
-71.1327
 20
38.4442
 30
0.0000
 42
1.0000
  0
SEQEND
  8
0
  0
POLYLINE
  8
21
 66
1
 10
0.0000
 20
0.0000
 30
0.0000
 40
0.0000
 41
0.0000
 70
1
  0
VERTEX
  8
21
 10
-71.2150
 20
38.6798
 30
0.0000
  0
VERTEX
  8
21
 10
-71.2150
 20
39.0611
 30
0.0000
 42
1.0000
  0
VERTEX
  8
21
 10
-71.3420
 20
39.0611
 30
0.0000
  0
VERTEX
  8
21
 10
-71.3420
 20
38.6798
 30
0.0000
 42
1.0000
  0
SEQEND
  8
0
  0
POLYLINE
  8
21
 66
1
 10
0.0000
 20
0.0000
 30
0.0000
 40
0.0000
 41
0.0000
 70
1
  0
VERTEX
  8
21
 10
-71.2336
 20
39.0162
 30
0.0000
  0
VERTEX
  8
21
 10
-71.0429
 20
39.2069
 30
0.0000
 42
1.0000
  0
VERTEX
  8
21
 10
-71.1327
 20
39.2967
 30
0.0000
  0
VERTEX
  8
21
 10
-71.3234
 20
39.1060
 30
0.0000
 42
1.0000
  0
SEQEND
  8
0
  0
POLYLINE
  8
21
 66
1
 10
0.0000
 20
0.0000
 30
0.0000
 40
0.0000
 41
0.0000
 70
1
  0
VERTEX
  8
21
 10
-71.0878
 20
39.1883
 30
0.0000
  0
VERTEX
  8
21
 10
-70.8971
 20
39.1883
 30
0.0000
 42
1.0000
  0
VERTEX
  8
21
 10
-70.8971
 20
39.3153
 30
0.0000
  0
VERTEX
  8
21
 10
-71.0878
 20
39.3153
 30
0.0000
 42
1.0000
  0
SEQEND
  8
0
  0
POLYLINE
  8
21
 66
1
 10
0.0000
 20
0.0000
 30
0.0000
 40
0.0000
 41
0.0000
 70
1
  0
VERTEX
  8
21
 10
-70.9421
 20
39.2069
 30
0.0000
  0
VERTEX
  8
21
 10
-70.7514
 20
39.0162
 30
0.0000
 42
1.0000
  0
VERTEX
  8
21
 10
-70.6616
 20
39.1060
 30
0.0000
  0
VERTEX
  8
21
 10
-70.8522
 20
39.2967
 30
0.0000
 42
1.0000
  0
SEQEND
  8
0
  0
POLYLINE
  8
21
 66
1
 10
0.0000
 20
0.0000
 30
0.0000
 40
0.0000
 41
0.0000
 70
1
  0
VERTEX
  8
21
 10
-70.7700
 20
39.0611
 30
0.0000
  0
VERTEX
  8
21
 10
-70.7700
 20
38.8704
 30
0.0000
 42
1.0000
  0
VERTEX
  8
21
 10
-70.6430
 20
38.8704
 30
0.0000
  0
VERTEX
  8
21
 10
-70.6430
 20
39.0611
 30
0.0000
 42
1.0000
  0
SEQEND
  8
0
  0
POLYLINE
  8
21
 66
1
 10
0.0000
 20
0.0000
 30
0.0000
 40
0.0000
 41
0.0000
 70
1
  0
VERTEX
  8
21
 10
-70.6616
 20
39.0162
 30
0.0000
  0
VERTEX
  8
21
 10
-70.4709
 20
39.2069
 30
0.0000
 42
1.0000
  0
VERTEX
  8
21
 10
-70.5607
 20
39.2967
 30
0.0000
  0
VERTEX
  8
21
 10
-70.7514
 20
39.1060
 30
0.0000
 42
1.0000
  0
SEQEND
  8
0
  0
POLYLINE
  8
21
 66
1
 10
0.0000
 20
0.0000
 30
0.0000
 40
0.0000
 41
0.0000
 70
1
  0
VERTEX
  8
21
 10
-70.5158
 20
39.1883
 30
0.0000
  0
VERTEX
  8
21
 10
-70.3252
 20
39.1883
 30
0.0000
 42
1.0000
  0
VERTEX
  8
21
 10
-70.3252
 20
39.3153
 30
0.0000
  0
VERTEX
  8
21
 10
-70.5158
 20
39.3153
 30
0.0000
 42
1.0000
  0
SEQEND
  8
0
  0
POLYLINE
  8
21
 66
1
 10
0.0000
 20
0.0000
 30
0.0000
 40
0.0000
 41
0.0000
 70
1
  0
VERTEX
  8
21
 10
-70.3701
 20
39.2069
 30
0.0000
  0
VERTEX
  8
21
 10
-70.1794
 20
39.0162
 30
0.0000
 42
1.0000
  0
VERTEX
  8
21
 10
-70.0896
 20
39.1060
 30
0.0000
  0
VERTEX
  8
21
 10
-70.2803
 20
39.2967
 30
0.0000
 42
1.0000
  0
SEQEND
  8
0
  0
POLYLINE
  8
21
 66
1
 10
0.0000
 20
0.0000
 30
0.0000
 40
0.0000
 41
0.0000
 70
1
  0
VERTEX
  8
21
 10
-70.1980
 20
39.0611
 30
0.0000
  0
VERTEX
  8
21
 10
-70.1980
 20
38.6798
 30
0.0000
 42
1.0000
  0
VERTEX
  8
21
 10
-70.0710
 20
38.6798
 30
0.0000
  0
VERTEX
  8
21
 10
-70.0710
 20
39.0611
 30
0.0000
 42
1.0000
  0
SEQEND
  8
0
  0
POLYLINE
  8
21
 66
1
 10
0.0000
 20
0.0000
 30
0.0000
 40
0.0000
 41
0.0000
 70
1
  0
VERTEX
  8
21
 10
-70.1794
 20
38.7247
 30
0.0000
  0
VERTEX
  8
21
 10
-70.3701
 20
38.5340
 30
0.0000
 42
1.0000
  0
VERTEX
  8
21
 10
-70.2803
 20
38.4442
 30
0.0000
  0
VERTEX
  8
21
 10
-70.0896
 20
38.6349
 30
0.0000
 42
1.0000
  0
SEQEND
  8
0
  0
POLYLINE
  8
21
 66
1
 10
0.0000
 20
0.0000
 30
0.0000
 40
0.0000
 41
0.0000
 70
1
  0
VERTEX
  8
21
 10
-70.8522
 20
30.4060
 30
0.0000
  0
VERTEX
  8
21
 10
-71.2336
 20
30.7873
 30
0.0000
 42
1.0000
  0
VERTEX
  8
21
 10
-71.3234
 20
30.6975
 30
0.0000
  0
VERTEX
  8
21
 10
-70.9421
 20
30.3162
 30
0.0000
 42
1.0000
  0
SEQEND
  8
0
  0
POLYLINE
  8
21
 66
1
 10
0.0000
 20
0.0000
 30
0.0000
 40
0.0000
 41
0.0000
 70
1
  0
VERTEX
  8
21
 10
-71.2785
 20
30.6789
 30
0.0000
  0
VERTEX
  8
21
 10
-70.1345
 20
30.6789
 30
0.0000
 42
1.0000
  0
VERTEX
  8
21
 10
-70.1345
 20
30.8059
 30
0.0000
  0
VERTEX
  8
21
 10
-71.2785
 20
30.8059
 30
0.0000
 42
1.0000
  0
SEQEND
  8
0
  0
POLYLINE
  8
21
 66
1
 10
0.0000
 20
0.0000
 30
0.0000
 40
0.0000
 41
0.0000
 70
1
  0
VERTEX
  8
21
 10
-70.0710
 20
30.3611
 30
0.0000
  0
VERTEX
  8
21
 10
-70.0710
 20
31.1238
 30
0.0000
 42
1.0000
  0
VERTEX
  8
21
 10
-70.1980
 20
31.1238
 30
0.0000
  0
VERTEX
  8
21
 10
-70.1980
 20
30.3611
 30
0.0000
 42
1.0000
  0
SEQEND
  8
0
  0
ENDSEC
  0
EOF
