  0
SECTION
  2
HEADER
  9
$ACADVER
  1
AC1009
  9
$FILLMODE
 70
0
  9
$EXTMIN
 10
-105.1555
 20
-28.7980
 30
0.0000
  9
$EXTMAX
 10
0.4452
 20
82.2238
 30
0.0000
  0
ENDSEC
  0
SECTION
  2
TABLES
  0
TABLE
  2
LTYPE
 70
1
  0
LTYPE
  2
CONTINUOUS
 70
64
  3
Solid line
 72
65
 73
0
 40
0
  0
ENDTAB
  0
TABLE
  2
LAYER
 70
255
  0
LAYER
  2
31
 70
64
 62
251
  6
CONTINUOUS
  0
ENDTAB
  0
ENDSEC
  0
SECTION
  2
BLOCKS
  0
BLOCK
  8
0
  2
RECT
 70
64
 10
0.0000
 20
0.0000
 30
0.0000
  3
RECT
  0
SOLID
  8
0
 10
-0.5000
 20
-0.5000
 30
0.0000
 11
0.5000
 21
-0.5000
 31
0.0000
 12
-0.5000
 22
0.5000
 32
0.0000
 13
0.5000
 23
0.5000
 33
0.0000
  0
ENDBLK
  8
0
  0
BLOCK
  8
0
  2
PIE
 70
64
 10
0.0000
 20
0.0000
 30
0.0000
  3
PIE
  0
CIRCLE
  8
0
 10
0.0000
 20
0.0000
 30
0.0000
 40
0.5000
  0
ENDBLK
  8
0
  0
BLOCK
  8
0
  2
OCTAGONP
 70
64
 10
0.0000
 20
0.0000
 30
0.0000
  3
OCTAGONP
  0
POLYLINE
  8
0
 66
1
 10
0.0000
 20
0.0000
 30
0.0000
 40
0.0000
 41
0.0000
 70
1
  0
VERTEX
  8
0
 10
-0.5000
 20
-0.2071
 30
0.0000
  0
VERTEX
  8
0
 10
-0.5000
 20
0.2071
 30
0.0000
  0
VERTEX
  8
0
 10
-0.2071
 20
0.5000
 30
0.0000
  0
VERTEX
  8
0
 10
0.2071
 20
0.5000
 30
0.0000
  0
VERTEX
  8
0
 10
0.5000
 20
0.2071
 30
0.0000
  0
VERTEX
  8
0
 10
0.5000
 20
-0.2071
 30
0.0000
  0
VERTEX
  8
0
 10
0.2071
 20
-0.5000
 30
0.0000
  0
VERTEX
  8
0
 10
-0.2071
 20
-0.5000
 30
0.0000
  0
SEQEND
  8
0
  0
ENDBLK
  8
0
  0
BLOCK
  8
0
  2
SQUAREP
 70
64
 10
0.0000
 20
0.0000
 30
0.0000
  3
SQUAREP
  0
SOLID
  8
0
 10
-0.5000
 20
-0.5000
 30
0.0000
 11
0.5000
 21
-0.5000
 31
0.0000
 12
-0.5000
 22
0.5000
 32
0.0000
 13
0.5000
 23
0.5000
 33
0.0000
  0
ENDBLK
  8
0
  0
BLOCK
  8
0
  2
ROUNDP
 70
64
 10
0.0000
 20
0.0000
 30
0.0000
  3
ROUNDP
  0
CIRCLE
  8
0
 10
0.0000
 20
0.0000
 30
0.0000
 40
0.5000
  0
ENDBLK
  8
0
  0
BLOCK
  8
0
  2
ANNULUSP
 70
64
 10
0.0000
 20
0.0000
 30
0.0000
  3
ANNULUSP
  0
CIRCLE
  8
0
 10
0.0000
 20
0.0000
 30
0.0000
 40
0.5000
  0
ENDBLK
  8
0
  0
BLOCK
  8
0
  2
THERMALP
 70
64
 10
0.0000
 20
0.0000
 30
0.0000
  3
THERMALP
  0
POLYLINE
  8
0
 66
1
 10
0.0000
 20
0.0000
 30
0.0000
 40
0.0000
 41
0.0000
 70
1
  0
VERTEX
  8
0
 10
-0.2379
 20
0.4000
 30
0.0000
  0
VERTEX
  8
0
 10
0.2379
 20
0.4000
 30
0.0000
 42
1.0000
  0
VERTEX
  8
0
 10
0.2379
 20
0.5000
 30
0.0000
  0
VERTEX
  8
0
 10
-0.2379
 20
0.5000
 30
0.0000
 42
1.0000
  0
SEQEND
  8
0
  0
POLYLINE
  8
0
 66
1
 10
0.0000
 20
0.0000
 30
0.0000
 40
0.0000
 41
0.0000
 70
1
  0
VERTEX
  8
0
 10
0.4000
 20
0.2379
 30
0.0000
  0
VERTEX
  8
0
 10
0.4000
 20
-0.2379
 30
0.0000
 42
1.0000
  0
VERTEX
  8
0
 10
0.5000
 20
-0.2379
 30
0.0000
  0
VERTEX
  8
0
 10
0.5000
 20
0.2379
 30
0.0000
 42
1.0000
  0
SEQEND
  8
0
  0
POLYLINE
  8
0
 66
1
 10
0.0000
 20
0.0000
 30
0.0000
 40
0.0000
 41
0.0000
 70
1
  0
VERTEX
  8
0
 10
0.2379
 20
-0.4000
 30
0.0000
  0
VERTEX
  8
0
 10
-0.2379
 20
-0.4000
 30
0.0000
 42
1.0000
  0
VERTEX
  8
0
 10
-0.2379
 20
-0.5000
 30
0.0000
  0
VERTEX
  8
0
 10
0.2379
 20
-0.5000
 30
0.0000
 42
1.0000
  0
SEQEND
  8
0
  0
POLYLINE
  8
0
 66
1
 10
0.0000
 20
0.0000
 30
0.0000
 40
0.0000
 41
0.0000
 70
1
  0
VERTEX
  8
0
 10
-0.4000
 20
-0.2379
 30
0.0000
  0
VERTEX
  8
0
 10
-0.4000
 20
0.2379
 30
0.0000
 42
1.0000
  0
VERTEX
  8
0
 10
-0.5000
 20
0.2379
 30
0.0000
  0
VERTEX
  8
0
 10
-0.5000
 20
-0.2379
 30
0.0000
 42
1.0000
  0
SEQEND
  8
0
  0
ENDBLK
  8
0
  0
BLOCK
  8
0
  2
OCTAGONV
 70
64
 10
0.0000
 20
0.0000
 30
0.0000
  3
OCTAGONV
  0
POLYLINE
  8
0
 66
1
 10
0.0000
 20
0.0000
 30
0.0000
 40
0.0000
 41
0.0000
 70
1
  0
VERTEX
  8
0
 10
-0.5000
 20
-0.2071
 30
0.0000
  0
VERTEX
  8
0
 10
-0.5000
 20
0.2071
 30
0.0000
  0
VERTEX
  8
0
 10
-0.2071
 20
0.5000
 30
0.0000
  0
VERTEX
  8
0
 10
0.2071
 20
0.5000
 30
0.0000
  0
VERTEX
  8
0
 10
0.5000
 20
0.2071
 30
0.0000
  0
VERTEX
  8
0
 10
0.5000
 20
-0.2071
 30
0.0000
  0
VERTEX
  8
0
 10
0.2071
 20
-0.5000
 30
0.0000
  0
VERTEX
  8
0
 10
-0.2071
 20
-0.5000
 30
0.0000
  0
SEQEND
  8
0
  0
ENDBLK
  8
0
  0
BLOCK
  8
0
  2
SQUAREV
 70
64
 10
0.0000
 20
0.0000
 30
0.0000
  3
SQUAREV
  0
SOLID
  8
0
 10
-0.5000
 20
-0.5000
 30
0.0000
 11
0.5000
 21
-0.5000
 31
0.0000
 12
-0.5000
 22
0.5000
 32
0.0000
 13
0.5000
 23
0.5000
 33
0.0000
  0
ENDBLK
  8
0
  0
BLOCK
  8
0
  2
ROUNDV
 70
64
 10
0.0000
 20
0.0000
 30
0.0000
  3
ROUNDV
  0
CIRCLE
  8
0
 10
0.0000
 20
0.0000
 30
0.0000
 40
0.5000
  0
ENDBLK
  8
0
  0
BLOCK
  8
0
  2
ANNULUSV
 70
64
 10
0.0000
 20
0.0000
 30
0.0000
  3
ANNULUSV
  0
CIRCLE
  8
0
 10
0.0000
 20
0.0000
 30
0.0000
 40
0.5000
  0
ENDBLK
  8
0
  0
BLOCK
  8
0
  2
THERMALV
 70
64
 10
0.0000
 20
0.0000
 30
0.0000
  3
THERMALV
  0
POLYLINE
  8
0
 66
1
 10
0.0000
 20
0.0000
 30
0.0000
 40
0.0000
 41
0.0000
 70
1
  0
VERTEX
  8
0
 10
-0.2379
 20
0.4000
 30
0.0000
  0
VERTEX
  8
0
 10
0.2379
 20
0.4000
 30
0.0000
 42
1.0000
  0
VERTEX
  8
0
 10
0.2379
 20
0.5000
 30
0.0000
  0
VERTEX
  8
0
 10
-0.2379
 20
0.5000
 30
0.0000
 42
1.0000
  0
SEQEND
  8
0
  0
POLYLINE
  8
0
 66
1
 10
0.0000
 20
0.0000
 30
0.0000
 40
0.0000
 41
0.0000
 70
1
  0
VERTEX
  8
0
 10
0.4000
 20
0.2379
 30
0.0000
  0
VERTEX
  8
0
 10
0.4000
 20
-0.2379
 30
0.0000
 42
1.0000
  0
VERTEX
  8
0
 10
0.5000
 20
-0.2379
 30
0.0000
  0
VERTEX
  8
0
 10
0.5000
 20
0.2379
 30
0.0000
 42
1.0000
  0
SEQEND
  8
0
  0
POLYLINE
  8
0
 66
1
 10
0.0000
 20
0.0000
 30
0.0000
 40
0.0000
 41
0.0000
 70
1
  0
VERTEX
  8
0
 10
0.2379
 20
-0.4000
 30
0.0000
  0
VERTEX
  8
0
 10
-0.2379
 20
-0.4000
 30
0.0000
 42
1.0000
  0
VERTEX
  8
0
 10
-0.2379
 20
-0.5000
 30
0.0000
  0
VERTEX
  8
0
 10
0.2379
 20
-0.5000
 30
0.0000
 42
1.0000
  0
SEQEND
  8
0
  0
POLYLINE
  8
0
 66
1
 10
0.0000
 20
0.0000
 30
0.0000
 40
0.0000
 41
0.0000
 70
1
  0
VERTEX
  8
0
 10
-0.4000
 20
-0.2379
 30
0.0000
  0
VERTEX
  8
0
 10
-0.4000
 20
0.2379
 30
0.0000
 42
1.0000
  0
VERTEX
  8
0
 10
-0.5000
 20
0.2379
 30
0.0000
  0
VERTEX
  8
0
 10
-0.5000
 20
-0.2379
 30
0.0000
 42
1.0000
  0
SEQEND
  8
0
  0
ENDBLK
  8
0
  0
BLOCK
  8
0
  2
LONGP100
 70
64
 10
0.0000
 20
0.0000
 30
0.0000
  3
LONGP100
  0
POLYLINE
  8
0
 66
1
 10
0.0000
 20
0.0000
 30
0.0000
 40
0.0000
 41
0.0000
 70
1
  0
VERTEX
  8
0
 10
-0.5000
 20
-0.5000
 30
0.0000
  0
VERTEX
  8
0
 10
0.5000
 20
-0.5000
 30
0.0000
 42
1.0000
  0
VERTEX
  8
0
 10
0.5000
 20
0.5000
 30
0.0000
  0
VERTEX
  8
0
 10
-0.5000
 20
0.5000
 30
0.0000
 42
1.0000
  0
SEQEND
  8
0
  0
ENDBLK
  8
0
  0
BLOCK
  8
0
  2
RECT162560X223520R25
 70
64
 10
0.0000
 20
0.0000
 30
0.0000
  3
RECT162560X223520R25
  0
POLYLINE
  8
0
 66
1
 10
0.0000
 20
0.0000
 30
0.0000
 40
0.0000
 41
0.0000
 70
1
  0
VERTEX
  8
0
 10
0.5080
 20
-0.5715
 30
0.0000
  0
VERTEX
  8
0
 10
0.5080
 20
0.5715
 30
0.0000
 42
0.4142
  0
VERTEX
  8
0
 10
0.3810
 20
0.6985
 30
0.0000
  0
VERTEX
  8
0
 10
-0.3810
 20
0.6985
 30
0.0000
 42
0.4142
  0
VERTEX
  8
0
 10
-0.5080
 20
0.5715
 30
0.0000
  0
VERTEX
  8
0
 10
-0.5080
 20
-0.5715
 30
0.0000
 42
0.4142
  0
VERTEX
  8
0
 10
-0.3810
 20
-0.6985
 30
0.0000
  0
VERTEX
  8
0
 10
0.3810
 20
-0.6985
 30
0.0000
 42
0.4142
  0
SEQEND
  8
0
  0
ENDBLK
  8
0
  0
BLOCK
  8
0
  2
RECT0X0R100
 70
64
 10
0.0000
 20
0.0000
 30
0.0000
  3
RECT0X0R100
  0
POLYLINE
  8
0
 66
1
 10
0.0000
 20
0.0000
 30
0.0000
 40
0.0000
 41
0.0000
 70
1
  0
VERTEX
  8
0
 10
0.0000
 20
0.0000
 30
0.0000
  0
VERTEX
  8
0
 10
0.0000
 20
0.0000
 30
0.0000
 42
0.4142
  0
VERTEX
  8
0
 10
0.0000
 20
0.0000
 30
0.0000
  0
VERTEX
  8
0
 10
0.0000
 20
0.0000
 30
0.0000
 42
0.4142
  0
VERTEX
  8
0
 10
0.0000
 20
0.0000
 30
0.0000
  0
VERTEX
  8
0
 10
0.0000
 20
0.0000
 30
0.0000
 42
0.4142
  0
VERTEX
  8
0
 10
0.0000
 20
0.0000
 30
0.0000
  0
VERTEX
  8
0
 10
0.0000
 20
0.0000
 30
0.0000
 42
0.4142
  0
SEQEND
  8
0
  0
ENDBLK
  8
0
  0
BLOCK
  8
0
  2
RECT325120X584000R75
 70
64
 10
0.0000
 20
0.0000
 30
0.0000
  3
RECT325120X584000R75
  0
POLYLINE
  8
0
 66
1
 10
0.0000
 20
0.0000
 30
0.0000
 40
0.0000
 41
0.0000
 70
1
  0
VERTEX
  8
0
 10
1.0160
 20
-1.0630
 30
0.0000
  0
VERTEX
  8
0
 10
1.0160
 20
1.0630
 30
0.0000
 42
0.4142
  0
VERTEX
  8
0
 10
0.2540
 20
1.8250
 30
0.0000
  0
VERTEX
  8
0
 10
-0.2540
 20
1.8250
 30
0.0000
 42
0.4142
  0
VERTEX
  8
0
 10
-1.0160
 20
1.0630
 30
0.0000
  0
VERTEX
  8
0
 10
-1.0160
 20
-1.0630
 30
0.0000
 42
0.4142
  0
VERTEX
  8
0
 10
-0.2540
 20
-1.8250
 30
0.0000
  0
VERTEX
  8
0
 10
0.2540
 20
-1.8250
 30
0.0000
 42
0.4142
  0
SEQEND
  8
0
  0
ENDBLK
  8
0
  0
ENDSEC
  0
SECTION
  2
ENTITIES
  0
INSERT
  8
31
  2
RECT
 10
-23.1960
 20
76.8380
 30
0.0000
 41
0.7620
 42
1.5240
 43
1.0000
 50
0.0000
  0
INSERT
  8
31
  2
RECT
 10
-21.6720
 20
76.8380
 30
0.0000
 41
0.7620
 42
1.5240
 43
1.0000
 50
0.0000
  0
INSERT
  8
31
  2
RECT
 10
-20.4020
 20
80.6480
 30
0.0000
 41
0.7620
 42
1.5240
 43
1.0000
 50
270.0000
  0
INSERT
  8
31
  2
RECT
 10
-20.4020
 20
79.1240
 30
0.0000
 41
0.7620
 42
1.5240
 43
1.0000
 50
270.0000
  0
INSERT
  8
31
  2
RECT
 10
-27.0200
 20
79.3780
 30
0.0000
 41
1.6000
 42
1.4000
 43
1.0000
 50
0.0000
  0
INSERT
  8
31
  2
RECT
 10
-22.4200
 20
79.3780
 30
0.0000
 41
1.6000
 42
1.4000
 43
1.0000
 50
0.0000
  0
INSERT
  8
31
  2
RECT
 10
-19.1320
 20
75.8220
 30
0.0000
 41
0.7620
 42
1.5240
 43
1.0000
 50
0.0000
  0
INSERT
  8
31
  2
RECT
 10
-17.6080
 20
75.8220
 30
0.0000
 41
0.7620
 42
1.5240
 43
1.0000
 50
0.0000
  0
INSERT
  8
31
  2
RECT
 10
-11.5120
 20
80.6480
 30
0.0000
 41
0.7620
 42
1.5240
 43
1.0000
 50
270.0000
  0
INSERT
  8
31
  2
RECT
 10
-11.5120
 20
79.1240
 30
0.0000
 41
0.7620
 42
1.5240
 43
1.0000
 50
270.0000
  0
INSERT
  8
31
  2
RECT
 10
-18.1300
 20
79.3780
 30
0.0000
 41
1.6000
 42
1.4000
 43
1.0000
 50
0.0000
  0
INSERT
  8
31
  2
RECT
 10
-13.5300
 20
79.3780
 30
0.0000
 41
1.6000
 42
1.4000
 43
1.0000
 50
0.0000
  0
INSERT
  8
31
  2
RECT
 10
-94.1910
 20
2.6120
 30
0.0000
 41
1.6000
 42
1.4000
 43
1.0000
 50
270.0000
  0
INSERT
  8
31
  2
RECT
 10
-94.1910
 20
-1.9880
 30
0.0000
 41
1.6000
 42
1.4000
 43
1.0000
 50
270.0000
  0
INSERT
  8
31
  2
RECT
 10
-92.2200
 20
4.6300
 30
0.0000
 41
1.6000
 42
1.4000
 43
1.0000
 50
0.0000
  0
INSERT
  8
31
  2
RECT
 10
-87.6200
 20
4.6300
 30
0.0000
 41
1.6000
 42
1.4000
 43
1.0000
 50
0.0000
  0
INSERT
  8
31
  2
RECT
 10
-87.2060
 20
8.1860
 30
0.0000
 41
0.7620
 42
1.5240
 43
1.0000
 50
180.0000
  0
INSERT
  8
31
  2
RECT
 10
-88.7300
 20
8.1860
 30
0.0000
 41
0.7620
 42
1.5240
 43
1.0000
 50
180.0000
  0
INSERT
  8
31
  2
RECT
 10
-94.8260
 20
7.0430
 30
0.0000
 41
0.7620
 42
1.5240
 43
1.0000
 50
90.0000
  0
INSERT
  8
31
  2
RECT
 10
-94.8260
 20
8.5670
 30
0.0000
 41
0.7620
 42
1.5240
 43
1.0000
 50
90.0000
  0
INSERT
  8
31
  2
RECT
 10
-8.7180
 20
75.9350
 30
0.0000
 41
1.6000
 42
1.4000
 43
1.0000
 50
90.0000
  0
INSERT
  8
31
  2
RECT
 10
-8.7180
 20
80.5350
 30
0.0000
 41
1.6000
 42
1.4000
 43
1.0000
 50
90.0000
  0
INSERT
  8
31
  2
RECT
 10
-6.0650
 20
76.5840
 30
0.0000
 41
1.6000
 42
1.4000
 43
1.0000
 50
0.0000
  0
INSERT
  8
31
  2
RECT
 10
-1.4650
 20
76.5840
 30
0.0000
 41
1.6000
 42
1.4000
 43
1.0000
 50
0.0000
  0
INSERT
  8
31
  2
RECT
 10
-3.8920
 20
79.6320
 30
0.0000
 41
0.7620
 42
1.5240
 43
1.0000
 50
180.0000
  0
INSERT
  8
31
  2
RECT
 10
-5.4160
 20
79.6320
 30
0.0000
 41
0.7620
 42
1.5240
 43
1.0000
 50
180.0000
  0
INSERT
  8
31
  2
RECT162560X223520R25
 10
-2.1440
 20
54.2290
 30
0.0000
 41
1.0000
 42
1.0000
 43
1.0000
 50
270.0000
  0
INSERT
  8
31
  2
RECT162560X223520R25
 10
-2.1440
 20
52.4510
 30
0.0000
 41
1.0000
 42
1.0000
 43
1.0000
 50
270.0000
  0
INSERT
  8
31
  2
RECT
 10
-25.0040
 20
19.3280
 30
0.0000
 41
1.5000
 42
2.0000
 43
1.0000
 50
90.0000
  0
INSERT
  8
31
  2
RECT
 10
-25.0040
 20
22.3280
 30
0.0000
 41
1.5000
 42
2.0000
 43
1.0000
 50
90.0000
  0
INSERT
  8
31
  2
RECT162560X223520R25
 10
-93.9200
 20
27.1486
 30
0.0000
 41
1.0000
 42
1.0000
 43
1.0000
 50
90.0000
  0
INSERT
  8
31
  2
RECT162560X223520R25
 10
-93.9200
 20
28.9266
 30
0.0000
 41
1.0000
 42
1.0000
 43
1.0000
 50
90.0000
  0
INSERT
  8
31
  2
RECT
 10
-71.0600
 20
62.0496
 30
0.0000
 41
1.5000
 42
2.0000
 43
1.0000
 50
270.0000
  0
INSERT
  8
31
  2
RECT
 10
-71.0600
 20
59.0496
 30
0.0000
 41
1.5000
 42
2.0000
 43
1.0000
 50
270.0000
  0
INSERT
  8
31
  2
RECT
 10
-41.5420
 20
-10.8940
 30
0.0000
 41
1.3000
 42
1.6000
 43
1.0000
 50
0.0000
  0
INSERT
  8
31
  2
RECT
 10
-39.5420
 20
-10.8940
 30
0.0000
 41
1.3000
 42
1.6000
 43
1.0000
 50
0.0000
  0
INSERT
  8
31
  2
RECT
 10
-12.5860
 20
-10.8940
 30
0.0000
 41
1.3000
 42
1.6000
 43
1.0000
 50
0.0000
  0
INSERT
  8
31
  2
RECT
 10
-10.5860
 20
-10.8940
 30
0.0000
 41
1.3000
 42
1.6000
 43
1.0000
 50
0.0000
  0
INSERT
  8
31
  2
RECT
 10
-41.3420
 20
-6.3220
 30
0.0000
 41
1.3000
 42
1.6000
 43
1.0000
 50
0.0000
  0
INSERT
  8
31
  2
RECT
 10
-39.3420
 20
-6.3220
 30
0.0000
 41
1.3000
 42
1.6000
 43
1.0000
 50
0.0000
  0
INSERT
  8
31
  2
RECT
 10
-10.7800
 20
19.0940
 30
0.0000
 41
1.7700
 42
2.2000
 43
1.0000
 50
180.0000
  0
INSERT
  8
31
  2
RECT
 10
-10.7800
 20
23.5780
 30
0.0000
 41
1.7700
 42
2.2000
 43
1.0000
 50
180.0000
  0
INSERT
  8
31
  2
RECT
 10
-15.8600
 20
19.0940
 30
0.0000
 41
1.7700
 42
2.2000
 43
1.0000
 50
180.0000
  0
INSERT
  8
31
  2
RECT
 10
-15.8600
 20
23.5780
 30
0.0000
 41
1.7700
 42
2.2000
 43
1.0000
 50
180.0000
  0
INSERT
  8
31
  2
RECT
 10
-20.9400
 20
28.2380
 30
0.0000
 41
1.7700
 42
2.2000
 43
1.0000
 50
180.0000
  0
INSERT
  8
31
  2
RECT
 10
-20.9400
 20
32.7220
 30
0.0000
 41
1.7700
 42
2.2000
 43
1.0000
 50
180.0000
  0
INSERT
  8
31
  2
RECT
 10
-15.8600
 20
28.2380
 30
0.0000
 41
1.7700
 42
2.2000
 43
1.0000
 50
180.0000
  0
INSERT
  8
31
  2
RECT
 10
-15.8600
 20
32.7220
 30
0.0000
 41
1.7700
 42
2.2000
 43
1.0000
 50
180.0000
  0
INSERT
  8
31
  2
RECT
 10
-10.7800
 20
28.2380
 30
0.0000
 41
1.7700
 42
2.2000
 43
1.0000
 50
180.0000
  0
INSERT
  8
31
  2
RECT
 10
-10.7800
 20
32.7220
 30
0.0000
 41
1.7700
 42
2.2000
 43
1.0000
 50
180.0000
  0
INSERT
  8
31
  2
RECT
 10
-20.9400
 20
19.0940
 30
0.0000
 41
1.7700
 42
2.2000
 43
1.0000
 50
180.0000
  0
INSERT
  8
31
  2
RECT
 10
-20.9400
 20
23.5780
 30
0.0000
 41
1.7700
 42
2.2000
 43
1.0000
 50
180.0000
  0
INSERT
  8
31
  2
RECT
 10
-31.1000
 20
17.7900
 30
0.0000
 41
1.8000
 42
2.2000
 43
1.0000
 50
90.0000
  0
INSERT
  8
31
  2
RECT
 10
-31.1000
 20
12.6900
 30
0.0000
 41
1.8000
 42
2.2000
 43
1.0000
 50
90.0000
  0
INSERT
  8
31
  2
RECT
 10
-85.2840
 20
62.2836
 30
0.0000
 41
1.7700
 42
2.2000
 43
1.0000
 50
0.0000
  0
INSERT
  8
31
  2
RECT
 10
-85.2840
 20
57.7996
 30
0.0000
 41
1.7700
 42
2.2000
 43
1.0000
 50
0.0000
  0
INSERT
  8
31
  2
RECT
 10
-80.2040
 20
62.2836
 30
0.0000
 41
1.7700
 42
2.2000
 43
1.0000
 50
0.0000
  0
INSERT
  8
31
  2
RECT
 10
-80.2040
 20
57.7996
 30
0.0000
 41
1.7700
 42
2.2000
 43
1.0000
 50
0.0000
  0
INSERT
  8
31
  2
RECT
 10
-75.1240
 20
53.1396
 30
0.0000
 41
1.7700
 42
2.2000
 43
1.0000
 50
0.0000
  0
INSERT
  8
31
  2
RECT
 10
-75.1240
 20
48.6556
 30
0.0000
 41
1.7700
 42
2.2000
 43
1.0000
 50
0.0000
  0
INSERT
  8
31
  2
RECT
 10
-80.2040
 20
53.1396
 30
0.0000
 41
1.7700
 42
2.2000
 43
1.0000
 50
0.0000
  0
INSERT
  8
31
  2
RECT
 10
-80.2040
 20
48.6556
 30
0.0000
 41
1.7700
 42
2.2000
 43
1.0000
 50
0.0000
  0
INSERT
  8
31
  2
RECT
 10
-85.2840
 20
53.1396
 30
0.0000
 41
1.7700
 42
2.2000
 43
1.0000
 50
0.0000
  0
INSERT
  8
31
  2
RECT
 10
-85.2840
 20
48.6556
 30
0.0000
 41
1.7700
 42
2.2000
 43
1.0000
 50
0.0000
  0
INSERT
  8
31
  2
RECT
 10
-75.1240
 20
62.2836
 30
0.0000
 41
1.7700
 42
2.2000
 43
1.0000
 50
0.0000
  0
INSERT
  8
31
  2
RECT
 10
-75.1240
 20
57.7996
 30
0.0000
 41
1.7700
 42
2.2000
 43
1.0000
 50
0.0000
  0
INSERT
  8
31
  2
RECT
 10
-64.9640
 20
63.5876
 30
0.0000
 41
1.8000
 42
2.2000
 43
1.0000
 50
270.0000
  0
INSERT
  8
31
  2
RECT
 10
-64.9640
 20
68.6876
 30
0.0000
 41
1.8000
 42
2.2000
 43
1.0000
 50
270.0000
  0
INSERT
  8
31
  2
RECT
 10
-55.5460
 20
-6.1242
 30
0.0000
 41
1.7700
 42
2.2000
 43
1.0000
 50
90.0000
  0
INSERT
  8
31
  2
RECT
 10
-51.0620
 20
-6.1242
 30
0.0000
 41
1.7700
 42
2.2000
 43
1.0000
 50
90.0000
  0
INSERT
  8
31
  2
RECT
 10
-7.5660
 20
-6.3220
 30
0.0000
 41
1.7700
 42
2.2000
 43
1.0000
 50
270.0000
  0
INSERT
  8
31
  2
RECT
 10
-12.0500
 20
-6.3220
 30
0.0000
 41
1.7700
 42
2.2000
 43
1.0000
 50
270.0000
  0
INSERT
  8
31
  2
RECT
 10
-17.1300
 20
43.4280
 30
0.0000
 41
0.6000
 42
2.2000
 43
1.0000
 50
0.0000
  0
INSERT
  8
31
  2
RECT
 10
-15.8600
 20
43.4280
 30
0.0000
 41
0.6000
 42
2.2000
 43
1.0000
 50
0.0000
  0
INSERT
  8
31
  2
RECT
 10
-14.5900
 20
43.4280
 30
0.0000
 41
0.6000
 42
2.2000
 43
1.0000
 50
0.0000
  0
INSERT
  8
31
  2
RECT
 10
-13.3200
 20
43.4280
 30
0.0000
 41
0.6000
 42
2.2000
 43
1.0000
 50
0.0000
  0
INSERT
  8
31
  2
RECT
 10
-12.0500
 20
43.4280
 30
0.0000
 41
0.6000
 42
2.2000
 43
1.0000
 50
0.0000
  0
INSERT
  8
31
  2
RECT
 10
-10.7800
 20
43.4280
 30
0.0000
 41
0.6000
 42
2.2000
 43
1.0000
 50
0.0000
  0
INSERT
  8
31
  2
RECT
 10
-9.5100
 20
43.4280
 30
0.0000
 41
0.6000
 42
2.2000
 43
1.0000
 50
0.0000
  0
INSERT
  8
31
  2
RECT
 10
-9.5100
 20
49.0280
 30
0.0000
 41
0.6000
 42
2.2000
 43
1.0000
 50
0.0000
  0
INSERT
  8
31
  2
RECT
 10
-10.7800
 20
49.0280
 30
0.0000
 41
0.6000
 42
2.2000
 43
1.0000
 50
0.0000
  0
INSERT
  8
31
  2
RECT
 10
-12.0500
 20
49.0280
 30
0.0000
 41
0.6000
 42
2.2000
 43
1.0000
 50
0.0000
  0
INSERT
  8
31
  2
RECT
 10
-13.3200
 20
49.0280
 30
0.0000
 41
0.6000
 42
2.2000
 43
1.0000
 50
0.0000
  0
INSERT
  8
31
  2
RECT
 10
-14.5900
 20
49.0280
 30
0.0000
 41
0.6000
 42
2.2000
 43
1.0000
 50
0.0000
  0
INSERT
  8
31
  2
RECT
 10
-15.8600
 20
49.0280
 30
0.0000
 41
0.6000
 42
2.2000
 43
1.0000
 50
0.0000
  0
INSERT
  8
31
  2
RECT
 10
-17.1300
 20
49.0280
 30
0.0000
 41
0.6000
 42
2.2000
 43
1.0000
 50
0.0000
  0
INSERT
  8
31
  2
RECT
 10
-23.9626
 20
44.3230
 30
0.0000
 41
0.6604
 42
2.0320
 43
1.0000
 50
90.0000
  0
INSERT
  8
31
  2
RECT
 10
-23.9626
 20
45.5930
 30
0.0000
 41
0.6604
 42
2.0320
 43
1.0000
 50
90.0000
  0
INSERT
  8
31
  2
RECT
 10
-23.9626
 20
46.8630
 30
0.0000
 41
0.6604
 42
2.0320
 43
1.0000
 50
90.0000
  0
INSERT
  8
31
  2
RECT
 10
-23.9626
 20
48.1330
 30
0.0000
 41
0.6604
 42
2.0320
 43
1.0000
 50
90.0000
  0
INSERT
  8
31
  2
RECT
 10
-23.9626
 20
49.4030
 30
0.0000
 41
0.6604
 42
2.0320
 43
1.0000
 50
90.0000
  0
INSERT
  8
31
  2
RECT
 10
-23.9626
 20
50.6730
 30
0.0000
 41
0.6604
 42
2.0320
 43
1.0000
 50
90.0000
  0
INSERT
  8
31
  2
RECT
 10
-23.9626
 20
51.9430
 30
0.0000
 41
0.6604
 42
2.0320
 43
1.0000
 50
90.0000
  0
INSERT
  8
31
  2
RECT
 10
-23.9626
 20
53.2130
 30
0.0000
 41
0.6604
 42
2.0320
 43
1.0000
 50
90.0000
  0
INSERT
  8
31
  2
RECT
 10
-30.1094
 20
53.2130
 30
0.0000
 41
0.6604
 42
2.0320
 43
1.0000
 50
90.0000
  0
INSERT
  8
31
  2
RECT
 10
-30.1094
 20
51.9430
 30
0.0000
 41
0.6604
 42
2.0320
 43
1.0000
 50
90.0000
  0
INSERT
  8
31
  2
RECT
 10
-30.1094
 20
50.6730
 30
0.0000
 41
0.6604
 42
2.0320
 43
1.0000
 50
90.0000
  0
INSERT
  8
31
  2
RECT
 10
-30.1094
 20
49.4030
 30
0.0000
 41
0.6604
 42
2.0320
 43
1.0000
 50
90.0000
  0
INSERT
  8
31
  2
RECT
 10
-30.1094
 20
48.1330
 30
0.0000
 41
0.6604
 42
2.0320
 43
1.0000
 50
90.0000
  0
INSERT
  8
31
  2
RECT
 10
-30.1094
 20
46.8630
 30
0.0000
 41
0.6604
 42
2.0320
 43
1.0000
 50
90.0000
  0
INSERT
  8
31
  2
RECT
 10
-30.1094
 20
45.5930
 30
0.0000
 41
0.6604
 42
2.0320
 43
1.0000
 50
90.0000
  0
INSERT
  8
31
  2
RECT
 10
-30.1094
 20
44.3230
 30
0.0000
 41
0.6604
 42
2.0320
 43
1.0000
 50
90.0000
  0
INSERT
  8
31
  2
RECT
 10
-78.9340
 20
37.9496
 30
0.0000
 41
0.6000
 42
2.2000
 43
1.0000
 50
180.0000
  0
INSERT
  8
31
  2
RECT
 10
-80.2040
 20
37.9496
 30
0.0000
 41
0.6000
 42
2.2000
 43
1.0000
 50
180.0000
  0
INSERT
  8
31
  2
RECT
 10
-81.4740
 20
37.9496
 30
0.0000
 41
0.6000
 42
2.2000
 43
1.0000
 50
180.0000
  0
INSERT
  8
31
  2
RECT
 10
-82.7440
 20
37.9496
 30
0.0000
 41
0.6000
 42
2.2000
 43
1.0000
 50
180.0000
  0
INSERT
  8
31
  2
RECT
 10
-84.0140
 20
37.9496
 30
0.0000
 41
0.6000
 42
2.2000
 43
1.0000
 50
180.0000
  0
INSERT
  8
31
  2
RECT
 10
-85.2840
 20
37.9496
 30
0.0000
 41
0.6000
 42
2.2000
 43
1.0000
 50
180.0000
  0
INSERT
  8
31
  2
RECT
 10
-86.5540
 20
37.9496
 30
0.0000
 41
0.6000
 42
2.2000
 43
1.0000
 50
180.0000
  0
INSERT
  8
31
  2
RECT
 10
-86.5540
 20
32.3496
 30
0.0000
 41
0.6000
 42
2.2000
 43
1.0000
 50
180.0000
  0
INSERT
  8
31
  2
RECT
 10
-85.2840
 20
32.3496
 30
0.0000
 41
0.6000
 42
2.2000
 43
1.0000
 50
180.0000
  0
INSERT
  8
31
  2
RECT
 10
-84.0140
 20
32.3496
 30
0.0000
 41
0.6000
 42
2.2000
 43
1.0000
 50
180.0000
  0
INSERT
  8
31
  2
RECT
 10
-82.7440
 20
32.3496
 30
0.0000
 41
0.6000
 42
2.2000
 43
1.0000
 50
180.0000
  0
INSERT
  8
31
  2
RECT
 10
-81.4740
 20
32.3496
 30
0.0000
 41
0.6000
 42
2.2000
 43
1.0000
 50
180.0000
  0
INSERT
  8
31
  2
RECT
 10
-80.2040
 20
32.3496
 30
0.0000
 41
0.6000
 42
2.2000
 43
1.0000
 50
180.0000
  0
INSERT
  8
31
  2
RECT
 10
-78.9340
 20
32.3496
 30
0.0000
 41
0.6000
 42
2.2000
 43
1.0000
 50
180.0000
  0
INSERT
  8
31
  2
RECT
 10
-72.1014
 20
37.0546
 30
0.0000
 41
0.6604
 42
2.0320
 43
1.0000
 50
270.0000
  0
INSERT
  8
31
  2
RECT
 10
-72.1014
 20
35.7846
 30
0.0000
 41
0.6604
 42
2.0320
 43
1.0000
 50
270.0000
  0
INSERT
  8
31
  2
RECT
 10
-72.1014
 20
34.5146
 30
0.0000
 41
0.6604
 42
2.0320
 43
1.0000
 50
270.0000
  0
INSERT
  8
31
  2
RECT
 10
-72.1014
 20
33.2446
 30
0.0000
 41
0.6604
 42
2.0320
 43
1.0000
 50
270.0000
  0
INSERT
  8
31
  2
RECT
 10
-72.1014
 20
31.9746
 30
0.0000
 41
0.6604
 42
2.0320
 43
1.0000
 50
270.0000
  0
INSERT
  8
31
  2
RECT
 10
-72.1014
 20
30.7046
 30
0.0000
 41
0.6604
 42
2.0320
 43
1.0000
 50
270.0000
  0
INSERT
  8
31
  2
RECT
 10
-72.1014
 20
29.4346
 30
0.0000
 41
0.6604
 42
2.0320
 43
1.0000
 50
270.0000
  0
INSERT
  8
31
  2
RECT
 10
-72.1014
 20
28.1646
 30
0.0000
 41
0.6604
 42
2.0320
 43
1.0000
 50
270.0000
  0
INSERT
  8
31
  2
RECT
 10
-65.9546
 20
28.1646
 30
0.0000
 41
0.6604
 42
2.0320
 43
1.0000
 50
270.0000
  0
INSERT
  8
31
  2
RECT
 10
-65.9546
 20
29.4346
 30
0.0000
 41
0.6604
 42
2.0320
 43
1.0000
 50
270.0000
  0
INSERT
  8
31
  2
RECT
 10
-65.9546
 20
30.7046
 30
0.0000
 41
0.6604
 42
2.0320
 43
1.0000
 50
270.0000
  0
INSERT
  8
31
  2
RECT
 10
-65.9546
 20
31.9746
 30
0.0000
 41
0.6604
 42
2.0320
 43
1.0000
 50
270.0000
  0
INSERT
  8
31
  2
RECT
 10
-65.9546
 20
33.2446
 30
0.0000
 41
0.6604
 42
2.0320
 43
1.0000
 50
270.0000
  0
INSERT
  8
31
  2
RECT
 10
-65.9546
 20
34.5146
 30
0.0000
 41
0.6604
 42
2.0320
 43
1.0000
 50
270.0000
  0
INSERT
  8
31
  2
RECT
 10
-65.9546
 20
35.7846
 30
0.0000
 41
0.6604
 42
2.0320
 43
1.0000
 50
270.0000
  0
INSERT
  8
31
  2
RECT
 10
-65.9546
 20
37.0546
 30
0.0000
 41
0.6604
 42
2.0320
 43
1.0000
 50
270.0000
  0
INSERT
  8
31
  2
RECT
 10
-44.6310
 20
-6.9350
 30
0.0000
 41
0.8000
 42
1.8000
 43
1.0000
 50
180.0000
  0
INSERT
  8
31
  2
RECT
 10
-46.1300
 20
-7.1890
 30
0.0000
 41
0.8000
 42
2.3000
 43
1.0000
 50
180.0000
  0
INSERT
  8
31
  2
RECT325120X584000R75
 10
-46.1300
 20
-10.0560
 30
0.0000
 41
1.0000
 42
1.0000
 43
1.0000
 50
180.0000
  0
INSERT
  8
31
  2
RECT
 10
-47.6290
 20
-6.9350
 30
0.0000
 41
0.8000
 42
1.8000
 43
1.0000
 50
180.0000
  0
INSERT
  8
31
  2
RECT
 10
-30.5090
 20
-10.9540
 30
0.0000
 41
0.6000
 42
2.2000
 43
1.0000
 50
0.0000
  0
INSERT
  8
31
  2
RECT
 10
-29.2390
 20
-10.9540
 30
0.0000
 41
0.6000
 42
2.2000
 43
1.0000
 50
0.0000
  0
INSERT
  8
31
  2
RECT
 10
-27.9690
 20
-10.9540
 30
0.0000
 41
0.6000
 42
2.2000
 43
1.0000
 50
0.0000
  0
INSERT
  8
31
  2
RECT
 10
-26.6990
 20
-10.9540
 30
0.0000
 41
0.6000
 42
2.2000
 43
1.0000
 50
0.0000
  0
INSERT
  8
31
  2
RECT
 10
-26.6990
 20
-5.7540
 30
0.0000
 41
0.6000
 42
2.2000
 43
1.0000
 50
0.0000
  0
INSERT
  8
31
  2
RECT
 10
-27.9690
 20
-5.7540
 30
0.0000
 41
0.6000
 42
2.2000
 43
1.0000
 50
0.0000
  0
INSERT
  8
31
  2
RECT
 10
-29.2390
 20
-5.7540
 30
0.0000
 41
0.6000
 42
2.2000
 43
1.0000
 50
0.0000
  0
INSERT
  8
31
  2
RECT
 10
-30.5090
 20
-5.7540
 30
0.0000
 41
0.6000
 42
2.2000
 43
1.0000
 50
0.0000
  0
INSERT
  8
31
  2
RECT
 10
-92.3900
 20
8.4400
 30
0.0000
 41
1.2700
 42
2.5400
 43
1.0000
 50
180.0000
  0
INSERT
  8
31
  2
RECT
 10
-89.9900
 20
8.4400
 30
0.0000
 41
1.2700
 42
2.5400
 43
1.0000
 50
180.0000
  0
INSERT
  8
31
  2
RECT
 10
-29.6010
 20
26.5650
 30
0.0000
 41
0.8000
 42
1.8000
 43
1.0000
 50
180.0000
  0
INSERT
  8
31
  2
RECT
 10
-31.1000
 20
26.3110
 30
0.0000
 41
0.8000
 42
2.3000
 43
1.0000
 50
180.0000
  0
INSERT
  8
31
  2
RECT325120X584000R75
 10
-31.1000
 20
23.4440
 30
0.0000
 41
1.0000
 42
1.0000
 43
1.0000
 50
180.0000
  0
INSERT
  8
31
  2
RECT
 10
-32.5990
 20
26.5650
 30
0.0000
 41
0.8000
 42
1.8000
 43
1.0000
 50
180.0000
  0
INSERT
  8
31
  2
RECT
 10
-66.4630
 20
54.8126
 30
0.0000
 41
0.8000
 42
1.8000
 43
1.0000
 50
0.0000
  0
INSERT
  8
31
  2
RECT
 10
-64.9640
 20
55.0666
 30
0.0000
 41
0.8000
 42
2.3000
 43
1.0000
 50
0.0000
  0
INSERT
  8
31
  2
RECT325120X584000R75
 10
-64.9640
 20
57.9336
 30
0.0000
 41
1.0000
 42
1.0000
 43
1.0000
 50
0.0000
  0
INSERT
  8
31
  2
RECT
 10
-63.4650
 20
54.8126
 30
0.0000
 41
0.8000
 42
1.8000
 43
1.0000
 50
0.0000
  0
INSERT
  8
31
  2
RECT
 10
-4.1760
 20
43.6220
 30
0.0000
 41
1.3000
 42
1.5000
 43
1.0000
 50
270.0000
  0
INSERT
  8
31
  2
RECT
 10
-4.1760
 20
41.7220
 30
0.0000
 41
1.3000
 42
1.5000
 43
1.0000
 50
270.0000
  0
INSERT
  8
31
  2
RECT
 10
-2.1440
 20
48.7020
 30
0.0000
 41
1.3000
 42
1.5000
 43
1.0000
 50
270.0000
  0
INSERT
  8
31
  2
RECT
 10
-2.1440
 20
46.8020
 30
0.0000
 41
1.3000
 42
1.5000
 43
1.0000
 50
270.0000
  0
INSERT
  8
31
  2
RECT
 10
-5.4460
 20
52.3900
 30
0.0000
 41
1.3000
 42
1.5000
 43
1.0000
 50
90.0000
  0
INSERT
  8
31
  2
RECT
 10
-5.4460
 20
54.2900
 30
0.0000
 41
1.3000
 42
1.5000
 43
1.0000
 50
90.0000
  0
INSERT
  8
31
  2
RECT
 10
-5.7000
 20
48.7020
 30
0.0000
 41
1.3000
 42
1.5000
 43
1.0000
 50
270.0000
  0
INSERT
  8
31
  2
RECT
 10
-5.7000
 20
46.8020
 30
0.0000
 41
1.3000
 42
1.5000
 43
1.0000
 50
270.0000
  0
INSERT
  8
31
  2
RECT
 10
-2.9060
 20
57.4700
 30
0.0000
 41
1.3000
 42
1.5000
 43
1.0000
 50
90.0000
  0
INSERT
  8
31
  2
RECT
 10
-2.9060
 20
59.3700
 30
0.0000
 41
1.3000
 42
1.5000
 43
1.0000
 50
90.0000
  0
INSERT
  8
31
  2
RECT
 10
-9.0020
 20
52.3900
 30
0.0000
 41
1.3000
 42
1.5000
 43
1.0000
 50
90.0000
  0
INSERT
  8
31
  2
RECT
 10
-9.0020
 20
54.2900
 30
0.0000
 41
1.3000
 42
1.5000
 43
1.0000
 50
90.0000
  0
INSERT
  8
31
  2
RECT
 10
-7.2240
 20
15.3060
 30
0.0000
 41
1.3000
 42
1.5000
 43
1.0000
 50
90.0000
  0
INSERT
  8
31
  2
RECT
 10
-7.2240
 20
17.2060
 30
0.0000
 41
1.3000
 42
1.5000
 43
1.0000
 50
90.0000
  0
INSERT
  8
31
  2
RECT
 10
-10.7800
 20
15.6820
 30
0.0000
 41
1.3000
 42
1.5000
 43
1.0000
 50
270.0000
  0
INSERT
  8
31
  2
RECT
 10
-10.7800
 20
13.7820
 30
0.0000
 41
1.3000
 42
1.5000
 43
1.0000
 50
270.0000
  0
INSERT
  8
31
  2
RECT
 10
-20.6860
 20
59.1160
 30
0.0000
 41
1.3000
 42
1.5000
 43
1.0000
 50
270.0000
  0
INSERT
  8
31
  2
RECT
 10
-20.6860
 20
57.2160
 30
0.0000
 41
1.3000
 42
1.5000
 43
1.0000
 50
270.0000
  0
INSERT
  8
31
  2
RECT
 10
-15.8600
 20
15.6820
 30
0.0000
 41
1.3000
 42
1.5000
 43
1.0000
 50
270.0000
  0
INSERT
  8
31
  2
RECT
 10
-15.8600
 20
13.7820
 30
0.0000
 41
1.3000
 42
1.5000
 43
1.0000
 50
270.0000
  0
INSERT
  8
31
  2
RECT
 10
-20.9400
 20
15.6820
 30
0.0000
 41
1.3000
 42
1.5000
 43
1.0000
 50
270.0000
  0
INSERT
  8
31
  2
RECT
 10
-20.9400
 20
13.7820
 30
0.0000
 41
1.3000
 42
1.5000
 43
1.0000
 50
270.0000
  0
INSERT
  8
31
  2
RECT
 10
-18.4000
 20
38.0340
 30
0.0000
 41
1.3000
 42
1.5000
 43
1.0000
 50
270.0000
  0
INSERT
  8
31
  2
RECT
 10
-18.4000
 20
36.1340
 30
0.0000
 41
1.3000
 42
1.5000
 43
1.0000
 50
270.0000
  0
INSERT
  8
31
  2
RECT
 10
-7.2240
 20
23.8100
 30
0.0000
 41
1.3000
 42
1.5000
 43
1.0000
 50
270.0000
  0
INSERT
  8
31
  2
RECT
 10
-7.2240
 20
21.9100
 30
0.0000
 41
1.3000
 42
1.5000
 43
1.0000
 50
270.0000
  0
INSERT
  8
31
  2
RECT
 10
-21.9560
 20
38.0340
 30
0.0000
 41
1.3000
 42
1.5000
 43
1.0000
 50
270.0000
  0
INSERT
  8
31
  2
RECT
 10
-21.9560
 20
36.1340
 30
0.0000
 41
1.3000
 42
1.5000
 43
1.0000
 50
270.0000
  0
INSERT
  8
31
  2
RECT
 10
-25.5120
 20
31.9380
 30
0.0000
 41
1.3000
 42
1.5000
 43
1.0000
 50
270.0000
  0
INSERT
  8
31
  2
RECT
 10
-25.5120
 20
30.0380
 30
0.0000
 41
1.3000
 42
1.5000
 43
1.0000
 50
270.0000
  0
INSERT
  8
31
  2
RECT
 10
-10.7800
 20
37.4040
 30
0.0000
 41
1.3000
 42
1.5000
 43
1.0000
 50
90.0000
  0
INSERT
  8
31
  2
RECT
 10
-10.7800
 20
39.3040
 30
0.0000
 41
1.3000
 42
1.5000
 43
1.0000
 50
90.0000
  0
INSERT
  8
31
  2
RECT
 10
-20.4320
 20
48.1940
 30
0.0000
 41
1.3000
 42
1.5000
 43
1.0000
 50
270.0000
  0
INSERT
  8
31
  2
RECT
 10
-20.4320
 20
46.2940
 30
0.0000
 41
1.3000
 42
1.5000
 43
1.0000
 50
270.0000
  0
INSERT
  8
31
  2
RECT
 10
-24.4960
 20
57.2160
 30
0.0000
 41
1.3000
 42
1.5000
 43
1.0000
 50
90.0000
  0
INSERT
  8
31
  2
RECT
 10
-24.4960
 20
59.1160
 30
0.0000
 41
1.3000
 42
1.5000
 43
1.0000
 50
90.0000
  0
INSERT
  8
31
  2
RECT
 10
-28.3060
 20
57.2160
 30
0.0000
 41
1.3000
 42
1.5000
 43
1.0000
 50
90.0000
  0
INSERT
  8
31
  2
RECT
 10
-28.3060
 20
59.1160
 30
0.0000
 41
1.3000
 42
1.5000
 43
1.0000
 50
90.0000
  0
INSERT
  8
31
  2
RECT
 10
-41.2600
 20
53.4060
 30
0.0000
 41
1.3000
 42
1.5000
 43
1.0000
 50
90.0000
  0
INSERT
  8
31
  2
RECT
 10
-41.2600
 20
55.3060
 30
0.0000
 41
1.3000
 42
1.5000
 43
1.0000
 50
90.0000
  0
INSERT
  8
31
  2
RECT
 10
-38.2120
 20
53.4060
 30
0.0000
 41
1.3000
 42
1.5000
 43
1.0000
 50
90.0000
  0
INSERT
  8
31
  2
RECT
 10
-38.2120
 20
55.3060
 30
0.0000
 41
1.3000
 42
1.5000
 43
1.0000
 50
90.0000
  0
INSERT
  8
31
  2
RECT
 10
-34.9100
 20
53.4060
 30
0.0000
 41
1.3000
 42
1.5000
 43
1.0000
 50
90.0000
  0
INSERT
  8
31
  2
RECT
 10
-34.9100
 20
55.3060
 30
0.0000
 41
1.3000
 42
1.5000
 43
1.0000
 50
90.0000
  0
INSERT
  8
31
  2
RECT
 10
-33.9600
 20
45.9740
 30
0.0000
 41
1.3000
 42
1.5000
 43
1.0000
 50
180.0000
  0
INSERT
  8
31
  2
RECT
 10
-35.8600
 20
45.9740
 30
0.0000
 41
1.3000
 42
1.5000
 43
1.0000
 50
180.0000
  0
INSERT
  8
31
  2
RECT
 10
-33.9600
 20
48.5140
 30
0.0000
 41
1.3000
 42
1.5000
 43
1.0000
 50
180.0000
  0
INSERT
  8
31
  2
RECT
 10
-35.8600
 20
48.5140
 30
0.0000
 41
1.3000
 42
1.5000
 43
1.0000
 50
180.0000
  0
INSERT
  8
31
  2
RECT
 10
-4.1760
 20
35.6260
 30
0.0000
 41
1.3000
 42
1.5000
 43
1.0000
 50
90.0000
  0
INSERT
  8
31
  2
RECT
 10
-4.1760
 20
37.5260
 30
0.0000
 41
1.3000
 42
1.5000
 43
1.0000
 50
90.0000
  0
INSERT
  8
31
  2
RECT
 10
-6.9700
 20
31.8160
 30
0.0000
 41
1.3000
 42
1.5000
 43
1.0000
 50
90.0000
  0
INSERT
  8
31
  2
RECT
 10
-6.9700
 20
33.7160
 30
0.0000
 41
1.3000
 42
1.5000
 43
1.0000
 50
90.0000
  0
INSERT
  8
31
  2
RECT
 10
-7.4780
 20
39.3040
 30
0.0000
 41
1.3000
 42
1.5000
 43
1.0000
 50
270.0000
  0
INSERT
  8
31
  2
RECT
 10
-7.4780
 20
37.4040
 30
0.0000
 41
1.3000
 42
1.5000
 43
1.0000
 50
270.0000
  0
INSERT
  8
31
  2
RECT
 10
-30.1500
 20
33.5280
 30
0.0000
 41
1.3000
 42
1.5000
 43
1.0000
 50
180.0000
  0
INSERT
  8
31
  2
RECT
 10
-32.0500
 20
33.5280
 30
0.0000
 41
1.3000
 42
1.5000
 43
1.0000
 50
180.0000
  0
INSERT
  8
31
  2
RECT
 10
-25.5120
 20
38.0340
 30
0.0000
 41
1.3000
 42
1.5000
 43
1.0000
 50
270.0000
  0
INSERT
  8
31
  2
RECT
 10
-25.5120
 20
36.1340
 30
0.0000
 41
1.3000
 42
1.5000
 43
1.0000
 50
270.0000
  0
INSERT
  8
31
  2
RECT
 10
-25.0040
 20
13.8180
 30
0.0000
 41
1.6000
 42
1.8030
 43
1.0000
 50
90.0000
  0
INSERT
  8
31
  2
RECT
 10
-25.0040
 20
16.6620
 30
0.0000
 41
1.6000
 42
1.8030
 43
1.0000
 50
90.0000
  0
INSERT
  8
31
  2
RECT
 10
-91.8880
 20
37.7556
 30
0.0000
 41
1.3000
 42
1.5000
 43
1.0000
 50
90.0000
  0
INSERT
  8
31
  2
RECT
 10
-91.8880
 20
39.6556
 30
0.0000
 41
1.3000
 42
1.5000
 43
1.0000
 50
90.0000
  0
INSERT
  8
31
  2
RECT
 10
-93.9200
 20
32.6756
 30
0.0000
 41
1.3000
 42
1.5000
 43
1.0000
 50
90.0000
  0
INSERT
  8
31
  2
RECT
 10
-93.9200
 20
34.5756
 30
0.0000
 41
1.3000
 42
1.5000
 43
1.0000
 50
90.0000
  0
INSERT
  8
31
  2
RECT
 10
-90.6180
 20
28.9876
 30
0.0000
 41
1.3000
 42
1.5000
 43
1.0000
 50
270.0000
  0
INSERT
  8
31
  2
RECT
 10
-90.6180
 20
27.0876
 30
0.0000
 41
1.3000
 42
1.5000
 43
1.0000
 50
270.0000
  0
INSERT
  8
31
  2
RECT
 10
-90.3640
 20
32.6756
 30
0.0000
 41
1.3000
 42
1.5000
 43
1.0000
 50
90.0000
  0
INSERT
  8
31
  2
RECT
 10
-90.3640
 20
34.5756
 30
0.0000
 41
1.3000
 42
1.5000
 43
1.0000
 50
90.0000
  0
INSERT
  8
31
  2
RECT
 10
-93.1580
 20
23.9076
 30
0.0000
 41
1.3000
 42
1.5000
 43
1.0000
 50
270.0000
  0
INSERT
  8
31
  2
RECT
 10
-93.1580
 20
22.0076
 30
0.0000
 41
1.3000
 42
1.5000
 43
1.0000
 50
270.0000
  0
INSERT
  8
31
  2
RECT
 10
-87.0620
 20
28.9876
 30
0.0000
 41
1.3000
 42
1.5000
 43
1.0000
 50
270.0000
  0
INSERT
  8
31
  2
RECT
 10
-87.0620
 20
27.0876
 30
0.0000
 41
1.3000
 42
1.5000
 43
1.0000
 50
270.0000
  0
INSERT
  8
31
  2
RECT
 10
-88.8400
 20
66.0716
 30
0.0000
 41
1.3000
 42
1.5000
 43
1.0000
 50
270.0000
  0
INSERT
  8
31
  2
RECT
 10
-88.8400
 20
64.1716
 30
0.0000
 41
1.3000
 42
1.5000
 43
1.0000
 50
270.0000
  0
INSERT
  8
31
  2
RECT
 10
-85.2840
 20
65.6956
 30
0.0000
 41
1.3000
 42
1.5000
 43
1.0000
 50
90.0000
  0
INSERT
  8
31
  2
RECT
 10
-85.2840
 20
67.5956
 30
0.0000
 41
1.3000
 42
1.5000
 43
1.0000
 50
90.0000
  0
INSERT
  8
31
  2
RECT
 10
-75.3780
 20
22.2616
 30
0.0000
 41
1.3000
 42
1.5000
 43
1.0000
 50
90.0000
  0
INSERT
  8
31
  2
RECT
 10
-75.3780
 20
24.1616
 30
0.0000
 41
1.3000
 42
1.5000
 43
1.0000
 50
90.0000
  0
INSERT
  8
31
  2
RECT
 10
-80.2040
 20
65.6956
 30
0.0000
 41
1.3000
 42
1.5000
 43
1.0000
 50
90.0000
  0
INSERT
  8
31
  2
RECT
 10
-80.2040
 20
67.5956
 30
0.0000
 41
1.3000
 42
1.5000
 43
1.0000
 50
90.0000
  0
INSERT
  8
31
  2
RECT
 10
-75.1240
 20
65.6956
 30
0.0000
 41
1.3000
 42
1.5000
 43
1.0000
 50
90.0000
  0
INSERT
  8
31
  2
RECT
 10
-75.1240
 20
67.5956
 30
0.0000
 41
1.3000
 42
1.5000
 43
1.0000
 50
90.0000
  0
INSERT
  8
31
  2
RECT
 10
-77.6640
 20
43.3436
 30
0.0000
 41
1.3000
 42
1.5000
 43
1.0000
 50
90.0000
  0
INSERT
  8
31
  2
RECT
 10
-77.6640
 20
45.2436
 30
0.0000
 41
1.3000
 42
1.5000
 43
1.0000
 50
90.0000
  0
INSERT
  8
31
  2
RECT
 10
-88.8400
 20
57.5676
 30
0.0000
 41
1.3000
 42
1.5000
 43
1.0000
 50
90.0000
  0
INSERT
  8
31
  2
RECT
 10
-88.8400
 20
59.4676
 30
0.0000
 41
1.3000
 42
1.5000
 43
1.0000
 50
90.0000
  0
INSERT
  8
31
  2
RECT
 10
-74.1080
 20
43.3436
 30
0.0000
 41
1.3000
 42
1.5000
 43
1.0000
 50
90.0000
  0
INSERT
  8
31
  2
RECT
 10
-74.1080
 20
45.2436
 30
0.0000
 41
1.3000
 42
1.5000
 43
1.0000
 50
90.0000
  0
INSERT
  8
31
  2
RECT
 10
-70.5520
 20
49.4396
 30
0.0000
 41
1.3000
 42
1.5000
 43
1.0000
 50
90.0000
  0
INSERT
  8
31
  2
RECT
 10
-70.5520
 20
51.3396
 30
0.0000
 41
1.3000
 42
1.5000
 43
1.0000
 50
90.0000
  0
INSERT
  8
31
  2
RECT
 10
-85.2840
 20
43.9736
 30
0.0000
 41
1.3000
 42
1.5000
 43
1.0000
 50
270.0000
  0
INSERT
  8
31
  2
RECT
 10
-85.2840
 20
42.0736
 30
0.0000
 41
1.3000
 42
1.5000
 43
1.0000
 50
270.0000
  0
INSERT
  8
31
  2
RECT
 10
-75.6320
 20
33.1836
 30
0.0000
 41
1.3000
 42
1.5000
 43
1.0000
 50
90.0000
  0
INSERT
  8
31
  2
RECT
 10
-75.6320
 20
35.0836
 30
0.0000
 41
1.3000
 42
1.5000
 43
1.0000
 50
90.0000
  0
INSERT
  8
31
  2
RECT
 10
-71.5680
 20
24.1616
 30
0.0000
 41
1.3000
 42
1.5000
 43
1.0000
 50
270.0000
  0
INSERT
  8
31
  2
RECT
 10
-71.5680
 20
22.2616
 30
0.0000
 41
1.3000
 42
1.5000
 43
1.0000
 50
270.0000
  0
INSERT
  8
31
  2
RECT
 10
-67.7580
 20
24.1616
 30
0.0000
 41
1.3000
 42
1.5000
 43
1.0000
 50
270.0000
  0
INSERT
  8
31
  2
RECT
 10
-67.7580
 20
22.2616
 30
0.0000
 41
1.3000
 42
1.5000
 43
1.0000
 50
270.0000
  0
INSERT
  8
31
  2
RECT
 10
-54.8040
 20
27.9716
 30
0.0000
 41
1.3000
 42
1.5000
 43
1.0000
 50
270.0000
  0
INSERT
  8
31
  2
RECT
 10
-54.8040
 20
26.0716
 30
0.0000
 41
1.3000
 42
1.5000
 43
1.0000
 50
270.0000
  0
INSERT
  8
31
  2
RECT
 10
-57.8520
 20
27.9716
 30
0.0000
 41
1.3000
 42
1.5000
 43
1.0000
 50
270.0000
  0
INSERT
  8
31
  2
RECT
 10
-57.8520
 20
26.0716
 30
0.0000
 41
1.3000
 42
1.5000
 43
1.0000
 50
270.0000
  0
INSERT
  8
31
  2
RECT
 10
-61.1540
 20
27.9716
 30
0.0000
 41
1.3000
 42
1.5000
 43
1.0000
 50
270.0000
  0
INSERT
  8
31
  2
RECT
 10
-61.1540
 20
26.0716
 30
0.0000
 41
1.3000
 42
1.5000
 43
1.0000
 50
270.0000
  0
INSERT
  8
31
  2
RECT
 10
-62.1040
 20
35.4036
 30
0.0000
 41
1.3000
 42
1.5000
 43
1.0000
 50
0.0000
  0
INSERT
  8
31
  2
RECT
 10
-60.2040
 20
35.4036
 30
0.0000
 41
1.3000
 42
1.5000
 43
1.0000
 50
0.0000
  0
INSERT
  8
31
  2
RECT
 10
-62.1040
 20
32.8636
 30
0.0000
 41
1.3000
 42
1.5000
 43
1.0000
 50
0.0000
  0
INSERT
  8
31
  2
RECT
 10
-60.2040
 20
32.8636
 30
0.0000
 41
1.3000
 42
1.5000
 43
1.0000
 50
0.0000
  0
INSERT
  8
31
  2
RECT
 10
-91.8880
 20
45.7516
 30
0.0000
 41
1.3000
 42
1.5000
 43
1.0000
 50
270.0000
  0
INSERT
  8
31
  2
RECT
 10
-91.8880
 20
43.8516
 30
0.0000
 41
1.3000
 42
1.5000
 43
1.0000
 50
270.0000
  0
INSERT
  8
31
  2
RECT
 10
-89.0940
 20
49.5616
 30
0.0000
 41
1.3000
 42
1.5000
 43
1.0000
 50
270.0000
  0
INSERT
  8
31
  2
RECT
 10
-89.0940
 20
47.6616
 30
0.0000
 41
1.3000
 42
1.5000
 43
1.0000
 50
270.0000
  0
INSERT
  8
31
  2
RECT
 10
-88.5860
 20
42.0736
 30
0.0000
 41
1.3000
 42
1.5000
 43
1.0000
 50
90.0000
  0
INSERT
  8
31
  2
RECT
 10
-88.5860
 20
43.9736
 30
0.0000
 41
1.3000
 42
1.5000
 43
1.0000
 50
90.0000
  0
INSERT
  8
31
  2
RECT
 10
-65.9140
 20
47.8496
 30
0.0000
 41
1.3000
 42
1.5000
 43
1.0000
 50
0.0000
  0
INSERT
  8
31
  2
RECT
 10
-64.0140
 20
47.8496
 30
0.0000
 41
1.3000
 42
1.5000
 43
1.0000
 50
0.0000
  0
INSERT
  8
31
  2
RECT
 10
-70.5520
 20
43.3436
 30
0.0000
 41
1.3000
 42
1.5000
 43
1.0000
 50
90.0000
  0
INSERT
  8
31
  2
RECT
 10
-70.5520
 20
45.2436
 30
0.0000
 41
1.3000
 42
1.5000
 43
1.0000
 50
90.0000
  0
INSERT
  8
31
  2
RECT
 10
-71.0600
 20
67.5596
 30
0.0000
 41
1.6000
 42
1.8030
 43
1.0000
 50
270.0000
  0
INSERT
  8
31
  2
RECT
 10
-71.0600
 20
64.7156
 30
0.0000
 41
1.6000
 42
1.8030
 43
1.0000
 50
270.0000
  0
INSERT
  8
31
  2
RECT
 10
-51.0220
 20
-10.8940
 30
0.0000
 41
1.3000
 42
1.5000
 43
1.0000
 50
180.0000
  0
INSERT
  8
31
  2
RECT
 10
-52.9220
 20
-10.8940
 30
0.0000
 41
1.3000
 42
1.5000
 43
1.0000
 50
180.0000
  0
INSERT
  8
31
  2
RECT
 10
-21.5580
 20
-10.8940
 30
0.0000
 41
1.3000
 42
1.5000
 43
1.0000
 50
180.0000
  0
INSERT
  8
31
  2
RECT
 10
-23.4580
 20
-10.8940
 30
0.0000
 41
1.3000
 42
1.5000
 43
1.0000
 50
180.0000
  0
INSERT
  8
31
  2
RECT
 10
-21.5580
 20
-6.3220
 30
0.0000
 41
1.3000
 42
1.5000
 43
1.0000
 50
180.0000
  0
INSERT
  8
31
  2
RECT
 10
-23.4580
 20
-6.3220
 30
0.0000
 41
1.3000
 42
1.5000
 43
1.0000
 50
180.0000
  0
INSERT
  8
31
  2
RECT
 10
-18.1240
 20
-10.8940
 30
0.0000
 41
1.3000
 42
1.5000
 43
1.0000
 50
0.0000
  0
INSERT
  8
31
  2
RECT
 10
-16.2240
 20
-10.8940
 30
0.0000
 41
1.3000
 42
1.5000
 43
1.0000
 50
0.0000
  0
INSERT
  8
31
  2
RECT
 10
-33.7500
 20
-6.3220
 30
0.0000
 41
1.3000
 42
1.5000
 43
1.0000
 50
180.0000
  0
INSERT
  8
31
  2
RECT
 10
-35.6500
 20
-6.3220
 30
0.0000
 41
1.3000
 42
1.5000
 43
1.0000
 50
180.0000
  0
INSERT
  8
31
  2
RECT
 10
-35.6500
 20
-10.8940
 30
0.0000
 41
1.3000
 42
1.5000
 43
1.0000
 50
0.0000
  0
INSERT
  8
31
  2
RECT
 10
-33.7500
 20
-10.8940
 30
0.0000
 41
1.3000
 42
1.5000
 43
1.0000
 50
0.0000
  0
INSERT
  8
31
  2
RECT
 10
-16.2240
 20
-6.3220
 30
0.0000
 41
1.3000
 42
1.5000
 43
1.0000
 50
180.0000
  0
INSERT
  8
31
  2
RECT
 10
-18.1240
 20
-6.3220
 30
0.0000
 41
1.3000
 42
1.5000
 43
1.0000
 50
180.0000
  0
INSERT
  8
31
  2
RECT
 10
-28.7886
 20
29.5148
 30
0.0000
 41
1.2192
 42
2.2352
 43
1.0000
 50
180.0000
  0
INSERT
  8
31
  2
RECT
 10
-31.1000
 20
29.5148
 30
0.0000
 41
1.2192
 42
2.2352
 43
1.0000
 50
180.0000
  0
INSERT
  8
31
  2
RECT
 10
-33.4114
 20
29.5148
 30
0.0000
 41
1.2192
 42
2.2352
 43
1.0000
 50
180.0000
  0
INSERT
  8
31
  2
RECT
 10
-31.1000
 20
23.3170
 30
0.0000
 41
3.6000
 42
2.2000
 43
1.0000
 50
180.0000
  0
INSERT
  8
31
  2
RECT
 10
-67.2754
 20
51.8628
 30
0.0000
 41
1.2192
 42
2.2352
 43
1.0000
 50
0.0000
  0
INSERT
  8
31
  2
RECT
 10
-64.9640
 20
51.8628
 30
0.0000
 41
1.2192
 42
2.2352
 43
1.0000
 50
0.0000
  0
INSERT
  8
31
  2
RECT
 10
-62.6526
 20
51.8628
 30
0.0000
 41
1.2192
 42
2.2352
 43
1.0000
 50
0.0000
  0
INSERT
  8
31
  2
RECT
 10
-64.9640
 20
58.0606
 30
0.0000
 41
3.6000
 42
2.2000
 43
1.0000
 50
0.0000
  0
ENDSEC
  0
EOF
