  0
SECTION
  2
HEADER
  9
$ACADVER
  1
AC1009
  9
$FILLMODE
 70
0
  9
$EXTMIN
 10
-0.4572
 20
-0.3302
 30
0.0000
  9
$EXTMAX
 10
129.8450
 20
55.3720
 30
0.0000
  0
ENDSEC
  0
SECTION
  2
TABLES
  0
TABLE
  2
LTYPE
 70
1
  0
LTYPE
  2
CONTINUOUS
 70
64
  3
Solid line
 72
65
 73
0
 40
0
  0
ENDTAB
  0
TABLE
  2
LAYER
 70
255
  0
LAYER
  2
50
 70
64
 62
251
  6
CONTINUOUS
  0
ENDTAB
  0
ENDSEC
  0
SECTION
  2
BLOCKS
  0
BLOCK
  8
0
  2
RECT
 70
64
 10
0.0000
 20
0.0000
 30
0.0000
  3
RECT
  0
SOLID
  8
0
 10
-0.5000
 20
-0.5000
 30
0.0000
 11
0.5000
 21
-0.5000
 31
0.0000
 12
-0.5000
 22
0.5000
 32
0.0000
 13
0.5000
 23
0.5000
 33
0.0000
  0
ENDBLK
  8
0
  0
BLOCK
  8
0
  2
PIE
 70
64
 10
0.0000
 20
0.0000
 30
0.0000
  3
PIE
  0
CIRCLE
  8
0
 10
0.0000
 20
0.0000
 30
0.0000
 40
0.5000
  0
ENDBLK
  8
0
  0
BLOCK
  8
0
  2
OCTAGONP
 70
64
 10
0.0000
 20
0.0000
 30
0.0000
  3
OCTAGONP
  0
POLYLINE
  8
0
 66
1
 10
0.0000
 20
0.0000
 30
0.0000
 40
0.0000
 41
0.0000
 70
1
  0
VERTEX
  8
0
 10
-0.5000
 20
-0.2071
 30
0.0000
  0
VERTEX
  8
0
 10
-0.5000
 20
0.2071
 30
0.0000
  0
VERTEX
  8
0
 10
-0.2071
 20
0.5000
 30
0.0000
  0
VERTEX
  8
0
 10
0.2071
 20
0.5000
 30
0.0000
  0
VERTEX
  8
0
 10
0.5000
 20
0.2071
 30
0.0000
  0
VERTEX
  8
0
 10
0.5000
 20
-0.2071
 30
0.0000
  0
VERTEX
  8
0
 10
0.2071
 20
-0.5000
 30
0.0000
  0
VERTEX
  8
0
 10
-0.2071
 20
-0.5000
 30
0.0000
  0
SEQEND
  8
0
  0
ENDBLK
  8
0
  0
BLOCK
  8
0
  2
SQUAREP
 70
64
 10
0.0000
 20
0.0000
 30
0.0000
  3
SQUAREP
  0
SOLID
  8
0
 10
-0.5000
 20
-0.5000
 30
0.0000
 11
0.5000
 21
-0.5000
 31
0.0000
 12
-0.5000
 22
0.5000
 32
0.0000
 13
0.5000
 23
0.5000
 33
0.0000
  0
ENDBLK
  8
0
  0
BLOCK
  8
0
  2
ROUNDP
 70
64
 10
0.0000
 20
0.0000
 30
0.0000
  3
ROUNDP
  0
CIRCLE
  8
0
 10
0.0000
 20
0.0000
 30
0.0000
 40
0.5000
  0
ENDBLK
  8
0
  0
BLOCK
  8
0
  2
ANNULUSP
 70
64
 10
0.0000
 20
0.0000
 30
0.0000
  3
ANNULUSP
  0
CIRCLE
  8
0
 10
0.0000
 20
0.0000
 30
0.0000
 40
0.5000
  0
ENDBLK
  8
0
  0
BLOCK
  8
0
  2
THERMALP
 70
64
 10
0.0000
 20
0.0000
 30
0.0000
  3
THERMALP
  0
LINE
  8
0
 10
-0.2379
 20
0.4500
 30
0.0000
 11
0.2379
 21
0.4500
 31
0.0000
  0
LINE
  8
0
 10
0.4500
 20
0.2379
 30
0.0000
 11
0.4500
 21
-0.2379
 31
0.0000
  0
LINE
  8
0
 10
0.2379
 20
-0.4500
 30
0.0000
 11
-0.2379
 21
-0.4500
 31
0.0000
  0
LINE
  8
0
 10
-0.4500
 20
-0.2379
 30
0.0000
 11
-0.4500
 21
0.2379
 31
0.0000
  0
ENDBLK
  8
0
  0
BLOCK
  8
0
  2
OCTAGONV
 70
64
 10
0.0000
 20
0.0000
 30
0.0000
  3
OCTAGONV
  0
POLYLINE
  8
0
 66
1
 10
0.0000
 20
0.0000
 30
0.0000
 40
0.0000
 41
0.0000
 70
1
  0
VERTEX
  8
0
 10
-0.5000
 20
-0.2071
 30
0.0000
  0
VERTEX
  8
0
 10
-0.5000
 20
0.2071
 30
0.0000
  0
VERTEX
  8
0
 10
-0.2071
 20
0.5000
 30
0.0000
  0
VERTEX
  8
0
 10
0.2071
 20
0.5000
 30
0.0000
  0
VERTEX
  8
0
 10
0.5000
 20
0.2071
 30
0.0000
  0
VERTEX
  8
0
 10
0.5000
 20
-0.2071
 30
0.0000
  0
VERTEX
  8
0
 10
0.2071
 20
-0.5000
 30
0.0000
  0
VERTEX
  8
0
 10
-0.2071
 20
-0.5000
 30
0.0000
  0
SEQEND
  8
0
  0
ENDBLK
  8
0
  0
BLOCK
  8
0
  2
SQUAREV
 70
64
 10
0.0000
 20
0.0000
 30
0.0000
  3
SQUAREV
  0
SOLID
  8
0
 10
-0.5000
 20
-0.5000
 30
0.0000
 11
0.5000
 21
-0.5000
 31
0.0000
 12
-0.5000
 22
0.5000
 32
0.0000
 13
0.5000
 23
0.5000
 33
0.0000
  0
ENDBLK
  8
0
  0
BLOCK
  8
0
  2
ROUNDV
 70
64
 10
0.0000
 20
0.0000
 30
0.0000
  3
ROUNDV
  0
CIRCLE
  8
0
 10
0.0000
 20
0.0000
 30
0.0000
 40
0.5000
  0
ENDBLK
  8
0
  0
BLOCK
  8
0
  2
ANNULUSV
 70
64
 10
0.0000
 20
0.0000
 30
0.0000
  3
ANNULUSV
  0
CIRCLE
  8
0
 10
0.0000
 20
0.0000
 30
0.0000
 40
0.5000
  0
ENDBLK
  8
0
  0
BLOCK
  8
0
  2
THERMALV
 70
64
 10
0.0000
 20
0.0000
 30
0.0000
  3
THERMALV
  0
LINE
  8
0
 10
-0.2379
 20
0.4500
 30
0.0000
 11
0.2379
 21
0.4500
 31
0.0000
  0
LINE
  8
0
 10
0.4500
 20
0.2379
 30
0.0000
 11
0.4500
 21
-0.2379
 31
0.0000
  0
LINE
  8
0
 10
0.2379
 20
-0.4500
 30
0.0000
 11
-0.2379
 21
-0.4500
 31
0.0000
  0
LINE
  8
0
 10
-0.4500
 20
-0.2379
 30
0.0000
 11
-0.4500
 21
0.2379
 31
0.0000
  0
ENDBLK
  8
0
  0
BLOCK
  8
0
  2
LONGP100
 70
64
 10
0.0000
 20
0.0000
 30
0.0000
  3
LONGP100
  0
POLYLINE
  8
0
 66
1
 10
0.0000
 20
0.0000
 30
0.0000
 40
0.0000
 41
0.0000
 70
1
  0
VERTEX
  8
0
 10
-0.5000
 20
-0.5000
 30
0.0000
  0
VERTEX
  8
0
 10
0.5000
 20
-0.5000
 30
0.0000
 42
1.0000
  0
VERTEX
  8
0
 10
0.5000
 20
0.5000
 30
0.0000
  0
VERTEX
  8
0
 10
-0.5000
 20
0.5000
 30
0.0000
 42
1.0000
  0
SEQEND
  8
0
  0
ENDBLK
  8
0
  0
ENDSEC
  0
SECTION
  2
ENTITIES
  0
LINE
  8
50
 10
0.0000
 20
0.0000
 30
0.0000
 11
96.0000
 21
0.0000
 31
0.0000
  0
LINE
  8
50
 10
96.0000
 20
0.0000
 30
0.0000
 11
96.0000
 21
55.0000
 31
0.0000
  0
LINE
  8
50
 10
96.0000
 20
55.0000
 30
0.0000
 11
0.0000
 21
55.0000
 31
0.0000
  0
LINE
  8
50
 10
0.0000
 20
55.0000
 30
0.0000
 11
0.0000
 21
0.0000
 31
0.0000
  0
LINE
  8
50
 10
12.7000
 20
52.5000
 30
0.0000
 11
11.5000
 21
52.5000
 31
0.0000
  0
LINE
  8
50
 10
11.5000
 20
52.5000
 30
0.0000
 11
11.5000
 21
53.6000
 31
0.0000
  0
LINE
  8
50
 10
63.8000
 20
52.5000
 30
0.0000
 11
62.5000
 21
52.5000
 31
0.0000
  0
LINE
  8
50
 10
62.5000
 20
52.5000
 30
0.0000
 11
62.5000
 21
53.8000
 31
0.0000
  0
LINE
  8
50
 10
91.6000
 20
52.5000
 30
0.0000
 11
90.3000
 21
52.5000
 31
0.0000
  0
LINE
  8
50
 10
90.3000
 20
52.5000
 30
0.0000
 11
90.3000
 21
53.9000
 31
0.0000
  0
LINE
  8
50
 10
95.8000
 20
7.1000
 30
0.0000
 11
94.5000
 21
7.1000
 31
0.0000
  0
LINE
  8
50
 10
94.5000
 20
7.1000
 30
0.0000
 11
94.5000
 21
8.5000
 31
0.0000
  0
LINE
  8
50
 10
63.8000
 20
2.5000
 30
0.0000
 11
62.5000
 21
2.5000
 31
0.0000
  0
LINE
  8
50
 10
62.5000
 20
2.5000
 30
0.0000
 11
62.5000
 21
3.8000
 31
0.0000
  0
LINE
  8
50
 10
12.8000
 20
2.5000
 30
0.0000
 11
11.5000
 21
2.5000
 31
0.0000
  0
LINE
  8
50
 10
11.5000
 20
2.5000
 30
0.0000
 11
11.5000
 21
3.8000
 31
0.0000
  0
LINE
  8
50
 10
29.3845
 20
5.4450
 30
0.0000
 11
29.3845
 21
2.6950
 31
0.0000
  0
LINE
  8
50
 10
29.3845
 20
2.6950
 30
0.0000
 11
27.3845
 21
2.6950
 31
0.0000
  0
LINE
  8
50
 10
27.3845
 20
2.6950
 30
0.0000
 11
27.3845
 21
5.5450
 31
0.0000
  0
LINE
  8
50
 10
27.3845
 20
5.5450
 30
0.0000
 11
26.7845
 21
5.5450
 31
0.0000
  0
ARC
  8
50
 10
26.7845
 20
5.9450
 30
0.0000
 40
0.4000
 50
180.0000
 51
270.0000
  0
LINE
  8
50
 10
26.3845
 20
5.9450
 30
0.0000
 11
26.3845
 21
8.8450
 31
0.0000
  0
ARC
  8
50
 10
26.7845
 20
8.8450
 30
0.0000
 40
0.4000
 50
90.0000
 51
180.0000
  0
LINE
  8
50
 10
26.7845
 20
9.2450
 30
0.0000
 11
29.9845
 21
9.2450
 31
0.0000
  0
ARC
  8
50
 10
29.9845
 20
8.8450
 30
0.0000
 40
0.4000
 50
0.0000
 51
90.0000
  0
LINE
  8
50
 10
30.3845
 20
8.8450
 30
0.0000
 11
30.3845
 21
5.9450
 31
0.0000
  0
ARC
  8
50
 10
29.9845
 20
5.9450
 30
0.0000
 40
0.4000
 50
270.0000
 51
0.0000
  0
LINE
  8
50
 10
29.9845
 20
5.5450
 30
0.0000
 11
29.3845
 21
5.5450
 31
0.0000
  0
LINE
  8
50
 10
29.3845
 20
5.5450
 30
0.0000
 11
29.3845
 21
5.4450
 31
0.0000
  0
LINE
  8
50
 10
43.7925
 20
9.3775
 30
0.0000
 11
43.7925
 21
12.1775
 31
0.0000
  0
LINE
  8
50
 10
43.7925
 20
12.1775
 30
0.0000
 11
45.7425
 21
12.1775
 31
0.0000
  0
LINE
  8
50
 10
45.7425
 20
12.1775
 30
0.0000
 11
45.7425
 21
9.3775
 31
0.0000
  0
LINE
  8
50
 10
45.7425
 20
9.3775
 30
0.0000
 11
46.3675
 21
9.3775
 31
0.0000
  0
ARC
  8
50
 10
46.3675
 20
8.9775
 30
0.0000
 40
0.4000
 50
0.0000
 51
90.0000
  0
LINE
  8
50
 10
46.7675
 20
8.9775
 30
0.0000
 11
46.7675
 21
6.0775
 31
0.0000
  0
ARC
  8
50
 10
46.3675
 20
6.0775
 30
0.0000
 40
0.4000
 50
270.0000
 51
0.0000
  0
LINE
  8
50
 10
46.3675
 20
5.6775
 30
0.0000
 11
43.1675
 21
5.6775
 31
0.0000
  0
ARC
  8
50
 10
43.1675
 20
6.0775
 30
0.0000
 40
0.4000
 50
180.0000
 51
270.0000
  0
LINE
  8
50
 10
42.7675
 20
6.0775
 30
0.0000
 11
42.7675
 21
8.9775
 31
0.0000
  0
ARC
  8
50
 10
43.1675
 20
8.9775
 30
0.0000
 40
0.4000
 50
90.0000
 51
180.0000
  0
LINE
  8
50
 10
43.1675
 20
9.3775
 30
0.0000
 11
43.7925
 21
9.3775
 31
0.0000
  0
LINE
  8
50
 10
47.6025
 20
9.3775
 30
0.0000
 11
47.6025
 21
12.1775
 31
0.0000
  0
LINE
  8
50
 10
47.6025
 20
12.1775
 30
0.0000
 11
49.5525
 21
12.1775
 31
0.0000
  0
LINE
  8
50
 10
49.5525
 20
12.1775
 30
0.0000
 11
49.5525
 21
9.3775
 31
0.0000
  0
LINE
  8
50
 10
49.5525
 20
9.3775
 30
0.0000
 11
50.1775
 21
9.3775
 31
0.0000
  0
ARC
  8
50
 10
50.1775
 20
8.9775
 30
0.0000
 40
0.4000
 50
0.0000
 51
90.0000
  0
LINE
  8
50
 10
50.5775
 20
8.9775
 30
0.0000
 11
50.5775
 21
6.0775
 31
0.0000
  0
ARC
  8
50
 10
50.1775
 20
6.0775
 30
0.0000
 40
0.4000
 50
270.0000
 51
0.0000
  0
LINE
  8
50
 10
50.1775
 20
5.6775
 30
0.0000
 11
46.9775
 21
5.6775
 31
0.0000
  0
ARC
  8
50
 10
46.9775
 20
6.0775
 30
0.0000
 40
0.4000
 50
180.0000
 51
270.0000
  0
LINE
  8
50
 10
46.5775
 20
6.0775
 30
0.0000
 11
46.5775
 21
8.9775
 31
0.0000
  0
ARC
  8
50
 10
46.9775
 20
8.9775
 30
0.0000
 40
0.4000
 50
90.0000
 51
180.0000
  0
LINE
  8
50
 10
46.9775
 20
9.3775
 30
0.0000
 11
47.6025
 21
9.3775
 31
0.0000
  0
LINE
  8
50
 10
58.7600
 20
29.0400
 30
0.0000
 11
58.7600
 21
26.2400
 31
0.0000
  0
LINE
  8
50
 10
58.7600
 20
26.2400
 30
0.0000
 11
56.8100
 21
26.2400
 31
0.0000
  0
LINE
  8
50
 10
56.8100
 20
26.2400
 30
0.0000
 11
56.8100
 21
29.0400
 31
0.0000
  0
LINE
  8
50
 10
56.8100
 20
29.0400
 30
0.0000
 11
56.1850
 21
29.0400
 31
0.0000
  0
ARC
  8
50
 10
56.1850
 20
29.4400
 30
0.0000
 40
0.4000
 50
180.0000
 51
270.0000
  0
LINE
  8
50
 10
55.7850
 20
29.4400
 30
0.0000
 11
55.7850
 21
32.3400
 31
0.0000
  0
ARC
  8
50
 10
56.1850
 20
32.3400
 30
0.0000
 40
0.4000
 50
90.0000
 51
180.0000
  0
LINE
  8
50
 10
56.1850
 20
32.7400
 30
0.0000
 11
59.3850
 21
32.7400
 31
0.0000
  0
ARC
  8
50
 10
59.3850
 20
32.3400
 30
0.0000
 40
0.4000
 50
0.0000
 51
90.0000
  0
LINE
  8
50
 10
59.7850
 20
32.3400
 30
0.0000
 11
59.7850
 21
29.4400
 31
0.0000
  0
ARC
  8
50
 10
59.3850
 20
29.4400
 30
0.0000
 40
0.4000
 50
270.0000
 51
0.0000
  0
LINE
  8
50
 10
59.3850
 20
29.0400
 30
0.0000
 11
58.7600
 21
29.0400
 31
0.0000
  0
LINE
  8
50
 10
49.2350
 20
24.7220
 30
0.0000
 11
49.2350
 21
21.9220
 31
0.0000
  0
LINE
  8
50
 10
49.2350
 20
21.9220
 30
0.0000
 11
47.2850
 21
21.9220
 31
0.0000
  0
LINE
  8
50
 10
47.2850
 20
21.9220
 30
0.0000
 11
47.2850
 21
24.7220
 31
0.0000
  0
LINE
  8
50
 10
47.2850
 20
24.7220
 30
0.0000
 11
46.6600
 21
24.7220
 31
0.0000
  0
ARC
  8
50
 10
46.6600
 20
25.1220
 30
0.0000
 40
0.4000
 50
180.0000
 51
270.0000
  0
LINE
  8
50
 10
46.2600
 20
25.1220
 30
0.0000
 11
46.2600
 21
28.0220
 31
0.0000
  0
ARC
  8
50
 10
46.6600
 20
28.0220
 30
0.0000
 40
0.4000
 50
90.0000
 51
180.0000
  0
LINE
  8
50
 10
46.6600
 20
28.4220
 30
0.0000
 11
49.8600
 21
28.4220
 31
0.0000
  0
ARC
  8
50
 10
49.8600
 20
28.0220
 30
0.0000
 40
0.4000
 50
0.0000
 51
90.0000
  0
LINE
  8
50
 10
50.2600
 20
28.0220
 30
0.0000
 11
50.2600
 21
25.1220
 31
0.0000
  0
ARC
  8
50
 10
49.8600
 20
25.1220
 30
0.0000
 40
0.4000
 50
270.0000
 51
0.0000
  0
LINE
  8
50
 10
49.8600
 20
24.7220
 30
0.0000
 11
49.2350
 21
24.7220
 31
0.0000
  0
LINE
  8
50
 10
62.3250
 20
40.7200
 30
0.0000
 11
57.8250
 21
40.7200
 31
0.0000
  0
ARC
  8
50
 10
57.8250
 20
40.3200
 30
0.0000
 40
0.4000
 50
90.0000
 51
180.0000
  0
LINE
  8
50
 10
57.4250
 20
40.3200
 30
0.0000
 11
57.4250
 21
38.4200
 31
0.0000
  0
ARC
  8
50
 10
57.8250
 20
38.4200
 30
0.0000
 40
0.4000
 50
180.0000
 51
270.0000
  0
LINE
  8
50
 10
57.8250
 20
38.0200
 30
0.0000
 11
62.3250
 21
38.0200
 31
0.0000
  0
LINE
  8
50
 10
62.3250
 20
38.0200
 30
0.0000
 11
62.3250
 21
37.7700
 31
0.0000
  0
ARC
  8
50
 10
62.7250
 20
37.7700
 30
0.0000
 40
0.4000
 50
180.0000
 51
270.0000
  0
LINE
  8
50
 10
62.7250
 20
37.3700
 30
0.0000
 11
65.4250
 21
37.3700
 31
0.0000
  0
ARC
  8
50
 10
65.4250
 20
37.7700
 30
0.0000
 40
0.4000
 50
270.0000
 51
0.0000
  0
LINE
  8
50
 10
65.8250
 20
37.7700
 30
0.0000
 11
65.8250
 21
40.9700
 31
0.0000
  0
ARC
  8
50
 10
65.4250
 20
40.9700
 30
0.0000
 40
0.4000
 50
0.0000
 51
90.0000
  0
LINE
  8
50
 10
65.4250
 20
41.3700
 30
0.0000
 11
62.7250
 21
41.3700
 31
0.0000
  0
ARC
  8
50
 10
62.7250
 20
40.9700
 30
0.0000
 40
0.4000
 50
90.0000
 51
180.0000
  0
LINE
  8
50
 10
62.3250
 20
40.9700
 30
0.0000
 11
62.3250
 21
40.7200
 31
0.0000
  0
LINE
  8
50
 10
62.3250
 20
43.8950
 30
0.0000
 11
57.8250
 21
43.8950
 31
0.0000
  0
ARC
  8
50
 10
57.8250
 20
43.4950
 30
0.0000
 40
0.4000
 50
90.0000
 51
180.0000
  0
LINE
  8
50
 10
57.4250
 20
43.4950
 30
0.0000
 11
57.4250
 21
41.5950
 31
0.0000
  0
ARC
  8
50
 10
57.8250
 20
41.5950
 30
0.0000
 40
0.4000
 50
180.0000
 51
270.0000
  0
LINE
  8
50
 10
57.8250
 20
41.1950
 30
0.0000
 11
62.3250
 21
41.1950
 31
0.0000
  0
LINE
  8
50
 10
62.3250
 20
41.1950
 30
0.0000
 11
62.3250
 21
40.9450
 31
0.0000
  0
ARC
  8
50
 10
62.7250
 20
40.9450
 30
0.0000
 40
0.4000
 50
180.0000
 51
270.0000
  0
LINE
  8
50
 10
62.7250
 20
40.5450
 30
0.0000
 11
65.4250
 21
40.5450
 31
0.0000
  0
ARC
  8
50
 10
65.4250
 20
40.9450
 30
0.0000
 40
0.4000
 50
270.0000
 51
0.0000
  0
LINE
  8
50
 10
65.8250
 20
40.9450
 30
0.0000
 11
65.8250
 21
44.1450
 31
0.0000
  0
ARC
  8
50
 10
65.4250
 20
44.1450
 30
0.0000
 40
0.4000
 50
0.0000
 51
90.0000
  0
LINE
  8
50
 10
65.4250
 20
44.5450
 30
0.0000
 11
62.7250
 21
44.5450
 31
0.0000
  0
ARC
  8
50
 10
62.7250
 20
44.1450
 30
0.0000
 40
0.4000
 50
90.0000
 51
180.0000
  0
LINE
  8
50
 10
62.3250
 20
44.1450
 30
0.0000
 11
62.3250
 21
43.8950
 31
0.0000
  0
LINE
  8
50
 10
10.2550
 20
18.4950
 30
0.0000
 11
5.7550
 21
18.4950
 31
0.0000
  0
ARC
  8
50
 10
5.7550
 20
18.0950
 30
0.0000
 40
0.4000
 50
90.0000
 51
180.0000
  0
LINE
  8
50
 10
5.3550
 20
18.0950
 30
0.0000
 11
5.3550
 21
16.1950
 31
0.0000
  0
ARC
  8
50
 10
5.7550
 20
16.1950
 30
0.0000
 40
0.4000
 50
180.0000
 51
270.0000
  0
LINE
  8
50
 10
5.7550
 20
15.7950
 30
0.0000
 11
10.2550
 21
15.7950
 31
0.0000
  0
LINE
  8
50
 10
10.2550
 20
15.7950
 30
0.0000
 11
10.2550
 21
15.5450
 31
0.0000
  0
ARC
  8
50
 10
10.6550
 20
15.5450
 30
0.0000
 40
0.4000
 50
180.0000
 51
270.0000
  0
LINE
  8
50
 10
10.6550
 20
15.1450
 30
0.0000
 11
13.3550
 21
15.1450
 31
0.0000
  0
ARC
  8
50
 10
13.3550
 20
15.5450
 30
0.0000
 40
0.4000
 50
270.0000
 51
0.0000
  0
LINE
  8
50
 10
13.7550
 20
15.5450
 30
0.0000
 11
13.7550
 21
18.7450
 31
0.0000
  0
ARC
  8
50
 10
13.3550
 20
18.7450
 30
0.0000
 40
0.4000
 50
0.0000
 51
90.0000
  0
LINE
  8
50
 10
13.3550
 20
19.1450
 30
0.0000
 11
10.6550
 21
19.1450
 31
0.0000
  0
ARC
  8
50
 10
10.6550
 20
18.7450
 30
0.0000
 40
0.4000
 50
90.0000
 51
180.0000
  0
LINE
  8
50
 10
10.2550
 20
18.7450
 30
0.0000
 11
10.2550
 21
18.4950
 31
0.0000
  0
LINE
  8
50
 10
10.2550
 20
15.3200
 30
0.0000
 11
5.7550
 21
15.3200
 31
0.0000
  0
ARC
  8
50
 10
5.7550
 20
14.9200
 30
0.0000
 40
0.4000
 50
90.0000
 51
180.0000
  0
LINE
  8
50
 10
5.3550
 20
14.9200
 30
0.0000
 11
5.3550
 21
13.0200
 31
0.0000
  0
ARC
  8
50
 10
5.7550
 20
13.0200
 30
0.0000
 40
0.4000
 50
180.0000
 51
270.0000
  0
LINE
  8
50
 10
5.7550
 20
12.6200
 30
0.0000
 11
10.2550
 21
12.6200
 31
0.0000
  0
LINE
  8
50
 10
10.2550
 20
12.6200
 30
0.0000
 11
10.2550
 21
12.3700
 31
0.0000
  0
ARC
  8
50
 10
10.6550
 20
12.3700
 30
0.0000
 40
0.4000
 50
180.0000
 51
270.0000
  0
LINE
  8
50
 10
10.6550
 20
11.9700
 30
0.0000
 11
13.3550
 21
11.9700
 31
0.0000
  0
ARC
  8
50
 10
13.3550
 20
12.3700
 30
0.0000
 40
0.4000
 50
270.0000
 51
0.0000
  0
LINE
  8
50
 10
13.7550
 20
12.3700
 30
0.0000
 11
13.7550
 21
15.5700
 31
0.0000
  0
ARC
  8
50
 10
13.3550
 20
15.5700
 30
0.0000
 40
0.4000
 50
0.0000
 51
90.0000
  0
LINE
  8
50
 10
13.3550
 20
15.9700
 30
0.0000
 11
10.6550
 21
15.9700
 31
0.0000
  0
ARC
  8
50
 10
10.6550
 20
15.5700
 30
0.0000
 40
0.4000
 50
90.0000
 51
180.0000
  0
LINE
  8
50
 10
10.2550
 20
15.5700
 30
0.0000
 11
10.2550
 21
15.3200
 31
0.0000
  0
LINE
  8
50
 10
10.2550
 20
12.1450
 30
0.0000
 11
5.7550
 21
12.1450
 31
0.0000
  0
ARC
  8
50
 10
5.7550
 20
11.7450
 30
0.0000
 40
0.4000
 50
90.0000
 51
180.0000
  0
LINE
  8
50
 10
5.3550
 20
11.7450
 30
0.0000
 11
5.3550
 21
9.8450
 31
0.0000
  0
ARC
  8
50
 10
5.7550
 20
9.8450
 30
0.0000
 40
0.4000
 50
180.0000
 51
270.0000
  0
LINE
  8
50
 10
5.7550
 20
9.4450
 30
0.0000
 11
10.2550
 21
9.4450
 31
0.0000
  0
LINE
  8
50
 10
10.2550
 20
9.4450
 30
0.0000
 11
10.2550
 21
9.1950
 31
0.0000
  0
ARC
  8
50
 10
10.6550
 20
9.1950
 30
0.0000
 40
0.4000
 50
180.0000
 51
270.0000
  0
LINE
  8
50
 10
10.6550
 20
8.7950
 30
0.0000
 11
13.3550
 21
8.7950
 31
0.0000
  0
ARC
  8
50
 10
13.3550
 20
9.1950
 30
0.0000
 40
0.4000
 50
270.0000
 51
0.0000
  0
LINE
  8
50
 10
13.7550
 20
9.1950
 30
0.0000
 11
13.7550
 21
12.3950
 31
0.0000
  0
ARC
  8
50
 10
13.3550
 20
12.3950
 30
0.0000
 40
0.4000
 50
0.0000
 51
90.0000
  0
LINE
  8
50
 10
13.3550
 20
12.7950
 30
0.0000
 11
10.6550
 21
12.7950
 31
0.0000
  0
ARC
  8
50
 10
10.6550
 20
12.3950
 30
0.0000
 40
0.4000
 50
90.0000
 51
180.0000
  0
LINE
  8
50
 10
10.2550
 20
12.3950
 30
0.0000
 11
10.2550
 21
12.1450
 31
0.0000
  0
LINE
  8
50
 10
10.2550
 20
8.9700
 30
0.0000
 11
5.7550
 21
8.9700
 31
0.0000
  0
ARC
  8
50
 10
5.7550
 20
8.5700
 30
0.0000
 40
0.4000
 50
90.0000
 51
180.0000
  0
LINE
  8
50
 10
5.3550
 20
8.5700
 30
0.0000
 11
5.3550
 21
6.6700
 31
0.0000
  0
ARC
  8
50
 10
5.7550
 20
6.6700
 30
0.0000
 40
0.4000
 50
180.0000
 51
270.0000
  0
LINE
  8
50
 10
5.7550
 20
6.2700
 30
0.0000
 11
10.2550
 21
6.2700
 31
0.0000
  0
LINE
  8
50
 10
10.2550
 20
6.2700
 30
0.0000
 11
10.2550
 21
6.0200
 31
0.0000
  0
ARC
  8
50
 10
10.6550
 20
6.0200
 30
0.0000
 40
0.4000
 50
180.0000
 51
270.0000
  0
LINE
  8
50
 10
10.6550
 20
5.6200
 30
0.0000
 11
13.3550
 21
5.6200
 31
0.0000
  0
ARC
  8
50
 10
13.3550
 20
6.0200
 30
0.0000
 40
0.4000
 50
270.0000
 51
0.0000
  0
LINE
  8
50
 10
13.7550
 20
6.0200
 30
0.0000
 11
13.7550
 21
9.2200
 31
0.0000
  0
ARC
  8
50
 10
13.3550
 20
9.2200
 30
0.0000
 40
0.4000
 50
0.0000
 51
90.0000
  0
LINE
  8
50
 10
13.3550
 20
9.6200
 30
0.0000
 11
10.6550
 21
9.6200
 31
0.0000
  0
ARC
  8
50
 10
10.6550
 20
9.2200
 30
0.0000
 40
0.4000
 50
90.0000
 51
180.0000
  0
LINE
  8
50
 10
10.2550
 20
9.2200
 30
0.0000
 11
10.2550
 21
8.9700
 31
0.0000
  0
LINE
  8
50
 10
62.3250
 20
34.3700
 30
0.0000
 11
57.8250
 21
34.3700
 31
0.0000
  0
ARC
  8
50
 10
57.8250
 20
33.9700
 30
0.0000
 40
0.4000
 50
90.0000
 51
180.0000
  0
LINE
  8
50
 10
57.4250
 20
33.9700
 30
0.0000
 11
57.4250
 21
32.0700
 31
0.0000
  0
ARC
  8
50
 10
57.8250
 20
32.0700
 30
0.0000
 40
0.4000
 50
180.0000
 51
270.0000
  0
LINE
  8
50
 10
57.8250
 20
31.6700
 30
0.0000
 11
62.3250
 21
31.6700
 31
0.0000
  0
LINE
  8
50
 10
62.3250
 20
31.6700
 30
0.0000
 11
62.3250
 21
31.4200
 31
0.0000
  0
ARC
  8
50
 10
62.7250
 20
31.4200
 30
0.0000
 40
0.4000
 50
180.0000
 51
270.0000
  0
LINE
  8
50
 10
62.7250
 20
31.0200
 30
0.0000
 11
65.4250
 21
31.0200
 31
0.0000
  0
ARC
  8
50
 10
65.4250
 20
31.4200
 30
0.0000
 40
0.4000
 50
270.0000
 51
0.0000
  0
LINE
  8
50
 10
65.8250
 20
31.4200
 30
0.0000
 11
65.8250
 21
34.6200
 31
0.0000
  0
ARC
  8
50
 10
65.4250
 20
34.6200
 30
0.0000
 40
0.4000
 50
0.0000
 51
90.0000
  0
LINE
  8
50
 10
65.4250
 20
35.0200
 30
0.0000
 11
62.7250
 21
35.0200
 31
0.0000
  0
ARC
  8
50
 10
62.7250
 20
34.6200
 30
0.0000
 40
0.4000
 50
90.0000
 51
180.0000
  0
LINE
  8
50
 10
62.3250
 20
34.6200
 30
0.0000
 11
62.3250
 21
34.3700
 31
0.0000
  0
LINE
  8
50
 10
10.2550
 20
21.6700
 30
0.0000
 11
5.7550
 21
21.6700
 31
0.0000
  0
ARC
  8
50
 10
5.7550
 20
21.2700
 30
0.0000
 40
0.4000
 50
90.0000
 51
180.0000
  0
LINE
  8
50
 10
5.3550
 20
21.2700
 30
0.0000
 11
5.3550
 21
19.3700
 31
0.0000
  0
ARC
  8
50
 10
5.7550
 20
19.3700
 30
0.0000
 40
0.4000
 50
180.0000
 51
270.0000
  0
LINE
  8
50
 10
5.7550
 20
18.9700
 30
0.0000
 11
10.2550
 21
18.9700
 31
0.0000
  0
LINE
  8
50
 10
10.2550
 20
18.9700
 30
0.0000
 11
10.2550
 21
18.7200
 31
0.0000
  0
ARC
  8
50
 10
10.6550
 20
18.7200
 30
0.0000
 40
0.4000
 50
180.0000
 51
270.0000
  0
LINE
  8
50
 10
10.6550
 20
18.3200
 30
0.0000
 11
13.3550
 21
18.3200
 31
0.0000
  0
ARC
  8
50
 10
13.3550
 20
18.7200
 30
0.0000
 40
0.4000
 50
270.0000
 51
0.0000
  0
LINE
  8
50
 10
13.7550
 20
18.7200
 30
0.0000
 11
13.7550
 21
21.9200
 31
0.0000
  0
ARC
  8
50
 10
13.3550
 20
21.9200
 30
0.0000
 40
0.4000
 50
0.0000
 51
90.0000
  0
LINE
  8
50
 10
13.3550
 20
22.3200
 30
0.0000
 11
10.6550
 21
22.3200
 31
0.0000
  0
ARC
  8
50
 10
10.6550
 20
21.9200
 30
0.0000
 40
0.4000
 50
90.0000
 51
180.0000
  0
LINE
  8
50
 10
10.2550
 20
21.9200
 30
0.0000
 11
10.2550
 21
21.6700
 31
0.0000
  0
LINE
  8
50
 10
29.8050
 20
9.6000
 30
0.0000
 11
24.8050
 21
9.6000
 31
0.0000
  0
LINE
  8
50
 10
24.8050
 20
9.6000
 30
0.0000
 11
24.8050
 21
14.7000
 31
0.0000
  0
LINE
  8
50
 10
24.8050
 20
14.7000
 30
0.0000
 11
24.2050
 21
14.7000
 31
0.0000
  0
ARC
  8
50
 10
24.2050
 20
15.1000
 30
0.0000
 40
0.4000
 50
180.0000
 51
270.0000
  0
LINE
  8
50
 10
23.8050
 20
15.1000
 30
0.0000
 11
23.8050
 21
19.0000
 31
0.0000
  0
ARC
  8
50
 10
24.2050
 20
19.0000
 30
0.0000
 40
0.4000
 50
90.0000
 51
180.0000
  0
LINE
  8
50
 10
24.2050
 20
19.4000
 30
0.0000
 11
30.4050
 21
19.4000
 31
0.0000
  0
ARC
  8
50
 10
30.4050
 20
19.0000
 30
0.0000
 40
0.4000
 50
0.0000
 51
90.0000
  0
LINE
  8
50
 10
30.8050
 20
19.0000
 30
0.0000
 11
30.8050
 21
15.1000
 31
0.0000
  0
ARC
  8
50
 10
30.4050
 20
15.1000
 30
0.0000
 40
0.4000
 50
270.0000
 51
0.0000
  0
LINE
  8
50
 10
30.4050
 20
14.7000
 30
0.0000
 11
29.8050
 21
14.7000
 31
0.0000
  0
LINE
  8
50
 10
29.8050
 20
14.7000
 30
0.0000
 11
29.8050
 21
9.6000
 31
0.0000
  0
LINE
  8
50
 10
87.0700
 20
39.4000
 30
0.0000
 11
87.0700
 21
49.5000
 31
0.0000
  0
LINE
  8
50
 10
92.5700
 20
50.4900
 30
0.0000
 11
96.4700
 21
50.4900
 31
0.0000
  0
ARC
  8
50
 10
96.4700
 20
50.0900
 30
0.0000
 40
0.4000
 50
0.0000
 51
90.0000
  0
LINE
  8
50
 10
96.8700
 20
50.0900
 30
0.0000
 11
96.8700
 21
38.8100
 31
0.0000
  0
ARC
  8
50
 10
96.4700
 20
38.8100
 30
0.0000
 40
0.4000
 50
270.0000
 51
0.0000
  0
LINE
  8
50
 10
96.4700
 20
38.4100
 30
0.0000
 11
92.5700
 21
38.4100
 31
0.0000
  0
ARC
  8
50
 10
92.5700
 20
38.8100
 30
0.0000
 40
0.4000
 50
180.0000
 51
270.0000
  0
LINE
  8
50
 10
92.1700
 20
38.8100
 30
0.0000
 11
92.1700
 21
39.4000
 31
0.0000
  0
LINE
  8
50
 10
92.1700
 20
39.4000
 30
0.0000
 11
87.0700
 21
39.4000
 31
0.0000
  0
LINE
  8
50
 10
87.0700
 20
49.5000
 30
0.0000
 11
92.1700
 21
49.5000
 31
0.0000
  0
LINE
  8
50
 10
92.1700
 20
49.5000
 30
0.0000
 11
92.1700
 21
50.0900
 31
0.0000
  0
ARC
  8
50
 10
92.5700
 20
50.0900
 30
0.0000
 40
0.4000
 50
90.0000
 51
180.0000
  0
LINE
  8
50
 10
56.4750
 20
12.7750
 30
0.0000
 11
51.4750
 21
12.7750
 31
0.0000
  0
LINE
  8
50
 10
51.4750
 20
12.7750
 30
0.0000
 11
51.4750
 21
17.8750
 31
0.0000
  0
LINE
  8
50
 10
51.4750
 20
17.8750
 30
0.0000
 11
50.8750
 21
17.8750
 31
0.0000
  0
ARC
  8
50
 10
50.8750
 20
18.2750
 30
0.0000
 40
0.4000
 50
180.0000
 51
270.0000
  0
LINE
  8
50
 10
50.4750
 20
18.2750
 30
0.0000
 11
50.4750
 21
21.3750
 31
0.0000
  0
ARC
  8
50
 10
50.8750
 20
21.3750
 30
0.0000
 40
0.4000
 50
90.0000
 51
180.0000
  0
LINE
  8
50
 10
50.8750
 20
21.7750
 30
0.0000
 11
57.0750
 21
21.7750
 31
0.0000
  0
ARC
  8
50
 10
57.0750
 20
21.3750
 30
0.0000
 40
0.4000
 50
0.0000
 51
90.0000
  0
LINE
  8
50
 10
57.4750
 20
21.3750
 30
0.0000
 11
57.4750
 21
18.2750
 31
0.0000
  0
ARC
  8
50
 10
57.0750
 20
18.2750
 30
0.0000
 40
0.4000
 50
270.0000
 51
0.0000
  0
LINE
  8
50
 10
57.0750
 20
17.8750
 30
0.0000
 11
56.4750
 21
17.8750
 31
0.0000
  0
LINE
  8
50
 10
56.4750
 20
17.8750
 30
0.0000
 11
56.4750
 21
12.7750
 31
0.0000
  0
LINE
  8
50
 10
32.8580
 20
5.0650
 30
0.0000
 11
31.2580
 21
5.0650
 31
0.0000
  0
ARC
  8
50
 10
31.2580
 20
5.4650
 30
0.0000
 40
0.4000
 50
180.0000
 51
270.0000
  0
LINE
  8
50
 10
30.8580
 20
5.4650
 30
0.0000
 11
30.8580
 21
5.9650
 31
0.0000
  0
ARC
  8
50
 10
31.2580
 20
5.9650
 30
0.0000
 40
0.4000
 50
90.0000
 51
180.0000
  0
LINE
  8
50
 10
31.2580
 20
6.3650
 30
0.0000
 11
32.8580
 21
6.3650
 31
0.0000
  0
LINE
  8
50
 10
32.8580
 20
5.0650
 30
0.0000
 11
32.8580
 21
4.6150
 31
0.0000
  0
ARC
  8
50
 10
33.2580
 20
4.6150
 30
0.0000
 40
0.4000
 50
180.0000
 51
270.0000
  0
LINE
  8
50
 10
33.2580
 20
4.2150
 30
0.0000
 11
35.3580
 21
4.2150
 31
0.0000
  0
ARC
  8
50
 10
35.3580
 20
4.6150
 30
0.0000
 40
0.4000
 50
270.0000
 51
0.0000
  0
LINE
  8
50
 10
35.7580
 20
4.6150
 30
0.0000
 11
35.7580
 21
6.8150
 31
0.0000
  0
ARC
  8
50
 10
35.3580
 20
6.8150
 30
0.0000
 40
0.4000
 50
0.0000
 51
90.0000
  0
LINE
  8
50
 10
35.3580
 20
7.2150
 30
0.0000
 11
33.2580
 21
7.2150
 31
0.0000
  0
ARC
  8
50
 10
33.2580
 20
6.8150
 30
0.0000
 40
0.4000
 50
90.0000
 51
180.0000
  0
LINE
  8
50
 10
32.8580
 20
6.8150
 30
0.0000
 11
32.8580
 21
6.3650
 31
0.0000
  0
LINE
  8
50
 10
23.5100
 20
11.7125
 30
0.0000
 11
23.5100
 21
10.1125
 31
0.0000
  0
ARC
  8
50
 10
23.1100
 20
10.1125
 30
0.0000
 40
0.4000
 50
270.0000
 51
0.0000
  0
LINE
  8
50
 10
23.1100
 20
9.7125
 30
0.0000
 11
22.6100
 21
9.7125
 31
0.0000
  0
ARC
  8
50
 10
22.6100
 20
10.1125
 30
0.0000
 40
0.4000
 50
180.0000
 51
270.0000
  0
LINE
  8
50
 10
22.2100
 20
10.1125
 30
0.0000
 11
22.2100
 21
11.7125
 31
0.0000
  0
LINE
  8
50
 10
23.5100
 20
11.7125
 30
0.0000
 11
23.9600
 21
11.7125
 31
0.0000
  0
ARC
  8
50
 10
23.9600
 20
12.1125
 30
0.0000
 40
0.4000
 50
270.0000
 51
0.0000
  0
LINE
  8
50
 10
24.3600
 20
12.1125
 30
0.0000
 11
24.3600
 21
14.2125
 31
0.0000
  0
ARC
  8
50
 10
23.9600
 20
14.2125
 30
0.0000
 40
0.4000
 50
0.0000
 51
90.0000
  0
LINE
  8
50
 10
23.9600
 20
14.6125
 30
0.0000
 11
21.7600
 21
14.6125
 31
0.0000
  0
ARC
  8
50
 10
21.7600
 20
14.2125
 30
0.0000
 40
0.4000
 50
90.0000
 51
180.0000
  0
LINE
  8
50
 10
21.3600
 20
14.2125
 30
0.0000
 11
21.3600
 21
12.1125
 31
0.0000
  0
ARC
  8
50
 10
21.7600
 20
12.1125
 30
0.0000
 40
0.4000
 50
180.0000
 51
270.0000
  0
LINE
  8
50
 10
21.7600
 20
11.7125
 30
0.0000
 11
22.2100
 21
11.7125
 31
0.0000
  0
LINE
  8
50
 10
33.6200
 20
8.5575
 30
0.0000
 11
32.0200
 21
8.5575
 31
0.0000
  0
ARC
  8
50
 10
32.0200
 20
8.9575
 30
0.0000
 40
0.4000
 50
180.0000
 51
270.0000
  0
LINE
  8
50
 10
31.6200
 20
8.9575
 30
0.0000
 11
31.6200
 21
9.4575
 31
0.0000
  0
ARC
  8
50
 10
32.0200
 20
9.4575
 30
0.0000
 40
0.4000
 50
90.0000
 51
180.0000
  0
LINE
  8
50
 10
32.0200
 20
9.8575
 30
0.0000
 11
33.6200
 21
9.8575
 31
0.0000
  0
LINE
  8
50
 10
33.6200
 20
8.5575
 30
0.0000
 11
33.6200
 21
8.1075
 31
0.0000
  0
ARC
  8
50
 10
34.0200
 20
8.1075
 30
0.0000
 40
0.4000
 50
180.0000
 51
270.0000
  0
LINE
  8
50
 10
34.0200
 20
7.7075
 30
0.0000
 11
36.1200
 21
7.7075
 31
0.0000
  0
ARC
  8
50
 10
36.1200
 20
8.1075
 30
0.0000
 40
0.4000
 50
270.0000
 51
0.0000
  0
LINE
  8
50
 10
36.5200
 20
8.1075
 30
0.0000
 11
36.5200
 21
10.3075
 31
0.0000
  0
ARC
  8
50
 10
36.1200
 20
10.3075
 30
0.0000
 40
0.4000
 50
0.0000
 51
90.0000
  0
LINE
  8
50
 10
36.1200
 20
10.7075
 30
0.0000
 11
34.0200
 21
10.7075
 31
0.0000
  0
ARC
  8
50
 10
34.0200
 20
10.3075
 30
0.0000
 40
0.4000
 50
90.0000
 51
180.0000
  0
LINE
  8
50
 10
33.6200
 20
10.3075
 30
0.0000
 11
33.6200
 21
9.8575
 31
0.0000
  0
LINE
  8
50
 10
33.6200
 20
12.3675
 30
0.0000
 11
32.0200
 21
12.3675
 31
0.0000
  0
ARC
  8
50
 10
32.0200
 20
12.7675
 30
0.0000
 40
0.4000
 50
180.0000
 51
270.0000
  0
LINE
  8
50
 10
31.6200
 20
12.7675
 30
0.0000
 11
31.6200
 21
13.2675
 31
0.0000
  0
ARC
  8
50
 10
32.0200
 20
13.2675
 30
0.0000
 40
0.4000
 50
90.0000
 51
180.0000
  0
LINE
  8
50
 10
32.0200
 20
13.6675
 30
0.0000
 11
33.6200
 21
13.6675
 31
0.0000
  0
LINE
  8
50
 10
33.6200
 20
12.3675
 30
0.0000
 11
33.6200
 21
11.9175
 31
0.0000
  0
ARC
  8
50
 10
34.0200
 20
11.9175
 30
0.0000
 40
0.4000
 50
180.0000
 51
270.0000
  0
LINE
  8
50
 10
34.0200
 20
11.5175
 30
0.0000
 11
36.1200
 21
11.5175
 31
0.0000
  0
ARC
  8
50
 10
36.1200
 20
11.9175
 30
0.0000
 40
0.4000
 50
270.0000
 51
0.0000
  0
LINE
  8
50
 10
36.5200
 20
11.9175
 30
0.0000
 11
36.5200
 21
14.1175
 31
0.0000
  0
ARC
  8
50
 10
36.1200
 20
14.1175
 30
0.0000
 40
0.4000
 50
0.0000
 51
90.0000
  0
LINE
  8
50
 10
36.1200
 20
14.5175
 30
0.0000
 11
34.0200
 21
14.5175
 31
0.0000
  0
ARC
  8
50
 10
34.0200
 20
14.1175
 30
0.0000
 40
0.4000
 50
90.0000
 51
180.0000
  0
LINE
  8
50
 10
33.6200
 20
14.1175
 30
0.0000
 11
33.6200
 21
13.6675
 31
0.0000
  0
LINE
  8
50
 10
46.3065
 20
24.0950
 30
0.0000
 11
46.3065
 21
22.4950
 31
0.0000
  0
ARC
  8
50
 10
45.9065
 20
22.4950
 30
0.0000
 40
0.4000
 50
270.0000
 51
0.0000
  0
LINE
  8
50
 10
45.9065
 20
22.0950
 30
0.0000
 11
45.4065
 21
22.0950
 31
0.0000
  0
ARC
  8
50
 10
45.4065
 20
22.4950
 30
0.0000
 40
0.4000
 50
180.0000
 51
270.0000
  0
LINE
  8
50
 10
45.0065
 20
22.4950
 30
0.0000
 11
45.0065
 21
24.0950
 31
0.0000
  0
LINE
  8
50
 10
46.3065
 20
24.0950
 30
0.0000
 11
46.7565
 21
24.0950
 31
0.0000
  0
ARC
  8
50
 10
46.7565
 20
24.4950
 30
0.0000
 40
0.4000
 50
270.0000
 51
0.0000
  0
LINE
  8
50
 10
47.1565
 20
24.4950
 30
0.0000
 11
47.1565
 21
26.5950
 31
0.0000
  0
ARC
  8
50
 10
46.7565
 20
26.5950
 30
0.0000
 40
0.4000
 50
0.0000
 51
90.0000
  0
LINE
  8
50
 10
46.7565
 20
26.9950
 30
0.0000
 11
44.5565
 21
26.9950
 31
0.0000
  0
ARC
  8
50
 10
44.5565
 20
26.5950
 30
0.0000
 40
0.4000
 50
90.0000
 51
180.0000
  0
LINE
  8
50
 10
44.1565
 20
26.5950
 30
0.0000
 11
44.1565
 21
24.4950
 31
0.0000
  0
ARC
  8
50
 10
44.5565
 20
24.4950
 30
0.0000
 40
0.4000
 50
180.0000
 51
270.0000
  0
LINE
  8
50
 10
44.5565
 20
24.0950
 30
0.0000
 11
45.0065
 21
24.0950
 31
0.0000
  0
LINE
  8
50
 10
57.7700
 20
21.9425
 30
0.0000
 11
57.7700
 21
23.5425
 31
0.0000
  0
ARC
  8
50
 10
58.1700
 20
23.5425
 30
0.0000
 40
0.4000
 50
90.0000
 51
180.0000
  0
LINE
  8
50
 10
58.1700
 20
23.9425
 30
0.0000
 11
58.6700
 21
23.9425
 31
0.0000
  0
ARC
  8
50
 10
58.6700
 20
23.5425
 30
0.0000
 40
0.4000
 50
0.0000
 51
90.0000
  0
LINE
  8
50
 10
59.0700
 20
23.5425
 30
0.0000
 11
59.0700
 21
21.9425
 31
0.0000
  0
LINE
  8
50
 10
57.7700
 20
21.9425
 30
0.0000
 11
57.3200
 21
21.9425
 31
0.0000
  0
ARC
  8
50
 10
57.3200
 20
21.5425
 30
0.0000
 40
0.4000
 50
90.0000
 51
180.0000
  0
LINE
  8
50
 10
56.9200
 20
21.5425
 30
0.0000
 11
56.9200
 21
19.4425
 31
0.0000
  0
ARC
  8
50
 10
57.3200
 20
19.4425
 30
0.0000
 40
0.4000
 50
180.0000
 51
270.0000
  0
LINE
  8
50
 10
57.3200
 20
19.0425
 30
0.0000
 11
59.5200
 21
19.0425
 31
0.0000
  0
ARC
  8
50
 10
59.5200
 20
19.4425
 30
0.0000
 40
0.4000
 50
270.0000
 51
0.0000
  0
LINE
  8
50
 10
59.9200
 20
19.4425
 30
0.0000
 11
59.9200
 21
21.5425
 31
0.0000
  0
ARC
  8
50
 10
59.5200
 20
21.5425
 30
0.0000
 40
0.4000
 50
0.0000
 51
90.0000
  0
LINE
  8
50
 10
59.5200
 20
21.9425
 30
0.0000
 11
59.0700
 21
21.9425
 31
0.0000
  0
LINE
  8
50
 10
55.2600
 20
24.0950
 30
0.0000
 11
55.2600
 21
22.4950
 31
0.0000
  0
ARC
  8
50
 10
54.8600
 20
22.4950
 30
0.0000
 40
0.4000
 50
270.0000
 51
0.0000
  0
LINE
  8
50
 10
54.8600
 20
22.0950
 30
0.0000
 11
54.3600
 21
22.0950
 31
0.0000
  0
ARC
  8
50
 10
54.3600
 20
22.4950
 30
0.0000
 40
0.4000
 50
180.0000
 51
270.0000
  0
LINE
  8
50
 10
53.9600
 20
22.4950
 30
0.0000
 11
53.9600
 21
24.0950
 31
0.0000
  0
LINE
  8
50
 10
55.2600
 20
24.0950
 30
0.0000
 11
55.7100
 21
24.0950
 31
0.0000
  0
ARC
  8
50
 10
55.7100
 20
24.4950
 30
0.0000
 40
0.4000
 50
270.0000
 51
0.0000
  0
LINE
  8
50
 10
56.1100
 20
24.4950
 30
0.0000
 11
56.1100
 21
26.5950
 31
0.0000
  0
ARC
  8
50
 10
55.7100
 20
26.5950
 30
0.0000
 40
0.4000
 50
0.0000
 51
90.0000
  0
LINE
  8
50
 10
55.7100
 20
26.9950
 30
0.0000
 11
53.5100
 21
26.9950
 31
0.0000
  0
ARC
  8
50
 10
53.5100
 20
26.5950
 30
0.0000
 40
0.4000
 50
90.0000
 51
180.0000
  0
LINE
  8
50
 10
53.1100
 20
26.5950
 30
0.0000
 11
53.1100
 21
24.4950
 31
0.0000
  0
ARC
  8
50
 10
53.5100
 20
24.4950
 30
0.0000
 40
0.4000
 50
180.0000
 51
270.0000
  0
LINE
  8
50
 10
53.5100
 20
24.0950
 30
0.0000
 11
53.9600
 21
24.0950
 31
0.0000
  0
LINE
  8
50
 10
51.4500
 20
24.0950
 30
0.0000
 11
51.4500
 21
22.4950
 31
0.0000
  0
ARC
  8
50
 10
51.0500
 20
22.4950
 30
0.0000
 40
0.4000
 50
270.0000
 51
0.0000
  0
LINE
  8
50
 10
51.0500
 20
22.0950
 30
0.0000
 11
50.5500
 21
22.0950
 31
0.0000
  0
ARC
  8
50
 10
50.5500
 20
22.4950
 30
0.0000
 40
0.4000
 50
180.0000
 51
270.0000
  0
LINE
  8
50
 10
50.1500
 20
22.4950
 30
0.0000
 11
50.1500
 21
24.0950
 31
0.0000
  0
LINE
  8
50
 10
51.4500
 20
24.0950
 30
0.0000
 11
51.9000
 21
24.0950
 31
0.0000
  0
ARC
  8
50
 10
51.9000
 20
24.4950
 30
0.0000
 40
0.4000
 50
270.0000
 51
0.0000
  0
LINE
  8
50
 10
52.3000
 20
24.4950
 30
0.0000
 11
52.3000
 21
26.5950
 31
0.0000
  0
ARC
  8
50
 10
51.9000
 20
26.5950
 30
0.0000
 40
0.4000
 50
0.0000
 51
90.0000
  0
LINE
  8
50
 10
51.9000
 20
26.9950
 30
0.0000
 11
49.7000
 21
26.9950
 31
0.0000
  0
ARC
  8
50
 10
49.7000
 20
26.5950
 30
0.0000
 40
0.4000
 50
90.0000
 51
180.0000
  0
LINE
  8
50
 10
49.3000
 20
26.5950
 30
0.0000
 11
49.3000
 21
24.4950
 31
0.0000
  0
ARC
  8
50
 10
49.7000
 20
24.4950
 30
0.0000
 40
0.4000
 50
180.0000
 51
270.0000
  0
LINE
  8
50
 10
49.7000
 20
24.0950
 30
0.0000
 11
50.1500
 21
24.0950
 31
0.0000
  0
LINE
  8
50
 10
22.8450
 20
36.2300
 30
0.0000
 11
22.8450
 21
37.8300
 31
0.0000
  0
ARC
  8
50
 10
23.2450
 20
37.8300
 30
0.0000
 40
0.4000
 50
90.0000
 51
180.0000
  0
LINE
  8
50
 10
23.2450
 20
38.2300
 30
0.0000
 11
23.7450
 21
38.2300
 31
0.0000
  0
ARC
  8
50
 10
23.7450
 20
37.8300
 30
0.0000
 40
0.4000
 50
0.0000
 51
90.0000
  0
LINE
  8
50
 10
24.1450
 20
37.8300
 30
0.0000
 11
24.1450
 21
36.2300
 31
0.0000
  0
LINE
  8
50
 10
22.8450
 20
36.2300
 30
0.0000
 11
22.3950
 21
36.2300
 31
0.0000
  0
ARC
  8
50
 10
22.3950
 20
35.8300
 30
0.0000
 40
0.4000
 50
90.0000
 51
180.0000
  0
LINE
  8
50
 10
21.9950
 20
35.8300
 30
0.0000
 11
21.9950
 21
33.7300
 31
0.0000
  0
ARC
  8
50
 10
22.3950
 20
33.7300
 30
0.0000
 40
0.4000
 50
180.0000
 51
270.0000
  0
LINE
  8
50
 10
22.3950
 20
33.3300
 30
0.0000
 11
24.5950
 21
33.3300
 31
0.0000
  0
ARC
  8
50
 10
24.5950
 20
33.7300
 30
0.0000
 40
0.4000
 50
270.0000
 51
0.0000
  0
LINE
  8
50
 10
24.9950
 20
33.7300
 30
0.0000
 11
24.9950
 21
35.8300
 31
0.0000
  0
ARC
  8
50
 10
24.5950
 20
35.8300
 30
0.0000
 40
0.4000
 50
0.0000
 51
90.0000
  0
LINE
  8
50
 10
24.5950
 20
36.2300
 30
0.0000
 11
24.1450
 21
36.2300
 31
0.0000
  0
LINE
  8
50
 10
44.1675
 20
16.5250
 30
0.0000
 11
45.7675
 21
16.5250
 31
0.0000
  0
ARC
  8
50
 10
45.7675
 20
16.1250
 30
0.0000
 40
0.4000
 50
0.0000
 51
90.0000
  0
LINE
  8
50
 10
46.1675
 20
16.1250
 30
0.0000
 11
46.1675
 21
15.6250
 31
0.0000
  0
ARC
  8
50
 10
45.7675
 20
15.6250
 30
0.0000
 40
0.4000
 50
270.0000
 51
0.0000
  0
LINE
  8
50
 10
45.7675
 20
15.2250
 30
0.0000
 11
44.1675
 21
15.2250
 31
0.0000
  0
LINE
  8
50
 10
44.1675
 20
16.5250
 30
0.0000
 11
44.1675
 21
16.9750
 31
0.0000
  0
ARC
  8
50
 10
43.7675
 20
16.9750
 30
0.0000
 40
0.4000
 50
0.0000
 51
90.0000
  0
LINE
  8
50
 10
43.7675
 20
17.3750
 30
0.0000
 11
41.6675
 21
17.3750
 31
0.0000
  0
ARC
  8
50
 10
41.6675
 20
16.9750
 30
0.0000
 40
0.4000
 50
90.0000
 51
180.0000
  0
LINE
  8
50
 10
41.2675
 20
16.9750
 30
0.0000
 11
41.2675
 21
14.7750
 31
0.0000
  0
ARC
  8
50
 10
41.6675
 20
14.7750
 30
0.0000
 40
0.4000
 50
180.0000
 51
270.0000
  0
LINE
  8
50
 10
41.6675
 20
14.3750
 30
0.0000
 11
43.7675
 21
14.3750
 31
0.0000
  0
ARC
  8
50
 10
43.7675
 20
14.7750
 30
0.0000
 40
0.4000
 50
270.0000
 51
0.0000
  0
LINE
  8
50
 10
44.1675
 20
14.7750
 30
0.0000
 11
44.1675
 21
15.2250
 31
0.0000
  0
LINE
  8
50
 10
24.1450
 20
42.5100
 30
0.0000
 11
24.1450
 21
40.9100
 31
0.0000
  0
ARC
  8
50
 10
23.7450
 20
40.9100
 30
0.0000
 40
0.4000
 50
270.0000
 51
0.0000
  0
LINE
  8
50
 10
23.7450
 20
40.5100
 30
0.0000
 11
23.2450
 21
40.5100
 31
0.0000
  0
ARC
  8
50
 10
23.2450
 20
40.9100
 30
0.0000
 40
0.4000
 50
180.0000
 51
270.0000
  0
LINE
  8
50
 10
22.8450
 20
40.9100
 30
0.0000
 11
22.8450
 21
42.5100
 31
0.0000
  0
LINE
  8
50
 10
24.1450
 20
42.5100
 30
0.0000
 11
24.5950
 21
42.5100
 31
0.0000
  0
ARC
  8
50
 10
24.5950
 20
42.9100
 30
0.0000
 40
0.4000
 50
270.0000
 51
0.0000
  0
LINE
  8
50
 10
24.9950
 20
42.9100
 30
0.0000
 11
24.9950
 21
45.0100
 31
0.0000
  0
ARC
  8
50
 10
24.5950
 20
45.0100
 30
0.0000
 40
0.4000
 50
0.0000
 51
90.0000
  0
LINE
  8
50
 10
24.5950
 20
45.4100
 30
0.0000
 11
22.3950
 21
45.4100
 31
0.0000
  0
ARC
  8
50
 10
22.3950
 20
45.0100
 30
0.0000
 40
0.4000
 50
90.0000
 51
180.0000
  0
LINE
  8
50
 10
21.9950
 20
45.0100
 30
0.0000
 11
21.9950
 21
42.9100
 31
0.0000
  0
ARC
  8
50
 10
22.3950
 20
42.9100
 30
0.0000
 40
0.4000
 50
180.0000
 51
270.0000
  0
LINE
  8
50
 10
22.3950
 20
42.5100
 30
0.0000
 11
22.8450
 21
42.5100
 31
0.0000
  0
LINE
  8
50
 10
49.5450
 20
16.7925
 30
0.0000
 11
49.5450
 21
15.1925
 31
0.0000
  0
ARC
  8
50
 10
49.1450
 20
15.1925
 30
0.0000
 40
0.4000
 50
270.0000
 51
0.0000
  0
LINE
  8
50
 10
49.1450
 20
14.7925
 30
0.0000
 11
48.6450
 21
14.7925
 31
0.0000
  0
ARC
  8
50
 10
48.6450
 20
15.1925
 30
0.0000
 40
0.4000
 50
180.0000
 51
270.0000
  0
LINE
  8
50
 10
48.2450
 20
15.1925
 30
0.0000
 11
48.2450
 21
16.7925
 31
0.0000
  0
LINE
  8
50
 10
49.5450
 20
16.7925
 30
0.0000
 11
49.9950
 21
16.7925
 31
0.0000
  0
ARC
  8
50
 10
49.9950
 20
17.1925
 30
0.0000
 40
0.4000
 50
270.0000
 51
0.0000
  0
LINE
  8
50
 10
50.3950
 20
17.1925
 30
0.0000
 11
50.3950
 21
19.2925
 31
0.0000
  0
ARC
  8
50
 10
49.9950
 20
19.2925
 30
0.0000
 40
0.4000
 50
0.0000
 51
90.0000
  0
LINE
  8
50
 10
49.9950
 20
19.6925
 30
0.0000
 11
47.7950
 21
19.6925
 31
0.0000
  0
ARC
  8
50
 10
47.7950
 20
19.2925
 30
0.0000
 40
0.4000
 50
90.0000
 51
180.0000
  0
LINE
  8
50
 10
47.3950
 20
19.2925
 30
0.0000
 11
47.3950
 21
17.1925
 31
0.0000
  0
ARC
  8
50
 10
47.7950
 20
17.1925
 30
0.0000
 40
0.4000
 50
180.0000
 51
270.0000
  0
LINE
  8
50
 10
47.7950
 20
16.7925
 30
0.0000
 11
48.2450
 21
16.7925
 31
0.0000
  0
LINE
  8
50
 10
27.3200
 20
42.5100
 30
0.0000
 11
27.3200
 21
40.9100
 31
0.0000
  0
ARC
  8
50
 10
26.9200
 20
40.9100
 30
0.0000
 40
0.4000
 50
270.0000
 51
0.0000
  0
LINE
  8
50
 10
26.9200
 20
40.5100
 30
0.0000
 11
26.4200
 21
40.5100
 31
0.0000
  0
ARC
  8
50
 10
26.4200
 20
40.9100
 30
0.0000
 40
0.4000
 50
180.0000
 51
270.0000
  0
LINE
  8
50
 10
26.0200
 20
40.9100
 30
0.0000
 11
26.0200
 21
42.5100
 31
0.0000
  0
LINE
  8
50
 10
27.3200
 20
42.5100
 30
0.0000
 11
27.7700
 21
42.5100
 31
0.0000
  0
ARC
  8
50
 10
27.7700
 20
42.9100
 30
0.0000
 40
0.4000
 50
270.0000
 51
0.0000
  0
LINE
  8
50
 10
28.1700
 20
42.9100
 30
0.0000
 11
28.1700
 21
45.0100
 31
0.0000
  0
ARC
  8
50
 10
27.7700
 20
45.0100
 30
0.0000
 40
0.4000
 50
0.0000
 51
90.0000
  0
LINE
  8
50
 10
27.7700
 20
45.4100
 30
0.0000
 11
25.5700
 21
45.4100
 31
0.0000
  0
ARC
  8
50
 10
25.5700
 20
45.0100
 30
0.0000
 40
0.4000
 50
90.0000
 51
180.0000
  0
LINE
  8
50
 10
25.1700
 20
45.0100
 30
0.0000
 11
25.1700
 21
42.9100
 31
0.0000
  0
ARC
  8
50
 10
25.5700
 20
42.9100
 30
0.0000
 40
0.4000
 50
180.0000
 51
270.0000
  0
LINE
  8
50
 10
25.5700
 20
42.5100
 30
0.0000
 11
26.0200
 21
42.5100
 31
0.0000
  0
LINE
  8
50
 10
26.0200
 20
36.2300
 30
0.0000
 11
26.0200
 21
37.8300
 31
0.0000
  0
ARC
  8
50
 10
26.4200
 20
37.8300
 30
0.0000
 40
0.4000
 50
90.0000
 51
180.0000
  0
LINE
  8
50
 10
26.4200
 20
38.2300
 30
0.0000
 11
26.9200
 21
38.2300
 31
0.0000
  0
ARC
  8
50
 10
26.9200
 20
37.8300
 30
0.0000
 40
0.4000
 50
0.0000
 51
90.0000
  0
LINE
  8
50
 10
27.3200
 20
37.8300
 30
0.0000
 11
27.3200
 21
36.2300
 31
0.0000
  0
LINE
  8
50
 10
26.0200
 20
36.2300
 30
0.0000
 11
25.5700
 21
36.2300
 31
0.0000
  0
ARC
  8
50
 10
25.5700
 20
35.8300
 30
0.0000
 40
0.4000
 50
90.0000
 51
180.0000
  0
LINE
  8
50
 10
25.1700
 20
35.8300
 30
0.0000
 11
25.1700
 21
33.7300
 31
0.0000
  0
ARC
  8
50
 10
25.5700
 20
33.7300
 30
0.0000
 40
0.4000
 50
180.0000
 51
270.0000
  0
LINE
  8
50
 10
25.5700
 20
33.3300
 30
0.0000
 11
27.7700
 21
33.3300
 31
0.0000
  0
ARC
  8
50
 10
27.7700
 20
33.7300
 30
0.0000
 40
0.4000
 50
270.0000
 51
0.0000
  0
LINE
  8
50
 10
28.1700
 20
33.7300
 30
0.0000
 11
28.1700
 21
35.8300
 31
0.0000
  0
ARC
  8
50
 10
27.7700
 20
35.8300
 30
0.0000
 40
0.4000
 50
0.0000
 51
90.0000
  0
LINE
  8
50
 10
27.7700
 20
36.2300
 30
0.0000
 11
27.3200
 21
36.2300
 31
0.0000
  0
LINE
  8
50
 10
59.0700
 20
17.7450
 30
0.0000
 11
59.0700
 21
16.1450
 31
0.0000
  0
ARC
  8
50
 10
58.6700
 20
16.1450
 30
0.0000
 40
0.4000
 50
270.0000
 51
0.0000
  0
LINE
  8
50
 10
58.6700
 20
15.7450
 30
0.0000
 11
58.1700
 21
15.7450
 31
0.0000
  0
ARC
  8
50
 10
58.1700
 20
16.1450
 30
0.0000
 40
0.4000
 50
180.0000
 51
270.0000
  0
LINE
  8
50
 10
57.7700
 20
16.1450
 30
0.0000
 11
57.7700
 21
17.7450
 31
0.0000
  0
LINE
  8
50
 10
59.0700
 20
17.7450
 30
0.0000
 11
59.5200
 21
17.7450
 31
0.0000
  0
ARC
  8
50
 10
59.5200
 20
18.1450
 30
0.0000
 40
0.4000
 50
270.0000
 51
0.0000
  0
LINE
  8
50
 10
59.9200
 20
18.1450
 30
0.0000
 11
59.9200
 21
20.2450
 31
0.0000
  0
ARC
  8
50
 10
59.5200
 20
20.2450
 30
0.0000
 40
0.4000
 50
0.0000
 51
90.0000
  0
LINE
  8
50
 10
59.5200
 20
20.6450
 30
0.0000
 11
57.3200
 21
20.6450
 31
0.0000
  0
ARC
  8
50
 10
57.3200
 20
20.2450
 30
0.0000
 40
0.4000
 50
90.0000
 51
180.0000
  0
LINE
  8
50
 10
56.9200
 20
20.2450
 30
0.0000
 11
56.9200
 21
18.1450
 31
0.0000
  0
ARC
  8
50
 10
57.3200
 20
18.1450
 30
0.0000
 40
0.4000
 50
180.0000
 51
270.0000
  0
LINE
  8
50
 10
57.3200
 20
17.7450
 30
0.0000
 11
57.7700
 21
17.7450
 31
0.0000
  0
LINE
  8
50
 10
53.6225
 20
9.5100
 30
0.0000
 11
52.0225
 21
9.5100
 31
0.0000
  0
ARC
  8
50
 10
52.0225
 20
9.9100
 30
0.0000
 40
0.4000
 50
180.0000
 51
270.0000
  0
LINE
  8
50
 10
51.6225
 20
9.9100
 30
0.0000
 11
51.6225
 21
10.4100
 31
0.0000
  0
ARC
  8
50
 10
52.0225
 20
10.4100
 30
0.0000
 40
0.4000
 50
90.0000
 51
180.0000
  0
LINE
  8
50
 10
52.0225
 20
10.8100
 30
0.0000
 11
53.6225
 21
10.8100
 31
0.0000
  0
LINE
  8
50
 10
53.6225
 20
9.5100
 30
0.0000
 11
53.6225
 21
9.0600
 31
0.0000
  0
ARC
  8
50
 10
54.0225
 20
9.0600
 30
0.0000
 40
0.4000
 50
180.0000
 51
270.0000
  0
LINE
  8
50
 10
54.0225
 20
8.6600
 30
0.0000
 11
56.1225
 21
8.6600
 31
0.0000
  0
ARC
  8
50
 10
56.1225
 20
9.0600
 30
0.0000
 40
0.4000
 50
270.0000
 51
0.0000
  0
LINE
  8
50
 10
56.5225
 20
9.0600
 30
0.0000
 11
56.5225
 21
11.2600
 31
0.0000
  0
ARC
  8
50
 10
56.1225
 20
11.2600
 30
0.0000
 40
0.4000
 50
0.0000
 51
90.0000
  0
LINE
  8
50
 10
56.1225
 20
11.6600
 30
0.0000
 11
54.0225
 21
11.6600
 31
0.0000
  0
ARC
  8
50
 10
54.0225
 20
11.2600
 30
0.0000
 40
0.4000
 50
90.0000
 51
180.0000
  0
LINE
  8
50
 10
53.6225
 20
11.2600
 30
0.0000
 11
53.6225
 21
10.8100
 31
0.0000
  0
LINE
  8
50
 10
53.6225
 20
6.3350
 30
0.0000
 11
52.0225
 21
6.3350
 31
0.0000
  0
ARC
  8
50
 10
52.0225
 20
6.7350
 30
0.0000
 40
0.4000
 50
180.0000
 51
270.0000
  0
LINE
  8
50
 10
51.6225
 20
6.7350
 30
0.0000
 11
51.6225
 21
7.2350
 31
0.0000
  0
ARC
  8
50
 10
52.0225
 20
7.2350
 30
0.0000
 40
0.4000
 50
90.0000
 51
180.0000
  0
LINE
  8
50
 10
52.0225
 20
7.6350
 30
0.0000
 11
53.6225
 21
7.6350
 31
0.0000
  0
LINE
  8
50
 10
53.6225
 20
6.3350
 30
0.0000
 11
53.6225
 21
5.8850
 31
0.0000
  0
ARC
  8
50
 10
54.0225
 20
5.8850
 30
0.0000
 40
0.4000
 50
180.0000
 51
270.0000
  0
LINE
  8
50
 10
54.0225
 20
5.4850
 30
0.0000
 11
56.1225
 21
5.4850
 31
0.0000
  0
ARC
  8
50
 10
56.1225
 20
5.8850
 30
0.0000
 40
0.4000
 50
270.0000
 51
0.0000
  0
LINE
  8
50
 10
56.5225
 20
5.8850
 30
0.0000
 11
56.5225
 21
8.0850
 31
0.0000
  0
ARC
  8
50
 10
56.1225
 20
8.0850
 30
0.0000
 40
0.4000
 50
0.0000
 51
90.0000
  0
LINE
  8
50
 10
56.1225
 20
8.4850
 30
0.0000
 11
54.0225
 21
8.4850
 31
0.0000
  0
ARC
  8
50
 10
54.0225
 20
8.0850
 30
0.0000
 40
0.4000
 50
90.0000
 51
180.0000
  0
LINE
  8
50
 10
53.6225
 20
8.0850
 30
0.0000
 11
53.6225
 21
7.6350
 31
0.0000
  0
LINE
  8
50
 10
53.6225
 20
3.4775
 30
0.0000
 11
52.0225
 21
3.4775
 31
0.0000
  0
ARC
  8
50
 10
52.0225
 20
3.8775
 30
0.0000
 40
0.4000
 50
180.0000
 51
270.0000
  0
LINE
  8
50
 10
51.6225
 20
3.8775
 30
0.0000
 11
51.6225
 21
4.3775
 31
0.0000
  0
ARC
  8
50
 10
52.0225
 20
4.3775
 30
0.0000
 40
0.4000
 50
90.0000
 51
180.0000
  0
LINE
  8
50
 10
52.0225
 20
4.7775
 30
0.0000
 11
53.6225
 21
4.7775
 31
0.0000
  0
LINE
  8
50
 10
53.6225
 20
3.4775
 30
0.0000
 11
53.6225
 21
3.0275
 31
0.0000
  0
ARC
  8
50
 10
54.0225
 20
3.0275
 30
0.0000
 40
0.4000
 50
180.0000
 51
270.0000
  0
LINE
  8
50
 10
54.0225
 20
2.6275
 30
0.0000
 11
56.1225
 21
2.6275
 31
0.0000
  0
ARC
  8
50
 10
56.1225
 20
3.0275
 30
0.0000
 40
0.4000
 50
270.0000
 51
0.0000
  0
LINE
  8
50
 10
56.5225
 20
3.0275
 30
0.0000
 11
56.5225
 21
5.2275
 31
0.0000
  0
ARC
  8
50
 10
56.1225
 20
5.2275
 30
0.0000
 40
0.4000
 50
0.0000
 51
90.0000
  0
LINE
  8
50
 10
56.1225
 20
5.6275
 30
0.0000
 11
54.0225
 21
5.6275
 31
0.0000
  0
ARC
  8
50
 10
54.0225
 20
5.2275
 30
0.0000
 40
0.4000
 50
90.0000
 51
180.0000
  0
LINE
  8
50
 10
53.6225
 20
5.2275
 30
0.0000
 11
53.6225
 21
4.7775
 31
0.0000
  0
LINE
  8
50
 10
49.2275
 20
4.7275
 30
0.0000
 11
49.2275
 21
3.1275
 31
0.0000
  0
ARC
  8
50
 10
48.8275
 20
3.1275
 30
0.0000
 40
0.4000
 50
270.0000
 51
0.0000
  0
LINE
  8
50
 10
48.8275
 20
2.7275
 30
0.0000
 11
48.3275
 21
2.7275
 31
0.0000
  0
ARC
  8
50
 10
48.3275
 20
3.1275
 30
0.0000
 40
0.4000
 50
180.0000
 51
270.0000
  0
LINE
  8
50
 10
47.9275
 20
3.1275
 30
0.0000
 11
47.9275
 21
4.7275
 31
0.0000
  0
LINE
  8
50
 10
49.2275
 20
4.7275
 30
0.0000
 11
49.6775
 21
4.7275
 31
0.0000
  0
ARC
  8
50
 10
49.6775
 20
5.1275
 30
0.0000
 40
0.4000
 50
270.0000
 51
0.0000
  0
LINE
  8
50
 10
50.0775
 20
5.1275
 30
0.0000
 11
50.0775
 21
7.2275
 31
0.0000
  0
ARC
  8
50
 10
49.6775
 20
7.2275
 30
0.0000
 40
0.4000
 50
0.0000
 51
90.0000
  0
LINE
  8
50
 10
49.6775
 20
7.6275
 30
0.0000
 11
47.4775
 21
7.6275
 31
0.0000
  0
ARC
  8
50
 10
47.4775
 20
7.2275
 30
0.0000
 40
0.4000
 50
90.0000
 51
180.0000
  0
LINE
  8
50
 10
47.0775
 20
7.2275
 30
0.0000
 11
47.0775
 21
5.1275
 31
0.0000
  0
ARC
  8
50
 10
47.4775
 20
5.1275
 30
0.0000
 40
0.4000
 50
180.0000
 51
270.0000
  0
LINE
  8
50
 10
47.4775
 20
4.7275
 30
0.0000
 11
47.9275
 21
4.7275
 31
0.0000
  0
LINE
  8
50
 10
58.4350
 20
10.1250
 30
0.0000
 11
58.4350
 21
8.5250
 31
0.0000
  0
ARC
  8
50
 10
58.0350
 20
8.5250
 30
0.0000
 40
0.4000
 50
270.0000
 51
0.0000
  0
LINE
  8
50
 10
58.0350
 20
8.1250
 30
0.0000
 11
57.5350
 21
8.1250
 31
0.0000
  0
ARC
  8
50
 10
57.5350
 20
8.5250
 30
0.0000
 40
0.4000
 50
180.0000
 51
270.0000
  0
LINE
  8
50
 10
57.1350
 20
8.5250
 30
0.0000
 11
57.1350
 21
10.1250
 31
0.0000
  0
LINE
  8
50
 10
58.4350
 20
10.1250
 30
0.0000
 11
58.8850
 21
10.1250
 31
0.0000
  0
ARC
  8
50
 10
58.8850
 20
10.5250
 30
0.0000
 40
0.4000
 50
270.0000
 51
0.0000
  0
LINE
  8
50
 10
59.2850
 20
10.5250
 30
0.0000
 11
59.2850
 21
12.6250
 31
0.0000
  0
ARC
  8
50
 10
58.8850
 20
12.6250
 30
0.0000
 40
0.4000
 50
0.0000
 51
90.0000
  0
LINE
  8
50
 10
58.8850
 20
13.0250
 30
0.0000
 11
56.6850
 21
13.0250
 31
0.0000
  0
ARC
  8
50
 10
56.6850
 20
12.6250
 30
0.0000
 40
0.4000
 50
90.0000
 51
180.0000
  0
LINE
  8
50
 10
56.2850
 20
12.6250
 30
0.0000
 11
56.2850
 21
10.5250
 31
0.0000
  0
ARC
  8
50
 10
56.6850
 20
10.5250
 30
0.0000
 40
0.4000
 50
180.0000
 51
270.0000
  0
LINE
  8
50
 10
56.6850
 20
10.1250
 30
0.0000
 11
57.1350
 21
10.1250
 31
0.0000
  0
LINE
  8
50
 10
57.1350
 20
3.8450
 30
0.0000
 11
57.1350
 21
5.4450
 31
0.0000
  0
ARC
  8
50
 10
57.5350
 20
5.4450
 30
0.0000
 40
0.4000
 50
90.0000
 51
180.0000
  0
LINE
  8
50
 10
57.5350
 20
5.8450
 30
0.0000
 11
58.0350
 21
5.8450
 31
0.0000
  0
ARC
  8
50
 10
58.0350
 20
5.4450
 30
0.0000
 40
0.4000
 50
0.0000
 51
90.0000
  0
LINE
  8
50
 10
58.4350
 20
5.4450
 30
0.0000
 11
58.4350
 21
3.8450
 31
0.0000
  0
LINE
  8
50
 10
57.1350
 20
3.8450
 30
0.0000
 11
56.6850
 21
3.8450
 31
0.0000
  0
ARC
  8
50
 10
56.6850
 20
3.4450
 30
0.0000
 40
0.4000
 50
90.0000
 51
180.0000
  0
LINE
  8
50
 10
56.2850
 20
3.4450
 30
0.0000
 11
56.2850
 21
1.3450
 31
0.0000
  0
ARC
  8
50
 10
56.6850
 20
1.3450
 30
0.0000
 40
0.4000
 50
180.0000
 51
270.0000
  0
LINE
  8
50
 10
56.6850
 20
0.9450
 30
0.0000
 11
58.8850
 21
0.9450
 31
0.0000
  0
ARC
  8
50
 10
58.8850
 20
1.3450
 30
0.0000
 40
0.4000
 50
270.0000
 51
0.0000
  0
LINE
  8
50
 10
59.2850
 20
1.3450
 30
0.0000
 11
59.2850
 21
3.4450
 31
0.0000
  0
ARC
  8
50
 10
58.8850
 20
3.4450
 30
0.0000
 40
0.4000
 50
0.0000
 51
90.0000
  0
LINE
  8
50
 10
58.8850
 20
3.8450
 30
0.0000
 11
58.4350
 21
3.8450
 31
0.0000
  0
LINE
  8
50
 10
6.3150
 20
34.9100
 30
0.0000
 11
4.7150
 21
34.9100
 31
0.0000
  0
ARC
  8
50
 10
4.7150
 20
35.3100
 30
0.0000
 40
0.4000
 50
180.0000
 51
270.0000
  0
LINE
  8
50
 10
4.3150
 20
35.3100
 30
0.0000
 11
4.3150
 21
35.8100
 31
0.0000
  0
ARC
  8
50
 10
4.7150
 20
35.8100
 30
0.0000
 40
0.4000
 50
90.0000
 51
180.0000
  0
LINE
  8
50
 10
4.7150
 20
36.2100
 30
0.0000
 11
6.3150
 21
36.2100
 31
0.0000
  0
LINE
  8
50
 10
6.3150
 20
34.9100
 30
0.0000
 11
6.3150
 21
34.4600
 31
0.0000
  0
ARC
  8
50
 10
6.7150
 20
34.4600
 30
0.0000
 40
0.4000
 50
180.0000
 51
270.0000
  0
LINE
  8
50
 10
6.7150
 20
34.0600
 30
0.0000
 11
8.8150
 21
34.0600
 31
0.0000
  0
ARC
  8
50
 10
8.8150
 20
34.4600
 30
0.0000
 40
0.4000
 50
270.0000
 51
0.0000
  0
LINE
  8
50
 10
9.2150
 20
34.4600
 30
0.0000
 11
9.2150
 21
36.6600
 31
0.0000
  0
ARC
  8
50
 10
8.8150
 20
36.6600
 30
0.0000
 40
0.4000
 50
0.0000
 51
90.0000
  0
LINE
  8
50
 10
8.8150
 20
37.0600
 30
0.0000
 11
6.7150
 21
37.0600
 31
0.0000
  0
ARC
  8
50
 10
6.7150
 20
36.6600
 30
0.0000
 40
0.4000
 50
90.0000
 51
180.0000
  0
LINE
  8
50
 10
6.3150
 20
36.6600
 30
0.0000
 11
6.3150
 21
36.2100
 31
0.0000
  0
LINE
  8
50
 10
9.5100
 20
33.0550
 30
0.0000
 11
9.5100
 21
34.6550
 31
0.0000
  0
ARC
  8
50
 10
9.9100
 20
34.6550
 30
0.0000
 40
0.4000
 50
90.0000
 51
180.0000
  0
LINE
  8
50
 10
9.9100
 20
35.0550
 30
0.0000
 11
10.4100
 21
35.0550
 31
0.0000
  0
ARC
  8
50
 10
10.4100
 20
34.6550
 30
0.0000
 40
0.4000
 50
0.0000
 51
90.0000
  0
LINE
  8
50
 10
10.8100
 20
34.6550
 30
0.0000
 11
10.8100
 21
33.0550
 31
0.0000
  0
LINE
  8
50
 10
9.5100
 20
33.0550
 30
0.0000
 11
9.0600
 21
33.0550
 31
0.0000
  0
ARC
  8
50
 10
9.0600
 20
32.6550
 30
0.0000
 40
0.4000
 50
90.0000
 51
180.0000
  0
LINE
  8
50
 10
8.6600
 20
32.6550
 30
0.0000
 11
8.6600
 21
30.5550
 31
0.0000
  0
ARC
  8
50
 10
9.0600
 20
30.5550
 30
0.0000
 40
0.4000
 50
180.0000
 51
270.0000
  0
LINE
  8
50
 10
9.0600
 20
30.1550
 30
0.0000
 11
11.2600
 21
30.1550
 31
0.0000
  0
ARC
  8
50
 10
11.2600
 20
30.5550
 30
0.0000
 40
0.4000
 50
270.0000
 51
0.0000
  0
LINE
  8
50
 10
11.6600
 20
30.5550
 30
0.0000
 11
11.6600
 21
32.6550
 31
0.0000
  0
ARC
  8
50
 10
11.2600
 20
32.6550
 30
0.0000
 40
0.4000
 50
0.0000
 51
90.0000
  0
LINE
  8
50
 10
11.2600
 20
33.0550
 30
0.0000
 11
10.8100
 21
33.0550
 31
0.0000
  0
LINE
  8
50
 10
86.3250
 20
35.5450
 30
0.0000
 11
84.7250
 21
35.5450
 31
0.0000
  0
ARC
  8
50
 10
84.7250
 20
35.9450
 30
0.0000
 40
0.4000
 50
180.0000
 51
270.0000
  0
LINE
  8
50
 10
84.3250
 20
35.9450
 30
0.0000
 11
84.3250
 21
36.4450
 31
0.0000
  0
ARC
  8
50
 10
84.7250
 20
36.4450
 30
0.0000
 40
0.4000
 50
90.0000
 51
180.0000
  0
LINE
  8
50
 10
84.7250
 20
36.8450
 30
0.0000
 11
86.3250
 21
36.8450
 31
0.0000
  0
LINE
  8
50
 10
86.3250
 20
35.5450
 30
0.0000
 11
86.3250
 21
35.0950
 31
0.0000
  0
ARC
  8
50
 10
86.7250
 20
35.0950
 30
0.0000
 40
0.4000
 50
180.0000
 51
270.0000
  0
LINE
  8
50
 10
86.7250
 20
34.6950
 30
0.0000
 11
88.8250
 21
34.6950
 31
0.0000
  0
ARC
  8
50
 10
88.8250
 20
35.0950
 30
0.0000
 40
0.4000
 50
270.0000
 51
0.0000
  0
LINE
  8
50
 10
89.2250
 20
35.0950
 30
0.0000
 11
89.2250
 21
37.2950
 31
0.0000
  0
ARC
  8
50
 10
88.8250
 20
37.2950
 30
0.0000
 40
0.4000
 50
0.0000
 51
90.0000
  0
LINE
  8
50
 10
88.8250
 20
37.6950
 30
0.0000
 11
86.7250
 21
37.6950
 31
0.0000
  0
ARC
  8
50
 10
86.7250
 20
37.2950
 30
0.0000
 40
0.4000
 50
90.0000
 51
180.0000
  0
LINE
  8
50
 10
86.3250
 20
37.2950
 30
0.0000
 11
86.3250
 21
36.8450
 31
0.0000
  0
LINE
  8
50
 10
91.4050
 20
34.2750
 30
0.0000
 11
89.8050
 21
34.2750
 31
0.0000
  0
ARC
  8
50
 10
89.8050
 20
34.6750
 30
0.0000
 40
0.4000
 50
180.0000
 51
270.0000
  0
LINE
  8
50
 10
89.4050
 20
34.6750
 30
0.0000
 11
89.4050
 21
35.1750
 31
0.0000
  0
ARC
  8
50
 10
89.8050
 20
35.1750
 30
0.0000
 40
0.4000
 50
90.0000
 51
180.0000
  0
LINE
  8
50
 10
89.8050
 20
35.5750
 30
0.0000
 11
91.4050
 21
35.5750
 31
0.0000
  0
LINE
  8
50
 10
91.4050
 20
34.2750
 30
0.0000
 11
91.4050
 21
33.8250
 31
0.0000
  0
ARC
  8
50
 10
91.8050
 20
33.8250
 30
0.0000
 40
0.4000
 50
180.0000
 51
270.0000
  0
LINE
  8
50
 10
91.8050
 20
33.4250
 30
0.0000
 11
93.9050
 21
33.4250
 31
0.0000
  0
ARC
  8
50
 10
93.9050
 20
33.8250
 30
0.0000
 40
0.4000
 50
270.0000
 51
0.0000
  0
LINE
  8
50
 10
94.3050
 20
33.8250
 30
0.0000
 11
94.3050
 21
36.0250
 31
0.0000
  0
ARC
  8
50
 10
93.9050
 20
36.0250
 30
0.0000
 40
0.4000
 50
0.0000
 51
90.0000
  0
LINE
  8
50
 10
93.9050
 20
36.4250
 30
0.0000
 11
91.8050
 21
36.4250
 31
0.0000
  0
ARC
  8
50
 10
91.8050
 20
36.0250
 30
0.0000
 40
0.4000
 50
90.0000
 51
180.0000
  0
LINE
  8
50
 10
91.4050
 20
36.0250
 30
0.0000
 11
91.4050
 21
35.5750
 31
0.0000
  0
LINE
  8
50
 10
4.4100
 20
47.2925
 30
0.0000
 11
2.8100
 21
47.2925
 31
0.0000
  0
ARC
  8
50
 10
2.8100
 20
47.6925
 30
0.0000
 40
0.4000
 50
180.0000
 51
270.0000
  0
LINE
  8
50
 10
2.4100
 20
47.6925
 30
0.0000
 11
2.4100
 21
48.1925
 31
0.0000
  0
ARC
  8
50
 10
2.8100
 20
48.1925
 30
0.0000
 40
0.4000
 50
90.0000
 51
180.0000
  0
LINE
  8
50
 10
2.8100
 20
48.5925
 30
0.0000
 11
4.4100
 21
48.5925
 31
0.0000
  0
LINE
  8
50
 10
4.4100
 20
47.2925
 30
0.0000
 11
4.4100
 21
46.8425
 31
0.0000
  0
ARC
  8
50
 10
4.8100
 20
46.8425
 30
0.0000
 40
0.4000
 50
180.0000
 51
270.0000
  0
LINE
  8
50
 10
4.8100
 20
46.4425
 30
0.0000
 11
6.9100
 21
46.4425
 31
0.0000
  0
ARC
  8
50
 10
6.9100
 20
46.8425
 30
0.0000
 40
0.4000
 50
270.0000
 51
0.0000
  0
LINE
  8
50
 10
7.3100
 20
46.8425
 30
0.0000
 11
7.3100
 21
49.0425
 31
0.0000
  0
ARC
  8
50
 10
6.9100
 20
49.0425
 30
0.0000
 40
0.4000
 50
0.0000
 51
90.0000
  0
LINE
  8
50
 10
6.9100
 20
49.4425
 30
0.0000
 11
4.8100
 21
49.4425
 31
0.0000
  0
ARC
  8
50
 10
4.8100
 20
49.0425
 30
0.0000
 40
0.4000
 50
90.0000
 51
180.0000
  0
LINE
  8
50
 10
4.4100
 20
49.0425
 30
0.0000
 11
4.4100
 21
48.5925
 31
0.0000
  0
LINE
  8
50
 10
4.4100
 20
44.4350
 30
0.0000
 11
2.8100
 21
44.4350
 31
0.0000
  0
ARC
  8
50
 10
2.8100
 20
44.8350
 30
0.0000
 40
0.4000
 50
180.0000
 51
270.0000
  0
LINE
  8
50
 10
2.4100
 20
44.8350
 30
0.0000
 11
2.4100
 21
45.3350
 31
0.0000
  0
ARC
  8
50
 10
2.8100
 20
45.3350
 30
0.0000
 40
0.4000
 50
90.0000
 51
180.0000
  0
LINE
  8
50
 10
2.8100
 20
45.7350
 30
0.0000
 11
4.4100
 21
45.7350
 31
0.0000
  0
LINE
  8
50
 10
4.4100
 20
44.4350
 30
0.0000
 11
4.4100
 21
43.9850
 31
0.0000
  0
ARC
  8
50
 10
4.8100
 20
43.9850
 30
0.0000
 40
0.4000
 50
180.0000
 51
270.0000
  0
LINE
  8
50
 10
4.8100
 20
43.5850
 30
0.0000
 11
6.9100
 21
43.5850
 31
0.0000
  0
ARC
  8
50
 10
6.9100
 20
43.9850
 30
0.0000
 40
0.4000
 50
270.0000
 51
0.0000
  0
LINE
  8
50
 10
7.3100
 20
43.9850
 30
0.0000
 11
7.3100
 21
46.1850
 31
0.0000
  0
ARC
  8
50
 10
6.9100
 20
46.1850
 30
0.0000
 40
0.4000
 50
0.0000
 51
90.0000
  0
LINE
  8
50
 10
6.9100
 20
46.5850
 30
0.0000
 11
4.8100
 21
46.5850
 31
0.0000
  0
ARC
  8
50
 10
4.8100
 20
46.1850
 30
0.0000
 40
0.4000
 50
90.0000
 51
180.0000
  0
LINE
  8
50
 10
4.4100
 20
46.1850
 30
0.0000
 11
4.4100
 21
45.7350
 31
0.0000
  0
LINE
  8
50
 10
4.4100
 20
41.5775
 30
0.0000
 11
2.8100
 21
41.5775
 31
0.0000
  0
ARC
  8
50
 10
2.8100
 20
41.9775
 30
0.0000
 40
0.4000
 50
180.0000
 51
270.0000
  0
LINE
  8
50
 10
2.4100
 20
41.9775
 30
0.0000
 11
2.4100
 21
42.4775
 31
0.0000
  0
ARC
  8
50
 10
2.8100
 20
42.4775
 30
0.0000
 40
0.4000
 50
90.0000
 51
180.0000
  0
LINE
  8
50
 10
2.8100
 20
42.8775
 30
0.0000
 11
4.4100
 21
42.8775
 31
0.0000
  0
LINE
  8
50
 10
4.4100
 20
41.5775
 30
0.0000
 11
4.4100
 21
41.1275
 31
0.0000
  0
ARC
  8
50
 10
4.8100
 20
41.1275
 30
0.0000
 40
0.4000
 50
180.0000
 51
270.0000
  0
LINE
  8
50
 10
4.8100
 20
40.7275
 30
0.0000
 11
6.9100
 21
40.7275
 31
0.0000
  0
ARC
  8
50
 10
6.9100
 20
41.1275
 30
0.0000
 40
0.4000
 50
270.0000
 51
0.0000
  0
LINE
  8
50
 10
7.3100
 20
41.1275
 30
0.0000
 11
7.3100
 21
43.3275
 31
0.0000
  0
ARC
  8
50
 10
6.9100
 20
43.3275
 30
0.0000
 40
0.4000
 50
0.0000
 51
90.0000
  0
LINE
  8
50
 10
6.9100
 20
43.7275
 30
0.0000
 11
4.8100
 21
43.7275
 31
0.0000
  0
ARC
  8
50
 10
4.8100
 20
43.3275
 30
0.0000
 40
0.4000
 50
90.0000
 51
180.0000
  0
LINE
  8
50
 10
4.4100
 20
43.3275
 30
0.0000
 11
4.4100
 21
42.8775
 31
0.0000
  0
LINE
  8
50
 10
88.2300
 20
27.9250
 30
0.0000
 11
86.6300
 21
27.9250
 31
0.0000
  0
ARC
  8
50
 10
86.6300
 20
28.3250
 30
0.0000
 40
0.4000
 50
180.0000
 51
270.0000
  0
LINE
  8
50
 10
86.2300
 20
28.3250
 30
0.0000
 11
86.2300
 21
28.8250
 31
0.0000
  0
ARC
  8
50
 10
86.6300
 20
28.8250
 30
0.0000
 40
0.4000
 50
90.0000
 51
180.0000
  0
LINE
  8
50
 10
86.6300
 20
29.2250
 30
0.0000
 11
88.2300
 21
29.2250
 31
0.0000
  0
LINE
  8
50
 10
88.2300
 20
27.9250
 30
0.0000
 11
88.2300
 21
27.4750
 31
0.0000
  0
ARC
  8
50
 10
88.6300
 20
27.4750
 30
0.0000
 40
0.4000
 50
180.0000
 51
270.0000
  0
LINE
  8
50
 10
88.6300
 20
27.0750
 30
0.0000
 11
90.7300
 21
27.0750
 31
0.0000
  0
ARC
  8
50
 10
90.7300
 20
27.4750
 30
0.0000
 40
0.4000
 50
270.0000
 51
0.0000
  0
LINE
  8
50
 10
91.1300
 20
27.4750
 30
0.0000
 11
91.1300
 21
29.6750
 31
0.0000
  0
ARC
  8
50
 10
90.7300
 20
29.6750
 30
0.0000
 40
0.4000
 50
0.0000
 51
90.0000
  0
LINE
  8
50
 10
90.7300
 20
30.0750
 30
0.0000
 11
88.6300
 21
30.0750
 31
0.0000
  0
ARC
  8
50
 10
88.6300
 20
29.6750
 30
0.0000
 40
0.4000
 50
90.0000
 51
180.0000
  0
LINE
  8
50
 10
88.2300
 20
29.6750
 30
0.0000
 11
88.2300
 21
29.2250
 31
0.0000
  0
LINE
  8
50
 10
93.0425
 20
25.6825
 30
0.0000
 11
93.0425
 21
24.0825
 31
0.0000
  0
ARC
  8
50
 10
92.6425
 20
24.0825
 30
0.0000
 40
0.4000
 50
270.0000
 51
0.0000
  0
LINE
  8
50
 10
92.6425
 20
23.6825
 30
0.0000
 11
92.1425
 21
23.6825
 31
0.0000
  0
ARC
  8
50
 10
92.1425
 20
24.0825
 30
0.0000
 40
0.4000
 50
180.0000
 51
270.0000
  0
LINE
  8
50
 10
91.7425
 20
24.0825
 30
0.0000
 11
91.7425
 21
25.6825
 31
0.0000
  0
LINE
  8
50
 10
93.0425
 20
25.6825
 30
0.0000
 11
93.4925
 21
25.6825
 31
0.0000
  0
ARC
  8
50
 10
93.4925
 20
26.0825
 30
0.0000
 40
0.4000
 50
270.0000
 51
0.0000
  0
LINE
  8
50
 10
93.8925
 20
26.0825
 30
0.0000
 11
93.8925
 21
28.1825
 31
0.0000
  0
ARC
  8
50
 10
93.4925
 20
28.1825
 30
0.0000
 40
0.4000
 50
0.0000
 51
90.0000
  0
LINE
  8
50
 10
93.4925
 20
28.5825
 30
0.0000
 11
91.2925
 21
28.5825
 31
0.0000
  0
ARC
  8
50
 10
91.2925
 20
28.1825
 30
0.0000
 40
0.4000
 50
90.0000
 51
180.0000
  0
LINE
  8
50
 10
90.8925
 20
28.1825
 30
0.0000
 11
90.8925
 21
26.0825
 31
0.0000
  0
ARC
  8
50
 10
91.2925
 20
26.0825
 30
0.0000
 40
0.4000
 50
180.0000
 51
270.0000
  0
LINE
  8
50
 10
91.2925
 20
25.6825
 30
0.0000
 11
91.7425
 21
25.6825
 31
0.0000
  0
LINE
  8
50
 10
88.2300
 20
20.9400
 30
0.0000
 11
86.6300
 21
20.9400
 31
0.0000
  0
ARC
  8
50
 10
86.6300
 20
21.3400
 30
0.0000
 40
0.4000
 50
180.0000
 51
270.0000
  0
LINE
  8
50
 10
86.2300
 20
21.3400
 30
0.0000
 11
86.2300
 21
21.8400
 31
0.0000
  0
ARC
  8
50
 10
86.6300
 20
21.8400
 30
0.0000
 40
0.4000
 50
90.0000
 51
180.0000
  0
LINE
  8
50
 10
86.6300
 20
22.2400
 30
0.0000
 11
88.2300
 21
22.2400
 31
0.0000
  0
LINE
  8
50
 10
88.2300
 20
20.9400
 30
0.0000
 11
88.2300
 21
20.4900
 31
0.0000
  0
ARC
  8
50
 10
88.6300
 20
20.4900
 30
0.0000
 40
0.4000
 50
180.0000
 51
270.0000
  0
LINE
  8
50
 10
88.6300
 20
20.0900
 30
0.0000
 11
90.7300
 21
20.0900
 31
0.0000
  0
ARC
  8
50
 10
90.7300
 20
20.4900
 30
0.0000
 40
0.4000
 50
270.0000
 51
0.0000
  0
LINE
  8
50
 10
91.1300
 20
20.4900
 30
0.0000
 11
91.1300
 21
22.6900
 31
0.0000
  0
ARC
  8
50
 10
90.7300
 20
22.6900
 30
0.0000
 40
0.4000
 50
0.0000
 51
90.0000
  0
LINE
  8
50
 10
90.7300
 20
23.0900
 30
0.0000
 11
88.6300
 21
23.0900
 31
0.0000
  0
ARC
  8
50
 10
88.6300
 20
22.6900
 30
0.0000
 40
0.4000
 50
90.0000
 51
180.0000
  0
LINE
  8
50
 10
88.2300
 20
22.6900
 30
0.0000
 11
88.2300
 21
22.2400
 31
0.0000
  0
LINE
  8
50
 10
93.0425
 20
18.3800
 30
0.0000
 11
93.0425
 21
16.7800
 31
0.0000
  0
ARC
  8
50
 10
92.6425
 20
16.7800
 30
0.0000
 40
0.4000
 50
270.0000
 51
0.0000
  0
LINE
  8
50
 10
92.6425
 20
16.3800
 30
0.0000
 11
92.1425
 21
16.3800
 31
0.0000
  0
ARC
  8
50
 10
92.1425
 20
16.7800
 30
0.0000
 40
0.4000
 50
180.0000
 51
270.0000
  0
LINE
  8
50
 10
91.7425
 20
16.7800
 30
0.0000
 11
91.7425
 21
18.3800
 31
0.0000
  0
LINE
  8
50
 10
93.0425
 20
18.3800
 30
0.0000
 11
93.4925
 21
18.3800
 31
0.0000
  0
ARC
  8
50
 10
93.4925
 20
18.7800
 30
0.0000
 40
0.4000
 50
270.0000
 51
0.0000
  0
LINE
  8
50
 10
93.8925
 20
18.7800
 30
0.0000
 11
93.8925
 21
20.8800
 31
0.0000
  0
ARC
  8
50
 10
93.4925
 20
20.8800
 30
0.0000
 40
0.4000
 50
0.0000
 51
90.0000
  0
LINE
  8
50
 10
93.4925
 20
21.2800
 30
0.0000
 11
91.2925
 21
21.2800
 31
0.0000
  0
ARC
  8
50
 10
91.2925
 20
20.8800
 30
0.0000
 40
0.4000
 50
90.0000
 51
180.0000
  0
LINE
  8
50
 10
90.8925
 20
20.8800
 30
0.0000
 11
90.8925
 21
18.7800
 31
0.0000
  0
ARC
  8
50
 10
91.2925
 20
18.7800
 30
0.0000
 40
0.4000
 50
180.0000
 51
270.0000
  0
LINE
  8
50
 10
91.2925
 20
18.3800
 30
0.0000
 11
91.7425
 21
18.3800
 31
0.0000
  0
LINE
  8
50
 10
88.2300
 20
13.6375
 30
0.0000
 11
86.6300
 21
13.6375
 31
0.0000
  0
ARC
  8
50
 10
86.6300
 20
14.0375
 30
0.0000
 40
0.4000
 50
180.0000
 51
270.0000
  0
LINE
  8
50
 10
86.2300
 20
14.0375
 30
0.0000
 11
86.2300
 21
14.5375
 31
0.0000
  0
ARC
  8
50
 10
86.6300
 20
14.5375
 30
0.0000
 40
0.4000
 50
90.0000
 51
180.0000
  0
LINE
  8
50
 10
86.6300
 20
14.9375
 30
0.0000
 11
88.2300
 21
14.9375
 31
0.0000
  0
LINE
  8
50
 10
88.2300
 20
13.6375
 30
0.0000
 11
88.2300
 21
13.1875
 31
0.0000
  0
ARC
  8
50
 10
88.6300
 20
13.1875
 30
0.0000
 40
0.4000
 50
180.0000
 51
270.0000
  0
LINE
  8
50
 10
88.6300
 20
12.7875
 30
0.0000
 11
90.7300
 21
12.7875
 31
0.0000
  0
ARC
  8
50
 10
90.7300
 20
13.1875
 30
0.0000
 40
0.4000
 50
270.0000
 51
0.0000
  0
LINE
  8
50
 10
91.1300
 20
13.1875
 30
0.0000
 11
91.1300
 21
15.3875
 31
0.0000
  0
ARC
  8
50
 10
90.7300
 20
15.3875
 30
0.0000
 40
0.4000
 50
0.0000
 51
90.0000
  0
LINE
  8
50
 10
90.7300
 20
15.7875
 30
0.0000
 11
88.6300
 21
15.7875
 31
0.0000
  0
ARC
  8
50
 10
88.6300
 20
15.3875
 30
0.0000
 40
0.4000
 50
90.0000
 51
180.0000
  0
LINE
  8
50
 10
88.2300
 20
15.3875
 30
0.0000
 11
88.2300
 21
14.9375
 31
0.0000
  0
LINE
  8
50
 10
33.3025
 20
46.6575
 30
0.0000
 11
31.7025
 21
46.6575
 31
0.0000
  0
ARC
  8
50
 10
31.7025
 20
47.0575
 30
0.0000
 40
0.4000
 50
180.0000
 51
270.0000
  0
LINE
  8
50
 10
31.3025
 20
47.0575
 30
0.0000
 11
31.3025
 21
47.5575
 31
0.0000
  0
ARC
  8
50
 10
31.7025
 20
47.5575
 30
0.0000
 40
0.4000
 50
90.0000
 51
180.0000
  0
LINE
  8
50
 10
31.7025
 20
47.9575
 30
0.0000
 11
33.3025
 21
47.9575
 31
0.0000
  0
LINE
  8
50
 10
33.3025
 20
46.6575
 30
0.0000
 11
33.3025
 21
46.2075
 31
0.0000
  0
ARC
  8
50
 10
33.7025
 20
46.2075
 30
0.0000
 40
0.4000
 50
180.0000
 51
270.0000
  0
LINE
  8
50
 10
33.7025
 20
45.8075
 30
0.0000
 11
35.8025
 21
45.8075
 31
0.0000
  0
ARC
  8
50
 10
35.8025
 20
46.2075
 30
0.0000
 40
0.4000
 50
270.0000
 51
0.0000
  0
LINE
  8
50
 10
36.2025
 20
46.2075
 30
0.0000
 11
36.2025
 21
48.4075
 31
0.0000
  0
ARC
  8
50
 10
35.8025
 20
48.4075
 30
0.0000
 40
0.4000
 50
0.0000
 51
90.0000
  0
LINE
  8
50
 10
35.8025
 20
48.8075
 30
0.0000
 11
33.7025
 21
48.8075
 31
0.0000
  0
ARC
  8
50
 10
33.7025
 20
48.4075
 30
0.0000
 40
0.4000
 50
90.0000
 51
180.0000
  0
LINE
  8
50
 10
33.3025
 20
48.4075
 30
0.0000
 11
33.3025
 21
47.9575
 31
0.0000
  0
LINE
  8
50
 10
92.9790
 20
11.3950
 30
0.0000
 11
92.9790
 21
9.7950
 31
0.0000
  0
ARC
  8
50
 10
92.5790
 20
9.7950
 30
0.0000
 40
0.4000
 50
270.0000
 51
0.0000
  0
LINE
  8
50
 10
92.5790
 20
9.3950
 30
0.0000
 11
92.0790
 21
9.3950
 31
0.0000
  0
ARC
  8
50
 10
92.0790
 20
9.7950
 30
0.0000
 40
0.4000
 50
180.0000
 51
270.0000
  0
LINE
  8
50
 10
91.6790
 20
9.7950
 30
0.0000
 11
91.6790
 21
11.3950
 31
0.0000
  0
LINE
  8
50
 10
92.9790
 20
11.3950
 30
0.0000
 11
93.4290
 21
11.3950
 31
0.0000
  0
ARC
  8
50
 10
93.4290
 20
11.7950
 30
0.0000
 40
0.4000
 50
270.0000
 51
0.0000
  0
LINE
  8
50
 10
93.8290
 20
11.7950
 30
0.0000
 11
93.8290
 21
13.8950
 31
0.0000
  0
ARC
  8
50
 10
93.4290
 20
13.8950
 30
0.0000
 40
0.4000
 50
0.0000
 51
90.0000
  0
LINE
  8
50
 10
93.4290
 20
14.2950
 30
0.0000
 11
91.2290
 21
14.2950
 31
0.0000
  0
ARC
  8
50
 10
91.2290
 20
13.8950
 30
0.0000
 40
0.4000
 50
90.0000
 51
180.0000
  0
LINE
  8
50
 10
90.8290
 20
13.8950
 30
0.0000
 11
90.8290
 21
11.7950
 31
0.0000
  0
ARC
  8
50
 10
91.2290
 20
11.7950
 30
0.0000
 40
0.4000
 50
180.0000
 51
270.0000
  0
LINE
  8
50
 10
91.2290
 20
11.3950
 30
0.0000
 11
91.6790
 21
11.3950
 31
0.0000
  0
LINE
  8
50
 10
91.6790
 20
11.3950
 30
0.0000
 11
91.6790
 21
9.7950
 31
0.0000
  0
ARC
  8
50
 10
92.0790
 20
9.7950
 30
0.0000
 40
0.4000
 50
180.0000
 51
270.0000
  0
LINE
  8
50
 10
92.0790
 20
9.3950
 30
0.0000
 11
92.5790
 21
9.3950
 31
0.0000
  0
ARC
  8
50
 10
92.5790
 20
9.7950
 30
0.0000
 40
0.4000
 50
270.0000
 51
0.0000
  0
LINE
  8
50
 10
92.9790
 20
9.7950
 30
0.0000
 11
92.9790
 21
11.3950
 31
0.0000
  0
LINE
  8
50
 10
91.6790
 20
11.3950
 30
0.0000
 11
91.2290
 21
11.3950
 31
0.0000
  0
ARC
  8
50
 10
91.2290
 20
11.7950
 30
0.0000
 40
0.4000
 50
180.0000
 51
270.0000
  0
LINE
  8
50
 10
90.8290
 20
11.7950
 30
0.0000
 11
90.8290
 21
13.8950
 31
0.0000
  0
ARC
  8
50
 10
91.2290
 20
13.8950
 30
0.0000
 40
0.4000
 50
90.0000
 51
180.0000
  0
LINE
  8
50
 10
91.2290
 20
14.2950
 30
0.0000
 11
93.4290
 21
14.2950
 31
0.0000
  0
ARC
  8
50
 10
93.4290
 20
13.8950
 30
0.0000
 40
0.4000
 50
0.0000
 51
90.0000
  0
LINE
  8
50
 10
93.8290
 20
13.8950
 30
0.0000
 11
93.8290
 21
11.7950
 31
0.0000
  0
ARC
  8
50
 10
93.4290
 20
11.7950
 30
0.0000
 40
0.4000
 50
270.0000
 51
0.0000
  0
LINE
  8
50
 10
93.4290
 20
11.3950
 30
0.0000
 11
92.9790
 21
11.3950
 31
0.0000
  0
LINE
  8
50
 10
65.6940
 20
6.2380
 30
0.0000
 11
67.2940
 21
6.2380
 31
0.0000
  0
ARC
  8
50
 10
67.2940
 20
5.8380
 30
0.0000
 40
0.4000
 50
0.0000
 51
90.0000
  0
LINE
  8
50
 10
67.6940
 20
5.8380
 30
0.0000
 11
67.6940
 21
5.3380
 31
0.0000
  0
ARC
  8
50
 10
67.2940
 20
5.3380
 30
0.0000
 40
0.4000
 50
270.0000
 51
0.0000
  0
LINE
  8
50
 10
67.2940
 20
4.9380
 30
0.0000
 11
65.6940
 21
4.9380
 31
0.0000
  0
LINE
  8
50
 10
65.6940
 20
6.2380
 30
0.0000
 11
65.6940
 21
6.6880
 31
0.0000
  0
ARC
  8
50
 10
65.2940
 20
6.6880
 30
0.0000
 40
0.4000
 50
0.0000
 51
90.0000
  0
LINE
  8
50
 10
65.2940
 20
7.0880
 30
0.0000
 11
63.1940
 21
7.0880
 31
0.0000
  0
ARC
  8
50
 10
63.1940
 20
6.6880
 30
0.0000
 40
0.4000
 50
90.0000
 51
180.0000
  0
LINE
  8
50
 10
62.7940
 20
6.6880
 30
0.0000
 11
62.7940
 21
4.4880
 31
0.0000
  0
ARC
  8
50
 10
63.1940
 20
4.4880
 30
0.0000
 40
0.4000
 50
180.0000
 51
270.0000
  0
LINE
  8
50
 10
63.1940
 20
4.0880
 30
0.0000
 11
65.2940
 21
4.0880
 31
0.0000
  0
ARC
  8
50
 10
65.2940
 20
4.4880
 30
0.0000
 40
0.4000
 50
270.0000
 51
0.0000
  0
LINE
  8
50
 10
65.6940
 20
4.4880
 30
0.0000
 11
65.6940
 21
4.9380
 31
0.0000
  0
LINE
  8
50
 10
79.0860
 20
10.2720
 30
0.0000
 11
77.4860
 21
10.2720
 31
0.0000
  0
ARC
  8
50
 10
77.4860
 20
10.6720
 30
0.0000
 40
0.4000
 50
180.0000
 51
270.0000
  0
LINE
  8
50
 10
77.0860
 20
10.6720
 30
0.0000
 11
77.0860
 21
11.1720
 31
0.0000
  0
ARC
  8
50
 10
77.4860
 20
11.1720
 30
0.0000
 40
0.4000
 50
90.0000
 51
180.0000
  0
LINE
  8
50
 10
77.4860
 20
11.5720
 30
0.0000
 11
79.0860
 21
11.5720
 31
0.0000
  0
LINE
  8
50
 10
79.0860
 20
10.2720
 30
0.0000
 11
79.0860
 21
9.8220
 31
0.0000
  0
ARC
  8
50
 10
79.4860
 20
9.8220
 30
0.0000
 40
0.4000
 50
180.0000
 51
270.0000
  0
LINE
  8
50
 10
79.4860
 20
9.4220
 30
0.0000
 11
81.5860
 21
9.4220
 31
0.0000
  0
ARC
  8
50
 10
81.5860
 20
9.8220
 30
0.0000
 40
0.4000
 50
270.0000
 51
0.0000
  0
LINE
  8
50
 10
81.9860
 20
9.8220
 30
0.0000
 11
81.9860
 21
12.0220
 31
0.0000
  0
ARC
  8
50
 10
81.5860
 20
12.0220
 30
0.0000
 40
0.4000
 50
0.0000
 51
90.0000
  0
LINE
  8
50
 10
81.5860
 20
12.4220
 30
0.0000
 11
79.4860
 21
12.4220
 31
0.0000
  0
ARC
  8
50
 10
79.4860
 20
12.0220
 30
0.0000
 40
0.4000
 50
90.0000
 51
180.0000
  0
LINE
  8
50
 10
79.0860
 20
12.0220
 30
0.0000
 11
79.0860
 21
11.5720
 31
0.0000
  0
LINE
  8
50
 10
9.0650
 20
34.6100
 30
0.0000
 11
9.0650
 21
25.6100
 31
0.0000
  0
LINE
  8
50
 10
9.0650
 20
25.6100
 30
0.0000
 11
2.3650
 21
25.6100
 31
0.0000
  0
LINE
  8
50
 10
2.3650
 20
25.6100
 30
0.0000
 11
2.3650
 21
34.6100
 31
0.0000
  0
ARC
  8
50
 10
3.1650
 20
34.6100
 30
0.0000
 40
0.8000
 50
90.0000
 51
180.0000
  0
LINE
  8
50
 10
3.1650
 20
35.4100
 30
0.0000
 11
8.2650
 21
35.4100
 31
0.0000
  0
ARC
  8
50
 10
8.2650
 20
34.6100
 30
0.0000
 40
0.8000
 50
0.0000
 51
90.0000
  0
LINE
  8
50
 10
32.3050
 20
16.2800
 30
0.0000
 11
34.3050
 21
16.2800
 31
0.0000
  0
LINE
  8
50
 10
34.3050
 20
19.2800
 30
0.0000
 11
32.3050
 21
19.2800
 31
0.0000
  0
LINE
  8
50
 10
32.3050
 20
19.2800
 30
0.0000
 11
32.3050
 21
16.2800
 31
0.0000
  0
LINE
  8
50
 10
34.3050
 20
19.2800
 30
0.0000
 11
34.3050
 21
19.3800
 31
0.0000
  0
ARC
  8
50
 10
34.7050
 20
19.3800
 30
0.0000
 40
0.4000
 50
90.0000
 51
180.0000
  0
LINE
  8
50
 10
34.7050
 20
19.7800
 30
0.0000
 11
37.2550
 21
19.7800
 31
0.0000
  0
ARC
  8
50
 10
37.2550
 20
19.3800
 30
0.0000
 40
0.4000
 50
0.0000
 51
90.0000
  0
LINE
  8
50
 10
37.6550
 20
19.3800
 30
0.0000
 11
37.6550
 21
16.1800
 31
0.0000
  0
ARC
  8
50
 10
37.2550
 20
16.1800
 30
0.0000
 40
0.4000
 50
270.0000
 51
0.0000
  0
LINE
  8
50
 10
37.2550
 20
15.7800
 30
0.0000
 11
34.7050
 21
15.7800
 31
0.0000
  0
ARC
  8
50
 10
34.7050
 20
16.1800
 30
0.0000
 40
0.4000
 50
180.0000
 51
270.0000
  0
LINE
  8
50
 10
34.3050
 20
16.1800
 30
0.0000
 11
34.3050
 21
16.2800
 31
0.0000
  0
LINE
  8
50
 10
24.6850
 20
46.1250
 30
0.0000
 11
26.6850
 21
46.1250
 31
0.0000
  0
LINE
  8
50
 10
26.6850
 20
49.1250
 30
0.0000
 11
24.6850
 21
49.1250
 31
0.0000
  0
LINE
  8
50
 10
24.6850
 20
49.1250
 30
0.0000
 11
24.6850
 21
46.1250
 31
0.0000
  0
LINE
  8
50
 10
26.6850
 20
49.1250
 30
0.0000
 11
26.6850
 21
49.2250
 31
0.0000
  0
ARC
  8
50
 10
27.0850
 20
49.2250
 30
0.0000
 40
0.4000
 50
90.0000
 51
180.0000
  0
LINE
  8
50
 10
27.0850
 20
49.6250
 30
0.0000
 11
29.6350
 21
49.6250
 31
0.0000
  0
ARC
  8
50
 10
29.6350
 20
49.2250
 30
0.0000
 40
0.4000
 50
0.0000
 51
90.0000
  0
LINE
  8
50
 10
30.0350
 20
49.2250
 30
0.0000
 11
30.0350
 21
46.0250
 31
0.0000
  0
ARC
  8
50
 10
29.6350
 20
46.0250
 30
0.0000
 40
0.4000
 50
270.0000
 51
0.0000
  0
LINE
  8
50
 10
29.6350
 20
45.6250
 30
0.0000
 11
27.0850
 21
45.6250
 31
0.0000
  0
ARC
  8
50
 10
27.0850
 20
46.0250
 30
0.0000
 40
0.4000
 50
180.0000
 51
270.0000
  0
LINE
  8
50
 10
26.6850
 20
46.0250
 30
0.0000
 11
26.6850
 21
46.1250
 31
0.0000
  0
LINE
  8
50
 10
28.7175
 20
34.6050
 30
0.0000
 11
28.7175
 21
43.6050
 31
0.0000
  0
LINE
  8
50
 10
28.7175
 20
43.6050
 30
0.0000
 11
35.4175
 21
43.6050
 31
0.0000
  0
LINE
  8
50
 10
35.4175
 20
43.6050
 30
0.0000
 11
35.4175
 21
34.6050
 31
0.0000
  0
ARC
  8
50
 10
34.6175
 20
34.6050
 30
0.0000
 40
0.8000
 50
270.0000
 51
0.0000
  0
LINE
  8
50
 10
34.6175
 20
33.8050
 30
0.0000
 11
29.5175
 21
33.8050
 31
0.0000
  0
ARC
  8
50
 10
29.5175
 20
34.6050
 30
0.0000
 40
0.8000
 50
180.0000
 51
270.0000
  0
LINE
  8
50
 10
46.5850
 20
3.4125
 30
0.0000
 11
46.5850
 21
5.4125
 31
0.0000
  0
LINE
  8
50
 10
43.5850
 20
5.4125
 30
0.0000
 11
43.5850
 21
3.4125
 31
0.0000
  0
LINE
  8
50
 10
43.5850
 20
3.4125
 30
0.0000
 11
46.5850
 21
3.4125
 31
0.0000
  0
LINE
  8
50
 10
43.5850
 20
5.4125
 30
0.0000
 11
43.4850
 21
5.4125
 31
0.0000
  0
ARC
  8
50
 10
43.4850
 20
5.8125
 30
0.0000
 40
0.4000
 50
180.0000
 51
270.0000
  0
LINE
  8
50
 10
43.0850
 20
5.8125
 30
0.0000
 11
43.0850
 21
8.3625
 31
0.0000
  0
ARC
  8
50
 10
43.4850
 20
8.3625
 30
0.0000
 40
0.4000
 50
90.0000
 51
180.0000
  0
LINE
  8
50
 10
43.4850
 20
8.7625
 30
0.0000
 11
46.6850
 21
8.7625
 31
0.0000
  0
ARC
  8
50
 10
46.6850
 20
8.3625
 30
0.0000
 40
0.4000
 50
0.0000
 51
90.0000
  0
LINE
  8
50
 10
47.0850
 20
8.3625
 30
0.0000
 11
47.0850
 21
5.8125
 31
0.0000
  0
ARC
  8
50
 10
46.6850
 20
5.8125
 30
0.0000
 40
0.4000
 50
270.0000
 51
0.0000
  0
LINE
  8
50
 10
46.6850
 20
5.4125
 30
0.0000
 11
46.5850
 21
5.4125
 31
0.0000
  0
LINE
  8
50
 10
65.6425
 20
24.2175
 30
0.0000
 11
67.6425
 21
24.2175
 31
0.0000
  0
LINE
  8
50
 10
67.6425
 20
27.2175
 30
0.0000
 11
65.6425
 21
27.2175
 31
0.0000
  0
LINE
  8
50
 10
65.6425
 20
27.2175
 30
0.0000
 11
65.6425
 21
24.2175
 31
0.0000
  0
LINE
  8
50
 10
67.6425
 20
27.2175
 30
0.0000
 11
67.6425
 21
27.3175
 31
0.0000
  0
ARC
  8
50
 10
68.0425
 20
27.3175
 30
0.0000
 40
0.4000
 50
90.0000
 51
180.0000
  0
LINE
  8
50
 10
68.0425
 20
27.7175
 30
0.0000
 11
70.5925
 21
27.7175
 31
0.0000
  0
ARC
  8
50
 10
70.5925
 20
27.3175
 30
0.0000
 40
0.4000
 50
0.0000
 51
90.0000
  0
LINE
  8
50
 10
70.9925
 20
27.3175
 30
0.0000
 11
70.9925
 21
24.1175
 31
0.0000
  0
ARC
  8
50
 10
70.5925
 20
24.1175
 30
0.0000
 40
0.4000
 50
270.0000
 51
0.0000
  0
LINE
  8
50
 10
70.5925
 20
23.7175
 30
0.0000
 11
68.0425
 21
23.7175
 31
0.0000
  0
ARC
  8
50
 10
68.0425
 20
24.1175
 30
0.0000
 40
0.4000
 50
180.0000
 51
270.0000
  0
LINE
  8
50
 10
67.6425
 20
24.1175
 30
0.0000
 11
67.6425
 21
24.2175
 31
0.0000
  0
LINE
  8
50
 10
12.9300
 20
27.2250
 30
0.0000
 11
12.9300
 21
29.2250
 31
0.0000
  0
LINE
  8
50
 10
9.9300
 20
29.2250
 30
0.0000
 11
9.9300
 21
27.2250
 31
0.0000
  0
LINE
  8
50
 10
9.9300
 20
27.2250
 30
0.0000
 11
12.9300
 21
27.2250
 31
0.0000
  0
LINE
  8
50
 10
9.9300
 20
29.2250
 30
0.0000
 11
9.8300
 21
29.2250
 31
0.0000
  0
ARC
  8
50
 10
9.8300
 20
29.6250
 30
0.0000
 40
0.4000
 50
180.0000
 51
270.0000
  0
LINE
  8
50
 10
9.4300
 20
29.6250
 30
0.0000
 11
9.4300
 21
32.1750
 31
0.0000
  0
ARC
  8
50
 10
9.8300
 20
32.1750
 30
0.0000
 40
0.4000
 50
90.0000
 51
180.0000
  0
LINE
  8
50
 10
9.8300
 20
32.5750
 30
0.0000
 11
13.0300
 21
32.5750
 31
0.0000
  0
ARC
  8
50
 10
13.0300
 20
32.1750
 30
0.0000
 40
0.4000
 50
0.0000
 51
90.0000
  0
LINE
  8
50
 10
13.4300
 20
32.1750
 30
0.0000
 11
13.4300
 21
29.6250
 31
0.0000
  0
ARC
  8
50
 10
13.0300
 20
29.6250
 30
0.0000
 40
0.4000
 50
270.0000
 51
0.0000
  0
LINE
  8
50
 10
13.0300
 20
29.2250
 30
0.0000
 11
12.9300
 21
29.2250
 31
0.0000
  0
LINE
  8
50
 10
89.2975
 20
33.2500
 30
0.0000
 11
87.2975
 21
33.2500
 31
0.0000
  0
LINE
  8
50
 10
87.2975
 20
30.2500
 30
0.0000
 11
89.2975
 21
30.2500
 31
0.0000
  0
LINE
  8
50
 10
89.2975
 20
30.2500
 30
0.0000
 11
89.2975
 21
33.2500
 31
0.0000
  0
LINE
  8
50
 10
87.2975
 20
30.2500
 30
0.0000
 11
87.2975
 21
30.1500
 31
0.0000
  0
ARC
  8
50
 10
86.8975
 20
30.1500
 30
0.0000
 40
0.4000
 50
270.0000
 51
0.0000
  0
LINE
  8
50
 10
86.8975
 20
29.7500
 30
0.0000
 11
84.3475
 21
29.7500
 31
0.0000
  0
ARC
  8
50
 10
84.3475
 20
30.1500
 30
0.0000
 40
0.4000
 50
180.0000
 51
270.0000
  0
LINE
  8
50
 10
83.9475
 20
30.1500
 30
0.0000
 11
83.9475
 21
33.3500
 31
0.0000
  0
ARC
  8
50
 10
84.3475
 20
33.3500
 30
0.0000
 40
0.4000
 50
90.0000
 51
180.0000
  0
LINE
  8
50
 10
84.3475
 20
33.7500
 30
0.0000
 11
86.8975
 21
33.7500
 31
0.0000
  0
ARC
  8
50
 10
86.8975
 20
33.3500
 30
0.0000
 40
0.4000
 50
0.0000
 51
90.0000
  0
LINE
  8
50
 10
87.2975
 20
33.3500
 30
0.0000
 11
87.2975
 21
33.2500
 31
0.0000
  0
LINE
  8
50
 10
83.9000
 20
30.7100
 30
0.0000
 11
81.9000
 21
30.7100
 31
0.0000
  0
LINE
  8
50
 10
81.9000
 20
27.7100
 30
0.0000
 11
83.9000
 21
27.7100
 31
0.0000
  0
LINE
  8
50
 10
83.9000
 20
27.7100
 30
0.0000
 11
83.9000
 21
30.7100
 31
0.0000
  0
LINE
  8
50
 10
81.9000
 20
27.7100
 30
0.0000
 11
81.9000
 21
27.6100
 31
0.0000
  0
ARC
  8
50
 10
81.5000
 20
27.6100
 30
0.0000
 40
0.4000
 50
270.0000
 51
0.0000
  0
LINE
  8
50
 10
81.5000
 20
27.2100
 30
0.0000
 11
78.9500
 21
27.2100
 31
0.0000
  0
ARC
  8
50
 10
78.9500
 20
27.6100
 30
0.0000
 40
0.4000
 50
180.0000
 51
270.0000
  0
LINE
  8
50
 10
78.5500
 20
27.6100
 30
0.0000
 11
78.5500
 21
30.8100
 31
0.0000
  0
ARC
  8
50
 10
78.9500
 20
30.8100
 30
0.0000
 40
0.4000
 50
90.0000
 51
180.0000
  0
LINE
  8
50
 10
78.9500
 20
31.2100
 30
0.0000
 11
81.5000
 21
31.2100
 31
0.0000
  0
ARC
  8
50
 10
81.5000
 20
30.8100
 30
0.0000
 40
0.4000
 50
0.0000
 51
90.0000
  0
LINE
  8
50
 10
81.9000
 20
30.8100
 30
0.0000
 11
81.9000
 21
30.7100
 31
0.0000
  0
LINE
  8
50
 10
89.2975
 20
26.2650
 30
0.0000
 11
87.2975
 21
26.2650
 31
0.0000
  0
LINE
  8
50
 10
87.2975
 20
23.2650
 30
0.0000
 11
89.2975
 21
23.2650
 31
0.0000
  0
LINE
  8
50
 10
89.2975
 20
23.2650
 30
0.0000
 11
89.2975
 21
26.2650
 31
0.0000
  0
LINE
  8
50
 10
87.2975
 20
23.2650
 30
0.0000
 11
87.2975
 21
23.1650
 31
0.0000
  0
ARC
  8
50
 10
86.8975
 20
23.1650
 30
0.0000
 40
0.4000
 50
270.0000
 51
0.0000
  0
LINE
  8
50
 10
86.8975
 20
22.7650
 30
0.0000
 11
84.3475
 21
22.7650
 31
0.0000
  0
ARC
  8
50
 10
84.3475
 20
23.1650
 30
0.0000
 40
0.4000
 50
180.0000
 51
270.0000
  0
LINE
  8
50
 10
83.9475
 20
23.1650
 30
0.0000
 11
83.9475
 21
26.3650
 31
0.0000
  0
ARC
  8
50
 10
84.3475
 20
26.3650
 30
0.0000
 40
0.4000
 50
90.0000
 51
180.0000
  0
LINE
  8
50
 10
84.3475
 20
26.7650
 30
0.0000
 11
86.8975
 21
26.7650
 31
0.0000
  0
ARC
  8
50
 10
86.8975
 20
26.3650
 30
0.0000
 40
0.4000
 50
0.0000
 51
90.0000
  0
LINE
  8
50
 10
87.2975
 20
26.3650
 30
0.0000
 11
87.2975
 21
26.2650
 31
0.0000
  0
LINE
  8
50
 10
83.5825
 20
23.7250
 30
0.0000
 11
81.5825
 21
23.7250
 31
0.0000
  0
LINE
  8
50
 10
81.5825
 20
20.7250
 30
0.0000
 11
83.5825
 21
20.7250
 31
0.0000
  0
LINE
  8
50
 10
83.5825
 20
20.7250
 30
0.0000
 11
83.5825
 21
23.7250
 31
0.0000
  0
LINE
  8
50
 10
81.5825
 20
20.7250
 30
0.0000
 11
81.5825
 21
20.6250
 31
0.0000
  0
ARC
  8
50
 10
81.1825
 20
20.6250
 30
0.0000
 40
0.4000
 50
270.0000
 51
0.0000
  0
LINE
  8
50
 10
81.1825
 20
20.2250
 30
0.0000
 11
78.6325
 21
20.2250
 31
0.0000
  0
ARC
  8
50
 10
78.6325
 20
20.6250
 30
0.0000
 40
0.4000
 50
180.0000
 51
270.0000
  0
LINE
  8
50
 10
78.2325
 20
20.6250
 30
0.0000
 11
78.2325
 21
23.8250
 31
0.0000
  0
ARC
  8
50
 10
78.6325
 20
23.8250
 30
0.0000
 40
0.4000
 50
90.0000
 51
180.0000
  0
LINE
  8
50
 10
78.6325
 20
24.2250
 30
0.0000
 11
81.1825
 21
24.2250
 31
0.0000
  0
ARC
  8
50
 10
81.1825
 20
23.8250
 30
0.0000
 40
0.4000
 50
0.0000
 51
90.0000
  0
LINE
  8
50
 10
81.5825
 20
23.8250
 30
0.0000
 11
81.5825
 21
23.7250
 31
0.0000
  0
LINE
  8
50
 10
89.2975
 20
19.5975
 30
0.0000
 11
87.2975
 21
19.5975
 31
0.0000
  0
LINE
  8
50
 10
87.2975
 20
16.5975
 30
0.0000
 11
89.2975
 21
16.5975
 31
0.0000
  0
LINE
  8
50
 10
89.2975
 20
16.5975
 30
0.0000
 11
89.2975
 21
19.5975
 31
0.0000
  0
LINE
  8
50
 10
87.2975
 20
16.5975
 30
0.0000
 11
87.2975
 21
16.4975
 31
0.0000
  0
ARC
  8
50
 10
86.8975
 20
16.4975
 30
0.0000
 40
0.4000
 50
270.0000
 51
0.0000
  0
LINE
  8
50
 10
86.8975
 20
16.0975
 30
0.0000
 11
84.3475
 21
16.0975
 31
0.0000
  0
ARC
  8
50
 10
84.3475
 20
16.4975
 30
0.0000
 40
0.4000
 50
180.0000
 51
270.0000
  0
LINE
  8
50
 10
83.9475
 20
16.4975
 30
0.0000
 11
83.9475
 21
19.6975
 31
0.0000
  0
ARC
  8
50
 10
84.3475
 20
19.6975
 30
0.0000
 40
0.4000
 50
90.0000
 51
180.0000
  0
LINE
  8
50
 10
84.3475
 20
20.0975
 30
0.0000
 11
86.8975
 21
20.0975
 31
0.0000
  0
ARC
  8
50
 10
86.8975
 20
19.6975
 30
0.0000
 40
0.4000
 50
0.0000
 51
90.0000
  0
LINE
  8
50
 10
87.2975
 20
19.6975
 30
0.0000
 11
87.2975
 21
19.5975
 31
0.0000
  0
LINE
  8
50
 10
83.9000
 20
16.7400
 30
0.0000
 11
81.9000
 21
16.7400
 31
0.0000
  0
LINE
  8
50
 10
81.9000
 20
13.7400
 30
0.0000
 11
83.9000
 21
13.7400
 31
0.0000
  0
LINE
  8
50
 10
83.9000
 20
13.7400
 30
0.0000
 11
83.9000
 21
16.7400
 31
0.0000
  0
LINE
  8
50
 10
81.9000
 20
13.7400
 30
0.0000
 11
81.9000
 21
13.6400
 31
0.0000
  0
ARC
  8
50
 10
81.5000
 20
13.6400
 30
0.0000
 40
0.4000
 50
270.0000
 51
0.0000
  0
LINE
  8
50
 10
81.5000
 20
13.2400
 30
0.0000
 11
78.9500
 21
13.2400
 31
0.0000
  0
ARC
  8
50
 10
78.9500
 20
13.6400
 30
0.0000
 40
0.4000
 50
180.0000
 51
270.0000
  0
LINE
  8
50
 10
78.5500
 20
13.6400
 30
0.0000
 11
78.5500
 21
16.8400
 31
0.0000
  0
ARC
  8
50
 10
78.9500
 20
16.8400
 30
0.0000
 40
0.4000
 50
90.0000
 51
180.0000
  0
LINE
  8
50
 10
78.9500
 20
17.2400
 30
0.0000
 11
81.5000
 21
17.2400
 31
0.0000
  0
ARC
  8
50
 10
81.5000
 20
16.8400
 30
0.0000
 40
0.4000
 50
0.0000
 51
90.0000
  0
LINE
  8
50
 10
81.9000
 20
16.8400
 30
0.0000
 11
81.9000
 21
16.7400
 31
0.0000
  0
LINE
  8
50
 10
78.4250
 20
0.7775
 30
0.0000
 11
69.4250
 21
0.7775
 31
0.0000
  0
LINE
  8
50
 10
69.4250
 20
0.7775
 30
0.0000
 11
69.4250
 21
7.4775
 31
0.0000
  0
LINE
  8
50
 10
69.4250
 20
7.4775
 30
0.0000
 11
78.4250
 21
7.4775
 31
0.0000
  0
ARC
  8
50
 10
78.4250
 20
6.6775
 30
0.0000
 40
0.8000
 50
0.0000
 51
90.0000
  0
LINE
  8
50
 10
79.2250
 20
6.6775
 30
0.0000
 11
79.2250
 21
1.5775
 31
0.0000
  0
ARC
  8
50
 10
78.4250
 20
1.5775
 30
0.0000
 40
0.8000
 50
270.0000
 51
0.0000
  0
LINE
  8
50
 10
89.5375
 20
0.7775
 30
0.0000
 11
80.5375
 21
0.7775
 31
0.0000
  0
LINE
  8
50
 10
80.5375
 20
0.7775
 30
0.0000
 11
80.5375
 21
7.4775
 31
0.0000
  0
LINE
  8
50
 10
80.5375
 20
7.4775
 30
0.0000
 11
89.5375
 21
7.4775
 31
0.0000
  0
ARC
  8
50
 10
89.5375
 20
6.6775
 30
0.0000
 40
0.8000
 50
0.0000
 51
90.0000
  0
LINE
  8
50
 10
90.3375
 20
6.6775
 30
0.0000
 11
90.3375
 21
1.5775
 31
0.0000
  0
ARC
  8
50
 10
89.5375
 20
1.5775
 30
0.0000
 40
0.8000
 50
270.0000
 51
0.0000
  0
ENDSEC
  0
EOF
