  0
SECTION
  2
HEADER
  9
$ACADVER
  1
AC1009
  9
$FILLMODE
 70
0
  9
$EXTMIN
 10
-0.4572
 20
-0.3302
 30
0.0000
  9
$EXTMAX
 10
129.8450
 20
55.3720
 30
0.0000
  0
ENDSEC
  0
SECTION
  2
TABLES
  0
TABLE
  2
LTYPE
 70
1
  0
LTYPE
  2
CONTINUOUS
 70
64
  3
Solid line
 72
65
 73
0
 40
0
  0
ENDTAB
  0
TABLE
  2
LAYER
 70
255
  0
LAYER
  2
1
 70
64
 62
14
  6
CONTINUOUS
  0
LAYER
  2
17
 70
64
 62
94
  6
CONTINUOUS
  0
LAYER
  2
18
 70
64
 62
94
  6
CONTINUOUS
  0
LAYER
  2
20
 70
64
 62
178
  6
CONTINUOUS
  0
ENDTAB
  0
ENDSEC
  0
SECTION
  2
BLOCKS
  0
BLOCK
  8
0
  2
RECT
 70
64
 10
0.0000
 20
0.0000
 30
0.0000
  3
RECT
  0
SOLID
  8
0
 10
-0.5000
 20
-0.5000
 30
0.0000
 11
0.5000
 21
-0.5000
 31
0.0000
 12
-0.5000
 22
0.5000
 32
0.0000
 13
0.5000
 23
0.5000
 33
0.0000
  0
ENDBLK
  8
0
  0
BLOCK
  8
0
  2
PIE
 70
64
 10
0.0000
 20
0.0000
 30
0.0000
  3
PIE
  0
CIRCLE
  8
0
 10
0.0000
 20
0.0000
 30
0.0000
 40
0.5000
  0
ENDBLK
  8
0
  0
BLOCK
  8
0
  2
OCTAGONP
 70
64
 10
0.0000
 20
0.0000
 30
0.0000
  3
OCTAGONP
  0
POLYLINE
  8
0
 66
1
 10
0.0000
 20
0.0000
 30
0.0000
 40
0.0000
 41
0.0000
 70
1
  0
VERTEX
  8
0
 10
-0.5000
 20
-0.2071
 30
0.0000
  0
VERTEX
  8
0
 10
-0.5000
 20
0.2071
 30
0.0000
  0
VERTEX
  8
0
 10
-0.2071
 20
0.5000
 30
0.0000
  0
VERTEX
  8
0
 10
0.2071
 20
0.5000
 30
0.0000
  0
VERTEX
  8
0
 10
0.5000
 20
0.2071
 30
0.0000
  0
VERTEX
  8
0
 10
0.5000
 20
-0.2071
 30
0.0000
  0
VERTEX
  8
0
 10
0.2071
 20
-0.5000
 30
0.0000
  0
VERTEX
  8
0
 10
-0.2071
 20
-0.5000
 30
0.0000
  0
SEQEND
  8
0
  0
ENDBLK
  8
0
  0
BLOCK
  8
0
  2
SQUAREP
 70
64
 10
0.0000
 20
0.0000
 30
0.0000
  3
SQUAREP
  0
SOLID
  8
0
 10
-0.5000
 20
-0.5000
 30
0.0000
 11
0.5000
 21
-0.5000
 31
0.0000
 12
-0.5000
 22
0.5000
 32
0.0000
 13
0.5000
 23
0.5000
 33
0.0000
  0
ENDBLK
  8
0
  0
BLOCK
  8
0
  2
ROUNDP
 70
64
 10
0.0000
 20
0.0000
 30
0.0000
  3
ROUNDP
  0
CIRCLE
  8
0
 10
0.0000
 20
0.0000
 30
0.0000
 40
0.5000
  0
ENDBLK
  8
0
  0
BLOCK
  8
0
  2
ANNULUSP
 70
64
 10
0.0000
 20
0.0000
 30
0.0000
  3
ANNULUSP
  0
CIRCLE
  8
0
 10
0.0000
 20
0.0000
 30
0.0000
 40
0.5000
  0
ENDBLK
  8
0
  0
BLOCK
  8
0
  2
THERMALP
 70
64
 10
0.0000
 20
0.0000
 30
0.0000
  3
THERMALP
  0
POLYLINE
  8
0
 66
1
 10
0.0000
 20
0.0000
 30
0.0000
 40
0.0000
 41
0.0000
 70
1
  0
VERTEX
  8
0
 10
-0.2379
 20
0.4000
 30
0.0000
  0
VERTEX
  8
0
 10
0.2379
 20
0.4000
 30
0.0000
 42
1.0000
  0
VERTEX
  8
0
 10
0.2379
 20
0.5000
 30
0.0000
  0
VERTEX
  8
0
 10
-0.2379
 20
0.5000
 30
0.0000
 42
1.0000
  0
SEQEND
  8
0
  0
POLYLINE
  8
0
 66
1
 10
0.0000
 20
0.0000
 30
0.0000
 40
0.0000
 41
0.0000
 70
1
  0
VERTEX
  8
0
 10
0.4000
 20
0.2379
 30
0.0000
  0
VERTEX
  8
0
 10
0.4000
 20
-0.2379
 30
0.0000
 42
1.0000
  0
VERTEX
  8
0
 10
0.5000
 20
-0.2379
 30
0.0000
  0
VERTEX
  8
0
 10
0.5000
 20
0.2379
 30
0.0000
 42
1.0000
  0
SEQEND
  8
0
  0
POLYLINE
  8
0
 66
1
 10
0.0000
 20
0.0000
 30
0.0000
 40
0.0000
 41
0.0000
 70
1
  0
VERTEX
  8
0
 10
0.2379
 20
-0.4000
 30
0.0000
  0
VERTEX
  8
0
 10
-0.2379
 20
-0.4000
 30
0.0000
 42
1.0000
  0
VERTEX
  8
0
 10
-0.2379
 20
-0.5000
 30
0.0000
  0
VERTEX
  8
0
 10
0.2379
 20
-0.5000
 30
0.0000
 42
1.0000
  0
SEQEND
  8
0
  0
POLYLINE
  8
0
 66
1
 10
0.0000
 20
0.0000
 30
0.0000
 40
0.0000
 41
0.0000
 70
1
  0
VERTEX
  8
0
 10
-0.4000
 20
-0.2379
 30
0.0000
  0
VERTEX
  8
0
 10
-0.4000
 20
0.2379
 30
0.0000
 42
1.0000
  0
VERTEX
  8
0
 10
-0.5000
 20
0.2379
 30
0.0000
  0
VERTEX
  8
0
 10
-0.5000
 20
-0.2379
 30
0.0000
 42
1.0000
  0
SEQEND
  8
0
  0
ENDBLK
  8
0
  0
BLOCK
  8
0
  2
OCTAGONV
 70
64
 10
0.0000
 20
0.0000
 30
0.0000
  3
OCTAGONV
  0
POLYLINE
  8
0
 66
1
 10
0.0000
 20
0.0000
 30
0.0000
 40
0.0000
 41
0.0000
 70
1
  0
VERTEX
  8
0
 10
-0.5000
 20
-0.2071
 30
0.0000
  0
VERTEX
  8
0
 10
-0.5000
 20
0.2071
 30
0.0000
  0
VERTEX
  8
0
 10
-0.2071
 20
0.5000
 30
0.0000
  0
VERTEX
  8
0
 10
0.2071
 20
0.5000
 30
0.0000
  0
VERTEX
  8
0
 10
0.5000
 20
0.2071
 30
0.0000
  0
VERTEX
  8
0
 10
0.5000
 20
-0.2071
 30
0.0000
  0
VERTEX
  8
0
 10
0.2071
 20
-0.5000
 30
0.0000
  0
VERTEX
  8
0
 10
-0.2071
 20
-0.5000
 30
0.0000
  0
SEQEND
  8
0
  0
ENDBLK
  8
0
  0
BLOCK
  8
0
  2
SQUAREV
 70
64
 10
0.0000
 20
0.0000
 30
0.0000
  3
SQUAREV
  0
SOLID
  8
0
 10
-0.5000
 20
-0.5000
 30
0.0000
 11
0.5000
 21
-0.5000
 31
0.0000
 12
-0.5000
 22
0.5000
 32
0.0000
 13
0.5000
 23
0.5000
 33
0.0000
  0
ENDBLK
  8
0
  0
BLOCK
  8
0
  2
ROUNDV
 70
64
 10
0.0000
 20
0.0000
 30
0.0000
  3
ROUNDV
  0
CIRCLE
  8
0
 10
0.0000
 20
0.0000
 30
0.0000
 40
0.5000
  0
ENDBLK
  8
0
  0
BLOCK
  8
0
  2
ANNULUSV
 70
64
 10
0.0000
 20
0.0000
 30
0.0000
  3
ANNULUSV
  0
CIRCLE
  8
0
 10
0.0000
 20
0.0000
 30
0.0000
 40
0.5000
  0
ENDBLK
  8
0
  0
BLOCK
  8
0
  2
THERMALV
 70
64
 10
0.0000
 20
0.0000
 30
0.0000
  3
THERMALV
  0
POLYLINE
  8
0
 66
1
 10
0.0000
 20
0.0000
 30
0.0000
 40
0.0000
 41
0.0000
 70
1
  0
VERTEX
  8
0
 10
-0.2379
 20
0.4000
 30
0.0000
  0
VERTEX
  8
0
 10
0.2379
 20
0.4000
 30
0.0000
 42
1.0000
  0
VERTEX
  8
0
 10
0.2379
 20
0.5000
 30
0.0000
  0
VERTEX
  8
0
 10
-0.2379
 20
0.5000
 30
0.0000
 42
1.0000
  0
SEQEND
  8
0
  0
POLYLINE
  8
0
 66
1
 10
0.0000
 20
0.0000
 30
0.0000
 40
0.0000
 41
0.0000
 70
1
  0
VERTEX
  8
0
 10
0.4000
 20
0.2379
 30
0.0000
  0
VERTEX
  8
0
 10
0.4000
 20
-0.2379
 30
0.0000
 42
1.0000
  0
VERTEX
  8
0
 10
0.5000
 20
-0.2379
 30
0.0000
  0
VERTEX
  8
0
 10
0.5000
 20
0.2379
 30
0.0000
 42
1.0000
  0
SEQEND
  8
0
  0
POLYLINE
  8
0
 66
1
 10
0.0000
 20
0.0000
 30
0.0000
 40
0.0000
 41
0.0000
 70
1
  0
VERTEX
  8
0
 10
0.2379
 20
-0.4000
 30
0.0000
  0
VERTEX
  8
0
 10
-0.2379
 20
-0.4000
 30
0.0000
 42
1.0000
  0
VERTEX
  8
0
 10
-0.2379
 20
-0.5000
 30
0.0000
  0
VERTEX
  8
0
 10
0.2379
 20
-0.5000
 30
0.0000
 42
1.0000
  0
SEQEND
  8
0
  0
POLYLINE
  8
0
 66
1
 10
0.0000
 20
0.0000
 30
0.0000
 40
0.0000
 41
0.0000
 70
1
  0
VERTEX
  8
0
 10
-0.4000
 20
-0.2379
 30
0.0000
  0
VERTEX
  8
0
 10
-0.4000
 20
0.2379
 30
0.0000
 42
1.0000
  0
VERTEX
  8
0
 10
-0.5000
 20
0.2379
 30
0.0000
  0
VERTEX
  8
0
 10
-0.5000
 20
-0.2379
 30
0.0000
 42
1.0000
  0
SEQEND
  8
0
  0
ENDBLK
  8
0
  0
BLOCK
  8
0
  2
LONGP100
 70
64
 10
0.0000
 20
0.0000
 30
0.0000
  3
LONGP100
  0
POLYLINE
  8
0
 66
1
 10
0.0000
 20
0.0000
 30
0.0000
 40
0.0000
 41
0.0000
 70
1
  0
VERTEX
  8
0
 10
-0.5000
 20
-0.5000
 30
0.0000
  0
VERTEX
  8
0
 10
0.5000
 20
-0.5000
 30
0.0000
 42
1.0000
  0
VERTEX
  8
0
 10
0.5000
 20
0.5000
 30
0.0000
  0
VERTEX
  8
0
 10
-0.5000
 20
0.5000
 30
0.0000
 42
1.0000
  0
SEQEND
  8
0
  0
ENDBLK
  8
0
  0
ENDSEC
  0
SECTION
  2
ENTITIES
  0
LINE
  8
20
 10
0.0000
 20
0.0000
 30
0.0000
 11
96.0000
 21
0.0000
 31
0.0000
  0
LINE
  8
20
 10
96.0000
 20
55.0000
 30
0.0000
 11
0.0000
 21
55.0000
 31
0.0000
  0
LINE
  8
20
 10
0.0000
 20
55.0000
 30
0.0000
 11
0.0000
 21
0.0000
 31
0.0000
  0
LINE
  8
20
 10
96.0000
 20
0.0000
 30
0.0000
 11
96.0000
 21
55.0000
 31
0.0000
  0
POLYLINE
  8
1
 66
1
 10
0.0000
 20
0.0000
 30
0.0000
 40
0.0000
 41
0.0000
 70
1
  0
VERTEX
  8
1
 10
92.6001
 20
2.8285
 30
0.0000
  0
VERTEX
  8
1
 10
92.6001
 20
2.2523
 30
0.0000
 42
1.0000
  0
VERTEX
  8
1
 10
92.7525
 20
2.2523
 30
0.0000
  0
VERTEX
  8
1
 10
92.7525
 20
2.8285
 30
0.0000
 42
1.0000
  0
SEQEND
  8
0
  0
POLYLINE
  8
1
 66
1
 10
0.0000
 20
0.0000
 30
0.0000
 40
0.0000
 41
0.0000
 70
1
  0
VERTEX
  8
1
 10
92.6224
 20
2.1984
 30
0.0000
  0
VERTEX
  8
1
 10
92.7664
 20
2.0543
 30
0.0000
 42
1.0000
  0
VERTEX
  8
1
 10
92.8742
 20
2.1621
 30
0.0000
  0
VERTEX
  8
1
 10
92.7301
 20
2.3061
 30
0.0000
 42
1.0000
  0
SEQEND
  8
0
  0
POLYLINE
  8
1
 66
1
 10
0.0000
 20
0.0000
 30
0.0000
 40
0.0000
 41
0.0000
 70
1
  0
VERTEX
  8
1
 10
92.5322
 20
2.6082
 30
0.0000
  0
VERTEX
  8
1
 10
92.8203
 20
2.6082
 30
0.0000
 42
1.0000
  0
VERTEX
  8
1
 10
92.8203
 20
2.7606
 30
0.0000
  0
VERTEX
  8
1
 10
92.5322
 20
2.7606
 30
0.0000
 42
1.0000
  0
SEQEND
  8
0
  0
POLYLINE
  8
1
 66
1
 10
0.0000
 20
0.0000
 30
0.0000
 40
0.0000
 41
0.0000
 70
1
  0
VERTEX
  8
1
 10
93.2999
 20
2.0320
 30
0.0000
  0
VERTEX
  8
1
 10
93.5880
 20
2.0320
 30
0.0000
 42
1.0000
  0
VERTEX
  8
1
 10
93.5880
 20
2.1844
 30
0.0000
  0
VERTEX
  8
1
 10
93.2999
 20
2.1844
 30
0.0000
 42
1.0000
  0
SEQEND
  8
0
  0
POLYLINE
  8
1
 66
1
 10
0.0000
 20
0.0000
 30
0.0000
 40
0.0000
 41
0.0000
 70
1
  0
VERTEX
  8
1
 10
93.6419
 20
2.0543
 30
0.0000
  0
VERTEX
  8
1
 10
93.7860
 20
2.1984
 30
0.0000
 42
1.0000
  0
VERTEX
  8
1
 10
93.6782
 20
2.3061
 30
0.0000
  0
VERTEX
  8
1
 10
93.5342
 20
2.1621
 30
0.0000
 42
1.0000
  0
SEQEND
  8
0
  0
POLYLINE
  8
1
 66
1
 10
0.0000
 20
0.0000
 30
0.0000
 40
0.0000
 41
0.0000
 70
1
  0
VERTEX
  8
1
 10
93.8083
 20
2.2523
 30
0.0000
  0
VERTEX
  8
1
 10
93.8083
 20
2.5404
 30
0.0000
 42
1.0000
  0
VERTEX
  8
1
 10
93.6559
 20
2.5404
 30
0.0000
  0
VERTEX
  8
1
 10
93.6559
 20
2.2523
 30
0.0000
 42
1.0000
  0
SEQEND
  8
0
  0
POLYLINE
  8
1
 66
1
 10
0.0000
 20
0.0000
 30
0.0000
 40
0.0000
 41
0.0000
 70
1
  0
VERTEX
  8
1
 10
93.7860
 20
2.5943
 30
0.0000
  0
VERTEX
  8
1
 10
93.6419
 20
2.7383
 30
0.0000
 42
1.0000
  0
VERTEX
  8
1
 10
93.5342
 20
2.6305
 30
0.0000
  0
VERTEX
  8
1
 10
93.6782
 20
2.4865
 30
0.0000
 42
1.0000
  0
SEQEND
  8
0
  0
POLYLINE
  8
1
 66
1
 10
0.0000
 20
0.0000
 30
0.0000
 40
0.0000
 41
0.0000
 70
1
  0
VERTEX
  8
1
 10
93.5880
 20
2.7606
 30
0.0000
  0
VERTEX
  8
1
 10
93.2999
 20
2.7606
 30
0.0000
 42
1.0000
  0
VERTEX
  8
1
 10
93.2999
 20
2.6082
 30
0.0000
  0
VERTEX
  8
1
 10
93.5880
 20
2.6082
 30
0.0000
 42
1.0000
  0
SEQEND
  8
0
  0
POLYLINE
  8
1
 66
1
 10
0.0000
 20
0.0000
 30
0.0000
 40
0.0000
 41
0.0000
 70
1
  0
VERTEX
  8
1
 10
93.2461
 20
2.7383
 30
0.0000
  0
VERTEX
  8
1
 10
93.1020
 20
2.5943
 30
0.0000
 42
1.0000
  0
VERTEX
  8
1
 10
93.2098
 20
2.4865
 30
0.0000
  0
VERTEX
  8
1
 10
93.3538
 20
2.6305
 30
0.0000
 42
1.0000
  0
SEQEND
  8
0
  0
POLYLINE
  8
1
 66
1
 10
0.0000
 20
0.0000
 30
0.0000
 40
0.0000
 41
0.0000
 70
1
  0
VERTEX
  8
1
 10
93.0797
 20
2.5404
 30
0.0000
  0
VERTEX
  8
1
 10
93.0797
 20
2.2523
 30
0.0000
 42
1.0000
  0
VERTEX
  8
1
 10
93.2321
 20
2.2523
 30
0.0000
  0
VERTEX
  8
1
 10
93.2321
 20
2.5404
 30
0.0000
 42
1.0000
  0
SEQEND
  8
0
  0
POLYLINE
  8
1
 66
1
 10
0.0000
 20
0.0000
 30
0.0000
 40
0.0000
 41
0.0000
 70
1
  0
VERTEX
  8
1
 10
93.1020
 20
2.1984
 30
0.0000
  0
VERTEX
  8
1
 10
93.2461
 20
2.0543
 30
0.0000
 42
1.0000
  0
VERTEX
  8
1
 10
93.3538
 20
2.1621
 30
0.0000
  0
VERTEX
  8
1
 10
93.2098
 20
2.3061
 30
0.0000
 42
1.0000
  0
SEQEND
  8
0
  0
POLYLINE
  8
1
 66
1
 10
0.0000
 20
0.0000
 30
0.0000
 40
0.0000
 41
0.0000
 70
1
  0
VERTEX
  8
1
 10
94.1676
 20
1.8201
 30
0.0000
  0
VERTEX
  8
1
 10
94.1676
 20
2.6844
 30
0.0000
 42
1.0000
  0
VERTEX
  8
1
 10
94.0152
 20
2.6844
 30
0.0000
  0
VERTEX
  8
1
 10
94.0152
 20
1.8201
 30
0.0000
 42
1.0000
  0
SEQEND
  8
0
  0
POLYLINE
  8
1
 66
1
 10
0.0000
 20
0.0000
 30
0.0000
 40
0.0000
 41
0.0000
 70
1
  0
VERTEX
  8
1
 10
94.0914
 20
2.6082
 30
0.0000
  0
VERTEX
  8
1
 10
94.5236
 20
2.6082
 30
0.0000
 42
1.0000
  0
VERTEX
  8
1
 10
94.5236
 20
2.7606
 30
0.0000
  0
VERTEX
  8
1
 10
94.0914
 20
2.7606
 30
0.0000
 42
1.0000
  0
SEQEND
  8
0
  0
POLYLINE
  8
1
 66
1
 10
0.0000
 20
0.0000
 30
0.0000
 40
0.0000
 41
0.0000
 70
1
  0
VERTEX
  8
1
 10
94.4697
 20
2.6305
 30
0.0000
  0
VERTEX
  8
1
 10
94.6137
 20
2.4865
 30
0.0000
 42
1.0000
  0
VERTEX
  8
1
 10
94.7215
 20
2.5943
 30
0.0000
  0
VERTEX
  8
1
 10
94.5774
 20
2.7383
 30
0.0000
 42
1.0000
  0
SEQEND
  8
0
  0
POLYLINE
  8
1
 66
1
 10
0.0000
 20
0.0000
 30
0.0000
 40
0.0000
 41
0.0000
 70
1
  0
VERTEX
  8
1
 10
94.5914
 20
2.5404
 30
0.0000
  0
VERTEX
  8
1
 10
94.5914
 20
2.2523
 30
0.0000
 42
1.0000
  0
VERTEX
  8
1
 10
94.7438
 20
2.2523
 30
0.0000
  0
VERTEX
  8
1
 10
94.7438
 20
2.5404
 30
0.0000
 42
1.0000
  0
SEQEND
  8
0
  0
POLYLINE
  8
1
 66
1
 10
0.0000
 20
0.0000
 30
0.0000
 40
0.0000
 41
0.0000
 70
1
  0
VERTEX
  8
1
 10
94.6137
 20
2.3061
 30
0.0000
  0
VERTEX
  8
1
 10
94.4697
 20
2.1621
 30
0.0000
 42
1.0000
  0
VERTEX
  8
1
 10
94.5774
 20
2.0543
 30
0.0000
  0
VERTEX
  8
1
 10
94.7215
 20
2.1984
 30
0.0000
 42
1.0000
  0
SEQEND
  8
0
  0
POLYLINE
  8
1
 66
1
 10
0.0000
 20
0.0000
 30
0.0000
 40
0.0000
 41
0.0000
 70
1
  0
VERTEX
  8
1
 10
94.5236
 20
2.1844
 30
0.0000
  0
VERTEX
  8
1
 10
94.0914
 20
2.1844
 30
0.0000
 42
1.0000
  0
VERTEX
  8
1
 10
94.0914
 20
2.0320
 30
0.0000
  0
VERTEX
  8
1
 10
94.5236
 20
2.0320
 30
0.0000
 42
1.0000
  0
SEQEND
  8
0
  0
POLYLINE
  8
1
 66
1
 10
0.0000
 20
0.0000
 30
0.0000
 40
0.0000
 41
0.0000
 70
1
  0
VERTEX
  8
1
 10
65.1256
 20
3.6703
 30
0.0000
  0
VERTEX
  8
1
 10
65.1256
 20
5.0939
 30
0.0000
 42
1.0000
  0
VERTEX
  8
1
 10
64.7700
 20
5.0939
 30
0.0000
  0
VERTEX
  8
1
 10
64.7700
 20
3.6703
 30
0.0000
 42
1.0000
  0
SEQEND
  8
0
  0
POLYLINE
  8
1
 66
1
 10
0.0000
 20
0.0000
 30
0.0000
 40
0.0000
 41
0.0000
 70
1
  0
VERTEX
  8
1
 10
64.9478
 20
4.9161
 30
0.0000
  0
VERTEX
  8
1
 10
65.6596
 20
4.9161
 30
0.0000
 42
1.0000
  0
VERTEX
  8
1
 10
65.6596
 20
5.2717
 30
0.0000
  0
VERTEX
  8
1
 10
64.9478
 20
5.2717
 30
0.0000
 42
1.0000
  0
SEQEND
  8
0
  0
POLYLINE
  8
1
 66
1
 10
0.0000
 20
0.0000
 30
0.0000
 40
0.0000
 41
0.0000
 70
1
  0
VERTEX
  8
1
 10
65.5339
 20
4.9682
 30
0.0000
  0
VERTEX
  8
1
 10
65.7712
 20
4.7309
 30
0.0000
 42
1.0000
  0
VERTEX
  8
1
 10
66.0226
 20
4.9824
 30
0.0000
  0
VERTEX
  8
1
 10
65.7853
 20
5.2196
 30
0.0000
 42
1.0000
  0
SEQEND
  8
0
  0
POLYLINE
  8
1
 66
1
 10
0.0000
 20
0.0000
 30
0.0000
 40
0.0000
 41
0.0000
 70
1
  0
VERTEX
  8
1
 10
65.7191
 20
4.8566
 30
0.0000
  0
VERTEX
  8
1
 10
65.7191
 20
4.6194
 30
0.0000
 42
1.0000
  0
VERTEX
  8
1
 10
66.0747
 20
4.6194
 30
0.0000
  0
VERTEX
  8
1
 10
66.0747
 20
4.8566
 30
0.0000
 42
1.0000
  0
SEQEND
  8
0
  0
POLYLINE
  8
1
 66
1
 10
0.0000
 20
0.0000
 30
0.0000
 40
0.0000
 41
0.0000
 70
1
  0
VERTEX
  8
1
 10
65.7712
 20
4.7451
 30
0.0000
  0
VERTEX
  8
1
 10
65.5339
 20
4.5078
 30
0.0000
 42
1.0000
  0
VERTEX
  8
1
 10
65.7853
 20
4.2564
 30
0.0000
  0
VERTEX
  8
1
 10
66.0226
 20
4.4937
 30
0.0000
 42
1.0000
  0
SEQEND
  8
0
  0
POLYLINE
  8
1
 66
1
 10
0.0000
 20
0.0000
 30
0.0000
 40
0.0000
 41
0.0000
 70
1
  0
VERTEX
  8
1
 10
65.5339
 20
4.2564
 30
0.0000
  0
VERTEX
  8
1
 10
65.7712
 20
4.0191
 30
0.0000
 42
1.0000
  0
VERTEX
  8
1
 10
66.0226
 20
4.2706
 30
0.0000
  0
VERTEX
  8
1
 10
65.7853
 20
4.5078
 30
0.0000
 42
1.0000
  0
SEQEND
  8
0
  0
POLYLINE
  8
1
 66
1
 10
0.0000
 20
0.0000
 30
0.0000
 40
0.0000
 41
0.0000
 70
1
  0
VERTEX
  8
1
 10
65.7191
 20
4.1448
 30
0.0000
  0
VERTEX
  8
1
 10
65.7191
 20
3.9076
 30
0.0000
 42
1.0000
  0
VERTEX
  8
1
 10
66.0747
 20
3.9076
 30
0.0000
  0
VERTEX
  8
1
 10
66.0747
 20
4.1448
 30
0.0000
 42
1.0000
  0
SEQEND
  8
0
  0
POLYLINE
  8
1
 66
1
 10
0.0000
 20
0.0000
 30
0.0000
 40
0.0000
 41
0.0000
 70
1
  0
VERTEX
  8
1
 10
65.7712
 20
4.0333
 30
0.0000
  0
VERTEX
  8
1
 10
65.5339
 20
3.7960
 30
0.0000
 42
1.0000
  0
VERTEX
  8
1
 10
65.7853
 20
3.5446
 30
0.0000
  0
VERTEX
  8
1
 10
66.0226
 20
3.7818
 30
0.0000
 42
1.0000
  0
SEQEND
  8
0
  0
POLYLINE
  8
1
 66
1
 10
0.0000
 20
0.0000
 30
0.0000
 40
0.0000
 41
0.0000
 70
1
  0
VERTEX
  8
1
 10
65.6596
 20
3.8481
 30
0.0000
  0
VERTEX
  8
1
 10
64.9478
 20
3.8481
 30
0.0000
 42
1.0000
  0
VERTEX
  8
1
 10
64.9478
 20
3.4925
 30
0.0000
  0
VERTEX
  8
1
 10
65.6596
 20
3.4925
 30
0.0000
 42
1.0000
  0
SEQEND
  8
0
  0
POLYLINE
  8
1
 66
1
 10
0.0000
 20
0.0000
 30
0.0000
 40
0.0000
 41
0.0000
 70
1
  0
VERTEX
  8
1
 10
64.9478
 20
4.2043
 30
0.0000
  0
VERTEX
  8
1
 10
65.6596
 20
4.2043
 30
0.0000
 42
1.0000
  0
VERTEX
  8
1
 10
65.6596
 20
4.5599
 30
0.0000
  0
VERTEX
  8
1
 10
64.9478
 20
4.5599
 30
0.0000
 42
1.0000
  0
SEQEND
  8
0
  0
POLYLINE
  8
1
 66
1
 10
0.0000
 20
0.0000
 30
0.0000
 40
0.0000
 41
0.0000
 70
1
  0
VERTEX
  8
1
 10
66.7628
 20
3.6703
 30
0.0000
  0
VERTEX
  8
1
 10
66.7628
 20
4.6194
 30
0.0000
 42
1.0000
  0
VERTEX
  8
1
 10
66.4072
 20
4.6194
 30
0.0000
  0
VERTEX
  8
1
 10
66.4072
 20
3.6703
 30
0.0000
 42
1.0000
  0
SEQEND
  8
0
  0
POLYLINE
  8
1
 66
1
 10
0.0000
 20
0.0000
 30
0.0000
 40
0.0000
 41
0.0000
 70
1
  0
VERTEX
  8
1
 10
66.7107
 20
4.0191
 30
0.0000
  0
VERTEX
  8
1
 10
67.1852
 20
4.4937
 30
0.0000
 42
1.0000
  0
VERTEX
  8
1
 10
66.9338
 20
4.7451
 30
0.0000
  0
VERTEX
  8
1
 10
66.4592
 20
4.2706
 30
0.0000
 42
1.0000
  0
SEQEND
  8
0
  0
POLYLINE
  8
1
 66
1
 10
0.0000
 20
0.0000
 30
0.0000
 40
0.0000
 41
0.0000
 70
1
  0
VERTEX
  8
1
 10
67.0595
 20
4.4416
 30
0.0000
  0
VERTEX
  8
1
 10
67.2968
 20
4.4416
 30
0.0000
 42
1.0000
  0
VERTEX
  8
1
 10
67.2968
 20
4.7972
 30
0.0000
  0
VERTEX
  8
1
 10
67.0595
 20
4.7972
 30
0.0000
 42
1.0000
  0
SEQEND
  8
0
  0
POLYLINE
  8
1
 66
1
 10
0.0000
 20
0.0000
 30
0.0000
 40
0.0000
 41
0.0000
 70
1
  0
VERTEX
  8
1
 10
68.1865
 20
3.4925
 30
0.0000
  0
VERTEX
  8
1
 10
68.6611
 20
3.4925
 30
0.0000
 42
1.0000
  0
VERTEX
  8
1
 10
68.6611
 20
3.8481
 30
0.0000
  0
VERTEX
  8
1
 10
68.1865
 20
3.8481
 30
0.0000
 42
1.0000
  0
SEQEND
  8
0
  0
POLYLINE
  8
1
 66
1
 10
0.0000
 20
0.0000
 30
0.0000
 40
0.0000
 41
0.0000
 70
1
  0
VERTEX
  8
1
 10
68.7868
 20
3.5446
 30
0.0000
  0
VERTEX
  8
1
 10
69.0241
 20
3.7818
 30
0.0000
 42
1.0000
  0
VERTEX
  8
1
 10
68.7726
 20
4.0333
 30
0.0000
  0
VERTEX
  8
1
 10
68.5353
 20
3.7960
 30
0.0000
 42
1.0000
  0
SEQEND
  8
0
  0
POLYLINE
  8
1
 66
1
 10
0.0000
 20
0.0000
 30
0.0000
 40
0.0000
 41
0.0000
 70
1
  0
VERTEX
  8
1
 10
69.0761
 20
3.9076
 30
0.0000
  0
VERTEX
  8
1
 10
69.0761
 20
4.3821
 30
0.0000
 42
1.0000
  0
VERTEX
  8
1
 10
68.7205
 20
4.3821
 30
0.0000
  0
VERTEX
  8
1
 10
68.7205
 20
3.9076
 30
0.0000
 42
1.0000
  0
SEQEND
  8
0
  0
POLYLINE
  8
1
 66
1
 10
0.0000
 20
0.0000
 30
0.0000
 40
0.0000
 41
0.0000
 70
1
  0
VERTEX
  8
1
 10
69.0241
 20
4.5078
 30
0.0000
  0
VERTEX
  8
1
 10
68.7868
 20
4.7451
 30
0.0000
 42
1.0000
  0
VERTEX
  8
1
 10
68.5353
 20
4.4937
 30
0.0000
  0
VERTEX
  8
1
 10
68.7726
 20
4.2564
 30
0.0000
 42
1.0000
  0
SEQEND
  8
0
  0
POLYLINE
  8
1
 66
1
 10
0.0000
 20
0.0000
 30
0.0000
 40
0.0000
 41
0.0000
 70
1
  0
VERTEX
  8
1
 10
68.6611
 20
4.7972
 30
0.0000
  0
VERTEX
  8
1
 10
68.1865
 20
4.7972
 30
0.0000
 42
1.0000
  0
VERTEX
  8
1
 10
68.1865
 20
4.4416
 30
0.0000
  0
VERTEX
  8
1
 10
68.6611
 20
4.4416
 30
0.0000
 42
1.0000
  0
SEQEND
  8
0
  0
POLYLINE
  8
1
 66
1
 10
0.0000
 20
0.0000
 30
0.0000
 40
0.0000
 41
0.0000
 70
1
  0
VERTEX
  8
1
 10
68.0608
 20
4.7451
 30
0.0000
  0
VERTEX
  8
1
 10
67.8235
 20
4.5078
 30
0.0000
 42
1.0000
  0
VERTEX
  8
1
 10
68.0750
 20
4.2564
 30
0.0000
  0
VERTEX
  8
1
 10
68.3122
 20
4.4937
 30
0.0000
 42
1.0000
  0
SEQEND
  8
0
  0
POLYLINE
  8
1
 66
1
 10
0.0000
 20
0.0000
 30
0.0000
 40
0.0000
 41
0.0000
 70
1
  0
VERTEX
  8
1
 10
67.7715
 20
4.3821
 30
0.0000
  0
VERTEX
  8
1
 10
67.7715
 20
3.9076
 30
0.0000
 42
1.0000
  0
VERTEX
  8
1
 10
68.1271
 20
3.9076
 30
0.0000
  0
VERTEX
  8
1
 10
68.1271
 20
4.3821
 30
0.0000
 42
1.0000
  0
SEQEND
  8
0
  0
POLYLINE
  8
1
 66
1
 10
0.0000
 20
0.0000
 30
0.0000
 40
0.0000
 41
0.0000
 70
1
  0
VERTEX
  8
1
 10
67.8235
 20
3.7818
 30
0.0000
  0
VERTEX
  8
1
 10
68.0608
 20
3.5446
 30
0.0000
 42
1.0000
  0
VERTEX
  8
1
 10
68.3122
 20
3.7960
 30
0.0000
  0
VERTEX
  8
1
 10
68.0750
 20
4.0333
 30
0.0000
 42
1.0000
  0
SEQEND
  8
0
  0
POLYLINE
  8
1
 66
1
 10
0.0000
 20
0.0000
 30
0.0000
 40
0.0000
 41
0.0000
 70
1
  0
VERTEX
  8
1
 10
69.6459
 20
4.8566
 30
0.0000
  0
VERTEX
  8
1
 10
69.6459
 20
3.9076
 30
0.0000
 42
1.0000
  0
VERTEX
  8
1
 10
70.0015
 20
3.9076
 30
0.0000
  0
VERTEX
  8
1
 10
70.0015
 20
4.8566
 30
0.0000
 42
1.0000
  0
SEQEND
  8
0
  0
POLYLINE
  8
1
 66
1
 10
0.0000
 20
0.0000
 30
0.0000
 40
0.0000
 41
0.0000
 70
1
  0
VERTEX
  8
1
 10
69.6980
 20
3.7818
 30
0.0000
  0
VERTEX
  8
1
 10
69.9352
 20
3.5446
 30
0.0000
 42
1.0000
  0
VERTEX
  8
1
 10
70.1867
 20
3.7960
 30
0.0000
  0
VERTEX
  8
1
 10
69.9494
 20
4.0333
 30
0.0000
 42
1.0000
  0
SEQEND
  8
0
  0
POLYLINE
  8
1
 66
1
 10
0.0000
 20
0.0000
 30
0.0000
 40
0.0000
 41
0.0000
 70
1
  0
VERTEX
  8
1
 10
69.5864
 20
4.4416
 30
0.0000
  0
VERTEX
  8
1
 10
70.0609
 20
4.4416
 30
0.0000
 42
1.0000
  0
VERTEX
  8
1
 10
70.0609
 20
4.7972
 30
0.0000
  0
VERTEX
  8
1
 10
69.5864
 20
4.7972
 30
0.0000
 42
1.0000
  0
SEQEND
  8
0
  0
POLYLINE
  8
1
 66
1
 10
0.0000
 20
0.0000
 30
0.0000
 40
0.0000
 41
0.0000
 70
1
  0
VERTEX
  8
1
 10
70.5000
 20
5.0939
 30
0.0000
  0
VERTEX
  8
1
 10
70.5000
 20
3.6703
 30
0.0000
 42
1.0000
  0
VERTEX
  8
1
 10
70.8556
 20
3.6703
 30
0.0000
  0
VERTEX
  8
1
 10
70.8556
 20
5.0939
 30
0.0000
 42
1.0000
  0
SEQEND
  8
0
  0
POLYLINE
  8
1
 66
1
 10
0.0000
 20
0.0000
 30
0.0000
 40
0.0000
 41
0.0000
 70
1
  0
VERTEX
  8
1
 10
70.6778
 20
3.4925
 30
0.0000
  0
VERTEX
  8
1
 10
71.3897
 20
3.4925
 30
0.0000
 42
1.0000
  0
VERTEX
  8
1
 10
71.3897
 20
3.8481
 30
0.0000
  0
VERTEX
  8
1
 10
70.6778
 20
3.8481
 30
0.0000
 42
1.0000
  0
SEQEND
  8
0
  0
POLYLINE
  8
1
 66
1
 10
0.0000
 20
0.0000
 30
0.0000
 40
0.0000
 41
0.0000
 70
1
  0
VERTEX
  8
1
 10
71.5154
 20
3.5446
 30
0.0000
  0
VERTEX
  8
1
 10
71.7526
 20
3.7818
 30
0.0000
 42
1.0000
  0
VERTEX
  8
1
 10
71.5012
 20
4.0333
 30
0.0000
  0
VERTEX
  8
1
 10
71.2639
 20
3.7960
 30
0.0000
 42
1.0000
  0
SEQEND
  8
0
  0
POLYLINE
  8
1
 66
1
 10
0.0000
 20
0.0000
 30
0.0000
 40
0.0000
 41
0.0000
 70
1
  0
VERTEX
  8
1
 10
71.8047
 20
3.9076
 30
0.0000
  0
VERTEX
  8
1
 10
71.8047
 20
4.3821
 30
0.0000
 42
1.0000
  0
VERTEX
  8
1
 10
71.4491
 20
4.3821
 30
0.0000
  0
VERTEX
  8
1
 10
71.4491
 20
3.9076
 30
0.0000
 42
1.0000
  0
SEQEND
  8
0
  0
POLYLINE
  8
1
 66
1
 10
0.0000
 20
0.0000
 30
0.0000
 40
0.0000
 41
0.0000
 70
1
  0
VERTEX
  8
1
 10
71.7526
 20
4.5078
 30
0.0000
  0
VERTEX
  8
1
 10
71.5154
 20
4.7451
 30
0.0000
 42
1.0000
  0
VERTEX
  8
1
 10
71.2639
 20
4.4937
 30
0.0000
  0
VERTEX
  8
1
 10
71.5012
 20
4.2564
 30
0.0000
 42
1.0000
  0
SEQEND
  8
0
  0
POLYLINE
  8
1
 66
1
 10
0.0000
 20
0.0000
 30
0.0000
 40
0.0000
 41
0.0000
 70
1
  0
VERTEX
  8
1
 10
71.3897
 20
4.7972
 30
0.0000
  0
VERTEX
  8
1
 10
70.6778
 20
4.7972
 30
0.0000
 42
1.0000
  0
VERTEX
  8
1
 10
70.6778
 20
4.4416
 30
0.0000
  0
VERTEX
  8
1
 10
71.3897
 20
4.4416
 30
0.0000
 42
1.0000
  0
SEQEND
  8
0
  0
POLYLINE
  8
1
 66
1
 10
0.0000
 20
0.0000
 30
0.0000
 40
0.0000
 41
0.0000
 70
1
  0
VERTEX
  8
1
 10
72.5523
 20
3.4925
 30
0.0000
  0
VERTEX
  8
1
 10
73.0268
 20
3.4925
 30
0.0000
 42
1.0000
  0
VERTEX
  8
1
 10
73.0268
 20
3.8481
 30
0.0000
  0
VERTEX
  8
1
 10
72.5523
 20
3.8481
 30
0.0000
 42
1.0000
  0
SEQEND
  8
0
  0
POLYLINE
  8
1
 66
1
 10
0.0000
 20
0.0000
 30
0.0000
 40
0.0000
 41
0.0000
 70
1
  0
VERTEX
  8
1
 10
73.1525
 20
3.5446
 30
0.0000
  0
VERTEX
  8
1
 10
73.3898
 20
3.7818
 30
0.0000
 42
1.0000
  0
VERTEX
  8
1
 10
73.1384
 20
4.0333
 30
0.0000
  0
VERTEX
  8
1
 10
72.9011
 20
3.7960
 30
0.0000
 42
1.0000
  0
SEQEND
  8
0
  0
POLYLINE
  8
1
 66
1
 10
0.0000
 20
0.0000
 30
0.0000
 40
0.0000
 41
0.0000
 70
1
  0
VERTEX
  8
1
 10
73.4419
 20
3.9076
 30
0.0000
  0
VERTEX
  8
1
 10
73.4419
 20
4.3821
 30
0.0000
 42
1.0000
  0
VERTEX
  8
1
 10
73.0863
 20
4.3821
 30
0.0000
  0
VERTEX
  8
1
 10
73.0863
 20
3.9076
 30
0.0000
 42
1.0000
  0
SEQEND
  8
0
  0
POLYLINE
  8
1
 66
1
 10
0.0000
 20
0.0000
 30
0.0000
 40
0.0000
 41
0.0000
 70
1
  0
VERTEX
  8
1
 10
73.3898
 20
4.5078
 30
0.0000
  0
VERTEX
  8
1
 10
73.1525
 20
4.7451
 30
0.0000
 42
1.0000
  0
VERTEX
  8
1
 10
72.9011
 20
4.4937
 30
0.0000
  0
VERTEX
  8
1
 10
73.1384
 20
4.2564
 30
0.0000
 42
1.0000
  0
SEQEND
  8
0
  0
POLYLINE
  8
1
 66
1
 10
0.0000
 20
0.0000
 30
0.0000
 40
0.0000
 41
0.0000
 70
1
  0
VERTEX
  8
1
 10
73.0268
 20
4.7972
 30
0.0000
  0
VERTEX
  8
1
 10
72.5523
 20
4.7972
 30
0.0000
 42
1.0000
  0
VERTEX
  8
1
 10
72.5523
 20
4.4416
 30
0.0000
  0
VERTEX
  8
1
 10
73.0268
 20
4.4416
 30
0.0000
 42
1.0000
  0
SEQEND
  8
0
  0
POLYLINE
  8
1
 66
1
 10
0.0000
 20
0.0000
 30
0.0000
 40
0.0000
 41
0.0000
 70
1
  0
VERTEX
  8
1
 10
72.4265
 20
4.7451
 30
0.0000
  0
VERTEX
  8
1
 10
72.1893
 20
4.5078
 30
0.0000
 42
1.0000
  0
VERTEX
  8
1
 10
72.4407
 20
4.2564
 30
0.0000
  0
VERTEX
  8
1
 10
72.6780
 20
4.4937
 30
0.0000
 42
1.0000
  0
SEQEND
  8
0
  0
POLYLINE
  8
1
 66
1
 10
0.0000
 20
0.0000
 30
0.0000
 40
0.0000
 41
0.0000
 70
1
  0
VERTEX
  8
1
 10
72.1372
 20
4.3821
 30
0.0000
  0
VERTEX
  8
1
 10
72.1372
 20
3.9076
 30
0.0000
 42
1.0000
  0
VERTEX
  8
1
 10
72.4928
 20
3.9076
 30
0.0000
  0
VERTEX
  8
1
 10
72.4928
 20
4.3821
 30
0.0000
 42
1.0000
  0
SEQEND
  8
0
  0
POLYLINE
  8
1
 66
1
 10
0.0000
 20
0.0000
 30
0.0000
 40
0.0000
 41
0.0000
 70
1
  0
VERTEX
  8
1
 10
72.1893
 20
3.7818
 30
0.0000
  0
VERTEX
  8
1
 10
72.4265
 20
3.5446
 30
0.0000
 42
1.0000
  0
VERTEX
  8
1
 10
72.6780
 20
3.7960
 30
0.0000
  0
VERTEX
  8
1
 10
72.4407
 20
4.0333
 30
0.0000
 42
1.0000
  0
SEQEND
  8
0
  0
POLYLINE
  8
1
 66
1
 10
0.0000
 20
0.0000
 30
0.0000
 40
0.0000
 41
0.0000
 70
1
  0
VERTEX
  8
1
 10
73.8264
 20
4.4937
 30
0.0000
  0
VERTEX
  8
1
 10
74.7755
 20
3.5446
 30
0.0000
 42
1.0000
  0
VERTEX
  8
1
 10
75.0270
 20
3.7960
 30
0.0000
  0
VERTEX
  8
1
 10
74.0779
 20
4.7451
 30
0.0000
 42
1.0000
  0
SEQEND
  8
0
  0
POLYLINE
  8
1
 66
1
 10
0.0000
 20
0.0000
 30
0.0000
 40
0.0000
 41
0.0000
 70
1
  0
VERTEX
  8
1
 10
74.0779
 20
3.5446
 30
0.0000
  0
VERTEX
  8
1
 10
75.0270
 20
4.4937
 30
0.0000
 42
1.0000
  0
VERTEX
  8
1
 10
74.7755
 20
4.7451
 30
0.0000
  0
VERTEX
  8
1
 10
73.8264
 20
3.7960
 30
0.0000
 42
1.0000
  0
SEQEND
  8
0
  0
POLYLINE
  8
1
 66
1
 10
0.0000
 20
0.0000
 30
0.0000
 40
0.0000
 41
0.0000
 70
1
  0
VERTEX
  8
1
 10
77.0487
 20
5.0939
 30
0.0000
  0
VERTEX
  8
1
 10
77.0487
 20
4.1448
 30
0.0000
 42
1.0000
  0
VERTEX
  8
1
 10
77.4043
 20
4.1448
 30
0.0000
  0
VERTEX
  8
1
 10
77.4043
 20
5.0939
 30
0.0000
 42
1.0000
  0
SEQEND
  8
0
  0
POLYLINE
  8
1
 66
1
 10
0.0000
 20
0.0000
 30
0.0000
 40
0.0000
 41
0.0000
 70
1
  0
VERTEX
  8
1
 10
77.1007
 20
4.0191
 30
0.0000
  0
VERTEX
  8
1
 10
77.5753
 20
3.5446
 30
0.0000
 42
1.0000
  0
VERTEX
  8
1
 10
77.8267
 20
3.7960
 30
0.0000
  0
VERTEX
  8
1
 10
77.3522
 20
4.2706
 30
0.0000
 42
1.0000
  0
SEQEND
  8
0
  0
POLYLINE
  8
1
 66
1
 10
0.0000
 20
0.0000
 30
0.0000
 40
0.0000
 41
0.0000
 70
1
  0
VERTEX
  8
1
 10
77.8267
 20
3.5446
 30
0.0000
  0
VERTEX
  8
1
 10
78.3013
 20
4.0191
 30
0.0000
 42
1.0000
  0
VERTEX
  8
1
 10
78.0498
 20
4.2706
 30
0.0000
  0
VERTEX
  8
1
 10
77.5753
 20
3.7960
 30
0.0000
 42
1.0000
  0
SEQEND
  8
0
  0
POLYLINE
  8
1
 66
1
 10
0.0000
 20
0.0000
 30
0.0000
 40
0.0000
 41
0.0000
 70
1
  0
VERTEX
  8
1
 10
78.3533
 20
4.1448
 30
0.0000
  0
VERTEX
  8
1
 10
78.3533
 20
5.0939
 30
0.0000
 42
1.0000
  0
VERTEX
  8
1
 10
77.9977
 20
5.0939
 30
0.0000
  0
VERTEX
  8
1
 10
77.9977
 20
4.1448
 30
0.0000
 42
1.0000
  0
SEQEND
  8
0
  0
POLYLINE
  8
1
 66
1
 10
0.0000
 20
0.0000
 30
0.0000
 40
0.0000
 41
0.0000
 70
1
  0
VERTEX
  8
1
 10
79.8127
 20
3.8481
 30
0.0000
  0
VERTEX
  8
1
 10
78.8636
 20
3.8481
 30
0.0000
 42
1.0000
  0
VERTEX
  8
1
 10
78.8636
 20
3.4925
 30
0.0000
  0
VERTEX
  8
1
 10
79.8127
 20
3.4925
 30
0.0000
 42
1.0000
  0
SEQEND
  8
0
  0
POLYLINE
  8
1
 66
1
 10
0.0000
 20
0.0000
 30
0.0000
 40
0.0000
 41
0.0000
 70
1
  0
VERTEX
  8
1
 10
78.9894
 20
3.5446
 30
0.0000
  0
VERTEX
  8
1
 10
79.9384
 20
4.4937
 30
0.0000
 42
1.0000
  0
VERTEX
  8
1
 10
79.6870
 20
4.7451
 30
0.0000
  0
VERTEX
  8
1
 10
78.7379
 20
3.7960
 30
0.0000
 42
1.0000
  0
SEQEND
  8
0
  0
POLYLINE
  8
1
 66
1
 10
0.0000
 20
0.0000
 30
0.0000
 40
0.0000
 41
0.0000
 70
1
  0
VERTEX
  8
1
 10
79.9905
 20
4.6194
 30
0.0000
  0
VERTEX
  8
1
 10
79.9905
 20
4.8566
 30
0.0000
 42
1.0000
  0
VERTEX
  8
1
 10
79.6349
 20
4.8566
 30
0.0000
  0
VERTEX
  8
1
 10
79.6349
 20
4.6194
 30
0.0000
 42
1.0000
  0
SEQEND
  8
0
  0
POLYLINE
  8
1
 66
1
 10
0.0000
 20
0.0000
 30
0.0000
 40
0.0000
 41
0.0000
 70
1
  0
VERTEX
  8
1
 10
79.9384
 20
4.9824
 30
0.0000
  0
VERTEX
  8
1
 10
79.7012
 20
5.2196
 30
0.0000
 42
1.0000
  0
VERTEX
  8
1
 10
79.4497
 20
4.9682
 30
0.0000
  0
VERTEX
  8
1
 10
79.6870
 20
4.7309
 30
0.0000
 42
1.0000
  0
SEQEND
  8
0
  0
POLYLINE
  8
1
 66
1
 10
0.0000
 20
0.0000
 30
0.0000
 40
0.0000
 41
0.0000
 70
1
  0
VERTEX
  8
1
 10
79.5754
 20
5.2717
 30
0.0000
  0
VERTEX
  8
1
 10
79.1009
 20
5.2717
 30
0.0000
 42
1.0000
  0
VERTEX
  8
1
 10
79.1009
 20
4.9161
 30
0.0000
  0
VERTEX
  8
1
 10
79.5754
 20
4.9161
 30
0.0000
 42
1.0000
  0
SEQEND
  8
0
  0
POLYLINE
  8
1
 66
1
 10
0.0000
 20
0.0000
 30
0.0000
 40
0.0000
 41
0.0000
 70
1
  0
VERTEX
  8
1
 10
78.9752
 20
5.2196
 30
0.0000
  0
VERTEX
  8
1
 10
78.7379
 20
4.9824
 30
0.0000
 42
1.0000
  0
VERTEX
  8
1
 10
78.9894
 20
4.7309
 30
0.0000
  0
VERTEX
  8
1
 10
79.2266
 20
4.9682
 30
0.0000
 42
1.0000
  0
SEQEND
  8
0
  0
POLYLINE
  8
1
 66
1
 10
0.0000
 20
0.0000
 30
0.0000
 40
0.0000
 41
0.0000
 70
1
  0
VERTEX
  8
1
 10
80.6786
 20
3.6703
 30
0.0000
  0
VERTEX
  8
1
 10
80.6786
 20
3.9076
 30
0.0000
 42
1.0000
  0
VERTEX
  8
1
 10
80.3230
 20
3.9076
 30
0.0000
  0
VERTEX
  8
1
 10
80.3230
 20
3.6703
 30
0.0000
 42
1.0000
  0
SEQEND
  8
0
  0
POLYLINE
  8
1
 66
1
 10
0.0000
 20
0.0000
 30
0.0000
 40
0.0000
 41
0.0000
 70
1
  0
VERTEX
  8
1
 10
80.5008
 20
3.7298
 30
0.0000
  0
VERTEX
  8
1
 10
80.7381
 20
3.7298
 30
0.0000
 42
1.0000
  0
VERTEX
  8
1
 10
80.7381
 20
4.0854
 30
0.0000
  0
VERTEX
  8
1
 10
80.5008
 20
4.0854
 30
0.0000
 42
1.0000
  0
SEQEND
  8
0
  0
POLYLINE
  8
1
 66
1
 10
0.0000
 20
0.0000
 30
0.0000
 40
0.0000
 41
0.0000
 70
1
  0
VERTEX
  8
1
 10
80.5603
 20
3.9076
 30
0.0000
  0
VERTEX
  8
1
 10
80.5603
 20
3.6703
 30
0.0000
 42
1.0000
  0
VERTEX
  8
1
 10
80.9159
 20
3.6703
 30
0.0000
  0
VERTEX
  8
1
 10
80.9159
 20
3.9076
 30
0.0000
 42
1.0000
  0
SEQEND
  8
0
  0
POLYLINE
  8
1
 66
1
 10
0.0000
 20
0.0000
 30
0.0000
 40
0.0000
 41
0.0000
 70
1
  0
VERTEX
  8
1
 10
80.7381
 20
3.8481
 30
0.0000
  0
VERTEX
  8
1
 10
80.5008
 20
3.8481
 30
0.0000
 42
1.0000
  0
VERTEX
  8
1
 10
80.5008
 20
3.4925
 30
0.0000
  0
VERTEX
  8
1
 10
80.7381
 20
3.4925
 30
0.0000
 42
1.0000
  0
SEQEND
  8
0
  0
POLYLINE
  8
1
 66
1
 10
0.0000
 20
0.0000
 30
0.0000
 40
0.0000
 41
0.0000
 70
1
  0
VERTEX
  8
1
 10
81.4972
 20
3.9076
 30
0.0000
  0
VERTEX
  8
1
 10
81.4972
 20
4.8566
 30
0.0000
 42
1.0000
  0
VERTEX
  8
1
 10
81.1416
 20
4.8566
 30
0.0000
  0
VERTEX
  8
1
 10
81.1416
 20
3.9076
 30
0.0000
 42
1.0000
  0
SEQEND
  8
0
  0
POLYLINE
  8
1
 66
1
 10
0.0000
 20
0.0000
 30
0.0000
 40
0.0000
 41
0.0000
 70
1
  0
VERTEX
  8
1
 10
81.4451
 20
4.7309
 30
0.0000
  0
VERTEX
  8
1
 10
81.6824
 20
4.9682
 30
0.0000
 42
1.0000
  0
VERTEX
  8
1
 10
81.4309
 20
5.2196
 30
0.0000
  0
VERTEX
  8
1
 10
81.1936
 20
4.9824
 30
0.0000
 42
1.0000
  0
SEQEND
  8
0
  0
POLYLINE
  8
1
 66
1
 10
0.0000
 20
0.0000
 30
0.0000
 40
0.0000
 41
0.0000
 70
1
  0
VERTEX
  8
1
 10
81.5566
 20
4.9161
 30
0.0000
  0
VERTEX
  8
1
 10
82.0312
 20
4.9161
 30
0.0000
 42
1.0000
  0
VERTEX
  8
1
 10
82.0312
 20
5.2717
 30
0.0000
  0
VERTEX
  8
1
 10
81.5566
 20
5.2717
 30
0.0000
 42
1.0000
  0
SEQEND
  8
0
  0
POLYLINE
  8
1
 66
1
 10
0.0000
 20
0.0000
 30
0.0000
 40
0.0000
 41
0.0000
 70
1
  0
VERTEX
  8
1
 10
81.9054
 20
4.9682
 30
0.0000
  0
VERTEX
  8
1
 10
82.1427
 20
4.7309
 30
0.0000
 42
1.0000
  0
VERTEX
  8
1
 10
82.3942
 20
4.9824
 30
0.0000
  0
VERTEX
  8
1
 10
82.1569
 20
5.2196
 30
0.0000
 42
1.0000
  0
SEQEND
  8
0
  0
POLYLINE
  8
1
 66
1
 10
0.0000
 20
0.0000
 30
0.0000
 40
0.0000
 41
0.0000
 70
1
  0
VERTEX
  8
1
 10
82.0906
 20
4.8566
 30
0.0000
  0
VERTEX
  8
1
 10
82.0906
 20
3.9076
 30
0.0000
 42
1.0000
  0
VERTEX
  8
1
 10
82.4462
 20
3.9076
 30
0.0000
  0
VERTEX
  8
1
 10
82.4462
 20
4.8566
 30
0.0000
 42
1.0000
  0
SEQEND
  8
0
  0
POLYLINE
  8
1
 66
1
 10
0.0000
 20
0.0000
 30
0.0000
 40
0.0000
 41
0.0000
 70
1
  0
VERTEX
  8
1
 10
82.1427
 20
4.0333
 30
0.0000
  0
VERTEX
  8
1
 10
81.9054
 20
3.7960
 30
0.0000
 42
1.0000
  0
VERTEX
  8
1
 10
82.1569
 20
3.5446
 30
0.0000
  0
VERTEX
  8
1
 10
82.3942
 20
3.7818
 30
0.0000
 42
1.0000
  0
SEQEND
  8
0
  0
POLYLINE
  8
1
 66
1
 10
0.0000
 20
0.0000
 30
0.0000
 40
0.0000
 41
0.0000
 70
1
  0
VERTEX
  8
1
 10
82.0312
 20
3.8481
 30
0.0000
  0
VERTEX
  8
1
 10
81.5566
 20
3.8481
 30
0.0000
 42
1.0000
  0
VERTEX
  8
1
 10
81.5566
 20
3.4925
 30
0.0000
  0
VERTEX
  8
1
 10
82.0312
 20
3.4925
 30
0.0000
 42
1.0000
  0
SEQEND
  8
0
  0
POLYLINE
  8
1
 66
1
 10
0.0000
 20
0.0000
 30
0.0000
 40
0.0000
 41
0.0000
 70
1
  0
VERTEX
  8
1
 10
81.6824
 20
3.7960
 30
0.0000
  0
VERTEX
  8
1
 10
81.4451
 20
4.0333
 30
0.0000
 42
1.0000
  0
VERTEX
  8
1
 10
81.1936
 20
3.7818
 30
0.0000
  0
VERTEX
  8
1
 10
81.4309
 20
3.5446
 30
0.0000
 42
1.0000
  0
SEQEND
  8
0
  0
POLYLINE
  8
1
 66
1
 10
0.0000
 20
0.0000
 30
0.0000
 40
0.0000
 41
0.0000
 70
1
  0
VERTEX
  8
1
 10
81.4451
 20
3.7818
 30
0.0000
  0
VERTEX
  8
1
 10
82.3942
 20
4.7309
 30
0.0000
 42
1.0000
  0
VERTEX
  8
1
 10
82.1427
 20
4.9824
 30
0.0000
  0
VERTEX
  8
1
 10
81.1936
 20
4.0333
 30
0.0000
 42
1.0000
  0
SEQEND
  8
0
  0
POLYLINE
  8
1
 66
1
 10
0.0000
 20
0.0000
 30
0.0000
 40
0.0000
 41
0.0000
 70
1
  0
VERTEX
  8
1
 10
64.7700
 20
1.9524
 30
0.0000
  0
VERTEX
  8
1
 10
64.7700
 20
1.2406
 30
0.0000
 42
1.0000
  0
VERTEX
  8
1
 10
65.1256
 20
1.2406
 30
0.0000
  0
VERTEX
  8
1
 10
65.1256
 20
1.9524
 30
0.0000
 42
1.0000
  0
SEQEND
  8
0
  0
POLYLINE
  8
1
 66
1
 10
0.0000
 20
0.0000
 30
0.0000
 40
0.0000
 41
0.0000
 70
1
  0
VERTEX
  8
1
 10
64.8221
 20
1.1148
 30
0.0000
  0
VERTEX
  8
1
 10
65.0593
 20
0.8776
 30
0.0000
 42
1.0000
  0
VERTEX
  8
1
 10
65.3108
 20
1.1290
 30
0.0000
  0
VERTEX
  8
1
 10
65.0735
 20
1.3663
 30
0.0000
 42
1.0000
  0
SEQEND
  8
0
  0
POLYLINE
  8
1
 66
1
 10
0.0000
 20
0.0000
 30
0.0000
 40
0.0000
 41
0.0000
 70
1
  0
VERTEX
  8
1
 10
65.3108
 20
0.8776
 30
0.0000
  0
VERTEX
  8
1
 10
65.5481
 20
1.1148
 30
0.0000
 42
1.0000
  0
VERTEX
  8
1
 10
65.2966
 20
1.3663
 30
0.0000
  0
VERTEX
  8
1
 10
65.0593
 20
1.1290
 30
0.0000
 42
1.0000
  0
SEQEND
  8
0
  0
POLYLINE
  8
1
 66
1
 10
0.0000
 20
0.0000
 30
0.0000
 40
0.0000
 41
0.0000
 70
1
  0
VERTEX
  8
1
 10
65.2966
 20
1.1148
 30
0.0000
  0
VERTEX
  8
1
 10
65.5339
 20
0.8776
 30
0.0000
 42
1.0000
  0
VERTEX
  8
1
 10
65.7853
 20
1.1290
 30
0.0000
  0
VERTEX
  8
1
 10
65.5481
 20
1.3663
 30
0.0000
 42
1.0000
  0
SEQEND
  8
0
  0
POLYLINE
  8
1
 66
1
 10
0.0000
 20
0.0000
 30
0.0000
 40
0.0000
 41
0.0000
 70
1
  0
VERTEX
  8
1
 10
65.7853
 20
0.8776
 30
0.0000
  0
VERTEX
  8
1
 10
66.0226
 20
1.1148
 30
0.0000
 42
1.0000
  0
VERTEX
  8
1
 10
65.7712
 20
1.3663
 30
0.0000
  0
VERTEX
  8
1
 10
65.5339
 20
1.1290
 30
0.0000
 42
1.0000
  0
SEQEND
  8
0
  0
POLYLINE
  8
1
 66
1
 10
0.0000
 20
0.0000
 30
0.0000
 40
0.0000
 41
0.0000
 70
1
  0
VERTEX
  8
1
 10
66.0747
 20
1.2406
 30
0.0000
  0
VERTEX
  8
1
 10
66.0747
 20
1.9524
 30
0.0000
 42
1.0000
  0
VERTEX
  8
1
 10
65.7191
 20
1.9524
 30
0.0000
  0
VERTEX
  8
1
 10
65.7191
 20
1.2406
 30
0.0000
 42
1.0000
  0
SEQEND
  8
0
  0
POLYLINE
  8
1
 66
1
 10
0.0000
 20
0.0000
 30
0.0000
 40
0.0000
 41
0.0000
 70
1
  0
VERTEX
  8
1
 10
66.4072
 20
1.9524
 30
0.0000
  0
VERTEX
  8
1
 10
66.4072
 20
1.2406
 30
0.0000
 42
1.0000
  0
VERTEX
  8
1
 10
66.7628
 20
1.2406
 30
0.0000
  0
VERTEX
  8
1
 10
66.7628
 20
1.9524
 30
0.0000
 42
1.0000
  0
SEQEND
  8
0
  0
POLYLINE
  8
1
 66
1
 10
0.0000
 20
0.0000
 30
0.0000
 40
0.0000
 41
0.0000
 70
1
  0
VERTEX
  8
1
 10
66.4592
 20
1.1148
 30
0.0000
  0
VERTEX
  8
1
 10
66.6965
 20
0.8776
 30
0.0000
 42
1.0000
  0
VERTEX
  8
1
 10
66.9479
 20
1.1290
 30
0.0000
  0
VERTEX
  8
1
 10
66.7107
 20
1.3663
 30
0.0000
 42
1.0000
  0
SEQEND
  8
0
  0
POLYLINE
  8
1
 66
1
 10
0.0000
 20
0.0000
 30
0.0000
 40
0.0000
 41
0.0000
 70
1
  0
VERTEX
  8
1
 10
66.9479
 20
0.8776
 30
0.0000
  0
VERTEX
  8
1
 10
67.1852
 20
1.1148
 30
0.0000
 42
1.0000
  0
VERTEX
  8
1
 10
66.9338
 20
1.3663
 30
0.0000
  0
VERTEX
  8
1
 10
66.6965
 20
1.1290
 30
0.0000
 42
1.0000
  0
SEQEND
  8
0
  0
POLYLINE
  8
1
 66
1
 10
0.0000
 20
0.0000
 30
0.0000
 40
0.0000
 41
0.0000
 70
1
  0
VERTEX
  8
1
 10
66.9338
 20
1.1148
 30
0.0000
  0
VERTEX
  8
1
 10
67.1710
 20
0.8776
 30
0.0000
 42
1.0000
  0
VERTEX
  8
1
 10
67.4225
 20
1.1290
 30
0.0000
  0
VERTEX
  8
1
 10
67.1852
 20
1.3663
 30
0.0000
 42
1.0000
  0
SEQEND
  8
0
  0
POLYLINE
  8
1
 66
1
 10
0.0000
 20
0.0000
 30
0.0000
 40
0.0000
 41
0.0000
 70
1
  0
VERTEX
  8
1
 10
67.4225
 20
0.8776
 30
0.0000
  0
VERTEX
  8
1
 10
67.6598
 20
1.1148
 30
0.0000
 42
1.0000
  0
VERTEX
  8
1
 10
67.4083
 20
1.3663
 30
0.0000
  0
VERTEX
  8
1
 10
67.1710
 20
1.1290
 30
0.0000
 42
1.0000
  0
SEQEND
  8
0
  0
POLYLINE
  8
1
 66
1
 10
0.0000
 20
0.0000
 30
0.0000
 40
0.0000
 41
0.0000
 70
1
  0
VERTEX
  8
1
 10
67.7118
 20
1.2406
 30
0.0000
  0
VERTEX
  8
1
 10
67.7118
 20
1.9524
 30
0.0000
 42
1.0000
  0
VERTEX
  8
1
 10
67.3562
 20
1.9524
 30
0.0000
  0
VERTEX
  8
1
 10
67.3562
 20
1.2406
 30
0.0000
 42
1.0000
  0
SEQEND
  8
0
  0
POLYLINE
  8
1
 66
1
 10
0.0000
 20
0.0000
 30
0.0000
 40
0.0000
 41
0.0000
 70
1
  0
VERTEX
  8
1
 10
68.0443
 20
1.9524
 30
0.0000
  0
VERTEX
  8
1
 10
68.0443
 20
1.2406
 30
0.0000
 42
1.0000
  0
VERTEX
  8
1
 10
68.3999
 20
1.2406
 30
0.0000
  0
VERTEX
  8
1
 10
68.3999
 20
1.9524
 30
0.0000
 42
1.0000
  0
SEQEND
  8
0
  0
POLYLINE
  8
1
 66
1
 10
0.0000
 20
0.0000
 30
0.0000
 40
0.0000
 41
0.0000
 70
1
  0
VERTEX
  8
1
 10
68.0964
 20
1.1148
 30
0.0000
  0
VERTEX
  8
1
 10
68.3337
 20
0.8776
 30
0.0000
 42
1.0000
  0
VERTEX
  8
1
 10
68.5851
 20
1.1290
 30
0.0000
  0
VERTEX
  8
1
 10
68.3478
 20
1.3663
 30
0.0000
 42
1.0000
  0
SEQEND
  8
0
  0
POLYLINE
  8
1
 66
1
 10
0.0000
 20
0.0000
 30
0.0000
 40
0.0000
 41
0.0000
 70
1
  0
VERTEX
  8
1
 10
68.5851
 20
0.8776
 30
0.0000
  0
VERTEX
  8
1
 10
68.8224
 20
1.1148
 30
0.0000
 42
1.0000
  0
VERTEX
  8
1
 10
68.5709
 20
1.3663
 30
0.0000
  0
VERTEX
  8
1
 10
68.3337
 20
1.1290
 30
0.0000
 42
1.0000
  0
SEQEND
  8
0
  0
POLYLINE
  8
1
 66
1
 10
0.0000
 20
0.0000
 30
0.0000
 40
0.0000
 41
0.0000
 70
1
  0
VERTEX
  8
1
 10
68.5709
 20
1.1148
 30
0.0000
  0
VERTEX
  8
1
 10
68.8082
 20
0.8776
 30
0.0000
 42
1.0000
  0
VERTEX
  8
1
 10
69.0596
 20
1.1290
 30
0.0000
  0
VERTEX
  8
1
 10
68.8224
 20
1.3663
 30
0.0000
 42
1.0000
  0
SEQEND
  8
0
  0
POLYLINE
  8
1
 66
1
 10
0.0000
 20
0.0000
 30
0.0000
 40
0.0000
 41
0.0000
 70
1
  0
VERTEX
  8
1
 10
69.0596
 20
0.8776
 30
0.0000
  0
VERTEX
  8
1
 10
69.2969
 20
1.1148
 30
0.0000
 42
1.0000
  0
VERTEX
  8
1
 10
69.0455
 20
1.3663
 30
0.0000
  0
VERTEX
  8
1
 10
68.8082
 20
1.1290
 30
0.0000
 42
1.0000
  0
SEQEND
  8
0
  0
POLYLINE
  8
1
 66
1
 10
0.0000
 20
0.0000
 30
0.0000
 40
0.0000
 41
0.0000
 70
1
  0
VERTEX
  8
1
 10
69.3490
 20
1.2406
 30
0.0000
  0
VERTEX
  8
1
 10
69.3490
 20
1.9524
 30
0.0000
 42
1.0000
  0
VERTEX
  8
1
 10
68.9934
 20
1.9524
 30
0.0000
  0
VERTEX
  8
1
 10
68.9934
 20
1.2406
 30
0.0000
 42
1.0000
  0
SEQEND
  8
0
  0
POLYLINE
  8
1
 66
1
 10
0.0000
 20
0.0000
 30
0.0000
 40
0.0000
 41
0.0000
 70
1
  0
VERTEX
  8
1
 10
70.0371
 20
1.0033
 30
0.0000
  0
VERTEX
  8
1
 10
70.0371
 20
1.2406
 30
0.0000
 42
1.0000
  0
VERTEX
  8
1
 10
69.6815
 20
1.2406
 30
0.0000
  0
VERTEX
  8
1
 10
69.6815
 20
1.0033
 30
0.0000
 42
1.0000
  0
SEQEND
  8
0
  0
POLYLINE
  8
1
 66
1
 10
0.0000
 20
0.0000
 30
0.0000
 40
0.0000
 41
0.0000
 70
1
  0
VERTEX
  8
1
 10
69.8593
 20
1.0628
 30
0.0000
  0
VERTEX
  8
1
 10
70.0965
 20
1.0628
 30
0.0000
 42
1.0000
  0
VERTEX
  8
1
 10
70.0965
 20
1.4184
 30
0.0000
  0
VERTEX
  8
1
 10
69.8593
 20
1.4184
 30
0.0000
 42
1.0000
  0
SEQEND
  8
0
  0
POLYLINE
  8
1
 66
1
 10
0.0000
 20
0.0000
 30
0.0000
 40
0.0000
 41
0.0000
 70
1
  0
VERTEX
  8
1
 10
69.9187
 20
1.2406
 30
0.0000
  0
VERTEX
  8
1
 10
69.9187
 20
1.0033
 30
0.0000
 42
1.0000
  0
VERTEX
  8
1
 10
70.2743
 20
1.0033
 30
0.0000
  0
VERTEX
  8
1
 10
70.2743
 20
1.2406
 30
0.0000
 42
1.0000
  0
SEQEND
  8
0
  0
POLYLINE
  8
1
 66
1
 10
0.0000
 20
0.0000
 30
0.0000
 40
0.0000
 41
0.0000
 70
1
  0
VERTEX
  8
1
 10
70.0965
 20
1.1811
 30
0.0000
  0
VERTEX
  8
1
 10
69.8593
 20
1.1811
 30
0.0000
 42
1.0000
  0
VERTEX
  8
1
 10
69.8593
 20
0.8255
 30
0.0000
  0
VERTEX
  8
1
 10
70.0965
 20
0.8255
 30
0.0000
 42
1.0000
  0
SEQEND
  8
0
  0
POLYLINE
  8
1
 66
1
 10
0.0000
 20
0.0000
 30
0.0000
 40
0.0000
 41
0.0000
 70
1
  0
VERTEX
  8
1
 10
71.0929
 20
1.0033
 30
0.0000
  0
VERTEX
  8
1
 10
71.0929
 20
2.1896
 30
0.0000
 42
1.0000
  0
VERTEX
  8
1
 10
70.7373
 20
2.1896
 30
0.0000
  0
VERTEX
  8
1
 10
70.7373
 20
1.0033
 30
0.0000
 42
1.0000
  0
SEQEND
  8
0
  0
POLYLINE
  8
1
 66
1
 10
0.0000
 20
0.0000
 30
0.0000
 40
0.0000
 41
0.0000
 70
1
  0
VERTEX
  8
1
 10
71.0408
 20
2.0639
 30
0.0000
  0
VERTEX
  8
1
 10
71.2781
 20
2.3012
 30
0.0000
 42
1.0000
  0
VERTEX
  8
1
 10
71.0267
 20
2.5526
 30
0.0000
  0
VERTEX
  8
1
 10
70.7894
 20
2.3154
 30
0.0000
 42
1.0000
  0
SEQEND
  8
0
  0
POLYLINE
  8
1
 66
1
 10
0.0000
 20
0.0000
 30
0.0000
 40
0.0000
 41
0.0000
 70
1
  0
VERTEX
  8
1
 10
70.6778
 20
1.5373
 30
0.0000
  0
VERTEX
  8
1
 10
71.1524
 20
1.5373
 30
0.0000
 42
1.0000
  0
VERTEX
  8
1
 10
71.1524
 20
1.8929
 30
0.0000
  0
VERTEX
  8
1
 10
70.6778
 20
1.8929
 30
0.0000
 42
1.0000
  0
SEQEND
  8
0
  0
POLYLINE
  8
1
 66
1
 10
0.0000
 20
0.0000
 30
0.0000
 40
0.0000
 41
0.0000
 70
1
  0
VERTEX
  8
1
 10
71.7693
 20
2.2491
 30
0.0000
  0
VERTEX
  8
1
 10
72.0066
 20
2.2491
 30
0.0000
 42
1.0000
  0
VERTEX
  8
1
 10
72.0066
 20
2.6047
 30
0.0000
  0
VERTEX
  8
1
 10
71.7693
 20
2.6047
 30
0.0000
 42
1.0000
  0
SEQEND
  8
0
  0
POLYLINE
  8
1
 66
1
 10
0.0000
 20
0.0000
 30
0.0000
 40
0.0000
 41
0.0000
 70
1
  0
VERTEX
  8
1
 10
71.8288
 20
2.4269
 30
0.0000
  0
VERTEX
  8
1
 10
71.8288
 20
1.0033
 30
0.0000
 42
1.0000
  0
VERTEX
  8
1
 10
72.1844
 20
1.0033
 30
0.0000
  0
VERTEX
  8
1
 10
72.1844
 20
2.4269
 30
0.0000
 42
1.0000
  0
SEQEND
  8
0
  0
POLYLINE
  8
1
 66
1
 10
0.0000
 20
0.0000
 30
0.0000
 40
0.0000
 41
0.0000
 70
1
  0
VERTEX
  8
1
 10
71.7693
 20
0.8255
 30
0.0000
  0
VERTEX
  8
1
 10
72.2438
 20
0.8255
 30
0.0000
 42
1.0000
  0
VERTEX
  8
1
 10
72.2438
 20
1.1811
 30
0.0000
  0
VERTEX
  8
1
 10
71.7693
 20
1.1811
 30
0.0000
 42
1.0000
  0
SEQEND
  8
0
  0
POLYLINE
  8
1
 66
1
 10
0.0000
 20
0.0000
 30
0.0000
 40
0.0000
 41
0.0000
 70
1
  0
VERTEX
  8
1
 10
72.6829
 20
1.9524
 30
0.0000
  0
VERTEX
  8
1
 10
72.6829
 20
1.2406
 30
0.0000
 42
1.0000
  0
VERTEX
  8
1
 10
73.0385
 20
1.2406
 30
0.0000
  0
VERTEX
  8
1
 10
73.0385
 20
1.9524
 30
0.0000
 42
1.0000
  0
SEQEND
  8
0
  0
POLYLINE
  8
1
 66
1
 10
0.0000
 20
0.0000
 30
0.0000
 40
0.0000
 41
0.0000
 70
1
  0
VERTEX
  8
1
 10
72.7350
 20
1.1148
 30
0.0000
  0
VERTEX
  8
1
 10
72.9723
 20
0.8776
 30
0.0000
 42
1.0000
  0
VERTEX
  8
1
 10
73.2237
 20
1.1290
 30
0.0000
  0
VERTEX
  8
1
 10
72.9864
 20
1.3663
 30
0.0000
 42
1.0000
  0
SEQEND
  8
0
  0
POLYLINE
  8
1
 66
1
 10
0.0000
 20
0.0000
 30
0.0000
 40
0.0000
 41
0.0000
 70
1
  0
VERTEX
  8
1
 10
73.0980
 20
0.8255
 30
0.0000
  0
VERTEX
  8
1
 10
73.8098
 20
0.8255
 30
0.0000
 42
1.0000
  0
VERTEX
  8
1
 10
73.8098
 20
1.1811
 30
0.0000
  0
VERTEX
  8
1
 10
73.0980
 20
1.1811
 30
0.0000
 42
1.0000
  0
SEQEND
  8
0
  0
POLYLINE
  8
1
 66
1
 10
0.0000
 20
0.0000
 30
0.0000
 40
0.0000
 41
0.0000
 70
1
  0
VERTEX
  8
1
 10
73.6320
 20
1.9524
 30
0.0000
  0
VERTEX
  8
1
 10
73.6320
 20
0.7660
 30
0.0000
 42
1.0000
  0
VERTEX
  8
1
 10
73.9876
 20
0.7660
 30
0.0000
  0
VERTEX
  8
1
 10
73.9876
 20
1.9524
 30
0.0000
 42
1.0000
  0
SEQEND
  8
0
  0
POLYLINE
  8
1
 66
1
 10
0.0000
 20
0.0000
 30
0.0000
 40
0.0000
 41
0.0000
 70
1
  0
VERTEX
  8
1
 10
73.6841
 20
0.8918
 30
0.0000
  0
VERTEX
  8
1
 10
73.4468
 20
0.6545
 30
0.0000
 42
1.0000
  0
VERTEX
  8
1
 10
73.6983
 20
0.4030
 30
0.0000
  0
VERTEX
  8
1
 10
73.9355
 20
0.6403
 30
0.0000
 42
1.0000
  0
SEQEND
  8
0
  0
POLYLINE
  8
1
 66
1
 10
0.0000
 20
0.0000
 30
0.0000
 40
0.0000
 41
0.0000
 70
1
  0
VERTEX
  8
1
 10
73.5725
 20
0.7066
 30
0.0000
  0
VERTEX
  8
1
 10
73.3353
 20
0.7066
 30
0.0000
 42
1.0000
  0
VERTEX
  8
1
 10
73.3353
 20
0.3510
 30
0.0000
  0
VERTEX
  8
1
 10
73.5725
 20
0.3510
 30
0.0000
 42
1.0000
  0
SEQEND
  8
0
  0
POLYLINE
  8
1
 66
1
 10
0.0000
 20
0.0000
 30
0.0000
 40
0.0000
 41
0.0000
 70
1
  0
VERTEX
  8
1
 10
74.4979
 20
1.7746
 30
0.0000
  0
VERTEX
  8
1
 10
74.7351
 20
1.7746
 30
0.0000
 42
1.0000
  0
VERTEX
  8
1
 10
74.7351
 20
2.1302
 30
0.0000
  0
VERTEX
  8
1
 10
74.4979
 20
2.1302
 30
0.0000
 42
1.0000
  0
SEQEND
  8
0
  0
POLYLINE
  8
1
 66
1
 10
0.0000
 20
0.0000
 30
0.0000
 40
0.0000
 41
0.0000
 70
1
  0
VERTEX
  8
1
 10
74.5573
 20
1.9524
 30
0.0000
  0
VERTEX
  8
1
 10
74.5573
 20
1.0033
 30
0.0000
 42
1.0000
  0
VERTEX
  8
1
 10
74.9129
 20
1.0033
 30
0.0000
  0
VERTEX
  8
1
 10
74.9129
 20
1.9524
 30
0.0000
 42
1.0000
  0
SEQEND
  8
0
  0
POLYLINE
  8
1
 66
1
 10
0.0000
 20
0.0000
 30
0.0000
 40
0.0000
 41
0.0000
 70
1
  0
VERTEX
  8
1
 10
74.4979
 20
0.8255
 30
0.0000
  0
VERTEX
  8
1
 10
74.9724
 20
0.8255
 30
0.0000
 42
1.0000
  0
VERTEX
  8
1
 10
74.9724
 20
1.1811
 30
0.0000
  0
VERTEX
  8
1
 10
74.4979
 20
1.1811
 30
0.0000
 42
1.0000
  0
SEQEND
  8
0
  0
POLYLINE
  8
1
 66
1
 10
0.0000
 20
0.0000
 30
0.0000
 40
0.0000
 41
0.0000
 70
1
  0
VERTEX
  8
1
 10
74.5573
 20
2.6642
 30
0.0000
  0
VERTEX
  8
1
 10
74.5573
 20
2.4269
 30
0.0000
 42
1.0000
  0
VERTEX
  8
1
 10
74.9129
 20
2.4269
 30
0.0000
  0
VERTEX
  8
1
 10
74.9129
 20
2.6642
 30
0.0000
 42
1.0000
  0
SEQEND
  8
0
  0
POLYLINE
  8
1
 66
1
 10
0.0000
 20
0.0000
 30
0.0000
 40
0.0000
 41
0.0000
 70
1
  0
VERTEX
  8
1
 10
75.7671
 20
1.0033
 30
0.0000
  0
VERTEX
  8
1
 10
75.7671
 20
1.9524
 30
0.0000
 42
1.0000
  0
VERTEX
  8
1
 10
75.4115
 20
1.9524
 30
0.0000
  0
VERTEX
  8
1
 10
75.4115
 20
1.0033
 30
0.0000
 42
1.0000
  0
SEQEND
  8
0
  0
POLYLINE
  8
1
 66
1
 10
0.0000
 20
0.0000
 30
0.0000
 40
0.0000
 41
0.0000
 70
1
  0
VERTEX
  8
1
 10
75.5893
 20
1.7746
 30
0.0000
  0
VERTEX
  8
1
 10
76.3011
 20
1.7746
 30
0.0000
 42
1.0000
  0
VERTEX
  8
1
 10
76.3011
 20
2.1302
 30
0.0000
  0
VERTEX
  8
1
 10
75.5893
 20
2.1302
 30
0.0000
 42
1.0000
  0
SEQEND
  8
0
  0
POLYLINE
  8
1
 66
1
 10
0.0000
 20
0.0000
 30
0.0000
 40
0.0000
 41
0.0000
 70
1
  0
VERTEX
  8
1
 10
76.1754
 20
1.8267
 30
0.0000
  0
VERTEX
  8
1
 10
76.4127
 20
1.5894
 30
0.0000
 42
1.0000
  0
VERTEX
  8
1
 10
76.6641
 20
1.8408
 30
0.0000
  0
VERTEX
  8
1
 10
76.4268
 20
2.0781
 30
0.0000
 42
1.0000
  0
SEQEND
  8
0
  0
POLYLINE
  8
1
 66
1
 10
0.0000
 20
0.0000
 30
0.0000
 40
0.0000
 41
0.0000
 70
1
  0
VERTEX
  8
1
 10
76.3606
 20
1.7151
 30
0.0000
  0
VERTEX
  8
1
 10
76.3606
 20
1.0033
 30
0.0000
 42
1.0000
  0
VERTEX
  8
1
 10
76.7162
 20
1.0033
 30
0.0000
  0
VERTEX
  8
1
 10
76.7162
 20
1.7151
 30
0.0000
 42
1.0000
  0
SEQEND
  8
0
  0
POLYLINE
  8
1
 66
1
 10
0.0000
 20
0.0000
 30
0.0000
 40
0.0000
 41
0.0000
 70
1
  0
VERTEX
  8
1
 10
77.7010
 20
0.3510
 30
0.0000
  0
VERTEX
  8
1
 10
77.9383
 20
0.3510
 30
0.0000
 42
1.0000
  0
VERTEX
  8
1
 10
77.9383
 20
0.7066
 30
0.0000
  0
VERTEX
  8
1
 10
77.7010
 20
0.7066
 30
0.0000
 42
1.0000
  0
SEQEND
  8
0
  0
POLYLINE
  8
1
 66
1
 10
0.0000
 20
0.0000
 30
0.0000
 40
0.0000
 41
0.0000
 70
1
  0
VERTEX
  8
1
 10
78.0640
 20
0.4030
 30
0.0000
  0
VERTEX
  8
1
 10
78.3013
 20
0.6403
 30
0.0000
 42
1.0000
  0
VERTEX
  8
1
 10
78.0498
 20
0.8918
 30
0.0000
  0
VERTEX
  8
1
 10
77.8126
 20
0.6545
 30
0.0000
 42
1.0000
  0
SEQEND
  8
0
  0
POLYLINE
  8
1
 66
1
 10
0.0000
 20
0.0000
 30
0.0000
 40
0.0000
 41
0.0000
 70
1
  0
VERTEX
  8
1
 10
78.3533
 20
0.7660
 30
0.0000
  0
VERTEX
  8
1
 10
78.3533
 20
1.9524
 30
0.0000
 42
1.0000
  0
VERTEX
  8
1
 10
77.9977
 20
1.9524
 30
0.0000
  0
VERTEX
  8
1
 10
77.9977
 20
0.7660
 30
0.0000
 42
1.0000
  0
SEQEND
  8
0
  0
POLYLINE
  8
1
 66
1
 10
0.0000
 20
0.0000
 30
0.0000
 40
0.0000
 41
0.0000
 70
1
  0
VERTEX
  8
1
 10
78.1755
 20
2.1302
 30
0.0000
  0
VERTEX
  8
1
 10
77.4637
 20
2.1302
 30
0.0000
 42
1.0000
  0
VERTEX
  8
1
 10
77.4637
 20
1.7746
 30
0.0000
  0
VERTEX
  8
1
 10
78.1755
 20
1.7746
 30
0.0000
 42
1.0000
  0
SEQEND
  8
0
  0
POLYLINE
  8
1
 66
1
 10
0.0000
 20
0.0000
 30
0.0000
 40
0.0000
 41
0.0000
 70
1
  0
VERTEX
  8
1
 10
77.3380
 20
2.0781
 30
0.0000
  0
VERTEX
  8
1
 10
77.1007
 20
1.8408
 30
0.0000
 42
1.0000
  0
VERTEX
  8
1
 10
77.3522
 20
1.5894
 30
0.0000
  0
VERTEX
  8
1
 10
77.5895
 20
1.8267
 30
0.0000
 42
1.0000
  0
SEQEND
  8
0
  0
POLYLINE
  8
1
 66
1
 10
0.0000
 20
0.0000
 30
0.0000
 40
0.0000
 41
0.0000
 70
1
  0
VERTEX
  8
1
 10
77.0487
 20
1.7151
 30
0.0000
  0
VERTEX
  8
1
 10
77.0487
 20
1.2406
 30
0.0000
 42
1.0000
  0
VERTEX
  8
1
 10
77.4043
 20
1.2406
 30
0.0000
  0
VERTEX
  8
1
 10
77.4043
 20
1.7151
 30
0.0000
 42
1.0000
  0
SEQEND
  8
0
  0
POLYLINE
  8
1
 66
1
 10
0.0000
 20
0.0000
 30
0.0000
 40
0.0000
 41
0.0000
 70
1
  0
VERTEX
  8
1
 10
77.1007
 20
1.1148
 30
0.0000
  0
VERTEX
  8
1
 10
77.3380
 20
0.8776
 30
0.0000
 42
1.0000
  0
VERTEX
  8
1
 10
77.5895
 20
1.1290
 30
0.0000
  0
VERTEX
  8
1
 10
77.3522
 20
1.3663
 30
0.0000
 42
1.0000
  0
SEQEND
  8
0
  0
POLYLINE
  8
1
 66
1
 10
0.0000
 20
0.0000
 30
0.0000
 40
0.0000
 41
0.0000
 70
1
  0
VERTEX
  8
1
 10
77.4637
 20
0.8255
 30
0.0000
  0
VERTEX
  8
1
 10
78.1755
 20
0.8255
 30
0.0000
 42
1.0000
  0
VERTEX
  8
1
 10
78.1755
 20
1.1811
 30
0.0000
  0
VERTEX
  8
1
 10
77.4637
 20
1.1811
 30
0.0000
 42
1.0000
  0
SEQEND
  8
0
  0
POLYLINE
  8
1
 66
1
 10
0.0000
 20
0.0000
 30
0.0000
 40
0.0000
 41
0.0000
 70
1
  0
VERTEX
  8
1
 10
78.6858
 20
2.4269
 30
0.0000
  0
VERTEX
  8
1
 10
78.6858
 20
1.0033
 30
0.0000
 42
1.0000
  0
VERTEX
  8
1
 10
79.0414
 20
1.0033
 30
0.0000
  0
VERTEX
  8
1
 10
79.0414
 20
2.4269
 30
0.0000
 42
1.0000
  0
SEQEND
  8
0
  0
POLYLINE
  8
1
 66
1
 10
0.0000
 20
0.0000
 30
0.0000
 40
0.0000
 41
0.0000
 70
1
  0
VERTEX
  8
1
 10
78.8636
 20
0.8255
 30
0.0000
  0
VERTEX
  8
1
 10
79.5754
 20
0.8255
 30
0.0000
 42
1.0000
  0
VERTEX
  8
1
 10
79.5754
 20
1.1811
 30
0.0000
  0
VERTEX
  8
1
 10
78.8636
 20
1.1811
 30
0.0000
 42
1.0000
  0
SEQEND
  8
0
  0
POLYLINE
  8
1
 66
1
 10
0.0000
 20
0.0000
 30
0.0000
 40
0.0000
 41
0.0000
 70
1
  0
VERTEX
  8
1
 10
79.7012
 20
0.8776
 30
0.0000
  0
VERTEX
  8
1
 10
79.9384
 20
1.1148
 30
0.0000
 42
1.0000
  0
VERTEX
  8
1
 10
79.6870
 20
1.3663
 30
0.0000
  0
VERTEX
  8
1
 10
79.4497
 20
1.1290
 30
0.0000
 42
1.0000
  0
SEQEND
  8
0
  0
POLYLINE
  8
1
 66
1
 10
0.0000
 20
0.0000
 30
0.0000
 40
0.0000
 41
0.0000
 70
1
  0
VERTEX
  8
1
 10
79.9905
 20
1.2406
 30
0.0000
  0
VERTEX
  8
1
 10
79.9905
 20
1.7151
 30
0.0000
 42
1.0000
  0
VERTEX
  8
1
 10
79.6349
 20
1.7151
 30
0.0000
  0
VERTEX
  8
1
 10
79.6349
 20
1.2406
 30
0.0000
 42
1.0000
  0
SEQEND
  8
0
  0
POLYLINE
  8
1
 66
1
 10
0.0000
 20
0.0000
 30
0.0000
 40
0.0000
 41
0.0000
 70
1
  0
VERTEX
  8
1
 10
79.9384
 20
1.8408
 30
0.0000
  0
VERTEX
  8
1
 10
79.7012
 20
2.0781
 30
0.0000
 42
1.0000
  0
VERTEX
  8
1
 10
79.4497
 20
1.8267
 30
0.0000
  0
VERTEX
  8
1
 10
79.6870
 20
1.5894
 30
0.0000
 42
1.0000
  0
SEQEND
  8
0
  0
POLYLINE
  8
1
 66
1
 10
0.0000
 20
0.0000
 30
0.0000
 40
0.0000
 41
0.0000
 70
1
  0
VERTEX
  8
1
 10
79.5754
 20
2.1302
 30
0.0000
  0
VERTEX
  8
1
 10
78.8636
 20
2.1302
 30
0.0000
 42
1.0000
  0
VERTEX
  8
1
 10
78.8636
 20
1.7746
 30
0.0000
  0
VERTEX
  8
1
 10
79.5754
 20
1.7746
 30
0.0000
 42
1.0000
  0
SEQEND
  8
0
  0
POLYLINE
  8
1
 66
1
 10
0.0000
 20
0.0000
 30
0.0000
 40
0.0000
 41
0.0000
 70
1
  0
VERTEX
  8
1
 10
80.6786
 20
1.0033
 30
0.0000
  0
VERTEX
  8
1
 10
80.6786
 20
1.9524
 30
0.0000
 42
1.0000
  0
VERTEX
  8
1
 10
80.3230
 20
1.9524
 30
0.0000
  0
VERTEX
  8
1
 10
80.3230
 20
1.0033
 30
0.0000
 42
1.0000
  0
SEQEND
  8
0
  0
POLYLINE
  8
1
 66
1
 10
0.0000
 20
0.0000
 30
0.0000
 40
0.0000
 41
0.0000
 70
1
  0
VERTEX
  8
1
 10
80.6265
 20
1.3521
 30
0.0000
  0
VERTEX
  8
1
 10
81.1010
 20
1.8267
 30
0.0000
 42
1.0000
  0
VERTEX
  8
1
 10
80.8496
 20
2.0781
 30
0.0000
  0
VERTEX
  8
1
 10
80.3751
 20
1.6036
 30
0.0000
 42
1.0000
  0
SEQEND
  8
0
  0
POLYLINE
  8
1
 66
1
 10
0.0000
 20
0.0000
 30
0.0000
 40
0.0000
 41
0.0000
 70
1
  0
VERTEX
  8
1
 10
80.9753
 20
1.7746
 30
0.0000
  0
VERTEX
  8
1
 10
81.2126
 20
1.7746
 30
0.0000
 42
1.0000
  0
VERTEX
  8
1
 10
81.2126
 20
2.1302
 30
0.0000
  0
VERTEX
  8
1
 10
80.9753
 20
2.1302
 30
0.0000
 42
1.0000
  0
SEQEND
  8
0
  0
POLYLINE
  8
1
 66
1
 10
0.0000
 20
0.0000
 30
0.0000
 40
0.0000
 41
0.0000
 70
1
  0
VERTEX
  8
1
 10
81.8651
 20
1.7746
 30
0.0000
  0
VERTEX
  8
1
 10
82.1024
 20
1.7746
 30
0.0000
 42
1.0000
  0
VERTEX
  8
1
 10
82.1024
 20
2.1302
 30
0.0000
  0
VERTEX
  8
1
 10
81.8651
 20
2.1302
 30
0.0000
 42
1.0000
  0
SEQEND
  8
0
  0
POLYLINE
  8
1
 66
1
 10
0.0000
 20
0.0000
 30
0.0000
 40
0.0000
 41
0.0000
 70
1
  0
VERTEX
  8
1
 10
81.9245
 20
1.9524
 30
0.0000
  0
VERTEX
  8
1
 10
81.9245
 20
1.0033
 30
0.0000
 42
1.0000
  0
VERTEX
  8
1
 10
82.2802
 20
1.0033
 30
0.0000
  0
VERTEX
  8
1
 10
82.2802
 20
1.9524
 30
0.0000
 42
1.0000
  0
SEQEND
  8
0
  0
POLYLINE
  8
1
 66
1
 10
0.0000
 20
0.0000
 30
0.0000
 40
0.0000
 41
0.0000
 70
1
  0
VERTEX
  8
1
 10
81.8651
 20
0.8255
 30
0.0000
  0
VERTEX
  8
1
 10
82.3396
 20
0.8255
 30
0.0000
 42
1.0000
  0
VERTEX
  8
1
 10
82.3396
 20
1.1811
 30
0.0000
  0
VERTEX
  8
1
 10
81.8651
 20
1.1811
 30
0.0000
 42
1.0000
  0
SEQEND
  8
0
  0
POLYLINE
  8
1
 66
1
 10
0.0000
 20
0.0000
 30
0.0000
 40
0.0000
 41
0.0000
 70
1
  0
VERTEX
  8
1
 10
81.9245
 20
2.6642
 30
0.0000
  0
VERTEX
  8
1
 10
81.9245
 20
2.4269
 30
0.0000
 42
1.0000
  0
VERTEX
  8
1
 10
82.2802
 20
2.4269
 30
0.0000
  0
VERTEX
  8
1
 10
82.2802
 20
2.6642
 30
0.0000
 42
1.0000
  0
SEQEND
  8
0
  0
POLYLINE
  8
1
 66
1
 10
0.0000
 20
0.0000
 30
0.0000
 40
0.0000
 41
0.0000
 70
1
  0
VERTEX
  8
1
 10
83.9056
 20
2.1302
 30
0.0000
  0
VERTEX
  8
1
 10
83.1938
 20
2.1302
 30
0.0000
 42
1.0000
  0
VERTEX
  8
1
 10
83.1938
 20
1.7746
 30
0.0000
  0
VERTEX
  8
1
 10
83.9056
 20
1.7746
 30
0.0000
 42
1.0000
  0
SEQEND
  8
0
  0
POLYLINE
  8
1
 66
1
 10
0.0000
 20
0.0000
 30
0.0000
 40
0.0000
 41
0.0000
 70
1
  0
VERTEX
  8
1
 10
83.0681
 20
2.0781
 30
0.0000
  0
VERTEX
  8
1
 10
82.8308
 20
1.8408
 30
0.0000
 42
1.0000
  0
VERTEX
  8
1
 10
83.0822
 20
1.5894
 30
0.0000
  0
VERTEX
  8
1
 10
83.3195
 20
1.8267
 30
0.0000
 42
1.0000
  0
SEQEND
  8
0
  0
POLYLINE
  8
1
 66
1
 10
0.0000
 20
0.0000
 30
0.0000
 40
0.0000
 41
0.0000
 70
1
  0
VERTEX
  8
1
 10
82.7787
 20
1.7151
 30
0.0000
  0
VERTEX
  8
1
 10
82.7787
 20
1.2406
 30
0.0000
 42
1.0000
  0
VERTEX
  8
1
 10
83.1343
 20
1.2406
 30
0.0000
  0
VERTEX
  8
1
 10
83.1343
 20
1.7151
 30
0.0000
 42
1.0000
  0
SEQEND
  8
0
  0
POLYLINE
  8
1
 66
1
 10
0.0000
 20
0.0000
 30
0.0000
 40
0.0000
 41
0.0000
 70
1
  0
VERTEX
  8
1
 10
82.8308
 20
1.1148
 30
0.0000
  0
VERTEX
  8
1
 10
83.0681
 20
0.8776
 30
0.0000
 42
1.0000
  0
VERTEX
  8
1
 10
83.3195
 20
1.1290
 30
0.0000
  0
VERTEX
  8
1
 10
83.0822
 20
1.3663
 30
0.0000
 42
1.0000
  0
SEQEND
  8
0
  0
POLYLINE
  8
1
 66
1
 10
0.0000
 20
0.0000
 30
0.0000
 40
0.0000
 41
0.0000
 70
1
  0
VERTEX
  8
1
 10
83.1938
 20
0.8255
 30
0.0000
  0
VERTEX
  8
1
 10
83.9056
 20
0.8255
 30
0.0000
 42
1.0000
  0
VERTEX
  8
1
 10
83.9056
 20
1.1811
 30
0.0000
  0
VERTEX
  8
1
 10
83.1938
 20
1.1811
 30
0.0000
 42
1.0000
  0
SEQEND
  8
0
  0
POLYLINE
  8
1
 66
1
 10
0.0000
 20
0.0000
 30
0.0000
 40
0.0000
 41
0.0000
 70
1
  0
VERTEX
  8
1
 10
84.7715
 20
1.0033
 30
0.0000
  0
VERTEX
  8
1
 10
84.7715
 20
2.4269
 30
0.0000
 42
1.0000
  0
VERTEX
  8
1
 10
84.4159
 20
2.4269
 30
0.0000
  0
VERTEX
  8
1
 10
84.4159
 20
1.0033
 30
0.0000
 42
1.0000
  0
SEQEND
  8
0
  0
POLYLINE
  8
1
 66
1
 10
0.0000
 20
0.0000
 30
0.0000
 40
0.0000
 41
0.0000
 70
1
  0
VERTEX
  8
1
 10
85.4041
 20
1.1512
 30
0.0000
  0
VERTEX
  8
1
 10
84.6923
 20
1.6258
 30
0.0000
 42
1.0000
  0
VERTEX
  8
1
 10
84.4950
 20
1.3299
 30
0.0000
  0
VERTEX
  8
1
 10
85.2069
 20
0.8554
 30
0.0000
 42
1.0000
  0
SEQEND
  8
0
  0
POLYLINE
  8
1
 66
1
 10
0.0000
 20
0.0000
 30
0.0000
 40
0.0000
 41
0.0000
 70
1
  0
VERTEX
  8
1
 10
84.6923
 20
1.3299
 30
0.0000
  0
VERTEX
  8
1
 10
85.4041
 20
1.8044
 30
0.0000
 42
1.0000
  0
VERTEX
  8
1
 10
85.2069
 20
2.1003
 30
0.0000
  0
VERTEX
  8
1
 10
84.4950
 20
1.6258
 30
0.0000
 42
1.0000
  0
SEQEND
  8
0
  0
POLYLINE
  8
1
 66
1
 10
0.0000
 20
0.0000
 30
0.0000
 40
0.0000
 41
0.0000
 70
1
  0
VERTEX
  8
1
 10
86.1358
 20
1.0033
 30
0.0000
  0
VERTEX
  8
1
 10
86.1358
 20
1.2406
 30
0.0000
 42
1.0000
  0
VERTEX
  8
1
 10
85.7802
 20
1.2406
 30
0.0000
  0
VERTEX
  8
1
 10
85.7802
 20
1.0033
 30
0.0000
 42
1.0000
  0
SEQEND
  8
0
  0
POLYLINE
  8
1
 66
1
 10
0.0000
 20
0.0000
 30
0.0000
 40
0.0000
 41
0.0000
 70
1
  0
VERTEX
  8
1
 10
85.9580
 20
1.0628
 30
0.0000
  0
VERTEX
  8
1
 10
86.1952
 20
1.0628
 30
0.0000
 42
1.0000
  0
VERTEX
  8
1
 10
86.1952
 20
1.4184
 30
0.0000
  0
VERTEX
  8
1
 10
85.9580
 20
1.4184
 30
0.0000
 42
1.0000
  0
SEQEND
  8
0
  0
POLYLINE
  8
1
 66
1
 10
0.0000
 20
0.0000
 30
0.0000
 40
0.0000
 41
0.0000
 70
1
  0
VERTEX
  8
1
 10
86.0174
 20
1.2406
 30
0.0000
  0
VERTEX
  8
1
 10
86.0174
 20
1.0033
 30
0.0000
 42
1.0000
  0
VERTEX
  8
1
 10
86.3730
 20
1.0033
 30
0.0000
  0
VERTEX
  8
1
 10
86.3730
 20
1.2406
 30
0.0000
 42
1.0000
  0
SEQEND
  8
0
  0
POLYLINE
  8
1
 66
1
 10
0.0000
 20
0.0000
 30
0.0000
 40
0.0000
 41
0.0000
 70
1
  0
VERTEX
  8
1
 10
86.1952
 20
1.1811
 30
0.0000
  0
VERTEX
  8
1
 10
85.9580
 20
1.1811
 30
0.0000
 42
1.0000
  0
VERTEX
  8
1
 10
85.9580
 20
0.8255
 30
0.0000
  0
VERTEX
  8
1
 10
86.1952
 20
0.8255
 30
0.0000
 42
1.0000
  0
SEQEND
  8
0
  0
POLYLINE
  8
1
 66
1
 10
0.0000
 20
0.0000
 30
0.0000
 40
0.0000
 41
0.0000
 70
1
  0
VERTEX
  8
1
 10
87.5478
 20
2.4269
 30
0.0000
  0
VERTEX
  8
1
 10
87.5478
 20
1.0033
 30
0.0000
 42
1.0000
  0
VERTEX
  8
1
 10
87.9034
 20
1.0033
 30
0.0000
  0
VERTEX
  8
1
 10
87.9034
 20
2.4269
 30
0.0000
 42
1.0000
  0
SEQEND
  8
0
  0
POLYLINE
  8
1
 66
1
 10
0.0000
 20
0.0000
 30
0.0000
 40
0.0000
 41
0.0000
 70
1
  0
VERTEX
  8
1
 10
87.7256
 20
1.1811
 30
0.0000
  0
VERTEX
  8
1
 10
87.0138
 20
1.1811
 30
0.0000
 42
1.0000
  0
VERTEX
  8
1
 10
87.0138
 20
0.8255
 30
0.0000
  0
VERTEX
  8
1
 10
87.7256
 20
0.8255
 30
0.0000
 42
1.0000
  0
SEQEND
  8
0
  0
POLYLINE
  8
1
 66
1
 10
0.0000
 20
0.0000
 30
0.0000
 40
0.0000
 41
0.0000
 70
1
  0
VERTEX
  8
1
 10
87.1395
 20
1.1290
 30
0.0000
  0
VERTEX
  8
1
 10
86.9023
 20
1.3663
 30
0.0000
 42
1.0000
  0
VERTEX
  8
1
 10
86.6508
 20
1.1148
 30
0.0000
  0
VERTEX
  8
1
 10
86.8881
 20
0.8776
 30
0.0000
 42
1.0000
  0
SEQEND
  8
0
  0
POLYLINE
  8
1
 66
1
 10
0.0000
 20
0.0000
 30
0.0000
 40
0.0000
 41
0.0000
 70
1
  0
VERTEX
  8
1
 10
86.9544
 20
1.2406
 30
0.0000
  0
VERTEX
  8
1
 10
86.9544
 20
1.7151
 30
0.0000
 42
1.0000
  0
VERTEX
  8
1
 10
86.5987
 20
1.7151
 30
0.0000
  0
VERTEX
  8
1
 10
86.5987
 20
1.2406
 30
0.0000
 42
1.0000
  0
SEQEND
  8
0
  0
POLYLINE
  8
1
 66
1
 10
0.0000
 20
0.0000
 30
0.0000
 40
0.0000
 41
0.0000
 70
1
  0
VERTEX
  8
1
 10
86.9023
 20
1.5894
 30
0.0000
  0
VERTEX
  8
1
 10
87.1395
 20
1.8267
 30
0.0000
 42
1.0000
  0
VERTEX
  8
1
 10
86.8881
 20
2.0781
 30
0.0000
  0
VERTEX
  8
1
 10
86.6508
 20
1.8408
 30
0.0000
 42
1.0000
  0
SEQEND
  8
0
  0
POLYLINE
  8
1
 66
1
 10
0.0000
 20
0.0000
 30
0.0000
 40
0.0000
 41
0.0000
 70
1
  0
VERTEX
  8
1
 10
87.0138
 20
1.7746
 30
0.0000
  0
VERTEX
  8
1
 10
87.7256
 20
1.7746
 30
0.0000
 42
1.0000
  0
VERTEX
  8
1
 10
87.7256
 20
2.1302
 30
0.0000
  0
VERTEX
  8
1
 10
87.0138
 20
2.1302
 30
0.0000
 42
1.0000
  0
SEQEND
  8
0
  0
POLYLINE
  8
1
 66
1
 10
0.0000
 20
0.0000
 30
0.0000
 40
0.0000
 41
0.0000
 70
1
  0
VERTEX
  8
1
 10
89.1255
 20
1.1811
 30
0.0000
  0
VERTEX
  8
1
 10
88.6510
 20
1.1811
 30
0.0000
 42
1.0000
  0
VERTEX
  8
1
 10
88.6510
 20
0.8255
 30
0.0000
  0
VERTEX
  8
1
 10
89.1255
 20
0.8255
 30
0.0000
 42
1.0000
  0
SEQEND
  8
0
  0
POLYLINE
  8
1
 66
1
 10
0.0000
 20
0.0000
 30
0.0000
 40
0.0000
 41
0.0000
 70
1
  0
VERTEX
  8
1
 10
88.7767
 20
1.1290
 30
0.0000
  0
VERTEX
  8
1
 10
88.5394
 20
1.3663
 30
0.0000
 42
1.0000
  0
VERTEX
  8
1
 10
88.2880
 20
1.1148
 30
0.0000
  0
VERTEX
  8
1
 10
88.5253
 20
0.8776
 30
0.0000
 42
1.0000
  0
SEQEND
  8
0
  0
POLYLINE
  8
1
 66
1
 10
0.0000
 20
0.0000
 30
0.0000
 40
0.0000
 41
0.0000
 70
1
  0
VERTEX
  8
1
 10
88.5915
 20
1.2406
 30
0.0000
  0
VERTEX
  8
1
 10
88.5915
 20
1.7151
 30
0.0000
 42
1.0000
  0
VERTEX
  8
1
 10
88.2359
 20
1.7151
 30
0.0000
  0
VERTEX
  8
1
 10
88.2359
 20
1.2406
 30
0.0000
 42
1.0000
  0
SEQEND
  8
0
  0
POLYLINE
  8
1
 66
1
 10
0.0000
 20
0.0000
 30
0.0000
 40
0.0000
 41
0.0000
 70
1
  0
VERTEX
  8
1
 10
88.5394
 20
1.5894
 30
0.0000
  0
VERTEX
  8
1
 10
88.7767
 20
1.8267
 30
0.0000
 42
1.0000
  0
VERTEX
  8
1
 10
88.5253
 20
2.0781
 30
0.0000
  0
VERTEX
  8
1
 10
88.2880
 20
1.8408
 30
0.0000
 42
1.0000
  0
SEQEND
  8
0
  0
POLYLINE
  8
1
 66
1
 10
0.0000
 20
0.0000
 30
0.0000
 40
0.0000
 41
0.0000
 70
1
  0
VERTEX
  8
1
 10
88.6510
 20
1.7746
 30
0.0000
  0
VERTEX
  8
1
 10
89.1255
 20
1.7746
 30
0.0000
 42
1.0000
  0
VERTEX
  8
1
 10
89.1255
 20
2.1302
 30
0.0000
  0
VERTEX
  8
1
 10
88.6510
 20
2.1302
 30
0.0000
 42
1.0000
  0
SEQEND
  8
0
  0
POLYLINE
  8
1
 66
1
 10
0.0000
 20
0.0000
 30
0.0000
 40
0.0000
 41
0.0000
 70
1
  0
VERTEX
  8
1
 10
88.9998
 20
1.8267
 30
0.0000
  0
VERTEX
  8
1
 10
89.2371
 20
1.5894
 30
0.0000
 42
1.0000
  0
VERTEX
  8
1
 10
89.4885
 20
1.8408
 30
0.0000
  0
VERTEX
  8
1
 10
89.2512
 20
2.0781
 30
0.0000
 42
1.0000
  0
SEQEND
  8
0
  0
POLYLINE
  8
1
 66
1
 10
0.0000
 20
0.0000
 30
0.0000
 40
0.0000
 41
0.0000
 70
1
  0
VERTEX
  8
1
 10
89.1850
 20
1.7151
 30
0.0000
  0
VERTEX
  8
1
 10
89.1850
 20
1.4778
 30
0.0000
 42
1.0000
  0
VERTEX
  8
1
 10
89.5406
 20
1.4778
 30
0.0000
  0
VERTEX
  8
1
 10
89.5406
 20
1.7151
 30
0.0000
 42
1.0000
  0
SEQEND
  8
0
  0
POLYLINE
  8
1
 66
1
 10
0.0000
 20
0.0000
 30
0.0000
 40
0.0000
 41
0.0000
 70
1
  0
VERTEX
  8
1
 10
89.3628
 20
1.6556
 30
0.0000
  0
VERTEX
  8
1
 10
88.4137
 20
1.6556
 30
0.0000
 42
1.0000
  0
VERTEX
  8
1
 10
88.4137
 20
1.3000
 30
0.0000
  0
VERTEX
  8
1
 10
89.3628
 20
1.3000
 30
0.0000
 42
1.0000
  0
SEQEND
  8
0
  0
CIRCLE
  8
20
 10
28.6350
 20
27.5000
 30
0.0000
 40
2.9000
  0
CIRCLE
  8
20
 10
11.5000
 20
52.5000
 30
0.0000
 40
1.0922
  0
CIRCLE
  8
20
 10
62.5000
 20
52.5000
 30
0.0000
 40
1.0922
  0
CIRCLE
  8
20
 10
11.5000
 20
2.5000
 30
0.0000
 40
1.0922
  0
CIRCLE
  8
20
 10
62.5000
 20
2.5000
 30
0.0000
 40
1.0922
  0
CIRCLE
  8
20
 10
0.9525
 20
50.3555
 30
0.0000
 40
0.5080
  0
CIRCLE
  8
20
 10
2.2860
 20
50.6730
 30
0.0000
 40
0.5080
  0
CIRCLE
  8
20
 10
3.5560
 20
50.9270
 30
0.0000
 40
0.5080
  0
CIRCLE
  8
20
 10
4.5720
 20
51.6890
 30
0.0000
 40
0.5080
  0
CIRCLE
  8
20
 10
5.2070
 20
54.1020
 30
0.0000
 40
0.5080
  0
CIRCLE
  8
20
 10
95.1865
 20
5.2070
 30
0.0000
 40
0.5080
  0
CIRCLE
  8
20
 10
93.9165
 20
5.1435
 30
0.0000
 40
0.5080
  0
CIRCLE
  8
20
 10
92.7735
 20
4.8260
 30
0.0000
 40
0.5080
  0
CIRCLE
  8
20
 10
91.0590
 20
3.1115
 30
0.0000
 40
0.5080
  0
CIRCLE
  8
20
 10
90.7415
 20
1.9685
 30
0.0000
 40
0.5080
  0
CIRCLE
  8
20
 10
90.8685
 20
0.6985
 30
0.0000
 40
0.5080
  0
CIRCLE
  8
20
 10
90.3000
 20
52.5000
 30
0.0000
 40
1.0922
  0
CIRCLE
  8
20
 10
94.5000
 20
7.1000
 30
0.0000
 40
1.0922
  0
CIRCLE
  8
20
 10
91.5670
 20
4.2545
 30
0.0000
 40
0.5080
  0
CIRCLE
  8
20
 10
5.0800
 20
52.8320
 30
0.0000
 40
0.5080
  0
INSERT
  8
17
  2
LONGP100
 10
77.5600
 20
8.2500
 30
0.0000
 41
1.5240
 42
1.5240
 43
1.0000
 50
180.0000
  0
INSERT
  8
17
  2
LONGP100
 10
83.0600
 20
11.7500
 30
0.0000
 41
1.5240
 42
1.5240
 43
1.0000
 50
180.0000
  0
INSERT
  8
17
  2
LONGP100
 10
77.5600
 20
15.2500
 30
0.0000
 41
1.5240
 42
1.5240
 43
1.0000
 50
180.0000
  0
INSERT
  8
17
  2
LONGP100
 10
83.0600
 20
18.7500
 30
0.0000
 41
1.5240
 42
1.5240
 43
1.0000
 50
180.0000
  0
INSERT
  8
17
  2
LONGP100
 10
77.5600
 20
22.2500
 30
0.0000
 41
1.5240
 42
1.5240
 43
1.0000
 50
180.0000
  0
INSERT
  8
17
  2
LONGP100
 10
83.0600
 20
25.7500
 30
0.0000
 41
1.5240
 42
1.5240
 43
1.0000
 50
180.0000
  0
INSERT
  8
17
  2
LONGP100
 10
77.5600
 20
29.2500
 30
0.0000
 41
1.5240
 42
1.5240
 43
1.0000
 50
180.0000
  0
INSERT
  8
17
  2
LONGP100
 10
83.0600
 20
32.7500
 30
0.0000
 41
1.5240
 42
1.5240
 43
1.0000
 50
180.0000
  0
INSERT
  8
17
  2
LONGP100
 10
77.5600
 20
36.2500
 30
0.0000
 41
1.5240
 42
1.5240
 43
1.0000
 50
180.0000
  0
INSERT
  8
17
  2
LONGP100
 10
83.0600
 20
39.7500
 30
0.0000
 41
1.5240
 42
1.5240
 43
1.0000
 50
180.0000
  0
INSERT
  8
17
  2
LONGP100
 10
77.5600
 20
43.2500
 30
0.0000
 41
1.5240
 42
1.5240
 43
1.0000
 50
180.0000
  0
INSERT
  8
17
  2
LONGP100
 10
83.0600
 20
46.7500
 30
0.0000
 41
1.5240
 42
1.5240
 43
1.0000
 50
180.0000
  0
INSERT
  8
17
  2
LONGP100
 10
66.7650
 20
8.2500
 30
0.0000
 41
1.5240
 42
1.5240
 43
1.0000
 50
180.0000
  0
INSERT
  8
17
  2
LONGP100
 10
72.2650
 20
11.7500
 30
0.0000
 41
1.5240
 42
1.5240
 43
1.0000
 50
180.0000
  0
INSERT
  8
17
  2
LONGP100
 10
66.7650
 20
15.2500
 30
0.0000
 41
1.5240
 42
1.5240
 43
1.0000
 50
180.0000
  0
INSERT
  8
17
  2
LONGP100
 10
72.2650
 20
18.7500
 30
0.0000
 41
1.5240
 42
1.5240
 43
1.0000
 50
180.0000
  0
INSERT
  8
17
  2
LONGP100
 10
66.7650
 20
22.2500
 30
0.0000
 41
1.5240
 42
1.5240
 43
1.0000
 50
180.0000
  0
INSERT
  8
17
  2
LONGP100
 10
72.2650
 20
25.7500
 30
0.0000
 41
1.5240
 42
1.5240
 43
1.0000
 50
180.0000
  0
INSERT
  8
17
  2
LONGP100
 10
66.7650
 20
29.2500
 30
0.0000
 41
1.5240
 42
1.5240
 43
1.0000
 50
180.0000
  0
INSERT
  8
17
  2
LONGP100
 10
72.2650
 20
32.7500
 30
0.0000
 41
1.5240
 42
1.5240
 43
1.0000
 50
180.0000
  0
INSERT
  8
17
  2
LONGP100
 10
66.7650
 20
36.2500
 30
0.0000
 41
1.5240
 42
1.5240
 43
1.0000
 50
180.0000
  0
INSERT
  8
17
  2
LONGP100
 10
72.2650
 20
39.7500
 30
0.0000
 41
1.5240
 42
1.5240
 43
1.0000
 50
180.0000
  0
INSERT
  8
17
  2
LONGP100
 10
66.7650
 20
43.2500
 30
0.0000
 41
1.5240
 42
1.5240
 43
1.0000
 50
180.0000
  0
INSERT
  8
17
  2
LONGP100
 10
72.2650
 20
46.7500
 30
0.0000
 41
1.5240
 42
1.5240
 43
1.0000
 50
180.0000
  0
INSERT
  8
17
  2
OCTAGONP
 10
60.3250
 20
27.9400
 30
0.0000
 41
1.2192
 42
1.2192
 43
1.0000
 50
90.0000
  0
INSERT
  8
17
  2
OCTAGONP
 10
62.2300
 20
29.2100
 30
0.0000
 41
1.2192
 42
1.2192
 43
1.0000
 50
90.0000
  0
INSERT
  8
17
  2
OCTAGONP
 10
62.2300
 20
26.6700
 30
0.0000
 41
1.2192
 42
1.2192
 43
1.0000
 50
90.0000
  0
CIRCLE
  8
20
 10
50.1650
 20
48.2360
 30
0.0000
 40
1.6510
  0
INSERT
  8
17
  2
LONGP100
 10
47.6250
 20
31.7500
 30
0.0000
 41
1.5240
 42
1.5240
 43
1.0000
 50
90.0000
  0
INSERT
  8
17
  2
LONGP100
 10
50.1650
 20
31.7500
 30
0.0000
 41
1.5240
 42
1.5240
 43
1.0000
 50
90.0000
  0
INSERT
  8
17
  2
LONGP100
 10
52.7050
 20
31.7500
 30
0.0000
 41
1.5240
 42
1.5240
 43
1.0000
 50
90.0000
  0
INSERT
  8
17
  2
OCTAGONP
 10
44.4500
 20
28.5750
 30
0.0000
 41
1.2192
 42
1.2192
 43
1.0000
 50
0.0000
  0
INSERT
  8
17
  2
OCTAGONP
 10
54.6100
 20
28.5750
 30
0.0000
 41
1.2192
 42
1.2192
 43
1.0000
 50
0.0000
  0
INSERT
  8
17
  2
OCTAGONP
 10
2.5400
 20
1.5875
 30
0.0000
 41
1.6002
 42
1.6002
 43
1.0000
 50
90.0000
  0
INSERT
  8
17
  2
OCTAGONP
 10
2.5400
 20
19.3675
 30
0.0000
 41
1.6002
 42
1.6002
 43
1.0000
 50
90.0000
  0
INSERT
  8
17
  2
OCTAGONP
 10
2.5400
 20
21.9075
 30
0.0000
 41
1.6002
 42
1.6002
 43
1.0000
 50
90.0000
  0
INSERT
  8
17
  2
OCTAGONP
 10
2.5400
 20
39.6875
 30
0.0000
 41
1.6002
 42
1.6002
 43
1.0000
 50
90.0000
  0
INSERT
  8
1
  2
RECT
 10
92.3290
 20
11.7450
 30
0.0000
 41
1.3000
 42
1.5000
 43
1.0000
 50
270.0000
  0
INSERT
  8
1
  2
RECT
 10
92.3290
 20
9.8450
 30
0.0000
 41
1.3000
 42
1.5000
 43
1.0000
 50
270.0000
  0
INSERT
  8
17
  2
ROUNDP
 10
36.0680
 20
5.8420
 30
0.0000
 41
1.4224
 42
1.4224
 43
1.0000
 50
180.0000
  0
INSERT
  8
17
  2
LONGP100
 10
17.7850
 20
49.2800
 30
0.0000
 41
2.1844
 42
2.1844
 43
1.0000
 50
0.0000
  0
INSERT
  8
17
  2
LONGP100
 10
17.7850
 20
45.3200
 30
0.0000
 41
2.1844
 42
2.1844
 43
1.0000
 50
0.0000
  0
INSERT
  8
17
  2
LONGP100
 10
17.7850
 20
41.3600
 30
0.0000
 41
2.1844
 42
2.1844
 43
1.0000
 50
0.0000
  0
INSERT
  8
17
  2
LONGP100
 10
17.7850
 20
37.4000
 30
0.0000
 41
2.1844
 42
2.1844
 43
1.0000
 50
0.0000
  0
INSERT
  8
17
  2
LONGP100
 10
17.7850
 20
33.4400
 30
0.0000
 41
2.1844
 42
2.1844
 43
1.0000
 50
0.0000
  0
INSERT
  8
17
  2
LONGP100
 10
17.7850
 20
29.4800
 30
0.0000
 41
2.1844
 42
2.1844
 43
1.0000
 50
0.0000
  0
INSERT
  8
17
  2
LONGP100
 10
17.7850
 20
25.5200
 30
0.0000
 41
2.1844
 42
2.1844
 43
1.0000
 50
0.0000
  0
INSERT
  8
17
  2
LONGP100
 10
17.7850
 20
21.5600
 30
0.0000
 41
2.1844
 42
2.1844
 43
1.0000
 50
0.0000
  0
INSERT
  8
17
  2
LONGP100
 10
17.7850
 20
17.6000
 30
0.0000
 41
2.1844
 42
2.1844
 43
1.0000
 50
0.0000
  0
INSERT
  8
17
  2
LONGP100
 10
17.7850
 20
13.6400
 30
0.0000
 41
2.1844
 42
2.1844
 43
1.0000
 50
0.0000
  0
INSERT
  8
17
  2
LONGP100
 10
17.7850
 20
9.6800
 30
0.0000
 41
2.1844
 42
2.1844
 43
1.0000
 50
0.0000
  0
INSERT
  8
17
  2
LONGP100
 10
17.7850
 20
5.7200
 30
0.0000
 41
2.1844
 42
2.1844
 43
1.0000
 50
0.0000
  0
INSERT
  8
17
  2
LONGP100
 10
39.4850
 20
49.2800
 30
0.0000
 41
2.1844
 42
2.1844
 43
1.0000
 50
0.0000
  0
INSERT
  8
17
  2
LONGP100
 10
39.4850
 20
45.3200
 30
0.0000
 41
2.1844
 42
2.1844
 43
1.0000
 50
0.0000
  0
INSERT
  8
17
  2
LONGP100
 10
39.4850
 20
41.3600
 30
0.0000
 41
2.1844
 42
2.1844
 43
1.0000
 50
0.0000
  0
INSERT
  8
17
  2
LONGP100
 10
39.4850
 20
37.4000
 30
0.0000
 41
2.1844
 42
2.1844
 43
1.0000
 50
0.0000
  0
INSERT
  8
17
  2
LONGP100
 10
39.4850
 20
33.4400
 30
0.0000
 41
2.1844
 42
2.1844
 43
1.0000
 50
0.0000
  0
INSERT
  8
17
  2
LONGP100
 10
39.4850
 20
29.4800
 30
0.0000
 41
2.1844
 42
2.1844
 43
1.0000
 50
0.0000
  0
INSERT
  8
17
  2
LONGP100
 10
39.4850
 20
25.5200
 30
0.0000
 41
2.1844
 42
2.1844
 43
1.0000
 50
0.0000
  0
INSERT
  8
17
  2
LONGP100
 10
39.4850
 20
21.5600
 30
0.0000
 41
2.1844
 42
2.1844
 43
1.0000
 50
0.0000
  0
INSERT
  8
17
  2
LONGP100
 10
39.4850
 20
17.6000
 30
0.0000
 41
2.1844
 42
2.1844
 43
1.0000
 50
0.0000
  0
INSERT
  8
17
  2
LONGP100
 10
39.4850
 20
13.6400
 30
0.0000
 41
2.1844
 42
2.1844
 43
1.0000
 50
0.0000
  0
INSERT
  8
17
  2
LONGP100
 10
39.4850
 20
9.6800
 30
0.0000
 41
2.1844
 42
2.1844
 43
1.0000
 50
0.0000
  0
INSERT
  8
17
  2
LONGP100
 10
39.4850
 20
5.7200
 30
0.0000
 41
2.1844
 42
2.1844
 43
1.0000
 50
0.0000
  0
INSERT
  8
17
  2
LONGP100
 10
88.2650
 20
8.8900
 30
0.0000
 41
1.4064
 42
1.4064
 43
1.0000
 50
180.0000
  0
INSERT
  8
17
  2
LONGP100
 10
88.2650
 20
11.4300
 30
0.0000
 41
1.4064
 42
1.4064
 43
1.0000
 50
180.0000
  0
INSERT
  8
17
  2
LONGP100
 10
83.5025
 20
51.4350
 30
0.0000
 41
1.4064
 42
1.4064
 43
1.0000
 50
270.0000
  0
INSERT
  8
17
  2
LONGP100
 10
80.9625
 20
51.4350
 30
0.0000
 41
1.4064
 42
1.4064
 43
1.0000
 50
270.0000
  0
INSERT
  8
17
  2
LONGP100
 10
78.4225
 20
51.4350
 30
0.0000
 41
1.4064
 42
1.4064
 43
1.0000
 50
270.0000
  0
INSERT
  8
17
  2
LONGP100
 10
75.8825
 20
51.4350
 30
0.0000
 41
1.4064
 42
1.4064
 43
1.0000
 50
270.0000
  0
INSERT
  8
17
  2
LONGP100
 10
73.3425
 20
51.4350
 30
0.0000
 41
1.4064
 42
1.4064
 43
1.0000
 50
270.0000
  0
INSERT
  8
17
  2
LONGP100
 10
7.9375
 20
38.7350
 30
0.0000
 41
1.4064
 42
1.4064
 43
1.0000
 50
180.0000
  0
INSERT
  8
17
  2
LONGP100
 10
7.9375
 20
41.2750
 30
0.0000
 41
1.4064
 42
1.4064
 43
1.0000
 50
180.0000
  0
INSERT
  8
17
  2
LONGP100
 10
7.9375
 20
43.8150
 30
0.0000
 41
1.4064
 42
1.4064
 43
1.0000
 50
180.0000
  0
INSERT
  8
17
  2
LONGP100
 10
7.9375
 20
46.3550
 30
0.0000
 41
1.4064
 42
1.4064
 43
1.0000
 50
180.0000
  0
INSERT
  8
17
  2
LONGP100
 10
7.9375
 20
48.8950
 30
0.0000
 41
1.4064
 42
1.4064
 43
1.0000
 50
180.0000
  0
INSERT
  8
17
  2
ROUNDP
 10
43.1800
 20
37.8460
 30
0.0000
 41
1.4224
 42
1.4224
 43
1.0000
 50
180.0000
  0
POLYLINE
  8
1
 66
1
 10
0.0000
 20
0.0000
 30
0.0000
 40
0.0000
 41
0.0000
 70
1
  0
VERTEX
  8
1
 10
66.9758
 20
8.4702
 30
0.0000
  0
VERTEX
  8
1
 10
64.9858
 20
10.3752
 30
0.0000
 42
1.0000
  0
VERTEX
  8
1
 10
64.5642
 20
9.9348
 30
0.0000
  0
VERTEX
  8
1
 10
66.5542
 20
8.0298
 30
0.0000
 42
1.0000
  0
SEQEND
  8
0
  0
POLYLINE
  8
1
 66
1
 10
0.0000
 20
0.0000
 30
0.0000
 40
0.0000
 41
0.0000
 70
1
  0
VERTEX
  8
1
 10
64.7753
 20
10.4598
 30
0.0000
  0
VERTEX
  8
1
 10
60.0078
 20
10.4648
 30
0.0000
 42
1.0000
  0
VERTEX
  8
1
 10
60.0072
 20
9.8552
 30
0.0000
  0
VERTEX
  8
1
 10
64.7747
 20
9.8502
 30
0.0000
 42
1.0000
  0
SEQEND
  8
0
  0
POLYLINE
  8
1
 66
1
 10
0.0000
 20
0.0000
 30
0.0000
 40
0.0000
 41
0.0000
 70
1
  0
VERTEX
  8
1
 10
62.5348
 20
29.2100
 30
0.0000
  0
VERTEX
  8
1
 10
62.5348
 20
36.8300
 30
0.0000
 42
1.0000
  0
VERTEX
  8
1
 10
61.9252
 20
36.8300
 30
0.0000
  0
VERTEX
  8
1
 10
61.9252
 20
29.2100
 30
0.0000
 42
1.0000
  0
SEQEND
  8
0
  0
POLYLINE
  8
1
 66
1
 10
0.0000
 20
0.0000
 30
0.0000
 40
0.0000
 41
0.0000
 70
1
  0
VERTEX
  8
1
 10
62.4594
 20
37.0307
 30
0.0000
  0
VERTEX
  8
1
 10
60.2369
 20
39.5707
 30
0.0000
 42
1.0000
  0
VERTEX
  8
1
 10
59.7781
 20
39.1693
 30
0.0000
  0
VERTEX
  8
1
 10
62.0006
 20
36.6293
 30
0.0000
 42
1.0000
  0
SEQEND
  8
0
  0
POLYLINE
  8
1
 66
1
 10
0.0000
 20
0.0000
 30
0.0000
 40
0.0000
 41
0.0000
 70
1
  0
VERTEX
  8
1
 10
60.0075
 20
39.6748
 30
0.0000
  0
VERTEX
  8
1
 10
42.2275
 20
39.6748
 30
0.0000
 42
1.0000
  0
VERTEX
  8
1
 10
42.2275
 20
39.0652
 30
0.0000
  0
VERTEX
  8
1
 10
60.0075
 20
39.0652
 30
0.0000
 42
1.0000
  0
SEQEND
  8
0
  0
POLYLINE
  8
1
 66
1
 10
0.0000
 20
0.0000
 30
0.0000
 40
0.0000
 41
0.0000
 70
1
  0
VERTEX
  8
1
 10
42.2275
 20
39.5986
 30
0.0000
  0
VERTEX
  8
1
 10
35.8775
 20
39.5986
 30
0.0000
 42
1.0000
  0
VERTEX
  8
1
 10
35.8775
 20
39.1414
 30
0.0000
  0
VERTEX
  8
1
 10
42.2275
 20
39.1414
 30
0.0000
 42
1.0000
  0
SEQEND
  8
0
  0
POLYLINE
  8
1
 66
1
 10
0.0000
 20
0.0000
 30
0.0000
 40
0.0000
 41
0.0000
 70
1
  0
VERTEX
  8
1
 10
86.9950
 20
51.6382
 30
0.0000
  0
VERTEX
  8
1
 10
83.5025
 20
51.6382
 30
0.0000
 42
1.0000
  0
VERTEX
  8
1
 10
83.5025
 20
51.2318
 30
0.0000
  0
VERTEX
  8
1
 10
86.9950
 20
51.2318
 30
0.0000
 42
1.0000
  0
SEQEND
  8
0
  0
INSERT
  8
18
  2
ROUNDV
 10
60.0075
 20
10.1600
 30
0.0000
 41
0.9048
 42
0.9048
 43
1.0000
 50
0.0000
  0
INSERT
  8
18
  2
ROUNDV
 10
35.8775
 20
39.3700
 30
0.0000
 41
0.9048
 42
0.9048
 43
1.0000
 50
0.0000
  0
INSERT
  8
18
  2
ROUNDV
 10
86.9950
 20
51.4350
 30
0.0000
 41
0.9048
 42
0.9048
 43
1.0000
 50
0.0000
  0
POLYLINE
  8
1
 66
1
 10
0.0000
 20
0.0000
 30
0.0000
 40
0.0000
 41
0.0000
 70
1
  0
VERTEX
  8
1
 10
88.3081
 20
11.1283
 30
0.0000
  0
VERTEX
  8
1
 10
90.5306
 20
11.4458
 30
0.0000
 42
1.0000
  0
VERTEX
  8
1
 10
90.4444
 20
12.0492
 30
0.0000
  0
VERTEX
  8
1
 10
88.2219
 20
11.7317
 30
0.0000
 42
1.0000
  0
SEQEND
  8
0
  0
POLYLINE
  8
1
 66
1
 10
0.0000
 20
0.0000
 30
0.0000
 40
0.0000
 41
0.0000
 70
1
  0
VERTEX
  8
1
 10
90.4875
 20
11.4427
 30
0.0000
  0
VERTEX
  8
1
 10
92.0750
 20
11.4427
 30
0.0000
 42
1.0000
  0
VERTEX
  8
1
 10
92.0750
 20
12.0523
 30
0.0000
  0
VERTEX
  8
1
 10
90.4875
 20
12.0523
 30
0.0000
 42
1.0000
  0
SEQEND
  8
0
  0
POLYLINE
  8
1
 66
1
 10
0.0000
 20
0.0000
 30
0.0000
 40
0.0000
 41
0.0000
 70
1
  0
VERTEX
  8
1
 10
21.5773
 20
27.6225
 30
0.0000
  0
VERTEX
  8
1
 10
21.5773
 20
28.2575
 30
0.0000
 42
1.0000
  0
VERTEX
  8
1
 10
20.9677
 20
28.2575
 30
0.0000
  0
VERTEX
  8
1
 10
20.9677
 20
27.6225
 30
0.0000
 42
1.0000
  0
SEQEND
  8
0
  0
POLYLINE
  8
1
 66
1
 10
0.0000
 20
0.0000
 30
0.0000
 40
0.0000
 41
0.0000
 70
1
  0
VERTEX
  8
1
 10
21.5510
 20
28.1337
 30
0.0000
  0
VERTEX
  8
1
 10
22.8210
 20
30.9912
 30
0.0000
 42
1.0000
  0
VERTEX
  8
1
 10
22.2640
 20
31.2388
 30
0.0000
  0
VERTEX
  8
1
 10
20.9940
 20
28.3813
 30
0.0000
 42
1.0000
  0
SEQEND
  8
0
  0
POLYLINE
  8
1
 66
1
 10
0.0000
 20
0.0000
 30
0.0000
 40
0.0000
 41
0.0000
 70
1
  0
VERTEX
  8
1
 10
22.8473
 20
31.1150
 30
0.0000
  0
VERTEX
  8
1
 10
22.8473
 20
32.7025
 30
0.0000
 42
1.0000
  0
VERTEX
  8
1
 10
22.2377
 20
32.7025
 30
0.0000
  0
VERTEX
  8
1
 10
22.2377
 20
31.1150
 30
0.0000
 42
1.0000
  0
SEQEND
  8
0
  0
POLYLINE
  8
1
 66
1
 10
0.0000
 20
0.0000
 30
0.0000
 40
0.0000
 41
0.0000
 70
1
  0
VERTEX
  8
1
 10
58.5029
 20
45.4721
 30
0.0000
  0
VERTEX
  8
1
 10
57.9949
 20
48.3931
 30
0.0000
 42
1.0000
  0
VERTEX
  8
1
 10
57.1941
 20
48.2539
 30
0.0000
  0
VERTEX
  8
1
 10
57.7021
 20
45.3329
 30
0.0000
 42
1.0000
  0
SEQEND
  8
0
  0
POLYLINE
  8
1
 66
1
 10
0.0000
 20
0.0000
 30
0.0000
 40
0.0000
 41
0.0000
 70
1
  0
VERTEX
  8
1
 10
59.1908
 20
46.4010
 30
0.0000
  0
VERTEX
  8
1
 10
57.9208
 20
45.7660
 30
0.0000
 42
1.0000
  0
VERTEX
  8
1
 10
58.2842
 20
45.0390
 30
0.0000
  0
VERTEX
  8
1
 10
59.5542
 20
45.6740
 30
0.0000
 42
1.0000
  0
SEQEND
  8
0
  0
POLYLINE
  8
1
 66
1
 10
0.0000
 20
0.0000
 30
0.0000
 40
0.0000
 41
0.0000
 70
1
  0
VERTEX
  8
1
 10
57.2737
 20
48.0740
 30
0.0000
  0
VERTEX
  8
1
 10
59.0517
 20
45.7880
 30
0.0000
 42
1.0000
  0
VERTEX
  8
1
 10
59.6933
 20
46.2870
 30
0.0000
  0
VERTEX
  8
1
 10
57.9153
 20
48.5730
 30
0.0000
 42
1.0000
  0
SEQEND
  8
0
  0
POLYLINE
  8
1
 66
1
 10
0.0000
 20
0.0000
 30
0.0000
 40
0.0000
 41
0.0000
 70
1
  0
VERTEX
  8
1
 10
59.3725
 20
46.6725
 30
0.0000
  0
VERTEX
  8
1
 10
59.0550
 20
46.6725
 30
0.0000
 42
1.0000
  0
VERTEX
  8
1
 10
59.0550
 20
45.4025
 30
0.0000
  0
VERTEX
  8
1
 10
59.3725
 20
45.4025
 30
0.0000
 42
1.0000
  0
SEQEND
  8
0
  0
POLYLINE
  8
1
 66
1
 10
0.0000
 20
0.0000
 30
0.0000
 40
0.0000
 41
0.0000
 70
1
  0
VERTEX
  8
1
 10
59.5040
 20
46.4865
 30
0.0000
  0
VERTEX
  8
1
 10
58.8690
 20
47.1215
 30
0.0000
 42
1.0000
  0
VERTEX
  8
1
 10
57.9710
 20
46.2235
 30
0.0000
  0
VERTEX
  8
1
 10
58.6060
 20
45.5885
 30
0.0000
 42
1.0000
  0
SEQEND
  8
0
  0
INSERT
  8
18
  2
ROUNDV
 10
22.5425
 20
32.7025
 30
0.0000
 41
0.9048
 42
0.9048
 43
1.0000
 50
0.0000
  0
INSERT
  8
18
  2
ROUNDV
 10
21.2725
 20
27.6225
 30
0.0000
 41
0.9048
 42
0.9048
 43
1.0000
 50
0.0000
  0
INSERT
  8
18
  2
ROUNDV
 10
58.1025
 20
45.4025
 30
0.0000
 41
0.9048
 42
0.9048
 43
1.0000
 50
0.0000
  0
INSERT
  8
18
  2
ROUNDV
 10
57.5945
 20
48.3235
 30
0.0000
 41
0.9048
 42
0.9048
 43
1.0000
 50
0.0000
  0
INSERT
  8
18
  2
ROUNDV
 10
59.3725
 20
46.0375
 30
0.0000
 41
0.9048
 42
0.9048
 43
1.0000
 50
0.0000
  0
POLYLINE
  8
1
 66
1
 10
0.0000
 20
0.0000
 30
0.0000
 40
0.0000
 41
0.0000
 70
1
  0
VERTEX
  8
1
 10
66.3586
 20
36.2500
 30
0.0000
  0
VERTEX
  8
1
 10
66.3586
 20
33.5650
 30
0.0000
 42
1.0000
  0
VERTEX
  8
1
 10
67.1714
 20
33.5650
 30
0.0000
  0
VERTEX
  8
1
 10
67.1714
 20
36.2500
 30
0.0000
 42
1.0000
  0
SEQEND
  8
0
  0
POLYLINE
  8
1
 66
1
 10
0.0000
 20
0.0000
 30
0.0000
 40
0.0000
 41
0.0000
 70
1
  0
VERTEX
  8
1
 10
66.4776
 20
33.2776
 30
0.0000
  0
VERTEX
  8
1
 10
69.5626
 20
30.1926
 30
0.0000
 42
1.0000
  0
VERTEX
  8
1
 10
70.1374
 20
30.7674
 30
0.0000
  0
VERTEX
  8
1
 10
67.0524
 20
33.8524
 30
0.0000
 42
1.0000
  0
SEQEND
  8
0
  0
POLYLINE
  8
1
 66
1
 10
0.0000
 20
0.0000
 30
0.0000
 40
0.0000
 41
0.0000
 70
1
  0
VERTEX
  8
1
 10
69.4436
 20
30.4800
 30
0.0000
  0
VERTEX
  8
1
 10
69.4436
 20
27.6225
 30
0.0000
 42
1.0000
  0
VERTEX
  8
1
 10
70.2564
 20
27.6225
 30
0.0000
  0
VERTEX
  8
1
 10
70.2564
 20
30.4800
 30
0.0000
 42
1.0000
  0
SEQEND
  8
0
  0
POLYLINE
  8
1
 66
1
 10
0.0000
 20
0.0000
 30
0.0000
 40
0.0000
 41
0.0000
 70
1
  0
VERTEX
  8
1
 10
69.5626
 20
27.9099
 30
0.0000
  0
VERTEX
  8
1
 10
68.9276
 20
27.2749
 30
0.0000
 42
1.0000
  0
VERTEX
  8
1
 10
69.5024
 20
26.7001
 30
0.0000
  0
VERTEX
  8
1
 10
70.1374
 20
27.3351
 30
0.0000
 42
1.0000
  0
SEQEND
  8
0
  0
POLYLINE
  8
1
 66
1
 10
0.0000
 20
0.0000
 30
0.0000
 40
0.0000
 41
0.0000
 70
1
  0
VERTEX
  8
1
 10
68.8086
 20
26.9875
 30
0.0000
  0
VERTEX
  8
1
 10
68.8086
 20
24.4475
 30
0.0000
 42
1.0000
  0
VERTEX
  8
1
 10
69.6214
 20
24.4475
 30
0.0000
  0
VERTEX
  8
1
 10
69.6214
 20
26.9875
 30
0.0000
 42
1.0000
  0
SEQEND
  8
0
  0
POLYLINE
  8
1
 66
1
 10
0.0000
 20
0.0000
 30
0.0000
 40
0.0000
 41
0.0000
 70
1
  0
VERTEX
  8
1
 10
68.9276
 20
24.1601
 30
0.0000
  0
VERTEX
  8
1
 10
69.5626
 20
23.5251
 30
0.0000
 42
1.0000
  0
VERTEX
  8
1
 10
70.1374
 20
24.0999
 30
0.0000
  0
VERTEX
  8
1
 10
69.5024
 20
24.7349
 30
0.0000
 42
1.0000
  0
SEQEND
  8
0
  0
POLYLINE
  8
1
 66
1
 10
0.0000
 20
0.0000
 30
0.0000
 40
0.0000
 41
0.0000
 70
1
  0
VERTEX
  8
1
 10
69.5327
 20
23.5586
 30
0.0000
  0
VERTEX
  8
1
 10
70.8027
 20
21.9711
 30
0.0000
 42
1.0000
  0
VERTEX
  8
1
 10
71.4373
 20
22.4789
 30
0.0000
  0
VERTEX
  8
1
 10
70.1673
 20
24.0664
 30
0.0000
 42
1.0000
  0
SEQEND
  8
0
  0
POLYLINE
  8
1
 66
1
 10
0.0000
 20
0.0000
 30
0.0000
 40
0.0000
 41
0.0000
 70
1
  0
VERTEX
  8
1
 10
6.5754
 20
5.0594
 30
0.0000
  0
VERTEX
  8
1
 10
7.3017
 20
5.5435
 30
0.0000
 42
1.0000
  0
VERTEX
  8
1
 10
6.8508
 20
6.2198
 30
0.0000
  0
VERTEX
  8
1
 10
6.1246
 20
5.7356
 30
0.0000
 42
1.0000
  0
SEQEND
  8
0
  0
POLYLINE
  8
1
 66
1
 10
0.0000
 20
0.0000
 30
0.0000
 40
0.0000
 41
0.0000
 70
1
  0
VERTEX
  8
1
 10
7.5744
 20
5.6261
 30
0.0000
 42
1.0000
  0
VERTEX
  8
1
 10
7.5744
 20
6.4389
 30
0.0000
 42
0.1481
  0
VERTEX
  8
1
 10
6.8508
 20
6.2198
 30
0.0000
 42
1.0000
  0
VERTEX
  8
1
 10
7.3017
 20
5.5435
 30
0.0000
 42
-0.1481
  0
SEQEND
  8
0
  0
POLYLINE
  8
1
 66
1
 10
0.0000
 20
0.0000
 30
0.0000
 40
0.0000
 41
0.0000
 70
1
  0
VERTEX
  8
1
 10
7.5744
 20
5.6261
 30
0.0000
  0
VERTEX
  8
1
 10
10.7950
 20
5.6261
 30
0.0000
 42
1.0000
  0
VERTEX
  8
1
 10
10.7950
 20
6.4389
 30
0.0000
  0
VERTEX
  8
1
 10
7.5744
 20
6.4389
 30
0.0000
 42
1.0000
  0
SEQEND
  8
0
  0
POLYLINE
  8
1
 66
1
 10
0.0000
 20
0.0000
 30
0.0000
 40
0.0000
 41
0.0000
 70
1
  0
VERTEX
  8
1
 10
10.7446
 20
5.6292
 30
0.0000
  0
VERTEX
  8
1
 10
12.8948
 20
5.3605
 30
0.0000
 42
1.0000
  0
VERTEX
  8
1
 10
12.9957
 20
6.1670
 30
0.0000
  0
VERTEX
  8
1
 10
10.8454
 20
6.4358
 30
0.0000
 42
1.0000
  0
SEQEND
  8
0
  0
POLYLINE
  8
1
 66
1
 10
0.0000
 20
0.0000
 30
0.0000
 40
0.0000
 41
0.0000
 70
1
  0
VERTEX
  8
1
 10
13.3254
 20
5.1499
 30
0.0000
 42
1.0000
  0
VERTEX
  8
1
 10
13.9001
 20
5.7246
 30
0.0000
 42
0.1668
  0
VERTEX
  8
1
 10
12.9957
 20
6.1670
 30
0.0000
 42
1.0000
  0
VERTEX
  8
1
 10
12.8948
 20
5.3605
 30
0.0000
 42
-0.1668
  0
SEQEND
  8
0
  0
POLYLINE
  8
1
 66
1
 10
0.0000
 20
0.0000
 30
0.0000
 40
0.0000
 41
0.0000
 70
1
  0
VERTEX
  8
1
 10
13.3254
 20
5.1499
 30
0.0000
  0
VERTEX
  8
1
 10
15.0622
 20
3.4131
 30
0.0000
 42
1.0000
  0
VERTEX
  8
1
 10
15.6369
 20
3.9878
 30
0.0000
  0
VERTEX
  8
1
 10
13.9001
 20
5.7246
 30
0.0000
 42
1.0000
  0
SEQEND
  8
0
  0
POLYLINE
  8
1
 66
1
 10
0.0000
 20
0.0000
 30
0.0000
 40
0.0000
 41
0.0000
 70
1
  0
VERTEX
  8
1
 10
15.6369
 20
3.9878
 30
0.0000
 42
1.0000
  0
VERTEX
  8
1
 10
15.0622
 20
3.4131
 30
0.0000
 42
0.1989
  0
VERTEX
  8
1
 10
15.8516
 20
3.0861
 30
0.0000
 42
1.0000
  0
VERTEX
  8
1
 10
15.8516
 20
3.8989
 30
0.0000
 42
-0.1989
  0
SEQEND
  8
0
  0
POLYLINE
  8
1
 66
1
 10
0.0000
 20
0.0000
 30
0.0000
 40
0.0000
 41
0.0000
 70
1
  0
VERTEX
  8
1
 10
15.8516
 20
3.0861
 30
0.0000
  0
VERTEX
  8
1
 10
41.6560
 20
3.0861
 30
0.0000
 42
1.0000
  0
VERTEX
  8
1
 10
41.6560
 20
3.8989
 30
0.0000
  0
VERTEX
  8
1
 10
15.8516
 20
3.8989
 30
0.0000
 42
1.0000
  0
SEQEND
  8
0
  0
POLYLINE
  8
1
 66
1
 10
0.0000
 20
0.0000
 30
0.0000
 40
0.0000
 41
0.0000
 70
1
  0
VERTEX
  8
1
 10
41.9243
 20
3.1873
 30
0.0000
  0
VERTEX
  8
1
 10
47.7028
 20
8.2673
 30
0.0000
 42
1.0000
  0
VERTEX
  8
1
 10
47.1662
 20
8.8777
 30
0.0000
  0
VERTEX
  8
1
 10
41.3877
 20
3.7977
 30
0.0000
 42
1.0000
  0
SEQEND
  8
0
  0
POLYLINE
  8
1
 66
1
 10
0.0000
 20
0.0000
 30
0.0000
 40
0.0000
 41
0.0000
 70
1
  0
VERTEX
  8
1
 10
47.4345
 20
8.1661
 30
0.0000
  0
VERTEX
  8
1
 10
63.5000
 20
8.1661
 30
0.0000
 42
1.0000
  0
VERTEX
  8
1
 10
63.5000
 20
8.9789
 30
0.0000
  0
VERTEX
  8
1
 10
47.4345
 20
8.9789
 30
0.0000
 42
1.0000
  0
SEQEND
  8
0
  0
INSERT
  8
18
  2
ROUNDV
 10
71.1200
 20
22.2250
 30
0.0000
 41
0.9048
 42
0.9048
 43
1.0000
 50
0.0000
  0
INSERT
  8
18
  2
ROUNDV
 10
6.3500
 20
5.3975
 30
0.0000
 41
0.9048
 42
0.9048
 43
1.0000
 50
0.0000
  0
INSERT
  8
18
  2
ROUNDV
 10
63.5000
 20
8.5725
 30
0.0000
 41
0.9048
 42
0.9048
 43
1.0000
 50
0.0000
  0
POLYLINE
  8
1
 66
1
 10
0.0000
 20
0.0000
 30
0.0000
 40
0.0000
 41
0.0000
 70
1
  0
VERTEX
  8
1
 10
18.0005
 20
37.1845
 30
0.0000
  0
VERTEX
  8
1
 10
18.0655
 20
37.2495
 30
0.0000
 42
1.0000
  0
VERTEX
  8
1
 10
17.6345
 20
37.6805
 30
0.0000
  0
VERTEX
  8
1
 10
17.5695
 20
37.6155
 30
0.0000
 42
1.0000
  0
SEQEND
  8
0
  0
POLYLINE
  8
1
 66
1
 10
0.0000
 20
0.0000
 30
0.0000
 40
0.0000
 41
0.0000
 70
1
  0
VERTEX
  8
1
 10
17.8500
 20
37.1602
 30
0.0000
  0
VERTEX
  8
1
 10
20.3200
 20
37.1602
 30
0.0000
 42
1.0000
  0
VERTEX
  8
1
 10
20.3200
 20
37.7698
 30
0.0000
  0
VERTEX
  8
1
 10
17.8500
 20
37.7698
 30
0.0000
 42
1.0000
  0
SEQEND
  8
0
  0
POLYLINE
  8
1
 66
1
 10
0.0000
 20
0.0000
 30
0.0000
 40
0.0000
 41
0.0000
 70
1
  0
VERTEX
  8
1
 10
20.5355
 20
37.2495
 30
0.0000
  0
VERTEX
  8
1
 10
34.1880
 20
50.9020
 30
0.0000
 42
1.0000
  0
VERTEX
  8
1
 10
33.7570
 20
51.3330
 30
0.0000
  0
VERTEX
  8
1
 10
20.1045
 20
37.6805
 30
0.0000
 42
1.0000
  0
SEQEND
  8
0
  0
POLYLINE
  8
1
 66
1
 10
0.0000
 20
0.0000
 30
0.0000
 40
0.0000
 41
0.0000
 70
1
  0
VERTEX
  8
1
 10
33.9725
 20
50.9143
 30
0.0000
  0
VERTEX
  8
1
 10
56.5150
 20
50.9143
 30
0.0000
 42
1.0000
  0
VERTEX
  8
1
 10
56.5150
 20
51.3207
 30
0.0000
  0
VERTEX
  8
1
 10
33.9725
 20
51.3207
 30
0.0000
 42
1.0000
  0
SEQEND
  8
0
  0
POLYLINE
  8
1
 66
1
 10
0.0000
 20
0.0000
 30
0.0000
 40
0.0000
 41
0.0000
 70
1
  0
VERTEX
  8
1
 10
56.3919
 20
50.9559
 30
0.0000
  0
VERTEX
  8
1
 10
63.0594
 20
45.8759
 30
0.0000
 42
1.0000
  0
VERTEX
  8
1
 10
63.3056
 20
46.1991
 30
0.0000
  0
VERTEX
  8
1
 10
56.6381
 20
51.2791
 30
0.0000
 42
1.0000
  0
SEQEND
  8
0
  0
POLYLINE
  8
1
 66
1
 10
0.0000
 20
0.0000
 30
0.0000
 40
0.0000
 41
0.0000
 70
1
  0
VERTEX
  8
1
 10
63.1825
 20
45.8343
 30
0.0000
  0
VERTEX
  8
1
 10
69.2150
 20
45.8343
 30
0.0000
 42
1.0000
  0
VERTEX
  8
1
 10
69.2150
 20
46.2407
 30
0.0000
  0
VERTEX
  8
1
 10
63.1825
 20
46.2407
 30
0.0000
 42
1.0000
  0
SEQEND
  8
0
  0
POLYLINE
  8
1
 66
1
 10
0.0000
 20
0.0000
 30
0.0000
 40
0.0000
 41
0.0000
 70
1
  0
VERTEX
  8
1
 10
69.0409
 20
45.7873
 30
0.0000
  0
VERTEX
  8
1
 10
76.3434
 20
40.7073
 30
0.0000
 42
1.0000
  0
VERTEX
  8
1
 10
76.6916
 20
41.2077
 30
0.0000
  0
VERTEX
  8
1
 10
69.3891
 20
46.2877
 30
0.0000
 42
1.0000
  0
SEQEND
  8
0
  0
POLYLINE
  8
1
 66
1
 10
0.0000
 20
0.0000
 30
0.0000
 40
0.0000
 41
0.0000
 70
1
  0
VERTEX
  8
1
 10
76.5175
 20
40.6527
 30
0.0000
  0
VERTEX
  8
1
 10
78.7400
 20
40.6527
 30
0.0000
 42
1.0000
  0
VERTEX
  8
1
 10
78.7400
 20
41.2623
 30
0.0000
  0
VERTEX
  8
1
 10
76.5175
 20
41.2623
 30
0.0000
 42
1.0000
  0
SEQEND
  8
0
  0
POLYLINE
  8
1
 66
1
 10
0.0000
 20
0.0000
 30
0.0000
 40
0.0000
 41
0.0000
 70
1
  0
VERTEX
  8
1
 10
78.8601
 20
40.6773
 30
0.0000
  0
VERTEX
  8
1
 10
81.0826
 20
41.6298
 30
0.0000
 42
1.0000
  0
VERTEX
  8
1
 10
80.8424
 20
42.1902
 30
0.0000
  0
VERTEX
  8
1
 10
78.6199
 20
41.2377
 30
0.0000
 42
1.0000
  0
SEQEND
  8
0
  0
POLYLINE
  8
1
 66
1
 10
0.0000
 20
0.0000
 30
0.0000
 40
0.0000
 41
0.0000
 70
1
  0
VERTEX
  8
1
 10
80.6577
 20
51.4350
 30
0.0000
  0
VERTEX
  8
1
 10
80.6577
 20
49.8475
 30
0.0000
 42
1.0000
  0
VERTEX
  8
1
 10
81.2673
 20
49.8475
 30
0.0000
  0
VERTEX
  8
1
 10
81.2673
 20
51.4350
 30
0.0000
 42
1.0000
  0
SEQEND
  8
0
  0
POLYLINE
  8
1
 66
1
 10
0.0000
 20
0.0000
 30
0.0000
 40
0.0000
 41
0.0000
 70
1
  0
VERTEX
  8
1
 10
80.7470
 20
49.6320
 30
0.0000
  0
VERTEX
  8
1
 10
81.3820
 20
48.9970
 30
0.0000
 42
1.0000
  0
VERTEX
  8
1
 10
81.8130
 20
49.4280
 30
0.0000
  0
VERTEX
  8
1
 10
81.1780
 20
50.0630
 30
0.0000
 42
1.0000
  0
SEQEND
  8
0
  0
POLYLINE
  8
1
 66
1
 10
0.0000
 20
0.0000
 30
0.0000
 40
0.0000
 41
0.0000
 70
1
  0
VERTEX
  8
1
 10
81.5975
 20
48.9077
 30
0.0000
  0
VERTEX
  8
1
 10
84.7725
 20
48.9077
 30
0.0000
 42
1.0000
  0
VERTEX
  8
1
 10
84.7725
 20
49.5173
 30
0.0000
  0
VERTEX
  8
1
 10
81.5975
 20
49.5173
 30
0.0000
 42
1.0000
  0
SEQEND
  8
0
  0
POLYLINE
  8
1
 66
1
 10
0.0000
 20
0.0000
 30
0.0000
 40
0.0000
 41
0.0000
 70
1
  0
VERTEX
  8
1
 10
84.5570
 20
48.9970
 30
0.0000
  0
VERTEX
  8
1
 10
85.5095
 20
48.0445
 30
0.0000
 42
1.0000
  0
VERTEX
  8
1
 10
85.9405
 20
48.4755
 30
0.0000
  0
VERTEX
  8
1
 10
84.9880
 20
49.4280
 30
0.0000
 42
1.0000
  0
SEQEND
  8
0
  0
POLYLINE
  8
1
 66
1
 10
0.0000
 20
0.0000
 30
0.0000
 40
0.0000
 41
0.0000
 70
1
  0
VERTEX
  8
1
 10
85.4202
 20
48.2600
 30
0.0000
  0
VERTEX
  8
1
 10
85.4202
 20
42.9895
 30
0.0000
 42
1.0000
  0
VERTEX
  8
1
 10
86.0298
 20
42.9895
 30
0.0000
  0
VERTEX
  8
1
 10
86.0298
 20
48.2600
 30
0.0000
 42
1.0000
  0
SEQEND
  8
0
  0
POLYLINE
  8
1
 66
1
 10
0.0000
 20
0.0000
 30
0.0000
 40
0.0000
 41
0.0000
 70
1
  0
VERTEX
  8
1
 10
85.5095
 20
43.2050
 30
0.0000
  0
VERTEX
  8
1
 10
84.3665
 20
42.0620
 30
0.0000
 42
1.0000
  0
VERTEX
  8
1
 10
84.7975
 20
41.6310
 30
0.0000
  0
VERTEX
  8
1
 10
85.9405
 20
42.7740
 30
0.0000
 42
1.0000
  0
SEQEND
  8
0
  0
POLYLINE
  8
1
 66
1
 10
0.0000
 20
0.0000
 30
0.0000
 40
0.0000
 41
0.0000
 70
1
  0
VERTEX
  8
1
 10
84.5820
 20
42.1513
 30
0.0000
  0
VERTEX
  8
1
 10
81.0260
 20
42.1513
 30
0.0000
 42
1.0000
  0
VERTEX
  8
1
 10
81.0260
 20
41.5417
 30
0.0000
  0
VERTEX
  8
1
 10
84.5820
 20
41.5417
 30
0.0000
 42
1.0000
  0
SEQEND
  8
0
  0
POLYLINE
  8
1
 66
1
 10
0.0000
 20
0.0000
 30
0.0000
 40
0.0000
 41
0.0000
 70
1
  0
VERTEX
  8
1
 10
81.2415
 20
42.0620
 30
0.0000
  0
VERTEX
  8
1
 10
81.1780
 20
42.1255
 30
0.0000
 42
1.0000
  0
VERTEX
  8
1
 10
80.7470
 20
41.6945
 30
0.0000
  0
VERTEX
  8
1
 10
80.8105
 20
41.6310
 30
0.0000
 42
1.0000
  0
SEQEND
  8
0
  0
INSERT
  8
18
  2
ROUNDV
 10
80.9625
 20
41.9100
 30
0.0000
 41
0.9048
 42
0.9048
 43
1.0000
 50
0.0000
  0
POLYLINE
  8
1
 66
1
 10
0.0000
 20
0.0000
 30
0.0000
 40
0.0000
 41
0.0000
 70
1
  0
VERTEX
  8
1
 10
18.0005
 20
41.1445
 30
0.0000
  0
VERTEX
  8
1
 10
18.2330
 20
41.3770
 30
0.0000
 42
1.0000
  0
VERTEX
  8
1
 10
17.8020
 20
41.8080
 30
0.0000
  0
VERTEX
  8
1
 10
17.5695
 20
41.5755
 30
0.0000
 42
1.0000
  0
SEQEND
  8
0
  0
POLYLINE
  8
1
 66
1
 10
0.0000
 20
0.0000
 30
0.0000
 40
0.0000
 41
0.0000
 70
1
  0
VERTEX
  8
1
 10
18.0175
 20
41.2877
 30
0.0000
  0
VERTEX
  8
1
 10
21.2725
 20
41.2877
 30
0.0000
 42
1.0000
  0
VERTEX
  8
1
 10
21.2725
 20
41.8973
 30
0.0000
  0
VERTEX
  8
1
 10
18.0175
 20
41.8973
 30
0.0000
 42
1.0000
  0
SEQEND
  8
0
  0
POLYLINE
  8
1
 66
1
 10
0.0000
 20
0.0000
 30
0.0000
 40
0.0000
 41
0.0000
 70
1
  0
VERTEX
  8
1
 10
21.4880
 20
41.3770
 30
0.0000
  0
VERTEX
  8
1
 10
32.2830
 20
52.1720
 30
0.0000
 42
1.0000
  0
VERTEX
  8
1
 10
31.8520
 20
52.6030
 30
0.0000
  0
VERTEX
  8
1
 10
21.0570
 20
41.8080
 30
0.0000
 42
1.0000
  0
SEQEND
  8
0
  0
POLYLINE
  8
1
 66
1
 10
0.0000
 20
0.0000
 30
0.0000
 40
0.0000
 41
0.0000
 70
1
  0
VERTEX
  8
1
 10
32.0675
 20
52.1843
 30
0.0000
  0
VERTEX
  8
1
 10
56.1975
 20
52.1843
 30
0.0000
 42
1.0000
  0
VERTEX
  8
1
 10
56.1975
 20
52.5907
 30
0.0000
  0
VERTEX
  8
1
 10
32.0675
 20
52.5907
 30
0.0000
 42
1.0000
  0
SEQEND
  8
0
  0
POLYLINE
  8
1
 66
1
 10
0.0000
 20
0.0000
 30
0.0000
 40
0.0000
 41
0.0000
 70
1
  0
VERTEX
  8
1
 10
56.0780
 20
52.2232
 30
0.0000
  0
VERTEX
  8
1
 10
63.0630
 20
47.1432
 30
0.0000
 42
1.0000
  0
VERTEX
  8
1
 10
63.3020
 20
47.4718
 30
0.0000
  0
VERTEX
  8
1
 10
56.3170
 20
52.5518
 30
0.0000
 42
1.0000
  0
SEQEND
  8
0
  0
POLYLINE
  8
1
 66
1
 10
0.0000
 20
0.0000
 30
0.0000
 40
0.0000
 41
0.0000
 70
1
  0
VERTEX
  8
1
 10
63.1825
 20
47.1043
 30
0.0000
  0
VERTEX
  8
1
 10
68.8975
 20
47.1043
 30
0.0000
 42
1.0000
  0
VERTEX
  8
1
 10
68.8975
 20
47.5107
 30
0.0000
  0
VERTEX
  8
1
 10
63.1825
 20
47.5107
 30
0.0000
 42
1.0000
  0
SEQEND
  8
0
  0
POLYLINE
  8
1
 66
1
 10
0.0000
 20
0.0000
 30
0.0000
 40
0.0000
 41
0.0000
 70
1
  0
VERTEX
  8
1
 10
69.0543
 20
47.0461
 30
0.0000
  0
VERTEX
  8
1
 10
70.6418
 20
47.9986
 30
0.0000
 42
1.0000
  0
VERTEX
  8
1
 10
70.3282
 20
48.5214
 30
0.0000
  0
VERTEX
  8
1
 10
68.7407
 20
47.5689
 30
0.0000
 42
1.0000
  0
SEQEND
  8
0
  0
POLYLINE
  8
1
 66
1
 10
0.0000
 20
0.0000
 30
0.0000
 40
0.0000
 41
0.0000
 70
1
  0
VERTEX
  8
1
 10
70.4850
 20
48.0568
 30
0.0000
  0
VERTEX
  8
1
 10
73.9775
 20
48.0568
 30
0.0000
 42
1.0000
  0
VERTEX
  8
1
 10
73.9775
 20
48.4632
 30
0.0000
  0
VERTEX
  8
1
 10
70.4850
 20
48.4632
 30
0.0000
 42
1.0000
  0
SEQEND
  8
0
  0
POLYLINE
  8
1
 66
1
 10
0.0000
 20
0.0000
 30
0.0000
 40
0.0000
 41
0.0000
 70
1
  0
VERTEX
  8
1
 10
83.6763
 20
44.9112
 30
0.0000
  0
VERTEX
  8
1
 10
83.3588
 20
44.5937
 30
0.0000
 42
1.0000
  0
VERTEX
  8
1
 10
83.6462
 20
44.3063
 30
0.0000
  0
VERTEX
  8
1
 10
83.9637
 20
44.6238
 30
0.0000
 42
1.0000
  0
SEQEND
  8
0
  0
POLYLINE
  8
1
 66
1
 10
0.0000
 20
0.0000
 30
0.0000
 40
0.0000
 41
0.0000
 70
1
  0
VERTEX
  8
1
 10
83.5025
 20
44.6532
 30
0.0000
  0
VERTEX
  8
1
 10
81.9150
 20
44.6532
 30
0.0000
 42
1.0000
  0
VERTEX
  8
1
 10
81.9150
 20
44.2468
 30
0.0000
  0
VERTEX
  8
1
 10
83.5025
 20
44.2468
 30
0.0000
 42
1.0000
  0
SEQEND
  8
0
  0
POLYLINE
  8
1
 66
1
 10
0.0000
 20
0.0000
 30
0.0000
 40
0.0000
 41
0.0000
 70
1
  0
VERTEX
  8
1
 10
81.9643
 20
44.6471
 30
0.0000
  0
VERTEX
  8
1
 10
80.9184
 20
44.9086
 30
0.0000
 42
1.0000
  0
VERTEX
  8
1
 10
80.8198
 20
44.5143
 30
0.0000
  0
VERTEX
  8
1
 10
81.8657
 20
44.2529
 30
0.0000
 42
1.0000
  0
SEQEND
  8
0
  0
POLYLINE
  8
1
 66
1
 10
0.0000
 20
0.0000
 30
0.0000
 40
0.0000
 41
0.0000
 70
1
  0
VERTEX
  8
1
 10
80.9184
 20
44.9086
 30
0.0000
  0
VERTEX
  8
1
 10
79.4243
 20
45.2821
 30
0.0000
 42
1.0000
  0
VERTEX
  8
1
 10
79.3257
 20
44.8879
 30
0.0000
  0
VERTEX
  8
1
 10
80.8198
 20
44.5143
 30
0.0000
 42
1.0000
  0
SEQEND
  8
0
  0
POLYLINE
  8
1
 66
1
 10
0.0000
 20
0.0000
 30
0.0000
 40
0.0000
 41
0.0000
 70
1
  0
VERTEX
  8
1
 10
79.3750
 20
45.2882
 30
0.0000
  0
VERTEX
  8
1
 10
76.2000
 20
45.2882
 30
0.0000
 42
1.0000
  0
VERTEX
  8
1
 10
76.2000
 20
44.8818
 30
0.0000
  0
VERTEX
  8
1
 10
79.3750
 20
44.8818
 30
0.0000
 42
1.0000
  0
SEQEND
  8
0
  0
POLYLINE
  8
1
 66
1
 10
0.0000
 20
0.0000
 30
0.0000
 40
0.0000
 41
0.0000
 70
1
  0
VERTEX
  8
1
 10
76.3903
 20
45.1563
 30
0.0000
  0
VERTEX
  8
1
 10
75.4378
 20
47.6963
 30
0.0000
 42
1.0000
  0
VERTEX
  8
1
 10
75.0572
 20
47.5537
 30
0.0000
  0
VERTEX
  8
1
 10
76.0097
 20
45.0137
 30
0.0000
 42
1.0000
  0
SEQEND
  8
0
  0
POLYLINE
  8
1
 66
1
 10
0.0000
 20
0.0000
 30
0.0000
 40
0.0000
 41
0.0000
 70
1
  0
VERTEX
  8
1
 10
75.3384
 20
47.8067
 30
0.0000
  0
VERTEX
  8
1
 10
74.0684
 20
48.4417
 30
0.0000
 42
1.0000
  0
VERTEX
  8
1
 10
73.8866
 20
48.0783
 30
0.0000
  0
VERTEX
  8
1
 10
75.1566
 20
47.4433
 30
0.0000
 42
1.0000
  0
SEQEND
  8
0
  0
POLYLINE
  8
1
 66
1
 10
0.0000
 20
0.0000
 30
0.0000
 40
0.0000
 41
0.0000
 70
1
  0
VERTEX
  8
1
 10
78.1177
 20
51.4350
 30
0.0000
  0
VERTEX
  8
1
 10
78.1177
 20
49.2125
 30
0.0000
 42
1.0000
  0
VERTEX
  8
1
 10
78.7273
 20
49.2125
 30
0.0000
  0
VERTEX
  8
1
 10
78.7273
 20
51.4350
 30
0.0000
 42
1.0000
  0
SEQEND
  8
0
  0
POLYLINE
  8
1
 66
1
 10
0.0000
 20
0.0000
 30
0.0000
 40
0.0000
 41
0.0000
 70
1
  0
VERTEX
  8
1
 10
78.2070
 20
48.9970
 30
0.0000
  0
VERTEX
  8
1
 10
78.5245
 20
48.6795
 30
0.0000
 42
1.0000
  0
VERTEX
  8
1
 10
78.9555
 20
49.1105
 30
0.0000
  0
VERTEX
  8
1
 10
78.6380
 20
49.4280
 30
0.0000
 42
1.0000
  0
SEQEND
  8
0
  0
POLYLINE
  8
1
 66
1
 10
0.0000
 20
0.0000
 30
0.0000
 40
0.0000
 41
0.0000
 70
1
  0
VERTEX
  8
1
 10
78.5963
 20
48.7513
 30
0.0000
  0
VERTEX
  8
1
 10
80.1838
 20
47.1638
 30
0.0000
 42
1.0000
  0
VERTEX
  8
1
 10
80.4712
 20
47.4512
 30
0.0000
  0
VERTEX
  8
1
 10
78.8837
 20
49.0387
 30
0.0000
 42
1.0000
  0
SEQEND
  8
0
  0
POLYLINE
  8
1
 66
1
 10
0.0000
 20
0.0000
 30
0.0000
 40
0.0000
 41
0.0000
 70
1
  0
VERTEX
  8
1
 10
80.1243
 20
47.3075
 30
0.0000
  0
VERTEX
  8
1
 10
80.1243
 20
45.2531
 30
0.0000
 42
1.0000
  0
VERTEX
  8
1
 10
80.5307
 20
45.2531
 30
0.0000
  0
VERTEX
  8
1
 10
80.5307
 20
47.3075
 30
0.0000
 42
1.0000
  0
SEQEND
  8
0
  0
POLYLINE
  8
1
 66
1
 10
0.0000
 20
0.0000
 30
0.0000
 40
0.0000
 41
0.0000
 70
1
  0
VERTEX
  8
1
 10
80.1838
 20
45.1094
 30
0.0000
  0
VERTEX
  8
1
 10
80.7254
 20
44.5678
 30
0.0000
 42
1.0000
  0
VERTEX
  8
1
 10
81.0128
 20
44.8552
 30
0.0000
  0
VERTEX
  8
1
 10
80.4712
 20
45.3968
 30
0.0000
 42
1.0000
  0
SEQEND
  8
0
  0
INSERT
  8
18
  2
ROUNDV
 10
83.8200
 20
44.7675
 30
0.0000
 41
0.9048
 42
0.9048
 43
1.0000
 50
0.0000
  0
POLYLINE
  8
1
 66
1
 10
0.0000
 20
0.0000
 30
0.0000
 40
0.0000
 41
0.0000
 70
1
  0
VERTEX
  8
1
 10
17.7850
 20
21.2552
 30
0.0000
  0
VERTEX
  8
1
 10
33.9425
 20
21.2552
 30
0.0000
 42
1.0000
  0
VERTEX
  8
1
 10
33.9425
 20
21.8648
 30
0.0000
  0
VERTEX
  8
1
 10
17.7850
 20
21.8648
 30
0.0000
 42
1.0000
  0
SEQEND
  8
0
  0
POLYLINE
  8
1
 66
1
 10
0.0000
 20
0.0000
 30
0.0000
 40
0.0000
 41
0.0000
 70
1
  0
VERTEX
  8
1
 10
34.1580
 20
21.3445
 30
0.0000
  0
VERTEX
  8
1
 10
36.0930
 20
23.2795
 30
0.0000
 42
1.0000
  0
VERTEX
  8
1
 10
35.6620
 20
23.7105
 30
0.0000
  0
VERTEX
  8
1
 10
33.7270
 20
21.7755
 30
0.0000
 42
1.0000
  0
SEQEND
  8
0
  0
POLYLINE
  8
1
 66
1
 10
0.0000
 20
0.0000
 30
0.0000
 40
0.0000
 41
0.0000
 70
1
  0
VERTEX
  8
1
 10
35.8775
 20
23.2918
 30
0.0000
  0
VERTEX
  8
1
 10
41.9100
 20
23.2918
 30
0.0000
 42
1.0000
  0
VERTEX
  8
1
 10
41.9100
 20
23.6982
 30
0.0000
  0
VERTEX
  8
1
 10
35.8775
 20
23.6982
 30
0.0000
 42
1.0000
  0
SEQEND
  8
0
  0
POLYLINE
  8
1
 66
1
 10
0.0000
 20
0.0000
 30
0.0000
 40
0.0000
 41
0.0000
 70
1
  0
VERTEX
  8
1
 10
41.8044
 20
23.2091
 30
0.0000
  0
VERTEX
  8
1
 10
45.9319
 20
21.6851
 30
0.0000
 42
1.0000
  0
VERTEX
  8
1
 10
46.1431
 20
22.2569
 30
0.0000
  0
VERTEX
  8
1
 10
42.0156
 20
23.7809
 30
0.0000
 42
1.0000
  0
SEQEND
  8
0
  0
POLYLINE
  8
1
 66
1
 10
0.0000
 20
0.0000
 30
0.0000
 40
0.0000
 41
0.0000
 70
1
  0
VERTEX
  8
1
 10
46.0375
 20
21.6662
 30
0.0000
  0
VERTEX
  8
1
 10
61.2775
 20
21.6662
 30
0.0000
 42
1.0000
  0
VERTEX
  8
1
 10
61.2775
 20
22.2758
 30
0.0000
  0
VERTEX
  8
1
 10
46.0375
 20
22.2758
 30
0.0000
 42
1.0000
  0
SEQEND
  8
0
  0
POLYLINE
  8
1
 66
1
 10
0.0000
 20
0.0000
 30
0.0000
 40
0.0000
 41
0.0000
 70
1
  0
VERTEX
  8
1
 10
61.5036
 20
21.7666
 30
0.0000
  0
VERTEX
  8
1
 10
66.9011
 20
27.7356
 30
0.0000
 42
1.0000
  0
VERTEX
  8
1
 10
66.4489
 20
28.1444
 30
0.0000
  0
VERTEX
  8
1
 10
61.0514
 20
22.1754
 30
0.0000
 42
1.0000
  0
SEQEND
  8
0
  0
POLYLINE
  8
1
 66
1
 10
0.0000
 20
0.0000
 30
0.0000
 40
0.0000
 41
0.0000
 70
1
  0
VERTEX
  8
1
 10
66.9798
 20
27.9400
 30
0.0000
  0
VERTEX
  8
1
 10
66.9798
 20
29.1600
 30
0.0000
 42
1.0000
  0
VERTEX
  8
1
 10
66.3702
 20
29.1600
 30
0.0000
  0
VERTEX
  8
1
 10
66.3702
 20
27.9400
 30
0.0000
 42
1.0000
  0
SEQEND
  8
0
  0
POLYLINE
  8
1
 66
1
 10
0.0000
 20
0.0000
 30
0.0000
 40
0.0000
 41
0.0000
 70
1
  0
VERTEX
  8
1
 10
66.8905
 20
28.9445
 30
0.0000
  0
VERTEX
  8
1
 10
66.9805
 20
29.0345
 30
0.0000
 42
1.0000
  0
VERTEX
  8
1
 10
66.5495
 20
29.4655
 30
0.0000
  0
VERTEX
  8
1
 10
66.4595
 20
29.3755
 30
0.0000
 42
1.0000
  0
SEQEND
  8
0
  0
POLYLINE
  8
1
 66
1
 10
0.0000
 20
0.0000
 30
0.0000
 40
0.0000
 41
0.0000
 70
1
  0
VERTEX
  8
1
 10
12.5857
 20
25.4000
 30
0.0000
  0
VERTEX
  8
1
 10
12.5857
 20
29.8450
 30
0.0000
 42
1.0000
  0
VERTEX
  8
1
 10
12.1793
 20
29.8450
 30
0.0000
  0
VERTEX
  8
1
 10
12.1793
 20
25.4000
 30
0.0000
 42
1.0000
  0
SEQEND
  8
0
  0
POLYLINE
  8
1
 66
1
 10
0.0000
 20
0.0000
 30
0.0000
 40
0.0000
 41
0.0000
 70
1
  0
VERTEX
  8
1
 10
12.5262
 20
29.7013
 30
0.0000
  0
VERTEX
  8
1
 10
14.1137
 20
31.2888
 30
0.0000
 42
1.0000
  0
VERTEX
  8
1
 10
13.8263
 20
31.5762
 30
0.0000
  0
VERTEX
  8
1
 10
12.2388
 20
29.9887
 30
0.0000
 42
1.0000
  0
SEQEND
  8
0
  0
POLYLINE
  8
1
 66
1
 10
0.0000
 20
0.0000
 30
0.0000
 40
0.0000
 41
0.0000
 70
1
  0
VERTEX
  8
1
 10
13.9700
 20
31.2293
 30
0.0000
  0
VERTEX
  8
1
 10
20.9550
 20
31.2293
 30
0.0000
 42
1.0000
  0
VERTEX
  8
1
 10
20.9550
 20
31.6357
 30
0.0000
  0
VERTEX
  8
1
 10
13.9700
 20
31.6357
 30
0.0000
 42
1.0000
  0
SEQEND
  8
0
  0
POLYLINE
  8
1
 66
1
 10
0.0000
 20
0.0000
 30
0.0000
 40
0.0000
 41
0.0000
 70
1
  0
VERTEX
  8
1
 10
21.0987
 20
31.2888
 30
0.0000
  0
VERTEX
  8
1
 10
21.4162
 20
31.6063
 30
0.0000
 42
1.0000
  0
VERTEX
  8
1
 10
21.1288
 20
31.8937
 30
0.0000
  0
VERTEX
  8
1
 10
20.8113
 20
31.5762
 30
0.0000
 42
1.0000
  0
SEQEND
  8
0
  0
POLYLINE
  8
1
 66
1
 10
0.0000
 20
0.0000
 30
0.0000
 40
0.0000
 41
0.0000
 70
1
  0
VERTEX
  8
1
 10
21.4757
 20
31.7500
 30
0.0000
  0
VERTEX
  8
1
 10
21.4757
 20
35.5600
 30
0.0000
 42
1.0000
  0
VERTEX
  8
1
 10
21.0693
 20
35.5600
 30
0.0000
  0
VERTEX
  8
1
 10
21.0693
 20
31.7500
 30
0.0000
 42
1.0000
  0
SEQEND
  8
0
  0
POLYLINE
  8
1
 66
1
 10
0.0000
 20
0.0000
 30
0.0000
 40
0.0000
 41
0.0000
 70
1
  0
VERTEX
  8
1
 10
21.4162
 20
35.4163
 30
0.0000
  0
VERTEX
  8
1
 10
33.1637
 20
47.1638
 30
0.0000
 42
1.0000
  0
VERTEX
  8
1
 10
32.8763
 20
47.4512
 30
0.0000
  0
VERTEX
  8
1
 10
21.1288
 20
35.7037
 30
0.0000
 42
1.0000
  0
SEQEND
  8
0
  0
POLYLINE
  8
1
 66
1
 10
0.0000
 20
0.0000
 30
0.0000
 40
0.0000
 41
0.0000
 70
1
  0
VERTEX
  8
1
 10
33.0200
 20
47.1043
 30
0.0000
  0
VERTEX
  8
1
 10
44.1325
 20
47.1043
 30
0.0000
 42
1.0000
  0
VERTEX
  8
1
 10
44.1325
 20
47.5107
 30
0.0000
  0
VERTEX
  8
1
 10
33.0200
 20
47.5107
 30
0.0000
 42
1.0000
  0
SEQEND
  8
0
  0
POLYLINE
  8
1
 66
1
 10
0.0000
 20
0.0000
 30
0.0000
 40
0.0000
 41
0.0000
 70
1
  0
VERTEX
  8
1
 10
43.9952
 20
47.1577
 30
0.0000
  0
VERTEX
  8
1
 10
47.8052
 20
43.6652
 30
0.0000
 42
1.0000
  0
VERTEX
  8
1
 10
48.0798
 20
43.9648
 30
0.0000
  0
VERTEX
  8
1
 10
44.2698
 20
47.4573
 30
0.0000
 42
1.0000
  0
SEQEND
  8
0
  0
POLYLINE
  8
1
 66
1
 10
0.0000
 20
0.0000
 30
0.0000
 40
0.0000
 41
0.0000
 70
1
  0
VERTEX
  8
1
 10
47.9425
 20
43.6118
 30
0.0000
  0
VERTEX
  8
1
 10
63.5000
 20
43.6118
 30
0.0000
 42
1.0000
  0
VERTEX
  8
1
 10
63.5000
 20
44.0182
 30
0.0000
  0
VERTEX
  8
1
 10
47.9425
 20
44.0182
 30
0.0000
 42
1.0000
  0
SEQEND
  8
0
  0
POLYLINE
  8
1
 66
1
 10
0.0000
 20
0.0000
 30
0.0000
 40
0.0000
 41
0.0000
 70
1
  0
VERTEX
  8
1
 10
63.6437
 20
43.6713
 30
0.0000
  0
VERTEX
  8
1
 10
64.9137
 20
44.9413
 30
0.0000
 42
1.0000
  0
VERTEX
  8
1
 10
64.6263
 20
45.2287
 30
0.0000
  0
VERTEX
  8
1
 10
63.3563
 20
43.9587
 30
0.0000
 42
1.0000
  0
SEQEND
  8
0
  0
POLYLINE
  8
1
 66
1
 10
0.0000
 20
0.0000
 30
0.0000
 40
0.0000
 41
0.0000
 70
1
  0
VERTEX
  8
1
 10
64.7700
 20
44.8818
 30
0.0000
  0
VERTEX
  8
1
 10
68.2625
 20
44.8818
 30
0.0000
 42
1.0000
  0
VERTEX
  8
1
 10
68.2625
 20
45.2882
 30
0.0000
  0
VERTEX
  8
1
 10
64.7700
 20
45.2882
 30
0.0000
 42
1.0000
  0
SEQEND
  8
0
  0
POLYLINE
  8
1
 66
1
 10
0.0000
 20
0.0000
 30
0.0000
 40
0.0000
 41
0.0000
 70
1
  0
VERTEX
  8
1
 10
68.1456
 20
44.9188
 30
0.0000
  0
VERTEX
  8
1
 10
76.7181
 20
38.8863
 30
0.0000
 42
1.0000
  0
VERTEX
  8
1
 10
76.9519
 20
39.2187
 30
0.0000
  0
VERTEX
  8
1
 10
68.3794
 20
45.2512
 30
0.0000
 42
1.0000
  0
SEQEND
  8
0
  0
POLYLINE
  8
1
 66
1
 10
0.0000
 20
0.0000
 30
0.0000
 40
0.0000
 41
0.0000
 70
1
  0
VERTEX
  8
1
 10
76.7441
 20
38.8708
 30
0.0000
  0
VERTEX
  8
1
 10
82.4591
 20
36.0133
 30
0.0000
 42
1.0000
  0
VERTEX
  8
1
 10
82.6409
 20
36.3767
 30
0.0000
  0
VERTEX
  8
1
 10
76.9259
 20
39.2342
 30
0.0000
 42
1.0000
  0
SEQEND
  8
0
  0
INSERT
  8
18
  2
ROUNDV
 10
12.3825
 20
25.4000
 30
0.0000
 41
0.9048
 42
0.9048
 43
1.0000
 50
0.0000
  0
INSERT
  8
18
  2
ROUNDV
 10
82.5500
 20
36.1950
 30
0.0000
 41
0.9048
 42
0.9048
 43
1.0000
 50
0.0000
  0
POLYLINE
  8
1
 66
1
 10
0.0000
 20
0.0000
 30
0.0000
 40
0.0000
 41
0.0000
 70
1
  0
VERTEX
  8
1
 10
87.2979
 20
38.0639
 30
0.0000
  0
VERTEX
  8
1
 10
87.6154
 20
40.9239
 30
0.0000
 42
1.0000
  0
VERTEX
  8
1
 10
87.0096
 20
40.9911
 30
0.0000
  0
VERTEX
  8
1
 10
86.6921
 20
38.1311
 30
0.0000
 42
1.0000
  0
SEQEND
  8
0
  0
POLYLINE
  8
1
 66
1
 10
0.0000
 20
0.0000
 30
0.0000
 40
0.0000
 41
0.0000
 70
1
  0
VERTEX
  8
1
 10
87.6173
 20
40.9575
 30
0.0000
  0
VERTEX
  8
1
 10
87.6173
 20
46.6725
 30
0.0000
 42
1.0000
  0
VERTEX
  8
1
 10
87.0077
 20
46.6725
 30
0.0000
  0
VERTEX
  8
1
 10
87.0077
 20
40.9575
 30
0.0000
 42
1.0000
  0
SEQEND
  8
0
  0
POLYLINE
  8
1
 66
1
 10
0.0000
 20
0.0000
 30
0.0000
 40
0.0000
 41
0.0000
 70
1
  0
VERTEX
  8
1
 10
87.6045
 20
46.5851
 30
0.0000
  0
VERTEX
  8
1
 10
88.7095
 20
50.2776
 30
0.0000
 42
1.0000
  0
VERTEX
  8
1
 10
88.1255
 20
50.4524
 30
0.0000
  0
VERTEX
  8
1
 10
87.0205
 20
46.7599
 30
0.0000
 42
1.0000
  0
SEQEND
  8
0
  0
INSERT
  8
18
  2
ROUNDV
 10
86.9950
 20
38.0975
 30
0.0000
 41
0.9048
 42
0.9048
 43
1.0000
 50
0.0000
  0
INSERT
  8
18
  2
ROUNDV
 10
88.4175
 20
50.3650
 30
0.0000
 41
0.9048
 42
0.9048
 43
1.0000
 50
0.0000
  0
POLYLINE
  8
1
 66
1
 10
0.0000
 20
0.0000
 30
0.0000
 40
0.0000
 41
0.0000
 70
1
  0
VERTEX
  8
1
 10
10.6680
 20
22.2250
 30
0.0000
  0
VERTEX
  8
1
 10
10.6680
 20
30.4800
 30
0.0000
 42
1.0000
  0
VERTEX
  8
1
 10
9.6520
 20
30.4800
 30
0.0000
  0
VERTEX
  8
1
 10
9.6520
 20
22.2250
 30
0.0000
 42
1.0000
  0
SEQEND
  8
0
  0
POLYLINE
  8
1
 66
1
 10
0.0000
 20
0.0000
 30
0.0000
 40
0.0000
 41
0.0000
 70
1
  0
VERTEX
  8
1
 10
10.5192
 20
30.1208
 30
0.0000
  0
VERTEX
  8
1
 10
13.0592
 20
32.6608
 30
0.0000
 42
1.0000
  0
VERTEX
  8
1
 10
12.3408
 20
33.3792
 30
0.0000
  0
VERTEX
  8
1
 10
9.8008
 20
30.8392
 30
0.0000
 42
1.0000
  0
SEQEND
  8
0
  0
POLYLINE
  8
1
 66
1
 10
0.0000
 20
0.0000
 30
0.0000
 40
0.0000
 41
0.0000
 70
1
  0
VERTEX
  8
1
 10
12.7000
 20
32.5120
 30
0.0000
  0
VERTEX
  8
1
 10
17.3650
 20
32.5120
 30
0.0000
 42
1.0000
  0
VERTEX
  8
1
 10
17.3650
 20
33.5280
 30
0.0000
  0
VERTEX
  8
1
 10
12.7000
 20
33.5280
 30
0.0000
 42
1.0000
  0
SEQEND
  8
0
  0
POLYLINE
  8
1
 66
1
 10
0.0000
 20
0.0000
 30
0.0000
 40
0.0000
 41
0.0000
 70
1
  0
VERTEX
  8
1
 10
17.7242
 20
32.6608
 30
0.0000
  0
VERTEX
  8
1
 10
18.1442
 20
33.0808
 30
0.0000
 42
1.0000
  0
VERTEX
  8
1
 10
17.4258
 20
33.7992
 30
0.0000
  0
VERTEX
  8
1
 10
17.0058
 20
33.3792
 30
0.0000
 42
1.0000
  0
SEQEND
  8
0
  0
INSERT
  8
18
  2
ROUNDV
 10
10.1600
 20
22.2250
 30
0.0000
 41
0.9048
 42
0.9048
 43
1.0000
 50
0.0000
  0
POLYLINE
  8
1
 66
1
 10
0.0000
 20
0.0000
 30
0.0000
 40
0.0000
 41
0.0000
 70
1
  0
VERTEX
  8
1
 10
17.4976
 20
5.4326
 30
0.0000
  0
VERTEX
  8
1
 10
17.5026
 20
5.4276
 30
0.0000
 42
1.0000
  0
VERTEX
  8
1
 10
18.0774
 20
6.0024
 30
0.0000
  0
VERTEX
  8
1
 10
18.0724
 20
6.0074
 30
0.0000
 42
1.0000
  0
SEQEND
  8
0
  0
POLYLINE
  8
1
 66
1
 10
0.0000
 20
0.0000
 30
0.0000
 40
0.0000
 41
0.0000
 70
1
  0
VERTEX
  8
1
 10
17.7900
 20
5.3086
 30
0.0000
  0
VERTEX
  8
1
 10
21.5900
 20
5.3086
 30
0.0000
 42
1.0000
  0
VERTEX
  8
1
 10
21.5900
 20
6.1214
 30
0.0000
  0
VERTEX
  8
1
 10
17.7900
 20
6.1214
 30
0.0000
 42
1.0000
  0
SEQEND
  8
0
  0
POLYLINE
  8
1
 66
1
 10
0.0000
 20
0.0000
 30
0.0000
 40
0.0000
 41
0.0000
 70
1
  0
VERTEX
  8
1
 10
21.7377
 20
5.3364
 30
0.0000
  0
VERTEX
  8
1
 10
26.8177
 20
7.3176
 30
0.0000
 42
1.0000
  0
VERTEX
  8
1
 10
26.5223
 20
8.0748
 30
0.0000
  0
VERTEX
  8
1
 10
21.4423
 20
6.0936
 30
0.0000
 42
1.0000
  0
SEQEND
  8
0
  0
POLYLINE
  8
1
 66
1
 10
0.0000
 20
0.0000
 30
0.0000
 40
0.0000
 41
0.0000
 70
1
  0
VERTEX
  8
1
 10
26.6700
 20
7.3406
 30
0.0000
  0
VERTEX
  8
1
 10
42.0370
 20
7.3406
 30
0.0000
 42
1.0000
  0
VERTEX
  8
1
 10
42.0370
 20
8.0518
 30
0.0000
  0
VERTEX
  8
1
 10
26.6700
 20
8.0518
 30
0.0000
 42
1.0000
  0
SEQEND
  8
0
  0
POLYLINE
  8
1
 66
1
 10
0.0000
 20
0.0000
 30
0.0000
 40
0.0000
 41
0.0000
 70
1
  0
VERTEX
  8
1
 10
42.2752
 20
7.3669
 30
0.0000
  0
VERTEX
  8
1
 10
48.0562
 20
11.5477
 30
0.0000
 42
1.0000
  0
VERTEX
  8
1
 10
47.5798
 20
12.2063
 30
0.0000
  0
VERTEX
  8
1
 10
41.7988
 20
8.0255
 30
0.0000
 42
1.0000
  0
SEQEND
  8
0
  0
POLYLINE
  8
1
 66
1
 10
0.0000
 20
0.0000
 30
0.0000
 40
0.0000
 41
0.0000
 70
1
  0
VERTEX
  8
1
 10
47.8159
 20
11.4706
 30
0.0000
  0
VERTEX
  8
1
 10
72.2629
 20
11.3436
 30
0.0000
 42
1.0000
  0
VERTEX
  8
1
 10
72.2671
 20
12.1564
 30
0.0000
  0
VERTEX
  8
1
 10
47.8201
 20
12.2834
 30
0.0000
 42
1.0000
  0
SEQEND
  8
0
  0
POLYLINE
  8
1
 66
1
 10
0.0000
 20
0.0000
 30
0.0000
 40
0.0000
 41
0.0000
 70
1
  0
VERTEX
  8
1
 10
66.4776
 20
15.5374
 30
0.0000
  0
VERTEX
  8
1
 10
66.4676
 20
15.5274
 30
0.0000
 42
1.0000
  0
VERTEX
  8
1
 10
67.0424
 20
14.9526
 30
0.0000
  0
VERTEX
  8
1
 10
67.0524
 20
14.9626
 30
0.0000
 42
1.0000
  0
SEQEND
  8
0
  0
POLYLINE
  8
1
 66
1
 10
0.0000
 20
0.0000
 30
0.0000
 40
0.0000
 41
0.0000
 70
1
  0
VERTEX
  8
1
 10
66.7550
 20
15.6464
 30
0.0000
  0
VERTEX
  8
1
 10
48.4505
 20
15.6464
 30
0.0000
 42
1.0000
  0
VERTEX
  8
1
 10
48.4505
 20
14.8336
 30
0.0000
  0
VERTEX
  8
1
 10
66.7550
 20
14.8336
 30
0.0000
 42
1.0000
  0
SEQEND
  8
0
  0
POLYLINE
  8
1
 66
1
 10
0.0000
 20
0.0000
 30
0.0000
 40
0.0000
 41
0.0000
 70
1
  0
VERTEX
  8
1
 10
48.2416
 20
15.5886
 30
0.0000
  0
VERTEX
  8
1
 10
42.2853
 20
12.0199
 30
0.0000
 42
1.0000
  0
VERTEX
  8
1
 10
42.7031
 20
11.3227
 30
0.0000
  0
VERTEX
  8
1
 10
48.6594
 20
14.8914
 30
0.0000
 42
1.0000
  0
SEQEND
  8
0
  0
POLYLINE
  8
1
 66
1
 10
0.0000
 20
0.0000
 30
0.0000
 40
0.0000
 41
0.0000
 70
1
  0
VERTEX
  8
1
 10
42.4942
 20
12.0269
 30
0.0000
  0
VERTEX
  8
1
 10
30.1117
 20
12.0269
 30
0.0000
 42
1.0000
  0
VERTEX
  8
1
 10
30.1117
 20
11.3157
 30
0.0000
  0
VERTEX
  8
1
 10
42.4942
 20
11.3157
 30
0.0000
 42
1.0000
  0
SEQEND
  8
0
  0
POLYLINE
  8
1
 66
1
 10
0.0000
 20
0.0000
 30
0.0000
 40
0.0000
 41
0.0000
 70
1
  0
VERTEX
  8
1
 10
30.0208
 20
12.0674
 30
0.0000
  0
VERTEX
  8
1
 10
21.3441
 20
10.0761
 30
0.0000
 42
1.0000
  0
VERTEX
  8
1
 10
21.5259
 20
9.2839
 30
0.0000
  0
VERTEX
  8
1
 10
30.2026
 20
11.2752
 30
0.0000
 42
1.0000
  0
SEQEND
  8
0
  0
POLYLINE
  8
1
 66
1
 10
0.0000
 20
0.0000
 30
0.0000
 40
0.0000
 41
0.0000
 70
1
  0
VERTEX
  8
1
 10
21.4350
 20
10.0864
 30
0.0000
  0
VERTEX
  8
1
 10
17.7850
 20
10.0864
 30
0.0000
 42
1.0000
  0
VERTEX
  8
1
 10
17.7850
 20
9.2736
 30
0.0000
  0
VERTEX
  8
1
 10
21.4350
 20
9.2736
 30
0.0000
 42
1.0000
  0
SEQEND
  8
0
  0
POLYLINE
  8
1
 66
1
 10
0.0000
 20
0.0000
 30
0.0000
 40
0.0000
 41
0.0000
 70
1
  0
VERTEX
  8
1
 10
18.0724
 20
13.3526
 30
0.0000
  0
VERTEX
  8
1
 10
18.0849
 20
13.3651
 30
0.0000
 42
1.0000
  0
VERTEX
  8
1
 10
17.5101
 20
13.9399
 30
0.0000
  0
VERTEX
  8
1
 10
17.4976
 20
13.9274
 30
0.0000
 42
1.0000
  0
SEQEND
  8
0
  0
POLYLINE
  8
1
 66
1
 10
0.0000
 20
0.0000
 30
0.0000
 40
0.0000
 41
0.0000
 70
1
  0
VERTEX
  8
1
 10
17.7975
 20
13.2461
 30
0.0000
  0
VERTEX
  8
1
 10
35.2425
 20
13.2461
 30
0.0000
 42
1.0000
  0
VERTEX
  8
1
 10
35.2425
 20
14.0589
 30
0.0000
  0
VERTEX
  8
1
 10
17.7975
 20
14.0589
 30
0.0000
 42
1.0000
  0
SEQEND
  8
0
  0
POLYLINE
  8
1
 66
1
 10
0.0000
 20
0.0000
 30
0.0000
 40
0.0000
 41
0.0000
 70
1
  0
VERTEX
  8
1
 10
35.5833
 20
13.4312
 30
0.0000
  0
VERTEX
  8
1
 10
36.8533
 20
15.3870
 30
0.0000
 42
1.0000
  0
VERTEX
  8
1
 10
36.1717
 20
15.8296
 30
0.0000
  0
VERTEX
  8
1
 10
34.9017
 20
13.8738
 30
0.0000
 42
1.0000
  0
SEQEND
  8
0
  0
POLYLINE
  8
1
 66
1
 10
0.0000
 20
0.0000
 30
0.0000
 40
0.0000
 41
0.0000
 70
1
  0
VERTEX
  8
1
 10
36.5125
 20
15.2527
 30
0.0000
  0
VERTEX
  8
1
 10
43.8150
 20
15.2527
 30
0.0000
 42
1.0000
  0
VERTEX
  8
1
 10
43.8150
 20
15.9639
 30
0.0000
  0
VERTEX
  8
1
 10
36.5125
 20
15.9639
 30
0.0000
 42
1.0000
  0
SEQEND
  8
0
  0
POLYLINE
  8
1
 66
1
 10
0.0000
 20
0.0000
 30
0.0000
 40
0.0000
 41
0.0000
 70
1
  0
VERTEX
  8
1
 10
43.9794
 20
15.2366
 30
0.0000
  0
VERTEX
  8
1
 10
48.1704
 20
17.0908
 30
0.0000
 42
1.0000
  0
VERTEX
  8
1
 10
47.8416
 20
17.8342
 30
0.0000
  0
VERTEX
  8
1
 10
43.6506
 20
15.9800
 30
0.0000
 42
1.0000
  0
SEQEND
  8
0
  0
POLYLINE
  8
1
 66
1
 10
0.0000
 20
0.0000
 30
0.0000
 40
0.0000
 41
0.0000
 70
1
  0
VERTEX
  8
1
 10
48.0060
 20
17.0561
 30
0.0000
  0
VERTEX
  8
1
 10
68.8975
 20
17.0561
 30
0.0000
 42
1.0000
  0
VERTEX
  8
1
 10
68.8975
 20
17.8689
 30
0.0000
  0
VERTEX
  8
1
 10
48.0060
 20
17.8689
 30
0.0000
 42
1.0000
  0
SEQEND
  8
0
  0
POLYLINE
  8
1
 66
1
 10
0.0000
 20
0.0000
 30
0.0000
 40
0.0000
 41
0.0000
 70
1
  0
VERTEX
  8
1
 10
69.1849
 20
17.1751
 30
0.0000
  0
VERTEX
  8
1
 10
70.4724
 20
18.4626
 30
0.0000
 42
1.0000
  0
VERTEX
  8
1
 10
69.8976
 20
19.0374
 30
0.0000
  0
VERTEX
  8
1
 10
68.6101
 20
17.7499
 30
0.0000
 42
1.0000
  0
SEQEND
  8
0
  0
POLYLINE
  8
1
 66
1
 10
0.0000
 20
0.0000
 30
0.0000
 40
0.0000
 41
0.0000
 70
1
  0
VERTEX
  8
1
 10
70.1850
 20
18.3436
 30
0.0000
  0
VERTEX
  8
1
 10
72.2650
 20
18.3436
 30
0.0000
 42
1.0000
  0
VERTEX
  8
1
 10
72.2650
 20
19.1564
 30
0.0000
  0
VERTEX
  8
1
 10
70.1850
 20
19.1564
 30
0.0000
 42
1.0000
  0
SEQEND
  8
0
  0
POLYLINE
  8
1
 66
1
 10
0.0000
 20
0.0000
 30
0.0000
 40
0.0000
 41
0.0000
 70
1
  0
VERTEX
  8
1
 10
32.2102
 20
31.8130
 30
0.0000
  0
VERTEX
  8
1
 10
29.6702
 20
32.7655
 30
0.0000
 42
1.0000
  0
VERTEX
  8
1
 10
29.3848
 20
32.0045
 30
0.0000
  0
VERTEX
  8
1
 10
31.9248
 20
31.0520
 30
0.0000
 42
1.0000
  0
SEQEND
  8
0
  0
POLYLINE
  8
1
 66
1
 10
0.0000
 20
0.0000
 30
0.0000
 40
0.0000
 41
0.0000
 70
1
  0
VERTEX
  8
1
 10
29.5275
 20
32.7914
 30
0.0000
  0
VERTEX
  8
1
 10
27.3050
 20
32.7914
 30
0.0000
 42
1.0000
  0
VERTEX
  8
1
 10
27.3050
 20
31.9786
 30
0.0000
  0
VERTEX
  8
1
 10
29.5275
 20
31.9786
 30
0.0000
 42
1.0000
  0
SEQEND
  8
0
  0
POLYLINE
  8
1
 66
1
 10
0.0000
 20
0.0000
 30
0.0000
 40
0.0000
 41
0.0000
 70
1
  0
VERTEX
  8
1
 10
27.0896
 20
32.7296
 30
0.0000
  0
VERTEX
  8
1
 10
24.5496
 20
31.1421
 30
0.0000
 42
1.0000
  0
VERTEX
  8
1
 10
24.9804
 20
30.4529
 30
0.0000
  0
VERTEX
  8
1
 10
27.5204
 20
32.0404
 30
0.0000
 42
1.0000
  0
SEQEND
  8
0
  0
POLYLINE
  8
1
 66
1
 10
0.0000
 20
0.0000
 30
0.0000
 40
0.0000
 41
0.0000
 70
1
  0
VERTEX
  8
1
 10
24.4269
 20
31.0229
 30
0.0000
  0
VERTEX
  8
1
 10
23.1569
 20
29.1179
 30
0.0000
 42
1.0000
  0
VERTEX
  8
1
 10
23.8331
 20
28.6671
 30
0.0000
  0
VERTEX
  8
1
 10
25.1031
 20
30.5721
 30
0.0000
 42
1.0000
  0
SEQEND
  8
0
  0
POLYLINE
  8
1
 66
1
 10
0.0000
 20
0.0000
 30
0.0000
 40
0.0000
 41
0.0000
 70
1
  0
VERTEX
  8
1
 10
23.0941
 20
28.9593
 30
0.0000
  0
VERTEX
  8
1
 10
22.7766
 20
27.0543
 30
0.0000
 42
1.0000
  0
VERTEX
  8
1
 10
23.5784
 20
26.9207
 30
0.0000
  0
VERTEX
  8
1
 10
23.8959
 20
28.8257
 30
0.0000
 42
1.0000
  0
SEQEND
  8
0
  0
POLYLINE
  8
1
 66
1
 10
0.0000
 20
0.0000
 30
0.0000
 40
0.0000
 41
0.0000
 70
1
  0
VERTEX
  8
1
 10
22.8602
 20
27.2414
 30
0.0000
  0
VERTEX
  8
1
 10
21.5902
 20
25.6539
 30
0.0000
 42
1.0000
  0
VERTEX
  8
1
 10
22.2248
 20
25.1461
 30
0.0000
  0
VERTEX
  8
1
 10
23.4948
 20
26.7336
 30
0.0000
 42
1.0000
  0
SEQEND
  8
0
  0
POLYLINE
  8
1
 66
1
 10
0.0000
 20
0.0000
 30
0.0000
 40
0.0000
 41
0.0000
 70
1
  0
VERTEX
  8
1
 10
21.9075
 20
25.8064
 30
0.0000
  0
VERTEX
  8
1
 10
17.9050
 20
25.8064
 30
0.0000
 42
1.0000
  0
VERTEX
  8
1
 10
17.9050
 20
24.9936
 30
0.0000
  0
VERTEX
  8
1
 10
21.9075
 20
24.9936
 30
0.0000
 42
1.0000
  0
SEQEND
  8
0
  0
POLYLINE
  8
1
 66
1
 10
0.0000
 20
0.0000
 30
0.0000
 40
0.0000
 41
0.0000
 70
1
  0
VERTEX
  8
1
 10
18.0487
 20
25.5437
 30
0.0000
  0
VERTEX
  8
1
 10
17.9287
 20
25.6637
 30
0.0000
 42
1.0000
  0
VERTEX
  8
1
 10
17.6413
 20
25.3763
 30
0.0000
  0
VERTEX
  8
1
 10
17.7613
 20
25.2563
 30
0.0000
 42
1.0000
  0
SEQEND
  8
0
  0
POLYLINE
  8
1
 66
1
 10
0.0000
 20
0.0000
 30
0.0000
 40
0.0000
 41
0.0000
 70
1
  0
VERTEX
  8
1
 10
45.8362
 20
26.3838
 30
0.0000
  0
VERTEX
  8
1
 10
44.6297
 20
28.6698
 30
0.0000
 42
1.0000
  0
VERTEX
  8
1
 10
44.2703
 20
28.4802
 30
0.0000
  0
VERTEX
  8
1
 10
45.4768
 20
26.1942
 30
0.0000
 42
1.0000
  0
SEQEND
  8
0
  0
INSERT
  8
18
  2
ROUNDV
 10
45.6565
 20
26.2890
 30
0.0000
 41
0.9048
 42
0.9048
 43
1.0000
 50
0.0000
  0
INSERT
  8
18
  2
ROUNDV
 10
32.0675
 20
31.4325
 30
0.0000
 41
0.9048
 42
0.9048
 43
1.0000
 50
0.0000
  0
POLYLINE
  8
1
 66
1
 10
0.0000
 20
0.0000
 30
0.0000
 40
0.0000
 41
0.0000
 70
1
  0
VERTEX
  8
1
 10
18.0005
 20
45.1045
 30
0.0000
  0
VERTEX
  8
1
 10
18.0830
 20
45.1870
 30
0.0000
 42
1.0000
  0
VERTEX
  8
1
 10
17.6520
 20
45.6180
 30
0.0000
  0
VERTEX
  8
1
 10
17.5695
 20
45.5355
 30
0.0000
 42
1.0000
  0
SEQEND
  8
0
  0
POLYLINE
  8
1
 66
1
 10
0.0000
 20
0.0000
 30
0.0000
 40
0.0000
 41
0.0000
 70
1
  0
VERTEX
  8
1
 10
17.8675
 20
45.0977
 30
0.0000
  0
VERTEX
  8
1
 10
20.9550
 20
45.0977
 30
0.0000
 42
1.0000
  0
VERTEX
  8
1
 10
20.9550
 20
45.7073
 30
0.0000
  0
VERTEX
  8
1
 10
17.8675
 20
45.7073
 30
0.0000
 42
1.0000
  0
SEQEND
  8
0
  0
POLYLINE
  8
1
 66
1
 10
0.0000
 20
0.0000
 30
0.0000
 40
0.0000
 41
0.0000
 70
1
  0
VERTEX
  8
1
 10
21.1705
 20
45.1870
 30
0.0000
  0
VERTEX
  8
1
 10
29.4255
 20
53.4420
 30
0.0000
 42
1.0000
  0
VERTEX
  8
1
 10
28.9945
 20
53.8730
 30
0.0000
  0
VERTEX
  8
1
 10
20.7395
 20
45.6180
 30
0.0000
 42
1.0000
  0
SEQEND
  8
0
  0
POLYLINE
  8
1
 66
1
 10
0.0000
 20
0.0000
 30
0.0000
 40
0.0000
 41
0.0000
 70
1
  0
VERTEX
  8
1
 10
29.2100
 20
53.4543
 30
0.0000
  0
VERTEX
  8
1
 10
56.1975
 20
53.4543
 30
0.0000
 42
1.0000
  0
VERTEX
  8
1
 10
56.1975
 20
53.8607
 30
0.0000
  0
VERTEX
  8
1
 10
29.2100
 20
53.8607
 30
0.0000
 42
1.0000
  0
SEQEND
  8
0
  0
POLYLINE
  8
1
 66
1
 10
0.0000
 20
0.0000
 30
0.0000
 40
0.0000
 41
0.0000
 70
1
  0
VERTEX
  8
1
 10
56.0744
 20
53.4959
 30
0.0000
  0
VERTEX
  8
1
 10
62.7419
 20
48.4159
 30
0.0000
 42
1.0000
  0
VERTEX
  8
1
 10
62.9881
 20
48.7391
 30
0.0000
  0
VERTEX
  8
1
 10
56.3206
 20
53.8191
 30
0.0000
 42
1.0000
  0
SEQEND
  8
0
  0
POLYLINE
  8
1
 66
1
 10
0.0000
 20
0.0000
 30
0.0000
 40
0.0000
 41
0.0000
 70
1
  0
VERTEX
  8
1
 10
62.8650
 20
48.3743
 30
0.0000
  0
VERTEX
  8
1
 10
67.9450
 20
48.3743
 30
0.0000
 42
1.0000
  0
VERTEX
  8
1
 10
67.9450
 20
48.7807
 30
0.0000
  0
VERTEX
  8
1
 10
62.8650
 20
48.7807
 30
0.0000
 42
1.0000
  0
SEQEND
  8
0
  0
POLYLINE
  8
1
 66
1
 10
0.0000
 20
0.0000
 30
0.0000
 40
0.0000
 41
0.0000
 70
1
  0
VERTEX
  8
1
 10
68.1141
 20
48.3239
 30
0.0000
  0
VERTEX
  8
1
 10
69.0666
 20
48.9589
 30
0.0000
 42
1.0000
  0
VERTEX
  8
1
 10
68.7284
 20
49.4661
 30
0.0000
  0
VERTEX
  8
1
 10
67.7759
 20
48.8311
 30
0.0000
 42
1.0000
  0
SEQEND
  8
0
  0
POLYLINE
  8
1
 66
1
 10
0.0000
 20
0.0000
 30
0.0000
 40
0.0000
 41
0.0000
 70
1
  0
VERTEX
  8
1
 10
79.1770
 20
46.8368
 30
0.0000
  0
VERTEX
  8
1
 10
75.6845
 20
49.3768
 30
0.0000
 42
1.0000
  0
VERTEX
  8
1
 10
75.4455
 20
49.0482
 30
0.0000
  0
VERTEX
  8
1
 10
78.9380
 20
46.5082
 30
0.0000
 42
1.0000
  0
SEQEND
  8
0
  0
POLYLINE
  8
1
 66
1
 10
0.0000
 20
0.0000
 30
0.0000
 40
0.0000
 41
0.0000
 70
1
  0
VERTEX
  8
1
 10
75.5650
 20
49.4157
 30
0.0000
  0
VERTEX
  8
1
 10
68.8975
 20
49.4157
 30
0.0000
 42
1.0000
  0
VERTEX
  8
1
 10
68.8975
 20
49.0093
 30
0.0000
  0
VERTEX
  8
1
 10
75.5650
 20
49.0093
 30
0.0000
 42
1.0000
  0
SEQEND
  8
0
  0
POLYLINE
  8
1
 66
1
 10
0.0000
 20
0.0000
 30
0.0000
 40
0.0000
 41
0.0000
 70
1
  0
VERTEX
  8
1
 10
75.8825
 20
51.7398
 30
0.0000
  0
VERTEX
  8
1
 10
75.5650
 20
51.7398
 30
0.0000
 42
1.0000
  0
VERTEX
  8
1
 10
75.5650
 20
51.1302
 30
0.0000
  0
VERTEX
  8
1
 10
75.8825
 20
51.1302
 30
0.0000
 42
1.0000
  0
SEQEND
  8
0
  0
POLYLINE
  8
1
 66
1
 10
0.0000
 20
0.0000
 30
0.0000
 40
0.0000
 41
0.0000
 70
1
  0
VERTEX
  8
1
 10
75.2602
 20
51.4350
 30
0.0000
  0
VERTEX
  8
1
 10
75.2602
 20
49.2125
 30
0.0000
 42
1.0000
  0
VERTEX
  8
1
 10
75.8698
 20
49.2125
 30
0.0000
  0
VERTEX
  8
1
 10
75.8698
 20
51.4350
 30
0.0000
 42
1.0000
  0
SEQEND
  8
0
  0
INSERT
  8
18
  2
ROUNDV
 10
79.0575
 20
46.6725
 30
0.0000
 41
0.9048
 42
0.9048
 43
1.0000
 50
0.0000
  0
POLYLINE
  8
1
 66
1
 10
0.0000
 20
0.0000
 30
0.0000
 40
0.0000
 41
0.0000
 70
1
  0
VERTEX
  8
1
 10
39.4850
 20
44.9136
 30
0.0000
  0
VERTEX
  8
1
 10
43.5800
 20
44.9136
 30
0.0000
 42
1.0000
  0
VERTEX
  8
1
 10
43.5800
 20
45.7264
 30
0.0000
  0
VERTEX
  8
1
 10
39.4850
 20
45.7264
 30
0.0000
 42
1.0000
  0
SEQEND
  8
0
  0
POLYLINE
  8
1
 66
1
 10
0.0000
 20
0.0000
 30
0.0000
 40
0.0000
 41
0.0000
 70
1
  0
VERTEX
  8
1
 10
43.2926
 20
45.0326
 30
0.0000
  0
VERTEX
  8
1
 10
46.0676
 20
42.2576
 30
0.0000
 42
1.0000
  0
VERTEX
  8
1
 10
46.6424
 20
42.8324
 30
0.0000
  0
VERTEX
  8
1
 10
43.8674
 20
45.6074
 30
0.0000
 42
1.0000
  0
SEQEND
  8
0
  0
POLYLINE
  8
1
 66
1
 10
0.0000
 20
0.0000
 30
0.0000
 40
0.0000
 41
0.0000
 70
1
  0
VERTEX
  8
1
 10
46.3550
 20
42.1386
 30
0.0000
  0
VERTEX
  8
1
 10
64.1350
 20
42.1386
 30
0.0000
 42
1.0000
  0
VERTEX
  8
1
 10
64.1350
 20
42.9514
 30
0.0000
  0
VERTEX
  8
1
 10
46.3550
 20
42.9514
 30
0.0000
 42
1.0000
  0
SEQEND
  8
0
  0
POLYLINE
  8
1
 66
1
 10
0.0000
 20
0.0000
 30
0.0000
 40
0.0000
 41
0.0000
 70
1
  0
VERTEX
  8
1
 10
63.8912
 20
42.3621
 30
0.0000
  0
VERTEX
  8
1
 10
64.8437
 20
41.0921
 30
0.0000
 42
1.0000
  0
VERTEX
  8
1
 10
65.3313
 20
41.4579
 30
0.0000
  0
VERTEX
  8
1
 10
64.3788
 20
42.7279
 30
0.0000
 42
1.0000
  0
SEQEND
  8
0
  0
POLYLINE
  8
1
 66
1
 10
0.0000
 20
0.0000
 30
0.0000
 40
0.0000
 41
0.0000
 70
1
  0
VERTEX
  8
1
 10
65.0875
 20
40.9702
 30
0.0000
  0
VERTEX
  8
1
 10
66.3575
 20
40.9702
 30
0.0000
 42
1.0000
  0
VERTEX
  8
1
 10
66.3575
 20
41.5798
 30
0.0000
  0
VERTEX
  8
1
 10
65.0875
 20
41.5798
 30
0.0000
 42
1.0000
  0
SEQEND
  8
0
  0
POLYLINE
  8
1
 66
1
 10
0.0000
 20
0.0000
 30
0.0000
 40
0.0000
 41
0.0000
 70
1
  0
VERTEX
  8
1
 10
66.1420
 20
41.0595
 30
0.0000
  0
VERTEX
  8
1
 10
66.7770
 20
40.4245
 30
0.0000
 42
1.0000
  0
VERTEX
  8
1
 10
67.2080
 20
40.8555
 30
0.0000
  0
VERTEX
  8
1
 10
66.5730
 20
41.4905
 30
0.0000
 42
1.0000
  0
SEQEND
  8
0
  0
POLYLINE
  8
1
 66
1
 10
0.0000
 20
0.0000
 30
0.0000
 40
0.0000
 41
0.0000
 70
1
  0
VERTEX
  8
1
 10
66.6877
 20
40.6400
 30
0.0000
  0
VERTEX
  8
1
 10
66.6877
 20
39.3700
 30
0.0000
 42
1.0000
  0
VERTEX
  8
1
 10
67.2973
 20
39.3700
 30
0.0000
  0
VERTEX
  8
1
 10
67.2973
 20
40.6400
 30
0.0000
 42
1.0000
  0
SEQEND
  8
0
  0
POLYLINE
  8
1
 66
1
 10
0.0000
 20
0.0000
 30
0.0000
 40
0.0000
 41
0.0000
 70
1
  0
VERTEX
  8
1
 10
66.7918
 20
39.1406
 30
0.0000
  0
VERTEX
  8
1
 10
69.3318
 20
36.9181
 30
0.0000
 42
1.0000
  0
VERTEX
  8
1
 10
69.7332
 20
37.3769
 30
0.0000
  0
VERTEX
  8
1
 10
67.1932
 20
39.5994
 30
0.0000
 42
1.0000
  0
SEQEND
  8
0
  0
POLYLINE
  8
1
 66
1
 10
0.0000
 20
0.0000
 30
0.0000
 40
0.0000
 41
0.0000
 70
1
  0
VERTEX
  8
1
 10
69.2277
 20
37.1475
 30
0.0000
  0
VERTEX
  8
1
 10
69.2277
 20
33.0200
 30
0.0000
 42
1.0000
  0
VERTEX
  8
1
 10
69.8373
 20
33.0200
 30
0.0000
  0
VERTEX
  8
1
 10
69.8373
 20
37.1475
 30
0.0000
 42
1.0000
  0
SEQEND
  8
0
  0
POLYLINE
  8
1
 66
1
 10
0.0000
 20
0.0000
 30
0.0000
 40
0.0000
 41
0.0000
 70
1
  0
VERTEX
  8
1
 10
69.5325
 20
32.6136
 30
0.0000
  0
VERTEX
  8
1
 10
72.5350
 20
32.6136
 30
0.0000
 42
1.0000
  0
VERTEX
  8
1
 10
72.5350
 20
33.4264
 30
0.0000
  0
VERTEX
  8
1
 10
69.5325
 20
33.4264
 30
0.0000
 42
1.0000
  0
SEQEND
  8
0
  0
POLYLINE
  8
1
 66
1
 10
0.0000
 20
0.0000
 30
0.0000
 40
0.0000
 41
0.0000
 70
1
  0
VERTEX
  8
1
 10
72.3195
 20
33.2355
 30
0.0000
  0
VERTEX
  8
1
 10
72.0495
 20
32.9655
 30
0.0000
 42
1.0000
  0
VERTEX
  8
1
 10
72.4805
 20
32.5345
 30
0.0000
  0
VERTEX
  8
1
 10
72.7505
 20
32.8045
 30
0.0000
 42
1.0000
  0
SEQEND
  8
0
  0
POLYLINE
  8
1
 66
1
 10
0.0000
 20
0.0000
 30
0.0000
 40
0.0000
 41
0.0000
 70
1
  0
VERTEX
  8
1
 10
39.4850
 20
33.0336
 30
0.0000
  0
VERTEX
  8
1
 10
42.3300
 20
33.0336
 30
0.0000
 42
1.0000
  0
VERTEX
  8
1
 10
42.3300
 20
33.8464
 30
0.0000
  0
VERTEX
  8
1
 10
39.4850
 20
33.8464
 30
0.0000
 42
1.0000
  0
SEQEND
  8
0
  0
POLYLINE
  8
1
 66
1
 10
0.0000
 20
0.0000
 30
0.0000
 40
0.0000
 41
0.0000
 70
1
  0
VERTEX
  8
1
 10
42.5691
 20
33.1114
 30
0.0000
  0
VERTEX
  8
1
 10
47.2291
 20
36.5014
 30
0.0000
 42
1.0000
  0
VERTEX
  8
1
 10
46.7509
 20
37.1586
 30
0.0000
  0
VERTEX
  8
1
 10
42.0909
 20
33.7686
 30
0.0000
 42
1.0000
  0
SEQEND
  8
0
  0
POLYLINE
  8
1
 66
1
 10
0.0000
 20
0.0000
 30
0.0000
 40
0.0000
 41
0.0000
 70
1
  0
VERTEX
  8
1
 10
46.9900
 20
36.4236
 30
0.0000
  0
VERTEX
  8
1
 10
58.4200
 20
36.4236
 30
0.0000
 42
1.0000
  0
VERTEX
  8
1
 10
58.4200
 20
37.2364
 30
0.0000
  0
VERTEX
  8
1
 10
46.9900
 20
37.2364
 30
0.0000
 42
1.0000
  0
SEQEND
  8
0
  0
INSERT
  8
18
  2
ROUNDV
 10
58.4200
 20
36.8300
 30
0.0000
 41
1.1176
 42
1.1176
 43
1.0000
 50
0.0000
  0
POLYLINE
  8
1
 66
1
 10
0.0000
 20
0.0000
 30
0.0000
 40
0.0000
 41
0.0000
 70
1
  0
VERTEX
  8
1
 10
39.4850
 20
25.2152
 30
0.0000
  0
VERTEX
  8
1
 10
41.7125
 20
25.2152
 30
0.0000
 42
1.0000
  0
VERTEX
  8
1
 10
41.7125
 20
25.8248
 30
0.0000
  0
VERTEX
  8
1
 10
39.4850
 20
25.8248
 30
0.0000
 42
1.0000
  0
SEQEND
  8
0
  0
POLYLINE
  8
1
 66
1
 10
0.0000
 20
0.0000
 30
0.0000
 40
0.0000
 41
0.0000
 70
1
  0
VERTEX
  8
1
 10
41.9878
 20
25.3892
 30
0.0000
  0
VERTEX
  8
1
 10
43.1378
 20
27.8092
 30
0.0000
 42
1.0000
  0
VERTEX
  8
1
 10
42.5872
 20
28.0708
 30
0.0000
  0
VERTEX
  8
1
 10
41.4372
 20
25.6508
 30
0.0000
 42
1.0000
  0
SEQEND
  8
0
  0
POLYLINE
  8
1
 66
1
 10
0.0000
 20
0.0000
 30
0.0000
 40
0.0000
 41
0.0000
 70
1
  0
VERTEX
  8
1
 10
43.1673
 20
27.9400
 30
0.0000
  0
VERTEX
  8
1
 10
43.1673
 20
28.8925
 30
0.0000
 42
1.0000
  0
VERTEX
  8
1
 10
42.5577
 20
28.8925
 30
0.0000
  0
VERTEX
  8
1
 10
42.5577
 20
27.9400
 30
0.0000
 42
1.0000
  0
SEQEND
  8
0
  0
POLYLINE
  8
1
 66
1
 10
0.0000
 20
0.0000
 30
0.0000
 40
0.0000
 41
0.0000
 70
1
  0
VERTEX
  8
1
 10
43.1063
 20
28.7096
 30
0.0000
  0
VERTEX
  8
1
 10
44.0588
 20
29.9796
 30
0.0000
 42
1.0000
  0
VERTEX
  8
1
 10
43.5712
 20
30.3454
 30
0.0000
  0
VERTEX
  8
1
 10
42.6187
 20
29.0754
 30
0.0000
 42
1.0000
  0
SEQEND
  8
0
  0
POLYLINE
  8
1
 66
1
 10
0.0000
 20
0.0000
 30
0.0000
 40
0.0000
 41
0.0000
 70
1
  0
VERTEX
  8
1
 10
43.8150
 20
29.8577
 30
0.0000
  0
VERTEX
  8
1
 10
45.7550
 20
29.8577
 30
0.0000
 42
1.0000
  0
VERTEX
  8
1
 10
45.7550
 20
30.4673
 30
0.0000
  0
VERTEX
  8
1
 10
43.8150
 20
30.4673
 30
0.0000
 42
1.0000
  0
SEQEND
  8
0
  0
POLYLINE
  8
1
 66
1
 10
0.0000
 20
0.0000
 30
0.0000
 40
0.0000
 41
0.0000
 70
1
  0
VERTEX
  8
1
 10
45.5308
 20
29.9560
 30
0.0000
  0
VERTEX
  8
1
 10
47.8708
 20
27.4160
 30
0.0000
 42
1.0000
  0
VERTEX
  8
1
 10
48.3192
 20
27.8290
 30
0.0000
  0
VERTEX
  8
1
 10
45.9792
 20
30.3690
 30
0.0000
 42
1.0000
  0
SEQEND
  8
0
  0
POLYLINE
  8
1
 66
1
 10
0.0000
 20
0.0000
 30
0.0000
 40
0.0000
 41
0.0000
 70
1
  0
VERTEX
  8
1
 10
48.0950
 20
27.3177
 30
0.0000
  0
VERTEX
  8
1
 10
51.1175
 20
27.3177
 30
0.0000
 42
1.0000
  0
VERTEX
  8
1
 10
51.1175
 20
27.9273
 30
0.0000
  0
VERTEX
  8
1
 10
48.0950
 20
27.9273
 30
0.0000
 42
1.0000
  0
SEQEND
  8
0
  0
POLYLINE
  8
1
 66
1
 10
0.0000
 20
0.0000
 30
0.0000
 40
0.0000
 41
0.0000
 70
1
  0
VERTEX
  8
1
 10
50.9020
 20
27.4070
 30
0.0000
  0
VERTEX
  8
1
 10
51.8545
 20
26.4545
 30
0.0000
 42
1.0000
  0
VERTEX
  8
1
 10
52.2855
 20
26.8855
 30
0.0000
  0
VERTEX
  8
1
 10
51.3330
 20
27.8380
 30
0.0000
 42
1.0000
  0
SEQEND
  8
0
  0
POLYLINE
  8
1
 66
1
 10
0.0000
 20
0.0000
 30
0.0000
 40
0.0000
 41
0.0000
 70
1
  0
VERTEX
  8
1
 10
52.0700
 20
26.3652
 30
0.0000
  0
VERTEX
  8
1
 10
54.9275
 20
26.3652
 30
0.0000
 42
1.0000
  0
VERTEX
  8
1
 10
54.9275
 20
26.9748
 30
0.0000
  0
VERTEX
  8
1
 10
52.0700
 20
26.9748
 30
0.0000
 42
1.0000
  0
SEQEND
  8
0
  0
POLYLINE
  8
1
 66
1
 10
0.0000
 20
0.0000
 30
0.0000
 40
0.0000
 41
0.0000
 70
1
  0
VERTEX
  8
1
 10
55.1430
 20
26.4545
 30
0.0000
  0
VERTEX
  8
1
 10
56.4130
 20
27.7245
 30
0.0000
 42
1.0000
  0
VERTEX
  8
1
 10
55.9820
 20
28.1555
 30
0.0000
  0
VERTEX
  8
1
 10
54.7120
 20
26.8855
 30
0.0000
 42
1.0000
  0
SEQEND
  8
0
  0
POLYLINE
  8
1
 66
1
 10
0.0000
 20
0.0000
 30
0.0000
 40
0.0000
 41
0.0000
 70
1
  0
VERTEX
  8
1
 10
56.5023
 20
27.9400
 30
0.0000
  0
VERTEX
  8
1
 10
56.5023
 20
35.2425
 30
0.0000
 42
1.0000
  0
VERTEX
  8
1
 10
55.8927
 20
35.2425
 30
0.0000
  0
VERTEX
  8
1
 10
55.8927
 20
27.9400
 30
0.0000
 42
1.0000
  0
SEQEND
  8
0
  0
INSERT
  8
18
  2
ROUNDV
 10
56.1975
 20
35.2425
 30
0.0000
 41
0.9048
 42
0.9048
 43
1.0000
 50
0.0000
  0
POLYLINE
  8
1
 66
1
 10
0.0000
 20
0.0000
 30
0.0000
 40
0.0000
 41
0.0000
 70
1
  0
VERTEX
  8
1
 10
66.5128
 20
43.0789
 30
0.0000
  0
VERTEX
  8
1
 10
69.5278
 20
38.6339
 30
0.0000
 42
1.0000
  0
VERTEX
  8
1
 10
70.0322
 20
38.9761
 30
0.0000
  0
VERTEX
  8
1
 10
67.0172
 20
43.4211
 30
0.0000
 42
1.0000
  0
SEQEND
  8
0
  0
POLYLINE
  8
1
 66
1
 10
0.0000
 20
0.0000
 30
0.0000
 40
0.0000
 41
0.0000
 70
1
  0
VERTEX
  8
1
 10
69.5645
 20
38.5895
 30
0.0000
  0
VERTEX
  8
1
 10
72.8095
 20
35.3445
 30
0.0000
 42
1.0000
  0
VERTEX
  8
1
 10
73.2405
 20
35.7755
 30
0.0000
  0
VERTEX
  8
1
 10
69.9955
 20
39.0205
 30
0.0000
 42
1.0000
  0
SEQEND
  8
0
  0
POLYLINE
  8
1
 66
1
 10
0.0000
 20
0.0000
 30
0.0000
 40
0.0000
 41
0.0000
 70
1
  0
VERTEX
  8
1
 10
72.8095
 20
35.3445
 30
0.0000
  0
VERTEX
  8
1
 10
74.7145
 20
33.4395
 30
0.0000
 42
1.0000
  0
VERTEX
  8
1
 10
75.1455
 20
33.8705
 30
0.0000
  0
VERTEX
  8
1
 10
73.2405
 20
35.7755
 30
0.0000
 42
1.0000
  0
SEQEND
  8
0
  0
POLYLINE
  8
1
 66
1
 10
0.0000
 20
0.0000
 30
0.0000
 40
0.0000
 41
0.0000
 70
1
  0
VERTEX
  8
1
 10
74.6252
 20
33.6550
 30
0.0000
  0
VERTEX
  8
1
 10
74.6252
 20
24.7650
 30
0.0000
 42
1.0000
  0
VERTEX
  8
1
 10
75.2348
 20
24.7650
 30
0.0000
  0
VERTEX
  8
1
 10
75.2348
 20
33.6550
 30
0.0000
 42
1.0000
  0
SEQEND
  8
0
  0
POLYLINE
  8
1
 66
1
 10
0.0000
 20
0.0000
 30
0.0000
 40
0.0000
 41
0.0000
 70
1
  0
VERTEX
  8
1
 10
74.7145
 20
24.9805
 30
0.0000
  0
VERTEX
  8
1
 10
73.4445
 20
23.7105
 30
0.0000
 42
1.0000
  0
VERTEX
  8
1
 10
73.8755
 20
23.2795
 30
0.0000
  0
VERTEX
  8
1
 10
75.1455
 20
24.5495
 30
0.0000
 42
1.0000
  0
SEQEND
  8
0
  0
POLYLINE
  8
1
 66
1
 10
0.0000
 20
0.0000
 30
0.0000
 40
0.0000
 41
0.0000
 70
1
  0
VERTEX
  8
1
 10
73.3552
 20
23.4950
 30
0.0000
  0
VERTEX
  8
1
 10
73.3552
 20
21.9075
 30
0.0000
 42
1.0000
  0
VERTEX
  8
1
 10
73.9648
 20
21.9075
 30
0.0000
  0
VERTEX
  8
1
 10
73.9648
 20
23.4950
 30
0.0000
 42
1.0000
  0
SEQEND
  8
0
  0
POLYLINE
  8
1
 66
1
 10
0.0000
 20
0.0000
 30
0.0000
 40
0.0000
 41
0.0000
 70
1
  0
VERTEX
  8
1
 10
73.4445
 20
22.1230
 30
0.0000
  0
VERTEX
  8
1
 10
72.1745
 20
20.8530
 30
0.0000
 42
1.0000
  0
VERTEX
  8
1
 10
72.6055
 20
20.4220
 30
0.0000
  0
VERTEX
  8
1
 10
73.8755
 20
21.6920
 30
0.0000
 42
1.0000
  0
SEQEND
  8
0
  0
POLYLINE
  8
1
 66
1
 10
0.0000
 20
0.0000
 30
0.0000
 40
0.0000
 41
0.0000
 70
1
  0
VERTEX
  8
1
 10
72.3900
 20
20.9423
 30
0.0000
  0
VERTEX
  8
1
 10
69.5325
 20
20.9423
 30
0.0000
 42
1.0000
  0
VERTEX
  8
1
 10
69.5325
 20
20.3327
 30
0.0000
  0
VERTEX
  8
1
 10
72.3900
 20
20.3327
 30
0.0000
 42
1.0000
  0
SEQEND
  8
0
  0
POLYLINE
  8
1
 66
1
 10
0.0000
 20
0.0000
 30
0.0000
 40
0.0000
 41
0.0000
 70
1
  0
VERTEX
  8
1
 10
69.2933
 20
20.8264
 30
0.0000
  0
VERTEX
  8
1
 10
68.3408
 20
19.6199
 30
0.0000
 42
1.0000
  0
VERTEX
  8
1
 10
68.8192
 20
19.2421
 30
0.0000
  0
VERTEX
  8
1
 10
69.7717
 20
20.4486
 30
0.0000
 42
1.0000
  0
SEQEND
  8
0
  0
POLYLINE
  8
1
 66
1
 10
0.0000
 20
0.0000
 30
0.0000
 40
0.0000
 41
0.0000
 70
1
  0
VERTEX
  8
1
 10
68.5800
 20
19.7358
 30
0.0000
  0
VERTEX
  8
1
 10
48.2600
 20
19.7358
 30
0.0000
 42
1.0000
  0
VERTEX
  8
1
 10
48.2600
 20
19.1262
 30
0.0000
  0
VERTEX
  8
1
 10
68.5800
 20
19.1262
 30
0.0000
 42
1.0000
  0
SEQEND
  8
0
  0
POLYLINE
  8
1
 66
1
 10
0.0000
 20
0.0000
 30
0.0000
 40
0.0000
 41
0.0000
 70
1
  0
VERTEX
  8
1
 10
48.1556
 20
19.7174
 30
0.0000
  0
VERTEX
  8
1
 10
42.7581
 20
17.7489
 30
0.0000
 42
1.0000
  0
VERTEX
  8
1
 10
42.9669
 20
17.1761
 30
0.0000
  0
VERTEX
  8
1
 10
48.3644
 20
19.1446
 30
0.0000
 42
1.0000
  0
SEQEND
  8
0
  0
POLYLINE
  8
1
 66
1
 10
0.0000
 20
0.0000
 30
0.0000
 40
0.0000
 41
0.0000
 70
1
  0
VERTEX
  8
1
 10
42.8625
 20
17.7673
 30
0.0000
  0
VERTEX
  8
1
 10
39.6225
 20
17.7673
 30
0.0000
 42
1.0000
  0
VERTEX
  8
1
 10
39.6225
 20
17.1577
 30
0.0000
  0
VERTEX
  8
1
 10
42.8625
 20
17.1577
 30
0.0000
 42
1.0000
  0
SEQEND
  8
0
  0
POLYLINE
  8
1
 66
1
 10
0.0000
 20
0.0000
 30
0.0000
 40
0.0000
 41
0.0000
 70
1
  0
VERTEX
  8
1
 10
39.8380
 20
17.6780
 30
0.0000
  0
VERTEX
  8
1
 10
39.7005
 20
17.8155
 30
0.0000
 42
1.0000
  0
VERTEX
  8
1
 10
39.2695
 20
17.3845
 30
0.0000
  0
VERTEX
  8
1
 10
39.4070
 20
17.2470
 30
0.0000
 42
1.0000
  0
SEQEND
  8
0
  0
POLYLINE
  8
1
 66
1
 10
0.0000
 20
0.0000
 30
0.0000
 40
0.0000
 41
0.0000
 70
1
  0
VERTEX
  8
1
 10
72.6055
 20
34.7095
 30
0.0000
  0
VERTEX
  8
1
 10
73.2405
 20
35.3445
 30
0.0000
 42
1.0000
  0
VERTEX
  8
1
 10
72.8095
 20
35.7755
 30
0.0000
  0
VERTEX
  8
1
 10
72.1745
 20
35.1405
 30
0.0000
 42
1.0000
  0
SEQEND
  8
0
  0
INSERT
  8
18
  2
ROUNDV
 10
72.3900
 20
34.9250
 30
0.0000
 41
0.9048
 42
0.9048
 43
1.0000
 50
0.0000
  0
POLYLINE
  8
1
 66
1
 10
0.0000
 20
0.0000
 30
0.0000
 40
0.0000
 41
0.0000
 70
1
  0
VERTEX
  8
1
 10
56.7182
 20
23.3585
 30
0.0000
  0
VERTEX
  8
1
 10
56.7182
 20
26.3525
 30
0.0000
 42
1.0000
  0
VERTEX
  8
1
 10
56.3118
 20
26.3525
 30
0.0000
  0
VERTEX
  8
1
 10
56.3118
 20
23.3585
 30
0.0000
 42
1.0000
  0
SEQEND
  8
0
  0
POLYLINE
  8
1
 66
1
 10
0.0000
 20
0.0000
 30
0.0000
 40
0.0000
 41
0.0000
 70
1
  0
VERTEX
  8
1
 10
56.6587
 20
26.2088
 30
0.0000
  0
VERTEX
  8
1
 10
58.2462
 20
27.7963
 30
0.0000
 42
1.0000
  0
VERTEX
  8
1
 10
57.9588
 20
28.0837
 30
0.0000
  0
VERTEX
  8
1
 10
56.3713
 20
26.4962
 30
0.0000
 42
1.0000
  0
SEQEND
  8
0
  0
POLYLINE
  8
1
 66
1
 10
0.0000
 20
0.0000
 30
0.0000
 40
0.0000
 41
0.0000
 70
1
  0
VERTEX
  8
1
 10
58.3057
 20
27.9400
 30
0.0000
  0
VERTEX
  8
1
 10
58.3057
 20
33.9725
 30
0.0000
 42
1.0000
  0
VERTEX
  8
1
 10
57.8993
 20
33.9725
 30
0.0000
  0
VERTEX
  8
1
 10
57.8993
 20
27.9400
 30
0.0000
 42
1.0000
  0
SEQEND
  8
0
  0
POLYLINE
  8
1
 66
1
 10
0.0000
 20
0.0000
 30
0.0000
 40
0.0000
 41
0.0000
 70
1
  0
VERTEX
  8
1
 10
58.2568
 20
33.8403
 30
0.0000
  0
VERTEX
  8
1
 10
60.1618
 20
36.0628
 30
0.0000
 42
1.0000
  0
VERTEX
  8
1
 10
59.8532
 20
36.3272
 30
0.0000
  0
VERTEX
  8
1
 10
57.9482
 20
34.1047
 30
0.0000
 42
1.0000
  0
SEQEND
  8
0
  0
POLYLINE
  8
1
 66
1
 10
0.0000
 20
0.0000
 30
0.0000
 40
0.0000
 41
0.0000
 70
1
  0
VERTEX
  8
1
 10
60.2107
 20
36.1950
 30
0.0000
  0
VERTEX
  8
1
 10
60.2107
 20
37.4650
 30
0.0000
 42
1.0000
  0
VERTEX
  8
1
 10
59.8043
 20
37.4650
 30
0.0000
  0
VERTEX
  8
1
 10
59.8043
 20
36.1950
 30
0.0000
 42
1.0000
  0
SEQEND
  8
0
  0
POLYLINE
  8
1
 66
1
 10
0.0000
 20
0.0000
 30
0.0000
 40
0.0000
 41
0.0000
 70
1
  0
VERTEX
  8
1
 10
60.1512
 20
37.6087
 30
0.0000
  0
VERTEX
  8
1
 10
59.5162
 20
38.2437
 30
0.0000
 42
1.0000
  0
VERTEX
  8
1
 10
59.2288
 20
37.9563
 30
0.0000
  0
VERTEX
  8
1
 10
59.8638
 20
37.3213
 30
0.0000
 42
1.0000
  0
SEQEND
  8
0
  0
POLYLINE
  8
1
 66
1
 10
0.0000
 20
0.0000
 30
0.0000
 40
0.0000
 41
0.0000
 70
1
  0
VERTEX
  8
1
 10
59.3725
 20
38.3032
 30
0.0000
  0
VERTEX
  8
1
 10
46.3550
 20
38.3032
 30
0.0000
 42
1.0000
  0
VERTEX
  8
1
 10
46.3550
 20
37.8968
 30
0.0000
  0
VERTEX
  8
1
 10
59.3725
 20
37.8968
 30
0.0000
 42
1.0000
  0
SEQEND
  8
0
  0
POLYLINE
  8
1
 66
1
 10
0.0000
 20
0.0000
 30
0.0000
 40
0.0000
 41
0.0000
 70
1
  0
VERTEX
  8
1
 10
46.2495
 20
38.2737
 30
0.0000
  0
VERTEX
  8
1
 10
41.8045
 20
35.5749
 30
0.0000
 42
1.0000
  0
VERTEX
  8
1
 10
42.0155
 20
35.2276
 30
0.0000
  0
VERTEX
  8
1
 10
46.4605
 20
37.9263
 30
0.0000
 42
1.0000
  0
SEQEND
  8
0
  0
POLYLINE
  8
1
 66
1
 10
0.0000
 20
0.0000
 30
0.0000
 40
0.0000
 41
0.0000
 70
1
  0
VERTEX
  8
1
 10
41.9100
 20
35.6299
 30
0.0000
  0
VERTEX
  8
1
 10
36.1950
 20
35.6299
 30
0.0000
 42
1.0000
  0
VERTEX
  8
1
 10
36.1950
 20
35.1727
 30
0.0000
  0
VERTEX
  8
1
 10
41.9100
 20
35.1727
 30
0.0000
 42
1.0000
  0
SEQEND
  8
0
  0
POLYLINE
  8
1
 66
1
 10
0.0000
 20
0.0000
 30
0.0000
 40
0.0000
 41
0.0000
 70
1
  0
VERTEX
  8
1
 10
36.3115
 20
35.5677
 30
0.0000
  0
VERTEX
  8
1
 10
34.7240
 20
36.6790
 30
0.0000
 42
1.0000
  0
VERTEX
  8
1
 10
34.4910
 20
36.3460
 30
0.0000
  0
VERTEX
  8
1
 10
36.0785
 20
35.2348
 30
0.0000
 42
1.0000
  0
SEQEND
  8
0
  0
POLYLINE
  8
1
 66
1
 10
0.0000
 20
0.0000
 30
0.0000
 40
0.0000
 41
0.0000
 70
1
  0
VERTEX
  8
1
 10
34.6075
 20
36.7157
 30
0.0000
  0
VERTEX
  8
1
 10
27.6225
 20
36.7157
 30
0.0000
 42
1.0000
  0
VERTEX
  8
1
 10
27.6225
 20
36.3093
 30
0.0000
  0
VERTEX
  8
1
 10
34.6075
 20
36.3093
 30
0.0000
 42
1.0000
  0
SEQEND
  8
0
  0
POLYLINE
  8
1
 66
1
 10
0.0000
 20
0.0000
 30
0.0000
 40
0.0000
 41
0.0000
 70
1
  0
VERTEX
  8
1
 10
27.5411
 20
36.6987
 30
0.0000
  0
VERTEX
  8
1
 10
22.4611
 20
34.4762
 30
0.0000
 42
1.0000
  0
VERTEX
  8
1
 10
22.6239
 20
34.1038
 30
0.0000
  0
VERTEX
  8
1
 10
27.7039
 20
36.3263
 30
0.0000
 42
1.0000
  0
SEQEND
  8
0
  0
INSERT
  8
18
  2
ROUNDV
 10
56.5150
 20
23.3585
 30
0.0000
 41
0.9048
 42
0.9048
 43
1.0000
 50
0.0000
  0
INSERT
  8
18
  2
ROUNDV
 10
22.5425
 20
34.2900
 30
0.0000
 41
0.9048
 42
0.9048
 43
1.0000
 50
0.0000
  0
POLYLINE
  8
1
 66
1
 10
0.0000
 20
0.0000
 30
0.0000
 40
0.0000
 41
0.0000
 70
1
  0
VERTEX
  8
1
 10
53.0093
 20
31.7326
 30
0.0000
  0
VERTEX
  8
1
 10
53.1363
 20
33.9551
 30
0.0000
 42
1.0000
  0
VERTEX
  8
1
 10
52.5277
 20
33.9899
 30
0.0000
  0
VERTEX
  8
1
 10
52.4007
 20
31.7674
 30
0.0000
 42
1.0000
  0
SEQEND
  8
0
  0
POLYLINE
  8
1
 66
1
 10
0.0000
 20
0.0000
 30
0.0000
 40
0.0000
 41
0.0000
 70
1
  0
VERTEX
  8
1
 10
52.9800
 20
34.2389
 30
0.0000
  0
VERTEX
  8
1
 10
52.4085
 20
34.5564
 30
0.0000
 42
1.0000
  0
VERTEX
  8
1
 10
52.1125
 20
34.0236
 30
0.0000
  0
VERTEX
  8
1
 10
52.6840
 20
33.7061
 30
0.0000
 42
1.0000
  0
SEQEND
  8
0
  0
POLYLINE
  8
1
 66
1
 10
0.0000
 20
0.0000
 30
0.0000
 40
0.0000
 41
0.0000
 70
1
  0
VERTEX
  8
1
 10
52.2605
 20
34.5948
 30
0.0000
  0
VERTEX
  8
1
 10
46.6090
 20
34.5948
 30
0.0000
 42
1.0000
  0
VERTEX
  8
1
 10
46.6090
 20
33.9852
 30
0.0000
  0
VERTEX
  8
1
 10
52.2605
 20
33.9852
 30
0.0000
 42
1.0000
  0
SEQEND
  8
0
  0
POLYLINE
  8
1
 66
1
 10
0.0000
 20
0.0000
 30
0.0000
 40
0.0000
 41
0.0000
 70
1
  0
VERTEX
  8
1
 10
46.4337
 20
34.5393
 30
0.0000
  0
VERTEX
  8
1
 10
42.3697
 20
31.6818
 30
0.0000
 42
1.0000
  0
VERTEX
  8
1
 10
42.7203
 20
31.1832
 30
0.0000
  0
VERTEX
  8
1
 10
46.7843
 20
34.0407
 30
0.0000
 42
1.0000
  0
SEQEND
  8
0
  0
POLYLINE
  8
1
 66
1
 10
0.0000
 20
0.0000
 30
0.0000
 40
0.0000
 41
0.0000
 70
1
  0
VERTEX
  8
1
 10
42.5450
 20
31.6611
 30
0.0000
  0
VERTEX
  8
1
 10
36.5125
 20
31.6611
 30
0.0000
 42
1.0000
  0
VERTEX
  8
1
 10
36.5125
 20
31.2039
 30
0.0000
  0
VERTEX
  8
1
 10
42.5450
 20
31.2039
 30
0.0000
 42
1.0000
  0
SEQEND
  8
0
  0
POLYLINE
  8
1
 66
1
 10
0.0000
 20
0.0000
 30
0.0000
 40
0.0000
 41
0.0000
 70
1
  0
VERTEX
  8
1
 10
33.0202
 20
34.6711
 30
0.0000
  0
VERTEX
  8
1
 10
34.2902
 20
33.0836
 30
0.0000
 42
1.0000
  0
VERTEX
  8
1
 10
34.9248
 20
33.5914
 30
0.0000
  0
VERTEX
  8
1
 10
33.6548
 20
35.1789
 30
0.0000
 42
1.0000
  0
SEQEND
  8
0
  0
POLYLINE
  8
1
 66
1
 10
0.0000
 20
0.0000
 30
0.0000
 40
0.0000
 41
0.0000
 70
1
  0
VERTEX
  8
1
 10
34.3920
 20
33.1220
 30
0.0000
  0
VERTEX
  8
1
 10
36.2970
 20
31.2170
 30
0.0000
 42
1.0000
  0
VERTEX
  8
1
 10
36.7280
 20
31.6480
 30
0.0000
  0
VERTEX
  8
1
 10
34.8230
 20
33.5530
 30
0.0000
 42
1.0000
  0
SEQEND
  8
0
  0
INSERT
  8
18
  2
ROUNDV
 10
33.3375
 20
34.9250
 30
0.0000
 41
0.9048
 42
0.9048
 43
1.0000
 50
0.0000
  0
POLYLINE
  8
1
 66
1
 10
0.0000
 20
0.0000
 30
0.0000
 40
0.0000
 41
0.0000
 70
1
  0
VERTEX
  8
1
 10
90.4875
 20
14.5923
 30
0.0000
  0
VERTEX
  8
1
 10
88.9000
 20
14.5923
 30
0.0000
 42
1.0000
  0
VERTEX
  8
1
 10
88.9000
 20
13.9827
 30
0.0000
  0
VERTEX
  8
1
 10
90.4875
 20
13.9827
 30
0.0000
 42
1.0000
  0
SEQEND
  8
0
  0
POLYLINE
  8
1
 66
1
 10
0.0000
 20
0.0000
 30
0.0000
 40
0.0000
 41
0.0000
 70
1
  0
VERTEX
  8
1
 10
89.0904
 20
14.5255
 30
0.0000
  0
VERTEX
  8
1
 10
87.5029
 20
15.7955
 30
0.0000
 42
1.0000
  0
VERTEX
  8
1
 10
87.1221
 20
15.3195
 30
0.0000
  0
VERTEX
  8
1
 10
88.7096
 20
14.0495
 30
0.0000
 42
1.0000
  0
SEQEND
  8
0
  0
POLYLINE
  8
1
 66
1
 10
0.0000
 20
0.0000
 30
0.0000
 40
0.0000
 41
0.0000
 70
1
  0
VERTEX
  8
1
 10
87.6173
 20
15.5575
 30
0.0000
  0
VERTEX
  8
1
 10
87.6173
 20
33.6550
 30
0.0000
 42
1.0000
  0
VERTEX
  8
1
 10
87.0077
 20
33.6550
 30
0.0000
  0
VERTEX
  8
1
 10
87.0077
 20
15.5575
 30
0.0000
 42
1.0000
  0
SEQEND
  8
0
  0
POLYLINE
  8
1
 66
1
 10
0.0000
 20
0.0000
 30
0.0000
 40
0.0000
 41
0.0000
 70
1
  0
VERTEX
  8
1
 10
87.6034
 20
33.5641
 30
0.0000
  0
VERTEX
  8
1
 10
89.1909
 20
38.6441
 30
0.0000
 42
1.0000
  0
VERTEX
  8
1
 10
88.6091
 20
38.8259
 30
0.0000
  0
VERTEX
  8
1
 10
87.0216
 20
33.7459
 30
0.0000
 42
1.0000
  0
SEQEND
  8
0
  0
INSERT
  8
18
  2
ROUNDV
 10
90.4875
 20
14.2875
 30
0.0000
 41
1.1176
 42
1.1176
 43
1.0000
 50
0.0000
  0
INSERT
  8
18
  2
ROUNDV
 10
88.9000
 20
38.7350
 30
0.0000
 41
0.9048
 42
0.9048
 43
1.0000
 50
0.0000
  0
POLYLINE
  8
1
 66
1
 10
0.0000
 20
0.0000
 30
0.0000
 40
0.0000
 41
0.0000
 70
1
  0
VERTEX
  8
1
 10
90.5002
 20
49.5300
 30
0.0000
  0
VERTEX
  8
1
 10
90.5002
 20
39.3700
 30
0.0000
 42
1.0000
  0
VERTEX
  8
1
 10
91.1098
 20
39.3700
 30
0.0000
  0
VERTEX
  8
1
 10
91.1098
 20
49.5300
 30
0.0000
 42
1.0000
  0
SEQEND
  8
0
  0
POLYLINE
  8
1
 66
1
 10
0.0000
 20
0.0000
 30
0.0000
 40
0.0000
 41
0.0000
 70
1
  0
VERTEX
  8
1
 10
90.5324
 20
39.2337
 30
0.0000
  0
VERTEX
  8
1
 10
91.1674
 20
37.9637
 30
0.0000
 42
1.0000
  0
VERTEX
  8
1
 10
91.7126
 20
38.2363
 30
0.0000
  0
VERTEX
  8
1
 10
91.0776
 20
39.5063
 30
0.0000
 42
1.0000
  0
SEQEND
  8
0
  0
POLYLINE
  8
1
 66
1
 10
0.0000
 20
0.0000
 30
0.0000
 40
0.0000
 41
0.0000
 70
1
  0
VERTEX
  8
1
 10
91.1352
 20
38.1000
 30
0.0000
  0
VERTEX
  8
1
 10
91.1352
 20
36.1950
 30
0.0000
 42
1.0000
  0
VERTEX
  8
1
 10
91.7448
 20
36.1950
 30
0.0000
  0
VERTEX
  8
1
 10
91.7448
 20
38.1000
 30
0.0000
 42
1.0000
  0
SEQEND
  8
0
  0
POLYLINE
  8
1
 66
1
 10
0.0000
 20
0.0000
 30
0.0000
 40
0.0000
 41
0.0000
 70
1
  0
VERTEX
  8
1
 10
91.1508
 20
36.2914
 30
0.0000
  0
VERTEX
  8
1
 10
89.5633
 20
31.5289
 30
0.0000
 42
1.0000
  0
VERTEX
  8
1
 10
90.1417
 20
31.3361
 30
0.0000
  0
VERTEX
  8
1
 10
91.7292
 20
36.0986
 30
0.0000
 42
1.0000
  0
SEQEND
  8
0
  0
POLYLINE
  8
1
 66
1
 10
0.0000
 20
0.0000
 30
0.0000
 40
0.0000
 41
0.0000
 70
1
  0
VERTEX
  8
1
 10
89.5477
 20
31.4325
 30
0.0000
  0
VERTEX
  8
1
 10
89.5477
 20
24.4475
 30
0.0000
 42
1.0000
  0
VERTEX
  8
1
 10
90.1573
 20
24.4475
 30
0.0000
  0
VERTEX
  8
1
 10
90.1573
 20
31.4325
 30
0.0000
 42
1.0000
  0
SEQEND
  8
0
  0
POLYLINE
  8
1
 66
1
 10
0.0000
 20
0.0000
 30
0.0000
 40
0.0000
 41
0.0000
 70
1
  0
VERTEX
  8
1
 10
89.6621
 20
24.2095
 30
0.0000
  0
VERTEX
  8
1
 10
91.2496
 20
22.9395
 30
0.0000
 42
1.0000
  0
VERTEX
  8
1
 10
91.6304
 20
23.4155
 30
0.0000
  0
VERTEX
  8
1
 10
90.0429
 20
24.6855
 30
0.0000
 42
1.0000
  0
SEQEND
  8
0
  0
POLYLINE
  8
1
 66
1
 10
0.0000
 20
0.0000
 30
0.0000
 40
0.0000
 41
0.0000
 70
1
  0
VERTEX
  8
1
 10
91.4400
 20
22.8727
 30
0.0000
  0
VERTEX
  8
1
 10
92.7100
 20
22.8727
 30
0.0000
 42
1.0000
  0
VERTEX
  8
1
 10
92.7100
 20
23.4823
 30
0.0000
  0
VERTEX
  8
1
 10
91.4400
 20
23.4823
 30
0.0000
 42
1.0000
  0
SEQEND
  8
0
  0
POLYLINE
  8
1
 66
1
 10
0.0000
 20
0.0000
 30
0.0000
 40
0.0000
 41
0.0000
 70
1
  0
VERTEX
  8
1
 10
92.4564
 20
23.0084
 30
0.0000
  0
VERTEX
  8
1
 10
93.0914
 20
22.0559
 30
0.0000
 42
1.0000
  0
VERTEX
  8
1
 10
93.5986
 20
22.3941
 30
0.0000
  0
VERTEX
  8
1
 10
92.9636
 20
23.3466
 30
0.0000
 42
1.0000
  0
SEQEND
  8
0
  0
POLYLINE
  8
1
 66
1
 10
0.0000
 20
0.0000
 30
0.0000
 40
0.0000
 41
0.0000
 70
1
  0
VERTEX
  8
1
 10
93.0402
 20
22.2250
 30
0.0000
  0
VERTEX
  8
1
 10
93.0402
 20
20.6375
 30
0.0000
 42
1.0000
  0
VERTEX
  8
1
 10
93.6498
 20
20.6375
 30
0.0000
  0
VERTEX
  8
1
 10
93.6498
 20
22.2250
 30
0.0000
 42
1.0000
  0
SEQEND
  8
0
  0
INSERT
  8
18
  2
ROUNDV
 10
90.8050
 20
49.5300
 30
0.0000
 41
0.9048
 42
0.9048
 43
1.0000
 50
0.0000
  0
INSERT
  8
18
  2
ROUNDV
 10
93.3450
 20
20.6375
 30
0.0000
 41
1.1176
 42
1.1176
 43
1.0000
 50
0.0000
  0
POLYLINE
  8
1
 66
1
 10
0.0000
 20
0.0000
 30
0.0000
 40
0.0000
 41
0.0000
 70
1
  0
VERTEX
  8
1
 10
52.7050
 20
24.6507
 30
0.0000
  0
VERTEX
  8
1
 10
44.4500
 20
24.6507
 30
0.0000
 42
1.0000
  0
VERTEX
  8
1
 10
44.4500
 20
24.2443
 30
0.0000
  0
VERTEX
  8
1
 10
52.7050
 20
24.2443
 30
0.0000
 42
1.0000
  0
SEQEND
  8
0
  0
POLYLINE
  8
1
 66
1
 10
0.0000
 20
0.0000
 30
0.0000
 40
0.0000
 41
0.0000
 70
1
  0
VERTEX
  8
1
 10
44.5937
 20
24.5912
 30
0.0000
  0
VERTEX
  8
1
 10
43.6412
 20
25.5437
 30
0.0000
 42
1.0000
  0
VERTEX
  8
1
 10
43.3538
 20
25.2563
 30
0.0000
  0
VERTEX
  8
1
 10
44.3063
 20
24.3038
 30
0.0000
 42
1.0000
  0
SEQEND
  8
0
  0
INSERT
  8
18
  2
ROUNDV
 10
52.7050
 20
24.4475
 30
0.0000
 41
0.9048
 42
0.9048
 43
1.0000
 50
0.0000
  0
INSERT
  8
18
  2
ROUNDV
 10
43.4975
 20
25.4000
 30
0.0000
 41
0.9048
 42
0.9048
 43
1.0000
 50
0.0000
  0
POLYLINE
  8
1
 66
1
 10
0.0000
 20
0.0000
 30
0.0000
 40
0.0000
 41
0.0000
 70
1
  0
VERTEX
  8
1
 10
34.7043
 20
15.8949
 30
0.0000
  0
VERTEX
  8
1
 10
30.8943
 20
17.9587
 30
0.0000
 42
1.0000
  0
VERTEX
  8
1
 10
30.7007
 20
17.6013
 30
0.0000
  0
VERTEX
  8
1
 10
34.5107
 20
15.5376
 30
0.0000
 42
1.0000
  0
SEQEND
  8
0
  0
POLYLINE
  8
1
 66
1
 10
0.0000
 20
0.0000
 30
0.0000
 40
0.0000
 41
0.0000
 70
1
  0
VERTEX
  8
1
 10
30.7975
 20
17.9832
 30
0.0000
  0
VERTEX
  8
1
 10
27.9400
 20
17.9832
 30
0.0000
 42
1.0000
  0
VERTEX
  8
1
 10
27.9400
 20
17.5768
 30
0.0000
  0
VERTEX
  8
1
 10
30.7975
 20
17.5768
 30
0.0000
 42
1.0000
  0
SEQEND
  8
0
  0
INSERT
  8
18
  2
ROUNDV
 10
34.6075
 20
15.7163
 30
0.0000
 41
0.9048
 42
0.9048
 43
1.0000
 50
0.0000
  0
INSERT
  8
18
  2
ROUNDV
 10
27.9400
 20
17.7800
 30
0.0000
 41
0.9048
 42
0.9048
 43
1.0000
 50
0.0000
  0
POLYLINE
  8
1
 66
1
 10
0.0000
 20
0.0000
 30
0.0000
 40
0.0000
 41
0.0000
 70
1
  0
VERTEX
  8
1
 10
39.4850
 20
37.0952
 30
0.0000
  0
VERTEX
  8
1
 10
42.2260
 20
37.0952
 30
0.0000
 42
1.0000
  0
VERTEX
  8
1
 10
42.2260
 20
37.7048
 30
0.0000
  0
VERTEX
  8
1
 10
39.4850
 20
37.7048
 30
0.0000
 42
1.0000
  0
SEQEND
  8
0
  0
POLYLINE
  8
1
 66
1
 10
0.0000
 20
0.0000
 30
0.0000
 40
0.0000
 41
0.0000
 70
1
  0
VERTEX
  8
1
 10
42.3551
 20
37.1239
 30
0.0000
  0
VERTEX
  8
1
 10
43.3091
 20
37.5699
 30
0.0000
 42
1.0000
  0
VERTEX
  8
1
 10
43.0509
 20
38.1221
 30
0.0000
  0
VERTEX
  8
1
 10
42.0969
 20
37.6761
 30
0.0000
 42
1.0000
  0
SEQEND
  8
0
  0
POLYLINE
  8
1
 66
1
 10
0.0000
 20
0.0000
 30
0.0000
 40
0.0000
 41
0.0000
 70
1
  0
VERTEX
  8
1
 10
39.4410
 20
40.9560
 30
0.0000
  0
VERTEX
  8
1
 10
43.1360
 20
40.5535
 30
0.0000
 42
1.0000
  0
VERTEX
  8
1
 10
43.2240
 20
41.3615
 30
0.0000
  0
VERTEX
  8
1
 10
39.5290
 20
41.7640
 30
0.0000
 42
1.0000
  0
SEQEND
  8
0
  0
POLYLINE
  8
1
 66
1
 10
0.0000
 20
0.0000
 30
0.0000
 40
0.0000
 41
0.0000
 70
1
  0
VERTEX
  8
1
 10
43.1800
 20
40.5511
 30
0.0000
  0
VERTEX
  8
1
 10
61.5100
 20
40.5511
 30
0.0000
 42
1.0000
  0
VERTEX
  8
1
 10
61.5100
 20
41.3639
 30
0.0000
  0
VERTEX
  8
1
 10
43.1800
 20
41.3639
 30
0.0000
 42
1.0000
  0
SEQEND
  8
0
  0
POLYLINE
  8
1
 66
1
 10
0.0000
 20
0.0000
 30
0.0000
 40
0.0000
 41
0.0000
 70
1
  0
VERTEX
  8
1
 10
61.3625
 20
40.5788
 30
0.0000
  0
VERTEX
  8
1
 10
64.6225
 20
39.3088
 30
0.0000
 42
1.0000
  0
VERTEX
  8
1
 10
64.9175
 20
40.0662
 30
0.0000
  0
VERTEX
  8
1
 10
61.6575
 20
41.3362
 30
0.0000
 42
1.0000
  0
SEQEND
  8
0
  0
POLYLINE
  8
1
 66
1
 10
0.0000
 20
0.0000
 30
0.0000
 40
0.0000
 41
0.0000
 70
1
  0
VERTEX
  8
1
 10
64.7700
 20
39.2811
 30
0.0000
  0
VERTEX
  8
1
 10
65.4050
 20
39.2811
 30
0.0000
 42
1.0000
  0
VERTEX
  8
1
 10
65.4050
 20
40.0939
 30
0.0000
  0
VERTEX
  8
1
 10
64.7700
 20
40.0939
 30
0.0000
 42
1.0000
  0
SEQEND
  8
0
  0
INSERT
  8
18
  2
ROUNDV
 10
65.4050
 20
39.6875
 30
0.0000
 41
0.9048
 42
0.9048
 43
1.0000
 50
0.0000
  0
POLYLINE
  8
1
 66
1
 10
0.0000
 20
0.0000
 30
0.0000
 40
0.0000
 41
0.0000
 70
1
  0
VERTEX
  8
1
 10
66.7650
 20
22.5548
 30
0.0000
  0
VERTEX
  8
1
 10
64.1350
 20
22.5548
 30
0.0000
 42
1.0000
  0
VERTEX
  8
1
 10
64.1350
 20
21.9452
 30
0.0000
  0
VERTEX
  8
1
 10
66.7650
 20
21.9452
 30
0.0000
 42
1.0000
  0
SEQEND
  8
0
  0
POLYLINE
  8
1
 66
1
 10
0.0000
 20
0.0000
 30
0.0000
 40
0.0000
 41
0.0000
 70
1
  0
VERTEX
  8
1
 10
63.9607
 20
22.5001
 30
0.0000
  0
VERTEX
  8
1
 10
61.7382
 20
20.9511
 30
0.0000
 42
1.0000
  0
VERTEX
  8
1
 10
62.0868
 20
20.4509
 30
0.0000
  0
VERTEX
  8
1
 10
64.3093
 20
21.9999
 30
0.0000
 42
1.0000
  0
SEQEND
  8
0
  0
POLYLINE
  8
1
 66
1
 10
0.0000
 20
0.0000
 30
0.0000
 40
0.0000
 41
0.0000
 70
1
  0
VERTEX
  8
1
 10
61.9130
 20
21.0058
 30
0.0000
  0
VERTEX
  8
1
 10
46.3805
 20
21.0308
 30
0.0000
 42
1.0000
  0
VERTEX
  8
1
 10
46.3795
 20
20.4212
 30
0.0000
  0
VERTEX
  8
1
 10
61.9120
 20
20.3962
 30
0.0000
 42
1.0000
  0
SEQEND
  8
0
  0
POLYLINE
  8
1
 66
1
 10
0.0000
 20
0.0000
 30
0.0000
 40
0.0000
 41
0.0000
 70
1
  0
VERTEX
  8
1
 10
46.2983
 20
21.0196
 30
0.0000
  0
VERTEX
  8
1
 10
41.9870
 20
19.8199
 30
0.0000
 42
1.0000
  0
VERTEX
  8
1
 10
42.1505
 20
19.2326
 30
0.0000
  0
VERTEX
  8
1
 10
46.4617
 20
20.4324
 30
0.0000
 42
1.0000
  0
SEQEND
  8
0
  0
POLYLINE
  8
1
 66
1
 10
0.0000
 20
0.0000
 30
0.0000
 40
0.0000
 41
0.0000
 70
1
  0
VERTEX
  8
1
 10
26.2393
 20
19.6505
 30
0.0000
  0
VERTEX
  8
1
 10
21.4768
 20
17.7455
 30
0.0000
 42
1.0000
  0
VERTEX
  8
1
 10
21.7032
 20
17.1795
 30
0.0000
  0
VERTEX
  8
1
 10
26.4657
 20
19.0845
 30
0.0000
 42
1.0000
  0
SEQEND
  8
0
  0
POLYLINE
  8
1
 66
1
 10
0.0000
 20
0.0000
 30
0.0000
 40
0.0000
 41
0.0000
 70
1
  0
VERTEX
  8
1
 10
21.5900
 20
17.7673
 30
0.0000
  0
VERTEX
  8
1
 10
17.9225
 20
17.7673
 30
0.0000
 42
1.0000
  0
VERTEX
  8
1
 10
17.9225
 20
17.1577
 30
0.0000
  0
VERTEX
  8
1
 10
21.5900
 20
17.1577
 30
0.0000
 42
1.0000
  0
SEQEND
  8
0
  0
POLYLINE
  8
1
 66
1
 10
0.0000
 20
0.0000
 30
0.0000
 40
0.0000
 41
0.0000
 70
1
  0
VERTEX
  8
1
 10
18.1380
 20
17.6780
 30
0.0000
  0
VERTEX
  8
1
 10
18.0005
 20
17.8155
 30
0.0000
 42
1.0000
  0
VERTEX
  8
1
 10
17.5695
 20
17.3845
 30
0.0000
  0
VERTEX
  8
1
 10
17.7070
 20
17.2470
 30
0.0000
 42
1.0000
  0
SEQEND
  8
0
  0
POLYLINE
  8
1
 66
1
 10
0.0000
 20
0.0000
 30
0.0000
 40
0.0000
 41
0.0000
 70
1
  0
VERTEX
  8
1
 10
42.0688
 20
19.7294
 30
0.0000
  0
VERTEX
  8
1
 10
36.0363
 20
19.7294
 30
0.0000
 42
1.0000
  0
VERTEX
  8
1
 10
36.0363
 20
19.3231
 30
0.0000
  0
VERTEX
  8
1
 10
42.0688
 20
19.3231
 30
0.0000
 42
1.0000
  0
SEQEND
  8
0
  0
POLYLINE
  8
1
 66
1
 10
0.0000
 20
0.0000
 30
0.0000
 40
0.0000
 41
0.0000
 70
1
  0
VERTEX
  8
1
 10
35.8926
 20
19.6699
 30
0.0000
  0
VERTEX
  8
1
 10
35.7338
 20
19.5112
 30
0.0000
 42
1.0000
  0
VERTEX
  8
1
 10
36.0212
 20
19.2238
 30
0.0000
  0
VERTEX
  8
1
 10
36.1799
 20
19.3826
 30
0.0000
 42
1.0000
  0
SEQEND
  8
0
  0
POLYLINE
  8
1
 66
1
 10
0.0000
 20
0.0000
 30
0.0000
 40
0.0000
 41
0.0000
 70
1
  0
VERTEX
  8
1
 10
35.8775
 20
19.6723
 30
0.0000
  0
VERTEX
  8
1
 10
26.3525
 20
19.6723
 30
0.0000
 42
1.0000
  0
VERTEX
  8
1
 10
26.3525
 20
19.0627
 30
0.0000
  0
VERTEX
  8
1
 10
35.8775
 20
19.0627
 30
0.0000
 42
1.0000
  0
SEQEND
  8
0
  0
POLYLINE
  8
1
 66
1
 10
0.0000
 20
0.0000
 30
0.0000
 40
0.0000
 41
0.0000
 70
1
  0
VERTEX
  8
1
 10
39.4850
 20
6.0248
 30
0.0000
  0
VERTEX
  8
1
 10
36.4540
 20
6.0248
 30
0.0000
 42
1.0000
  0
VERTEX
  8
1
 10
36.4540
 20
5.4152
 30
0.0000
  0
VERTEX
  8
1
 10
39.4850
 20
5.4152
 30
0.0000
 42
1.0000
  0
SEQEND
  8
0
  0
POLYLINE
  8
1
 66
1
 10
0.0000
 20
0.0000
 30
0.0000
 40
0.0000
 41
0.0000
 70
1
  0
VERTEX
  8
1
 10
36.5459
 20
6.0106
 30
0.0000
  0
VERTEX
  8
1
 10
36.1599
 20
6.1326
 30
0.0000
 42
1.0000
  0
VERTEX
  8
1
 10
35.9761
 20
5.5514
 30
0.0000
  0
VERTEX
  8
1
 10
36.3621
 20
5.4294
 30
0.0000
 42
1.0000
  0
SEQEND
  8
0
  0
INSERT
  8
18
  2
ROUNDV
 10
92.7100
 20
30.4800
 30
0.0000
 41
1.1176
 42
1.1176
 43
1.0000
 50
0.0000
  0
POLYLINE
  8
1
 66
1
 10
0.0000
 20
0.0000
 30
0.0000
 40
0.0000
 41
0.0000
 70
1
  0
VERTEX
  8
1
 10
92.5754
 20
28.1838
 30
0.0000
  0
VERTEX
  8
1
 10
91.3054
 20
29.1363
 30
0.0000
 42
1.0000
  0
VERTEX
  8
1
 10
90.9396
 20
28.6487
 30
0.0000
  0
VERTEX
  8
1
 10
92.2096
 20
27.6962
 30
0.0000
 42
1.0000
  0
SEQEND
  8
0
  0
POLYLINE
  8
1
 66
1
 10
0.0000
 20
0.0000
 30
0.0000
 40
0.0000
 41
0.0000
 70
1
  0
VERTEX
  8
1
 10
91.4273
 20
28.8925
 30
0.0000
  0
VERTEX
  8
1
 10
91.4273
 20
31.1150
 30
0.0000
 42
1.0000
  0
VERTEX
  8
1
 10
90.8177
 20
31.1150
 30
0.0000
  0
VERTEX
  8
1
 10
90.8177
 20
28.8925
 30
0.0000
 42
1.0000
  0
SEQEND
  8
0
  0
POLYLINE
  8
1
 66
1
 10
0.0000
 20
0.0000
 30
0.0000
 40
0.0000
 41
0.0000
 70
1
  0
VERTEX
  8
1
 10
91.4070
 20
31.0056
 30
0.0000
  0
VERTEX
  8
1
 10
92.9945
 20
35.1331
 30
0.0000
 42
1.0000
  0
VERTEX
  8
1
 10
92.4255
 20
35.3519
 30
0.0000
  0
VERTEX
  8
1
 10
90.8380
 20
31.2244
 30
0.0000
 42
1.0000
  0
SEQEND
  8
0
  0
POLYLINE
  8
1
 66
1
 10
0.0000
 20
0.0000
 30
0.0000
 40
0.0000
 41
0.0000
 70
1
  0
VERTEX
  8
1
 10
93.0148
 20
35.2425
 30
0.0000
  0
VERTEX
  8
1
 10
93.0148
 20
50.8000
 30
0.0000
 42
1.0000
  0
VERTEX
  8
1
 10
92.4052
 20
50.8000
 30
0.0000
  0
VERTEX
  8
1
 10
92.4052
 20
35.2425
 30
0.0000
 42
1.0000
  0
SEQEND
  8
0
  0
INSERT
  8
18
  2
ROUNDV
 10
92.3925
 20
27.9400
 30
0.0000
 41
1.1176
 42
1.1176
 43
1.0000
 50
0.0000
  0
INSERT
  8
18
  2
ROUNDV
 10
92.7100
 20
50.8000
 30
0.0000
 41
0.9048
 42
0.9048
 43
1.0000
 50
0.0000
  0
POLYLINE
  8
1
 66
1
 10
0.0000
 20
0.0000
 30
0.0000
 40
0.0000
 41
0.0000
 70
1
  0
VERTEX
  8
1
 10
91.4400
 20
21.8948
 30
0.0000
  0
VERTEX
  8
1
 10
90.1700
 20
21.8948
 30
0.0000
 42
1.0000
  0
VERTEX
  8
1
 10
90.1700
 20
21.2852
 30
0.0000
  0
VERTEX
  8
1
 10
91.4400
 20
21.2852
 30
0.0000
 42
1.0000
  0
SEQEND
  8
0
  0
POLYLINE
  8
1
 66
1
 10
0.0000
 20
0.0000
 30
0.0000
 40
0.0000
 41
0.0000
 70
1
  0
VERTEX
  8
1
 10
90.3855
 20
21.8055
 30
0.0000
  0
VERTEX
  8
1
 10
88.7980
 20
23.3930
 30
0.0000
 42
1.0000
  0
VERTEX
  8
1
 10
88.3670
 20
22.9620
 30
0.0000
  0
VERTEX
  8
1
 10
89.9545
 20
21.3745
 30
0.0000
 42
1.0000
  0
SEQEND
  8
0
  0
POLYLINE
  8
1
 66
1
 10
0.0000
 20
0.0000
 30
0.0000
 40
0.0000
 41
0.0000
 70
1
  0
VERTEX
  8
1
 10
88.8873
 20
23.1775
 30
0.0000
  0
VERTEX
  8
1
 10
88.8873
 20
32.3850
 30
0.0000
 42
1.0000
  0
VERTEX
  8
1
 10
88.2777
 20
32.3850
 30
0.0000
  0
VERTEX
  8
1
 10
88.2777
 20
23.1775
 30
0.0000
 42
1.0000
  0
SEQEND
  8
0
  0
POLYLINE
  8
1
 66
1
 10
0.0000
 20
0.0000
 30
0.0000
 40
0.0000
 41
0.0000
 70
1
  0
VERTEX
  8
1
 10
88.8734
 20
32.2941
 30
0.0000
  0
VERTEX
  8
1
 10
90.4609
 20
37.3741
 30
0.0000
 42
1.0000
  0
VERTEX
  8
1
 10
89.8791
 20
37.5559
 30
0.0000
  0
VERTEX
  8
1
 10
88.2916
 20
32.4759
 30
0.0000
 42
1.0000
  0
SEQEND
  8
0
  0
INSERT
  8
18
  2
ROUNDV
 10
91.4400
 20
21.5900
 30
0.0000
 41
1.1176
 42
1.1176
 43
1.0000
 50
0.0000
  0
INSERT
  8
18
  2
ROUNDV
 10
90.1700
 20
37.4650
 30
0.0000
 41
0.9048
 42
0.9048
 43
1.0000
 50
0.0000
  0
POLYLINE
  8
1
 66
1
 10
0.0000
 20
0.0000
 30
0.0000
 40
0.0000
 41
0.0000
 70
1
  0
VERTEX
  8
1
 10
88.2650
 20
8.5852
 30
0.0000
  0
VERTEX
  8
1
 10
92.0750
 20
8.5852
 30
0.0000
 42
1.0000
  0
VERTEX
  8
1
 10
92.0750
 20
9.1948
 30
0.0000
  0
VERTEX
  8
1
 10
88.2650
 20
9.1948
 30
0.0000
 42
1.0000
  0
SEQEND
  8
0
  0
POLYLINE
  8
1
 66
1
 10
0.0000
 20
0.0000
 30
0.0000
 40
0.0000
 41
0.0000
 70
1
  0
VERTEX
  8
1
 10
92.3696
 20
8.8117
 30
0.0000
  0
VERTEX
  8
1
 10
92.6236
 20
9.7667
 30
0.0000
 42
1.0000
  0
VERTEX
  8
1
 10
92.0344
 20
9.9233
 30
0.0000
  0
VERTEX
  8
1
 10
91.7804
 20
8.9683
 30
0.0000
 42
1.0000
  0
SEQEND
  8
0
  0
POLYLINE
  8
1
 66
1
 10
0.0000
 20
0.0000
 30
0.0000
 40
0.0000
 41
0.0000
 70
1
  0
VERTEX
  8
1
 10
17.7760
 20
49.7879
 30
0.0000
  0
VERTEX
  8
1
 10
13.9610
 20
49.7204
 30
0.0000
 42
1.0000
  0
VERTEX
  8
1
 10
13.9790
 20
48.7046
 30
0.0000
  0
VERTEX
  8
1
 10
17.7940
 20
48.7721
 30
0.0000
 42
1.0000
  0
SEQEND
  8
0
  0
POLYLINE
  8
1
 66
1
 10
0.0000
 20
0.0000
 30
0.0000
 40
0.0000
 41
0.0000
 70
1
  0
VERTEX
  8
1
 10
13.6747
 20
49.6259
 30
0.0000
  0
VERTEX
  8
1
 10
11.4522
 20
48.0384
 30
0.0000
 42
1.0000
  0
VERTEX
  8
1
 10
12.0428
 20
47.2116
 30
0.0000
  0
VERTEX
  8
1
 10
14.2653
 20
48.7991
 30
0.0000
 42
1.0000
  0
SEQEND
  8
0
  0
POLYLINE
  8
1
 66
1
 10
0.0000
 20
0.0000
 30
0.0000
 40
0.0000
 41
0.0000
 70
1
  0
VERTEX
  8
1
 10
11.2395
 20
47.6250
 30
0.0000
  0
VERTEX
  8
1
 10
11.2395
 20
35.5600
 30
0.0000
 42
1.0000
  0
VERTEX
  8
1
 10
12.2555
 20
35.5600
 30
0.0000
  0
VERTEX
  8
1
 10
12.2555
 20
47.6250
 30
0.0000
 42
1.0000
  0
SEQEND
  8
0
  0
POLYLINE
  8
1
 66
1
 10
0.0000
 20
0.0000
 30
0.0000
 40
0.0000
 41
0.0000
 70
1
  0
VERTEX
  8
1
 10
11.3883
 20
35.9192
 30
0.0000
  0
VERTEX
  8
1
 10
6.9433
 20
31.4742
 30
0.0000
 42
1.0000
  0
VERTEX
  8
1
 10
7.6617
 20
30.7558
 30
0.0000
  0
VERTEX
  8
1
 10
12.1067
 20
35.2008
 30
0.0000
 42
1.0000
  0
SEQEND
  8
0
  0
POLYLINE
  8
1
 66
1
 10
0.0000
 20
0.0000
 30
0.0000
 40
0.0000
 41
0.0000
 70
1
  0
VERTEX
  8
1
 10
6.7945
 20
31.1150
 30
0.0000
  0
VERTEX
  8
1
 10
6.7945
 20
11.5060
 30
0.0000
 42
1.0000
  0
VERTEX
  8
1
 10
7.8105
 20
11.5060
 30
0.0000
  0
VERTEX
  8
1
 10
7.8105
 20
31.1150
 30
0.0000
 42
1.0000
  0
SEQEND
  8
0
  0
POLYLINE
  8
1
 66
1
 10
0.0000
 20
0.0000
 30
0.0000
 40
0.0000
 41
0.0000
 70
1
  0
VERTEX
  8
1
 10
5.7670
 20
9.0254
 30
0.0000
 42
1.0000
  0
VERTEX
  8
1
 10
6.4854
 20
8.3070
 30
0.0000
 42
0.1989
  0
VERTEX
  8
1
 10
7.8105
 20
11.5060
 30
0.0000
 42
1.0000
  0
VERTEX
  8
1
 10
6.7945
 20
11.5060
 30
0.0000
 42
-0.1989
  0
SEQEND
  8
0
  0
POLYLINE
  8
1
 66
1
 10
0.0000
 20
0.0000
 30
0.0000
 40
0.0000
 41
0.0000
 70
1
  0
VERTEX
  8
1
 10
5.7670
 20
9.0254
 30
0.0000
  0
VERTEX
  8
1
 10
4.7434
 20
8.0018
 30
0.0000
 42
1.0000
  0
VERTEX
  8
1
 10
5.4618
 20
7.2834
 30
0.0000
  0
VERTEX
  8
1
 10
6.4854
 20
8.3070
 30
0.0000
 42
1.0000
  0
SEQEND
  8
0
  0
POLYLINE
  8
1
 66
1
 10
0.0000
 20
0.0000
 30
0.0000
 40
0.0000
 41
0.0000
 70
1
  0
VERTEX
  8
1
 10
5.4618
 20
7.2834
 30
0.0000
 42
1.0000
  0
VERTEX
  8
1
 10
4.7434
 20
8.0018
 30
0.0000
 42
0.1989
  0
VERTEX
  8
1
 10
3.9370
 20
6.0551
 30
0.0000
 42
1.0000
  0
VERTEX
  8
1
 10
4.9530
 20
6.0551
 30
0.0000
 42
-0.1989
  0
SEQEND
  8
0
  0
POLYLINE
  8
1
 66
1
 10
0.0000
 20
0.0000
 30
0.0000
 40
0.0000
 41
0.0000
 70
1
  0
VERTEX
  8
1
 10
3.9370
 20
6.0551
 30
0.0000
  0
VERTEX
  8
1
 10
3.9370
 20
5.0263
 30
0.0000
 42
1.0000
  0
VERTEX
  8
1
 10
4.9530
 20
5.0263
 30
0.0000
  0
VERTEX
  8
1
 10
4.9530
 20
6.0551
 30
0.0000
 42
1.0000
  0
SEQEND
  8
0
  0
POLYLINE
  8
1
 66
1
 10
0.0000
 20
0.0000
 30
0.0000
 40
0.0000
 41
0.0000
 70
1
  0
VERTEX
  8
1
 10
4.9530
 20
5.0263
 30
0.0000
 42
1.0000
  0
VERTEX
  8
1
 10
3.9370
 20
5.0263
 30
0.0000
 42
0.4142
  0
VERTEX
  8
1
 10
6.2963
 20
2.6670
 30
0.0000
 42
1.0000
  0
VERTEX
  8
1
 10
6.2963
 20
3.6830
 30
0.0000
 42
-0.4142
  0
SEQEND
  8
0
  0
POLYLINE
  8
1
 66
1
 10
0.0000
 20
0.0000
 30
0.0000
 40
0.0000
 41
0.0000
 70
1
  0
VERTEX
  8
1
 10
6.2963
 20
2.6670
 30
0.0000
  0
VERTEX
  8
1
 10
8.2550
 20
2.6670
 30
0.0000
 42
1.0000
  0
VERTEX
  8
1
 10
8.2550
 20
3.6830
 30
0.0000
  0
VERTEX
  8
1
 10
6.2963
 20
3.6830
 30
0.0000
 42
1.0000
  0
SEQEND
  8
0
  0
POLYLINE
  8
1
 66
1
 10
0.0000
 20
0.0000
 30
0.0000
 40
0.0000
 41
0.0000
 70
1
  0
VERTEX
  8
1
 10
14.9225
 20
1.3970
 30
0.0000
  0
VERTEX
  8
1
 10
42.8625
 20
1.3970
 30
0.0000
 42
1.0000
  0
VERTEX
  8
1
 10
42.8625
 20
2.4130
 30
0.0000
  0
VERTEX
  8
1
 10
14.9225
 20
2.4130
 30
0.0000
 42
1.0000
  0
SEQEND
  8
0
  0
POLYLINE
  8
1
 66
1
 10
0.0000
 20
0.0000
 30
0.0000
 40
0.0000
 41
0.0000
 70
1
  0
VERTEX
  8
1
 10
43.2040
 20
1.5289
 30
0.0000
  0
VERTEX
  8
1
 10
48.7285
 20
6.5454
 30
0.0000
 42
1.0000
  0
VERTEX
  8
1
 10
48.0455
 20
7.2976
 30
0.0000
  0
VERTEX
  8
1
 10
42.5210
 20
2.2811
 30
0.0000
 42
1.0000
  0
SEQEND
  8
0
  0
POLYLINE
  8
1
 66
1
 10
0.0000
 20
0.0000
 30
0.0000
 40
0.0000
 41
0.0000
 70
1
  0
VERTEX
  8
1
 10
48.3870
 20
6.4135
 30
0.0000
  0
VERTEX
  8
1
 10
64.0080
 20
6.4135
 30
0.0000
 42
1.0000
  0
VERTEX
  8
1
 10
64.0080
 20
7.4295
 30
0.0000
  0
VERTEX
  8
1
 10
48.3870
 20
7.4295
 30
0.0000
 42
1.0000
  0
SEQEND
  8
0
  0
POLYLINE
  8
1
 66
1
 10
0.0000
 20
0.0000
 30
0.0000
 40
0.0000
 41
0.0000
 70
1
  0
VERTEX
  8
1
 10
63.6357
 20
6.5758
 30
0.0000
  0
VERTEX
  8
1
 10
64.4612
 20
5.6868
 30
0.0000
 42
1.0000
  0
VERTEX
  8
1
 10
65.2058
 20
6.3782
 30
0.0000
  0
VERTEX
  8
1
 10
64.3803
 20
7.2672
 30
0.0000
 42
1.0000
  0
SEQEND
  8
0
  0
POLYLINE
  8
1
 66
1
 10
0.0000
 20
0.0000
 30
0.0000
 40
0.0000
 41
0.0000
 70
1
  0
VERTEX
  8
1
 10
64.8335
 20
5.5245
 30
0.0000
  0
VERTEX
  8
1
 10
72.1625
 20
5.5245
 30
0.0000
 42
1.0000
  0
VERTEX
  8
1
 10
72.1625
 20
6.5405
 30
0.0000
  0
VERTEX
  8
1
 10
64.8335
 20
6.5405
 30
0.0000
 42
1.0000
  0
SEQEND
  8
0
  0
POLYLINE
  8
1
 66
1
 10
0.0000
 20
0.0000
 30
0.0000
 40
0.0000
 41
0.0000
 70
1
  0
VERTEX
  8
1
 10
72.3555
 20
5.5626
 30
0.0000
  0
VERTEX
  8
1
 10
77.7530
 20
7.7801
 30
0.0000
 42
1.0000
  0
VERTEX
  8
1
 10
77.3670
 20
8.7199
 30
0.0000
  0
VERTEX
  8
1
 10
71.9695
 20
6.5024
 30
0.0000
 42
1.0000
  0
SEQEND
  8
0
  0
INSERT
  8
18
  2
ROUNDV
 10
14.9225
 20
1.9050
 30
0.0000
 41
0.9048
 42
0.9048
 43
1.0000
 50
0.0000
  0
INSERT
  8
18
  2
ROUNDV
 10
8.2550
 20
3.1750
 30
0.0000
 41
0.9048
 42
0.9048
 43
1.0000
 50
0.0000
  0
ENDSEC
  0
EOF
