  0
SECTION
  2
HEADER
  9
$ACADVER
  1
AC1009
  9
$FILLMODE
 70
0
  9
$EXTMIN
 10
-0.4572
 20
-0.3302
 30
0.0000
  9
$EXTMAX
 10
129.8450
 20
55.3720
 30
0.0000
  0
ENDSEC
  0
SECTION
  2
TABLES
  0
TABLE
  2
LTYPE
 70
1
  0
LTYPE
  2
CONTINUOUS
 70
64
  3
Solid line
 72
65
 73
0
 40
0
  0
ENDTAB
  0
TABLE
  2
LAYER
 70
255
  0
LAYER
  2
20
 70
64
 62
178
  6
CONTINUOUS
  0
LAYER
  2
24
 70
64
 62
178
  6
CONTINUOUS
  0
ENDTAB
  0
ENDSEC
  0
SECTION
  2
BLOCKS
  0
BLOCK
  8
0
  2
RECT
 70
64
 10
0.0000
 20
0.0000
 30
0.0000
  3
RECT
  0
SOLID
  8
0
 10
-0.5000
 20
-0.5000
 30
0.0000
 11
0.5000
 21
-0.5000
 31
0.0000
 12
-0.5000
 22
0.5000
 32
0.0000
 13
0.5000
 23
0.5000
 33
0.0000
  0
ENDBLK
  8
0
  0
BLOCK
  8
0
  2
PIE
 70
64
 10
0.0000
 20
0.0000
 30
0.0000
  3
PIE
  0
CIRCLE
  8
0
 10
0.0000
 20
0.0000
 30
0.0000
 40
0.5000
  0
ENDBLK
  8
0
  0
BLOCK
  8
0
  2
OCTAGONP
 70
64
 10
0.0000
 20
0.0000
 30
0.0000
  3
OCTAGONP
  0
POLYLINE
  8
0
 66
1
 10
0.0000
 20
0.0000
 30
0.0000
 40
0.0000
 41
0.0000
 70
1
  0
VERTEX
  8
0
 10
-0.5000
 20
-0.2071
 30
0.0000
  0
VERTEX
  8
0
 10
-0.5000
 20
0.2071
 30
0.0000
  0
VERTEX
  8
0
 10
-0.2071
 20
0.5000
 30
0.0000
  0
VERTEX
  8
0
 10
0.2071
 20
0.5000
 30
0.0000
  0
VERTEX
  8
0
 10
0.5000
 20
0.2071
 30
0.0000
  0
VERTEX
  8
0
 10
0.5000
 20
-0.2071
 30
0.0000
  0
VERTEX
  8
0
 10
0.2071
 20
-0.5000
 30
0.0000
  0
VERTEX
  8
0
 10
-0.2071
 20
-0.5000
 30
0.0000
  0
SEQEND
  8
0
  0
ENDBLK
  8
0
  0
BLOCK
  8
0
  2
SQUAREP
 70
64
 10
0.0000
 20
0.0000
 30
0.0000
  3
SQUAREP
  0
SOLID
  8
0
 10
-0.5000
 20
-0.5000
 30
0.0000
 11
0.5000
 21
-0.5000
 31
0.0000
 12
-0.5000
 22
0.5000
 32
0.0000
 13
0.5000
 23
0.5000
 33
0.0000
  0
ENDBLK
  8
0
  0
BLOCK
  8
0
  2
ROUNDP
 70
64
 10
0.0000
 20
0.0000
 30
0.0000
  3
ROUNDP
  0
CIRCLE
  8
0
 10
0.0000
 20
0.0000
 30
0.0000
 40
0.5000
  0
ENDBLK
  8
0
  0
BLOCK
  8
0
  2
ANNULUSP
 70
64
 10
0.0000
 20
0.0000
 30
0.0000
  3
ANNULUSP
  0
CIRCLE
  8
0
 10
0.0000
 20
0.0000
 30
0.0000
 40
0.5000
  0
ENDBLK
  8
0
  0
BLOCK
  8
0
  2
THERMALP
 70
64
 10
0.0000
 20
0.0000
 30
0.0000
  3
THERMALP
  0
LINE
  8
0
 10
-0.2379
 20
0.4500
 30
0.0000
 11
0.2379
 21
0.4500
 31
0.0000
  0
LINE
  8
0
 10
0.4500
 20
0.2379
 30
0.0000
 11
0.4500
 21
-0.2379
 31
0.0000
  0
LINE
  8
0
 10
0.2379
 20
-0.4500
 30
0.0000
 11
-0.2379
 21
-0.4500
 31
0.0000
  0
LINE
  8
0
 10
-0.4500
 20
-0.2379
 30
0.0000
 11
-0.4500
 21
0.2379
 31
0.0000
  0
ENDBLK
  8
0
  0
BLOCK
  8
0
  2
OCTAGONV
 70
64
 10
0.0000
 20
0.0000
 30
0.0000
  3
OCTAGONV
  0
POLYLINE
  8
0
 66
1
 10
0.0000
 20
0.0000
 30
0.0000
 40
0.0000
 41
0.0000
 70
1
  0
VERTEX
  8
0
 10
-0.5000
 20
-0.2071
 30
0.0000
  0
VERTEX
  8
0
 10
-0.5000
 20
0.2071
 30
0.0000
  0
VERTEX
  8
0
 10
-0.2071
 20
0.5000
 30
0.0000
  0
VERTEX
  8
0
 10
0.2071
 20
0.5000
 30
0.0000
  0
VERTEX
  8
0
 10
0.5000
 20
0.2071
 30
0.0000
  0
VERTEX
  8
0
 10
0.5000
 20
-0.2071
 30
0.0000
  0
VERTEX
  8
0
 10
0.2071
 20
-0.5000
 30
0.0000
  0
VERTEX
  8
0
 10
-0.2071
 20
-0.5000
 30
0.0000
  0
SEQEND
  8
0
  0
ENDBLK
  8
0
  0
BLOCK
  8
0
  2
SQUAREV
 70
64
 10
0.0000
 20
0.0000
 30
0.0000
  3
SQUAREV
  0
SOLID
  8
0
 10
-0.5000
 20
-0.5000
 30
0.0000
 11
0.5000
 21
-0.5000
 31
0.0000
 12
-0.5000
 22
0.5000
 32
0.0000
 13
0.5000
 23
0.5000
 33
0.0000
  0
ENDBLK
  8
0
  0
BLOCK
  8
0
  2
ROUNDV
 70
64
 10
0.0000
 20
0.0000
 30
0.0000
  3
ROUNDV
  0
CIRCLE
  8
0
 10
0.0000
 20
0.0000
 30
0.0000
 40
0.5000
  0
ENDBLK
  8
0
  0
BLOCK
  8
0
  2
ANNULUSV
 70
64
 10
0.0000
 20
0.0000
 30
0.0000
  3
ANNULUSV
  0
CIRCLE
  8
0
 10
0.0000
 20
0.0000
 30
0.0000
 40
0.5000
  0
ENDBLK
  8
0
  0
BLOCK
  8
0
  2
THERMALV
 70
64
 10
0.0000
 20
0.0000
 30
0.0000
  3
THERMALV
  0
LINE
  8
0
 10
-0.2379
 20
0.4500
 30
0.0000
 11
0.2379
 21
0.4500
 31
0.0000
  0
LINE
  8
0
 10
0.4500
 20
0.2379
 30
0.0000
 11
0.4500
 21
-0.2379
 31
0.0000
  0
LINE
  8
0
 10
0.2379
 20
-0.4500
 30
0.0000
 11
-0.2379
 21
-0.4500
 31
0.0000
  0
LINE
  8
0
 10
-0.4500
 20
-0.2379
 30
0.0000
 11
-0.4500
 21
0.2379
 31
0.0000
  0
ENDBLK
  8
0
  0
BLOCK
  8
0
  2
LONGP100
 70
64
 10
0.0000
 20
0.0000
 30
0.0000
  3
LONGP100
  0
POLYLINE
  8
0
 66
1
 10
0.0000
 20
0.0000
 30
0.0000
 40
0.0000
 41
0.0000
 70
1
  0
VERTEX
  8
0
 10
-0.5000
 20
-0.5000
 30
0.0000
  0
VERTEX
  8
0
 10
0.5000
 20
-0.5000
 30
0.0000
 42
1.0000
  0
VERTEX
  8
0
 10
0.5000
 20
0.5000
 30
0.0000
  0
VERTEX
  8
0
 10
-0.5000
 20
0.5000
 30
0.0000
 42
1.0000
  0
SEQEND
  8
0
  0
ENDBLK
  8
0
  0
ENDSEC
  0
SECTION
  2
ENTITIES
  0
LINE
  8
20
 10
0.0000
 20
0.0000
 30
0.0000
 11
96.0000
 21
0.0000
 31
0.0000
  0
LINE
  8
20
 10
96.0000
 20
55.0000
 30
0.0000
 11
0.0000
 21
55.0000
 31
0.0000
  0
LINE
  8
20
 10
0.0000
 20
55.0000
 30
0.0000
 11
0.0000
 21
0.0000
 31
0.0000
  0
LINE
  8
20
 10
96.0000
 20
0.0000
 30
0.0000
 11
96.0000
 21
55.0000
 31
0.0000
  0
CIRCLE
  8
20
 10
28.6350
 20
27.5000
 30
0.0000
 40
2.9000
  0
CIRCLE
  8
20
 10
11.5000
 20
52.5000
 30
0.0000
 40
1.0922
  0
CIRCLE
  8
20
 10
62.5000
 20
52.5000
 30
0.0000
 40
1.0922
  0
CIRCLE
  8
20
 10
11.5000
 20
2.5000
 30
0.0000
 40
1.0922
  0
CIRCLE
  8
20
 10
62.5000
 20
2.5000
 30
0.0000
 40
1.0922
  0
CIRCLE
  8
20
 10
0.9525
 20
50.3555
 30
0.0000
 40
0.5080
  0
CIRCLE
  8
20
 10
2.2860
 20
50.6730
 30
0.0000
 40
0.5080
  0
CIRCLE
  8
20
 10
3.5560
 20
50.9270
 30
0.0000
 40
0.5080
  0
CIRCLE
  8
20
 10
4.5720
 20
51.6890
 30
0.0000
 40
0.5080
  0
CIRCLE
  8
20
 10
5.2070
 20
54.1020
 30
0.0000
 40
0.5080
  0
CIRCLE
  8
20
 10
95.1865
 20
5.2070
 30
0.0000
 40
0.5080
  0
CIRCLE
  8
20
 10
93.9165
 20
5.1435
 30
0.0000
 40
0.5080
  0
CIRCLE
  8
20
 10
92.7735
 20
4.8260
 30
0.0000
 40
0.5080
  0
CIRCLE
  8
20
 10
91.0590
 20
3.1115
 30
0.0000
 40
0.5080
  0
CIRCLE
  8
20
 10
90.7415
 20
1.9685
 30
0.0000
 40
0.5080
  0
CIRCLE
  8
20
 10
90.8685
 20
0.6985
 30
0.0000
 40
0.5080
  0
CIRCLE
  8
20
 10
90.3000
 20
52.5000
 30
0.0000
 40
1.0922
  0
CIRCLE
  8
20
 10
94.5000
 20
7.1000
 30
0.0000
 40
1.0922
  0
CIRCLE
  8
20
 10
91.5670
 20
4.2545
 30
0.0000
 40
0.5080
  0
CIRCLE
  8
20
 10
5.0800
 20
52.8320
 30
0.0000
 40
0.5080
  0
POINT
  8
24
 10
24.7650
 20
5.7150
 30
0.0000
  0
POINT
  8
24
 10
28.3845
 20
4.4450
 30
0.0000
  0
POINT
  8
24
 10
44.7675
 20
10.4775
 30
0.0000
  0
POINT
  8
24
 10
48.5775
 20
10.4775
 30
0.0000
  0
POINT
  8
24
 10
57.7850
 20
27.9400
 30
0.0000
  0
POINT
  8
24
 10
48.2600
 20
23.6220
 30
0.0000
  0
POINT
  8
24
 10
60.3250
 20
39.3700
 30
0.0000
  0
POINT
  8
24
 10
60.3250
 20
42.5450
 30
0.0000
  0
POINT
  8
24
 10
8.2550
 20
17.1450
 30
0.0000
  0
POINT
  8
24
 10
8.2550
 20
13.9700
 30
0.0000
  0
POINT
  8
24
 10
8.2550
 20
10.7950
 30
0.0000
  0
POINT
  8
24
 10
8.2550
 20
7.6200
 30
0.0000
  0
POINT
  8
24
 10
60.3250
 20
33.0200
 30
0.0000
  0
POINT
  8
24
 10
8.2550
 20
20.3200
 30
0.0000
  0
POINT
  8
24
 10
27.3050
 20
12.7000
 30
0.0000
  0
POINT
  8
24
 10
90.1700
 20
44.4500
 30
0.0000
  0
CIRCLE
  8
20
 10
50.1650
 20
48.2360
 30
0.0000
 40
1.6510
  0
POINT
  8
24
 10
53.9750
 20
15.8750
 30
0.0000
  0
POINT
  8
24
 10
32.2580
 20
5.7150
 30
0.0000
  0
POINT
  8
24
 10
22.8600
 20
11.1125
 30
0.0000
  0
POINT
  8
24
 10
33.0200
 20
9.2075
 30
0.0000
  0
POINT
  8
24
 10
33.0200
 20
13.0175
 30
0.0000
  0
POINT
  8
24
 10
45.6565
 20
23.4950
 30
0.0000
  0
POINT
  8
24
 10
58.4200
 20
22.5425
 30
0.0000
  0
POINT
  8
24
 10
54.6100
 20
23.4950
 30
0.0000
  0
POINT
  8
24
 10
50.8000
 20
23.4950
 30
0.0000
  0
POINT
  8
24
 10
23.4950
 20
36.8300
 30
0.0000
  0
POINT
  8
24
 10
44.7675
 20
15.8750
 30
0.0000
  0
POINT
  8
24
 10
23.4950
 20
41.9100
 30
0.0000
  0
POINT
  8
24
 10
48.8950
 20
16.1925
 30
0.0000
  0
POINT
  8
24
 10
26.6700
 20
41.9100
 30
0.0000
  0
POINT
  8
24
 10
26.6700
 20
36.8300
 30
0.0000
  0
POINT
  8
24
 10
58.4200
 20
17.1450
 30
0.0000
  0
POINT
  8
24
 10
53.0225
 20
10.1600
 30
0.0000
  0
POINT
  8
24
 10
53.0225
 20
6.9850
 30
0.0000
  0
POINT
  8
24
 10
53.0225
 20
4.1275
 30
0.0000
  0
POINT
  8
24
 10
48.5775
 20
4.1275
 30
0.0000
  0
POINT
  8
24
 10
57.7850
 20
9.5250
 30
0.0000
  0
POINT
  8
24
 10
57.7850
 20
4.4450
 30
0.0000
  0
POINT
  8
24
 10
5.7150
 20
35.5600
 30
0.0000
  0
POINT
  8
24
 10
10.1600
 20
33.6550
 30
0.0000
  0
POINT
  8
24
 10
85.7250
 20
36.1950
 30
0.0000
  0
POINT
  8
24
 10
90.8050
 20
34.9250
 30
0.0000
  0
POINT
  8
24
 10
3.8100
 20
47.9425
 30
0.0000
  0
POINT
  8
24
 10
3.8100
 20
45.0850
 30
0.0000
  0
POINT
  8
24
 10
3.8100
 20
42.2275
 30
0.0000
  0
POINT
  8
24
 10
87.6300
 20
28.5750
 30
0.0000
  0
POINT
  8
24
 10
92.3925
 20
25.0825
 30
0.0000
  0
POINT
  8
24
 10
87.6300
 20
21.5900
 30
0.0000
  0
POINT
  8
24
 10
92.3925
 20
17.7800
 30
0.0000
  0
POINT
  8
24
 10
87.6300
 20
14.2875
 30
0.0000
  0
POINT
  8
24
 10
32.7025
 20
47.3075
 30
0.0000
  0
POINT
  8
24
 10
92.3290
 20
10.7950
 30
0.0000
  0
POINT
  8
24
 10
66.2940
 20
5.5880
 30
0.0000
  0
POINT
  8
24
 10
78.4860
 20
10.9220
 30
0.0000
  0
POINT
  8
24
 10
5.7150
 20
29.2100
 30
0.0000
  0
POINT
  8
24
 10
33.6550
 20
17.7800
 30
0.0000
  0
POINT
  8
24
 10
26.0350
 20
47.6250
 30
0.0000
  0
POINT
  8
24
 10
32.0675
 20
40.0050
 30
0.0000
  0
POINT
  8
24
 10
45.0850
 20
4.7625
 30
0.0000
  0
POINT
  8
24
 10
66.9925
 20
25.7175
 30
0.0000
  0
POINT
  8
24
 10
11.4300
 20
28.5750
 30
0.0000
  0
POINT
  8
24
 10
87.9475
 20
31.7500
 30
0.0000
  0
POINT
  8
24
 10
82.5500
 20
29.2100
 30
0.0000
  0
POINT
  8
24
 10
87.9475
 20
24.7650
 30
0.0000
  0
POINT
  8
24
 10
82.2325
 20
22.2250
 30
0.0000
  0
POINT
  8
24
 10
87.9475
 20
18.0975
 30
0.0000
  0
POINT
  8
24
 10
82.5500
 20
15.2400
 30
0.0000
  0
POINT
  8
24
 10
73.0250
 20
4.1275
 30
0.0000
  0
POINT
  8
24
 10
84.1375
 20
4.1275
 30
0.0000
  0
POINT
  8
24
 10
36.0680
 20
5.8420
 30
0.0000
  0
POINT
  8
24
 10
74.9300
 20
8.2550
 30
0.0000
  0
POINT
  8
24
 10
83.8200
 20
8.8900
 30
0.0000
  0
POINT
  8
24
 10
77.7875
 20
13.3350
 30
0.0000
  0
POINT
  8
24
 10
80.3275
 20
18.7325
 30
0.0000
  0
POINT
  8
24
 10
77.7875
 20
24.1300
 30
0.0000
  0
POINT
  8
24
 10
80.3275
 20
25.7175
 30
0.0000
  0
POINT
  8
24
 10
77.4700
 20
31.4325
 30
0.0000
  0
POINT
  8
24
 10
80.3275
 20
32.7025
 30
0.0000
  0
POINT
  8
24
 10
74.9300
 20
36.5125
 30
0.0000
  0
POINT
  8
24
 10
80.3275
 20
39.0525
 30
0.0000
  0
POINT
  8
24
 10
74.6125
 20
43.4975
 30
0.0000
  0
POINT
  8
24
 10
69.5325
 20
8.2550
 30
0.0000
  0
POINT
  8
24
 10
69.5325
 20
11.7475
 30
0.0000
  0
POINT
  8
24
 10
69.5325
 20
15.2400
 30
0.0000
  0
POINT
  8
24
 10
75.2475
 20
18.7325
 30
0.0000
  0
POINT
  8
24
 10
64.1350
 20
21.2725
 30
0.0000
  0
POINT
  8
24
 10
74.9300
 20
25.7175
 30
0.0000
  0
POINT
  8
24
 10
69.5325
 20
29.2100
 30
0.0000
  0
POINT
  8
24
 10
69.5325
 20
33.3375
 30
0.0000
  0
POINT
  8
24
 10
64.4525
 20
35.2425
 30
0.0000
  0
POINT
  8
24
 10
74.8665
 20
39.1795
 30
0.0000
  0
POINT
  8
24
 10
75.1840
 20
33.7820
 30
0.0000
  0
POINT
  8
24
 10
43.1800
 20
37.8460
 30
0.0000
  0
ENDSEC
  0
EOF
