  0
SECTION
  2
HEADER
  9
$ACADVER
  1
AC1009
  9
$FILLMODE
 70
0
  9
$EXTMIN
 10
-0.4572
 20
-0.3302
 30
0.0000
  9
$EXTMAX
 10
129.8450
 20
55.3720
 30
0.0000
  0
ENDSEC
  0
SECTION
  2
TABLES
  0
TABLE
  2
LTYPE
 70
1
  0
LTYPE
  2
CONTINUOUS
 70
64
  3
Solid line
 72
65
 73
0
 40
0
  0
ENDTAB
  0
TABLE
  2
LAYER
 70
255
  0
LAYER
  2
1
 70
64
 62
14
  6
CONTINUOUS
  0
LAYER
  2
17
 70
64
 62
94
  6
CONTINUOUS
  0
LAYER
  2
18
 70
64
 62
94
  6
CONTINUOUS
  0
LAYER
  2
20
 70
64
 62
178
  6
CONTINUOUS
  0
ENDTAB
  0
ENDSEC
  0
SECTION
  2
BLOCKS
  0
BLOCK
  8
0
  2
RECT
 70
64
 10
0.0000
 20
0.0000
 30
0.0000
  3
RECT
  0
SOLID
  8
0
 10
-0.5000
 20
-0.5000
 30
0.0000
 11
0.5000
 21
-0.5000
 31
0.0000
 12
-0.5000
 22
0.5000
 32
0.0000
 13
0.5000
 23
0.5000
 33
0.0000
  0
ENDBLK
  8
0
  0
BLOCK
  8
0
  2
PIE
 70
64
 10
0.0000
 20
0.0000
 30
0.0000
  3
PIE
  0
CIRCLE
  8
0
 10
0.0000
 20
0.0000
 30
0.0000
 40
0.5000
  0
ENDBLK
  8
0
  0
BLOCK
  8
0
  2
OCTAGONP
 70
64
 10
0.0000
 20
0.0000
 30
0.0000
  3
OCTAGONP
  0
POLYLINE
  8
0
 66
1
 10
0.0000
 20
0.0000
 30
0.0000
 40
0.0000
 41
0.0000
 70
1
  0
VERTEX
  8
0
 10
-0.5000
 20
-0.2071
 30
0.0000
  0
VERTEX
  8
0
 10
-0.5000
 20
0.2071
 30
0.0000
  0
VERTEX
  8
0
 10
-0.2071
 20
0.5000
 30
0.0000
  0
VERTEX
  8
0
 10
0.2071
 20
0.5000
 30
0.0000
  0
VERTEX
  8
0
 10
0.5000
 20
0.2071
 30
0.0000
  0
VERTEX
  8
0
 10
0.5000
 20
-0.2071
 30
0.0000
  0
VERTEX
  8
0
 10
0.2071
 20
-0.5000
 30
0.0000
  0
VERTEX
  8
0
 10
-0.2071
 20
-0.5000
 30
0.0000
  0
SEQEND
  8
0
  0
ENDBLK
  8
0
  0
BLOCK
  8
0
  2
SQUAREP
 70
64
 10
0.0000
 20
0.0000
 30
0.0000
  3
SQUAREP
  0
SOLID
  8
0
 10
-0.5000
 20
-0.5000
 30
0.0000
 11
0.5000
 21
-0.5000
 31
0.0000
 12
-0.5000
 22
0.5000
 32
0.0000
 13
0.5000
 23
0.5000
 33
0.0000
  0
ENDBLK
  8
0
  0
BLOCK
  8
0
  2
ROUNDP
 70
64
 10
0.0000
 20
0.0000
 30
0.0000
  3
ROUNDP
  0
CIRCLE
  8
0
 10
0.0000
 20
0.0000
 30
0.0000
 40
0.5000
  0
ENDBLK
  8
0
  0
BLOCK
  8
0
  2
ANNULUSP
 70
64
 10
0.0000
 20
0.0000
 30
0.0000
  3
ANNULUSP
  0
CIRCLE
  8
0
 10
0.0000
 20
0.0000
 30
0.0000
 40
0.5000
  0
ENDBLK
  8
0
  0
BLOCK
  8
0
  2
THERMALP
 70
64
 10
0.0000
 20
0.0000
 30
0.0000
  3
THERMALP
  0
LINE
  8
0
 10
-0.2379
 20
0.4500
 30
0.0000
 11
0.2379
 21
0.4500
 31
0.0000
  0
LINE
  8
0
 10
0.4500
 20
0.2379
 30
0.0000
 11
0.4500
 21
-0.2379
 31
0.0000
  0
LINE
  8
0
 10
0.2379
 20
-0.4500
 30
0.0000
 11
-0.2379
 21
-0.4500
 31
0.0000
  0
LINE
  8
0
 10
-0.4500
 20
-0.2379
 30
0.0000
 11
-0.4500
 21
0.2379
 31
0.0000
  0
ENDBLK
  8
0
  0
BLOCK
  8
0
  2
OCTAGONV
 70
64
 10
0.0000
 20
0.0000
 30
0.0000
  3
OCTAGONV
  0
POLYLINE
  8
0
 66
1
 10
0.0000
 20
0.0000
 30
0.0000
 40
0.0000
 41
0.0000
 70
1
  0
VERTEX
  8
0
 10
-0.5000
 20
-0.2071
 30
0.0000
  0
VERTEX
  8
0
 10
-0.5000
 20
0.2071
 30
0.0000
  0
VERTEX
  8
0
 10
-0.2071
 20
0.5000
 30
0.0000
  0
VERTEX
  8
0
 10
0.2071
 20
0.5000
 30
0.0000
  0
VERTEX
  8
0
 10
0.5000
 20
0.2071
 30
0.0000
  0
VERTEX
  8
0
 10
0.5000
 20
-0.2071
 30
0.0000
  0
VERTEX
  8
0
 10
0.2071
 20
-0.5000
 30
0.0000
  0
VERTEX
  8
0
 10
-0.2071
 20
-0.5000
 30
0.0000
  0
SEQEND
  8
0
  0
ENDBLK
  8
0
  0
BLOCK
  8
0
  2
SQUAREV
 70
64
 10
0.0000
 20
0.0000
 30
0.0000
  3
SQUAREV
  0
SOLID
  8
0
 10
-0.5000
 20
-0.5000
 30
0.0000
 11
0.5000
 21
-0.5000
 31
0.0000
 12
-0.5000
 22
0.5000
 32
0.0000
 13
0.5000
 23
0.5000
 33
0.0000
  0
ENDBLK
  8
0
  0
BLOCK
  8
0
  2
ROUNDV
 70
64
 10
0.0000
 20
0.0000
 30
0.0000
  3
ROUNDV
  0
CIRCLE
  8
0
 10
0.0000
 20
0.0000
 30
0.0000
 40
0.5000
  0
ENDBLK
  8
0
  0
BLOCK
  8
0
  2
ANNULUSV
 70
64
 10
0.0000
 20
0.0000
 30
0.0000
  3
ANNULUSV
  0
CIRCLE
  8
0
 10
0.0000
 20
0.0000
 30
0.0000
 40
0.5000
  0
ENDBLK
  8
0
  0
BLOCK
  8
0
  2
THERMALV
 70
64
 10
0.0000
 20
0.0000
 30
0.0000
  3
THERMALV
  0
LINE
  8
0
 10
-0.2379
 20
0.4500
 30
0.0000
 11
0.2379
 21
0.4500
 31
0.0000
  0
LINE
  8
0
 10
0.4500
 20
0.2379
 30
0.0000
 11
0.4500
 21
-0.2379
 31
0.0000
  0
LINE
  8
0
 10
0.2379
 20
-0.4500
 30
0.0000
 11
-0.2379
 21
-0.4500
 31
0.0000
  0
LINE
  8
0
 10
-0.4500
 20
-0.2379
 30
0.0000
 11
-0.4500
 21
0.2379
 31
0.0000
  0
ENDBLK
  8
0
  0
BLOCK
  8
0
  2
LONGP100
 70
64
 10
0.0000
 20
0.0000
 30
0.0000
  3
LONGP100
  0
POLYLINE
  8
0
 66
1
 10
0.0000
 20
0.0000
 30
0.0000
 40
0.0000
 41
0.0000
 70
1
  0
VERTEX
  8
0
 10
-0.5000
 20
-0.5000
 30
0.0000
  0
VERTEX
  8
0
 10
0.5000
 20
-0.5000
 30
0.0000
 42
1.0000
  0
VERTEX
  8
0
 10
0.5000
 20
0.5000
 30
0.0000
  0
VERTEX
  8
0
 10
-0.5000
 20
0.5000
 30
0.0000
 42
1.0000
  0
SEQEND
  8
0
  0
ENDBLK
  8
0
  0
ENDSEC
  0
SECTION
  2
ENTITIES
  0
LINE
  8
20
 10
0.0000
 20
0.0000
 30
0.0000
 11
96.0000
 21
0.0000
 31
0.0000
  0
LINE
  8
20
 10
96.0000
 20
55.0000
 30
0.0000
 11
0.0000
 21
55.0000
 31
0.0000
  0
LINE
  8
20
 10
0.0000
 20
55.0000
 30
0.0000
 11
0.0000
 21
0.0000
 31
0.0000
  0
LINE
  8
20
 10
96.0000
 20
0.0000
 30
0.0000
 11
96.0000
 21
55.0000
 31
0.0000
  0
LINE
  8
1
 10
92.6763
 20
2.8285
 30
0.0000
 11
92.6763
 21
2.2523
 31
0.0000
  0
LINE
  8
1
 10
92.6763
 20
2.2523
 30
0.0000
 11
92.8203
 21
2.1082
 31
0.0000
  0
LINE
  8
1
 10
92.5322
 20
2.6844
 30
0.0000
 11
92.8203
 21
2.6844
 31
0.0000
  0
LINE
  8
1
 10
93.2999
 20
2.1082
 30
0.0000
 11
93.5880
 21
2.1082
 31
0.0000
  0
LINE
  8
1
 10
93.5880
 20
2.1082
 30
0.0000
 11
93.7321
 21
2.2523
 31
0.0000
  0
LINE
  8
1
 10
93.7321
 20
2.2523
 30
0.0000
 11
93.7321
 21
2.5404
 31
0.0000
  0
LINE
  8
1
 10
93.7321
 20
2.5404
 30
0.0000
 11
93.5880
 21
2.6844
 31
0.0000
  0
LINE
  8
1
 10
93.5880
 20
2.6844
 30
0.0000
 11
93.2999
 21
2.6844
 31
0.0000
  0
LINE
  8
1
 10
93.2999
 20
2.6844
 30
0.0000
 11
93.1559
 21
2.5404
 31
0.0000
  0
LINE
  8
1
 10
93.1559
 20
2.5404
 30
0.0000
 11
93.1559
 21
2.2523
 31
0.0000
  0
LINE
  8
1
 10
93.1559
 20
2.2523
 30
0.0000
 11
93.2999
 21
2.1082
 31
0.0000
  0
LINE
  8
1
 10
94.0914
 20
1.8201
 30
0.0000
 11
94.0914
 21
2.6844
 31
0.0000
  0
LINE
  8
1
 10
94.0914
 20
2.6844
 30
0.0000
 11
94.5236
 21
2.6844
 31
0.0000
  0
LINE
  8
1
 10
94.5236
 20
2.6844
 30
0.0000
 11
94.6676
 21
2.5404
 31
0.0000
  0
LINE
  8
1
 10
94.6676
 20
2.5404
 30
0.0000
 11
94.6676
 21
2.2523
 31
0.0000
  0
LINE
  8
1
 10
94.6676
 20
2.2523
 30
0.0000
 11
94.5236
 21
2.1082
 31
0.0000
  0
LINE
  8
1
 10
94.5236
 20
2.1082
 30
0.0000
 11
94.0914
 21
2.1082
 31
0.0000
  0
LINE
  8
1
 10
64.9478
 20
3.6703
 30
0.0000
 11
64.9478
 21
5.0939
 31
0.0000
  0
LINE
  8
1
 10
64.9478
 20
5.0939
 30
0.0000
 11
65.6596
 21
5.0939
 31
0.0000
  0
LINE
  8
1
 10
65.6596
 20
5.0939
 30
0.0000
 11
65.8969
 21
4.8566
 31
0.0000
  0
LINE
  8
1
 10
65.8969
 20
4.8566
 30
0.0000
 11
65.8969
 21
4.6194
 31
0.0000
  0
LINE
  8
1
 10
65.8969
 20
4.6194
 30
0.0000
 11
65.6596
 21
4.3821
 31
0.0000
  0
LINE
  8
1
 10
65.6596
 20
4.3821
 30
0.0000
 11
65.8969
 21
4.1448
 31
0.0000
  0
LINE
  8
1
 10
65.8969
 20
4.1448
 30
0.0000
 11
65.8969
 21
3.9076
 31
0.0000
  0
LINE
  8
1
 10
65.8969
 20
3.9076
 30
0.0000
 11
65.6596
 21
3.6703
 31
0.0000
  0
LINE
  8
1
 10
65.6596
 20
3.6703
 30
0.0000
 11
64.9478
 21
3.6703
 31
0.0000
  0
LINE
  8
1
 10
64.9478
 20
4.3821
 30
0.0000
 11
65.6596
 21
4.3821
 31
0.0000
  0
LINE
  8
1
 10
66.5850
 20
3.6703
 30
0.0000
 11
66.5850
 21
4.6194
 31
0.0000
  0
LINE
  8
1
 10
66.5850
 20
4.1448
 30
0.0000
 11
67.0595
 21
4.6194
 31
0.0000
  0
LINE
  8
1
 10
67.0595
 20
4.6194
 30
0.0000
 11
67.2968
 21
4.6194
 31
0.0000
  0
LINE
  8
1
 10
68.1865
 20
3.6703
 30
0.0000
 11
68.6611
 21
3.6703
 31
0.0000
  0
LINE
  8
1
 10
68.6611
 20
3.6703
 30
0.0000
 11
68.8983
 21
3.9076
 31
0.0000
  0
LINE
  8
1
 10
68.8983
 20
3.9076
 30
0.0000
 11
68.8983
 21
4.3821
 31
0.0000
  0
LINE
  8
1
 10
68.8983
 20
4.3821
 30
0.0000
 11
68.6611
 21
4.6194
 31
0.0000
  0
LINE
  8
1
 10
68.6611
 20
4.6194
 30
0.0000
 11
68.1865
 21
4.6194
 31
0.0000
  0
LINE
  8
1
 10
68.1865
 20
4.6194
 30
0.0000
 11
67.9493
 21
4.3821
 31
0.0000
  0
LINE
  8
1
 10
67.9493
 20
4.3821
 30
0.0000
 11
67.9493
 21
3.9076
 31
0.0000
  0
LINE
  8
1
 10
67.9493
 20
3.9076
 30
0.0000
 11
68.1865
 21
3.6703
 31
0.0000
  0
LINE
  8
1
 10
69.8237
 20
4.8566
 30
0.0000
 11
69.8237
 21
3.9076
 31
0.0000
  0
LINE
  8
1
 10
69.8237
 20
3.9076
 30
0.0000
 11
70.0609
 21
3.6703
 31
0.0000
  0
LINE
  8
1
 10
69.5864
 20
4.6194
 30
0.0000
 11
70.0609
 21
4.6194
 31
0.0000
  0
LINE
  8
1
 10
70.6778
 20
5.0939
 30
0.0000
 11
70.6778
 21
3.6703
 31
0.0000
  0
LINE
  8
1
 10
70.6778
 20
3.6703
 30
0.0000
 11
71.3897
 21
3.6703
 31
0.0000
  0
LINE
  8
1
 10
71.3897
 20
3.6703
 30
0.0000
 11
71.6269
 21
3.9076
 31
0.0000
  0
LINE
  8
1
 10
71.6269
 20
3.9076
 30
0.0000
 11
71.6269
 21
4.3821
 31
0.0000
  0
LINE
  8
1
 10
71.6269
 20
4.3821
 30
0.0000
 11
71.3897
 21
4.6194
 31
0.0000
  0
LINE
  8
1
 10
71.3897
 20
4.6194
 30
0.0000
 11
70.6778
 21
4.6194
 31
0.0000
  0
LINE
  8
1
 10
72.5523
 20
3.6703
 30
0.0000
 11
73.0268
 21
3.6703
 31
0.0000
  0
LINE
  8
1
 10
73.0268
 20
3.6703
 30
0.0000
 11
73.2641
 21
3.9076
 31
0.0000
  0
LINE
  8
1
 10
73.2641
 20
3.9076
 30
0.0000
 11
73.2641
 21
4.3821
 31
0.0000
  0
LINE
  8
1
 10
73.2641
 20
4.3821
 30
0.0000
 11
73.0268
 21
4.6194
 31
0.0000
  0
LINE
  8
1
 10
73.0268
 20
4.6194
 30
0.0000
 11
72.5523
 21
4.6194
 31
0.0000
  0
LINE
  8
1
 10
72.5523
 20
4.6194
 30
0.0000
 11
72.3150
 21
4.3821
 31
0.0000
  0
LINE
  8
1
 10
72.3150
 20
4.3821
 30
0.0000
 11
72.3150
 21
3.9076
 31
0.0000
  0
LINE
  8
1
 10
72.3150
 20
3.9076
 30
0.0000
 11
72.5523
 21
3.6703
 31
0.0000
  0
LINE
  8
1
 10
73.9522
 20
4.6194
 30
0.0000
 11
74.9012
 21
3.6703
 31
0.0000
  0
LINE
  8
1
 10
73.9522
 20
3.6703
 30
0.0000
 11
74.9012
 21
4.6194
 31
0.0000
  0
LINE
  8
1
 10
77.2265
 20
5.0939
 30
0.0000
 11
77.2265
 21
4.1448
 31
0.0000
  0
LINE
  8
1
 10
77.2265
 20
4.1448
 30
0.0000
 11
77.7010
 21
3.6703
 31
0.0000
  0
LINE
  8
1
 10
77.7010
 20
3.6703
 30
0.0000
 11
78.1755
 21
4.1448
 31
0.0000
  0
LINE
  8
1
 10
78.1755
 20
4.1448
 30
0.0000
 11
78.1755
 21
5.0939
 31
0.0000
  0
LINE
  8
1
 10
79.8127
 20
3.6703
 30
0.0000
 11
78.8636
 21
3.6703
 31
0.0000
  0
LINE
  8
1
 10
78.8636
 20
3.6703
 30
0.0000
 11
79.8127
 21
4.6194
 31
0.0000
  0
LINE
  8
1
 10
79.8127
 20
4.6194
 30
0.0000
 11
79.8127
 21
4.8566
 31
0.0000
  0
LINE
  8
1
 10
79.8127
 20
4.8566
 30
0.0000
 11
79.5754
 21
5.0939
 31
0.0000
  0
LINE
  8
1
 10
79.5754
 20
5.0939
 30
0.0000
 11
79.1009
 21
5.0939
 31
0.0000
  0
LINE
  8
1
 10
79.1009
 20
5.0939
 30
0.0000
 11
78.8636
 21
4.8566
 31
0.0000
  0
LINE
  8
1
 10
80.5008
 20
3.6703
 30
0.0000
 11
80.5008
 21
3.9076
 31
0.0000
  0
LINE
  8
1
 10
80.5008
 20
3.9076
 30
0.0000
 11
80.7381
 21
3.9076
 31
0.0000
  0
LINE
  8
1
 10
80.7381
 20
3.9076
 30
0.0000
 11
80.7381
 21
3.6703
 31
0.0000
  0
LINE
  8
1
 10
80.7381
 20
3.6703
 30
0.0000
 11
80.5008
 21
3.6703
 31
0.0000
  0
LINE
  8
1
 10
81.3194
 20
3.9076
 30
0.0000
 11
81.3194
 21
4.8566
 31
0.0000
  0
LINE
  8
1
 10
81.3194
 20
4.8566
 30
0.0000
 11
81.5566
 21
5.0939
 31
0.0000
  0
LINE
  8
1
 10
81.5566
 20
5.0939
 30
0.0000
 11
82.0312
 21
5.0939
 31
0.0000
  0
LINE
  8
1
 10
82.0312
 20
5.0939
 30
0.0000
 11
82.2684
 21
4.8566
 31
0.0000
  0
LINE
  8
1
 10
82.2684
 20
4.8566
 30
0.0000
 11
82.2684
 21
3.9076
 31
0.0000
  0
LINE
  8
1
 10
82.2684
 20
3.9076
 30
0.0000
 11
82.0312
 21
3.6703
 31
0.0000
  0
LINE
  8
1
 10
82.0312
 20
3.6703
 30
0.0000
 11
81.5566
 21
3.6703
 31
0.0000
  0
LINE
  8
1
 10
81.5566
 20
3.6703
 30
0.0000
 11
81.3194
 21
3.9076
 31
0.0000
  0
LINE
  8
1
 10
81.3194
 20
3.9076
 30
0.0000
 11
82.2684
 21
4.8566
 31
0.0000
  0
LINE
  8
1
 10
64.9478
 20
1.9524
 30
0.0000
 11
64.9478
 21
1.2406
 31
0.0000
  0
LINE
  8
1
 10
64.9478
 20
1.2406
 30
0.0000
 11
65.1851
 21
1.0033
 31
0.0000
  0
LINE
  8
1
 10
65.1851
 20
1.0033
 30
0.0000
 11
65.4223
 21
1.2406
 31
0.0000
  0
LINE
  8
1
 10
65.4223
 20
1.2406
 30
0.0000
 11
65.6596
 21
1.0033
 31
0.0000
  0
LINE
  8
1
 10
65.6596
 20
1.0033
 30
0.0000
 11
65.8969
 21
1.2406
 31
0.0000
  0
LINE
  8
1
 10
65.8969
 20
1.2406
 30
0.0000
 11
65.8969
 21
1.9524
 31
0.0000
  0
LINE
  8
1
 10
66.5850
 20
1.9524
 30
0.0000
 11
66.5850
 21
1.2406
 31
0.0000
  0
LINE
  8
1
 10
66.5850
 20
1.2406
 30
0.0000
 11
66.8222
 21
1.0033
 31
0.0000
  0
LINE
  8
1
 10
66.8222
 20
1.0033
 30
0.0000
 11
67.0595
 21
1.2406
 31
0.0000
  0
LINE
  8
1
 10
67.0595
 20
1.2406
 30
0.0000
 11
67.2968
 21
1.0033
 31
0.0000
  0
LINE
  8
1
 10
67.2968
 20
1.0033
 30
0.0000
 11
67.5340
 21
1.2406
 31
0.0000
  0
LINE
  8
1
 10
67.5340
 20
1.2406
 30
0.0000
 11
67.5340
 21
1.9524
 31
0.0000
  0
LINE
  8
1
 10
68.2221
 20
1.9524
 30
0.0000
 11
68.2221
 21
1.2406
 31
0.0000
  0
LINE
  8
1
 10
68.2221
 20
1.2406
 30
0.0000
 11
68.4594
 21
1.0033
 31
0.0000
  0
LINE
  8
1
 10
68.4594
 20
1.0033
 30
0.0000
 11
68.6967
 21
1.2406
 31
0.0000
  0
LINE
  8
1
 10
68.6967
 20
1.2406
 30
0.0000
 11
68.9339
 21
1.0033
 31
0.0000
  0
LINE
  8
1
 10
68.9339
 20
1.0033
 30
0.0000
 11
69.1712
 21
1.2406
 31
0.0000
  0
LINE
  8
1
 10
69.1712
 20
1.2406
 30
0.0000
 11
69.1712
 21
1.9524
 31
0.0000
  0
LINE
  8
1
 10
69.8593
 20
1.0033
 30
0.0000
 11
69.8593
 21
1.2406
 31
0.0000
  0
LINE
  8
1
 10
69.8593
 20
1.2406
 30
0.0000
 11
70.0965
 21
1.2406
 31
0.0000
  0
LINE
  8
1
 10
70.0965
 20
1.2406
 30
0.0000
 11
70.0965
 21
1.0033
 31
0.0000
  0
LINE
  8
1
 10
70.0965
 20
1.0033
 30
0.0000
 11
69.8593
 21
1.0033
 31
0.0000
  0
LINE
  8
1
 10
70.9151
 20
1.0033
 30
0.0000
 11
70.9151
 21
2.1896
 31
0.0000
  0
LINE
  8
1
 10
70.9151
 20
2.1896
 30
0.0000
 11
71.1524
 21
2.4269
 31
0.0000
  0
LINE
  8
1
 10
70.6778
 20
1.7151
 30
0.0000
 11
71.1524
 21
1.7151
 31
0.0000
  0
LINE
  8
1
 10
71.7693
 20
2.4269
 30
0.0000
 11
72.0066
 21
2.4269
 31
0.0000
  0
LINE
  8
1
 10
72.0066
 20
2.4269
 30
0.0000
 11
72.0066
 21
1.0033
 31
0.0000
  0
LINE
  8
1
 10
71.7693
 20
1.0033
 30
0.0000
 11
72.2438
 21
1.0033
 31
0.0000
  0
LINE
  8
1
 10
72.8607
 20
1.9524
 30
0.0000
 11
72.8607
 21
1.2406
 31
0.0000
  0
LINE
  8
1
 10
72.8607
 20
1.2406
 30
0.0000
 11
73.0980
 21
1.0033
 31
0.0000
  0
LINE
  8
1
 10
73.0980
 20
1.0033
 30
0.0000
 11
73.8098
 21
1.0033
 31
0.0000
  0
LINE
  8
1
 10
73.8098
 20
1.9524
 30
0.0000
 11
73.8098
 21
0.7660
 31
0.0000
  0
LINE
  8
1
 10
73.8098
 20
0.7660
 30
0.0000
 11
73.5725
 21
0.5288
 31
0.0000
  0
LINE
  8
1
 10
73.5725
 20
0.5288
 30
0.0000
 11
73.3353
 21
0.5288
 31
0.0000
  0
LINE
  8
1
 10
74.4979
 20
1.9524
 30
0.0000
 11
74.7351
 21
1.9524
 31
0.0000
  0
LINE
  8
1
 10
74.7351
 20
1.9524
 30
0.0000
 11
74.7351
 21
1.0033
 31
0.0000
  0
LINE
  8
1
 10
74.4979
 20
1.0033
 30
0.0000
 11
74.9724
 21
1.0033
 31
0.0000
  0
LINE
  8
1
 10
74.7351
 20
2.6642
 30
0.0000
 11
74.7351
 21
2.4269
 31
0.0000
  0
LINE
  8
1
 10
75.5893
 20
1.0033
 30
0.0000
 11
75.5893
 21
1.9524
 31
0.0000
  0
LINE
  8
1
 10
75.5893
 20
1.9524
 30
0.0000
 11
76.3011
 21
1.9524
 31
0.0000
  0
LINE
  8
1
 10
76.3011
 20
1.9524
 30
0.0000
 11
76.5384
 21
1.7151
 31
0.0000
  0
LINE
  8
1
 10
76.5384
 20
1.7151
 30
0.0000
 11
76.5384
 21
1.0033
 31
0.0000
  0
LINE
  8
1
 10
77.7010
 20
0.5288
 30
0.0000
 11
77.9383
 21
0.5288
 31
0.0000
  0
LINE
  8
1
 10
77.9383
 20
0.5288
 30
0.0000
 11
78.1755
 21
0.7660
 31
0.0000
  0
LINE
  8
1
 10
78.1755
 20
0.7660
 30
0.0000
 11
78.1755
 21
1.9524
 31
0.0000
  0
LINE
  8
1
 10
78.1755
 20
1.9524
 30
0.0000
 11
77.4637
 21
1.9524
 31
0.0000
  0
LINE
  8
1
 10
77.4637
 20
1.9524
 30
0.0000
 11
77.2265
 21
1.7151
 31
0.0000
  0
LINE
  8
1
 10
77.2265
 20
1.7151
 30
0.0000
 11
77.2265
 21
1.2406
 31
0.0000
  0
LINE
  8
1
 10
77.2265
 20
1.2406
 30
0.0000
 11
77.4637
 21
1.0033
 31
0.0000
  0
LINE
  8
1
 10
77.4637
 20
1.0033
 30
0.0000
 11
78.1755
 21
1.0033
 31
0.0000
  0
LINE
  8
1
 10
78.8636
 20
2.4269
 30
0.0000
 11
78.8636
 21
1.0033
 31
0.0000
  0
LINE
  8
1
 10
78.8636
 20
1.0033
 30
0.0000
 11
79.5754
 21
1.0033
 31
0.0000
  0
LINE
  8
1
 10
79.5754
 20
1.0033
 30
0.0000
 11
79.8127
 21
1.2406
 31
0.0000
  0
LINE
  8
1
 10
79.8127
 20
1.2406
 30
0.0000
 11
79.8127
 21
1.7151
 31
0.0000
  0
LINE
  8
1
 10
79.8127
 20
1.7151
 30
0.0000
 11
79.5754
 21
1.9524
 31
0.0000
  0
LINE
  8
1
 10
79.5754
 20
1.9524
 30
0.0000
 11
78.8636
 21
1.9524
 31
0.0000
  0
LINE
  8
1
 10
80.5008
 20
1.0033
 30
0.0000
 11
80.5008
 21
1.9524
 31
0.0000
  0
LINE
  8
1
 10
80.5008
 20
1.4778
 30
0.0000
 11
80.9753
 21
1.9524
 31
0.0000
  0
LINE
  8
1
 10
80.9753
 20
1.9524
 30
0.0000
 11
81.2126
 21
1.9524
 31
0.0000
  0
LINE
  8
1
 10
81.8651
 20
1.9524
 30
0.0000
 11
82.1024
 21
1.9524
 31
0.0000
  0
LINE
  8
1
 10
82.1024
 20
1.9524
 30
0.0000
 11
82.1024
 21
1.0033
 31
0.0000
  0
LINE
  8
1
 10
81.8651
 20
1.0033
 30
0.0000
 11
82.3396
 21
1.0033
 31
0.0000
  0
LINE
  8
1
 10
82.1024
 20
2.6642
 30
0.0000
 11
82.1024
 21
2.4269
 31
0.0000
  0
LINE
  8
1
 10
83.9056
 20
1.9524
 30
0.0000
 11
83.1938
 21
1.9524
 31
0.0000
  0
LINE
  8
1
 10
83.1938
 20
1.9524
 30
0.0000
 11
82.9565
 21
1.7151
 31
0.0000
  0
LINE
  8
1
 10
82.9565
 20
1.7151
 30
0.0000
 11
82.9565
 21
1.2406
 31
0.0000
  0
LINE
  8
1
 10
82.9565
 20
1.2406
 30
0.0000
 11
83.1938
 21
1.0033
 31
0.0000
  0
LINE
  8
1
 10
83.1938
 20
1.0033
 30
0.0000
 11
83.9056
 21
1.0033
 31
0.0000
  0
LINE
  8
1
 10
84.5937
 20
1.0033
 30
0.0000
 11
84.5937
 21
2.4269
 31
0.0000
  0
LINE
  8
1
 10
85.3055
 20
1.0033
 30
0.0000
 11
84.5937
 21
1.4778
 31
0.0000
  0
LINE
  8
1
 10
84.5937
 20
1.4778
 30
0.0000
 11
85.3055
 21
1.9524
 31
0.0000
  0
LINE
  8
1
 10
85.9580
 20
1.0033
 30
0.0000
 11
85.9580
 21
1.2406
 31
0.0000
  0
LINE
  8
1
 10
85.9580
 20
1.2406
 30
0.0000
 11
86.1952
 21
1.2406
 31
0.0000
  0
LINE
  8
1
 10
86.1952
 20
1.2406
 30
0.0000
 11
86.1952
 21
1.0033
 31
0.0000
  0
LINE
  8
1
 10
86.1952
 20
1.0033
 30
0.0000
 11
85.9580
 21
1.0033
 31
0.0000
  0
LINE
  8
1
 10
87.7256
 20
2.4269
 30
0.0000
 11
87.7256
 21
1.0033
 31
0.0000
  0
LINE
  8
1
 10
87.7256
 20
1.0033
 30
0.0000
 11
87.0138
 21
1.0033
 31
0.0000
  0
LINE
  8
1
 10
87.0138
 20
1.0033
 30
0.0000
 11
86.7766
 21
1.2406
 31
0.0000
  0
LINE
  8
1
 10
86.7766
 20
1.2406
 30
0.0000
 11
86.7766
 21
1.7151
 31
0.0000
  0
LINE
  8
1
 10
86.7766
 20
1.7151
 30
0.0000
 11
87.0138
 21
1.9524
 31
0.0000
  0
LINE
  8
1
 10
87.0138
 20
1.9524
 30
0.0000
 11
87.7256
 21
1.9524
 31
0.0000
  0
LINE
  8
1
 10
89.1255
 20
1.0033
 30
0.0000
 11
88.6510
 21
1.0033
 31
0.0000
  0
LINE
  8
1
 10
88.6510
 20
1.0033
 30
0.0000
 11
88.4137
 21
1.2406
 31
0.0000
  0
LINE
  8
1
 10
88.4137
 20
1.2406
 30
0.0000
 11
88.4137
 21
1.7151
 31
0.0000
  0
LINE
  8
1
 10
88.4137
 20
1.7151
 30
0.0000
 11
88.6510
 21
1.9524
 31
0.0000
  0
LINE
  8
1
 10
88.6510
 20
1.9524
 30
0.0000
 11
89.1255
 21
1.9524
 31
0.0000
  0
LINE
  8
1
 10
89.1255
 20
1.9524
 30
0.0000
 11
89.3628
 21
1.7151
 31
0.0000
  0
LINE
  8
1
 10
89.3628
 20
1.7151
 30
0.0000
 11
89.3628
 21
1.4778
 31
0.0000
  0
LINE
  8
1
 10
89.3628
 20
1.4778
 30
0.0000
 11
88.4137
 21
1.4778
 31
0.0000
  0
CIRCLE
  8
20
 10
28.6350
 20
27.5000
 30
0.0000
 40
2.9000
  0
CIRCLE
  8
20
 10
11.5000
 20
52.5000
 30
0.0000
 40
1.0922
  0
CIRCLE
  8
20
 10
62.5000
 20
52.5000
 30
0.0000
 40
1.0922
  0
CIRCLE
  8
20
 10
11.5000
 20
2.5000
 30
0.0000
 40
1.0922
  0
CIRCLE
  8
20
 10
62.5000
 20
2.5000
 30
0.0000
 40
1.0922
  0
CIRCLE
  8
20
 10
0.9525
 20
50.3555
 30
0.0000
 40
0.5080
  0
CIRCLE
  8
20
 10
2.2860
 20
50.6730
 30
0.0000
 40
0.5080
  0
CIRCLE
  8
20
 10
3.5560
 20
50.9270
 30
0.0000
 40
0.5080
  0
CIRCLE
  8
20
 10
4.5720
 20
51.6890
 30
0.0000
 40
0.5080
  0
CIRCLE
  8
20
 10
5.2070
 20
54.1020
 30
0.0000
 40
0.5080
  0
CIRCLE
  8
20
 10
95.1865
 20
5.2070
 30
0.0000
 40
0.5080
  0
CIRCLE
  8
20
 10
93.9165
 20
5.1435
 30
0.0000
 40
0.5080
  0
CIRCLE
  8
20
 10
92.7735
 20
4.8260
 30
0.0000
 40
0.5080
  0
CIRCLE
  8
20
 10
91.0590
 20
3.1115
 30
0.0000
 40
0.5080
  0
CIRCLE
  8
20
 10
90.7415
 20
1.9685
 30
0.0000
 40
0.5080
  0
CIRCLE
  8
20
 10
90.8685
 20
0.6985
 30
0.0000
 40
0.5080
  0
CIRCLE
  8
20
 10
90.3000
 20
52.5000
 30
0.0000
 40
1.0922
  0
CIRCLE
  8
20
 10
94.5000
 20
7.1000
 30
0.0000
 40
1.0922
  0
CIRCLE
  8
20
 10
91.5670
 20
4.2545
 30
0.0000
 40
0.5080
  0
CIRCLE
  8
20
 10
5.0800
 20
52.8320
 30
0.0000
 40
0.5080
  0
INSERT
  8
17
  2
LONGP100
 10
77.5600
 20
8.2500
 30
0.0000
 41
1.5240
 42
1.5240
 43
1.0000
 50
180.0000
  0
INSERT
  8
17
  2
LONGP100
 10
83.0600
 20
11.7500
 30
0.0000
 41
1.5240
 42
1.5240
 43
1.0000
 50
180.0000
  0
INSERT
  8
17
  2
LONGP100
 10
77.5600
 20
15.2500
 30
0.0000
 41
1.5240
 42
1.5240
 43
1.0000
 50
180.0000
  0
INSERT
  8
17
  2
LONGP100
 10
83.0600
 20
18.7500
 30
0.0000
 41
1.5240
 42
1.5240
 43
1.0000
 50
180.0000
  0
INSERT
  8
17
  2
LONGP100
 10
77.5600
 20
22.2500
 30
0.0000
 41
1.5240
 42
1.5240
 43
1.0000
 50
180.0000
  0
INSERT
  8
17
  2
LONGP100
 10
83.0600
 20
25.7500
 30
0.0000
 41
1.5240
 42
1.5240
 43
1.0000
 50
180.0000
  0
INSERT
  8
17
  2
LONGP100
 10
77.5600
 20
29.2500
 30
0.0000
 41
1.5240
 42
1.5240
 43
1.0000
 50
180.0000
  0
INSERT
  8
17
  2
LONGP100
 10
83.0600
 20
32.7500
 30
0.0000
 41
1.5240
 42
1.5240
 43
1.0000
 50
180.0000
  0
INSERT
  8
17
  2
LONGP100
 10
77.5600
 20
36.2500
 30
0.0000
 41
1.5240
 42
1.5240
 43
1.0000
 50
180.0000
  0
INSERT
  8
17
  2
LONGP100
 10
83.0600
 20
39.7500
 30
0.0000
 41
1.5240
 42
1.5240
 43
1.0000
 50
180.0000
  0
INSERT
  8
17
  2
LONGP100
 10
77.5600
 20
43.2500
 30
0.0000
 41
1.5240
 42
1.5240
 43
1.0000
 50
180.0000
  0
INSERT
  8
17
  2
LONGP100
 10
83.0600
 20
46.7500
 30
0.0000
 41
1.5240
 42
1.5240
 43
1.0000
 50
180.0000
  0
INSERT
  8
17
  2
LONGP100
 10
66.7650
 20
8.2500
 30
0.0000
 41
1.5240
 42
1.5240
 43
1.0000
 50
180.0000
  0
INSERT
  8
17
  2
LONGP100
 10
72.2650
 20
11.7500
 30
0.0000
 41
1.5240
 42
1.5240
 43
1.0000
 50
180.0000
  0
INSERT
  8
17
  2
LONGP100
 10
66.7650
 20
15.2500
 30
0.0000
 41
1.5240
 42
1.5240
 43
1.0000
 50
180.0000
  0
INSERT
  8
17
  2
LONGP100
 10
72.2650
 20
18.7500
 30
0.0000
 41
1.5240
 42
1.5240
 43
1.0000
 50
180.0000
  0
INSERT
  8
17
  2
LONGP100
 10
66.7650
 20
22.2500
 30
0.0000
 41
1.5240
 42
1.5240
 43
1.0000
 50
180.0000
  0
INSERT
  8
17
  2
LONGP100
 10
72.2650
 20
25.7500
 30
0.0000
 41
1.5240
 42
1.5240
 43
1.0000
 50
180.0000
  0
INSERT
  8
17
  2
LONGP100
 10
66.7650
 20
29.2500
 30
0.0000
 41
1.5240
 42
1.5240
 43
1.0000
 50
180.0000
  0
INSERT
  8
17
  2
LONGP100
 10
72.2650
 20
32.7500
 30
0.0000
 41
1.5240
 42
1.5240
 43
1.0000
 50
180.0000
  0
INSERT
  8
17
  2
LONGP100
 10
66.7650
 20
36.2500
 30
0.0000
 41
1.5240
 42
1.5240
 43
1.0000
 50
180.0000
  0
INSERT
  8
17
  2
LONGP100
 10
72.2650
 20
39.7500
 30
0.0000
 41
1.5240
 42
1.5240
 43
1.0000
 50
180.0000
  0
INSERT
  8
17
  2
LONGP100
 10
66.7650
 20
43.2500
 30
0.0000
 41
1.5240
 42
1.5240
 43
1.0000
 50
180.0000
  0
INSERT
  8
17
  2
LONGP100
 10
72.2650
 20
46.7500
 30
0.0000
 41
1.5240
 42
1.5240
 43
1.0000
 50
180.0000
  0
INSERT
  8
17
  2
OCTAGONP
 10
60.3250
 20
27.9400
 30
0.0000
 41
1.2192
 42
1.2192
 43
1.0000
 50
90.0000
  0
INSERT
  8
17
  2
OCTAGONP
 10
62.2300
 20
29.2100
 30
0.0000
 41
1.2192
 42
1.2192
 43
1.0000
 50
90.0000
  0
INSERT
  8
17
  2
OCTAGONP
 10
62.2300
 20
26.6700
 30
0.0000
 41
1.2192
 42
1.2192
 43
1.0000
 50
90.0000
  0
CIRCLE
  8
20
 10
50.1650
 20
48.2360
 30
0.0000
 40
1.6510
  0
INSERT
  8
17
  2
LONGP100
 10
47.6250
 20
31.7500
 30
0.0000
 41
1.5240
 42
1.5240
 43
1.0000
 50
90.0000
  0
INSERT
  8
17
  2
LONGP100
 10
50.1650
 20
31.7500
 30
0.0000
 41
1.5240
 42
1.5240
 43
1.0000
 50
90.0000
  0
INSERT
  8
17
  2
LONGP100
 10
52.7050
 20
31.7500
 30
0.0000
 41
1.5240
 42
1.5240
 43
1.0000
 50
90.0000
  0
INSERT
  8
17
  2
OCTAGONP
 10
44.4500
 20
28.5750
 30
0.0000
 41
1.2192
 42
1.2192
 43
1.0000
 50
0.0000
  0
INSERT
  8
17
  2
OCTAGONP
 10
54.6100
 20
28.5750
 30
0.0000
 41
1.2192
 42
1.2192
 43
1.0000
 50
0.0000
  0
INSERT
  8
17
  2
OCTAGONP
 10
2.5400
 20
1.5875
 30
0.0000
 41
1.6002
 42
1.6002
 43
1.0000
 50
90.0000
  0
INSERT
  8
17
  2
OCTAGONP
 10
2.5400
 20
19.3675
 30
0.0000
 41
1.6002
 42
1.6002
 43
1.0000
 50
90.0000
  0
INSERT
  8
17
  2
OCTAGONP
 10
2.5400
 20
21.9075
 30
0.0000
 41
1.6002
 42
1.6002
 43
1.0000
 50
90.0000
  0
INSERT
  8
17
  2
OCTAGONP
 10
2.5400
 20
39.6875
 30
0.0000
 41
1.6002
 42
1.6002
 43
1.0000
 50
90.0000
  0
INSERT
  8
1
  2
RECT
 10
92.3290
 20
11.7450
 30
0.0000
 41
1.3000
 42
1.5000
 43
1.0000
 50
270.0000
  0
INSERT
  8
1
  2
RECT
 10
92.3290
 20
9.8450
 30
0.0000
 41
1.3000
 42
1.5000
 43
1.0000
 50
270.0000
  0
INSERT
  8
17
  2
ROUNDP
 10
36.0680
 20
5.8420
 30
0.0000
 41
1.4224
 42
1.4224
 43
1.0000
 50
180.0000
  0
INSERT
  8
17
  2
LONGP100
 10
17.7850
 20
49.2800
 30
0.0000
 41
2.1844
 42
2.1844
 43
1.0000
 50
0.0000
  0
INSERT
  8
17
  2
LONGP100
 10
17.7850
 20
45.3200
 30
0.0000
 41
2.1844
 42
2.1844
 43
1.0000
 50
0.0000
  0
INSERT
  8
17
  2
LONGP100
 10
17.7850
 20
41.3600
 30
0.0000
 41
2.1844
 42
2.1844
 43
1.0000
 50
0.0000
  0
INSERT
  8
17
  2
LONGP100
 10
17.7850
 20
37.4000
 30
0.0000
 41
2.1844
 42
2.1844
 43
1.0000
 50
0.0000
  0
INSERT
  8
17
  2
LONGP100
 10
17.7850
 20
33.4400
 30
0.0000
 41
2.1844
 42
2.1844
 43
1.0000
 50
0.0000
  0
INSERT
  8
17
  2
LONGP100
 10
17.7850
 20
29.4800
 30
0.0000
 41
2.1844
 42
2.1844
 43
1.0000
 50
0.0000
  0
INSERT
  8
17
  2
LONGP100
 10
17.7850
 20
25.5200
 30
0.0000
 41
2.1844
 42
2.1844
 43
1.0000
 50
0.0000
  0
INSERT
  8
17
  2
LONGP100
 10
17.7850
 20
21.5600
 30
0.0000
 41
2.1844
 42
2.1844
 43
1.0000
 50
0.0000
  0
INSERT
  8
17
  2
LONGP100
 10
17.7850
 20
17.6000
 30
0.0000
 41
2.1844
 42
2.1844
 43
1.0000
 50
0.0000
  0
INSERT
  8
17
  2
LONGP100
 10
17.7850
 20
13.6400
 30
0.0000
 41
2.1844
 42
2.1844
 43
1.0000
 50
0.0000
  0
INSERT
  8
17
  2
LONGP100
 10
17.7850
 20
9.6800
 30
0.0000
 41
2.1844
 42
2.1844
 43
1.0000
 50
0.0000
  0
INSERT
  8
17
  2
LONGP100
 10
17.7850
 20
5.7200
 30
0.0000
 41
2.1844
 42
2.1844
 43
1.0000
 50
0.0000
  0
INSERT
  8
17
  2
LONGP100
 10
39.4850
 20
49.2800
 30
0.0000
 41
2.1844
 42
2.1844
 43
1.0000
 50
0.0000
  0
INSERT
  8
17
  2
LONGP100
 10
39.4850
 20
45.3200
 30
0.0000
 41
2.1844
 42
2.1844
 43
1.0000
 50
0.0000
  0
INSERT
  8
17
  2
LONGP100
 10
39.4850
 20
41.3600
 30
0.0000
 41
2.1844
 42
2.1844
 43
1.0000
 50
0.0000
  0
INSERT
  8
17
  2
LONGP100
 10
39.4850
 20
37.4000
 30
0.0000
 41
2.1844
 42
2.1844
 43
1.0000
 50
0.0000
  0
INSERT
  8
17
  2
LONGP100
 10
39.4850
 20
33.4400
 30
0.0000
 41
2.1844
 42
2.1844
 43
1.0000
 50
0.0000
  0
INSERT
  8
17
  2
LONGP100
 10
39.4850
 20
29.4800
 30
0.0000
 41
2.1844
 42
2.1844
 43
1.0000
 50
0.0000
  0
INSERT
  8
17
  2
LONGP100
 10
39.4850
 20
25.5200
 30
0.0000
 41
2.1844
 42
2.1844
 43
1.0000
 50
0.0000
  0
INSERT
  8
17
  2
LONGP100
 10
39.4850
 20
21.5600
 30
0.0000
 41
2.1844
 42
2.1844
 43
1.0000
 50
0.0000
  0
INSERT
  8
17
  2
LONGP100
 10
39.4850
 20
17.6000
 30
0.0000
 41
2.1844
 42
2.1844
 43
1.0000
 50
0.0000
  0
INSERT
  8
17
  2
LONGP100
 10
39.4850
 20
13.6400
 30
0.0000
 41
2.1844
 42
2.1844
 43
1.0000
 50
0.0000
  0
INSERT
  8
17
  2
LONGP100
 10
39.4850
 20
9.6800
 30
0.0000
 41
2.1844
 42
2.1844
 43
1.0000
 50
0.0000
  0
INSERT
  8
17
  2
LONGP100
 10
39.4850
 20
5.7200
 30
0.0000
 41
2.1844
 42
2.1844
 43
1.0000
 50
0.0000
  0
INSERT
  8
17
  2
LONGP100
 10
88.2650
 20
8.8900
 30
0.0000
 41
1.4064
 42
1.4064
 43
1.0000
 50
180.0000
  0
INSERT
  8
17
  2
LONGP100
 10
88.2650
 20
11.4300
 30
0.0000
 41
1.4064
 42
1.4064
 43
1.0000
 50
180.0000
  0
INSERT
  8
17
  2
LONGP100
 10
83.5025
 20
51.4350
 30
0.0000
 41
1.4064
 42
1.4064
 43
1.0000
 50
270.0000
  0
INSERT
  8
17
  2
LONGP100
 10
80.9625
 20
51.4350
 30
0.0000
 41
1.4064
 42
1.4064
 43
1.0000
 50
270.0000
  0
INSERT
  8
17
  2
LONGP100
 10
78.4225
 20
51.4350
 30
0.0000
 41
1.4064
 42
1.4064
 43
1.0000
 50
270.0000
  0
INSERT
  8
17
  2
LONGP100
 10
75.8825
 20
51.4350
 30
0.0000
 41
1.4064
 42
1.4064
 43
1.0000
 50
270.0000
  0
INSERT
  8
17
  2
LONGP100
 10
73.3425
 20
51.4350
 30
0.0000
 41
1.4064
 42
1.4064
 43
1.0000
 50
270.0000
  0
INSERT
  8
17
  2
LONGP100
 10
7.9375
 20
38.7350
 30
0.0000
 41
1.4064
 42
1.4064
 43
1.0000
 50
180.0000
  0
INSERT
  8
17
  2
LONGP100
 10
7.9375
 20
41.2750
 30
0.0000
 41
1.4064
 42
1.4064
 43
1.0000
 50
180.0000
  0
INSERT
  8
17
  2
LONGP100
 10
7.9375
 20
43.8150
 30
0.0000
 41
1.4064
 42
1.4064
 43
1.0000
 50
180.0000
  0
INSERT
  8
17
  2
LONGP100
 10
7.9375
 20
46.3550
 30
0.0000
 41
1.4064
 42
1.4064
 43
1.0000
 50
180.0000
  0
INSERT
  8
17
  2
LONGP100
 10
7.9375
 20
48.8950
 30
0.0000
 41
1.4064
 42
1.4064
 43
1.0000
 50
180.0000
  0
INSERT
  8
17
  2
ROUNDP
 10
43.1800
 20
37.8460
 30
0.0000
 41
1.4224
 42
1.4224
 43
1.0000
 50
180.0000
  0
LINE
  8
1
 10
66.7650
 20
8.2500
 30
0.0000
 11
64.7750
 21
10.1550
 31
0.0000
  0
LINE
  8
1
 10
64.7750
 20
10.1550
 30
0.0000
 11
60.0075
 21
10.1600
 31
0.0000
  0
LINE
  8
1
 10
62.2300
 20
29.2100
 30
0.0000
 11
62.2300
 21
36.8300
 31
0.0000
  0
LINE
  8
1
 10
62.2300
 20
36.8300
 30
0.0000
 11
60.0075
 21
39.3700
 31
0.0000
  0
LINE
  8
1
 10
60.0075
 20
39.3700
 30
0.0000
 11
42.2275
 21
39.3700
 31
0.0000
  0
LINE
  8
1
 10
42.2275
 20
39.3700
 30
0.0000
 11
35.8775
 21
39.3700
 31
0.0000
  0
LINE
  8
1
 10
86.9950
 20
51.4350
 30
0.0000
 11
83.5025
 21
51.4350
 31
0.0000
  0
INSERT
  8
18
  2
ROUNDV
 10
60.0075
 20
10.1600
 30
0.0000
 41
0.9048
 42
0.9048
 43
1.0000
 50
0.0000
  0
INSERT
  8
18
  2
ROUNDV
 10
35.8775
 20
39.3700
 30
0.0000
 41
0.9048
 42
0.9048
 43
1.0000
 50
0.0000
  0
INSERT
  8
18
  2
ROUNDV
 10
86.9950
 20
51.4350
 30
0.0000
 41
0.9048
 42
0.9048
 43
1.0000
 50
0.0000
  0
LINE
  8
1
 10
88.2650
 20
11.4300
 30
0.0000
 11
90.4875
 21
11.7475
 31
0.0000
  0
LINE
  8
1
 10
90.4875
 20
11.7475
 30
0.0000
 11
92.0750
 21
11.7475
 31
0.0000
  0
LINE
  8
1
 10
21.2725
 20
27.6225
 30
0.0000
 11
21.2725
 21
28.2575
 31
0.0000
  0
LINE
  8
1
 10
21.2725
 20
28.2575
 30
0.0000
 11
22.5425
 21
31.1150
 31
0.0000
  0
LINE
  8
1
 10
22.5425
 20
31.1150
 30
0.0000
 11
22.5425
 21
32.7025
 31
0.0000
  0
LINE
  8
1
 10
58.1025
 20
45.4025
 30
0.0000
 11
57.5945
 21
48.3235
 31
0.0000
  0
LINE
  8
1
 10
59.3725
 20
46.0375
 30
0.0000
 11
58.1025
 21
45.4025
 31
0.0000
  0
LINE
  8
1
 10
57.5945
 20
48.3235
 30
0.0000
 11
59.3725
 21
46.0375
 31
0.0000
  0
LINE
  8
1
 10
59.3725
 20
46.0375
 30
0.0000
 11
59.0550
 21
46.0375
 31
0.0000
  0
LINE
  8
1
 10
59.0550
 20
46.0375
 30
0.0000
 11
58.4200
 21
46.6725
 31
0.0000
  0
INSERT
  8
18
  2
ROUNDV
 10
22.5425
 20
32.7025
 30
0.0000
 41
0.9048
 42
0.9048
 43
1.0000
 50
0.0000
  0
INSERT
  8
18
  2
ROUNDV
 10
21.2725
 20
27.6225
 30
0.0000
 41
0.9048
 42
0.9048
 43
1.0000
 50
0.0000
  0
INSERT
  8
18
  2
ROUNDV
 10
58.1025
 20
45.4025
 30
0.0000
 41
0.9048
 42
0.9048
 43
1.0000
 50
0.0000
  0
INSERT
  8
18
  2
ROUNDV
 10
57.5945
 20
48.3235
 30
0.0000
 41
0.9048
 42
0.9048
 43
1.0000
 50
0.0000
  0
INSERT
  8
18
  2
ROUNDV
 10
59.3725
 20
46.0375
 30
0.0000
 41
0.9048
 42
0.9048
 43
1.0000
 50
0.0000
  0
LINE
  8
1
 10
66.7650
 20
36.2500
 30
0.0000
 11
66.7650
 21
33.5650
 31
0.0000
  0
LINE
  8
1
 10
66.7650
 20
33.5650
 30
0.0000
 11
69.8500
 21
30.4800
 31
0.0000
  0
LINE
  8
1
 10
69.8500
 20
30.4800
 30
0.0000
 11
69.8500
 21
27.6225
 31
0.0000
  0
LINE
  8
1
 10
69.8500
 20
27.6225
 30
0.0000
 11
69.2150
 21
26.9875
 31
0.0000
  0
LINE
  8
1
 10
69.2150
 20
26.9875
 30
0.0000
 11
69.2150
 21
24.4475
 31
0.0000
  0
LINE
  8
1
 10
69.2150
 20
24.4475
 30
0.0000
 11
69.8500
 21
23.8125
 31
0.0000
  0
LINE
  8
1
 10
69.8500
 20
23.8125
 30
0.0000
 11
71.1200
 21
22.2250
 31
0.0000
  0
LINE
  8
1
 10
6.3500
 20
5.3975
 30
0.0000
 11
7.0763
 21
5.8817
 31
0.0000
  0
ARC
  8
1
 10
7.5744
 20
5.1345
 30
0.0000
 40
0.8980
 50
89.9999
 51
123.6899
  0
LINE
  8
1
 10
7.5744
 20
6.0325
 30
0.0000
 11
10.7950
 21
6.0325
 31
0.0000
  0
LINE
  8
1
 10
10.7950
 20
6.0325
 30
0.0000
 11
12.9453
 21
5.7637
 31
0.0000
  0
ARC
  8
1
 10
12.8033
 20
4.6278
 30
0.0000
 40
1.1448
 50
45.0000
 51
82.8749
  0
LINE
  8
1
 10
13.6127
 20
5.4373
 30
0.0000
 11
15.3496
 21
3.7004
 31
0.0000
  0
ARC
  8
1
 10
15.8516
 20
4.2024
 30
0.0000
 40
0.7100
 50
224.9999
 51
270.0001
  0
LINE
  8
1
 10
15.8516
 20
3.4925
 30
0.0000
 11
41.6560
 21
3.4925
 31
0.0000
  0
LINE
  8
1
 10
41.6560
 20
3.4925
 30
0.0000
 11
47.4345
 21
8.5725
 31
0.0000
  0
LINE
  8
1
 10
47.4345
 20
8.5725
 30
0.0000
 11
63.5000
 21
8.5725
 31
0.0000
  0
INSERT
  8
18
  2
ROUNDV
 10
71.1200
 20
22.2250
 30
0.0000
 41
0.9048
 42
0.9048
 43
1.0000
 50
0.0000
  0
INSERT
  8
18
  2
ROUNDV
 10
6.3500
 20
5.3975
 30
0.0000
 41
0.9048
 42
0.9048
 43
1.0000
 50
0.0000
  0
INSERT
  8
18
  2
ROUNDV
 10
63.5000
 20
8.5725
 30
0.0000
 41
0.9048
 42
0.9048
 43
1.0000
 50
0.0000
  0
LINE
  8
1
 10
17.7850
 20
37.4000
 30
0.0000
 11
17.8500
 21
37.4650
 31
0.0000
  0
LINE
  8
1
 10
17.8500
 20
37.4650
 30
0.0000
 11
20.3200
 21
37.4650
 31
0.0000
  0
LINE
  8
1
 10
20.3200
 20
37.4650
 30
0.0000
 11
33.9725
 21
51.1175
 31
0.0000
  0
LINE
  8
1
 10
33.9725
 20
51.1175
 30
0.0000
 11
56.5150
 21
51.1175
 31
0.0000
  0
LINE
  8
1
 10
56.5150
 20
51.1175
 30
0.0000
 11
63.1825
 21
46.0375
 31
0.0000
  0
LINE
  8
1
 10
63.1825
 20
46.0375
 30
0.0000
 11
69.2150
 21
46.0375
 31
0.0000
  0
LINE
  8
1
 10
69.2150
 20
46.0375
 30
0.0000
 11
76.5175
 21
40.9575
 31
0.0000
  0
LINE
  8
1
 10
76.5175
 20
40.9575
 30
0.0000
 11
78.7400
 21
40.9575
 31
0.0000
  0
LINE
  8
1
 10
78.7400
 20
40.9575
 30
0.0000
 11
80.9625
 21
41.9100
 31
0.0000
  0
LINE
  8
1
 10
80.9625
 20
51.4350
 30
0.0000
 11
80.9625
 21
49.8475
 31
0.0000
  0
LINE
  8
1
 10
80.9625
 20
49.8475
 30
0.0000
 11
81.5975
 21
49.2125
 31
0.0000
  0
LINE
  8
1
 10
81.5975
 20
49.2125
 30
0.0000
 11
84.7725
 21
49.2125
 31
0.0000
  0
LINE
  8
1
 10
84.7725
 20
49.2125
 30
0.0000
 11
85.7250
 21
48.2600
 31
0.0000
  0
LINE
  8
1
 10
85.7250
 20
48.2600
 30
0.0000
 11
85.7250
 21
42.9895
 31
0.0000
  0
LINE
  8
1
 10
85.7250
 20
42.9895
 30
0.0000
 11
84.5820
 21
41.8465
 31
0.0000
  0
LINE
  8
1
 10
84.5820
 20
41.8465
 30
0.0000
 11
81.0260
 21
41.8465
 31
0.0000
  0
LINE
  8
1
 10
81.0260
 20
41.8465
 30
0.0000
 11
80.9625
 21
41.9100
 31
0.0000
  0
INSERT
  8
18
  2
ROUNDV
 10
80.9625
 20
41.9100
 30
0.0000
 41
0.9048
 42
0.9048
 43
1.0000
 50
0.0000
  0
LINE
  8
1
 10
17.7850
 20
41.3600
 30
0.0000
 11
18.0175
 21
41.5925
 31
0.0000
  0
LINE
  8
1
 10
18.0175
 20
41.5925
 30
0.0000
 11
21.2725
 21
41.5925
 31
0.0000
  0
LINE
  8
1
 10
21.2725
 20
41.5925
 30
0.0000
 11
32.0675
 21
52.3875
 31
0.0000
  0
LINE
  8
1
 10
32.0675
 20
52.3875
 30
0.0000
 11
56.1975
 21
52.3875
 31
0.0000
  0
LINE
  8
1
 10
56.1975
 20
52.3875
 30
0.0000
 11
63.1825
 21
47.3075
 31
0.0000
  0
LINE
  8
1
 10
63.1825
 20
47.3075
 30
0.0000
 11
68.8975
 21
47.3075
 31
0.0000
  0
LINE
  8
1
 10
68.8975
 20
47.3075
 30
0.0000
 11
70.4850
 21
48.2600
 31
0.0000
  0
LINE
  8
1
 10
70.4850
 20
48.2600
 30
0.0000
 11
73.9775
 21
48.2600
 31
0.0000
  0
LINE
  8
1
 10
83.8200
 20
44.7675
 30
0.0000
 11
83.5025
 21
44.4500
 31
0.0000
  0
LINE
  8
1
 10
83.5025
 20
44.4500
 30
0.0000
 11
81.9150
 21
44.4500
 31
0.0000
  0
LINE
  8
1
 10
81.9150
 20
44.4500
 30
0.0000
 11
80.8691
 21
44.7115
 31
0.0000
  0
LINE
  8
1
 10
80.8691
 20
44.7115
 30
0.0000
 11
79.3750
 21
45.0850
 31
0.0000
  0
LINE
  8
1
 10
79.3750
 20
45.0850
 30
0.0000
 11
76.2000
 21
45.0850
 31
0.0000
  0
LINE
  8
1
 10
76.2000
 20
45.0850
 30
0.0000
 11
75.2475
 21
47.6250
 31
0.0000
  0
LINE
  8
1
 10
75.2475
 20
47.6250
 30
0.0000
 11
73.9775
 21
48.2600
 31
0.0000
  0
LINE
  8
1
 10
78.4225
 20
51.4350
 30
0.0000
 11
78.4225
 21
49.2125
 31
0.0000
  0
LINE
  8
1
 10
78.4225
 20
49.2125
 30
0.0000
 11
78.7400
 21
48.8950
 31
0.0000
  0
LINE
  8
1
 10
78.7400
 20
48.8950
 30
0.0000
 11
80.3275
 21
47.3075
 31
0.0000
  0
LINE
  8
1
 10
80.3275
 20
47.3075
 30
0.0000
 11
80.3275
 21
45.2531
 31
0.0000
  0
LINE
  8
1
 10
80.3275
 20
45.2531
 30
0.0000
 11
80.8691
 21
44.7115
 31
0.0000
  0
INSERT
  8
18
  2
ROUNDV
 10
83.8200
 20
44.7675
 30
0.0000
 41
0.9048
 42
0.9048
 43
1.0000
 50
0.0000
  0
LINE
  8
1
 10
17.7850
 20
21.5600
 30
0.0000
 11
33.9425
 21
21.5600
 31
0.0000
  0
LINE
  8
1
 10
33.9425
 20
21.5600
 30
0.0000
 11
35.8775
 21
23.4950
 31
0.0000
  0
LINE
  8
1
 10
35.8775
 20
23.4950
 30
0.0000
 11
41.9100
 21
23.4950
 31
0.0000
  0
LINE
  8
1
 10
41.9100
 20
23.4950
 30
0.0000
 11
46.0375
 21
21.9710
 31
0.0000
  0
LINE
  8
1
 10
46.0375
 20
21.9710
 30
0.0000
 11
61.2775
 21
21.9710
 31
0.0000
  0
LINE
  8
1
 10
61.2775
 20
21.9710
 30
0.0000
 11
66.6750
 21
27.9400
 31
0.0000
  0
LINE
  8
1
 10
66.6750
 20
27.9400
 30
0.0000
 11
66.6750
 21
29.1600
 31
0.0000
  0
LINE
  8
1
 10
66.6750
 20
29.1600
 30
0.0000
 11
66.7650
 21
29.2500
 31
0.0000
  0
LINE
  8
1
 10
12.3825
 20
25.4000
 30
0.0000
 11
12.3825
 21
29.8450
 31
0.0000
  0
LINE
  8
1
 10
12.3825
 20
29.8450
 30
0.0000
 11
13.9700
 21
31.4325
 31
0.0000
  0
LINE
  8
1
 10
13.9700
 20
31.4325
 30
0.0000
 11
20.9550
 21
31.4325
 31
0.0000
  0
LINE
  8
1
 10
20.9550
 20
31.4325
 30
0.0000
 11
21.2725
 21
31.7500
 31
0.0000
  0
LINE
  8
1
 10
21.2725
 20
31.7500
 30
0.0000
 11
21.2725
 21
35.5600
 31
0.0000
  0
LINE
  8
1
 10
21.2725
 20
35.5600
 30
0.0000
 11
33.0200
 21
47.3075
 31
0.0000
  0
LINE
  8
1
 10
33.0200
 20
47.3075
 30
0.0000
 11
44.1325
 21
47.3075
 31
0.0000
  0
LINE
  8
1
 10
44.1325
 20
47.3075
 30
0.0000
 11
47.9425
 21
43.8150
 31
0.0000
  0
LINE
  8
1
 10
47.9425
 20
43.8150
 30
0.0000
 11
63.5000
 21
43.8150
 31
0.0000
  0
LINE
  8
1
 10
63.5000
 20
43.8150
 30
0.0000
 11
64.7700
 21
45.0850
 31
0.0000
  0
LINE
  8
1
 10
64.7700
 20
45.0850
 30
0.0000
 11
68.2625
 21
45.0850
 31
0.0000
  0
LINE
  8
1
 10
68.2625
 20
45.0850
 30
0.0000
 11
76.8350
 21
39.0525
 31
0.0000
  0
LINE
  8
1
 10
76.8350
 20
39.0525
 30
0.0000
 11
82.5500
 21
36.1950
 31
0.0000
  0
INSERT
  8
18
  2
ROUNDV
 10
12.3825
 20
25.4000
 30
0.0000
 41
0.9048
 42
0.9048
 43
1.0000
 50
0.0000
  0
INSERT
  8
18
  2
ROUNDV
 10
82.5500
 20
36.1950
 30
0.0000
 41
0.9048
 42
0.9048
 43
1.0000
 50
0.0000
  0
LINE
  8
1
 10
86.9950
 20
38.0975
 30
0.0000
 11
87.3125
 21
40.9575
 31
0.0000
  0
LINE
  8
1
 10
87.3125
 20
40.9575
 30
0.0000
 11
87.3125
 21
46.6725
 31
0.0000
  0
LINE
  8
1
 10
87.3125
 20
46.6725
 30
0.0000
 11
88.4175
 21
50.3650
 31
0.0000
  0
INSERT
  8
18
  2
ROUNDV
 10
86.9950
 20
38.0975
 30
0.0000
 41
0.9048
 42
0.9048
 43
1.0000
 50
0.0000
  0
INSERT
  8
18
  2
ROUNDV
 10
88.4175
 20
50.3650
 30
0.0000
 41
0.9048
 42
0.9048
 43
1.0000
 50
0.0000
  0
LINE
  8
1
 10
10.1600
 20
22.2250
 30
0.0000
 11
10.1600
 21
30.4800
 31
0.0000
  0
LINE
  8
1
 10
10.1600
 20
30.4800
 30
0.0000
 11
12.7000
 21
33.0200
 31
0.0000
  0
LINE
  8
1
 10
12.7000
 20
33.0200
 30
0.0000
 11
17.3650
 21
33.0200
 31
0.0000
  0
LINE
  8
1
 10
17.3650
 20
33.0200
 30
0.0000
 11
17.7850
 21
33.4400
 31
0.0000
  0
INSERT
  8
18
  2
ROUNDV
 10
10.1600
 20
22.2250
 30
0.0000
 41
0.9048
 42
0.9048
 43
1.0000
 50
0.0000
  0
LINE
  8
1
 10
17.7850
 20
5.7200
 30
0.0000
 11
17.7900
 21
5.7150
 31
0.0000
  0
LINE
  8
1
 10
17.7900
 20
5.7150
 30
0.0000
 11
21.5900
 21
5.7150
 31
0.0000
  0
LINE
  8
1
 10
21.5900
 20
5.7150
 30
0.0000
 11
26.6700
 21
7.6962
 31
0.0000
  0
LINE
  8
1
 10
26.6700
 20
7.6962
 30
0.0000
 11
42.0370
 21
7.6962
 31
0.0000
  0
LINE
  8
1
 10
42.0370
 20
7.6962
 30
0.0000
 11
47.8180
 21
11.8770
 31
0.0000
  0
LINE
  8
1
 10
47.8180
 20
11.8770
 30
0.0000
 11
72.2650
 21
11.7500
 31
0.0000
  0
LINE
  8
1
 10
66.7650
 20
15.2500
 30
0.0000
 11
66.7550
 21
15.2400
 31
0.0000
  0
LINE
  8
1
 10
66.7550
 20
15.2400
 30
0.0000
 11
48.4505
 21
15.2400
 31
0.0000
  0
LINE
  8
1
 10
48.4505
 20
15.2400
 30
0.0000
 11
42.4942
 21
11.6713
 31
0.0000
  0
LINE
  8
1
 10
42.4942
 20
11.6713
 30
0.0000
 11
30.1117
 21
11.6713
 31
0.0000
  0
LINE
  8
1
 10
30.1117
 20
11.6713
 30
0.0000
 11
21.4350
 21
9.6800
 31
0.0000
  0
LINE
  8
1
 10
21.4350
 20
9.6800
 30
0.0000
 11
17.7850
 21
9.6800
 31
0.0000
  0
LINE
  8
1
 10
17.7850
 20
13.6400
 30
0.0000
 11
17.7975
 21
13.6525
 31
0.0000
  0
LINE
  8
1
 10
17.7975
 20
13.6525
 30
0.0000
 11
35.2425
 21
13.6525
 31
0.0000
  0
LINE
  8
1
 10
35.2425
 20
13.6525
 30
0.0000
 11
36.5125
 21
15.6083
 31
0.0000
  0
LINE
  8
1
 10
36.5125
 20
15.6083
 30
0.0000
 11
43.8150
 21
15.6083
 31
0.0000
  0
LINE
  8
1
 10
43.8150
 20
15.6083
 30
0.0000
 11
48.0060
 21
17.4625
 31
0.0000
  0
LINE
  8
1
 10
48.0060
 20
17.4625
 30
0.0000
 11
68.8975
 21
17.4625
 31
0.0000
  0
LINE
  8
1
 10
68.8975
 20
17.4625
 30
0.0000
 11
70.1850
 21
18.7500
 31
0.0000
  0
LINE
  8
1
 10
70.1850
 20
18.7500
 30
0.0000
 11
72.2650
 21
18.7500
 31
0.0000
  0
LINE
  8
1
 10
32.0675
 20
31.4325
 30
0.0000
 11
29.5275
 21
32.3850
 31
0.0000
  0
LINE
  8
1
 10
29.5275
 20
32.3850
 30
0.0000
 11
27.3050
 21
32.3850
 31
0.0000
  0
LINE
  8
1
 10
27.3050
 20
32.3850
 30
0.0000
 11
24.7650
 21
30.7975
 31
0.0000
  0
LINE
  8
1
 10
24.7650
 20
30.7975
 30
0.0000
 11
23.4950
 21
28.8925
 31
0.0000
  0
LINE
  8
1
 10
23.4950
 20
28.8925
 30
0.0000
 11
23.1775
 21
26.9875
 31
0.0000
  0
LINE
  8
1
 10
23.1775
 20
26.9875
 30
0.0000
 11
21.9075
 21
25.4000
 31
0.0000
  0
LINE
  8
1
 10
21.9075
 20
25.4000
 30
0.0000
 11
17.9050
 21
25.4000
 31
0.0000
  0
LINE
  8
1
 10
17.9050
 20
25.4000
 30
0.0000
 11
17.7850
 21
25.5200
 31
0.0000
  0
LINE
  8
1
 10
45.6565
 20
26.2890
 30
0.0000
 11
44.4500
 21
28.5750
 31
0.0000
  0
INSERT
  8
18
  2
ROUNDV
 10
45.6565
 20
26.2890
 30
0.0000
 41
0.9048
 42
0.9048
 43
1.0000
 50
0.0000
  0
INSERT
  8
18
  2
ROUNDV
 10
32.0675
 20
31.4325
 30
0.0000
 41
0.9048
 42
0.9048
 43
1.0000
 50
0.0000
  0
LINE
  8
1
 10
17.7850
 20
45.3200
 30
0.0000
 11
17.8675
 21
45.4025
 31
0.0000
  0
LINE
  8
1
 10
17.8675
 20
45.4025
 30
0.0000
 11
20.9550
 21
45.4025
 31
0.0000
  0
LINE
  8
1
 10
20.9550
 20
45.4025
 30
0.0000
 11
29.2100
 21
53.6575
 31
0.0000
  0
LINE
  8
1
 10
29.2100
 20
53.6575
 30
0.0000
 11
56.1975
 21
53.6575
 31
0.0000
  0
LINE
  8
1
 10
56.1975
 20
53.6575
 30
0.0000
 11
62.8650
 21
48.5775
 31
0.0000
  0
LINE
  8
1
 10
62.8650
 20
48.5775
 30
0.0000
 11
67.9450
 21
48.5775
 31
0.0000
  0
LINE
  8
1
 10
67.9450
 20
48.5775
 30
0.0000
 11
68.8975
 21
49.2125
 31
0.0000
  0
LINE
  8
1
 10
79.0575
 20
46.6725
 30
0.0000
 11
75.5650
 21
49.2125
 31
0.0000
  0
LINE
  8
1
 10
75.5650
 20
49.2125
 30
0.0000
 11
68.8975
 21
49.2125
 31
0.0000
  0
LINE
  8
1
 10
75.8825
 20
51.4350
 30
0.0000
 11
75.5650
 21
51.4350
 31
0.0000
  0
LINE
  8
1
 10
75.5650
 20
51.4350
 30
0.0000
 11
75.5650
 21
49.2125
 31
0.0000
  0
INSERT
  8
18
  2
ROUNDV
 10
79.0575
 20
46.6725
 30
0.0000
 41
0.9048
 42
0.9048
 43
1.0000
 50
0.0000
  0
LINE
  8
1
 10
39.4850
 20
45.3200
 30
0.0000
 11
43.5800
 21
45.3200
 31
0.0000
  0
LINE
  8
1
 10
43.5800
 20
45.3200
 30
0.0000
 11
46.3550
 21
42.5450
 31
0.0000
  0
LINE
  8
1
 10
46.3550
 20
42.5450
 30
0.0000
 11
64.1350
 21
42.5450
 31
0.0000
  0
LINE
  8
1
 10
64.1350
 20
42.5450
 30
0.0000
 11
65.0875
 21
41.2750
 31
0.0000
  0
LINE
  8
1
 10
65.0875
 20
41.2750
 30
0.0000
 11
66.3575
 21
41.2750
 31
0.0000
  0
LINE
  8
1
 10
66.3575
 20
41.2750
 30
0.0000
 11
66.9925
 21
40.6400
 31
0.0000
  0
LINE
  8
1
 10
66.9925
 20
40.6400
 30
0.0000
 11
66.9925
 21
39.3700
 31
0.0000
  0
LINE
  8
1
 10
66.9925
 20
39.3700
 30
0.0000
 11
69.5325
 21
37.1475
 31
0.0000
  0
LINE
  8
1
 10
69.5325
 20
37.1475
 30
0.0000
 11
69.5325
 21
33.0200
 31
0.0000
  0
LINE
  8
1
 10
69.5325
 20
33.0200
 30
0.0000
 11
72.5350
 21
33.0200
 31
0.0000
  0
LINE
  8
1
 10
72.5350
 20
33.0200
 30
0.0000
 11
72.2650
 21
32.7500
 31
0.0000
  0
LINE
  8
1
 10
39.4850
 20
33.4400
 30
0.0000
 11
42.3300
 21
33.4400
 31
0.0000
  0
LINE
  8
1
 10
42.3300
 20
33.4400
 30
0.0000
 11
46.9900
 21
36.8300
 31
0.0000
  0
LINE
  8
1
 10
46.9900
 20
36.8300
 30
0.0000
 11
58.4200
 21
36.8300
 31
0.0000
  0
INSERT
  8
18
  2
ROUNDV
 10
58.4200
 20
36.8300
 30
0.0000
 41
1.1176
 42
1.1176
 43
1.0000
 50
0.0000
  0
LINE
  8
1
 10
39.4850
 20
25.5200
 30
0.0000
 11
41.7125
 21
25.5200
 31
0.0000
  0
LINE
  8
1
 10
41.7125
 20
25.5200
 30
0.0000
 11
42.8625
 21
27.9400
 31
0.0000
  0
LINE
  8
1
 10
42.8625
 20
27.9400
 30
0.0000
 11
42.8625
 21
28.8925
 31
0.0000
  0
LINE
  8
1
 10
42.8625
 20
28.8925
 30
0.0000
 11
43.8150
 21
30.1625
 31
0.0000
  0
LINE
  8
1
 10
43.8150
 20
30.1625
 30
0.0000
 11
45.7550
 21
30.1625
 31
0.0000
  0
LINE
  8
1
 10
45.7550
 20
30.1625
 30
0.0000
 11
48.0950
 21
27.6225
 31
0.0000
  0
LINE
  8
1
 10
48.0950
 20
27.6225
 30
0.0000
 11
51.1175
 21
27.6225
 31
0.0000
  0
LINE
  8
1
 10
51.1175
 20
27.6225
 30
0.0000
 11
52.0700
 21
26.6700
 31
0.0000
  0
LINE
  8
1
 10
52.0700
 20
26.6700
 30
0.0000
 11
54.9275
 21
26.6700
 31
0.0000
  0
LINE
  8
1
 10
54.9275
 20
26.6700
 30
0.0000
 11
56.1975
 21
27.9400
 31
0.0000
  0
LINE
  8
1
 10
56.1975
 20
27.9400
 30
0.0000
 11
56.1975
 21
35.2425
 31
0.0000
  0
INSERT
  8
18
  2
ROUNDV
 10
56.1975
 20
35.2425
 30
0.0000
 41
0.9048
 42
0.9048
 43
1.0000
 50
0.0000
  0
LINE
  8
1
 10
66.7650
 20
43.2500
 30
0.0000
 11
69.7800
 21
38.8050
 31
0.0000
  0
LINE
  8
1
 10
69.7800
 20
38.8050
 30
0.0000
 11
73.0250
 21
35.5600
 31
0.0000
  0
LINE
  8
1
 10
73.0250
 20
35.5600
 30
0.0000
 11
74.9300
 21
33.6550
 31
0.0000
  0
LINE
  8
1
 10
74.9300
 20
33.6550
 30
0.0000
 11
74.9300
 21
24.7650
 31
0.0000
  0
LINE
  8
1
 10
74.9300
 20
24.7650
 30
0.0000
 11
73.6600
 21
23.4950
 31
0.0000
  0
LINE
  8
1
 10
73.6600
 20
23.4950
 30
0.0000
 11
73.6600
 21
21.9075
 31
0.0000
  0
LINE
  8
1
 10
73.6600
 20
21.9075
 30
0.0000
 11
72.3900
 21
20.6375
 31
0.0000
  0
LINE
  8
1
 10
72.3900
 20
20.6375
 30
0.0000
 11
69.5325
 21
20.6375
 31
0.0000
  0
LINE
  8
1
 10
69.5325
 20
20.6375
 30
0.0000
 11
68.5800
 21
19.4310
 31
0.0000
  0
LINE
  8
1
 10
68.5800
 20
19.4310
 30
0.0000
 11
48.2600
 21
19.4310
 31
0.0000
  0
LINE
  8
1
 10
48.2600
 20
19.4310
 30
0.0000
 11
42.8625
 21
17.4625
 31
0.0000
  0
LINE
  8
1
 10
42.8625
 20
17.4625
 30
0.0000
 11
39.6225
 21
17.4625
 31
0.0000
  0
LINE
  8
1
 10
39.6225
 20
17.4625
 30
0.0000
 11
39.4850
 21
17.6000
 31
0.0000
  0
LINE
  8
1
 10
72.3900
 20
34.9250
 30
0.0000
 11
73.0250
 21
35.5600
 31
0.0000
  0
INSERT
  8
18
  2
ROUNDV
 10
72.3900
 20
34.9250
 30
0.0000
 41
0.9048
 42
0.9048
 43
1.0000
 50
0.0000
  0
LINE
  8
1
 10
56.5150
 20
23.3585
 30
0.0000
 11
56.5150
 21
26.3525
 31
0.0000
  0
LINE
  8
1
 10
56.5150
 20
26.3525
 30
0.0000
 11
58.1025
 21
27.9400
 31
0.0000
  0
LINE
  8
1
 10
58.1025
 20
27.9400
 30
0.0000
 11
58.1025
 21
33.9725
 31
0.0000
  0
LINE
  8
1
 10
58.1025
 20
33.9725
 30
0.0000
 11
60.0075
 21
36.1950
 31
0.0000
  0
LINE
  8
1
 10
60.0075
 20
36.1950
 30
0.0000
 11
60.0075
 21
37.4650
 31
0.0000
  0
LINE
  8
1
 10
60.0075
 20
37.4650
 30
0.0000
 11
59.3725
 21
38.1000
 31
0.0000
  0
LINE
  8
1
 10
59.3725
 20
38.1000
 30
0.0000
 11
46.3550
 21
38.1000
 31
0.0000
  0
LINE
  8
1
 10
46.3550
 20
38.1000
 30
0.0000
 11
41.9100
 21
35.4013
 31
0.0000
  0
LINE
  8
1
 10
41.9100
 20
35.4013
 30
0.0000
 11
36.1950
 21
35.4013
 31
0.0000
  0
LINE
  8
1
 10
36.1950
 20
35.4013
 30
0.0000
 11
34.6075
 21
36.5125
 31
0.0000
  0
LINE
  8
1
 10
34.6075
 20
36.5125
 30
0.0000
 11
27.6225
 21
36.5125
 31
0.0000
  0
LINE
  8
1
 10
27.6225
 20
36.5125
 30
0.0000
 11
22.5425
 21
34.2900
 31
0.0000
  0
INSERT
  8
18
  2
ROUNDV
 10
56.5150
 20
23.3585
 30
0.0000
 41
0.9048
 42
0.9048
 43
1.0000
 50
0.0000
  0
INSERT
  8
18
  2
ROUNDV
 10
22.5425
 20
34.2900
 30
0.0000
 41
0.9048
 42
0.9048
 43
1.0000
 50
0.0000
  0
LINE
  8
1
 10
52.7050
 20
31.7500
 30
0.0000
 11
52.8320
 21
33.9725
 31
0.0000
  0
LINE
  8
1
 10
52.8320
 20
33.9725
 30
0.0000
 11
52.2605
 21
34.2900
 31
0.0000
  0
LINE
  8
1
 10
52.2605
 20
34.2900
 30
0.0000
 11
46.6090
 21
34.2900
 31
0.0000
  0
LINE
  8
1
 10
46.6090
 20
34.2900
 30
0.0000
 11
42.5450
 21
31.4325
 31
0.0000
  0
LINE
  8
1
 10
42.5450
 20
31.4325
 30
0.0000
 11
36.5125
 21
31.4325
 31
0.0000
  0
LINE
  8
1
 10
33.3375
 20
34.9250
 30
0.0000
 11
34.6075
 21
33.3375
 31
0.0000
  0
LINE
  8
1
 10
34.6075
 20
33.3375
 30
0.0000
 11
36.5125
 21
31.4325
 31
0.0000
  0
INSERT
  8
18
  2
ROUNDV
 10
33.3375
 20
34.9250
 30
0.0000
 41
0.9048
 42
0.9048
 43
1.0000
 50
0.0000
  0
LINE
  8
1
 10
90.4875
 20
14.2875
 30
0.0000
 11
88.9000
 21
14.2875
 31
0.0000
  0
LINE
  8
1
 10
88.9000
 20
14.2875
 30
0.0000
 11
87.3125
 21
15.5575
 31
0.0000
  0
LINE
  8
1
 10
87.3125
 20
15.5575
 30
0.0000
 11
87.3125
 21
33.6550
 31
0.0000
  0
LINE
  8
1
 10
87.3125
 20
33.6550
 30
0.0000
 11
88.9000
 21
38.7350
 31
0.0000
  0
INSERT
  8
18
  2
ROUNDV
 10
90.4875
 20
14.2875
 30
0.0000
 41
1.1176
 42
1.1176
 43
1.0000
 50
0.0000
  0
INSERT
  8
18
  2
ROUNDV
 10
88.9000
 20
38.7350
 30
0.0000
 41
0.9048
 42
0.9048
 43
1.0000
 50
0.0000
  0
LINE
  8
1
 10
90.8050
 20
49.5300
 30
0.0000
 11
90.8050
 21
39.3700
 31
0.0000
  0
LINE
  8
1
 10
90.8050
 20
39.3700
 30
0.0000
 11
91.4400
 21
38.1000
 31
0.0000
  0
LINE
  8
1
 10
91.4400
 20
38.1000
 30
0.0000
 11
91.4400
 21
36.1950
 31
0.0000
  0
LINE
  8
1
 10
91.4400
 20
36.1950
 30
0.0000
 11
89.8525
 21
31.4325
 31
0.0000
  0
LINE
  8
1
 10
89.8525
 20
31.4325
 30
0.0000
 11
89.8525
 21
24.4475
 31
0.0000
  0
LINE
  8
1
 10
89.8525
 20
24.4475
 30
0.0000
 11
91.4400
 21
23.1775
 31
0.0000
  0
LINE
  8
1
 10
91.4400
 20
23.1775
 30
0.0000
 11
92.7100
 21
23.1775
 31
0.0000
  0
LINE
  8
1
 10
92.7100
 20
23.1775
 30
0.0000
 11
93.3450
 21
22.2250
 31
0.0000
  0
LINE
  8
1
 10
93.3450
 20
22.2250
 30
0.0000
 11
93.3450
 21
20.6375
 31
0.0000
  0
INSERT
  8
18
  2
ROUNDV
 10
90.8050
 20
49.5300
 30
0.0000
 41
0.9048
 42
0.9048
 43
1.0000
 50
0.0000
  0
INSERT
  8
18
  2
ROUNDV
 10
93.3450
 20
20.6375
 30
0.0000
 41
1.1176
 42
1.1176
 43
1.0000
 50
0.0000
  0
LINE
  8
1
 10
52.7050
 20
24.4475
 30
0.0000
 11
44.4500
 21
24.4475
 31
0.0000
  0
LINE
  8
1
 10
44.4500
 20
24.4475
 30
0.0000
 11
43.4975
 21
25.4000
 31
0.0000
  0
INSERT
  8
18
  2
ROUNDV
 10
52.7050
 20
24.4475
 30
0.0000
 41
0.9048
 42
0.9048
 43
1.0000
 50
0.0000
  0
INSERT
  8
18
  2
ROUNDV
 10
43.4975
 20
25.4000
 30
0.0000
 41
0.9048
 42
0.9048
 43
1.0000
 50
0.0000
  0
LINE
  8
1
 10
34.6075
 20
15.7163
 30
0.0000
 11
30.7975
 21
17.7800
 31
0.0000
  0
LINE
  8
1
 10
30.7975
 20
17.7800
 30
0.0000
 11
27.9400
 21
17.7800
 31
0.0000
  0
INSERT
  8
18
  2
ROUNDV
 10
34.6075
 20
15.7163
 30
0.0000
 41
0.9048
 42
0.9048
 43
1.0000
 50
0.0000
  0
INSERT
  8
18
  2
ROUNDV
 10
27.9400
 20
17.7800
 30
0.0000
 41
0.9048
 42
0.9048
 43
1.0000
 50
0.0000
  0
LINE
  8
1
 10
39.4850
 20
37.4000
 30
0.0000
 11
42.2260
 21
37.4000
 31
0.0000
  0
LINE
  8
1
 10
42.2260
 20
37.4000
 30
0.0000
 11
43.1800
 21
37.8460
 31
0.0000
  0
LINE
  8
1
 10
39.4850
 20
41.3600
 30
0.0000
 11
43.1800
 21
40.9575
 31
0.0000
  0
LINE
  8
1
 10
43.1800
 20
40.9575
 30
0.0000
 11
61.5100
 21
40.9575
 31
0.0000
  0
LINE
  8
1
 10
61.5100
 20
40.9575
 30
0.0000
 11
64.7700
 21
39.6875
 31
0.0000
  0
LINE
  8
1
 10
64.7700
 20
39.6875
 30
0.0000
 11
65.4050
 21
39.6875
 31
0.0000
  0
INSERT
  8
18
  2
ROUNDV
 10
65.4050
 20
39.6875
 30
0.0000
 41
0.9048
 42
0.9048
 43
1.0000
 50
0.0000
  0
LINE
  8
1
 10
66.7650
 20
22.2500
 30
0.0000
 11
64.1350
 21
22.2500
 31
0.0000
  0
LINE
  8
1
 10
64.1350
 20
22.2500
 30
0.0000
 11
61.9125
 21
20.7010
 31
0.0000
  0
LINE
  8
1
 10
61.9125
 20
20.7010
 30
0.0000
 11
46.3800
 21
20.7260
 31
0.0000
  0
LINE
  8
1
 10
46.3800
 20
20.7260
 30
0.0000
 11
42.0688
 21
19.5263
 31
0.0000
  0
LINE
  8
1
 10
26.3525
 20
19.3675
 30
0.0000
 11
21.5900
 21
17.4625
 31
0.0000
  0
LINE
  8
1
 10
21.5900
 20
17.4625
 30
0.0000
 11
17.9225
 21
17.4625
 31
0.0000
  0
LINE
  8
1
 10
17.9225
 20
17.4625
 30
0.0000
 11
17.7850
 21
17.6000
 31
0.0000
  0
LINE
  8
1
 10
42.0688
 20
19.5263
 30
0.0000
 11
36.0363
 21
19.5263
 31
0.0000
  0
LINE
  8
1
 10
36.0363
 20
19.5263
 30
0.0000
 11
35.8775
 21
19.3675
 31
0.0000
  0
LINE
  8
1
 10
35.8775
 20
19.3675
 30
0.0000
 11
26.3525
 21
19.3675
 31
0.0000
  0
LINE
  8
1
 10
39.4850
 20
5.7200
 30
0.0000
 11
36.4540
 21
5.7200
 31
0.0000
  0
LINE
  8
1
 10
36.4540
 20
5.7200
 30
0.0000
 11
36.0680
 21
5.8420
 31
0.0000
  0
INSERT
  8
18
  2
ROUNDV
 10
92.7100
 20
30.4800
 30
0.0000
 41
1.1176
 42
1.1176
 43
1.0000
 50
0.0000
  0
LINE
  8
1
 10
92.3925
 20
27.9400
 30
0.0000
 11
91.1225
 21
28.8925
 31
0.0000
  0
LINE
  8
1
 10
91.1225
 20
28.8925
 30
0.0000
 11
91.1225
 21
31.1150
 31
0.0000
  0
LINE
  8
1
 10
91.1225
 20
31.1150
 30
0.0000
 11
92.7100
 21
35.2425
 31
0.0000
  0
LINE
  8
1
 10
92.7100
 20
35.2425
 30
0.0000
 11
92.7100
 21
50.8000
 31
0.0000
  0
INSERT
  8
18
  2
ROUNDV
 10
92.3925
 20
27.9400
 30
0.0000
 41
1.1176
 42
1.1176
 43
1.0000
 50
0.0000
  0
INSERT
  8
18
  2
ROUNDV
 10
92.7100
 20
50.8000
 30
0.0000
 41
0.9048
 42
0.9048
 43
1.0000
 50
0.0000
  0
LINE
  8
1
 10
91.4400
 20
21.5900
 30
0.0000
 11
90.1700
 21
21.5900
 31
0.0000
  0
LINE
  8
1
 10
90.1700
 20
21.5900
 30
0.0000
 11
88.5825
 21
23.1775
 31
0.0000
  0
LINE
  8
1
 10
88.5825
 20
23.1775
 30
0.0000
 11
88.5825
 21
32.3850
 31
0.0000
  0
LINE
  8
1
 10
88.5825
 20
32.3850
 30
0.0000
 11
90.1700
 21
37.4650
 31
0.0000
  0
INSERT
  8
18
  2
ROUNDV
 10
91.4400
 20
21.5900
 30
0.0000
 41
1.1176
 42
1.1176
 43
1.0000
 50
0.0000
  0
INSERT
  8
18
  2
ROUNDV
 10
90.1700
 20
37.4650
 30
0.0000
 41
0.9048
 42
0.9048
 43
1.0000
 50
0.0000
  0
LINE
  8
1
 10
88.2650
 20
8.8900
 30
0.0000
 11
92.0750
 21
8.8900
 31
0.0000
  0
LINE
  8
1
 10
92.0750
 20
8.8900
 30
0.0000
 11
92.3290
 21
9.8450
 31
0.0000
  0
LINE
  8
1
 10
17.7850
 20
49.2800
 30
0.0000
 11
13.9700
 21
49.2125
 31
0.0000
  0
LINE
  8
1
 10
13.9700
 20
49.2125
 30
0.0000
 11
11.7475
 21
47.6250
 31
0.0000
  0
LINE
  8
1
 10
11.7475
 20
47.6250
 30
0.0000
 11
11.7475
 21
35.5600
 31
0.0000
  0
LINE
  8
1
 10
11.7475
 20
35.5600
 30
0.0000
 11
7.3025
 21
31.1150
 31
0.0000
  0
LINE
  8
1
 10
7.3025
 20
31.1150
 30
0.0000
 11
7.3025
 21
11.5060
 31
0.0000
  0
ARC
  8
1
 10
3.2864
 20
11.5060
 30
0.0000
 40
4.0161
 50
315.0000
 51
360.0000
  0
LINE
  8
1
 10
6.1262
 20
8.6662
 30
0.0000
 11
5.1026
 21
7.6426
 31
0.0000
  0
ARC
  8
1
 10
6.6901
 20
6.0551
 30
0.0000
 40
2.2451
 50
135.0000
 51
180.0000
  0
LINE
  8
1
 10
4.4450
 20
6.0551
 30
0.0000
 11
4.4450
 21
5.0263
 31
0.0000
  0
ARC
  8
1
 10
6.2963
 20
5.0263
 30
0.0000
 40
1.8513
 50
180.0000
 51
270.0000
  0
LINE
  8
1
 10
6.2963
 20
3.1750
 30
0.0000
 11
8.2550
 21
3.1750
 31
0.0000
  0
LINE
  8
1
 10
14.9225
 20
1.9050
 30
0.0000
 11
42.8625
 21
1.9050
 31
0.0000
  0
LINE
  8
1
 10
42.8625
 20
1.9050
 30
0.0000
 11
48.3870
 21
6.9215
 31
0.0000
  0
LINE
  8
1
 10
48.3870
 20
6.9215
 30
0.0000
 11
64.0080
 21
6.9215
 31
0.0000
  0
LINE
  8
1
 10
64.0080
 20
6.9215
 30
0.0000
 11
64.8335
 21
6.0325
 31
0.0000
  0
LINE
  8
1
 10
64.8335
 20
6.0325
 30
0.0000
 11
72.1625
 21
6.0325
 31
0.0000
  0
LINE
  8
1
 10
72.1625
 20
6.0325
 30
0.0000
 11
77.5600
 21
8.2500
 31
0.0000
  0
INSERT
  8
18
  2
ROUNDV
 10
14.9225
 20
1.9050
 30
0.0000
 41
0.9048
 42
0.9048
 43
1.0000
 50
0.0000
  0
INSERT
  8
18
  2
ROUNDV
 10
8.2550
 20
3.1750
 30
0.0000
 41
0.9048
 42
0.9048
 43
1.0000
 50
0.0000
  0
ENDSEC
  0
EOF
