  0
SECTION
  2
HEADER
  9
$ACADVER
  1
AC1009
  9
$FILLMODE
 70
0
  9
$EXTMIN
 10
-0.4572
 20
-0.3302
 30
0.0000
  9
$EXTMAX
 10
129.8450
 20
55.3720
 30
0.0000
  0
ENDSEC
  0
SECTION
  2
TABLES
  0
TABLE
  2
LTYPE
 70
1
  0
LTYPE
  2
CONTINUOUS
 70
64
  3
Solid line
 72
65
 73
0
 40
0
  0
ENDTAB
  0
TABLE
  2
LAYER
 70
255
  0
LAYER
  2
16
 70
64
 62
174
  6
CONTINUOUS
  0
LAYER
  2
17
 70
64
 62
94
  6
CONTINUOUS
  0
LAYER
  2
18
 70
64
 62
94
  6
CONTINUOUS
  0
LAYER
  2
20
 70
64
 62
178
  6
CONTINUOUS
  0
ENDTAB
  0
ENDSEC
  0
SECTION
  2
BLOCKS
  0
BLOCK
  8
0
  2
RECT
 70
64
 10
0.0000
 20
0.0000
 30
0.0000
  3
RECT
  0
SOLID
  8
0
 10
-0.5000
 20
-0.5000
 30
0.0000
 11
0.5000
 21
-0.5000
 31
0.0000
 12
-0.5000
 22
0.5000
 32
0.0000
 13
0.5000
 23
0.5000
 33
0.0000
  0
ENDBLK
  8
0
  0
BLOCK
  8
0
  2
PIE
 70
64
 10
0.0000
 20
0.0000
 30
0.0000
  3
PIE
  0
CIRCLE
  8
0
 10
0.0000
 20
0.0000
 30
0.0000
 40
0.5000
  0
ENDBLK
  8
0
  0
BLOCK
  8
0
  2
OCTAGONP
 70
64
 10
0.0000
 20
0.0000
 30
0.0000
  3
OCTAGONP
  0
POLYLINE
  8
0
 66
1
 10
0.0000
 20
0.0000
 30
0.0000
 40
0.0000
 41
0.0000
 70
1
  0
VERTEX
  8
0
 10
-0.5000
 20
-0.2071
 30
0.0000
  0
VERTEX
  8
0
 10
-0.5000
 20
0.2071
 30
0.0000
  0
VERTEX
  8
0
 10
-0.2071
 20
0.5000
 30
0.0000
  0
VERTEX
  8
0
 10
0.2071
 20
0.5000
 30
0.0000
  0
VERTEX
  8
0
 10
0.5000
 20
0.2071
 30
0.0000
  0
VERTEX
  8
0
 10
0.5000
 20
-0.2071
 30
0.0000
  0
VERTEX
  8
0
 10
0.2071
 20
-0.5000
 30
0.0000
  0
VERTEX
  8
0
 10
-0.2071
 20
-0.5000
 30
0.0000
  0
SEQEND
  8
0
  0
ENDBLK
  8
0
  0
BLOCK
  8
0
  2
SQUAREP
 70
64
 10
0.0000
 20
0.0000
 30
0.0000
  3
SQUAREP
  0
SOLID
  8
0
 10
-0.5000
 20
-0.5000
 30
0.0000
 11
0.5000
 21
-0.5000
 31
0.0000
 12
-0.5000
 22
0.5000
 32
0.0000
 13
0.5000
 23
0.5000
 33
0.0000
  0
ENDBLK
  8
0
  0
BLOCK
  8
0
  2
ROUNDP
 70
64
 10
0.0000
 20
0.0000
 30
0.0000
  3
ROUNDP
  0
CIRCLE
  8
0
 10
0.0000
 20
0.0000
 30
0.0000
 40
0.5000
  0
ENDBLK
  8
0
  0
BLOCK
  8
0
  2
ANNULUSP
 70
64
 10
0.0000
 20
0.0000
 30
0.0000
  3
ANNULUSP
  0
CIRCLE
  8
0
 10
0.0000
 20
0.0000
 30
0.0000
 40
0.5000
  0
ENDBLK
  8
0
  0
BLOCK
  8
0
  2
THERMALP
 70
64
 10
0.0000
 20
0.0000
 30
0.0000
  3
THERMALP
  0
LINE
  8
0
 10
-0.2379
 20
0.4500
 30
0.0000
 11
0.2379
 21
0.4500
 31
0.0000
  0
LINE
  8
0
 10
0.4500
 20
0.2379
 30
0.0000
 11
0.4500
 21
-0.2379
 31
0.0000
  0
LINE
  8
0
 10
0.2379
 20
-0.4500
 30
0.0000
 11
-0.2379
 21
-0.4500
 31
0.0000
  0
LINE
  8
0
 10
-0.4500
 20
-0.2379
 30
0.0000
 11
-0.4500
 21
0.2379
 31
0.0000
  0
ENDBLK
  8
0
  0
BLOCK
  8
0
  2
OCTAGONV
 70
64
 10
0.0000
 20
0.0000
 30
0.0000
  3
OCTAGONV
  0
POLYLINE
  8
0
 66
1
 10
0.0000
 20
0.0000
 30
0.0000
 40
0.0000
 41
0.0000
 70
1
  0
VERTEX
  8
0
 10
-0.5000
 20
-0.2071
 30
0.0000
  0
VERTEX
  8
0
 10
-0.5000
 20
0.2071
 30
0.0000
  0
VERTEX
  8
0
 10
-0.2071
 20
0.5000
 30
0.0000
  0
VERTEX
  8
0
 10
0.2071
 20
0.5000
 30
0.0000
  0
VERTEX
  8
0
 10
0.5000
 20
0.2071
 30
0.0000
  0
VERTEX
  8
0
 10
0.5000
 20
-0.2071
 30
0.0000
  0
VERTEX
  8
0
 10
0.2071
 20
-0.5000
 30
0.0000
  0
VERTEX
  8
0
 10
-0.2071
 20
-0.5000
 30
0.0000
  0
SEQEND
  8
0
  0
ENDBLK
  8
0
  0
BLOCK
  8
0
  2
SQUAREV
 70
64
 10
0.0000
 20
0.0000
 30
0.0000
  3
SQUAREV
  0
SOLID
  8
0
 10
-0.5000
 20
-0.5000
 30
0.0000
 11
0.5000
 21
-0.5000
 31
0.0000
 12
-0.5000
 22
0.5000
 32
0.0000
 13
0.5000
 23
0.5000
 33
0.0000
  0
ENDBLK
  8
0
  0
BLOCK
  8
0
  2
ROUNDV
 70
64
 10
0.0000
 20
0.0000
 30
0.0000
  3
ROUNDV
  0
CIRCLE
  8
0
 10
0.0000
 20
0.0000
 30
0.0000
 40
0.5000
  0
ENDBLK
  8
0
  0
BLOCK
  8
0
  2
ANNULUSV
 70
64
 10
0.0000
 20
0.0000
 30
0.0000
  3
ANNULUSV
  0
CIRCLE
  8
0
 10
0.0000
 20
0.0000
 30
0.0000
 40
0.5000
  0
ENDBLK
  8
0
  0
BLOCK
  8
0
  2
THERMALV
 70
64
 10
0.0000
 20
0.0000
 30
0.0000
  3
THERMALV
  0
LINE
  8
0
 10
-0.2379
 20
0.4500
 30
0.0000
 11
0.2379
 21
0.4500
 31
0.0000
  0
LINE
  8
0
 10
0.4500
 20
0.2379
 30
0.0000
 11
0.4500
 21
-0.2379
 31
0.0000
  0
LINE
  8
0
 10
0.2379
 20
-0.4500
 30
0.0000
 11
-0.2379
 21
-0.4500
 31
0.0000
  0
LINE
  8
0
 10
-0.4500
 20
-0.2379
 30
0.0000
 11
-0.4500
 21
0.2379
 31
0.0000
  0
ENDBLK
  8
0
  0
BLOCK
  8
0
  2
LONGP100
 70
64
 10
0.0000
 20
0.0000
 30
0.0000
  3
LONGP100
  0
POLYLINE
  8
0
 66
1
 10
0.0000
 20
0.0000
 30
0.0000
 40
0.0000
 41
0.0000
 70
1
  0
VERTEX
  8
0
 10
-0.5000
 20
-0.5000
 30
0.0000
  0
VERTEX
  8
0
 10
0.5000
 20
-0.5000
 30
0.0000
 42
1.0000
  0
VERTEX
  8
0
 10
0.5000
 20
0.5000
 30
0.0000
  0
VERTEX
  8
0
 10
-0.5000
 20
0.5000
 30
0.0000
 42
1.0000
  0
SEQEND
  8
0
  0
ENDBLK
  8
0
  0
BLOCK
  8
0
  2
RECT240000X240000R100
 70
64
 10
0.0000
 20
0.0000
 30
0.0000
  3
RECT240000X240000R100
  0
POLYLINE
  8
0
 66
1
 10
0.0000
 20
0.0000
 30
0.0000
 40
0.0000
 41
0.0000
 70
1
  0
VERTEX
  8
0
 10
0.7500
 20
0.0000
 30
0.0000
  0
VERTEX
  8
0
 10
0.7500
 20
0.0000
 30
0.0000
 42
0.4142
  0
VERTEX
  8
0
 10
0.0000
 20
0.7500
 30
0.0000
  0
VERTEX
  8
0
 10
0.0000
 20
0.7500
 30
0.0000
 42
0.4142
  0
VERTEX
  8
0
 10
-0.7500
 20
0.0000
 30
0.0000
  0
VERTEX
  8
0
 10
-0.7500
 20
0.0000
 30
0.0000
 42
0.4142
  0
VERTEX
  8
0
 10
0.0000
 20
-0.7500
 30
0.0000
  0
VERTEX
  8
0
 10
0.0000
 20
-0.7500
 30
0.0000
 42
0.4142
  0
SEQEND
  8
0
  0
ENDBLK
  8
0
  0
ENDSEC
  0
SECTION
  2
ENTITIES
  0
LINE
  8
20
 10
0.0000
 20
0.0000
 30
0.0000
 11
96.0000
 21
0.0000
 31
0.0000
  0
LINE
  8
20
 10
96.0000
 20
55.0000
 30
0.0000
 11
0.0000
 21
55.0000
 31
0.0000
  0
LINE
  8
20
 10
0.0000
 20
55.0000
 30
0.0000
 11
0.0000
 21
0.0000
 31
0.0000
  0
LINE
  8
20
 10
96.0000
 20
0.0000
 30
0.0000
 11
96.0000
 21
55.0000
 31
0.0000
  0
CIRCLE
  8
20
 10
28.6350
 20
27.5000
 30
0.0000
 40
2.9000
  0
CIRCLE
  8
20
 10
11.5000
 20
52.5000
 30
0.0000
 40
1.0922
  0
CIRCLE
  8
20
 10
62.5000
 20
52.5000
 30
0.0000
 40
1.0922
  0
CIRCLE
  8
20
 10
11.5000
 20
2.5000
 30
0.0000
 40
1.0922
  0
CIRCLE
  8
20
 10
62.5000
 20
2.5000
 30
0.0000
 40
1.0922
  0
CIRCLE
  8
20
 10
0.9525
 20
50.3555
 30
0.0000
 40
0.5080
  0
CIRCLE
  8
20
 10
2.2860
 20
50.6730
 30
0.0000
 40
0.5080
  0
CIRCLE
  8
20
 10
3.5560
 20
50.9270
 30
0.0000
 40
0.5080
  0
CIRCLE
  8
20
 10
4.5720
 20
51.6890
 30
0.0000
 40
0.5080
  0
CIRCLE
  8
20
 10
5.2070
 20
54.1020
 30
0.0000
 40
0.5080
  0
CIRCLE
  8
20
 10
95.1865
 20
5.2070
 30
0.0000
 40
0.5080
  0
CIRCLE
  8
20
 10
93.9165
 20
5.1435
 30
0.0000
 40
0.5080
  0
CIRCLE
  8
20
 10
92.7735
 20
4.8260
 30
0.0000
 40
0.5080
  0
CIRCLE
  8
20
 10
91.0590
 20
3.1115
 30
0.0000
 40
0.5080
  0
CIRCLE
  8
20
 10
90.7415
 20
1.9685
 30
0.0000
 40
0.5080
  0
CIRCLE
  8
20
 10
90.8685
 20
0.6985
 30
0.0000
 40
0.5080
  0
CIRCLE
  8
20
 10
90.3000
 20
52.5000
 30
0.0000
 40
1.0922
  0
CIRCLE
  8
20
 10
94.5000
 20
7.1000
 30
0.0000
 40
1.0922
  0
CIRCLE
  8
20
 10
91.5670
 20
4.2545
 30
0.0000
 40
0.5080
  0
CIRCLE
  8
20
 10
5.0800
 20
52.8320
 30
0.0000
 40
0.5080
  0
INSERT
  8
17
  2
LONGP100
 10
77.5600
 20
8.2500
 30
0.0000
 41
1.5240
 42
1.5240
 43
1.0000
 50
180.0000
  0
INSERT
  8
17
  2
LONGP100
 10
83.0600
 20
11.7500
 30
0.0000
 41
1.5240
 42
1.5240
 43
1.0000
 50
180.0000
  0
INSERT
  8
17
  2
LONGP100
 10
77.5600
 20
15.2500
 30
0.0000
 41
1.5240
 42
1.5240
 43
1.0000
 50
180.0000
  0
INSERT
  8
17
  2
LONGP100
 10
83.0600
 20
18.7500
 30
0.0000
 41
1.5240
 42
1.5240
 43
1.0000
 50
180.0000
  0
INSERT
  8
17
  2
LONGP100
 10
77.5600
 20
22.2500
 30
0.0000
 41
1.5240
 42
1.5240
 43
1.0000
 50
180.0000
  0
INSERT
  8
17
  2
LONGP100
 10
83.0600
 20
25.7500
 30
0.0000
 41
1.5240
 42
1.5240
 43
1.0000
 50
180.0000
  0
INSERT
  8
17
  2
LONGP100
 10
77.5600
 20
29.2500
 30
0.0000
 41
1.5240
 42
1.5240
 43
1.0000
 50
180.0000
  0
INSERT
  8
17
  2
LONGP100
 10
83.0600
 20
32.7500
 30
0.0000
 41
1.5240
 42
1.5240
 43
1.0000
 50
180.0000
  0
INSERT
  8
17
  2
LONGP100
 10
77.5600
 20
36.2500
 30
0.0000
 41
1.5240
 42
1.5240
 43
1.0000
 50
180.0000
  0
INSERT
  8
17
  2
LONGP100
 10
83.0600
 20
39.7500
 30
0.0000
 41
1.5240
 42
1.5240
 43
1.0000
 50
180.0000
  0
INSERT
  8
17
  2
LONGP100
 10
77.5600
 20
43.2500
 30
0.0000
 41
1.5240
 42
1.5240
 43
1.0000
 50
180.0000
  0
INSERT
  8
17
  2
LONGP100
 10
83.0600
 20
46.7500
 30
0.0000
 41
1.5240
 42
1.5240
 43
1.0000
 50
180.0000
  0
INSERT
  8
17
  2
LONGP100
 10
66.7650
 20
8.2500
 30
0.0000
 41
1.5240
 42
1.5240
 43
1.0000
 50
180.0000
  0
INSERT
  8
17
  2
LONGP100
 10
72.2650
 20
11.7500
 30
0.0000
 41
1.5240
 42
1.5240
 43
1.0000
 50
180.0000
  0
INSERT
  8
17
  2
LONGP100
 10
66.7650
 20
15.2500
 30
0.0000
 41
1.5240
 42
1.5240
 43
1.0000
 50
180.0000
  0
INSERT
  8
17
  2
LONGP100
 10
72.2650
 20
18.7500
 30
0.0000
 41
1.5240
 42
1.5240
 43
1.0000
 50
180.0000
  0
INSERT
  8
17
  2
LONGP100
 10
66.7650
 20
22.2500
 30
0.0000
 41
1.5240
 42
1.5240
 43
1.0000
 50
180.0000
  0
INSERT
  8
17
  2
LONGP100
 10
72.2650
 20
25.7500
 30
0.0000
 41
1.5240
 42
1.5240
 43
1.0000
 50
180.0000
  0
INSERT
  8
17
  2
LONGP100
 10
66.7650
 20
29.2500
 30
0.0000
 41
1.5240
 42
1.5240
 43
1.0000
 50
180.0000
  0
INSERT
  8
17
  2
LONGP100
 10
72.2650
 20
32.7500
 30
0.0000
 41
1.5240
 42
1.5240
 43
1.0000
 50
180.0000
  0
INSERT
  8
17
  2
LONGP100
 10
66.7650
 20
36.2500
 30
0.0000
 41
1.5240
 42
1.5240
 43
1.0000
 50
180.0000
  0
INSERT
  8
17
  2
LONGP100
 10
72.2650
 20
39.7500
 30
0.0000
 41
1.5240
 42
1.5240
 43
1.0000
 50
180.0000
  0
INSERT
  8
17
  2
LONGP100
 10
66.7650
 20
43.2500
 30
0.0000
 41
1.5240
 42
1.5240
 43
1.0000
 50
180.0000
  0
INSERT
  8
17
  2
LONGP100
 10
72.2650
 20
46.7500
 30
0.0000
 41
1.5240
 42
1.5240
 43
1.0000
 50
180.0000
  0
INSERT
  8
16
  2
RECT
 10
26.1650
 20
5.7150
 30
0.0000
 41
1.6000
 42
1.8000
 43
1.0000
 50
180.0000
  0
INSERT
  8
16
  2
RECT
 10
23.3650
 20
5.7150
 30
0.0000
 41
1.6000
 42
1.8000
 43
1.0000
 50
180.0000
  0
INSERT
  8
16
  2
RECT
 10
28.3845
 20
5.4450
 30
0.0000
 41
1.3000
 42
1.6000
 43
1.0000
 50
270.0000
  0
INSERT
  8
16
  2
RECT
 10
28.3845
 20
3.4450
 30
0.0000
 41
1.3000
 42
1.6000
 43
1.0000
 50
270.0000
  0
INSERT
  8
16
  2
RECT
 10
44.7675
 20
11.9775
 30
0.0000
 41
1.5000
 42
2.0000
 43
1.0000
 50
270.0000
  0
INSERT
  8
16
  2
RECT
 10
44.7675
 20
8.9775
 30
0.0000
 41
1.5000
 42
2.0000
 43
1.0000
 50
270.0000
  0
INSERT
  8
16
  2
RECT
 10
48.5775
 20
11.9775
 30
0.0000
 41
1.5000
 42
2.0000
 43
1.0000
 50
270.0000
  0
INSERT
  8
16
  2
RECT
 10
48.5775
 20
8.9775
 30
0.0000
 41
1.5000
 42
2.0000
 43
1.0000
 50
270.0000
  0
INSERT
  8
16
  2
RECT
 10
57.7850
 20
26.4400
 30
0.0000
 41
1.5000
 42
2.0000
 43
1.0000
 50
90.0000
  0
INSERT
  8
16
  2
RECT
 10
57.7850
 20
29.4400
 30
0.0000
 41
1.5000
 42
2.0000
 43
1.0000
 50
90.0000
  0
INSERT
  8
16
  2
RECT
 10
48.2600
 20
22.1220
 30
0.0000
 41
1.5000
 42
2.0000
 43
1.0000
 50
90.0000
  0
INSERT
  8
16
  2
RECT
 10
48.2600
 20
25.1220
 30
0.0000
 41
1.5000
 42
2.0000
 43
1.0000
 50
90.0000
  0
INSERT
  8
16
  2
RECT
 10
58.2750
 20
39.3700
 30
0.0000
 41
1.8000
 42
1.7000
 43
1.0000
 50
0.0000
  0
INSERT
  8
16
  2
RECT
 10
62.3750
 20
39.3700
 30
0.0000
 41
1.8000
 42
1.7000
 43
1.0000
 50
0.0000
  0
INSERT
  8
16
  2
RECT
 10
58.2750
 20
42.5450
 30
0.0000
 41
1.8000
 42
1.7000
 43
1.0000
 50
0.0000
  0
INSERT
  8
16
  2
RECT
 10
62.3750
 20
42.5450
 30
0.0000
 41
1.8000
 42
1.7000
 43
1.0000
 50
0.0000
  0
INSERT
  8
16
  2
RECT
 10
6.2050
 20
17.1450
 30
0.0000
 41
1.8000
 42
1.7000
 43
1.0000
 50
0.0000
  0
INSERT
  8
16
  2
RECT
 10
10.3050
 20
17.1450
 30
0.0000
 41
1.8000
 42
1.7000
 43
1.0000
 50
0.0000
  0
INSERT
  8
16
  2
RECT
 10
6.2050
 20
13.9700
 30
0.0000
 41
1.8000
 42
1.7000
 43
1.0000
 50
0.0000
  0
INSERT
  8
16
  2
RECT
 10
10.3050
 20
13.9700
 30
0.0000
 41
1.8000
 42
1.7000
 43
1.0000
 50
0.0000
  0
INSERT
  8
16
  2
RECT
 10
6.2050
 20
10.7950
 30
0.0000
 41
1.8000
 42
1.7000
 43
1.0000
 50
0.0000
  0
INSERT
  8
16
  2
RECT
 10
10.3050
 20
10.7950
 30
0.0000
 41
1.8000
 42
1.7000
 43
1.0000
 50
0.0000
  0
INSERT
  8
16
  2
RECT
 10
6.2050
 20
7.6200
 30
0.0000
 41
1.8000
 42
1.7000
 43
1.0000
 50
0.0000
  0
INSERT
  8
16
  2
RECT
 10
10.3050
 20
7.6200
 30
0.0000
 41
1.8000
 42
1.7000
 43
1.0000
 50
0.0000
  0
INSERT
  8
16
  2
RECT
 10
58.2750
 20
33.0200
 30
0.0000
 41
1.8000
 42
1.7000
 43
1.0000
 50
0.0000
  0
INSERT
  8
16
  2
RECT
 10
62.3750
 20
33.0200
 30
0.0000
 41
1.8000
 42
1.7000
 43
1.0000
 50
0.0000
  0
INSERT
  8
16
  2
RECT
 10
6.2050
 20
20.3200
 30
0.0000
 41
1.8000
 42
1.7000
 43
1.0000
 50
0.0000
  0
INSERT
  8
16
  2
RECT
 10
10.3050
 20
20.3200
 30
0.0000
 41
1.8000
 42
1.7000
 43
1.0000
 50
0.0000
  0
INSERT
  8
17
  2
OCTAGONP
 10
60.3250
 20
27.9400
 30
0.0000
 41
1.2192
 42
1.2192
 43
1.0000
 50
90.0000
  0
INSERT
  8
17
  2
OCTAGONP
 10
62.2300
 20
29.2100
 30
0.0000
 41
1.2192
 42
1.2192
 43
1.0000
 50
90.0000
  0
INSERT
  8
17
  2
OCTAGONP
 10
62.2300
 20
26.6700
 30
0.0000
 41
1.2192
 42
1.2192
 43
1.0000
 50
90.0000
  0
INSERT
  8
16
  2
RECT
 10
29.2100
 20
10.1000
 30
0.0000
 41
0.6000
 42
2.2000
 43
1.0000
 50
180.0000
  0
INSERT
  8
16
  2
RECT
 10
27.9400
 20
10.1000
 30
0.0000
 41
0.6000
 42
2.2000
 43
1.0000
 50
180.0000
  0
INSERT
  8
16
  2
RECT
 10
26.6700
 20
10.1000
 30
0.0000
 41
0.6000
 42
2.2000
 43
1.0000
 50
180.0000
  0
INSERT
  8
16
  2
RECT
 10
25.4000
 20
10.1000
 30
0.0000
 41
0.6000
 42
2.2000
 43
1.0000
 50
180.0000
  0
INSERT
  8
16
  2
RECT
 10
25.4000
 20
15.3000
 30
0.0000
 41
0.6000
 42
2.2000
 43
1.0000
 50
180.0000
  0
INSERT
  8
16
  2
RECT
 10
26.6700
 20
15.3000
 30
0.0000
 41
0.6000
 42
2.2000
 43
1.0000
 50
180.0000
  0
INSERT
  8
16
  2
RECT
 10
27.9400
 20
15.3000
 30
0.0000
 41
0.6000
 42
2.2000
 43
1.0000
 50
180.0000
  0
INSERT
  8
16
  2
RECT
 10
29.2100
 20
15.3000
 30
0.0000
 41
0.6000
 42
2.2000
 43
1.0000
 50
180.0000
  0
INSERT
  8
16
  2
RECT
 10
93.2434
 20
48.8950
 30
0.0000
 41
0.6604
 42
2.0320
 43
1.0000
 50
270.0000
  0
INSERT
  8
16
  2
RECT
 10
93.2434
 20
47.6250
 30
0.0000
 41
0.6604
 42
2.0320
 43
1.0000
 50
270.0000
  0
INSERT
  8
16
  2
RECT
 10
93.2434
 20
46.3550
 30
0.0000
 41
0.6604
 42
2.0320
 43
1.0000
 50
270.0000
  0
INSERT
  8
16
  2
RECT
 10
93.2434
 20
45.0850
 30
0.0000
 41
0.6604
 42
2.0320
 43
1.0000
 50
270.0000
  0
INSERT
  8
16
  2
RECT
 10
93.2434
 20
43.8150
 30
0.0000
 41
0.6604
 42
2.0320
 43
1.0000
 50
270.0000
  0
INSERT
  8
16
  2
RECT
 10
93.2434
 20
42.5450
 30
0.0000
 41
0.6604
 42
2.0320
 43
1.0000
 50
270.0000
  0
INSERT
  8
16
  2
RECT
 10
93.2434
 20
41.2750
 30
0.0000
 41
0.6604
 42
2.0320
 43
1.0000
 50
270.0000
  0
INSERT
  8
16
  2
RECT
 10
93.2434
 20
40.0050
 30
0.0000
 41
0.6604
 42
2.0320
 43
1.0000
 50
270.0000
  0
INSERT
  8
16
  2
RECT
 10
87.0966
 20
40.0050
 30
0.0000
 41
0.6604
 42
2.0320
 43
1.0000
 50
270.0000
  0
INSERT
  8
16
  2
RECT
 10
87.0966
 20
41.2750
 30
0.0000
 41
0.6604
 42
2.0320
 43
1.0000
 50
270.0000
  0
INSERT
  8
16
  2
RECT
 10
87.0966
 20
42.5450
 30
0.0000
 41
0.6604
 42
2.0320
 43
1.0000
 50
270.0000
  0
INSERT
  8
16
  2
RECT
 10
87.0966
 20
43.8150
 30
0.0000
 41
0.6604
 42
2.0320
 43
1.0000
 50
270.0000
  0
INSERT
  8
16
  2
RECT
 10
87.0966
 20
45.0850
 30
0.0000
 41
0.6604
 42
2.0320
 43
1.0000
 50
270.0000
  0
INSERT
  8
16
  2
RECT
 10
87.0966
 20
46.3550
 30
0.0000
 41
0.6604
 42
2.0320
 43
1.0000
 50
270.0000
  0
INSERT
  8
16
  2
RECT
 10
87.0966
 20
47.6250
 30
0.0000
 41
0.6604
 42
2.0320
 43
1.0000
 50
270.0000
  0
INSERT
  8
16
  2
RECT
 10
87.0966
 20
48.8950
 30
0.0000
 41
0.6604
 42
2.0320
 43
1.0000
 50
270.0000
  0
CIRCLE
  8
20
 10
50.1650
 20
48.2360
 30
0.0000
 40
1.6510
  0
INSERT
  8
17
  2
LONGP100
 10
47.6250
 20
31.7500
 30
0.0000
 41
1.5240
 42
1.5240
 43
1.0000
 50
90.0000
  0
INSERT
  8
17
  2
LONGP100
 10
50.1650
 20
31.7500
 30
0.0000
 41
1.5240
 42
1.5240
 43
1.0000
 50
90.0000
  0
INSERT
  8
17
  2
LONGP100
 10
52.7050
 20
31.7500
 30
0.0000
 41
1.5240
 42
1.5240
 43
1.0000
 50
90.0000
  0
INSERT
  8
16
  2
RECT
 10
55.8800
 20
13.2750
 30
0.0000
 41
0.6000
 42
2.2000
 43
1.0000
 50
180.0000
  0
INSERT
  8
16
  2
RECT
 10
54.6100
 20
13.2750
 30
0.0000
 41
0.6000
 42
2.2000
 43
1.0000
 50
180.0000
  0
INSERT
  8
16
  2
RECT
 10
53.3400
 20
13.2750
 30
0.0000
 41
0.6000
 42
2.2000
 43
1.0000
 50
180.0000
  0
INSERT
  8
16
  2
RECT
 10
52.0700
 20
13.2750
 30
0.0000
 41
0.6000
 42
2.2000
 43
1.0000
 50
180.0000
  0
INSERT
  8
16
  2
RECT
 10
52.0700
 20
18.4750
 30
0.0000
 41
0.6000
 42
2.2000
 43
1.0000
 50
180.0000
  0
INSERT
  8
16
  2
RECT
 10
53.3400
 20
18.4750
 30
0.0000
 41
0.6000
 42
2.2000
 43
1.0000
 50
180.0000
  0
INSERT
  8
16
  2
RECT
 10
54.6100
 20
18.4750
 30
0.0000
 41
0.6000
 42
2.2000
 43
1.0000
 50
180.0000
  0
INSERT
  8
16
  2
RECT
 10
55.8800
 20
18.4750
 30
0.0000
 41
0.6000
 42
2.2000
 43
1.0000
 50
180.0000
  0
INSERT
  8
16
  2
RECT
 10
31.3080
 20
5.7150
 30
0.0000
 41
1.3000
 42
1.5000
 43
1.0000
 50
0.0000
  0
INSERT
  8
16
  2
RECT
 10
33.2080
 20
5.7150
 30
0.0000
 41
1.3000
 42
1.5000
 43
1.0000
 50
0.0000
  0
INSERT
  8
16
  2
RECT
 10
22.8600
 20
10.1625
 30
0.0000
 41
1.3000
 42
1.5000
 43
1.0000
 50
90.0000
  0
INSERT
  8
16
  2
RECT
 10
22.8600
 20
12.0625
 30
0.0000
 41
1.3000
 42
1.5000
 43
1.0000
 50
90.0000
  0
INSERT
  8
16
  2
RECT
 10
33.9700
 20
9.2075
 30
0.0000
 41
1.3000
 42
1.5000
 43
1.0000
 50
180.0000
  0
INSERT
  8
16
  2
RECT
 10
32.0700
 20
9.2075
 30
0.0000
 41
1.3000
 42
1.5000
 43
1.0000
 50
180.0000
  0
INSERT
  8
16
  2
RECT
 10
33.9700
 20
13.0175
 30
0.0000
 41
1.3000
 42
1.5000
 43
1.0000
 50
180.0000
  0
INSERT
  8
16
  2
RECT
 10
32.0700
 20
13.0175
 30
0.0000
 41
1.3000
 42
1.5000
 43
1.0000
 50
180.0000
  0
INSERT
  8
16
  2
RECT
 10
45.6565
 20
22.5450
 30
0.0000
 41
1.3000
 42
1.5000
 43
1.0000
 50
90.0000
  0
INSERT
  8
16
  2
RECT
 10
45.6565
 20
24.4450
 30
0.0000
 41
1.3000
 42
1.5000
 43
1.0000
 50
90.0000
  0
INSERT
  8
16
  2
RECT
 10
58.4200
 20
23.4925
 30
0.0000
 41
1.3000
 42
1.5000
 43
1.0000
 50
270.0000
  0
INSERT
  8
16
  2
RECT
 10
58.4200
 20
21.5925
 30
0.0000
 41
1.3000
 42
1.5000
 43
1.0000
 50
270.0000
  0
INSERT
  8
16
  2
RECT
 10
54.6100
 20
22.5450
 30
0.0000
 41
1.3000
 42
1.5000
 43
1.0000
 50
90.0000
  0
INSERT
  8
16
  2
RECT
 10
54.6100
 20
24.4450
 30
0.0000
 41
1.3000
 42
1.5000
 43
1.0000
 50
90.0000
  0
INSERT
  8
16
  2
RECT
 10
50.8000
 20
24.4450
 30
0.0000
 41
1.3000
 42
1.5000
 43
1.0000
 50
270.0000
  0
INSERT
  8
16
  2
RECT
 10
50.8000
 20
22.5450
 30
0.0000
 41
1.3000
 42
1.5000
 43
1.0000
 50
270.0000
  0
INSERT
  8
16
  2
RECT
 10
23.4950
 20
37.7800
 30
0.0000
 41
1.3000
 42
1.5000
 43
1.0000
 50
270.0000
  0
INSERT
  8
16
  2
RECT
 10
23.4950
 20
35.8800
 30
0.0000
 41
1.3000
 42
1.5000
 43
1.0000
 50
270.0000
  0
INSERT
  8
16
  2
RECT
 10
45.7175
 20
15.8750
 30
0.0000
 41
1.3000
 42
1.5000
 43
1.0000
 50
180.0000
  0
INSERT
  8
16
  2
RECT
 10
43.8175
 20
15.8750
 30
0.0000
 41
1.3000
 42
1.5000
 43
1.0000
 50
180.0000
  0
INSERT
  8
16
  2
RECT
 10
23.4950
 20
40.9600
 30
0.0000
 41
1.3000
 42
1.5000
 43
1.0000
 50
90.0000
  0
INSERT
  8
16
  2
RECT
 10
23.4950
 20
42.8600
 30
0.0000
 41
1.3000
 42
1.5000
 43
1.0000
 50
90.0000
  0
INSERT
  8
16
  2
RECT
 10
48.8950
 20
15.2425
 30
0.0000
 41
1.3000
 42
1.5000
 43
1.0000
 50
90.0000
  0
INSERT
  8
16
  2
RECT
 10
48.8950
 20
17.1425
 30
0.0000
 41
1.3000
 42
1.5000
 43
1.0000
 50
90.0000
  0
INSERT
  8
16
  2
RECT
 10
26.6700
 20
40.9600
 30
0.0000
 41
1.3000
 42
1.5000
 43
1.0000
 50
90.0000
  0
INSERT
  8
16
  2
RECT
 10
26.6700
 20
42.8600
 30
0.0000
 41
1.3000
 42
1.5000
 43
1.0000
 50
90.0000
  0
INSERT
  8
16
  2
RECT
 10
26.6700
 20
37.7800
 30
0.0000
 41
1.3000
 42
1.5000
 43
1.0000
 50
270.0000
  0
INSERT
  8
16
  2
RECT
 10
26.6700
 20
35.8800
 30
0.0000
 41
1.3000
 42
1.5000
 43
1.0000
 50
270.0000
  0
INSERT
  8
16
  2
RECT
 10
58.4200
 20
16.1950
 30
0.0000
 41
1.3000
 42
1.5000
 43
1.0000
 50
90.0000
  0
INSERT
  8
16
  2
RECT
 10
58.4200
 20
18.0950
 30
0.0000
 41
1.3000
 42
1.5000
 43
1.0000
 50
90.0000
  0
INSERT
  8
16
  2
RECT
 10
52.0725
 20
10.1600
 30
0.0000
 41
1.3000
 42
1.5000
 43
1.0000
 50
0.0000
  0
INSERT
  8
16
  2
RECT
 10
53.9725
 20
10.1600
 30
0.0000
 41
1.3000
 42
1.5000
 43
1.0000
 50
0.0000
  0
INSERT
  8
16
  2
RECT
 10
52.0725
 20
6.9850
 30
0.0000
 41
1.3000
 42
1.5000
 43
1.0000
 50
0.0000
  0
INSERT
  8
16
  2
RECT
 10
53.9725
 20
6.9850
 30
0.0000
 41
1.3000
 42
1.5000
 43
1.0000
 50
0.0000
  0
INSERT
  8
17
  2
OCTAGONP
 10
44.4500
 20
28.5750
 30
0.0000
 41
1.2192
 42
1.2192
 43
1.0000
 50
0.0000
  0
INSERT
  8
17
  2
OCTAGONP
 10
54.6100
 20
28.5750
 30
0.0000
 41
1.2192
 42
1.2192
 43
1.0000
 50
0.0000
  0
INSERT
  8
16
  2
RECT
 10
52.0725
 20
4.1275
 30
0.0000
 41
1.3000
 42
1.5000
 43
1.0000
 50
0.0000
  0
INSERT
  8
16
  2
RECT
 10
53.9725
 20
4.1275
 30
0.0000
 41
1.3000
 42
1.5000
 43
1.0000
 50
0.0000
  0
INSERT
  8
16
  2
RECT
 10
48.5775
 20
5.0775
 30
0.0000
 41
1.3000
 42
1.5000
 43
1.0000
 50
270.0000
  0
INSERT
  8
16
  2
RECT
 10
48.5775
 20
3.1775
 30
0.0000
 41
1.3000
 42
1.5000
 43
1.0000
 50
270.0000
  0
INSERT
  8
16
  2
RECT
 10
57.7850
 20
8.5750
 30
0.0000
 41
1.3000
 42
1.5000
 43
1.0000
 50
90.0000
  0
INSERT
  8
16
  2
RECT
 10
57.7850
 20
10.4750
 30
0.0000
 41
1.3000
 42
1.5000
 43
1.0000
 50
90.0000
  0
INSERT
  8
16
  2
RECT
 10
57.7850
 20
5.3950
 30
0.0000
 41
1.3000
 42
1.5000
 43
1.0000
 50
270.0000
  0
INSERT
  8
16
  2
RECT
 10
57.7850
 20
3.4950
 30
0.0000
 41
1.3000
 42
1.5000
 43
1.0000
 50
270.0000
  0
INSERT
  8
16
  2
RECT
 10
6.6650
 20
35.5600
 30
0.0000
 41
1.3000
 42
1.5000
 43
1.0000
 50
180.0000
  0
INSERT
  8
16
  2
RECT
 10
4.7650
 20
35.5600
 30
0.0000
 41
1.3000
 42
1.5000
 43
1.0000
 50
180.0000
  0
INSERT
  8
16
  2
RECT
 10
10.1600
 20
32.7050
 30
0.0000
 41
1.3000
 42
1.5000
 43
1.0000
 50
90.0000
  0
INSERT
  8
16
  2
RECT
 10
10.1600
 20
34.6050
 30
0.0000
 41
1.3000
 42
1.5000
 43
1.0000
 50
90.0000
  0
INSERT
  8
16
  2
RECT
 10
84.7750
 20
36.1950
 30
0.0000
 41
1.3000
 42
1.5000
 43
1.0000
 50
0.0000
  0
INSERT
  8
16
  2
RECT
 10
86.6750
 20
36.1950
 30
0.0000
 41
1.3000
 42
1.5000
 43
1.0000
 50
0.0000
  0
INSERT
  8
16
  2
RECT
 10
91.7550
 20
34.9250
 30
0.0000
 41
1.3000
 42
1.5000
 43
1.0000
 50
180.0000
  0
INSERT
  8
16
  2
RECT
 10
89.8550
 20
34.9250
 30
0.0000
 41
1.3000
 42
1.5000
 43
1.0000
 50
180.0000
  0
INSERT
  8
17
  2
OCTAGONP
 10
2.5400
 20
1.5875
 30
0.0000
 41
1.6002
 42
1.6002
 43
1.0000
 50
90.0000
  0
INSERT
  8
17
  2
OCTAGONP
 10
2.5400
 20
19.3675
 30
0.0000
 41
1.6002
 42
1.6002
 43
1.0000
 50
90.0000
  0
INSERT
  8
17
  2
OCTAGONP
 10
2.5400
 20
21.9075
 30
0.0000
 41
1.6002
 42
1.6002
 43
1.0000
 50
90.0000
  0
INSERT
  8
17
  2
OCTAGONP
 10
2.5400
 20
39.6875
 30
0.0000
 41
1.6002
 42
1.6002
 43
1.0000
 50
90.0000
  0
INSERT
  8
16
  2
RECT
 10
4.7600
 20
47.9425
 30
0.0000
 41
1.3000
 42
1.5000
 43
1.0000
 50
180.0000
  0
INSERT
  8
16
  2
RECT
 10
2.8600
 20
47.9425
 30
0.0000
 41
1.3000
 42
1.5000
 43
1.0000
 50
180.0000
  0
INSERT
  8
16
  2
RECT
 10
4.7600
 20
45.0850
 30
0.0000
 41
1.3000
 42
1.5000
 43
1.0000
 50
180.0000
  0
INSERT
  8
16
  2
RECT
 10
2.8600
 20
45.0850
 30
0.0000
 41
1.3000
 42
1.5000
 43
1.0000
 50
180.0000
  0
INSERT
  8
16
  2
RECT
 10
4.7600
 20
42.2275
 30
0.0000
 41
1.3000
 42
1.5000
 43
1.0000
 50
180.0000
  0
INSERT
  8
16
  2
RECT
 10
2.8600
 20
42.2275
 30
0.0000
 41
1.3000
 42
1.5000
 43
1.0000
 50
180.0000
  0
INSERT
  8
16
  2
RECT
 10
86.6800
 20
28.5750
 30
0.0000
 41
1.3000
 42
1.5000
 43
1.0000
 50
0.0000
  0
INSERT
  8
16
  2
RECT
 10
88.5800
 20
28.5750
 30
0.0000
 41
1.3000
 42
1.5000
 43
1.0000
 50
0.0000
  0
INSERT
  8
16
  2
RECT
 10
92.3925
 20
24.1325
 30
0.0000
 41
1.3000
 42
1.5000
 43
1.0000
 50
90.0000
  0
INSERT
  8
16
  2
RECT
 10
92.3925
 20
26.0325
 30
0.0000
 41
1.3000
 42
1.5000
 43
1.0000
 50
90.0000
  0
INSERT
  8
16
  2
RECT
 10
86.6800
 20
21.5900
 30
0.0000
 41
1.3000
 42
1.5000
 43
1.0000
 50
0.0000
  0
INSERT
  8
16
  2
RECT
 10
88.5800
 20
21.5900
 30
0.0000
 41
1.3000
 42
1.5000
 43
1.0000
 50
0.0000
  0
INSERT
  8
16
  2
RECT
 10
92.3925
 20
16.8300
 30
0.0000
 41
1.3000
 42
1.5000
 43
1.0000
 50
90.0000
  0
INSERT
  8
16
  2
RECT
 10
92.3925
 20
18.7300
 30
0.0000
 41
1.3000
 42
1.5000
 43
1.0000
 50
90.0000
  0
INSERT
  8
16
  2
RECT
 10
86.6800
 20
14.2875
 30
0.0000
 41
1.3000
 42
1.5000
 43
1.0000
 50
0.0000
  0
INSERT
  8
16
  2
RECT
 10
88.5800
 20
14.2875
 30
0.0000
 41
1.3000
 42
1.5000
 43
1.0000
 50
0.0000
  0
INSERT
  8
16
  2
RECT
 10
31.7525
 20
47.3075
 30
0.0000
 41
1.3000
 42
1.5000
 43
1.0000
 50
0.0000
  0
INSERT
  8
16
  2
RECT
 10
33.6525
 20
47.3075
 30
0.0000
 41
1.3000
 42
1.5000
 43
1.0000
 50
0.0000
  0
INSERT
  8
16
  2
RECT
 10
92.3290
 20
11.7450
 30
0.0000
 41
1.3000
 42
1.5000
 43
1.0000
 50
270.0000
  0
INSERT
  8
16
  2
RECT
 10
92.3290
 20
9.8450
 30
0.0000
 41
1.3000
 42
1.5000
 43
1.0000
 50
270.0000
  0
INSERT
  8
16
  2
RECT
 10
67.2440
 20
5.5880
 30
0.0000
 41
1.3000
 42
1.5000
 43
1.0000
 50
180.0000
  0
INSERT
  8
16
  2
RECT
 10
65.3440
 20
5.5880
 30
0.0000
 41
1.3000
 42
1.5000
 43
1.0000
 50
180.0000
  0
INSERT
  8
16
  2
RECT
 10
79.4360
 20
10.9220
 30
0.0000
 41
1.3000
 42
1.5000
 43
1.0000
 50
180.0000
  0
INSERT
  8
16
  2
RECT
 10
77.5360
 20
10.9220
 30
0.0000
 41
1.3000
 42
1.5000
 43
1.0000
 50
180.0000
  0
INSERT
  8
16
  2
RECT
 10
8.0264
 20
26.1112
 30
0.0000
 41
1.2192
 42
2.2352
 43
1.0000
 50
180.0000
  0
INSERT
  8
16
  2
RECT
 10
5.7150
 20
26.1112
 30
0.0000
 41
1.2192
 42
2.2352
 43
1.0000
 50
180.0000
  0
INSERT
  8
16
  2
RECT
 10
3.4036
 20
26.1112
 30
0.0000
 41
1.2192
 42
2.2352
 43
1.0000
 50
180.0000
  0
INSERT
  8
16
  2
RECT
 10
5.7150
 20
32.3090
 30
0.0000
 41
3.6000
 42
2.2000
 43
1.0000
 50
180.0000
  0
INSERT
  8
16
  2
RECT
 10
32.5550
 20
16.8300
 30
0.0000
 41
1.0000
 42
1.4000
 43
1.0000
 50
90.0000
  0
INSERT
  8
16
  2
RECT
 10
34.7550
 20
17.7800
 30
0.0000
 41
1.0000
 42
1.4000
 43
1.0000
 50
90.0000
  0
INSERT
  8
16
  2
RECT
 10
32.5550
 20
18.7300
 30
0.0000
 41
1.0000
 42
1.4000
 43
1.0000
 50
90.0000
  0
INSERT
  8
16
  2
RECT
 10
24.9350
 20
46.6750
 30
0.0000
 41
1.0000
 42
1.4000
 43
1.0000
 50
90.0000
  0
INSERT
  8
16
  2
RECT
 10
27.1350
 20
47.6250
 30
0.0000
 41
1.0000
 42
1.4000
 43
1.0000
 50
90.0000
  0
INSERT
  8
16
  2
RECT
 10
24.9350
 20
48.5750
 30
0.0000
 41
1.0000
 42
1.4000
 43
1.0000
 50
90.0000
  0
INSERT
  8
16
  2
RECT
 10
29.7561
 20
43.1038
 30
0.0000
 41
1.2192
 42
2.2352
 43
1.0000
 50
0.0000
  0
INSERT
  8
16
  2
RECT
 10
32.0675
 20
43.1038
 30
0.0000
 41
1.2192
 42
2.2352
 43
1.0000
 50
0.0000
  0
INSERT
  8
16
  2
RECT
 10
34.3789
 20
43.1038
 30
0.0000
 41
1.2192
 42
2.2352
 43
1.0000
 50
0.0000
  0
INSERT
  8
16
  2
RECT
 10
32.0675
 20
36.9060
 30
0.0000
 41
3.6000
 42
2.2000
 43
1.0000
 50
0.0000
  0
INSERT
  8
16
  2
RECT
 10
46.0350
 20
3.6625
 30
0.0000
 41
1.0000
 42
1.4000
 43
1.0000
 50
180.0000
  0
INSERT
  8
16
  2
RECT
 10
45.0850
 20
5.8625
 30
0.0000
 41
1.0000
 42
1.4000
 43
1.0000
 50
180.0000
  0
INSERT
  8
16
  2
RECT
 10
44.1350
 20
3.6625
 30
0.0000
 41
1.0000
 42
1.4000
 43
1.0000
 50
180.0000
  0
INSERT
  8
16
  2
RECT
 10
65.8925
 20
24.7675
 30
0.0000
 41
1.0000
 42
1.4000
 43
1.0000
 50
90.0000
  0
INSERT
  8
16
  2
RECT
 10
68.0925
 20
25.7175
 30
0.0000
 41
1.0000
 42
1.4000
 43
1.0000
 50
90.0000
  0
INSERT
  8
16
  2
RECT
 10
65.8925
 20
26.6675
 30
0.0000
 41
1.0000
 42
1.4000
 43
1.0000
 50
90.0000
  0
INSERT
  8
16
  2
RECT
 10
12.3800
 20
27.4750
 30
0.0000
 41
1.0000
 42
1.4000
 43
1.0000
 50
180.0000
  0
INSERT
  8
16
  2
RECT
 10
11.4300
 20
29.6750
 30
0.0000
 41
1.0000
 42
1.4000
 43
1.0000
 50
180.0000
  0
INSERT
  8
16
  2
RECT
 10
10.4800
 20
27.4750
 30
0.0000
 41
1.0000
 42
1.4000
 43
1.0000
 50
180.0000
  0
INSERT
  8
16
  2
RECT
 10
89.0475
 20
32.7000
 30
0.0000
 41
1.0000
 42
1.4000
 43
1.0000
 50
270.0000
  0
INSERT
  8
16
  2
RECT
 10
86.8475
 20
31.7500
 30
0.0000
 41
1.0000
 42
1.4000
 43
1.0000
 50
270.0000
  0
INSERT
  8
16
  2
RECT
 10
89.0475
 20
30.8000
 30
0.0000
 41
1.0000
 42
1.4000
 43
1.0000
 50
270.0000
  0
INSERT
  8
16
  2
RECT
 10
83.6500
 20
30.1600
 30
0.0000
 41
1.0000
 42
1.4000
 43
1.0000
 50
270.0000
  0
INSERT
  8
16
  2
RECT
 10
81.4500
 20
29.2100
 30
0.0000
 41
1.0000
 42
1.4000
 43
1.0000
 50
270.0000
  0
INSERT
  8
16
  2
RECT
 10
83.6500
 20
28.2600
 30
0.0000
 41
1.0000
 42
1.4000
 43
1.0000
 50
270.0000
  0
INSERT
  8
16
  2
RECT
 10
89.0475
 20
25.7150
 30
0.0000
 41
1.0000
 42
1.4000
 43
1.0000
 50
270.0000
  0
INSERT
  8
16
  2
RECT
 10
86.8475
 20
24.7650
 30
0.0000
 41
1.0000
 42
1.4000
 43
1.0000
 50
270.0000
  0
INSERT
  8
16
  2
RECT
 10
89.0475
 20
23.8150
 30
0.0000
 41
1.0000
 42
1.4000
 43
1.0000
 50
270.0000
  0
INSERT
  8
16
  2
RECT
 10
83.3325
 20
23.1750
 30
0.0000
 41
1.0000
 42
1.4000
 43
1.0000
 50
270.0000
  0
INSERT
  8
16
  2
RECT
 10
81.1325
 20
22.2250
 30
0.0000
 41
1.0000
 42
1.4000
 43
1.0000
 50
270.0000
  0
INSERT
  8
16
  2
RECT
 10
83.3325
 20
21.2750
 30
0.0000
 41
1.0000
 42
1.4000
 43
1.0000
 50
270.0000
  0
INSERT
  8
16
  2
RECT
 10
89.0475
 20
19.0475
 30
0.0000
 41
1.0000
 42
1.4000
 43
1.0000
 50
270.0000
  0
INSERT
  8
16
  2
RECT
 10
86.8475
 20
18.0975
 30
0.0000
 41
1.0000
 42
1.4000
 43
1.0000
 50
270.0000
  0
INSERT
  8
16
  2
RECT
 10
89.0475
 20
17.1475
 30
0.0000
 41
1.0000
 42
1.4000
 43
1.0000
 50
270.0000
  0
INSERT
  8
16
  2
RECT
 10
83.6500
 20
16.1900
 30
0.0000
 41
1.0000
 42
1.4000
 43
1.0000
 50
270.0000
  0
INSERT
  8
16
  2
RECT
 10
81.4500
 20
15.2400
 30
0.0000
 41
1.0000
 42
1.4000
 43
1.0000
 50
270.0000
  0
INSERT
  8
16
  2
RECT
 10
83.6500
 20
14.2900
 30
0.0000
 41
1.0000
 42
1.4000
 43
1.0000
 50
270.0000
  0
INSERT
  8
16
  2
RECT
 10
69.9262
 20
1.8161
 30
0.0000
 41
1.2192
 42
2.2352
 43
1.0000
 50
90.0000
  0
INSERT
  8
16
  2
RECT
 10
69.9262
 20
4.1275
 30
0.0000
 41
1.2192
 42
2.2352
 43
1.0000
 50
90.0000
  0
INSERT
  8
16
  2
RECT
 10
69.9262
 20
6.4389
 30
0.0000
 41
1.2192
 42
2.2352
 43
1.0000
 50
90.0000
  0
INSERT
  8
16
  2
RECT
 10
76.1240
 20
4.1275
 30
0.0000
 41
3.6000
 42
2.2000
 43
1.0000
 50
90.0000
  0
INSERT
  8
16
  2
RECT
 10
81.0387
 20
1.8161
 30
0.0000
 41
1.2192
 42
2.2352
 43
1.0000
 50
90.0000
  0
INSERT
  8
16
  2
RECT
 10
81.0387
 20
4.1275
 30
0.0000
 41
1.2192
 42
2.2352
 43
1.0000
 50
90.0000
  0
INSERT
  8
16
  2
RECT
 10
81.0387
 20
6.4389
 30
0.0000
 41
1.2192
 42
2.2352
 43
1.0000
 50
90.0000
  0
INSERT
  8
16
  2
RECT
 10
87.2365
 20
4.1275
 30
0.0000
 41
3.6000
 42
2.2000
 43
1.0000
 50
90.0000
  0
INSERT
  8
17
  2
ROUNDP
 10
36.0680
 20
5.8420
 30
0.0000
 41
1.4224
 42
1.4224
 43
1.0000
 50
180.0000
  0
INSERT
  8
16
  2
PIE
 10
74.9300
 20
8.2550
 30
0.0000
 41
1.5000
 42
1.5000
 43
1.0000
 50
0.0000
  0
INSERT
  8
16
  2
PIE
 10
83.8200
 20
8.8900
 30
0.0000
 41
1.5000
 42
1.5000
 43
1.0000
 50
0.0000
  0
INSERT
  8
16
  2
PIE
 10
77.7875
 20
13.3350
 30
0.0000
 41
1.5000
 42
1.5000
 43
1.0000
 50
0.0000
  0
INSERT
  8
16
  2
PIE
 10
80.3275
 20
18.7325
 30
0.0000
 41
1.5000
 42
1.5000
 43
1.0000
 50
0.0000
  0
INSERT
  8
16
  2
PIE
 10
77.7875
 20
24.1300
 30
0.0000
 41
1.5000
 42
1.5000
 43
1.0000
 50
0.0000
  0
INSERT
  8
16
  2
PIE
 10
80.3275
 20
25.7175
 30
0.0000
 41
1.5000
 42
1.5000
 43
1.0000
 50
0.0000
  0
INSERT
  8
16
  2
PIE
 10
77.4700
 20
31.4325
 30
0.0000
 41
1.5000
 42
1.5000
 43
1.0000
 50
0.0000
  0
INSERT
  8
16
  2
PIE
 10
80.3275
 20
32.7025
 30
0.0000
 41
1.5000
 42
1.5000
 43
1.0000
 50
0.0000
  0
INSERT
  8
16
  2
PIE
 10
74.9300
 20
36.5125
 30
0.0000
 41
1.5000
 42
1.5000
 43
1.0000
 50
0.0000
  0
INSERT
  8
16
  2
PIE
 10
80.3275
 20
39.0525
 30
0.0000
 41
1.5000
 42
1.5000
 43
1.0000
 50
0.0000
  0
INSERT
  8
16
  2
PIE
 10
74.6125
 20
43.4975
 30
0.0000
 41
1.5000
 42
1.5000
 43
1.0000
 50
0.0000
  0
INSERT
  8
16
  2
PIE
 10
69.5325
 20
8.2550
 30
0.0000
 41
1.5000
 42
1.5000
 43
1.0000
 50
0.0000
  0
INSERT
  8
16
  2
PIE
 10
69.5325
 20
11.7475
 30
0.0000
 41
1.5000
 42
1.5000
 43
1.0000
 50
0.0000
  0
INSERT
  8
16
  2
PIE
 10
69.5325
 20
15.2400
 30
0.0000
 41
1.5000
 42
1.5000
 43
1.0000
 50
0.0000
  0
INSERT
  8
16
  2
PIE
 10
75.2475
 20
18.7325
 30
0.0000
 41
1.5000
 42
1.5000
 43
1.0000
 50
0.0000
  0
INSERT
  8
16
  2
PIE
 10
64.1350
 20
21.2725
 30
0.0000
 41
1.5000
 42
1.5000
 43
1.0000
 50
0.0000
  0
INSERT
  8
16
  2
PIE
 10
74.9300
 20
25.7175
 30
0.0000
 41
1.5000
 42
1.5000
 43
1.0000
 50
0.0000
  0
INSERT
  8
16
  2
PIE
 10
69.5325
 20
29.2100
 30
0.0000
 41
1.5000
 42
1.5000
 43
1.0000
 50
0.0000
  0
INSERT
  8
16
  2
PIE
 10
69.5325
 20
33.3375
 30
0.0000
 41
1.5000
 42
1.5000
 43
1.0000
 50
0.0000
  0
INSERT
  8
16
  2
PIE
 10
64.4525
 20
35.2425
 30
0.0000
 41
1.5000
 42
1.5000
 43
1.0000
 50
0.0000
  0
INSERT
  8
16
  2
PIE
 10
74.8665
 20
39.1795
 30
0.0000
 41
1.5000
 42
1.5000
 43
1.0000
 50
0.0000
  0
INSERT
  8
16
  2
PIE
 10
75.1840
 20
33.7820
 30
0.0000
 41
1.5000
 42
1.5000
 43
1.0000
 50
0.0000
  0
INSERT
  8
17
  2
LONGP100
 10
17.7850
 20
49.2800
 30
0.0000
 41
2.1844
 42
2.1844
 43
1.0000
 50
0.0000
  0
INSERT
  8
17
  2
LONGP100
 10
17.7850
 20
45.3200
 30
0.0000
 41
2.1844
 42
2.1844
 43
1.0000
 50
0.0000
  0
INSERT
  8
17
  2
LONGP100
 10
17.7850
 20
41.3600
 30
0.0000
 41
2.1844
 42
2.1844
 43
1.0000
 50
0.0000
  0
INSERT
  8
17
  2
LONGP100
 10
17.7850
 20
37.4000
 30
0.0000
 41
2.1844
 42
2.1844
 43
1.0000
 50
0.0000
  0
INSERT
  8
17
  2
LONGP100
 10
17.7850
 20
33.4400
 30
0.0000
 41
2.1844
 42
2.1844
 43
1.0000
 50
0.0000
  0
INSERT
  8
17
  2
LONGP100
 10
17.7850
 20
29.4800
 30
0.0000
 41
2.1844
 42
2.1844
 43
1.0000
 50
0.0000
  0
INSERT
  8
17
  2
LONGP100
 10
17.7850
 20
25.5200
 30
0.0000
 41
2.1844
 42
2.1844
 43
1.0000
 50
0.0000
  0
INSERT
  8
17
  2
LONGP100
 10
17.7850
 20
21.5600
 30
0.0000
 41
2.1844
 42
2.1844
 43
1.0000
 50
0.0000
  0
INSERT
  8
17
  2
LONGP100
 10
17.7850
 20
17.6000
 30
0.0000
 41
2.1844
 42
2.1844
 43
1.0000
 50
0.0000
  0
INSERT
  8
17
  2
LONGP100
 10
17.7850
 20
13.6400
 30
0.0000
 41
2.1844
 42
2.1844
 43
1.0000
 50
0.0000
  0
INSERT
  8
17
  2
LONGP100
 10
17.7850
 20
9.6800
 30
0.0000
 41
2.1844
 42
2.1844
 43
1.0000
 50
0.0000
  0
INSERT
  8
17
  2
LONGP100
 10
17.7850
 20
5.7200
 30
0.0000
 41
2.1844
 42
2.1844
 43
1.0000
 50
0.0000
  0
INSERT
  8
17
  2
LONGP100
 10
39.4850
 20
49.2800
 30
0.0000
 41
2.1844
 42
2.1844
 43
1.0000
 50
0.0000
  0
INSERT
  8
17
  2
LONGP100
 10
39.4850
 20
45.3200
 30
0.0000
 41
2.1844
 42
2.1844
 43
1.0000
 50
0.0000
  0
INSERT
  8
17
  2
LONGP100
 10
39.4850
 20
41.3600
 30
0.0000
 41
2.1844
 42
2.1844
 43
1.0000
 50
0.0000
  0
INSERT
  8
17
  2
LONGP100
 10
39.4850
 20
37.4000
 30
0.0000
 41
2.1844
 42
2.1844
 43
1.0000
 50
0.0000
  0
INSERT
  8
17
  2
LONGP100
 10
39.4850
 20
33.4400
 30
0.0000
 41
2.1844
 42
2.1844
 43
1.0000
 50
0.0000
  0
INSERT
  8
17
  2
LONGP100
 10
39.4850
 20
29.4800
 30
0.0000
 41
2.1844
 42
2.1844
 43
1.0000
 50
0.0000
  0
INSERT
  8
17
  2
LONGP100
 10
39.4850
 20
25.5200
 30
0.0000
 41
2.1844
 42
2.1844
 43
1.0000
 50
0.0000
  0
INSERT
  8
17
  2
LONGP100
 10
39.4850
 20
21.5600
 30
0.0000
 41
2.1844
 42
2.1844
 43
1.0000
 50
0.0000
  0
INSERT
  8
17
  2
LONGP100
 10
39.4850
 20
17.6000
 30
0.0000
 41
2.1844
 42
2.1844
 43
1.0000
 50
0.0000
  0
INSERT
  8
17
  2
LONGP100
 10
39.4850
 20
13.6400
 30
0.0000
 41
2.1844
 42
2.1844
 43
1.0000
 50
0.0000
  0
INSERT
  8
17
  2
LONGP100
 10
39.4850
 20
9.6800
 30
0.0000
 41
2.1844
 42
2.1844
 43
1.0000
 50
0.0000
  0
INSERT
  8
17
  2
LONGP100
 10
39.4850
 20
5.7200
 30
0.0000
 41
2.1844
 42
2.1844
 43
1.0000
 50
0.0000
  0
INSERT
  8
17
  2
LONGP100
 10
88.2650
 20
8.8900
 30
0.0000
 41
1.4064
 42
1.4064
 43
1.0000
 50
180.0000
  0
INSERT
  8
17
  2
LONGP100
 10
88.2650
 20
11.4300
 30
0.0000
 41
1.4064
 42
1.4064
 43
1.0000
 50
180.0000
  0
INSERT
  8
17
  2
LONGP100
 10
83.5025
 20
51.4350
 30
0.0000
 41
1.4064
 42
1.4064
 43
1.0000
 50
270.0000
  0
INSERT
  8
17
  2
LONGP100
 10
80.9625
 20
51.4350
 30
0.0000
 41
1.4064
 42
1.4064
 43
1.0000
 50
270.0000
  0
INSERT
  8
17
  2
LONGP100
 10
78.4225
 20
51.4350
 30
0.0000
 41
1.4064
 42
1.4064
 43
1.0000
 50
270.0000
  0
INSERT
  8
17
  2
LONGP100
 10
75.8825
 20
51.4350
 30
0.0000
 41
1.4064
 42
1.4064
 43
1.0000
 50
270.0000
  0
INSERT
  8
17
  2
LONGP100
 10
73.3425
 20
51.4350
 30
0.0000
 41
1.4064
 42
1.4064
 43
1.0000
 50
270.0000
  0
INSERT
  8
17
  2
LONGP100
 10
7.9375
 20
38.7350
 30
0.0000
 41
1.4064
 42
1.4064
 43
1.0000
 50
180.0000
  0
INSERT
  8
17
  2
LONGP100
 10
7.9375
 20
41.2750
 30
0.0000
 41
1.4064
 42
1.4064
 43
1.0000
 50
180.0000
  0
INSERT
  8
17
  2
LONGP100
 10
7.9375
 20
43.8150
 30
0.0000
 41
1.4064
 42
1.4064
 43
1.0000
 50
180.0000
  0
INSERT
  8
17
  2
LONGP100
 10
7.9375
 20
46.3550
 30
0.0000
 41
1.4064
 42
1.4064
 43
1.0000
 50
180.0000
  0
INSERT
  8
17
  2
LONGP100
 10
7.9375
 20
48.8950
 30
0.0000
 41
1.4064
 42
1.4064
 43
1.0000
 50
180.0000
  0
INSERT
  8
17
  2
ROUNDP
 10
43.1800
 20
37.8460
 30
0.0000
 41
1.4224
 42
1.4224
 43
1.0000
 50
180.0000
  0
LINE
  8
16
 10
2.5400
 20
39.6875
 30
0.0000
 11
7.9375
 21
38.7350
 31
0.0000
  0
LINE
  8
16
 10
7.9375
 20
38.7350
 30
0.0000
 11
9.5250
 21
38.7350
 31
0.0000
  0
LINE
  8
16
 10
9.5250
 20
38.7350
 30
0.0000
 11
12.7000
 21
36.1950
 31
0.0000
  0
LINE
  8
16
 10
12.7000
 20
36.1950
 30
0.0000
 11
12.7000
 21
32.3850
 31
0.0000
  0
LINE
  8
16
 10
12.7000
 20
32.3850
 30
0.0000
 11
13.6525
 21
31.1150
 31
0.0000
  0
LINE
  8
16
 10
13.6525
 20
31.1150
 30
0.0000
 11
15.8950
 21
29.8450
 31
0.0000
  0
LINE
  8
16
 10
15.8950
 20
29.8450
 30
0.0000
 11
17.7850
 21
29.4800
 31
0.0000
  0
LINE
  8
16
 10
2.5400
 20
39.6875
 30
0.0000
 11
2.5400
 21
35.5600
 31
0.0000
  0
LINE
  8
16
 10
2.5400
 20
35.5600
 30
0.0000
 11
2.5400
 21
28.8798
 31
0.0000
  0
LINE
  8
16
 10
2.5400
 20
28.8798
 30
0.0000
 11
3.1750
 21
28.2448
 31
0.0000
  0
LINE
  8
16
 10
3.1750
 20
28.2448
 30
0.0000
 11
3.4036
 21
26.1112
 31
0.0000
  0
LINE
  8
16
 10
4.7650
 20
35.5600
 30
0.0000
 11
2.5400
 21
35.5600
 31
0.0000
  0
LINE
  8
16
 10
34.3789
 20
43.1038
 30
0.0000
 11
34.3789
 21
45.3111
 31
0.0000
  0
LINE
  8
16
 10
34.3789
 20
45.3111
 30
0.0000
 11
33.6525
 21
47.3075
 31
0.0000
  0
LINE
  8
16
 10
34.3789
 20
43.1038
 30
0.0000
 11
34.3789
 21
40.8686
 31
0.0000
  0
LINE
  8
16
 10
34.3789
 20
40.8686
 30
0.0000
 11
35.2425
 21
39.3700
 31
0.0000
  0
LINE
  8
16
 10
35.2425
 20
39.3700
 30
0.0000
 11
35.2425
 21
33.6550
 31
0.0000
  0
LINE
  8
16
 10
35.2425
 20
33.6550
 30
0.0000
 11
32.7025
 21
33.6550
 31
0.0000
  0
LINE
  8
16
 10
32.7025
 20
33.6550
 30
0.0000
 11
31.4325
 21
34.6075
 31
0.0000
  0
LINE
  8
16
 10
31.4325
 20
34.6075
 30
0.0000
 11
26.6700
 21
34.6075
 31
0.0000
  0
LINE
  8
16
 10
26.6700
 20
34.6075
 30
0.0000
 11
25.7175
 21
33.6550
 31
0.0000
  0
LINE
  8
16
 10
25.7175
 20
33.6550
 30
0.0000
 11
21.2725
 21
29.5275
 31
0.0000
  0
LINE
  8
16
 10
21.2725
 20
29.5275
 30
0.0000
 11
18.7850
 21
29.5275
 31
0.0000
  0
LINE
  8
16
 10
18.7850
 20
29.5275
 30
0.0000
 11
17.7850
 21
29.4800
 31
0.0000
  0
LINE
  8
16
 10
26.6700
 20
35.8800
 30
0.0000
 11
26.6700
 21
34.6075
 31
0.0000
  0
LINE
  8
16
 10
60.0075
 20
10.1600
 30
0.0000
 11
60.0075
 21
20.0025
 31
0.0000
  0
LINE
  8
16
 10
60.0075
 20
20.0025
 30
0.0000
 11
61.9125
 21
22.5425
 31
0.0000
  0
LINE
  8
16
 10
61.9125
 20
22.5425
 30
0.0000
 11
61.9125
 21
24.4475
 31
0.0000
  0
LINE
  8
16
 10
61.9125
 20
24.4475
 30
0.0000
 11
63.8175
 21
25.4000
 31
0.0000
  0
LINE
  8
16
 10
63.8175
 20
25.4000
 30
0.0000
 11
63.8175
 21
27.6225
 31
0.0000
  0
LINE
  8
16
 10
63.8175
 20
27.6225
 30
0.0000
 11
62.2300
 21
29.2100
 31
0.0000
  0
LINE
  8
16
 10
2.8600
 20
47.9425
 30
0.0000
 11
2.8575
 21
46.9875
 31
0.0000
  0
LINE
  8
16
 10
2.8575
 20
46.9875
 30
0.0000
 11
2.8575
 21
40.9575
 31
0.0000
  0
LINE
  8
16
 10
2.8575
 20
40.9575
 30
0.0000
 11
2.5400
 21
39.3700
 31
0.0000
  0
LINE
  8
16
 10
2.5400
 20
39.3700
 30
0.0000
 11
2.5400
 21
39.6875
 31
0.0000
  0
LINE
  8
16
 10
83.5025
 20
48.8950
 30
0.0000
 11
65.4050
 21
48.8950
 31
0.0000
  0
LINE
  8
16
 10
65.4050
 20
48.8950
 30
0.0000
 11
63.8175
 21
47.3075
 31
0.0000
  0
LINE
  8
16
 10
63.8175
 20
47.3075
 30
0.0000
 11
58.4200
 21
47.3075
 31
0.0000
  0
LINE
  8
16
 10
58.4200
 20
47.3075
 30
0.0000
 11
52.3875
 21
43.8150
 31
0.0000
  0
LINE
  8
16
 10
52.3875
 20
43.8150
 30
0.0000
 11
47.9425
 21
43.8150
 31
0.0000
  0
LINE
  8
16
 10
47.9425
 20
43.8150
 30
0.0000
 11
44.4500
 21
47.3075
 31
0.0000
  0
LINE
  8
16
 10
44.4500
 20
47.3075
 30
0.0000
 11
33.6525
 21
47.3075
 31
0.0000
  0
LINE
  8
16
 10
35.8775
 20
39.3700
 30
0.0000
 11
35.2425
 21
39.3700
 31
0.0000
  0
LINE
  8
16
 10
83.5025
 20
51.4350
 30
0.0000
 11
83.5025
 21
48.8950
 31
0.0000
  0
LINE
  8
16
 10
87.0966
 20
48.8950
 30
0.0000
 11
86.9950
 21
48.8950
 31
0.0000
  0
LINE
  8
16
 10
86.9950
 20
48.8950
 30
0.0000
 11
86.9950
 21
51.4350
 31
0.0000
  0
LINE
  8
16
 10
69.5325
 20
8.2550
 30
0.0000
 11
66.7650
 21
8.2550
 31
0.0000
  0
LINE
  8
16
 10
66.7650
 20
8.2550
 30
0.0000
 11
66.7650
 21
8.2500
 31
0.0000
  0
LINE
  8
16
 10
65.3440
 20
5.5880
 30
0.0000
 11
65.3440
 21
6.8290
 31
0.0000
  0
LINE
  8
16
 10
65.3440
 20
6.8290
 30
0.0000
 11
66.7650
 21
8.2500
 31
0.0000
  0
LINE
  8
16
 10
77.5360
 20
10.9220
 30
0.0000
 11
74.9300
 21
10.9220
 31
0.0000
  0
LINE
  8
16
 10
74.9300
 20
10.9220
 30
0.0000
 11
72.6440
 21
8.6360
 31
0.0000
  0
LINE
  8
16
 10
72.6440
 20
8.6360
 30
0.0000
 11
69.9135
 21
8.6360
 31
0.0000
  0
LINE
  8
16
 10
69.9135
 20
8.6360
 30
0.0000
 11
69.5325
 21
8.2550
 31
0.0000
  0
INSERT
  8
18
  2
ROUNDV
 10
60.0075
 20
10.1600
 30
0.0000
 41
0.9048
 42
0.9048
 43
1.0000
 50
0.0000
  0
INSERT
  8
18
  2
ROUNDV
 10
35.8775
 20
39.3700
 30
0.0000
 41
0.9048
 42
0.9048
 43
1.0000
 50
0.0000
  0
INSERT
  8
18
  2
ROUNDV
 10
86.9950
 20
51.4350
 30
0.0000
 41
0.9048
 42
0.9048
 43
1.0000
 50
0.0000
  0
LINE
  8
16
 10
0.0000
 20
55.2450
 30
0.0000
 11
95.8850
 21
55.2450
 31
0.0000
  0
LINE
  8
16
 10
95.8850
 20
55.2450
 30
0.0000
 11
95.8850
 21
0.0000
 31
0.0000
  0
LINE
  8
16
 10
95.8850
 20
0.0000
 30
0.0000
 11
0.0000
 21
0.0000
 31
0.0000
  0
LINE
  8
16
 10
0.0000
 20
0.0000
 30
0.0000
 11
0.0000
 21
55.2450
 31
0.0000
  0
LINE
  8
16
 10
33.0200
 20
27.6225
 30
0.0000
 11
34.9250
 21
29.5275
 31
0.0000
  0
LINE
  8
16
 10
34.9250
 20
29.5275
 30
0.0000
 11
42.8625
 21
29.5275
 31
0.0000
  0
INSERT
  8
18
  2
ROUNDV
 10
22.5425
 20
32.7025
 30
0.0000
 41
0.9048
 42
0.9048
 43
1.0000
 50
0.0000
  0
INSERT
  8
18
  2
ROUNDV
 10
21.2725
 20
27.6225
 30
0.0000
 41
0.9048
 42
0.9048
 43
1.0000
 50
0.0000
  0
INSERT
  8
18
  2
ROUNDV
 10
58.1025
 20
45.4025
 30
0.0000
 41
0.9048
 42
0.9048
 43
1.0000
 50
0.0000
  0
INSERT
  8
18
  2
ROUNDV
 10
57.5945
 20
48.3235
 30
0.0000
 41
0.9048
 42
0.9048
 43
1.0000
 50
0.0000
  0
INSERT
  8
18
  2
ROUNDV
 10
59.3725
 20
46.0375
 30
0.0000
 41
0.9048
 42
0.9048
 43
1.0000
 50
0.0000
  0
LINE
  8
16
 10
65.9000
 20
35.4200
 30
0.0000
 11
64.7700
 21
35.2425
 31
0.0000
  0
LINE
  8
16
 10
64.7700
 20
35.2425
 30
0.0000
 11
60.6425
 21
35.2425
 31
0.0000
  0
LINE
  8
16
 10
60.6425
 20
35.2425
 30
0.0000
 11
58.4200
 21
33.6325
 31
0.0000
  0
LINE
  8
16
 10
58.4200
 20
33.6325
 30
0.0000
 11
58.2750
 21
33.0200
 31
0.0000
  0
LINE
  8
16
 10
71.1200
 20
22.2250
 30
0.0000
 11
68.2625
 21
19.3675
 31
0.0000
  0
LINE
  8
16
 10
6.2050
 20
10.7950
 30
0.0000
 11
6.2050
 21
13.9700
 31
0.0000
  0
LINE
  8
16
 10
6.2050
 20
7.6200
 30
0.0000
 11
6.3500
 21
7.4750
 31
0.0000
  0
LINE
  8
16
 10
6.3500
 20
7.4750
 30
0.0000
 11
6.3500
 21
5.3975
 31
0.0000
  0
LINE
  8
16
 10
63.5000
 20
8.5725
 30
0.0000
 11
63.5000
 21
16.8275
 31
0.0000
  0
LINE
  8
16
 10
63.5000
 20
16.8275
 30
0.0000
 11
66.0400
 21
19.3675
 31
0.0000
  0
LINE
  8
16
 10
66.0400
 20
19.3675
 30
0.0000
 11
68.2625
 21
19.3675
 31
0.0000
  0
LINE
  8
16
 10
6.2050
 20
7.6200
 30
0.0000
 11
6.2050
 21
10.7950
 31
0.0000
  0
LINE
  8
16
 10
65.9000
 20
35.4200
 30
0.0000
 11
65.9350
 21
35.4200
 31
0.0000
  0
LINE
  8
16
 10
65.9350
 20
35.4200
 30
0.0000
 11
66.7650
 21
36.2500
 31
0.0000
  0
INSERT
  8
18
  2
ROUNDV
 10
71.1200
 20
22.2250
 30
0.0000
 41
0.9048
 42
0.9048
 43
1.0000
 50
0.0000
  0
INSERT
  8
18
  2
ROUNDV
 10
6.3500
 20
5.3975
 30
0.0000
 41
0.9048
 42
0.9048
 43
1.0000
 50
0.0000
  0
INSERT
  8
18
  2
ROUNDV
 10
63.5000
 20
8.5725
 30
0.0000
 41
0.9048
 42
0.9048
 43
1.0000
 50
0.0000
  0
LINE
  8
16
 10
7.9375
 20
41.2750
 30
0.0000
 11
4.7600
 21
42.2275
 31
0.0000
  0
LINE
  8
16
 10
17.7850
 20
37.4000
 30
0.0000
 11
17.0850
 21
38.1000
 31
0.0000
  0
LINE
  8
16
 10
17.0850
 20
38.1000
 30
0.0000
 11
13.9700
 21
38.1000
 31
0.0000
  0
LINE
  8
16
 10
13.9700
 20
38.1000
 30
0.0000
 11
10.1600
 21
41.2750
 31
0.0000
  0
LINE
  8
16
 10
10.1600
 20
41.2750
 30
0.0000
 11
7.9375
 21
41.2750
 31
0.0000
  0
LINE
  8
16
 10
80.9625
 20
41.9100
 30
0.0000
 11
84.4550
 21
41.9100
 31
0.0000
  0
LINE
  8
16
 10
84.4550
 20
41.9100
 30
0.0000
 11
85.7250
 21
41.2750
 31
0.0000
  0
LINE
  8
16
 10
85.7250
 20
41.2750
 30
0.0000
 11
87.0966
 21
41.2750
 31
0.0000
  0
INSERT
  8
18
  2
ROUNDV
 10
80.9625
 20
41.9100
 30
0.0000
 41
0.9048
 42
0.9048
 43
1.0000
 50
0.0000
  0
LINE
  8
16
 10
7.9375
 20
43.8150
 30
0.0000
 11
4.7600
 21
45.0850
 31
0.0000
  0
LINE
  8
16
 10
17.7850
 20
41.3600
 30
0.0000
 11
17.5525
 21
41.5925
 31
0.0000
  0
LINE
  8
16
 10
17.5525
 20
41.5925
 30
0.0000
 11
13.6525
 21
41.5925
 31
0.0000
  0
LINE
  8
16
 10
13.6525
 20
41.5925
 30
0.0000
 11
10.7950
 21
43.8150
 31
0.0000
  0
LINE
  8
16
 10
10.7950
 20
43.8150
 30
0.0000
 11
7.9375
 21
43.8150
 31
0.0000
  0
LINE
  8
16
 10
87.0966
 20
45.0850
 30
0.0000
 11
84.7725
 21
45.0850
 31
0.0000
  0
LINE
  8
16
 10
84.7725
 20
45.0850
 30
0.0000
 11
84.1375
 21
44.7675
 31
0.0000
  0
LINE
  8
16
 10
84.1375
 20
44.7675
 30
0.0000
 11
83.8200
 21
44.7675
 31
0.0000
  0
INSERT
  8
18
  2
ROUNDV
 10
83.8200
 20
44.7675
 30
0.0000
 41
0.9048
 42
0.9048
 43
1.0000
 50
0.0000
  0
LINE
  8
16
 10
69.5325
 20
29.2100
 30
0.0000
 11
66.8050
 21
29.2100
 31
0.0000
  0
LINE
  8
16
 10
66.8050
 20
29.2100
 30
0.0000
 11
66.7650
 21
29.2500
 31
0.0000
  0
LINE
  8
16
 10
12.3800
 20
27.4750
 30
0.0000
 11
12.2325
 21
27.6225
 31
0.0000
  0
LINE
  8
16
 10
12.2325
 20
27.6225
 30
0.0000
 11
12.3825
 21
25.4000
 31
0.0000
  0
LINE
  8
16
 10
82.5500
 20
36.1950
 30
0.0000
 11
84.7750
 21
36.1950
 31
0.0000
  0
INSERT
  8
18
  2
ROUNDV
 10
12.3825
 20
25.4000
 30
0.0000
 41
0.9048
 42
0.9048
 43
1.0000
 50
0.0000
  0
INSERT
  8
18
  2
ROUNDV
 10
82.5500
 20
36.1950
 30
0.0000
 41
0.9048
 42
0.9048
 43
1.0000
 50
0.0000
  0
LINE
  8
16
 10
86.6750
 20
36.1950
 30
0.0000
 11
86.6750
 21
34.9250
 31
0.0000
  0
LINE
  8
16
 10
86.6750
 20
34.9250
 30
0.0000
 11
89.8550
 21
34.9250
 31
0.0000
  0
LINE
  8
16
 10
93.2434
 20
46.3550
 30
0.0000
 11
91.1225
 21
46.3550
 31
0.0000
  0
LINE
  8
16
 10
91.1225
 20
46.3550
 30
0.0000
 11
89.5350
 21
48.8950
 31
0.0000
  0
LINE
  8
16
 10
89.5350
 20
48.8950
 30
0.0000
 11
89.2175
 21
49.7300
 31
0.0000
  0
LINE
  8
16
 10
86.9950
 20
38.0975
 30
0.0000
 11
86.6750
 21
36.1950
 31
0.0000
  0
LINE
  8
16
 10
88.4175
 20
50.3650
 30
0.0000
 11
89.2175
 21
49.7300
 31
0.0000
  0
INSERT
  8
18
  2
ROUNDV
 10
86.9950
 20
38.0975
 30
0.0000
 41
0.9048
 42
0.9048
 43
1.0000
 50
0.0000
  0
INSERT
  8
18
  2
ROUNDV
 10
88.4175
 20
50.3650
 30
0.0000
 41
0.9048
 42
0.9048
 43
1.0000
 50
0.0000
  0
LINE
  8
16
 10
10.1600
 20
32.7050
 30
0.0000
 11
10.7950
 21
31.5800
 31
0.0000
  0
LINE
  8
16
 10
10.7950
 20
31.5800
 30
0.0000
 11
11.4300
 21
29.6750
 31
0.0000
  0
LINE
  8
16
 10
2.5400
 20
19.3675
 30
0.0000
 11
2.5400
 21
21.9075
 31
0.0000
  0
LINE
  8
16
 10
6.6650
 20
35.5600
 30
0.0000
 11
8.2550
 21
35.5600
 31
0.0000
  0
LINE
  8
16
 10
8.2550
 20
35.5600
 30
0.0000
 11
9.2050
 21
35.5600
 31
0.0000
  0
LINE
  8
16
 10
9.2050
 20
35.5600
 30
0.0000
 11
10.1600
 21
34.6050
 31
0.0000
  0
LINE
  8
16
 10
8.0264
 20
26.1112
 30
0.0000
 11
8.0264
 21
29.6164
 31
0.0000
  0
LINE
  8
16
 10
8.0264
 20
29.6164
 30
0.0000
 11
8.2550
 21
30.4800
 31
0.0000
  0
LINE
  8
16
 10
8.2550
 20
30.4800
 30
0.0000
 11
8.2550
 21
35.5600
 31
0.0000
  0
LINE
  8
16
 10
89.0475
 20
32.7000
 30
0.0000
 11
91.5850
 21
32.7025
 31
0.0000
  0
LINE
  8
16
 10
91.5850
 20
32.7025
 30
0.0000
 11
91.7550
 21
34.9250
 31
0.0000
  0
LINE
  8
16
 10
10.3050
 20
20.3200
 30
0.0000
 11
10.3050
 21
22.0800
 31
0.0000
  0
LINE
  8
16
 10
10.3050
 20
22.0800
 30
0.0000
 11
10.1600
 21
22.2250
 31
0.0000
  0
LINE
  8
16
 10
5.7150
 20
26.1112
 30
0.0000
 11
5.7150
 21
31.7500
 31
0.0000
  0
LINE
  8
16
 10
5.7150
 20
26.1112
 30
0.0000
 11
5.7150
 21
24.7650
 31
0.0000
  0
LINE
  8
16
 10
5.7150
 20
24.7650
 30
0.0000
 11
8.2550
 21
22.2250
 31
0.0000
  0
LINE
  8
16
 10
8.2550
 20
22.2250
 30
0.0000
 11
10.1600
 21
22.2250
 31
0.0000
  0
INSERT
  8
18
  2
ROUNDV
 10
10.1600
 20
22.2250
 30
0.0000
 41
0.9048
 42
0.9048
 43
1.0000
 50
0.0000
  0
LINE
  8
16
 10
10.3050
 20
7.6200
 30
0.0000
 11
11.7475
 21
7.6200
 31
0.0000
  0
LINE
  8
16
 10
11.7475
 20
7.6200
 30
0.0000
 11
17.4625
 21
5.7150
 31
0.0000
  0
LINE
  8
16
 10
17.4625
 20
5.7150
 30
0.0000
 11
18.4150
 21
5.7150
 31
0.0000
  0
LINE
  8
16
 10
69.5325
 20
11.7475
 30
0.0000
 11
72.2625
 21
11.7475
 31
0.0000
  0
LINE
  8
16
 10
72.2625
 20
11.7475
 30
0.0000
 11
72.2650
 21
11.7500
 31
0.0000
  0
LINE
  8
16
 10
10.3050
 20
10.7950
 30
0.0000
 11
13.0000
 21
10.6325
 31
0.0000
  0
LINE
  8
16
 10
13.0000
 20
10.6325
 30
0.0000
 11
17.7850
 21
9.6800
 31
0.0000
  0
LINE
  8
16
 10
69.5325
 20
15.2400
 30
0.0000
 11
66.7750
 21
15.2400
 31
0.0000
  0
LINE
  8
16
 10
66.7750
 20
15.2400
 30
0.0000
 11
66.7650
 21
15.2500
 31
0.0000
  0
LINE
  8
16
 10
10.3050
 20
13.9700
 30
0.0000
 11
13.0175
 21
13.9700
 31
0.0000
  0
LINE
  8
16
 10
13.0175
 20
13.9700
 30
0.0000
 11
14.9100
 21
13.6400
 31
0.0000
  0
LINE
  8
16
 10
14.9100
 20
13.6400
 30
0.0000
 11
17.7850
 21
13.6400
 31
0.0000
  0
LINE
  8
16
 10
75.2475
 20
18.7325
 30
0.0000
 11
72.2825
 21
18.7325
 31
0.0000
  0
LINE
  8
16
 10
72.2825
 20
18.7325
 30
0.0000
 11
72.2650
 21
18.7500
 31
0.0000
  0
LINE
  8
16
 10
47.6250
 20
31.7500
 30
0.0000
 11
44.4500
 21
31.7500
 31
0.0000
  0
LINE
  8
16
 10
44.4500
 20
31.4325
 30
0.0000
 11
32.0675
 21
31.4325
 31
0.0000
  0
LINE
  8
16
 10
45.6565
 20
24.4450
 30
0.0000
 11
45.6565
 21
26.2890
 31
0.0000
  0
LINE
  8
16
 10
44.4500
 20
31.7500
 30
0.0000
 11
44.4500
 21
31.4325
 31
0.0000
  0
LINE
  8
16
 10
44.4500
 20
31.4325
 30
0.0000
 11
44.4500
 21
28.5750
 31
0.0000
  0
INSERT
  8
18
  2
ROUNDV
 10
45.6565
 20
26.2890
 30
0.0000
 41
0.9048
 42
0.9048
 43
1.0000
 50
0.0000
  0
INSERT
  8
18
  2
ROUNDV
 10
32.0675
 20
31.4325
 30
0.0000
 41
0.9048
 42
0.9048
 43
1.0000
 50
0.0000
  0
LINE
  8
16
 10
45.6565
 20
22.5450
 30
0.0000
 11
41.9100
 21
23.4950
 31
0.0000
  0
LINE
  8
16
 10
45.6565
 20
22.5450
 30
0.0000
 11
48.4505
 21
22.5425
 31
0.0000
  0
LINE
  8
16
 10
48.4505
 20
22.5425
 30
0.0000
 11
49.4030
 21
20.3200
 31
0.0000
  0
LINE
  8
16
 10
49.4030
 20
20.3200
 30
0.0000
 11
52.0700
 21
20.3200
 31
0.0000
  0
LINE
  8
16
 10
52.0700
 20
20.3200
 30
0.0000
 11
52.0700
 21
18.4750
 31
0.0000
  0
LINE
  8
16
 10
26.6700
 20
15.3000
 30
0.0000
 11
26.6700
 21
18.7325
 31
0.0000
  0
LINE
  8
16
 10
26.6700
 20
18.7325
 30
0.0000
 11
31.4325
 21
21.5900
 31
0.0000
  0
LINE
  8
16
 10
31.4325
 20
21.5900
 30
0.0000
 11
36.8300
 21
23.4950
 31
0.0000
  0
LINE
  8
16
 10
36.8300
 20
23.4950
 30
0.0000
 11
41.9100
 21
23.4950
 31
0.0000
  0
LINE
  8
16
 10
7.9375
 20
46.3550
 30
0.0000
 11
4.7600
 21
47.9425
 31
0.0000
  0
LINE
  8
16
 10
17.7850
 20
45.3200
 30
0.0000
 11
17.7025
 21
45.4025
 31
0.0000
  0
LINE
  8
16
 10
17.7025
 20
45.4025
 30
0.0000
 11
13.9700
 21
45.4025
 31
0.0000
  0
LINE
  8
16
 10
13.9700
 20
45.4025
 30
0.0000
 11
10.7950
 21
46.3550
 31
0.0000
  0
LINE
  8
16
 10
10.7950
 20
46.3550
 30
0.0000
 11
7.9375
 21
46.3550
 31
0.0000
  0
LINE
  8
16
 10
87.0966
 20
43.8150
 30
0.0000
 11
84.7725
 21
43.8150
 31
0.0000
  0
LINE
  8
16
 10
84.7725
 20
43.8150
 30
0.0000
 11
84.1375
 21
43.4975
 31
0.0000
  0
LINE
  8
16
 10
84.1375
 20
43.4975
 30
0.0000
 11
82.5500
 21
43.4975
 31
0.0000
  0
LINE
  8
16
 10
82.5500
 20
43.4975
 30
0.0000
 11
79.6925
 21
45.0850
 31
0.0000
  0
LINE
  8
16
 10
79.6925
 20
45.0850
 30
0.0000
 11
79.0575
 21
46.6725
 31
0.0000
  0
INSERT
  8
18
  2
ROUNDV
 10
79.0575
 20
46.6725
 30
0.0000
 41
0.9048
 42
0.9048
 43
1.0000
 50
0.0000
  0
LINE
  8
16
 10
86.6800
 20
28.5750
 30
0.0000
 11
85.0950
 21
29.5250
 31
0.0000
  0
LINE
  8
16
 10
85.0950
 20
29.5250
 30
0.0000
 11
83.6500
 21
30.1600
 31
0.0000
  0
LINE
  8
16
 10
72.2650
 20
32.7500
 30
0.0000
 11
69.5325
 21
33.3375
 31
0.0000
  0
LINE
  8
16
 10
69.5325
 20
33.3375
 30
0.0000
 11
69.3850
 21
33.1900
 31
0.0000
  0
LINE
  8
16
 10
69.3850
 20
33.1900
 30
0.0000
 11
69.0450
 21
33.1900
 31
0.0000
  0
LINE
  8
16
 10
69.0450
 20
33.1900
 30
0.0000
 11
64.4525
 21
33.0200
 31
0.0000
  0
LINE
  8
16
 10
64.4525
 20
33.0200
 30
0.0000
 11
62.3750
 21
33.0200
 31
0.0000
  0
LINE
  8
16
 10
77.5600
 20
36.2500
 30
0.0000
 11
75.1925
 21
36.2500
 31
0.0000
  0
LINE
  8
16
 10
75.1925
 20
36.2500
 30
0.0000
 11
74.9300
 21
36.5125
 31
0.0000
  0
LINE
  8
16
 10
74.9300
 20
36.5125
 30
0.0000
 11
70.9425
 21
36.6900
 31
0.0000
  0
LINE
  8
16
 10
70.9425
 20
36.6900
 30
0.0000
 11
69.2150
 21
38.1000
 31
0.0000
  0
LINE
  8
16
 10
69.2150
 20
38.1000
 30
0.0000
 11
64.7700
 21
38.1000
 31
0.0000
  0
LINE
  8
16
 10
64.7700
 20
38.1000
 30
0.0000
 11
63.5000
 21
36.8300
 31
0.0000
  0
LINE
  8
16
 10
63.5000
 20
36.8300
 30
0.0000
 11
58.4200
 21
36.8300
 31
0.0000
  0
LINE
  8
16
 10
58.4200
 20
36.8300
 30
0.0000
 11
58.4200
 21
39.2250
 31
0.0000
  0
LINE
  8
16
 10
58.4200
 20
39.2250
 30
0.0000
 11
58.2750
 21
39.3700
 31
0.0000
  0
INSERT
  8
18
  2
ROUNDV
 10
58.4200
 20
36.8300
 30
0.0000
 41
1.1176
 42
1.1176
 43
1.0000
 50
0.0000
  0
LINE
  8
16
 10
58.2750
 20
42.5450
 30
0.0000
 11
58.1250
 21
43.5200
 31
0.0000
  0
LINE
  8
16
 10
60.6425
 20
45.0850
 30
0.0000
 11
68.8975
 21
45.0850
 31
0.0000
  0
LINE
  8
16
 10
68.8975
 20
45.0850
 30
0.0000
 11
70.1675
 21
43.4975
 31
0.0000
  0
LINE
  8
16
 10
70.1675
 20
43.4975
 30
0.0000
 11
74.6125
 21
43.4975
 31
0.0000
  0
LINE
  8
16
 10
74.6125
 20
43.4975
 30
0.0000
 11
74.9300
 21
43.1800
 31
0.0000
  0
LINE
  8
16
 10
74.9300
 20
43.1800
 30
0.0000
 11
76.8000
 21
43.1800
 31
0.0000
  0
LINE
  8
16
 10
76.8000
 20
43.1800
 30
0.0000
 11
77.5600
 21
43.2500
 31
0.0000
  0
LINE
  8
16
 10
58.1250
 20
43.5200
 30
0.0000
 11
60.6425
 21
45.0850
 31
0.0000
  0
LINE
  8
16
 10
58.2750
 20
42.5450
 30
0.0000
 11
56.1975
 21
42.5450
 31
0.0000
  0
LINE
  8
16
 10
56.1975
 20
42.5450
 30
0.0000
 11
56.1975
 21
35.2425
 31
0.0000
  0
INSERT
  8
18
  2
ROUNDV
 10
56.1975
 20
35.2425
 30
0.0000
 41
0.9048
 42
0.9048
 43
1.0000
 50
0.0000
  0
LINE
  8
16
 10
62.3750
 20
39.3700
 30
0.0000
 11
63.1600
 21
41.2750
 31
0.0000
  0
LINE
  8
16
 10
63.1600
 20
41.2750
 30
0.0000
 11
62.3750
 21
42.5450
 31
0.0000
  0
LINE
  8
16
 10
83.0600
 20
39.7500
 30
0.0000
 11
80.3275
 21
39.0525
 31
0.0000
  0
LINE
  8
16
 10
80.3275
 20
39.0525
 30
0.0000
 11
77.9780
 21
39.1160
 31
0.0000
  0
LINE
  8
16
 10
77.9780
 20
39.1160
 30
0.0000
 11
76.5865
 21
40.5075
 31
0.0000
  0
LINE
  8
16
 10
76.5865
 20
40.5075
 30
0.0000
 11
74.6125
 21
41.5925
 31
0.0000
  0
LINE
  8
16
 10
74.6125
 20
41.5925
 30
0.0000
 11
69.8500
 21
41.5925
 31
0.0000
  0
LINE
  8
16
 10
69.8500
 20
41.5925
 30
0.0000
 11
69.5325
 21
41.2750
 31
0.0000
  0
LINE
  8
16
 10
69.5325
 20
41.2750
 30
0.0000
 11
63.1600
 21
41.2750
 31
0.0000
  0
LINE
  8
16
 10
33.2080
 20
5.7150
 30
0.0000
 11
33.6550
 21
5.7150
 31
0.0000
  0
LINE
  8
16
 10
33.6550
 20
5.7150
 30
0.0000
 11
35.5600
 21
7.8740
 31
0.0000
  0
LINE
  8
16
 10
35.5600
 20
7.8740
 30
0.0000
 11
35.5600
 21
10.7950
 31
0.0000
  0
LINE
  8
16
 10
35.5600
 20
10.7950
 30
0.0000
 11
37.7825
 21
13.0175
 31
0.0000
  0
LINE
  8
16
 10
37.7825
 20
13.0175
 30
0.0000
 11
38.8625
 21
13.0175
 31
0.0000
  0
LINE
  8
16
 10
38.8625
 20
13.0175
 30
0.0000
 11
39.4850
 21
13.6400
 31
0.0000
  0
LINE
  8
16
 10
26.6700
 20
10.1000
 30
0.0000
 11
26.8000
 21
5.6550
 31
0.0000
  0
LINE
  8
16
 10
26.8000
 20
5.6550
 30
0.0000
 11
26.1650
 21
5.7150
 31
0.0000
  0
LINE
  8
16
 10
26.1650
 20
5.7150
 30
0.0000
 11
28.5750
 21
5.7150
 31
0.0000
  0
LINE
  8
16
 10
28.5750
 20
5.7150
 30
0.0000
 11
28.8925
 21
5.7150
 31
0.0000
  0
LINE
  8
16
 10
28.8925
 20
5.7150
 30
0.0000
 11
28.2575
 21
5.3975
 31
0.0000
  0
LINE
  8
16
 10
28.2575
 20
5.3975
 30
0.0000
 11
28.5750
 21
5.7150
 31
0.0000
  0
LINE
  8
16
 10
28.8925
 20
5.7150
 30
0.0000
 11
31.3080
 21
5.7150
 31
0.0000
  0
LINE
  8
16
 10
27.9400
 20
10.1000
 30
0.0000
 11
27.6225
 21
11.7475
 31
0.0000
  0
LINE
  8
16
 10
27.6225
 20
11.7475
 30
0.0000
 11
27.3075
 21
12.0650
 31
0.0000
  0
LINE
  8
16
 10
27.3075
 20
12.0650
 30
0.0000
 11
22.8600
 21
12.0625
 31
0.0000
  0
LINE
  8
16
 10
34.7550
 20
17.7800
 30
0.0000
 11
37.4000
 21
17.7800
 31
0.0000
  0
LINE
  8
16
 10
37.4000
 20
17.7800
 30
0.0000
 11
39.4850
 21
17.6000
 31
0.0000
  0
LINE
  8
16
 10
75.1840
 20
33.7820
 30
0.0000
 11
73.3425
 21
34.9250
 31
0.0000
  0
LINE
  8
16
 10
73.3425
 20
34.9250
 30
0.0000
 11
72.3900
 21
34.9250
 31
0.0000
  0
INSERT
  8
18
  2
ROUNDV
 10
72.3900
 20
34.9250
 30
0.0000
 41
0.9048
 42
0.9048
 43
1.0000
 50
0.0000
  0
LINE
  8
16
 10
29.2100
 20
10.1000
 30
0.0000
 11
29.7850
 21
10.1000
 31
0.0000
  0
LINE
  8
16
 10
29.7850
 20
10.1000
 30
0.0000
 11
30.1625
 21
9.5250
 31
0.0000
  0
LINE
  8
16
 10
30.1625
 20
9.5250
 30
0.0000
 11
32.0700
 21
9.2075
 31
0.0000
  0
LINE
  8
16
 10
33.9700
 20
13.0175
 30
0.0000
 11
33.9725
 21
14.6025
 31
0.0000
  0
LINE
  8
16
 10
33.9725
 20
14.6025
 30
0.0000
 11
33.9700
 21
9.2075
 31
0.0000
  0
LINE
  8
16
 10
32.5550
 20
16.8300
 30
0.0000
 11
32.5550
 21
15.3875
 31
0.0000
  0
LINE
  8
16
 10
32.5550
 20
15.3875
 30
0.0000
 11
32.7025
 21
15.2400
 31
0.0000
  0
LINE
  8
16
 10
32.7025
 20
15.2400
 30
0.0000
 11
33.9725
 21
14.6025
 31
0.0000
  0
LINE
  8
16
 10
54.6100
 20
28.5750
 30
0.0000
 11
51.7525
 21
28.5750
 31
0.0000
  0
LINE
  8
16
 10
51.7525
 20
28.5750
 30
0.0000
 11
50.1650
 21
29.5275
 31
0.0000
  0
LINE
  8
16
 10
50.1650
 20
29.5275
 30
0.0000
 11
50.1650
 21
31.7500
 31
0.0000
  0
LINE
  8
16
 10
54.6100
 20
22.5450
 30
0.0000
 11
53.3400
 21
22.5450
 31
0.0000
  0
LINE
  8
16
 10
53.3400
 20
22.5450
 30
0.0000
 11
50.8000
 21
22.5450
 31
0.0000
  0
LINE
  8
16
 10
53.3400
 20
18.4750
 30
0.0000
 11
53.3400
 21
22.5450
 31
0.0000
  0
LINE
  8
16
 10
54.6100
 20
18.4750
 30
0.0000
 11
54.6100
 21
20.0025
 31
0.0000
  0
LINE
  8
16
 10
54.6100
 20
20.0025
 30
0.0000
 11
55.2450
 21
20.8915
 31
0.0000
  0
LINE
  8
16
 10
55.2450
 20
20.8915
 30
0.0000
 11
55.8800
 21
20.8915
 31
0.0000
  0
LINE
  8
16
 10
55.8800
 20
20.8915
 30
0.0000
 11
56.5150
 21
21.5265
 31
0.0000
  0
LINE
  8
16
 10
56.5150
 20
21.5265
 30
0.0000
 11
56.5150
 21
23.3585
 31
0.0000
  0
LINE
  8
16
 10
22.5425
 20
34.2900
 30
0.0000
 11
23.4950
 21
34.9250
 31
0.0000
  0
LINE
  8
16
 10
23.4950
 20
34.9250
 30
0.0000
 11
23.4950
 21
35.8800
 31
0.0000
  0
INSERT
  8
18
  2
ROUNDV
 10
56.5150
 20
23.3585
 30
0.0000
 41
0.9048
 42
0.9048
 43
1.0000
 50
0.0000
  0
INSERT
  8
18
  2
ROUNDV
 10
22.5425
 20
34.2900
 30
0.0000
 41
0.9048
 42
0.9048
 43
1.0000
 50
0.0000
  0
LINE
  8
16
 10
26.6700
 20
42.8600
 30
0.0000
 11
26.6700
 21
44.4500
 31
0.0000
  0
LINE
  8
16
 10
26.6700
 20
44.4500
 30
0.0000
 11
27.3050
 21
45.0850
 31
0.0000
  0
LINE
  8
16
 10
27.3050
 20
45.0850
 30
0.0000
 11
27.3050
 21
47.4550
 31
0.0000
  0
LINE
  8
16
 10
27.3050
 20
47.4550
 30
0.0000
 11
27.1350
 21
47.6250
 31
0.0000
  0
LINE
  8
16
 10
88.1380
 20
8.8900
 30
0.0000
 11
88.9000
 21
8.8900
 31
0.0000
  0
LINE
  8
16
 10
88.9000
 20
8.8900
 30
0.0000
 11
89.6620
 21
8.1280
 31
0.0000
  0
LINE
  8
16
 10
24.9350
 20
46.6750
 30
0.0000
 11
25.0825
 21
46.6725
 31
0.0000
  0
LINE
  8
16
 10
25.0825
 20
46.6725
 30
0.0000
 11
25.0825
 21
39.3725
 31
0.0000
  0
LINE
  8
16
 10
25.0825
 20
39.3725
 30
0.0000
 11
23.4950
 21
39.3725
 31
0.0000
  0
LINE
  8
16
 10
23.4950
 20
39.3725
 30
0.0000
 11
23.4950
 21
40.9600
 31
0.0000
  0
LINE
  8
16
 10
23.4950
 20
37.7800
 30
0.0000
 11
23.4950
 21
39.3725
 31
0.0000
  0
LINE
  8
16
 10
32.0675
 20
43.1038
 30
0.0000
 11
32.0675
 21
36.8300
 31
0.0000
  0
LINE
  8
16
 10
32.0675
 20
43.1038
 30
0.0000
 11
32.0675
 21
45.4000
 31
0.0000
  0
LINE
  8
16
 10
32.0675
 20
45.4000
 30
0.0000
 11
31.7525
 21
47.3075
 31
0.0000
  0
LINE
  8
16
 10
32.0675
 20
36.8300
 30
0.0000
 11
33.3375
 21
36.8300
 31
0.0000
  0
LINE
  8
16
 10
33.3375
 20
36.8300
 30
0.0000
 11
33.3375
 21
34.9250
 31
0.0000
  0
INSERT
  8
18
  2
ROUNDV
 10
33.3375
 20
34.9250
 30
0.0000
 41
0.9048
 42
0.9048
 43
1.0000
 50
0.0000
  0
LINE
  8
16
 10
29.7561
 20
43.1038
 30
0.0000
 11
29.7561
 21
39.5986
 31
0.0000
  0
LINE
  8
16
 10
29.7561
 20
39.5986
 30
0.0000
 11
29.5275
 21
39.3700
 31
0.0000
  0
LINE
  8
16
 10
29.5275
 20
39.3700
 30
0.0000
 11
26.6700
 21
39.3700
 31
0.0000
  0
LINE
  8
16
 10
26.6700
 20
39.3700
 30
0.0000
 11
26.6700
 21
40.9600
 31
0.0000
  0
LINE
  8
16
 10
26.6700
 20
40.9600
 30
0.0000
 11
26.6700
 21
37.7800
 31
0.0000
  0
LINE
  8
16
 10
88.5800
 20
14.2875
 30
0.0000
 11
90.4875
 21
14.2875
 31
0.0000
  0
LINE
  8
16
 10
88.9000
 20
38.7350
 30
0.0000
 11
88.9000
 21
45.7200
 31
0.0000
  0
LINE
  8
16
 10
88.9000
 20
45.7200
 30
0.0000
 11
88.2650
 21
46.3550
 31
0.0000
  0
LINE
  8
16
 10
88.2650
 20
46.3550
 30
0.0000
 11
87.0966
 21
46.3550
 31
0.0000
  0
INSERT
  8
18
  2
ROUNDV
 10
90.4875
 20
14.2875
 30
0.0000
 41
1.1176
 42
1.1176
 43
1.0000
 50
0.0000
  0
INSERT
  8
18
  2
ROUNDV
 10
88.9000
 20
38.7350
 30
0.0000
 41
0.9048
 42
0.9048
 43
1.0000
 50
0.0000
  0
LINE
  8
16
 10
93.2434
 20
47.6250
 30
0.0000
 11
91.7575
 21
47.6250
 31
0.0000
  0
LINE
  8
16
 10
91.7575
 20
47.6250
 30
0.0000
 11
90.8050
 21
49.5300
 31
0.0000
  0
LINE
  8
16
 10
93.3450
 20
20.6375
 30
0.0000
 11
92.3925
 21
18.7300
 31
0.0000
  0
INSERT
  8
18
  2
ROUNDV
 10
90.8050
 20
49.5300
 30
0.0000
 41
0.9048
 42
0.9048
 43
1.0000
 50
0.0000
  0
INSERT
  8
18
  2
ROUNDV
 10
93.3450
 20
20.6375
 30
0.0000
 41
1.1176
 42
1.1176
 43
1.0000
 50
0.0000
  0
LINE
  8
16
 10
81.1325
 20
22.2250
 30
0.0000
 11
80.1550
 21
22.2500
 31
0.0000
  0
LINE
  8
16
 10
80.1550
 20
22.2500
 30
0.0000
 11
77.5600
 21
22.2500
 31
0.0000
  0
LINE
  8
16
 10
77.5600
 20
22.2500
 30
0.0000
 11
77.5600
 21
23.9025
 31
0.0000
  0
LINE
  8
16
 10
77.5600
 20
23.9025
 30
0.0000
 11
77.7875
 21
24.1300
 31
0.0000
  0
LINE
  8
16
 10
58.4200
 20
23.4925
 30
0.0000
 11
58.4200
 21
24.6825
 31
0.0000
  0
LINE
  8
16
 10
58.4200
 20
24.6825
 30
0.0000
 11
55.2475
 21
24.6825
 31
0.0000
  0
LINE
  8
16
 10
55.2475
 20
24.6825
 30
0.0000
 11
54.6100
 21
24.4450
 31
0.0000
  0
LINE
  8
16
 10
25.4000
 20
15.3000
 30
0.0000
 11
25.4000
 21
19.3675
 31
0.0000
  0
LINE
  8
16
 10
25.4000
 20
19.3675
 30
0.0000
 11
28.2575
 21
20.9550
 31
0.0000
  0
LINE
  8
16
 10
28.2575
 20
20.9550
 30
0.0000
 11
33.9725
 21
23.8125
 31
0.0000
  0
LINE
  8
16
 10
33.9725
 20
23.8125
 30
0.0000
 11
36.5125
 21
27.4638
 31
0.0000
  0
LINE
  8
16
 10
42.2275
 20
27.4638
 30
0.0000
 11
36.5125
 21
27.4638
 31
0.0000
  0
LINE
  8
16
 10
54.6100
 20
24.4450
 30
0.0000
 11
52.7050
 21
24.4475
 31
0.0000
  0
LINE
  8
16
 10
43.4975
 20
25.4000
 30
0.0000
 11
43.4975
 21
25.8763
 31
0.0000
  0
LINE
  8
16
 10
43.4975
 20
25.8763
 30
0.0000
 11
42.2275
 21
27.4638
 31
0.0000
  0
INSERT
  8
18
  2
ROUNDV
 10
52.7050
 20
24.4475
 30
0.0000
 41
0.9048
 42
0.9048
 43
1.0000
 50
0.0000
  0
INSERT
  8
18
  2
ROUNDV
 10
43.4975
 20
25.4000
 30
0.0000
 41
0.9048
 42
0.9048
 43
1.0000
 50
0.0000
  0
LINE
  8
16
 10
43.8175
 20
15.8750
 30
0.0000
 11
43.8150
 21
15.8750
 31
0.0000
  0
LINE
  8
16
 10
43.8150
 20
15.8750
 30
0.0000
 11
42.2275
 21
15.7163
 31
0.0000
  0
LINE
  8
16
 10
42.2275
 20
15.7163
 30
0.0000
 11
34.6075
 21
15.7163
 31
0.0000
  0
LINE
  8
16
 10
27.9400
 20
17.7800
 30
0.0000
 11
27.9400
 21
15.3000
 31
0.0000
  0
INSERT
  8
18
  2
ROUNDV
 10
34.6075
 20
15.7163
 30
0.0000
 41
0.9048
 42
0.9048
 43
1.0000
 50
0.0000
  0
INSERT
  8
18
  2
ROUNDV
 10
27.9400
 20
17.7800
 30
0.0000
 41
0.9048
 42
0.9048
 43
1.0000
 50
0.0000
  0
LINE
  8
16
 10
55.8800
 20
13.2750
 30
0.0000
 11
55.8800
 21
10.4775
 31
0.0000
  0
LINE
  8
16
 10
55.8800
 20
10.4775
 30
0.0000
 11
57.7850
 21
10.4750
 31
0.0000
  0
LINE
  8
16
 10
53.9725
 20
4.1275
 30
0.0000
 11
55.8800
 21
5.0800
 31
0.0000
  0
LINE
  8
16
 10
55.8800
 20
5.0800
 30
0.0000
 11
55.8800
 21
10.4775
 31
0.0000
  0
LINE
  8
16
 10
46.0350
 20
3.6625
 30
0.0000
 11
48.5775
 21
5.0775
 31
0.0000
  0
LINE
  8
16
 10
48.5775
 20
5.0775
 30
0.0000
 11
51.1200
 21
4.1275
 31
0.0000
  0
LINE
  8
16
 10
51.1200
 20
4.1275
 30
0.0000
 11
52.0725
 21
4.1275
 31
0.0000
  0
LINE
  8
16
 10
48.8950
 20
17.1425
 30
0.0000
 11
46.9900
 21
17.1450
 31
0.0000
  0
LINE
  8
16
 10
46.9900
 20
17.1450
 30
0.0000
 11
45.7200
 21
15.8750
 31
0.0000
  0
LINE
  8
16
 10
45.7200
 20
15.8750
 30
0.0000
 11
45.7175
 21
15.8750
 31
0.0000
  0
LINE
  8
16
 10
44.7675
 20
11.9775
 30
0.0000
 11
45.4025
 21
12.7000
 31
0.0000
  0
LINE
  8
16
 10
45.4025
 20
12.7000
 30
0.0000
 11
45.7200
 21
13.6525
 31
0.0000
  0
LINE
  8
16
 10
45.7200
 20
13.6525
 30
0.0000
 11
45.7200
 21
13.6550
 31
0.0000
  0
LINE
  8
16
 10
45.7200
 20
13.6550
 30
0.0000
 11
45.7175
 21
15.8750
 31
0.0000
  0
LINE
  8
16
 10
53.3400
 20
13.2750
 30
0.0000
 11
53.3400
 21
15.2400
 31
0.0000
  0
LINE
  8
16
 10
53.3400
 20
15.2400
 30
0.0000
 11
48.8950
 21
15.2425
 31
0.0000
  0
LINE
  8
16
 10
48.8950
 20
15.2425
 30
0.0000
 11
48.8925
 21
15.2425
 31
0.0000
  0
LINE
  8
16
 10
48.8925
 20
15.2425
 30
0.0000
 11
48.8950
 21
12.3825
 31
0.0000
  0
LINE
  8
16
 10
48.5775
 20
11.9775
 30
0.0000
 11
48.5775
 21
12.0650
 31
0.0000
  0
LINE
  8
16
 10
48.5775
 20
12.0650
 30
0.0000
 11
48.8950
 21
12.3825
 31
0.0000
  0
LINE
  8
16
 10
54.6100
 20
13.2750
 30
0.0000
 11
54.6100
 21
15.2400
 31
0.0000
  0
LINE
  8
16
 10
54.6100
 20
15.2400
 30
0.0000
 11
58.4200
 21
15.2400
 31
0.0000
  0
LINE
  8
16
 10
58.4200
 20
15.2400
 30
0.0000
 11
58.4200
 21
16.1950
 31
0.0000
  0
LINE
  8
16
 10
53.9725
 20
6.9850
 30
0.0000
 11
53.9750
 21
9.8425
 31
0.0000
  0
LINE
  8
16
 10
53.9750
 20
9.8425
 30
0.0000
 11
54.6100
 21
11.4300
 31
0.0000
  0
LINE
  8
16
 10
54.6100
 20
11.4300
 30
0.0000
 11
54.6100
 21
13.2750
 31
0.0000
  0
LINE
  8
16
 10
57.7850
 20
5.3950
 30
0.0000
 11
57.7850
 21
8.5750
 31
0.0000
  0
LINE
  8
16
 10
57.7850
 20
8.5750
 30
0.0000
 11
61.2775
 21
8.5725
 31
0.0000
  0
LINE
  8
16
 10
61.2775
 20
8.5725
 30
0.0000
 11
61.2775
 21
19.5175
 31
0.0000
  0
LINE
  8
16
 10
61.2775
 20
19.5175
 30
0.0000
 11
63.1825
 21
22.5425
 31
0.0000
  0
LINE
  8
16
 10
63.1825
 20
22.5425
 30
0.0000
 11
64.7725
 21
24.7675
 31
0.0000
  0
LINE
  8
16
 10
64.7725
 20
24.7675
 30
0.0000
 11
65.8925
 21
24.7675
 31
0.0000
  0
LINE
  8
16
 10
45.0850
 20
5.8625
 30
0.0000
 11
45.8675
 21
5.8625
 31
0.0000
  0
LINE
  8
16
 10
45.8675
 20
5.8625
 30
0.0000
 11
46.6725
 21
6.6675
 31
0.0000
  0
LINE
  8
16
 10
46.6725
 20
6.6675
 30
0.0000
 11
52.2150
 21
6.8150
 31
0.0000
  0
LINE
  8
16
 10
52.2150
 20
6.8150
 30
0.0000
 11
52.0725
 21
6.9850
 31
0.0000
  0
LINE
  8
16
 10
86.8475
 20
24.7650
 30
0.0000
 11
84.2750
 21
25.7500
 31
0.0000
  0
LINE
  8
16
 10
84.2750
 20
25.7500
 30
0.0000
 11
83.0600
 21
25.7500
 31
0.0000
  0
LINE
  8
16
 10
80.3275
 20
25.7175
 30
0.0000
 11
83.0275
 21
25.7175
 31
0.0000
  0
LINE
  8
16
 10
83.0275
 20
25.7175
 30
0.0000
 11
83.0600
 21
25.7500
 31
0.0000
  0
LINE
  8
16
 10
86.6800
 20
21.5900
 30
0.0000
 11
85.0950
 21
22.5400
 31
0.0000
  0
LINE
  8
16
 10
85.0950
 20
22.5400
 30
0.0000
 11
83.3325
 21
23.1750
 31
0.0000
  0
LINE
  8
16
 10
83.0600
 20
32.7500
 30
0.0000
 11
83.1075
 21
32.7025
 31
0.0000
  0
LINE
  8
16
 10
83.1075
 20
32.7025
 30
0.0000
 11
85.0900
 21
32.7025
 31
0.0000
  0
LINE
  8
16
 10
85.0900
 20
32.7025
 30
0.0000
 11
85.5775
 21
32.5550
 31
0.0000
  0
LINE
  8
16
 10
85.5775
 20
32.5550
 30
0.0000
 11
86.8475
 21
31.7500
 31
0.0000
  0
LINE
  8
16
 10
80.3275
 20
32.7025
 30
0.0000
 11
83.0125
 21
32.7025
 31
0.0000
  0
LINE
  8
16
 10
83.0125
 20
32.7025
 30
0.0000
 11
83.0600
 21
32.7500
 31
0.0000
  0
LINE
  8
16
 10
74.8665
 20
39.1795
 30
0.0000
 11
72.2025
 21
39.6875
 31
0.0000
  0
LINE
  8
16
 10
65.4050
 20
39.6875
 30
0.0000
 11
72.2025
 21
39.6875
 31
0.0000
  0
LINE
  8
16
 10
72.2025
 20
39.6875
 30
0.0000
 11
72.2650
 21
39.7500
 31
0.0000
  0
INSERT
  8
18
  2
ROUNDV
 10
65.4050
 20
39.6875
 30
0.0000
 41
0.9048
 42
0.9048
 43
1.0000
 50
0.0000
  0
LINE
  8
16
 10
6.2050
 20
17.1450
 30
0.0000
 11
3.4925
 21
16.8275
 31
0.0000
  0
LINE
  8
16
 10
3.4925
 20
16.8275
 30
0.0000
 11
2.5400
 21
13.9700
 31
0.0000
  0
LINE
  8
16
 10
2.5400
 20
13.9700
 30
0.0000
 11
2.5400
 21
1.5875
 31
0.0000
  0
LINE
  8
16
 10
10.3050
 20
17.1450
 30
0.0000
 11
17.7850
 21
17.1450
 31
0.0000
  0
LINE
  8
16
 10
17.7850
 20
17.1450
 30
0.0000
 11
17.7850
 21
17.6000
 31
0.0000
  0
LINE
  8
16
 10
64.1350
 20
21.2725
 30
0.0000
 11
64.1350
 21
21.3610
 31
0.0000
  0
LINE
  8
16
 10
64.1350
 20
21.3610
 30
0.0000
 11
65.0240
 21
22.2500
 31
0.0000
  0
LINE
  8
16
 10
65.0240
 20
22.2500
 30
0.0000
 11
66.7650
 21
22.2500
 31
0.0000
  0
LINE
  8
16
 10
92.3925
 20
24.1325
 30
0.0000
 11
89.5400
 21
25.7150
 31
0.0000
  0
LINE
  8
16
 10
89.5400
 20
25.7150
 30
0.0000
 11
89.0475
 21
25.7150
 31
0.0000
  0
LINE
  8
16
 10
92.3925
 20
16.8300
 30
0.0000
 11
90.8050
 21
17.1450
 31
0.0000
  0
LINE
  8
16
 10
90.8050
 20
17.1450
 30
0.0000
 11
90.4925
 21
19.0475
 31
0.0000
  0
LINE
  8
16
 10
90.4925
 20
19.0475
 30
0.0000
 11
89.0475
 21
19.0475
 31
0.0000
  0
LINE
  8
16
 10
81.0387
 20
4.1275
 30
0.0000
 11
83.8200
 21
4.1275
 31
0.0000
  0
LINE
  8
16
 10
83.8200
 20
4.1275
 30
0.0000
 11
86.6775
 21
4.1275
 31
0.0000
  0
LINE
  8
16
 10
83.0600
 20
11.7500
 30
0.0000
 11
83.6950
 21
11.5550
 31
0.0000
  0
LINE
  8
16
 10
83.6950
 20
11.5550
 30
0.0000
 11
83.6950
 21
10.9200
 31
0.0000
  0
LINE
  8
16
 10
83.6950
 20
10.9200
 30
0.0000
 11
83.8200
 21
8.8900
 31
0.0000
  0
LINE
  8
16
 10
83.8200
 20
8.8900
 30
0.0000
 11
83.8200
 21
4.1275
 31
0.0000
  0
LINE
  8
16
 10
72.2650
 20
25.7500
 30
0.0000
 11
68.7600
 21
25.7500
 31
0.0000
  0
LINE
  8
16
 10
68.7600
 20
25.7500
 30
0.0000
 11
68.0925
 21
25.7175
 31
0.0000
  0
LINE
  8
16
 10
74.9300
 20
25.7175
 30
0.0000
 11
72.2975
 21
25.7175
 31
0.0000
  0
LINE
  8
16
 10
72.2975
 20
25.7175
 30
0.0000
 11
72.2650
 21
25.7500
 31
0.0000
  0
LINE
  8
16
 10
88.5800
 20
28.5750
 30
0.0000
 11
92.7100
 21
30.4800
 31
0.0000
  0
LINE
  8
16
 10
92.7100
 20
30.4800
 30
0.0000
 11
93.3450
 21
31.1150
 31
0.0000
  0
LINE
  8
16
 10
93.3450
 20
31.1150
 30
0.0000
 11
93.6625
 21
31.7500
 31
0.0000
  0
LINE
  8
16
 10
93.6625
 20
31.7500
 30
0.0000
 11
93.6625
 21
36.1950
 31
0.0000
  0
LINE
  8
16
 10
93.6625
 20
36.1950
 30
0.0000
 11
91.4400
 21
38.4175
 31
0.0000
  0
LINE
  8
16
 10
91.4400
 20
38.4175
 30
0.0000
 11
91.4400
 21
42.5450
 31
0.0000
  0
LINE
  8
16
 10
91.4400
 20
42.5450
 30
0.0000
 11
93.2434
 21
42.5450
 31
0.0000
  0
INSERT
  8
18
  2
ROUNDV
 10
92.7100
 20
30.4800
 30
0.0000
 41
1.1176
 42
1.1176
 43
1.0000
 50
0.0000
  0
LINE
  8
16
 10
86.6800
 20
14.2875
 30
0.0000
 11
84.7775
 21
15.8725
 31
0.0000
  0
LINE
  8
16
 10
84.7775
 20
15.8725
 30
0.0000
 11
83.6500
 21
16.1900
 31
0.0000
  0
LINE
  8
16
 10
81.4500
 20
29.2100
 30
0.0000
 11
80.7750
 21
29.2500
 31
0.0000
  0
LINE
  8
16
 10
80.7750
 20
29.2500
 30
0.0000
 11
77.5600
 21
29.2500
 31
0.0000
  0
LINE
  8
16
 10
77.4700
 20
31.4325
 30
0.0000
 11
77.4700
 21
29.3400
 31
0.0000
  0
LINE
  8
16
 10
77.4700
 20
29.3400
 30
0.0000
 11
77.5600
 21
29.2500
 31
0.0000
  0
LINE
  8
16
 10
92.3925
 20
26.0325
 30
0.0000
 11
92.3925
 21
27.9400
 31
0.0000
  0
LINE
  8
16
 10
92.7100
 20
50.8000
 30
0.0000
 11
92.7100
 21
48.8950
 31
0.0000
  0
LINE
  8
16
 10
92.7100
 20
48.8950
 30
0.0000
 11
93.2434
 21
48.8950
 31
0.0000
  0
INSERT
  8
18
  2
ROUNDV
 10
92.3925
 20
27.9400
 30
0.0000
 41
1.1176
 42
1.1176
 43
1.0000
 50
0.0000
  0
INSERT
  8
18
  2
ROUNDV
 10
92.7100
 20
50.8000
 30
0.0000
 41
0.9048
 42
0.9048
 43
1.0000
 50
0.0000
  0
LINE
  8
16
 10
88.5800
 20
21.5900
 30
0.0000
 11
91.4400
 21
21.5900
 31
0.0000
  0
LINE
  8
16
 10
90.1700
 20
37.4650
 30
0.0000
 11
90.1700
 21
45.7200
 31
0.0000
  0
LINE
  8
16
 10
90.1700
 20
45.7200
 30
0.0000
 11
88.9000
 21
47.6250
 31
0.0000
  0
LINE
  8
16
 10
88.9000
 20
47.6250
 30
0.0000
 11
87.0966
 21
47.6250
 31
0.0000
  0
INSERT
  8
18
  2
ROUNDV
 10
91.4400
 20
21.5900
 30
0.0000
 41
1.1176
 42
1.1176
 43
1.0000
 50
0.0000
  0
INSERT
  8
18
  2
ROUNDV
 10
90.1700
 20
37.4650
 30
0.0000
 41
0.9048
 42
0.9048
 43
1.0000
 50
0.0000
  0
LINE
  8
16
 10
86.8475
 20
18.0975
 30
0.0000
 11
84.9250
 21
18.7500
 31
0.0000
  0
LINE
  8
16
 10
84.9250
 20
18.7500
 30
0.0000
 11
83.0600
 21
18.7500
 31
0.0000
  0
LINE
  8
16
 10
80.3275
 20
18.7325
 30
0.0000
 11
83.0425
 21
18.7325
 31
0.0000
  0
LINE
  8
16
 10
83.0425
 20
18.7325
 30
0.0000
 11
83.0600
 21
18.7500
 31
0.0000
  0
LINE
  8
16
 10
81.4500
 20
15.2400
 30
0.0000
 11
80.1700
 21
15.2500
 31
0.0000
  0
LINE
  8
16
 10
80.1700
 20
15.2500
 30
0.0000
 11
77.5600
 21
15.2500
 31
0.0000
  0
LINE
  8
16
 10
77.7875
 20
13.3350
 30
0.0000
 11
77.7875
 21
15.0225
 31
0.0000
  0
LINE
  8
16
 10
77.7875
 20
15.0225
 30
0.0000
 11
77.5600
 21
15.2500
 31
0.0000
  0
LINE
  8
16
 10
69.9262
 20
1.8161
 30
0.0000
 11
70.2564
 21
1.4986
 31
0.0000
  0
LINE
  8
16
 10
80.4926
 20
1.2700
 30
0.0000
 11
81.0387
 21
1.8161
 31
0.0000
  0
LINE
  8
16
 10
81.0387
 20
1.8161
 30
0.0000
 11
80.4164
 21
1.4986
 31
0.0000
  0
LINE
  8
16
 10
80.4164
 20
1.4986
 30
0.0000
 11
80.6450
 21
1.2700
 31
0.0000
  0
LINE
  8
16
 10
80.6450
 20
1.2700
 30
0.0000
 11
89.5350
 21
1.3335
 31
0.0000
  0
LINE
  8
16
 10
89.5350
 20
1.3335
 30
0.0000
 11
89.5350
 21
8.2550
 31
0.0000
  0
LINE
  8
16
 10
89.5350
 20
8.2550
 30
0.0000
 11
91.4400
 21
8.2550
 31
0.0000
  0
LINE
  8
16
 10
91.4400
 20
8.2550
 30
0.0000
 11
92.0750
 21
8.8900
 31
0.0000
  0
LINE
  8
16
 10
92.0750
 20
8.8900
 30
0.0000
 11
92.3290
 21
9.8450
 31
0.0000
  0
LINE
  8
16
 10
69.9262
 20
4.1275
 30
0.0000
 11
76.2000
 21
4.1275
 31
0.0000
  0
LINE
  8
16
 10
80.4926
 20
1.2700
 30
0.0000
 11
76.2000
 21
1.2700
 31
0.0000
  0
LINE
  8
16
 10
76.2000
 20
1.2700
 30
0.0000
 11
70.1548
 21
1.2700
 31
0.0000
  0
LINE
  8
16
 10
70.1548
 20
1.2700
 30
0.0000
 11
69.9262
 21
1.8161
 31
0.0000
  0
LINE
  8
16
 10
69.9262
 20
1.8161
 30
0.0000
 11
69.9262
 21
4.1275
 31
0.0000
  0
LINE
  8
16
 10
76.2000
 20
1.2700
 30
0.0000
 11
76.2000
 21
3.1750
 31
0.0000
  0
LINE
  8
16
 10
8.2550
 20
3.1750
 30
0.0000
 11
10.7950
 21
4.7625
 31
0.0000
  0
LINE
  8
16
 10
10.7950
 20
4.7625
 30
0.0000
 11
12.3825
 21
4.7625
 31
0.0000
  0
LINE
  8
16
 10
12.3825
 20
4.7625
 30
0.0000
 11
13.6525
 21
3.8100
 31
0.0000
  0
LINE
  8
16
 10
13.6525
 20
3.8100
 30
0.0000
 11
14.9225
 21
1.9050
 31
0.0000
  0
LINE
  8
16
 10
74.9300
 20
8.2550
 30
0.0000
 11
77.5550
 21
8.2550
 31
0.0000
  0
LINE
  8
16
 10
77.5550
 20
8.2550
 30
0.0000
 11
77.5600
 21
8.2500
 31
0.0000
  0
INSERT
  8
18
  2
ROUNDV
 10
14.9225
 20
1.9050
 30
0.0000
 41
0.9048
 42
0.9048
 43
1.0000
 50
0.0000
  0
INSERT
  8
18
  2
ROUNDV
 10
8.2550
 20
3.1750
 30
0.0000
 41
0.9048
 42
0.9048
 43
1.0000
 50
0.0000
  0
LINE
  8
16
 10
35.0520
 20
47.2440
 30
0.0000
 11
35.0520
 21
45.9740
 31
0.0000
  0
LINE
  8
16
 10
35.0520
 20
45.9740
 30
0.0000
 11
34.5440
 21
45.4660
 31
0.0000
  0
LINE
  8
16
 10
69.9262
 20
6.4389
 30
0.0000
 11
68.9229
 21
6.4389
 31
0.0000
  0
LINE
  8
16
 10
68.9229
 20
6.4389
 30
0.0000
 11
68.0720
 21
5.5880
 31
0.0000
  0
LINE
  8
16
 10
68.0720
 20
5.5880
 30
0.0000
 11
67.2440
 21
5.5880
 31
0.0000
  0
LINE
  8
16
 10
81.0387
 20
6.4389
 30
0.0000
 11
81.0387
 21
9.3193
 31
0.0000
  0
LINE
  8
16
 10
81.0387
 20
9.3193
 30
0.0000
 11
79.4360
 21
10.9220
 31
0.0000
  0
LINE
  8
16
 10
58.4200
 20
18.0950
 30
0.0000
 11
58.4200
 21
19.1770
 31
0.0000
  0
LINE
  8
16
 10
58.4200
 20
19.1770
 30
0.0000
 11
58.4200
 21
20.1930
 31
0.0000
  0
LINE
  8
16
 10
58.4200
 20
20.4470
 30
0.0000
 11
58.4200
 21
21.5925
 31
0.0000
  0
LINE
  8
16
 10
58.4200
 20
21.5925
 30
0.0000
 11
59.3725
 21
21.5900
 31
0.0000
  0
LINE
  8
16
 10
59.3725
 20
21.5900
 30
0.0000
 11
60.3250
 21
22.8600
 31
0.0000
  0
LINE
  8
16
 10
60.3250
 20
22.8600
 30
0.0000
 11
60.3275
 21
23.1800
 31
0.0000
  0
LINE
  8
16
 10
60.3275
 20
23.1800
 30
0.0000
 11
60.3250
 21
25.4000
 31
0.0000
  0
LINE
  8
16
 10
60.3250
 20
25.4000
 30
0.0000
 11
62.2300
 21
26.6700
 31
0.0000
  0
LINE
  8
16
 10
62.2300
 20
26.6700
 30
0.0000
 11
61.2775
 21
26.0325
 31
0.0000
  0
LINE
  8
16
 10
61.2775
 20
26.0325
 30
0.0000
 11
59.0575
 21
26.0325
 31
0.0000
  0
LINE
  8
16
 10
59.0575
 20
26.0325
 30
0.0000
 11
58.4200
 21
26.6700
 31
0.0000
  0
LINE
  8
16
 10
58.4200
 20
26.6700
 30
0.0000
 11
57.7850
 21
26.4400
 31
0.0000
  0
LINE
  8
16
 10
56.6420
 20
16.5100
 30
0.0000
 11
51.4350
 21
16.5100
 31
0.0000
  0
LINE
  8
16
 10
51.4350
 20
16.5100
 30
0.0000
 11
50.8000
 21
16.8275
 31
0.0000
  0
LINE
  8
16
 10
50.8000
 20
16.8275
 30
0.0000
 11
50.8000
 21
18.4150
 31
0.0000
  0
LINE
  8
16
 10
50.8000
 20
18.4150
 30
0.0000
 11
50.1650
 21
19.0500
 31
0.0000
  0
LINE
  8
16
 10
50.1650
 20
19.0500
 30
0.0000
 11
42.8625
 21
19.0500
 31
0.0000
  0
LINE
  8
16
 10
42.8625
 20
19.0500
 30
0.0000
 11
41.9100
 21
19.5263
 31
0.0000
  0
LINE
  8
16
 10
41.9100
 20
19.5263
 30
0.0000
 11
35.2425
 21
19.5263
 31
0.0000
  0
LINE
  8
16
 10
35.2425
 20
19.5263
 30
0.0000
 11
33.9725
 21
20.6375
 31
0.0000
  0
LINE
  8
16
 10
33.9725
 20
20.6375
 30
0.0000
 11
31.4325
 21
20.6375
 31
0.0000
  0
LINE
  8
16
 10
31.4325
 20
20.6375
 30
0.0000
 11
29.2100
 21
17.4625
 31
0.0000
  0
LINE
  8
16
 10
29.2100
 20
17.4625
 30
0.0000
 11
29.2100
 21
15.3000
 31
0.0000
  0
LINE
  8
16
 10
59.0550
 20
26.0350
 30
0.0000
 11
60.3250
 21
24.7650
 31
0.0000
  0
LINE
  8
16
 10
59.3725
 20
25.7175
 30
0.0000
 11
60.3250
 21
25.7175
 31
0.0000
  0
LINE
  8
16
 10
56.6420
 20
16.5100
 30
0.0000
 11
56.6420
 21
19.1770
 31
0.0000
  0
LINE
  8
16
 10
56.6420
 20
19.1770
 30
0.0000
 11
58.4200
 21
19.1770
 31
0.0000
  0
LINE
  8
16
 10
55.8800
 20
18.4750
 30
0.0000
 11
55.8800
 21
19.9390
 31
0.0000
  0
LINE
  8
16
 10
55.8800
 20
19.9390
 30
0.0000
 11
57.1500
 21
19.9390
 31
0.0000
  0
LINE
  8
16
 10
57.1500
 20
19.9390
 30
0.0000
 11
57.1500
 21
20.4470
 31
0.0000
  0
LINE
  8
16
 10
57.1500
 20
20.4470
 30
0.0000
 11
58.4200
 21
20.4470
 31
0.0000
  0
LINE
  8
16
 10
58.4200
 20
20.4470
 30
0.0000
 11
58.4200
 21
20.1930
 31
0.0000
  0
ENDSEC
  0
EOF
