  0
SECTION
  2
HEADER
  9
$ACADVER
  1
AC1009
  9
$FILLMODE
 70
0
  9
$EXTMIN
 10
-4.3848
 20
0.6350
 30
0.0000
  9
$EXTMAX
 10
96.5287
 20
104.7370
 30
0.0000
  0
ENDSEC
  0
SECTION
  2
TABLES
  0
TABLE
  2
LTYPE
 70
1
  0
LTYPE
  2
CONTINUOUS
 70
64
  3
Solid line
 72
65
 73
0
 40
0
  0
ENDTAB
  0
TABLE
  2
LAYER
 70
255
  0
LAYER
  2
31
 70
64
 62
251
  6
CONTINUOUS
  0
ENDTAB
  0
ENDSEC
  0
SECTION
  2
BLOCKS
  0
BLOCK
  8
0
  2
RECT
 70
64
 10
0.0000
 20
0.0000
 30
0.0000
  3
RECT
  0
SOLID
  8
0
 10
-0.5000
 20
-0.5000
 30
0.0000
 11
0.5000
 21
-0.5000
 31
0.0000
 12
-0.5000
 22
0.5000
 32
0.0000
 13
0.5000
 23
0.5000
 33
0.0000
  0
ENDBLK
  8
0
  0
BLOCK
  8
0
  2
PIE
 70
64
 10
0.0000
 20
0.0000
 30
0.0000
  3
PIE
  0
CIRCLE
  8
0
 10
0.0000
 20
0.0000
 30
0.0000
 40
0.5000
  0
ENDBLK
  8
0
  0
BLOCK
  8
0
  2
OCTAGONP
 70
64
 10
0.0000
 20
0.0000
 30
0.0000
  3
OCTAGONP
  0
POLYLINE
  8
0
 66
1
 10
0.0000
 20
0.0000
 30
0.0000
 40
0.0000
 41
0.0000
 70
1
  0
VERTEX
  8
0
 10
-0.5000
 20
-0.2071
 30
0.0000
  0
VERTEX
  8
0
 10
-0.5000
 20
0.2071
 30
0.0000
  0
VERTEX
  8
0
 10
-0.2071
 20
0.5000
 30
0.0000
  0
VERTEX
  8
0
 10
0.2071
 20
0.5000
 30
0.0000
  0
VERTEX
  8
0
 10
0.5000
 20
0.2071
 30
0.0000
  0
VERTEX
  8
0
 10
0.5000
 20
-0.2071
 30
0.0000
  0
VERTEX
  8
0
 10
0.2071
 20
-0.5000
 30
0.0000
  0
VERTEX
  8
0
 10
-0.2071
 20
-0.5000
 30
0.0000
  0
SEQEND
  8
0
  0
ENDBLK
  8
0
  0
BLOCK
  8
0
  2
SQUAREP
 70
64
 10
0.0000
 20
0.0000
 30
0.0000
  3
SQUAREP
  0
SOLID
  8
0
 10
-0.5000
 20
-0.5000
 30
0.0000
 11
0.5000
 21
-0.5000
 31
0.0000
 12
-0.5000
 22
0.5000
 32
0.0000
 13
0.5000
 23
0.5000
 33
0.0000
  0
ENDBLK
  8
0
  0
BLOCK
  8
0
  2
ROUNDP
 70
64
 10
0.0000
 20
0.0000
 30
0.0000
  3
ROUNDP
  0
CIRCLE
  8
0
 10
0.0000
 20
0.0000
 30
0.0000
 40
0.5000
  0
ENDBLK
  8
0
  0
BLOCK
  8
0
  2
ANNULUSP
 70
64
 10
0.0000
 20
0.0000
 30
0.0000
  3
ANNULUSP
  0
CIRCLE
  8
0
 10
0.0000
 20
0.0000
 30
0.0000
 40
0.5000
  0
ENDBLK
  8
0
  0
BLOCK
  8
0
  2
THERMALP
 70
64
 10
0.0000
 20
0.0000
 30
0.0000
  3
THERMALP
  0
POLYLINE
  8
0
 66
1
 10
0.0000
 20
0.0000
 30
0.0000
 40
0.0000
 41
0.0000
 70
1
  0
VERTEX
  8
0
 10
-0.2379
 20
0.4000
 30
0.0000
  0
VERTEX
  8
0
 10
0.2379
 20
0.4000
 30
0.0000
 42
1.0000
  0
VERTEX
  8
0
 10
0.2379
 20
0.5000
 30
0.0000
  0
VERTEX
  8
0
 10
-0.2379
 20
0.5000
 30
0.0000
 42
1.0000
  0
SEQEND
  8
0
  0
POLYLINE
  8
0
 66
1
 10
0.0000
 20
0.0000
 30
0.0000
 40
0.0000
 41
0.0000
 70
1
  0
VERTEX
  8
0
 10
0.4000
 20
0.2379
 30
0.0000
  0
VERTEX
  8
0
 10
0.4000
 20
-0.2379
 30
0.0000
 42
1.0000
  0
VERTEX
  8
0
 10
0.5000
 20
-0.2379
 30
0.0000
  0
VERTEX
  8
0
 10
0.5000
 20
0.2379
 30
0.0000
 42
1.0000
  0
SEQEND
  8
0
  0
POLYLINE
  8
0
 66
1
 10
0.0000
 20
0.0000
 30
0.0000
 40
0.0000
 41
0.0000
 70
1
  0
VERTEX
  8
0
 10
0.2379
 20
-0.4000
 30
0.0000
  0
VERTEX
  8
0
 10
-0.2379
 20
-0.4000
 30
0.0000
 42
1.0000
  0
VERTEX
  8
0
 10
-0.2379
 20
-0.5000
 30
0.0000
  0
VERTEX
  8
0
 10
0.2379
 20
-0.5000
 30
0.0000
 42
1.0000
  0
SEQEND
  8
0
  0
POLYLINE
  8
0
 66
1
 10
0.0000
 20
0.0000
 30
0.0000
 40
0.0000
 41
0.0000
 70
1
  0
VERTEX
  8
0
 10
-0.4000
 20
-0.2379
 30
0.0000
  0
VERTEX
  8
0
 10
-0.4000
 20
0.2379
 30
0.0000
 42
1.0000
  0
VERTEX
  8
0
 10
-0.5000
 20
0.2379
 30
0.0000
  0
VERTEX
  8
0
 10
-0.5000
 20
-0.2379
 30
0.0000
 42
1.0000
  0
SEQEND
  8
0
  0
ENDBLK
  8
0
  0
BLOCK
  8
0
  2
OCTAGONV
 70
64
 10
0.0000
 20
0.0000
 30
0.0000
  3
OCTAGONV
  0
POLYLINE
  8
0
 66
1
 10
0.0000
 20
0.0000
 30
0.0000
 40
0.0000
 41
0.0000
 70
1
  0
VERTEX
  8
0
 10
-0.5000
 20
-0.2071
 30
0.0000
  0
VERTEX
  8
0
 10
-0.5000
 20
0.2071
 30
0.0000
  0
VERTEX
  8
0
 10
-0.2071
 20
0.5000
 30
0.0000
  0
VERTEX
  8
0
 10
0.2071
 20
0.5000
 30
0.0000
  0
VERTEX
  8
0
 10
0.5000
 20
0.2071
 30
0.0000
  0
VERTEX
  8
0
 10
0.5000
 20
-0.2071
 30
0.0000
  0
VERTEX
  8
0
 10
0.2071
 20
-0.5000
 30
0.0000
  0
VERTEX
  8
0
 10
-0.2071
 20
-0.5000
 30
0.0000
  0
SEQEND
  8
0
  0
ENDBLK
  8
0
  0
BLOCK
  8
0
  2
SQUAREV
 70
64
 10
0.0000
 20
0.0000
 30
0.0000
  3
SQUAREV
  0
SOLID
  8
0
 10
-0.5000
 20
-0.5000
 30
0.0000
 11
0.5000
 21
-0.5000
 31
0.0000
 12
-0.5000
 22
0.5000
 32
0.0000
 13
0.5000
 23
0.5000
 33
0.0000
  0
ENDBLK
  8
0
  0
BLOCK
  8
0
  2
ROUNDV
 70
64
 10
0.0000
 20
0.0000
 30
0.0000
  3
ROUNDV
  0
CIRCLE
  8
0
 10
0.0000
 20
0.0000
 30
0.0000
 40
0.5000
  0
ENDBLK
  8
0
  0
BLOCK
  8
0
  2
ANNULUSV
 70
64
 10
0.0000
 20
0.0000
 30
0.0000
  3
ANNULUSV
  0
CIRCLE
  8
0
 10
0.0000
 20
0.0000
 30
0.0000
 40
0.5000
  0
ENDBLK
  8
0
  0
BLOCK
  8
0
  2
THERMALV
 70
64
 10
0.0000
 20
0.0000
 30
0.0000
  3
THERMALV
  0
POLYLINE
  8
0
 66
1
 10
0.0000
 20
0.0000
 30
0.0000
 40
0.0000
 41
0.0000
 70
1
  0
VERTEX
  8
0
 10
-0.2379
 20
0.4000
 30
0.0000
  0
VERTEX
  8
0
 10
0.2379
 20
0.4000
 30
0.0000
 42
1.0000
  0
VERTEX
  8
0
 10
0.2379
 20
0.5000
 30
0.0000
  0
VERTEX
  8
0
 10
-0.2379
 20
0.5000
 30
0.0000
 42
1.0000
  0
SEQEND
  8
0
  0
POLYLINE
  8
0
 66
1
 10
0.0000
 20
0.0000
 30
0.0000
 40
0.0000
 41
0.0000
 70
1
  0
VERTEX
  8
0
 10
0.4000
 20
0.2379
 30
0.0000
  0
VERTEX
  8
0
 10
0.4000
 20
-0.2379
 30
0.0000
 42
1.0000
  0
VERTEX
  8
0
 10
0.5000
 20
-0.2379
 30
0.0000
  0
VERTEX
  8
0
 10
0.5000
 20
0.2379
 30
0.0000
 42
1.0000
  0
SEQEND
  8
0
  0
POLYLINE
  8
0
 66
1
 10
0.0000
 20
0.0000
 30
0.0000
 40
0.0000
 41
0.0000
 70
1
  0
VERTEX
  8
0
 10
0.2379
 20
-0.4000
 30
0.0000
  0
VERTEX
  8
0
 10
-0.2379
 20
-0.4000
 30
0.0000
 42
1.0000
  0
VERTEX
  8
0
 10
-0.2379
 20
-0.5000
 30
0.0000
  0
VERTEX
  8
0
 10
0.2379
 20
-0.5000
 30
0.0000
 42
1.0000
  0
SEQEND
  8
0
  0
POLYLINE
  8
0
 66
1
 10
0.0000
 20
0.0000
 30
0.0000
 40
0.0000
 41
0.0000
 70
1
  0
VERTEX
  8
0
 10
-0.4000
 20
-0.2379
 30
0.0000
  0
VERTEX
  8
0
 10
-0.4000
 20
0.2379
 30
0.0000
 42
1.0000
  0
VERTEX
  8
0
 10
-0.5000
 20
0.2379
 30
0.0000
  0
VERTEX
  8
0
 10
-0.5000
 20
-0.2379
 30
0.0000
 42
1.0000
  0
SEQEND
  8
0
  0
ENDBLK
  8
0
  0
BLOCK
  8
0
  2
LONGP100
 70
64
 10
0.0000
 20
0.0000
 30
0.0000
  3
LONGP100
  0
POLYLINE
  8
0
 66
1
 10
0.0000
 20
0.0000
 30
0.0000
 40
0.0000
 41
0.0000
 70
1
  0
VERTEX
  8
0
 10
-0.5000
 20
-0.5000
 30
0.0000
  0
VERTEX
  8
0
 10
0.5000
 20
-0.5000
 30
0.0000
 42
1.0000
  0
VERTEX
  8
0
 10
0.5000
 20
0.5000
 30
0.0000
  0
VERTEX
  8
0
 10
-0.5000
 20
0.5000
 30
0.0000
 42
1.0000
  0
SEQEND
  8
0
  0
ENDBLK
  8
0
  0
BLOCK
  8
0
  2
RECT0X0R100
 70
64
 10
0.0000
 20
0.0000
 30
0.0000
  3
RECT0X0R100
  0
POLYLINE
  8
0
 66
1
 10
0.0000
 20
0.0000
 30
0.0000
 40
0.0000
 41
0.0000
 70
1
  0
VERTEX
  8
0
 10
0.0000
 20
0.0000
 30
0.0000
  0
VERTEX
  8
0
 10
0.0000
 20
0.0000
 30
0.0000
 42
0.4142
  0
VERTEX
  8
0
 10
0.0000
 20
0.0000
 30
0.0000
  0
VERTEX
  8
0
 10
0.0000
 20
0.0000
 30
0.0000
 42
0.4142
  0
VERTEX
  8
0
 10
0.0000
 20
0.0000
 30
0.0000
  0
VERTEX
  8
0
 10
0.0000
 20
0.0000
 30
0.0000
 42
0.4142
  0
VERTEX
  8
0
 10
0.0000
 20
0.0000
 30
0.0000
  0
VERTEX
  8
0
 10
0.0000
 20
0.0000
 30
0.0000
 42
0.4142
  0
SEQEND
  8
0
  0
ENDBLK
  8
0
  0
BLOCK
  8
0
  2
RECT162560X223520R25
 70
64
 10
0.0000
 20
0.0000
 30
0.0000
  3
RECT162560X223520R25
  0
POLYLINE
  8
0
 66
1
 10
0.0000
 20
0.0000
 30
0.0000
 40
0.0000
 41
0.0000
 70
1
  0
VERTEX
  8
0
 10
0.5080
 20
-0.5715
 30
0.0000
  0
VERTEX
  8
0
 10
0.5080
 20
0.5715
 30
0.0000
 42
0.4142
  0
VERTEX
  8
0
 10
0.3810
 20
0.6985
 30
0.0000
  0
VERTEX
  8
0
 10
-0.3810
 20
0.6985
 30
0.0000
 42
0.4142
  0
VERTEX
  8
0
 10
-0.5080
 20
0.5715
 30
0.0000
  0
VERTEX
  8
0
 10
-0.5080
 20
-0.5715
 30
0.0000
 42
0.4142
  0
VERTEX
  8
0
 10
-0.3810
 20
-0.6985
 30
0.0000
  0
VERTEX
  8
0
 10
0.3810
 20
-0.6985
 30
0.0000
 42
0.4142
  0
SEQEND
  8
0
  0
ENDBLK
  8
0
  0
BLOCK
  8
0
  2
RECT325120X584000R75
 70
64
 10
0.0000
 20
0.0000
 30
0.0000
  3
RECT325120X584000R75
  0
POLYLINE
  8
0
 66
1
 10
0.0000
 20
0.0000
 30
0.0000
 40
0.0000
 41
0.0000
 70
1
  0
VERTEX
  8
0
 10
1.0160
 20
-1.0630
 30
0.0000
  0
VERTEX
  8
0
 10
1.0160
 20
1.0630
 30
0.0000
 42
0.4142
  0
VERTEX
  8
0
 10
0.2540
 20
1.8250
 30
0.0000
  0
VERTEX
  8
0
 10
-0.2540
 20
1.8250
 30
0.0000
 42
0.4142
  0
VERTEX
  8
0
 10
-1.0160
 20
1.0630
 30
0.0000
  0
VERTEX
  8
0
 10
-1.0160
 20
-1.0630
 30
0.0000
 42
0.4142
  0
VERTEX
  8
0
 10
-0.2540
 20
-1.8250
 30
0.0000
  0
VERTEX
  8
0
 10
0.2540
 20
-1.8250
 30
0.0000
 42
0.4142
  0
SEQEND
  8
0
  0
ENDBLK
  8
0
  0
ENDSEC
  0
SECTION
  2
ENTITIES
  0
INSERT
  8
31
  2
RECT162560X223520R25
 10
81.8425
 20
25.8840
 30
0.0000
 41
1.0000
 42
1.0000
 43
1.0000
 50
270.0000
  0
INSERT
  8
31
  2
RECT162560X223520R25
 10
81.8425
 20
24.1060
 30
0.0000
 41
1.0000
 42
1.0000
 43
1.0000
 50
270.0000
  0
INSERT
  8
31
  2
RECT162560X223520R25
 10
87.6300
 20
34.6710
 30
0.0000
 41
1.0000
 42
1.0000
 43
1.0000
 50
90.0000
  0
INSERT
  8
31
  2
RECT162560X223520R25
 10
87.6300
 20
36.4490
 30
0.0000
 41
1.0000
 42
1.0000
 43
1.0000
 50
90.0000
  0
INSERT
  8
31
  2
RECT
 10
42.3425
 20
73.9395
 30
0.0000
 41
1.2700
 42
2.0320
 43
1.0000
 50
90.0000
  0
INSERT
  8
31
  2
RECT
 10
42.3425
 20
77.2415
 30
0.0000
 41
1.2700
 42
2.0320
 43
1.0000
 50
90.0000
  0
INSERT
  8
31
  2
RECT
 10
45.8985
 20
73.9395
 30
0.0000
 41
1.2700
 42
2.0320
 43
1.0000
 50
90.0000
  0
INSERT
  8
31
  2
RECT
 10
45.8985
 20
77.2415
 30
0.0000
 41
1.2700
 42
2.0320
 43
1.0000
 50
90.0000
  0
INSERT
  8
31
  2
RECT162560X223520R25
 10
30.7220
 20
61.6840
 30
0.0000
 41
1.0000
 42
1.0000
 43
1.0000
 50
180.0000
  0
INSERT
  8
31
  2
RECT162560X223520R25
 10
28.9440
 20
61.6840
 30
0.0000
 41
1.0000
 42
1.0000
 43
1.0000
 50
180.0000
  0
INSERT
  8
31
  2
RECT162560X223520R25
 10
71.9970
 20
55.5880
 30
0.0000
 41
1.0000
 42
1.0000
 43
1.0000
 50
0.0000
  0
INSERT
  8
31
  2
RECT162560X223520R25
 10
73.7750
 20
55.5880
 30
0.0000
 41
1.0000
 42
1.0000
 43
1.0000
 50
0.0000
  0
INSERT
  8
31
  2
RECT162560X223520R25
 10
49.0100
 20
55.7150
 30
0.0000
 41
1.0000
 42
1.0000
 43
1.0000
 50
270.0000
  0
INSERT
  8
31
  2
RECT162560X223520R25
 10
49.0100
 20
53.9370
 30
0.0000
 41
1.0000
 42
1.0000
 43
1.0000
 50
270.0000
  0
INSERT
  8
31
  2
RECT162560X223520R25
 10
52.0580
 20
76.4160
 30
0.0000
 41
1.0000
 42
1.0000
 43
1.0000
 50
270.0000
  0
INSERT
  8
31
  2
RECT162560X223520R25
 10
52.0580
 20
74.6380
 30
0.0000
 41
1.0000
 42
1.0000
 43
1.0000
 50
270.0000
  0
INSERT
  8
31
  2
RECT162560X223520R25
 10
72.2510
 20
83.7820
 30
0.0000
 41
1.0000
 42
1.0000
 43
1.0000
 50
0.0000
  0
INSERT
  8
31
  2
RECT162560X223520R25
 10
74.0290
 20
83.7820
 30
0.0000
 41
1.0000
 42
1.0000
 43
1.0000
 50
0.0000
  0
INSERT
  8
31
  2
RECT162560X223520R25
 10
71.8700
 20
99.4030
 30
0.0000
 41
1.0000
 42
1.0000
 43
1.0000
 50
0.0000
  0
INSERT
  8
31
  2
RECT162560X223520R25
 10
73.6480
 20
99.4030
 30
0.0000
 41
1.0000
 42
1.0000
 43
1.0000
 50
0.0000
  0
INSERT
  8
31
  2
RECT162560X223520R25
 10
68.6950
 20
85.5600
 30
0.0000
 41
1.0000
 42
1.0000
 43
1.0000
 50
0.0000
  0
INSERT
  8
31
  2
RECT162560X223520R25
 10
70.4730
 20
85.5600
 30
0.0000
 41
1.0000
 42
1.0000
 43
1.0000
 50
0.0000
  0
INSERT
  8
31
  2
RECT162560X223520R25
 10
73.7750
 20
58.6360
 30
0.0000
 41
1.0000
 42
1.0000
 43
1.0000
 50
180.0000
  0
INSERT
  8
31
  2
RECT162560X223520R25
 10
71.9970
 20
58.6360
 30
0.0000
 41
1.0000
 42
1.0000
 43
1.0000
 50
180.0000
  0
INSERT
  8
31
  2
RECT162560X223520R25
 10
81.8425
 20
75.8840
 30
0.0000
 41
1.0000
 42
1.0000
 43
1.0000
 50
270.0000
  0
INSERT
  8
31
  2
RECT162560X223520R25
 10
81.8425
 20
74.1060
 30
0.0000
 41
1.0000
 42
1.0000
 43
1.0000
 50
270.0000
  0
INSERT
  8
31
  2
RECT162560X223520R25
 10
87.6300
 20
84.6710
 30
0.0000
 41
1.0000
 42
1.0000
 43
1.0000
 50
90.0000
  0
INSERT
  8
31
  2
RECT162560X223520R25
 10
87.6300
 20
86.4490
 30
0.0000
 41
1.0000
 42
1.0000
 43
1.0000
 50
90.0000
  0
INSERT
  8
31
  2
RECT162560X223520R25
 10
71.9970
 20
5.5880
 30
0.0000
 41
1.0000
 42
1.0000
 43
1.0000
 50
0.0000
  0
INSERT
  8
31
  2
RECT162560X223520R25
 10
73.7750
 20
5.5880
 30
0.0000
 41
1.0000
 42
1.0000
 43
1.0000
 50
0.0000
  0
INSERT
  8
31
  2
RECT162560X223520R25
 10
71.8700
 20
49.4030
 30
0.0000
 41
1.0000
 42
1.0000
 43
1.0000
 50
0.0000
  0
INSERT
  8
31
  2
RECT162560X223520R25
 10
73.6480
 20
49.4030
 30
0.0000
 41
1.0000
 42
1.0000
 43
1.0000
 50
0.0000
  0
INSERT
  8
31
  2
RECT162560X223520R25
 10
73.7750
 20
8.6360
 30
0.0000
 41
1.0000
 42
1.0000
 43
1.0000
 50
180.0000
  0
INSERT
  8
31
  2
RECT162560X223520R25
 10
71.9970
 20
8.6360
 30
0.0000
 41
1.0000
 42
1.0000
 43
1.0000
 50
180.0000
  0
INSERT
  8
31
  2
RECT162560X223520R25
 10
30.7220
 20
11.6840
 30
0.0000
 41
1.0000
 42
1.0000
 43
1.0000
 50
180.0000
  0
INSERT
  8
31
  2
RECT162560X223520R25
 10
28.9440
 20
11.6840
 30
0.0000
 41
1.0000
 42
1.0000
 43
1.0000
 50
180.0000
  0
INSERT
  8
31
  2
RECT162560X223520R25
 10
49.0100
 20
5.7150
 30
0.0000
 41
1.0000
 42
1.0000
 43
1.0000
 50
270.0000
  0
INSERT
  8
31
  2
RECT162560X223520R25
 10
49.0100
 20
3.9370
 30
0.0000
 41
1.0000
 42
1.0000
 43
1.0000
 50
270.0000
  0
INSERT
  8
31
  2
RECT162560X223520R25
 10
52.0580
 20
26.4160
 30
0.0000
 41
1.0000
 42
1.0000
 43
1.0000
 50
270.0000
  0
INSERT
  8
31
  2
RECT162560X223520R25
 10
52.0580
 20
24.6380
 30
0.0000
 41
1.0000
 42
1.0000
 43
1.0000
 50
270.0000
  0
INSERT
  8
31
  2
RECT
 10
42.3425
 20
23.9395
 30
0.0000
 41
1.2700
 42
2.0320
 43
1.0000
 50
90.0000
  0
INSERT
  8
31
  2
RECT
 10
42.3425
 20
27.2415
 30
0.0000
 41
1.2700
 42
2.0320
 43
1.0000
 50
90.0000
  0
INSERT
  8
31
  2
RECT
 10
45.8985
 20
23.9395
 30
0.0000
 41
1.2700
 42
2.0320
 43
1.0000
 50
90.0000
  0
INSERT
  8
31
  2
RECT
 10
45.8985
 20
27.2415
 30
0.0000
 41
1.2700
 42
2.0320
 43
1.0000
 50
90.0000
  0
INSERT
  8
31
  2
RECT162560X223520R25
 10
72.2510
 20
33.7820
 30
0.0000
 41
1.0000
 42
1.0000
 43
1.0000
 50
0.0000
  0
INSERT
  8
31
  2
RECT162560X223520R25
 10
74.0290
 20
33.7820
 30
0.0000
 41
1.0000
 42
1.0000
 43
1.0000
 50
0.0000
  0
INSERT
  8
31
  2
RECT162560X223520R25
 10
68.6950
 20
35.5600
 30
0.0000
 41
1.0000
 42
1.0000
 43
1.0000
 50
0.0000
  0
INSERT
  8
31
  2
RECT162560X223520R25
 10
70.4730
 20
35.5600
 30
0.0000
 41
1.0000
 42
1.0000
 43
1.0000
 50
0.0000
  0
INSERT
  8
31
  2
RECT
 10
82.3650
 20
32.7320
 30
0.0000
 41
1.7700
 42
2.2000
 43
1.0000
 50
0.0000
  0
INSERT
  8
31
  2
RECT
 10
82.3650
 20
28.2480
 30
0.0000
 41
1.7700
 42
2.2000
 43
1.0000
 50
0.0000
  0
INSERT
  8
31
  2
RECT
 10
83.1000
 20
50.0420
 30
0.0000
 41
1.7700
 42
2.2000
 43
1.0000
 50
0.0000
  0
INSERT
  8
31
  2
RECT
 10
83.1000
 20
45.5580
 30
0.0000
 41
1.7700
 42
2.2000
 43
1.0000
 50
0.0000
  0
INSERT
  8
31
  2
RECT
 10
38.6790
 20
91.4020
 30
0.0000
 41
1.7700
 42
2.2000
 43
1.0000
 50
270.0000
  0
INSERT
  8
31
  2
RECT
 10
34.1950
 20
91.4020
 30
0.0000
 41
1.7700
 42
2.2000
 43
1.0000
 50
270.0000
  0
INSERT
  8
31
  2
RECT
 10
74.3000
 20
39.1000
 30
0.0000
 41
1.0000
 42
0.6000
 43
1.0000
 50
180.0000
  0
INSERT
  8
31
  2
RECT
 10
72.1000
 20
39.1000
 30
0.0000
 41
1.0000
 42
0.6000
 43
1.0000
 50
180.0000
  0
INSERT
  8
31
  2
RECT
 10
38.6790
 20
95.7200
 30
0.0000
 41
1.7700
 42
2.2000
 43
1.0000
 50
270.0000
  0
INSERT
  8
31
  2
RECT
 10
34.1950
 20
95.7200
 30
0.0000
 41
1.7700
 42
2.2000
 43
1.0000
 50
270.0000
  0
INSERT
  8
31
  2
RECT
 10
90.1140
 20
67.5260
 30
0.0000
 41
1.7700
 42
2.2000
 43
1.0000
 50
270.0000
  0
INSERT
  8
31
  2
RECT
 10
85.6300
 20
67.5260
 30
0.0000
 41
1.7700
 42
2.2000
 43
1.0000
 50
270.0000
  0
INSERT
  8
31
  2
RECT
 10
89.6060
 20
63.7160
 30
0.0000
 41
1.7700
 42
2.2000
 43
1.0000
 50
270.0000
  0
INSERT
  8
31
  2
RECT
 10
85.1220
 20
63.7160
 30
0.0000
 41
1.7700
 42
2.2000
 43
1.0000
 50
270.0000
  0
INSERT
  8
31
  2
RECT
 10
82.2960
 20
61.8820
 30
0.0000
 41
1.7700
 42
2.2000
 43
1.0000
 50
0.0000
  0
INSERT
  8
31
  2
RECT
 10
82.2960
 20
57.3980
 30
0.0000
 41
1.7700
 42
2.2000
 43
1.0000
 50
0.0000
  0
INSERT
  8
31
  2
RECT
 10
93.7260
 20
67.9900
 30
0.0000
 41
1.7700
 42
2.2000
 43
1.0000
 50
0.0000
  0
INSERT
  8
31
  2
RECT
 10
93.7260
 20
63.5060
 30
0.0000
 41
1.7700
 42
2.2000
 43
1.0000
 50
0.0000
  0
INSERT
  8
31
  2
RECT
 10
38.6790
 20
87.5920
 30
0.0000
 41
1.7700
 42
2.2000
 43
1.0000
 50
270.0000
  0
INSERT
  8
31
  2
RECT
 10
34.1950
 20
87.5920
 30
0.0000
 41
1.7700
 42
2.2000
 43
1.0000
 50
270.0000
  0
INSERT
  8
31
  2
RECT
 10
93.7260
 20
75.4830
 30
0.0000
 41
1.7700
 42
2.2000
 43
1.0000
 50
0.0000
  0
INSERT
  8
31
  2
RECT
 10
93.7260
 20
70.9990
 30
0.0000
 41
1.7700
 42
2.2000
 43
1.0000
 50
0.0000
  0
INSERT
  8
31
  2
RECT
 10
69.8820
 20
79.7180
 30
0.0000
 41
1.7700
 42
2.2000
 43
1.0000
 50
90.0000
  0
INSERT
  8
31
  2
RECT
 10
74.3660
 20
79.7180
 30
0.0000
 41
1.7700
 42
2.2000
 43
1.0000
 50
90.0000
  0
INSERT
  8
31
  2
RECT
 10
91.2440
 20
76.0700
 30
0.0000
 41
1.8000
 42
2.2000
 43
1.0000
 50
0.0000
  0
INSERT
  8
31
  2
RECT
 10
86.1440
 20
76.0700
 30
0.0000
 41
1.8000
 42
2.2000
 43
1.0000
 50
0.0000
  0
INSERT
  8
31
  2
RECT
 10
82.3650
 20
82.7320
 30
0.0000
 41
1.7700
 42
2.2000
 43
1.0000
 50
0.0000
  0
INSERT
  8
31
  2
RECT
 10
82.3650
 20
78.2480
 30
0.0000
 41
1.7700
 42
2.2000
 43
1.0000
 50
0.0000
  0
INSERT
  8
31
  2
RECT
 10
83.1000
 20
100.0420
 30
0.0000
 41
1.7700
 42
2.2000
 43
1.0000
 50
0.0000
  0
INSERT
  8
31
  2
RECT
 10
83.1000
 20
95.5580
 30
0.0000
 41
1.7700
 42
2.2000
 43
1.0000
 50
0.0000
  0
INSERT
  8
31
  2
RECT
 10
74.3000
 20
89.1000
 30
0.0000
 41
1.0000
 42
0.6000
 43
1.0000
 50
180.0000
  0
INSERT
  8
31
  2
RECT
 10
72.1000
 20
89.1000
 30
0.0000
 41
1.0000
 42
0.6000
 43
1.0000
 50
180.0000
  0
INSERT
  8
31
  2
RECT
 10
91.2440
 20
26.0700
 30
0.0000
 41
1.8000
 42
2.2000
 43
1.0000
 50
0.0000
  0
INSERT
  8
31
  2
RECT
 10
86.1440
 20
26.0700
 30
0.0000
 41
1.8000
 42
2.2000
 43
1.0000
 50
0.0000
  0
INSERT
  8
31
  2
RECT
 10
38.6790
 20
41.4020
 30
0.0000
 41
1.7700
 42
2.2000
 43
1.0000
 50
270.0000
  0
INSERT
  8
31
  2
RECT
 10
34.1950
 20
41.4020
 30
0.0000
 41
1.7700
 42
2.2000
 43
1.0000
 50
270.0000
  0
INSERT
  8
31
  2
RECT
 10
38.6790
 20
45.7200
 30
0.0000
 41
1.7700
 42
2.2000
 43
1.0000
 50
270.0000
  0
INSERT
  8
31
  2
RECT
 10
34.1950
 20
45.7200
 30
0.0000
 41
1.7700
 42
2.2000
 43
1.0000
 50
270.0000
  0
INSERT
  8
31
  2
RECT
 10
93.7260
 20
25.4830
 30
0.0000
 41
1.7700
 42
2.2000
 43
1.0000
 50
0.0000
  0
INSERT
  8
31
  2
RECT
 10
93.7260
 20
20.9990
 30
0.0000
 41
1.7700
 42
2.2000
 43
1.0000
 50
0.0000
  0
INSERT
  8
31
  2
RECT
 10
90.1140
 20
17.5260
 30
0.0000
 41
1.7700
 42
2.2000
 43
1.0000
 50
270.0000
  0
INSERT
  8
31
  2
RECT
 10
85.6300
 20
17.5260
 30
0.0000
 41
1.7700
 42
2.2000
 43
1.0000
 50
270.0000
  0
INSERT
  8
31
  2
RECT
 10
89.6060
 20
13.7160
 30
0.0000
 41
1.7700
 42
2.2000
 43
1.0000
 50
270.0000
  0
INSERT
  8
31
  2
RECT
 10
85.1220
 20
13.7160
 30
0.0000
 41
1.7700
 42
2.2000
 43
1.0000
 50
270.0000
  0
INSERT
  8
31
  2
RECT
 10
82.2960
 20
11.8820
 30
0.0000
 41
1.7700
 42
2.2000
 43
1.0000
 50
0.0000
  0
INSERT
  8
31
  2
RECT
 10
82.2960
 20
7.3980
 30
0.0000
 41
1.7700
 42
2.2000
 43
1.0000
 50
0.0000
  0
INSERT
  8
31
  2
RECT
 10
93.7260
 20
17.9900
 30
0.0000
 41
1.7700
 42
2.2000
 43
1.0000
 50
0.0000
  0
INSERT
  8
31
  2
RECT
 10
93.7260
 20
13.5060
 30
0.0000
 41
1.7700
 42
2.2000
 43
1.0000
 50
0.0000
  0
INSERT
  8
31
  2
RECT
 10
38.6790
 20
37.5920
 30
0.0000
 41
1.7700
 42
2.2000
 43
1.0000
 50
270.0000
  0
INSERT
  8
31
  2
RECT
 10
34.1950
 20
37.5920
 30
0.0000
 41
1.7700
 42
2.2000
 43
1.0000
 50
270.0000
  0
INSERT
  8
31
  2
RECT
 10
69.8820
 20
29.7180
 30
0.0000
 41
1.7700
 42
2.2000
 43
1.0000
 50
90.0000
  0
INSERT
  8
31
  2
RECT
 10
74.3660
 20
29.7180
 30
0.0000
 41
1.7700
 42
2.2000
 43
1.0000
 50
90.0000
  0
INSERT
  8
31
  2
RECT
 10
89.8525
 20
34.8650
 30
0.0000
 41
0.6000
 42
2.2000
 43
1.0000
 50
0.0000
  0
INSERT
  8
31
  2
RECT
 10
91.1225
 20
34.8650
 30
0.0000
 41
0.6000
 42
2.2000
 43
1.0000
 50
0.0000
  0
INSERT
  8
31
  2
RECT
 10
92.3925
 20
34.8650
 30
0.0000
 41
0.6000
 42
2.2000
 43
1.0000
 50
0.0000
  0
INSERT
  8
31
  2
RECT
 10
93.6625
 20
34.8650
 30
0.0000
 41
0.6000
 42
2.2000
 43
1.0000
 50
0.0000
  0
INSERT
  8
31
  2
RECT
 10
93.6625
 20
40.0650
 30
0.0000
 41
0.6000
 42
2.2000
 43
1.0000
 50
0.0000
  0
INSERT
  8
31
  2
RECT
 10
92.3925
 20
40.0650
 30
0.0000
 41
0.6000
 42
2.2000
 43
1.0000
 50
0.0000
  0
INSERT
  8
31
  2
RECT
 10
91.1225
 20
40.0650
 30
0.0000
 41
0.6000
 42
2.2000
 43
1.0000
 50
0.0000
  0
INSERT
  8
31
  2
RECT
 10
89.8525
 20
40.0650
 30
0.0000
 41
0.6000
 42
2.2000
 43
1.0000
 50
0.0000
  0
INSERT
  8
31
  2
RECT
 10
2.7566
 20
96.8630
 30
0.0000
 41
0.6604
 42
2.0320
 43
1.0000
 50
270.0000
  0
INSERT
  8
31
  2
RECT
 10
2.7566
 20
95.5930
 30
0.0000
 41
0.6604
 42
2.0320
 43
1.0000
 50
270.0000
  0
INSERT
  8
31
  2
RECT
 10
2.7566
 20
94.3230
 30
0.0000
 41
0.6604
 42
2.0320
 43
1.0000
 50
270.0000
  0
INSERT
  8
31
  2
RECT
 10
2.7566
 20
93.0530
 30
0.0000
 41
0.6604
 42
2.0320
 43
1.0000
 50
270.0000
  0
INSERT
  8
31
  2
RECT
 10
2.7566
 20
91.7830
 30
0.0000
 41
0.6604
 42
2.0320
 43
1.0000
 50
270.0000
  0
INSERT
  8
31
  2
RECT
 10
2.7566
 20
90.5130
 30
0.0000
 41
0.6604
 42
2.0320
 43
1.0000
 50
270.0000
  0
INSERT
  8
31
  2
RECT
 10
2.7566
 20
89.2430
 30
0.0000
 41
0.6604
 42
2.0320
 43
1.0000
 50
270.0000
  0
INSERT
  8
31
  2
RECT
 10
2.7566
 20
87.9730
 30
0.0000
 41
0.6604
 42
2.0320
 43
1.0000
 50
270.0000
  0
INSERT
  8
31
  2
RECT
 10
8.9034
 20
87.9730
 30
0.0000
 41
0.6604
 42
2.0320
 43
1.0000
 50
270.0000
  0
INSERT
  8
31
  2
RECT
 10
8.9034
 20
89.2430
 30
0.0000
 41
0.6604
 42
2.0320
 43
1.0000
 50
270.0000
  0
INSERT
  8
31
  2
RECT
 10
8.9034
 20
90.5130
 30
0.0000
 41
0.6604
 42
2.0320
 43
1.0000
 50
270.0000
  0
INSERT
  8
31
  2
RECT
 10
8.9034
 20
91.7830
 30
0.0000
 41
0.6604
 42
2.0320
 43
1.0000
 50
270.0000
  0
INSERT
  8
31
  2
RECT
 10
8.9034
 20
93.0530
 30
0.0000
 41
0.6604
 42
2.0320
 43
1.0000
 50
270.0000
  0
INSERT
  8
31
  2
RECT
 10
8.9034
 20
94.3230
 30
0.0000
 41
0.6604
 42
2.0320
 43
1.0000
 50
270.0000
  0
INSERT
  8
31
  2
RECT
 10
8.9034
 20
95.5930
 30
0.0000
 41
0.6604
 42
2.0320
 43
1.0000
 50
270.0000
  0
INSERT
  8
31
  2
RECT
 10
8.9034
 20
96.8630
 30
0.0000
 41
0.6604
 42
2.0320
 43
1.0000
 50
270.0000
  0
INSERT
  8
31
  2
RECT
 10
3.1566
 20
78.3210
 30
0.0000
 41
0.6604
 42
2.0320
 43
1.0000
 50
270.0000
  0
INSERT
  8
31
  2
RECT
 10
3.1566
 20
77.0510
 30
0.0000
 41
0.6604
 42
2.0320
 43
1.0000
 50
270.0000
  0
INSERT
  8
31
  2
RECT
 10
3.1566
 20
75.7810
 30
0.0000
 41
0.6604
 42
2.0320
 43
1.0000
 50
270.0000
  0
INSERT
  8
31
  2
RECT
 10
3.1566
 20
74.5110
 30
0.0000
 41
0.6604
 42
2.0320
 43
1.0000
 50
270.0000
  0
INSERT
  8
31
  2
RECT
 10
3.1566
 20
73.2410
 30
0.0000
 41
0.6604
 42
2.0320
 43
1.0000
 50
270.0000
  0
INSERT
  8
31
  2
RECT
 10
3.1566
 20
71.9710
 30
0.0000
 41
0.6604
 42
2.0320
 43
1.0000
 50
270.0000
  0
INSERT
  8
31
  2
RECT
 10
3.1566
 20
70.7010
 30
0.0000
 41
0.6604
 42
2.0320
 43
1.0000
 50
270.0000
  0
INSERT
  8
31
  2
RECT
 10
3.1566
 20
69.4310
 30
0.0000
 41
0.6604
 42
2.0320
 43
1.0000
 50
270.0000
  0
INSERT
  8
31
  2
RECT
 10
9.3034
 20
69.4310
 30
0.0000
 41
0.6604
 42
2.0320
 43
1.0000
 50
270.0000
  0
INSERT
  8
31
  2
RECT
 10
9.3034
 20
70.7010
 30
0.0000
 41
0.6604
 42
2.0320
 43
1.0000
 50
270.0000
  0
INSERT
  8
31
  2
RECT
 10
9.3034
 20
71.9710
 30
0.0000
 41
0.6604
 42
2.0320
 43
1.0000
 50
270.0000
  0
INSERT
  8
31
  2
RECT
 10
9.3034
 20
73.2410
 30
0.0000
 41
0.6604
 42
2.0320
 43
1.0000
 50
270.0000
  0
INSERT
  8
31
  2
RECT
 10
9.3034
 20
74.5110
 30
0.0000
 41
0.6604
 42
2.0320
 43
1.0000
 50
270.0000
  0
INSERT
  8
31
  2
RECT
 10
9.3034
 20
75.7810
 30
0.0000
 41
0.6604
 42
2.0320
 43
1.0000
 50
270.0000
  0
INSERT
  8
31
  2
RECT
 10
9.3034
 20
77.0510
 30
0.0000
 41
0.6604
 42
2.0320
 43
1.0000
 50
270.0000
  0
INSERT
  8
31
  2
RECT
 10
9.3034
 20
78.3210
 30
0.0000
 41
0.6604
 42
2.0320
 43
1.0000
 50
270.0000
  0
INSERT
  8
31
  2
RECT
 10
43.6700
 20
66.5100
 30
0.0000
 41
0.6000
 42
2.2000
 43
1.0000
 50
270.0000
  0
INSERT
  8
31
  2
RECT
 10
43.6700
 20
65.2400
 30
0.0000
 41
0.6000
 42
2.2000
 43
1.0000
 50
270.0000
  0
INSERT
  8
31
  2
RECT
 10
43.6700
 20
63.9700
 30
0.0000
 41
0.6000
 42
2.2000
 43
1.0000
 50
270.0000
  0
INSERT
  8
31
  2
RECT
 10
43.6700
 20
62.7000
 30
0.0000
 41
0.6000
 42
2.2000
 43
1.0000
 50
270.0000
  0
INSERT
  8
31
  2
RECT
 10
43.6700
 20
61.4300
 30
0.0000
 41
0.6000
 42
2.2000
 43
1.0000
 50
270.0000
  0
INSERT
  8
31
  2
RECT
 10
43.6700
 20
60.1600
 30
0.0000
 41
0.6000
 42
2.2000
 43
1.0000
 50
270.0000
  0
INSERT
  8
31
  2
RECT
 10
43.6700
 20
58.8900
 30
0.0000
 41
0.6000
 42
2.2000
 43
1.0000
 50
270.0000
  0
INSERT
  8
31
  2
RECT
 10
49.2700
 20
58.8900
 30
0.0000
 41
0.6000
 42
2.2000
 43
1.0000
 50
270.0000
  0
INSERT
  8
31
  2
RECT
 10
49.2700
 20
60.1600
 30
0.0000
 41
0.6000
 42
2.2000
 43
1.0000
 50
270.0000
  0
INSERT
  8
31
  2
RECT
 10
49.2700
 20
61.4300
 30
0.0000
 41
0.6000
 42
2.2000
 43
1.0000
 50
270.0000
  0
INSERT
  8
31
  2
RECT
 10
49.2700
 20
62.7000
 30
0.0000
 41
0.6000
 42
2.2000
 43
1.0000
 50
270.0000
  0
INSERT
  8
31
  2
RECT
 10
49.2700
 20
63.9700
 30
0.0000
 41
0.6000
 42
2.2000
 43
1.0000
 50
270.0000
  0
INSERT
  8
31
  2
RECT
 10
49.2700
 20
65.2400
 30
0.0000
 41
0.6000
 42
2.2000
 43
1.0000
 50
270.0000
  0
INSERT
  8
31
  2
RECT
 10
49.2700
 20
66.5100
 30
0.0000
 41
0.6000
 42
2.2000
 43
1.0000
 50
270.0000
  0
INSERT
  8
31
  2
RECT
 10
36.5420
 20
57.5950
 30
0.0000
 41
0.8000
 42
1.8000
 43
1.0000
 50
270.0000
  0
INSERT
  8
31
  2
RECT
 10
36.7960
 20
56.0960
 30
0.0000
 41
0.8000
 42
2.3000
 43
1.0000
 50
270.0000
  0
INSERT
  8
31
  2
RECT325120X584000R75
 10
39.6630
 20
56.0960
 30
0.0000
 41
1.0000
 42
1.0000
 43
1.0000
 50
270.0000
  0
INSERT
  8
31
  2
RECT
 10
36.5420
 20
54.5970
 30
0.0000
 41
0.8000
 42
1.8000
 43
1.0000
 50
270.0000
  0
INSERT
  8
31
  2
RECT
 10
66.0280
 20
90.0650
 30
0.0000
 41
0.6000
 42
2.2000
 43
1.0000
 50
180.0000
  0
INSERT
  8
31
  2
RECT
 10
64.7580
 20
90.0650
 30
0.0000
 41
0.6000
 42
2.2000
 43
1.0000
 50
180.0000
  0
INSERT
  8
31
  2
RECT
 10
63.4880
 20
90.0650
 30
0.0000
 41
0.6000
 42
2.2000
 43
1.0000
 50
180.0000
  0
INSERT
  8
31
  2
RECT
 10
62.2180
 20
90.0650
 30
0.0000
 41
0.6000
 42
2.2000
 43
1.0000
 50
180.0000
  0
INSERT
  8
31
  2
RECT
 10
62.2180
 20
84.8650
 30
0.0000
 41
0.6000
 42
2.2000
 43
1.0000
 50
180.0000
  0
INSERT
  8
31
  2
RECT
 10
63.4880
 20
84.8650
 30
0.0000
 41
0.6000
 42
2.2000
 43
1.0000
 50
180.0000
  0
INSERT
  8
31
  2
RECT
 10
64.7580
 20
84.8650
 30
0.0000
 41
0.6000
 42
2.2000
 43
1.0000
 50
180.0000
  0
INSERT
  8
31
  2
RECT
 10
66.0280
 20
84.8650
 30
0.0000
 41
0.6000
 42
2.2000
 43
1.0000
 50
180.0000
  0
INSERT
  8
31
  2
RECT
 10
69.4570
 20
100.4444
 30
0.0000
 41
0.6604
 42
2.0320
 43
1.0000
 50
180.0000
  0
INSERT
  8
31
  2
RECT
 10
68.1870
 20
100.4444
 30
0.0000
 41
0.6604
 42
2.0320
 43
1.0000
 50
180.0000
  0
INSERT
  8
31
  2
RECT
 10
66.9170
 20
100.4444
 30
0.0000
 41
0.6604
 42
2.0320
 43
1.0000
 50
180.0000
  0
INSERT
  8
31
  2
RECT
 10
65.6470
 20
100.4444
 30
0.0000
 41
0.6604
 42
2.0320
 43
1.0000
 50
180.0000
  0
INSERT
  8
31
  2
RECT
 10
64.3770
 20
100.4444
 30
0.0000
 41
0.6604
 42
2.0320
 43
1.0000
 50
180.0000
  0
INSERT
  8
31
  2
RECT
 10
63.1070
 20
100.4444
 30
0.0000
 41
0.6604
 42
2.0320
 43
1.0000
 50
180.0000
  0
INSERT
  8
31
  2
RECT
 10
61.8370
 20
100.4444
 30
0.0000
 41
0.6604
 42
2.0320
 43
1.0000
 50
180.0000
  0
INSERT
  8
31
  2
RECT
 10
60.5670
 20
100.4444
 30
0.0000
 41
0.6604
 42
2.0320
 43
1.0000
 50
180.0000
  0
INSERT
  8
31
  2
RECT
 10
60.5670
 20
94.2976
 30
0.0000
 41
0.6604
 42
2.0320
 43
1.0000
 50
180.0000
  0
INSERT
  8
31
  2
RECT
 10
61.8370
 20
94.2976
 30
0.0000
 41
0.6604
 42
2.0320
 43
1.0000
 50
180.0000
  0
INSERT
  8
31
  2
RECT
 10
63.1070
 20
94.2976
 30
0.0000
 41
0.6604
 42
2.0320
 43
1.0000
 50
180.0000
  0
INSERT
  8
31
  2
RECT
 10
64.3770
 20
94.2976
 30
0.0000
 41
0.6604
 42
2.0320
 43
1.0000
 50
180.0000
  0
INSERT
  8
31
  2
RECT
 10
65.6470
 20
94.2976
 30
0.0000
 41
0.6604
 42
2.0320
 43
1.0000
 50
180.0000
  0
INSERT
  8
31
  2
RECT
 10
66.9170
 20
94.2976
 30
0.0000
 41
0.6604
 42
2.0320
 43
1.0000
 50
180.0000
  0
INSERT
  8
31
  2
RECT
 10
68.1870
 20
94.2976
 30
0.0000
 41
0.6604
 42
2.0320
 43
1.0000
 50
180.0000
  0
INSERT
  8
31
  2
RECT
 10
69.4570
 20
94.2976
 30
0.0000
 41
0.6604
 42
2.0320
 43
1.0000
 50
180.0000
  0
INSERT
  8
31
  2
RECT
 10
71.2600
 20
91.2530
 30
0.0000
 41
0.8000
 42
1.8000
 43
1.0000
 50
0.0000
  0
INSERT
  8
31
  2
RECT
 10
72.7590
 20
91.5070
 30
0.0000
 41
0.8000
 42
2.3000
 43
1.0000
 50
0.0000
  0
INSERT
  8
31
  2
RECT325120X584000R75
 10
72.7590
 20
94.3740
 30
0.0000
 41
1.0000
 42
1.0000
 43
1.0000
 50
0.0000
  0
INSERT
  8
31
  2
RECT
 10
74.2580
 20
91.2530
 30
0.0000
 41
0.8000
 42
1.8000
 43
1.0000
 50
0.0000
  0
INSERT
  8
31
  2
RECT
 10
65.9010
 20
59.5920
 30
0.0000
 41
0.6000
 42
2.2000
 43
1.0000
 50
0.0000
  0
INSERT
  8
31
  2
RECT
 10
67.1710
 20
59.5920
 30
0.0000
 41
0.6000
 42
2.2000
 43
1.0000
 50
0.0000
  0
INSERT
  8
31
  2
RECT
 10
68.4410
 20
59.5920
 30
0.0000
 41
0.6000
 42
2.2000
 43
1.0000
 50
0.0000
  0
INSERT
  8
31
  2
RECT
 10
69.7110
 20
59.5920
 30
0.0000
 41
0.6000
 42
2.2000
 43
1.0000
 50
0.0000
  0
INSERT
  8
31
  2
RECT
 10
69.7110
 20
64.7920
 30
0.0000
 41
0.6000
 42
2.2000
 43
1.0000
 50
0.0000
  0
INSERT
  8
31
  2
RECT
 10
68.4410
 20
64.7920
 30
0.0000
 41
0.6000
 42
2.2000
 43
1.0000
 50
0.0000
  0
INSERT
  8
31
  2
RECT
 10
67.1710
 20
64.7920
 30
0.0000
 41
0.6000
 42
2.2000
 43
1.0000
 50
0.0000
  0
INSERT
  8
31
  2
RECT
 10
65.9010
 20
64.7920
 30
0.0000
 41
0.6000
 42
2.2000
 43
1.0000
 50
0.0000
  0
INSERT
  8
31
  2
RECT
 10
89.8525
 20
84.8650
 30
0.0000
 41
0.6000
 42
2.2000
 43
1.0000
 50
0.0000
  0
INSERT
  8
31
  2
RECT
 10
91.1225
 20
84.8650
 30
0.0000
 41
0.6000
 42
2.2000
 43
1.0000
 50
0.0000
  0
INSERT
  8
31
  2
RECT
 10
92.3925
 20
84.8650
 30
0.0000
 41
0.6000
 42
2.2000
 43
1.0000
 50
0.0000
  0
INSERT
  8
31
  2
RECT
 10
93.6625
 20
84.8650
 30
0.0000
 41
0.6000
 42
2.2000
 43
1.0000
 50
0.0000
  0
INSERT
  8
31
  2
RECT
 10
93.6625
 20
90.0650
 30
0.0000
 41
0.6000
 42
2.2000
 43
1.0000
 50
0.0000
  0
INSERT
  8
31
  2
RECT
 10
92.3925
 20
90.0650
 30
0.0000
 41
0.6000
 42
2.2000
 43
1.0000
 50
0.0000
  0
INSERT
  8
31
  2
RECT
 10
91.1225
 20
90.0650
 30
0.0000
 41
0.6000
 42
2.2000
 43
1.0000
 50
0.0000
  0
INSERT
  8
31
  2
RECT
 10
89.8525
 20
90.0650
 30
0.0000
 41
0.6000
 42
2.2000
 43
1.0000
 50
0.0000
  0
INSERT
  8
31
  2
RECT
 10
65.9010
 20
9.5920
 30
0.0000
 41
0.6000
 42
2.2000
 43
1.0000
 50
0.0000
  0
INSERT
  8
31
  2
RECT
 10
67.1710
 20
9.5920
 30
0.0000
 41
0.6000
 42
2.2000
 43
1.0000
 50
0.0000
  0
INSERT
  8
31
  2
RECT
 10
68.4410
 20
9.5920
 30
0.0000
 41
0.6000
 42
2.2000
 43
1.0000
 50
0.0000
  0
INSERT
  8
31
  2
RECT
 10
69.7110
 20
9.5920
 30
0.0000
 41
0.6000
 42
2.2000
 43
1.0000
 50
0.0000
  0
INSERT
  8
31
  2
RECT
 10
69.7110
 20
14.7920
 30
0.0000
 41
0.6000
 42
2.2000
 43
1.0000
 50
0.0000
  0
INSERT
  8
31
  2
RECT
 10
68.4410
 20
14.7920
 30
0.0000
 41
0.6000
 42
2.2000
 43
1.0000
 50
0.0000
  0
INSERT
  8
31
  2
RECT
 10
67.1710
 20
14.7920
 30
0.0000
 41
0.6000
 42
2.2000
 43
1.0000
 50
0.0000
  0
INSERT
  8
31
  2
RECT
 10
65.9010
 20
14.7920
 30
0.0000
 41
0.6000
 42
2.2000
 43
1.0000
 50
0.0000
  0
INSERT
  8
31
  2
RECT
 10
36.5420
 20
7.5950
 30
0.0000
 41
0.8000
 42
1.8000
 43
1.0000
 50
270.0000
  0
INSERT
  8
31
  2
RECT
 10
36.7960
 20
6.0960
 30
0.0000
 41
0.8000
 42
2.3000
 43
1.0000
 50
270.0000
  0
INSERT
  8
31
  2
RECT325120X584000R75
 10
39.6630
 20
6.0960
 30
0.0000
 41
1.0000
 42
1.0000
 43
1.0000
 50
270.0000
  0
INSERT
  8
31
  2
RECT
 10
36.5420
 20
4.5970
 30
0.0000
 41
0.8000
 42
1.8000
 43
1.0000
 50
270.0000
  0
INSERT
  8
31
  2
RECT
 10
71.2600
 20
41.2530
 30
0.0000
 41
0.8000
 42
1.8000
 43
1.0000
 50
0.0000
  0
INSERT
  8
31
  2
RECT
 10
72.7590
 20
41.5070
 30
0.0000
 41
0.8000
 42
2.3000
 43
1.0000
 50
0.0000
  0
INSERT
  8
31
  2
RECT325120X584000R75
 10
72.7590
 20
44.3740
 30
0.0000
 41
1.0000
 42
1.0000
 43
1.0000
 50
0.0000
  0
INSERT
  8
31
  2
RECT
 10
74.2580
 20
41.2530
 30
0.0000
 41
0.8000
 42
1.8000
 43
1.0000
 50
0.0000
  0
INSERT
  8
31
  2
RECT
 10
2.7566
 20
46.8630
 30
0.0000
 41
0.6604
 42
2.0320
 43
1.0000
 50
270.0000
  0
INSERT
  8
31
  2
RECT
 10
2.7566
 20
45.5930
 30
0.0000
 41
0.6604
 42
2.0320
 43
1.0000
 50
270.0000
  0
INSERT
  8
31
  2
RECT
 10
2.7566
 20
44.3230
 30
0.0000
 41
0.6604
 42
2.0320
 43
1.0000
 50
270.0000
  0
INSERT
  8
31
  2
RECT
 10
2.7566
 20
43.0530
 30
0.0000
 41
0.6604
 42
2.0320
 43
1.0000
 50
270.0000
  0
INSERT
  8
31
  2
RECT
 10
2.7566
 20
41.7830
 30
0.0000
 41
0.6604
 42
2.0320
 43
1.0000
 50
270.0000
  0
INSERT
  8
31
  2
RECT
 10
2.7566
 20
40.5130
 30
0.0000
 41
0.6604
 42
2.0320
 43
1.0000
 50
270.0000
  0
INSERT
  8
31
  2
RECT
 10
2.7566
 20
39.2430
 30
0.0000
 41
0.6604
 42
2.0320
 43
1.0000
 50
270.0000
  0
INSERT
  8
31
  2
RECT
 10
2.7566
 20
37.9730
 30
0.0000
 41
0.6604
 42
2.0320
 43
1.0000
 50
270.0000
  0
INSERT
  8
31
  2
RECT
 10
8.9034
 20
37.9730
 30
0.0000
 41
0.6604
 42
2.0320
 43
1.0000
 50
270.0000
  0
INSERT
  8
31
  2
RECT
 10
8.9034
 20
39.2430
 30
0.0000
 41
0.6604
 42
2.0320
 43
1.0000
 50
270.0000
  0
INSERT
  8
31
  2
RECT
 10
8.9034
 20
40.5130
 30
0.0000
 41
0.6604
 42
2.0320
 43
1.0000
 50
270.0000
  0
INSERT
  8
31
  2
RECT
 10
8.9034
 20
41.7830
 30
0.0000
 41
0.6604
 42
2.0320
 43
1.0000
 50
270.0000
  0
INSERT
  8
31
  2
RECT
 10
8.9034
 20
43.0530
 30
0.0000
 41
0.6604
 42
2.0320
 43
1.0000
 50
270.0000
  0
INSERT
  8
31
  2
RECT
 10
8.9034
 20
44.3230
 30
0.0000
 41
0.6604
 42
2.0320
 43
1.0000
 50
270.0000
  0
INSERT
  8
31
  2
RECT
 10
8.9034
 20
45.5930
 30
0.0000
 41
0.6604
 42
2.0320
 43
1.0000
 50
270.0000
  0
INSERT
  8
31
  2
RECT
 10
8.9034
 20
46.8630
 30
0.0000
 41
0.6604
 42
2.0320
 43
1.0000
 50
270.0000
  0
INSERT
  8
31
  2
RECT
 10
3.1566
 20
28.3210
 30
0.0000
 41
0.6604
 42
2.0320
 43
1.0000
 50
270.0000
  0
INSERT
  8
31
  2
RECT
 10
3.1566
 20
27.0510
 30
0.0000
 41
0.6604
 42
2.0320
 43
1.0000
 50
270.0000
  0
INSERT
  8
31
  2
RECT
 10
3.1566
 20
25.7810
 30
0.0000
 41
0.6604
 42
2.0320
 43
1.0000
 50
270.0000
  0
INSERT
  8
31
  2
RECT
 10
3.1566
 20
24.5110
 30
0.0000
 41
0.6604
 42
2.0320
 43
1.0000
 50
270.0000
  0
INSERT
  8
31
  2
RECT
 10
3.1566
 20
23.2410
 30
0.0000
 41
0.6604
 42
2.0320
 43
1.0000
 50
270.0000
  0
INSERT
  8
31
  2
RECT
 10
3.1566
 20
21.9710
 30
0.0000
 41
0.6604
 42
2.0320
 43
1.0000
 50
270.0000
  0
INSERT
  8
31
  2
RECT
 10
3.1566
 20
20.7010
 30
0.0000
 41
0.6604
 42
2.0320
 43
1.0000
 50
270.0000
  0
INSERT
  8
31
  2
RECT
 10
3.1566
 20
19.4310
 30
0.0000
 41
0.6604
 42
2.0320
 43
1.0000
 50
270.0000
  0
INSERT
  8
31
  2
RECT
 10
9.3034
 20
19.4310
 30
0.0000
 41
0.6604
 42
2.0320
 43
1.0000
 50
270.0000
  0
INSERT
  8
31
  2
RECT
 10
9.3034
 20
20.7010
 30
0.0000
 41
0.6604
 42
2.0320
 43
1.0000
 50
270.0000
  0
INSERT
  8
31
  2
RECT
 10
9.3034
 20
21.9710
 30
0.0000
 41
0.6604
 42
2.0320
 43
1.0000
 50
270.0000
  0
INSERT
  8
31
  2
RECT
 10
9.3034
 20
23.2410
 30
0.0000
 41
0.6604
 42
2.0320
 43
1.0000
 50
270.0000
  0
INSERT
  8
31
  2
RECT
 10
9.3034
 20
24.5110
 30
0.0000
 41
0.6604
 42
2.0320
 43
1.0000
 50
270.0000
  0
INSERT
  8
31
  2
RECT
 10
9.3034
 20
25.7810
 30
0.0000
 41
0.6604
 42
2.0320
 43
1.0000
 50
270.0000
  0
INSERT
  8
31
  2
RECT
 10
9.3034
 20
27.0510
 30
0.0000
 41
0.6604
 42
2.0320
 43
1.0000
 50
270.0000
  0
INSERT
  8
31
  2
RECT
 10
9.3034
 20
28.3210
 30
0.0000
 41
0.6604
 42
2.0320
 43
1.0000
 50
270.0000
  0
INSERT
  8
31
  2
RECT
 10
43.6700
 20
16.5100
 30
0.0000
 41
0.6000
 42
2.2000
 43
1.0000
 50
270.0000
  0
INSERT
  8
31
  2
RECT
 10
43.6700
 20
15.2400
 30
0.0000
 41
0.6000
 42
2.2000
 43
1.0000
 50
270.0000
  0
INSERT
  8
31
  2
RECT
 10
43.6700
 20
13.9700
 30
0.0000
 41
0.6000
 42
2.2000
 43
1.0000
 50
270.0000
  0
INSERT
  8
31
  2
RECT
 10
43.6700
 20
12.7000
 30
0.0000
 41
0.6000
 42
2.2000
 43
1.0000
 50
270.0000
  0
INSERT
  8
31
  2
RECT
 10
43.6700
 20
11.4300
 30
0.0000
 41
0.6000
 42
2.2000
 43
1.0000
 50
270.0000
  0
INSERT
  8
31
  2
RECT
 10
43.6700
 20
10.1600
 30
0.0000
 41
0.6000
 42
2.2000
 43
1.0000
 50
270.0000
  0
INSERT
  8
31
  2
RECT
 10
43.6700
 20
8.8900
 30
0.0000
 41
0.6000
 42
2.2000
 43
1.0000
 50
270.0000
  0
INSERT
  8
31
  2
RECT
 10
49.2700
 20
8.8900
 30
0.0000
 41
0.6000
 42
2.2000
 43
1.0000
 50
270.0000
  0
INSERT
  8
31
  2
RECT
 10
49.2700
 20
10.1600
 30
0.0000
 41
0.6000
 42
2.2000
 43
1.0000
 50
270.0000
  0
INSERT
  8
31
  2
RECT
 10
49.2700
 20
11.4300
 30
0.0000
 41
0.6000
 42
2.2000
 43
1.0000
 50
270.0000
  0
INSERT
  8
31
  2
RECT
 10
49.2700
 20
12.7000
 30
0.0000
 41
0.6000
 42
2.2000
 43
1.0000
 50
270.0000
  0
INSERT
  8
31
  2
RECT
 10
49.2700
 20
13.9700
 30
0.0000
 41
0.6000
 42
2.2000
 43
1.0000
 50
270.0000
  0
INSERT
  8
31
  2
RECT
 10
49.2700
 20
15.2400
 30
0.0000
 41
0.6000
 42
2.2000
 43
1.0000
 50
270.0000
  0
INSERT
  8
31
  2
RECT
 10
49.2700
 20
16.5100
 30
0.0000
 41
0.6000
 42
2.2000
 43
1.0000
 50
270.0000
  0
INSERT
  8
31
  2
RECT
 10
66.0280
 20
40.0650
 30
0.0000
 41
0.6000
 42
2.2000
 43
1.0000
 50
180.0000
  0
INSERT
  8
31
  2
RECT
 10
64.7580
 20
40.0650
 30
0.0000
 41
0.6000
 42
2.2000
 43
1.0000
 50
180.0000
  0
INSERT
  8
31
  2
RECT
 10
63.4880
 20
40.0650
 30
0.0000
 41
0.6000
 42
2.2000
 43
1.0000
 50
180.0000
  0
INSERT
  8
31
  2
RECT
 10
62.2180
 20
40.0650
 30
0.0000
 41
0.6000
 42
2.2000
 43
1.0000
 50
180.0000
  0
INSERT
  8
31
  2
RECT
 10
62.2180
 20
34.8650
 30
0.0000
 41
0.6000
 42
2.2000
 43
1.0000
 50
180.0000
  0
INSERT
  8
31
  2
RECT
 10
63.4880
 20
34.8650
 30
0.0000
 41
0.6000
 42
2.2000
 43
1.0000
 50
180.0000
  0
INSERT
  8
31
  2
RECT
 10
64.7580
 20
34.8650
 30
0.0000
 41
0.6000
 42
2.2000
 43
1.0000
 50
180.0000
  0
INSERT
  8
31
  2
RECT
 10
66.0280
 20
34.8650
 30
0.0000
 41
0.6000
 42
2.2000
 43
1.0000
 50
180.0000
  0
INSERT
  8
31
  2
RECT
 10
69.4570
 20
50.4444
 30
0.0000
 41
0.6604
 42
2.0320
 43
1.0000
 50
180.0000
  0
INSERT
  8
31
  2
RECT
 10
68.1870
 20
50.4444
 30
0.0000
 41
0.6604
 42
2.0320
 43
1.0000
 50
180.0000
  0
INSERT
  8
31
  2
RECT
 10
66.9170
 20
50.4444
 30
0.0000
 41
0.6604
 42
2.0320
 43
1.0000
 50
180.0000
  0
INSERT
  8
31
  2
RECT
 10
65.6470
 20
50.4444
 30
0.0000
 41
0.6604
 42
2.0320
 43
1.0000
 50
180.0000
  0
INSERT
  8
31
  2
RECT
 10
64.3770
 20
50.4444
 30
0.0000
 41
0.6604
 42
2.0320
 43
1.0000
 50
180.0000
  0
INSERT
  8
31
  2
RECT
 10
63.1070
 20
50.4444
 30
0.0000
 41
0.6604
 42
2.0320
 43
1.0000
 50
180.0000
  0
INSERT
  8
31
  2
RECT
 10
61.8370
 20
50.4444
 30
0.0000
 41
0.6604
 42
2.0320
 43
1.0000
 50
180.0000
  0
INSERT
  8
31
  2
RECT
 10
60.5670
 20
50.4444
 30
0.0000
 41
0.6604
 42
2.0320
 43
1.0000
 50
180.0000
  0
INSERT
  8
31
  2
RECT
 10
60.5670
 20
44.2976
 30
0.0000
 41
0.6604
 42
2.0320
 43
1.0000
 50
180.0000
  0
INSERT
  8
31
  2
RECT
 10
61.8370
 20
44.2976
 30
0.0000
 41
0.6604
 42
2.0320
 43
1.0000
 50
180.0000
  0
INSERT
  8
31
  2
RECT
 10
63.1070
 20
44.2976
 30
0.0000
 41
0.6604
 42
2.0320
 43
1.0000
 50
180.0000
  0
INSERT
  8
31
  2
RECT
 10
64.3770
 20
44.2976
 30
0.0000
 41
0.6604
 42
2.0320
 43
1.0000
 50
180.0000
  0
INSERT
  8
31
  2
RECT
 10
65.6470
 20
44.2976
 30
0.0000
 41
0.6604
 42
2.0320
 43
1.0000
 50
180.0000
  0
INSERT
  8
31
  2
RECT
 10
66.9170
 20
44.2976
 30
0.0000
 41
0.6604
 42
2.0320
 43
1.0000
 50
180.0000
  0
INSERT
  8
31
  2
RECT
 10
68.1870
 20
44.2976
 30
0.0000
 41
0.6604
 42
2.0320
 43
1.0000
 50
180.0000
  0
INSERT
  8
31
  2
RECT
 10
69.4570
 20
44.2976
 30
0.0000
 41
0.6604
 42
2.0320
 43
1.0000
 50
180.0000
  0
INSERT
  8
31
  2
RECT
 10
75.1385
 20
16.4435
 30
0.0000
 41
1.0160
 42
1.1430
 43
1.0000
 50
270.0000
  0
INSERT
  8
31
  2
RECT
 10
75.1385
 20
18.2215
 30
0.0000
 41
1.0160
 42
1.1430
 43
1.0000
 50
90.0000
  0
INSERT
  8
31
  2
RECT
 10
73.1065
 20
17.3325
 30
0.0000
 41
1.0160
 42
1.1430
 43
1.0000
 50
90.0000
  0
INSERT
  8
31
  2
RECT
 10
88.9885
 20
46.3965
 30
0.0000
 41
0.8000
 42
1.8000
 43
1.0000
 50
0.0000
  0
INSERT
  8
31
  2
RECT
 10
90.4875
 20
46.6505
 30
0.0000
 41
0.8000
 42
2.3000
 43
1.0000
 50
0.0000
  0
INSERT
  8
31
  2
RECT325120X584000R75
 10
90.4875
 20
49.5175
 30
0.0000
 41
1.0000
 42
1.0000
 43
1.0000
 50
0.0000
  0
INSERT
  8
31
  2
RECT
 10
91.9865
 20
46.3965
 30
0.0000
 41
0.8000
 42
1.8000
 43
1.0000
 50
0.0000
  0
INSERT
  8
31
  2
RECT
 10
94.0890
 20
44.3160
 30
0.0000
 41
1.0160
 42
1.1430
 43
1.0000
 50
0.0000
  0
INSERT
  8
31
  2
RECT
 10
92.3110
 20
44.3160
 30
0.0000
 41
1.0160
 42
1.1430
 43
1.0000
 50
180.0000
  0
INSERT
  8
31
  2
RECT
 10
93.2000
 20
42.2840
 30
0.0000
 41
1.0160
 42
1.1430
 43
1.0000
 50
180.0000
  0
INSERT
  8
31
  2
RECT
 10
90.6245
 20
69.9640
 30
0.0000
 41
0.8000
 42
1.8000
 43
1.0000
 50
90.0000
  0
INSERT
  8
31
  2
RECT
 10
90.3705
 20
71.4630
 30
0.0000
 41
0.8000
 42
2.3000
 43
1.0000
 50
90.0000
  0
INSERT
  8
31
  2
RECT325120X584000R75
 10
87.5035
 20
71.4630
 30
0.0000
 41
1.0000
 42
1.0000
 43
1.0000
 50
90.0000
  0
INSERT
  8
31
  2
RECT
 10
90.6245
 20
72.9620
 30
0.0000
 41
0.8000
 42
1.8000
 43
1.0000
 50
90.0000
  0
INSERT
  8
31
  2
RECT
 10
12.3290
 20
53.8350
 30
0.0000
 41
0.8000
 42
1.8000
 43
1.0000
 50
90.0000
  0
INSERT
  8
31
  2
RECT
 10
12.0750
 20
55.3340
 30
0.0000
 41
0.8000
 42
2.3000
 43
1.0000
 50
90.0000
  0
INSERT
  8
31
  2
RECT325120X584000R75
 10
9.2080
 20
55.3340
 30
0.0000
 41
1.0000
 42
1.0000
 43
1.0000
 50
90.0000
  0
INSERT
  8
31
  2
RECT
 10
12.3290
 20
56.8330
 30
0.0000
 41
0.8000
 42
1.8000
 43
1.0000
 50
90.0000
  0
INSERT
  8
31
  2
RECT
 10
25.2830
 20
53.5810
 30
0.0000
 41
0.8000
 42
1.8000
 43
1.0000
 50
90.0000
  0
INSERT
  8
31
  2
RECT
 10
25.0290
 20
55.0800
 30
0.0000
 41
0.8000
 42
2.3000
 43
1.0000
 50
90.0000
  0
INSERT
  8
31
  2
RECT325120X584000R75
 10
22.1620
 20
55.0800
 30
0.0000
 41
1.0000
 42
1.0000
 43
1.0000
 50
90.0000
  0
INSERT
  8
31
  2
RECT
 10
25.2830
 20
56.5790
 30
0.0000
 41
0.8000
 42
1.8000
 43
1.0000
 50
90.0000
  0
INSERT
  8
31
  2
RECT
 10
46.3650
 20
93.7130
 30
0.0000
 41
0.8000
 42
1.8000
 43
1.0000
 50
90.0000
  0
INSERT
  8
31
  2
RECT
 10
46.1110
 20
95.2120
 30
0.0000
 41
0.8000
 42
2.3000
 43
1.0000
 50
90.0000
  0
INSERT
  8
31
  2
RECT325120X584000R75
 10
43.2440
 20
95.2120
 30
0.0000
 41
1.0000
 42
1.0000
 43
1.0000
 50
90.0000
  0
INSERT
  8
31
  2
RECT
 10
46.3650
 20
96.7110
 30
0.0000
 41
0.8000
 42
1.8000
 43
1.0000
 50
90.0000
  0
INSERT
  8
31
  2
RECT
 10
62.9550
 20
69.5800
 30
0.0000
 41
0.8000
 42
1.8000
 43
1.0000
 50
180.0000
  0
INSERT
  8
31
  2
RECT
 10
61.4560
 20
69.3260
 30
0.0000
 41
0.8000
 42
2.3000
 43
1.0000
 50
180.0000
  0
INSERT
  8
31
  2
RECT325120X584000R75
 10
61.4560
 20
66.4590
 30
0.0000
 41
1.0000
 42
1.0000
 43
1.0000
 50
180.0000
  0
INSERT
  8
31
  2
RECT
 10
59.9570
 20
69.5800
 30
0.0000
 41
0.8000
 42
1.8000
 43
1.0000
 50
180.0000
  0
INSERT
  8
31
  2
RECT
 10
72.9495
 20
71.5265
 30
0.0000
 41
1.0160
 42
1.1430
 43
1.0000
 50
90.0000
  0
INSERT
  8
31
  2
RECT
 10
72.9495
 20
69.7485
 30
0.0000
 41
1.0160
 42
1.1430
 43
1.0000
 50
270.0000
  0
INSERT
  8
31
  2
RECT
 10
74.9815
 20
70.6375
 30
0.0000
 41
1.0160
 42
1.1430
 43
1.0000
 50
270.0000
  0
INSERT
  8
31
  2
RECT
 10
8.2430
 20
83.9090
 30
0.0000
 41
1.0160
 42
1.1430
 43
1.0000
 50
90.0000
  0
INSERT
  8
31
  2
RECT
 10
8.2430
 20
82.1310
 30
0.0000
 41
1.0160
 42
1.1430
 43
1.0000
 50
270.0000
  0
INSERT
  8
31
  2
RECT
 10
10.2750
 20
83.0200
 30
0.0000
 41
1.0160
 42
1.1430
 43
1.0000
 50
270.0000
  0
INSERT
  8
31
  2
RECT
 10
75.1385
 20
66.4435
 30
0.0000
 41
1.0160
 42
1.1430
 43
1.0000
 50
270.0000
  0
INSERT
  8
31
  2
RECT
 10
75.1385
 20
68.2215
 30
0.0000
 41
1.0160
 42
1.1430
 43
1.0000
 50
90.0000
  0
INSERT
  8
31
  2
RECT
 10
73.1065
 20
67.3325
 30
0.0000
 41
1.0160
 42
1.1430
 43
1.0000
 50
90.0000
  0
INSERT
  8
31
  2
RECT
 10
88.9885
 20
96.3965
 30
0.0000
 41
0.8000
 42
1.8000
 43
1.0000
 50
0.0000
  0
INSERT
  8
31
  2
RECT
 10
90.4875
 20
96.6505
 30
0.0000
 41
0.8000
 42
2.3000
 43
1.0000
 50
0.0000
  0
INSERT
  8
31
  2
RECT325120X584000R75
 10
90.4875
 20
99.5175
 30
0.0000
 41
1.0000
 42
1.0000
 43
1.0000
 50
0.0000
  0
INSERT
  8
31
  2
RECT
 10
91.9865
 20
96.3965
 30
0.0000
 41
0.8000
 42
1.8000
 43
1.0000
 50
0.0000
  0
INSERT
  8
31
  2
RECT
 10
94.0890
 20
94.3160
 30
0.0000
 41
1.0160
 42
1.1430
 43
1.0000
 50
0.0000
  0
INSERT
  8
31
  2
RECT
 10
92.3110
 20
94.3160
 30
0.0000
 41
1.0160
 42
1.1430
 43
1.0000
 50
180.0000
  0
INSERT
  8
31
  2
RECT
 10
93.2000
 20
92.2840
 30
0.0000
 41
1.0160
 42
1.1430
 43
1.0000
 50
180.0000
  0
INSERT
  8
31
  2
RECT
 10
25.2830
 20
3.5810
 30
0.0000
 41
0.8000
 42
1.8000
 43
1.0000
 50
90.0000
  0
INSERT
  8
31
  2
RECT
 10
25.0290
 20
5.0800
 30
0.0000
 41
0.8000
 42
2.3000
 43
1.0000
 50
90.0000
  0
INSERT
  8
31
  2
RECT325120X584000R75
 10
22.1620
 20
5.0800
 30
0.0000
 41
1.0000
 42
1.0000
 43
1.0000
 50
90.0000
  0
INSERT
  8
31
  2
RECT
 10
25.2830
 20
6.5790
 30
0.0000
 41
0.8000
 42
1.8000
 43
1.0000
 50
90.0000
  0
INSERT
  8
31
  2
RECT
 10
12.3290
 20
3.8350
 30
0.0000
 41
0.8000
 42
1.8000
 43
1.0000
 50
90.0000
  0
INSERT
  8
31
  2
RECT
 10
12.0750
 20
5.3340
 30
0.0000
 41
0.8000
 42
2.3000
 43
1.0000
 50
90.0000
  0
INSERT
  8
31
  2
RECT325120X584000R75
 10
9.2080
 20
5.3340
 30
0.0000
 41
1.0000
 42
1.0000
 43
1.0000
 50
90.0000
  0
INSERT
  8
31
  2
RECT
 10
12.3290
 20
6.8330
 30
0.0000
 41
0.8000
 42
1.8000
 43
1.0000
 50
90.0000
  0
INSERT
  8
31
  2
RECT
 10
62.9550
 20
19.5800
 30
0.0000
 41
0.8000
 42
1.8000
 43
1.0000
 50
180.0000
  0
INSERT
  8
31
  2
RECT
 10
61.4560
 20
19.3260
 30
0.0000
 41
0.8000
 42
2.3000
 43
1.0000
 50
180.0000
  0
INSERT
  8
31
  2
RECT325120X584000R75
 10
61.4560
 20
16.4590
 30
0.0000
 41
1.0000
 42
1.0000
 43
1.0000
 50
180.0000
  0
INSERT
  8
31
  2
RECT
 10
59.9570
 20
19.5800
 30
0.0000
 41
0.8000
 42
1.8000
 43
1.0000
 50
180.0000
  0
INSERT
  8
31
  2
RECT
 10
90.6245
 20
19.9640
 30
0.0000
 41
0.8000
 42
1.8000
 43
1.0000
 50
90.0000
  0
INSERT
  8
31
  2
RECT
 10
90.3705
 20
21.4630
 30
0.0000
 41
0.8000
 42
2.3000
 43
1.0000
 50
90.0000
  0
INSERT
  8
31
  2
RECT325120X584000R75
 10
87.5035
 20
21.4630
 30
0.0000
 41
1.0000
 42
1.0000
 43
1.0000
 50
90.0000
  0
INSERT
  8
31
  2
RECT
 10
90.6245
 20
22.9620
 30
0.0000
 41
0.8000
 42
1.8000
 43
1.0000
 50
90.0000
  0
INSERT
  8
31
  2
RECT
 10
46.3650
 20
43.7130
 30
0.0000
 41
0.8000
 42
1.8000
 43
1.0000
 50
90.0000
  0
INSERT
  8
31
  2
RECT
 10
46.1110
 20
45.2120
 30
0.0000
 41
0.8000
 42
2.3000
 43
1.0000
 50
90.0000
  0
INSERT
  8
31
  2
RECT325120X584000R75
 10
43.2440
 20
45.2120
 30
0.0000
 41
1.0000
 42
1.0000
 43
1.0000
 50
90.0000
  0
INSERT
  8
31
  2
RECT
 10
46.3650
 20
46.7110
 30
0.0000
 41
0.8000
 42
1.8000
 43
1.0000
 50
90.0000
  0
INSERT
  8
31
  2
RECT
 10
8.2430
 20
33.9090
 30
0.0000
 41
1.0160
 42
1.1430
 43
1.0000
 50
90.0000
  0
INSERT
  8
31
  2
RECT
 10
8.2430
 20
32.1310
 30
0.0000
 41
1.0160
 42
1.1430
 43
1.0000
 50
270.0000
  0
INSERT
  8
31
  2
RECT
 10
10.2750
 20
33.0200
 30
0.0000
 41
1.0160
 42
1.1430
 43
1.0000
 50
270.0000
  0
INSERT
  8
31
  2
RECT
 10
72.9495
 20
21.5265
 30
0.0000
 41
1.0160
 42
1.1430
 43
1.0000
 50
90.0000
  0
INSERT
  8
31
  2
RECT
 10
72.9495
 20
19.7485
 30
0.0000
 41
1.0160
 42
1.1430
 43
1.0000
 50
270.0000
  0
INSERT
  8
31
  2
RECT
 10
74.9815
 20
20.6375
 30
0.0000
 41
1.0160
 42
1.1430
 43
1.0000
 50
270.0000
  0
INSERT
  8
31
  2
RECT162560X223520R25
 10
16.2110
 20
48.0000
 30
0.0000
 41
1.0000
 42
1.0000
 43
1.0000
 50
0.0000
  0
INSERT
  8
31
  2
RECT162560X223520R25
 10
17.9890
 20
48.0000
 30
0.0000
 41
1.0000
 42
1.0000
 43
1.0000
 50
0.0000
  0
INSERT
  8
31
  2
RECT162560X223520R25
 10
11.4110
 20
44.7000
 30
0.0000
 41
1.0000
 42
1.0000
 43
1.0000
 50
0.0000
  0
INSERT
  8
31
  2
RECT162560X223520R25
 10
13.1890
 20
44.7000
 30
0.0000
 41
1.0000
 42
1.0000
 43
1.0000
 50
0.0000
  0
INSERT
  8
31
  2
RECT162560X223520R25
 10
14.0110
 20
41.6000
 30
0.0000
 41
1.0000
 42
1.0000
 43
1.0000
 50
0.0000
  0
INSERT
  8
31
  2
RECT162560X223520R25
 10
15.7890
 20
41.6000
 30
0.0000
 41
1.0000
 42
1.0000
 43
1.0000
 50
0.0000
  0
INSERT
  8
31
  2
RECT162560X223520R25
 10
8.0110
 20
30.3000
 30
0.0000
 41
1.0000
 42
1.0000
 43
1.0000
 50
0.0000
  0
INSERT
  8
31
  2
RECT162560X223520R25
 10
9.7890
 20
30.3000
 30
0.0000
 41
1.0000
 42
1.0000
 43
1.0000
 50
0.0000
  0
INSERT
  8
31
  2
RECT
 10
60.7300
 20
22.8000
 30
0.0000
 41
1.2700
 42
1.5240
 43
1.0000
 50
0.0000
  0
INSERT
  8
31
  2
RECT
 10
63.2700
 20
22.8000
 30
0.0000
 41
1.2700
 42
1.5240
 43
1.0000
 50
0.0000
  0
INSERT
  8
31
  2
RECT162560X223520R25
 10
64.4000
 20
17.7110
 30
0.0000
 41
1.0000
 42
1.0000
 43
1.0000
 50
90.0000
  0
INSERT
  8
31
  2
RECT162560X223520R25
 10
64.4000
 20
19.4890
 30
0.0000
 41
1.0000
 42
1.0000
 43
1.0000
 50
90.0000
  0
INSERT
  8
31
  2
RECT
 10
84.7450
 20
29.4600
 30
0.0000
 41
1.2700
 42
1.5240
 43
1.0000
 50
90.0000
  0
INSERT
  8
31
  2
RECT
 10
84.7450
 20
32.0000
 30
0.0000
 41
1.2700
 42
1.5240
 43
1.0000
 50
90.0000
  0
INSERT
  8
31
  2
RECT162560X223520R25
 10
90.8590
 20
43.8150
 30
0.0000
 41
1.0000
 42
1.0000
 43
1.0000
 50
180.0000
  0
INSERT
  8
31
  2
RECT162560X223520R25
 10
89.0810
 20
43.8150
 30
0.0000
 41
1.0000
 42
1.0000
 43
1.0000
 50
180.0000
  0
INSERT
  8
31
  2
RECT
 10
12.6300
 20
35.9000
 30
0.0000
 41
1.2700
 42
1.5240
 43
1.0000
 50
0.0000
  0
INSERT
  8
31
  2
RECT
 10
15.1700
 20
35.9000
 30
0.0000
 41
1.2700
 42
1.5240
 43
1.0000
 50
0.0000
  0
INSERT
  8
31
  2
RECT162560X223520R25
 10
87.2490
 20
43.8150
 30
0.0000
 41
1.0000
 42
1.0000
 43
1.0000
 50
180.0000
  0
INSERT
  8
31
  2
RECT162560X223520R25
 10
85.4710
 20
43.8150
 30
0.0000
 41
1.0000
 42
1.0000
 43
1.0000
 50
180.0000
  0
INSERT
  8
31
  2
RECT162560X223520R25
 10
85.7250
 20
39.6240
 30
0.0000
 41
1.0000
 42
1.0000
 43
1.0000
 50
270.0000
  0
INSERT
  8
31
  2
RECT162560X223520R25
 10
85.7250
 20
37.8460
 30
0.0000
 41
1.0000
 42
1.0000
 43
1.0000
 50
270.0000
  0
INSERT
  8
31
  2
RECT162560X223520R25
 10
87.9475
 20
41.5290
 30
0.0000
 41
1.0000
 42
1.0000
 43
1.0000
 50
270.0000
  0
INSERT
  8
31
  2
RECT162560X223520R25
 10
87.9475
 20
39.7510
 30
0.0000
 41
1.0000
 42
1.0000
 43
1.0000
 50
270.0000
  0
INSERT
  8
31
  2
RECT162560X223520R25
 10
83.8200
 20
48.8315
 30
0.0000
 41
1.0000
 42
1.0000
 43
1.0000
 50
270.0000
  0
INSERT
  8
31
  2
RECT162560X223520R25
 10
83.8200
 20
47.0535
 30
0.0000
 41
1.0000
 42
1.0000
 43
1.0000
 50
270.0000
  0
INSERT
  8
31
  2
RECT
 10
48.3750
 20
88.8620
 30
0.0000
 41
1.2700
 42
1.5240
 43
1.0000
 50
180.0000
  0
INSERT
  8
31
  2
RECT
 10
45.8350
 20
88.8620
 30
0.0000
 41
1.2700
 42
1.5240
 43
1.0000
 50
180.0000
  0
INSERT
  8
31
  2
RECT162560X223520R25
 10
81.5220
 20
92.7990
 30
0.0000
 41
1.0000
 42
1.0000
 43
1.0000
 50
0.0000
  0
INSERT
  8
31
  2
RECT162560X223520R25
 10
83.3000
 20
92.7990
 30
0.0000
 41
1.0000
 42
1.0000
 43
1.0000
 50
0.0000
  0
INSERT
  8
31
  2
RECT162560X223520R25
 10
81.5220
 20
89.8145
 30
0.0000
 41
1.0000
 42
1.0000
 43
1.0000
 50
0.0000
  0
INSERT
  8
31
  2
RECT162560X223520R25
 10
83.3000
 20
89.8145
 30
0.0000
 41
1.0000
 42
1.0000
 43
1.0000
 50
0.0000
  0
INSERT
  8
31
  2
RECT162560X223520R25
 10
81.5220
 20
85.8775
 30
0.0000
 41
1.0000
 42
1.0000
 43
1.0000
 50
0.0000
  0
INSERT
  8
31
  2
RECT162560X223520R25
 10
83.3000
 20
85.8775
 30
0.0000
 41
1.0000
 42
1.0000
 43
1.0000
 50
0.0000
  0
INSERT
  8
31
  2
RECT162560X223520R25
 10
63.6150
 20
55.5880
 30
0.0000
 41
1.0000
 42
1.0000
 43
1.0000
 50
180.0000
  0
INSERT
  8
31
  2
RECT162560X223520R25
 10
61.8370
 20
55.5880
 30
0.0000
 41
1.0000
 42
1.0000
 43
1.0000
 50
180.0000
  0
INSERT
  8
31
  2
RECT162560X223520R25
 10
66.4090
 20
55.5880
 30
0.0000
 41
1.0000
 42
1.0000
 43
1.0000
 50
0.0000
  0
INSERT
  8
31
  2
RECT162560X223520R25
 10
68.1870
 20
55.5880
 30
0.0000
 41
1.0000
 42
1.0000
 43
1.0000
 50
0.0000
  0
INSERT
  8
31
  2
RECT162560X223520R25
 10
48.5020
 20
79.4640
 30
0.0000
 41
1.0000
 42
1.0000
 43
1.0000
 50
90.0000
  0
INSERT
  8
31
  2
RECT162560X223520R25
 10
48.5020
 20
81.2420
 30
0.0000
 41
1.0000
 42
1.0000
 43
1.0000
 50
90.0000
  0
INSERT
  8
31
  2
RECT162560X223520R25
 10
43.8030
 20
55.7150
 30
0.0000
 41
1.0000
 42
1.0000
 43
1.0000
 50
270.0000
  0
INSERT
  8
31
  2
RECT162560X223520R25
 10
43.8030
 20
53.9370
 30
0.0000
 41
1.0000
 42
1.0000
 43
1.0000
 50
270.0000
  0
INSERT
  8
31
  2
RECT162560X223520R25
 10
43.7395
 20
71.4630
 30
0.0000
 41
1.0000
 42
1.0000
 43
1.0000
 50
180.0000
  0
INSERT
  8
31
  2
RECT162560X223520R25
 10
41.9615
 20
71.4630
 30
0.0000
 41
1.0000
 42
1.0000
 43
1.0000
 50
180.0000
  0
INSERT
  8
31
  2
RECT162560X223520R25
 10
48.4385
 20
71.4630
 30
0.0000
 41
1.0000
 42
1.0000
 43
1.0000
 50
180.0000
  0
INSERT
  8
31
  2
RECT162560X223520R25
 10
46.6605
 20
71.4630
 30
0.0000
 41
1.0000
 42
1.0000
 43
1.0000
 50
180.0000
  0
INSERT
  8
31
  2
RECT162560X223520R25
 10
40.5010
 20
62.5730
 30
0.0000
 41
1.0000
 42
1.0000
 43
1.0000
 50
90.0000
  0
INSERT
  8
31
  2
RECT162560X223520R25
 10
40.5010
 20
64.3510
 30
0.0000
 41
1.0000
 42
1.0000
 43
1.0000
 50
90.0000
  0
INSERT
  8
31
  2
RECT162560X223520R25
 10
37.8340
 20
63.9065
 30
0.0000
 41
1.0000
 42
1.0000
 43
1.0000
 50
90.0000
  0
INSERT
  8
31
  2
RECT162560X223520R25
 10
37.8340
 20
65.6845
 30
0.0000
 41
1.0000
 42
1.0000
 43
1.0000
 50
90.0000
  0
INSERT
  8
31
  2
RECT162560X223520R25
 10
37.8340
 20
70.2565
 30
0.0000
 41
1.0000
 42
1.0000
 43
1.0000
 50
270.0000
  0
INSERT
  8
31
  2
RECT162560X223520R25
 10
37.8340
 20
68.4785
 30
0.0000
 41
1.0000
 42
1.0000
 43
1.0000
 50
270.0000
  0
INSERT
  8
31
  2
RECT162560X223520R25
 10
45.1365
 20
69.2405
 30
0.0000
 41
1.0000
 42
1.0000
 43
1.0000
 50
180.0000
  0
INSERT
  8
31
  2
RECT162560X223520R25
 10
43.3585
 20
69.2405
 30
0.0000
 41
1.0000
 42
1.0000
 43
1.0000
 50
180.0000
  0
INSERT
  8
31
  2
RECT162560X223520R25
 10
49.5180
 20
76.4160
 30
0.0000
 41
1.0000
 42
1.0000
 43
1.0000
 50
270.0000
  0
INSERT
  8
31
  2
RECT162560X223520R25
 10
49.5180
 20
74.6380
 30
0.0000
 41
1.0000
 42
1.0000
 43
1.0000
 50
270.0000
  0
INSERT
  8
31
  2
RECT162560X223520R25
 10
51.6770
 20
53.9370
 30
0.0000
 41
1.0000
 42
1.0000
 43
1.0000
 50
90.0000
  0
INSERT
  8
31
  2
RECT162560X223520R25
 10
51.6770
 20
55.7150
 30
0.0000
 41
1.0000
 42
1.0000
 43
1.0000
 50
90.0000
  0
INSERT
  8
31
  2
RECT162560X223520R25
 10
4.0520
 20
60.0330
 30
0.0000
 41
1.0000
 42
1.0000
 43
1.0000
 50
180.0000
  0
INSERT
  8
31
  2
RECT162560X223520R25
 10
2.2740
 20
60.0330
 30
0.0000
 41
1.0000
 42
1.0000
 43
1.0000
 50
180.0000
  0
INSERT
  8
31
  2
RECT162560X223520R25
 10
52.3120
 20
66.8910
 30
0.0000
 41
1.0000
 42
1.0000
 43
1.0000
 50
270.0000
  0
INSERT
  8
31
  2
RECT162560X223520R25
 10
52.3120
 20
65.1130
 30
0.0000
 41
1.0000
 42
1.0000
 43
1.0000
 50
270.0000
  0
INSERT
  8
31
  2
RECT162560X223520R25
 10
29.1980
 20
76.2890
 30
0.0000
 41
1.0000
 42
1.0000
 43
1.0000
 50
180.0000
  0
INSERT
  8
31
  2
RECT162560X223520R25
 10
27.4200
 20
76.2890
 30
0.0000
 41
1.0000
 42
1.0000
 43
1.0000
 50
180.0000
  0
INSERT
  8
31
  2
RECT162560X223520R25
 10
37.8340
 20
61.0490
 30
0.0000
 41
1.0000
 42
1.0000
 43
1.0000
 50
270.0000
  0
INSERT
  8
31
  2
RECT162560X223520R25
 10
37.8340
 20
59.2710
 30
0.0000
 41
1.0000
 42
1.0000
 43
1.0000
 50
270.0000
  0
INSERT
  8
31
  2
RECT162560X223520R25
 10
82.7920
 20
70.0660
 30
0.0000
 41
1.0000
 42
1.0000
 43
1.0000
 50
0.0000
  0
INSERT
  8
31
  2
RECT162560X223520R25
 10
84.5700
 20
70.0660
 30
0.0000
 41
1.0000
 42
1.0000
 43
1.0000
 50
0.0000
  0
INSERT
  8
31
  2
RECT
 10
15.2280
 20
65.2400
 30
0.0000
 41
1.2700
 42
1.5240
 43
1.0000
 50
180.0000
  0
INSERT
  8
31
  2
RECT
 10
12.6880
 20
65.2400
 30
0.0000
 41
1.2700
 42
1.5240
 43
1.0000
 50
180.0000
  0
INSERT
  8
31
  2
RECT
 10
18.7840
 20
60.9220
 30
0.0000
 41
1.2700
 42
1.5240
 43
1.0000
 50
180.0000
  0
INSERT
  8
31
  2
RECT
 10
16.2440
 20
60.9220
 30
0.0000
 41
1.2700
 42
1.5240
 43
1.0000
 50
180.0000
  0
INSERT
  8
31
  2
RECT162560X223520R25
 10
46.3430
 20
55.7150
 30
0.0000
 41
1.0000
 42
1.0000
 43
1.0000
 50
270.0000
  0
INSERT
  8
31
  2
RECT162560X223520R25
 10
46.3430
 20
53.9370
 30
0.0000
 41
1.0000
 42
1.0000
 43
1.0000
 50
270.0000
  0
INSERT
  8
31
  2
RECT162560X223520R25
 10
67.9710
 20
67.7800
 30
0.0000
 41
1.0000
 42
1.0000
 43
1.0000
 50
180.0000
  0
INSERT
  8
31
  2
RECT162560X223520R25
 10
66.1930
 20
67.7800
 30
0.0000
 41
1.0000
 42
1.0000
 43
1.0000
 50
180.0000
  0
INSERT
  8
31
  2
RECT162560X223520R25
 10
72.5685
 20
74.7015
 30
0.0000
 41
1.0000
 42
1.0000
 43
1.0000
 50
0.0000
  0
INSERT
  8
31
  2
RECT162560X223520R25
 10
74.3465
 20
74.7015
 30
0.0000
 41
1.0000
 42
1.0000
 43
1.0000
 50
0.0000
  0
INSERT
  8
31
  2
RECT162560X223520R25
 10
70.2190
 20
73.7490
 30
0.0000
 41
1.0000
 42
1.0000
 43
1.0000
 50
180.0000
  0
INSERT
  8
31
  2
RECT162560X223520R25
 10
68.4410
 20
73.7490
 30
0.0000
 41
1.0000
 42
1.0000
 43
1.0000
 50
180.0000
  0
INSERT
  8
31
  2
RECT162560X223520R25
 10
74.0290
 20
86.8300
 30
0.0000
 41
1.0000
 42
1.0000
 43
1.0000
 50
180.0000
  0
INSERT
  8
31
  2
RECT162560X223520R25
 10
72.2510
 20
86.8300
 30
0.0000
 41
1.0000
 42
1.0000
 43
1.0000
 50
180.0000
  0
INSERT
  8
31
  2
RECT162560X223520R25
 10
60.5670
 20
91.6560
 30
0.0000
 41
1.0000
 42
1.0000
 43
1.0000
 50
270.0000
  0
INSERT
  8
31
  2
RECT162560X223520R25
 10
60.5670
 20
89.8780
 30
0.0000
 41
1.0000
 42
1.0000
 43
1.0000
 50
270.0000
  0
INSERT
  8
31
  2
RECT162560X223520R25
 10
63.1070
 20
81.8770
 30
0.0000
 41
1.0000
 42
1.0000
 43
1.0000
 50
180.0000
  0
INSERT
  8
31
  2
RECT162560X223520R25
 10
61.3290
 20
81.8770
 30
0.0000
 41
1.0000
 42
1.0000
 43
1.0000
 50
180.0000
  0
INSERT
  8
31
  2
RECT162560X223520R25
 10
70.4730
 20
88.6080
 30
0.0000
 41
1.0000
 42
1.0000
 43
1.0000
 50
180.0000
  0
INSERT
  8
31
  2
RECT162560X223520R25
 10
68.6950
 20
88.6080
 30
0.0000
 41
1.0000
 42
1.0000
 43
1.0000
 50
180.0000
  0
INSERT
  8
31
  2
RECT162560X223520R25
 10
60.3130
 20
76.1620
 30
0.0000
 41
1.0000
 42
1.0000
 43
1.0000
 50
0.0000
  0
INSERT
  8
31
  2
RECT162560X223520R25
 10
62.0910
 20
76.1620
 30
0.0000
 41
1.0000
 42
1.0000
 43
1.0000
 50
0.0000
  0
INSERT
  8
31
  2
RECT162560X223520R25
 10
26.9120
 20
100.0380
 30
0.0000
 41
1.0000
 42
1.0000
 43
1.0000
 50
0.0000
  0
INSERT
  8
31
  2
RECT162560X223520R25
 10
28.6900
 20
100.0380
 30
0.0000
 41
1.0000
 42
1.0000
 43
1.0000
 50
0.0000
  0
INSERT
  8
31
  2
RECT162560X223520R25
 10
73.7750
 20
61.6840
 30
0.0000
 41
1.0000
 42
1.0000
 43
1.0000
 50
180.0000
  0
INSERT
  8
31
  2
RECT162560X223520R25
 10
71.9970
 20
61.6840
 30
0.0000
 41
1.0000
 42
1.0000
 43
1.0000
 50
180.0000
  0
INSERT
  8
31
  2
RECT162560X223520R25
 10
73.3750
 20
64.7320
 30
0.0000
 41
1.0000
 42
1.0000
 43
1.0000
 50
180.0000
  0
INSERT
  8
31
  2
RECT162560X223520R25
 10
71.5970
 20
64.7320
 30
0.0000
 41
1.0000
 42
1.0000
 43
1.0000
 50
180.0000
  0
INSERT
  8
31
  2
RECT162560X223520R25
 10
69.8570
 20
67.7800
 30
0.0000
 41
1.0000
 42
1.0000
 43
1.0000
 50
0.0000
  0
INSERT
  8
31
  2
RECT162560X223520R25
 10
71.6350
 20
67.7800
 30
0.0000
 41
1.0000
 42
1.0000
 43
1.0000
 50
0.0000
  0
INSERT
  8
31
  2
RECT162560X223520R25
 10
61.5830
 20
61.6840
 30
0.0000
 41
1.0000
 42
1.0000
 43
1.0000
 50
0.0000
  0
INSERT
  8
31
  2
RECT162560X223520R25
 10
63.3610
 20
61.6840
 30
0.0000
 41
1.0000
 42
1.0000
 43
1.0000
 50
0.0000
  0
INSERT
  8
31
  2
RECT162560X223520R25
 10
61.5830
 20
58.6360
 30
0.0000
 41
1.0000
 42
1.0000
 43
1.0000
 50
0.0000
  0
INSERT
  8
31
  2
RECT162560X223520R25
 10
63.3610
 20
58.6360
 30
0.0000
 41
1.0000
 42
1.0000
 43
1.0000
 50
0.0000
  0
INSERT
  8
31
  2
RECT
 10
8.8240
 20
64.9860
 30
0.0000
 41
1.3000
 42
1.5000
 43
1.0000
 50
180.0000
  0
INSERT
  8
31
  2
RECT
 10
6.9240
 20
64.9860
 30
0.0000
 41
1.3000
 42
1.5000
 43
1.0000
 50
180.0000
  0
INSERT
  8
31
  2
RECT162560X223520R25
 10
16.2110
 20
98.0000
 30
0.0000
 41
1.0000
 42
1.0000
 43
1.0000
 50
0.0000
  0
INSERT
  8
31
  2
RECT162560X223520R25
 10
17.9890
 20
98.0000
 30
0.0000
 41
1.0000
 42
1.0000
 43
1.0000
 50
0.0000
  0
INSERT
  8
31
  2
RECT162560X223520R25
 10
11.4110
 20
94.7000
 30
0.0000
 41
1.0000
 42
1.0000
 43
1.0000
 50
0.0000
  0
INSERT
  8
31
  2
RECT162560X223520R25
 10
13.1890
 20
94.7000
 30
0.0000
 41
1.0000
 42
1.0000
 43
1.0000
 50
0.0000
  0
INSERT
  8
31
  2
RECT162560X223520R25
 10
14.0110
 20
91.6000
 30
0.0000
 41
1.0000
 42
1.0000
 43
1.0000
 50
0.0000
  0
INSERT
  8
31
  2
RECT162560X223520R25
 10
15.7890
 20
91.6000
 30
0.0000
 41
1.0000
 42
1.0000
 43
1.0000
 50
0.0000
  0
INSERT
  8
31
  2
RECT
 10
60.7300
 20
72.8000
 30
0.0000
 41
1.2700
 42
1.5240
 43
1.0000
 50
0.0000
  0
INSERT
  8
31
  2
RECT
 10
63.2700
 20
72.8000
 30
0.0000
 41
1.2700
 42
1.5240
 43
1.0000
 50
0.0000
  0
INSERT
  8
31
  2
RECT162560X223520R25
 10
64.4000
 20
67.7110
 30
0.0000
 41
1.0000
 42
1.0000
 43
1.0000
 50
90.0000
  0
INSERT
  8
31
  2
RECT162560X223520R25
 10
64.4000
 20
69.4890
 30
0.0000
 41
1.0000
 42
1.0000
 43
1.0000
 50
90.0000
  0
INSERT
  8
31
  2
RECT
 10
84.7450
 20
79.4600
 30
0.0000
 41
1.2700
 42
1.5240
 43
1.0000
 50
90.0000
  0
INSERT
  8
31
  2
RECT
 10
84.7450
 20
82.0000
 30
0.0000
 41
1.2700
 42
1.5240
 43
1.0000
 50
90.0000
  0
INSERT
  8
31
  2
RECT162560X223520R25
 10
8.0110
 20
80.3000
 30
0.0000
 41
1.0000
 42
1.0000
 43
1.0000
 50
0.0000
  0
INSERT
  8
31
  2
RECT162560X223520R25
 10
9.7890
 20
80.3000
 30
0.0000
 41
1.0000
 42
1.0000
 43
1.0000
 50
0.0000
  0
INSERT
  8
31
  2
RECT
 10
12.6300
 20
85.9000
 30
0.0000
 41
1.2700
 42
1.5240
 43
1.0000
 50
0.0000
  0
INSERT
  8
31
  2
RECT
 10
15.1700
 20
85.9000
 30
0.0000
 41
1.2700
 42
1.5240
 43
1.0000
 50
0.0000
  0
INSERT
  8
31
  2
RECT162560X223520R25
 10
90.8590
 20
93.8150
 30
0.0000
 41
1.0000
 42
1.0000
 43
1.0000
 50
180.0000
  0
INSERT
  8
31
  2
RECT162560X223520R25
 10
89.0810
 20
93.8150
 30
0.0000
 41
1.0000
 42
1.0000
 43
1.0000
 50
180.0000
  0
INSERT
  8
31
  2
RECT162560X223520R25
 10
87.2490
 20
93.8150
 30
0.0000
 41
1.0000
 42
1.0000
 43
1.0000
 50
180.0000
  0
INSERT
  8
31
  2
RECT162560X223520R25
 10
85.4710
 20
93.8150
 30
0.0000
 41
1.0000
 42
1.0000
 43
1.0000
 50
180.0000
  0
INSERT
  8
31
  2
RECT162560X223520R25
 10
85.7250
 20
89.6240
 30
0.0000
 41
1.0000
 42
1.0000
 43
1.0000
 50
270.0000
  0
INSERT
  8
31
  2
RECT162560X223520R25
 10
85.7250
 20
87.8460
 30
0.0000
 41
1.0000
 42
1.0000
 43
1.0000
 50
270.0000
  0
INSERT
  8
31
  2
RECT162560X223520R25
 10
87.9475
 20
91.5290
 30
0.0000
 41
1.0000
 42
1.0000
 43
1.0000
 50
270.0000
  0
INSERT
  8
31
  2
RECT162560X223520R25
 10
87.9475
 20
89.7510
 30
0.0000
 41
1.0000
 42
1.0000
 43
1.0000
 50
270.0000
  0
INSERT
  8
31
  2
RECT162560X223520R25
 10
83.8200
 20
98.8315
 30
0.0000
 41
1.0000
 42
1.0000
 43
1.0000
 50
270.0000
  0
INSERT
  8
31
  2
RECT162560X223520R25
 10
83.8200
 20
97.0535
 30
0.0000
 41
1.0000
 42
1.0000
 43
1.0000
 50
270.0000
  0
INSERT
  8
31
  2
RECT162560X223520R25
 10
4.0520
 20
10.0330
 30
0.0000
 41
1.0000
 42
1.0000
 43
1.0000
 50
180.0000
  0
INSERT
  8
31
  2
RECT162560X223520R25
 10
2.2740
 20
10.0330
 30
0.0000
 41
1.0000
 42
1.0000
 43
1.0000
 50
180.0000
  0
INSERT
  8
31
  2
RECT
 10
18.7840
 20
10.9220
 30
0.0000
 41
1.2700
 42
1.5240
 43
1.0000
 50
180.0000
  0
INSERT
  8
31
  2
RECT
 10
16.2440
 20
10.9220
 30
0.0000
 41
1.2700
 42
1.5240
 43
1.0000
 50
180.0000
  0
INSERT
  8
31
  2
RECT
 10
8.8240
 20
14.9860
 30
0.0000
 41
1.3000
 42
1.5000
 43
1.0000
 50
180.0000
  0
INSERT
  8
31
  2
RECT
 10
6.9240
 20
14.9860
 30
0.0000
 41
1.3000
 42
1.5000
 43
1.0000
 50
180.0000
  0
INSERT
  8
31
  2
RECT162560X223520R25
 10
63.6150
 20
5.5880
 30
0.0000
 41
1.0000
 42
1.0000
 43
1.0000
 50
180.0000
  0
INSERT
  8
31
  2
RECT162560X223520R25
 10
61.8370
 20
5.5880
 30
0.0000
 41
1.0000
 42
1.0000
 43
1.0000
 50
180.0000
  0
INSERT
  8
31
  2
RECT
 10
15.2280
 20
15.2400
 30
0.0000
 41
1.2700
 42
1.5240
 43
1.0000
 50
180.0000
  0
INSERT
  8
31
  2
RECT
 10
12.6880
 20
15.2400
 30
0.0000
 41
1.2700
 42
1.5240
 43
1.0000
 50
180.0000
  0
INSERT
  8
31
  2
RECT162560X223520R25
 10
66.4090
 20
5.5880
 30
0.0000
 41
1.0000
 42
1.0000
 43
1.0000
 50
0.0000
  0
INSERT
  8
31
  2
RECT162560X223520R25
 10
68.1870
 20
5.5880
 30
0.0000
 41
1.0000
 42
1.0000
 43
1.0000
 50
0.0000
  0
INSERT
  8
31
  2
RECT162560X223520R25
 10
73.7750
 20
11.6840
 30
0.0000
 41
1.0000
 42
1.0000
 43
1.0000
 50
180.0000
  0
INSERT
  8
31
  2
RECT162560X223520R25
 10
71.9970
 20
11.6840
 30
0.0000
 41
1.0000
 42
1.0000
 43
1.0000
 50
180.0000
  0
INSERT
  8
31
  2
RECT162560X223520R25
 10
81.5220
 20
42.7990
 30
0.0000
 41
1.0000
 42
1.0000
 43
1.0000
 50
0.0000
  0
INSERT
  8
31
  2
RECT162560X223520R25
 10
83.3000
 20
42.7990
 30
0.0000
 41
1.0000
 42
1.0000
 43
1.0000
 50
0.0000
  0
INSERT
  8
31
  2
RECT162560X223520R25
 10
81.5220
 20
39.8145
 30
0.0000
 41
1.0000
 42
1.0000
 43
1.0000
 50
0.0000
  0
INSERT
  8
31
  2
RECT162560X223520R25
 10
83.3000
 20
39.8145
 30
0.0000
 41
1.0000
 42
1.0000
 43
1.0000
 50
0.0000
  0
INSERT
  8
31
  2
RECT162560X223520R25
 10
81.5220
 20
35.8775
 30
0.0000
 41
1.0000
 42
1.0000
 43
1.0000
 50
0.0000
  0
INSERT
  8
31
  2
RECT162560X223520R25
 10
83.3000
 20
35.8775
 30
0.0000
 41
1.0000
 42
1.0000
 43
1.0000
 50
0.0000
  0
INSERT
  8
31
  2
RECT162560X223520R25
 10
73.3750
 20
14.7320
 30
0.0000
 41
1.0000
 42
1.0000
 43
1.0000
 50
180.0000
  0
INSERT
  8
31
  2
RECT162560X223520R25
 10
71.5970
 20
14.7320
 30
0.0000
 41
1.0000
 42
1.0000
 43
1.0000
 50
180.0000
  0
INSERT
  8
31
  2
RECT162560X223520R25
 10
61.5830
 20
11.6840
 30
0.0000
 41
1.0000
 42
1.0000
 43
1.0000
 50
0.0000
  0
INSERT
  8
31
  2
RECT162560X223520R25
 10
63.3610
 20
11.6840
 30
0.0000
 41
1.0000
 42
1.0000
 43
1.0000
 50
0.0000
  0
INSERT
  8
31
  2
RECT162560X223520R25
 10
61.5830
 20
8.6360
 30
0.0000
 41
1.0000
 42
1.0000
 43
1.0000
 50
0.0000
  0
INSERT
  8
31
  2
RECT162560X223520R25
 10
63.3610
 20
8.6360
 30
0.0000
 41
1.0000
 42
1.0000
 43
1.0000
 50
0.0000
  0
INSERT
  8
31
  2
RECT162560X223520R25
 10
52.3120
 20
16.8910
 30
0.0000
 41
1.0000
 42
1.0000
 43
1.0000
 50
270.0000
  0
INSERT
  8
31
  2
RECT162560X223520R25
 10
52.3120
 20
15.1130
 30
0.0000
 41
1.0000
 42
1.0000
 43
1.0000
 50
270.0000
  0
INSERT
  8
31
  2
RECT162560X223520R25
 10
67.9710
 20
17.7800
 30
0.0000
 41
1.0000
 42
1.0000
 43
1.0000
 50
180.0000
  0
INSERT
  8
31
  2
RECT162560X223520R25
 10
66.1930
 20
17.7800
 30
0.0000
 41
1.0000
 42
1.0000
 43
1.0000
 50
180.0000
  0
INSERT
  8
31
  2
RECT162560X223520R25
 10
69.8570
 20
17.7800
 30
0.0000
 41
1.0000
 42
1.0000
 43
1.0000
 50
0.0000
  0
INSERT
  8
31
  2
RECT162560X223520R25
 10
71.6350
 20
17.7800
 30
0.0000
 41
1.0000
 42
1.0000
 43
1.0000
 50
0.0000
  0
INSERT
  8
31
  2
RECT162560X223520R25
 10
60.3130
 20
26.1620
 30
0.0000
 41
1.0000
 42
1.0000
 43
1.0000
 50
0.0000
  0
INSERT
  8
31
  2
RECT162560X223520R25
 10
62.0910
 20
26.1620
 30
0.0000
 41
1.0000
 42
1.0000
 43
1.0000
 50
0.0000
  0
INSERT
  8
31
  2
RECT162560X223520R25
 10
48.5020
 20
29.4640
 30
0.0000
 41
1.0000
 42
1.0000
 43
1.0000
 50
90.0000
  0
INSERT
  8
31
  2
RECT162560X223520R25
 10
48.5020
 20
31.2420
 30
0.0000
 41
1.0000
 42
1.0000
 43
1.0000
 50
90.0000
  0
INSERT
  8
31
  2
RECT162560X223520R25
 10
43.8030
 20
5.7150
 30
0.0000
 41
1.0000
 42
1.0000
 43
1.0000
 50
270.0000
  0
INSERT
  8
31
  2
RECT162560X223520R25
 10
43.8030
 20
3.9370
 30
0.0000
 41
1.0000
 42
1.0000
 43
1.0000
 50
270.0000
  0
INSERT
  8
31
  2
RECT162560X223520R25
 10
46.3430
 20
5.7150
 30
0.0000
 41
1.0000
 42
1.0000
 43
1.0000
 50
270.0000
  0
INSERT
  8
31
  2
RECT162560X223520R25
 10
46.3430
 20
3.9370
 30
0.0000
 41
1.0000
 42
1.0000
 43
1.0000
 50
270.0000
  0
INSERT
  8
31
  2
RECT162560X223520R25
 10
51.6770
 20
3.9370
 30
0.0000
 41
1.0000
 42
1.0000
 43
1.0000
 50
90.0000
  0
INSERT
  8
31
  2
RECT162560X223520R25
 10
51.6770
 20
5.7150
 30
0.0000
 41
1.0000
 42
1.0000
 43
1.0000
 50
90.0000
  0
INSERT
  8
31
  2
RECT162560X223520R25
 10
45.1365
 20
19.2405
 30
0.0000
 41
1.0000
 42
1.0000
 43
1.0000
 50
180.0000
  0
INSERT
  8
31
  2
RECT162560X223520R25
 10
43.3585
 20
19.2405
 30
0.0000
 41
1.0000
 42
1.0000
 43
1.0000
 50
180.0000
  0
INSERT
  8
31
  2
RECT162560X223520R25
 10
43.7395
 20
21.4630
 30
0.0000
 41
1.0000
 42
1.0000
 43
1.0000
 50
180.0000
  0
INSERT
  8
31
  2
RECT162560X223520R25
 10
41.9615
 20
21.4630
 30
0.0000
 41
1.0000
 42
1.0000
 43
1.0000
 50
180.0000
  0
INSERT
  8
31
  2
RECT162560X223520R25
 10
49.5180
 20
26.4160
 30
0.0000
 41
1.0000
 42
1.0000
 43
1.0000
 50
270.0000
  0
INSERT
  8
31
  2
RECT162560X223520R25
 10
49.5180
 20
24.6380
 30
0.0000
 41
1.0000
 42
1.0000
 43
1.0000
 50
270.0000
  0
INSERT
  8
31
  2
RECT162560X223520R25
 10
82.7920
 20
20.0660
 30
0.0000
 41
1.0000
 42
1.0000
 43
1.0000
 50
0.0000
  0
INSERT
  8
31
  2
RECT162560X223520R25
 10
84.5700
 20
20.0660
 30
0.0000
 41
1.0000
 42
1.0000
 43
1.0000
 50
0.0000
  0
INSERT
  8
31
  2
RECT162560X223520R25
 10
48.4385
 20
21.4630
 30
0.0000
 41
1.0000
 42
1.0000
 43
1.0000
 50
180.0000
  0
INSERT
  8
31
  2
RECT162560X223520R25
 10
46.6605
 20
21.4630
 30
0.0000
 41
1.0000
 42
1.0000
 43
1.0000
 50
180.0000
  0
INSERT
  8
31
  2
RECT162560X223520R25
 10
40.5010
 20
12.5730
 30
0.0000
 41
1.0000
 42
1.0000
 43
1.0000
 50
90.0000
  0
INSERT
  8
31
  2
RECT162560X223520R25
 10
40.5010
 20
14.3510
 30
0.0000
 41
1.0000
 42
1.0000
 43
1.0000
 50
90.0000
  0
INSERT
  8
31
  2
RECT162560X223520R25
 10
37.8340
 20
13.9065
 30
0.0000
 41
1.0000
 42
1.0000
 43
1.0000
 50
90.0000
  0
INSERT
  8
31
  2
RECT162560X223520R25
 10
37.8340
 20
15.6845
 30
0.0000
 41
1.0000
 42
1.0000
 43
1.0000
 50
90.0000
  0
INSERT
  8
31
  2
RECT162560X223520R25
 10
37.8340
 20
20.2565
 30
0.0000
 41
1.0000
 42
1.0000
 43
1.0000
 50
270.0000
  0
INSERT
  8
31
  2
RECT162560X223520R25
 10
37.8340
 20
18.4785
 30
0.0000
 41
1.0000
 42
1.0000
 43
1.0000
 50
270.0000
  0
INSERT
  8
31
  2
RECT
 10
48.3750
 20
38.8620
 30
0.0000
 41
1.2700
 42
1.5240
 43
1.0000
 50
180.0000
  0
INSERT
  8
31
  2
RECT
 10
45.8350
 20
38.8620
 30
0.0000
 41
1.2700
 42
1.5240
 43
1.0000
 50
180.0000
  0
INSERT
  8
31
  2
RECT162560X223520R25
 10
70.2190
 20
23.7490
 30
0.0000
 41
1.0000
 42
1.0000
 43
1.0000
 50
180.0000
  0
INSERT
  8
31
  2
RECT162560X223520R25
 10
68.4410
 20
23.7490
 30
0.0000
 41
1.0000
 42
1.0000
 43
1.0000
 50
180.0000
  0
INSERT
  8
31
  2
RECT162560X223520R25
 10
72.5685
 20
24.7015
 30
0.0000
 41
1.0000
 42
1.0000
 43
1.0000
 50
0.0000
  0
INSERT
  8
31
  2
RECT162560X223520R25
 10
74.3465
 20
24.7015
 30
0.0000
 41
1.0000
 42
1.0000
 43
1.0000
 50
0.0000
  0
INSERT
  8
31
  2
RECT162560X223520R25
 10
63.1070
 20
31.8770
 30
0.0000
 41
1.0000
 42
1.0000
 43
1.0000
 50
180.0000
  0
INSERT
  8
31
  2
RECT162560X223520R25
 10
61.3290
 20
31.8770
 30
0.0000
 41
1.0000
 42
1.0000
 43
1.0000
 50
180.0000
  0
INSERT
  8
31
  2
RECT162560X223520R25
 10
74.0290
 20
36.8300
 30
0.0000
 41
1.0000
 42
1.0000
 43
1.0000
 50
180.0000
  0
INSERT
  8
31
  2
RECT162560X223520R25
 10
72.2510
 20
36.8300
 30
0.0000
 41
1.0000
 42
1.0000
 43
1.0000
 50
180.0000
  0
INSERT
  8
31
  2
RECT162560X223520R25
 10
37.8340
 20
11.0490
 30
0.0000
 41
1.0000
 42
1.0000
 43
1.0000
 50
270.0000
  0
INSERT
  8
31
  2
RECT162560X223520R25
 10
37.8340
 20
9.2710
 30
0.0000
 41
1.0000
 42
1.0000
 43
1.0000
 50
270.0000
  0
INSERT
  8
31
  2
RECT162560X223520R25
 10
29.1980
 20
26.2890
 30
0.0000
 41
1.0000
 42
1.0000
 43
1.0000
 50
180.0000
  0
INSERT
  8
31
  2
RECT162560X223520R25
 10
27.4200
 20
26.2890
 30
0.0000
 41
1.0000
 42
1.0000
 43
1.0000
 50
180.0000
  0
INSERT
  8
31
  2
RECT162560X223520R25
 10
60.5670
 20
41.6560
 30
0.0000
 41
1.0000
 42
1.0000
 43
1.0000
 50
270.0000
  0
INSERT
  8
31
  2
RECT162560X223520R25
 10
60.5670
 20
39.8780
 30
0.0000
 41
1.0000
 42
1.0000
 43
1.0000
 50
270.0000
  0
INSERT
  8
31
  2
RECT162560X223520R25
 10
70.4730
 20
38.6080
 30
0.0000
 41
1.0000
 42
1.0000
 43
1.0000
 50
180.0000
  0
INSERT
  8
31
  2
RECT162560X223520R25
 10
68.6950
 20
38.6080
 30
0.0000
 41
1.0000
 42
1.0000
 43
1.0000
 50
180.0000
  0
INSERT
  8
31
  2
RECT162560X223520R25
 10
26.9120
 20
50.0380
 30
0.0000
 41
1.0000
 42
1.0000
 43
1.0000
 50
0.0000
  0
INSERT
  8
31
  2
RECT162560X223520R25
 10
28.6900
 20
50.0380
 30
0.0000
 41
1.0000
 42
1.0000
 43
1.0000
 50
0.0000
  0
ENDSEC
  0
EOF
