G75*
G70*
%OFA0B0*%
%FSLAX24Y24*%
%IPPOS*%
%LPD*%
%AMOC8*
5,1,8,0,0,1.08239X$1,22.5*
%
%ADD10R,0.0800X0.0260*%
%ADD11R,0.0236X0.0866*%
%ADD12R,0.0709X0.0669*%
%ADD13R,0.0394X0.0551*%
%ADD14R,0.0480X0.0880*%
%ADD15R,0.1417X0.0866*%
%ADD16R,0.0512X0.0591*%
%ADD17R,0.0591X0.0512*%
%ADD18R,0.0551X0.0394*%
%ADD19R,0.0630X0.0709*%
%ADD20R,0.0787X0.0591*%
%ADD21R,0.0880X0.0480*%
%ADD22R,0.0866X0.1417*%
%ADD23R,0.0630X0.0512*%
D10*
X034570Y015980D03*
X034570Y016480D03*
X034570Y016980D03*
X034570Y017480D03*
X034570Y017980D03*
X034570Y018480D03*
X034570Y018980D03*
X034570Y019480D03*
X036990Y019480D03*
X036990Y018980D03*
X036990Y018480D03*
X036990Y017980D03*
X036990Y017480D03*
X036990Y016980D03*
X036990Y016480D03*
X036990Y015980D03*
D11*
X022280Y007504D03*
X021780Y007504D03*
X021280Y007504D03*
X020780Y007504D03*
X020780Y005456D03*
X021280Y005456D03*
X021780Y005456D03*
X022280Y005456D03*
X011780Y006254D03*
X011280Y006254D03*
X010780Y006254D03*
X010280Y006254D03*
X010280Y004206D03*
X010780Y004206D03*
X011280Y004206D03*
X011780Y004206D03*
D12*
X002723Y003230D03*
X004337Y003230D03*
X004337Y004480D03*
X002723Y004480D03*
X002723Y005730D03*
X004337Y005730D03*
X004337Y006980D03*
X002723Y006980D03*
X002723Y008230D03*
X004337Y008230D03*
X023223Y013230D03*
X024837Y013230D03*
X024837Y015730D03*
X023223Y015730D03*
X023223Y016980D03*
X024837Y016980D03*
D13*
X005154Y011047D03*
X004406Y011047D03*
X004780Y011913D03*
X018030Y002538D03*
X017656Y001672D03*
X018404Y001672D03*
D14*
X003440Y010510D03*
X002530Y010510D03*
X001620Y010510D03*
X011995Y017200D03*
X012905Y017200D03*
X013815Y017200D03*
D15*
X012905Y014760D03*
X002530Y012950D03*
D16*
X002156Y014230D03*
X002904Y014230D03*
X002154Y016855D03*
X001406Y016855D03*
X001406Y017980D03*
X002154Y017980D03*
X002154Y019105D03*
X001406Y019105D03*
X012781Y018855D03*
X013529Y018855D03*
X033656Y014480D03*
X034404Y014480D03*
X035656Y013980D03*
X036404Y013980D03*
X035154Y011480D03*
X034406Y011480D03*
X034406Y008730D03*
X035154Y008730D03*
X035154Y005855D03*
X034406Y005855D03*
X031554Y004530D03*
X030806Y004530D03*
X026754Y002430D03*
X026006Y002430D03*
X021529Y002980D03*
X020781Y002980D03*
X020781Y001855D03*
X021529Y001855D03*
X021529Y004230D03*
X020781Y004230D03*
X018279Y006480D03*
X017531Y006480D03*
X013654Y005355D03*
X012906Y005355D03*
X012906Y003855D03*
X013654Y003855D03*
X013354Y002480D03*
X012606Y002480D03*
D17*
X009280Y004231D03*
X009280Y004979D03*
X018255Y009106D03*
X018255Y009854D03*
X020280Y009854D03*
X020280Y009106D03*
X021780Y009106D03*
X021780Y009854D03*
X023280Y009479D03*
X023280Y008731D03*
X023280Y007354D03*
X023280Y006606D03*
X019530Y006979D03*
X019530Y006231D03*
X023030Y004354D03*
X023030Y003606D03*
X023030Y002354D03*
X023030Y001606D03*
X019405Y001481D03*
X019405Y002229D03*
X036630Y004106D03*
X036630Y004854D03*
X036655Y006856D03*
X036655Y007604D03*
X036655Y009731D03*
X036655Y010479D03*
X010780Y014356D03*
X009530Y014356D03*
X009530Y015104D03*
X010780Y015104D03*
X010780Y016356D03*
X009530Y016356D03*
X009530Y017104D03*
X010780Y017104D03*
X004280Y013854D03*
X004280Y013106D03*
D18*
X010097Y018606D03*
X010963Y018980D03*
X010097Y019354D03*
X026222Y010729D03*
X027088Y010355D03*
X026222Y009981D03*
X032222Y008980D03*
X033088Y008606D03*
X033088Y009354D03*
X034472Y009980D03*
X035338Y009606D03*
X035338Y010354D03*
X033213Y011356D03*
X032347Y011730D03*
X033213Y012104D03*
X034472Y012730D03*
X035338Y012356D03*
X035338Y013104D03*
X035338Y007729D03*
X034472Y007355D03*
X035338Y006981D03*
X033213Y006604D03*
X032347Y006230D03*
X033213Y005856D03*
X013963Y007230D03*
X013097Y006856D03*
X013097Y007604D03*
D19*
X010581Y002480D03*
X009479Y002480D03*
D20*
X017905Y003764D03*
X019405Y003764D03*
X019405Y004946D03*
X017905Y004946D03*
X019280Y008939D03*
X019280Y010121D03*
X023030Y010639D03*
X023030Y011821D03*
D21*
X027810Y002765D03*
X027810Y001855D03*
X027810Y000945D03*
X032185Y000945D03*
X032185Y001855D03*
X032185Y002765D03*
D22*
X030250Y001855D03*
X034625Y001855D03*
D23*
X011455Y001586D03*
X011455Y002374D03*
M02*
