G75*
G70*
%OFA0B0*%
%FSLAX24Y24*%
%IPPOS*%
%LPD*%
%AMOC8*
5,1,8,0,0,1.08239X$1,22.5*
%
%ADD10C,0.0000*%
%ADD11C,0.0100*%
%ADD12C,0.0040*%
%ADD13C,0.0160*%
%ADD14C,0.0240*%
%ADD15C,0.0060*%
%ADD16C,0.0020*%
%ADD17C,0.0050*%
%ADD18C,0.0080*%
%ADD19C,0.0030*%
D10*
X000280Y000230D02*
X000280Y021884D01*
X038075Y021884D01*
X038075Y000230D01*
X000280Y000230D01*
X004378Y001214D02*
X004380Y001255D01*
X004386Y001295D01*
X004395Y001335D01*
X004409Y001374D01*
X004426Y001411D01*
X004446Y001446D01*
X004470Y001480D01*
X004497Y001511D01*
X004526Y001539D01*
X004559Y001564D01*
X004593Y001586D01*
X004629Y001605D01*
X004667Y001620D01*
X004707Y001632D01*
X004747Y001640D01*
X004788Y001644D01*
X004828Y001644D01*
X004869Y001640D01*
X004909Y001632D01*
X004949Y001620D01*
X004987Y001605D01*
X005023Y001586D01*
X005057Y001564D01*
X005090Y001539D01*
X005119Y001511D01*
X005146Y001480D01*
X005170Y001446D01*
X005190Y001411D01*
X005207Y001374D01*
X005221Y001335D01*
X005230Y001295D01*
X005236Y001255D01*
X005238Y001214D01*
X005236Y001173D01*
X005230Y001133D01*
X005221Y001093D01*
X005207Y001054D01*
X005190Y001017D01*
X005170Y000982D01*
X005146Y000948D01*
X005119Y000917D01*
X005090Y000889D01*
X005057Y000864D01*
X005023Y000842D01*
X004987Y000823D01*
X004949Y000808D01*
X004909Y000796D01*
X004869Y000788D01*
X004828Y000784D01*
X004788Y000784D01*
X004747Y000788D01*
X004707Y000796D01*
X004667Y000808D01*
X004629Y000823D01*
X004593Y000842D01*
X004559Y000864D01*
X004526Y000889D01*
X004497Y000917D01*
X004470Y000948D01*
X004446Y000982D01*
X004426Y001017D01*
X004409Y001054D01*
X004395Y001093D01*
X004386Y001133D01*
X004380Y001173D01*
X004378Y001214D01*
X024456Y001214D02*
X024458Y001255D01*
X024464Y001295D01*
X024473Y001335D01*
X024487Y001374D01*
X024504Y001411D01*
X024524Y001446D01*
X024548Y001480D01*
X024575Y001511D01*
X024604Y001539D01*
X024637Y001564D01*
X024671Y001586D01*
X024707Y001605D01*
X024745Y001620D01*
X024785Y001632D01*
X024825Y001640D01*
X024866Y001644D01*
X024906Y001644D01*
X024947Y001640D01*
X024987Y001632D01*
X025027Y001620D01*
X025065Y001605D01*
X025101Y001586D01*
X025135Y001564D01*
X025168Y001539D01*
X025197Y001511D01*
X025224Y001480D01*
X025248Y001446D01*
X025268Y001411D01*
X025285Y001374D01*
X025299Y001335D01*
X025308Y001295D01*
X025314Y001255D01*
X025316Y001214D01*
X025314Y001173D01*
X025308Y001133D01*
X025299Y001093D01*
X025285Y001054D01*
X025268Y001017D01*
X025248Y000982D01*
X025224Y000948D01*
X025197Y000917D01*
X025168Y000889D01*
X025135Y000864D01*
X025101Y000842D01*
X025065Y000823D01*
X025027Y000808D01*
X024987Y000796D01*
X024947Y000788D01*
X024906Y000784D01*
X024866Y000784D01*
X024825Y000788D01*
X024785Y000796D01*
X024745Y000808D01*
X024707Y000823D01*
X024671Y000842D01*
X024637Y000864D01*
X024604Y000889D01*
X024575Y000917D01*
X024548Y000948D01*
X024524Y000982D01*
X024504Y001017D01*
X024487Y001054D01*
X024473Y001093D01*
X024464Y001133D01*
X024458Y001173D01*
X024456Y001214D01*
X027837Y003188D02*
X027844Y003182D01*
X027844Y003180D01*
X027846Y003180D02*
X027853Y003180D01*
X027846Y003187D01*
X027846Y003188D01*
X027848Y003190D01*
X027851Y003190D01*
X027853Y003188D01*
X027856Y003182D02*
X027857Y003182D01*
X027857Y003180D01*
X027856Y003180D01*
X027856Y003182D01*
X027856Y003180D02*
X027859Y003177D01*
X027861Y003180D02*
X027868Y003180D01*
X027865Y003180D02*
X027865Y003190D01*
X027868Y003187D01*
X027871Y003187D02*
X027872Y003185D01*
X027877Y003185D01*
X027880Y003183D02*
X027880Y003182D01*
X027882Y003180D01*
X027885Y003180D01*
X027887Y003182D01*
X027885Y003185D02*
X027882Y003185D01*
X027880Y003183D01*
X027877Y003180D02*
X027872Y003180D01*
X027871Y003182D01*
X027871Y003183D01*
X027872Y003185D01*
X027871Y003187D02*
X027871Y003188D01*
X027872Y003190D01*
X027877Y003190D01*
X027877Y003180D01*
X027880Y003188D02*
X027882Y003190D01*
X027885Y003190D01*
X027887Y003188D01*
X027887Y003187D01*
X027885Y003185D01*
X027889Y003185D02*
X027891Y003183D01*
X027896Y003183D01*
X027896Y003180D02*
X027896Y003190D01*
X027891Y003190D01*
X027889Y003188D01*
X027889Y003185D01*
X027898Y003190D02*
X027905Y003190D01*
X027902Y003190D02*
X027902Y003180D01*
X027844Y003190D02*
X027837Y003190D01*
X027837Y003188D01*
X029962Y003188D02*
X029969Y003182D01*
X029969Y003180D01*
X029971Y003180D02*
X029978Y003180D01*
X029971Y003187D01*
X029971Y003188D01*
X029973Y003190D01*
X029976Y003190D01*
X029978Y003188D01*
X029981Y003182D02*
X029982Y003182D01*
X029982Y003180D01*
X029981Y003180D01*
X029981Y003182D01*
X029981Y003180D02*
X029984Y003177D01*
X029986Y003180D02*
X029993Y003180D01*
X029990Y003180D02*
X029990Y003190D01*
X029993Y003187D01*
X029996Y003187D02*
X029997Y003185D01*
X030002Y003185D01*
X030005Y003183D02*
X030005Y003182D01*
X030007Y003180D01*
X030010Y003180D01*
X030012Y003182D01*
X030010Y003185D02*
X030007Y003185D01*
X030005Y003183D01*
X030002Y003180D02*
X029997Y003180D01*
X029996Y003182D01*
X029996Y003183D01*
X029997Y003185D01*
X029996Y003187D02*
X029996Y003188D01*
X029997Y003190D01*
X030002Y003190D01*
X030002Y003180D01*
X030005Y003188D02*
X030007Y003190D01*
X030010Y003190D01*
X030012Y003188D01*
X030012Y003187D01*
X030010Y003185D01*
X030014Y003185D02*
X030016Y003183D01*
X030021Y003183D01*
X030021Y003180D02*
X030021Y003190D01*
X030016Y003190D01*
X030014Y003188D01*
X030014Y003185D01*
X030023Y003190D02*
X030030Y003190D01*
X030027Y003190D02*
X030027Y003180D01*
X029969Y003190D02*
X029962Y003190D01*
X029962Y003188D01*
X027902Y004555D02*
X027902Y004565D01*
X027905Y004565D02*
X027898Y004565D01*
X027896Y004565D02*
X027891Y004565D01*
X027889Y004563D01*
X027889Y004560D01*
X027891Y004558D01*
X027896Y004558D01*
X027896Y004555D02*
X027896Y004565D01*
X027887Y004563D02*
X027887Y004562D01*
X027885Y004560D01*
X027882Y004560D01*
X027880Y004558D01*
X027880Y004557D01*
X027882Y004555D01*
X027885Y004555D01*
X027887Y004557D01*
X027887Y004563D02*
X027885Y004565D01*
X027882Y004565D01*
X027880Y004563D01*
X027877Y004565D02*
X027872Y004565D01*
X027871Y004563D01*
X027871Y004562D01*
X027872Y004560D01*
X027877Y004560D01*
X027872Y004560D02*
X027871Y004558D01*
X027871Y004557D01*
X027872Y004555D01*
X027877Y004555D01*
X027877Y004565D01*
X027868Y004562D02*
X027865Y004565D01*
X027865Y004555D01*
X027868Y004555D02*
X027861Y004555D01*
X027857Y004555D02*
X027856Y004555D01*
X027856Y004557D01*
X027857Y004557D01*
X027857Y004555D01*
X027856Y004555D02*
X027859Y004552D01*
X027853Y004555D02*
X027846Y004562D01*
X027846Y004563D01*
X027848Y004565D01*
X027851Y004565D01*
X027853Y004563D01*
X027853Y004555D02*
X027846Y004555D01*
X027844Y004557D02*
X027844Y004555D01*
X027844Y004557D02*
X027837Y004563D01*
X027837Y004565D01*
X027844Y004565D01*
X027859Y005927D02*
X027856Y005930D01*
X027857Y005930D01*
X027857Y005932D01*
X027856Y005932D01*
X027856Y005930D01*
X027853Y005930D02*
X027846Y005937D01*
X027846Y005938D01*
X027848Y005940D01*
X027851Y005940D01*
X027853Y005938D01*
X027853Y005930D02*
X027846Y005930D01*
X027844Y005932D02*
X027844Y005930D01*
X027844Y005932D02*
X027837Y005938D01*
X027837Y005940D01*
X027844Y005940D01*
X027861Y005930D02*
X027868Y005930D01*
X027865Y005930D02*
X027865Y005940D01*
X027868Y005937D01*
X027871Y005937D02*
X027872Y005935D01*
X027877Y005935D01*
X027880Y005933D02*
X027880Y005932D01*
X027882Y005930D01*
X027885Y005930D01*
X027887Y005932D01*
X027885Y005935D02*
X027882Y005935D01*
X027880Y005933D01*
X027877Y005930D02*
X027872Y005930D01*
X027871Y005932D01*
X027871Y005933D01*
X027872Y005935D01*
X027871Y005937D02*
X027871Y005938D01*
X027872Y005940D01*
X027877Y005940D01*
X027877Y005930D01*
X027880Y005938D02*
X027882Y005940D01*
X027885Y005940D01*
X027887Y005938D01*
X027887Y005937D01*
X027885Y005935D01*
X027889Y005935D02*
X027891Y005933D01*
X027896Y005933D01*
X027896Y005930D02*
X027896Y005940D01*
X027891Y005940D01*
X027889Y005938D01*
X027889Y005935D01*
X027898Y005940D02*
X027905Y005940D01*
X027902Y005940D02*
X027902Y005930D01*
X030106Y007305D02*
X030109Y007302D01*
X030107Y007305D02*
X030106Y007305D01*
X030106Y007307D01*
X030107Y007307D01*
X030107Y007305D01*
X030103Y007305D02*
X030096Y007312D01*
X030096Y007313D01*
X030098Y007315D01*
X030101Y007315D01*
X030103Y007313D01*
X030103Y007305D02*
X030096Y007305D01*
X030094Y007307D02*
X030094Y007305D01*
X030094Y007307D02*
X030087Y007313D01*
X030087Y007315D01*
X030094Y007315D01*
X030111Y007305D02*
X030118Y007305D01*
X030115Y007305D02*
X030115Y007315D01*
X030118Y007312D01*
X030121Y007312D02*
X030122Y007310D01*
X030127Y007310D01*
X030130Y007308D02*
X030130Y007307D01*
X030132Y007305D01*
X030135Y007305D01*
X030137Y007307D01*
X030135Y007310D02*
X030132Y007310D01*
X030130Y007308D01*
X030127Y007305D02*
X030122Y007305D01*
X030121Y007307D01*
X030121Y007308D01*
X030122Y007310D01*
X030121Y007312D02*
X030121Y007313D01*
X030122Y007315D01*
X030127Y007315D01*
X030127Y007305D01*
X030130Y007313D02*
X030132Y007315D01*
X030135Y007315D01*
X030137Y007313D01*
X030137Y007312D01*
X030135Y007310D01*
X030139Y007310D02*
X030141Y007308D01*
X030146Y007308D01*
X030146Y007305D02*
X030146Y007315D01*
X030141Y007315D01*
X030139Y007313D01*
X030139Y007310D01*
X030148Y007315D02*
X030155Y007315D01*
X030152Y007315D02*
X030152Y007305D01*
X032087Y007313D02*
X032094Y007307D01*
X032094Y007305D01*
X032096Y007305D02*
X032103Y007305D01*
X032096Y007312D01*
X032096Y007313D01*
X032098Y007315D01*
X032101Y007315D01*
X032103Y007313D01*
X032106Y007307D02*
X032107Y007307D01*
X032107Y007305D01*
X032106Y007305D01*
X032106Y007307D01*
X032106Y007305D02*
X032109Y007302D01*
X032111Y007305D02*
X032118Y007305D01*
X032115Y007305D02*
X032115Y007315D01*
X032118Y007312D01*
X032121Y007312D02*
X032122Y007310D01*
X032127Y007310D01*
X032130Y007308D02*
X032130Y007307D01*
X032132Y007305D01*
X032135Y007305D01*
X032137Y007307D01*
X032135Y007310D02*
X032132Y007310D01*
X032130Y007308D01*
X032127Y007305D02*
X032122Y007305D01*
X032121Y007307D01*
X032121Y007308D01*
X032122Y007310D01*
X032121Y007312D02*
X032121Y007313D01*
X032122Y007315D01*
X032127Y007315D01*
X032127Y007305D01*
X032130Y007313D02*
X032132Y007315D01*
X032135Y007315D01*
X032137Y007313D01*
X032137Y007312D01*
X032135Y007310D01*
X032139Y007310D02*
X032141Y007308D01*
X032146Y007308D01*
X032146Y007305D02*
X032146Y007315D01*
X032141Y007315D01*
X032139Y007313D01*
X032139Y007310D01*
X032148Y007315D02*
X032155Y007315D01*
X032152Y007315D02*
X032152Y007305D01*
X032094Y007315D02*
X032087Y007315D01*
X032087Y007313D01*
X031152Y009430D02*
X031152Y009440D01*
X031155Y009440D02*
X031148Y009440D01*
X031146Y009440D02*
X031141Y009440D01*
X031139Y009438D01*
X031139Y009435D01*
X031141Y009433D01*
X031146Y009433D01*
X031146Y009430D02*
X031146Y009440D01*
X031137Y009438D02*
X031137Y009437D01*
X031135Y009435D01*
X031132Y009435D01*
X031130Y009433D01*
X031130Y009432D01*
X031132Y009430D01*
X031135Y009430D01*
X031137Y009432D01*
X031137Y009438D02*
X031135Y009440D01*
X031132Y009440D01*
X031130Y009438D01*
X031127Y009440D02*
X031122Y009440D01*
X031121Y009438D01*
X031121Y009437D01*
X031122Y009435D01*
X031127Y009435D01*
X031122Y009435D02*
X031121Y009433D01*
X031121Y009432D01*
X031122Y009430D01*
X031127Y009430D01*
X031127Y009440D01*
X031118Y009437D02*
X031115Y009440D01*
X031115Y009430D01*
X031118Y009430D02*
X031111Y009430D01*
X031107Y009430D02*
X031106Y009430D01*
X031106Y009432D01*
X031107Y009432D01*
X031107Y009430D01*
X031106Y009430D02*
X031109Y009427D01*
X031103Y009430D02*
X031096Y009437D01*
X031096Y009438D01*
X031098Y009440D01*
X031101Y009440D01*
X031103Y009438D01*
X031103Y009430D02*
X031096Y009430D01*
X031094Y009432D02*
X031094Y009430D01*
X031094Y009432D02*
X031087Y009438D01*
X031087Y009440D01*
X031094Y009440D01*
X032087Y010063D02*
X032094Y010057D01*
X032094Y010055D01*
X032096Y010055D02*
X032103Y010055D01*
X032096Y010062D01*
X032096Y010063D01*
X032098Y010065D01*
X032101Y010065D01*
X032103Y010063D01*
X032106Y010057D02*
X032107Y010057D01*
X032107Y010055D01*
X032106Y010055D01*
X032106Y010057D01*
X032106Y010055D02*
X032109Y010052D01*
X032111Y010055D02*
X032118Y010055D01*
X032115Y010055D02*
X032115Y010065D01*
X032118Y010062D01*
X032121Y010062D02*
X032122Y010060D01*
X032127Y010060D01*
X032130Y010058D02*
X032130Y010057D01*
X032132Y010055D01*
X032135Y010055D01*
X032137Y010057D01*
X032135Y010060D02*
X032132Y010060D01*
X032130Y010058D01*
X032127Y010055D02*
X032122Y010055D01*
X032121Y010057D01*
X032121Y010058D01*
X032122Y010060D01*
X032121Y010062D02*
X032121Y010063D01*
X032122Y010065D01*
X032127Y010065D01*
X032127Y010055D01*
X032130Y010063D02*
X032132Y010065D01*
X032135Y010065D01*
X032137Y010063D01*
X032137Y010062D01*
X032135Y010060D01*
X032139Y010060D02*
X032141Y010058D01*
X032146Y010058D01*
X032146Y010055D02*
X032146Y010065D01*
X032141Y010065D01*
X032139Y010063D01*
X032139Y010060D01*
X032148Y010065D02*
X032155Y010065D01*
X032152Y010065D02*
X032152Y010055D01*
X032094Y010065D02*
X032087Y010065D01*
X032087Y010063D01*
X030030Y010065D02*
X030023Y010065D01*
X030021Y010065D02*
X030016Y010065D01*
X030014Y010063D01*
X030014Y010060D01*
X030016Y010058D01*
X030021Y010058D01*
X030021Y010055D02*
X030021Y010065D01*
X030027Y010065D02*
X030027Y010055D01*
X030012Y010057D02*
X030010Y010055D01*
X030007Y010055D01*
X030005Y010057D01*
X030005Y010058D01*
X030007Y010060D01*
X030010Y010060D01*
X030012Y010062D01*
X030012Y010063D01*
X030010Y010065D01*
X030007Y010065D01*
X030005Y010063D01*
X030002Y010065D02*
X029997Y010065D01*
X029996Y010063D01*
X029996Y010062D01*
X029997Y010060D01*
X030002Y010060D01*
X029997Y010060D02*
X029996Y010058D01*
X029996Y010057D01*
X029997Y010055D01*
X030002Y010055D01*
X030002Y010065D01*
X029993Y010062D02*
X029990Y010065D01*
X029990Y010055D01*
X029993Y010055D02*
X029986Y010055D01*
X029982Y010055D02*
X029981Y010055D01*
X029981Y010057D01*
X029982Y010057D01*
X029982Y010055D01*
X029981Y010055D02*
X029984Y010052D01*
X029978Y010055D02*
X029971Y010062D01*
X029971Y010063D01*
X029973Y010065D01*
X029976Y010065D01*
X029978Y010063D01*
X029978Y010055D02*
X029971Y010055D01*
X029969Y010057D02*
X029969Y010055D01*
X029969Y010057D02*
X029962Y010063D01*
X029962Y010065D01*
X029969Y010065D01*
X027902Y011430D02*
X027902Y011440D01*
X027905Y011440D02*
X027898Y011440D01*
X027896Y011440D02*
X027891Y011440D01*
X027889Y011438D01*
X027889Y011435D01*
X027891Y011433D01*
X027896Y011433D01*
X027896Y011430D02*
X027896Y011440D01*
X027887Y011438D02*
X027887Y011437D01*
X027885Y011435D01*
X027882Y011435D01*
X027880Y011433D01*
X027880Y011432D01*
X027882Y011430D01*
X027885Y011430D01*
X027887Y011432D01*
X027887Y011438D02*
X027885Y011440D01*
X027882Y011440D01*
X027880Y011438D01*
X027877Y011440D02*
X027872Y011440D01*
X027871Y011438D01*
X027871Y011437D01*
X027872Y011435D01*
X027877Y011435D01*
X027872Y011435D02*
X027871Y011433D01*
X027871Y011432D01*
X027872Y011430D01*
X027877Y011430D01*
X027877Y011440D01*
X027868Y011437D02*
X027865Y011440D01*
X027865Y011430D01*
X027868Y011430D02*
X027861Y011430D01*
X027857Y011430D02*
X027856Y011430D01*
X027856Y011432D01*
X027857Y011432D01*
X027857Y011430D01*
X027856Y011430D02*
X027859Y011427D01*
X027853Y011430D02*
X027846Y011437D01*
X027846Y011438D01*
X027848Y011440D01*
X027851Y011440D01*
X027853Y011438D01*
X027853Y011430D02*
X027846Y011430D01*
X027844Y011432D02*
X027844Y011430D01*
X027844Y011432D02*
X027837Y011438D01*
X027837Y011440D01*
X027844Y011440D01*
X030962Y012313D02*
X030969Y012307D01*
X030969Y012305D01*
X030971Y012305D02*
X030978Y012305D01*
X030971Y012312D01*
X030971Y012313D01*
X030973Y012315D01*
X030976Y012315D01*
X030978Y012313D01*
X030981Y012307D02*
X030982Y012307D01*
X030982Y012305D01*
X030981Y012305D01*
X030981Y012307D01*
X030981Y012305D02*
X030984Y012302D01*
X030986Y012305D02*
X030993Y012305D01*
X030990Y012305D02*
X030990Y012315D01*
X030993Y012312D01*
X030996Y012312D02*
X030997Y012310D01*
X031002Y012310D01*
X031005Y012308D02*
X031005Y012307D01*
X031007Y012305D01*
X031010Y012305D01*
X031012Y012307D01*
X031010Y012310D02*
X031007Y012310D01*
X031005Y012308D01*
X031002Y012305D02*
X030997Y012305D01*
X030996Y012307D01*
X030996Y012308D01*
X030997Y012310D01*
X030996Y012312D02*
X030996Y012313D01*
X030997Y012315D01*
X031002Y012315D01*
X031002Y012305D01*
X031005Y012313D02*
X031007Y012315D01*
X031010Y012315D01*
X031012Y012313D01*
X031012Y012312D01*
X031010Y012310D01*
X031014Y012310D02*
X031016Y012308D01*
X031021Y012308D01*
X031021Y012305D02*
X031021Y012315D01*
X031016Y012315D01*
X031014Y012313D01*
X031014Y012310D01*
X031023Y012315D02*
X031030Y012315D01*
X031027Y012315D02*
X031027Y012305D01*
X030969Y012315D02*
X030962Y012315D01*
X030962Y012313D01*
X032087Y012813D02*
X032094Y012807D01*
X032094Y012805D01*
X032096Y012805D02*
X032103Y012805D01*
X032096Y012812D01*
X032096Y012813D01*
X032098Y012815D01*
X032101Y012815D01*
X032103Y012813D01*
X032106Y012807D02*
X032107Y012807D01*
X032107Y012805D01*
X032106Y012805D01*
X032106Y012807D01*
X032106Y012805D02*
X032109Y012802D01*
X032111Y012805D02*
X032118Y012805D01*
X032115Y012805D02*
X032115Y012815D01*
X032118Y012812D01*
X032121Y012812D02*
X032122Y012810D01*
X032127Y012810D01*
X032130Y012808D02*
X032130Y012807D01*
X032132Y012805D01*
X032135Y012805D01*
X032137Y012807D01*
X032135Y012810D02*
X032132Y012810D01*
X032130Y012808D01*
X032127Y012805D02*
X032122Y012805D01*
X032121Y012807D01*
X032121Y012808D01*
X032122Y012810D01*
X032121Y012812D02*
X032121Y012813D01*
X032122Y012815D01*
X032127Y012815D01*
X032127Y012805D01*
X032130Y012813D02*
X032132Y012815D01*
X032135Y012815D01*
X032137Y012813D01*
X032137Y012812D01*
X032135Y012810D01*
X032139Y012810D02*
X032141Y012808D01*
X032146Y012808D01*
X032146Y012805D02*
X032146Y012815D01*
X032141Y012815D01*
X032139Y012813D01*
X032139Y012810D01*
X032148Y012815D02*
X032155Y012815D01*
X032152Y012815D02*
X032152Y012805D01*
X032094Y012815D02*
X032087Y012815D01*
X032087Y012813D01*
X030130Y013240D02*
X030123Y013240D01*
X030121Y013240D02*
X030116Y013240D01*
X030114Y013238D01*
X030114Y013235D01*
X030116Y013233D01*
X030121Y013233D01*
X030121Y013230D02*
X030121Y013240D01*
X030127Y013240D02*
X030127Y013230D01*
X030112Y013232D02*
X030110Y013230D01*
X030107Y013230D01*
X030105Y013232D01*
X030105Y013233D01*
X030107Y013235D01*
X030110Y013235D01*
X030112Y013237D01*
X030112Y013238D01*
X030110Y013240D01*
X030107Y013240D01*
X030105Y013238D01*
X030102Y013240D02*
X030097Y013240D01*
X030096Y013238D01*
X030096Y013237D01*
X030097Y013235D01*
X030102Y013235D01*
X030097Y013235D02*
X030096Y013233D01*
X030096Y013232D01*
X030097Y013230D01*
X030102Y013230D01*
X030102Y013240D01*
X030093Y013237D02*
X030090Y013240D01*
X030090Y013230D01*
X030093Y013230D02*
X030086Y013230D01*
X030082Y013230D02*
X030081Y013230D01*
X030081Y013232D01*
X030082Y013232D01*
X030082Y013230D01*
X030081Y013230D02*
X030084Y013227D01*
X030078Y013230D02*
X030071Y013237D01*
X030071Y013238D01*
X030073Y013240D01*
X030076Y013240D01*
X030078Y013238D01*
X030078Y013230D02*
X030071Y013230D01*
X030069Y013232D02*
X030069Y013230D01*
X030069Y013232D02*
X030062Y013238D01*
X030062Y013240D01*
X030069Y013240D01*
X027905Y013065D02*
X027898Y013065D01*
X027896Y013065D02*
X027891Y013065D01*
X027889Y013063D01*
X027889Y013060D01*
X027891Y013058D01*
X027896Y013058D01*
X027896Y013055D02*
X027896Y013065D01*
X027902Y013065D02*
X027902Y013055D01*
X027887Y013057D02*
X027885Y013055D01*
X027882Y013055D01*
X027880Y013057D01*
X027880Y013058D01*
X027882Y013060D01*
X027885Y013060D01*
X027887Y013062D01*
X027887Y013063D01*
X027885Y013065D01*
X027882Y013065D01*
X027880Y013063D01*
X027877Y013065D02*
X027872Y013065D01*
X027871Y013063D01*
X027871Y013062D01*
X027872Y013060D01*
X027877Y013060D01*
X027872Y013060D02*
X027871Y013058D01*
X027871Y013057D01*
X027872Y013055D01*
X027877Y013055D01*
X027877Y013065D01*
X027868Y013062D02*
X027865Y013065D01*
X027865Y013055D01*
X027868Y013055D02*
X027861Y013055D01*
X027857Y013055D02*
X027856Y013055D01*
X027856Y013057D01*
X027857Y013057D01*
X027857Y013055D01*
X027856Y013055D02*
X027859Y013052D01*
X027853Y013055D02*
X027846Y013062D01*
X027846Y013063D01*
X027848Y013065D01*
X027851Y013065D01*
X027853Y013063D01*
X027853Y013055D02*
X027846Y013055D01*
X027844Y013057D02*
X027844Y013055D01*
X027844Y013057D02*
X027837Y013063D01*
X027837Y013065D01*
X027844Y013065D01*
X025902Y013805D02*
X025902Y013815D01*
X025905Y013815D02*
X025898Y013815D01*
X025896Y013815D02*
X025891Y013815D01*
X025889Y013813D01*
X025889Y013810D01*
X025891Y013808D01*
X025896Y013808D01*
X025896Y013805D02*
X025896Y013815D01*
X025887Y013813D02*
X025887Y013812D01*
X025885Y013810D01*
X025882Y013810D01*
X025880Y013808D01*
X025880Y013807D01*
X025882Y013805D01*
X025885Y013805D01*
X025887Y013807D01*
X025887Y013813D02*
X025885Y013815D01*
X025882Y013815D01*
X025880Y013813D01*
X025877Y013815D02*
X025872Y013815D01*
X025871Y013813D01*
X025871Y013812D01*
X025872Y013810D01*
X025877Y013810D01*
X025872Y013810D02*
X025871Y013808D01*
X025871Y013807D01*
X025872Y013805D01*
X025877Y013805D01*
X025877Y013815D01*
X025868Y013812D02*
X025865Y013815D01*
X025865Y013805D01*
X025868Y013805D02*
X025861Y013805D01*
X025857Y013805D02*
X025856Y013805D01*
X025856Y013807D01*
X025857Y013807D01*
X025857Y013805D01*
X025856Y013805D02*
X025859Y013802D01*
X025853Y013805D02*
X025846Y013812D01*
X025846Y013813D01*
X025848Y013815D01*
X025851Y013815D01*
X025853Y013813D01*
X025853Y013805D02*
X025846Y013805D01*
X025844Y013807D02*
X025844Y013805D01*
X025844Y013807D02*
X025837Y013813D01*
X025837Y013815D01*
X025844Y013815D01*
X029937Y015363D02*
X029944Y015357D01*
X029944Y015355D01*
X029946Y015355D02*
X029953Y015355D01*
X029946Y015362D01*
X029946Y015363D01*
X029948Y015365D01*
X029951Y015365D01*
X029953Y015363D01*
X029956Y015357D02*
X029957Y015357D01*
X029957Y015355D01*
X029956Y015355D01*
X029956Y015357D01*
X029956Y015355D02*
X029959Y015352D01*
X029961Y015355D02*
X029968Y015355D01*
X029965Y015355D02*
X029965Y015365D01*
X029968Y015362D01*
X029971Y015362D02*
X029972Y015360D01*
X029977Y015360D01*
X029980Y015358D02*
X029980Y015357D01*
X029982Y015355D01*
X029985Y015355D01*
X029987Y015357D01*
X029985Y015360D02*
X029982Y015360D01*
X029980Y015358D01*
X029977Y015355D02*
X029972Y015355D01*
X029971Y015357D01*
X029971Y015358D01*
X029972Y015360D01*
X029971Y015362D02*
X029971Y015363D01*
X029972Y015365D01*
X029977Y015365D01*
X029977Y015355D01*
X029980Y015363D02*
X029982Y015365D01*
X029985Y015365D01*
X029987Y015363D01*
X029987Y015362D01*
X029985Y015360D01*
X029989Y015360D02*
X029991Y015358D01*
X029996Y015358D01*
X029996Y015355D02*
X029996Y015365D01*
X029991Y015365D01*
X029989Y015363D01*
X029989Y015360D01*
X029998Y015365D02*
X030005Y015365D01*
X030002Y015365D02*
X030002Y015355D01*
X029944Y015365D02*
X029937Y015365D01*
X029937Y015363D01*
X032087Y015315D02*
X032087Y015313D01*
X032094Y015307D01*
X032094Y015305D01*
X032096Y015305D02*
X032103Y015305D01*
X032096Y015312D01*
X032096Y015313D01*
X032098Y015315D01*
X032101Y015315D01*
X032103Y015313D01*
X032106Y015307D02*
X032107Y015307D01*
X032107Y015305D01*
X032106Y015305D01*
X032106Y015307D01*
X032106Y015305D02*
X032109Y015302D01*
X032111Y015305D02*
X032118Y015305D01*
X032115Y015305D02*
X032115Y015315D01*
X032118Y015312D01*
X032121Y015312D02*
X032122Y015310D01*
X032127Y015310D01*
X032130Y015308D02*
X032130Y015307D01*
X032132Y015305D01*
X032135Y015305D01*
X032137Y015307D01*
X032135Y015310D02*
X032132Y015310D01*
X032130Y015308D01*
X032127Y015305D02*
X032122Y015305D01*
X032121Y015307D01*
X032121Y015308D01*
X032122Y015310D01*
X032121Y015312D02*
X032121Y015313D01*
X032122Y015315D01*
X032127Y015315D01*
X032127Y015305D01*
X032130Y015313D02*
X032132Y015315D01*
X032135Y015315D01*
X032137Y015313D01*
X032137Y015312D01*
X032135Y015310D01*
X032139Y015310D02*
X032141Y015308D01*
X032146Y015308D01*
X032146Y015305D02*
X032146Y015315D01*
X032141Y015315D01*
X032139Y015313D01*
X032139Y015310D01*
X032148Y015315D02*
X032155Y015315D01*
X032152Y015315D02*
X032152Y015305D01*
X032094Y015315D02*
X032087Y015315D01*
X029902Y017055D02*
X029902Y017065D01*
X029905Y017065D02*
X029898Y017065D01*
X029896Y017065D02*
X029891Y017065D01*
X029889Y017063D01*
X029889Y017060D01*
X029891Y017058D01*
X029896Y017058D01*
X029896Y017055D02*
X029896Y017065D01*
X029887Y017063D02*
X029887Y017062D01*
X029885Y017060D01*
X029882Y017060D01*
X029880Y017058D01*
X029880Y017057D01*
X029882Y017055D01*
X029885Y017055D01*
X029887Y017057D01*
X029887Y017063D02*
X029885Y017065D01*
X029882Y017065D01*
X029880Y017063D01*
X029877Y017065D02*
X029872Y017065D01*
X029871Y017063D01*
X029871Y017062D01*
X029872Y017060D01*
X029877Y017060D01*
X029872Y017060D02*
X029871Y017058D01*
X029871Y017057D01*
X029872Y017055D01*
X029877Y017055D01*
X029877Y017065D01*
X029868Y017062D02*
X029865Y017065D01*
X029865Y017055D01*
X029868Y017055D02*
X029861Y017055D01*
X029857Y017055D02*
X029856Y017055D01*
X029856Y017057D01*
X029857Y017057D01*
X029857Y017055D01*
X029856Y017055D02*
X029859Y017052D01*
X029853Y017055D02*
X029846Y017062D01*
X029846Y017063D01*
X029848Y017065D01*
X029851Y017065D01*
X029853Y017063D01*
X029853Y017055D02*
X029846Y017055D01*
X029844Y017057D02*
X029844Y017055D01*
X029844Y017057D02*
X029837Y017063D01*
X029837Y017065D01*
X029844Y017065D01*
X024456Y020899D02*
X024458Y020940D01*
X024464Y020980D01*
X024473Y021020D01*
X024487Y021059D01*
X024504Y021096D01*
X024524Y021131D01*
X024548Y021165D01*
X024575Y021196D01*
X024604Y021224D01*
X024637Y021249D01*
X024671Y021271D01*
X024707Y021290D01*
X024745Y021305D01*
X024785Y021317D01*
X024825Y021325D01*
X024866Y021329D01*
X024906Y021329D01*
X024947Y021325D01*
X024987Y021317D01*
X025027Y021305D01*
X025065Y021290D01*
X025101Y021271D01*
X025135Y021249D01*
X025168Y021224D01*
X025197Y021196D01*
X025224Y021165D01*
X025248Y021131D01*
X025268Y021096D01*
X025285Y021059D01*
X025299Y021020D01*
X025308Y020980D01*
X025314Y020940D01*
X025316Y020899D01*
X025314Y020858D01*
X025308Y020818D01*
X025299Y020778D01*
X025285Y020739D01*
X025268Y020702D01*
X025248Y020667D01*
X025224Y020633D01*
X025197Y020602D01*
X025168Y020574D01*
X025135Y020549D01*
X025101Y020527D01*
X025065Y020508D01*
X025027Y020493D01*
X024987Y020481D01*
X024947Y020473D01*
X024906Y020469D01*
X024866Y020469D01*
X024825Y020473D01*
X024785Y020481D01*
X024745Y020493D01*
X024707Y020508D01*
X024671Y020527D01*
X024637Y020549D01*
X024604Y020574D01*
X024575Y020602D01*
X024548Y020633D01*
X024524Y020667D01*
X024504Y020702D01*
X024487Y020739D01*
X024473Y020778D01*
X024464Y020818D01*
X024458Y020858D01*
X024456Y020899D01*
X019380Y019221D02*
X019382Y019271D01*
X019388Y019321D01*
X019398Y019371D01*
X019411Y019419D01*
X019428Y019467D01*
X019449Y019513D01*
X019473Y019557D01*
X019501Y019599D01*
X019532Y019639D01*
X019566Y019676D01*
X019603Y019711D01*
X019642Y019742D01*
X019683Y019771D01*
X019727Y019796D01*
X019773Y019818D01*
X019820Y019836D01*
X019868Y019850D01*
X019917Y019861D01*
X019967Y019868D01*
X020017Y019871D01*
X020068Y019870D01*
X020118Y019865D01*
X020168Y019856D01*
X020216Y019844D01*
X020264Y019827D01*
X020310Y019807D01*
X020355Y019784D01*
X020398Y019757D01*
X020438Y019727D01*
X020476Y019694D01*
X020511Y019658D01*
X020544Y019619D01*
X020573Y019578D01*
X020599Y019535D01*
X020622Y019490D01*
X020641Y019443D01*
X020656Y019395D01*
X020668Y019346D01*
X020676Y019296D01*
X020680Y019246D01*
X020680Y019196D01*
X020676Y019146D01*
X020668Y019096D01*
X020656Y019047D01*
X020641Y018999D01*
X020622Y018952D01*
X020599Y018907D01*
X020573Y018864D01*
X020544Y018823D01*
X020511Y018784D01*
X020476Y018748D01*
X020438Y018715D01*
X020398Y018685D01*
X020355Y018658D01*
X020310Y018635D01*
X020264Y018615D01*
X020216Y018598D01*
X020168Y018586D01*
X020118Y018577D01*
X020068Y018572D01*
X020017Y018571D01*
X019967Y018574D01*
X019917Y018581D01*
X019868Y018592D01*
X019820Y018606D01*
X019773Y018624D01*
X019727Y018646D01*
X019683Y018671D01*
X019642Y018700D01*
X019603Y018731D01*
X019566Y018766D01*
X019532Y018803D01*
X019501Y018843D01*
X019473Y018885D01*
X019449Y018929D01*
X019428Y018975D01*
X019411Y019023D01*
X019398Y019071D01*
X019388Y019121D01*
X019382Y019171D01*
X019380Y019221D01*
X004378Y020899D02*
X004380Y020940D01*
X004386Y020980D01*
X004395Y021020D01*
X004409Y021059D01*
X004426Y021096D01*
X004446Y021131D01*
X004470Y021165D01*
X004497Y021196D01*
X004526Y021224D01*
X004559Y021249D01*
X004593Y021271D01*
X004629Y021290D01*
X004667Y021305D01*
X004707Y021317D01*
X004747Y021325D01*
X004788Y021329D01*
X004828Y021329D01*
X004869Y021325D01*
X004909Y021317D01*
X004949Y021305D01*
X004987Y021290D01*
X005023Y021271D01*
X005057Y021249D01*
X005090Y021224D01*
X005119Y021196D01*
X005146Y021165D01*
X005170Y021131D01*
X005190Y021096D01*
X005207Y021059D01*
X005221Y021020D01*
X005230Y020980D01*
X005236Y020940D01*
X005238Y020899D01*
X005236Y020858D01*
X005230Y020818D01*
X005221Y020778D01*
X005207Y020739D01*
X005190Y020702D01*
X005170Y020667D01*
X005146Y020633D01*
X005119Y020602D01*
X005090Y020574D01*
X005057Y020549D01*
X005023Y020527D01*
X004987Y020508D01*
X004949Y020493D01*
X004909Y020481D01*
X004869Y020473D01*
X004828Y020469D01*
X004788Y020469D01*
X004747Y020473D01*
X004707Y020481D01*
X004667Y020493D01*
X004629Y020508D01*
X004593Y020527D01*
X004559Y020549D01*
X004526Y020574D01*
X004497Y020602D01*
X004470Y020633D01*
X004446Y020667D01*
X004426Y020702D01*
X004409Y020739D01*
X004395Y020778D01*
X004386Y020818D01*
X004380Y020858D01*
X004378Y020899D01*
X002080Y021030D02*
X002082Y021058D01*
X002088Y021085D01*
X002097Y021111D01*
X002110Y021136D01*
X002127Y021159D01*
X002146Y021179D01*
X002168Y021196D01*
X002192Y021210D01*
X002218Y021220D01*
X002245Y021227D01*
X002273Y021230D01*
X002301Y021229D01*
X002328Y021224D01*
X002355Y021215D01*
X002380Y021203D01*
X002403Y021188D01*
X002424Y021169D01*
X002442Y021148D01*
X002457Y021124D01*
X002468Y021098D01*
X002476Y021072D01*
X002480Y021044D01*
X002480Y021016D01*
X002476Y020988D01*
X002468Y020962D01*
X002457Y020936D01*
X002442Y020912D01*
X002424Y020891D01*
X002403Y020872D01*
X002380Y020857D01*
X002355Y020845D01*
X002328Y020836D01*
X002301Y020831D01*
X002273Y020830D01*
X002245Y020833D01*
X002218Y020840D01*
X002192Y020850D01*
X002168Y020864D01*
X002146Y020881D01*
X002127Y020901D01*
X002110Y020924D01*
X002097Y020949D01*
X002088Y020975D01*
X002082Y021002D01*
X002080Y021030D01*
X002130Y021530D02*
X002132Y021558D01*
X002138Y021585D01*
X002147Y021611D01*
X002160Y021636D01*
X002177Y021659D01*
X002196Y021679D01*
X002218Y021696D01*
X002242Y021710D01*
X002268Y021720D01*
X002295Y021727D01*
X002323Y021730D01*
X002351Y021729D01*
X002378Y021724D01*
X002405Y021715D01*
X002430Y021703D01*
X002453Y021688D01*
X002474Y021669D01*
X002492Y021648D01*
X002507Y021624D01*
X002518Y021598D01*
X002526Y021572D01*
X002530Y021544D01*
X002530Y021516D01*
X002526Y021488D01*
X002518Y021462D01*
X002507Y021436D01*
X002492Y021412D01*
X002474Y021391D01*
X002453Y021372D01*
X002430Y021357D01*
X002405Y021345D01*
X002378Y021336D01*
X002351Y021331D01*
X002323Y021330D01*
X002295Y021333D01*
X002268Y021340D01*
X002242Y021350D01*
X002218Y021364D01*
X002196Y021381D01*
X002177Y021401D01*
X002160Y021424D01*
X002147Y021449D01*
X002138Y021475D01*
X002132Y021502D01*
X002130Y021530D01*
X001880Y020580D02*
X001882Y020608D01*
X001888Y020635D01*
X001897Y020661D01*
X001910Y020686D01*
X001927Y020709D01*
X001946Y020729D01*
X001968Y020746D01*
X001992Y020760D01*
X002018Y020770D01*
X002045Y020777D01*
X002073Y020780D01*
X002101Y020779D01*
X002128Y020774D01*
X002155Y020765D01*
X002180Y020753D01*
X002203Y020738D01*
X002224Y020719D01*
X002242Y020698D01*
X002257Y020674D01*
X002268Y020648D01*
X002276Y020622D01*
X002280Y020594D01*
X002280Y020566D01*
X002276Y020538D01*
X002268Y020512D01*
X002257Y020486D01*
X002242Y020462D01*
X002224Y020441D01*
X002203Y020422D01*
X002180Y020407D01*
X002155Y020395D01*
X002128Y020386D01*
X002101Y020381D01*
X002073Y020380D01*
X002045Y020383D01*
X002018Y020390D01*
X001992Y020400D01*
X001968Y020414D01*
X001946Y020431D01*
X001927Y020451D01*
X001910Y020474D01*
X001897Y020499D01*
X001888Y020525D01*
X001882Y020552D01*
X001880Y020580D01*
X001480Y020280D02*
X001482Y020308D01*
X001488Y020335D01*
X001497Y020361D01*
X001510Y020386D01*
X001527Y020409D01*
X001546Y020429D01*
X001568Y020446D01*
X001592Y020460D01*
X001618Y020470D01*
X001645Y020477D01*
X001673Y020480D01*
X001701Y020479D01*
X001728Y020474D01*
X001755Y020465D01*
X001780Y020453D01*
X001803Y020438D01*
X001824Y020419D01*
X001842Y020398D01*
X001857Y020374D01*
X001868Y020348D01*
X001876Y020322D01*
X001880Y020294D01*
X001880Y020266D01*
X001876Y020238D01*
X001868Y020212D01*
X001857Y020186D01*
X001842Y020162D01*
X001824Y020141D01*
X001803Y020122D01*
X001780Y020107D01*
X001755Y020095D01*
X001728Y020086D01*
X001701Y020081D01*
X001673Y020080D01*
X001645Y020083D01*
X001618Y020090D01*
X001592Y020100D01*
X001568Y020114D01*
X001546Y020131D01*
X001527Y020151D01*
X001510Y020174D01*
X001497Y020199D01*
X001488Y020225D01*
X001482Y020252D01*
X001480Y020280D01*
X000980Y020180D02*
X000982Y020208D01*
X000988Y020235D01*
X000997Y020261D01*
X001010Y020286D01*
X001027Y020309D01*
X001046Y020329D01*
X001068Y020346D01*
X001092Y020360D01*
X001118Y020370D01*
X001145Y020377D01*
X001173Y020380D01*
X001201Y020379D01*
X001228Y020374D01*
X001255Y020365D01*
X001280Y020353D01*
X001303Y020338D01*
X001324Y020319D01*
X001342Y020298D01*
X001357Y020274D01*
X001368Y020248D01*
X001376Y020222D01*
X001380Y020194D01*
X001380Y020166D01*
X001376Y020138D01*
X001368Y020112D01*
X001357Y020086D01*
X001342Y020062D01*
X001324Y020041D01*
X001303Y020022D01*
X001280Y020007D01*
X001255Y019995D01*
X001228Y019986D01*
X001201Y019981D01*
X001173Y019980D01*
X001145Y019983D01*
X001118Y019990D01*
X001092Y020000D01*
X001068Y020014D01*
X001046Y020031D01*
X001027Y020051D01*
X001010Y020074D01*
X000997Y020099D01*
X000988Y020125D01*
X000982Y020152D01*
X000980Y020180D01*
X000455Y020055D02*
X000457Y020083D01*
X000463Y020110D01*
X000472Y020136D01*
X000485Y020161D01*
X000502Y020184D01*
X000521Y020204D01*
X000543Y020221D01*
X000567Y020235D01*
X000593Y020245D01*
X000620Y020252D01*
X000648Y020255D01*
X000676Y020254D01*
X000703Y020249D01*
X000730Y020240D01*
X000755Y020228D01*
X000778Y020213D01*
X000799Y020194D01*
X000817Y020173D01*
X000832Y020149D01*
X000843Y020123D01*
X000851Y020097D01*
X000855Y020069D01*
X000855Y020041D01*
X000851Y020013D01*
X000843Y019987D01*
X000832Y019961D01*
X000817Y019937D01*
X000799Y019916D01*
X000778Y019897D01*
X000755Y019882D01*
X000730Y019870D01*
X000703Y019861D01*
X000676Y019856D01*
X000648Y019855D01*
X000620Y019858D01*
X000593Y019865D01*
X000567Y019875D01*
X000543Y019889D01*
X000521Y019906D01*
X000502Y019926D01*
X000485Y019949D01*
X000472Y019974D01*
X000463Y020000D01*
X000457Y020027D01*
X000455Y020055D01*
X010412Y011057D02*
X010414Y011124D01*
X010420Y011191D01*
X010430Y011257D01*
X010443Y011323D01*
X010461Y011388D01*
X010482Y011451D01*
X010507Y011513D01*
X010536Y011574D01*
X010568Y011633D01*
X010603Y011690D01*
X010642Y011744D01*
X010684Y011797D01*
X010729Y011847D01*
X010777Y011894D01*
X010827Y011938D01*
X010880Y011979D01*
X010935Y012017D01*
X010993Y012052D01*
X011052Y012083D01*
X011113Y012110D01*
X011176Y012135D01*
X011240Y012155D01*
X011305Y012171D01*
X011370Y012184D01*
X011437Y012193D01*
X011504Y012198D01*
X011571Y012199D01*
X011638Y012196D01*
X011704Y012189D01*
X011771Y012178D01*
X011836Y012164D01*
X011901Y012145D01*
X011964Y012123D01*
X012026Y012097D01*
X012086Y012068D01*
X012144Y012035D01*
X012201Y011998D01*
X012255Y011959D01*
X012306Y011916D01*
X012356Y011870D01*
X012402Y011822D01*
X012445Y011771D01*
X012486Y011717D01*
X012523Y011662D01*
X012557Y011604D01*
X012587Y011544D01*
X012614Y011482D01*
X012637Y011419D01*
X012656Y011355D01*
X012672Y011290D01*
X012684Y011224D01*
X012692Y011157D01*
X012696Y011091D01*
X012696Y011023D01*
X012692Y010957D01*
X012684Y010890D01*
X012672Y010824D01*
X012656Y010759D01*
X012637Y010695D01*
X012614Y010632D01*
X012587Y010570D01*
X012557Y010510D01*
X012523Y010452D01*
X012486Y010397D01*
X012445Y010343D01*
X012402Y010292D01*
X012356Y010244D01*
X012306Y010198D01*
X012255Y010155D01*
X012201Y010116D01*
X012144Y010079D01*
X012086Y010046D01*
X012026Y010017D01*
X011964Y009991D01*
X011901Y009969D01*
X011836Y009950D01*
X011771Y009936D01*
X011704Y009925D01*
X011638Y009918D01*
X011571Y009915D01*
X011504Y009916D01*
X011437Y009921D01*
X011370Y009930D01*
X011305Y009943D01*
X011240Y009959D01*
X011176Y009979D01*
X011113Y010004D01*
X011052Y010031D01*
X010993Y010062D01*
X010935Y010097D01*
X010880Y010135D01*
X010827Y010176D01*
X010777Y010220D01*
X010729Y010267D01*
X010684Y010317D01*
X010642Y010370D01*
X010603Y010424D01*
X010568Y010481D01*
X010536Y010540D01*
X010507Y010601D01*
X010482Y010663D01*
X010461Y010726D01*
X010443Y010791D01*
X010430Y010857D01*
X010420Y010923D01*
X010414Y010990D01*
X010412Y011057D01*
X025712Y008315D02*
X025712Y008313D01*
X025719Y008307D01*
X025719Y008305D01*
X025721Y008305D02*
X025728Y008305D01*
X025721Y008312D01*
X025721Y008313D01*
X025723Y008315D01*
X025726Y008315D01*
X025728Y008313D01*
X025731Y008307D02*
X025732Y008307D01*
X025732Y008305D01*
X025731Y008305D01*
X025731Y008307D01*
X025731Y008305D02*
X025734Y008302D01*
X025736Y008305D02*
X025743Y008305D01*
X025740Y008305D02*
X025740Y008315D01*
X025743Y008312D01*
X025746Y008312D02*
X025747Y008310D01*
X025752Y008310D01*
X025755Y008308D02*
X025755Y008307D01*
X025757Y008305D01*
X025760Y008305D01*
X025762Y008307D01*
X025760Y008310D02*
X025757Y008310D01*
X025755Y008308D01*
X025752Y008305D02*
X025747Y008305D01*
X025746Y008307D01*
X025746Y008308D01*
X025747Y008310D01*
X025746Y008312D02*
X025746Y008313D01*
X025747Y008315D01*
X025752Y008315D01*
X025752Y008305D01*
X025755Y008313D02*
X025757Y008315D01*
X025760Y008315D01*
X025762Y008313D01*
X025762Y008312D01*
X025760Y008310D01*
X025764Y008310D02*
X025766Y008308D01*
X025771Y008308D01*
X025771Y008305D02*
X025771Y008315D01*
X025766Y008315D01*
X025764Y008313D01*
X025764Y008310D01*
X025773Y008315D02*
X025780Y008315D01*
X025777Y008315D02*
X025777Y008305D01*
X025719Y008315D02*
X025712Y008315D01*
X031087Y005190D02*
X031087Y005188D01*
X031094Y005182D01*
X031094Y005180D01*
X031096Y005180D02*
X031103Y005180D01*
X031096Y005187D01*
X031096Y005188D01*
X031098Y005190D01*
X031101Y005190D01*
X031103Y005188D01*
X031106Y005182D02*
X031107Y005182D01*
X031107Y005180D01*
X031106Y005180D01*
X031106Y005182D01*
X031106Y005180D02*
X031109Y005177D01*
X031111Y005180D02*
X031118Y005180D01*
X031115Y005180D02*
X031115Y005190D01*
X031118Y005187D01*
X031121Y005187D02*
X031122Y005185D01*
X031127Y005185D01*
X031130Y005183D02*
X031130Y005182D01*
X031132Y005180D01*
X031135Y005180D01*
X031137Y005182D01*
X031135Y005185D02*
X031132Y005185D01*
X031130Y005183D01*
X031127Y005180D02*
X031122Y005180D01*
X031121Y005182D01*
X031121Y005183D01*
X031122Y005185D01*
X031121Y005187D02*
X031121Y005188D01*
X031122Y005190D01*
X031127Y005190D01*
X031127Y005180D01*
X031130Y005188D02*
X031132Y005190D01*
X031135Y005190D01*
X031137Y005188D01*
X031137Y005187D01*
X031135Y005185D01*
X031139Y005185D02*
X031141Y005183D01*
X031146Y005183D01*
X031146Y005180D02*
X031146Y005190D01*
X031141Y005190D01*
X031139Y005188D01*
X031139Y005185D01*
X031148Y005190D02*
X031155Y005190D01*
X031152Y005190D02*
X031152Y005180D01*
X031094Y005190D02*
X031087Y005190D01*
X033462Y003440D02*
X033462Y003438D01*
X033469Y003432D01*
X033469Y003430D01*
X033471Y003430D02*
X033478Y003430D01*
X033471Y003437D01*
X033471Y003438D01*
X033473Y003440D01*
X033476Y003440D01*
X033478Y003438D01*
X033481Y003432D02*
X033482Y003432D01*
X033482Y003430D01*
X033481Y003430D01*
X033481Y003432D01*
X033481Y003430D02*
X033484Y003427D01*
X033486Y003430D02*
X033493Y003430D01*
X033490Y003430D02*
X033490Y003440D01*
X033493Y003437D01*
X033496Y003437D02*
X033497Y003435D01*
X033502Y003435D01*
X033505Y003433D02*
X033505Y003432D01*
X033507Y003430D01*
X033510Y003430D01*
X033512Y003432D01*
X033510Y003435D02*
X033507Y003435D01*
X033505Y003433D01*
X033502Y003430D02*
X033497Y003430D01*
X033496Y003432D01*
X033496Y003433D01*
X033497Y003435D01*
X033496Y003437D02*
X033496Y003438D01*
X033497Y003440D01*
X033502Y003440D01*
X033502Y003430D01*
X033505Y003438D02*
X033507Y003440D01*
X033510Y003440D01*
X033512Y003438D01*
X033512Y003437D01*
X033510Y003435D01*
X033514Y003435D02*
X033516Y003433D01*
X033521Y003433D01*
X033521Y003430D02*
X033521Y003440D01*
X033516Y003440D01*
X033514Y003438D01*
X033514Y003435D01*
X033523Y003440D02*
X033530Y003440D01*
X033527Y003440D02*
X033527Y003430D01*
X033469Y003440D02*
X033462Y003440D01*
X036130Y001905D02*
X036132Y001933D01*
X036138Y001960D01*
X036147Y001986D01*
X036160Y002011D01*
X036177Y002034D01*
X036196Y002054D01*
X036218Y002071D01*
X036242Y002085D01*
X036268Y002095D01*
X036295Y002102D01*
X036323Y002105D01*
X036351Y002104D01*
X036378Y002099D01*
X036405Y002090D01*
X036430Y002078D01*
X036453Y002063D01*
X036474Y002044D01*
X036492Y002023D01*
X036507Y001999D01*
X036518Y001973D01*
X036526Y001947D01*
X036530Y001919D01*
X036530Y001891D01*
X036526Y001863D01*
X036518Y001837D01*
X036507Y001811D01*
X036492Y001787D01*
X036474Y001766D01*
X036453Y001747D01*
X036430Y001732D01*
X036405Y001720D01*
X036378Y001711D01*
X036351Y001706D01*
X036323Y001705D01*
X036295Y001708D01*
X036268Y001715D01*
X036242Y001725D01*
X036218Y001739D01*
X036196Y001756D01*
X036177Y001776D01*
X036160Y001799D01*
X036147Y001824D01*
X036138Y001850D01*
X036132Y001877D01*
X036130Y001905D01*
X036605Y002130D02*
X036607Y002158D01*
X036613Y002185D01*
X036622Y002211D01*
X036635Y002236D01*
X036652Y002259D01*
X036671Y002279D01*
X036693Y002296D01*
X036717Y002310D01*
X036743Y002320D01*
X036770Y002327D01*
X036798Y002330D01*
X036826Y002329D01*
X036853Y002324D01*
X036880Y002315D01*
X036905Y002303D01*
X036928Y002288D01*
X036949Y002269D01*
X036967Y002248D01*
X036982Y002224D01*
X036993Y002198D01*
X037001Y002172D01*
X037005Y002144D01*
X037005Y002116D01*
X037001Y002088D01*
X036993Y002062D01*
X036982Y002036D01*
X036967Y002012D01*
X036949Y001991D01*
X036928Y001972D01*
X036905Y001957D01*
X036880Y001945D01*
X036853Y001936D01*
X036826Y001931D01*
X036798Y001930D01*
X036770Y001933D01*
X036743Y001940D01*
X036717Y001950D01*
X036693Y001964D01*
X036671Y001981D01*
X036652Y002001D01*
X036635Y002024D01*
X036622Y002049D01*
X036613Y002075D01*
X036607Y002102D01*
X036605Y002130D01*
X037055Y002255D02*
X037057Y002283D01*
X037063Y002310D01*
X037072Y002336D01*
X037085Y002361D01*
X037102Y002384D01*
X037121Y002404D01*
X037143Y002421D01*
X037167Y002435D01*
X037193Y002445D01*
X037220Y002452D01*
X037248Y002455D01*
X037276Y002454D01*
X037303Y002449D01*
X037330Y002440D01*
X037355Y002428D01*
X037378Y002413D01*
X037399Y002394D01*
X037417Y002373D01*
X037432Y002349D01*
X037443Y002323D01*
X037451Y002297D01*
X037455Y002269D01*
X037455Y002241D01*
X037451Y002213D01*
X037443Y002187D01*
X037432Y002161D01*
X037417Y002137D01*
X037399Y002116D01*
X037378Y002097D01*
X037355Y002082D01*
X037330Y002070D01*
X037303Y002061D01*
X037276Y002056D01*
X037248Y002055D01*
X037220Y002058D01*
X037193Y002065D01*
X037167Y002075D01*
X037143Y002089D01*
X037121Y002106D01*
X037102Y002126D01*
X037085Y002149D01*
X037072Y002174D01*
X037063Y002200D01*
X037057Y002227D01*
X037055Y002255D01*
X037555Y002280D02*
X037557Y002308D01*
X037563Y002335D01*
X037572Y002361D01*
X037585Y002386D01*
X037602Y002409D01*
X037621Y002429D01*
X037643Y002446D01*
X037667Y002460D01*
X037693Y002470D01*
X037720Y002477D01*
X037748Y002480D01*
X037776Y002479D01*
X037803Y002474D01*
X037830Y002465D01*
X037855Y002453D01*
X037878Y002438D01*
X037899Y002419D01*
X037917Y002398D01*
X037932Y002374D01*
X037943Y002348D01*
X037951Y002322D01*
X037955Y002294D01*
X037955Y002266D01*
X037951Y002238D01*
X037943Y002212D01*
X037932Y002186D01*
X037917Y002162D01*
X037899Y002141D01*
X037878Y002122D01*
X037855Y002107D01*
X037830Y002095D01*
X037803Y002086D01*
X037776Y002081D01*
X037748Y002080D01*
X037720Y002083D01*
X037693Y002090D01*
X037667Y002100D01*
X037643Y002114D01*
X037621Y002131D01*
X037602Y002151D01*
X037585Y002174D01*
X037572Y002199D01*
X037563Y002225D01*
X037557Y002252D01*
X037555Y002280D01*
X037055Y003025D02*
X037057Y003066D01*
X037063Y003106D01*
X037072Y003146D01*
X037086Y003185D01*
X037103Y003222D01*
X037123Y003257D01*
X037147Y003291D01*
X037174Y003322D01*
X037203Y003350D01*
X037236Y003375D01*
X037270Y003397D01*
X037306Y003416D01*
X037344Y003431D01*
X037384Y003443D01*
X037424Y003451D01*
X037465Y003455D01*
X037505Y003455D01*
X037546Y003451D01*
X037586Y003443D01*
X037626Y003431D01*
X037664Y003416D01*
X037700Y003397D01*
X037734Y003375D01*
X037767Y003350D01*
X037796Y003322D01*
X037823Y003291D01*
X037847Y003257D01*
X037867Y003222D01*
X037884Y003185D01*
X037898Y003146D01*
X037907Y003106D01*
X037913Y003066D01*
X037915Y003025D01*
X037913Y002984D01*
X037907Y002944D01*
X037898Y002904D01*
X037884Y002865D01*
X037867Y002828D01*
X037847Y002793D01*
X037823Y002759D01*
X037796Y002728D01*
X037767Y002700D01*
X037734Y002675D01*
X037700Y002653D01*
X037664Y002634D01*
X037626Y002619D01*
X037586Y002607D01*
X037546Y002599D01*
X037505Y002595D01*
X037465Y002595D01*
X037424Y002599D01*
X037384Y002607D01*
X037344Y002619D01*
X037306Y002634D01*
X037270Y002653D01*
X037236Y002675D01*
X037203Y002700D01*
X037174Y002728D01*
X037147Y002759D01*
X037123Y002793D01*
X037103Y002828D01*
X037086Y002865D01*
X037072Y002904D01*
X037063Y002944D01*
X037057Y002984D01*
X037055Y003025D01*
X035930Y001455D02*
X035932Y001483D01*
X035938Y001510D01*
X035947Y001536D01*
X035960Y001561D01*
X035977Y001584D01*
X035996Y001604D01*
X036018Y001621D01*
X036042Y001635D01*
X036068Y001645D01*
X036095Y001652D01*
X036123Y001655D01*
X036151Y001654D01*
X036178Y001649D01*
X036205Y001640D01*
X036230Y001628D01*
X036253Y001613D01*
X036274Y001594D01*
X036292Y001573D01*
X036307Y001549D01*
X036318Y001523D01*
X036326Y001497D01*
X036330Y001469D01*
X036330Y001441D01*
X036326Y001413D01*
X036318Y001387D01*
X036307Y001361D01*
X036292Y001337D01*
X036274Y001316D01*
X036253Y001297D01*
X036230Y001282D01*
X036205Y001270D01*
X036178Y001261D01*
X036151Y001256D01*
X036123Y001255D01*
X036095Y001258D01*
X036068Y001265D01*
X036042Y001275D01*
X036018Y001289D01*
X035996Y001306D01*
X035977Y001326D01*
X035960Y001349D01*
X035947Y001374D01*
X035938Y001400D01*
X035932Y001427D01*
X035930Y001455D01*
X035805Y001005D02*
X035807Y001033D01*
X035813Y001060D01*
X035822Y001086D01*
X035835Y001111D01*
X035852Y001134D01*
X035871Y001154D01*
X035893Y001171D01*
X035917Y001185D01*
X035943Y001195D01*
X035970Y001202D01*
X035998Y001205D01*
X036026Y001204D01*
X036053Y001199D01*
X036080Y001190D01*
X036105Y001178D01*
X036128Y001163D01*
X036149Y001144D01*
X036167Y001123D01*
X036182Y001099D01*
X036193Y001073D01*
X036201Y001047D01*
X036205Y001019D01*
X036205Y000991D01*
X036201Y000963D01*
X036193Y000937D01*
X036182Y000911D01*
X036167Y000887D01*
X036149Y000866D01*
X036128Y000847D01*
X036105Y000832D01*
X036080Y000820D01*
X036053Y000811D01*
X036026Y000806D01*
X035998Y000805D01*
X035970Y000808D01*
X035943Y000815D01*
X035917Y000825D01*
X035893Y000839D01*
X035871Y000856D01*
X035852Y000876D01*
X035835Y000899D01*
X035822Y000924D01*
X035813Y000950D01*
X035807Y000977D01*
X035805Y001005D01*
X035855Y000505D02*
X035857Y000533D01*
X035863Y000560D01*
X035872Y000586D01*
X035885Y000611D01*
X035902Y000634D01*
X035921Y000654D01*
X035943Y000671D01*
X035967Y000685D01*
X035993Y000695D01*
X036020Y000702D01*
X036048Y000705D01*
X036076Y000704D01*
X036103Y000699D01*
X036130Y000690D01*
X036155Y000678D01*
X036178Y000663D01*
X036199Y000644D01*
X036217Y000623D01*
X036232Y000599D01*
X036243Y000573D01*
X036251Y000547D01*
X036255Y000519D01*
X036255Y000491D01*
X036251Y000463D01*
X036243Y000437D01*
X036232Y000411D01*
X036217Y000387D01*
X036199Y000366D01*
X036178Y000347D01*
X036155Y000332D01*
X036130Y000320D01*
X036103Y000311D01*
X036076Y000306D01*
X036048Y000305D01*
X036020Y000308D01*
X035993Y000315D01*
X035967Y000325D01*
X035943Y000339D01*
X035921Y000356D01*
X035902Y000376D01*
X035885Y000399D01*
X035872Y000424D01*
X035863Y000450D01*
X035857Y000477D01*
X035855Y000505D01*
X035401Y020899D02*
X035403Y020940D01*
X035409Y020980D01*
X035418Y021020D01*
X035432Y021059D01*
X035449Y021096D01*
X035469Y021131D01*
X035493Y021165D01*
X035520Y021196D01*
X035549Y021224D01*
X035582Y021249D01*
X035616Y021271D01*
X035652Y021290D01*
X035690Y021305D01*
X035730Y021317D01*
X035770Y021325D01*
X035811Y021329D01*
X035851Y021329D01*
X035892Y021325D01*
X035932Y021317D01*
X035972Y021305D01*
X036010Y021290D01*
X036046Y021271D01*
X036080Y021249D01*
X036113Y021224D01*
X036142Y021196D01*
X036169Y021165D01*
X036193Y021131D01*
X036213Y021096D01*
X036230Y021059D01*
X036244Y021020D01*
X036253Y020980D01*
X036259Y020940D01*
X036261Y020899D01*
X036259Y020858D01*
X036253Y020818D01*
X036244Y020778D01*
X036230Y020739D01*
X036213Y020702D01*
X036193Y020667D01*
X036169Y020633D01*
X036142Y020602D01*
X036113Y020574D01*
X036080Y020549D01*
X036046Y020527D01*
X036010Y020508D01*
X035972Y020493D01*
X035932Y020481D01*
X035892Y020473D01*
X035851Y020469D01*
X035811Y020469D01*
X035770Y020473D01*
X035730Y020481D01*
X035690Y020493D01*
X035652Y020508D01*
X035616Y020527D01*
X035582Y020549D01*
X035549Y020574D01*
X035520Y020602D01*
X035493Y020633D01*
X035469Y020667D01*
X035449Y020702D01*
X035432Y020739D01*
X035418Y020778D01*
X035409Y020818D01*
X035403Y020858D01*
X035401Y020899D01*
D11*
X023680Y012180D02*
X023680Y010130D01*
X022380Y010130D01*
X022380Y012180D01*
X019330Y010580D02*
X018730Y010580D01*
X018730Y008480D01*
X019830Y008480D01*
X019830Y010230D01*
X020580Y006930D02*
X020580Y006830D01*
X020580Y006930D02*
X022630Y006930D01*
X022630Y006830D01*
X022630Y006755D02*
X022599Y006761D01*
X022568Y006763D01*
X022537Y006761D01*
X022506Y006756D01*
X022476Y006746D01*
X022448Y006734D01*
X022421Y006718D01*
X022396Y006698D01*
X022374Y006676D01*
X022355Y006652D01*
X022339Y006625D01*
X022326Y006597D01*
X022317Y006567D01*
X022311Y006536D01*
X022309Y006505D01*
X022311Y006474D01*
X022317Y006443D01*
X022326Y006413D01*
X022339Y006385D01*
X022355Y006358D01*
X022374Y006334D01*
X022396Y006312D01*
X022421Y006292D01*
X022448Y006276D01*
X022476Y006264D01*
X022506Y006254D01*
X022537Y006249D01*
X022568Y006247D01*
X022599Y006249D01*
X022630Y006255D01*
X022630Y006080D01*
X020580Y006080D01*
X020580Y006180D01*
X020030Y005330D02*
X020030Y003280D01*
X018780Y003280D01*
X018780Y005330D01*
X018530Y005330D02*
X018530Y003280D01*
X017280Y003280D01*
X017280Y005280D01*
X012130Y004980D02*
X012130Y004830D01*
X012080Y004830D02*
X010130Y004830D01*
X010130Y004880D01*
X010130Y005630D02*
X010130Y005680D01*
X012030Y005680D01*
X012080Y005680D02*
X012130Y005680D01*
X012130Y005580D01*
X012130Y005505D02*
X012099Y005511D01*
X012068Y005513D01*
X012037Y005511D01*
X012006Y005506D01*
X011976Y005496D01*
X011948Y005484D01*
X011921Y005468D01*
X011896Y005448D01*
X011874Y005426D01*
X011855Y005402D01*
X011839Y005375D01*
X011826Y005347D01*
X011817Y005317D01*
X011811Y005286D01*
X011809Y005255D01*
X011811Y005224D01*
X011817Y005193D01*
X011826Y005163D01*
X011839Y005135D01*
X011855Y005108D01*
X011874Y005084D01*
X011896Y005062D01*
X011921Y005042D01*
X011948Y005026D01*
X011976Y005014D01*
X012006Y005004D01*
X012037Y004999D01*
X012068Y004997D01*
X012099Y004999D01*
X012130Y005005D01*
X011930Y002730D02*
X011030Y002730D01*
X010980Y002730D02*
X010980Y001180D01*
X011930Y001180D01*
X011930Y002730D01*
X022630Y006255D02*
X022630Y006280D01*
D12*
X022535Y006300D02*
X022228Y006300D01*
X022075Y006300D02*
X022075Y006760D01*
X021921Y006607D01*
X021768Y006760D01*
X021768Y006300D01*
X021614Y006300D02*
X021307Y006607D01*
X021307Y006684D01*
X021384Y006760D01*
X021537Y006760D01*
X021614Y006684D01*
X021154Y006684D02*
X021154Y006607D01*
X021077Y006530D01*
X020847Y006530D01*
X020847Y006377D02*
X020847Y006684D01*
X020924Y006760D01*
X021077Y006760D01*
X021154Y006684D01*
X020693Y006684D02*
X020617Y006760D01*
X020463Y006760D01*
X020387Y006684D01*
X020693Y006377D01*
X020617Y006300D01*
X020463Y006300D01*
X020387Y006377D01*
X020387Y006684D01*
X020233Y006530D02*
X019926Y006530D01*
X020003Y006300D02*
X020003Y006760D01*
X020233Y006530D01*
X020693Y006377D02*
X020693Y006684D01*
X020847Y006377D02*
X020924Y006300D01*
X021077Y006300D01*
X021154Y006377D01*
X021307Y006300D02*
X021614Y006300D01*
X022535Y006300D02*
X022535Y006760D01*
X020477Y005682D02*
X020323Y005835D01*
X020323Y005375D01*
X020170Y005375D02*
X020477Y005375D01*
X020016Y005452D02*
X019709Y005759D01*
X019709Y005452D01*
X019786Y005375D01*
X019939Y005375D01*
X020016Y005452D01*
X020016Y005759D01*
X019939Y005835D01*
X019786Y005835D01*
X019709Y005759D01*
X019556Y005759D02*
X019479Y005835D01*
X019326Y005835D01*
X019249Y005759D01*
X019556Y005452D01*
X019479Y005375D01*
X019326Y005375D01*
X019249Y005452D01*
X019249Y005759D01*
X019095Y005682D02*
X019095Y005452D01*
X019019Y005375D01*
X018788Y005375D01*
X018788Y005682D01*
X018477Y005682D02*
X018323Y005835D01*
X018323Y005375D01*
X018170Y005375D02*
X018477Y005375D01*
X018016Y005452D02*
X017709Y005759D01*
X017709Y005452D01*
X017786Y005375D01*
X017939Y005375D01*
X018016Y005452D01*
X018016Y005759D01*
X017939Y005835D01*
X017786Y005835D01*
X017709Y005759D01*
X017556Y005759D02*
X017479Y005835D01*
X017326Y005835D01*
X017249Y005759D01*
X017556Y005452D01*
X017479Y005375D01*
X017326Y005375D01*
X017249Y005452D01*
X017249Y005759D01*
X017095Y005682D02*
X017095Y005452D01*
X017019Y005375D01*
X016788Y005375D01*
X016788Y005682D01*
X017556Y005759D02*
X017556Y005452D01*
X019556Y005452D02*
X019556Y005759D01*
X018635Y007000D02*
X018328Y007000D01*
X018482Y007000D02*
X018482Y007460D01*
X018635Y007307D01*
X018524Y007375D02*
X018754Y007528D01*
X018524Y007682D01*
X018754Y007835D02*
X018754Y007375D01*
X018907Y007452D02*
X018984Y007375D01*
X019137Y007375D01*
X019214Y007452D01*
X018907Y007759D01*
X018907Y007452D01*
X019214Y007452D02*
X019214Y007759D01*
X019137Y007835D01*
X018984Y007835D01*
X018907Y007759D01*
X019368Y007759D02*
X019675Y007452D01*
X019598Y007375D01*
X019444Y007375D01*
X019368Y007452D01*
X019368Y007759D01*
X019444Y007835D01*
X019598Y007835D01*
X019675Y007759D01*
X019675Y007452D01*
X019828Y007375D02*
X020135Y007375D01*
X019982Y007375D02*
X019982Y007835D01*
X020135Y007682D01*
X018175Y007384D02*
X018175Y007077D01*
X017868Y007384D01*
X017868Y007077D01*
X017944Y007000D01*
X018098Y007000D01*
X018175Y007077D01*
X017714Y007077D02*
X017407Y007384D01*
X017407Y007077D01*
X017484Y007000D01*
X017637Y007000D01*
X017714Y007077D01*
X017714Y007384D01*
X017637Y007460D01*
X017484Y007460D01*
X017407Y007384D01*
X017254Y007460D02*
X017254Y007000D01*
X017254Y007153D02*
X017024Y007000D01*
X017254Y007153D02*
X017024Y007307D01*
X017868Y007384D02*
X017944Y007460D01*
X018098Y007460D01*
X018175Y007384D01*
X014385Y008210D02*
X014078Y008210D01*
X014232Y008210D02*
X014232Y007750D01*
X013925Y007750D02*
X013618Y007750D01*
X013771Y007750D02*
X013771Y008210D01*
X013925Y008057D01*
X013607Y006335D02*
X013607Y005875D01*
X013760Y005875D02*
X013453Y005875D01*
X013300Y005952D02*
X012993Y006259D01*
X012993Y005952D01*
X013069Y005875D01*
X013223Y005875D01*
X013300Y005952D01*
X013300Y006259D01*
X013223Y006335D01*
X013069Y006335D01*
X012993Y006259D01*
X012839Y006335D02*
X012839Y005875D01*
X012839Y006028D02*
X012609Y005875D01*
X012839Y006028D02*
X012609Y006182D01*
X013607Y006335D02*
X013760Y006182D01*
X012260Y005460D02*
X012260Y005000D01*
X011953Y005000D01*
X011800Y005000D02*
X011800Y005460D01*
X011646Y005307D01*
X011493Y005460D01*
X011493Y005000D01*
X011339Y005000D02*
X011032Y005307D01*
X011032Y005384D01*
X011109Y005460D01*
X011262Y005460D01*
X011339Y005384D01*
X010879Y005384D02*
X010879Y005307D01*
X010802Y005230D01*
X010572Y005230D01*
X010572Y005077D02*
X010572Y005384D01*
X010649Y005460D01*
X010802Y005460D01*
X010879Y005384D01*
X010418Y005384D02*
X010342Y005460D01*
X010188Y005460D01*
X010112Y005384D01*
X010418Y005077D01*
X010342Y005000D01*
X010188Y005000D01*
X010112Y005077D01*
X010112Y005384D01*
X009958Y005230D02*
X009651Y005230D01*
X009728Y005000D02*
X009728Y005460D01*
X009958Y005230D01*
X010418Y005077D02*
X010418Y005384D01*
X010572Y005077D02*
X010649Y005000D01*
X010802Y005000D01*
X010879Y005077D01*
X011032Y005000D02*
X011339Y005000D01*
X012734Y004682D02*
X012964Y004528D01*
X012734Y004375D01*
X012964Y004375D02*
X012964Y004835D01*
X013118Y004759D02*
X013425Y004452D01*
X013348Y004375D01*
X013194Y004375D01*
X013118Y004452D01*
X013118Y004759D01*
X013194Y004835D01*
X013348Y004835D01*
X013425Y004759D01*
X013425Y004452D01*
X013578Y004375D02*
X013885Y004375D01*
X013732Y004375D02*
X013732Y004835D01*
X013885Y004682D01*
X013514Y003385D02*
X013745Y003155D01*
X013438Y003155D01*
X013284Y003002D02*
X013208Y003002D01*
X013208Y002925D01*
X013284Y002925D01*
X013284Y003002D01*
X013054Y003002D02*
X013054Y002925D01*
X013054Y003002D02*
X012747Y003309D01*
X012747Y003385D01*
X013054Y003385D01*
X012594Y003385D02*
X012594Y002925D01*
X012594Y003078D02*
X012363Y003232D01*
X012594Y003078D02*
X012363Y002925D01*
X013514Y002925D02*
X013514Y003385D01*
X016669Y002085D02*
X016900Y001855D01*
X016593Y001855D01*
X016669Y001625D02*
X016669Y002085D01*
X017053Y002085D02*
X017360Y002085D01*
X017207Y002085D02*
X017207Y001625D01*
X018538Y002778D02*
X018692Y002625D01*
X018845Y002625D02*
X019076Y002778D01*
X018845Y002932D01*
X018692Y003085D02*
X018538Y002932D01*
X018538Y002778D01*
X019076Y002625D02*
X019076Y003085D01*
X019229Y003009D02*
X019536Y002702D01*
X019459Y002625D01*
X019306Y002625D01*
X019229Y002702D01*
X019229Y003009D01*
X019306Y003085D01*
X019459Y003085D01*
X019536Y003009D01*
X019536Y002702D01*
X019689Y002625D02*
X019996Y002625D01*
X019843Y002625D02*
X019843Y003085D01*
X019996Y002932D01*
X020150Y003085D02*
X020303Y002932D01*
X020303Y002778D01*
X020150Y002625D01*
X021163Y002482D02*
X021394Y002328D01*
X021163Y002175D01*
X021394Y002175D02*
X021394Y002635D01*
X021547Y002635D02*
X021547Y002559D01*
X021854Y002252D01*
X021854Y002175D01*
X022008Y002175D02*
X022314Y002175D01*
X022008Y002482D01*
X022008Y002559D01*
X022084Y002635D01*
X022238Y002635D01*
X022314Y002559D01*
X022563Y002853D02*
X022563Y003007D01*
X022717Y003160D01*
X022870Y003007D02*
X023101Y002853D01*
X022870Y002700D01*
X022717Y002700D02*
X022563Y002853D01*
X023101Y002700D02*
X023101Y003160D01*
X023254Y003084D02*
X023561Y002777D01*
X023484Y002700D01*
X023331Y002700D01*
X023254Y002777D01*
X023254Y003084D01*
X023331Y003160D01*
X023484Y003160D01*
X023561Y003084D01*
X023561Y002777D01*
X023714Y002700D02*
X024021Y002700D01*
X023868Y002700D02*
X023868Y003160D01*
X024021Y003007D01*
X024175Y003160D02*
X024328Y003007D01*
X024328Y002853D01*
X024175Y002700D01*
X024912Y002977D02*
X024989Y002900D01*
X025143Y002900D01*
X025219Y002977D01*
X025219Y003053D01*
X025143Y003130D01*
X024989Y003130D01*
X024912Y003053D01*
X024912Y002977D01*
X024989Y003130D02*
X024912Y003207D01*
X024912Y003284D01*
X024989Y003360D01*
X025143Y003360D01*
X025219Y003284D01*
X025219Y003207D01*
X025143Y003130D01*
X025373Y002977D02*
X025373Y002900D01*
X025450Y002900D01*
X025450Y002977D01*
X025373Y002977D01*
X025603Y002977D02*
X025603Y003053D01*
X025680Y003130D01*
X025910Y003130D01*
X025910Y002977D01*
X025833Y002900D01*
X025680Y002900D01*
X025603Y002977D01*
X025757Y003284D02*
X025910Y003130D01*
X025757Y003284D02*
X025603Y003360D01*
X023685Y004750D02*
X023378Y005057D01*
X023378Y005134D01*
X023455Y005210D01*
X023608Y005210D01*
X023685Y005134D01*
X023225Y005210D02*
X022918Y005210D01*
X022918Y005134D01*
X023225Y004827D01*
X023225Y004750D01*
X023378Y004750D02*
X023685Y004750D01*
X022764Y004750D02*
X022764Y005210D01*
X022534Y005057D02*
X022764Y004903D01*
X022534Y004750D01*
X022239Y003785D02*
X022470Y003555D01*
X022163Y003555D01*
X022009Y003402D02*
X021933Y003402D01*
X021933Y003325D01*
X022009Y003325D01*
X022009Y003402D01*
X021779Y003402D02*
X021779Y003325D01*
X021779Y003402D02*
X021472Y003709D01*
X021472Y003785D01*
X021779Y003785D01*
X021319Y003785D02*
X021319Y003325D01*
X021319Y003478D02*
X021088Y003632D01*
X021319Y003478D02*
X021088Y003325D01*
X022239Y003325D02*
X022239Y003785D01*
X021854Y002635D02*
X021547Y002635D01*
X029612Y005027D02*
X029689Y004950D01*
X029843Y004950D01*
X029919Y005027D01*
X029919Y005103D01*
X029843Y005180D01*
X029689Y005180D01*
X029612Y005103D01*
X029612Y005027D01*
X029689Y005180D02*
X029612Y005257D01*
X029612Y005334D01*
X029689Y005410D01*
X029843Y005410D01*
X029919Y005334D01*
X029919Y005257D01*
X029843Y005180D01*
X030073Y005027D02*
X030073Y004950D01*
X030150Y004950D01*
X030150Y005027D01*
X030073Y005027D01*
X030303Y005027D02*
X030303Y005103D01*
X030380Y005180D01*
X030610Y005180D01*
X030610Y005027D01*
X030533Y004950D01*
X030380Y004950D01*
X030303Y005027D01*
X030457Y005334D02*
X030610Y005180D01*
X030457Y005334D02*
X030303Y005410D01*
X034038Y006250D02*
X034269Y006403D01*
X034038Y006557D01*
X034269Y006710D02*
X034269Y006250D01*
X034422Y006327D02*
X034499Y006250D01*
X034652Y006250D01*
X034729Y006327D01*
X034422Y006634D01*
X034422Y006327D01*
X034422Y006634D02*
X034499Y006710D01*
X034652Y006710D01*
X034729Y006634D01*
X034729Y006327D01*
X034883Y006250D02*
X035189Y006250D01*
X035036Y006250D02*
X035036Y006710D01*
X035189Y006557D01*
X034738Y007750D02*
X034738Y008210D01*
X034891Y008210D02*
X034584Y008210D01*
X034431Y008057D02*
X034277Y008210D01*
X034277Y007750D01*
X034124Y007750D02*
X034431Y007750D01*
X033970Y007750D02*
X033663Y007750D01*
X033817Y007750D02*
X033817Y008210D01*
X033970Y008057D01*
X035538Y008000D02*
X035769Y008153D01*
X035538Y008307D01*
X035769Y008460D02*
X035769Y008000D01*
X035922Y008077D02*
X035999Y008000D01*
X036152Y008000D01*
X036229Y008077D01*
X035922Y008384D01*
X035922Y008077D01*
X035922Y008384D02*
X035999Y008460D01*
X036152Y008460D01*
X036229Y008384D01*
X036229Y008077D01*
X036383Y008000D02*
X036689Y008000D01*
X036536Y008000D02*
X036536Y008460D01*
X036689Y008307D01*
X035014Y009175D02*
X034708Y009175D01*
X034861Y009175D02*
X034861Y009635D01*
X035014Y009482D01*
X034554Y009559D02*
X034477Y009635D01*
X034324Y009635D01*
X034247Y009559D01*
X034554Y009252D01*
X034477Y009175D01*
X034324Y009175D01*
X034247Y009252D01*
X034247Y009559D01*
X034094Y009635D02*
X034094Y009175D01*
X034094Y009328D02*
X033863Y009482D01*
X034094Y009328D02*
X033863Y009175D01*
X034554Y009252D02*
X034554Y009559D01*
X034394Y010375D02*
X034240Y010375D01*
X034163Y010452D01*
X034163Y010759D01*
X034240Y010835D01*
X034394Y010835D01*
X034470Y010759D01*
X034470Y010682D01*
X034394Y010605D01*
X034163Y010605D01*
X034394Y010375D02*
X034470Y010452D01*
X034777Y010375D02*
X034777Y010835D01*
X034624Y010835D02*
X034931Y010835D01*
X035288Y010750D02*
X035519Y010903D01*
X035288Y011057D01*
X035519Y011210D02*
X035519Y010750D01*
X035672Y010827D02*
X035749Y010750D01*
X035902Y010750D01*
X035979Y010827D01*
X035672Y011134D01*
X035672Y010827D01*
X035979Y010827D02*
X035979Y011134D01*
X035902Y011210D01*
X035749Y011210D01*
X035672Y011134D01*
X036286Y011210D02*
X036439Y011057D01*
X036286Y011210D02*
X036286Y010750D01*
X036439Y010750D02*
X036133Y010750D01*
X035039Y011925D02*
X034733Y011925D01*
X034886Y011925D02*
X034886Y012385D01*
X035039Y012232D01*
X034579Y012309D02*
X034579Y012002D01*
X034272Y012309D01*
X034272Y012002D01*
X034349Y011925D01*
X034502Y011925D01*
X034579Y012002D01*
X034579Y012309D02*
X034502Y012385D01*
X034349Y012385D01*
X034272Y012309D01*
X034119Y012385D02*
X034119Y011925D01*
X034119Y012078D02*
X033888Y012232D01*
X034119Y012078D02*
X033888Y011925D01*
X032527Y012125D02*
X032527Y012585D01*
X032374Y012585D02*
X032681Y012585D01*
X032220Y012509D02*
X032220Y012432D01*
X032144Y012355D01*
X031990Y012355D01*
X031913Y012278D01*
X031913Y012202D01*
X031990Y012125D01*
X032144Y012125D01*
X032220Y012202D01*
X032220Y012278D01*
X032144Y012355D01*
X031990Y012355D02*
X031913Y012432D01*
X031913Y012509D01*
X031990Y012585D01*
X032144Y012585D01*
X032220Y012509D01*
X034163Y013634D02*
X034470Y013327D01*
X034470Y013250D01*
X034777Y013250D02*
X034777Y013710D01*
X034624Y013710D02*
X034931Y013710D01*
X034470Y013710D02*
X034163Y013710D01*
X034163Y013634D01*
X035959Y014450D02*
X036189Y014603D01*
X035959Y014757D01*
X036189Y014910D02*
X036189Y014450D01*
X036343Y014527D02*
X036419Y014450D01*
X036573Y014450D01*
X036650Y014527D01*
X036343Y014834D01*
X036343Y014527D01*
X036650Y014527D02*
X036650Y014834D01*
X036573Y014910D01*
X036419Y014910D01*
X036343Y014834D01*
X036957Y014910D02*
X036957Y014450D01*
X037110Y014450D02*
X036803Y014450D01*
X037110Y014757D02*
X036957Y014910D01*
X034239Y014900D02*
X033933Y014900D01*
X034086Y014900D02*
X034086Y015360D01*
X034239Y015207D01*
X033779Y015284D02*
X033779Y014977D01*
X033472Y015284D01*
X033472Y014977D01*
X033549Y014900D01*
X033702Y014900D01*
X033779Y014977D01*
X033319Y015053D02*
X033088Y015207D01*
X033319Y015360D02*
X033319Y014900D01*
X033319Y015053D02*
X033088Y014900D01*
X033472Y015284D02*
X033549Y015360D01*
X033702Y015360D01*
X033779Y015284D01*
X026181Y015335D02*
X026181Y014875D01*
X025951Y014875D01*
X025874Y014952D01*
X025874Y015259D01*
X025951Y015335D01*
X026181Y015335D01*
X025720Y015182D02*
X025567Y015335D01*
X025567Y014875D01*
X025720Y014875D02*
X025413Y014875D01*
X025413Y016375D02*
X025720Y016375D01*
X025413Y016682D01*
X025413Y016759D01*
X025490Y016835D01*
X025644Y016835D01*
X025720Y016759D01*
X025874Y016759D02*
X025874Y016452D01*
X025951Y016375D01*
X026181Y016375D01*
X026181Y016835D01*
X025951Y016835D01*
X025874Y016759D01*
X025951Y013460D02*
X026181Y013460D01*
X026181Y013000D01*
X025951Y013000D01*
X025874Y013077D01*
X025874Y013384D01*
X025951Y013460D01*
X025720Y013460D02*
X025413Y013460D01*
X025413Y013384D01*
X025720Y013077D01*
X025720Y013000D01*
X023910Y012480D02*
X023910Y012327D01*
X023833Y012250D01*
X023680Y012250D01*
X023603Y012327D01*
X023603Y012403D01*
X023680Y012480D01*
X023910Y012480D01*
X023757Y012634D01*
X023603Y012710D01*
X023450Y012634D02*
X023450Y012557D01*
X023373Y012480D01*
X023219Y012480D01*
X023143Y012403D01*
X023143Y012327D01*
X023219Y012250D01*
X023373Y012250D01*
X023450Y012327D01*
X023450Y012403D01*
X023373Y012480D01*
X023219Y012480D02*
X023143Y012557D01*
X023143Y012634D01*
X023219Y012710D01*
X023373Y012710D01*
X023450Y012634D01*
X022989Y012557D02*
X022759Y012557D01*
X022682Y012480D01*
X022682Y012250D01*
X022529Y012250D02*
X022529Y012710D01*
X022222Y012710D01*
X022375Y012480D02*
X022529Y012480D01*
X022989Y012557D02*
X022989Y012250D01*
X020040Y011203D02*
X020040Y011050D01*
X019963Y010973D01*
X019810Y010973D01*
X019733Y011050D01*
X019733Y011127D01*
X019810Y011203D01*
X020040Y011203D01*
X019886Y011357D01*
X019733Y011434D01*
X019580Y011357D02*
X019580Y011280D01*
X019503Y011203D01*
X019349Y011203D01*
X019273Y011127D01*
X019273Y011050D01*
X019349Y010973D01*
X019503Y010973D01*
X019580Y011050D01*
X019580Y011127D01*
X019503Y011203D01*
X019349Y011203D02*
X019273Y011280D01*
X019273Y011357D01*
X019349Y011434D01*
X019503Y011434D01*
X019580Y011357D01*
X019119Y011280D02*
X018889Y011280D01*
X018812Y011203D01*
X018812Y010973D01*
X018659Y010973D02*
X018659Y011434D01*
X018352Y011434D01*
X018505Y011203D02*
X018659Y011203D01*
X019119Y011280D02*
X019119Y010973D01*
X019684Y010682D02*
X019914Y010528D01*
X019684Y010375D01*
X019914Y010375D02*
X019914Y010835D01*
X020068Y010835D02*
X020068Y010759D01*
X020375Y010452D01*
X020375Y010375D01*
X020528Y010375D02*
X020835Y010375D01*
X020528Y010682D01*
X020528Y010759D01*
X020605Y010835D01*
X020758Y010835D01*
X020835Y010759D01*
X021084Y010682D02*
X021314Y010528D01*
X021084Y010375D01*
X021314Y010375D02*
X021314Y010835D01*
X021468Y010835D02*
X021468Y010759D01*
X021775Y010452D01*
X021775Y010375D01*
X021928Y010375D02*
X022235Y010375D01*
X021928Y010682D01*
X021928Y010759D01*
X022005Y010835D01*
X022158Y010835D01*
X022235Y010759D01*
X021775Y010835D02*
X021468Y010835D01*
X020375Y010835D02*
X020068Y010835D01*
X018010Y010832D02*
X017857Y010985D01*
X017857Y010525D01*
X018010Y010525D02*
X017703Y010525D01*
X017550Y010602D02*
X017243Y010909D01*
X017243Y010602D01*
X017319Y010525D01*
X017473Y010525D01*
X017550Y010602D01*
X017550Y010909D01*
X017473Y010985D01*
X017319Y010985D01*
X017243Y010909D01*
X017089Y010985D02*
X017089Y010525D01*
X017089Y010678D02*
X016859Y010832D01*
X017089Y010678D02*
X016859Y010525D01*
X023688Y010107D02*
X023919Y009953D01*
X023688Y009800D01*
X023919Y009800D02*
X023919Y010260D01*
X024072Y010260D02*
X024379Y010260D01*
X024379Y010030D01*
X024226Y010107D01*
X024149Y010107D01*
X024072Y010030D01*
X024072Y009877D01*
X024149Y009800D01*
X024302Y009800D01*
X024379Y009877D01*
X024533Y009800D02*
X024839Y009800D01*
X024686Y009800D02*
X024686Y010260D01*
X024839Y010107D01*
X026868Y010827D02*
X026868Y010980D01*
X026944Y011057D01*
X027021Y011057D01*
X027175Y010980D01*
X027175Y011210D01*
X026868Y011210D01*
X027328Y011210D02*
X027635Y011210D01*
X027482Y011210D02*
X027482Y010750D01*
X027175Y010827D02*
X027098Y010750D01*
X026944Y010750D01*
X026868Y010827D01*
X031288Y009884D02*
X031288Y009577D01*
X031365Y009500D01*
X031519Y009500D01*
X031595Y009577D01*
X031288Y009884D01*
X031365Y009960D01*
X031519Y009960D01*
X031595Y009884D01*
X031595Y009577D01*
X031749Y009500D02*
X032056Y009500D01*
X031902Y009500D02*
X031902Y009960D01*
X032056Y009807D01*
X032209Y009960D02*
X032516Y009960D01*
X032363Y009960D02*
X032363Y009500D01*
X024760Y008057D02*
X024607Y008210D01*
X024607Y007750D01*
X024760Y007750D02*
X024453Y007750D01*
X024300Y007827D02*
X024223Y007750D01*
X024069Y007750D01*
X023993Y007827D01*
X023993Y007980D01*
X024069Y008057D01*
X024146Y008057D01*
X024300Y007980D01*
X024300Y008210D01*
X023993Y008210D01*
X023839Y008210D02*
X023839Y007750D01*
X023839Y007903D02*
X023609Y008057D01*
X023839Y007903D02*
X023609Y007750D01*
X010260Y003432D02*
X010260Y003278D01*
X010107Y003125D01*
X009953Y003355D02*
X009646Y003355D01*
X009493Y003202D02*
X009416Y003202D01*
X009416Y003125D01*
X009493Y003125D01*
X009493Y003202D01*
X009262Y003202D02*
X008956Y003509D01*
X008956Y003585D01*
X009262Y003585D01*
X009723Y003585D02*
X009953Y003355D01*
X010107Y003585D02*
X010260Y003432D01*
X009723Y003585D02*
X009723Y003125D01*
X009262Y003125D02*
X009262Y003202D01*
X008802Y003202D02*
X008725Y003125D01*
X008495Y003125D01*
X008495Y003432D01*
X008342Y003585D02*
X008188Y003432D01*
X008188Y003278D01*
X008342Y003125D01*
X008802Y003202D02*
X008802Y003432D01*
X005806Y003335D02*
X005806Y002875D01*
X005576Y002875D01*
X005499Y002952D01*
X005499Y003259D01*
X005576Y003335D01*
X005806Y003335D01*
X005345Y003105D02*
X005115Y003105D01*
X005038Y003028D01*
X005038Y002952D01*
X005115Y002875D01*
X005269Y002875D01*
X005345Y002952D01*
X005345Y003105D01*
X005192Y003259D01*
X005038Y003335D01*
X005115Y004125D02*
X005269Y004125D01*
X005345Y004202D01*
X005345Y004355D02*
X005192Y004432D01*
X005115Y004432D01*
X005038Y004355D01*
X005038Y004202D01*
X005115Y004125D01*
X005345Y004355D02*
X005345Y004585D01*
X005038Y004585D01*
X005499Y004509D02*
X005576Y004585D01*
X005806Y004585D01*
X005806Y004125D01*
X005576Y004125D01*
X005499Y004202D01*
X005499Y004509D01*
X005576Y005375D02*
X005499Y005452D01*
X005499Y005759D01*
X005576Y005835D01*
X005806Y005835D01*
X005806Y005375D01*
X005576Y005375D01*
X005345Y005605D02*
X005038Y005605D01*
X005115Y005375D02*
X005115Y005835D01*
X005345Y005605D01*
X005269Y006625D02*
X005115Y006625D01*
X005038Y006702D01*
X005038Y006778D01*
X005115Y006855D01*
X005192Y006855D01*
X005115Y006855D02*
X005038Y006932D01*
X005038Y007009D01*
X005115Y007085D01*
X005269Y007085D01*
X005345Y007009D01*
X005499Y007009D02*
X005576Y007085D01*
X005806Y007085D01*
X005806Y006625D01*
X005576Y006625D01*
X005499Y006702D01*
X005499Y007009D01*
X005345Y006702D02*
X005269Y006625D01*
X008484Y006057D02*
X008714Y005903D01*
X008484Y005750D01*
X008714Y005750D02*
X008714Y006210D01*
X008868Y006134D02*
X009175Y005827D01*
X009098Y005750D01*
X008944Y005750D01*
X008868Y005827D01*
X008868Y006134D01*
X008944Y006210D01*
X009098Y006210D01*
X009175Y006134D01*
X009175Y005827D01*
X009328Y005750D02*
X009635Y005750D01*
X009482Y005750D02*
X009482Y006210D01*
X009635Y006057D01*
X005806Y008000D02*
X005576Y008000D01*
X005499Y008077D01*
X005499Y008384D01*
X005576Y008460D01*
X005806Y008460D01*
X005806Y008000D01*
X005345Y008077D02*
X005269Y008000D01*
X005115Y008000D01*
X005038Y008077D01*
X005038Y008384D01*
X005115Y008460D01*
X005269Y008460D01*
X005345Y008384D01*
X005345Y008307D01*
X005269Y008230D01*
X005038Y008230D01*
X005365Y011625D02*
X005288Y011702D01*
X005288Y011778D01*
X005365Y011855D01*
X005595Y011855D01*
X005595Y011702D01*
X005519Y011625D01*
X005365Y011625D01*
X005595Y011855D02*
X005442Y012009D01*
X005288Y012085D01*
X005749Y012085D02*
X006056Y012085D01*
X005902Y012085D02*
X005902Y011625D01*
X004635Y014375D02*
X004328Y014375D01*
X004175Y014375D02*
X004175Y014835D01*
X003944Y014682D02*
X004175Y014528D01*
X003944Y014375D01*
X004482Y014375D02*
X004482Y014835D01*
X004635Y014682D01*
X003260Y014625D02*
X002953Y014625D01*
X003107Y014625D02*
X003107Y015085D01*
X003260Y014932D01*
X002800Y015009D02*
X002800Y014702D01*
X002493Y015009D01*
X002493Y014702D01*
X002569Y014625D01*
X002723Y014625D01*
X002800Y014702D01*
X002800Y015009D02*
X002723Y015085D01*
X002569Y015085D01*
X002493Y015009D01*
X002339Y015009D02*
X002262Y015085D01*
X002109Y015085D01*
X002032Y015009D01*
X002339Y014702D01*
X002262Y014625D01*
X002109Y014625D01*
X002032Y014702D01*
X002032Y015009D01*
X001879Y015085D02*
X001879Y014625D01*
X001879Y014778D02*
X001649Y014932D01*
X001879Y014778D02*
X001649Y014625D01*
X002339Y014702D02*
X002339Y015009D01*
X000833Y016619D02*
X000920Y016705D01*
X000920Y016879D01*
X000833Y016966D01*
X000747Y016966D01*
X000660Y016879D01*
X000660Y016792D01*
X000660Y016879D02*
X000573Y016966D01*
X000486Y016966D01*
X000400Y016879D01*
X000400Y016705D01*
X000486Y016619D01*
X000573Y017134D02*
X000920Y017481D01*
X000920Y017134D02*
X000573Y017481D01*
X000500Y018010D02*
X000500Y018317D01*
X000500Y018164D02*
X000960Y018164D01*
X000807Y018010D01*
X000884Y018471D02*
X000960Y018547D01*
X000960Y018701D01*
X000884Y018777D01*
X000577Y018471D01*
X000500Y018547D01*
X000500Y018701D01*
X000577Y018777D01*
X000884Y018777D01*
X000884Y018931D02*
X000960Y019008D01*
X000960Y019161D01*
X000884Y019238D01*
X000577Y018931D01*
X000500Y019008D01*
X000500Y019161D01*
X000577Y019238D01*
X000884Y019238D01*
X000960Y019391D02*
X000500Y019391D01*
X000653Y019391D02*
X000500Y019622D01*
X000653Y019391D02*
X000807Y019622D01*
X000884Y018931D02*
X000577Y018931D01*
X000577Y018471D02*
X000884Y018471D01*
X008345Y017982D02*
X008345Y017828D01*
X008499Y017675D01*
X008652Y017675D02*
X008882Y017828D01*
X008652Y017982D01*
X008499Y018135D02*
X008345Y017982D01*
X008882Y018135D02*
X008882Y017675D01*
X009036Y017752D02*
X009112Y017675D01*
X009266Y017675D01*
X009343Y017752D01*
X009036Y018059D01*
X009036Y017752D01*
X009036Y018059D02*
X009112Y018135D01*
X009266Y018135D01*
X009343Y018059D01*
X009343Y017752D01*
X009496Y017675D02*
X009803Y017675D01*
X009650Y017675D02*
X009650Y018135D01*
X009803Y017982D01*
X009957Y018135D02*
X010110Y017982D01*
X010110Y017828D01*
X009957Y017675D01*
X010569Y017625D02*
X010800Y017778D01*
X010569Y017932D01*
X010800Y018085D02*
X010800Y017625D01*
X010953Y017625D02*
X011260Y017625D01*
X011107Y017625D02*
X011107Y018085D01*
X011260Y017932D01*
X012663Y019375D02*
X012894Y019528D01*
X012663Y019682D01*
X012894Y019835D02*
X012894Y019375D01*
X013047Y019759D02*
X013354Y019452D01*
X013354Y019375D01*
X013508Y019375D02*
X013814Y019375D01*
X013508Y019682D01*
X013508Y019759D01*
X013584Y019835D01*
X013738Y019835D01*
X013814Y019759D01*
X013354Y019835D02*
X013047Y019835D01*
X013047Y019759D01*
X011260Y020085D02*
X010953Y020085D01*
X011107Y020085D02*
X011107Y019625D01*
X010800Y019625D02*
X010493Y019932D01*
X010493Y020009D01*
X010569Y020085D01*
X010723Y020085D01*
X010800Y020009D01*
X010800Y019625D02*
X010493Y019625D01*
X010499Y015960D02*
X010422Y015884D01*
X010729Y015577D01*
X010652Y015500D01*
X010499Y015500D01*
X010422Y015577D01*
X010422Y015884D01*
X010499Y015960D02*
X010652Y015960D01*
X010729Y015884D01*
X010729Y015577D01*
X010883Y015577D02*
X010883Y015884D01*
X011189Y015577D01*
X011113Y015500D01*
X010959Y015500D01*
X010883Y015577D01*
X011189Y015577D02*
X011189Y015884D01*
X011113Y015960D01*
X010959Y015960D01*
X010883Y015884D01*
X011343Y015500D02*
X011650Y015500D01*
X011496Y015500D02*
X011496Y015960D01*
X011650Y015807D01*
X010269Y015960D02*
X010269Y015500D01*
X010269Y015653D02*
X010038Y015807D01*
X010269Y015653D02*
X010038Y015500D01*
X009689Y015500D02*
X009383Y015807D01*
X009383Y015884D01*
X009459Y015960D01*
X009613Y015960D01*
X009689Y015884D01*
X009689Y015500D02*
X009383Y015500D01*
X009229Y015500D02*
X009229Y015577D01*
X008922Y015884D01*
X008922Y015960D01*
X009229Y015960D01*
X008769Y015960D02*
X008769Y015500D01*
X008769Y015653D02*
X008538Y015807D01*
X008769Y015653D02*
X008538Y015500D01*
D13*
X002780Y015480D02*
X001780Y015480D01*
X001680Y015380D01*
X001430Y016480D02*
X002780Y016480D01*
X002730Y017480D02*
X001480Y017480D01*
X001530Y018480D02*
X002730Y018480D01*
X002730Y019480D02*
X001880Y019480D01*
X009530Y018980D02*
X009830Y018980D01*
X004780Y010730D02*
X004780Y010430D01*
X012480Y007230D02*
X012780Y007230D01*
X014080Y002330D02*
X013830Y002080D01*
X013830Y001280D01*
X018030Y001130D02*
X018030Y001430D01*
X033480Y006230D02*
X033780Y006230D01*
X035630Y007330D02*
X035930Y007330D01*
X033680Y008980D02*
X033380Y008980D01*
X035630Y009980D02*
X035930Y009980D01*
X033730Y011730D02*
X033480Y011730D01*
X035680Y012730D02*
X035980Y012730D01*
X025980Y010330D02*
X025680Y010330D01*
D14*
X025680Y009880D01*
X025680Y010330D02*
X025680Y010830D01*
X033730Y011230D02*
X033730Y011730D01*
X033730Y012230D01*
X035980Y012230D02*
X035980Y012730D01*
X035980Y013180D01*
X035930Y010430D02*
X035930Y009980D01*
X035930Y009480D01*
X033680Y009430D02*
X033680Y008980D01*
X033680Y008480D01*
X035930Y007780D02*
X035930Y007330D01*
X035930Y006830D01*
X033780Y006680D02*
X033780Y006230D01*
X033780Y005730D01*
X018480Y001130D02*
X018030Y001130D01*
X017530Y001130D01*
X012480Y006780D02*
X012480Y007230D01*
X012480Y007730D01*
X005180Y010580D02*
X004780Y010430D01*
X004280Y010430D01*
X009530Y018530D02*
X009530Y018980D01*
X009530Y019480D01*
D15*
X035010Y019580D02*
X035010Y015880D01*
X035012Y015857D01*
X035017Y015834D01*
X035026Y015812D01*
X035039Y015792D01*
X035054Y015774D01*
X035072Y015759D01*
X035092Y015746D01*
X035114Y015737D01*
X035137Y015732D01*
X035160Y015730D01*
X036400Y015730D01*
X036423Y015732D01*
X036446Y015737D01*
X036468Y015746D01*
X036488Y015759D01*
X036506Y015774D01*
X036521Y015792D01*
X036534Y015812D01*
X036543Y015834D01*
X036548Y015857D01*
X036550Y015880D01*
X036550Y019580D01*
X036548Y019603D01*
X036543Y019626D01*
X036534Y019648D01*
X036521Y019668D01*
X036506Y019686D01*
X036488Y019701D01*
X036468Y019714D01*
X036446Y019723D01*
X036423Y019728D01*
X036400Y019730D01*
X035980Y019730D01*
X035580Y019730D01*
X035160Y019730D01*
X035137Y019728D01*
X035114Y019723D01*
X035092Y019714D01*
X035072Y019701D01*
X035054Y019686D01*
X035039Y019668D01*
X035026Y019648D01*
X035017Y019626D01*
X035012Y019603D01*
X035010Y019580D01*
X035580Y019730D02*
X035582Y019703D01*
X035587Y019676D01*
X035597Y019650D01*
X035609Y019626D01*
X035625Y019604D01*
X035643Y019584D01*
X035665Y019567D01*
X035688Y019552D01*
X035713Y019542D01*
X035739Y019534D01*
X035766Y019530D01*
X035794Y019530D01*
X035821Y019534D01*
X035847Y019542D01*
X035872Y019552D01*
X035895Y019567D01*
X035917Y019584D01*
X035935Y019604D01*
X035951Y019626D01*
X035963Y019650D01*
X035973Y019676D01*
X035978Y019703D01*
X035980Y019730D01*
D16*
X036410Y019730D02*
X036410Y015730D01*
D17*
X035905Y016188D02*
X035605Y016188D01*
X035530Y016263D01*
X035530Y016488D01*
X035980Y016488D01*
X035980Y016263D01*
X035905Y016188D01*
X035905Y016649D02*
X035980Y016724D01*
X035980Y016874D01*
X035905Y016949D01*
X035830Y016949D01*
X035755Y016874D01*
X035755Y016724D01*
X035830Y016649D01*
X035905Y016649D01*
X035755Y016724D02*
X035680Y016649D01*
X035605Y016649D01*
X035530Y016724D01*
X035530Y016874D01*
X035605Y016949D01*
X035680Y016949D01*
X035755Y016874D01*
X035680Y017109D02*
X035605Y017109D01*
X035530Y017184D01*
X035530Y017334D01*
X035605Y017409D01*
X035605Y017569D02*
X035530Y017644D01*
X035530Y017795D01*
X035605Y017870D01*
X035905Y017870D01*
X035605Y017569D01*
X035905Y017569D01*
X035980Y017644D01*
X035980Y017795D01*
X035905Y017870D01*
X035755Y018030D02*
X035755Y018330D01*
X035530Y018105D01*
X035980Y018105D01*
X035980Y017409D02*
X035680Y017109D01*
X035980Y017109D02*
X035980Y017409D01*
X024468Y016980D02*
X024155Y016980D01*
X024155Y017168D01*
X024155Y016980D02*
X023905Y017168D01*
X023905Y016980D01*
X023592Y016980D01*
X023905Y016980D02*
X023905Y016792D01*
X024155Y016980D01*
X024155Y016792D01*
X024155Y015918D02*
X024155Y015730D01*
X024468Y015730D01*
X024155Y015730D02*
X024155Y015542D01*
X024155Y015730D02*
X023905Y015542D01*
X023905Y015730D01*
X023592Y015730D01*
X023905Y015730D02*
X023905Y015918D01*
X024155Y015730D01*
X021605Y015355D02*
X021305Y015355D01*
X021305Y015280D01*
X021605Y014980D01*
X021605Y014905D01*
X021305Y014905D01*
X021145Y014980D02*
X021070Y014905D01*
X020844Y014905D01*
X020844Y015205D01*
X020919Y015355D02*
X020919Y015430D01*
X021070Y015430D02*
X021070Y015355D01*
X021145Y015205D02*
X021145Y014980D01*
X020684Y014905D02*
X020684Y015355D01*
X020384Y014905D01*
X020384Y015355D01*
X020224Y015355D02*
X019999Y015355D01*
X019924Y015280D01*
X019924Y014980D01*
X019999Y014905D01*
X020224Y014905D01*
X020224Y015355D01*
X019763Y015280D02*
X019763Y015205D01*
X019688Y015130D01*
X019538Y015130D01*
X019463Y015055D01*
X019463Y014980D01*
X019538Y014905D01*
X019688Y014905D01*
X019763Y014980D01*
X019303Y014905D02*
X019303Y015355D01*
X019078Y015355D01*
X019003Y015280D01*
X019003Y015130D01*
X019078Y015055D01*
X019303Y015055D01*
X019463Y015280D02*
X019538Y015355D01*
X019688Y015355D01*
X019763Y015280D01*
X018843Y015355D02*
X018843Y014980D01*
X018768Y014905D01*
X018617Y014905D01*
X018542Y014980D01*
X018542Y015355D01*
X018382Y015355D02*
X018382Y014905D01*
X018082Y014905D01*
X017922Y014905D02*
X017622Y014905D01*
X017772Y015130D02*
X017922Y015130D01*
X017922Y015355D02*
X017922Y014905D01*
X017922Y015355D02*
X017622Y015355D01*
X023592Y013230D02*
X023905Y013230D01*
X023905Y013418D01*
X024155Y013230D01*
X024468Y013230D01*
X024155Y013230D02*
X024155Y013042D01*
X024155Y013230D02*
X023905Y013042D01*
X023905Y013230D01*
X024155Y013230D02*
X024155Y013418D01*
X003968Y008230D02*
X003655Y008230D01*
X003655Y008418D01*
X003655Y008230D02*
X003655Y008042D01*
X003655Y008230D02*
X003405Y008418D01*
X003405Y008230D01*
X003092Y008230D01*
X003405Y008230D02*
X003405Y008042D01*
X003655Y008230D01*
X003655Y007168D02*
X003655Y006980D01*
X003968Y006980D01*
X003655Y006980D02*
X003655Y006792D01*
X003655Y006980D02*
X003405Y007168D01*
X003405Y006980D01*
X003092Y006980D01*
X003405Y006980D02*
X003405Y006792D01*
X003655Y006980D01*
X003655Y005918D02*
X003655Y005730D01*
X003968Y005730D01*
X003655Y005730D02*
X003655Y005542D01*
X003655Y005730D02*
X003405Y005918D01*
X003405Y005730D01*
X003092Y005730D01*
X003405Y005730D02*
X003405Y005542D01*
X003655Y005730D01*
X003655Y004668D02*
X003655Y004480D01*
X003968Y004480D01*
X003655Y004480D02*
X003655Y004292D01*
X003655Y004480D02*
X003405Y004668D01*
X003405Y004480D01*
X003092Y004480D01*
X003405Y004480D02*
X003405Y004292D01*
X003655Y004480D01*
X003655Y003418D02*
X003655Y003230D01*
X003968Y003230D01*
X003655Y003230D02*
X003655Y003042D01*
X003655Y003230D02*
X003405Y003418D01*
X003405Y003230D01*
X003092Y003230D01*
X003405Y003230D02*
X003405Y003042D01*
X003655Y003230D01*
X009665Y000980D02*
X009740Y001055D01*
X009890Y001055D01*
X009965Y000980D01*
X009965Y000680D01*
X009890Y000605D01*
X009740Y000605D01*
X009665Y000680D01*
X009665Y000830D01*
X009815Y000830D01*
X010126Y000605D02*
X010126Y001055D01*
X010426Y001055D02*
X010126Y000605D01*
X010426Y000605D02*
X010426Y001055D01*
X010586Y001055D02*
X010586Y000680D01*
X010661Y000605D01*
X010811Y000605D01*
X010886Y000680D01*
X010886Y001055D01*
X011046Y001055D02*
X011347Y001055D01*
X011196Y001055D02*
X011196Y000605D01*
X011507Y000605D02*
X011507Y001055D01*
X011507Y000830D02*
X011807Y000830D01*
X011967Y000680D02*
X012042Y000605D01*
X012192Y000605D01*
X012267Y000680D01*
X012267Y000980D01*
X012192Y001055D01*
X012042Y001055D01*
X011967Y000980D01*
X011807Y001055D02*
X011807Y000605D01*
X012428Y000680D02*
X012428Y001055D01*
X012728Y001055D02*
X012728Y000680D01*
X012653Y000605D01*
X012503Y000605D01*
X012428Y000680D01*
X012888Y000605D02*
X013188Y000605D01*
X013188Y001055D01*
X012888Y001055D01*
X013038Y000830D02*
X013188Y000830D01*
X013348Y000605D02*
X013649Y000605D01*
X013649Y001055D01*
X013809Y001055D02*
X014109Y001055D01*
X014109Y000605D01*
X013809Y000605D01*
X013959Y000830D02*
X014109Y000830D01*
X014269Y000755D02*
X014269Y000680D01*
X014344Y000605D01*
X014569Y000605D01*
X014569Y001055D01*
X014344Y001055D01*
X014269Y000980D01*
X014269Y000905D01*
X014344Y000830D01*
X014569Y000830D01*
X014344Y000830D02*
X014269Y000755D01*
X014729Y000530D02*
X015030Y000530D01*
X015190Y000680D02*
X015265Y000605D01*
X015415Y000605D01*
X015490Y000680D01*
X015490Y000980D01*
X015415Y001055D01*
X015265Y001055D01*
X015190Y000980D01*
X015190Y000680D01*
X015650Y000605D02*
X015650Y001055D01*
X015650Y000830D02*
X015951Y000830D01*
X016111Y000680D02*
X016186Y000605D01*
X016336Y000605D01*
X016411Y000680D01*
X016411Y000980D01*
X016336Y001055D01*
X016186Y001055D01*
X016111Y000980D01*
X015951Y001055D02*
X015951Y000605D01*
X016571Y000605D02*
X016571Y000905D01*
X016721Y001055D01*
X016871Y000905D01*
X016871Y000605D01*
X016871Y000830D02*
X016571Y000830D01*
X017031Y001055D02*
X017332Y001055D01*
X017182Y001055D02*
X017182Y000605D01*
D18*
X028369Y000565D02*
X029691Y000565D01*
X029691Y003145D01*
X028369Y003145D01*
X028369Y000565D01*
X032744Y000565D02*
X034066Y000565D01*
X034066Y003145D01*
X032744Y003145D01*
X032744Y000565D01*
X003820Y011069D02*
X003820Y012391D01*
X001240Y012391D01*
X001240Y011069D01*
X003820Y011069D01*
X011615Y015319D02*
X014195Y015319D01*
X014195Y016641D01*
X011615Y016641D01*
X011615Y015319D01*
D19*
X021403Y004965D02*
X021403Y004595D01*
X021403Y004718D02*
X021218Y004595D01*
X021403Y004718D02*
X021218Y004842D01*
X021525Y004904D02*
X021525Y004657D01*
X021587Y004595D01*
X021710Y004595D01*
X021772Y004657D01*
X021525Y004904D01*
X021587Y004965D01*
X021710Y004965D01*
X021772Y004904D01*
X021772Y004657D01*
X021893Y004595D02*
X022140Y004595D01*
X022017Y004595D02*
X022017Y004965D01*
X022140Y004842D01*
X012260Y003028D02*
X012014Y003028D01*
X011892Y002905D02*
X011830Y002905D01*
X011830Y002843D01*
X011892Y002843D01*
X011892Y002905D01*
X011708Y002905D02*
X011708Y002843D01*
X011708Y002905D02*
X011461Y003152D01*
X011461Y003213D01*
X011708Y003213D01*
X012075Y003213D02*
X012260Y003028D01*
X012075Y002843D02*
X012075Y003213D01*
X011340Y003090D02*
X011340Y002905D01*
X011278Y002843D01*
X011093Y002843D01*
X011093Y003090D01*
M02*
