G75*
G70*
%OFA0B0*%
%FSLAX24Y24*%
%IPPOS*%
%LPD*%
%AMOC8*
5,1,8,0,0,1.08239X$1,22.5*
%
%ADD10C,0.2343*%
%ADD11C,0.0920*%
%ADD12C,0.0460*%
%ADD13C,0.0140*%
%ADD14OC8,0.0690*%
%ADD15OC8,0.0540*%
%ADD16C,0.0660*%
%ADD17C,0.1360*%
%ADD18C,0.0920*%
%ADD19C,0.0614*%
%ADD20R,0.0651X0.0572*%
%ADD21C,0.0620*%
%ADD22C,0.0416*%
%ADD23C,0.0500*%
D10*
X011554Y011057D03*
D11*
X004808Y001214D03*
X024886Y001214D03*
X037485Y003025D03*
X035831Y020899D03*
X024886Y020899D03*
X004808Y020899D03*
D12*
X002280Y021030D03*
X002330Y021530D03*
X002080Y020580D03*
X001680Y020280D03*
X001180Y020180D03*
X000655Y020055D03*
X037255Y002255D03*
X036805Y002130D03*
X036330Y001905D03*
X036130Y001455D03*
X036005Y001005D03*
X036055Y000505D03*
X037755Y002280D03*
D13*
X035462Y000905D02*
X035462Y000812D01*
X035089Y000812D01*
X035089Y000905D02*
X035089Y000718D01*
X035182Y000625D01*
X035369Y000625D01*
X034818Y000625D02*
X034537Y000625D01*
X034444Y000718D01*
X034444Y000905D01*
X034537Y000999D01*
X034818Y000999D01*
X034818Y001185D02*
X034818Y000625D01*
X034215Y000625D02*
X034215Y000718D01*
X034122Y000718D01*
X034122Y000625D01*
X034215Y000625D01*
X033865Y000625D02*
X033585Y000812D01*
X033865Y000999D01*
X033585Y001185D02*
X033585Y000625D01*
X033314Y000625D02*
X033033Y000625D01*
X032940Y000718D01*
X032940Y000905D01*
X033033Y000999D01*
X033314Y000999D01*
X032604Y000999D02*
X032604Y000625D01*
X032697Y000625D02*
X032510Y000625D01*
X032160Y000999D02*
X031973Y000812D01*
X031973Y000625D02*
X031973Y000999D01*
X032160Y000999D02*
X032253Y000999D01*
X032510Y000999D02*
X032604Y000999D01*
X032604Y001185D02*
X032604Y001279D01*
X032576Y001675D02*
X032389Y001675D01*
X032295Y001768D01*
X032669Y002142D01*
X032669Y001768D01*
X032576Y001675D01*
X032295Y001768D02*
X032295Y002142D01*
X032389Y002235D01*
X032576Y002235D01*
X032669Y002142D01*
X032067Y001768D02*
X032067Y001675D01*
X031973Y001675D01*
X031973Y001768D01*
X032067Y001768D01*
X031702Y001675D02*
X031329Y001675D01*
X031702Y002049D01*
X031702Y002142D01*
X031609Y002235D01*
X031422Y002235D01*
X031329Y002142D01*
X031058Y002235D02*
X031058Y001862D01*
X030871Y001675D01*
X030684Y001862D01*
X030684Y002235D01*
X029769Y002049D02*
X029395Y001675D01*
X029124Y001768D02*
X029124Y001955D01*
X029031Y002049D01*
X028844Y002049D01*
X028750Y001955D01*
X028750Y001768D01*
X028844Y001675D01*
X029031Y001675D01*
X029124Y001768D01*
X029395Y002049D02*
X029769Y001675D01*
X029703Y001279D02*
X029703Y001185D01*
X029703Y000999D02*
X029703Y000625D01*
X029610Y000625D02*
X029797Y000625D01*
X030040Y000625D02*
X030040Y000999D01*
X030320Y000999D01*
X030413Y000905D01*
X030413Y000625D01*
X030684Y000718D02*
X030778Y000625D01*
X031058Y000625D01*
X031058Y000532D02*
X031058Y000999D01*
X030778Y000999D01*
X030684Y000905D01*
X030684Y000718D01*
X030964Y000438D02*
X031058Y000532D01*
X030964Y000438D02*
X030871Y000438D01*
X031329Y000625D02*
X031609Y000625D01*
X031702Y000718D01*
X031702Y000905D01*
X031609Y000999D01*
X031329Y000999D01*
X031329Y001185D02*
X031329Y000625D01*
X029703Y000999D02*
X029610Y000999D01*
X029339Y000999D02*
X029339Y000532D01*
X029246Y000438D01*
X029152Y000438D01*
X029059Y000625D02*
X029339Y000625D01*
X029059Y000625D02*
X028965Y000718D01*
X028965Y000999D01*
X028629Y001185D02*
X028629Y000625D01*
X028536Y000625D02*
X028722Y000625D01*
X028199Y000625D02*
X028199Y001092D01*
X028293Y001185D01*
X028536Y001185D02*
X028629Y001185D01*
X028293Y000905D02*
X028106Y000905D01*
X027877Y000718D02*
X027784Y000718D01*
X027784Y000625D01*
X027877Y000625D01*
X027877Y000718D01*
X027513Y000718D02*
X027419Y000625D01*
X027326Y000718D01*
X027233Y000625D01*
X027139Y000718D01*
X027139Y000999D01*
X026868Y000999D02*
X026868Y000718D01*
X026775Y000625D01*
X026681Y000718D01*
X026588Y000625D01*
X026495Y000718D01*
X026495Y000999D01*
X026224Y000999D02*
X026224Y000718D01*
X026130Y000625D01*
X026037Y000718D01*
X025943Y000625D01*
X025850Y000718D01*
X025850Y000999D01*
X025850Y001675D02*
X026130Y001675D01*
X026224Y001768D01*
X026224Y001862D01*
X026130Y001955D01*
X025850Y001955D01*
X025850Y001675D02*
X025850Y002235D01*
X026130Y002235D01*
X026224Y002142D01*
X026224Y002049D01*
X026130Y001955D01*
X026495Y001862D02*
X026681Y002049D01*
X026775Y002049D01*
X027032Y001955D02*
X027032Y001768D01*
X027125Y001675D01*
X027312Y001675D01*
X027405Y001768D01*
X027405Y001955D01*
X027312Y002049D01*
X027125Y002049D01*
X027032Y001955D01*
X026495Y002049D02*
X026495Y001675D01*
X027676Y002049D02*
X027863Y002049D01*
X027770Y002142D02*
X027770Y001768D01*
X027863Y001675D01*
X028106Y001675D02*
X028386Y001675D01*
X028480Y001768D01*
X028480Y001955D01*
X028386Y002049D01*
X028106Y002049D01*
X028106Y002235D02*
X028106Y001675D01*
X027513Y000999D02*
X027513Y000718D01*
X035089Y000905D02*
X035182Y000999D01*
X035369Y000999D01*
X035462Y000905D01*
D14*
X001280Y000855D03*
X001280Y007855D03*
X001280Y008855D03*
X001280Y015855D03*
D15*
X017780Y011480D03*
X021780Y011480D03*
X024030Y011230D03*
X024780Y010730D03*
X024780Y011730D03*
D16*
X026265Y011746D02*
X026865Y011746D01*
X028431Y013124D02*
X029031Y013124D01*
X030515Y014502D02*
X031115Y014502D01*
X032681Y015880D02*
X033281Y015880D01*
X031115Y017258D02*
X030515Y017258D01*
X029031Y015880D02*
X028431Y015880D01*
X026865Y017258D02*
X026265Y017258D01*
X028431Y018636D02*
X029031Y018636D01*
X032681Y018636D02*
X033281Y018636D01*
X026865Y014502D02*
X026265Y014502D01*
X021030Y013030D02*
X021030Y012430D01*
X020030Y012430D02*
X020030Y013030D01*
X019030Y013030D02*
X019030Y012430D01*
X026265Y008990D02*
X026865Y008990D01*
X028431Y010368D02*
X029031Y010368D01*
X030515Y008990D02*
X031115Y008990D01*
X032681Y010368D02*
X033281Y010368D01*
X031115Y011746D02*
X030515Y011746D01*
X032681Y013124D02*
X033281Y013124D01*
X033281Y007612D02*
X032681Y007612D01*
X031115Y006234D02*
X030515Y006234D01*
X029031Y007612D02*
X028431Y007612D01*
X026865Y006234D02*
X026265Y006234D01*
X028431Y004856D02*
X029031Y004856D01*
X030515Y003478D02*
X031115Y003478D01*
X032681Y004856D02*
X033281Y004856D01*
X026865Y003478D02*
X026265Y003478D01*
D17*
X020030Y019221D03*
D18*
X016255Y019632D02*
X015395Y019632D01*
X015395Y018073D02*
X016255Y018073D01*
X016255Y016513D02*
X015395Y016513D01*
X015395Y014954D02*
X016255Y014954D01*
X016255Y013395D02*
X015395Y013395D01*
X015395Y011836D02*
X016255Y011836D01*
X016255Y010277D02*
X015395Y010277D01*
X015395Y008718D02*
X016255Y008718D01*
X016255Y007159D02*
X015395Y007159D01*
X015395Y005600D02*
X016255Y005600D01*
X016255Y004041D02*
X015395Y004041D01*
X015395Y002482D02*
X016255Y002482D01*
X007712Y002482D02*
X006852Y002482D01*
X006852Y004041D02*
X007712Y004041D01*
X007712Y005600D02*
X006852Y005600D01*
X006852Y007159D02*
X007712Y007159D01*
X007712Y008718D02*
X006852Y008718D01*
X006852Y010277D02*
X007712Y010277D01*
X007712Y011836D02*
X006852Y011836D01*
X006852Y013395D02*
X007712Y013395D01*
X007712Y014954D02*
X006852Y014954D01*
X006852Y016513D02*
X007712Y016513D01*
X007712Y018073D02*
X006852Y018073D01*
X006852Y019632D02*
X007712Y019632D01*
D19*
X003682Y019480D02*
X003128Y019480D01*
X003128Y018480D02*
X003682Y018480D01*
X003682Y017480D02*
X003128Y017480D01*
X003128Y016480D02*
X003682Y016480D01*
X003682Y015480D02*
X003128Y015480D01*
X029155Y020203D02*
X029155Y020757D01*
X030155Y020757D02*
X030155Y020203D01*
X031155Y020203D02*
X031155Y020757D01*
X032155Y020757D02*
X032155Y020203D01*
X033155Y020203D02*
X033155Y020757D01*
X034753Y004730D02*
X035307Y004730D01*
X035307Y003730D02*
X034753Y003730D01*
D20*
X036630Y004106D03*
X036630Y004854D03*
D21*
X014480Y002530D03*
X017280Y015130D03*
D22*
X014405Y015730D03*
X013405Y013980D03*
X012905Y012605D03*
X009155Y013105D03*
X009155Y013730D03*
X008655Y011105D03*
X005155Y010230D03*
X004280Y008980D03*
X011280Y007230D03*
X013905Y006418D03*
X021030Y009855D03*
X022530Y009426D03*
X018255Y010580D03*
X017405Y010230D03*
X022405Y014105D03*
X026030Y015855D03*
X028780Y013980D03*
X032780Y014480D03*
X034530Y015229D03*
X035280Y015480D03*
X035780Y014980D03*
X032155Y016730D03*
X033280Y017855D03*
X031405Y018605D03*
X034530Y020480D03*
X035090Y020059D03*
X036030Y019730D03*
X036780Y020230D03*
X023655Y018355D03*
X023155Y018105D03*
X022955Y019255D03*
X028280Y008980D03*
X023905Y004230D03*
X025280Y003605D03*
X006155Y000980D03*
X003530Y001480D03*
X002780Y002355D03*
D23*
X023280Y014730D03*
X036780Y012230D03*
X036655Y011230D03*
X036280Y008730D03*
X037030Y008355D03*
X035905Y005855D03*
M02*
