G75*
G70*
%OFA0B0*%
%FSLAX24Y24*%
%IPPOS*%
%LPD*%
%AMOC8*
5,1,8,0,0,1.08239X$1,22.5*
%
%ADD10C,0.0000*%
D10*
X000280Y000230D02*
X000280Y021884D01*
X038075Y021884D01*
X038075Y000230D01*
X000280Y000230D01*
X004378Y001214D02*
X004380Y001255D01*
X004386Y001295D01*
X004395Y001335D01*
X004409Y001374D01*
X004426Y001411D01*
X004446Y001446D01*
X004470Y001480D01*
X004497Y001511D01*
X004526Y001539D01*
X004559Y001564D01*
X004593Y001586D01*
X004629Y001605D01*
X004667Y001620D01*
X004707Y001632D01*
X004747Y001640D01*
X004788Y001644D01*
X004828Y001644D01*
X004869Y001640D01*
X004909Y001632D01*
X004949Y001620D01*
X004987Y001605D01*
X005023Y001586D01*
X005057Y001564D01*
X005090Y001539D01*
X005119Y001511D01*
X005146Y001480D01*
X005170Y001446D01*
X005190Y001411D01*
X005207Y001374D01*
X005221Y001335D01*
X005230Y001295D01*
X005236Y001255D01*
X005238Y001214D01*
X005236Y001173D01*
X005230Y001133D01*
X005221Y001093D01*
X005207Y001054D01*
X005190Y001017D01*
X005170Y000982D01*
X005146Y000948D01*
X005119Y000917D01*
X005090Y000889D01*
X005057Y000864D01*
X005023Y000842D01*
X004987Y000823D01*
X004949Y000808D01*
X004909Y000796D01*
X004869Y000788D01*
X004828Y000784D01*
X004788Y000784D01*
X004747Y000788D01*
X004707Y000796D01*
X004667Y000808D01*
X004629Y000823D01*
X004593Y000842D01*
X004559Y000864D01*
X004526Y000889D01*
X004497Y000917D01*
X004470Y000948D01*
X004446Y000982D01*
X004426Y001017D01*
X004409Y001054D01*
X004395Y001093D01*
X004386Y001133D01*
X004380Y001173D01*
X004378Y001214D01*
X024456Y001214D02*
X024458Y001255D01*
X024464Y001295D01*
X024473Y001335D01*
X024487Y001374D01*
X024504Y001411D01*
X024524Y001446D01*
X024548Y001480D01*
X024575Y001511D01*
X024604Y001539D01*
X024637Y001564D01*
X024671Y001586D01*
X024707Y001605D01*
X024745Y001620D01*
X024785Y001632D01*
X024825Y001640D01*
X024866Y001644D01*
X024906Y001644D01*
X024947Y001640D01*
X024987Y001632D01*
X025027Y001620D01*
X025065Y001605D01*
X025101Y001586D01*
X025135Y001564D01*
X025168Y001539D01*
X025197Y001511D01*
X025224Y001480D01*
X025248Y001446D01*
X025268Y001411D01*
X025285Y001374D01*
X025299Y001335D01*
X025308Y001295D01*
X025314Y001255D01*
X025316Y001214D01*
X025314Y001173D01*
X025308Y001133D01*
X025299Y001093D01*
X025285Y001054D01*
X025268Y001017D01*
X025248Y000982D01*
X025224Y000948D01*
X025197Y000917D01*
X025168Y000889D01*
X025135Y000864D01*
X025101Y000842D01*
X025065Y000823D01*
X025027Y000808D01*
X024987Y000796D01*
X024947Y000788D01*
X024906Y000784D01*
X024866Y000784D01*
X024825Y000788D01*
X024785Y000796D01*
X024745Y000808D01*
X024707Y000823D01*
X024671Y000842D01*
X024637Y000864D01*
X024604Y000889D01*
X024575Y000917D01*
X024548Y000948D01*
X024524Y000982D01*
X024504Y001017D01*
X024487Y001054D01*
X024473Y001093D01*
X024464Y001133D01*
X024458Y001173D01*
X024456Y001214D01*
X035805Y001005D02*
X035807Y001033D01*
X035813Y001060D01*
X035822Y001086D01*
X035835Y001111D01*
X035852Y001134D01*
X035871Y001154D01*
X035893Y001171D01*
X035917Y001185D01*
X035943Y001195D01*
X035970Y001202D01*
X035998Y001205D01*
X036026Y001204D01*
X036053Y001199D01*
X036080Y001190D01*
X036105Y001178D01*
X036128Y001163D01*
X036149Y001144D01*
X036167Y001123D01*
X036182Y001099D01*
X036193Y001073D01*
X036201Y001047D01*
X036205Y001019D01*
X036205Y000991D01*
X036201Y000963D01*
X036193Y000937D01*
X036182Y000911D01*
X036167Y000887D01*
X036149Y000866D01*
X036128Y000847D01*
X036105Y000832D01*
X036080Y000820D01*
X036053Y000811D01*
X036026Y000806D01*
X035998Y000805D01*
X035970Y000808D01*
X035943Y000815D01*
X035917Y000825D01*
X035893Y000839D01*
X035871Y000856D01*
X035852Y000876D01*
X035835Y000899D01*
X035822Y000924D01*
X035813Y000950D01*
X035807Y000977D01*
X035805Y001005D01*
X035930Y001455D02*
X035932Y001483D01*
X035938Y001510D01*
X035947Y001536D01*
X035960Y001561D01*
X035977Y001584D01*
X035996Y001604D01*
X036018Y001621D01*
X036042Y001635D01*
X036068Y001645D01*
X036095Y001652D01*
X036123Y001655D01*
X036151Y001654D01*
X036178Y001649D01*
X036205Y001640D01*
X036230Y001628D01*
X036253Y001613D01*
X036274Y001594D01*
X036292Y001573D01*
X036307Y001549D01*
X036318Y001523D01*
X036326Y001497D01*
X036330Y001469D01*
X036330Y001441D01*
X036326Y001413D01*
X036318Y001387D01*
X036307Y001361D01*
X036292Y001337D01*
X036274Y001316D01*
X036253Y001297D01*
X036230Y001282D01*
X036205Y001270D01*
X036178Y001261D01*
X036151Y001256D01*
X036123Y001255D01*
X036095Y001258D01*
X036068Y001265D01*
X036042Y001275D01*
X036018Y001289D01*
X035996Y001306D01*
X035977Y001326D01*
X035960Y001349D01*
X035947Y001374D01*
X035938Y001400D01*
X035932Y001427D01*
X035930Y001455D01*
X036130Y001905D02*
X036132Y001933D01*
X036138Y001960D01*
X036147Y001986D01*
X036160Y002011D01*
X036177Y002034D01*
X036196Y002054D01*
X036218Y002071D01*
X036242Y002085D01*
X036268Y002095D01*
X036295Y002102D01*
X036323Y002105D01*
X036351Y002104D01*
X036378Y002099D01*
X036405Y002090D01*
X036430Y002078D01*
X036453Y002063D01*
X036474Y002044D01*
X036492Y002023D01*
X036507Y001999D01*
X036518Y001973D01*
X036526Y001947D01*
X036530Y001919D01*
X036530Y001891D01*
X036526Y001863D01*
X036518Y001837D01*
X036507Y001811D01*
X036492Y001787D01*
X036474Y001766D01*
X036453Y001747D01*
X036430Y001732D01*
X036405Y001720D01*
X036378Y001711D01*
X036351Y001706D01*
X036323Y001705D01*
X036295Y001708D01*
X036268Y001715D01*
X036242Y001725D01*
X036218Y001739D01*
X036196Y001756D01*
X036177Y001776D01*
X036160Y001799D01*
X036147Y001824D01*
X036138Y001850D01*
X036132Y001877D01*
X036130Y001905D01*
X036605Y002130D02*
X036607Y002158D01*
X036613Y002185D01*
X036622Y002211D01*
X036635Y002236D01*
X036652Y002259D01*
X036671Y002279D01*
X036693Y002296D01*
X036717Y002310D01*
X036743Y002320D01*
X036770Y002327D01*
X036798Y002330D01*
X036826Y002329D01*
X036853Y002324D01*
X036880Y002315D01*
X036905Y002303D01*
X036928Y002288D01*
X036949Y002269D01*
X036967Y002248D01*
X036982Y002224D01*
X036993Y002198D01*
X037001Y002172D01*
X037005Y002144D01*
X037005Y002116D01*
X037001Y002088D01*
X036993Y002062D01*
X036982Y002036D01*
X036967Y002012D01*
X036949Y001991D01*
X036928Y001972D01*
X036905Y001957D01*
X036880Y001945D01*
X036853Y001936D01*
X036826Y001931D01*
X036798Y001930D01*
X036770Y001933D01*
X036743Y001940D01*
X036717Y001950D01*
X036693Y001964D01*
X036671Y001981D01*
X036652Y002001D01*
X036635Y002024D01*
X036622Y002049D01*
X036613Y002075D01*
X036607Y002102D01*
X036605Y002130D01*
X037055Y002255D02*
X037057Y002283D01*
X037063Y002310D01*
X037072Y002336D01*
X037085Y002361D01*
X037102Y002384D01*
X037121Y002404D01*
X037143Y002421D01*
X037167Y002435D01*
X037193Y002445D01*
X037220Y002452D01*
X037248Y002455D01*
X037276Y002454D01*
X037303Y002449D01*
X037330Y002440D01*
X037355Y002428D01*
X037378Y002413D01*
X037399Y002394D01*
X037417Y002373D01*
X037432Y002349D01*
X037443Y002323D01*
X037451Y002297D01*
X037455Y002269D01*
X037455Y002241D01*
X037451Y002213D01*
X037443Y002187D01*
X037432Y002161D01*
X037417Y002137D01*
X037399Y002116D01*
X037378Y002097D01*
X037355Y002082D01*
X037330Y002070D01*
X037303Y002061D01*
X037276Y002056D01*
X037248Y002055D01*
X037220Y002058D01*
X037193Y002065D01*
X037167Y002075D01*
X037143Y002089D01*
X037121Y002106D01*
X037102Y002126D01*
X037085Y002149D01*
X037072Y002174D01*
X037063Y002200D01*
X037057Y002227D01*
X037055Y002255D01*
X037555Y002280D02*
X037557Y002308D01*
X037563Y002335D01*
X037572Y002361D01*
X037585Y002386D01*
X037602Y002409D01*
X037621Y002429D01*
X037643Y002446D01*
X037667Y002460D01*
X037693Y002470D01*
X037720Y002477D01*
X037748Y002480D01*
X037776Y002479D01*
X037803Y002474D01*
X037830Y002465D01*
X037855Y002453D01*
X037878Y002438D01*
X037899Y002419D01*
X037917Y002398D01*
X037932Y002374D01*
X037943Y002348D01*
X037951Y002322D01*
X037955Y002294D01*
X037955Y002266D01*
X037951Y002238D01*
X037943Y002212D01*
X037932Y002186D01*
X037917Y002162D01*
X037899Y002141D01*
X037878Y002122D01*
X037855Y002107D01*
X037830Y002095D01*
X037803Y002086D01*
X037776Y002081D01*
X037748Y002080D01*
X037720Y002083D01*
X037693Y002090D01*
X037667Y002100D01*
X037643Y002114D01*
X037621Y002131D01*
X037602Y002151D01*
X037585Y002174D01*
X037572Y002199D01*
X037563Y002225D01*
X037557Y002252D01*
X037555Y002280D01*
X037055Y003025D02*
X037057Y003066D01*
X037063Y003106D01*
X037072Y003146D01*
X037086Y003185D01*
X037103Y003222D01*
X037123Y003257D01*
X037147Y003291D01*
X037174Y003322D01*
X037203Y003350D01*
X037236Y003375D01*
X037270Y003397D01*
X037306Y003416D01*
X037344Y003431D01*
X037384Y003443D01*
X037424Y003451D01*
X037465Y003455D01*
X037505Y003455D01*
X037546Y003451D01*
X037586Y003443D01*
X037626Y003431D01*
X037664Y003416D01*
X037700Y003397D01*
X037734Y003375D01*
X037767Y003350D01*
X037796Y003322D01*
X037823Y003291D01*
X037847Y003257D01*
X037867Y003222D01*
X037884Y003185D01*
X037898Y003146D01*
X037907Y003106D01*
X037913Y003066D01*
X037915Y003025D01*
X037913Y002984D01*
X037907Y002944D01*
X037898Y002904D01*
X037884Y002865D01*
X037867Y002828D01*
X037847Y002793D01*
X037823Y002759D01*
X037796Y002728D01*
X037767Y002700D01*
X037734Y002675D01*
X037700Y002653D01*
X037664Y002634D01*
X037626Y002619D01*
X037586Y002607D01*
X037546Y002599D01*
X037505Y002595D01*
X037465Y002595D01*
X037424Y002599D01*
X037384Y002607D01*
X037344Y002619D01*
X037306Y002634D01*
X037270Y002653D01*
X037236Y002675D01*
X037203Y002700D01*
X037174Y002728D01*
X037147Y002759D01*
X037123Y002793D01*
X037103Y002828D01*
X037086Y002865D01*
X037072Y002904D01*
X037063Y002944D01*
X037057Y002984D01*
X037055Y003025D01*
X035855Y000505D02*
X035857Y000533D01*
X035863Y000560D01*
X035872Y000586D01*
X035885Y000611D01*
X035902Y000634D01*
X035921Y000654D01*
X035943Y000671D01*
X035967Y000685D01*
X035993Y000695D01*
X036020Y000702D01*
X036048Y000705D01*
X036076Y000704D01*
X036103Y000699D01*
X036130Y000690D01*
X036155Y000678D01*
X036178Y000663D01*
X036199Y000644D01*
X036217Y000623D01*
X036232Y000599D01*
X036243Y000573D01*
X036251Y000547D01*
X036255Y000519D01*
X036255Y000491D01*
X036251Y000463D01*
X036243Y000437D01*
X036232Y000411D01*
X036217Y000387D01*
X036199Y000366D01*
X036178Y000347D01*
X036155Y000332D01*
X036130Y000320D01*
X036103Y000311D01*
X036076Y000306D01*
X036048Y000305D01*
X036020Y000308D01*
X035993Y000315D01*
X035967Y000325D01*
X035943Y000339D01*
X035921Y000356D01*
X035902Y000376D01*
X035885Y000399D01*
X035872Y000424D01*
X035863Y000450D01*
X035857Y000477D01*
X035855Y000505D01*
X010412Y011057D02*
X010414Y011124D01*
X010420Y011191D01*
X010430Y011257D01*
X010443Y011323D01*
X010461Y011388D01*
X010482Y011451D01*
X010507Y011513D01*
X010536Y011574D01*
X010568Y011633D01*
X010603Y011690D01*
X010642Y011744D01*
X010684Y011797D01*
X010729Y011847D01*
X010777Y011894D01*
X010827Y011938D01*
X010880Y011979D01*
X010935Y012017D01*
X010993Y012052D01*
X011052Y012083D01*
X011113Y012110D01*
X011176Y012135D01*
X011240Y012155D01*
X011305Y012171D01*
X011370Y012184D01*
X011437Y012193D01*
X011504Y012198D01*
X011571Y012199D01*
X011638Y012196D01*
X011704Y012189D01*
X011771Y012178D01*
X011836Y012164D01*
X011901Y012145D01*
X011964Y012123D01*
X012026Y012097D01*
X012086Y012068D01*
X012144Y012035D01*
X012201Y011998D01*
X012255Y011959D01*
X012306Y011916D01*
X012356Y011870D01*
X012402Y011822D01*
X012445Y011771D01*
X012486Y011717D01*
X012523Y011662D01*
X012557Y011604D01*
X012587Y011544D01*
X012614Y011482D01*
X012637Y011419D01*
X012656Y011355D01*
X012672Y011290D01*
X012684Y011224D01*
X012692Y011157D01*
X012696Y011091D01*
X012696Y011023D01*
X012692Y010957D01*
X012684Y010890D01*
X012672Y010824D01*
X012656Y010759D01*
X012637Y010695D01*
X012614Y010632D01*
X012587Y010570D01*
X012557Y010510D01*
X012523Y010452D01*
X012486Y010397D01*
X012445Y010343D01*
X012402Y010292D01*
X012356Y010244D01*
X012306Y010198D01*
X012255Y010155D01*
X012201Y010116D01*
X012144Y010079D01*
X012086Y010046D01*
X012026Y010017D01*
X011964Y009991D01*
X011901Y009969D01*
X011836Y009950D01*
X011771Y009936D01*
X011704Y009925D01*
X011638Y009918D01*
X011571Y009915D01*
X011504Y009916D01*
X011437Y009921D01*
X011370Y009930D01*
X011305Y009943D01*
X011240Y009959D01*
X011176Y009979D01*
X011113Y010004D01*
X011052Y010031D01*
X010993Y010062D01*
X010935Y010097D01*
X010880Y010135D01*
X010827Y010176D01*
X010777Y010220D01*
X010729Y010267D01*
X010684Y010317D01*
X010642Y010370D01*
X010603Y010424D01*
X010568Y010481D01*
X010536Y010540D01*
X010507Y010601D01*
X010482Y010663D01*
X010461Y010726D01*
X010443Y010791D01*
X010430Y010857D01*
X010420Y010923D01*
X010414Y010990D01*
X010412Y011057D01*
X019380Y019221D02*
X019382Y019271D01*
X019388Y019321D01*
X019398Y019371D01*
X019411Y019419D01*
X019428Y019467D01*
X019449Y019513D01*
X019473Y019557D01*
X019501Y019599D01*
X019532Y019639D01*
X019566Y019676D01*
X019603Y019711D01*
X019642Y019742D01*
X019683Y019771D01*
X019727Y019796D01*
X019773Y019818D01*
X019820Y019836D01*
X019868Y019850D01*
X019917Y019861D01*
X019967Y019868D01*
X020017Y019871D01*
X020068Y019870D01*
X020118Y019865D01*
X020168Y019856D01*
X020216Y019844D01*
X020264Y019827D01*
X020310Y019807D01*
X020355Y019784D01*
X020398Y019757D01*
X020438Y019727D01*
X020476Y019694D01*
X020511Y019658D01*
X020544Y019619D01*
X020573Y019578D01*
X020599Y019535D01*
X020622Y019490D01*
X020641Y019443D01*
X020656Y019395D01*
X020668Y019346D01*
X020676Y019296D01*
X020680Y019246D01*
X020680Y019196D01*
X020676Y019146D01*
X020668Y019096D01*
X020656Y019047D01*
X020641Y018999D01*
X020622Y018952D01*
X020599Y018907D01*
X020573Y018864D01*
X020544Y018823D01*
X020511Y018784D01*
X020476Y018748D01*
X020438Y018715D01*
X020398Y018685D01*
X020355Y018658D01*
X020310Y018635D01*
X020264Y018615D01*
X020216Y018598D01*
X020168Y018586D01*
X020118Y018577D01*
X020068Y018572D01*
X020017Y018571D01*
X019967Y018574D01*
X019917Y018581D01*
X019868Y018592D01*
X019820Y018606D01*
X019773Y018624D01*
X019727Y018646D01*
X019683Y018671D01*
X019642Y018700D01*
X019603Y018731D01*
X019566Y018766D01*
X019532Y018803D01*
X019501Y018843D01*
X019473Y018885D01*
X019449Y018929D01*
X019428Y018975D01*
X019411Y019023D01*
X019398Y019071D01*
X019388Y019121D01*
X019382Y019171D01*
X019380Y019221D01*
X024456Y020899D02*
X024458Y020940D01*
X024464Y020980D01*
X024473Y021020D01*
X024487Y021059D01*
X024504Y021096D01*
X024524Y021131D01*
X024548Y021165D01*
X024575Y021196D01*
X024604Y021224D01*
X024637Y021249D01*
X024671Y021271D01*
X024707Y021290D01*
X024745Y021305D01*
X024785Y021317D01*
X024825Y021325D01*
X024866Y021329D01*
X024906Y021329D01*
X024947Y021325D01*
X024987Y021317D01*
X025027Y021305D01*
X025065Y021290D01*
X025101Y021271D01*
X025135Y021249D01*
X025168Y021224D01*
X025197Y021196D01*
X025224Y021165D01*
X025248Y021131D01*
X025268Y021096D01*
X025285Y021059D01*
X025299Y021020D01*
X025308Y020980D01*
X025314Y020940D01*
X025316Y020899D01*
X025314Y020858D01*
X025308Y020818D01*
X025299Y020778D01*
X025285Y020739D01*
X025268Y020702D01*
X025248Y020667D01*
X025224Y020633D01*
X025197Y020602D01*
X025168Y020574D01*
X025135Y020549D01*
X025101Y020527D01*
X025065Y020508D01*
X025027Y020493D01*
X024987Y020481D01*
X024947Y020473D01*
X024906Y020469D01*
X024866Y020469D01*
X024825Y020473D01*
X024785Y020481D01*
X024745Y020493D01*
X024707Y020508D01*
X024671Y020527D01*
X024637Y020549D01*
X024604Y020574D01*
X024575Y020602D01*
X024548Y020633D01*
X024524Y020667D01*
X024504Y020702D01*
X024487Y020739D01*
X024473Y020778D01*
X024464Y020818D01*
X024458Y020858D01*
X024456Y020899D01*
X035401Y020899D02*
X035403Y020940D01*
X035409Y020980D01*
X035418Y021020D01*
X035432Y021059D01*
X035449Y021096D01*
X035469Y021131D01*
X035493Y021165D01*
X035520Y021196D01*
X035549Y021224D01*
X035582Y021249D01*
X035616Y021271D01*
X035652Y021290D01*
X035690Y021305D01*
X035730Y021317D01*
X035770Y021325D01*
X035811Y021329D01*
X035851Y021329D01*
X035892Y021325D01*
X035932Y021317D01*
X035972Y021305D01*
X036010Y021290D01*
X036046Y021271D01*
X036080Y021249D01*
X036113Y021224D01*
X036142Y021196D01*
X036169Y021165D01*
X036193Y021131D01*
X036213Y021096D01*
X036230Y021059D01*
X036244Y021020D01*
X036253Y020980D01*
X036259Y020940D01*
X036261Y020899D01*
X036259Y020858D01*
X036253Y020818D01*
X036244Y020778D01*
X036230Y020739D01*
X036213Y020702D01*
X036193Y020667D01*
X036169Y020633D01*
X036142Y020602D01*
X036113Y020574D01*
X036080Y020549D01*
X036046Y020527D01*
X036010Y020508D01*
X035972Y020493D01*
X035932Y020481D01*
X035892Y020473D01*
X035851Y020469D01*
X035811Y020469D01*
X035770Y020473D01*
X035730Y020481D01*
X035690Y020493D01*
X035652Y020508D01*
X035616Y020527D01*
X035582Y020549D01*
X035549Y020574D01*
X035520Y020602D01*
X035493Y020633D01*
X035469Y020667D01*
X035449Y020702D01*
X035432Y020739D01*
X035418Y020778D01*
X035409Y020818D01*
X035403Y020858D01*
X035401Y020899D01*
X004378Y020899D02*
X004380Y020940D01*
X004386Y020980D01*
X004395Y021020D01*
X004409Y021059D01*
X004426Y021096D01*
X004446Y021131D01*
X004470Y021165D01*
X004497Y021196D01*
X004526Y021224D01*
X004559Y021249D01*
X004593Y021271D01*
X004629Y021290D01*
X004667Y021305D01*
X004707Y021317D01*
X004747Y021325D01*
X004788Y021329D01*
X004828Y021329D01*
X004869Y021325D01*
X004909Y021317D01*
X004949Y021305D01*
X004987Y021290D01*
X005023Y021271D01*
X005057Y021249D01*
X005090Y021224D01*
X005119Y021196D01*
X005146Y021165D01*
X005170Y021131D01*
X005190Y021096D01*
X005207Y021059D01*
X005221Y021020D01*
X005230Y020980D01*
X005236Y020940D01*
X005238Y020899D01*
X005236Y020858D01*
X005230Y020818D01*
X005221Y020778D01*
X005207Y020739D01*
X005190Y020702D01*
X005170Y020667D01*
X005146Y020633D01*
X005119Y020602D01*
X005090Y020574D01*
X005057Y020549D01*
X005023Y020527D01*
X004987Y020508D01*
X004949Y020493D01*
X004909Y020481D01*
X004869Y020473D01*
X004828Y020469D01*
X004788Y020469D01*
X004747Y020473D01*
X004707Y020481D01*
X004667Y020493D01*
X004629Y020508D01*
X004593Y020527D01*
X004559Y020549D01*
X004526Y020574D01*
X004497Y020602D01*
X004470Y020633D01*
X004446Y020667D01*
X004426Y020702D01*
X004409Y020739D01*
X004395Y020778D01*
X004386Y020818D01*
X004380Y020858D01*
X004378Y020899D01*
X002080Y021030D02*
X002082Y021058D01*
X002088Y021085D01*
X002097Y021111D01*
X002110Y021136D01*
X002127Y021159D01*
X002146Y021179D01*
X002168Y021196D01*
X002192Y021210D01*
X002218Y021220D01*
X002245Y021227D01*
X002273Y021230D01*
X002301Y021229D01*
X002328Y021224D01*
X002355Y021215D01*
X002380Y021203D01*
X002403Y021188D01*
X002424Y021169D01*
X002442Y021148D01*
X002457Y021124D01*
X002468Y021098D01*
X002476Y021072D01*
X002480Y021044D01*
X002480Y021016D01*
X002476Y020988D01*
X002468Y020962D01*
X002457Y020936D01*
X002442Y020912D01*
X002424Y020891D01*
X002403Y020872D01*
X002380Y020857D01*
X002355Y020845D01*
X002328Y020836D01*
X002301Y020831D01*
X002273Y020830D01*
X002245Y020833D01*
X002218Y020840D01*
X002192Y020850D01*
X002168Y020864D01*
X002146Y020881D01*
X002127Y020901D01*
X002110Y020924D01*
X002097Y020949D01*
X002088Y020975D01*
X002082Y021002D01*
X002080Y021030D01*
X002130Y021530D02*
X002132Y021558D01*
X002138Y021585D01*
X002147Y021611D01*
X002160Y021636D01*
X002177Y021659D01*
X002196Y021679D01*
X002218Y021696D01*
X002242Y021710D01*
X002268Y021720D01*
X002295Y021727D01*
X002323Y021730D01*
X002351Y021729D01*
X002378Y021724D01*
X002405Y021715D01*
X002430Y021703D01*
X002453Y021688D01*
X002474Y021669D01*
X002492Y021648D01*
X002507Y021624D01*
X002518Y021598D01*
X002526Y021572D01*
X002530Y021544D01*
X002530Y021516D01*
X002526Y021488D01*
X002518Y021462D01*
X002507Y021436D01*
X002492Y021412D01*
X002474Y021391D01*
X002453Y021372D01*
X002430Y021357D01*
X002405Y021345D01*
X002378Y021336D01*
X002351Y021331D01*
X002323Y021330D01*
X002295Y021333D01*
X002268Y021340D01*
X002242Y021350D01*
X002218Y021364D01*
X002196Y021381D01*
X002177Y021401D01*
X002160Y021424D01*
X002147Y021449D01*
X002138Y021475D01*
X002132Y021502D01*
X002130Y021530D01*
X001880Y020580D02*
X001882Y020608D01*
X001888Y020635D01*
X001897Y020661D01*
X001910Y020686D01*
X001927Y020709D01*
X001946Y020729D01*
X001968Y020746D01*
X001992Y020760D01*
X002018Y020770D01*
X002045Y020777D01*
X002073Y020780D01*
X002101Y020779D01*
X002128Y020774D01*
X002155Y020765D01*
X002180Y020753D01*
X002203Y020738D01*
X002224Y020719D01*
X002242Y020698D01*
X002257Y020674D01*
X002268Y020648D01*
X002276Y020622D01*
X002280Y020594D01*
X002280Y020566D01*
X002276Y020538D01*
X002268Y020512D01*
X002257Y020486D01*
X002242Y020462D01*
X002224Y020441D01*
X002203Y020422D01*
X002180Y020407D01*
X002155Y020395D01*
X002128Y020386D01*
X002101Y020381D01*
X002073Y020380D01*
X002045Y020383D01*
X002018Y020390D01*
X001992Y020400D01*
X001968Y020414D01*
X001946Y020431D01*
X001927Y020451D01*
X001910Y020474D01*
X001897Y020499D01*
X001888Y020525D01*
X001882Y020552D01*
X001880Y020580D01*
X001480Y020280D02*
X001482Y020308D01*
X001488Y020335D01*
X001497Y020361D01*
X001510Y020386D01*
X001527Y020409D01*
X001546Y020429D01*
X001568Y020446D01*
X001592Y020460D01*
X001618Y020470D01*
X001645Y020477D01*
X001673Y020480D01*
X001701Y020479D01*
X001728Y020474D01*
X001755Y020465D01*
X001780Y020453D01*
X001803Y020438D01*
X001824Y020419D01*
X001842Y020398D01*
X001857Y020374D01*
X001868Y020348D01*
X001876Y020322D01*
X001880Y020294D01*
X001880Y020266D01*
X001876Y020238D01*
X001868Y020212D01*
X001857Y020186D01*
X001842Y020162D01*
X001824Y020141D01*
X001803Y020122D01*
X001780Y020107D01*
X001755Y020095D01*
X001728Y020086D01*
X001701Y020081D01*
X001673Y020080D01*
X001645Y020083D01*
X001618Y020090D01*
X001592Y020100D01*
X001568Y020114D01*
X001546Y020131D01*
X001527Y020151D01*
X001510Y020174D01*
X001497Y020199D01*
X001488Y020225D01*
X001482Y020252D01*
X001480Y020280D01*
X000980Y020180D02*
X000982Y020208D01*
X000988Y020235D01*
X000997Y020261D01*
X001010Y020286D01*
X001027Y020309D01*
X001046Y020329D01*
X001068Y020346D01*
X001092Y020360D01*
X001118Y020370D01*
X001145Y020377D01*
X001173Y020380D01*
X001201Y020379D01*
X001228Y020374D01*
X001255Y020365D01*
X001280Y020353D01*
X001303Y020338D01*
X001324Y020319D01*
X001342Y020298D01*
X001357Y020274D01*
X001368Y020248D01*
X001376Y020222D01*
X001380Y020194D01*
X001380Y020166D01*
X001376Y020138D01*
X001368Y020112D01*
X001357Y020086D01*
X001342Y020062D01*
X001324Y020041D01*
X001303Y020022D01*
X001280Y020007D01*
X001255Y019995D01*
X001228Y019986D01*
X001201Y019981D01*
X001173Y019980D01*
X001145Y019983D01*
X001118Y019990D01*
X001092Y020000D01*
X001068Y020014D01*
X001046Y020031D01*
X001027Y020051D01*
X001010Y020074D01*
X000997Y020099D01*
X000988Y020125D01*
X000982Y020152D01*
X000980Y020180D01*
X000455Y020055D02*
X000457Y020083D01*
X000463Y020110D01*
X000472Y020136D01*
X000485Y020161D01*
X000502Y020184D01*
X000521Y020204D01*
X000543Y020221D01*
X000567Y020235D01*
X000593Y020245D01*
X000620Y020252D01*
X000648Y020255D01*
X000676Y020254D01*
X000703Y020249D01*
X000730Y020240D01*
X000755Y020228D01*
X000778Y020213D01*
X000799Y020194D01*
X000817Y020173D01*
X000832Y020149D01*
X000843Y020123D01*
X000851Y020097D01*
X000855Y020069D01*
X000855Y020041D01*
X000851Y020013D01*
X000843Y019987D01*
X000832Y019961D01*
X000817Y019937D01*
X000799Y019916D01*
X000778Y019897D01*
X000755Y019882D01*
X000730Y019870D01*
X000703Y019861D01*
X000676Y019856D01*
X000648Y019855D01*
X000620Y019858D01*
X000593Y019865D01*
X000567Y019875D01*
X000543Y019889D01*
X000521Y019906D01*
X000502Y019926D01*
X000485Y019949D01*
X000472Y019974D01*
X000463Y020000D01*
X000457Y020027D01*
X000455Y020055D01*
M02*
