%
M48
M72
T01C0.0236
T02C0.0320
T03C0.0394
T04C0.0400
T05C0.0440
T06C0.0470
T07C0.0700
T08C0.0860
T09C0.1300
T10C0.2283
%
T01
X3530Y1480
X2780Y2355
X6155Y980
X13905Y6418
X11280Y7230
X4280Y8980
X5155Y10230
X8655Y11105
X9155Y13105
X9155Y13730
X12905Y12605
X13405Y13980
X14405Y15730
X22405Y14105
X26030Y15855
X28780Y13980
X32780Y14480
X34530Y15229
X35280Y15480
X35780Y14980
X32155Y16730
X33280Y17855
X31405Y18605
X34530Y20480
X35090Y20059
X36030Y19730
X36780Y20230
X23655Y18355
X23155Y18105
X22955Y19255
X18255Y10580
X17405Y10230
X21030Y9855
X22530Y9426
X28280Y8980
X23905Y4230
X25280Y3605
T02
X35905Y5855
X37030Y8355
X36280Y8730
X36655Y11230
X36780Y12230
X24780Y11730
X24030Y11230
X24780Y10730
X21780Y11480
X17780Y11480
X23280Y14730
T03
X29155Y20480
X30155Y20480
X31155Y20480
X32155Y20480
X33155Y20480
X3405Y19480
X3405Y18480
X3405Y17480
X3405Y16480
X3405Y15480
X35030Y4730
X35030Y3730
T04
X37255Y2255
X36805Y2130
X36330Y1905
X36130Y1455
X36005Y1005
X36055Y505
X37755Y2280
X14480Y2530
X17280Y15130
X2280Y21030
X2330Y21530
X2080Y20580
X1680Y20280
X1180Y20180
X655Y20055
T05
X19030Y12730
X20030Y12730
X21030Y12730
X26565Y11746
X28731Y13124
X30815Y14502
X28731Y15880
X30815Y17258
X32981Y15880
X32981Y13124
X30815Y11746
X28731Y10368
X30815Y8990
X28731Y7612
X30815Y6234
X32981Y7612
X32981Y10368
X26565Y8990
X26565Y6234
X28731Y4856
X30815Y3478
X32981Y4856
X26565Y3478
X26565Y14502
X26565Y17258
X28731Y18636
X32981Y18636
T06
X1280Y855
X1280Y7855
X1280Y8855
X1280Y15855
T07
X7282Y16513
X7282Y14954
X7282Y13395
X7282Y11836
X7282Y10277
X7282Y8718
X7282Y7159
X7282Y5600
X7282Y4041
X7282Y2482
X15825Y2482
X15825Y4041
X15825Y5600
X15825Y7159
X15825Y8718
X15825Y10277
X15825Y11836
X15825Y13395
X15825Y14954
X15825Y16513
X15825Y18073
X15825Y19632
X7282Y19632
X7282Y18073
T08
X4808Y20899
X24886Y20899
X35831Y20899
X37485Y3025
X24886Y1214
X4808Y1214
T09
X20030Y19221
T10
X11554Y11057
M30
