G75*
G70*
%OFA0B0*%
%FSLAX24Y24*%
%IPPOS*%
%LPD*%
%AMOC8*
5,1,8,0,0,1.08239X$1,22.5*
%
%ADD10C,0.2343*%
%ADD11C,0.0920*%
%ADD12C,0.0460*%
%ADD13R,0.0860X0.0320*%
%ADD14R,0.0296X0.0926*%
%ADD15R,0.0769X0.0729*%
%ADD16OC8,0.0690*%
%ADD17OC8,0.0540*%
%ADD18C,0.0660*%
%ADD19C,0.1360*%
%ADD20R,0.0454X0.0611*%
%ADD21R,0.0540X0.0940*%
%ADD22R,0.1477X0.0926*%
%ADD23C,0.0920*%
%ADD24R,0.0572X0.0651*%
%ADD25R,0.0651X0.0572*%
%ADD26R,0.0611X0.0454*%
%ADD27R,0.0690X0.0769*%
%ADD28R,0.0847X0.0651*%
%ADD29C,0.0614*%
%ADD30R,0.0940X0.0540*%
%ADD31R,0.0926X0.1477*%
%ADD32R,0.0690X0.0572*%
%ADD33C,0.0651*%
%ADD34C,0.0620*%
%ADD35C,0.0416*%
%ADD36C,0.0500*%
D10*
X011554Y011057D03*
D11*
X004808Y001214D03*
X024886Y001214D03*
X037485Y003025D03*
X035831Y020899D03*
X024886Y020899D03*
X004808Y020899D03*
D12*
X002280Y021030D03*
X002330Y021530D03*
X002080Y020580D03*
X001680Y020280D03*
X001180Y020180D03*
X000655Y020055D03*
X037255Y002255D03*
X036805Y002130D03*
X036330Y001905D03*
X036130Y001455D03*
X036005Y001005D03*
X036055Y000505D03*
X037755Y002280D03*
D13*
X036990Y015980D03*
X036990Y016480D03*
X036990Y016980D03*
X036990Y017480D03*
X036990Y017980D03*
X036990Y018480D03*
X036990Y018980D03*
X036990Y019480D03*
X034570Y019480D03*
X034570Y018980D03*
X034570Y018480D03*
X034570Y017980D03*
X034570Y017480D03*
X034570Y016980D03*
X034570Y016480D03*
X034570Y015980D03*
D14*
X022280Y007504D03*
X021780Y007504D03*
X021280Y007504D03*
X020780Y007504D03*
X020780Y005456D03*
X021280Y005456D03*
X021780Y005456D03*
X022280Y005456D03*
X011780Y006254D03*
X011280Y006254D03*
X010780Y006254D03*
X010280Y006254D03*
X010280Y004206D03*
X010780Y004206D03*
X011280Y004206D03*
X011780Y004206D03*
D15*
X004337Y004480D03*
X002723Y004480D03*
X002723Y005730D03*
X004337Y005730D03*
X004337Y006980D03*
X002723Y006980D03*
X002723Y008230D03*
X004337Y008230D03*
X004337Y003230D03*
X002723Y003230D03*
X023223Y013230D03*
X024837Y013230D03*
X024837Y015730D03*
X023223Y015730D03*
X023223Y016980D03*
X024837Y016980D03*
D16*
X001280Y000855D03*
X001280Y007855D03*
X001280Y008855D03*
X001280Y015855D03*
D17*
X017780Y011480D03*
X021780Y011480D03*
X024030Y011230D03*
X024780Y010730D03*
X024780Y011730D03*
D18*
X026265Y011746D02*
X026865Y011746D01*
X028431Y013124D02*
X029031Y013124D01*
X030515Y014502D02*
X031115Y014502D01*
X032681Y015880D02*
X033281Y015880D01*
X031115Y017258D02*
X030515Y017258D01*
X029031Y015880D02*
X028431Y015880D01*
X026865Y017258D02*
X026265Y017258D01*
X028431Y018636D02*
X029031Y018636D01*
X032681Y018636D02*
X033281Y018636D01*
X026865Y014502D02*
X026265Y014502D01*
X021030Y013030D02*
X021030Y012430D01*
X020030Y012430D02*
X020030Y013030D01*
X019030Y013030D02*
X019030Y012430D01*
X026265Y008990D02*
X026865Y008990D01*
X028431Y010368D02*
X029031Y010368D01*
X030515Y008990D02*
X031115Y008990D01*
X032681Y010368D02*
X033281Y010368D01*
X031115Y011746D02*
X030515Y011746D01*
X032681Y013124D02*
X033281Y013124D01*
X033281Y007612D02*
X032681Y007612D01*
X031115Y006234D02*
X030515Y006234D01*
X029031Y007612D02*
X028431Y007612D01*
X026865Y006234D02*
X026265Y006234D01*
X028431Y004856D02*
X029031Y004856D01*
X030515Y003478D02*
X031115Y003478D01*
X032681Y004856D02*
X033281Y004856D01*
X026865Y003478D02*
X026265Y003478D01*
D19*
X020030Y019221D03*
D20*
X004780Y011913D03*
X004406Y011047D03*
X005154Y011047D03*
X018030Y002538D03*
X017656Y001672D03*
X018404Y001672D03*
D21*
X003440Y010510D03*
X002530Y010510D03*
X001620Y010510D03*
X011995Y017200D03*
X012905Y017200D03*
X013815Y017200D03*
D22*
X012905Y014760D03*
X002530Y012950D03*
D23*
X006852Y013395D02*
X007712Y013395D01*
X007712Y011836D02*
X006852Y011836D01*
X006852Y010277D02*
X007712Y010277D01*
X007712Y008718D02*
X006852Y008718D01*
X006852Y007159D02*
X007712Y007159D01*
X007712Y005600D02*
X006852Y005600D01*
X006852Y004041D02*
X007712Y004041D01*
X007712Y002482D02*
X006852Y002482D01*
X015395Y002482D02*
X016255Y002482D01*
X016255Y004041D02*
X015395Y004041D01*
X015395Y005600D02*
X016255Y005600D01*
X016255Y007159D02*
X015395Y007159D01*
X015395Y008718D02*
X016255Y008718D01*
X016255Y010277D02*
X015395Y010277D01*
X015395Y011836D02*
X016255Y011836D01*
X016255Y013395D02*
X015395Y013395D01*
X015395Y014954D02*
X016255Y014954D01*
X016255Y016513D02*
X015395Y016513D01*
X015395Y018073D02*
X016255Y018073D01*
X016255Y019632D02*
X015395Y019632D01*
X007712Y019632D02*
X006852Y019632D01*
X006852Y018073D02*
X007712Y018073D01*
X007712Y016513D02*
X006852Y016513D01*
X006852Y014954D02*
X007712Y014954D01*
D24*
X002904Y014230D03*
X002156Y014230D03*
X002154Y016855D03*
X001406Y016855D03*
X001406Y017980D03*
X002154Y017980D03*
X002154Y019105D03*
X001406Y019105D03*
X012781Y018855D03*
X013529Y018855D03*
X033656Y014480D03*
X034404Y014480D03*
X035656Y013980D03*
X036404Y013980D03*
X035154Y011480D03*
X034406Y011480D03*
X034406Y008730D03*
X035154Y008730D03*
X035154Y005855D03*
X034406Y005855D03*
X031554Y004530D03*
X030806Y004530D03*
X026754Y002430D03*
X026006Y002430D03*
X021529Y002980D03*
X020781Y002980D03*
X020781Y001855D03*
X021529Y001855D03*
X021529Y004230D03*
X020781Y004230D03*
X018279Y006480D03*
X017531Y006480D03*
X013654Y005355D03*
X012906Y005355D03*
X012906Y003855D03*
X013654Y003855D03*
X013354Y002480D03*
X012606Y002480D03*
D25*
X009280Y004231D03*
X009280Y004979D03*
X018255Y009106D03*
X018255Y009854D03*
X020280Y009854D03*
X020280Y009106D03*
X021780Y009106D03*
X021780Y009854D03*
X023280Y009479D03*
X023280Y008731D03*
X023280Y007354D03*
X023280Y006606D03*
X019530Y006979D03*
X019530Y006231D03*
X023030Y004354D03*
X023030Y003606D03*
X023030Y002354D03*
X023030Y001606D03*
X019405Y001481D03*
X019405Y002229D03*
X036630Y004106D03*
X036630Y004854D03*
X036655Y006856D03*
X036655Y007604D03*
X036655Y009731D03*
X036655Y010479D03*
X010780Y014356D03*
X009530Y014356D03*
X009530Y015104D03*
X010780Y015104D03*
X010780Y016356D03*
X009530Y016356D03*
X009530Y017104D03*
X010780Y017104D03*
X004280Y013854D03*
X004280Y013106D03*
D26*
X010097Y018606D03*
X010963Y018980D03*
X010097Y019354D03*
X026222Y010729D03*
X027088Y010355D03*
X026222Y009981D03*
X032222Y008980D03*
X033088Y008606D03*
X033088Y009354D03*
X034472Y009980D03*
X035338Y009606D03*
X035338Y010354D03*
X033213Y011356D03*
X032347Y011730D03*
X033213Y012104D03*
X034472Y012730D03*
X035338Y012356D03*
X035338Y013104D03*
X035338Y007729D03*
X034472Y007355D03*
X035338Y006981D03*
X033213Y006604D03*
X032347Y006230D03*
X033213Y005856D03*
X013963Y007230D03*
X013097Y006856D03*
X013097Y007604D03*
D27*
X010581Y002480D03*
X009479Y002480D03*
D28*
X017905Y003764D03*
X019405Y003764D03*
X019405Y004946D03*
X017905Y004946D03*
X019280Y008939D03*
X019280Y010121D03*
X023030Y010639D03*
X023030Y011821D03*
D29*
X034753Y004730D02*
X035307Y004730D01*
X035307Y003730D02*
X034753Y003730D01*
X003682Y015480D02*
X003128Y015480D01*
X003128Y016480D02*
X003682Y016480D01*
X003682Y017480D02*
X003128Y017480D01*
X003128Y018480D02*
X003682Y018480D01*
X003682Y019480D02*
X003128Y019480D01*
X029155Y020203D02*
X029155Y020757D01*
X030155Y020757D02*
X030155Y020203D01*
X031155Y020203D02*
X031155Y020757D01*
X032155Y020757D02*
X032155Y020203D01*
X033155Y020203D02*
X033155Y020757D01*
D30*
X032185Y002765D03*
X032185Y001855D03*
X032185Y000945D03*
X027810Y000945D03*
X027810Y001855D03*
X027810Y002765D03*
D31*
X030250Y001855D03*
X034625Y001855D03*
D32*
X011455Y001586D03*
X011455Y002374D03*
D33*
X025530Y008605D03*
X029780Y010355D03*
X030905Y009730D03*
X031905Y010355D03*
X027655Y011730D03*
X030780Y012605D03*
X031905Y013105D03*
X029880Y013530D03*
X029780Y014605D03*
X029755Y015655D03*
X031905Y015605D03*
X029655Y017355D03*
X025655Y014105D03*
X027655Y013355D03*
X029905Y007605D03*
X031905Y007605D03*
X027655Y006230D03*
X027655Y004855D03*
X027655Y003480D03*
X029780Y003480D03*
X033280Y003730D03*
X030905Y005480D03*
D34*
X014480Y002530D03*
X017280Y015130D03*
D35*
X014405Y015730D03*
X013405Y013980D03*
X012905Y012605D03*
X009155Y013105D03*
X009155Y013730D03*
X008655Y011105D03*
X005155Y010230D03*
X004280Y008980D03*
X011280Y007230D03*
X013905Y006418D03*
X021030Y009855D03*
X022530Y009426D03*
X018255Y010580D03*
X017405Y010230D03*
X022405Y014105D03*
X026030Y015855D03*
X028780Y013980D03*
X032780Y014480D03*
X034530Y015229D03*
X035280Y015480D03*
X035780Y014980D03*
X032155Y016730D03*
X033280Y017855D03*
X031405Y018605D03*
X034530Y020480D03*
X035090Y020059D03*
X036030Y019730D03*
X036780Y020230D03*
X023655Y018355D03*
X023155Y018105D03*
X022955Y019255D03*
X028280Y008980D03*
X023905Y004230D03*
X025280Y003605D03*
X006155Y000980D03*
X003530Y001480D03*
X002780Y002355D03*
D36*
X023280Y014730D03*
X036780Y012230D03*
X036655Y011230D03*
X036280Y008730D03*
X037030Y008355D03*
X035905Y005855D03*
M02*
