  0
SECTION
  2
HEADER
  9
$ANGBASE
  50
0.0
  9
$ANGDIR
  70
  1
  9
$MEASUREMENT
  70
0
  0
ENDSEC
  0
SECTION
  2
TABLES
  0
TABLE
  2
LTYPE
  70
1
  0
LTYPE
  2
CONTINUOUS
  70
0
  3
Solid line
  72
65
  73
0
  40
0.0
  0
ENDTAB
  0
TABLE
  2
STYLE
  70
4
  0
STYLE
  2
KICAD
  70
0
  40
0
  41
1
  42
1
  50
0
  71
0
  3
isocp.shx
  0
STYLE
  2
KICADB
  70
0
  40
0
  41
1
  42
1
  50
0
  71
0
  3
isocp.shx
  0
STYLE
  2
KICADI
  70
0
  40
0
  41
1
  42
1
  50
15
  71
0
  3
isocp.shx
  0
STYLE
  2
KICADBI
  70
0
  40
0
  41
1
  42
1
  50
15
  71
0
  3
isocp.shx
  0
ENDTAB
  0
TABLE
  2
LAYER
  70
24
  0
LAYER
  2
BLACK
  70
0
  62
250
  6
CONTINUOUS
  0
LAYER
  2
BLUE
  70
0
  62
5
  6
CONTINUOUS
  0
LAYER
  2
GREEN
  70
0
  62
3
  6
CONTINUOUS
  0
LAYER
  2
CYAN
  70
0
  62
4
  6
CONTINUOUS
  0
LAYER
  2
RED
  70
0
  62
1
  6
CONTINUOUS
  0
LAYER
  2
MAGENTA
  70
0
  62
6
  6
CONTINUOUS
  0
LAYER
  2
BROWN
  70
0
  62
54
  6
CONTINUOUS
  0
LAYER
  2
LIGHTGRAY
  70
0
  62
9
  6
CONTINUOUS
  0
LAYER
  2
DARKGRAY
  70
0
  62
8
  6
CONTINUOUS
  0
LAYER
  2
LIGHTBLUE
  70
0
  62
171
  6
CONTINUOUS
  0
LAYER
  2
LIGHTGREEN
  70
0
  62
91
  6
CONTINUOUS
  0
LAYER
  2
LIGHTCYAN
  70
0
  62
131
  6
CONTINUOUS
  0
LAYER
  2
LIGHTRED
  70
0
  62
11
  6
CONTINUOUS
  0
LAYER
  2
LIGHTMAGENTA
  70
0
  62
221
  6
CONTINUOUS
  0
LAYER
  2
YELLOW
  70
0
  62
2
  6
CONTINUOUS
  0
LAYER
  2
WHITE
  70
0
  62
7
  6
CONTINUOUS
  0
LAYER
  2
DARKDARKGRAY
  70
0
  62
251
  6
CONTINUOUS
  0
LAYER
  2
DARKBLUE
  70
0
  62
178
  6
CONTINUOUS
  0
LAYER
  2
DARKGREEN
  70
0
  62
98
  6
CONTINUOUS
  0
LAYER
  2
DARKCYAN
  70
0
  62
138
  6
CONTINUOUS
  0
LAYER
  2
DARKRED
  70
0
  62
18
  6
CONTINUOUS
  0
LAYER
  2
DARKMAGENTA
  70
0
  62
228
  6
CONTINUOUS
  0
LAYER
  2
DARKBROWN
  70
0
  62
58
  6
CONTINUOUS
  0
LAYER
  2
LIGHTYELLOW
  70
0
  62
51
  6
CONTINUOUS
  0
ENDTAB
  0
ENDSEC
  0
SECTION
  2
ENTITIES
0
LINE
8
BLACK
10
50.165
20
-171.5
11
94.615
21
-171.5
0
LINE
8
BLACK
10
50.165
20
-171.4
11
94.615
21
-171.4
0
ARC
8
BLACK
10
94.615
20
-171.45
40
0.05
50
270
51
450
0
ARC
8
BLACK
10
50.165
20
-171.45
40
0.05
50
90
51
270
0
LINE
8
BLACK
10
50.215
20
-225.425
11
50.215
21
-171.45
0
LINE
8
BLACK
10
50.115
20
-225.425
11
50.115
21
-171.45
0
ARC
8
BLACK
10
50.165
20
-171.45
40
0.05
50
360
51
540
0
ARC
8
BLACK
10
50.165
20
-225.425
40
0.05
50
180
51
360
0
LINE
8
BLACK
10
50.165
20
-225.475
11
94.615
21
-225.475
0
LINE
8
BLACK
10
50.165
20
-225.375
11
94.615
21
-225.375
0
ARC
8
BLACK
10
94.615
20
-225.425
40
0.05
50
270
51
450
0
ARC
8
BLACK
10
50.165
20
-225.425
40
0.05
50
90
51
270
0
LINE
8
BLACK
10
94.665
20
-225.425
11
94.665
21
-171.45
0
LINE
8
BLACK
10
94.565
20
-225.425
11
94.565
21
-171.45
0
ARC
8
BLACK
10
94.615
20
-171.45
40
0.05
50
360
51
540
0
ARC
8
BLACK
10
94.615
20
-225.425
40
0.05
50
180
51
360
0
LINE
8
BLACK
10
88.305
20
-202.875
11
88.305
21
-209.875
0
LINE
8
BLACK
10
88.305
20
-209.875
11
93.305
21
-209.875
0
LINE
8
BLACK
10
93.305
20
-209.875
11
93.305
21
-202.875
0
LINE
8
BLACK
10
93.305
20
-202.875
11
88.305
21
-202.875
0
LINE
8
BLACK
10
78.145
20
-202.875
11
78.145
21
-209.875
0
LINE
8
BLACK
10
78.145
20
-209.875
11
83.145
21
-209.875
0
LINE
8
BLACK
10
83.145
20
-209.875
11
83.145
21
-202.875
0
LINE
8
BLACK
10
83.145
20
-202.875
11
78.145
21
-202.875
0
LINE
8
BLACK
10
63.881
20
-220.726
11
63.881
21
-222.504
0
LINE
8
BLACK
10
63.881
20
-222.504
11
65.659
21
-222.504
0
LINE
8
BLACK
10
65.659
20
-222.504
11
65.659
21
-220.726
0
LINE
8
BLACK
10
65.659
20
-220.726
11
63.881
21
-220.726
0
CIRCLE
8
BLACK
10
64.77
20
-216.535
40
1
0
CIRCLE
8
BLACK
10
64.77
20
-219.075
40
1
0
LINE
8
BLACK
10
76.835
20
-214.63
11
76.835
21
-223.52
0
LINE
8
BLACK
10
76.835
20
-223.52
11
85.725
21
-223.52
0
LINE
8
BLACK
10
85.725
20
-223.52
11
85.725
21
-214.63
0
LINE
8
BLACK
10
85.725
20
-214.63
11
76.835
21
-214.63
0
LINE
8
BLACK
10
85.344
20
-181.102
11
85.344
21
-184.658
0
LINE
8
BLACK
10
85.344
20
-184.658
11
87.376
21
-184.658
0
LINE
8
BLACK
10
87.376
20
-184.658
11
87.376
21
-181.102
0
LINE
8
BLACK
10
87.376
20
-181.102
11
85.344
21
-181.102
0
LINE
8
BLACK
10
90.424
20
-181.102
11
90.424
21
-184.658
0
LINE
8
BLACK
10
90.424
20
-184.658
11
92.456
21
-184.658
0
LINE
8
BLACK
10
92.456
20
-184.658
11
92.456
21
-181.102
0
LINE
8
BLACK
10
92.456
20
-181.102
11
90.424
21
-181.102
0
LINE
8
BLACK
10
85.344
20
-176.53
11
85.344
21
-180.086
0
LINE
8
BLACK
10
85.344
20
-180.086
11
87.376
21
-180.086
0
LINE
8
BLACK
10
87.376
20
-180.086
11
87.376
21
-176.53
0
LINE
8
BLACK
10
87.376
20
-176.53
11
85.344
21
-176.53
0
LINE
8
BLACK
10
90.424
20
-176.53
11
90.424
21
-180.086
0
LINE
8
BLACK
10
90.424
20
-180.086
11
92.456
21
-180.086
0
LINE
8
BLACK
10
92.456
20
-180.086
11
92.456
21
-176.53
0
LINE
8
BLACK
10
92.456
20
-176.53
11
90.424
21
-176.53
0
LINE
8
BLACK
10
79.248
20
-184.722
11
79.248
21
-186.119
0
LINE
8
BLACK
10
79.248
20
-186.119
11
80.137
21
-186.119
0
LINE
8
BLACK
10
80.137
20
-186.119
11
80.137
21
-184.722
0
LINE
8
BLACK
10
80.137
20
-184.722
11
79.248
21
-184.722
0
LINE
8
BLACK
10
81.153
20
-184.722
11
81.153
21
-186.119
0
LINE
8
BLACK
10
81.153
20
-186.119
11
82.042
21
-186.119
0
LINE
8
BLACK
10
82.042
20
-186.119
11
82.042
21
-184.722
0
LINE
8
BLACK
10
82.042
20
-184.722
11
81.153
21
-184.722
0
LINE
8
BLACK
10
65.278
20
-213.297
11
65.278
21
-214.694
0
LINE
8
BLACK
10
65.278
20
-214.694
11
66.167
21
-214.694
0
LINE
8
BLACK
10
66.167
20
-214.694
11
66.167
21
-213.297
0
LINE
8
BLACK
10
66.167
20
-213.297
11
65.278
21
-213.297
0
LINE
8
BLACK
10
67.183
20
-213.297
11
67.183
21
-214.694
0
LINE
8
BLACK
10
67.183
20
-214.694
11
68.072
21
-214.694
0
LINE
8
BLACK
10
68.072
20
-214.694
11
68.072
21
-213.297
0
LINE
8
BLACK
10
68.072
20
-213.297
11
67.183
21
-213.297
0
LINE
8
BLACK
10
79.248
20
-181.547
11
79.248
21
-182.944
0
LINE
8
BLACK
10
79.248
20
-182.944
11
80.137
21
-182.944
0
LINE
8
BLACK
10
80.137
20
-182.944
11
80.137
21
-181.547
0
LINE
8
BLACK
10
80.137
20
-181.547
11
79.248
21
-181.547
0
LINE
8
BLACK
10
81.153
20
-181.547
11
81.153
21
-182.944
0
LINE
8
BLACK
10
81.153
20
-182.944
11
82.042
21
-182.944
0
LINE
8
BLACK
10
82.042
20
-182.944
11
82.042
21
-181.547
0
LINE
8
BLACK
10
82.042
20
-181.547
11
81.153
21
-181.547
0
CIRCLE
8
BLACK
10
73.025
20
-182.245
40
1
0
CIRCLE
8
BLACK
10
75.565
20
-184.785
40
1
0
CIRCLE
8
BLACK
10
73.025
20
-187.325
40
1
0
CIRCLE
8
BLACK
10
74.295
20
-210.82
40
1
0
CIRCLE
8
BLACK
10
66.675
20
-210.82
40
1
0
LINE
8
BLACK
10
90.297
20
-197.002
11
92.583
21
-197.002
0
LINE
8
BLACK
10
92.583
20
-197.002
11
92.583
21
-195.428
0
LINE
8
BLACK
10
92.583
20
-195.428
11
90.297
21
-195.428
0
LINE
8
BLACK
10
90.297
20
-195.428
11
90.297
21
-197.002
0
LINE
8
BLACK
10
91.0844
20
-194.462
11
91.7956
21
-194.462
0
LINE
8
BLACK
10
91.0844
20
-192.888
11
91.7956
21
-192.888
0
ARC
8
BLACK
10
91.7956
20
-193.675
40
0.7874
50
270
51
450
0
ARC
8
BLACK
10
91.0844
20
-193.675
40
0.7874
50
90
51
270
0
LINE
8
BLACK
10
91.0844
20
-191.922
11
91.7956
21
-191.922
0
LINE
8
BLACK
10
91.0844
20
-190.348
11
91.7956
21
-190.348
0
ARC
8
BLACK
10
91.7956
20
-191.135
40
0.7874
50
270
51
450
0
ARC
8
BLACK
10
91.0844
20
-191.135
40
0.7874
50
90
51
270
0
LINE
8
BLACK
10
91.0844
20
-189.382
11
91.7956
21
-189.382
0
LINE
8
BLACK
10
91.0844
20
-187.808
11
91.7956
21
-187.808
0
ARC
8
BLACK
10
91.7956
20
-188.595
40
0.7874
50
270
51
450
0
ARC
8
BLACK
10
91.0844
20
-188.595
40
0.7874
50
90
51
270
0
LINE
8
BLACK
10
83.4644
20
-189.382
11
84.1756
21
-189.382
0
LINE
8
BLACK
10
83.4644
20
-187.808
11
84.1756
21
-187.808
0
ARC
8
BLACK
10
84.1756
20
-188.595
40
0.7874
50
270
51
450
0
ARC
8
BLACK
10
83.4644
20
-188.595
40
0.7874
50
90
51
270
0
LINE
8
BLACK
10
83.4644
20
-191.922
11
84.1756
21
-191.922
0
LINE
8
BLACK
10
83.4644
20
-190.348
11
84.1756
21
-190.348
0
ARC
8
BLACK
10
84.1756
20
-191.135
40
0.7874
50
270
51
450
0
ARC
8
BLACK
10
83.4644
20
-191.135
40
0.7874
50
90
51
270
0
LINE
8
BLACK
10
83.4644
20
-194.462
11
84.1756
21
-194.462
0
LINE
8
BLACK
10
83.4644
20
-192.888
11
84.1756
21
-192.888
0
ARC
8
BLACK
10
84.1756
20
-193.675
40
0.7874
50
270
51
450
0
ARC
8
BLACK
10
83.4644
20
-193.675
40
0.7874
50
90
51
270
0
LINE
8
BLACK
10
83.4644
20
-197.002
11
84.1756
21
-197.002
0
LINE
8
BLACK
10
83.4644
20
-195.428
11
84.1756
21
-195.428
0
ARC
8
BLACK
10
84.1756
20
-196.215
40
0.7874
50
270
51
450
0
ARC
8
BLACK
10
83.4644
20
-196.215
40
0.7874
50
90
51
270
0
LINE
8
BLACK
10
78.994
20
-195.834
11
78.994
21
-194.056
0
LINE
8
BLACK
10
78.994
20
-194.056
11
77.216
21
-194.056
0
LINE
8
BLACK
10
77.216
20
-194.056
11
77.216
21
-195.834
0
LINE
8
BLACK
10
77.216
20
-195.834
11
78.994
21
-195.834
0
CIRCLE
8
BLACK
10
73.025
20
-194.945
40
1
0
LINE
8
BLACK
10
59.944
20
-219.329
11
59.944
21
-217.551
0
LINE
8
BLACK
10
59.944
20
-217.551
11
58.166
21
-217.551
0
LINE
8
BLACK
10
58.166
20
-217.551
11
58.166
21
-219.329
0
LINE
8
BLACK
10
58.166
20
-219.329
11
59.944
21
-219.329
0
CIRCLE
8
BLACK
10
53.975
20
-218.44
40
1
0
CIRCLE
8
BLACK
10
77.47
20
-175.26
40
1
0
CIRCLE
8
BLACK
10
72.39
20
-175.26
40
1
0
CIRCLE
8
BLACK
10
58.42
20
-209.55
40
1
0
CIRCLE
8
BLACK
10
66.04
20
-199.39
40
1
0
CIRCLE
8
BLACK
10
53.34
20
-209.55
40
1
0
CIRCLE
8
BLACK
10
63.5
20
-209.55
40
1
0
CIRCLE
8
BLACK
10
54.61
20
-194.31
40
1
0
CIRCLE
8
BLACK
10
66.04
20
-189.23
40
1
0
CIRCLE
8
BLACK
10
66.04
20
-184.15
40
1
0
CIRCLE
8
BLACK
10
66.04
20
-179.07
40
1
0
CIRCLE
8
BLACK
10
66.04
20
-204.47
40
1
0
CIRCLE
8
BLACK
10
66.04
20
-194.31
40
1
0
CIRCLE
8
BLACK
10
54.61
20
-184.15
40
1
0
CIRCLE
8
BLACK
10
54.61
20
-199.39
40
1
0
CIRCLE
8
BLACK
10
54.61
20
-179.07
40
1
0
CIRCLE
8
BLACK
10
54.61
20
-189.23
40
1
0
CIRCLE
8
BLACK
10
54.61
20
-204.47
40
1
0
LINE
8
BLACK
10
57.023
20
-193.612
11
57.023
21
-195.009
0
LINE
8
BLACK
10
57.023
20
-195.009
11
57.912
21
-195.009
0
LINE
8
BLACK
10
57.912
20
-195.009
11
57.912
21
-193.612
0
LINE
8
BLACK
10
57.912
20
-193.612
11
57.023
21
-193.612
0
LINE
8
BLACK
10
58.928
20
-193.612
11
58.928
21
-195.009
0
LINE
8
BLACK
10
58.928
20
-195.009
11
59.817
21
-195.009
0
LINE
8
BLACK
10
59.817
20
-195.009
11
59.817
21
-193.612
0
LINE
8
BLACK
10
59.817
20
-193.612
11
58.928
21
-193.612
0
LINE
8
BLACK
10
57.023
20
-203.772
11
57.023
21
-205.169
0
LINE
8
BLACK
10
57.023
20
-205.169
11
57.912
21
-205.169
0
LINE
8
BLACK
10
57.912
20
-205.169
11
57.912
21
-203.772
0
LINE
8
BLACK
10
57.912
20
-203.772
11
57.023
21
-203.772
0
LINE
8
BLACK
10
58.928
20
-203.772
11
58.928
21
-205.169
0
LINE
8
BLACK
10
58.928
20
-205.169
11
59.817
21
-205.169
0
LINE
8
BLACK
10
59.817
20
-205.169
11
59.817
21
-203.772
0
LINE
8
BLACK
10
59.817
20
-203.772
11
58.928
21
-203.772
0
LINE
8
BLACK
10
57.023
20
-178.372
11
57.023
21
-179.769
0
LINE
8
BLACK
10
57.023
20
-179.769
11
57.912
21
-179.769
0
LINE
8
BLACK
10
57.912
20
-179.769
11
57.912
21
-178.372
0
LINE
8
BLACK
10
57.912
20
-178.372
11
57.023
21
-178.372
0
LINE
8
BLACK
10
58.928
20
-178.372
11
58.928
21
-179.769
0
LINE
8
BLACK
10
58.928
20
-179.769
11
59.817
21
-179.769
0
LINE
8
BLACK
10
59.817
20
-179.769
11
59.817
21
-178.372
0
LINE
8
BLACK
10
59.817
20
-178.372
11
58.928
21
-178.372
0
LINE
8
BLACK
10
57.023
20
-183.452
11
57.023
21
-184.849
0
LINE
8
BLACK
10
57.023
20
-184.849
11
57.912
21
-184.849
0
LINE
8
BLACK
10
57.912
20
-184.849
11
57.912
21
-183.452
0
LINE
8
BLACK
10
57.912
20
-183.452
11
57.023
21
-183.452
0
LINE
8
BLACK
10
58.928
20
-183.452
11
58.928
21
-184.849
0
LINE
8
BLACK
10
58.928
20
-184.849
11
59.817
21
-184.849
0
LINE
8
BLACK
10
59.817
20
-184.849
11
59.817
21
-183.452
0
LINE
8
BLACK
10
59.817
20
-183.452
11
58.928
21
-183.452
0
LINE
8
BLACK
10
57.023
20
-188.532
11
57.023
21
-189.929
0
LINE
8
BLACK
10
57.023
20
-189.929
11
57.912
21
-189.929
0
LINE
8
BLACK
10
57.912
20
-189.929
11
57.912
21
-188.532
0
LINE
8
BLACK
10
57.912
20
-188.532
11
57.023
21
-188.532
0
LINE
8
BLACK
10
58.928
20
-188.532
11
58.928
21
-189.929
0
LINE
8
BLACK
10
58.928
20
-189.929
11
59.817
21
-189.929
0
LINE
8
BLACK
10
59.817
20
-189.929
11
59.817
21
-188.532
0
LINE
8
BLACK
10
59.817
20
-188.532
11
58.928
21
-188.532
0
LINE
8
BLACK
10
57.023
20
-198.692
11
57.023
21
-200.089
0
LINE
8
BLACK
10
57.023
20
-200.089
11
57.912
21
-200.089
0
LINE
8
BLACK
10
57.912
20
-200.089
11
57.912
21
-198.692
0
LINE
8
BLACK
10
57.912
20
-198.692
11
57.023
21
-198.692
0
LINE
8
BLACK
10
58.928
20
-198.692
11
58.928
21
-200.089
0
LINE
8
BLACK
10
58.928
20
-200.089
11
59.817
21
-200.089
0
LINE
8
BLACK
10
59.817
20
-200.089
11
59.817
21
-198.692
0
LINE
8
BLACK
10
59.817
20
-198.692
11
58.928
21
-198.692
0
LINE
8
BLACK
10
57.023
20
-195.58
11
57.023
21
-197.612
0
LINE
8
BLACK
10
57.023
20
-197.612
11
58.547
21
-197.612
0
LINE
8
BLACK
10
58.547
20
-197.612
11
58.547
21
-195.58
0
LINE
8
BLACK
10
58.547
20
-195.58
11
57.023
21
-195.58
0
LINE
8
BLACK
10
60.325
20
-195.58
11
60.325
21
-197.612
0
LINE
8
BLACK
10
60.325
20
-197.612
11
61.849
21
-197.612
0
LINE
8
BLACK
10
61.849
20
-197.612
11
61.849
21
-195.58
0
LINE
8
BLACK
10
61.849
20
-195.58
11
60.325
21
-195.58
0
LINE
8
BLACK
10
57.023
20
-205.74
11
57.023
21
-207.772
0
LINE
8
BLACK
10
57.023
20
-207.772
11
58.547
21
-207.772
0
LINE
8
BLACK
10
58.547
20
-207.772
11
58.547
21
-205.74
0
LINE
8
BLACK
10
58.547
20
-205.74
11
57.023
21
-205.74
0
LINE
8
BLACK
10
60.325
20
-205.74
11
60.325
21
-207.772
0
LINE
8
BLACK
10
60.325
20
-207.772
11
61.849
21
-207.772
0
LINE
8
BLACK
10
61.849
20
-207.772
11
61.849
21
-205.74
0
LINE
8
BLACK
10
61.849
20
-205.74
11
60.325
21
-205.74
0
LINE
8
BLACK
10
57.023
20
-180.34
11
57.023
21
-182.372
0
LINE
8
BLACK
10
57.023
20
-182.372
11
58.547
21
-182.372
0
LINE
8
BLACK
10
58.547
20
-182.372
11
58.547
21
-180.34
0
LINE
8
BLACK
10
58.547
20
-180.34
11
57.023
21
-180.34
0
LINE
8
BLACK
10
60.325
20
-180.34
11
60.325
21
-182.372
0
LINE
8
BLACK
10
60.325
20
-182.372
11
61.849
21
-182.372
0
LINE
8
BLACK
10
61.849
20
-182.372
11
61.849
21
-180.34
0
LINE
8
BLACK
10
61.849
20
-180.34
11
60.325
21
-180.34
0
LINE
8
BLACK
10
57.023
20
-185.42
11
57.023
21
-187.452
0
LINE
8
BLACK
10
57.023
20
-187.452
11
58.547
21
-187.452
0
LINE
8
BLACK
10
58.547
20
-187.452
11
58.547
21
-185.42
0
LINE
8
BLACK
10
58.547
20
-185.42
11
57.023
21
-185.42
0
LINE
8
BLACK
10
60.325
20
-185.42
11
60.325
21
-187.452
0
LINE
8
BLACK
10
60.325
20
-187.452
11
61.849
21
-187.452
0
LINE
8
BLACK
10
61.849
20
-187.452
11
61.849
21
-185.42
0
LINE
8
BLACK
10
61.849
20
-185.42
11
60.325
21
-185.42
0
LINE
8
BLACK
10
57.023
20
-190.5
11
57.023
21
-192.532
0
LINE
8
BLACK
10
57.023
20
-192.532
11
58.547
21
-192.532
0
LINE
8
BLACK
10
58.547
20
-192.532
11
58.547
21
-190.5
0
LINE
8
BLACK
10
58.547
20
-190.5
11
57.023
21
-190.5
0
LINE
8
BLACK
10
60.325
20
-190.5
11
60.325
21
-192.532
0
LINE
8
BLACK
10
60.325
20
-192.532
11
61.849
21
-192.532
0
LINE
8
BLACK
10
61.849
20
-192.532
11
61.849
21
-190.5
0
LINE
8
BLACK
10
61.849
20
-190.5
11
60.325
21
-190.5
0
LINE
8
BLACK
10
57.023
20
-200.66
11
57.023
21
-202.692
0
LINE
8
BLACK
10
57.023
20
-202.692
11
58.547
21
-202.692
0
LINE
8
BLACK
10
58.547
20
-202.692
11
58.547
21
-200.66
0
LINE
8
BLACK
10
58.547
20
-200.66
11
57.023
21
-200.66
0
LINE
8
BLACK
10
60.325
20
-200.66
11
60.325
21
-202.692
0
LINE
8
BLACK
10
60.325
20
-202.692
11
61.849
21
-202.692
0
LINE
8
BLACK
10
61.849
20
-202.692
11
61.849
21
-200.66
0
LINE
8
BLACK
10
61.849
20
-200.66
11
60.325
21
-200.66
0
LINE
8
BLACK
10
57.0865
20
-193.929
11
55.6895
21
-193.929
0
LINE
8
BLACK
10
55.6895
20
-193.929
11
55.6895
21
-194.818
0
LINE
8
BLACK
10
55.6895
20
-194.818
11
57.0865
21
-194.818
0
LINE
8
BLACK
10
57.0865
20
-194.818
11
57.0865
21
-193.929
0
LINE
8
BLACK
10
57.0865
20
-195.834
11
55.6895
21
-195.834
0
LINE
8
BLACK
10
55.6895
20
-195.834
11
55.6895
21
-196.723
0
LINE
8
BLACK
10
55.6895
20
-196.723
11
57.0865
21
-196.723
0
LINE
8
BLACK
10
57.0865
20
-196.723
11
57.0865
21
-195.834
0
LINE
8
BLACK
10
57.0865
20
-204.089
11
55.6895
21
-204.089
0
LINE
8
BLACK
10
55.6895
20
-204.089
11
55.6895
21
-204.978
0
LINE
8
BLACK
10
55.6895
20
-204.978
11
57.0865
21
-204.978
0
LINE
8
BLACK
10
57.0865
20
-204.978
11
57.0865
21
-204.089
0
LINE
8
BLACK
10
57.0865
20
-205.994
11
55.6895
21
-205.994
0
LINE
8
BLACK
10
55.6895
20
-205.994
11
55.6895
21
-206.883
0
LINE
8
BLACK
10
55.6895
20
-206.883
11
57.0865
21
-206.883
0
LINE
8
BLACK
10
57.0865
20
-206.883
11
57.0865
21
-205.994
0
LINE
8
BLACK
10
57.0865
20
-178.689
11
55.6895
21
-178.689
0
LINE
8
BLACK
10
55.6895
20
-178.689
11
55.6895
21
-179.578
0
LINE
8
BLACK
10
55.6895
20
-179.578
11
57.0865
21
-179.578
0
LINE
8
BLACK
10
57.0865
20
-179.578
11
57.0865
21
-178.689
0
LINE
8
BLACK
10
57.0865
20
-180.594
11
55.6895
21
-180.594
0
LINE
8
BLACK
10
55.6895
20
-180.594
11
55.6895
21
-181.483
0
LINE
8
BLACK
10
55.6895
20
-181.483
11
57.0865
21
-181.483
0
LINE
8
BLACK
10
57.0865
20
-181.483
11
57.0865
21
-180.594
0
LINE
8
BLACK
10
57.0865
20
-183.769
11
55.6895
21
-183.769
0
LINE
8
BLACK
10
55.6895
20
-183.769
11
55.6895
21
-184.658
0
LINE
8
BLACK
10
55.6895
20
-184.658
11
57.0865
21
-184.658
0
LINE
8
BLACK
10
57.0865
20
-184.658
11
57.0865
21
-183.769
0
LINE
8
BLACK
10
57.0865
20
-185.674
11
55.6895
21
-185.674
0
LINE
8
BLACK
10
55.6895
20
-185.674
11
55.6895
21
-186.563
0
LINE
8
BLACK
10
55.6895
20
-186.563
11
57.0865
21
-186.563
0
LINE
8
BLACK
10
57.0865
20
-186.563
11
57.0865
21
-185.674
0
LINE
8
BLACK
10
57.0865
20
-188.849
11
55.6895
21
-188.849
0
LINE
8
BLACK
10
55.6895
20
-188.849
11
55.6895
21
-189.738
0
LINE
8
BLACK
10
55.6895
20
-189.738
11
57.0865
21
-189.738
0
LINE
8
BLACK
10
57.0865
20
-189.738
11
57.0865
21
-188.849
0
LINE
8
BLACK
10
57.0865
20
-190.754
11
55.6895
21
-190.754
0
LINE
8
BLACK
10
55.6895
20
-190.754
11
55.6895
21
-191.643
0
LINE
8
BLACK
10
55.6895
20
-191.643
11
57.0865
21
-191.643
0
LINE
8
BLACK
10
57.0865
20
-191.643
11
57.0865
21
-190.754
0
LINE
8
BLACK
10
57.0865
20
-199.009
11
55.6895
21
-199.009
0
LINE
8
BLACK
10
55.6895
20
-199.009
11
55.6895
21
-199.898
0
LINE
8
BLACK
10
55.6895
20
-199.898
11
57.0865
21
-199.898
0
LINE
8
BLACK
10
57.0865
20
-199.898
11
57.0865
21
-199.009
0
LINE
8
BLACK
10
57.0865
20
-200.914
11
55.6895
21
-200.914
0
LINE
8
BLACK
10
55.6895
20
-200.914
11
55.6895
21
-201.803
0
LINE
8
BLACK
10
55.6895
20
-201.803
11
57.0865
21
-201.803
0
LINE
8
BLACK
10
57.0865
20
-201.803
11
57.0865
21
-200.914
0
LINE
8
BLACK
10
64.0004
20
-193.959
11
62.9996
21
-193.959
0
LINE
8
BLACK
10
62.9996
20
-193.959
11
62.9996
21
-194.661
0
LINE
8
BLACK
10
62.9996
20
-194.661
11
64.0004
21
-194.661
0
LINE
8
BLACK
10
64.0004
20
-194.661
11
64.0004
21
-193.959
0
LINE
8
BLACK
10
61.4604
20
-194.912
11
60.4596
21
-194.912
0
LINE
8
BLACK
10
60.4596
20
-194.912
11
60.4596
21
-195.613
0
LINE
8
BLACK
10
60.4596
20
-195.613
11
61.4604
21
-195.613
0
LINE
8
BLACK
10
61.4604
20
-195.613
11
61.4604
21
-194.912
0
LINE
8
BLACK
10
61.4604
20
-193.007
11
60.4596
21
-193.007
0
LINE
8
BLACK
10
60.4596
20
-193.007
11
60.4596
21
-193.708
0
LINE
8
BLACK
10
60.4596
20
-193.708
11
61.4604
21
-193.708
0
LINE
8
BLACK
10
61.4604
20
-193.708
11
61.4604
21
-193.007
0
LINE
8
BLACK
10
64.0004
20
-204.119
11
62.9996
21
-204.119
0
LINE
8
BLACK
10
62.9996
20
-204.119
11
62.9996
21
-204.821
0
LINE
8
BLACK
10
62.9996
20
-204.821
11
64.0004
21
-204.821
0
LINE
8
BLACK
10
64.0004
20
-204.821
11
64.0004
21
-204.119
0
LINE
8
BLACK
10
61.4604
20
-205.072
11
60.4596
21
-205.072
0
LINE
8
BLACK
10
60.4596
20
-205.072
11
60.4596
21
-205.773
0
LINE
8
BLACK
10
60.4596
20
-205.773
11
61.4604
21
-205.773
0
LINE
8
BLACK
10
61.4604
20
-205.773
11
61.4604
21
-205.072
0
LINE
8
BLACK
10
61.4604
20
-203.167
11
60.4596
21
-203.167
0
LINE
8
BLACK
10
60.4596
20
-203.167
11
60.4596
21
-203.868
0
LINE
8
BLACK
10
60.4596
20
-203.868
11
61.4604
21
-203.868
0
LINE
8
BLACK
10
61.4604
20
-203.868
11
61.4604
21
-203.167
0
LINE
8
BLACK
10
64.0004
20
-178.719
11
62.9996
21
-178.719
0
LINE
8
BLACK
10
62.9996
20
-178.719
11
62.9996
21
-179.421
0
LINE
8
BLACK
10
62.9996
20
-179.421
11
64.0004
21
-179.421
0
LINE
8
BLACK
10
64.0004
20
-179.421
11
64.0004
21
-178.719
0
LINE
8
BLACK
10
61.4604
20
-179.672
11
60.4596
21
-179.672
0
LINE
8
BLACK
10
60.4596
20
-179.672
11
60.4596
21
-180.373
0
LINE
8
BLACK
10
60.4596
20
-180.373
11
61.4604
21
-180.373
0
LINE
8
BLACK
10
61.4604
20
-180.373
11
61.4604
21
-179.672
0
LINE
8
BLACK
10
61.4604
20
-177.767
11
60.4596
21
-177.767
0
LINE
8
BLACK
10
60.4596
20
-177.767
11
60.4596
21
-178.468
0
LINE
8
BLACK
10
60.4596
20
-178.468
11
61.4604
21
-178.468
0
LINE
8
BLACK
10
61.4604
20
-178.468
11
61.4604
21
-177.767
0
LINE
8
BLACK
10
64.0004
20
-183.799
11
62.9996
21
-183.799
0
LINE
8
BLACK
10
62.9996
20
-183.799
11
62.9996
21
-184.501
0
LINE
8
BLACK
10
62.9996
20
-184.501
11
64.0004
21
-184.501
0
LINE
8
BLACK
10
64.0004
20
-184.501
11
64.0004
21
-183.799
0
LINE
8
BLACK
10
61.4604
20
-184.752
11
60.4596
21
-184.752
0
LINE
8
BLACK
10
60.4596
20
-184.752
11
60.4596
21
-185.453
0
LINE
8
BLACK
10
60.4596
20
-185.453
11
61.4604
21
-185.453
0
LINE
8
BLACK
10
61.4604
20
-185.453
11
61.4604
21
-184.752
0
LINE
8
BLACK
10
61.4604
20
-182.847
11
60.4596
21
-182.847
0
LINE
8
BLACK
10
60.4596
20
-182.847
11
60.4596
21
-183.548
0
LINE
8
BLACK
10
60.4596
20
-183.548
11
61.4604
21
-183.548
0
LINE
8
BLACK
10
61.4604
20
-183.548
11
61.4604
21
-182.847
0
LINE
8
BLACK
10
64.0004
20
-188.879
11
62.9996
21
-188.879
0
LINE
8
BLACK
10
62.9996
20
-188.879
11
62.9996
21
-189.581
0
LINE
8
BLACK
10
62.9996
20
-189.581
11
64.0004
21
-189.581
0
LINE
8
BLACK
10
64.0004
20
-189.581
11
64.0004
21
-188.879
0
LINE
8
BLACK
10
61.4604
20
-189.832
11
60.4596
21
-189.832
0
LINE
8
BLACK
10
60.4596
20
-189.832
11
60.4596
21
-190.533
0
LINE
8
BLACK
10
60.4596
20
-190.533
11
61.4604
21
-190.533
0
LINE
8
BLACK
10
61.4604
20
-190.533
11
61.4604
21
-189.832
0
LINE
8
BLACK
10
61.4604
20
-187.927
11
60.4596
21
-187.927
0
LINE
8
BLACK
10
60.4596
20
-187.927
11
60.4596
21
-188.628
0
LINE
8
BLACK
10
60.4596
20
-188.628
11
61.4604
21
-188.628
0
LINE
8
BLACK
10
61.4604
20
-188.628
11
61.4604
21
-187.927
0
LINE
8
BLACK
10
64.0004
20
-199.039
11
62.9996
21
-199.039
0
LINE
8
BLACK
10
62.9996
20
-199.039
11
62.9996
21
-199.741
0
LINE
8
BLACK
10
62.9996
20
-199.741
11
64.0004
21
-199.741
0
LINE
8
BLACK
10
64.0004
20
-199.741
11
64.0004
21
-199.039
0
LINE
8
BLACK
10
61.4604
20
-199.992
11
60.4596
21
-199.992
0
LINE
8
BLACK
10
60.4596
20
-199.992
11
60.4596
21
-200.693
0
LINE
8
BLACK
10
60.4596
20
-200.693
11
61.4604
21
-200.693
0
LINE
8
BLACK
10
61.4604
20
-200.693
11
61.4604
21
-199.992
0
LINE
8
BLACK
10
61.4604
20
-198.087
11
60.4596
21
-198.087
0
LINE
8
BLACK
10
60.4596
20
-198.087
11
60.4596
21
-198.788
0
LINE
8
BLACK
10
60.4596
20
-198.788
11
61.4604
21
-198.788
0
LINE
8
BLACK
10
61.4604
20
-198.788
11
61.4604
21
-198.087
0
CIRCLE
8
BLACK
10
78.74
20
-185.42
40
0.4445
0
LINE
8
BLACK
10
82.5975
20
-185.42
11
82.5975
21
-182.245
0
LINE
8
BLACK
10
80.5975
20
-185.42
11
80.5975
21
-182.245
0
ARC
8
BLACK
10
81.5975
20
-182.245
40
1
50
360
51
540
0
ARC
8
BLACK
10
81.5975
20
-185.42
40
1
50
180
51
360
0
LINE
8
BLACK
10
92.44
20
-188.595
11
92.44
21
-182.88
0
LINE
8
BLACK
10
90.44
20
-188.595
11
90.44
21
-182.88
0
ARC
8
BLACK
10
91.44
20
-182.88
40
1
50
360
51
540
0
ARC
8
BLACK
10
91.44
20
-188.595
40
1
50
180
51
360
0
LINE
8
BLACK
10
54.975
20
-218.44
11
54.975
21
-216.535
0
LINE
8
BLACK
10
52.975
20
-218.44
11
52.975
21
-216.535
0
ARC
8
BLACK
10
53.975
20
-216.535
40
1
50
360
51
540
0
ARC
8
BLACK
10
53.975
20
-218.44
40
1
50
180
51
360
0
LINE
8
BLACK
10
59.42
20
-212.09
11
59.42
21
-209.55
0
LINE
8
BLACK
10
57.42
20
-212.09
11
57.42
21
-209.55
0
ARC
8
BLACK
10
58.42
20
-209.55
40
1
50
360
51
540
0
ARC
8
BLACK
10
58.42
20
-212.09
40
1
50
180
51
360
0
LINE
8
BLACK
10
54.6821
20
-217.242
11
59.1271
21
-212.797
0
LINE
8
BLACK
10
53.2679
20
-215.828
11
57.7129
21
-211.383
0
ARC
8
BLACK
10
58.42
20
-212.09
40
1
50
315
51
495
0
ARC
8
BLACK
10
53.975
20
-216.535
40
1
50
135
51
315
0
LINE
8
BLACK
10
67.9775
20
-213.995
11
67.9775
21
-213.678
0
LINE
8
BLACK
10
67.2775
20
-213.995
11
67.2775
21
-213.678
0
ARC
8
BLACK
10
67.6275
20
-213.678
40
0.35
50
360
51
540
0
ARC
8
BLACK
10
67.6275
20
-213.995
40
0.35
50
180
51
360
0
LINE
8
BLACK
10
70.7325
20
-190.112
11
73.2725
21
-187.572
0
LINE
8
BLACK
10
70.2375
20
-189.618
11
72.7775
21
-187.078
0
ARC
8
BLACK
10
73.025
20
-187.325
40
0.35
50
315
51
495
0
ARC
8
BLACK
10
70.485
20
-189.865
40
0.35
50
135
51
315
0
LINE
8
BLACK
10
70.835
20
-207.01
11
70.835
21
-189.865
0
LINE
8
BLACK
10
70.135
20
-207.01
11
70.135
21
-189.865
0
ARC
8
BLACK
10
70.485
20
-189.865
40
0.35
50
360
51
540
0
ARC
8
BLACK
10
70.485
20
-207.01
40
0.35
50
180
51
360
0
LINE
8
BLACK
10
68.8275
20
-209.162
11
70.7325
21
-207.257
0
LINE
8
BLACK
10
68.3325
20
-208.668
11
70.2375
21
-206.763
0
ARC
8
BLACK
10
70.485
20
-207.01
40
0.35
50
315
51
495
0
ARC
8
BLACK
10
68.58
20
-208.915
40
0.35
50
135
51
315
0
LINE
8
BLACK
10
68.93
20
-212.725
11
68.93
21
-208.915
0
LINE
8
BLACK
10
68.23
20
-212.725
11
68.23
21
-208.915
0
ARC
8
BLACK
10
68.58
20
-208.915
40
0.35
50
360
51
540
0
ARC
8
BLACK
10
68.58
20
-212.725
40
0.35
50
180
51
360
0
LINE
8
BLACK
10
67.875
20
-213.925
11
68.8275
21
-212.972
0
LINE
8
BLACK
10
67.38
20
-213.43
11
68.3325
21
-212.478
0
ARC
8
BLACK
10
68.58
20
-212.725
40
0.35
50
315
51
495
0
ARC
8
BLACK
10
67.6275
20
-213.678
40
0.35
50
135
51
315
0
LINE
8
BLACK
10
54.61
20
-189.58
11
57.4675
21
-189.58
0
LINE
8
BLACK
10
54.61
20
-188.88
11
57.4675
21
-188.88
0
ARC
8
BLACK
10
57.4675
20
-189.23
40
0.35
50
270
51
450
0
ARC
8
BLACK
10
54.61
20
-189.23
40
0.35
50
90
51
270
0
LINE
8
BLACK
10
54.61
20
-199.74
11
57.4675
21
-199.74
0
LINE
8
BLACK
10
54.61
20
-199.04
11
57.4675
21
-199.04
0
ARC
8
BLACK
10
57.4675
20
-199.39
40
0.35
50
270
51
450
0
ARC
8
BLACK
10
54.61
20
-199.39
40
0.35
50
90
51
270
0
LINE
8
BLACK
10
54.61
20
-179.42
11
57.4675
21
-179.42
0
LINE
8
BLACK
10
54.61
20
-178.72
11
57.4675
21
-178.72
0
ARC
8
BLACK
10
57.4675
20
-179.07
40
0.35
50
270
51
450
0
ARC
8
BLACK
10
54.61
20
-179.07
40
0.35
50
90
51
270
0
LINE
8
BLACK
10
59.7225
20
-194.31
11
59.7225
21
-193.358
0
LINE
8
BLACK
10
59.0225
20
-194.31
11
59.0225
21
-193.358
0
ARC
8
BLACK
10
59.3725
20
-193.358
40
0.35
50
360
51
540
0
ARC
8
BLACK
10
59.3725
20
-194.31
40
0.35
50
180
51
360
0
LINE
8
BLACK
10
59.3725
20
-193.708
11
60.96
21
-193.708
0
LINE
8
BLACK
10
59.3725
20
-193.008
11
60.96
21
-193.008
0
ARC
8
BLACK
10
60.96
20
-193.358
40
0.35
50
270
51
450
0
ARC
8
BLACK
10
59.3725
20
-193.358
40
0.35
50
90
51
270
0
LINE
8
BLACK
10
54.61
20
-204.82
11
57.4675
21
-204.82
0
LINE
8
BLACK
10
54.61
20
-204.12
11
57.4675
21
-204.12
0
ARC
8
BLACK
10
57.4675
20
-204.47
40
0.35
50
270
51
450
0
ARC
8
BLACK
10
54.61
20
-204.47
40
0.35
50
90
51
270
0
LINE
8
BLACK
10
64.77
20
-220.075
11
73.025
21
-220.075
0
LINE
8
BLACK
10
64.77
20
-218.075
11
73.025
21
-218.075
0
ARC
8
BLACK
10
73.025
20
-219.075
40
1
50
270
51
450
0
ARC
8
BLACK
10
64.77
20
-219.075
40
1
50
90
51
270
0
LINE
8
BLACK
10
75.295
20
-217.805
11
75.295
21
-210.82
0
LINE
8
BLACK
10
73.295
20
-217.805
11
73.295
21
-210.82
0
ARC
8
BLACK
10
74.295
20
-210.82
40
1
50
360
51
540
0
ARC
8
BLACK
10
74.295
20
-217.805
40
1
50
180
51
360
0
LINE
8
BLACK
10
73.5879
20
-217.098
11
72.3179
21
-218.368
0
LINE
8
BLACK
10
75.0021
20
-218.512
11
73.7321
21
-219.782
0
ARC
8
BLACK
10
73.025
20
-219.075
40
1
50
135
51
315
0
ARC
8
BLACK
10
74.295
20
-217.805
40
1
50
-45
51
135
0
LINE
8
BLACK
10
74.295
20
-211.82
11
76.2
21
-211.82
0
LINE
8
BLACK
10
74.295
20
-209.82
11
76.2
21
-209.82
0
ARC
8
BLACK
10
76.2
20
-210.82
40
1
50
270
51
450
0
ARC
8
BLACK
10
74.295
20
-210.82
40
1
50
90
51
270
0
LINE
8
BLACK
10
76.9071
20
-211.527
11
81.3521
21
-207.082
0
LINE
8
BLACK
10
75.4929
20
-210.113
11
79.9379
21
-205.668
0
ARC
8
BLACK
10
80.645
20
-206.375
40
1
50
315
51
495
0
ARC
8
BLACK
10
76.2
20
-210.82
40
1
50
135
51
315
0
LINE
8
BLACK
10
59.7225
20
-204.47
11
59.7225
21
-203.772
0
LINE
8
BLACK
10
59.0225
20
-204.47
11
59.0225
21
-203.772
0
ARC
8
BLACK
10
59.3725
20
-203.772
40
0.35
50
360
51
540
0
ARC
8
BLACK
10
59.3725
20
-204.47
40
0.35
50
180
51
360
0
LINE
8
BLACK
10
59.6265
20
-203.868
11
60.96
21
-203.868
0
LINE
8
BLACK
10
59.6265
20
-203.168
11
60.96
21
-203.168
0
ARC
8
BLACK
10
60.96
20
-203.518
40
0.35
50
270
51
450
0
ARC
8
BLACK
10
59.6265
20
-203.518
40
0.35
50
90
51
270
0
LINE
8
BLACK
10
59.62
20
-204.019
11
59.874
21
-203.765
0
LINE
8
BLACK
10
59.125
20
-203.524
11
59.379
21
-203.27
0
ARC
8
BLACK
10
59.6265
20
-203.518
40
0.35
50
315
51
495
0
ARC
8
BLACK
10
59.3725
20
-203.772
40
0.35
50
135
51
315
0
LINE
8
BLACK
10
59.7225
20
-179.07
11
59.7225
21
-178.626
0
LINE
8
BLACK
10
59.0225
20
-179.07
11
59.0225
21
-178.626
0
ARC
8
BLACK
10
59.3725
20
-178.626
40
0.35
50
360
51
540
0
ARC
8
BLACK
10
59.3725
20
-179.07
40
0.35
50
180
51
360
0
LINE
8
BLACK
10
59.8805
20
-178.468
11
60.96
21
-178.468
0
LINE
8
BLACK
10
59.8805
20
-177.768
11
60.96
21
-177.768
0
ARC
8
BLACK
10
60.96
20
-178.118
40
0.35
50
270
51
450
0
ARC
8
BLACK
10
59.8805
20
-178.118
40
0.35
50
90
51
270
0
LINE
8
BLACK
10
59.62
20
-178.873
11
60.128
21
-178.365
0
LINE
8
BLACK
10
59.125
20
-178.378
11
59.633
21
-177.87
0
ARC
8
BLACK
10
59.8805
20
-178.118
40
0.35
50
315
51
495
0
ARC
8
BLACK
10
59.3725
20
-178.626
40
0.35
50
135
51
315
0
LINE
8
BLACK
10
59.7225
20
-184.15
11
59.7225
21
-183.452
0
LINE
8
BLACK
10
59.0225
20
-184.15
11
59.0225
21
-183.452
0
ARC
8
BLACK
10
59.3725
20
-183.452
40
0.35
50
360
51
540
0
ARC
8
BLACK
10
59.3725
20
-184.15
40
0.35
50
180
51
360
0
LINE
8
BLACK
10
59.6265
20
-183.548
11
60.96
21
-183.548
0
LINE
8
BLACK
10
59.6265
20
-182.848
11
60.96
21
-182.848
0
ARC
8
BLACK
10
60.96
20
-183.198
40
0.35
50
270
51
450
0
ARC
8
BLACK
10
59.6265
20
-183.198
40
0.35
50
90
51
270
0
LINE
8
BLACK
10
59.62
20
-183.699
11
59.874
21
-183.445
0
LINE
8
BLACK
10
59.125
20
-183.204
11
59.379
21
-182.95
0
ARC
8
BLACK
10
59.6265
20
-183.198
40
0.35
50
315
51
495
0
ARC
8
BLACK
10
59.3725
20
-183.452
40
0.35
50
135
51
315
0
LINE
8
BLACK
10
59.7225
20
-189.23
11
59.7225
21
-188.278
0
LINE
8
BLACK
10
59.0225
20
-189.23
11
59.0225
21
-188.278
0
ARC
8
BLACK
10
59.3725
20
-188.278
40
0.35
50
360
51
540
0
ARC
8
BLACK
10
59.3725
20
-189.23
40
0.35
50
180
51
360
0
LINE
8
BLACK
10
59.3725
20
-188.628
11
60.96
21
-188.628
0
LINE
8
BLACK
10
59.3725
20
-187.928
11
60.96
21
-187.928
0
ARC
8
BLACK
10
60.96
20
-188.278
40
0.35
50
270
51
450
0
ARC
8
BLACK
10
59.3725
20
-188.278
40
0.35
50
90
51
270
0
LINE
8
BLACK
10
59.7225
20
-199.39
11
59.7225
21
-198.692
0
LINE
8
BLACK
10
59.0225
20
-199.39
11
59.0225
21
-198.692
0
ARC
8
BLACK
10
59.3725
20
-198.692
40
0.35
50
360
51
540
0
ARC
8
BLACK
10
59.3725
20
-199.39
40
0.35
50
180
51
360
0
LINE
8
BLACK
10
59.6265
20
-198.788
11
60.96
21
-198.788
0
LINE
8
BLACK
10
59.6265
20
-198.088
11
60.96
21
-198.088
0
ARC
8
BLACK
10
60.96
20
-198.438
40
0.35
50
270
51
450
0
ARC
8
BLACK
10
59.6265
20
-198.438
40
0.35
50
90
51
270
0
LINE
8
BLACK
10
59.62
20
-198.939
11
59.874
21
-198.685
0
LINE
8
BLACK
10
59.125
20
-198.444
11
59.379
21
-198.19
0
ARC
8
BLACK
10
59.6265
20
-198.438
40
0.35
50
315
51
495
0
ARC
8
BLACK
10
59.3725
20
-198.692
40
0.35
50
135
51
315
0
LINE
8
BLACK
10
63.3298
20
-199.74
11
66.04
21
-199.74
0
LINE
8
BLACK
10
63.3298
20
-199.04
11
66.04
21
-199.04
0
ARC
8
BLACK
10
66.04
20
-199.39
40
0.35
50
270
51
450
0
ARC
8
BLACK
10
63.3298
20
-199.39
40
0.35
50
90
51
270
0
LINE
8
BLACK
10
54.61
20
-194.66
11
57.4675
21
-194.66
0
LINE
8
BLACK
10
54.61
20
-193.96
11
57.4675
21
-193.96
0
ARC
8
BLACK
10
57.4675
20
-194.31
40
0.35
50
270
51
450
0
ARC
8
BLACK
10
54.61
20
-194.31
40
0.35
50
90
51
270
0
LINE
8
BLACK
10
63.3298
20
-194.66
11
66.04
21
-194.66
0
LINE
8
BLACK
10
63.3298
20
-193.96
11
66.04
21
-193.96
0
ARC
8
BLACK
10
66.04
20
-194.31
40
0.35
50
270
51
450
0
ARC
8
BLACK
10
63.3298
20
-194.31
40
0.35
50
90
51
270
0
LINE
8
BLACK
10
63.3298
20
-204.82
11
66.04
21
-204.82
0
LINE
8
BLACK
10
63.3298
20
-204.12
11
66.04
21
-204.12
0
ARC
8
BLACK
10
66.04
20
-204.47
40
0.35
50
270
51
450
0
ARC
8
BLACK
10
63.3298
20
-204.47
40
0.35
50
90
51
270
0
LINE
8
BLACK
10
63.3298
20
-179.42
11
66.04
21
-179.42
0
LINE
8
BLACK
10
63.3298
20
-178.72
11
66.04
21
-178.72
0
ARC
8
BLACK
10
66.04
20
-179.07
40
0.35
50
270
51
450
0
ARC
8
BLACK
10
63.3298
20
-179.07
40
0.35
50
90
51
270
0
LINE
8
BLACK
10
78.74
20
-185.77
11
79.6925
21
-185.77
0
LINE
8
BLACK
10
78.74
20
-185.07
11
79.6925
21
-185.07
0
ARC
8
BLACK
10
79.6925
20
-185.42
40
0.35
50
270
51
450
0
ARC
8
BLACK
10
78.74
20
-185.42
40
0.35
50
90
51
270
0
LINE
8
BLACK
10
63.3298
20
-184.5
11
66.04
21
-184.5
0
LINE
8
BLACK
10
63.3298
20
-183.8
11
66.04
21
-183.8
0
ARC
8
BLACK
10
66.04
20
-184.15
40
0.35
50
270
51
450
0
ARC
8
BLACK
10
63.3298
20
-184.15
40
0.35
50
90
51
270
0
LINE
8
BLACK
10
63.3298
20
-189.58
11
66.04
21
-189.58
0
LINE
8
BLACK
10
63.3298
20
-188.88
11
66.04
21
-188.88
0
ARC
8
BLACK
10
66.04
20
-189.23
40
0.35
50
270
51
450
0
ARC
8
BLACK
10
63.3298
20
-189.23
40
0.35
50
90
51
270
0
LINE
8
BLACK
10
83.82
20
-192.135
11
85.979
21
-192.135
0
LINE
8
BLACK
10
83.82
20
-190.135
11
85.979
21
-190.135
0
ARC
8
BLACK
10
85.979
20
-191.135
40
1
50
270
51
450
0
ARC
8
BLACK
10
83.82
20
-191.135
40
1
50
90
51
270
0
LINE
8
BLACK
10
88.3371
20
-183.443
11
87.0671
21
-182.173
0
LINE
8
BLACK
10
86.9229
20
-184.857
11
85.6529
21
-183.587
0
ARC
8
BLACK
10
86.36
20
-182.88
40
1
50
405
51
585
0
ARC
8
BLACK
10
87.63
20
-184.15
40
1
50
225
51
405
0
LINE
8
BLACK
10
88.63
20
-189.484
11
88.63
21
-184.15
0
LINE
8
BLACK
10
86.63
20
-189.484
11
86.63
21
-184.15
0
ARC
8
BLACK
10
87.63
20
-184.15
40
1
50
360
51
540
0
ARC
8
BLACK
10
87.63
20
-189.484
40
1
50
180
51
360
0
LINE
8
BLACK
10
86.6861
20
-191.842
11
88.3371
21
-190.191
0
LINE
8
BLACK
10
85.2719
20
-190.428
11
86.9229
21
-188.777
0
ARC
8
BLACK
10
87.63
20
-189.484
40
1
50
315
51
495
0
ARC
8
BLACK
10
85.979
20
-191.135
40
1
50
135
51
315
0
LINE
8
BLACK
10
79.375
20
-197.215
11
83.82
21
-197.215
0
LINE
8
BLACK
10
79.375
20
-195.215
11
83.82
21
-195.215
0
ARC
8
BLACK
10
83.82
20
-196.215
40
1
50
270
51
450
0
ARC
8
BLACK
10
79.375
20
-196.215
40
1
50
90
51
270
0
LINE
8
BLACK
10
80.0821
20
-195.508
11
78.8121
21
-194.238
0
LINE
8
BLACK
10
78.6679
20
-196.922
11
77.3979
21
-195.652
0
ARC
8
BLACK
10
78.105
20
-194.945
40
1
50
405
51
585
0
ARC
8
BLACK
10
79.375
20
-196.215
40
1
50
225
51
405
0
LINE
8
BLACK
10
84.82
20
-193.675
11
84.82
21
-191.135
0
LINE
8
BLACK
10
82.82
20
-193.675
11
82.82
21
-191.135
0
ARC
8
BLACK
10
83.82
20
-191.135
40
1
50
360
51
540
0
ARC
8
BLACK
10
83.82
20
-193.675
40
1
50
180
51
360
0
LINE
8
BLACK
10
84.82
20
-196.215
11
84.82
21
-193.675
0
LINE
8
BLACK
10
82.82
20
-196.215
11
82.82
21
-193.675
0
ARC
8
BLACK
10
83.82
20
-193.675
40
1
50
360
51
540
0
ARC
8
BLACK
10
83.82
20
-196.215
40
1
50
180
51
360
0
LINE
8
BLACK
10
83.82
20
-197.215
11
91.44
21
-197.215
0
LINE
8
BLACK
10
83.82
20
-195.215
11
91.44
21
-195.215
0
ARC
8
BLACK
10
91.44
20
-196.215
40
1
50
270
51
450
0
ARC
8
BLACK
10
83.82
20
-196.215
40
1
50
90
51
270
0
LINE
8
BLACK
10
91.805
20
-206.375
11
91.805
21
-196.85
0
LINE
8
BLACK
10
89.805
20
-206.375
11
89.805
21
-196.85
0
ARC
8
BLACK
10
90.805
20
-196.85
40
1
50
360
51
540
0
ARC
8
BLACK
10
90.805
20
-206.375
40
1
50
180
51
360
0
LINE
8
BLACK
10
91.5121
20
-197.557
11
92.1471
21
-196.922
0
LINE
8
BLACK
10
90.0979
20
-196.143
11
90.7329
21
-195.508
0
ARC
8
BLACK
10
91.44
20
-196.215
40
1
50
315
51
495
0
ARC
8
BLACK
10
90.805
20
-196.85
40
1
50
135
51
315
0
LINE
8
BLACK
10
67.675
20
-211.455
11
67.675
21
-210.82
0
LINE
8
BLACK
10
65.675
20
-211.455
11
65.675
21
-210.82
0
ARC
8
BLACK
10
66.675
20
-210.82
40
1
50
360
51
540
0
ARC
8
BLACK
10
66.675
20
-211.455
40
1
50
180
51
360
0
LINE
8
BLACK
10
66.7225
20
-213.995
11
66.7225
21
-212.408
0
LINE
8
BLACK
10
64.7225
20
-213.995
11
64.7225
21
-212.408
0
ARC
8
BLACK
10
65.7225
20
-212.408
40
1
50
360
51
540
0
ARC
8
BLACK
10
65.7225
20
-213.995
40
1
50
180
51
360
0
LINE
8
BLACK
10
65.9679
20
-210.748
11
65.0154
21
-211.7
0
LINE
8
BLACK
10
67.3821
20
-212.162
11
66.4296
21
-213.115
0
ARC
8
BLACK
10
65.7225
20
-212.408
40
1
50
135
51
315
0
ARC
8
BLACK
10
66.675
20
-211.455
40
1
50
-45
51
135
0
LINE
8
BLACK
10
64.77
20
-211.82
11
66.675
21
-211.82
0
LINE
8
BLACK
10
64.77
20
-209.82
11
66.675
21
-209.82
0
ARC
8
BLACK
10
66.675
20
-210.82
40
1
50
270
51
450
0
ARC
8
BLACK
10
64.77
20
-210.82
40
1
50
90
51
270
0
LINE
8
BLACK
10
65.4771
20
-210.113
11
64.2071
21
-208.843
0
LINE
8
BLACK
10
64.0629
20
-211.527
11
62.7929
21
-210.257
0
ARC
8
BLACK
10
63.5
20
-209.55
40
1
50
405
51
585
0
ARC
8
BLACK
10
64.77
20
-210.82
40
1
50
225
51
405
0
LINE
8
BLACK
10
60.055
20
-218.44
11
60.055
21
-215.265
0
LINE
8
BLACK
10
58.055
20
-218.44
11
58.055
21
-215.265
0
ARC
8
BLACK
10
59.055
20
-215.265
40
1
50
360
51
540
0
ARC
8
BLACK
10
59.055
20
-218.44
40
1
50
180
51
360
0
LINE
8
BLACK
10
64.5
20
-210.82
11
64.5
21
-209.55
0
LINE
8
BLACK
10
62.5
20
-210.82
11
62.5
21
-209.55
0
ARC
8
BLACK
10
63.5
20
-209.55
40
1
50
360
51
540
0
ARC
8
BLACK
10
63.5
20
-210.82
40
1
50
180
51
360
0
LINE
8
BLACK
10
59.7621
20
-215.972
11
64.2071
21
-211.527
0
LINE
8
BLACK
10
58.3479
20
-214.558
11
62.7929
21
-210.113
0
ARC
8
BLACK
10
63.5
20
-210.82
40
1
50
315
51
495
0
ARC
8
BLACK
10
59.055
20
-215.265
40
1
50
135
51
315
0
LINE
8
BLACK
10
73.025
20
-182.595
11
79.6925
21
-182.595
0
LINE
8
BLACK
10
73.025
20
-181.895
11
79.6925
21
-181.895
0
ARC
8
BLACK
10
79.6925
20
-182.245
40
0.35
50
270
51
450
0
ARC
8
BLACK
10
73.025
20
-182.245
40
0.35
50
90
51
270
0
LINE
8
BLACK
10
77.47
20
-175.61
11
81.28
21
-175.61
0
LINE
8
BLACK
10
77.47
20
-174.91
11
81.28
21
-174.91
0
ARC
8
BLACK
10
81.28
20
-175.26
40
0.35
50
270
51
450
0
ARC
8
BLACK
10
77.47
20
-175.26
40
0.35
50
90
51
270
0
LINE
8
BLACK
10
91.44
20
-191.485
11
92.075
21
-191.485
0
LINE
8
BLACK
10
91.44
20
-190.785
11
92.075
21
-190.785
0
ARC
8
BLACK
10
92.075
20
-191.135
40
0.35
50
270
51
450
0
ARC
8
BLACK
10
91.44
20
-191.135
40
0.35
50
90
51
270
0
LINE
8
BLACK
10
93.0975
20
-189.618
11
91.8275
21
-190.888
0
LINE
8
BLACK
10
93.5925
20
-190.112
11
92.3225
21
-191.382
0
ARC
8
BLACK
10
92.075
20
-191.135
40
0.35
50
135
51
315
0
ARC
8
BLACK
10
93.345
20
-189.865
40
0.35
50
-45
51
135
0
LINE
8
BLACK
10
93.695
20
-189.865
11
93.695
21
-175.895
0
LINE
8
BLACK
10
92.995
20
-189.865
11
92.995
21
-175.895
0
ARC
8
BLACK
10
93.345
20
-175.895
40
0.35
50
360
51
540
0
ARC
8
BLACK
10
93.345
20
-189.865
40
0.35
50
180
51
360
0
LINE
8
BLACK
10
89.9225
20
-172.967
11
93.0975
21
-176.142
0
LINE
8
BLACK
10
90.4175
20
-172.473
11
93.5925
21
-175.648
0
ARC
8
BLACK
10
93.345
20
-175.895
40
0.35
50
225
51
405
0
ARC
8
BLACK
10
90.17
20
-172.72
40
0.35
50
45
51
225
0
LINE
8
BLACK
10
83.82
20
-173.07
11
90.17
21
-173.07
0
LINE
8
BLACK
10
83.82
20
-172.37
11
90.17
21
-172.37
0
ARC
8
BLACK
10
90.17
20
-172.72
40
0.35
50
270
51
450
0
ARC
8
BLACK
10
83.82
20
-172.72
40
0.35
50
90
51
270
0
LINE
8
BLACK
10
81.5275
20
-175.507
11
84.0675
21
-172.967
0
LINE
8
BLACK
10
81.0325
20
-175.013
11
83.5725
21
-172.473
0
ARC
8
BLACK
10
83.82
20
-172.72
40
0.35
50
315
51
495
0
ARC
8
BLACK
10
81.28
20
-175.26
40
0.35
50
135
51
315
0
LINE
8
BLACK
10
84.17
20
-188.595
11
84.17
21
-180.848
0
LINE
8
BLACK
10
83.47
20
-188.595
11
83.47
21
-180.848
0
ARC
8
BLACK
10
83.82
20
-180.848
40
0.35
50
360
51
540
0
ARC
8
BLACK
10
83.82
20
-188.595
40
0.35
50
180
51
360
0
LINE
8
BLACK
10
84.0675
20
-181.095
11
86.6075
21
-178.555
0
LINE
8
BLACK
10
83.5725
20
-180.601
11
86.1125
21
-178.061
0
ARC
8
BLACK
10
86.36
20
-178.308
40
0.35
50
315
51
495
0
ARC
8
BLACK
10
83.82
20
-180.848
40
0.35
50
135
51
315
0
LINE
8
BLACK
10
79.375
20
-188.945
11
83.82
21
-188.945
0
LINE
8
BLACK
10
79.375
20
-188.245
11
83.82
21
-188.245
0
ARC
8
BLACK
10
83.82
20
-188.595
40
0.35
50
270
51
450
0
ARC
8
BLACK
10
79.375
20
-188.595
40
0.35
50
90
51
270
0
LINE
8
BLACK
10
79.6225
20
-188.348
11
75.8125
21
-184.538
0
LINE
8
BLACK
10
79.1275
20
-188.842
11
75.3175
21
-185.032
0
ARC
8
BLACK
10
75.565
20
-184.785
40
0.35
50
405
51
585
0
ARC
8
BLACK
10
79.375
20
-188.595
40
0.35
50
225
51
405
0
LINE
8
BLACK
10
54.61
20
-184.5
11
57.4675
21
-184.5
0
LINE
8
BLACK
10
54.61
20
-183.8
11
57.4675
21
-183.8
0
ARC
8
BLACK
10
57.4675
20
-184.15
40
0.35
50
270
51
450
0
ARC
8
BLACK
10
54.61
20
-184.15
40
0.35
50
90
51
270
0
LINE
8
BLACK
10
93.93
20
-224.74
11
86.3601
21
-224.74
0
LINE
8
BLACK
10
86.3601
20
-224.74
11
86.3601
21
-223.394
0
LINE
8
BLACK
10
86.3601
20
-223.394
11
86.3601
21
-214.504
0
LINE
8
BLACK
10
86.3601
20
-214.504
11
86.2636
21
-214.271
0
LINE
8
BLACK
10
86.2636
20
-214.271
11
86.0852
21
-214.092
0
LINE
8
BLACK
10
86.0852
20
-214.092
11
85.8519
21
-213.995
0
LINE
8
BLACK
10
85.8519
20
-213.995
11
85.5992
21
-213.995
0
LINE
8
BLACK
10
85.5992
20
-213.995
11
83.7801
21
-213.995
0
LINE
8
BLACK
10
83.7801
20
-213.995
11
83.7801
21
-209.749
0
LINE
8
BLACK
10
83.7801
20
-209.749
11
83.7801
21
-202.749
0
LINE
8
BLACK
10
83.7801
20
-202.749
11
83.6836
21
-202.516
0
LINE
8
BLACK
10
83.6836
20
-202.516
11
83.5052
21
-202.337
0
LINE
8
BLACK
10
83.5052
20
-202.337
11
83.2719
21
-202.24
0
LINE
8
BLACK
10
83.2719
20
-202.24
11
83.0192
21
-202.24
0
LINE
8
BLACK
10
83.0192
20
-202.24
11
78.0192
21
-202.24
0
LINE
8
BLACK
10
78.0192
20
-202.24
11
77.7858
21
-202.336
0
LINE
8
BLACK
10
77.7858
20
-202.336
11
77.607
21
-202.515
0
LINE
8
BLACK
10
77.607
20
-202.515
11
77.5101
21
-202.748
0
LINE
8
BLACK
10
77.5101
20
-202.748
11
77.5099
21
-203.001
0
LINE
8
BLACK
10
77.5099
20
-203.001
11
77.5099
21
-207.198
0
LINE
8
BLACK
10
77.5099
20
-207.198
11
75.5228
21
-209.185
0
LINE
8
BLACK
10
75.5228
20
-209.185
11
74.2953
21
-209.185
0
LINE
8
BLACK
10
74.2953
20
-209.185
11
73.9712
21
-209.185
0
LINE
8
BLACK
10
73.9712
20
-209.185
11
73.3701
21
-209.433
0
LINE
8
BLACK
10
73.3701
20
-209.433
11
73.1389
21
-209.664
0
LINE
8
BLACK
10
73.1389
20
-209.664
11
73.1389
21
-209.664
0
LINE
8
BLACK
10
73.1389
20
-209.664
11
73.1389
21
-209.664
0
LINE
8
BLACK
10
73.1389
20
-209.664
11
72.9097
21
-209.893
0
LINE
8
BLACK
10
72.9097
20
-209.893
11
72.6603
21
-210.493
0
LINE
8
BLACK
10
72.6603
20
-210.493
11
72.6597
21
-211.144
0
LINE
8
BLACK
10
72.6597
20
-211.144
11
72.66
21
-211.144
0
LINE
8
BLACK
10
72.66
20
-211.144
11
72.66
21
-217.128
0
LINE
8
BLACK
10
72.66
20
-217.128
11
72.3478
21
-217.44
0
LINE
8
BLACK
10
72.3478
20
-217.44
11
66.1646
21
-217.44
0
LINE
8
BLACK
10
66.1646
20
-217.44
11
66.4047
21
-216.862
0
LINE
8
BLACK
10
66.4047
20
-216.862
11
66.4053
21
-216.211
0
LINE
8
BLACK
10
66.4053
20
-216.211
11
66.1569
21
-215.61
0
LINE
8
BLACK
10
66.1569
20
-215.61
11
66.1015
21
-215.555
0
LINE
8
BLACK
10
66.1015
20
-215.555
11
66.3482
21
-215.506
0
LINE
8
BLACK
10
66.3482
20
-215.506
11
66.797
21
-215.206
0
LINE
8
BLACK
10
66.797
20
-215.206
11
66.8228
21
-215.232
0
LINE
8
BLACK
10
66.8228
20
-215.232
11
67.0561
21
-215.328
0
LINE
8
BLACK
10
67.0561
20
-215.328
11
67.3088
21
-215.329
0
LINE
8
BLACK
10
67.3088
20
-215.329
11
68.1978
21
-215.329
0
LINE
8
BLACK
10
68.1978
20
-215.329
11
68.4312
21
-215.232
0
LINE
8
BLACK
10
68.4312
20
-215.232
11
68.61
21
-215.054
0
LINE
8
BLACK
10
68.61
20
-215.054
11
68.7069
21
-214.82
0
LINE
8
BLACK
10
68.7069
20
-214.82
11
68.7071
21
-214.568
0
LINE
8
BLACK
10
68.7071
20
-214.568
11
68.7071
21
-213.991
0
LINE
8
BLACK
10
68.7071
20
-213.991
11
69.2765
21
-213.422
0
LINE
8
BLACK
10
69.2765
20
-213.422
11
69.49
21
-213.102
0
LINE
8
BLACK
10
69.49
20
-213.102
11
69.565
21
-212.725
0
LINE
8
BLACK
10
69.565
20
-212.725
11
69.565
21
-212.725
0
LINE
8
BLACK
10
69.565
20
-212.725
11
69.565
21
-209.323
0
LINE
8
BLACK
10
69.565
20
-209.323
11
71.1815
21
-207.707
0
LINE
8
BLACK
10
71.1815
20
-207.707
11
71.1815
21
-207.707
0
LINE
8
BLACK
10
71.1815
20
-207.707
11
71.3242
21
-207.493
0
LINE
8
BLACK
10
71.3242
20
-207.493
11
71.395
21
-207.387
0
LINE
8
BLACK
10
71.395
20
-207.387
11
71.395
21
-207.387
0
LINE
8
BLACK
10
71.395
20
-207.387
11
71.47
21
-207.01
0
LINE
8
BLACK
10
71.47
20
-207.01
11
71.47
21
-207.01
0
LINE
8
BLACK
10
71.47
20
-207.01
11
71.47
21
-190.273
0
LINE
8
BLACK
10
71.47
20
-190.273
11
72.7832
21
-188.96
0
LINE
8
BLACK
10
72.7832
20
-188.96
11
73.3488
21
-188.96
0
LINE
8
BLACK
10
73.3488
20
-188.96
11
73.9499
21
-188.712
0
LINE
8
BLACK
10
73.9499
20
-188.712
11
74.4103
21
-188.252
0
LINE
8
BLACK
10
74.4103
20
-188.252
11
74.6597
21
-187.652
0
LINE
8
BLACK
10
74.6597
20
-187.652
11
74.6603
21
-187.001
0
LINE
8
BLACK
10
74.6603
20
-187.001
11
74.4119
21
-186.4
0
LINE
8
BLACK
10
74.4119
20
-186.4
11
73.9524
21
-185.94
0
LINE
8
BLACK
10
73.9524
20
-185.94
11
73.3516
21
-185.69
0
LINE
8
BLACK
10
73.3516
20
-185.69
11
72.7012
21
-185.69
0
LINE
8
BLACK
10
72.7012
20
-185.69
11
72.1001
21
-185.938
0
LINE
8
BLACK
10
72.1001
20
-185.938
11
71.6397
21
-186.398
0
LINE
8
BLACK
10
71.6397
20
-186.398
11
71.3903
21
-186.998
0
LINE
8
BLACK
10
71.3903
20
-186.998
11
71.3898
21
-187.567
0
LINE
8
BLACK
10
71.3898
20
-187.567
11
69.7885
21
-189.169
0
LINE
8
BLACK
10
69.7885
20
-189.169
11
69.575
21
-189.488
0
LINE
8
BLACK
10
69.575
20
-189.488
11
69.5
21
-189.865
0
LINE
8
BLACK
10
69.5
20
-189.865
11
69.5
21
-206.602
0
LINE
8
BLACK
10
69.5
20
-206.602
11
67.8835
21
-208.219
0
LINE
8
BLACK
10
67.8835
20
-208.219
11
67.6753
21
-208.53
0
LINE
8
BLACK
10
67.6753
20
-208.53
11
67.6753
21
-204.146
0
LINE
8
BLACK
10
67.6753
20
-204.146
11
67.6753
21
-199.066
0
LINE
8
BLACK
10
67.6753
20
-199.066
11
67.6753
21
-193.986
0
LINE
8
BLACK
10
67.6753
20
-193.986
11
67.6753
21
-188.906
0
LINE
8
BLACK
10
67.6753
20
-188.906
11
67.6753
21
-183.826
0
LINE
8
BLACK
10
67.6753
20
-183.826
11
67.6753
21
-178.746
0
LINE
8
BLACK
10
67.6753
20
-178.746
11
67.4269
21
-178.145
0
LINE
8
BLACK
10
67.4269
20
-178.145
11
66.9674
21
-177.685
0
LINE
8
BLACK
10
66.9674
20
-177.685
11
66.3666
21
-177.435
0
LINE
8
BLACK
10
66.3666
20
-177.435
11
65.7162
21
-177.435
0
LINE
8
BLACK
10
65.7162
20
-177.435
11
65.1151
21
-177.683
0
LINE
8
BLACK
10
65.1151
20
-177.683
11
64.7125
21
-178.085
0
LINE
8
BLACK
10
64.7125
20
-178.085
11
64.1282
21
-178.085
0
LINE
8
BLACK
10
64.1282
20
-178.085
11
64.1272
21
-178.085
0
LINE
8
BLACK
10
64.1272
20
-178.085
11
63.8746
21
-178.084
0
LINE
8
BLACK
10
63.8746
20
-178.084
11
62.8739
21
-178.084
0
LINE
8
BLACK
10
62.8739
20
-178.084
11
62.6404
21
-178.181
0
LINE
8
BLACK
10
62.6404
20
-178.181
11
62.4616
21
-178.359
0
LINE
8
BLACK
10
62.4616
20
-178.359
11
62.3647
21
-178.593
0
LINE
8
BLACK
10
62.3647
20
-178.593
11
62.3645
21
-178.845
0
LINE
8
BLACK
10
62.3645
20
-178.845
11
62.3645
21
-178.971
0
LINE
8
BLACK
10
62.3645
20
-178.971
11
62.3448
21
-179.07
0
LINE
8
BLACK
10
62.3448
20
-179.07
11
62.3645
21
-179.169
0
LINE
8
BLACK
10
62.3645
20
-179.169
11
62.3645
21
-179.546
0
LINE
8
BLACK
10
62.3645
20
-179.546
11
62.461
21
-179.78
0
LINE
8
BLACK
10
62.461
20
-179.78
11
62.6395
21
-179.959
0
LINE
8
BLACK
10
62.6395
20
-179.959
11
62.8728
21
-180.055
0
LINE
8
BLACK
10
62.8728
20
-180.055
11
63.1254
21
-180.056
0
LINE
8
BLACK
10
63.1254
20
-180.056
11
64.1261
21
-180.056
0
LINE
8
BLACK
10
64.1261
20
-180.056
11
64.1277
21
-180.055
0
LINE
8
BLACK
10
64.1277
20
-180.055
11
64.7131
21
-180.055
0
LINE
8
BLACK
10
64.7131
20
-180.055
11
65.1126
21
-180.455
0
LINE
8
BLACK
10
65.1126
20
-180.455
11
65.7134
21
-180.705
0
LINE
8
BLACK
10
65.7134
20
-180.705
11
66.3638
21
-180.705
0
LINE
8
BLACK
10
66.3638
20
-180.705
11
66.9649
21
-180.457
0
LINE
8
BLACK
10
66.9649
20
-180.457
11
67.4253
21
-179.997
0
LINE
8
BLACK
10
67.4253
20
-179.997
11
67.6747
21
-179.397
0
LINE
8
BLACK
10
67.6747
20
-179.397
11
67.6753
21
-178.746
0
LINE
8
BLACK
10
67.6753
20
-178.746
11
67.6753
21
-183.826
0
LINE
8
BLACK
10
67.6753
20
-183.826
11
67.4269
21
-183.225
0
LINE
8
BLACK
10
67.4269
20
-183.225
11
66.9674
21
-182.765
0
LINE
8
BLACK
10
66.9674
20
-182.765
11
66.3666
21
-182.515
0
LINE
8
BLACK
10
66.3666
20
-182.515
11
65.7162
21
-182.515
0
LINE
8
BLACK
10
65.7162
20
-182.515
11
65.1151
21
-182.763
0
LINE
8
BLACK
10
65.1151
20
-182.763
11
64.7125
21
-183.165
0
LINE
8
BLACK
10
64.7125
20
-183.165
11
64.1282
21
-183.165
0
LINE
8
BLACK
10
64.1282
20
-183.165
11
64.1272
21
-183.165
0
LINE
8
BLACK
10
64.1272
20
-183.165
11
63.8746
21
-183.164
0
LINE
8
BLACK
10
63.8746
20
-183.164
11
62.8739
21
-183.164
0
LINE
8
BLACK
10
62.8739
20
-183.164
11
62.6404
21
-183.261
0
LINE
8
BLACK
10
62.6404
20
-183.261
11
62.4616
21
-183.439
0
LINE
8
BLACK
10
62.4616
20
-183.439
11
62.3647
21
-183.673
0
LINE
8
BLACK
10
62.3647
20
-183.673
11
62.3645
21
-183.925
0
LINE
8
BLACK
10
62.3645
20
-183.925
11
62.3645
21
-184.051
0
LINE
8
BLACK
10
62.3645
20
-184.051
11
62.3448
21
-184.15
0
LINE
8
BLACK
10
62.3448
20
-184.15
11
62.3645
21
-184.249
0
LINE
8
BLACK
10
62.3645
20
-184.249
11
62.3645
21
-184.626
0
LINE
8
BLACK
10
62.3645
20
-184.626
11
62.461
21
-184.86
0
LINE
8
BLACK
10
62.461
20
-184.86
11
62.6395
21
-185.039
0
LINE
8
BLACK
10
62.6395
20
-185.039
11
62.8728
21
-185.135
0
LINE
8
BLACK
10
62.8728
20
-185.135
11
63.1254
21
-185.136
0
LINE
8
BLACK
10
63.1254
20
-185.136
11
64.1261
21
-185.136
0
LINE
8
BLACK
10
64.1261
20
-185.136
11
64.1277
21
-185.135
0
LINE
8
BLACK
10
64.1277
20
-185.135
11
64.7131
21
-185.135
0
LINE
8
BLACK
10
64.7131
20
-185.135
11
65.1126
21
-185.535
0
LINE
8
BLACK
10
65.1126
20
-185.535
11
65.7134
21
-185.785
0
LINE
8
BLACK
10
65.7134
20
-185.785
11
66.3638
21
-185.785
0
LINE
8
BLACK
10
66.3638
20
-185.785
11
66.9649
21
-185.537
0
LINE
8
BLACK
10
66.9649
20
-185.537
11
67.4253
21
-185.077
0
LINE
8
BLACK
10
67.4253
20
-185.077
11
67.6747
21
-184.477
0
LINE
8
BLACK
10
67.6747
20
-184.477
11
67.6753
21
-183.826
0
LINE
8
BLACK
10
67.6753
20
-183.826
11
67.6753
21
-188.906
0
LINE
8
BLACK
10
67.6753
20
-188.906
11
67.4269
21
-188.305
0
LINE
8
BLACK
10
67.4269
20
-188.305
11
66.9674
21
-187.845
0
LINE
8
BLACK
10
66.9674
20
-187.845
11
66.3666
21
-187.595
0
LINE
8
BLACK
10
66.3666
20
-187.595
11
65.7162
21
-187.595
0
LINE
8
BLACK
10
65.7162
20
-187.595
11
65.1151
21
-187.843
0
LINE
8
BLACK
10
65.1151
20
-187.843
11
64.7125
21
-188.245
0
LINE
8
BLACK
10
64.7125
20
-188.245
11
64.1282
21
-188.245
0
LINE
8
BLACK
10
64.1282
20
-188.245
11
64.1272
21
-188.245
0
LINE
8
BLACK
10
64.1272
20
-188.245
11
63.8746
21
-188.244
0
LINE
8
BLACK
10
63.8746
20
-188.244
11
62.8739
21
-188.244
0
LINE
8
BLACK
10
62.8739
20
-188.244
11
62.6404
21
-188.341
0
LINE
8
BLACK
10
62.6404
20
-188.341
11
62.4616
21
-188.519
0
LINE
8
BLACK
10
62.4616
20
-188.519
11
62.3647
21
-188.753
0
LINE
8
BLACK
10
62.3647
20
-188.753
11
62.3645
21
-189.005
0
LINE
8
BLACK
10
62.3645
20
-189.005
11
62.3645
21
-189.131
0
LINE
8
BLACK
10
62.3645
20
-189.131
11
62.3448
21
-189.23
0
LINE
8
BLACK
10
62.3448
20
-189.23
11
62.3645
21
-189.329
0
LINE
8
BLACK
10
62.3645
20
-189.329
11
62.3645
21
-189.706
0
LINE
8
BLACK
10
62.3645
20
-189.706
11
62.461
21
-189.94
0
LINE
8
BLACK
10
62.461
20
-189.94
11
62.6395
21
-190.119
0
LINE
8
BLACK
10
62.6395
20
-190.119
11
62.8728
21
-190.215
0
LINE
8
BLACK
10
62.8728
20
-190.215
11
63.1254
21
-190.216
0
LINE
8
BLACK
10
63.1254
20
-190.216
11
64.1261
21
-190.216
0
LINE
8
BLACK
10
64.1261
20
-190.216
11
64.1277
21
-190.215
0
LINE
8
BLACK
10
64.1277
20
-190.215
11
64.7131
21
-190.215
0
LINE
8
BLACK
10
64.7131
20
-190.215
11
65.1126
21
-190.615
0
LINE
8
BLACK
10
65.1126
20
-190.615
11
65.7134
21
-190.865
0
LINE
8
BLACK
10
65.7134
20
-190.865
11
66.3638
21
-190.865
0
LINE
8
BLACK
10
66.3638
20
-190.865
11
66.9649
21
-190.617
0
LINE
8
BLACK
10
66.9649
20
-190.617
11
67.4253
21
-190.157
0
LINE
8
BLACK
10
67.4253
20
-190.157
11
67.6747
21
-189.557
0
LINE
8
BLACK
10
67.6747
20
-189.557
11
67.6753
21
-188.906
0
LINE
8
BLACK
10
67.6753
20
-188.906
11
67.6753
21
-193.986
0
LINE
8
BLACK
10
67.6753
20
-193.986
11
67.4269
21
-193.385
0
LINE
8
BLACK
10
67.4269
20
-193.385
11
66.9674
21
-192.925
0
LINE
8
BLACK
10
66.9674
20
-192.925
11
66.3666
21
-192.675
0
LINE
8
BLACK
10
66.3666
20
-192.675
11
65.7162
21
-192.675
0
LINE
8
BLACK
10
65.7162
20
-192.675
11
65.1151
21
-192.923
0
LINE
8
BLACK
10
65.1151
20
-192.923
11
64.7125
21
-193.325
0
LINE
8
BLACK
10
64.7125
20
-193.325
11
64.1282
21
-193.325
0
LINE
8
BLACK
10
64.1282
20
-193.325
11
64.1272
21
-193.325
0
LINE
8
BLACK
10
64.1272
20
-193.325
11
63.8746
21
-193.324
0
LINE
8
BLACK
10
63.8746
20
-193.324
11
62.8739
21
-193.324
0
LINE
8
BLACK
10
62.8739
20
-193.324
11
62.6404
21
-193.421
0
LINE
8
BLACK
10
62.6404
20
-193.421
11
62.4616
21
-193.599
0
LINE
8
BLACK
10
62.4616
20
-193.599
11
62.3647
21
-193.833
0
LINE
8
BLACK
10
62.3647
20
-193.833
11
62.3645
21
-194.085
0
LINE
8
BLACK
10
62.3645
20
-194.085
11
62.3645
21
-194.211
0
LINE
8
BLACK
10
62.3645
20
-194.211
11
62.3448
21
-194.31
0
LINE
8
BLACK
10
62.3448
20
-194.31
11
62.3645
21
-194.409
0
LINE
8
BLACK
10
62.3645
20
-194.409
11
62.3645
21
-194.786
0
LINE
8
BLACK
10
62.3645
20
-194.786
11
62.461
21
-195.02
0
LINE
8
BLACK
10
62.461
20
-195.02
11
62.6395
21
-195.199
0
LINE
8
BLACK
10
62.6395
20
-195.199
11
62.8728
21
-195.295
0
LINE
8
BLACK
10
62.8728
20
-195.295
11
63.1254
21
-195.296
0
LINE
8
BLACK
10
63.1254
20
-195.296
11
64.1261
21
-195.296
0
LINE
8
BLACK
10
64.1261
20
-195.296
11
64.1277
21
-195.295
0
LINE
8
BLACK
10
64.1277
20
-195.295
11
64.7131
21
-195.295
0
LINE
8
BLACK
10
64.7131
20
-195.295
11
65.1126
21
-195.695
0
LINE
8
BLACK
10
65.1126
20
-195.695
11
65.7134
21
-195.945
0
LINE
8
BLACK
10
65.7134
20
-195.945
11
66.3638
21
-195.945
0
LINE
8
BLACK
10
66.3638
20
-195.945
11
66.9649
21
-195.697
0
LINE
8
BLACK
10
66.9649
20
-195.697
11
67.4253
21
-195.237
0
LINE
8
BLACK
10
67.4253
20
-195.237
11
67.6747
21
-194.637
0
LINE
8
BLACK
10
67.6747
20
-194.637
11
67.6753
21
-193.986
0
LINE
8
BLACK
10
67.6753
20
-193.986
11
67.6753
21
-199.066
0
LINE
8
BLACK
10
67.6753
20
-199.066
11
67.4269
21
-198.465
0
LINE
8
BLACK
10
67.4269
20
-198.465
11
66.9674
21
-198.005
0
LINE
8
BLACK
10
66.9674
20
-198.005
11
66.3666
21
-197.755
0
LINE
8
BLACK
10
66.3666
20
-197.755
11
65.7162
21
-197.755
0
LINE
8
BLACK
10
65.7162
20
-197.755
11
65.1151
21
-198.003
0
LINE
8
BLACK
10
65.1151
20
-198.003
11
64.7125
21
-198.405
0
LINE
8
BLACK
10
64.7125
20
-198.405
11
64.1282
21
-198.405
0
LINE
8
BLACK
10
64.1282
20
-198.405
11
64.1272
21
-198.405
0
LINE
8
BLACK
10
64.1272
20
-198.405
11
63.8746
21
-198.404
0
LINE
8
BLACK
10
63.8746
20
-198.404
11
62.8739
21
-198.404
0
LINE
8
BLACK
10
62.8739
20
-198.404
11
62.6404
21
-198.501
0
LINE
8
BLACK
10
62.6404
20
-198.501
11
62.4616
21
-198.679
0
LINE
8
BLACK
10
62.4616
20
-198.679
11
62.3647
21
-198.913
0
LINE
8
BLACK
10
62.3647
20
-198.913
11
62.3645
21
-199.165
0
LINE
8
BLACK
10
62.3645
20
-199.165
11
62.3645
21
-199.291
0
LINE
8
BLACK
10
62.3645
20
-199.291
11
62.3448
21
-199.39
0
LINE
8
BLACK
10
62.3448
20
-199.39
11
62.3645
21
-199.489
0
LINE
8
BLACK
10
62.3645
20
-199.489
11
62.3645
21
-199.866
0
LINE
8
BLACK
10
62.3645
20
-199.866
11
62.461
21
-200.1
0
LINE
8
BLACK
10
62.461
20
-200.1
11
62.6395
21
-200.279
0
LINE
8
BLACK
10
62.6395
20
-200.279
11
62.8728
21
-200.375
0
LINE
8
BLACK
10
62.8728
20
-200.375
11
63.1254
21
-200.376
0
LINE
8
BLACK
10
63.1254
20
-200.376
11
64.1261
21
-200.376
0
LINE
8
BLACK
10
64.1261
20
-200.376
11
64.1277
21
-200.375
0
LINE
8
BLACK
10
64.1277
20
-200.375
11
64.7131
21
-200.375
0
LINE
8
BLACK
10
64.7131
20
-200.375
11
65.1126
21
-200.775
0
LINE
8
BLACK
10
65.1126
20
-200.775
11
65.7134
21
-201.025
0
LINE
8
BLACK
10
65.7134
20
-201.025
11
66.3638
21
-201.025
0
LINE
8
BLACK
10
66.3638
20
-201.025
11
66.9649
21
-200.777
0
LINE
8
BLACK
10
66.9649
20
-200.777
11
67.4253
21
-200.317
0
LINE
8
BLACK
10
67.4253
20
-200.317
11
67.6747
21
-199.717
0
LINE
8
BLACK
10
67.6747
20
-199.717
11
67.6753
21
-199.066
0
LINE
8
BLACK
10
67.6753
20
-199.066
11
67.6753
21
-204.146
0
LINE
8
BLACK
10
67.6753
20
-204.146
11
67.4269
21
-203.545
0
LINE
8
BLACK
10
67.4269
20
-203.545
11
66.9674
21
-203.085
0
LINE
8
BLACK
10
66.9674
20
-203.085
11
66.3666
21
-202.835
0
LINE
8
BLACK
10
66.3666
20
-202.835
11
65.7162
21
-202.835
0
LINE
8
BLACK
10
65.7162
20
-202.835
11
65.1151
21
-203.083
0
LINE
8
BLACK
10
65.1151
20
-203.083
11
64.7125
21
-203.485
0
LINE
8
BLACK
10
64.7125
20
-203.485
11
64.1282
21
-203.485
0
LINE
8
BLACK
10
64.1282
20
-203.485
11
64.1272
21
-203.485
0
LINE
8
BLACK
10
64.1272
20
-203.485
11
63.8746
21
-203.484
0
LINE
8
BLACK
10
63.8746
20
-203.484
11
62.8739
21
-203.484
0
LINE
8
BLACK
10
62.8739
20
-203.484
11
62.6404
21
-203.581
0
LINE
8
BLACK
10
62.6404
20
-203.581
11
62.4616
21
-203.759
0
LINE
8
BLACK
10
62.4616
20
-203.759
11
62.3647
21
-203.993
0
LINE
8
BLACK
10
62.3647
20
-203.993
11
62.3645
21
-204.245
0
LINE
8
BLACK
10
62.3645
20
-204.245
11
62.3645
21
-204.371
0
LINE
8
BLACK
10
62.3645
20
-204.371
11
62.3448
21
-204.47
0
LINE
8
BLACK
10
62.3448
20
-204.47
11
62.3645
21
-204.569
0
LINE
8
BLACK
10
62.3645
20
-204.569
11
62.3645
21
-204.946
0
LINE
8
BLACK
10
62.3645
20
-204.946
11
62.461
21
-205.18
0
LINE
8
BLACK
10
62.461
20
-205.18
11
62.6395
21
-205.359
0
LINE
8
BLACK
10
62.6395
20
-205.359
11
62.8728
21
-205.455
0
LINE
8
BLACK
10
62.8728
20
-205.455
11
63.1254
21
-205.456
0
LINE
8
BLACK
10
63.1254
20
-205.456
11
64.1261
21
-205.456
0
LINE
8
BLACK
10
64.1261
20
-205.456
11
64.1277
21
-205.455
0
LINE
8
BLACK
10
64.1277
20
-205.455
11
64.7131
21
-205.455
0
LINE
8
BLACK
10
64.7131
20
-205.455
11
65.1126
21
-205.855
0
LINE
8
BLACK
10
65.1126
20
-205.855
11
65.7134
21
-206.105
0
LINE
8
BLACK
10
65.7134
20
-206.105
11
66.3638
21
-206.105
0
LINE
8
BLACK
10
66.3638
20
-206.105
11
66.9649
21
-205.857
0
LINE
8
BLACK
10
66.9649
20
-205.857
11
67.4253
21
-205.397
0
LINE
8
BLACK
10
67.4253
20
-205.397
11
67.6747
21
-204.797
0
LINE
8
BLACK
10
67.6747
20
-204.797
11
67.6753
21
-204.146
0
LINE
8
BLACK
10
67.6753
20
-204.146
11
67.6753
21
-208.53
0
LINE
8
BLACK
10
67.6753
20
-208.53
11
67.67
21
-208.538
0
LINE
8
BLACK
10
67.67
20
-208.538
11
67.595
21
-208.915
0
LINE
8
BLACK
10
67.595
20
-208.915
11
67.595
21
-209.432
0
LINE
8
BLACK
10
67.595
20
-209.432
11
67.3007
21
-209.309
0
LINE
8
BLACK
10
67.3007
20
-209.309
11
67.0016
21
-209.185
0
LINE
8
BLACK
10
67.0016
20
-209.185
11
66.3512
21
-209.185
0
LINE
8
BLACK
10
66.3512
20
-209.185
11
66.3505
21
-209.185
0
LINE
8
BLACK
10
66.3505
20
-209.185
11
65.4472
21
-209.185
0
LINE
8
BLACK
10
65.4472
20
-209.185
11
64.6561
21
-208.394
0
LINE
8
BLACK
10
64.6561
20
-208.394
11
64.6561
21
-208.394
0
LINE
8
BLACK
10
64.6561
20
-208.394
11
64.6561
21
-208.394
0
LINE
8
BLACK
10
64.6561
20
-208.394
11
64.4274
21
-208.165
0
LINE
8
BLACK
10
64.4274
20
-208.165
11
64.1257
21
-208.039
0
LINE
8
BLACK
10
64.1257
20
-208.039
11
64.1257
21
-208.039
0
LINE
8
BLACK
10
64.1257
20
-208.039
11
63.8266
21
-207.915
0
LINE
8
BLACK
10
63.8266
20
-207.915
11
63.5
21
-207.915
0
LINE
8
BLACK
10
63.5
20
-207.915
11
63.5
21
-207.915
0
LINE
8
BLACK
10
63.5
20
-207.915
11
63.5
21
-207.915
0
LINE
8
BLACK
10
63.5
20
-207.915
11
63.1762
21
-207.915
0
LINE
8
BLACK
10
63.1762
20
-207.915
11
62.8743
21
-208.039
0
LINE
8
BLACK
10
62.8743
20
-208.039
11
62.8743
21
-208.039
0
LINE
8
BLACK
10
62.8743
20
-208.039
11
62.8743
21
-208.039
0
LINE
8
BLACK
10
62.8743
20
-208.039
11
62.5751
21
-208.163
0
LINE
8
BLACK
10
62.5751
20
-208.163
11
62.3439
21
-208.394
0
LINE
8
BLACK
10
62.3439
20
-208.394
11
62.3439
21
-208.394
0
LINE
8
BLACK
10
62.3439
20
-208.394
11
62.3439
21
-208.394
0
LINE
8
BLACK
10
62.3439
20
-208.394
11
62.1147
21
-208.623
0
LINE
8
BLACK
10
62.1147
20
-208.623
11
62.0955
21
-208.669
0
LINE
8
BLACK
10
62.0955
20
-208.669
11
62.0955
21
-203.742
0
LINE
8
BLACK
10
62.0955
20
-203.742
11
62.0955
21
-203.041
0
LINE
8
BLACK
10
62.0955
20
-203.041
11
61.999
21
-202.808
0
LINE
8
BLACK
10
61.999
20
-202.808
11
61.8205
21
-202.629
0
LINE
8
BLACK
10
61.8205
20
-202.629
11
61.5872
21
-202.532
0
LINE
8
BLACK
10
61.5872
20
-202.532
11
61.3346
21
-202.532
0
LINE
8
BLACK
10
61.3346
20
-202.532
11
60.3339
21
-202.532
0
LINE
8
BLACK
10
60.3339
20
-202.532
11
60.3323
21
-202.533
0
LINE
8
BLACK
10
60.3323
20
-202.533
11
59.6265
21
-202.533
0
LINE
8
BLACK
10
59.6265
20
-202.533
11
59.2496
21
-202.607
0
LINE
8
BLACK
10
59.2496
20
-202.607
11
59.182
21
-202.653
0
LINE
8
BLACK
10
59.182
20
-202.653
11
59.1821
21
-202.566
0
LINE
8
BLACK
10
59.1821
20
-202.566
11
59.1821
21
-200.724
0
LINE
8
BLACK
10
59.1821
20
-200.724
11
59.9428
21
-200.724
0
LINE
8
BLACK
10
59.9428
20
-200.724
11
60.1762
21
-200.627
0
LINE
8
BLACK
10
60.1762
20
-200.627
11
60.355
21
-200.449
0
LINE
8
BLACK
10
60.355
20
-200.449
11
60.4519
21
-200.215
0
LINE
8
BLACK
10
60.4519
20
-200.215
11
60.4521
21
-199.963
0
LINE
8
BLACK
10
60.4521
20
-199.963
11
60.4521
21
-199.423
0
LINE
8
BLACK
10
60.4521
20
-199.423
11
60.5854
21
-199.423
0
LINE
8
BLACK
10
60.5854
20
-199.423
11
61.5861
21
-199.423
0
LINE
8
BLACK
10
61.5861
20
-199.423
11
61.8196
21
-199.327
0
LINE
8
BLACK
10
61.8196
20
-199.327
11
61.9984
21
-199.148
0
LINE
8
BLACK
10
61.9984
20
-199.148
11
62.0953
21
-198.915
0
LINE
8
BLACK
10
62.0953
20
-198.915
11
62.0955
21
-198.662
0
LINE
8
BLACK
10
62.0955
20
-198.662
11
62.0955
21
-197.961
0
LINE
8
BLACK
10
62.0955
20
-197.961
11
61.999
21
-197.728
0
LINE
8
BLACK
10
61.999
20
-197.728
11
61.8205
21
-197.549
0
LINE
8
BLACK
10
61.8205
20
-197.549
11
61.5872
21
-197.452
0
LINE
8
BLACK
10
61.5872
20
-197.452
11
61.3346
21
-197.452
0
LINE
8
BLACK
10
61.3346
20
-197.452
11
60.3339
21
-197.452
0
LINE
8
BLACK
10
60.3339
20
-197.452
11
60.3323
21
-197.453
0
LINE
8
BLACK
10
60.3323
20
-197.453
11
59.6265
21
-197.453
0
LINE
8
BLACK
10
59.6265
20
-197.453
11
59.2496
21
-197.527
0
LINE
8
BLACK
10
59.2496
20
-197.527
11
59.182
21
-197.573
0
LINE
8
BLACK
10
59.182
20
-197.573
11
59.1821
21
-197.486
0
LINE
8
BLACK
10
59.1821
20
-197.486
11
59.1821
21
-195.644
0
LINE
8
BLACK
10
59.1821
20
-195.644
11
59.9428
21
-195.644
0
LINE
8
BLACK
10
59.9428
20
-195.644
11
60.1762
21
-195.547
0
LINE
8
BLACK
10
60.1762
20
-195.547
11
60.355
21
-195.369
0
LINE
8
BLACK
10
60.355
20
-195.369
11
60.4519
21
-195.135
0
LINE
8
BLACK
10
60.4519
20
-195.135
11
60.4521
21
-194.883
0
LINE
8
BLACK
10
60.4521
20
-194.883
11
60.4521
21
-194.343
0
LINE
8
BLACK
10
60.4521
20
-194.343
11
60.5854
21
-194.343
0
LINE
8
BLACK
10
60.5854
20
-194.343
11
61.5861
21
-194.343
0
LINE
8
BLACK
10
61.5861
20
-194.343
11
61.8196
21
-194.247
0
LINE
8
BLACK
10
61.8196
20
-194.247
11
61.9984
21
-194.068
0
LINE
8
BLACK
10
61.9984
20
-194.068
11
62.0953
21
-193.835
0
LINE
8
BLACK
10
62.0953
20
-193.835
11
62.0955
21
-193.582
0
LINE
8
BLACK
10
62.0955
20
-193.582
11
62.0955
21
-192.881
0
LINE
8
BLACK
10
62.0955
20
-192.881
11
61.999
21
-192.648
0
LINE
8
BLACK
10
61.999
20
-192.648
11
61.8205
21
-192.469
0
LINE
8
BLACK
10
61.8205
20
-192.469
11
61.5872
21
-192.372
0
LINE
8
BLACK
10
61.5872
20
-192.372
11
61.3346
21
-192.372
0
LINE
8
BLACK
10
61.3346
20
-192.372
11
60.3339
21
-192.372
0
LINE
8
BLACK
10
60.3339
20
-192.372
11
60.3323
21
-192.373
0
LINE
8
BLACK
10
60.3323
20
-192.373
11
59.3725
21
-192.373
0
LINE
8
BLACK
10
59.3725
20
-192.373
11
59.1821
21
-192.41
0
LINE
8
BLACK
10
59.1821
20
-192.41
11
59.1821
21
-192.406
0
LINE
8
BLACK
10
59.1821
20
-192.406
11
59.1821
21
-190.564
0
LINE
8
BLACK
10
59.1821
20
-190.564
11
59.9428
21
-190.564
0
LINE
8
BLACK
10
59.9428
20
-190.564
11
60.1762
21
-190.467
0
LINE
8
BLACK
10
60.1762
20
-190.467
11
60.355
21
-190.289
0
LINE
8
BLACK
10
60.355
20
-190.289
11
60.4519
21
-190.055
0
LINE
8
BLACK
10
60.4519
20
-190.055
11
60.4521
21
-189.803
0
LINE
8
BLACK
10
60.4521
20
-189.803
11
60.4521
21
-189.263
0
LINE
8
BLACK
10
60.4521
20
-189.263
11
60.5854
21
-189.263
0
LINE
8
BLACK
10
60.5854
20
-189.263
11
61.5861
21
-189.263
0
LINE
8
BLACK
10
61.5861
20
-189.263
11
61.8196
21
-189.167
0
LINE
8
BLACK
10
61.8196
20
-189.167
11
61.9984
21
-188.988
0
LINE
8
BLACK
10
61.9984
20
-188.988
11
62.0953
21
-188.755
0
LINE
8
BLACK
10
62.0953
20
-188.755
11
62.0955
21
-188.502
0
LINE
8
BLACK
10
62.0955
20
-188.502
11
62.0955
21
-187.801
0
LINE
8
BLACK
10
62.0955
20
-187.801
11
61.999
21
-187.568
0
LINE
8
BLACK
10
61.999
20
-187.568
11
61.8205
21
-187.389
0
LINE
8
BLACK
10
61.8205
20
-187.389
11
61.5872
21
-187.292
0
LINE
8
BLACK
10
61.5872
20
-187.292
11
61.3346
21
-187.292
0
LINE
8
BLACK
10
61.3346
20
-187.292
11
60.3339
21
-187.292
0
LINE
8
BLACK
10
60.3339
20
-187.292
11
60.3323
21
-187.293
0
LINE
8
BLACK
10
60.3323
20
-187.293
11
59.3725
21
-187.293
0
LINE
8
BLACK
10
59.3725
20
-187.293
11
59.1821
21
-187.33
0
LINE
8
BLACK
10
59.1821
20
-187.33
11
59.1821
21
-187.326
0
LINE
8
BLACK
10
59.1821
20
-187.326
11
59.1821
21
-185.484
0
LINE
8
BLACK
10
59.1821
20
-185.484
11
59.9428
21
-185.484
0
LINE
8
BLACK
10
59.9428
20
-185.484
11
60.1762
21
-185.387
0
LINE
8
BLACK
10
60.1762
20
-185.387
11
60.355
21
-185.209
0
LINE
8
BLACK
10
60.355
20
-185.209
11
60.4519
21
-184.975
0
LINE
8
BLACK
10
60.4519
20
-184.975
11
60.4521
21
-184.723
0
LINE
8
BLACK
10
60.4521
20
-184.723
11
60.4521
21
-184.183
0
LINE
8
BLACK
10
60.4521
20
-184.183
11
60.5854
21
-184.183
0
LINE
8
BLACK
10
60.5854
20
-184.183
11
61.5861
21
-184.183
0
LINE
8
BLACK
10
61.5861
20
-184.183
11
61.8196
21
-184.087
0
LINE
8
BLACK
10
61.8196
20
-184.087
11
61.9984
21
-183.908
0
LINE
8
BLACK
10
61.9984
20
-183.908
11
62.0953
21
-183.675
0
LINE
8
BLACK
10
62.0953
20
-183.675
11
62.0955
21
-183.422
0
LINE
8
BLACK
10
62.0955
20
-183.422
11
62.0955
21
-182.721
0
LINE
8
BLACK
10
62.0955
20
-182.721
11
61.999
21
-182.488
0
LINE
8
BLACK
10
61.999
20
-182.488
11
61.8205
21
-182.309
0
LINE
8
BLACK
10
61.8205
20
-182.309
11
61.5872
21
-182.212
0
LINE
8
BLACK
10
61.5872
20
-182.212
11
61.3346
21
-182.212
0
LINE
8
BLACK
10
61.3346
20
-182.212
11
60.3339
21
-182.212
0
LINE
8
BLACK
10
60.3339
20
-182.212
11
60.3323
21
-182.213
0
LINE
8
BLACK
10
60.3323
20
-182.213
11
59.6265
21
-182.213
0
LINE
8
BLACK
10
59.6265
20
-182.213
11
59.2496
21
-182.287
0
LINE
8
BLACK
10
59.2496
20
-182.287
11
59.182
21
-182.333
0
LINE
8
BLACK
10
59.182
20
-182.333
11
59.1821
21
-182.246
0
LINE
8
BLACK
10
59.1821
20
-182.246
11
59.1821
21
-180.404
0
LINE
8
BLACK
10
59.1821
20
-180.404
11
59.9428
21
-180.404
0
LINE
8
BLACK
10
59.9428
20
-180.404
11
60.1762
21
-180.307
0
LINE
8
BLACK
10
60.1762
20
-180.307
11
60.355
21
-180.129
0
LINE
8
BLACK
10
60.355
20
-180.129
11
60.4519
21
-179.895
0
LINE
8
BLACK
10
60.4519
20
-179.895
11
60.4521
21
-179.643
0
LINE
8
BLACK
10
60.4521
20
-179.643
11
60.4521
21
-179.103
0
LINE
8
BLACK
10
60.4521
20
-179.103
11
60.5854
21
-179.103
0
LINE
8
BLACK
10
60.5854
20
-179.103
11
61.5861
21
-179.103
0
LINE
8
BLACK
10
61.5861
20
-179.103
11
61.8196
21
-179.007
0
LINE
8
BLACK
10
61.8196
20
-179.007
11
61.9984
21
-178.828
0
LINE
8
BLACK
10
61.9984
20
-178.828
11
62.0953
21
-178.595
0
LINE
8
BLACK
10
62.0953
20
-178.595
11
62.0955
21
-178.342
0
LINE
8
BLACK
10
62.0955
20
-178.342
11
62.0955
21
-177.641
0
LINE
8
BLACK
10
62.0955
20
-177.641
11
61.999
21
-177.408
0
LINE
8
BLACK
10
61.999
20
-177.408
11
61.8205
21
-177.229
0
LINE
8
BLACK
10
61.8205
20
-177.229
11
61.5872
21
-177.132
0
LINE
8
BLACK
10
61.5872
20
-177.132
11
61.3346
21
-177.132
0
LINE
8
BLACK
10
61.3346
20
-177.132
11
60.3339
21
-177.132
0
LINE
8
BLACK
10
60.3339
20
-177.132
11
60.3323
21
-177.133
0
LINE
8
BLACK
10
60.3323
20
-177.133
11
59.8805
21
-177.133
0
LINE
8
BLACK
10
59.8805
20
-177.133
11
59.5036
21
-177.207
0
LINE
8
BLACK
10
59.5036
20
-177.207
11
59.184
21
-177.421
0
LINE
8
BLACK
10
59.184
20
-177.421
11
58.8686
21
-177.736
0
LINE
8
BLACK
10
58.8686
20
-177.736
11
58.8022
21
-177.736
0
LINE
8
BLACK
10
58.8022
20
-177.736
11
58.5688
21
-177.833
0
LINE
8
BLACK
10
58.5688
20
-177.833
11
58.4199
21
-177.981
0
LINE
8
BLACK
10
58.4199
20
-177.981
11
58.2722
21
-177.833
0
LINE
8
BLACK
10
58.2722
20
-177.833
11
58.0389
21
-177.737
0
LINE
8
BLACK
10
58.0389
20
-177.737
11
57.7862
21
-177.736
0
LINE
8
BLACK
10
57.7862
20
-177.736
11
56.8972
21
-177.736
0
LINE
8
BLACK
10
56.8972
20
-177.736
11
56.6638
21
-177.833
0
LINE
8
BLACK
10
56.6638
20
-177.833
11
56.485
21
-178.011
0
LINE
8
BLACK
10
56.485
20
-178.011
11
56.4673
21
-178.054
0
LINE
8
BLACK
10
56.4673
20
-178.054
11
55.9059
21
-178.054
0
LINE
8
BLACK
10
55.9059
20
-178.054
11
55.5374
21
-177.685
0
LINE
8
BLACK
10
55.5374
20
-177.685
11
54.9366
21
-177.435
0
LINE
8
BLACK
10
54.9366
20
-177.435
11
54.2862
21
-177.435
0
LINE
8
BLACK
10
54.2862
20
-177.435
11
53.6851
21
-177.683
0
LINE
8
BLACK
10
53.6851
20
-177.683
11
53.2247
21
-178.143
0
LINE
8
BLACK
10
53.2247
20
-178.143
11
52.9753
21
-178.743
0
LINE
8
BLACK
10
52.9753
20
-178.743
11
52.9747
21
-179.394
0
LINE
8
BLACK
10
52.9747
20
-179.394
11
53.2231
21
-179.995
0
LINE
8
BLACK
10
53.2231
20
-179.995
11
53.6826
21
-180.455
0
LINE
8
BLACK
10
53.6826
20
-180.455
11
54.2834
21
-180.705
0
LINE
8
BLACK
10
54.2834
20
-180.705
11
54.9338
21
-180.705
0
LINE
8
BLACK
10
54.9338
20
-180.705
11
55.0544
21
-180.655
0
LINE
8
BLACK
10
55.0544
20
-180.655
11
55.0544
21
-180.72
0
LINE
8
BLACK
10
55.0544
20
-180.72
11
55.0544
21
-181.609
0
LINE
8
BLACK
10
55.0544
20
-181.609
11
55.1509
21
-181.842
0
LINE
8
BLACK
10
55.1509
20
-181.842
11
55.3293
21
-182.021
0
LINE
8
BLACK
10
55.3293
20
-182.021
11
55.5626
21
-182.118
0
LINE
8
BLACK
10
55.5626
20
-182.118
11
55.8153
21
-182.118
0
LINE
8
BLACK
10
55.8153
20
-182.118
11
56.3879
21
-182.118
0
LINE
8
BLACK
10
56.3879
20
-182.118
11
56.3879
21
-182.498
0
LINE
8
BLACK
10
56.3879
20
-182.498
11
56.4844
21
-182.731
0
LINE
8
BLACK
10
56.4844
20
-182.731
11
56.6628
21
-182.91
0
LINE
8
BLACK
10
56.6628
20
-182.91
11
56.6667
21
-182.912
0
LINE
8
BLACK
10
56.6667
20
-182.912
11
56.6638
21
-182.913
0
LINE
8
BLACK
10
56.6638
20
-182.913
11
56.485
21
-183.091
0
LINE
8
BLACK
10
56.485
20
-183.091
11
56.4673
21
-183.134
0
LINE
8
BLACK
10
56.4673
20
-183.134
11
55.9059
21
-183.134
0
LINE
8
BLACK
10
55.9059
20
-183.134
11
55.5374
21
-182.765
0
LINE
8
BLACK
10
55.5374
20
-182.765
11
54.9366
21
-182.515
0
LINE
8
BLACK
10
54.9366
20
-182.515
11
54.2862
21
-182.515
0
LINE
8
BLACK
10
54.2862
20
-182.515
11
53.6851
21
-182.763
0
LINE
8
BLACK
10
53.6851
20
-182.763
11
53.2247
21
-183.223
0
LINE
8
BLACK
10
53.2247
20
-183.223
11
52.9753
21
-183.823
0
LINE
8
BLACK
10
52.9753
20
-183.823
11
52.9747
21
-184.474
0
LINE
8
BLACK
10
52.9747
20
-184.474
11
53.2231
21
-185.075
0
LINE
8
BLACK
10
53.2231
20
-185.075
11
53.6826
21
-185.535
0
LINE
8
BLACK
10
53.6826
20
-185.535
11
54.2834
21
-185.785
0
LINE
8
BLACK
10
54.2834
20
-185.785
11
54.9338
21
-185.785
0
LINE
8
BLACK
10
54.9338
20
-185.785
11
55.0544
21
-185.735
0
LINE
8
BLACK
10
55.0544
20
-185.735
11
55.0544
21
-185.8
0
LINE
8
BLACK
10
55.0544
20
-185.8
11
55.0544
21
-186.689
0
LINE
8
BLACK
10
55.0544
20
-186.689
11
55.1509
21
-186.922
0
LINE
8
BLACK
10
55.1509
20
-186.922
11
55.3293
21
-187.101
0
LINE
8
BLACK
10
55.3293
20
-187.101
11
55.5626
21
-187.198
0
LINE
8
BLACK
10
55.5626
20
-187.198
11
55.8153
21
-187.198
0
LINE
8
BLACK
10
55.8153
20
-187.198
11
56.3879
21
-187.198
0
LINE
8
BLACK
10
56.3879
20
-187.198
11
56.3879
21
-187.578
0
LINE
8
BLACK
10
56.3879
20
-187.578
11
56.4844
21
-187.811
0
LINE
8
BLACK
10
56.4844
20
-187.811
11
56.6628
21
-187.99
0
LINE
8
BLACK
10
56.6628
20
-187.99
11
56.6667
21
-187.992
0
LINE
8
BLACK
10
56.6667
20
-187.992
11
56.6638
21
-187.993
0
LINE
8
BLACK
10
56.6638
20
-187.993
11
56.485
21
-188.171
0
LINE
8
BLACK
10
56.485
20
-188.171
11
56.4673
21
-188.214
0
LINE
8
BLACK
10
56.4673
20
-188.214
11
55.9059
21
-188.214
0
LINE
8
BLACK
10
55.9059
20
-188.214
11
55.5374
21
-187.845
0
LINE
8
BLACK
10
55.5374
20
-187.845
11
54.9366
21
-187.595
0
LINE
8
BLACK
10
54.9366
20
-187.595
11
54.2862
21
-187.595
0
LINE
8
BLACK
10
54.2862
20
-187.595
11
53.6851
21
-187.843
0
LINE
8
BLACK
10
53.6851
20
-187.843
11
53.2247
21
-188.303
0
LINE
8
BLACK
10
53.2247
20
-188.303
11
52.9753
21
-188.903
0
LINE
8
BLACK
10
52.9753
20
-188.903
11
52.9747
21
-189.554
0
LINE
8
BLACK
10
52.9747
20
-189.554
11
53.2231
21
-190.155
0
LINE
8
BLACK
10
53.2231
20
-190.155
11
53.6826
21
-190.615
0
LINE
8
BLACK
10
53.6826
20
-190.615
11
54.2834
21
-190.865
0
LINE
8
BLACK
10
54.2834
20
-190.865
11
54.9338
21
-190.865
0
LINE
8
BLACK
10
54.9338
20
-190.865
11
55.0544
21
-190.815
0
LINE
8
BLACK
10
55.0544
20
-190.815
11
55.0544
21
-190.88
0
LINE
8
BLACK
10
55.0544
20
-190.88
11
55.0544
21
-191.769
0
LINE
8
BLACK
10
55.0544
20
-191.769
11
55.1509
21
-192.002
0
LINE
8
BLACK
10
55.1509
20
-192.002
11
55.3293
21
-192.181
0
LINE
8
BLACK
10
55.3293
20
-192.181
11
55.5626
21
-192.278
0
LINE
8
BLACK
10
55.5626
20
-192.278
11
55.8153
21
-192.278
0
LINE
8
BLACK
10
55.8153
20
-192.278
11
56.3879
21
-192.278
0
LINE
8
BLACK
10
56.3879
20
-192.278
11
56.3879
21
-192.658
0
LINE
8
BLACK
10
56.3879
20
-192.658
11
56.4844
21
-192.891
0
LINE
8
BLACK
10
56.4844
20
-192.891
11
56.6628
21
-193.07
0
LINE
8
BLACK
10
56.6628
20
-193.07
11
56.6667
21
-193.072
0
LINE
8
BLACK
10
56.6667
20
-193.072
11
56.6638
21
-193.073
0
LINE
8
BLACK
10
56.6638
20
-193.073
11
56.485
21
-193.251
0
LINE
8
BLACK
10
56.485
20
-193.251
11
56.4673
21
-193.294
0
LINE
8
BLACK
10
56.4673
20
-193.294
11
55.9059
21
-193.294
0
LINE
8
BLACK
10
55.9059
20
-193.294
11
55.5374
21
-192.925
0
LINE
8
BLACK
10
55.5374
20
-192.925
11
54.9366
21
-192.675
0
LINE
8
BLACK
10
54.9366
20
-192.675
11
54.2862
21
-192.675
0
LINE
8
BLACK
10
54.2862
20
-192.675
11
53.6851
21
-192.923
0
LINE
8
BLACK
10
53.6851
20
-192.923
11
53.2247
21
-193.383
0
LINE
8
BLACK
10
53.2247
20
-193.383
11
52.9753
21
-193.983
0
LINE
8
BLACK
10
52.9753
20
-193.983
11
52.9747
21
-194.634
0
LINE
8
BLACK
10
52.9747
20
-194.634
11
53.2231
21
-195.235
0
LINE
8
BLACK
10
53.2231
20
-195.235
11
53.6826
21
-195.695
0
LINE
8
BLACK
10
53.6826
20
-195.695
11
54.2834
21
-195.945
0
LINE
8
BLACK
10
54.2834
20
-195.945
11
54.9338
21
-195.945
0
LINE
8
BLACK
10
54.9338
20
-195.945
11
55.0544
21
-195.895
0
LINE
8
BLACK
10
55.0544
20
-195.895
11
55.0544
21
-195.96
0
LINE
8
BLACK
10
55.0544
20
-195.96
11
55.0544
21
-196.849
0
LINE
8
BLACK
10
55.0544
20
-196.849
11
55.1509
21
-197.082
0
LINE
8
BLACK
10
55.1509
20
-197.082
11
55.3293
21
-197.261
0
LINE
8
BLACK
10
55.3293
20
-197.261
11
55.5626
21
-197.358
0
LINE
8
BLACK
10
55.5626
20
-197.358
11
55.8153
21
-197.358
0
LINE
8
BLACK
10
55.8153
20
-197.358
11
56.3879
21
-197.358
0
LINE
8
BLACK
10
56.3879
20
-197.358
11
56.3879
21
-197.738
0
LINE
8
BLACK
10
56.3879
20
-197.738
11
56.4844
21
-197.971
0
LINE
8
BLACK
10
56.4844
20
-197.971
11
56.6628
21
-198.15
0
LINE
8
BLACK
10
56.6628
20
-198.15
11
56.6667
21
-198.152
0
LINE
8
BLACK
10
56.6667
20
-198.152
11
56.6638
21
-198.153
0
LINE
8
BLACK
10
56.6638
20
-198.153
11
56.485
21
-198.331
0
LINE
8
BLACK
10
56.485
20
-198.331
11
56.4673
21
-198.374
0
LINE
8
BLACK
10
56.4673
20
-198.374
11
55.9059
21
-198.374
0
LINE
8
BLACK
10
55.9059
20
-198.374
11
55.5374
21
-198.005
0
LINE
8
BLACK
10
55.5374
20
-198.005
11
54.9366
21
-197.755
0
LINE
8
BLACK
10
54.9366
20
-197.755
11
54.2862
21
-197.755
0
LINE
8
BLACK
10
54.2862
20
-197.755
11
53.6851
21
-198.003
0
LINE
8
BLACK
10
53.6851
20
-198.003
11
53.2247
21
-198.463
0
LINE
8
BLACK
10
53.2247
20
-198.463
11
52.9753
21
-199.063
0
LINE
8
BLACK
10
52.9753
20
-199.063
11
52.9747
21
-199.714
0
LINE
8
BLACK
10
52.9747
20
-199.714
11
53.2231
21
-200.315
0
LINE
8
BLACK
10
53.2231
20
-200.315
11
53.6826
21
-200.775
0
LINE
8
BLACK
10
53.6826
20
-200.775
11
54.2834
21
-201.025
0
LINE
8
BLACK
10
54.2834
20
-201.025
11
54.9338
21
-201.025
0
LINE
8
BLACK
10
54.9338
20
-201.025
11
55.0544
21
-200.975
0
LINE
8
BLACK
10
55.0544
20
-200.975
11
55.0544
21
-201.04
0
LINE
8
BLACK
10
55.0544
20
-201.04
11
55.0544
21
-201.929
0
LINE
8
BLACK
10
55.0544
20
-201.929
11
55.1509
21
-202.162
0
LINE
8
BLACK
10
55.1509
20
-202.162
11
55.3293
21
-202.341
0
LINE
8
BLACK
10
55.3293
20
-202.341
11
55.5626
21
-202.438
0
LINE
8
BLACK
10
55.5626
20
-202.438
11
55.8153
21
-202.438
0
LINE
8
BLACK
10
55.8153
20
-202.438
11
56.3879
21
-202.438
0
LINE
8
BLACK
10
56.3879
20
-202.438
11
56.3879
21
-202.818
0
LINE
8
BLACK
10
56.3879
20
-202.818
11
56.4844
21
-203.051
0
LINE
8
BLACK
10
56.4844
20
-203.051
11
56.6628
21
-203.23
0
LINE
8
BLACK
10
56.6628
20
-203.23
11
56.6667
21
-203.232
0
LINE
8
BLACK
10
56.6667
20
-203.232
11
56.6638
21
-203.233
0
LINE
8
BLACK
10
56.6638
20
-203.233
11
56.485
21
-203.411
0
LINE
8
BLACK
10
56.485
20
-203.411
11
56.4673
21
-203.454
0
LINE
8
BLACK
10
56.4673
20
-203.454
11
55.9059
21
-203.454
0
LINE
8
BLACK
10
55.9059
20
-203.454
11
55.5374
21
-203.085
0
LINE
8
BLACK
10
55.5374
20
-203.085
11
54.9366
21
-202.835
0
LINE
8
BLACK
10
54.9366
20
-202.835
11
54.2862
21
-202.835
0
LINE
8
BLACK
10
54.2862
20
-202.835
11
53.6851
21
-203.083
0
LINE
8
BLACK
10
53.6851
20
-203.083
11
53.2247
21
-203.543
0
LINE
8
BLACK
10
53.2247
20
-203.543
11
52.9753
21
-204.143
0
LINE
8
BLACK
10
52.9753
20
-204.143
11
52.9747
21
-204.794
0
LINE
8
BLACK
10
52.9747
20
-204.794
11
53.2231
21
-205.395
0
LINE
8
BLACK
10
53.2231
20
-205.395
11
53.6826
21
-205.855
0
LINE
8
BLACK
10
53.6826
20
-205.855
11
54.2834
21
-206.105
0
LINE
8
BLACK
10
54.2834
20
-206.105
11
54.9338
21
-206.105
0
LINE
8
BLACK
10
54.9338
20
-206.105
11
55.0544
21
-206.055
0
LINE
8
BLACK
10
55.0544
20
-206.055
11
55.0544
21
-206.12
0
LINE
8
BLACK
10
55.0544
20
-206.12
11
55.0544
21
-207.009
0
LINE
8
BLACK
10
55.0544
20
-207.009
11
55.1509
21
-207.242
0
LINE
8
BLACK
10
55.1509
20
-207.242
11
55.3293
21
-207.421
0
LINE
8
BLACK
10
55.3293
20
-207.421
11
55.5626
21
-207.518
0
LINE
8
BLACK
10
55.5626
20
-207.518
11
55.8153
21
-207.518
0
LINE
8
BLACK
10
55.8153
20
-207.518
11
56.3879
21
-207.518
0
LINE
8
BLACK
10
56.3879
20
-207.518
11
56.3879
21
-207.898
0
LINE
8
BLACK
10
56.3879
20
-207.898
11
56.4844
21
-208.131
0
LINE
8
BLACK
10
56.4844
20
-208.131
11
56.6628
21
-208.31
0
LINE
8
BLACK
10
56.6628
20
-208.31
11
56.8961
21
-208.407
0
LINE
8
BLACK
10
56.8961
20
-208.407
11
57.1488
21
-208.407
0
LINE
8
BLACK
10
57.1488
20
-208.407
11
58.6728
21
-208.407
0
LINE
8
BLACK
10
58.6728
20
-208.407
11
58.9062
21
-208.311
0
LINE
8
BLACK
10
58.9062
20
-208.311
11
59.085
21
-208.132
0
LINE
8
BLACK
10
59.085
20
-208.132
11
59.1819
21
-207.899
0
LINE
8
BLACK
10
59.1819
20
-207.899
11
59.1821
21
-207.646
0
LINE
8
BLACK
10
59.1821
20
-207.646
11
59.1821
21
-205.804
0
LINE
8
BLACK
10
59.1821
20
-205.804
11
59.9428
21
-205.804
0
LINE
8
BLACK
10
59.9428
20
-205.804
11
60.1762
21
-205.707
0
LINE
8
BLACK
10
60.1762
20
-205.707
11
60.355
21
-205.529
0
LINE
8
BLACK
10
60.355
20
-205.529
11
60.4519
21
-205.295
0
LINE
8
BLACK
10
60.4519
20
-205.295
11
60.4521
21
-205.043
0
LINE
8
BLACK
10
60.4521
20
-205.043
11
60.4521
21
-204.503
0
LINE
8
BLACK
10
60.4521
20
-204.503
11
60.5854
21
-204.503
0
LINE
8
BLACK
10
60.5854
20
-204.503
11
61.5861
21
-204.503
0
LINE
8
BLACK
10
61.5861
20
-204.503
11
61.8196
21
-204.407
0
LINE
8
BLACK
10
61.8196
20
-204.407
11
61.9984
21
-204.228
0
LINE
8
BLACK
10
61.9984
20
-204.228
11
62.0953
21
-203.995
0
LINE
8
BLACK
10
62.0953
20
-203.995
11
62.0955
21
-203.742
0
LINE
8
BLACK
10
62.0955
20
-203.742
11
62.0955
21
-208.669
0
LINE
8
BLACK
10
62.0955
20
-208.669
11
61.9895
21
-208.924
0
LINE
8
BLACK
10
61.9895
20
-208.924
11
61.9895
21
-208.924
0
LINE
8
BLACK
10
61.9895
20
-208.924
11
61.9895
21
-208.924
0
LINE
8
BLACK
10
61.9895
20
-208.924
11
61.8653
21
-209.223
0
LINE
8
BLACK
10
61.8653
20
-209.223
11
61.865
21
-209.55
0
LINE
8
BLACK
10
61.865
20
-209.55
11
61.865
21
-209.55
0
LINE
8
BLACK
10
61.865
20
-209.55
11
61.865
21
-209.55
0
LINE
8
BLACK
10
61.865
20
-209.55
11
61.8647
21
-209.874
0
LINE
8
BLACK
10
61.8647
20
-209.874
11
61.865
21
-209.874
0
LINE
8
BLACK
10
61.865
20
-209.874
11
61.865
21
-210.143
0
LINE
8
BLACK
10
61.865
20
-210.143
11
57.8989
21
-214.109
0
LINE
8
BLACK
10
57.8989
20
-214.109
11
57.5445
21
-214.639
0
LINE
8
BLACK
10
57.5445
20
-214.639
11
57.42
21
-215.265
0
LINE
8
BLACK
10
57.42
20
-215.265
11
57.42
21
-215.265
0
LINE
8
BLACK
10
57.42
20
-215.265
11
57.42
21
-218.44
0
LINE
8
BLACK
10
57.42
20
-218.44
11
57.5309
21
-218.997
0
LINE
8
BLACK
10
57.5309
20
-218.997
11
57.5309
21
-219.455
0
LINE
8
BLACK
10
57.5309
20
-219.455
11
57.6274
21
-219.688
0
LINE
8
BLACK
10
57.6274
20
-219.688
11
57.8058
21
-219.867
0
LINE
8
BLACK
10
57.8058
20
-219.867
11
58.0391
21
-219.964
0
LINE
8
BLACK
10
58.0391
20
-219.964
11
58.2918
21
-219.964
0
LINE
8
BLACK
10
58.2918
20
-219.964
11
58.4975
21
-219.964
0
LINE
8
BLACK
10
58.4975
20
-219.964
11
59.055
21
-220.075
0
LINE
8
BLACK
10
59.055
20
-220.075
11
59.6125
21
-219.964
0
LINE
8
BLACK
10
59.6125
20
-219.964
11
60.0698
21
-219.964
0
LINE
8
BLACK
10
60.0698
20
-219.964
11
60.3032
21
-219.868
0
LINE
8
BLACK
10
60.3032
20
-219.868
11
60.482
21
-219.689
0
LINE
8
BLACK
10
60.482
20
-219.689
11
60.5789
21
-219.456
0
LINE
8
BLACK
10
60.5789
20
-219.456
11
60.5791
21
-219.203
0
LINE
8
BLACK
10
60.5791
20
-219.203
11
60.5791
21
-218.997
0
LINE
8
BLACK
10
60.5791
20
-218.997
11
60.69
21
-218.44
0
LINE
8
BLACK
10
60.69
20
-218.44
11
60.69
21
-215.942
0
LINE
8
BLACK
10
60.69
20
-215.942
11
64.0875
21
-212.545
0
LINE
8
BLACK
10
64.0875
20
-212.545
11
64.0875
21
-213.995
0
LINE
8
BLACK
10
64.0875
20
-213.995
11
64.212
21
-214.621
0
LINE
8
BLACK
10
64.212
20
-214.621
11
64.4087
21
-214.915
0
LINE
8
BLACK
10
64.4087
20
-214.915
11
63.8451
21
-215.148
0
LINE
8
BLACK
10
63.8451
20
-215.148
11
63.3847
21
-215.608
0
LINE
8
BLACK
10
63.3847
20
-215.608
11
63.1353
21
-216.208
0
LINE
8
BLACK
10
63.1353
20
-216.208
11
63.1347
21
-216.859
0
LINE
8
BLACK
10
63.1347
20
-216.859
11
63.3831
21
-217.46
0
LINE
8
BLACK
10
63.3831
20
-217.46
11
63.7278
21
-217.805
0
LINE
8
BLACK
10
63.7278
20
-217.805
11
63.6139
21
-217.919
0
LINE
8
BLACK
10
63.6139
20
-217.919
11
63.6139
21
-217.919
0
LINE
8
BLACK
10
63.6139
20
-217.919
11
63.6139
21
-217.919
0
LINE
8
BLACK
10
63.6139
20
-217.919
11
63.3847
21
-218.148
0
LINE
8
BLACK
10
63.3847
20
-218.148
11
63.1353
21
-218.748
0
LINE
8
BLACK
10
63.1353
20
-218.748
11
63.1347
21
-219.399
0
LINE
8
BLACK
10
63.1347
20
-219.399
11
63.2595
21
-219.701
0
LINE
8
BLACK
10
63.2595
20
-219.701
11
63.3831
21
-220
0
LINE
8
BLACK
10
63.3831
20
-220
11
63.6139
21
-220.231
0
LINE
8
BLACK
10
63.6139
20
-220.231
11
63.6139
21
-220.231
0
LINE
8
BLACK
10
63.6139
20
-220.231
11
63.6139
21
-220.231
0
LINE
8
BLACK
10
63.6139
20
-220.231
11
63.8426
21
-220.46
0
LINE
8
BLACK
10
63.8426
20
-220.46
11
64.1443
21
-220.586
0
LINE
8
BLACK
10
64.1443
20
-220.586
11
64.4434
21
-220.71
0
LINE
8
BLACK
10
64.4434
20
-220.71
11
64.77
21
-220.71
0
LINE
8
BLACK
10
64.77
20
-220.71
11
65.0938
21
-220.71
0
LINE
8
BLACK
10
65.0938
20
-220.71
11
65.0945
21
-220.71
0
LINE
8
BLACK
10
65.0945
20
-220.71
11
73.025
21
-220.71
0
LINE
8
BLACK
10
73.025
20
-220.71
11
73.025
21
-220.71
0
LINE
8
BLACK
10
73.025
20
-220.71
11
73.025
21
-220.71
0
LINE
8
BLACK
10
73.025
20
-220.71
11
73.6507
21
-220.586
0
LINE
8
BLACK
10
73.6507
20
-220.586
11
73.6507
21
-220.586
0
LINE
8
BLACK
10
73.6507
20
-220.586
11
74.1811
21
-220.231
0
LINE
8
BLACK
10
74.1811
20
-220.231
11
75.4511
21
-218.961
0
LINE
8
BLACK
10
75.4511
20
-218.961
11
75.4511
21
-218.961
0
LINE
8
BLACK
10
75.4511
20
-218.961
11
75.4511
21
-218.961
0
LINE
8
BLACK
10
75.4511
20
-218.961
11
75.6636
21
-218.643
0
LINE
8
BLACK
10
75.6636
20
-218.643
11
75.8055
21
-218.431
0
LINE
8
BLACK
10
75.8055
20
-218.431
11
75.8055
21
-218.431
0
LINE
8
BLACK
10
75.8055
20
-218.431
11
75.93
21
-217.805
0
LINE
8
BLACK
10
75.93
20
-217.805
11
75.93
21
-212.455
0
LINE
8
BLACK
10
75.93
20
-212.455
11
76.2
21
-212.455
0
LINE
8
BLACK
10
76.2
20
-212.455
11
76.2
21
-212.455
0
LINE
8
BLACK
10
76.2
20
-212.455
11
76.2
21
-212.455
0
LINE
8
BLACK
10
76.2
20
-212.455
11
76.8257
21
-212.331
0
LINE
8
BLACK
10
76.8257
20
-212.331
11
76.8257
21
-212.331
0
LINE
8
BLACK
10
76.8257
20
-212.331
11
77.3561
21
-211.976
0
LINE
8
BLACK
10
77.3561
20
-211.976
11
78.8221
21
-210.51
0
LINE
8
BLACK
10
78.8221
20
-210.51
11
83.2708
21
-210.51
0
LINE
8
BLACK
10
83.2708
20
-210.51
11
83.5042
21
-210.414
0
LINE
8
BLACK
10
83.5042
20
-210.414
11
83.683
21
-210.235
0
LINE
8
BLACK
10
83.683
20
-210.235
11
83.7799
21
-210.002
0
LINE
8
BLACK
10
83.7799
20
-210.002
11
83.7801
21
-209.749
0
LINE
8
BLACK
10
83.7801
20
-209.749
11
83.7801
21
-213.995
0
LINE
8
BLACK
10
83.7801
20
-213.995
11
76.7092
21
-213.995
0
LINE
8
BLACK
10
76.7092
20
-213.995
11
76.4758
21
-214.091
0
LINE
8
BLACK
10
76.4758
20
-214.091
11
76.297
21
-214.27
0
LINE
8
BLACK
10
76.297
20
-214.27
11
76.2001
21
-214.503
0
LINE
8
BLACK
10
76.2001
20
-214.503
11
76.1999
21
-214.756
0
LINE
8
BLACK
10
76.1999
20
-214.756
11
76.1999
21
-223.646
0
LINE
8
BLACK
10
76.1999
20
-223.646
11
76.2964
21
-223.879
0
LINE
8
BLACK
10
76.2964
20
-223.879
11
76.4748
21
-224.058
0
LINE
8
BLACK
10
76.4748
20
-224.058
11
76.7081
21
-224.155
0
LINE
8
BLACK
10
76.7081
20
-224.155
11
76.9608
21
-224.155
0
LINE
8
BLACK
10
76.9608
20
-224.155
11
85.8508
21
-224.155
0
LINE
8
BLACK
10
85.8508
20
-224.155
11
86.0842
21
-224.059
0
LINE
8
BLACK
10
86.0842
20
-224.059
11
86.263
21
-223.88
0
LINE
8
BLACK
10
86.263
20
-223.88
11
86.3599
21
-223.647
0
LINE
8
BLACK
10
86.3599
20
-223.647
11
86.3601
21
-223.394
0
LINE
8
BLACK
10
86.3601
20
-223.394
11
86.3601
21
-224.74
0
LINE
8
BLACK
10
86.3601
20
-224.74
11
54.9753
21
-224.74
0
LINE
8
BLACK
10
54.9753
20
-224.74
11
54.9753
21
-209.226
0
LINE
8
BLACK
10
54.9753
20
-209.226
11
54.7269
21
-208.625
0
LINE
8
BLACK
10
54.7269
20
-208.625
11
54.2674
21
-208.165
0
LINE
8
BLACK
10
54.2674
20
-208.165
11
53.6666
21
-207.915
0
LINE
8
BLACK
10
53.6666
20
-207.915
11
53.0162
21
-207.915
0
LINE
8
BLACK
10
53.0162
20
-207.915
11
52.4151
21
-208.163
0
LINE
8
BLACK
10
52.4151
20
-208.163
11
51.9547
21
-208.623
0
LINE
8
BLACK
10
51.9547
20
-208.623
11
51.7053
21
-209.223
0
LINE
8
BLACK
10
51.7053
20
-209.223
11
51.7047
21
-209.874
0
LINE
8
BLACK
10
51.7047
20
-209.874
11
51.9531
21
-210.475
0
LINE
8
BLACK
10
51.9531
20
-210.475
11
52.4126
21
-210.935
0
LINE
8
BLACK
10
52.4126
20
-210.935
11
53.0134
21
-211.185
0
LINE
8
BLACK
10
53.0134
20
-211.185
11
53.6638
21
-211.185
0
LINE
8
BLACK
10
53.6638
20
-211.185
11
54.2649
21
-210.937
0
LINE
8
BLACK
10
54.2649
20
-210.937
11
54.7253
21
-210.477
0
LINE
8
BLACK
10
54.7253
20
-210.477
11
54.9747
21
-209.877
0
LINE
8
BLACK
10
54.9747
20
-209.877
11
54.9753
21
-209.226
0
LINE
8
BLACK
10
54.9753
20
-209.226
11
54.9753
21
-224.74
0
LINE
8
BLACK
10
54.9753
20
-224.74
11
50.85
21
-224.74
0
LINE
8
BLACK
10
50.85
20
-224.74
11
50.85
21
-172.135
0
LINE
8
BLACK
10
50.85
20
-172.135
11
83.012
21
-172.135
0
LINE
8
BLACK
10
83.012
20
-172.135
11
80.872
21
-174.275
0
LINE
8
BLACK
10
80.872
20
-174.275
11
78.7969
21
-174.275
0
LINE
8
BLACK
10
78.7969
20
-174.275
11
78.3974
21
-173.875
0
LINE
8
BLACK
10
78.3974
20
-173.875
11
77.7966
21
-173.625
0
LINE
8
BLACK
10
77.7966
20
-173.625
11
77.1462
21
-173.625
0
LINE
8
BLACK
10
77.1462
20
-173.625
11
76.5451
21
-173.873
0
LINE
8
BLACK
10
76.5451
20
-173.873
11
76.0847
21
-174.333
0
LINE
8
BLACK
10
76.0847
20
-174.333
11
75.8353
21
-174.933
0
LINE
8
BLACK
10
75.8353
20
-174.933
11
75.8347
21
-175.584
0
LINE
8
BLACK
10
75.8347
20
-175.584
11
76.0831
21
-176.185
0
LINE
8
BLACK
10
76.0831
20
-176.185
11
76.5426
21
-176.645
0
LINE
8
BLACK
10
76.5426
20
-176.645
11
77.1434
21
-176.895
0
LINE
8
BLACK
10
77.1434
20
-176.895
11
77.7938
21
-176.895
0
LINE
8
BLACK
10
77.7938
20
-176.895
11
78.3949
21
-176.647
0
LINE
8
BLACK
10
78.3949
20
-176.647
11
78.7975
21
-176.245
0
LINE
8
BLACK
10
78.7975
20
-176.245
11
81.28
21
-176.245
0
LINE
8
BLACK
10
81.28
20
-176.245
11
81.6569
21
-176.17
0
LINE
8
BLACK
10
81.6569
20
-176.17
11
81.9765
21
-175.957
0
LINE
8
BLACK
10
81.9765
20
-175.957
11
84.228
21
-173.705
0
LINE
8
BLACK
10
84.228
20
-173.705
11
89.762
21
-173.705
0
LINE
8
BLACK
10
89.762
20
-173.705
11
92.36
21
-176.303
0
LINE
8
BLACK
10
92.36
20
-176.303
11
92.36
21
-189.457
0
LINE
8
BLACK
10
92.36
20
-189.457
11
92.0589
21
-189.758
0
LINE
8
BLACK
10
92.0589
20
-189.758
11
91.8304
21
-189.713
0
LINE
8
BLACK
10
91.8304
20
-189.713
11
91.0496
21
-189.713
0
LINE
8
BLACK
10
91.0496
20
-189.713
11
90.5052
21
-189.821
0
LINE
8
BLACK
10
90.5052
20
-189.821
11
90.0438
21
-190.129
0
LINE
8
BLACK
10
90.0438
20
-190.129
11
89.7354
21
-190.591
0
LINE
8
BLACK
10
89.7354
20
-190.591
11
89.6272
21
-191.135
0
LINE
8
BLACK
10
89.6272
20
-191.135
11
89.7354
21
-191.679
0
LINE
8
BLACK
10
89.7354
20
-191.679
11
90.0438
21
-192.141
0
LINE
8
BLACK
10
90.0438
20
-192.141
11
90.4392
21
-192.405
0
LINE
8
BLACK
10
90.4392
20
-192.405
11
90.0438
21
-192.669
0
LINE
8
BLACK
10
90.0438
20
-192.669
11
89.7354
21
-193.131
0
LINE
8
BLACK
10
89.7354
20
-193.131
11
89.6272
21
-193.675
0
LINE
8
BLACK
10
89.6272
20
-193.675
11
89.7354
21
-194.219
0
LINE
8
BLACK
10
89.7354
20
-194.219
11
89.9764
21
-194.58
0
LINE
8
BLACK
10
89.9764
20
-194.58
11
85.455
21
-194.58
0
LINE
8
BLACK
10
85.455
20
-194.58
11
85.455
21
-194.323
0
LINE
8
BLACK
10
85.455
20
-194.323
11
85.5246
21
-194.219
0
LINE
8
BLACK
10
85.5246
20
-194.219
11
85.6328
21
-193.675
0
LINE
8
BLACK
10
85.6328
20
-193.675
11
85.5246
21
-193.131
0
LINE
8
BLACK
10
85.5246
20
-193.131
11
85.455
21
-193.027
0
LINE
8
BLACK
10
85.455
20
-193.027
11
85.455
21
-192.77
0
LINE
8
BLACK
10
85.455
20
-192.77
11
85.979
21
-192.77
0
LINE
8
BLACK
10
85.979
20
-192.77
11
85.979
21
-192.77
0
LINE
8
BLACK
10
85.979
20
-192.77
11
85.979
21
-192.77
0
LINE
8
BLACK
10
85.979
20
-192.77
11
86.6047
21
-192.646
0
LINE
8
BLACK
10
86.6047
20
-192.646
11
86.6047
21
-192.646
0
LINE
8
BLACK
10
86.6047
20
-192.646
11
87.1351
21
-192.291
0
LINE
8
BLACK
10
87.1351
20
-192.291
11
88.7861
21
-190.64
0
LINE
8
BLACK
10
88.7861
20
-190.64
11
88.7861
21
-190.64
0
LINE
8
BLACK
10
88.7861
20
-190.64
11
88.7861
21
-190.64
0
LINE
8
BLACK
10
88.7861
20
-190.64
11
89.1405
21
-190.11
0
LINE
8
BLACK
10
89.1405
20
-190.11
11
89.1405
21
-190.11
0
LINE
8
BLACK
10
89.1405
20
-190.11
11
89.265
21
-189.484
0
LINE
8
BLACK
10
89.265
20
-189.484
11
89.265
21
-184.15
0
LINE
8
BLACK
10
89.265
20
-184.15
11
89.1405
21
-183.524
0
LINE
8
BLACK
10
89.1405
20
-183.524
11
89.1405
21
-183.524
0
LINE
8
BLACK
10
89.1405
20
-183.524
11
88.9986
21
-183.312
0
LINE
8
BLACK
10
88.9986
20
-183.312
11
88.7861
21
-182.994
0
LINE
8
BLACK
10
88.7861
20
-182.994
11
88.7861
21
-182.994
0
LINE
8
BLACK
10
88.7861
20
-182.994
11
88.0111
21
-182.219
0
LINE
8
BLACK
10
88.0111
20
-182.219
11
88.0111
21
-180.976
0
LINE
8
BLACK
10
88.0111
20
-180.976
11
87.9146
21
-180.743
0
LINE
8
BLACK
10
87.9146
20
-180.743
11
87.766
21
-180.594
0
LINE
8
BLACK
10
87.766
20
-180.594
11
87.914
21
-180.446
0
LINE
8
BLACK
10
87.914
20
-180.446
11
88.0109
21
-180.213
0
LINE
8
BLACK
10
88.0109
20
-180.213
11
88.0111
21
-179.96
0
LINE
8
BLACK
10
88.0111
20
-179.96
11
88.0111
21
-176.404
0
LINE
8
BLACK
10
88.0111
20
-176.404
11
87.9146
21
-176.171
0
LINE
8
BLACK
10
87.9146
20
-176.171
11
87.7362
21
-175.992
0
LINE
8
BLACK
10
87.7362
20
-175.992
11
87.5029
21
-175.895
0
LINE
8
BLACK
10
87.5029
20
-175.895
11
87.2502
21
-175.895
0
LINE
8
BLACK
10
87.2502
20
-175.895
11
85.2182
21
-175.895
0
LINE
8
BLACK
10
85.2182
20
-175.895
11
84.9848
21
-175.991
0
LINE
8
BLACK
10
84.9848
20
-175.991
11
84.806
21
-176.17
0
LINE
8
BLACK
10
84.806
20
-176.17
11
84.7091
21
-176.403
0
LINE
8
BLACK
10
84.7091
20
-176.403
11
84.7089
21
-176.656
0
LINE
8
BLACK
10
84.7089
20
-176.656
11
84.7089
21
-178.566
0
LINE
8
BLACK
10
84.7089
20
-178.566
11
83.1235
21
-180.152
0
LINE
8
BLACK
10
83.1235
20
-180.152
11
82.91
21
-180.471
0
LINE
8
BLACK
10
82.91
20
-180.471
11
82.835
21
-180.848
0
LINE
8
BLACK
10
82.835
20
-180.848
11
82.835
21
-187.314
0
LINE
8
BLACK
10
82.835
20
-187.314
11
82.4238
21
-187.589
0
LINE
8
BLACK
10
82.4238
20
-187.589
11
82.4099
21
-187.61
0
LINE
8
BLACK
10
82.4099
20
-187.61
11
79.783
21
-187.61
0
LINE
8
BLACK
10
79.783
20
-187.61
11
78.6724
21
-186.499
0
LINE
8
BLACK
10
78.6724
20
-186.499
11
78.7311
21
-186.499
0
LINE
8
BLACK
10
78.7311
20
-186.499
11
78.8878
21
-186.657
0
LINE
8
BLACK
10
78.8878
20
-186.657
11
79.1211
21
-186.753
0
LINE
8
BLACK
10
79.1211
20
-186.753
11
79.3738
21
-186.754
0
LINE
8
BLACK
10
79.3738
20
-186.754
11
80.2628
21
-186.754
0
LINE
8
BLACK
10
80.2628
20
-186.754
11
80.4962
21
-186.657
0
LINE
8
BLACK
10
80.4962
20
-186.657
11
80.675
21
-186.479
0
LINE
8
BLACK
10
80.675
20
-186.479
11
80.7719
21
-186.245
0
LINE
8
BLACK
10
80.7719
20
-186.245
11
80.7721
21
-185.993
0
LINE
8
BLACK
10
80.7721
20
-185.993
11
80.7721
21
-184.596
0
LINE
8
BLACK
10
80.7721
20
-184.596
11
80.6756
21
-184.362
0
LINE
8
BLACK
10
80.6756
20
-184.362
11
80.4972
21
-184.183
0
LINE
8
BLACK
10
80.4972
20
-184.183
11
80.2639
21
-184.087
0
LINE
8
BLACK
10
80.2639
20
-184.087
11
80.0112
21
-184.086
0
LINE
8
BLACK
10
80.0112
20
-184.086
11
79.1222
21
-184.086
0
LINE
8
BLACK
10
79.1222
20
-184.086
11
78.8888
21
-184.183
0
LINE
8
BLACK
10
78.8888
20
-184.183
11
78.7309
21
-184.34
0
LINE
8
BLACK
10
78.7309
20
-184.34
11
78.5262
21
-184.34
0
LINE
8
BLACK
10
78.5262
20
-184.34
11
78.1293
21
-184.504
0
LINE
8
BLACK
10
78.1293
20
-184.504
11
77.8254
21
-184.808
0
LINE
8
BLACK
10
77.8254
20
-184.808
11
77.6607
21
-185.204
0
LINE
8
BLACK
10
77.6607
20
-185.204
11
77.6604
21
-185.487
0
LINE
8
BLACK
10
77.6604
20
-185.487
11
77.1998
21
-185.027
0
LINE
8
BLACK
10
77.1998
20
-185.027
11
77.2003
21
-184.461
0
LINE
8
BLACK
10
77.2003
20
-184.461
11
76.9519
21
-183.86
0
LINE
8
BLACK
10
76.9519
20
-183.86
11
76.4924
21
-183.4
0
LINE
8
BLACK
10
76.4924
20
-183.4
11
76.0836
21
-183.23
0
LINE
8
BLACK
10
76.0836
20
-183.23
11
78.6793
21
-183.23
0
LINE
8
BLACK
10
78.6793
20
-183.23
11
78.7094
21
-183.303
0
LINE
8
BLACK
10
78.7094
20
-183.303
11
78.8878
21
-183.482
0
LINE
8
BLACK
10
78.8878
20
-183.482
11
79.1211
21
-183.578
0
LINE
8
BLACK
10
79.1211
20
-183.578
11
79.3738
21
-183.579
0
LINE
8
BLACK
10
79.3738
20
-183.579
11
80.2628
21
-183.579
0
LINE
8
BLACK
10
80.2628
20
-183.579
11
80.4962
21
-183.482
0
LINE
8
BLACK
10
80.4962
20
-183.482
11
80.675
21
-183.304
0
LINE
8
BLACK
10
80.675
20
-183.304
11
80.7719
21
-183.07
0
LINE
8
BLACK
10
80.7719
20
-183.07
11
80.7721
21
-182.818
0
LINE
8
BLACK
10
80.7721
20
-182.818
11
80.7721
21
-181.421
0
LINE
8
BLACK
10
80.7721
20
-181.421
11
80.6756
21
-181.187
0
LINE
8
BLACK
10
80.6756
20
-181.187
11
80.4972
21
-181.008
0
LINE
8
BLACK
10
80.4972
20
-181.008
11
80.2639
21
-180.912
0
LINE
8
BLACK
10
80.2639
20
-180.912
11
80.0112
21
-180.911
0
LINE
8
BLACK
10
80.0112
20
-180.911
11
79.1222
21
-180.911
0
LINE
8
BLACK
10
79.1222
20
-180.911
11
78.8888
21
-181.008
0
LINE
8
BLACK
10
78.8888
20
-181.008
11
78.71
21
-181.186
0
LINE
8
BLACK
10
78.71
20
-181.186
11
78.6794
21
-181.26
0
LINE
8
BLACK
10
78.6794
20
-181.26
11
74.3519
21
-181.26
0
LINE
8
BLACK
10
74.3519
20
-181.26
11
73.9524
21
-180.86
0
LINE
8
BLACK
10
73.9524
20
-180.86
11
73.3516
21
-180.61
0
LINE
8
BLACK
10
73.3516
20
-180.61
11
72.7012
21
-180.61
0
LINE
8
BLACK
10
72.7012
20
-180.61
11
72.1001
21
-180.858
0
LINE
8
BLACK
10
72.1001
20
-180.858
11
71.6397
21
-181.318
0
LINE
8
BLACK
10
71.6397
20
-181.318
11
71.3903
21
-181.918
0
LINE
8
BLACK
10
71.3903
20
-181.918
11
71.3897
21
-182.569
0
LINE
8
BLACK
10
71.3897
20
-182.569
11
71.6381
21
-183.17
0
LINE
8
BLACK
10
71.6381
20
-183.17
11
72.0976
21
-183.63
0
LINE
8
BLACK
10
72.0976
20
-183.63
11
72.6984
21
-183.88
0
LINE
8
BLACK
10
72.6984
20
-183.88
11
73.3488
21
-183.88
0
LINE
8
BLACK
10
73.3488
20
-183.88
11
73.9499
21
-183.632
0
LINE
8
BLACK
10
73.9499
20
-183.632
11
74.3525
21
-183.23
0
LINE
8
BLACK
10
74.3525
20
-183.23
11
75.0469
21
-183.23
0
LINE
8
BLACK
10
75.0469
20
-183.23
11
74.6401
21
-183.398
0
LINE
8
BLACK
10
74.6401
20
-183.398
11
74.1797
21
-183.858
0
LINE
8
BLACK
10
74.1797
20
-183.858
11
73.9303
21
-184.458
0
LINE
8
BLACK
10
73.9303
20
-184.458
11
73.9297
21
-185.109
0
LINE
8
BLACK
10
73.9297
20
-185.109
11
74.1781
21
-185.71
0
LINE
8
BLACK
10
74.1781
20
-185.71
11
74.6376
21
-186.17
0
LINE
8
BLACK
10
74.6376
20
-186.17
11
75.2384
21
-186.42
0
LINE
8
BLACK
10
75.2384
20
-186.42
11
75.8072
21
-186.42
0
LINE
8
BLACK
10
75.8072
20
-186.42
11
78.6785
21
-189.292
0
LINE
8
BLACK
10
78.6785
20
-189.292
11
78.6785
21
-189.292
0
LINE
8
BLACK
10
78.6785
20
-189.292
11
78.892
21
-189.434
0
LINE
8
BLACK
10
78.892
20
-189.434
11
78.9981
21
-189.505
0
LINE
8
BLACK
10
78.9981
20
-189.505
11
78.9981
21
-189.505
0
LINE
8
BLACK
10
78.9981
20
-189.505
11
79.375
21
-189.58
0
LINE
8
BLACK
10
79.375
20
-189.58
11
82.4099
21
-189.58
0
LINE
8
BLACK
10
82.4099
20
-189.58
11
82.4238
21
-189.601
0
LINE
8
BLACK
10
82.4238
20
-189.601
11
82.8192
21
-189.865
0
LINE
8
BLACK
10
82.8192
20
-189.865
11
82.4238
21
-190.129
0
LINE
8
BLACK
10
82.4238
20
-190.129
11
82.1154
21
-190.591
0
LINE
8
BLACK
10
82.1154
20
-190.591
11
82.0072
21
-191.135
0
LINE
8
BLACK
10
82.0072
20
-191.135
11
82.1154
21
-191.679
0
LINE
8
BLACK
10
82.1154
20
-191.679
11
82.185
21
-191.783
0
LINE
8
BLACK
10
82.185
20
-191.783
11
82.185
21
-193.027
0
LINE
8
BLACK
10
82.185
20
-193.027
11
82.1154
21
-193.131
0
LINE
8
BLACK
10
82.1154
20
-193.131
11
82.0072
21
-193.675
0
LINE
8
BLACK
10
82.0072
20
-193.675
11
82.1154
21
-194.219
0
LINE
8
BLACK
10
82.1154
20
-194.219
11
82.185
21
-194.323
0
LINE
8
BLACK
10
82.185
20
-194.323
11
82.185
21
-194.58
0
LINE
8
BLACK
10
82.185
20
-194.58
11
80.0522
21
-194.58
0
LINE
8
BLACK
10
80.0522
20
-194.58
11
79.6291
21
-194.157
0
LINE
8
BLACK
10
79.6291
20
-194.157
11
79.6291
21
-193.93
0
LINE
8
BLACK
10
79.6291
20
-193.93
11
79.5326
21
-193.697
0
LINE
8
BLACK
10
79.5326
20
-193.697
11
79.3542
21
-193.518
0
LINE
8
BLACK
10
79.3542
20
-193.518
11
79.1209
21
-193.421
0
LINE
8
BLACK
10
79.1209
20
-193.421
11
78.8682
21
-193.421
0
LINE
8
BLACK
10
78.8682
20
-193.421
11
78.6625
21
-193.421
0
LINE
8
BLACK
10
78.6625
20
-193.421
11
78.105
21
-193.31
0
LINE
8
BLACK
10
78.105
20
-193.31
11
77.5475
21
-193.421
0
LINE
8
BLACK
10
77.5475
20
-193.421
11
77.0902
21
-193.421
0
LINE
8
BLACK
10
77.0902
20
-193.421
11
76.8568
21
-193.517
0
LINE
8
BLACK
10
76.8568
20
-193.517
11
76.678
21
-193.696
0
LINE
8
BLACK
10
76.678
20
-193.696
11
76.5811
21
-193.929
0
LINE
8
BLACK
10
76.5811
20
-193.929
11
76.5809
21
-194.182
0
LINE
8
BLACK
10
76.5809
20
-194.182
11
76.5809
21
-194.388
0
LINE
8
BLACK
10
76.5809
20
-194.388
11
76.47
21
-194.945
0
LINE
8
BLACK
10
76.47
20
-194.945
11
76.5809
21
-195.502
0
LINE
8
BLACK
10
76.5809
20
-195.502
11
76.5809
21
-195.96
0
LINE
8
BLACK
10
76.5809
20
-195.96
11
76.6774
21
-196.193
0
LINE
8
BLACK
10
76.6774
20
-196.193
11
76.8558
21
-196.372
0
LINE
8
BLACK
10
76.8558
20
-196.372
11
77.0891
21
-196.469
0
LINE
8
BLACK
10
77.0891
20
-196.469
11
77.3168
21
-196.469
0
LINE
8
BLACK
10
77.3168
20
-196.469
11
78.2189
21
-197.371
0
LINE
8
BLACK
10
78.2189
20
-197.371
11
78.2189
21
-197.371
0
LINE
8
BLACK
10
78.2189
20
-197.371
11
78.5369
21
-197.584
0
LINE
8
BLACK
10
78.5369
20
-197.584
11
78.7493
21
-197.726
0
LINE
8
BLACK
10
78.7493
20
-197.726
11
78.7493
21
-197.726
0
LINE
8
BLACK
10
78.7493
20
-197.726
11
79.375
21
-197.85
0
LINE
8
BLACK
10
79.375
20
-197.85
11
83.82
21
-197.85
0
LINE
8
BLACK
10
83.82
20
-197.85
11
89.17
21
-197.85
0
LINE
8
BLACK
10
89.17
20
-197.85
11
89.17
21
-202.24
0
LINE
8
BLACK
10
89.17
20
-202.24
11
88.1792
21
-202.24
0
LINE
8
BLACK
10
88.1792
20
-202.24
11
87.9458
21
-202.336
0
LINE
8
BLACK
10
87.9458
20
-202.336
11
87.767
21
-202.515
0
LINE
8
BLACK
10
87.767
20
-202.515
11
87.6701
21
-202.748
0
LINE
8
BLACK
10
87.6701
20
-202.748
11
87.6699
21
-203.001
0
LINE
8
BLACK
10
87.6699
20
-203.001
11
87.6699
21
-210.001
0
LINE
8
BLACK
10
87.6699
20
-210.001
11
87.7664
21
-210.234
0
LINE
8
BLACK
10
87.7664
20
-210.234
11
87.9448
21
-210.413
0
LINE
8
BLACK
10
87.9448
20
-210.413
11
88.1781
21
-210.51
0
LINE
8
BLACK
10
88.1781
20
-210.51
11
88.4308
21
-210.51
0
LINE
8
BLACK
10
88.4308
20
-210.51
11
93.4308
21
-210.51
0
LINE
8
BLACK
10
93.4308
20
-210.51
11
93.6642
21
-210.414
0
LINE
8
BLACK
10
93.6642
20
-210.414
11
93.843
21
-210.235
0
LINE
8
BLACK
10
93.843
20
-210.235
11
93.93
21
-210.026
0
LINE
8
BLACK
10
93.93
20
-210.026
11
93.93
21
-224.74
0
LINE
8
BLACK
10
93.93
20
-224.74
11
86.3601
21
-224.74
0
LINE
8
BLACK
10
86.3601
20
-224.74
11
86.3601
21
-223.394
0
LINE
8
BLACK
10
86.3601
20
-223.394
11
86.3601
21
-214.504
0
LINE
8
BLACK
10
86.3601
20
-214.504
11
86.2636
21
-214.271
0
LINE
8
BLACK
10
86.2636
20
-214.271
11
86.0852
21
-214.092
0
LINE
8
BLACK
10
86.0852
20
-214.092
11
85.8519
21
-213.995
0
LINE
8
BLACK
10
85.8519
20
-213.995
11
85.5992
21
-213.995
0
LINE
8
BLACK
10
85.5992
20
-213.995
11
83.7801
21
-213.995
0
LINE
8
BLACK
10
83.7801
20
-213.995
11
83.7801
21
-209.749
0
LINE
8
BLACK
10
83.7801
20
-209.749
11
83.7801
21
-202.749
0
LINE
8
BLACK
10
83.7801
20
-202.749
11
83.6836
21
-202.516
0
LINE
8
BLACK
10
83.6836
20
-202.516
11
83.5052
21
-202.337
0
LINE
8
BLACK
10
83.5052
20
-202.337
11
83.2719
21
-202.24
0
LINE
8
BLACK
10
83.2719
20
-202.24
11
83.0192
21
-202.24
0
LINE
8
BLACK
10
83.0192
20
-202.24
11
78.0192
21
-202.24
0
LINE
8
BLACK
10
78.0192
20
-202.24
11
77.7858
21
-202.336
0
LINE
8
BLACK
10
77.7858
20
-202.336
11
77.607
21
-202.515
0
LINE
8
BLACK
10
77.607
20
-202.515
11
77.5101
21
-202.748
0
LINE
8
BLACK
10
77.5101
20
-202.748
11
77.5099
21
-203.001
0
LINE
8
BLACK
10
77.5099
20
-203.001
11
77.5099
21
-207.198
0
LINE
8
BLACK
10
77.5099
20
-207.198
11
75.5228
21
-209.185
0
LINE
8
BLACK
10
75.5228
20
-209.185
11
74.2953
21
-209.185
0
LINE
8
BLACK
10
74.2953
20
-209.185
11
73.9712
21
-209.185
0
LINE
8
BLACK
10
73.9712
20
-209.185
11
73.3701
21
-209.433
0
LINE
8
BLACK
10
73.3701
20
-209.433
11
73.1389
21
-209.664
0
LINE
8
BLACK
10
73.1389
20
-209.664
11
73.1389
21
-209.664
0
LINE
8
BLACK
10
73.1389
20
-209.664
11
73.1389
21
-209.664
0
LINE
8
BLACK
10
73.1389
20
-209.664
11
72.9097
21
-209.893
0
LINE
8
BLACK
10
72.9097
20
-209.893
11
72.6603
21
-210.493
0
LINE
8
BLACK
10
72.6603
20
-210.493
11
72.6597
21
-211.144
0
LINE
8
BLACK
10
72.6597
20
-211.144
11
72.66
21
-211.144
0
LINE
8
BLACK
10
72.66
20
-211.144
11
72.66
21
-217.128
0
LINE
8
BLACK
10
72.66
20
-217.128
11
72.3478
21
-217.44
0
LINE
8
BLACK
10
72.3478
20
-217.44
11
66.1646
21
-217.44
0
LINE
8
BLACK
10
66.1646
20
-217.44
11
66.4047
21
-216.862
0
LINE
8
BLACK
10
66.4047
20
-216.862
11
66.4053
21
-216.211
0
LINE
8
BLACK
10
66.4053
20
-216.211
11
66.1569
21
-215.61
0
LINE
8
BLACK
10
66.1569
20
-215.61
11
66.1015
21
-215.555
0
LINE
8
BLACK
10
66.1015
20
-215.555
11
66.3482
21
-215.506
0
LINE
8
BLACK
10
66.3482
20
-215.506
11
66.797
21
-215.206
0
LINE
8
BLACK
10
66.797
20
-215.206
11
66.8228
21
-215.232
0
LINE
8
BLACK
10
66.8228
20
-215.232
11
67.0561
21
-215.328
0
LINE
8
BLACK
10
67.0561
20
-215.328
11
67.3088
21
-215.329
0
LINE
8
BLACK
10
67.3088
20
-215.329
11
68.1978
21
-215.329
0
LINE
8
BLACK
10
68.1978
20
-215.329
11
68.4312
21
-215.232
0
LINE
8
BLACK
10
68.4312
20
-215.232
11
68.61
21
-215.054
0
LINE
8
BLACK
10
68.61
20
-215.054
11
68.7069
21
-214.82
0
LINE
8
BLACK
10
68.7069
20
-214.82
11
68.7071
21
-214.568
0
LINE
8
BLACK
10
68.7071
20
-214.568
11
68.7071
21
-213.991
0
LINE
8
BLACK
10
68.7071
20
-213.991
11
69.2765
21
-213.422
0
LINE
8
BLACK
10
69.2765
20
-213.422
11
69.49
21
-213.102
0
LINE
8
BLACK
10
69.49
20
-213.102
11
69.565
21
-212.725
0
LINE
8
BLACK
10
69.565
20
-212.725
11
69.565
21
-212.725
0
LINE
8
BLACK
10
69.565
20
-212.725
11
69.565
21
-209.323
0
LINE
8
BLACK
10
69.565
20
-209.323
11
71.1815
21
-207.707
0
LINE
8
BLACK
10
71.1815
20
-207.707
11
71.1815
21
-207.707
0
LINE
8
BLACK
10
71.1815
20
-207.707
11
71.3242
21
-207.493
0
LINE
8
BLACK
10
71.3242
20
-207.493
11
71.395
21
-207.387
0
LINE
8
BLACK
10
71.395
20
-207.387
11
71.395
21
-207.387
0
LINE
8
BLACK
10
71.395
20
-207.387
11
71.47
21
-207.01
0
LINE
8
BLACK
10
71.47
20
-207.01
11
71.47
21
-207.01
0
LINE
8
BLACK
10
71.47
20
-207.01
11
71.47
21
-190.273
0
LINE
8
BLACK
10
71.47
20
-190.273
11
72.7832
21
-188.96
0
LINE
8
BLACK
10
72.7832
20
-188.96
11
73.3488
21
-188.96
0
LINE
8
BLACK
10
73.3488
20
-188.96
11
73.9499
21
-188.712
0
LINE
8
BLACK
10
73.9499
20
-188.712
11
74.4103
21
-188.252
0
LINE
8
BLACK
10
74.4103
20
-188.252
11
74.6597
21
-187.652
0
LINE
8
BLACK
10
74.6597
20
-187.652
11
74.6603
21
-187.001
0
LINE
8
BLACK
10
74.6603
20
-187.001
11
74.4119
21
-186.4
0
LINE
8
BLACK
10
74.4119
20
-186.4
11
73.9524
21
-185.94
0
LINE
8
BLACK
10
73.9524
20
-185.94
11
73.3516
21
-185.69
0
LINE
8
BLACK
10
73.3516
20
-185.69
11
72.7012
21
-185.69
0
LINE
8
BLACK
10
72.7012
20
-185.69
11
72.1001
21
-185.938
0
LINE
8
BLACK
10
72.1001
20
-185.938
11
71.6397
21
-186.398
0
LINE
8
BLACK
10
71.6397
20
-186.398
11
71.3903
21
-186.998
0
LINE
8
BLACK
10
71.3903
20
-186.998
11
71.3898
21
-187.567
0
LINE
8
BLACK
10
71.3898
20
-187.567
11
69.7885
21
-189.169
0
LINE
8
BLACK
10
69.7885
20
-189.169
11
69.575
21
-189.488
0
LINE
8
BLACK
10
69.575
20
-189.488
11
69.5
21
-189.865
0
LINE
8
BLACK
10
69.5
20
-189.865
11
69.5
21
-206.602
0
LINE
8
BLACK
10
69.5
20
-206.602
11
67.8835
21
-208.219
0
LINE
8
BLACK
10
67.8835
20
-208.219
11
67.6753
21
-208.53
0
LINE
8
BLACK
10
67.6753
20
-208.53
11
67.6753
21
-204.146
0
LINE
8
BLACK
10
67.6753
20
-204.146
11
67.6753
21
-199.066
0
LINE
8
BLACK
10
67.6753
20
-199.066
11
67.6753
21
-193.986
0
LINE
8
BLACK
10
67.6753
20
-193.986
11
67.6753
21
-188.906
0
LINE
8
BLACK
10
67.6753
20
-188.906
11
67.6753
21
-183.826
0
LINE
8
BLACK
10
67.6753
20
-183.826
11
67.6753
21
-178.746
0
LINE
8
BLACK
10
67.6753
20
-178.746
11
67.4269
21
-178.145
0
LINE
8
BLACK
10
67.4269
20
-178.145
11
66.9674
21
-177.685
0
LINE
8
BLACK
10
66.9674
20
-177.685
11
66.3666
21
-177.435
0
LINE
8
BLACK
10
66.3666
20
-177.435
11
65.7162
21
-177.435
0
LINE
8
BLACK
10
65.7162
20
-177.435
11
65.1151
21
-177.683
0
LINE
8
BLACK
10
65.1151
20
-177.683
11
64.7125
21
-178.085
0
LINE
8
BLACK
10
64.7125
20
-178.085
11
64.1282
21
-178.085
0
LINE
8
BLACK
10
64.1282
20
-178.085
11
64.1272
21
-178.085
0
LINE
8
BLACK
10
64.1272
20
-178.085
11
63.8746
21
-178.084
0
LINE
8
BLACK
10
63.8746
20
-178.084
11
62.8739
21
-178.084
0
LINE
8
BLACK
10
62.8739
20
-178.084
11
62.6404
21
-178.181
0
LINE
8
BLACK
10
62.6404
20
-178.181
11
62.4616
21
-178.359
0
LINE
8
BLACK
10
62.4616
20
-178.359
11
62.3647
21
-178.593
0
LINE
8
BLACK
10
62.3647
20
-178.593
11
62.3645
21
-178.845
0
LINE
8
BLACK
10
62.3645
20
-178.845
11
62.3645
21
-178.971
0
LINE
8
BLACK
10
62.3645
20
-178.971
11
62.3448
21
-179.07
0
LINE
8
BLACK
10
62.3448
20
-179.07
11
62.3645
21
-179.169
0
LINE
8
BLACK
10
62.3645
20
-179.169
11
62.3645
21
-179.546
0
LINE
8
BLACK
10
62.3645
20
-179.546
11
62.461
21
-179.78
0
LINE
8
BLACK
10
62.461
20
-179.78
11
62.6395
21
-179.959
0
LINE
8
BLACK
10
62.6395
20
-179.959
11
62.8728
21
-180.055
0
LINE
8
BLACK
10
62.8728
20
-180.055
11
63.1254
21
-180.056
0
LINE
8
BLACK
10
63.1254
20
-180.056
11
64.1261
21
-180.056
0
LINE
8
BLACK
10
64.1261
20
-180.056
11
64.1277
21
-180.055
0
LINE
8
BLACK
10
64.1277
20
-180.055
11
64.7131
21
-180.055
0
LINE
8
BLACK
10
64.7131
20
-180.055
11
65.1126
21
-180.455
0
LINE
8
BLACK
10
65.1126
20
-180.455
11
65.7134
21
-180.705
0
LINE
8
BLACK
10
65.7134
20
-180.705
11
66.3638
21
-180.705
0
LINE
8
BLACK
10
66.3638
20
-180.705
11
66.9649
21
-180.457
0
LINE
8
BLACK
10
66.9649
20
-180.457
11
67.4253
21
-179.997
0
LINE
8
BLACK
10
67.4253
20
-179.997
11
67.6747
21
-179.397
0
LINE
8
BLACK
10
67.6747
20
-179.397
11
67.6753
21
-178.746
0
LINE
8
BLACK
10
67.6753
20
-178.746
11
67.6753
21
-183.826
0
LINE
8
BLACK
10
67.6753
20
-183.826
11
67.4269
21
-183.225
0
LINE
8
BLACK
10
67.4269
20
-183.225
11
66.9674
21
-182.765
0
LINE
8
BLACK
10
66.9674
20
-182.765
11
66.3666
21
-182.515
0
LINE
8
BLACK
10
66.3666
20
-182.515
11
65.7162
21
-182.515
0
LINE
8
BLACK
10
65.7162
20
-182.515
11
65.1151
21
-182.763
0
LINE
8
BLACK
10
65.1151
20
-182.763
11
64.7125
21
-183.165
0
LINE
8
BLACK
10
64.7125
20
-183.165
11
64.1282
21
-183.165
0
LINE
8
BLACK
10
64.1282
20
-183.165
11
64.1272
21
-183.165
0
LINE
8
BLACK
10
64.1272
20
-183.165
11
63.8746
21
-183.164
0
LINE
8
BLACK
10
63.8746
20
-183.164
11
62.8739
21
-183.164
0
LINE
8
BLACK
10
62.8739
20
-183.164
11
62.6404
21
-183.261
0
LINE
8
BLACK
10
62.6404
20
-183.261
11
62.4616
21
-183.439
0
LINE
8
BLACK
10
62.4616
20
-183.439
11
62.3647
21
-183.673
0
LINE
8
BLACK
10
62.3647
20
-183.673
11
62.3645
21
-183.925
0
LINE
8
BLACK
10
62.3645
20
-183.925
11
62.3645
21
-184.051
0
LINE
8
BLACK
10
62.3645
20
-184.051
11
62.3448
21
-184.15
0
LINE
8
BLACK
10
62.3448
20
-184.15
11
62.3645
21
-184.249
0
LINE
8
BLACK
10
62.3645
20
-184.249
11
62.3645
21
-184.626
0
LINE
8
BLACK
10
62.3645
20
-184.626
11
62.461
21
-184.86
0
LINE
8
BLACK
10
62.461
20
-184.86
11
62.6395
21
-185.039
0
LINE
8
BLACK
10
62.6395
20
-185.039
11
62.8728
21
-185.135
0
LINE
8
BLACK
10
62.8728
20
-185.135
11
63.1254
21
-185.136
0
LINE
8
BLACK
10
63.1254
20
-185.136
11
64.1261
21
-185.136
0
LINE
8
BLACK
10
64.1261
20
-185.136
11
64.1277
21
-185.135
0
LINE
8
BLACK
10
64.1277
20
-185.135
11
64.7131
21
-185.135
0
LINE
8
BLACK
10
64.7131
20
-185.135
11
65.1126
21
-185.535
0
LINE
8
BLACK
10
65.1126
20
-185.535
11
65.7134
21
-185.785
0
LINE
8
BLACK
10
65.7134
20
-185.785
11
66.3638
21
-185.785
0
LINE
8
BLACK
10
66.3638
20
-185.785
11
66.9649
21
-185.537
0
LINE
8
BLACK
10
66.9649
20
-185.537
11
67.4253
21
-185.077
0
LINE
8
BLACK
10
67.4253
20
-185.077
11
67.6747
21
-184.477
0
LINE
8
BLACK
10
67.6747
20
-184.477
11
67.6753
21
-183.826
0
LINE
8
BLACK
10
67.6753
20
-183.826
11
67.6753
21
-188.906
0
LINE
8
BLACK
10
67.6753
20
-188.906
11
67.4269
21
-188.305
0
LINE
8
BLACK
10
67.4269
20
-188.305
11
66.9674
21
-187.845
0
LINE
8
BLACK
10
66.9674
20
-187.845
11
66.3666
21
-187.595
0
LINE
8
BLACK
10
66.3666
20
-187.595
11
65.7162
21
-187.595
0
LINE
8
BLACK
10
65.7162
20
-187.595
11
65.1151
21
-187.843
0
LINE
8
BLACK
10
65.1151
20
-187.843
11
64.7125
21
-188.245
0
LINE
8
BLACK
10
64.7125
20
-188.245
11
64.1282
21
-188.245
0
LINE
8
BLACK
10
64.1282
20
-188.245
11
64.1272
21
-188.245
0
LINE
8
BLACK
10
64.1272
20
-188.245
11
63.8746
21
-188.244
0
LINE
8
BLACK
10
63.8746
20
-188.244
11
62.8739
21
-188.244
0
LINE
8
BLACK
10
62.8739
20
-188.244
11
62.6404
21
-188.341
0
LINE
8
BLACK
10
62.6404
20
-188.341
11
62.4616
21
-188.519
0
LINE
8
BLACK
10
62.4616
20
-188.519
11
62.3647
21
-188.753
0
LINE
8
BLACK
10
62.3647
20
-188.753
11
62.3645
21
-189.005
0
LINE
8
BLACK
10
62.3645
20
-189.005
11
62.3645
21
-189.131
0
LINE
8
BLACK
10
62.3645
20
-189.131
11
62.3448
21
-189.23
0
LINE
8
BLACK
10
62.3448
20
-189.23
11
62.3645
21
-189.329
0
LINE
8
BLACK
10
62.3645
20
-189.329
11
62.3645
21
-189.706
0
LINE
8
BLACK
10
62.3645
20
-189.706
11
62.461
21
-189.94
0
LINE
8
BLACK
10
62.461
20
-189.94
11
62.6395
21
-190.119
0
LINE
8
BLACK
10
62.6395
20
-190.119
11
62.8728
21
-190.215
0
LINE
8
BLACK
10
62.8728
20
-190.215
11
63.1254
21
-190.216
0
LINE
8
BLACK
10
63.1254
20
-190.216
11
64.1261
21
-190.216
0
LINE
8
BLACK
10
64.1261
20
-190.216
11
64.1277
21
-190.215
0
LINE
8
BLACK
10
64.1277
20
-190.215
11
64.7131
21
-190.215
0
LINE
8
BLACK
10
64.7131
20
-190.215
11
65.1126
21
-190.615
0
LINE
8
BLACK
10
65.1126
20
-190.615
11
65.7134
21
-190.865
0
LINE
8
BLACK
10
65.7134
20
-190.865
11
66.3638
21
-190.865
0
LINE
8
BLACK
10
66.3638
20
-190.865
11
66.9649
21
-190.617
0
LINE
8
BLACK
10
66.9649
20
-190.617
11
67.4253
21
-190.157
0
LINE
8
BLACK
10
67.4253
20
-190.157
11
67.6747
21
-189.557
0
LINE
8
BLACK
10
67.6747
20
-189.557
11
67.6753
21
-188.906
0
LINE
8
BLACK
10
67.6753
20
-188.906
11
67.6753
21
-193.986
0
LINE
8
BLACK
10
67.6753
20
-193.986
11
67.4269
21
-193.385
0
LINE
8
BLACK
10
67.4269
20
-193.385
11
66.9674
21
-192.925
0
LINE
8
BLACK
10
66.9674
20
-192.925
11
66.3666
21
-192.675
0
LINE
8
BLACK
10
66.3666
20
-192.675
11
65.7162
21
-192.675
0
LINE
8
BLACK
10
65.7162
20
-192.675
11
65.1151
21
-192.923
0
LINE
8
BLACK
10
65.1151
20
-192.923
11
64.7125
21
-193.325
0
LINE
8
BLACK
10
64.7125
20
-193.325
11
64.1282
21
-193.325
0
LINE
8
BLACK
10
64.1282
20
-193.325
11
64.1272
21
-193.325
0
LINE
8
BLACK
10
64.1272
20
-193.325
11
63.8746
21
-193.324
0
LINE
8
BLACK
10
63.8746
20
-193.324
11
62.8739
21
-193.324
0
LINE
8
BLACK
10
62.8739
20
-193.324
11
62.6404
21
-193.421
0
LINE
8
BLACK
10
62.6404
20
-193.421
11
62.4616
21
-193.599
0
LINE
8
BLACK
10
62.4616
20
-193.599
11
62.3647
21
-193.833
0
LINE
8
BLACK
10
62.3647
20
-193.833
11
62.3645
21
-194.085
0
LINE
8
BLACK
10
62.3645
20
-194.085
11
62.3645
21
-194.211
0
LINE
8
BLACK
10
62.3645
20
-194.211
11
62.3448
21
-194.31
0
LINE
8
BLACK
10
62.3448
20
-194.31
11
62.3645
21
-194.409
0
LINE
8
BLACK
10
62.3645
20
-194.409
11
62.3645
21
-194.786
0
LINE
8
BLACK
10
62.3645
20
-194.786
11
62.461
21
-195.02
0
LINE
8
BLACK
10
62.461
20
-195.02
11
62.6395
21
-195.199
0
LINE
8
BLACK
10
62.6395
20
-195.199
11
62.8728
21
-195.295
0
LINE
8
BLACK
10
62.8728
20
-195.295
11
63.1254
21
-195.296
0
LINE
8
BLACK
10
63.1254
20
-195.296
11
64.1261
21
-195.296
0
LINE
8
BLACK
10
64.1261
20
-195.296
11
64.1277
21
-195.295
0
LINE
8
BLACK
10
64.1277
20
-195.295
11
64.7131
21
-195.295
0
LINE
8
BLACK
10
64.7131
20
-195.295
11
65.1126
21
-195.695
0
LINE
8
BLACK
10
65.1126
20
-195.695
11
65.7134
21
-195.945
0
LINE
8
BLACK
10
65.7134
20
-195.945
11
66.3638
21
-195.945
0
LINE
8
BLACK
10
66.3638
20
-195.945
11
66.9649
21
-195.697
0
LINE
8
BLACK
10
66.9649
20
-195.697
11
67.4253
21
-195.237
0
LINE
8
BLACK
10
67.4253
20
-195.237
11
67.6747
21
-194.637
0
LINE
8
BLACK
10
67.6747
20
-194.637
11
67.6753
21
-193.986
0
LINE
8
BLACK
10
67.6753
20
-193.986
11
67.6753
21
-199.066
0
LINE
8
BLACK
10
67.6753
20
-199.066
11
67.4269
21
-198.465
0
LINE
8
BLACK
10
67.4269
20
-198.465
11
66.9674
21
-198.005
0
LINE
8
BLACK
10
66.9674
20
-198.005
11
66.3666
21
-197.755
0
LINE
8
BLACK
10
66.3666
20
-197.755
11
65.7162
21
-197.755
0
LINE
8
BLACK
10
65.7162
20
-197.755
11
65.1151
21
-198.003
0
LINE
8
BLACK
10
65.1151
20
-198.003
11
64.7125
21
-198.405
0
LINE
8
BLACK
10
64.7125
20
-198.405
11
64.1282
21
-198.405
0
LINE
8
BLACK
10
64.1282
20
-198.405
11
64.1272
21
-198.405
0
LINE
8
BLACK
10
64.1272
20
-198.405
11
63.8746
21
-198.404
0
LINE
8
BLACK
10
63.8746
20
-198.404
11
62.8739
21
-198.404
0
LINE
8
BLACK
10
62.8739
20
-198.404
11
62.6404
21
-198.501
0
LINE
8
BLACK
10
62.6404
20
-198.501
11
62.4616
21
-198.679
0
LINE
8
BLACK
10
62.4616
20
-198.679
11
62.3647
21
-198.913
0
LINE
8
BLACK
10
62.3647
20
-198.913
11
62.3645
21
-199.165
0
LINE
8
BLACK
10
62.3645
20
-199.165
11
62.3645
21
-199.291
0
LINE
8
BLACK
10
62.3645
20
-199.291
11
62.3448
21
-199.39
0
LINE
8
BLACK
10
62.3448
20
-199.39
11
62.3645
21
-199.489
0
LINE
8
BLACK
10
62.3645
20
-199.489
11
62.3645
21
-199.866
0
LINE
8
BLACK
10
62.3645
20
-199.866
11
62.461
21
-200.1
0
LINE
8
BLACK
10
62.461
20
-200.1
11
62.6395
21
-200.279
0
LINE
8
BLACK
10
62.6395
20
-200.279
11
62.8728
21
-200.375
0
LINE
8
BLACK
10
62.8728
20
-200.375
11
63.1254
21
-200.376
0
LINE
8
BLACK
10
63.1254
20
-200.376
11
64.1261
21
-200.376
0
LINE
8
BLACK
10
64.1261
20
-200.376
11
64.1277
21
-200.375
0
LINE
8
BLACK
10
64.1277
20
-200.375
11
64.7131
21
-200.375
0
LINE
8
BLACK
10
64.7131
20
-200.375
11
65.1126
21
-200.775
0
LINE
8
BLACK
10
65.1126
20
-200.775
11
65.7134
21
-201.025
0
LINE
8
BLACK
10
65.7134
20
-201.025
11
66.3638
21
-201.025
0
LINE
8
BLACK
10
66.3638
20
-201.025
11
66.9649
21
-200.777
0
LINE
8
BLACK
10
66.9649
20
-200.777
11
67.4253
21
-200.317
0
LINE
8
BLACK
10
67.4253
20
-200.317
11
67.6747
21
-199.717
0
LINE
8
BLACK
10
67.6747
20
-199.717
11
67.6753
21
-199.066
0
LINE
8
BLACK
10
67.6753
20
-199.066
11
67.6753
21
-204.146
0
LINE
8
BLACK
10
67.6753
20
-204.146
11
67.4269
21
-203.545
0
LINE
8
BLACK
10
67.4269
20
-203.545
11
66.9674
21
-203.085
0
LINE
8
BLACK
10
66.9674
20
-203.085
11
66.3666
21
-202.835
0
LINE
8
BLACK
10
66.3666
20
-202.835
11
65.7162
21
-202.835
0
LINE
8
BLACK
10
65.7162
20
-202.835
11
65.1151
21
-203.083
0
LINE
8
BLACK
10
65.1151
20
-203.083
11
64.7125
21
-203.485
0
LINE
8
BLACK
10
64.7125
20
-203.485
11
64.1282
21
-203.485
0
LINE
8
BLACK
10
64.1282
20
-203.485
11
64.1272
21
-203.485
0
LINE
8
BLACK
10
64.1272
20
-203.485
11
63.8746
21
-203.484
0
LINE
8
BLACK
10
63.8746
20
-203.484
11
62.8739
21
-203.484
0
LINE
8
BLACK
10
62.8739
20
-203.484
11
62.6404
21
-203.581
0
LINE
8
BLACK
10
62.6404
20
-203.581
11
62.4616
21
-203.759
0
LINE
8
BLACK
10
62.4616
20
-203.759
11
62.3647
21
-203.993
0
LINE
8
BLACK
10
62.3647
20
-203.993
11
62.3645
21
-204.245
0
LINE
8
BLACK
10
62.3645
20
-204.245
11
62.3645
21
-204.371
0
LINE
8
BLACK
10
62.3645
20
-204.371
11
62.3448
21
-204.47
0
LINE
8
BLACK
10
62.3448
20
-204.47
11
62.3645
21
-204.569
0
LINE
8
BLACK
10
62.3645
20
-204.569
11
62.3645
21
-204.946
0
LINE
8
BLACK
10
62.3645
20
-204.946
11
62.461
21
-205.18
0
LINE
8
BLACK
10
62.461
20
-205.18
11
62.6395
21
-205.359
0
LINE
8
BLACK
10
62.6395
20
-205.359
11
62.8728
21
-205.455
0
LINE
8
BLACK
10
62.8728
20
-205.455
11
63.1254
21
-205.456
0
LINE
8
BLACK
10
63.1254
20
-205.456
11
64.1261
21
-205.456
0
LINE
8
BLACK
10
64.1261
20
-205.456
11
64.1277
21
-205.455
0
LINE
8
BLACK
10
64.1277
20
-205.455
11
64.7131
21
-205.455
0
LINE
8
BLACK
10
64.7131
20
-205.455
11
65.1126
21
-205.855
0
LINE
8
BLACK
10
65.1126
20
-205.855
11
65.7134
21
-206.105
0
LINE
8
BLACK
10
65.7134
20
-206.105
11
66.3638
21
-206.105
0
LINE
8
BLACK
10
66.3638
20
-206.105
11
66.9649
21
-205.857
0
LINE
8
BLACK
10
66.9649
20
-205.857
11
67.4253
21
-205.397
0
LINE
8
BLACK
10
67.4253
20
-205.397
11
67.6747
21
-204.797
0
LINE
8
BLACK
10
67.6747
20
-204.797
11
67.6753
21
-204.146
0
LINE
8
BLACK
10
67.6753
20
-204.146
11
67.6753
21
-208.53
0
LINE
8
BLACK
10
67.6753
20
-208.53
11
67.67
21
-208.538
0
LINE
8
BLACK
10
67.67
20
-208.538
11
67.595
21
-208.915
0
LINE
8
BLACK
10
67.595
20
-208.915
11
67.595
21
-209.432
0
LINE
8
BLACK
10
67.595
20
-209.432
11
67.3007
21
-209.309
0
LINE
8
BLACK
10
67.3007
20
-209.309
11
67.0016
21
-209.185
0
LINE
8
BLACK
10
67.0016
20
-209.185
11
66.3512
21
-209.185
0
LINE
8
BLACK
10
66.3512
20
-209.185
11
66.3505
21
-209.185
0
LINE
8
BLACK
10
66.3505
20
-209.185
11
65.4472
21
-209.185
0
LINE
8
BLACK
10
65.4472
20
-209.185
11
64.6561
21
-208.394
0
LINE
8
BLACK
10
64.6561
20
-208.394
11
64.6561
21
-208.394
0
LINE
8
BLACK
10
64.6561
20
-208.394
11
64.6561
21
-208.394
0
LINE
8
BLACK
10
64.6561
20
-208.394
11
64.4274
21
-208.165
0
LINE
8
BLACK
10
64.4274
20
-208.165
11
64.1257
21
-208.039
0
LINE
8
BLACK
10
64.1257
20
-208.039
11
64.1257
21
-208.039
0
LINE
8
BLACK
10
64.1257
20
-208.039
11
63.8266
21
-207.915
0
LINE
8
BLACK
10
63.8266
20
-207.915
11
63.5
21
-207.915
0
LINE
8
BLACK
10
63.5
20
-207.915
11
63.5
21
-207.915
0
LINE
8
BLACK
10
63.5
20
-207.915
11
63.5
21
-207.915
0
LINE
8
BLACK
10
63.5
20
-207.915
11
63.1762
21
-207.915
0
LINE
8
BLACK
10
63.1762
20
-207.915
11
62.8743
21
-208.039
0
LINE
8
BLACK
10
62.8743
20
-208.039
11
62.8743
21
-208.039
0
LINE
8
BLACK
10
62.8743
20
-208.039
11
62.8743
21
-208.039
0
LINE
8
BLACK
10
62.8743
20
-208.039
11
62.5751
21
-208.163
0
LINE
8
BLACK
10
62.5751
20
-208.163
11
62.3439
21
-208.394
0
LINE
8
BLACK
10
62.3439
20
-208.394
11
62.3439
21
-208.394
0
LINE
8
BLACK
10
62.3439
20
-208.394
11
62.3439
21
-208.394
0
LINE
8
BLACK
10
62.3439
20
-208.394
11
62.1147
21
-208.623
0
LINE
8
BLACK
10
62.1147
20
-208.623
11
62.0955
21
-208.669
0
LINE
8
BLACK
10
62.0955
20
-208.669
11
62.0955
21
-203.742
0
LINE
8
BLACK
10
62.0955
20
-203.742
11
62.0955
21
-203.041
0
LINE
8
BLACK
10
62.0955
20
-203.041
11
61.999
21
-202.808
0
LINE
8
BLACK
10
61.999
20
-202.808
11
61.8205
21
-202.629
0
LINE
8
BLACK
10
61.8205
20
-202.629
11
61.5872
21
-202.532
0
LINE
8
BLACK
10
61.5872
20
-202.532
11
61.3346
21
-202.532
0
LINE
8
BLACK
10
61.3346
20
-202.532
11
60.3339
21
-202.532
0
LINE
8
BLACK
10
60.3339
20
-202.532
11
60.3323
21
-202.533
0
LINE
8
BLACK
10
60.3323
20
-202.533
11
59.6265
21
-202.533
0
LINE
8
BLACK
10
59.6265
20
-202.533
11
59.2496
21
-202.607
0
LINE
8
BLACK
10
59.2496
20
-202.607
11
59.182
21
-202.653
0
LINE
8
BLACK
10
59.182
20
-202.653
11
59.1821
21
-202.566
0
LINE
8
BLACK
10
59.1821
20
-202.566
11
59.1821
21
-200.724
0
LINE
8
BLACK
10
59.1821
20
-200.724
11
59.9428
21
-200.724
0
LINE
8
BLACK
10
59.9428
20
-200.724
11
60.1762
21
-200.627
0
LINE
8
BLACK
10
60.1762
20
-200.627
11
60.355
21
-200.449
0
LINE
8
BLACK
10
60.355
20
-200.449
11
60.4519
21
-200.215
0
LINE
8
BLACK
10
60.4519
20
-200.215
11
60.4521
21
-199.963
0
LINE
8
BLACK
10
60.4521
20
-199.963
11
60.4521
21
-199.423
0
LINE
8
BLACK
10
60.4521
20
-199.423
11
60.5854
21
-199.423
0
LINE
8
BLACK
10
60.5854
20
-199.423
11
61.5861
21
-199.423
0
LINE
8
BLACK
10
61.5861
20
-199.423
11
61.8196
21
-199.327
0
LINE
8
BLACK
10
61.8196
20
-199.327
11
61.9984
21
-199.148
0
LINE
8
BLACK
10
61.9984
20
-199.148
11
62.0953
21
-198.915
0
LINE
8
BLACK
10
62.0953
20
-198.915
11
62.0955
21
-198.662
0
LINE
8
BLACK
10
62.0955
20
-198.662
11
62.0955
21
-197.961
0
LINE
8
BLACK
10
62.0955
20
-197.961
11
61.999
21
-197.728
0
LINE
8
BLACK
10
61.999
20
-197.728
11
61.8205
21
-197.549
0
LINE
8
BLACK
10
61.8205
20
-197.549
11
61.5872
21
-197.452
0
LINE
8
BLACK
10
61.5872
20
-197.452
11
61.3346
21
-197.452
0
LINE
8
BLACK
10
61.3346
20
-197.452
11
60.3339
21
-197.452
0
LINE
8
BLACK
10
60.3339
20
-197.452
11
60.3323
21
-197.453
0
LINE
8
BLACK
10
60.3323
20
-197.453
11
59.6265
21
-197.453
0
LINE
8
BLACK
10
59.6265
20
-197.453
11
59.2496
21
-197.527
0
LINE
8
BLACK
10
59.2496
20
-197.527
11
59.182
21
-197.573
0
LINE
8
BLACK
10
59.182
20
-197.573
11
59.1821
21
-197.486
0
LINE
8
BLACK
10
59.1821
20
-197.486
11
59.1821
21
-195.644
0
LINE
8
BLACK
10
59.1821
20
-195.644
11
59.9428
21
-195.644
0
LINE
8
BLACK
10
59.9428
20
-195.644
11
60.1762
21
-195.547
0
LINE
8
BLACK
10
60.1762
20
-195.547
11
60.355
21
-195.369
0
LINE
8
BLACK
10
60.355
20
-195.369
11
60.4519
21
-195.135
0
LINE
8
BLACK
10
60.4519
20
-195.135
11
60.4521
21
-194.883
0
LINE
8
BLACK
10
60.4521
20
-194.883
11
60.4521
21
-194.343
0
LINE
8
BLACK
10
60.4521
20
-194.343
11
60.5854
21
-194.343
0
LINE
8
BLACK
10
60.5854
20
-194.343
11
61.5861
21
-194.343
0
LINE
8
BLACK
10
61.5861
20
-194.343
11
61.8196
21
-194.247
0
LINE
8
BLACK
10
61.8196
20
-194.247
11
61.9984
21
-194.068
0
LINE
8
BLACK
10
61.9984
20
-194.068
11
62.0953
21
-193.835
0
LINE
8
BLACK
10
62.0953
20
-193.835
11
62.0955
21
-193.582
0
LINE
8
BLACK
10
62.0955
20
-193.582
11
62.0955
21
-192.881
0
LINE
8
BLACK
10
62.0955
20
-192.881
11
61.999
21
-192.648
0
LINE
8
BLACK
10
61.999
20
-192.648
11
61.8205
21
-192.469
0
LINE
8
BLACK
10
61.8205
20
-192.469
11
61.5872
21
-192.372
0
LINE
8
BLACK
10
61.5872
20
-192.372
11
61.3346
21
-192.372
0
LINE
8
BLACK
10
61.3346
20
-192.372
11
60.3339
21
-192.372
0
LINE
8
BLACK
10
60.3339
20
-192.372
11
60.3323
21
-192.373
0
LINE
8
BLACK
10
60.3323
20
-192.373
11
59.3725
21
-192.373
0
LINE
8
BLACK
10
59.3725
20
-192.373
11
59.1821
21
-192.41
0
LINE
8
BLACK
10
59.1821
20
-192.41
11
59.1821
21
-192.406
0
LINE
8
BLACK
10
59.1821
20
-192.406
11
59.1821
21
-190.564
0
LINE
8
BLACK
10
59.1821
20
-190.564
11
59.9428
21
-190.564
0
LINE
8
BLACK
10
59.9428
20
-190.564
11
60.1762
21
-190.467
0
LINE
8
BLACK
10
60.1762
20
-190.467
11
60.355
21
-190.289
0
LINE
8
BLACK
10
60.355
20
-190.289
11
60.4519
21
-190.055
0
LINE
8
BLACK
10
60.4519
20
-190.055
11
60.4521
21
-189.803
0
LINE
8
BLACK
10
60.4521
20
-189.803
11
60.4521
21
-189.263
0
LINE
8
BLACK
10
60.4521
20
-189.263
11
60.5854
21
-189.263
0
LINE
8
BLACK
10
60.5854
20
-189.263
11
61.5861
21
-189.263
0
LINE
8
BLACK
10
61.5861
20
-189.263
11
61.8196
21
-189.167
0
LINE
8
BLACK
10
61.8196
20
-189.167
11
61.9984
21
-188.988
0
LINE
8
BLACK
10
61.9984
20
-188.988
11
62.0953
21
-188.755
0
LINE
8
BLACK
10
62.0953
20
-188.755
11
62.0955
21
-188.502
0
LINE
8
BLACK
10
62.0955
20
-188.502
11
62.0955
21
-187.801
0
LINE
8
BLACK
10
62.0955
20
-187.801
11
61.999
21
-187.568
0
LINE
8
BLACK
10
61.999
20
-187.568
11
61.8205
21
-187.389
0
LINE
8
BLACK
10
61.8205
20
-187.389
11
61.5872
21
-187.292
0
LINE
8
BLACK
10
61.5872
20
-187.292
11
61.3346
21
-187.292
0
LINE
8
BLACK
10
61.3346
20
-187.292
11
60.3339
21
-187.292
0
LINE
8
BLACK
10
60.3339
20
-187.292
11
60.3323
21
-187.293
0
LINE
8
BLACK
10
60.3323
20
-187.293
11
59.3725
21
-187.293
0
LINE
8
BLACK
10
59.3725
20
-187.293
11
59.1821
21
-187.33
0
LINE
8
BLACK
10
59.1821
20
-187.33
11
59.1821
21
-187.326
0
LINE
8
BLACK
10
59.1821
20
-187.326
11
59.1821
21
-185.484
0
LINE
8
BLACK
10
59.1821
20
-185.484
11
59.9428
21
-185.484
0
LINE
8
BLACK
10
59.9428
20
-185.484
11
60.1762
21
-185.387
0
LINE
8
BLACK
10
60.1762
20
-185.387
11
60.355
21
-185.209
0
LINE
8
BLACK
10
60.355
20
-185.209
11
60.4519
21
-184.975
0
LINE
8
BLACK
10
60.4519
20
-184.975
11
60.4521
21
-184.723
0
LINE
8
BLACK
10
60.4521
20
-184.723
11
60.4521
21
-184.183
0
LINE
8
BLACK
10
60.4521
20
-184.183
11
60.5854
21
-184.183
0
LINE
8
BLACK
10
60.5854
20
-184.183
11
61.5861
21
-184.183
0
LINE
8
BLACK
10
61.5861
20
-184.183
11
61.8196
21
-184.087
0
LINE
8
BLACK
10
61.8196
20
-184.087
11
61.9984
21
-183.908
0
LINE
8
BLACK
10
61.9984
20
-183.908
11
62.0953
21
-183.675
0
LINE
8
BLACK
10
62.0953
20
-183.675
11
62.0955
21
-183.422
0
LINE
8
BLACK
10
62.0955
20
-183.422
11
62.0955
21
-182.721
0
LINE
8
BLACK
10
62.0955
20
-182.721
11
61.999
21
-182.488
0
LINE
8
BLACK
10
61.999
20
-182.488
11
61.8205
21
-182.309
0
LINE
8
BLACK
10
61.8205
20
-182.309
11
61.5872
21
-182.212
0
LINE
8
BLACK
10
61.5872
20
-182.212
11
61.3346
21
-182.212
0
LINE
8
BLACK
10
61.3346
20
-182.212
11
60.3339
21
-182.212
0
LINE
8
BLACK
10
60.3339
20
-182.212
11
60.3323
21
-182.213
0
LINE
8
BLACK
10
60.3323
20
-182.213
11
59.6265
21
-182.213
0
LINE
8
BLACK
10
59.6265
20
-182.213
11
59.2496
21
-182.287
0
LINE
8
BLACK
10
59.2496
20
-182.287
11
59.182
21
-182.333
0
LINE
8
BLACK
10
59.182
20
-182.333
11
59.1821
21
-182.246
0
LINE
8
BLACK
10
59.1821
20
-182.246
11
59.1821
21
-180.404
0
LINE
8
BLACK
10
59.1821
20
-180.404
11
59.9428
21
-180.404
0
LINE
8
BLACK
10
59.9428
20
-180.404
11
60.1762
21
-180.307
0
LINE
8
BLACK
10
60.1762
20
-180.307
11
60.355
21
-180.129
0
LINE
8
BLACK
10
60.355
20
-180.129
11
60.4519
21
-179.895
0
LINE
8
BLACK
10
60.4519
20
-179.895
11
60.4521
21
-179.643
0
LINE
8
BLACK
10
60.4521
20
-179.643
11
60.4521
21
-179.103
0
LINE
8
BLACK
10
60.4521
20
-179.103
11
60.5854
21
-179.103
0
LINE
8
BLACK
10
60.5854
20
-179.103
11
61.5861
21
-179.103
0
LINE
8
BLACK
10
61.5861
20
-179.103
11
61.8196
21
-179.007
0
LINE
8
BLACK
10
61.8196
20
-179.007
11
61.9984
21
-178.828
0
LINE
8
BLACK
10
61.9984
20
-178.828
11
62.0953
21
-178.595
0
LINE
8
BLACK
10
62.0953
20
-178.595
11
62.0955
21
-178.342
0
LINE
8
BLACK
10
62.0955
20
-178.342
11
62.0955
21
-177.641
0
LINE
8
BLACK
10
62.0955
20
-177.641
11
61.999
21
-177.408
0
LINE
8
BLACK
10
61.999
20
-177.408
11
61.8205
21
-177.229
0
LINE
8
BLACK
10
61.8205
20
-177.229
11
61.5872
21
-177.132
0
LINE
8
BLACK
10
61.5872
20
-177.132
11
61.3346
21
-177.132
0
LINE
8
BLACK
10
61.3346
20
-177.132
11
60.3339
21
-177.132
0
LINE
8
BLACK
10
60.3339
20
-177.132
11
60.3323
21
-177.133
0
LINE
8
BLACK
10
60.3323
20
-177.133
11
59.8805
21
-177.133
0
LINE
8
BLACK
10
59.8805
20
-177.133
11
59.5036
21
-177.207
0
LINE
8
BLACK
10
59.5036
20
-177.207
11
59.184
21
-177.421
0
LINE
8
BLACK
10
59.184
20
-177.421
11
58.8686
21
-177.736
0
LINE
8
BLACK
10
58.8686
20
-177.736
11
58.8022
21
-177.736
0
LINE
8
BLACK
10
58.8022
20
-177.736
11
58.5688
21
-177.833
0
LINE
8
BLACK
10
58.5688
20
-177.833
11
58.4199
21
-177.981
0
LINE
8
BLACK
10
58.4199
20
-177.981
11
58.2722
21
-177.833
0
LINE
8
BLACK
10
58.2722
20
-177.833
11
58.0389
21
-177.737
0
LINE
8
BLACK
10
58.0389
20
-177.737
11
57.7862
21
-177.736
0
LINE
8
BLACK
10
57.7862
20
-177.736
11
56.8972
21
-177.736
0
LINE
8
BLACK
10
56.8972
20
-177.736
11
56.6638
21
-177.833
0
LINE
8
BLACK
10
56.6638
20
-177.833
11
56.485
21
-178.011
0
LINE
8
BLACK
10
56.485
20
-178.011
11
56.4673
21
-178.054
0
LINE
8
BLACK
10
56.4673
20
-178.054
11
55.9059
21
-178.054
0
LINE
8
BLACK
10
55.9059
20
-178.054
11
55.5374
21
-177.685
0
LINE
8
BLACK
10
55.5374
20
-177.685
11
54.9366
21
-177.435
0
LINE
8
BLACK
10
54.9366
20
-177.435
11
54.2862
21
-177.435
0
LINE
8
BLACK
10
54.2862
20
-177.435
11
53.6851
21
-177.683
0
LINE
8
BLACK
10
53.6851
20
-177.683
11
53.2247
21
-178.143
0
LINE
8
BLACK
10
53.2247
20
-178.143
11
52.9753
21
-178.743
0
LINE
8
BLACK
10
52.9753
20
-178.743
11
52.9747
21
-179.394
0
LINE
8
BLACK
10
52.9747
20
-179.394
11
53.2231
21
-179.995
0
LINE
8
BLACK
10
53.2231
20
-179.995
11
53.6826
21
-180.455
0
LINE
8
BLACK
10
53.6826
20
-180.455
11
54.2834
21
-180.705
0
LINE
8
BLACK
10
54.2834
20
-180.705
11
54.9338
21
-180.705
0
LINE
8
BLACK
10
54.9338
20
-180.705
11
55.0544
21
-180.655
0
LINE
8
BLACK
10
55.0544
20
-180.655
11
55.0544
21
-180.72
0
LINE
8
BLACK
10
55.0544
20
-180.72
11
55.0544
21
-181.609
0
LINE
8
BLACK
10
55.0544
20
-181.609
11
55.1509
21
-181.842
0
LINE
8
BLACK
10
55.1509
20
-181.842
11
55.3293
21
-182.021
0
LINE
8
BLACK
10
55.3293
20
-182.021
11
55.5626
21
-182.118
0
LINE
8
BLACK
10
55.5626
20
-182.118
11
55.8153
21
-182.118
0
LINE
8
BLACK
10
55.8153
20
-182.118
11
56.3879
21
-182.118
0
LINE
8
BLACK
10
56.3879
20
-182.118
11
56.3879
21
-182.498
0
LINE
8
BLACK
10
56.3879
20
-182.498
11
56.4844
21
-182.731
0
LINE
8
BLACK
10
56.4844
20
-182.731
11
56.6628
21
-182.91
0
LINE
8
BLACK
10
56.6628
20
-182.91
11
56.6667
21
-182.912
0
LINE
8
BLACK
10
56.6667
20
-182.912
11
56.6638
21
-182.913
0
LINE
8
BLACK
10
56.6638
20
-182.913
11
56.485
21
-183.091
0
LINE
8
BLACK
10
56.485
20
-183.091
11
56.4673
21
-183.134
0
LINE
8
BLACK
10
56.4673
20
-183.134
11
55.9059
21
-183.134
0
LINE
8
BLACK
10
55.9059
20
-183.134
11
55.5374
21
-182.765
0
LINE
8
BLACK
10
55.5374
20
-182.765
11
54.9366
21
-182.515
0
LINE
8
BLACK
10
54.9366
20
-182.515
11
54.2862
21
-182.515
0
LINE
8
BLACK
10
54.2862
20
-182.515
11
53.6851
21
-182.763
0
LINE
8
BLACK
10
53.6851
20
-182.763
11
53.2247
21
-183.223
0
LINE
8
BLACK
10
53.2247
20
-183.223
11
52.9753
21
-183.823
0
LINE
8
BLACK
10
52.9753
20
-183.823
11
52.9747
21
-184.474
0
LINE
8
BLACK
10
52.9747
20
-184.474
11
53.2231
21
-185.075
0
LINE
8
BLACK
10
53.2231
20
-185.075
11
53.6826
21
-185.535
0
LINE
8
BLACK
10
53.6826
20
-185.535
11
54.2834
21
-185.785
0
LINE
8
BLACK
10
54.2834
20
-185.785
11
54.9338
21
-185.785
0
LINE
8
BLACK
10
54.9338
20
-185.785
11
55.0544
21
-185.735
0
LINE
8
BLACK
10
55.0544
20
-185.735
11
55.0544
21
-185.8
0
LINE
8
BLACK
10
55.0544
20
-185.8
11
55.0544
21
-186.689
0
LINE
8
BLACK
10
55.0544
20
-186.689
11
55.1509
21
-186.922
0
LINE
8
BLACK
10
55.1509
20
-186.922
11
55.3293
21
-187.101
0
LINE
8
BLACK
10
55.3293
20
-187.101
11
55.5626
21
-187.198
0
LINE
8
BLACK
10
55.5626
20
-187.198
11
55.8153
21
-187.198
0
LINE
8
BLACK
10
55.8153
20
-187.198
11
56.3879
21
-187.198
0
LINE
8
BLACK
10
56.3879
20
-187.198
11
56.3879
21
-187.578
0
LINE
8
BLACK
10
56.3879
20
-187.578
11
56.4844
21
-187.811
0
LINE
8
BLACK
10
56.4844
20
-187.811
11
56.6628
21
-187.99
0
LINE
8
BLACK
10
56.6628
20
-187.99
11
56.6667
21
-187.992
0
LINE
8
BLACK
10
56.6667
20
-187.992
11
56.6638
21
-187.993
0
LINE
8
BLACK
10
56.6638
20
-187.993
11
56.485
21
-188.171
0
LINE
8
BLACK
10
56.485
20
-188.171
11
56.4673
21
-188.214
0
LINE
8
BLACK
10
56.4673
20
-188.214
11
55.9059
21
-188.214
0
LINE
8
BLACK
10
55.9059
20
-188.214
11
55.5374
21
-187.845
0
LINE
8
BLACK
10
55.5374
20
-187.845
11
54.9366
21
-187.595
0
LINE
8
BLACK
10
54.9366
20
-187.595
11
54.2862
21
-187.595
0
LINE
8
BLACK
10
54.2862
20
-187.595
11
53.6851
21
-187.843
0
LINE
8
BLACK
10
53.6851
20
-187.843
11
53.2247
21
-188.303
0
LINE
8
BLACK
10
53.2247
20
-188.303
11
52.9753
21
-188.903
0
LINE
8
BLACK
10
52.9753
20
-188.903
11
52.9747
21
-189.554
0
LINE
8
BLACK
10
52.9747
20
-189.554
11
53.2231
21
-190.155
0
LINE
8
BLACK
10
53.2231
20
-190.155
11
53.6826
21
-190.615
0
LINE
8
BLACK
10
53.6826
20
-190.615
11
54.2834
21
-190.865
0
LINE
8
BLACK
10
54.2834
20
-190.865
11
54.9338
21
-190.865
0
LINE
8
BLACK
10
54.9338
20
-190.865
11
55.0544
21
-190.815
0
LINE
8
BLACK
10
55.0544
20
-190.815
11
55.0544
21
-190.88
0
LINE
8
BLACK
10
55.0544
20
-190.88
11
55.0544
21
-191.769
0
LINE
8
BLACK
10
55.0544
20
-191.769
11
55.1509
21
-192.002
0
LINE
8
BLACK
10
55.1509
20
-192.002
11
55.3293
21
-192.181
0
LINE
8
BLACK
10
55.3293
20
-192.181
11
55.5626
21
-192.278
0
LINE
8
BLACK
10
55.5626
20
-192.278
11
55.8153
21
-192.278
0
LINE
8
BLACK
10
55.8153
20
-192.278
11
56.3879
21
-192.278
0
LINE
8
BLACK
10
56.3879
20
-192.278
11
56.3879
21
-192.658
0
LINE
8
BLACK
10
56.3879
20
-192.658
11
56.4844
21
-192.891
0
LINE
8
BLACK
10
56.4844
20
-192.891
11
56.6628
21
-193.07
0
LINE
8
BLACK
10
56.6628
20
-193.07
11
56.6667
21
-193.072
0
LINE
8
BLACK
10
56.6667
20
-193.072
11
56.6638
21
-193.073
0
LINE
8
BLACK
10
56.6638
20
-193.073
11
56.485
21
-193.251
0
LINE
8
BLACK
10
56.485
20
-193.251
11
56.4673
21
-193.294
0
LINE
8
BLACK
10
56.4673
20
-193.294
11
55.9059
21
-193.294
0
LINE
8
BLACK
10
55.9059
20
-193.294
11
55.5374
21
-192.925
0
LINE
8
BLACK
10
55.5374
20
-192.925
11
54.9366
21
-192.675
0
LINE
8
BLACK
10
54.9366
20
-192.675
11
54.2862
21
-192.675
0
LINE
8
BLACK
10
54.2862
20
-192.675
11
53.6851
21
-192.923
0
LINE
8
BLACK
10
53.6851
20
-192.923
11
53.2247
21
-193.383
0
LINE
8
BLACK
10
53.2247
20
-193.383
11
52.9753
21
-193.983
0
LINE
8
BLACK
10
52.9753
20
-193.983
11
52.9747
21
-194.634
0
LINE
8
BLACK
10
52.9747
20
-194.634
11
53.2231
21
-195.235
0
LINE
8
BLACK
10
53.2231
20
-195.235
11
53.6826
21
-195.695
0
LINE
8
BLACK
10
53.6826
20
-195.695
11
54.2834
21
-195.945
0
LINE
8
BLACK
10
54.2834
20
-195.945
11
54.9338
21
-195.945
0
LINE
8
BLACK
10
54.9338
20
-195.945
11
55.0544
21
-195.895
0
LINE
8
BLACK
10
55.0544
20
-195.895
11
55.0544
21
-195.96
0
LINE
8
BLACK
10
55.0544
20
-195.96
11
55.0544
21
-196.849
0
LINE
8
BLACK
10
55.0544
20
-196.849
11
55.1509
21
-197.082
0
LINE
8
BLACK
10
55.1509
20
-197.082
11
55.3293
21
-197.261
0
LINE
8
BLACK
10
55.3293
20
-197.261
11
55.5626
21
-197.358
0
LINE
8
BLACK
10
55.5626
20
-197.358
11
55.8153
21
-197.358
0
LINE
8
BLACK
10
55.8153
20
-197.358
11
56.3879
21
-197.358
0
LINE
8
BLACK
10
56.3879
20
-197.358
11
56.3879
21
-197.738
0
LINE
8
BLACK
10
56.3879
20
-197.738
11
56.4844
21
-197.971
0
LINE
8
BLACK
10
56.4844
20
-197.971
11
56.6628
21
-198.15
0
LINE
8
BLACK
10
56.6628
20
-198.15
11
56.6667
21
-198.152
0
LINE
8
BLACK
10
56.6667
20
-198.152
11
56.6638
21
-198.153
0
LINE
8
BLACK
10
56.6638
20
-198.153
11
56.485
21
-198.331
0
LINE
8
BLACK
10
56.485
20
-198.331
11
56.4673
21
-198.374
0
LINE
8
BLACK
10
56.4673
20
-198.374
11
55.9059
21
-198.374
0
LINE
8
BLACK
10
55.9059
20
-198.374
11
55.5374
21
-198.005
0
LINE
8
BLACK
10
55.5374
20
-198.005
11
54.9366
21
-197.755
0
LINE
8
BLACK
10
54.9366
20
-197.755
11
54.2862
21
-197.755
0
LINE
8
BLACK
10
54.2862
20
-197.755
11
53.6851
21
-198.003
0
LINE
8
BLACK
10
53.6851
20
-198.003
11
53.2247
21
-198.463
0
LINE
8
BLACK
10
53.2247
20
-198.463
11
52.9753
21
-199.063
0
LINE
8
BLACK
10
52.9753
20
-199.063
11
52.9747
21
-199.714
0
LINE
8
BLACK
10
52.9747
20
-199.714
11
53.2231
21
-200.315
0
LINE
8
BLACK
10
53.2231
20
-200.315
11
53.6826
21
-200.775
0
LINE
8
BLACK
10
53.6826
20
-200.775
11
54.2834
21
-201.025
0
LINE
8
BLACK
10
54.2834
20
-201.025
11
54.9338
21
-201.025
0
LINE
8
BLACK
10
54.9338
20
-201.025
11
55.0544
21
-200.975
0
LINE
8
BLACK
10
55.0544
20
-200.975
11
55.0544
21
-201.04
0
LINE
8
BLACK
10
55.0544
20
-201.04
11
55.0544
21
-201.929
0
LINE
8
BLACK
10
55.0544
20
-201.929
11
55.1509
21
-202.162
0
LINE
8
BLACK
10
55.1509
20
-202.162
11
55.3293
21
-202.341
0
LINE
8
BLACK
10
55.3293
20
-202.341
11
55.5626
21
-202.438
0
LINE
8
BLACK
10
55.5626
20
-202.438
11
55.8153
21
-202.438
0
LINE
8
BLACK
10
55.8153
20
-202.438
11
56.3879
21
-202.438
0
LINE
8
BLACK
10
56.3879
20
-202.438
11
56.3879
21
-202.818
0
LINE
8
BLACK
10
56.3879
20
-202.818
11
56.4844
21
-203.051
0
LINE
8
BLACK
10
56.4844
20
-203.051
11
56.6628
21
-203.23
0
LINE
8
BLACK
10
56.6628
20
-203.23
11
56.6667
21
-203.232
0
LINE
8
BLACK
10
56.6667
20
-203.232
11
56.6638
21
-203.233
0
LINE
8
BLACK
10
56.6638
20
-203.233
11
56.485
21
-203.411
0
LINE
8
BLACK
10
56.485
20
-203.411
11
56.4673
21
-203.454
0
LINE
8
BLACK
10
56.4673
20
-203.454
11
55.9059
21
-203.454
0
LINE
8
BLACK
10
55.9059
20
-203.454
11
55.5374
21
-203.085
0
LINE
8
BLACK
10
55.5374
20
-203.085
11
54.9366
21
-202.835
0
LINE
8
BLACK
10
54.9366
20
-202.835
11
54.2862
21
-202.835
0
LINE
8
BLACK
10
54.2862
20
-202.835
11
53.6851
21
-203.083
0
LINE
8
BLACK
10
53.6851
20
-203.083
11
53.2247
21
-203.543
0
LINE
8
BLACK
10
53.2247
20
-203.543
11
52.9753
21
-204.143
0
LINE
8
BLACK
10
52.9753
20
-204.143
11
52.9747
21
-204.794
0
LINE
8
BLACK
10
52.9747
20
-204.794
11
53.2231
21
-205.395
0
LINE
8
BLACK
10
53.2231
20
-205.395
11
53.6826
21
-205.855
0
LINE
8
BLACK
10
53.6826
20
-205.855
11
54.2834
21
-206.105
0
LINE
8
BLACK
10
54.2834
20
-206.105
11
54.9338
21
-206.105
0
LINE
8
BLACK
10
54.9338
20
-206.105
11
55.0544
21
-206.055
0
LINE
8
BLACK
10
55.0544
20
-206.055
11
55.0544
21
-206.12
0
LINE
8
BLACK
10
55.0544
20
-206.12
11
55.0544
21
-207.009
0
LINE
8
BLACK
10
55.0544
20
-207.009
11
55.1509
21
-207.242
0
LINE
8
BLACK
10
55.1509
20
-207.242
11
55.3293
21
-207.421
0
LINE
8
BLACK
10
55.3293
20
-207.421
11
55.5626
21
-207.518
0
LINE
8
BLACK
10
55.5626
20
-207.518
11
55.8153
21
-207.518
0
LINE
8
BLACK
10
55.8153
20
-207.518
11
56.3879
21
-207.518
0
LINE
8
BLACK
10
56.3879
20
-207.518
11
56.3879
21
-207.898
0
LINE
8
BLACK
10
56.3879
20
-207.898
11
56.4844
21
-208.131
0
LINE
8
BLACK
10
56.4844
20
-208.131
11
56.6628
21
-208.31
0
LINE
8
BLACK
10
56.6628
20
-208.31
11
56.8961
21
-208.407
0
LINE
8
BLACK
10
56.8961
20
-208.407
11
57.1488
21
-208.407
0
LINE
8
BLACK
10
57.1488
20
-208.407
11
58.6728
21
-208.407
0
LINE
8
BLACK
10
58.6728
20
-208.407
11
58.9062
21
-208.311
0
LINE
8
BLACK
10
58.9062
20
-208.311
11
59.085
21
-208.132
0
LINE
8
BLACK
10
59.085
20
-208.132
11
59.1819
21
-207.899
0
LINE
8
BLACK
10
59.1819
20
-207.899
11
59.1821
21
-207.646
0
LINE
8
BLACK
10
59.1821
20
-207.646
11
59.1821
21
-205.804
0
LINE
8
BLACK
10
59.1821
20
-205.804
11
59.9428
21
-205.804
0
LINE
8
BLACK
10
59.9428
20
-205.804
11
60.1762
21
-205.707
0
LINE
8
BLACK
10
60.1762
20
-205.707
11
60.355
21
-205.529
0
LINE
8
BLACK
10
60.355
20
-205.529
11
60.4519
21
-205.295
0
LINE
8
BLACK
10
60.4519
20
-205.295
11
60.4521
21
-205.043
0
LINE
8
BLACK
10
60.4521
20
-205.043
11
60.4521
21
-204.503
0
LINE
8
BLACK
10
60.4521
20
-204.503
11
60.5854
21
-204.503
0
LINE
8
BLACK
10
60.5854
20
-204.503
11
61.5861
21
-204.503
0
LINE
8
BLACK
10
61.5861
20
-204.503
11
61.8196
21
-204.407
0
LINE
8
BLACK
10
61.8196
20
-204.407
11
61.9984
21
-204.228
0
LINE
8
BLACK
10
61.9984
20
-204.228
11
62.0953
21
-203.995
0
LINE
8
BLACK
10
62.0953
20
-203.995
11
62.0955
21
-203.742
0
LINE
8
BLACK
10
62.0955
20
-203.742
11
62.0955
21
-208.669
0
LINE
8
BLACK
10
62.0955
20
-208.669
11
61.9895
21
-208.924
0
LINE
8
BLACK
10
61.9895
20
-208.924
11
61.9895
21
-208.924
0
LINE
8
BLACK
10
61.9895
20
-208.924
11
61.9895
21
-208.924
0
LINE
8
BLACK
10
61.9895
20
-208.924
11
61.8653
21
-209.223
0
LINE
8
BLACK
10
61.8653
20
-209.223
11
61.865
21
-209.55
0
LINE
8
BLACK
10
61.865
20
-209.55
11
61.865
21
-209.55
0
LINE
8
BLACK
10
61.865
20
-209.55
11
61.865
21
-209.55
0
LINE
8
BLACK
10
61.865
20
-209.55
11
61.8647
21
-209.874
0
LINE
8
BLACK
10
61.8647
20
-209.874
11
61.865
21
-209.874
0
LINE
8
BLACK
10
61.865
20
-209.874
11
61.865
21
-210.143
0
LINE
8
BLACK
10
61.865
20
-210.143
11
57.8989
21
-214.109
0
LINE
8
BLACK
10
57.8989
20
-214.109
11
57.5445
21
-214.639
0
LINE
8
BLACK
10
57.5445
20
-214.639
11
57.42
21
-215.265
0
LINE
8
BLACK
10
57.42
20
-215.265
11
57.42
21
-215.265
0
LINE
8
BLACK
10
57.42
20
-215.265
11
57.42
21
-218.44
0
LINE
8
BLACK
10
57.42
20
-218.44
11
57.5309
21
-218.997
0
LINE
8
BLACK
10
57.5309
20
-218.997
11
57.5309
21
-219.455
0
LINE
8
BLACK
10
57.5309
20
-219.455
11
57.6274
21
-219.688
0
LINE
8
BLACK
10
57.6274
20
-219.688
11
57.8058
21
-219.867
0
LINE
8
BLACK
10
57.8058
20
-219.867
11
58.0391
21
-219.964
0
LINE
8
BLACK
10
58.0391
20
-219.964
11
58.2918
21
-219.964
0
LINE
8
BLACK
10
58.2918
20
-219.964
11
58.4975
21
-219.964
0
LINE
8
BLACK
10
58.4975
20
-219.964
11
59.055
21
-220.075
0
LINE
8
BLACK
10
59.055
20
-220.075
11
59.6125
21
-219.964
0
LINE
8
BLACK
10
59.6125
20
-219.964
11
60.0698
21
-219.964
0
LINE
8
BLACK
10
60.0698
20
-219.964
11
60.3032
21
-219.868
0
LINE
8
BLACK
10
60.3032
20
-219.868
11
60.482
21
-219.689
0
LINE
8
BLACK
10
60.482
20
-219.689
11
60.5789
21
-219.456
0
LINE
8
BLACK
10
60.5789
20
-219.456
11
60.5791
21
-219.203
0
LINE
8
BLACK
10
60.5791
20
-219.203
11
60.5791
21
-218.997
0
LINE
8
BLACK
10
60.5791
20
-218.997
11
60.69
21
-218.44
0
LINE
8
BLACK
10
60.69
20
-218.44
11
60.69
21
-215.942
0
LINE
8
BLACK
10
60.69
20
-215.942
11
64.0875
21
-212.545
0
LINE
8
BLACK
10
64.0875
20
-212.545
11
64.0875
21
-213.995
0
LINE
8
BLACK
10
64.0875
20
-213.995
11
64.212
21
-214.621
0
LINE
8
BLACK
10
64.212
20
-214.621
11
64.4087
21
-214.915
0
LINE
8
BLACK
10
64.4087
20
-214.915
11
63.8451
21
-215.148
0
LINE
8
BLACK
10
63.8451
20
-215.148
11
63.3847
21
-215.608
0
LINE
8
BLACK
10
63.3847
20
-215.608
11
63.1353
21
-216.208
0
LINE
8
BLACK
10
63.1353
20
-216.208
11
63.1347
21
-216.859
0
LINE
8
BLACK
10
63.1347
20
-216.859
11
63.3831
21
-217.46
0
LINE
8
BLACK
10
63.3831
20
-217.46
11
63.7278
21
-217.805
0
LINE
8
BLACK
10
63.7278
20
-217.805
11
63.6139
21
-217.919
0
LINE
8
BLACK
10
63.6139
20
-217.919
11
63.6139
21
-217.919
0
LINE
8
BLACK
10
63.6139
20
-217.919
11
63.6139
21
-217.919
0
LINE
8
BLACK
10
63.6139
20
-217.919
11
63.3847
21
-218.148
0
LINE
8
BLACK
10
63.3847
20
-218.148
11
63.1353
21
-218.748
0
LINE
8
BLACK
10
63.1353
20
-218.748
11
63.1347
21
-219.399
0
LINE
8
BLACK
10
63.1347
20
-219.399
11
63.2595
21
-219.701
0
LINE
8
BLACK
10
63.2595
20
-219.701
11
63.3831
21
-220
0
LINE
8
BLACK
10
63.3831
20
-220
11
63.6139
21
-220.231
0
LINE
8
BLACK
10
63.6139
20
-220.231
11
63.6139
21
-220.231
0
LINE
8
BLACK
10
63.6139
20
-220.231
11
63.6139
21
-220.231
0
LINE
8
BLACK
10
63.6139
20
-220.231
11
63.8426
21
-220.46
0
LINE
8
BLACK
10
63.8426
20
-220.46
11
64.1443
21
-220.586
0
LINE
8
BLACK
10
64.1443
20
-220.586
11
64.4434
21
-220.71
0
LINE
8
BLACK
10
64.4434
20
-220.71
11
64.77
21
-220.71
0
LINE
8
BLACK
10
64.77
20
-220.71
11
65.0938
21
-220.71
0
LINE
8
BLACK
10
65.0938
20
-220.71
11
65.0945
21
-220.71
0
LINE
8
BLACK
10
65.0945
20
-220.71
11
73.025
21
-220.71
0
LINE
8
BLACK
10
73.025
20
-220.71
11
73.025
21
-220.71
0
LINE
8
BLACK
10
73.025
20
-220.71
11
73.025
21
-220.71
0
LINE
8
BLACK
10
73.025
20
-220.71
11
73.6507
21
-220.586
0
LINE
8
BLACK
10
73.6507
20
-220.586
11
73.6507
21
-220.586
0
LINE
8
BLACK
10
73.6507
20
-220.586
11
74.1811
21
-220.231
0
LINE
8
BLACK
10
74.1811
20
-220.231
11
75.4511
21
-218.961
0
LINE
8
BLACK
10
75.4511
20
-218.961
11
75.4511
21
-218.961
0
LINE
8
BLACK
10
75.4511
20
-218.961
11
75.4511
21
-218.961
0
LINE
8
BLACK
10
75.4511
20
-218.961
11
75.6636
21
-218.643
0
LINE
8
BLACK
10
75.6636
20
-218.643
11
75.8055
21
-218.431
0
LINE
8
BLACK
10
75.8055
20
-218.431
11
75.8055
21
-218.431
0
LINE
8
BLACK
10
75.8055
20
-218.431
11
75.93
21
-217.805
0
LINE
8
BLACK
10
75.93
20
-217.805
11
75.93
21
-212.455
0
LINE
8
BLACK
10
75.93
20
-212.455
11
76.2
21
-212.455
0
LINE
8
BLACK
10
76.2
20
-212.455
11
76.2
21
-212.455
0
LINE
8
BLACK
10
76.2
20
-212.455
11
76.2
21
-212.455
0
LINE
8
BLACK
10
76.2
20
-212.455
11
76.8257
21
-212.331
0
LINE
8
BLACK
10
76.8257
20
-212.331
11
76.8257
21
-212.331
0
LINE
8
BLACK
10
76.8257
20
-212.331
11
77.3561
21
-211.976
0
LINE
8
BLACK
10
77.3561
20
-211.976
11
78.8221
21
-210.51
0
LINE
8
BLACK
10
78.8221
20
-210.51
11
83.2708
21
-210.51
0
LINE
8
BLACK
10
83.2708
20
-210.51
11
83.5042
21
-210.414
0
LINE
8
BLACK
10
83.5042
20
-210.414
11
83.683
21
-210.235
0
LINE
8
BLACK
10
83.683
20
-210.235
11
83.7799
21
-210.002
0
LINE
8
BLACK
10
83.7799
20
-210.002
11
83.7801
21
-209.749
0
LINE
8
BLACK
10
83.7801
20
-209.749
11
83.7801
21
-213.995
0
LINE
8
BLACK
10
83.7801
20
-213.995
11
76.7092
21
-213.995
0
LINE
8
BLACK
10
76.7092
20
-213.995
11
76.4758
21
-214.091
0
LINE
8
BLACK
10
76.4758
20
-214.091
11
76.297
21
-214.27
0
LINE
8
BLACK
10
76.297
20
-214.27
11
76.2001
21
-214.503
0
LINE
8
BLACK
10
76.2001
20
-214.503
11
76.1999
21
-214.756
0
LINE
8
BLACK
10
76.1999
20
-214.756
11
76.1999
21
-223.646
0
LINE
8
BLACK
10
76.1999
20
-223.646
11
76.2964
21
-223.879
0
LINE
8
BLACK
10
76.2964
20
-223.879
11
76.4748
21
-224.058
0
LINE
8
BLACK
10
76.4748
20
-224.058
11
76.7081
21
-224.155
0
LINE
8
BLACK
10
76.7081
20
-224.155
11
76.9608
21
-224.155
0
LINE
8
BLACK
10
76.9608
20
-224.155
11
85.8508
21
-224.155
0
LINE
8
BLACK
10
85.8508
20
-224.155
11
86.0842
21
-224.059
0
LINE
8
BLACK
10
86.0842
20
-224.059
11
86.263
21
-223.88
0
LINE
8
BLACK
10
86.263
20
-223.88
11
86.3599
21
-223.647
0
LINE
8
BLACK
10
86.3599
20
-223.647
11
86.3601
21
-223.394
0
LINE
8
BLACK
10
86.3601
20
-223.394
11
86.3601
21
-224.74
0
LINE
8
BLACK
10
86.3601
20
-224.74
11
54.9753
21
-224.74
0
LINE
8
BLACK
10
54.9753
20
-224.74
11
54.9753
21
-209.226
0
LINE
8
BLACK
10
54.9753
20
-209.226
11
54.7269
21
-208.625
0
LINE
8
BLACK
10
54.7269
20
-208.625
11
54.2674
21
-208.165
0
LINE
8
BLACK
10
54.2674
20
-208.165
11
53.6666
21
-207.915
0
LINE
8
BLACK
10
53.6666
20
-207.915
11
53.0162
21
-207.915
0
LINE
8
BLACK
10
53.0162
20
-207.915
11
52.4151
21
-208.163
0
LINE
8
BLACK
10
52.4151
20
-208.163
11
51.9547
21
-208.623
0
LINE
8
BLACK
10
51.9547
20
-208.623
11
51.7053
21
-209.223
0
LINE
8
BLACK
10
51.7053
20
-209.223
11
51.7047
21
-209.874
0
LINE
8
BLACK
10
51.7047
20
-209.874
11
51.9531
21
-210.475
0
LINE
8
BLACK
10
51.9531
20
-210.475
11
52.4126
21
-210.935
0
LINE
8
BLACK
10
52.4126
20
-210.935
11
53.0134
21
-211.185
0
LINE
8
BLACK
10
53.0134
20
-211.185
11
53.6638
21
-211.185
0
LINE
8
BLACK
10
53.6638
20
-211.185
11
54.2649
21
-210.937
0
LINE
8
BLACK
10
54.2649
20
-210.937
11
54.7253
21
-210.477
0
LINE
8
BLACK
10
54.7253
20
-210.477
11
54.9747
21
-209.877
0
LINE
8
BLACK
10
54.9747
20
-209.877
11
54.9753
21
-209.226
0
LINE
8
BLACK
10
54.9753
20
-209.226
11
54.9753
21
-224.74
0
LINE
8
BLACK
10
54.9753
20
-224.74
11
50.85
21
-224.74
0
LINE
8
BLACK
10
50.85
20
-224.74
11
50.85
21
-172.135
0
LINE
8
BLACK
10
50.85
20
-172.135
11
83.012
21
-172.135
0
LINE
8
BLACK
10
83.012
20
-172.135
11
80.872
21
-174.275
0
LINE
8
BLACK
10
80.872
20
-174.275
11
78.7969
21
-174.275
0
LINE
8
BLACK
10
78.7969
20
-174.275
11
78.3974
21
-173.875
0
LINE
8
BLACK
10
78.3974
20
-173.875
11
77.7966
21
-173.625
0
LINE
8
BLACK
10
77.7966
20
-173.625
11
77.1462
21
-173.625
0
LINE
8
BLACK
10
77.1462
20
-173.625
11
76.5451
21
-173.873
0
LINE
8
BLACK
10
76.5451
20
-173.873
11
76.0847
21
-174.333
0
LINE
8
BLACK
10
76.0847
20
-174.333
11
75.8353
21
-174.933
0
LINE
8
BLACK
10
75.8353
20
-174.933
11
75.8347
21
-175.584
0
LINE
8
BLACK
10
75.8347
20
-175.584
11
76.0831
21
-176.185
0
LINE
8
BLACK
10
76.0831
20
-176.185
11
76.5426
21
-176.645
0
LINE
8
BLACK
10
76.5426
20
-176.645
11
77.1434
21
-176.895
0
LINE
8
BLACK
10
77.1434
20
-176.895
11
77.7938
21
-176.895
0
LINE
8
BLACK
10
77.7938
20
-176.895
11
78.3949
21
-176.647
0
LINE
8
BLACK
10
78.3949
20
-176.647
11
78.7975
21
-176.245
0
LINE
8
BLACK
10
78.7975
20
-176.245
11
81.28
21
-176.245
0
LINE
8
BLACK
10
81.28
20
-176.245
11
81.6569
21
-176.17
0
LINE
8
BLACK
10
81.6569
20
-176.17
11
81.9765
21
-175.957
0
LINE
8
BLACK
10
81.9765
20
-175.957
11
84.228
21
-173.705
0
LINE
8
BLACK
10
84.228
20
-173.705
11
89.762
21
-173.705
0
LINE
8
BLACK
10
89.762
20
-173.705
11
92.36
21
-176.303
0
LINE
8
BLACK
10
92.36
20
-176.303
11
92.36
21
-189.457
0
LINE
8
BLACK
10
92.36
20
-189.457
11
92.0589
21
-189.758
0
LINE
8
BLACK
10
92.0589
20
-189.758
11
91.8304
21
-189.713
0
LINE
8
BLACK
10
91.8304
20
-189.713
11
91.0496
21
-189.713
0
LINE
8
BLACK
10
91.0496
20
-189.713
11
90.5052
21
-189.821
0
LINE
8
BLACK
10
90.5052
20
-189.821
11
90.0438
21
-190.129
0
LINE
8
BLACK
10
90.0438
20
-190.129
11
89.7354
21
-190.591
0
LINE
8
BLACK
10
89.7354
20
-190.591
11
89.6272
21
-191.135
0
LINE
8
BLACK
10
89.6272
20
-191.135
11
89.7354
21
-191.679
0
LINE
8
BLACK
10
89.7354
20
-191.679
11
90.0438
21
-192.141
0
LINE
8
BLACK
10
90.0438
20
-192.141
11
90.4392
21
-192.405
0
LINE
8
BLACK
10
90.4392
20
-192.405
11
90.0438
21
-192.669
0
LINE
8
BLACK
10
90.0438
20
-192.669
11
89.7354
21
-193.131
0
LINE
8
BLACK
10
89.7354
20
-193.131
11
89.6272
21
-193.675
0
LINE
8
BLACK
10
89.6272
20
-193.675
11
89.7354
21
-194.219
0
LINE
8
BLACK
10
89.7354
20
-194.219
11
89.9764
21
-194.58
0
LINE
8
BLACK
10
89.9764
20
-194.58
11
85.455
21
-194.58
0
LINE
8
BLACK
10
85.455
20
-194.58
11
85.455
21
-194.323
0
LINE
8
BLACK
10
85.455
20
-194.323
11
85.5246
21
-194.219
0
LINE
8
BLACK
10
85.5246
20
-194.219
11
85.6328
21
-193.675
0
LINE
8
BLACK
10
85.6328
20
-193.675
11
85.5246
21
-193.131
0
LINE
8
BLACK
10
85.5246
20
-193.131
11
85.455
21
-193.027
0
LINE
8
BLACK
10
85.455
20
-193.027
11
85.455
21
-192.77
0
LINE
8
BLACK
10
85.455
20
-192.77
11
85.979
21
-192.77
0
LINE
8
BLACK
10
85.979
20
-192.77
11
85.979
21
-192.77
0
LINE
8
BLACK
10
85.979
20
-192.77
11
85.979
21
-192.77
0
LINE
8
BLACK
10
85.979
20
-192.77
11
86.6047
21
-192.646
0
LINE
8
BLACK
10
86.6047
20
-192.646
11
86.6047
21
-192.646
0
LINE
8
BLACK
10
86.6047
20
-192.646
11
87.1351
21
-192.291
0
LINE
8
BLACK
10
87.1351
20
-192.291
11
88.7861
21
-190.64
0
LINE
8
BLACK
10
88.7861
20
-190.64
11
88.7861
21
-190.64
0
LINE
8
BLACK
10
88.7861
20
-190.64
11
88.7861
21
-190.64
0
LINE
8
BLACK
10
88.7861
20
-190.64
11
89.1405
21
-190.11
0
LINE
8
BLACK
10
89.1405
20
-190.11
11
89.1405
21
-190.11
0
LINE
8
BLACK
10
89.1405
20
-190.11
11
89.265
21
-189.484
0
LINE
8
BLACK
10
89.265
20
-189.484
11
89.265
21
-184.15
0
LINE
8
BLACK
10
89.265
20
-184.15
11
89.1405
21
-183.524
0
LINE
8
BLACK
10
89.1405
20
-183.524
11
89.1405
21
-183.524
0
LINE
8
BLACK
10
89.1405
20
-183.524
11
88.9986
21
-183.312
0
LINE
8
BLACK
10
88.9986
20
-183.312
11
88.7861
21
-182.994
0
LINE
8
BLACK
10
88.7861
20
-182.994
11
88.7861
21
-182.994
0
LINE
8
BLACK
10
88.7861
20
-182.994
11
88.0111
21
-182.219
0
LINE
8
BLACK
10
88.0111
20
-182.219
11
88.0111
21
-180.976
0
LINE
8
BLACK
10
88.0111
20
-180.976
11
87.9146
21
-180.743
0
LINE
8
BLACK
10
87.9146
20
-180.743
11
87.766
21
-180.594
0
LINE
8
BLACK
10
87.766
20
-180.594
11
87.914
21
-180.446
0
LINE
8
BLACK
10
87.914
20
-180.446
11
88.0109
21
-180.213
0
LINE
8
BLACK
10
88.0109
20
-180.213
11
88.0111
21
-179.96
0
LINE
8
BLACK
10
88.0111
20
-179.96
11
88.0111
21
-176.404
0
LINE
8
BLACK
10
88.0111
20
-176.404
11
87.9146
21
-176.171
0
LINE
8
BLACK
10
87.9146
20
-176.171
11
87.7362
21
-175.992
0
LINE
8
BLACK
10
87.7362
20
-175.992
11
87.5029
21
-175.895
0
LINE
8
BLACK
10
87.5029
20
-175.895
11
87.2502
21
-175.895
0
LINE
8
BLACK
10
87.2502
20
-175.895
11
85.2182
21
-175.895
0
LINE
8
BLACK
10
85.2182
20
-175.895
11
84.9848
21
-175.991
0
LINE
8
BLACK
10
84.9848
20
-175.991
11
84.806
21
-176.17
0
LINE
8
BLACK
10
84.806
20
-176.17
11
84.7091
21
-176.403
0
LINE
8
BLACK
10
84.7091
20
-176.403
11
84.7089
21
-176.656
0
LINE
8
BLACK
10
84.7089
20
-176.656
11
84.7089
21
-178.566
0
LINE
8
BLACK
10
84.7089
20
-178.566
11
83.1235
21
-180.152
0
LINE
8
BLACK
10
83.1235
20
-180.152
11
82.91
21
-180.471
0
LINE
8
BLACK
10
82.91
20
-180.471
11
82.835
21
-180.848
0
LINE
8
BLACK
10
82.835
20
-180.848
11
82.835
21
-187.314
0
LINE
8
BLACK
10
82.835
20
-187.314
11
82.4238
21
-187.589
0
LINE
8
BLACK
10
82.4238
20
-187.589
11
82.4099
21
-187.61
0
LINE
8
BLACK
10
82.4099
20
-187.61
11
79.783
21
-187.61
0
LINE
8
BLACK
10
79.783
20
-187.61
11
78.6724
21
-186.499
0
LINE
8
BLACK
10
78.6724
20
-186.499
11
78.7311
21
-186.499
0
LINE
8
BLACK
10
78.7311
20
-186.499
11
78.8878
21
-186.657
0
LINE
8
BLACK
10
78.8878
20
-186.657
11
79.1211
21
-186.753
0
LINE
8
BLACK
10
79.1211
20
-186.753
11
79.3738
21
-186.754
0
LINE
8
BLACK
10
79.3738
20
-186.754
11
80.2628
21
-186.754
0
LINE
8
BLACK
10
80.2628
20
-186.754
11
80.4962
21
-186.657
0
LINE
8
BLACK
10
80.4962
20
-186.657
11
80.675
21
-186.479
0
LINE
8
BLACK
10
80.675
20
-186.479
11
80.7719
21
-186.245
0
LINE
8
BLACK
10
80.7719
20
-186.245
11
80.7721
21
-185.993
0
LINE
8
BLACK
10
80.7721
20
-185.993
11
80.7721
21
-184.596
0
LINE
8
BLACK
10
80.7721
20
-184.596
11
80.6756
21
-184.362
0
LINE
8
BLACK
10
80.6756
20
-184.362
11
80.4972
21
-184.183
0
LINE
8
BLACK
10
80.4972
20
-184.183
11
80.2639
21
-184.087
0
LINE
8
BLACK
10
80.2639
20
-184.087
11
80.0112
21
-184.086
0
LINE
8
BLACK
10
80.0112
20
-184.086
11
79.1222
21
-184.086
0
LINE
8
BLACK
10
79.1222
20
-184.086
11
78.8888
21
-184.183
0
LINE
8
BLACK
10
78.8888
20
-184.183
11
78.7309
21
-184.34
0
LINE
8
BLACK
10
78.7309
20
-184.34
11
78.5262
21
-184.34
0
LINE
8
BLACK
10
78.5262
20
-184.34
11
78.1293
21
-184.504
0
LINE
8
BLACK
10
78.1293
20
-184.504
11
77.8254
21
-184.808
0
LINE
8
BLACK
10
77.8254
20
-184.808
11
77.6607
21
-185.204
0
LINE
8
BLACK
10
77.6607
20
-185.204
11
77.6604
21
-185.487
0
LINE
8
BLACK
10
77.6604
20
-185.487
11
77.1998
21
-185.027
0
LINE
8
BLACK
10
77.1998
20
-185.027
11
77.2003
21
-184.461
0
LINE
8
BLACK
10
77.2003
20
-184.461
11
76.9519
21
-183.86
0
LINE
8
BLACK
10
76.9519
20
-183.86
11
76.4924
21
-183.4
0
LINE
8
BLACK
10
76.4924
20
-183.4
11
76.0836
21
-183.23
0
LINE
8
BLACK
10
76.0836
20
-183.23
11
78.6793
21
-183.23
0
LINE
8
BLACK
10
78.6793
20
-183.23
11
78.7094
21
-183.303
0
LINE
8
BLACK
10
78.7094
20
-183.303
11
78.8878
21
-183.482
0
LINE
8
BLACK
10
78.8878
20
-183.482
11
79.1211
21
-183.578
0
LINE
8
BLACK
10
79.1211
20
-183.578
11
79.3738
21
-183.579
0
LINE
8
BLACK
10
79.3738
20
-183.579
11
80.2628
21
-183.579
0
LINE
8
BLACK
10
80.2628
20
-183.579
11
80.4962
21
-183.482
0
LINE
8
BLACK
10
80.4962
20
-183.482
11
80.675
21
-183.304
0
LINE
8
BLACK
10
80.675
20
-183.304
11
80.7719
21
-183.07
0
LINE
8
BLACK
10
80.7719
20
-183.07
11
80.7721
21
-182.818
0
LINE
8
BLACK
10
80.7721
20
-182.818
11
80.7721
21
-181.421
0
LINE
8
BLACK
10
80.7721
20
-181.421
11
80.6756
21
-181.187
0
LINE
8
BLACK
10
80.6756
20
-181.187
11
80.4972
21
-181.008
0
LINE
8
BLACK
10
80.4972
20
-181.008
11
80.2639
21
-180.912
0
LINE
8
BLACK
10
80.2639
20
-180.912
11
80.0112
21
-180.911
0
LINE
8
BLACK
10
80.0112
20
-180.911
11
79.1222
21
-180.911
0
LINE
8
BLACK
10
79.1222
20
-180.911
11
78.8888
21
-181.008
0
LINE
8
BLACK
10
78.8888
20
-181.008
11
78.71
21
-181.186
0
LINE
8
BLACK
10
78.71
20
-181.186
11
78.6794
21
-181.26
0
LINE
8
BLACK
10
78.6794
20
-181.26
11
74.3519
21
-181.26
0
LINE
8
BLACK
10
74.3519
20
-181.26
11
73.9524
21
-180.86
0
LINE
8
BLACK
10
73.9524
20
-180.86
11
73.3516
21
-180.61
0
LINE
8
BLACK
10
73.3516
20
-180.61
11
72.7012
21
-180.61
0
LINE
8
BLACK
10
72.7012
20
-180.61
11
72.1001
21
-180.858
0
LINE
8
BLACK
10
72.1001
20
-180.858
11
71.6397
21
-181.318
0
LINE
8
BLACK
10
71.6397
20
-181.318
11
71.3903
21
-181.918
0
LINE
8
BLACK
10
71.3903
20
-181.918
11
71.3897
21
-182.569
0
LINE
8
BLACK
10
71.3897
20
-182.569
11
71.6381
21
-183.17
0
LINE
8
BLACK
10
71.6381
20
-183.17
11
72.0976
21
-183.63
0
LINE
8
BLACK
10
72.0976
20
-183.63
11
72.6984
21
-183.88
0
LINE
8
BLACK
10
72.6984
20
-183.88
11
73.3488
21
-183.88
0
LINE
8
BLACK
10
73.3488
20
-183.88
11
73.9499
21
-183.632
0
LINE
8
BLACK
10
73.9499
20
-183.632
11
74.3525
21
-183.23
0
LINE
8
BLACK
10
74.3525
20
-183.23
11
75.0469
21
-183.23
0
LINE
8
BLACK
10
75.0469
20
-183.23
11
74.6401
21
-183.398
0
LINE
8
BLACK
10
74.6401
20
-183.398
11
74.1797
21
-183.858
0
LINE
8
BLACK
10
74.1797
20
-183.858
11
73.9303
21
-184.458
0
LINE
8
BLACK
10
73.9303
20
-184.458
11
73.9297
21
-185.109
0
LINE
8
BLACK
10
73.9297
20
-185.109
11
74.1781
21
-185.71
0
LINE
8
BLACK
10
74.1781
20
-185.71
11
74.6376
21
-186.17
0
LINE
8
BLACK
10
74.6376
20
-186.17
11
75.2384
21
-186.42
0
LINE
8
BLACK
10
75.2384
20
-186.42
11
75.8072
21
-186.42
0
LINE
8
BLACK
10
75.8072
20
-186.42
11
78.6785
21
-189.292
0
LINE
8
BLACK
10
78.6785
20
-189.292
11
78.6785
21
-189.292
0
LINE
8
BLACK
10
78.6785
20
-189.292
11
78.892
21
-189.434
0
LINE
8
BLACK
10
78.892
20
-189.434
11
78.9981
21
-189.505
0
LINE
8
BLACK
10
78.9981
20
-189.505
11
78.9981
21
-189.505
0
LINE
8
BLACK
10
78.9981
20
-189.505
11
79.375
21
-189.58
0
LINE
8
BLACK
10
79.375
20
-189.58
11
82.4099
21
-189.58
0
LINE
8
BLACK
10
82.4099
20
-189.58
11
82.4238
21
-189.601
0
LINE
8
BLACK
10
82.4238
20
-189.601
11
82.8192
21
-189.865
0
LINE
8
BLACK
10
82.8192
20
-189.865
11
82.4238
21
-190.129
0
LINE
8
BLACK
10
82.4238
20
-190.129
11
82.1154
21
-190.591
0
LINE
8
BLACK
10
82.1154
20
-190.591
11
82.0072
21
-191.135
0
LINE
8
BLACK
10
82.0072
20
-191.135
11
82.1154
21
-191.679
0
LINE
8
BLACK
10
82.1154
20
-191.679
11
82.185
21
-191.783
0
LINE
8
BLACK
10
82.185
20
-191.783
11
82.185
21
-193.027
0
LINE
8
BLACK
10
82.185
20
-193.027
11
82.1154
21
-193.131
0
LINE
8
BLACK
10
82.1154
20
-193.131
11
82.0072
21
-193.675
0
LINE
8
BLACK
10
82.0072
20
-193.675
11
82.1154
21
-194.219
0
LINE
8
BLACK
10
82.1154
20
-194.219
11
82.185
21
-194.323
0
LINE
8
BLACK
10
82.185
20
-194.323
11
82.185
21
-194.58
0
LINE
8
BLACK
10
82.185
20
-194.58
11
80.0522
21
-194.58
0
LINE
8
BLACK
10
80.0522
20
-194.58
11
79.6291
21
-194.157
0
LINE
8
BLACK
10
79.6291
20
-194.157
11
79.6291
21
-193.93
0
LINE
8
BLACK
10
79.6291
20
-193.93
11
79.5326
21
-193.697
0
LINE
8
BLACK
10
79.5326
20
-193.697
11
79.3542
21
-193.518
0
LINE
8
BLACK
10
79.3542
20
-193.518
11
79.1209
21
-193.421
0
LINE
8
BLACK
10
79.1209
20
-193.421
11
78.8682
21
-193.421
0
LINE
8
BLACK
10
78.8682
20
-193.421
11
78.6625
21
-193.421
0
LINE
8
BLACK
10
78.6625
20
-193.421
11
78.105
21
-193.31
0
LINE
8
BLACK
10
78.105
20
-193.31
11
77.5475
21
-193.421
0
LINE
8
BLACK
10
77.5475
20
-193.421
11
77.0902
21
-193.421
0
LINE
8
BLACK
10
77.0902
20
-193.421
11
76.8568
21
-193.517
0
LINE
8
BLACK
10
76.8568
20
-193.517
11
76.678
21
-193.696
0
LINE
8
BLACK
10
76.678
20
-193.696
11
76.5811
21
-193.929
0
LINE
8
BLACK
10
76.5811
20
-193.929
11
76.5809
21
-194.182
0
LINE
8
BLACK
10
76.5809
20
-194.182
11
76.5809
21
-194.388
0
LINE
8
BLACK
10
76.5809
20
-194.388
11
76.47
21
-194.945
0
LINE
8
BLACK
10
76.47
20
-194.945
11
76.5809
21
-195.502
0
LINE
8
BLACK
10
76.5809
20
-195.502
11
76.5809
21
-195.96
0
LINE
8
BLACK
10
76.5809
20
-195.96
11
76.6774
21
-196.193
0
LINE
8
BLACK
10
76.6774
20
-196.193
11
76.8558
21
-196.372
0
LINE
8
BLACK
10
76.8558
20
-196.372
11
77.0891
21
-196.469
0
LINE
8
BLACK
10
77.0891
20
-196.469
11
77.3168
21
-196.469
0
LINE
8
BLACK
10
77.3168
20
-196.469
11
78.2189
21
-197.371
0
LINE
8
BLACK
10
78.2189
20
-197.371
11
78.2189
21
-197.371
0
LINE
8
BLACK
10
78.2189
20
-197.371
11
78.5369
21
-197.584
0
LINE
8
BLACK
10
78.5369
20
-197.584
11
78.7493
21
-197.726
0
LINE
8
BLACK
10
78.7493
20
-197.726
11
78.7493
21
-197.726
0
LINE
8
BLACK
10
78.7493
20
-197.726
11
79.375
21
-197.85
0
LINE
8
BLACK
10
79.375
20
-197.85
11
83.82
21
-197.85
0
LINE
8
BLACK
10
83.82
20
-197.85
11
89.17
21
-197.85
0
LINE
8
BLACK
10
89.17
20
-197.85
11
89.17
21
-202.24
0
LINE
8
BLACK
10
89.17
20
-202.24
11
88.1792
21
-202.24
0
LINE
8
BLACK
10
88.1792
20
-202.24
11
87.9458
21
-202.336
0
LINE
8
BLACK
10
87.9458
20
-202.336
11
87.767
21
-202.515
0
LINE
8
BLACK
10
87.767
20
-202.515
11
87.6701
21
-202.748
0
LINE
8
BLACK
10
87.6701
20
-202.748
11
87.6699
21
-203.001
0
LINE
8
BLACK
10
87.6699
20
-203.001
11
87.6699
21
-210.001
0
LINE
8
BLACK
10
87.6699
20
-210.001
11
87.7664
21
-210.234
0
LINE
8
BLACK
10
87.7664
20
-210.234
11
87.9448
21
-210.413
0
LINE
8
BLACK
10
87.9448
20
-210.413
11
88.1781
21
-210.51
0
LINE
8
BLACK
10
88.1781
20
-210.51
11
88.4308
21
-210.51
0
LINE
8
BLACK
10
88.4308
20
-210.51
11
93.4308
21
-210.51
0
LINE
8
BLACK
10
93.4308
20
-210.51
11
93.6642
21
-210.414
0
LINE
8
BLACK
10
93.6642
20
-210.414
11
93.843
21
-210.235
0
LINE
8
BLACK
10
93.843
20
-210.235
11
93.93
21
-210.026
0
LINE
8
BLACK
10
93.93
20
-210.026
11
93.93
21
-224.74
  0
ENDSEC
  0
EOF
