  0
SECTION
  2
HEADER
  9
$ANGBASE
  50
0.0
  9
$ANGDIR
  70
  1
  9
$MEASUREMENT
  70
0
  0
ENDSEC
  0
SECTION
  2
TABLES
  0
TABLE
  2
LTYPE
  70
1
  0
LTYPE
  2
CONTINUOUS
  70
0
  3
Solid line
  72
65
  73
0
  40
0.0
  0
ENDTAB
  0
TABLE
  2
STYLE
  70
4
  0
STYLE
  2
KICAD
  70
0
  40
0
  41
1
  42
1
  50
0
  71
0
  3
isocp.shx
  0
STYLE
  2
KICADB
  70
0
  40
0
  41
1
  42
1
  50
0
  71
0
  3
isocp.shx
  0
STYLE
  2
KICADI
  70
0
  40
0
  41
1
  42
1
  50
15
  71
0
  3
isocp.shx
  0
STYLE
  2
KICADBI
  70
0
  40
0
  41
1
  42
1
  50
15
  71
0
  3
isocp.shx
  0
ENDTAB
  0
TABLE
  2
LAYER
  70
24
  0
LAYER
  2
BLACK
  70
0
  62
250
  6
CONTINUOUS
  0
LAYER
  2
BLUE
  70
0
  62
5
  6
CONTINUOUS
  0
LAYER
  2
GREEN
  70
0
  62
3
  6
CONTINUOUS
  0
LAYER
  2
CYAN
  70
0
  62
4
  6
CONTINUOUS
  0
LAYER
  2
RED
  70
0
  62
1
  6
CONTINUOUS
  0
LAYER
  2
MAGENTA
  70
0
  62
6
  6
CONTINUOUS
  0
LAYER
  2
BROWN
  70
0
  62
54
  6
CONTINUOUS
  0
LAYER
  2
LIGHTGRAY
  70
0
  62
9
  6
CONTINUOUS
  0
LAYER
  2
DARKGRAY
  70
0
  62
8
  6
CONTINUOUS
  0
LAYER
  2
LIGHTBLUE
  70
0
  62
171
  6
CONTINUOUS
  0
LAYER
  2
LIGHTGREEN
  70
0
  62
91
  6
CONTINUOUS
  0
LAYER
  2
LIGHTCYAN
  70
0
  62
131
  6
CONTINUOUS
  0
LAYER
  2
LIGHTRED
  70
0
  62
11
  6
CONTINUOUS
  0
LAYER
  2
LIGHTMAGENTA
  70
0
  62
221
  6
CONTINUOUS
  0
LAYER
  2
YELLOW
  70
0
  62
2
  6
CONTINUOUS
  0
LAYER
  2
WHITE
  70
0
  62
7
  6
CONTINUOUS
  0
LAYER
  2
DARKDARKGRAY
  70
0
  62
251
  6
CONTINUOUS
  0
LAYER
  2
DARKBLUE
  70
0
  62
178
  6
CONTINUOUS
  0
LAYER
  2
DARKGREEN
  70
0
  62
98
  6
CONTINUOUS
  0
LAYER
  2
DARKCYAN
  70
0
  62
138
  6
CONTINUOUS
  0
LAYER
  2
DARKRED
  70
0
  62
18
  6
CONTINUOUS
  0
LAYER
  2
DARKMAGENTA
  70
0
  62
228
  6
CONTINUOUS
  0
LAYER
  2
DARKBROWN
  70
0
  62
58
  6
CONTINUOUS
  0
LAYER
  2
LIGHTYELLOW
  70
0
  62
51
  6
CONTINUOUS
  0
ENDTAB
  0
ENDSEC
  0
SECTION
  2
ENTITIES
0
LINE
8
BLACK
10
50.165
20
-171.5
11
94.615
21
-171.5
0
LINE
8
BLACK
10
50.165
20
-171.4
11
94.615
21
-171.4
0
ARC
8
BLACK
10
94.615
20
-171.45
40
0.05
50
270
51
450
0
ARC
8
BLACK
10
50.165
20
-171.45
40
0.05
50
90
51
270
0
LINE
8
BLACK
10
50.215
20
-225.425
11
50.215
21
-171.45
0
LINE
8
BLACK
10
50.115
20
-225.425
11
50.115
21
-171.45
0
ARC
8
BLACK
10
50.165
20
-171.45
40
0.05
50
360
51
540
0
ARC
8
BLACK
10
50.165
20
-225.425
40
0.05
50
180
51
360
0
LINE
8
BLACK
10
50.165
20
-225.475
11
94.615
21
-225.475
0
LINE
8
BLACK
10
50.165
20
-225.375
11
94.615
21
-225.375
0
ARC
8
BLACK
10
94.615
20
-225.425
40
0.05
50
270
51
450
0
ARC
8
BLACK
10
50.165
20
-225.425
40
0.05
50
90
51
270
0
LINE
8
BLACK
10
94.665
20
-225.425
11
94.665
21
-171.45
0
LINE
8
BLACK
10
94.565
20
-225.425
11
94.565
21
-171.45
0
ARC
8
BLACK
10
94.615
20
-171.45
40
0.05
50
360
51
540
0
ARC
8
BLACK
10
94.615
20
-225.425
40
0.05
50
180
51
360
0
LINE
8
BLACK
10
88.305
20
-202.875
11
88.305
21
-209.875
0
LINE
8
BLACK
10
88.305
20
-209.875
11
93.305
21
-209.875
0
LINE
8
BLACK
10
93.305
20
-209.875
11
93.305
21
-202.875
0
LINE
8
BLACK
10
93.305
20
-202.875
11
88.305
21
-202.875
0
LINE
8
BLACK
10
78.145
20
-202.875
11
78.145
21
-209.875
0
LINE
8
BLACK
10
78.145
20
-209.875
11
83.145
21
-209.875
0
LINE
8
BLACK
10
83.145
20
-209.875
11
83.145
21
-202.875
0
LINE
8
BLACK
10
83.145
20
-202.875
11
78.145
21
-202.875
0
LINE
8
BLACK
10
63.881
20
-220.726
11
63.881
21
-222.504
0
LINE
8
BLACK
10
63.881
20
-222.504
11
65.659
21
-222.504
0
LINE
8
BLACK
10
65.659
20
-222.504
11
65.659
21
-220.726
0
LINE
8
BLACK
10
65.659
20
-220.726
11
63.881
21
-220.726
0
CIRCLE
8
BLACK
10
64.77
20
-216.535
40
1
0
CIRCLE
8
BLACK
10
64.77
20
-219.075
40
1
0
LINE
8
BLACK
10
76.835
20
-214.63
11
76.835
21
-223.52
0
LINE
8
BLACK
10
76.835
20
-223.52
11
85.725
21
-223.52
0
LINE
8
BLACK
10
85.725
20
-223.52
11
85.725
21
-214.63
0
LINE
8
BLACK
10
85.725
20
-214.63
11
76.835
21
-214.63
0
LINE
8
BLACK
10
85.344
20
-181.102
11
85.344
21
-184.658
0
LINE
8
BLACK
10
85.344
20
-184.658
11
87.376
21
-184.658
0
LINE
8
BLACK
10
87.376
20
-184.658
11
87.376
21
-181.102
0
LINE
8
BLACK
10
87.376
20
-181.102
11
85.344
21
-181.102
0
LINE
8
BLACK
10
90.424
20
-181.102
11
90.424
21
-184.658
0
LINE
8
BLACK
10
90.424
20
-184.658
11
92.456
21
-184.658
0
LINE
8
BLACK
10
92.456
20
-184.658
11
92.456
21
-181.102
0
LINE
8
BLACK
10
92.456
20
-181.102
11
90.424
21
-181.102
0
LINE
8
BLACK
10
85.344
20
-176.53
11
85.344
21
-180.086
0
LINE
8
BLACK
10
85.344
20
-180.086
11
87.376
21
-180.086
0
LINE
8
BLACK
10
87.376
20
-180.086
11
87.376
21
-176.53
0
LINE
8
BLACK
10
87.376
20
-176.53
11
85.344
21
-176.53
0
LINE
8
BLACK
10
90.424
20
-176.53
11
90.424
21
-180.086
0
LINE
8
BLACK
10
90.424
20
-180.086
11
92.456
21
-180.086
0
LINE
8
BLACK
10
92.456
20
-180.086
11
92.456
21
-176.53
0
LINE
8
BLACK
10
92.456
20
-176.53
11
90.424
21
-176.53
0
LINE
8
BLACK
10
79.248
20
-184.722
11
79.248
21
-186.119
0
LINE
8
BLACK
10
79.248
20
-186.119
11
80.137
21
-186.119
0
LINE
8
BLACK
10
80.137
20
-186.119
11
80.137
21
-184.722
0
LINE
8
BLACK
10
80.137
20
-184.722
11
79.248
21
-184.722
0
LINE
8
BLACK
10
81.153
20
-184.722
11
81.153
21
-186.119
0
LINE
8
BLACK
10
81.153
20
-186.119
11
82.042
21
-186.119
0
LINE
8
BLACK
10
82.042
20
-186.119
11
82.042
21
-184.722
0
LINE
8
BLACK
10
82.042
20
-184.722
11
81.153
21
-184.722
0
LINE
8
BLACK
10
65.278
20
-213.297
11
65.278
21
-214.694
0
LINE
8
BLACK
10
65.278
20
-214.694
11
66.167
21
-214.694
0
LINE
8
BLACK
10
66.167
20
-214.694
11
66.167
21
-213.297
0
LINE
8
BLACK
10
66.167
20
-213.297
11
65.278
21
-213.297
0
LINE
8
BLACK
10
67.183
20
-213.297
11
67.183
21
-214.694
0
LINE
8
BLACK
10
67.183
20
-214.694
11
68.072
21
-214.694
0
LINE
8
BLACK
10
68.072
20
-214.694
11
68.072
21
-213.297
0
LINE
8
BLACK
10
68.072
20
-213.297
11
67.183
21
-213.297
0
LINE
8
BLACK
10
79.248
20
-181.547
11
79.248
21
-182.944
0
LINE
8
BLACK
10
79.248
20
-182.944
11
80.137
21
-182.944
0
LINE
8
BLACK
10
80.137
20
-182.944
11
80.137
21
-181.547
0
LINE
8
BLACK
10
80.137
20
-181.547
11
79.248
21
-181.547
0
LINE
8
BLACK
10
81.153
20
-181.547
11
81.153
21
-182.944
0
LINE
8
BLACK
10
81.153
20
-182.944
11
82.042
21
-182.944
0
LINE
8
BLACK
10
82.042
20
-182.944
11
82.042
21
-181.547
0
LINE
8
BLACK
10
82.042
20
-181.547
11
81.153
21
-181.547
0
CIRCLE
8
BLACK
10
73.025
20
-182.245
40
1
0
CIRCLE
8
BLACK
10
75.565
20
-184.785
40
1
0
CIRCLE
8
BLACK
10
73.025
20
-187.325
40
1
0
CIRCLE
8
BLACK
10
74.295
20
-210.82
40
1
0
CIRCLE
8
BLACK
10
66.675
20
-210.82
40
1
0
LINE
8
BLACK
10
90.297
20
-197.002
11
92.583
21
-197.002
0
LINE
8
BLACK
10
92.583
20
-197.002
11
92.583
21
-195.428
0
LINE
8
BLACK
10
92.583
20
-195.428
11
90.297
21
-195.428
0
LINE
8
BLACK
10
90.297
20
-195.428
11
90.297
21
-197.002
0
LINE
8
BLACK
10
91.0844
20
-194.462
11
91.7956
21
-194.462
0
LINE
8
BLACK
10
91.0844
20
-192.888
11
91.7956
21
-192.888
0
ARC
8
BLACK
10
91.7956
20
-193.675
40
0.7874
50
270
51
450
0
ARC
8
BLACK
10
91.0844
20
-193.675
40
0.7874
50
90
51
270
0
LINE
8
BLACK
10
91.0844
20
-191.922
11
91.7956
21
-191.922
0
LINE
8
BLACK
10
91.0844
20
-190.348
11
91.7956
21
-190.348
0
ARC
8
BLACK
10
91.7956
20
-191.135
40
0.7874
50
270
51
450
0
ARC
8
BLACK
10
91.0844
20
-191.135
40
0.7874
50
90
51
270
0
LINE
8
BLACK
10
91.0844
20
-189.382
11
91.7956
21
-189.382
0
LINE
8
BLACK
10
91.0844
20
-187.808
11
91.7956
21
-187.808
0
ARC
8
BLACK
10
91.7956
20
-188.595
40
0.7874
50
270
51
450
0
ARC
8
BLACK
10
91.0844
20
-188.595
40
0.7874
50
90
51
270
0
LINE
8
BLACK
10
83.4644
20
-189.382
11
84.1756
21
-189.382
0
LINE
8
BLACK
10
83.4644
20
-187.808
11
84.1756
21
-187.808
0
ARC
8
BLACK
10
84.1756
20
-188.595
40
0.7874
50
270
51
450
0
ARC
8
BLACK
10
83.4644
20
-188.595
40
0.7874
50
90
51
270
0
LINE
8
BLACK
10
83.4644
20
-191.922
11
84.1756
21
-191.922
0
LINE
8
BLACK
10
83.4644
20
-190.348
11
84.1756
21
-190.348
0
ARC
8
BLACK
10
84.1756
20
-191.135
40
0.7874
50
270
51
450
0
ARC
8
BLACK
10
83.4644
20
-191.135
40
0.7874
50
90
51
270
0
LINE
8
BLACK
10
83.4644
20
-194.462
11
84.1756
21
-194.462
0
LINE
8
BLACK
10
83.4644
20
-192.888
11
84.1756
21
-192.888
0
ARC
8
BLACK
10
84.1756
20
-193.675
40
0.7874
50
270
51
450
0
ARC
8
BLACK
10
83.4644
20
-193.675
40
0.7874
50
90
51
270
0
LINE
8
BLACK
10
83.4644
20
-197.002
11
84.1756
21
-197.002
0
LINE
8
BLACK
10
83.4644
20
-195.428
11
84.1756
21
-195.428
0
ARC
8
BLACK
10
84.1756
20
-196.215
40
0.7874
50
270
51
450
0
ARC
8
BLACK
10
83.4644
20
-196.215
40
0.7874
50
90
51
270
0
LINE
8
BLACK
10
78.994
20
-195.834
11
78.994
21
-194.056
0
LINE
8
BLACK
10
78.994
20
-194.056
11
77.216
21
-194.056
0
LINE
8
BLACK
10
77.216
20
-194.056
11
77.216
21
-195.834
0
LINE
8
BLACK
10
77.216
20
-195.834
11
78.994
21
-195.834
0
CIRCLE
8
BLACK
10
73.025
20
-194.945
40
1
0
LINE
8
BLACK
10
59.944
20
-219.329
11
59.944
21
-217.551
0
LINE
8
BLACK
10
59.944
20
-217.551
11
58.166
21
-217.551
0
LINE
8
BLACK
10
58.166
20
-217.551
11
58.166
21
-219.329
0
LINE
8
BLACK
10
58.166
20
-219.329
11
59.944
21
-219.329
0
CIRCLE
8
BLACK
10
53.975
20
-218.44
40
1
0
CIRCLE
8
BLACK
10
77.47
20
-175.26
40
1
0
CIRCLE
8
BLACK
10
72.39
20
-175.26
40
1
0
CIRCLE
8
BLACK
10
58.42
20
-209.55
40
1
0
CIRCLE
8
BLACK
10
66.04
20
-199.39
40
1
0
CIRCLE
8
BLACK
10
53.34
20
-209.55
40
1
0
CIRCLE
8
BLACK
10
63.5
20
-209.55
40
1
0
CIRCLE
8
BLACK
10
54.61
20
-194.31
40
1
0
CIRCLE
8
BLACK
10
66.04
20
-189.23
40
1
0
CIRCLE
8
BLACK
10
66.04
20
-184.15
40
1
0
CIRCLE
8
BLACK
10
66.04
20
-179.07
40
1
0
CIRCLE
8
BLACK
10
66.04
20
-204.47
40
1
0
CIRCLE
8
BLACK
10
66.04
20
-194.31
40
1
0
CIRCLE
8
BLACK
10
54.61
20
-184.15
40
1
0
CIRCLE
8
BLACK
10
54.61
20
-199.39
40
1
0
CIRCLE
8
BLACK
10
54.61
20
-179.07
40
1
0
CIRCLE
8
BLACK
10
54.61
20
-189.23
40
1
0
CIRCLE
8
BLACK
10
54.61
20
-204.47
40
1
0
LINE
8
BLACK
10
57.023
20
-193.612
11
57.023
21
-195.009
0
LINE
8
BLACK
10
57.023
20
-195.009
11
57.912
21
-195.009
0
LINE
8
BLACK
10
57.912
20
-195.009
11
57.912
21
-193.612
0
LINE
8
BLACK
10
57.912
20
-193.612
11
57.023
21
-193.612
0
LINE
8
BLACK
10
58.928
20
-193.612
11
58.928
21
-195.009
0
LINE
8
BLACK
10
58.928
20
-195.009
11
59.817
21
-195.009
0
LINE
8
BLACK
10
59.817
20
-195.009
11
59.817
21
-193.612
0
LINE
8
BLACK
10
59.817
20
-193.612
11
58.928
21
-193.612
0
LINE
8
BLACK
10
57.023
20
-203.772
11
57.023
21
-205.169
0
LINE
8
BLACK
10
57.023
20
-205.169
11
57.912
21
-205.169
0
LINE
8
BLACK
10
57.912
20
-205.169
11
57.912
21
-203.772
0
LINE
8
BLACK
10
57.912
20
-203.772
11
57.023
21
-203.772
0
LINE
8
BLACK
10
58.928
20
-203.772
11
58.928
21
-205.169
0
LINE
8
BLACK
10
58.928
20
-205.169
11
59.817
21
-205.169
0
LINE
8
BLACK
10
59.817
20
-205.169
11
59.817
21
-203.772
0
LINE
8
BLACK
10
59.817
20
-203.772
11
58.928
21
-203.772
0
LINE
8
BLACK
10
57.023
20
-178.372
11
57.023
21
-179.769
0
LINE
8
BLACK
10
57.023
20
-179.769
11
57.912
21
-179.769
0
LINE
8
BLACK
10
57.912
20
-179.769
11
57.912
21
-178.372
0
LINE
8
BLACK
10
57.912
20
-178.372
11
57.023
21
-178.372
0
LINE
8
BLACK
10
58.928
20
-178.372
11
58.928
21
-179.769
0
LINE
8
BLACK
10
58.928
20
-179.769
11
59.817
21
-179.769
0
LINE
8
BLACK
10
59.817
20
-179.769
11
59.817
21
-178.372
0
LINE
8
BLACK
10
59.817
20
-178.372
11
58.928
21
-178.372
0
LINE
8
BLACK
10
57.023
20
-183.452
11
57.023
21
-184.849
0
LINE
8
BLACK
10
57.023
20
-184.849
11
57.912
21
-184.849
0
LINE
8
BLACK
10
57.912
20
-184.849
11
57.912
21
-183.452
0
LINE
8
BLACK
10
57.912
20
-183.452
11
57.023
21
-183.452
0
LINE
8
BLACK
10
58.928
20
-183.452
11
58.928
21
-184.849
0
LINE
8
BLACK
10
58.928
20
-184.849
11
59.817
21
-184.849
0
LINE
8
BLACK
10
59.817
20
-184.849
11
59.817
21
-183.452
0
LINE
8
BLACK
10
59.817
20
-183.452
11
58.928
21
-183.452
0
LINE
8
BLACK
10
57.023
20
-188.532
11
57.023
21
-189.929
0
LINE
8
BLACK
10
57.023
20
-189.929
11
57.912
21
-189.929
0
LINE
8
BLACK
10
57.912
20
-189.929
11
57.912
21
-188.532
0
LINE
8
BLACK
10
57.912
20
-188.532
11
57.023
21
-188.532
0
LINE
8
BLACK
10
58.928
20
-188.532
11
58.928
21
-189.929
0
LINE
8
BLACK
10
58.928
20
-189.929
11
59.817
21
-189.929
0
LINE
8
BLACK
10
59.817
20
-189.929
11
59.817
21
-188.532
0
LINE
8
BLACK
10
59.817
20
-188.532
11
58.928
21
-188.532
0
LINE
8
BLACK
10
57.023
20
-198.692
11
57.023
21
-200.089
0
LINE
8
BLACK
10
57.023
20
-200.089
11
57.912
21
-200.089
0
LINE
8
BLACK
10
57.912
20
-200.089
11
57.912
21
-198.692
0
LINE
8
BLACK
10
57.912
20
-198.692
11
57.023
21
-198.692
0
LINE
8
BLACK
10
58.928
20
-198.692
11
58.928
21
-200.089
0
LINE
8
BLACK
10
58.928
20
-200.089
11
59.817
21
-200.089
0
LINE
8
BLACK
10
59.817
20
-200.089
11
59.817
21
-198.692
0
LINE
8
BLACK
10
59.817
20
-198.692
11
58.928
21
-198.692
0
LINE
8
BLACK
10
57.023
20
-195.58
11
57.023
21
-197.612
0
LINE
8
BLACK
10
57.023
20
-197.612
11
58.547
21
-197.612
0
LINE
8
BLACK
10
58.547
20
-197.612
11
58.547
21
-195.58
0
LINE
8
BLACK
10
58.547
20
-195.58
11
57.023
21
-195.58
0
LINE
8
BLACK
10
60.325
20
-195.58
11
60.325
21
-197.612
0
LINE
8
BLACK
10
60.325
20
-197.612
11
61.849
21
-197.612
0
LINE
8
BLACK
10
61.849
20
-197.612
11
61.849
21
-195.58
0
LINE
8
BLACK
10
61.849
20
-195.58
11
60.325
21
-195.58
0
LINE
8
BLACK
10
57.023
20
-205.74
11
57.023
21
-207.772
0
LINE
8
BLACK
10
57.023
20
-207.772
11
58.547
21
-207.772
0
LINE
8
BLACK
10
58.547
20
-207.772
11
58.547
21
-205.74
0
LINE
8
BLACK
10
58.547
20
-205.74
11
57.023
21
-205.74
0
LINE
8
BLACK
10
60.325
20
-205.74
11
60.325
21
-207.772
0
LINE
8
BLACK
10
60.325
20
-207.772
11
61.849
21
-207.772
0
LINE
8
BLACK
10
61.849
20
-207.772
11
61.849
21
-205.74
0
LINE
8
BLACK
10
61.849
20
-205.74
11
60.325
21
-205.74
0
LINE
8
BLACK
10
57.023
20
-180.34
11
57.023
21
-182.372
0
LINE
8
BLACK
10
57.023
20
-182.372
11
58.547
21
-182.372
0
LINE
8
BLACK
10
58.547
20
-182.372
11
58.547
21
-180.34
0
LINE
8
BLACK
10
58.547
20
-180.34
11
57.023
21
-180.34
0
LINE
8
BLACK
10
60.325
20
-180.34
11
60.325
21
-182.372
0
LINE
8
BLACK
10
60.325
20
-182.372
11
61.849
21
-182.372
0
LINE
8
BLACK
10
61.849
20
-182.372
11
61.849
21
-180.34
0
LINE
8
BLACK
10
61.849
20
-180.34
11
60.325
21
-180.34
0
LINE
8
BLACK
10
57.023
20
-185.42
11
57.023
21
-187.452
0
LINE
8
BLACK
10
57.023
20
-187.452
11
58.547
21
-187.452
0
LINE
8
BLACK
10
58.547
20
-187.452
11
58.547
21
-185.42
0
LINE
8
BLACK
10
58.547
20
-185.42
11
57.023
21
-185.42
0
LINE
8
BLACK
10
60.325
20
-185.42
11
60.325
21
-187.452
0
LINE
8
BLACK
10
60.325
20
-187.452
11
61.849
21
-187.452
0
LINE
8
BLACK
10
61.849
20
-187.452
11
61.849
21
-185.42
0
LINE
8
BLACK
10
61.849
20
-185.42
11
60.325
21
-185.42
0
LINE
8
BLACK
10
57.023
20
-190.5
11
57.023
21
-192.532
0
LINE
8
BLACK
10
57.023
20
-192.532
11
58.547
21
-192.532
0
LINE
8
BLACK
10
58.547
20
-192.532
11
58.547
21
-190.5
0
LINE
8
BLACK
10
58.547
20
-190.5
11
57.023
21
-190.5
0
LINE
8
BLACK
10
60.325
20
-190.5
11
60.325
21
-192.532
0
LINE
8
BLACK
10
60.325
20
-192.532
11
61.849
21
-192.532
0
LINE
8
BLACK
10
61.849
20
-192.532
11
61.849
21
-190.5
0
LINE
8
BLACK
10
61.849
20
-190.5
11
60.325
21
-190.5
0
LINE
8
BLACK
10
57.023
20
-200.66
11
57.023
21
-202.692
0
LINE
8
BLACK
10
57.023
20
-202.692
11
58.547
21
-202.692
0
LINE
8
BLACK
10
58.547
20
-202.692
11
58.547
21
-200.66
0
LINE
8
BLACK
10
58.547
20
-200.66
11
57.023
21
-200.66
0
LINE
8
BLACK
10
60.325
20
-200.66
11
60.325
21
-202.692
0
LINE
8
BLACK
10
60.325
20
-202.692
11
61.849
21
-202.692
0
LINE
8
BLACK
10
61.849
20
-202.692
11
61.849
21
-200.66
0
LINE
8
BLACK
10
61.849
20
-200.66
11
60.325
21
-200.66
0
LINE
8
BLACK
10
57.0865
20
-193.929
11
55.6895
21
-193.929
0
LINE
8
BLACK
10
55.6895
20
-193.929
11
55.6895
21
-194.818
0
LINE
8
BLACK
10
55.6895
20
-194.818
11
57.0865
21
-194.818
0
LINE
8
BLACK
10
57.0865
20
-194.818
11
57.0865
21
-193.929
0
LINE
8
BLACK
10
57.0865
20
-195.834
11
55.6895
21
-195.834
0
LINE
8
BLACK
10
55.6895
20
-195.834
11
55.6895
21
-196.723
0
LINE
8
BLACK
10
55.6895
20
-196.723
11
57.0865
21
-196.723
0
LINE
8
BLACK
10
57.0865
20
-196.723
11
57.0865
21
-195.834
0
LINE
8
BLACK
10
57.0865
20
-204.089
11
55.6895
21
-204.089
0
LINE
8
BLACK
10
55.6895
20
-204.089
11
55.6895
21
-204.978
0
LINE
8
BLACK
10
55.6895
20
-204.978
11
57.0865
21
-204.978
0
LINE
8
BLACK
10
57.0865
20
-204.978
11
57.0865
21
-204.089
0
LINE
8
BLACK
10
57.0865
20
-205.994
11
55.6895
21
-205.994
0
LINE
8
BLACK
10
55.6895
20
-205.994
11
55.6895
21
-206.883
0
LINE
8
BLACK
10
55.6895
20
-206.883
11
57.0865
21
-206.883
0
LINE
8
BLACK
10
57.0865
20
-206.883
11
57.0865
21
-205.994
0
LINE
8
BLACK
10
57.0865
20
-178.689
11
55.6895
21
-178.689
0
LINE
8
BLACK
10
55.6895
20
-178.689
11
55.6895
21
-179.578
0
LINE
8
BLACK
10
55.6895
20
-179.578
11
57.0865
21
-179.578
0
LINE
8
BLACK
10
57.0865
20
-179.578
11
57.0865
21
-178.689
0
LINE
8
BLACK
10
57.0865
20
-180.594
11
55.6895
21
-180.594
0
LINE
8
BLACK
10
55.6895
20
-180.594
11
55.6895
21
-181.483
0
LINE
8
BLACK
10
55.6895
20
-181.483
11
57.0865
21
-181.483
0
LINE
8
BLACK
10
57.0865
20
-181.483
11
57.0865
21
-180.594
0
LINE
8
BLACK
10
57.0865
20
-183.769
11
55.6895
21
-183.769
0
LINE
8
BLACK
10
55.6895
20
-183.769
11
55.6895
21
-184.658
0
LINE
8
BLACK
10
55.6895
20
-184.658
11
57.0865
21
-184.658
0
LINE
8
BLACK
10
57.0865
20
-184.658
11
57.0865
21
-183.769
0
LINE
8
BLACK
10
57.0865
20
-185.674
11
55.6895
21
-185.674
0
LINE
8
BLACK
10
55.6895
20
-185.674
11
55.6895
21
-186.563
0
LINE
8
BLACK
10
55.6895
20
-186.563
11
57.0865
21
-186.563
0
LINE
8
BLACK
10
57.0865
20
-186.563
11
57.0865
21
-185.674
0
LINE
8
BLACK
10
57.0865
20
-188.849
11
55.6895
21
-188.849
0
LINE
8
BLACK
10
55.6895
20
-188.849
11
55.6895
21
-189.738
0
LINE
8
BLACK
10
55.6895
20
-189.738
11
57.0865
21
-189.738
0
LINE
8
BLACK
10
57.0865
20
-189.738
11
57.0865
21
-188.849
0
LINE
8
BLACK
10
57.0865
20
-190.754
11
55.6895
21
-190.754
0
LINE
8
BLACK
10
55.6895
20
-190.754
11
55.6895
21
-191.643
0
LINE
8
BLACK
10
55.6895
20
-191.643
11
57.0865
21
-191.643
0
LINE
8
BLACK
10
57.0865
20
-191.643
11
57.0865
21
-190.754
0
LINE
8
BLACK
10
57.0865
20
-199.009
11
55.6895
21
-199.009
0
LINE
8
BLACK
10
55.6895
20
-199.009
11
55.6895
21
-199.898
0
LINE
8
BLACK
10
55.6895
20
-199.898
11
57.0865
21
-199.898
0
LINE
8
BLACK
10
57.0865
20
-199.898
11
57.0865
21
-199.009
0
LINE
8
BLACK
10
57.0865
20
-200.914
11
55.6895
21
-200.914
0
LINE
8
BLACK
10
55.6895
20
-200.914
11
55.6895
21
-201.803
0
LINE
8
BLACK
10
55.6895
20
-201.803
11
57.0865
21
-201.803
0
LINE
8
BLACK
10
57.0865
20
-201.803
11
57.0865
21
-200.914
0
LINE
8
BLACK
10
64.0004
20
-193.959
11
62.9996
21
-193.959
0
LINE
8
BLACK
10
62.9996
20
-193.959
11
62.9996
21
-194.661
0
LINE
8
BLACK
10
62.9996
20
-194.661
11
64.0004
21
-194.661
0
LINE
8
BLACK
10
64.0004
20
-194.661
11
64.0004
21
-193.959
0
LINE
8
BLACK
10
61.4604
20
-194.912
11
60.4596
21
-194.912
0
LINE
8
BLACK
10
60.4596
20
-194.912
11
60.4596
21
-195.613
0
LINE
8
BLACK
10
60.4596
20
-195.613
11
61.4604
21
-195.613
0
LINE
8
BLACK
10
61.4604
20
-195.613
11
61.4604
21
-194.912
0
LINE
8
BLACK
10
61.4604
20
-193.007
11
60.4596
21
-193.007
0
LINE
8
BLACK
10
60.4596
20
-193.007
11
60.4596
21
-193.708
0
LINE
8
BLACK
10
60.4596
20
-193.708
11
61.4604
21
-193.708
0
LINE
8
BLACK
10
61.4604
20
-193.708
11
61.4604
21
-193.007
0
LINE
8
BLACK
10
64.0004
20
-204.119
11
62.9996
21
-204.119
0
LINE
8
BLACK
10
62.9996
20
-204.119
11
62.9996
21
-204.821
0
LINE
8
BLACK
10
62.9996
20
-204.821
11
64.0004
21
-204.821
0
LINE
8
BLACK
10
64.0004
20
-204.821
11
64.0004
21
-204.119
0
LINE
8
BLACK
10
61.4604
20
-205.072
11
60.4596
21
-205.072
0
LINE
8
BLACK
10
60.4596
20
-205.072
11
60.4596
21
-205.773
0
LINE
8
BLACK
10
60.4596
20
-205.773
11
61.4604
21
-205.773
0
LINE
8
BLACK
10
61.4604
20
-205.773
11
61.4604
21
-205.072
0
LINE
8
BLACK
10
61.4604
20
-203.167
11
60.4596
21
-203.167
0
LINE
8
BLACK
10
60.4596
20
-203.167
11
60.4596
21
-203.868
0
LINE
8
BLACK
10
60.4596
20
-203.868
11
61.4604
21
-203.868
0
LINE
8
BLACK
10
61.4604
20
-203.868
11
61.4604
21
-203.167
0
LINE
8
BLACK
10
64.0004
20
-178.719
11
62.9996
21
-178.719
0
LINE
8
BLACK
10
62.9996
20
-178.719
11
62.9996
21
-179.421
0
LINE
8
BLACK
10
62.9996
20
-179.421
11
64.0004
21
-179.421
0
LINE
8
BLACK
10
64.0004
20
-179.421
11
64.0004
21
-178.719
0
LINE
8
BLACK
10
61.4604
20
-179.672
11
60.4596
21
-179.672
0
LINE
8
BLACK
10
60.4596
20
-179.672
11
60.4596
21
-180.373
0
LINE
8
BLACK
10
60.4596
20
-180.373
11
61.4604
21
-180.373
0
LINE
8
BLACK
10
61.4604
20
-180.373
11
61.4604
21
-179.672
0
LINE
8
BLACK
10
61.4604
20
-177.767
11
60.4596
21
-177.767
0
LINE
8
BLACK
10
60.4596
20
-177.767
11
60.4596
21
-178.468
0
LINE
8
BLACK
10
60.4596
20
-178.468
11
61.4604
21
-178.468
0
LINE
8
BLACK
10
61.4604
20
-178.468
11
61.4604
21
-177.767
0
LINE
8
BLACK
10
64.0004
20
-183.799
11
62.9996
21
-183.799
0
LINE
8
BLACK
10
62.9996
20
-183.799
11
62.9996
21
-184.501
0
LINE
8
BLACK
10
62.9996
20
-184.501
11
64.0004
21
-184.501
0
LINE
8
BLACK
10
64.0004
20
-184.501
11
64.0004
21
-183.799
0
LINE
8
BLACK
10
61.4604
20
-184.752
11
60.4596
21
-184.752
0
LINE
8
BLACK
10
60.4596
20
-184.752
11
60.4596
21
-185.453
0
LINE
8
BLACK
10
60.4596
20
-185.453
11
61.4604
21
-185.453
0
LINE
8
BLACK
10
61.4604
20
-185.453
11
61.4604
21
-184.752
0
LINE
8
BLACK
10
61.4604
20
-182.847
11
60.4596
21
-182.847
0
LINE
8
BLACK
10
60.4596
20
-182.847
11
60.4596
21
-183.548
0
LINE
8
BLACK
10
60.4596
20
-183.548
11
61.4604
21
-183.548
0
LINE
8
BLACK
10
61.4604
20
-183.548
11
61.4604
21
-182.847
0
LINE
8
BLACK
10
64.0004
20
-188.879
11
62.9996
21
-188.879
0
LINE
8
BLACK
10
62.9996
20
-188.879
11
62.9996
21
-189.581
0
LINE
8
BLACK
10
62.9996
20
-189.581
11
64.0004
21
-189.581
0
LINE
8
BLACK
10
64.0004
20
-189.581
11
64.0004
21
-188.879
0
LINE
8
BLACK
10
61.4604
20
-189.832
11
60.4596
21
-189.832
0
LINE
8
BLACK
10
60.4596
20
-189.832
11
60.4596
21
-190.533
0
LINE
8
BLACK
10
60.4596
20
-190.533
11
61.4604
21
-190.533
0
LINE
8
BLACK
10
61.4604
20
-190.533
11
61.4604
21
-189.832
0
LINE
8
BLACK
10
61.4604
20
-187.927
11
60.4596
21
-187.927
0
LINE
8
BLACK
10
60.4596
20
-187.927
11
60.4596
21
-188.628
0
LINE
8
BLACK
10
60.4596
20
-188.628
11
61.4604
21
-188.628
0
LINE
8
BLACK
10
61.4604
20
-188.628
11
61.4604
21
-187.927
0
LINE
8
BLACK
10
64.0004
20
-199.039
11
62.9996
21
-199.039
0
LINE
8
BLACK
10
62.9996
20
-199.039
11
62.9996
21
-199.741
0
LINE
8
BLACK
10
62.9996
20
-199.741
11
64.0004
21
-199.741
0
LINE
8
BLACK
10
64.0004
20
-199.741
11
64.0004
21
-199.039
0
LINE
8
BLACK
10
61.4604
20
-199.992
11
60.4596
21
-199.992
0
LINE
8
BLACK
10
60.4596
20
-199.992
11
60.4596
21
-200.693
0
LINE
8
BLACK
10
60.4596
20
-200.693
11
61.4604
21
-200.693
0
LINE
8
BLACK
10
61.4604
20
-200.693
11
61.4604
21
-199.992
0
LINE
8
BLACK
10
61.4604
20
-198.087
11
60.4596
21
-198.087
0
LINE
8
BLACK
10
60.4596
20
-198.087
11
60.4596
21
-198.788
0
LINE
8
BLACK
10
60.4596
20
-198.788
11
61.4604
21
-198.788
0
LINE
8
BLACK
10
61.4604
20
-198.788
11
61.4604
21
-198.087
  0
ENDSEC
  0
EOF
