  0
SECTION
  2
HEADER
  9
$ANGBASE
  50
0.0
  9
$ANGDIR
  70
  1
  9
$MEASUREMENT
  70
0
  0
ENDSEC
  0
SECTION
  2
TABLES
  0
TABLE
  2
LTYPE
  70
1
  0
LTYPE
  2
CONTINUOUS
  70
0
  3
Solid line
  72
65
  73
0
  40
0.0
  0
ENDTAB
  0
TABLE
  2
STYLE
  70
4
  0
STYLE
  2
KICAD
  70
0
  40
0
  41
1
  42
1
  50
0
  71
0
  3
isocp.shx
  0
STYLE
  2
KICADB
  70
0
  40
0
  41
1
  42
1
  50
0
  71
0
  3
isocp.shx
  0
STYLE
  2
KICADI
  70
0
  40
0
  41
1
  42
1
  50
15
  71
0
  3
isocp.shx
  0
STYLE
  2
KICADBI
  70
0
  40
0
  41
1
  42
1
  50
15
  71
0
  3
isocp.shx
  0
ENDTAB
  0
TABLE
  2
LAYER
  70
24
  0
LAYER
  2
BLACK
  70
0
  62
250
  6
CONTINUOUS
  0
LAYER
  2
BLUE
  70
0
  62
5
  6
CONTINUOUS
  0
LAYER
  2
GREEN
  70
0
  62
3
  6
CONTINUOUS
  0
LAYER
  2
CYAN
  70
0
  62
4
  6
CONTINUOUS
  0
LAYER
  2
RED
  70
0
  62
1
  6
CONTINUOUS
  0
LAYER
  2
MAGENTA
  70
0
  62
6
  6
CONTINUOUS
  0
LAYER
  2
BROWN
  70
0
  62
54
  6
CONTINUOUS
  0
LAYER
  2
LIGHTGRAY
  70
0
  62
9
  6
CONTINUOUS
  0
LAYER
  2
DARKGRAY
  70
0
  62
8
  6
CONTINUOUS
  0
LAYER
  2
LIGHTBLUE
  70
0
  62
171
  6
CONTINUOUS
  0
LAYER
  2
LIGHTGREEN
  70
0
  62
91
  6
CONTINUOUS
  0
LAYER
  2
LIGHTCYAN
  70
0
  62
131
  6
CONTINUOUS
  0
LAYER
  2
LIGHTRED
  70
0
  62
11
  6
CONTINUOUS
  0
LAYER
  2
LIGHTMAGENTA
  70
0
  62
221
  6
CONTINUOUS
  0
LAYER
  2
YELLOW
  70
0
  62
2
  6
CONTINUOUS
  0
LAYER
  2
WHITE
  70
0
  62
7
  6
CONTINUOUS
  0
LAYER
  2
DARKDARKGRAY
  70
0
  62
251
  6
CONTINUOUS
  0
LAYER
  2
DARKBLUE
  70
0
  62
178
  6
CONTINUOUS
  0
LAYER
  2
DARKGREEN
  70
0
  62
98
  6
CONTINUOUS
  0
LAYER
  2
DARKCYAN
  70
0
  62
138
  6
CONTINUOUS
  0
LAYER
  2
DARKRED
  70
0
  62
18
  6
CONTINUOUS
  0
LAYER
  2
DARKMAGENTA
  70
0
  62
228
  6
CONTINUOUS
  0
LAYER
  2
DARKBROWN
  70
0
  62
58
  6
CONTINUOUS
  0
LAYER
  2
LIGHTYELLOW
  70
0
  62
51
  6
CONTINUOUS
  0
ENDTAB
  0
ENDSEC
  0
SECTION
  2
ENTITIES
0
LINE
8
BLACK
10
50.165
20
-171.5
11
94.615
21
-171.5
0
LINE
8
BLACK
10
50.165
20
-171.4
11
94.615
21
-171.4
0
ARC
8
BLACK
10
94.615
20
-171.45
40
0.05
50
270
51
450
0
ARC
8
BLACK
10
50.165
20
-171.45
40
0.05
50
90
51
270
0
LINE
8
BLACK
10
50.215
20
-225.425
11
50.215
21
-171.45
0
LINE
8
BLACK
10
50.115
20
-225.425
11
50.115
21
-171.45
0
ARC
8
BLACK
10
50.165
20
-171.45
40
0.05
50
360
51
540
0
ARC
8
BLACK
10
50.165
20
-225.425
40
0.05
50
180
51
360
0
LINE
8
BLACK
10
50.165
20
-225.475
11
94.615
21
-225.475
0
LINE
8
BLACK
10
50.165
20
-225.375
11
94.615
21
-225.375
0
ARC
8
BLACK
10
94.615
20
-225.425
40
0.05
50
270
51
450
0
ARC
8
BLACK
10
50.165
20
-225.425
40
0.05
50
90
51
270
0
LINE
8
BLACK
10
94.665
20
-225.425
11
94.665
21
-171.45
0
LINE
8
BLACK
10
94.565
20
-225.425
11
94.565
21
-171.45
0
ARC
8
BLACK
10
94.615
20
-171.45
40
0.05
50
360
51
540
0
ARC
8
BLACK
10
94.615
20
-225.425
40
0.05
50
180
51
360
0
LINE
8
BLACK
10
63.881
20
-220.726
11
63.881
21
-222.504
0
LINE
8
BLACK
10
63.881
20
-222.504
11
65.659
21
-222.504
0
LINE
8
BLACK
10
65.659
20
-222.504
11
65.659
21
-220.726
0
LINE
8
BLACK
10
65.659
20
-220.726
11
63.881
21
-220.726
0
CIRCLE
8
BLACK
10
64.77
20
-216.535
40
1
0
CIRCLE
8
BLACK
10
64.77
20
-219.075
40
1
0
LINE
8
BLACK
10
76.835
20
-214.63
11
76.835
21
-223.52
0
LINE
8
BLACK
10
76.835
20
-223.52
11
85.725
21
-223.52
0
LINE
8
BLACK
10
85.725
20
-223.52
11
85.725
21
-214.63
0
LINE
8
BLACK
10
85.725
20
-214.63
11
76.835
21
-214.63
0
CIRCLE
8
BLACK
10
73.025
20
-182.245
40
1
0
CIRCLE
8
BLACK
10
75.565
20
-184.785
40
1
0
CIRCLE
8
BLACK
10
73.025
20
-187.325
40
1
0
CIRCLE
8
BLACK
10
74.295
20
-210.82
40
1
0
CIRCLE
8
BLACK
10
66.675
20
-210.82
40
1
0
LINE
8
BLACK
10
90.297
20
-197.002
11
92.583
21
-197.002
0
LINE
8
BLACK
10
92.583
20
-197.002
11
92.583
21
-195.428
0
LINE
8
BLACK
10
92.583
20
-195.428
11
90.297
21
-195.428
0
LINE
8
BLACK
10
90.297
20
-195.428
11
90.297
21
-197.002
0
LINE
8
BLACK
10
91.0844
20
-194.462
11
91.7956
21
-194.462
0
LINE
8
BLACK
10
91.0844
20
-192.888
11
91.7956
21
-192.888
0
ARC
8
BLACK
10
91.7956
20
-193.675
40
0.7874
50
270
51
450
0
ARC
8
BLACK
10
91.0844
20
-193.675
40
0.7874
50
90
51
270
0
LINE
8
BLACK
10
91.0844
20
-191.922
11
91.7956
21
-191.922
0
LINE
8
BLACK
10
91.0844
20
-190.348
11
91.7956
21
-190.348
0
ARC
8
BLACK
10
91.7956
20
-191.135
40
0.7874
50
270
51
450
0
ARC
8
BLACK
10
91.0844
20
-191.135
40
0.7874
50
90
51
270
0
LINE
8
BLACK
10
91.0844
20
-189.382
11
91.7956
21
-189.382
0
LINE
8
BLACK
10
91.0844
20
-187.808
11
91.7956
21
-187.808
0
ARC
8
BLACK
10
91.7956
20
-188.595
40
0.7874
50
270
51
450
0
ARC
8
BLACK
10
91.0844
20
-188.595
40
0.7874
50
90
51
270
0
LINE
8
BLACK
10
83.4644
20
-189.382
11
84.1756
21
-189.382
0
LINE
8
BLACK
10
83.4644
20
-187.808
11
84.1756
21
-187.808
0
ARC
8
BLACK
10
84.1756
20
-188.595
40
0.7874
50
270
51
450
0
ARC
8
BLACK
10
83.4644
20
-188.595
40
0.7874
50
90
51
270
0
LINE
8
BLACK
10
83.4644
20
-191.922
11
84.1756
21
-191.922
0
LINE
8
BLACK
10
83.4644
20
-190.348
11
84.1756
21
-190.348
0
ARC
8
BLACK
10
84.1756
20
-191.135
40
0.7874
50
270
51
450
0
ARC
8
BLACK
10
83.4644
20
-191.135
40
0.7874
50
90
51
270
0
LINE
8
BLACK
10
83.4644
20
-194.462
11
84.1756
21
-194.462
0
LINE
8
BLACK
10
83.4644
20
-192.888
11
84.1756
21
-192.888
0
ARC
8
BLACK
10
84.1756
20
-193.675
40
0.7874
50
270
51
450
0
ARC
8
BLACK
10
83.4644
20
-193.675
40
0.7874
50
90
51
270
0
LINE
8
BLACK
10
83.4644
20
-197.002
11
84.1756
21
-197.002
0
LINE
8
BLACK
10
83.4644
20
-195.428
11
84.1756
21
-195.428
0
ARC
8
BLACK
10
84.1756
20
-196.215
40
0.7874
50
270
51
450
0
ARC
8
BLACK
10
83.4644
20
-196.215
40
0.7874
50
90
51
270
0
LINE
8
BLACK
10
78.994
20
-195.834
11
78.994
21
-194.056
0
LINE
8
BLACK
10
78.994
20
-194.056
11
77.216
21
-194.056
0
LINE
8
BLACK
10
77.216
20
-194.056
11
77.216
21
-195.834
0
LINE
8
BLACK
10
77.216
20
-195.834
11
78.994
21
-195.834
0
CIRCLE
8
BLACK
10
73.025
20
-194.945
40
1
0
LINE
8
BLACK
10
59.944
20
-219.329
11
59.944
21
-217.551
0
LINE
8
BLACK
10
59.944
20
-217.551
11
58.166
21
-217.551
0
LINE
8
BLACK
10
58.166
20
-217.551
11
58.166
21
-219.329
0
LINE
8
BLACK
10
58.166
20
-219.329
11
59.944
21
-219.329
0
CIRCLE
8
BLACK
10
53.975
20
-218.44
40
1
0
CIRCLE
8
BLACK
10
77.47
20
-175.26
40
1
0
CIRCLE
8
BLACK
10
72.39
20
-175.26
40
1
0
CIRCLE
8
BLACK
10
58.42
20
-209.55
40
1
0
CIRCLE
8
BLACK
10
66.04
20
-199.39
40
1
0
CIRCLE
8
BLACK
10
53.34
20
-209.55
40
1
0
CIRCLE
8
BLACK
10
63.5
20
-209.55
40
1
0
CIRCLE
8
BLACK
10
54.61
20
-194.31
40
1
0
CIRCLE
8
BLACK
10
66.04
20
-189.23
40
1
0
CIRCLE
8
BLACK
10
66.04
20
-184.15
40
1
0
CIRCLE
8
BLACK
10
66.04
20
-179.07
40
1
0
CIRCLE
8
BLACK
10
66.04
20
-204.47
40
1
0
CIRCLE
8
BLACK
10
66.04
20
-194.31
40
1
0
CIRCLE
8
BLACK
10
54.61
20
-184.15
40
1
0
CIRCLE
8
BLACK
10
54.61
20
-199.39
40
1
0
CIRCLE
8
BLACK
10
54.61
20
-179.07
40
1
0
CIRCLE
8
BLACK
10
54.61
20
-189.23
40
1
0
CIRCLE
8
BLACK
10
54.61
20
-204.47
40
1
  0
ENDSEC
  0
EOF
