  0
SECTION
  2
HEADER
  9
$ANGBASE
  50
0.0
  9
$ANGDIR
  70
  1
  9
$MEASUREMENT
  70
0
  0
ENDSEC
  0
SECTION
  2
TABLES
  0
TABLE
  2
LTYPE
  70
1
  0
LTYPE
  2
CONTINUOUS
  70
0
  3
Solid line
  72
65
  73
0
  40
0.0
  0
ENDTAB
  0
TABLE
  2
STYLE
  70
4
  0
STYLE
  2
KICAD
  70
0
  40
0
  41
1
  42
1
  50
0
  71
0
  3
isocp.shx
  0
STYLE
  2
KICADB
  70
0
  40
0
  41
1
  42
1
  50
0
  71
0
  3
isocp.shx
  0
STYLE
  2
KICADI
  70
0
  40
0
  41
1
  42
1
  50
15
  71
0
  3
isocp.shx
  0
STYLE
  2
KICADBI
  70
0
  40
0
  41
1
  42
1
  50
15
  71
0
  3
isocp.shx
  0
ENDTAB
  0
TABLE
  2
LAYER
  70
24
  0
LAYER
  2
BLACK
  70
0
  62
250
  6
CONTINUOUS
  0
LAYER
  2
BLUE
  70
0
  62
5
  6
CONTINUOUS
  0
LAYER
  2
GREEN
  70
0
  62
3
  6
CONTINUOUS
  0
LAYER
  2
CYAN
  70
0
  62
4
  6
CONTINUOUS
  0
LAYER
  2
RED
  70
0
  62
1
  6
CONTINUOUS
  0
LAYER
  2
MAGENTA
  70
0
  62
6
  6
CONTINUOUS
  0
LAYER
  2
BROWN
  70
0
  62
54
  6
CONTINUOUS
  0
LAYER
  2
LIGHTGRAY
  70
0
  62
9
  6
CONTINUOUS
  0
LAYER
  2
DARKGRAY
  70
0
  62
8
  6
CONTINUOUS
  0
LAYER
  2
LIGHTBLUE
  70
0
  62
171
  6
CONTINUOUS
  0
LAYER
  2
LIGHTGREEN
  70
0
  62
91
  6
CONTINUOUS
  0
LAYER
  2
LIGHTCYAN
  70
0
  62
131
  6
CONTINUOUS
  0
LAYER
  2
LIGHTRED
  70
0
  62
11
  6
CONTINUOUS
  0
LAYER
  2
LIGHTMAGENTA
  70
0
  62
221
  6
CONTINUOUS
  0
LAYER
  2
YELLOW
  70
0
  62
2
  6
CONTINUOUS
  0
LAYER
  2
WHITE
  70
0
  62
7
  6
CONTINUOUS
  0
LAYER
  2
DARKDARKGRAY
  70
0
  62
251
  6
CONTINUOUS
  0
LAYER
  2
DARKBLUE
  70
0
  62
178
  6
CONTINUOUS
  0
LAYER
  2
DARKGREEN
  70
0
  62
98
  6
CONTINUOUS
  0
LAYER
  2
DARKCYAN
  70
0
  62
138
  6
CONTINUOUS
  0
LAYER
  2
DARKRED
  70
0
  62
18
  6
CONTINUOUS
  0
LAYER
  2
DARKMAGENTA
  70
0
  62
228
  6
CONTINUOUS
  0
LAYER
  2
DARKBROWN
  70
0
  62
58
  6
CONTINUOUS
  0
LAYER
  2
LIGHTYELLOW
  70
0
  62
51
  6
CONTINUOUS
  0
ENDTAB
  0
ENDSEC
  0
SECTION
  2
ENTITIES
0
LINE
8
BLACK
10
50.165
20
-171.5
11
94.615
21
-171.5
0
LINE
8
BLACK
10
50.165
20
-171.4
11
94.615
21
-171.4
0
ARC
8
BLACK
10
94.615
20
-171.45
40
0.05
50
270
51
450
0
ARC
8
BLACK
10
50.165
20
-171.45
40
0.05
50
90
51
270
0
LINE
8
BLACK
10
50.215
20
-225.425
11
50.215
21
-171.45
0
LINE
8
BLACK
10
50.115
20
-225.425
11
50.115
21
-171.45
0
ARC
8
BLACK
10
50.165
20
-171.45
40
0.05
50
360
51
540
0
ARC
8
BLACK
10
50.165
20
-225.425
40
0.05
50
180
51
360
0
LINE
8
BLACK
10
50.165
20
-225.475
11
94.615
21
-225.475
0
LINE
8
BLACK
10
50.165
20
-225.375
11
94.615
21
-225.375
0
ARC
8
BLACK
10
94.615
20
-225.425
40
0.05
50
270
51
450
0
ARC
8
BLACK
10
50.165
20
-225.425
40
0.05
50
90
51
270
0
LINE
8
BLACK
10
94.665
20
-225.425
11
94.665
21
-171.45
0
LINE
8
BLACK
10
94.565
20
-225.425
11
94.565
21
-171.45
0
ARC
8
BLACK
10
94.615
20
-171.45
40
0.05
50
360
51
540
0
ARC
8
BLACK
10
94.615
20
-225.425
40
0.05
50
180
51
360
0
LINE
8
BLACK
10
63.881
20
-220.726
11
63.881
21
-222.504
0
LINE
8
BLACK
10
63.881
20
-222.504
11
65.659
21
-222.504
0
LINE
8
BLACK
10
65.659
20
-222.504
11
65.659
21
-220.726
0
LINE
8
BLACK
10
65.659
20
-220.726
11
63.881
21
-220.726
0
CIRCLE
8
BLACK
10
64.77
20
-216.535
40
1
0
CIRCLE
8
BLACK
10
64.77
20
-219.075
40
1
0
LINE
8
BLACK
10
76.835
20
-214.63
11
76.835
21
-223.52
0
LINE
8
BLACK
10
76.835
20
-223.52
11
85.725
21
-223.52
0
LINE
8
BLACK
10
85.725
20
-223.52
11
85.725
21
-214.63
0
LINE
8
BLACK
10
85.725
20
-214.63
11
76.835
21
-214.63
0
CIRCLE
8
BLACK
10
73.025
20
-182.245
40
1
0
CIRCLE
8
BLACK
10
75.565
20
-184.785
40
1
0
CIRCLE
8
BLACK
10
73.025
20
-187.325
40
1
0
CIRCLE
8
BLACK
10
74.295
20
-210.82
40
1
0
CIRCLE
8
BLACK
10
66.675
20
-210.82
40
1
0
LINE
8
BLACK
10
90.297
20
-197.002
11
92.583
21
-197.002
0
LINE
8
BLACK
10
92.583
20
-197.002
11
92.583
21
-195.428
0
LINE
8
BLACK
10
92.583
20
-195.428
11
90.297
21
-195.428
0
LINE
8
BLACK
10
90.297
20
-195.428
11
90.297
21
-197.002
0
LINE
8
BLACK
10
91.0844
20
-194.462
11
91.7956
21
-194.462
0
LINE
8
BLACK
10
91.0844
20
-192.888
11
91.7956
21
-192.888
0
ARC
8
BLACK
10
91.7956
20
-193.675
40
0.7874
50
270
51
450
0
ARC
8
BLACK
10
91.0844
20
-193.675
40
0.7874
50
90
51
270
0
LINE
8
BLACK
10
91.0844
20
-191.922
11
91.7956
21
-191.922
0
LINE
8
BLACK
10
91.0844
20
-190.348
11
91.7956
21
-190.348
0
ARC
8
BLACK
10
91.7956
20
-191.135
40
0.7874
50
270
51
450
0
ARC
8
BLACK
10
91.0844
20
-191.135
40
0.7874
50
90
51
270
0
LINE
8
BLACK
10
91.0844
20
-189.382
11
91.7956
21
-189.382
0
LINE
8
BLACK
10
91.0844
20
-187.808
11
91.7956
21
-187.808
0
ARC
8
BLACK
10
91.7956
20
-188.595
40
0.7874
50
270
51
450
0
ARC
8
BLACK
10
91.0844
20
-188.595
40
0.7874
50
90
51
270
0
LINE
8
BLACK
10
83.4644
20
-189.382
11
84.1756
21
-189.382
0
LINE
8
BLACK
10
83.4644
20
-187.808
11
84.1756
21
-187.808
0
ARC
8
BLACK
10
84.1756
20
-188.595
40
0.7874
50
270
51
450
0
ARC
8
BLACK
10
83.4644
20
-188.595
40
0.7874
50
90
51
270
0
LINE
8
BLACK
10
83.4644
20
-191.922
11
84.1756
21
-191.922
0
LINE
8
BLACK
10
83.4644
20
-190.348
11
84.1756
21
-190.348
0
ARC
8
BLACK
10
84.1756
20
-191.135
40
0.7874
50
270
51
450
0
ARC
8
BLACK
10
83.4644
20
-191.135
40
0.7874
50
90
51
270
0
LINE
8
BLACK
10
83.4644
20
-194.462
11
84.1756
21
-194.462
0
LINE
8
BLACK
10
83.4644
20
-192.888
11
84.1756
21
-192.888
0
ARC
8
BLACK
10
84.1756
20
-193.675
40
0.7874
50
270
51
450
0
ARC
8
BLACK
10
83.4644
20
-193.675
40
0.7874
50
90
51
270
0
LINE
8
BLACK
10
83.4644
20
-197.002
11
84.1756
21
-197.002
0
LINE
8
BLACK
10
83.4644
20
-195.428
11
84.1756
21
-195.428
0
ARC
8
BLACK
10
84.1756
20
-196.215
40
0.7874
50
270
51
450
0
ARC
8
BLACK
10
83.4644
20
-196.215
40
0.7874
50
90
51
270
0
LINE
8
BLACK
10
78.994
20
-195.834
11
78.994
21
-194.056
0
LINE
8
BLACK
10
78.994
20
-194.056
11
77.216
21
-194.056
0
LINE
8
BLACK
10
77.216
20
-194.056
11
77.216
21
-195.834
0
LINE
8
BLACK
10
77.216
20
-195.834
11
78.994
21
-195.834
0
CIRCLE
8
BLACK
10
73.025
20
-194.945
40
1
0
LINE
8
BLACK
10
59.944
20
-219.329
11
59.944
21
-217.551
0
LINE
8
BLACK
10
59.944
20
-217.551
11
58.166
21
-217.551
0
LINE
8
BLACK
10
58.166
20
-217.551
11
58.166
21
-219.329
0
LINE
8
BLACK
10
58.166
20
-219.329
11
59.944
21
-219.329
0
CIRCLE
8
BLACK
10
53.975
20
-218.44
40
1
0
CIRCLE
8
BLACK
10
77.47
20
-175.26
40
1
0
CIRCLE
8
BLACK
10
72.39
20
-175.26
40
1
0
CIRCLE
8
BLACK
10
58.42
20
-209.55
40
1
0
CIRCLE
8
BLACK
10
66.04
20
-199.39
40
1
0
CIRCLE
8
BLACK
10
53.34
20
-209.55
40
1
0
CIRCLE
8
BLACK
10
63.5
20
-209.55
40
1
0
CIRCLE
8
BLACK
10
54.61
20
-194.31
40
1
0
CIRCLE
8
BLACK
10
66.04
20
-189.23
40
1
0
CIRCLE
8
BLACK
10
66.04
20
-184.15
40
1
0
CIRCLE
8
BLACK
10
66.04
20
-179.07
40
1
0
CIRCLE
8
BLACK
10
66.04
20
-204.47
40
1
0
CIRCLE
8
BLACK
10
66.04
20
-194.31
40
1
0
CIRCLE
8
BLACK
10
54.61
20
-184.15
40
1
0
CIRCLE
8
BLACK
10
54.61
20
-199.39
40
1
0
CIRCLE
8
BLACK
10
54.61
20
-179.07
40
1
0
CIRCLE
8
BLACK
10
54.61
20
-189.23
40
1
0
CIRCLE
8
BLACK
10
54.61
20
-204.47
40
1
0
CIRCLE
8
BLACK
10
78.74
20
-185.42
40
0.4445
0
LINE
8
BLACK
10
88.9
20
-194.025
11
91.44
21
-194.025
0
LINE
8
BLACK
10
88.9
20
-193.325
11
91.44
21
-193.325
0
ARC
8
BLACK
10
91.44
20
-193.675
40
0.35
50
270
51
450
0
ARC
8
BLACK
10
88.9
20
-193.675
40
0.35
50
90
51
270
0
LINE
8
BLACK
10
89.1475
20
-193.428
11
87.8775
21
-192.158
0
LINE
8
BLACK
10
88.6525
20
-193.922
11
87.3825
21
-192.652
0
ARC
8
BLACK
10
87.63
20
-192.405
40
0.35
50
405
51
585
0
ARC
8
BLACK
10
88.9
20
-193.675
40
0.35
50
225
51
405
0
LINE
8
BLACK
10
78.74
20
-185.77
11
85.09
21
-185.77
0
LINE
8
BLACK
10
78.74
20
-185.07
11
85.09
21
-185.07
0
ARC
8
BLACK
10
85.09
20
-185.42
40
0.35
50
270
51
450
0
ARC
8
BLACK
10
78.74
20
-185.42
40
0.35
50
90
51
270
0
LINE
8
BLACK
10
87.8775
20
-187.713
11
85.3375
21
-185.173
0
LINE
8
BLACK
10
87.3825
20
-188.207
11
84.8425
21
-185.667
0
ARC
8
BLACK
10
85.09
20
-185.42
40
0.35
50
405
51
585
0
ARC
8
BLACK
10
87.63
20
-187.96
40
0.35
50
225
51
405
0
LINE
8
BLACK
10
87.98
20
-192.405
11
87.98
21
-187.96
0
LINE
8
BLACK
10
87.28
20
-192.405
11
87.28
21
-187.96
0
ARC
8
BLACK
10
87.63
20
-187.96
40
0.35
50
360
51
540
0
ARC
8
BLACK
10
87.63
20
-192.405
40
0.35
50
180
51
360
0
LINE
8
BLACK
10
64.77
20
-216.885
11
71.755
21
-216.885
0
LINE
8
BLACK
10
64.77
20
-216.185
11
71.755
21
-216.185
0
ARC
8
BLACK
10
71.755
20
-216.535
40
0.35
50
270
51
450
0
ARC
8
BLACK
10
64.77
20
-216.535
40
0.35
50
90
51
270
0
LINE
8
BLACK
10
88.5125
20
-194.557
11
89.1475
21
-193.922
0
LINE
8
BLACK
10
88.0175
20
-194.063
11
88.6525
21
-193.428
0
ARC
8
BLACK
10
88.9
20
-193.675
40
0.35
50
315
51
495
0
ARC
8
BLACK
10
88.265
20
-194.31
40
0.35
50
135
51
315
0
LINE
8
BLACK
10
88.615
20
-200.025
11
88.615
21
-194.31
0
LINE
8
BLACK
10
87.915
20
-200.025
11
87.915
21
-194.31
0
ARC
8
BLACK
10
88.265
20
-194.31
40
0.35
50
360
51
540
0
ARC
8
BLACK
10
88.265
20
-200.025
40
0.35
50
180
51
360
0
LINE
8
BLACK
10
72.0025
20
-216.782
11
88.5125
21
-200.272
0
LINE
8
BLACK
10
71.5075
20
-216.288
11
88.0175
21
-199.778
0
ARC
8
BLACK
10
88.265
20
-200.025
40
0.35
50
315
51
495
0
ARC
8
BLACK
10
71.755
20
-216.535
40
0.35
50
135
51
315
0
LINE
8
BLACK
10
54.34
20
-210.82
11
54.34
21
-209.55
0
LINE
8
BLACK
10
52.34
20
-210.82
11
52.34
21
-209.55
0
ARC
8
BLACK
10
53.34
20
-209.55
40
1
50
360
51
540
0
ARC
8
BLACK
10
53.34
20
-210.82
40
1
50
180
51
360
0
LINE
8
BLACK
10
79.105
20
-201.93
11
79.105
21
-194.945
0
LINE
8
BLACK
10
77.105
20
-201.93
11
77.105
21
-194.945
0
ARC
8
BLACK
10
78.105
20
-194.945
40
1
50
360
51
540
0
ARC
8
BLACK
10
78.105
20
-201.93
40
1
50
180
51
360
0
LINE
8
BLACK
10
71.8271
20
-209.622
11
78.8121
21
-202.637
0
LINE
8
BLACK
10
70.4129
20
-208.208
11
77.3979
21
-201.223
0
ARC
8
BLACK
10
78.105
20
-201.93
40
1
50
315
51
495
0
ARC
8
BLACK
10
71.12
20
-208.915
40
1
50
135
51
315
0
LINE
8
BLACK
10
72.12
20
-210.82
11
72.12
21
-208.915
0
LINE
8
BLACK
10
70.12
20
-210.82
11
70.12
21
-208.915
0
ARC
8
BLACK
10
71.12
20
-208.915
40
1
50
360
51
540
0
ARC
8
BLACK
10
71.12
20
-210.82
40
1
50
180
51
360
0
LINE
8
BLACK
10
69.2871
20
-214.067
11
71.8271
21
-211.527
0
LINE
8
BLACK
10
67.8729
20
-212.653
11
70.4129
21
-210.113
0
ARC
8
BLACK
10
71.12
20
-210.82
40
1
50
315
51
495
0
ARC
8
BLACK
10
68.58
20
-213.36
40
1
50
135
51
315
0
LINE
8
BLACK
10
55.88
20
-214.36
11
68.58
21
-214.36
0
LINE
8
BLACK
10
55.88
20
-212.36
11
68.58
21
-212.36
0
ARC
8
BLACK
10
68.58
20
-213.36
40
1
50
270
51
450
0
ARC
8
BLACK
10
55.88
20
-213.36
40
1
50
90
51
270
0
LINE
8
BLACK
10
52.6329
20
-211.527
11
55.1729
21
-214.067
0
LINE
8
BLACK
10
54.0471
20
-210.113
11
56.5871
21
-212.653
0
ARC
8
BLACK
10
55.88
20
-213.36
40
1
50
225
51
405
0
ARC
8
BLACK
10
53.34
20
-210.82
40
1
50
45
51
225
0
LINE
8
BLACK
10
93.93
20
-224.74
11
93.2528
21
-224.74
0
LINE
8
BLACK
10
93.2528
20
-224.74
11
93.2528
21
-193.675
0
LINE
8
BLACK
10
93.2528
20
-193.675
11
93.1446
21
-193.131
0
LINE
8
BLACK
10
93.1446
20
-193.131
11
92.8362
21
-192.669
0
LINE
8
BLACK
10
92.8362
20
-192.669
11
92.4408
21
-192.405
0
LINE
8
BLACK
10
92.4408
20
-192.405
11
92.8362
21
-192.141
0
LINE
8
BLACK
10
92.8362
20
-192.141
11
93.1446
21
-191.679
0
LINE
8
BLACK
10
93.1446
20
-191.679
11
93.2528
21
-191.135
0
LINE
8
BLACK
10
93.2528
20
-191.135
11
93.1446
21
-190.591
0
LINE
8
BLACK
10
93.1446
20
-190.591
11
92.8362
21
-190.129
0
LINE
8
BLACK
10
92.8362
20
-190.129
11
92.3748
21
-189.821
0
LINE
8
BLACK
10
92.3748
20
-189.821
11
91.8304
21
-189.713
0
LINE
8
BLACK
10
91.8304
20
-189.713
11
91.0496
21
-189.713
0
LINE
8
BLACK
10
91.0496
20
-189.713
11
90.5052
21
-189.821
0
LINE
8
BLACK
10
90.5052
20
-189.821
11
90.0438
21
-190.129
0
LINE
8
BLACK
10
90.0438
20
-190.129
11
89.7354
21
-190.591
0
LINE
8
BLACK
10
89.7354
20
-190.591
11
89.6272
21
-191.135
0
LINE
8
BLACK
10
89.6272
20
-191.135
11
89.7354
21
-191.679
0
LINE
8
BLACK
10
89.7354
20
-191.679
11
90.0438
21
-192.141
0
LINE
8
BLACK
10
90.0438
20
-192.141
11
90.4392
21
-192.405
0
LINE
8
BLACK
10
90.4392
20
-192.405
11
90.0438
21
-192.669
0
LINE
8
BLACK
10
90.0438
20
-192.669
11
90.0299
21
-192.69
0
LINE
8
BLACK
10
90.0299
20
-192.69
11
89.308
21
-192.69
0
LINE
8
BLACK
10
89.308
20
-192.69
11
88.615
21
-191.997
0
LINE
8
BLACK
10
88.615
20
-191.997
11
88.615
21
-187.96
0
LINE
8
BLACK
10
88.615
20
-187.96
11
88.54
21
-187.583
0
LINE
8
BLACK
10
88.54
20
-187.583
11
88.3265
21
-187.264
0
LINE
8
BLACK
10
88.3265
20
-187.264
11
85.7865
21
-184.724
0
LINE
8
BLACK
10
85.7865
20
-184.724
11
85.4669
21
-184.51
0
LINE
8
BLACK
10
85.4669
20
-184.51
11
85.09
21
-184.435
0
LINE
8
BLACK
10
85.09
20
-184.435
11
79.1828
21
-184.435
0
LINE
8
BLACK
10
79.1828
20
-184.435
11
79.1053
21
-184.403
0
LINE
8
BLACK
10
79.1053
20
-184.403
11
79.1053
21
-174.936
0
LINE
8
BLACK
10
79.1053
20
-174.936
11
78.8569
21
-174.335
0
LINE
8
BLACK
10
78.8569
20
-174.335
11
78.3974
21
-173.875
0
LINE
8
BLACK
10
78.3974
20
-173.875
11
77.7966
21
-173.625
0
LINE
8
BLACK
10
77.7966
20
-173.625
11
77.1462
21
-173.625
0
LINE
8
BLACK
10
77.1462
20
-173.625
11
76.5451
21
-173.873
0
LINE
8
BLACK
10
76.5451
20
-173.873
11
76.0847
21
-174.333
0
LINE
8
BLACK
10
76.0847
20
-174.333
11
75.8353
21
-174.933
0
LINE
8
BLACK
10
75.8353
20
-174.933
11
75.8347
21
-175.584
0
LINE
8
BLACK
10
75.8347
20
-175.584
11
76.0831
21
-176.185
0
LINE
8
BLACK
10
76.0831
20
-176.185
11
76.5426
21
-176.645
0
LINE
8
BLACK
10
76.5426
20
-176.645
11
77.1434
21
-176.895
0
LINE
8
BLACK
10
77.1434
20
-176.895
11
77.7938
21
-176.895
0
LINE
8
BLACK
10
77.7938
20
-176.895
11
78.3949
21
-176.647
0
LINE
8
BLACK
10
78.3949
20
-176.647
11
78.8553
21
-176.187
0
LINE
8
BLACK
10
78.8553
20
-176.187
11
79.1047
21
-175.587
0
LINE
8
BLACK
10
79.1047
20
-175.587
11
79.1053
21
-174.936
0
LINE
8
BLACK
10
79.1053
20
-174.936
11
79.1053
21
-184.403
0
LINE
8
BLACK
10
79.1053
20
-184.403
11
78.9557
21
-184.341
0
LINE
8
BLACK
10
78.9557
20
-184.341
11
78.5262
21
-184.34
0
LINE
8
BLACK
10
78.5262
20
-184.34
11
78.1293
21
-184.504
0
LINE
8
BLACK
10
78.1293
20
-184.504
11
77.8254
21
-184.808
0
LINE
8
BLACK
10
77.8254
20
-184.808
11
77.6607
21
-185.204
0
LINE
8
BLACK
10
77.6607
20
-185.204
11
77.6603
21
-185.634
0
LINE
8
BLACK
10
77.6603
20
-185.634
11
77.8243
21
-186.031
0
LINE
8
BLACK
10
77.8243
20
-186.031
11
78.1277
21
-186.335
0
LINE
8
BLACK
10
78.1277
20
-186.335
11
78.5243
21
-186.499
0
LINE
8
BLACK
10
78.5243
20
-186.499
11
78.9538
21
-186.5
0
LINE
8
BLACK
10
78.9538
20
-186.5
11
79.1829
21
-186.405
0
LINE
8
BLACK
10
79.1829
20
-186.405
11
84.682
21
-186.405
0
LINE
8
BLACK
10
84.682
20
-186.405
11
86.645
21
-188.368
0
LINE
8
BLACK
10
86.645
20
-188.368
11
86.645
21
-192.405
0
LINE
8
BLACK
10
86.645
20
-192.405
11
86.72
21
-192.782
0
LINE
8
BLACK
10
86.72
20
-192.782
11
86.9335
21
-193.102
0
LINE
8
BLACK
10
86.9335
20
-193.102
11
87.5192
21
-193.687
0
LINE
8
BLACK
10
87.5192
20
-193.687
11
87.355
21
-193.933
0
LINE
8
BLACK
10
87.355
20
-193.933
11
87.28
21
-194.31
0
LINE
8
BLACK
10
87.28
20
-194.31
11
87.28
21
-199.617
0
LINE
8
BLACK
10
87.28
20
-199.617
11
85.6328
21
-201.264
0
LINE
8
BLACK
10
85.6328
20
-201.264
11
85.6328
21
-196.215
0
LINE
8
BLACK
10
85.6328
20
-196.215
11
85.5246
21
-195.671
0
LINE
8
BLACK
10
85.5246
20
-195.671
11
85.2162
21
-195.209
0
LINE
8
BLACK
10
85.2162
20
-195.209
11
84.8208
21
-194.945
0
LINE
8
BLACK
10
84.8208
20
-194.945
11
85.2162
21
-194.681
0
LINE
8
BLACK
10
85.2162
20
-194.681
11
85.5246
21
-194.219
0
LINE
8
BLACK
10
85.5246
20
-194.219
11
85.6328
21
-193.675
0
LINE
8
BLACK
10
85.6328
20
-193.675
11
85.5246
21
-193.131
0
LINE
8
BLACK
10
85.5246
20
-193.131
11
85.2162
21
-192.669
0
LINE
8
BLACK
10
85.2162
20
-192.669
11
84.8208
21
-192.405
0
LINE
8
BLACK
10
84.8208
20
-192.405
11
85.2162
21
-192.141
0
LINE
8
BLACK
10
85.2162
20
-192.141
11
85.5246
21
-191.679
0
LINE
8
BLACK
10
85.5246
20
-191.679
11
85.6328
21
-191.135
0
LINE
8
BLACK
10
85.6328
20
-191.135
11
85.5246
21
-190.591
0
LINE
8
BLACK
10
85.5246
20
-190.591
11
85.2162
21
-190.129
0
LINE
8
BLACK
10
85.2162
20
-190.129
11
84.8208
21
-189.865
0
LINE
8
BLACK
10
84.8208
20
-189.865
11
85.2162
21
-189.601
0
LINE
8
BLACK
10
85.2162
20
-189.601
11
85.5246
21
-189.139
0
LINE
8
BLACK
10
85.5246
20
-189.139
11
85.6328
21
-188.595
0
LINE
8
BLACK
10
85.6328
20
-188.595
11
85.5246
21
-188.051
0
LINE
8
BLACK
10
85.5246
20
-188.051
11
85.2162
21
-187.589
0
LINE
8
BLACK
10
85.2162
20
-187.589
11
84.7548
21
-187.281
0
LINE
8
BLACK
10
84.7548
20
-187.281
11
84.2104
21
-187.173
0
LINE
8
BLACK
10
84.2104
20
-187.173
11
83.4296
21
-187.173
0
LINE
8
BLACK
10
83.4296
20
-187.173
11
82.8852
21
-187.281
0
LINE
8
BLACK
10
82.8852
20
-187.281
11
82.4238
21
-187.589
0
LINE
8
BLACK
10
82.4238
20
-187.589
11
82.1154
21
-188.051
0
LINE
8
BLACK
10
82.1154
20
-188.051
11
82.0072
21
-188.595
0
LINE
8
BLACK
10
82.0072
20
-188.595
11
82.1154
21
-189.139
0
LINE
8
BLACK
10
82.1154
20
-189.139
11
82.4238
21
-189.601
0
LINE
8
BLACK
10
82.4238
20
-189.601
11
82.8192
21
-189.865
0
LINE
8
BLACK
10
82.8192
20
-189.865
11
82.4238
21
-190.129
0
LINE
8
BLACK
10
82.4238
20
-190.129
11
82.1154
21
-190.591
0
LINE
8
BLACK
10
82.1154
20
-190.591
11
82.0072
21
-191.135
0
LINE
8
BLACK
10
82.0072
20
-191.135
11
82.1154
21
-191.679
0
LINE
8
BLACK
10
82.1154
20
-191.679
11
82.4238
21
-192.141
0
LINE
8
BLACK
10
82.4238
20
-192.141
11
82.8192
21
-192.405
0
LINE
8
BLACK
10
82.8192
20
-192.405
11
82.4238
21
-192.669
0
LINE
8
BLACK
10
82.4238
20
-192.669
11
82.1154
21
-193.131
0
LINE
8
BLACK
10
82.1154
20
-193.131
11
82.0072
21
-193.675
0
LINE
8
BLACK
10
82.0072
20
-193.675
11
82.1154
21
-194.219
0
LINE
8
BLACK
10
82.1154
20
-194.219
11
82.4238
21
-194.681
0
LINE
8
BLACK
10
82.4238
20
-194.681
11
82.8192
21
-194.945
0
LINE
8
BLACK
10
82.8192
20
-194.945
11
82.4238
21
-195.209
0
LINE
8
BLACK
10
82.4238
20
-195.209
11
82.1154
21
-195.671
0
LINE
8
BLACK
10
82.1154
20
-195.671
11
82.0072
21
-196.215
0
LINE
8
BLACK
10
82.0072
20
-196.215
11
82.1154
21
-196.759
0
LINE
8
BLACK
10
82.1154
20
-196.759
11
82.4238
21
-197.221
0
LINE
8
BLACK
10
82.4238
20
-197.221
11
82.8852
21
-197.529
0
LINE
8
BLACK
10
82.8852
20
-197.529
11
83.4296
21
-197.637
0
LINE
8
BLACK
10
83.4296
20
-197.637
11
84.2104
21
-197.637
0
LINE
8
BLACK
10
84.2104
20
-197.637
11
84.7548
21
-197.529
0
LINE
8
BLACK
10
84.7548
20
-197.529
11
85.2162
21
-197.221
0
LINE
8
BLACK
10
85.2162
20
-197.221
11
85.5246
21
-196.759
0
LINE
8
BLACK
10
85.5246
20
-196.759
11
85.6328
21
-196.215
0
LINE
8
BLACK
10
85.6328
20
-196.215
11
85.6328
21
-201.264
0
LINE
8
BLACK
10
85.6328
20
-201.264
11
75.9299
21
-210.967
0
LINE
8
BLACK
10
75.9299
20
-210.967
11
75.9303
21
-210.496
0
LINE
8
BLACK
10
75.9303
20
-210.496
11
75.6819
21
-209.895
0
LINE
8
BLACK
10
75.6819
20
-209.895
11
75.2224
21
-209.435
0
LINE
8
BLACK
10
75.2224
20
-209.435
11
74.6216
21
-209.185
0
LINE
8
BLACK
10
74.6216
20
-209.185
11
73.9712
21
-209.185
0
LINE
8
BLACK
10
73.9712
20
-209.185
11
73.3701
21
-209.433
0
LINE
8
BLACK
10
73.3701
20
-209.433
11
72.9097
21
-209.893
0
LINE
8
BLACK
10
72.9097
20
-209.893
11
72.755
21
-210.265
0
LINE
8
BLACK
10
72.755
20
-210.265
11
72.755
21
-209.592
0
LINE
8
BLACK
10
72.755
20
-209.592
11
79.2611
21
-203.086
0
LINE
8
BLACK
10
79.2611
20
-203.086
11
79.2611
21
-203.086
0
LINE
8
BLACK
10
79.2611
20
-203.086
11
79.2611
21
-203.086
0
LINE
8
BLACK
10
79.2611
20
-203.086
11
79.6155
21
-202.556
0
LINE
8
BLACK
10
79.6155
20
-202.556
11
79.6155
21
-202.556
0
LINE
8
BLACK
10
79.6155
20
-202.556
11
79.7152
21
-202.054
0
LINE
8
BLACK
10
79.7152
20
-202.054
11
79.74
21
-201.93
0
LINE
8
BLACK
10
79.74
20
-201.93
11
79.74
21
-201.93
0
LINE
8
BLACK
10
79.74
20
-201.93
11
79.74
21
-201.93
0
LINE
8
BLACK
10
79.74
20
-201.93
11
79.74
21
-194.945
0
LINE
8
BLACK
10
79.74
20
-194.945
11
79.6291
21
-194.388
0
LINE
8
BLACK
10
79.6291
20
-194.388
11
79.6291
21
-193.93
0
LINE
8
BLACK
10
79.6291
20
-193.93
11
79.5326
21
-193.697
0
LINE
8
BLACK
10
79.5326
20
-193.697
11
79.3542
21
-193.518
0
LINE
8
BLACK
10
79.3542
20
-193.518
11
79.1209
21
-193.421
0
LINE
8
BLACK
10
79.1209
20
-193.421
11
78.8682
21
-193.421
0
LINE
8
BLACK
10
78.8682
20
-193.421
11
78.6625
21
-193.421
0
LINE
8
BLACK
10
78.6625
20
-193.421
11
78.105
21
-193.31
0
LINE
8
BLACK
10
78.105
20
-193.31
11
77.5475
21
-193.421
0
LINE
8
BLACK
10
77.5475
20
-193.421
11
77.2003
21
-193.421
0
LINE
8
BLACK
10
77.2003
20
-193.421
11
77.2003
21
-184.461
0
LINE
8
BLACK
10
77.2003
20
-184.461
11
76.9519
21
-183.86
0
LINE
8
BLACK
10
76.9519
20
-183.86
11
76.4924
21
-183.4
0
LINE
8
BLACK
10
76.4924
20
-183.4
11
75.8916
21
-183.15
0
LINE
8
BLACK
10
75.8916
20
-183.15
11
75.2412
21
-183.15
0
LINE
8
BLACK
10
75.2412
20
-183.15
11
74.6603
21
-183.39
0
LINE
8
BLACK
10
74.6603
20
-183.39
11
74.6603
21
-181.921
0
LINE
8
BLACK
10
74.6603
20
-181.921
11
74.4119
21
-181.32
0
LINE
8
BLACK
10
74.4119
20
-181.32
11
73.9524
21
-180.86
0
LINE
8
BLACK
10
73.9524
20
-180.86
11
73.3516
21
-180.61
0
LINE
8
BLACK
10
73.3516
20
-180.61
11
72.7012
21
-180.61
0
LINE
8
BLACK
10
72.7012
20
-180.61
11
72.1001
21
-180.858
0
LINE
8
BLACK
10
72.1001
20
-180.858
11
71.6397
21
-181.318
0
LINE
8
BLACK
10
71.6397
20
-181.318
11
71.3903
21
-181.918
0
LINE
8
BLACK
10
71.3903
20
-181.918
11
71.3897
21
-182.569
0
LINE
8
BLACK
10
71.3897
20
-182.569
11
71.6381
21
-183.17
0
LINE
8
BLACK
10
71.6381
20
-183.17
11
72.0976
21
-183.63
0
LINE
8
BLACK
10
72.0976
20
-183.63
11
72.6984
21
-183.88
0
LINE
8
BLACK
10
72.6984
20
-183.88
11
73.3488
21
-183.88
0
LINE
8
BLACK
10
73.3488
20
-183.88
11
73.9499
21
-183.632
0
LINE
8
BLACK
10
73.9499
20
-183.632
11
74.4103
21
-183.172
0
LINE
8
BLACK
10
74.4103
20
-183.172
11
74.6597
21
-182.572
0
LINE
8
BLACK
10
74.6597
20
-182.572
11
74.6603
21
-181.921
0
LINE
8
BLACK
10
74.6603
20
-181.921
11
74.6603
21
-183.39
0
LINE
8
BLACK
10
74.6603
20
-183.39
11
74.6401
21
-183.398
0
LINE
8
BLACK
10
74.6401
20
-183.398
11
74.1797
21
-183.858
0
LINE
8
BLACK
10
74.1797
20
-183.858
11
73.9303
21
-184.458
0
LINE
8
BLACK
10
73.9303
20
-184.458
11
73.9297
21
-185.109
0
LINE
8
BLACK
10
73.9297
20
-185.109
11
74.1781
21
-185.71
0
LINE
8
BLACK
10
74.1781
20
-185.71
11
74.6376
21
-186.17
0
LINE
8
BLACK
10
74.6376
20
-186.17
11
75.2384
21
-186.42
0
LINE
8
BLACK
10
75.2384
20
-186.42
11
75.8888
21
-186.42
0
LINE
8
BLACK
10
75.8888
20
-186.42
11
76.4899
21
-186.172
0
LINE
8
BLACK
10
76.4899
20
-186.172
11
76.9503
21
-185.712
0
LINE
8
BLACK
10
76.9503
20
-185.712
11
77.1997
21
-185.112
0
LINE
8
BLACK
10
77.1997
20
-185.112
11
77.2003
21
-184.461
0
LINE
8
BLACK
10
77.2003
20
-184.461
11
77.2003
21
-193.421
0
LINE
8
BLACK
10
77.2003
20
-193.421
11
77.0902
21
-193.421
0
LINE
8
BLACK
10
77.0902
20
-193.421
11
76.8568
21
-193.517
0
LINE
8
BLACK
10
76.8568
20
-193.517
11
76.678
21
-193.696
0
LINE
8
BLACK
10
76.678
20
-193.696
11
76.5811
21
-193.929
0
LINE
8
BLACK
10
76.5811
20
-193.929
11
76.5809
21
-194.182
0
LINE
8
BLACK
10
76.5809
20
-194.182
11
76.5809
21
-194.388
0
LINE
8
BLACK
10
76.5809
20
-194.388
11
76.47
21
-194.945
0
LINE
8
BLACK
10
76.47
20
-194.945
11
76.47
21
-201.253
0
LINE
8
BLACK
10
76.47
20
-201.253
11
74.6603
21
-203.062
0
LINE
8
BLACK
10
74.6603
20
-203.062
11
74.6603
21
-187.001
0
LINE
8
BLACK
10
74.6603
20
-187.001
11
74.4119
21
-186.4
0
LINE
8
BLACK
10
74.4119
20
-186.4
11
73.9524
21
-185.94
0
LINE
8
BLACK
10
73.9524
20
-185.94
11
73.3516
21
-185.69
0
LINE
8
BLACK
10
73.3516
20
-185.69
11
72.7012
21
-185.69
0
LINE
8
BLACK
10
72.7012
20
-185.69
11
72.1001
21
-185.938
0
LINE
8
BLACK
10
72.1001
20
-185.938
11
71.6397
21
-186.398
0
LINE
8
BLACK
10
71.6397
20
-186.398
11
71.3903
21
-186.998
0
LINE
8
BLACK
10
71.3903
20
-186.998
11
71.3897
21
-187.649
0
LINE
8
BLACK
10
71.3897
20
-187.649
11
71.6381
21
-188.25
0
LINE
8
BLACK
10
71.6381
20
-188.25
11
72.0976
21
-188.71
0
LINE
8
BLACK
10
72.0976
20
-188.71
11
72.6984
21
-188.96
0
LINE
8
BLACK
10
72.6984
20
-188.96
11
73.3488
21
-188.96
0
LINE
8
BLACK
10
73.3488
20
-188.96
11
73.9499
21
-188.712
0
LINE
8
BLACK
10
73.9499
20
-188.712
11
74.4103
21
-188.252
0
LINE
8
BLACK
10
74.4103
20
-188.252
11
74.6597
21
-187.652
0
LINE
8
BLACK
10
74.6597
20
-187.652
11
74.6603
21
-187.001
0
LINE
8
BLACK
10
74.6603
20
-187.001
11
74.6603
21
-203.062
0
LINE
8
BLACK
10
74.6603
20
-203.062
11
69.9639
21
-207.759
0
LINE
8
BLACK
10
69.9639
20
-207.759
11
69.6095
21
-208.289
0
LINE
8
BLACK
10
69.6095
20
-208.289
11
69.485
21
-208.915
0
LINE
8
BLACK
10
69.485
20
-208.915
11
69.485
21
-208.915
0
LINE
8
BLACK
10
69.485
20
-208.915
11
69.485
21
-210.143
0
LINE
8
BLACK
10
69.485
20
-210.143
11
68.188
21
-211.44
0
LINE
8
BLACK
10
68.188
20
-211.44
11
68.3097
21
-211.147
0
LINE
8
BLACK
10
68.3097
20
-211.147
11
68.3103
21
-210.496
0
LINE
8
BLACK
10
68.3103
20
-210.496
11
68.0619
21
-209.895
0
LINE
8
BLACK
10
68.0619
20
-209.895
11
67.6753
21
-209.508
0
LINE
8
BLACK
10
67.6753
20
-209.508
11
67.6753
21
-204.146
0
LINE
8
BLACK
10
67.6753
20
-204.146
11
67.6753
21
-199.066
0
LINE
8
BLACK
10
67.6753
20
-199.066
11
67.6753
21
-193.986
0
LINE
8
BLACK
10
67.6753
20
-193.986
11
67.6753
21
-188.906
0
LINE
8
BLACK
10
67.6753
20
-188.906
11
67.6753
21
-183.826
0
LINE
8
BLACK
10
67.6753
20
-183.826
11
67.6753
21
-178.746
0
LINE
8
BLACK
10
67.6753
20
-178.746
11
67.4269
21
-178.145
0
LINE
8
BLACK
10
67.4269
20
-178.145
11
66.9674
21
-177.685
0
LINE
8
BLACK
10
66.9674
20
-177.685
11
66.3666
21
-177.435
0
LINE
8
BLACK
10
66.3666
20
-177.435
11
65.7162
21
-177.435
0
LINE
8
BLACK
10
65.7162
20
-177.435
11
65.1151
21
-177.683
0
LINE
8
BLACK
10
65.1151
20
-177.683
11
64.6547
21
-178.143
0
LINE
8
BLACK
10
64.6547
20
-178.143
11
64.4053
21
-178.743
0
LINE
8
BLACK
10
64.4053
20
-178.743
11
64.4047
21
-179.394
0
LINE
8
BLACK
10
64.4047
20
-179.394
11
64.6531
21
-179.995
0
LINE
8
BLACK
10
64.6531
20
-179.995
11
65.1126
21
-180.455
0
LINE
8
BLACK
10
65.1126
20
-180.455
11
65.7134
21
-180.705
0
LINE
8
BLACK
10
65.7134
20
-180.705
11
66.3638
21
-180.705
0
LINE
8
BLACK
10
66.3638
20
-180.705
11
66.9649
21
-180.457
0
LINE
8
BLACK
10
66.9649
20
-180.457
11
67.4253
21
-179.997
0
LINE
8
BLACK
10
67.4253
20
-179.997
11
67.6747
21
-179.397
0
LINE
8
BLACK
10
67.6747
20
-179.397
11
67.6753
21
-178.746
0
LINE
8
BLACK
10
67.6753
20
-178.746
11
67.6753
21
-183.826
0
LINE
8
BLACK
10
67.6753
20
-183.826
11
67.4269
21
-183.225
0
LINE
8
BLACK
10
67.4269
20
-183.225
11
66.9674
21
-182.765
0
LINE
8
BLACK
10
66.9674
20
-182.765
11
66.3666
21
-182.515
0
LINE
8
BLACK
10
66.3666
20
-182.515
11
65.7162
21
-182.515
0
LINE
8
BLACK
10
65.7162
20
-182.515
11
65.1151
21
-182.763
0
LINE
8
BLACK
10
65.1151
20
-182.763
11
64.6547
21
-183.223
0
LINE
8
BLACK
10
64.6547
20
-183.223
11
64.4053
21
-183.823
0
LINE
8
BLACK
10
64.4053
20
-183.823
11
64.4047
21
-184.474
0
LINE
8
BLACK
10
64.4047
20
-184.474
11
64.6531
21
-185.075
0
LINE
8
BLACK
10
64.6531
20
-185.075
11
65.1126
21
-185.535
0
LINE
8
BLACK
10
65.1126
20
-185.535
11
65.7134
21
-185.785
0
LINE
8
BLACK
10
65.7134
20
-185.785
11
66.3638
21
-185.785
0
LINE
8
BLACK
10
66.3638
20
-185.785
11
66.9649
21
-185.537
0
LINE
8
BLACK
10
66.9649
20
-185.537
11
67.4253
21
-185.077
0
LINE
8
BLACK
10
67.4253
20
-185.077
11
67.6747
21
-184.477
0
LINE
8
BLACK
10
67.6747
20
-184.477
11
67.6753
21
-183.826
0
LINE
8
BLACK
10
67.6753
20
-183.826
11
67.6753
21
-188.906
0
LINE
8
BLACK
10
67.6753
20
-188.906
11
67.4269
21
-188.305
0
LINE
8
BLACK
10
67.4269
20
-188.305
11
66.9674
21
-187.845
0
LINE
8
BLACK
10
66.9674
20
-187.845
11
66.3666
21
-187.595
0
LINE
8
BLACK
10
66.3666
20
-187.595
11
65.7162
21
-187.595
0
LINE
8
BLACK
10
65.7162
20
-187.595
11
65.1151
21
-187.843
0
LINE
8
BLACK
10
65.1151
20
-187.843
11
64.6547
21
-188.303
0
LINE
8
BLACK
10
64.6547
20
-188.303
11
64.4053
21
-188.903
0
LINE
8
BLACK
10
64.4053
20
-188.903
11
64.4047
21
-189.554
0
LINE
8
BLACK
10
64.4047
20
-189.554
11
64.6531
21
-190.155
0
LINE
8
BLACK
10
64.6531
20
-190.155
11
65.1126
21
-190.615
0
LINE
8
BLACK
10
65.1126
20
-190.615
11
65.7134
21
-190.865
0
LINE
8
BLACK
10
65.7134
20
-190.865
11
66.3638
21
-190.865
0
LINE
8
BLACK
10
66.3638
20
-190.865
11
66.9649
21
-190.617
0
LINE
8
BLACK
10
66.9649
20
-190.617
11
67.4253
21
-190.157
0
LINE
8
BLACK
10
67.4253
20
-190.157
11
67.6747
21
-189.557
0
LINE
8
BLACK
10
67.6747
20
-189.557
11
67.6753
21
-188.906
0
LINE
8
BLACK
10
67.6753
20
-188.906
11
67.6753
21
-193.986
0
LINE
8
BLACK
10
67.6753
20
-193.986
11
67.4269
21
-193.385
0
LINE
8
BLACK
10
67.4269
20
-193.385
11
66.9674
21
-192.925
0
LINE
8
BLACK
10
66.9674
20
-192.925
11
66.3666
21
-192.675
0
LINE
8
BLACK
10
66.3666
20
-192.675
11
65.7162
21
-192.675
0
LINE
8
BLACK
10
65.7162
20
-192.675
11
65.1151
21
-192.923
0
LINE
8
BLACK
10
65.1151
20
-192.923
11
64.6547
21
-193.383
0
LINE
8
BLACK
10
64.6547
20
-193.383
11
64.4053
21
-193.983
0
LINE
8
BLACK
10
64.4053
20
-193.983
11
64.4047
21
-194.634
0
LINE
8
BLACK
10
64.4047
20
-194.634
11
64.6531
21
-195.235
0
LINE
8
BLACK
10
64.6531
20
-195.235
11
65.1126
21
-195.695
0
LINE
8
BLACK
10
65.1126
20
-195.695
11
65.7134
21
-195.945
0
LINE
8
BLACK
10
65.7134
20
-195.945
11
66.3638
21
-195.945
0
LINE
8
BLACK
10
66.3638
20
-195.945
11
66.9649
21
-195.697
0
LINE
8
BLACK
10
66.9649
20
-195.697
11
67.4253
21
-195.237
0
LINE
8
BLACK
10
67.4253
20
-195.237
11
67.6747
21
-194.637
0
LINE
8
BLACK
10
67.6747
20
-194.637
11
67.6753
21
-193.986
0
LINE
8
BLACK
10
67.6753
20
-193.986
11
67.6753
21
-199.066
0
LINE
8
BLACK
10
67.6753
20
-199.066
11
67.4269
21
-198.465
0
LINE
8
BLACK
10
67.4269
20
-198.465
11
66.9674
21
-198.005
0
LINE
8
BLACK
10
66.9674
20
-198.005
11
66.3666
21
-197.755
0
LINE
8
BLACK
10
66.3666
20
-197.755
11
65.7162
21
-197.755
0
LINE
8
BLACK
10
65.7162
20
-197.755
11
65.1151
21
-198.003
0
LINE
8
BLACK
10
65.1151
20
-198.003
11
64.6547
21
-198.463
0
LINE
8
BLACK
10
64.6547
20
-198.463
11
64.4053
21
-199.063
0
LINE
8
BLACK
10
64.4053
20
-199.063
11
64.4047
21
-199.714
0
LINE
8
BLACK
10
64.4047
20
-199.714
11
64.6531
21
-200.315
0
LINE
8
BLACK
10
64.6531
20
-200.315
11
65.1126
21
-200.775
0
LINE
8
BLACK
10
65.1126
20
-200.775
11
65.7134
21
-201.025
0
LINE
8
BLACK
10
65.7134
20
-201.025
11
66.3638
21
-201.025
0
LINE
8
BLACK
10
66.3638
20
-201.025
11
66.9649
21
-200.777
0
LINE
8
BLACK
10
66.9649
20
-200.777
11
67.4253
21
-200.317
0
LINE
8
BLACK
10
67.4253
20
-200.317
11
67.6747
21
-199.717
0
LINE
8
BLACK
10
67.6747
20
-199.717
11
67.6753
21
-199.066
0
LINE
8
BLACK
10
67.6753
20
-199.066
11
67.6753
21
-204.146
0
LINE
8
BLACK
10
67.6753
20
-204.146
11
67.4269
21
-203.545
0
LINE
8
BLACK
10
67.4269
20
-203.545
11
66.9674
21
-203.085
0
LINE
8
BLACK
10
66.9674
20
-203.085
11
66.3666
21
-202.835
0
LINE
8
BLACK
10
66.3666
20
-202.835
11
65.7162
21
-202.835
0
LINE
8
BLACK
10
65.7162
20
-202.835
11
65.1151
21
-203.083
0
LINE
8
BLACK
10
65.1151
20
-203.083
11
64.6547
21
-203.543
0
LINE
8
BLACK
10
64.6547
20
-203.543
11
64.4053
21
-204.143
0
LINE
8
BLACK
10
64.4053
20
-204.143
11
64.4047
21
-204.794
0
LINE
8
BLACK
10
64.4047
20
-204.794
11
64.6531
21
-205.395
0
LINE
8
BLACK
10
64.6531
20
-205.395
11
65.1126
21
-205.855
0
LINE
8
BLACK
10
65.1126
20
-205.855
11
65.7134
21
-206.105
0
LINE
8
BLACK
10
65.7134
20
-206.105
11
66.3638
21
-206.105
0
LINE
8
BLACK
10
66.3638
20
-206.105
11
66.9649
21
-205.857
0
LINE
8
BLACK
10
66.9649
20
-205.857
11
67.4253
21
-205.397
0
LINE
8
BLACK
10
67.4253
20
-205.397
11
67.6747
21
-204.797
0
LINE
8
BLACK
10
67.6747
20
-204.797
11
67.6753
21
-204.146
0
LINE
8
BLACK
10
67.6753
20
-204.146
11
67.6753
21
-209.508
0
LINE
8
BLACK
10
67.6753
20
-209.508
11
67.6024
21
-209.435
0
LINE
8
BLACK
10
67.6024
20
-209.435
11
67.0016
21
-209.185
0
LINE
8
BLACK
10
67.0016
20
-209.185
11
66.3512
21
-209.185
0
LINE
8
BLACK
10
66.3512
20
-209.185
11
65.7501
21
-209.433
0
LINE
8
BLACK
10
65.7501
20
-209.433
11
65.2897
21
-209.893
0
LINE
8
BLACK
10
65.2897
20
-209.893
11
65.1353
21
-210.265
0
LINE
8
BLACK
10
65.1353
20
-210.265
11
65.1353
21
-209.226
0
LINE
8
BLACK
10
65.1353
20
-209.226
11
64.8869
21
-208.625
0
LINE
8
BLACK
10
64.8869
20
-208.625
11
64.4274
21
-208.165
0
LINE
8
BLACK
10
64.4274
20
-208.165
11
63.8266
21
-207.915
0
LINE
8
BLACK
10
63.8266
20
-207.915
11
63.1762
21
-207.915
0
LINE
8
BLACK
10
63.1762
20
-207.915
11
62.5751
21
-208.163
0
LINE
8
BLACK
10
62.5751
20
-208.163
11
62.1147
21
-208.623
0
LINE
8
BLACK
10
62.1147
20
-208.623
11
61.8653
21
-209.223
0
LINE
8
BLACK
10
61.8653
20
-209.223
11
61.8647
21
-209.874
0
LINE
8
BLACK
10
61.8647
20
-209.874
11
62.1131
21
-210.475
0
LINE
8
BLACK
10
62.1131
20
-210.475
11
62.5726
21
-210.935
0
LINE
8
BLACK
10
62.5726
20
-210.935
11
63.1734
21
-211.185
0
LINE
8
BLACK
10
63.1734
20
-211.185
11
63.8238
21
-211.185
0
LINE
8
BLACK
10
63.8238
20
-211.185
11
64.4249
21
-210.937
0
LINE
8
BLACK
10
64.4249
20
-210.937
11
64.8853
21
-210.477
0
LINE
8
BLACK
10
64.8853
20
-210.477
11
65.1347
21
-209.877
0
LINE
8
BLACK
10
65.1347
20
-209.877
11
65.1353
21
-209.226
0
LINE
8
BLACK
10
65.1353
20
-209.226
11
65.1353
21
-210.265
0
LINE
8
BLACK
10
65.1353
20
-210.265
11
65.0403
21
-210.493
0
LINE
8
BLACK
10
65.0403
20
-210.493
11
65.0397
21
-211.144
0
LINE
8
BLACK
10
65.0397
20
-211.144
11
65.2799
21
-211.725
0
LINE
8
BLACK
10
65.2799
20
-211.725
11
56.5572
21
-211.725
0
LINE
8
BLACK
10
56.5572
20
-211.725
11
56.2453
21
-211.413
0
LINE
8
BLACK
10
56.2453
20
-211.413
11
56.2453
21
-204.146
0
LINE
8
BLACK
10
56.2453
20
-204.146
11
56.2453
21
-199.066
0
LINE
8
BLACK
10
56.2453
20
-199.066
11
56.2453
21
-193.986
0
LINE
8
BLACK
10
56.2453
20
-193.986
11
56.2453
21
-188.906
0
LINE
8
BLACK
10
56.2453
20
-188.906
11
56.2453
21
-183.826
0
LINE
8
BLACK
10
56.2453
20
-183.826
11
56.2453
21
-178.746
0
LINE
8
BLACK
10
56.2453
20
-178.746
11
55.9969
21
-178.145
0
LINE
8
BLACK
10
55.9969
20
-178.145
11
55.5374
21
-177.685
0
LINE
8
BLACK
10
55.5374
20
-177.685
11
54.9366
21
-177.435
0
LINE
8
BLACK
10
54.9366
20
-177.435
11
54.2862
21
-177.435
0
LINE
8
BLACK
10
54.2862
20
-177.435
11
53.6851
21
-177.683
0
LINE
8
BLACK
10
53.6851
20
-177.683
11
53.2247
21
-178.143
0
LINE
8
BLACK
10
53.2247
20
-178.143
11
52.9753
21
-178.743
0
LINE
8
BLACK
10
52.9753
20
-178.743
11
52.9747
21
-179.394
0
LINE
8
BLACK
10
52.9747
20
-179.394
11
53.2231
21
-179.995
0
LINE
8
BLACK
10
53.2231
20
-179.995
11
53.6826
21
-180.455
0
LINE
8
BLACK
10
53.6826
20
-180.455
11
54.2834
21
-180.705
0
LINE
8
BLACK
10
54.2834
20
-180.705
11
54.9338
21
-180.705
0
LINE
8
BLACK
10
54.9338
20
-180.705
11
55.5349
21
-180.457
0
LINE
8
BLACK
10
55.5349
20
-180.457
11
55.9953
21
-179.997
0
LINE
8
BLACK
10
55.9953
20
-179.997
11
56.2447
21
-179.397
0
LINE
8
BLACK
10
56.2447
20
-179.397
11
56.2453
21
-178.746
0
LINE
8
BLACK
10
56.2453
20
-178.746
11
56.2453
21
-183.826
0
LINE
8
BLACK
10
56.2453
20
-183.826
11
55.9969
21
-183.225
0
LINE
8
BLACK
10
55.9969
20
-183.225
11
55.5374
21
-182.765
0
LINE
8
BLACK
10
55.5374
20
-182.765
11
54.9366
21
-182.515
0
LINE
8
BLACK
10
54.9366
20
-182.515
11
54.2862
21
-182.515
0
LINE
8
BLACK
10
54.2862
20
-182.515
11
53.6851
21
-182.763
0
LINE
8
BLACK
10
53.6851
20
-182.763
11
53.2247
21
-183.223
0
LINE
8
BLACK
10
53.2247
20
-183.223
11
52.9753
21
-183.823
0
LINE
8
BLACK
10
52.9753
20
-183.823
11
52.9747
21
-184.474
0
LINE
8
BLACK
10
52.9747
20
-184.474
11
53.2231
21
-185.075
0
LINE
8
BLACK
10
53.2231
20
-185.075
11
53.6826
21
-185.535
0
LINE
8
BLACK
10
53.6826
20
-185.535
11
54.2834
21
-185.785
0
LINE
8
BLACK
10
54.2834
20
-185.785
11
54.9338
21
-185.785
0
LINE
8
BLACK
10
54.9338
20
-185.785
11
55.5349
21
-185.537
0
LINE
8
BLACK
10
55.5349
20
-185.537
11
55.9953
21
-185.077
0
LINE
8
BLACK
10
55.9953
20
-185.077
11
56.2447
21
-184.477
0
LINE
8
BLACK
10
56.2447
20
-184.477
11
56.2453
21
-183.826
0
LINE
8
BLACK
10
56.2453
20
-183.826
11
56.2453
21
-188.906
0
LINE
8
BLACK
10
56.2453
20
-188.906
11
55.9969
21
-188.305
0
LINE
8
BLACK
10
55.9969
20
-188.305
11
55.5374
21
-187.845
0
LINE
8
BLACK
10
55.5374
20
-187.845
11
54.9366
21
-187.595
0
LINE
8
BLACK
10
54.9366
20
-187.595
11
54.2862
21
-187.595
0
LINE
8
BLACK
10
54.2862
20
-187.595
11
53.6851
21
-187.843
0
LINE
8
BLACK
10
53.6851
20
-187.843
11
53.2247
21
-188.303
0
LINE
8
BLACK
10
53.2247
20
-188.303
11
52.9753
21
-188.903
0
LINE
8
BLACK
10
52.9753
20
-188.903
11
52.9747
21
-189.554
0
LINE
8
BLACK
10
52.9747
20
-189.554
11
53.2231
21
-190.155
0
LINE
8
BLACK
10
53.2231
20
-190.155
11
53.6826
21
-190.615
0
LINE
8
BLACK
10
53.6826
20
-190.615
11
54.2834
21
-190.865
0
LINE
8
BLACK
10
54.2834
20
-190.865
11
54.9338
21
-190.865
0
LINE
8
BLACK
10
54.9338
20
-190.865
11
55.5349
21
-190.617
0
LINE
8
BLACK
10
55.5349
20
-190.617
11
55.9953
21
-190.157
0
LINE
8
BLACK
10
55.9953
20
-190.157
11
56.2447
21
-189.557
0
LINE
8
BLACK
10
56.2447
20
-189.557
11
56.2453
21
-188.906
0
LINE
8
BLACK
10
56.2453
20
-188.906
11
56.2453
21
-193.986
0
LINE
8
BLACK
10
56.2453
20
-193.986
11
55.9969
21
-193.385
0
LINE
8
BLACK
10
55.9969
20
-193.385
11
55.5374
21
-192.925
0
LINE
8
BLACK
10
55.5374
20
-192.925
11
54.9366
21
-192.675
0
LINE
8
BLACK
10
54.9366
20
-192.675
11
54.2862
21
-192.675
0
LINE
8
BLACK
10
54.2862
20
-192.675
11
53.6851
21
-192.923
0
LINE
8
BLACK
10
53.6851
20
-192.923
11
53.2247
21
-193.383
0
LINE
8
BLACK
10
53.2247
20
-193.383
11
52.9753
21
-193.983
0
LINE
8
BLACK
10
52.9753
20
-193.983
11
52.9747
21
-194.634
0
LINE
8
BLACK
10
52.9747
20
-194.634
11
53.2231
21
-195.235
0
LINE
8
BLACK
10
53.2231
20
-195.235
11
53.6826
21
-195.695
0
LINE
8
BLACK
10
53.6826
20
-195.695
11
54.2834
21
-195.945
0
LINE
8
BLACK
10
54.2834
20
-195.945
11
54.9338
21
-195.945
0
LINE
8
BLACK
10
54.9338
20
-195.945
11
55.5349
21
-195.697
0
LINE
8
BLACK
10
55.5349
20
-195.697
11
55.9953
21
-195.237
0
LINE
8
BLACK
10
55.9953
20
-195.237
11
56.2447
21
-194.637
0
LINE
8
BLACK
10
56.2447
20
-194.637
11
56.2453
21
-193.986
0
LINE
8
BLACK
10
56.2453
20
-193.986
11
56.2453
21
-199.066
0
LINE
8
BLACK
10
56.2453
20
-199.066
11
55.9969
21
-198.465
0
LINE
8
BLACK
10
55.9969
20
-198.465
11
55.5374
21
-198.005
0
LINE
8
BLACK
10
55.5374
20
-198.005
11
54.9366
21
-197.755
0
LINE
8
BLACK
10
54.9366
20
-197.755
11
54.2862
21
-197.755
0
LINE
8
BLACK
10
54.2862
20
-197.755
11
53.6851
21
-198.003
0
LINE
8
BLACK
10
53.6851
20
-198.003
11
53.2247
21
-198.463
0
LINE
8
BLACK
10
53.2247
20
-198.463
11
52.9753
21
-199.063
0
LINE
8
BLACK
10
52.9753
20
-199.063
11
52.9747
21
-199.714
0
LINE
8
BLACK
10
52.9747
20
-199.714
11
53.2231
21
-200.315
0
LINE
8
BLACK
10
53.2231
20
-200.315
11
53.6826
21
-200.775
0
LINE
8
BLACK
10
53.6826
20
-200.775
11
54.2834
21
-201.025
0
LINE
8
BLACK
10
54.2834
20
-201.025
11
54.9338
21
-201.025
0
LINE
8
BLACK
10
54.9338
20
-201.025
11
55.5349
21
-200.777
0
LINE
8
BLACK
10
55.5349
20
-200.777
11
55.9953
21
-200.317
0
LINE
8
BLACK
10
55.9953
20
-200.317
11
56.2447
21
-199.717
0
LINE
8
BLACK
10
56.2447
20
-199.717
11
56.2453
21
-199.066
0
LINE
8
BLACK
10
56.2453
20
-199.066
11
56.2453
21
-204.146
0
LINE
8
BLACK
10
56.2453
20
-204.146
11
55.9969
21
-203.545
0
LINE
8
BLACK
10
55.9969
20
-203.545
11
55.5374
21
-203.085
0
LINE
8
BLACK
10
55.5374
20
-203.085
11
54.9366
21
-202.835
0
LINE
8
BLACK
10
54.9366
20
-202.835
11
54.2862
21
-202.835
0
LINE
8
BLACK
10
54.2862
20
-202.835
11
53.6851
21
-203.083
0
LINE
8
BLACK
10
53.6851
20
-203.083
11
53.2247
21
-203.543
0
LINE
8
BLACK
10
53.2247
20
-203.543
11
52.9753
21
-204.143
0
LINE
8
BLACK
10
52.9753
20
-204.143
11
52.9747
21
-204.794
0
LINE
8
BLACK
10
52.9747
20
-204.794
11
53.2231
21
-205.395
0
LINE
8
BLACK
10
53.2231
20
-205.395
11
53.6826
21
-205.855
0
LINE
8
BLACK
10
53.6826
20
-205.855
11
54.2834
21
-206.105
0
LINE
8
BLACK
10
54.2834
20
-206.105
11
54.9338
21
-206.105
0
LINE
8
BLACK
10
54.9338
20
-206.105
11
55.5349
21
-205.857
0
LINE
8
BLACK
10
55.5349
20
-205.857
11
55.9953
21
-205.397
0
LINE
8
BLACK
10
55.9953
20
-205.397
11
56.2447
21
-204.797
0
LINE
8
BLACK
10
56.2447
20
-204.797
11
56.2453
21
-204.146
0
LINE
8
BLACK
10
56.2453
20
-204.146
11
56.2453
21
-211.413
0
LINE
8
BLACK
10
56.2453
20
-211.413
11
54.975
21
-210.143
0
LINE
8
BLACK
10
54.975
20
-210.143
11
54.975
21
-209.55
0
LINE
8
BLACK
10
54.975
20
-209.55
11
54.975
21
-209.55
0
LINE
8
BLACK
10
54.975
20
-209.55
11
54.9753
21
-209.226
0
LINE
8
BLACK
10
54.9753
20
-209.226
11
54.8505
21
-208.924
0
LINE
8
BLACK
10
54.8505
20
-208.924
11
54.7269
21
-208.625
0
LINE
8
BLACK
10
54.7269
20
-208.625
11
54.4961
21
-208.394
0
LINE
8
BLACK
10
54.4961
20
-208.394
11
54.4961
21
-208.394
0
LINE
8
BLACK
10
54.4961
20
-208.394
11
54.4961
21
-208.394
0
LINE
8
BLACK
10
54.4961
20
-208.394
11
54.2674
21
-208.165
0
LINE
8
BLACK
10
54.2674
20
-208.165
11
53.9657
21
-208.039
0
LINE
8
BLACK
10
53.9657
20
-208.039
11
53.6666
21
-207.915
0
LINE
8
BLACK
10
53.6666
20
-207.915
11
53.0162
21
-207.915
0
LINE
8
BLACK
10
53.0162
20
-207.915
11
52.4151
21
-208.163
0
LINE
8
BLACK
10
52.4151
20
-208.163
11
52.1839
21
-208.394
0
LINE
8
BLACK
10
52.1839
20
-208.394
11
52.1839
21
-208.394
0
LINE
8
BLACK
10
52.1839
20
-208.394
11
52.1839
21
-208.394
0
LINE
8
BLACK
10
52.1839
20
-208.394
11
51.9547
21
-208.623
0
LINE
8
BLACK
10
51.9547
20
-208.623
11
51.7053
21
-209.223
0
LINE
8
BLACK
10
51.7053
20
-209.223
11
51.7047
21
-209.874
0
LINE
8
BLACK
10
51.7047
20
-209.874
11
51.705
21
-209.874
0
LINE
8
BLACK
10
51.705
20
-209.874
11
51.705
21
-210.82
0
LINE
8
BLACK
10
51.705
20
-210.82
11
51.705
21
-210.82
0
LINE
8
BLACK
10
51.705
20
-210.82
11
51.8295
21
-211.446
0
LINE
8
BLACK
10
51.8295
20
-211.446
11
52.1839
21
-211.976
0
LINE
8
BLACK
10
52.1839
20
-211.976
11
54.7239
21
-214.516
0
LINE
8
BLACK
10
54.7239
20
-214.516
11
54.7239
21
-214.516
0
LINE
8
BLACK
10
54.7239
20
-214.516
11
55.2543
21
-214.871
0
LINE
8
BLACK
10
55.2543
20
-214.871
11
55.2543
21
-214.871
0
LINE
8
BLACK
10
55.2543
20
-214.871
11
55.88
21
-214.995
0
LINE
8
BLACK
10
55.88
20
-214.995
11
64.2156
21
-214.995
0
LINE
8
BLACK
10
64.2156
20
-214.995
11
63.8451
21
-215.148
0
LINE
8
BLACK
10
63.8451
20
-215.148
11
63.3847
21
-215.608
0
LINE
8
BLACK
10
63.3847
20
-215.608
11
63.1353
21
-216.208
0
LINE
8
BLACK
10
63.1353
20
-216.208
11
63.1347
21
-216.859
0
LINE
8
BLACK
10
63.1347
20
-216.859
11
63.3831
21
-217.46
0
LINE
8
BLACK
10
63.3831
20
-217.46
11
63.7278
21
-217.805
0
LINE
8
BLACK
10
63.7278
20
-217.805
11
63.3847
21
-218.148
0
LINE
8
BLACK
10
63.3847
20
-218.148
11
63.1353
21
-218.748
0
LINE
8
BLACK
10
63.1353
20
-218.748
11
63.1347
21
-219.399
0
LINE
8
BLACK
10
63.1347
20
-219.399
11
63.3831
21
-220
0
LINE
8
BLACK
10
63.3831
20
-220
11
63.8426
21
-220.46
0
LINE
8
BLACK
10
63.8426
20
-220.46
11
64.4434
21
-220.71
0
LINE
8
BLACK
10
64.4434
20
-220.71
11
65.0938
21
-220.71
0
LINE
8
BLACK
10
65.0938
20
-220.71
11
65.6949
21
-220.462
0
LINE
8
BLACK
10
65.6949
20
-220.462
11
66.1553
21
-220.002
0
LINE
8
BLACK
10
66.1553
20
-220.002
11
66.4047
21
-219.402
0
LINE
8
BLACK
10
66.4047
20
-219.402
11
66.4053
21
-218.751
0
LINE
8
BLACK
10
66.4053
20
-218.751
11
66.1569
21
-218.15
0
LINE
8
BLACK
10
66.1569
20
-218.15
11
65.8122
21
-217.805
0
LINE
8
BLACK
10
65.8122
20
-217.805
11
66.0975
21
-217.52
0
LINE
8
BLACK
10
66.0975
20
-217.52
11
71.755
21
-217.52
0
LINE
8
BLACK
10
71.755
20
-217.52
11
72.1319
21
-217.445
0
LINE
8
BLACK
10
72.1319
20
-217.445
11
72.4515
21
-217.232
0
LINE
8
BLACK
10
72.4515
20
-217.232
11
88.9615
21
-200.722
0
LINE
8
BLACK
10
88.9615
20
-200.722
11
88.9615
21
-200.722
0
LINE
8
BLACK
10
88.9615
20
-200.722
11
89.1042
21
-200.508
0
LINE
8
BLACK
10
89.1042
20
-200.508
11
89.175
21
-200.402
0
LINE
8
BLACK
10
89.175
20
-200.402
11
89.175
21
-200.402
0
LINE
8
BLACK
10
89.175
20
-200.402
11
89.25
21
-200.025
0
LINE
8
BLACK
10
89.25
20
-200.025
11
89.25
21
-200.025
0
LINE
8
BLACK
10
89.25
20
-200.025
11
89.25
21
-194.718
0
LINE
8
BLACK
10
89.25
20
-194.718
11
89.308
21
-194.66
0
LINE
8
BLACK
10
89.308
20
-194.66
11
90.0299
21
-194.66
0
LINE
8
BLACK
10
90.0299
20
-194.66
11
90.0438
21
-194.681
0
LINE
8
BLACK
10
90.0438
20
-194.681
11
90.211
21
-194.792
0
LINE
8
BLACK
10
90.211
20
-194.792
11
90.1712
21
-194.792
0
LINE
8
BLACK
10
90.1712
20
-194.792
11
89.9378
21
-194.889
0
LINE
8
BLACK
10
89.9378
20
-194.889
11
89.759
21
-195.067
0
LINE
8
BLACK
10
89.759
20
-195.067
11
89.6621
21
-195.301
0
LINE
8
BLACK
10
89.6621
20
-195.301
11
89.6619
21
-195.553
0
LINE
8
BLACK
10
89.6619
20
-195.553
11
89.6619
21
-197.128
0
LINE
8
BLACK
10
89.6619
20
-197.128
11
89.7584
21
-197.362
0
LINE
8
BLACK
10
89.7584
20
-197.362
11
89.9368
21
-197.54
0
LINE
8
BLACK
10
89.9368
20
-197.54
11
90.1701
21
-197.637
0
LINE
8
BLACK
10
90.1701
20
-197.637
11
90.4228
21
-197.638
0
LINE
8
BLACK
10
90.4228
20
-197.638
11
92.7088
21
-197.638
0
LINE
8
BLACK
10
92.7088
20
-197.638
11
92.9422
21
-197.541
0
LINE
8
BLACK
10
92.9422
20
-197.541
11
93.121
21
-197.363
0
LINE
8
BLACK
10
93.121
20
-197.363
11
93.2179
21
-197.129
0
LINE
8
BLACK
10
93.2179
20
-197.129
11
93.2181
21
-196.877
0
LINE
8
BLACK
10
93.2181
20
-196.877
11
93.2181
21
-195.302
0
LINE
8
BLACK
10
93.2181
20
-195.302
11
93.1216
21
-195.068
0
LINE
8
BLACK
10
93.1216
20
-195.068
11
92.9432
21
-194.89
0
LINE
8
BLACK
10
92.9432
20
-194.89
11
92.7099
21
-194.793
0
LINE
8
BLACK
10
92.7099
20
-194.793
11
92.6688
21
-194.793
0
LINE
8
BLACK
10
92.6688
20
-194.793
11
92.8362
21
-194.681
0
LINE
8
BLACK
10
92.8362
20
-194.681
11
93.1446
21
-194.219
0
LINE
8
BLACK
10
93.1446
20
-194.219
11
93.2528
21
-193.675
0
LINE
8
BLACK
10
93.2528
20
-193.675
11
93.2528
21
-224.74
0
LINE
8
BLACK
10
93.2528
20
-224.74
11
86.3601
21
-224.74
0
LINE
8
BLACK
10
86.3601
20
-224.74
11
86.3601
21
-223.394
0
LINE
8
BLACK
10
86.3601
20
-223.394
11
86.3601
21
-214.504
0
LINE
8
BLACK
10
86.3601
20
-214.504
11
86.2636
21
-214.271
0
LINE
8
BLACK
10
86.2636
20
-214.271
11
86.0852
21
-214.092
0
LINE
8
BLACK
10
86.0852
20
-214.092
11
85.8519
21
-213.995
0
LINE
8
BLACK
10
85.8519
20
-213.995
11
85.5992
21
-213.995
0
LINE
8
BLACK
10
85.5992
20
-213.995
11
76.7092
21
-213.995
0
LINE
8
BLACK
10
76.7092
20
-213.995
11
76.4758
21
-214.091
0
LINE
8
BLACK
10
76.4758
20
-214.091
11
76.297
21
-214.27
0
LINE
8
BLACK
10
76.297
20
-214.27
11
76.2001
21
-214.503
0
LINE
8
BLACK
10
76.2001
20
-214.503
11
76.1999
21
-214.756
0
LINE
8
BLACK
10
76.1999
20
-214.756
11
76.1999
21
-223.646
0
LINE
8
BLACK
10
76.1999
20
-223.646
11
76.2964
21
-223.879
0
LINE
8
BLACK
10
76.2964
20
-223.879
11
76.4748
21
-224.058
0
LINE
8
BLACK
10
76.4748
20
-224.058
11
76.7081
21
-224.155
0
LINE
8
BLACK
10
76.7081
20
-224.155
11
76.9608
21
-224.155
0
LINE
8
BLACK
10
76.9608
20
-224.155
11
85.8508
21
-224.155
0
LINE
8
BLACK
10
85.8508
20
-224.155
11
86.0842
21
-224.059
0
LINE
8
BLACK
10
86.0842
20
-224.059
11
86.263
21
-223.88
0
LINE
8
BLACK
10
86.263
20
-223.88
11
86.3599
21
-223.647
0
LINE
8
BLACK
10
86.3599
20
-223.647
11
86.3601
21
-223.394
0
LINE
8
BLACK
10
86.3601
20
-223.394
11
86.3601
21
-224.74
0
LINE
8
BLACK
10
86.3601
20
-224.74
11
60.5791
21
-224.74
0
LINE
8
BLACK
10
60.5791
20
-224.74
11
60.5791
21
-219.203
0
LINE
8
BLACK
10
60.5791
20
-219.203
11
60.5791
21
-217.425
0
LINE
8
BLACK
10
60.5791
20
-217.425
11
60.4826
21
-217.192
0
LINE
8
BLACK
10
60.4826
20
-217.192
11
60.3042
21
-217.013
0
LINE
8
BLACK
10
60.3042
20
-217.013
11
60.0709
21
-216.916
0
LINE
8
BLACK
10
60.0709
20
-216.916
11
59.8182
21
-216.916
0
LINE
8
BLACK
10
59.8182
20
-216.916
11
58.0402
21
-216.916
0
LINE
8
BLACK
10
58.0402
20
-216.916
11
57.8068
21
-217.012
0
LINE
8
BLACK
10
57.8068
20
-217.012
11
57.628
21
-217.191
0
LINE
8
BLACK
10
57.628
20
-217.191
11
57.5311
21
-217.424
0
LINE
8
BLACK
10
57.5311
20
-217.424
11
57.5309
21
-217.677
0
LINE
8
BLACK
10
57.5309
20
-217.677
11
57.5309
21
-219.455
0
LINE
8
BLACK
10
57.5309
20
-219.455
11
57.6274
21
-219.688
0
LINE
8
BLACK
10
57.6274
20
-219.688
11
57.8058
21
-219.867
0
LINE
8
BLACK
10
57.8058
20
-219.867
11
58.0391
21
-219.964
0
LINE
8
BLACK
10
58.0391
20
-219.964
11
58.2918
21
-219.964
0
LINE
8
BLACK
10
58.2918
20
-219.964
11
60.0698
21
-219.964
0
LINE
8
BLACK
10
60.0698
20
-219.964
11
60.3032
21
-219.868
0
LINE
8
BLACK
10
60.3032
20
-219.868
11
60.482
21
-219.689
0
LINE
8
BLACK
10
60.482
20
-219.689
11
60.5789
21
-219.456
0
LINE
8
BLACK
10
60.5789
20
-219.456
11
60.5791
21
-219.203
0
LINE
8
BLACK
10
60.5791
20
-219.203
11
60.5791
21
-224.74
0
LINE
8
BLACK
10
60.5791
20
-224.74
11
50.85
21
-224.74
0
LINE
8
BLACK
10
50.85
20
-224.74
11
50.85
21
-172.135
0
LINE
8
BLACK
10
50.85
20
-172.135
11
93.93
21
-172.135
0
LINE
8
BLACK
10
93.93
20
-172.135
11
93.93
21
-224.74
0
LINE
8
BLACK
10
93.93
20
-224.74
11
93.2528
21
-224.74
0
LINE
8
BLACK
10
93.2528
20
-224.74
11
93.2528
21
-193.675
0
LINE
8
BLACK
10
93.2528
20
-193.675
11
93.1446
21
-193.131
0
LINE
8
BLACK
10
93.1446
20
-193.131
11
92.8362
21
-192.669
0
LINE
8
BLACK
10
92.8362
20
-192.669
11
92.4408
21
-192.405
0
LINE
8
BLACK
10
92.4408
20
-192.405
11
92.8362
21
-192.141
0
LINE
8
BLACK
10
92.8362
20
-192.141
11
93.1446
21
-191.679
0
LINE
8
BLACK
10
93.1446
20
-191.679
11
93.2528
21
-191.135
0
LINE
8
BLACK
10
93.2528
20
-191.135
11
93.1446
21
-190.591
0
LINE
8
BLACK
10
93.1446
20
-190.591
11
92.8362
21
-190.129
0
LINE
8
BLACK
10
92.8362
20
-190.129
11
92.3748
21
-189.821
0
LINE
8
BLACK
10
92.3748
20
-189.821
11
91.8304
21
-189.713
0
LINE
8
BLACK
10
91.8304
20
-189.713
11
91.0496
21
-189.713
0
LINE
8
BLACK
10
91.0496
20
-189.713
11
90.5052
21
-189.821
0
LINE
8
BLACK
10
90.5052
20
-189.821
11
90.0438
21
-190.129
0
LINE
8
BLACK
10
90.0438
20
-190.129
11
89.7354
21
-190.591
0
LINE
8
BLACK
10
89.7354
20
-190.591
11
89.6272
21
-191.135
0
LINE
8
BLACK
10
89.6272
20
-191.135
11
89.7354
21
-191.679
0
LINE
8
BLACK
10
89.7354
20
-191.679
11
90.0438
21
-192.141
0
LINE
8
BLACK
10
90.0438
20
-192.141
11
90.4392
21
-192.405
0
LINE
8
BLACK
10
90.4392
20
-192.405
11
90.0438
21
-192.669
0
LINE
8
BLACK
10
90.0438
20
-192.669
11
90.0299
21
-192.69
0
LINE
8
BLACK
10
90.0299
20
-192.69
11
89.308
21
-192.69
0
LINE
8
BLACK
10
89.308
20
-192.69
11
88.615
21
-191.997
0
LINE
8
BLACK
10
88.615
20
-191.997
11
88.615
21
-187.96
0
LINE
8
BLACK
10
88.615
20
-187.96
11
88.54
21
-187.583
0
LINE
8
BLACK
10
88.54
20
-187.583
11
88.3265
21
-187.264
0
LINE
8
BLACK
10
88.3265
20
-187.264
11
85.7865
21
-184.724
0
LINE
8
BLACK
10
85.7865
20
-184.724
11
85.4669
21
-184.51
0
LINE
8
BLACK
10
85.4669
20
-184.51
11
85.09
21
-184.435
0
LINE
8
BLACK
10
85.09
20
-184.435
11
79.1828
21
-184.435
0
LINE
8
BLACK
10
79.1828
20
-184.435
11
79.1053
21
-184.403
0
LINE
8
BLACK
10
79.1053
20
-184.403
11
79.1053
21
-174.936
0
LINE
8
BLACK
10
79.1053
20
-174.936
11
78.8569
21
-174.335
0
LINE
8
BLACK
10
78.8569
20
-174.335
11
78.3974
21
-173.875
0
LINE
8
BLACK
10
78.3974
20
-173.875
11
77.7966
21
-173.625
0
LINE
8
BLACK
10
77.7966
20
-173.625
11
77.1462
21
-173.625
0
LINE
8
BLACK
10
77.1462
20
-173.625
11
76.5451
21
-173.873
0
LINE
8
BLACK
10
76.5451
20
-173.873
11
76.0847
21
-174.333
0
LINE
8
BLACK
10
76.0847
20
-174.333
11
75.8353
21
-174.933
0
LINE
8
BLACK
10
75.8353
20
-174.933
11
75.8347
21
-175.584
0
LINE
8
BLACK
10
75.8347
20
-175.584
11
76.0831
21
-176.185
0
LINE
8
BLACK
10
76.0831
20
-176.185
11
76.5426
21
-176.645
0
LINE
8
BLACK
10
76.5426
20
-176.645
11
77.1434
21
-176.895
0
LINE
8
BLACK
10
77.1434
20
-176.895
11
77.7938
21
-176.895
0
LINE
8
BLACK
10
77.7938
20
-176.895
11
78.3949
21
-176.647
0
LINE
8
BLACK
10
78.3949
20
-176.647
11
78.8553
21
-176.187
0
LINE
8
BLACK
10
78.8553
20
-176.187
11
79.1047
21
-175.587
0
LINE
8
BLACK
10
79.1047
20
-175.587
11
79.1053
21
-174.936
0
LINE
8
BLACK
10
79.1053
20
-174.936
11
79.1053
21
-184.403
0
LINE
8
BLACK
10
79.1053
20
-184.403
11
78.9557
21
-184.341
0
LINE
8
BLACK
10
78.9557
20
-184.341
11
78.5262
21
-184.34
0
LINE
8
BLACK
10
78.5262
20
-184.34
11
78.1293
21
-184.504
0
LINE
8
BLACK
10
78.1293
20
-184.504
11
77.8254
21
-184.808
0
LINE
8
BLACK
10
77.8254
20
-184.808
11
77.6607
21
-185.204
0
LINE
8
BLACK
10
77.6607
20
-185.204
11
77.6603
21
-185.634
0
LINE
8
BLACK
10
77.6603
20
-185.634
11
77.8243
21
-186.031
0
LINE
8
BLACK
10
77.8243
20
-186.031
11
78.1277
21
-186.335
0
LINE
8
BLACK
10
78.1277
20
-186.335
11
78.5243
21
-186.499
0
LINE
8
BLACK
10
78.5243
20
-186.499
11
78.9538
21
-186.5
0
LINE
8
BLACK
10
78.9538
20
-186.5
11
79.1829
21
-186.405
0
LINE
8
BLACK
10
79.1829
20
-186.405
11
84.682
21
-186.405
0
LINE
8
BLACK
10
84.682
20
-186.405
11
86.645
21
-188.368
0
LINE
8
BLACK
10
86.645
20
-188.368
11
86.645
21
-192.405
0
LINE
8
BLACK
10
86.645
20
-192.405
11
86.72
21
-192.782
0
LINE
8
BLACK
10
86.72
20
-192.782
11
86.9335
21
-193.102
0
LINE
8
BLACK
10
86.9335
20
-193.102
11
87.5192
21
-193.687
0
LINE
8
BLACK
10
87.5192
20
-193.687
11
87.355
21
-193.933
0
LINE
8
BLACK
10
87.355
20
-193.933
11
87.28
21
-194.31
0
LINE
8
BLACK
10
87.28
20
-194.31
11
87.28
21
-199.617
0
LINE
8
BLACK
10
87.28
20
-199.617
11
85.6328
21
-201.264
0
LINE
8
BLACK
10
85.6328
20
-201.264
11
85.6328
21
-196.215
0
LINE
8
BLACK
10
85.6328
20
-196.215
11
85.5246
21
-195.671
0
LINE
8
BLACK
10
85.5246
20
-195.671
11
85.2162
21
-195.209
0
LINE
8
BLACK
10
85.2162
20
-195.209
11
84.8208
21
-194.945
0
LINE
8
BLACK
10
84.8208
20
-194.945
11
85.2162
21
-194.681
0
LINE
8
BLACK
10
85.2162
20
-194.681
11
85.5246
21
-194.219
0
LINE
8
BLACK
10
85.5246
20
-194.219
11
85.6328
21
-193.675
0
LINE
8
BLACK
10
85.6328
20
-193.675
11
85.5246
21
-193.131
0
LINE
8
BLACK
10
85.5246
20
-193.131
11
85.2162
21
-192.669
0
LINE
8
BLACK
10
85.2162
20
-192.669
11
84.8208
21
-192.405
0
LINE
8
BLACK
10
84.8208
20
-192.405
11
85.2162
21
-192.141
0
LINE
8
BLACK
10
85.2162
20
-192.141
11
85.5246
21
-191.679
0
LINE
8
BLACK
10
85.5246
20
-191.679
11
85.6328
21
-191.135
0
LINE
8
BLACK
10
85.6328
20
-191.135
11
85.5246
21
-190.591
0
LINE
8
BLACK
10
85.5246
20
-190.591
11
85.2162
21
-190.129
0
LINE
8
BLACK
10
85.2162
20
-190.129
11
84.8208
21
-189.865
0
LINE
8
BLACK
10
84.8208
20
-189.865
11
85.2162
21
-189.601
0
LINE
8
BLACK
10
85.2162
20
-189.601
11
85.5246
21
-189.139
0
LINE
8
BLACK
10
85.5246
20
-189.139
11
85.6328
21
-188.595
0
LINE
8
BLACK
10
85.6328
20
-188.595
11
85.5246
21
-188.051
0
LINE
8
BLACK
10
85.5246
20
-188.051
11
85.2162
21
-187.589
0
LINE
8
BLACK
10
85.2162
20
-187.589
11
84.7548
21
-187.281
0
LINE
8
BLACK
10
84.7548
20
-187.281
11
84.2104
21
-187.173
0
LINE
8
BLACK
10
84.2104
20
-187.173
11
83.4296
21
-187.173
0
LINE
8
BLACK
10
83.4296
20
-187.173
11
82.8852
21
-187.281
0
LINE
8
BLACK
10
82.8852
20
-187.281
11
82.4238
21
-187.589
0
LINE
8
BLACK
10
82.4238
20
-187.589
11
82.1154
21
-188.051
0
LINE
8
BLACK
10
82.1154
20
-188.051
11
82.0072
21
-188.595
0
LINE
8
BLACK
10
82.0072
20
-188.595
11
82.1154
21
-189.139
0
LINE
8
BLACK
10
82.1154
20
-189.139
11
82.4238
21
-189.601
0
LINE
8
BLACK
10
82.4238
20
-189.601
11
82.8192
21
-189.865
0
LINE
8
BLACK
10
82.8192
20
-189.865
11
82.4238
21
-190.129
0
LINE
8
BLACK
10
82.4238
20
-190.129
11
82.1154
21
-190.591
0
LINE
8
BLACK
10
82.1154
20
-190.591
11
82.0072
21
-191.135
0
LINE
8
BLACK
10
82.0072
20
-191.135
11
82.1154
21
-191.679
0
LINE
8
BLACK
10
82.1154
20
-191.679
11
82.4238
21
-192.141
0
LINE
8
BLACK
10
82.4238
20
-192.141
11
82.8192
21
-192.405
0
LINE
8
BLACK
10
82.8192
20
-192.405
11
82.4238
21
-192.669
0
LINE
8
BLACK
10
82.4238
20
-192.669
11
82.1154
21
-193.131
0
LINE
8
BLACK
10
82.1154
20
-193.131
11
82.0072
21
-193.675
0
LINE
8
BLACK
10
82.0072
20
-193.675
11
82.1154
21
-194.219
0
LINE
8
BLACK
10
82.1154
20
-194.219
11
82.4238
21
-194.681
0
LINE
8
BLACK
10
82.4238
20
-194.681
11
82.8192
21
-194.945
0
LINE
8
BLACK
10
82.8192
20
-194.945
11
82.4238
21
-195.209
0
LINE
8
BLACK
10
82.4238
20
-195.209
11
82.1154
21
-195.671
0
LINE
8
BLACK
10
82.1154
20
-195.671
11
82.0072
21
-196.215
0
LINE
8
BLACK
10
82.0072
20
-196.215
11
82.1154
21
-196.759
0
LINE
8
BLACK
10
82.1154
20
-196.759
11
82.4238
21
-197.221
0
LINE
8
BLACK
10
82.4238
20
-197.221
11
82.8852
21
-197.529
0
LINE
8
BLACK
10
82.8852
20
-197.529
11
83.4296
21
-197.637
0
LINE
8
BLACK
10
83.4296
20
-197.637
11
84.2104
21
-197.637
0
LINE
8
BLACK
10
84.2104
20
-197.637
11
84.7548
21
-197.529
0
LINE
8
BLACK
10
84.7548
20
-197.529
11
85.2162
21
-197.221
0
LINE
8
BLACK
10
85.2162
20
-197.221
11
85.5246
21
-196.759
0
LINE
8
BLACK
10
85.5246
20
-196.759
11
85.6328
21
-196.215
0
LINE
8
BLACK
10
85.6328
20
-196.215
11
85.6328
21
-201.264
0
LINE
8
BLACK
10
85.6328
20
-201.264
11
75.9299
21
-210.967
0
LINE
8
BLACK
10
75.9299
20
-210.967
11
75.9303
21
-210.496
0
LINE
8
BLACK
10
75.9303
20
-210.496
11
75.6819
21
-209.895
0
LINE
8
BLACK
10
75.6819
20
-209.895
11
75.2224
21
-209.435
0
LINE
8
BLACK
10
75.2224
20
-209.435
11
74.6216
21
-209.185
0
LINE
8
BLACK
10
74.6216
20
-209.185
11
73.9712
21
-209.185
0
LINE
8
BLACK
10
73.9712
20
-209.185
11
73.3701
21
-209.433
0
LINE
8
BLACK
10
73.3701
20
-209.433
11
72.9097
21
-209.893
0
LINE
8
BLACK
10
72.9097
20
-209.893
11
72.755
21
-210.265
0
LINE
8
BLACK
10
72.755
20
-210.265
11
72.755
21
-209.592
0
LINE
8
BLACK
10
72.755
20
-209.592
11
79.2611
21
-203.086
0
LINE
8
BLACK
10
79.2611
20
-203.086
11
79.2611
21
-203.086
0
LINE
8
BLACK
10
79.2611
20
-203.086
11
79.2611
21
-203.086
0
LINE
8
BLACK
10
79.2611
20
-203.086
11
79.6155
21
-202.556
0
LINE
8
BLACK
10
79.6155
20
-202.556
11
79.6155
21
-202.556
0
LINE
8
BLACK
10
79.6155
20
-202.556
11
79.7152
21
-202.054
0
LINE
8
BLACK
10
79.7152
20
-202.054
11
79.74
21
-201.93
0
LINE
8
BLACK
10
79.74
20
-201.93
11
79.74
21
-201.93
0
LINE
8
BLACK
10
79.74
20
-201.93
11
79.74
21
-201.93
0
LINE
8
BLACK
10
79.74
20
-201.93
11
79.74
21
-194.945
0
LINE
8
BLACK
10
79.74
20
-194.945
11
79.6291
21
-194.388
0
LINE
8
BLACK
10
79.6291
20
-194.388
11
79.6291
21
-193.93
0
LINE
8
BLACK
10
79.6291
20
-193.93
11
79.5326
21
-193.697
0
LINE
8
BLACK
10
79.5326
20
-193.697
11
79.3542
21
-193.518
0
LINE
8
BLACK
10
79.3542
20
-193.518
11
79.1209
21
-193.421
0
LINE
8
BLACK
10
79.1209
20
-193.421
11
78.8682
21
-193.421
0
LINE
8
BLACK
10
78.8682
20
-193.421
11
78.6625
21
-193.421
0
LINE
8
BLACK
10
78.6625
20
-193.421
11
78.105
21
-193.31
0
LINE
8
BLACK
10
78.105
20
-193.31
11
77.5475
21
-193.421
0
LINE
8
BLACK
10
77.5475
20
-193.421
11
77.2003
21
-193.421
0
LINE
8
BLACK
10
77.2003
20
-193.421
11
77.2003
21
-184.461
0
LINE
8
BLACK
10
77.2003
20
-184.461
11
76.9519
21
-183.86
0
LINE
8
BLACK
10
76.9519
20
-183.86
11
76.4924
21
-183.4
0
LINE
8
BLACK
10
76.4924
20
-183.4
11
75.8916
21
-183.15
0
LINE
8
BLACK
10
75.8916
20
-183.15
11
75.2412
21
-183.15
0
LINE
8
BLACK
10
75.2412
20
-183.15
11
74.6603
21
-183.39
0
LINE
8
BLACK
10
74.6603
20
-183.39
11
74.6603
21
-181.921
0
LINE
8
BLACK
10
74.6603
20
-181.921
11
74.4119
21
-181.32
0
LINE
8
BLACK
10
74.4119
20
-181.32
11
73.9524
21
-180.86
0
LINE
8
BLACK
10
73.9524
20
-180.86
11
73.3516
21
-180.61
0
LINE
8
BLACK
10
73.3516
20
-180.61
11
72.7012
21
-180.61
0
LINE
8
BLACK
10
72.7012
20
-180.61
11
72.1001
21
-180.858
0
LINE
8
BLACK
10
72.1001
20
-180.858
11
71.6397
21
-181.318
0
LINE
8
BLACK
10
71.6397
20
-181.318
11
71.3903
21
-181.918
0
LINE
8
BLACK
10
71.3903
20
-181.918
11
71.3897
21
-182.569
0
LINE
8
BLACK
10
71.3897
20
-182.569
11
71.6381
21
-183.17
0
LINE
8
BLACK
10
71.6381
20
-183.17
11
72.0976
21
-183.63
0
LINE
8
BLACK
10
72.0976
20
-183.63
11
72.6984
21
-183.88
0
LINE
8
BLACK
10
72.6984
20
-183.88
11
73.3488
21
-183.88
0
LINE
8
BLACK
10
73.3488
20
-183.88
11
73.9499
21
-183.632
0
LINE
8
BLACK
10
73.9499
20
-183.632
11
74.4103
21
-183.172
0
LINE
8
BLACK
10
74.4103
20
-183.172
11
74.6597
21
-182.572
0
LINE
8
BLACK
10
74.6597
20
-182.572
11
74.6603
21
-181.921
0
LINE
8
BLACK
10
74.6603
20
-181.921
11
74.6603
21
-183.39
0
LINE
8
BLACK
10
74.6603
20
-183.39
11
74.6401
21
-183.398
0
LINE
8
BLACK
10
74.6401
20
-183.398
11
74.1797
21
-183.858
0
LINE
8
BLACK
10
74.1797
20
-183.858
11
73.9303
21
-184.458
0
LINE
8
BLACK
10
73.9303
20
-184.458
11
73.9297
21
-185.109
0
LINE
8
BLACK
10
73.9297
20
-185.109
11
74.1781
21
-185.71
0
LINE
8
BLACK
10
74.1781
20
-185.71
11
74.6376
21
-186.17
0
LINE
8
BLACK
10
74.6376
20
-186.17
11
75.2384
21
-186.42
0
LINE
8
BLACK
10
75.2384
20
-186.42
11
75.8888
21
-186.42
0
LINE
8
BLACK
10
75.8888
20
-186.42
11
76.4899
21
-186.172
0
LINE
8
BLACK
10
76.4899
20
-186.172
11
76.9503
21
-185.712
0
LINE
8
BLACK
10
76.9503
20
-185.712
11
77.1997
21
-185.112
0
LINE
8
BLACK
10
77.1997
20
-185.112
11
77.2003
21
-184.461
0
LINE
8
BLACK
10
77.2003
20
-184.461
11
77.2003
21
-193.421
0
LINE
8
BLACK
10
77.2003
20
-193.421
11
77.0902
21
-193.421
0
LINE
8
BLACK
10
77.0902
20
-193.421
11
76.8568
21
-193.517
0
LINE
8
BLACK
10
76.8568
20
-193.517
11
76.678
21
-193.696
0
LINE
8
BLACK
10
76.678
20
-193.696
11
76.5811
21
-193.929
0
LINE
8
BLACK
10
76.5811
20
-193.929
11
76.5809
21
-194.182
0
LINE
8
BLACK
10
76.5809
20
-194.182
11
76.5809
21
-194.388
0
LINE
8
BLACK
10
76.5809
20
-194.388
11
76.47
21
-194.945
0
LINE
8
BLACK
10
76.47
20
-194.945
11
76.47
21
-201.253
0
LINE
8
BLACK
10
76.47
20
-201.253
11
74.6603
21
-203.062
0
LINE
8
BLACK
10
74.6603
20
-203.062
11
74.6603
21
-187.001
0
LINE
8
BLACK
10
74.6603
20
-187.001
11
74.4119
21
-186.4
0
LINE
8
BLACK
10
74.4119
20
-186.4
11
73.9524
21
-185.94
0
LINE
8
BLACK
10
73.9524
20
-185.94
11
73.3516
21
-185.69
0
LINE
8
BLACK
10
73.3516
20
-185.69
11
72.7012
21
-185.69
0
LINE
8
BLACK
10
72.7012
20
-185.69
11
72.1001
21
-185.938
0
LINE
8
BLACK
10
72.1001
20
-185.938
11
71.6397
21
-186.398
0
LINE
8
BLACK
10
71.6397
20
-186.398
11
71.3903
21
-186.998
0
LINE
8
BLACK
10
71.3903
20
-186.998
11
71.3897
21
-187.649
0
LINE
8
BLACK
10
71.3897
20
-187.649
11
71.6381
21
-188.25
0
LINE
8
BLACK
10
71.6381
20
-188.25
11
72.0976
21
-188.71
0
LINE
8
BLACK
10
72.0976
20
-188.71
11
72.6984
21
-188.96
0
LINE
8
BLACK
10
72.6984
20
-188.96
11
73.3488
21
-188.96
0
LINE
8
BLACK
10
73.3488
20
-188.96
11
73.9499
21
-188.712
0
LINE
8
BLACK
10
73.9499
20
-188.712
11
74.4103
21
-188.252
0
LINE
8
BLACK
10
74.4103
20
-188.252
11
74.6597
21
-187.652
0
LINE
8
BLACK
10
74.6597
20
-187.652
11
74.6603
21
-187.001
0
LINE
8
BLACK
10
74.6603
20
-187.001
11
74.6603
21
-203.062
0
LINE
8
BLACK
10
74.6603
20
-203.062
11
69.9639
21
-207.759
0
LINE
8
BLACK
10
69.9639
20
-207.759
11
69.6095
21
-208.289
0
LINE
8
BLACK
10
69.6095
20
-208.289
11
69.485
21
-208.915
0
LINE
8
BLACK
10
69.485
20
-208.915
11
69.485
21
-208.915
0
LINE
8
BLACK
10
69.485
20
-208.915
11
69.485
21
-210.143
0
LINE
8
BLACK
10
69.485
20
-210.143
11
68.188
21
-211.44
0
LINE
8
BLACK
10
68.188
20
-211.44
11
68.3097
21
-211.147
0
LINE
8
BLACK
10
68.3097
20
-211.147
11
68.3103
21
-210.496
0
LINE
8
BLACK
10
68.3103
20
-210.496
11
68.0619
21
-209.895
0
LINE
8
BLACK
10
68.0619
20
-209.895
11
67.6753
21
-209.508
0
LINE
8
BLACK
10
67.6753
20
-209.508
11
67.6753
21
-204.146
0
LINE
8
BLACK
10
67.6753
20
-204.146
11
67.6753
21
-199.066
0
LINE
8
BLACK
10
67.6753
20
-199.066
11
67.6753
21
-193.986
0
LINE
8
BLACK
10
67.6753
20
-193.986
11
67.6753
21
-188.906
0
LINE
8
BLACK
10
67.6753
20
-188.906
11
67.6753
21
-183.826
0
LINE
8
BLACK
10
67.6753
20
-183.826
11
67.6753
21
-178.746
0
LINE
8
BLACK
10
67.6753
20
-178.746
11
67.4269
21
-178.145
0
LINE
8
BLACK
10
67.4269
20
-178.145
11
66.9674
21
-177.685
0
LINE
8
BLACK
10
66.9674
20
-177.685
11
66.3666
21
-177.435
0
LINE
8
BLACK
10
66.3666
20
-177.435
11
65.7162
21
-177.435
0
LINE
8
BLACK
10
65.7162
20
-177.435
11
65.1151
21
-177.683
0
LINE
8
BLACK
10
65.1151
20
-177.683
11
64.6547
21
-178.143
0
LINE
8
BLACK
10
64.6547
20
-178.143
11
64.4053
21
-178.743
0
LINE
8
BLACK
10
64.4053
20
-178.743
11
64.4047
21
-179.394
0
LINE
8
BLACK
10
64.4047
20
-179.394
11
64.6531
21
-179.995
0
LINE
8
BLACK
10
64.6531
20
-179.995
11
65.1126
21
-180.455
0
LINE
8
BLACK
10
65.1126
20
-180.455
11
65.7134
21
-180.705
0
LINE
8
BLACK
10
65.7134
20
-180.705
11
66.3638
21
-180.705
0
LINE
8
BLACK
10
66.3638
20
-180.705
11
66.9649
21
-180.457
0
LINE
8
BLACK
10
66.9649
20
-180.457
11
67.4253
21
-179.997
0
LINE
8
BLACK
10
67.4253
20
-179.997
11
67.6747
21
-179.397
0
LINE
8
BLACK
10
67.6747
20
-179.397
11
67.6753
21
-178.746
0
LINE
8
BLACK
10
67.6753
20
-178.746
11
67.6753
21
-183.826
0
LINE
8
BLACK
10
67.6753
20
-183.826
11
67.4269
21
-183.225
0
LINE
8
BLACK
10
67.4269
20
-183.225
11
66.9674
21
-182.765
0
LINE
8
BLACK
10
66.9674
20
-182.765
11
66.3666
21
-182.515
0
LINE
8
BLACK
10
66.3666
20
-182.515
11
65.7162
21
-182.515
0
LINE
8
BLACK
10
65.7162
20
-182.515
11
65.1151
21
-182.763
0
LINE
8
BLACK
10
65.1151
20
-182.763
11
64.6547
21
-183.223
0
LINE
8
BLACK
10
64.6547
20
-183.223
11
64.4053
21
-183.823
0
LINE
8
BLACK
10
64.4053
20
-183.823
11
64.4047
21
-184.474
0
LINE
8
BLACK
10
64.4047
20
-184.474
11
64.6531
21
-185.075
0
LINE
8
BLACK
10
64.6531
20
-185.075
11
65.1126
21
-185.535
0
LINE
8
BLACK
10
65.1126
20
-185.535
11
65.7134
21
-185.785
0
LINE
8
BLACK
10
65.7134
20
-185.785
11
66.3638
21
-185.785
0
LINE
8
BLACK
10
66.3638
20
-185.785
11
66.9649
21
-185.537
0
LINE
8
BLACK
10
66.9649
20
-185.537
11
67.4253
21
-185.077
0
LINE
8
BLACK
10
67.4253
20
-185.077
11
67.6747
21
-184.477
0
LINE
8
BLACK
10
67.6747
20
-184.477
11
67.6753
21
-183.826
0
LINE
8
BLACK
10
67.6753
20
-183.826
11
67.6753
21
-188.906
0
LINE
8
BLACK
10
67.6753
20
-188.906
11
67.4269
21
-188.305
0
LINE
8
BLACK
10
67.4269
20
-188.305
11
66.9674
21
-187.845
0
LINE
8
BLACK
10
66.9674
20
-187.845
11
66.3666
21
-187.595
0
LINE
8
BLACK
10
66.3666
20
-187.595
11
65.7162
21
-187.595
0
LINE
8
BLACK
10
65.7162
20
-187.595
11
65.1151
21
-187.843
0
LINE
8
BLACK
10
65.1151
20
-187.843
11
64.6547
21
-188.303
0
LINE
8
BLACK
10
64.6547
20
-188.303
11
64.4053
21
-188.903
0
LINE
8
BLACK
10
64.4053
20
-188.903
11
64.4047
21
-189.554
0
LINE
8
BLACK
10
64.4047
20
-189.554
11
64.6531
21
-190.155
0
LINE
8
BLACK
10
64.6531
20
-190.155
11
65.1126
21
-190.615
0
LINE
8
BLACK
10
65.1126
20
-190.615
11
65.7134
21
-190.865
0
LINE
8
BLACK
10
65.7134
20
-190.865
11
66.3638
21
-190.865
0
LINE
8
BLACK
10
66.3638
20
-190.865
11
66.9649
21
-190.617
0
LINE
8
BLACK
10
66.9649
20
-190.617
11
67.4253
21
-190.157
0
LINE
8
BLACK
10
67.4253
20
-190.157
11
67.6747
21
-189.557
0
LINE
8
BLACK
10
67.6747
20
-189.557
11
67.6753
21
-188.906
0
LINE
8
BLACK
10
67.6753
20
-188.906
11
67.6753
21
-193.986
0
LINE
8
BLACK
10
67.6753
20
-193.986
11
67.4269
21
-193.385
0
LINE
8
BLACK
10
67.4269
20
-193.385
11
66.9674
21
-192.925
0
LINE
8
BLACK
10
66.9674
20
-192.925
11
66.3666
21
-192.675
0
LINE
8
BLACK
10
66.3666
20
-192.675
11
65.7162
21
-192.675
0
LINE
8
BLACK
10
65.7162
20
-192.675
11
65.1151
21
-192.923
0
LINE
8
BLACK
10
65.1151
20
-192.923
11
64.6547
21
-193.383
0
LINE
8
BLACK
10
64.6547
20
-193.383
11
64.4053
21
-193.983
0
LINE
8
BLACK
10
64.4053
20
-193.983
11
64.4047
21
-194.634
0
LINE
8
BLACK
10
64.4047
20
-194.634
11
64.6531
21
-195.235
0
LINE
8
BLACK
10
64.6531
20
-195.235
11
65.1126
21
-195.695
0
LINE
8
BLACK
10
65.1126
20
-195.695
11
65.7134
21
-195.945
0
LINE
8
BLACK
10
65.7134
20
-195.945
11
66.3638
21
-195.945
0
LINE
8
BLACK
10
66.3638
20
-195.945
11
66.9649
21
-195.697
0
LINE
8
BLACK
10
66.9649
20
-195.697
11
67.4253
21
-195.237
0
LINE
8
BLACK
10
67.4253
20
-195.237
11
67.6747
21
-194.637
0
LINE
8
BLACK
10
67.6747
20
-194.637
11
67.6753
21
-193.986
0
LINE
8
BLACK
10
67.6753
20
-193.986
11
67.6753
21
-199.066
0
LINE
8
BLACK
10
67.6753
20
-199.066
11
67.4269
21
-198.465
0
LINE
8
BLACK
10
67.4269
20
-198.465
11
66.9674
21
-198.005
0
LINE
8
BLACK
10
66.9674
20
-198.005
11
66.3666
21
-197.755
0
LINE
8
BLACK
10
66.3666
20
-197.755
11
65.7162
21
-197.755
0
LINE
8
BLACK
10
65.7162
20
-197.755
11
65.1151
21
-198.003
0
LINE
8
BLACK
10
65.1151
20
-198.003
11
64.6547
21
-198.463
0
LINE
8
BLACK
10
64.6547
20
-198.463
11
64.4053
21
-199.063
0
LINE
8
BLACK
10
64.4053
20
-199.063
11
64.4047
21
-199.714
0
LINE
8
BLACK
10
64.4047
20
-199.714
11
64.6531
21
-200.315
0
LINE
8
BLACK
10
64.6531
20
-200.315
11
65.1126
21
-200.775
0
LINE
8
BLACK
10
65.1126
20
-200.775
11
65.7134
21
-201.025
0
LINE
8
BLACK
10
65.7134
20
-201.025
11
66.3638
21
-201.025
0
LINE
8
BLACK
10
66.3638
20
-201.025
11
66.9649
21
-200.777
0
LINE
8
BLACK
10
66.9649
20
-200.777
11
67.4253
21
-200.317
0
LINE
8
BLACK
10
67.4253
20
-200.317
11
67.6747
21
-199.717
0
LINE
8
BLACK
10
67.6747
20
-199.717
11
67.6753
21
-199.066
0
LINE
8
BLACK
10
67.6753
20
-199.066
11
67.6753
21
-204.146
0
LINE
8
BLACK
10
67.6753
20
-204.146
11
67.4269
21
-203.545
0
LINE
8
BLACK
10
67.4269
20
-203.545
11
66.9674
21
-203.085
0
LINE
8
BLACK
10
66.9674
20
-203.085
11
66.3666
21
-202.835
0
LINE
8
BLACK
10
66.3666
20
-202.835
11
65.7162
21
-202.835
0
LINE
8
BLACK
10
65.7162
20
-202.835
11
65.1151
21
-203.083
0
LINE
8
BLACK
10
65.1151
20
-203.083
11
64.6547
21
-203.543
0
LINE
8
BLACK
10
64.6547
20
-203.543
11
64.4053
21
-204.143
0
LINE
8
BLACK
10
64.4053
20
-204.143
11
64.4047
21
-204.794
0
LINE
8
BLACK
10
64.4047
20
-204.794
11
64.6531
21
-205.395
0
LINE
8
BLACK
10
64.6531
20
-205.395
11
65.1126
21
-205.855
0
LINE
8
BLACK
10
65.1126
20
-205.855
11
65.7134
21
-206.105
0
LINE
8
BLACK
10
65.7134
20
-206.105
11
66.3638
21
-206.105
0
LINE
8
BLACK
10
66.3638
20
-206.105
11
66.9649
21
-205.857
0
LINE
8
BLACK
10
66.9649
20
-205.857
11
67.4253
21
-205.397
0
LINE
8
BLACK
10
67.4253
20
-205.397
11
67.6747
21
-204.797
0
LINE
8
BLACK
10
67.6747
20
-204.797
11
67.6753
21
-204.146
0
LINE
8
BLACK
10
67.6753
20
-204.146
11
67.6753
21
-209.508
0
LINE
8
BLACK
10
67.6753
20
-209.508
11
67.6024
21
-209.435
0
LINE
8
BLACK
10
67.6024
20
-209.435
11
67.0016
21
-209.185
0
LINE
8
BLACK
10
67.0016
20
-209.185
11
66.3512
21
-209.185
0
LINE
8
BLACK
10
66.3512
20
-209.185
11
65.7501
21
-209.433
0
LINE
8
BLACK
10
65.7501
20
-209.433
11
65.2897
21
-209.893
0
LINE
8
BLACK
10
65.2897
20
-209.893
11
65.1353
21
-210.265
0
LINE
8
BLACK
10
65.1353
20
-210.265
11
65.1353
21
-209.226
0
LINE
8
BLACK
10
65.1353
20
-209.226
11
64.8869
21
-208.625
0
LINE
8
BLACK
10
64.8869
20
-208.625
11
64.4274
21
-208.165
0
LINE
8
BLACK
10
64.4274
20
-208.165
11
63.8266
21
-207.915
0
LINE
8
BLACK
10
63.8266
20
-207.915
11
63.1762
21
-207.915
0
LINE
8
BLACK
10
63.1762
20
-207.915
11
62.5751
21
-208.163
0
LINE
8
BLACK
10
62.5751
20
-208.163
11
62.1147
21
-208.623
0
LINE
8
BLACK
10
62.1147
20
-208.623
11
61.8653
21
-209.223
0
LINE
8
BLACK
10
61.8653
20
-209.223
11
61.8647
21
-209.874
0
LINE
8
BLACK
10
61.8647
20
-209.874
11
62.1131
21
-210.475
0
LINE
8
BLACK
10
62.1131
20
-210.475
11
62.5726
21
-210.935
0
LINE
8
BLACK
10
62.5726
20
-210.935
11
63.1734
21
-211.185
0
LINE
8
BLACK
10
63.1734
20
-211.185
11
63.8238
21
-211.185
0
LINE
8
BLACK
10
63.8238
20
-211.185
11
64.4249
21
-210.937
0
LINE
8
BLACK
10
64.4249
20
-210.937
11
64.8853
21
-210.477
0
LINE
8
BLACK
10
64.8853
20
-210.477
11
65.1347
21
-209.877
0
LINE
8
BLACK
10
65.1347
20
-209.877
11
65.1353
21
-209.226
0
LINE
8
BLACK
10
65.1353
20
-209.226
11
65.1353
21
-210.265
0
LINE
8
BLACK
10
65.1353
20
-210.265
11
65.0403
21
-210.493
0
LINE
8
BLACK
10
65.0403
20
-210.493
11
65.0397
21
-211.144
0
LINE
8
BLACK
10
65.0397
20
-211.144
11
65.2799
21
-211.725
0
LINE
8
BLACK
10
65.2799
20
-211.725
11
56.5572
21
-211.725
0
LINE
8
BLACK
10
56.5572
20
-211.725
11
56.2453
21
-211.413
0
LINE
8
BLACK
10
56.2453
20
-211.413
11
56.2453
21
-204.146
0
LINE
8
BLACK
10
56.2453
20
-204.146
11
56.2453
21
-199.066
0
LINE
8
BLACK
10
56.2453
20
-199.066
11
56.2453
21
-193.986
0
LINE
8
BLACK
10
56.2453
20
-193.986
11
56.2453
21
-188.906
0
LINE
8
BLACK
10
56.2453
20
-188.906
11
56.2453
21
-183.826
0
LINE
8
BLACK
10
56.2453
20
-183.826
11
56.2453
21
-178.746
0
LINE
8
BLACK
10
56.2453
20
-178.746
11
55.9969
21
-178.145
0
LINE
8
BLACK
10
55.9969
20
-178.145
11
55.5374
21
-177.685
0
LINE
8
BLACK
10
55.5374
20
-177.685
11
54.9366
21
-177.435
0
LINE
8
BLACK
10
54.9366
20
-177.435
11
54.2862
21
-177.435
0
LINE
8
BLACK
10
54.2862
20
-177.435
11
53.6851
21
-177.683
0
LINE
8
BLACK
10
53.6851
20
-177.683
11
53.2247
21
-178.143
0
LINE
8
BLACK
10
53.2247
20
-178.143
11
52.9753
21
-178.743
0
LINE
8
BLACK
10
52.9753
20
-178.743
11
52.9747
21
-179.394
0
LINE
8
BLACK
10
52.9747
20
-179.394
11
53.2231
21
-179.995
0
LINE
8
BLACK
10
53.2231
20
-179.995
11
53.6826
21
-180.455
0
LINE
8
BLACK
10
53.6826
20
-180.455
11
54.2834
21
-180.705
0
LINE
8
BLACK
10
54.2834
20
-180.705
11
54.9338
21
-180.705
0
LINE
8
BLACK
10
54.9338
20
-180.705
11
55.5349
21
-180.457
0
LINE
8
BLACK
10
55.5349
20
-180.457
11
55.9953
21
-179.997
0
LINE
8
BLACK
10
55.9953
20
-179.997
11
56.2447
21
-179.397
0
LINE
8
BLACK
10
56.2447
20
-179.397
11
56.2453
21
-178.746
0
LINE
8
BLACK
10
56.2453
20
-178.746
11
56.2453
21
-183.826
0
LINE
8
BLACK
10
56.2453
20
-183.826
11
55.9969
21
-183.225
0
LINE
8
BLACK
10
55.9969
20
-183.225
11
55.5374
21
-182.765
0
LINE
8
BLACK
10
55.5374
20
-182.765
11
54.9366
21
-182.515
0
LINE
8
BLACK
10
54.9366
20
-182.515
11
54.2862
21
-182.515
0
LINE
8
BLACK
10
54.2862
20
-182.515
11
53.6851
21
-182.763
0
LINE
8
BLACK
10
53.6851
20
-182.763
11
53.2247
21
-183.223
0
LINE
8
BLACK
10
53.2247
20
-183.223
11
52.9753
21
-183.823
0
LINE
8
BLACK
10
52.9753
20
-183.823
11
52.9747
21
-184.474
0
LINE
8
BLACK
10
52.9747
20
-184.474
11
53.2231
21
-185.075
0
LINE
8
BLACK
10
53.2231
20
-185.075
11
53.6826
21
-185.535
0
LINE
8
BLACK
10
53.6826
20
-185.535
11
54.2834
21
-185.785
0
LINE
8
BLACK
10
54.2834
20
-185.785
11
54.9338
21
-185.785
0
LINE
8
BLACK
10
54.9338
20
-185.785
11
55.5349
21
-185.537
0
LINE
8
BLACK
10
55.5349
20
-185.537
11
55.9953
21
-185.077
0
LINE
8
BLACK
10
55.9953
20
-185.077
11
56.2447
21
-184.477
0
LINE
8
BLACK
10
56.2447
20
-184.477
11
56.2453
21
-183.826
0
LINE
8
BLACK
10
56.2453
20
-183.826
11
56.2453
21
-188.906
0
LINE
8
BLACK
10
56.2453
20
-188.906
11
55.9969
21
-188.305
0
LINE
8
BLACK
10
55.9969
20
-188.305
11
55.5374
21
-187.845
0
LINE
8
BLACK
10
55.5374
20
-187.845
11
54.9366
21
-187.595
0
LINE
8
BLACK
10
54.9366
20
-187.595
11
54.2862
21
-187.595
0
LINE
8
BLACK
10
54.2862
20
-187.595
11
53.6851
21
-187.843
0
LINE
8
BLACK
10
53.6851
20
-187.843
11
53.2247
21
-188.303
0
LINE
8
BLACK
10
53.2247
20
-188.303
11
52.9753
21
-188.903
0
LINE
8
BLACK
10
52.9753
20
-188.903
11
52.9747
21
-189.554
0
LINE
8
BLACK
10
52.9747
20
-189.554
11
53.2231
21
-190.155
0
LINE
8
BLACK
10
53.2231
20
-190.155
11
53.6826
21
-190.615
0
LINE
8
BLACK
10
53.6826
20
-190.615
11
54.2834
21
-190.865
0
LINE
8
BLACK
10
54.2834
20
-190.865
11
54.9338
21
-190.865
0
LINE
8
BLACK
10
54.9338
20
-190.865
11
55.5349
21
-190.617
0
LINE
8
BLACK
10
55.5349
20
-190.617
11
55.9953
21
-190.157
0
LINE
8
BLACK
10
55.9953
20
-190.157
11
56.2447
21
-189.557
0
LINE
8
BLACK
10
56.2447
20
-189.557
11
56.2453
21
-188.906
0
LINE
8
BLACK
10
56.2453
20
-188.906
11
56.2453
21
-193.986
0
LINE
8
BLACK
10
56.2453
20
-193.986
11
55.9969
21
-193.385
0
LINE
8
BLACK
10
55.9969
20
-193.385
11
55.5374
21
-192.925
0
LINE
8
BLACK
10
55.5374
20
-192.925
11
54.9366
21
-192.675
0
LINE
8
BLACK
10
54.9366
20
-192.675
11
54.2862
21
-192.675
0
LINE
8
BLACK
10
54.2862
20
-192.675
11
53.6851
21
-192.923
0
LINE
8
BLACK
10
53.6851
20
-192.923
11
53.2247
21
-193.383
0
LINE
8
BLACK
10
53.2247
20
-193.383
11
52.9753
21
-193.983
0
LINE
8
BLACK
10
52.9753
20
-193.983
11
52.9747
21
-194.634
0
LINE
8
BLACK
10
52.9747
20
-194.634
11
53.2231
21
-195.235
0
LINE
8
BLACK
10
53.2231
20
-195.235
11
53.6826
21
-195.695
0
LINE
8
BLACK
10
53.6826
20
-195.695
11
54.2834
21
-195.945
0
LINE
8
BLACK
10
54.2834
20
-195.945
11
54.9338
21
-195.945
0
LINE
8
BLACK
10
54.9338
20
-195.945
11
55.5349
21
-195.697
0
LINE
8
BLACK
10
55.5349
20
-195.697
11
55.9953
21
-195.237
0
LINE
8
BLACK
10
55.9953
20
-195.237
11
56.2447
21
-194.637
0
LINE
8
BLACK
10
56.2447
20
-194.637
11
56.2453
21
-193.986
0
LINE
8
BLACK
10
56.2453
20
-193.986
11
56.2453
21
-199.066
0
LINE
8
BLACK
10
56.2453
20
-199.066
11
55.9969
21
-198.465
0
LINE
8
BLACK
10
55.9969
20
-198.465
11
55.5374
21
-198.005
0
LINE
8
BLACK
10
55.5374
20
-198.005
11
54.9366
21
-197.755
0
LINE
8
BLACK
10
54.9366
20
-197.755
11
54.2862
21
-197.755
0
LINE
8
BLACK
10
54.2862
20
-197.755
11
53.6851
21
-198.003
0
LINE
8
BLACK
10
53.6851
20
-198.003
11
53.2247
21
-198.463
0
LINE
8
BLACK
10
53.2247
20
-198.463
11
52.9753
21
-199.063
0
LINE
8
BLACK
10
52.9753
20
-199.063
11
52.9747
21
-199.714
0
LINE
8
BLACK
10
52.9747
20
-199.714
11
53.2231
21
-200.315
0
LINE
8
BLACK
10
53.2231
20
-200.315
11
53.6826
21
-200.775
0
LINE
8
BLACK
10
53.6826
20
-200.775
11
54.2834
21
-201.025
0
LINE
8
BLACK
10
54.2834
20
-201.025
11
54.9338
21
-201.025
0
LINE
8
BLACK
10
54.9338
20
-201.025
11
55.5349
21
-200.777
0
LINE
8
BLACK
10
55.5349
20
-200.777
11
55.9953
21
-200.317
0
LINE
8
BLACK
10
55.9953
20
-200.317
11
56.2447
21
-199.717
0
LINE
8
BLACK
10
56.2447
20
-199.717
11
56.2453
21
-199.066
0
LINE
8
BLACK
10
56.2453
20
-199.066
11
56.2453
21
-204.146
0
LINE
8
BLACK
10
56.2453
20
-204.146
11
55.9969
21
-203.545
0
LINE
8
BLACK
10
55.9969
20
-203.545
11
55.5374
21
-203.085
0
LINE
8
BLACK
10
55.5374
20
-203.085
11
54.9366
21
-202.835
0
LINE
8
BLACK
10
54.9366
20
-202.835
11
54.2862
21
-202.835
0
LINE
8
BLACK
10
54.2862
20
-202.835
11
53.6851
21
-203.083
0
LINE
8
BLACK
10
53.6851
20
-203.083
11
53.2247
21
-203.543
0
LINE
8
BLACK
10
53.2247
20
-203.543
11
52.9753
21
-204.143
0
LINE
8
BLACK
10
52.9753
20
-204.143
11
52.9747
21
-204.794
0
LINE
8
BLACK
10
52.9747
20
-204.794
11
53.2231
21
-205.395
0
LINE
8
BLACK
10
53.2231
20
-205.395
11
53.6826
21
-205.855
0
LINE
8
BLACK
10
53.6826
20
-205.855
11
54.2834
21
-206.105
0
LINE
8
BLACK
10
54.2834
20
-206.105
11
54.9338
21
-206.105
0
LINE
8
BLACK
10
54.9338
20
-206.105
11
55.5349
21
-205.857
0
LINE
8
BLACK
10
55.5349
20
-205.857
11
55.9953
21
-205.397
0
LINE
8
BLACK
10
55.9953
20
-205.397
11
56.2447
21
-204.797
0
LINE
8
BLACK
10
56.2447
20
-204.797
11
56.2453
21
-204.146
0
LINE
8
BLACK
10
56.2453
20
-204.146
11
56.2453
21
-211.413
0
LINE
8
BLACK
10
56.2453
20
-211.413
11
54.975
21
-210.143
0
LINE
8
BLACK
10
54.975
20
-210.143
11
54.975
21
-209.55
0
LINE
8
BLACK
10
54.975
20
-209.55
11
54.975
21
-209.55
0
LINE
8
BLACK
10
54.975
20
-209.55
11
54.9753
21
-209.226
0
LINE
8
BLACK
10
54.9753
20
-209.226
11
54.8505
21
-208.924
0
LINE
8
BLACK
10
54.8505
20
-208.924
11
54.7269
21
-208.625
0
LINE
8
BLACK
10
54.7269
20
-208.625
11
54.4961
21
-208.394
0
LINE
8
BLACK
10
54.4961
20
-208.394
11
54.4961
21
-208.394
0
LINE
8
BLACK
10
54.4961
20
-208.394
11
54.4961
21
-208.394
0
LINE
8
BLACK
10
54.4961
20
-208.394
11
54.2674
21
-208.165
0
LINE
8
BLACK
10
54.2674
20
-208.165
11
53.9657
21
-208.039
0
LINE
8
BLACK
10
53.9657
20
-208.039
11
53.6666
21
-207.915
0
LINE
8
BLACK
10
53.6666
20
-207.915
11
53.0162
21
-207.915
0
LINE
8
BLACK
10
53.0162
20
-207.915
11
52.4151
21
-208.163
0
LINE
8
BLACK
10
52.4151
20
-208.163
11
52.1839
21
-208.394
0
LINE
8
BLACK
10
52.1839
20
-208.394
11
52.1839
21
-208.394
0
LINE
8
BLACK
10
52.1839
20
-208.394
11
52.1839
21
-208.394
0
LINE
8
BLACK
10
52.1839
20
-208.394
11
51.9547
21
-208.623
0
LINE
8
BLACK
10
51.9547
20
-208.623
11
51.7053
21
-209.223
0
LINE
8
BLACK
10
51.7053
20
-209.223
11
51.7047
21
-209.874
0
LINE
8
BLACK
10
51.7047
20
-209.874
11
51.705
21
-209.874
0
LINE
8
BLACK
10
51.705
20
-209.874
11
51.705
21
-210.82
0
LINE
8
BLACK
10
51.705
20
-210.82
11
51.705
21
-210.82
0
LINE
8
BLACK
10
51.705
20
-210.82
11
51.8295
21
-211.446
0
LINE
8
BLACK
10
51.8295
20
-211.446
11
52.1839
21
-211.976
0
LINE
8
BLACK
10
52.1839
20
-211.976
11
54.7239
21
-214.516
0
LINE
8
BLACK
10
54.7239
20
-214.516
11
54.7239
21
-214.516
0
LINE
8
BLACK
10
54.7239
20
-214.516
11
55.2543
21
-214.871
0
LINE
8
BLACK
10
55.2543
20
-214.871
11
55.2543
21
-214.871
0
LINE
8
BLACK
10
55.2543
20
-214.871
11
55.88
21
-214.995
0
LINE
8
BLACK
10
55.88
20
-214.995
11
64.2156
21
-214.995
0
LINE
8
BLACK
10
64.2156
20
-214.995
11
63.8451
21
-215.148
0
LINE
8
BLACK
10
63.8451
20
-215.148
11
63.3847
21
-215.608
0
LINE
8
BLACK
10
63.3847
20
-215.608
11
63.1353
21
-216.208
0
LINE
8
BLACK
10
63.1353
20
-216.208
11
63.1347
21
-216.859
0
LINE
8
BLACK
10
63.1347
20
-216.859
11
63.3831
21
-217.46
0
LINE
8
BLACK
10
63.3831
20
-217.46
11
63.7278
21
-217.805
0
LINE
8
BLACK
10
63.7278
20
-217.805
11
63.3847
21
-218.148
0
LINE
8
BLACK
10
63.3847
20
-218.148
11
63.1353
21
-218.748
0
LINE
8
BLACK
10
63.1353
20
-218.748
11
63.1347
21
-219.399
0
LINE
8
BLACK
10
63.1347
20
-219.399
11
63.3831
21
-220
0
LINE
8
BLACK
10
63.3831
20
-220
11
63.8426
21
-220.46
0
LINE
8
BLACK
10
63.8426
20
-220.46
11
64.4434
21
-220.71
0
LINE
8
BLACK
10
64.4434
20
-220.71
11
65.0938
21
-220.71
0
LINE
8
BLACK
10
65.0938
20
-220.71
11
65.6949
21
-220.462
0
LINE
8
BLACK
10
65.6949
20
-220.462
11
66.1553
21
-220.002
0
LINE
8
BLACK
10
66.1553
20
-220.002
11
66.4047
21
-219.402
0
LINE
8
BLACK
10
66.4047
20
-219.402
11
66.4053
21
-218.751
0
LINE
8
BLACK
10
66.4053
20
-218.751
11
66.1569
21
-218.15
0
LINE
8
BLACK
10
66.1569
20
-218.15
11
65.8122
21
-217.805
0
LINE
8
BLACK
10
65.8122
20
-217.805
11
66.0975
21
-217.52
0
LINE
8
BLACK
10
66.0975
20
-217.52
11
71.755
21
-217.52
0
LINE
8
BLACK
10
71.755
20
-217.52
11
72.1319
21
-217.445
0
LINE
8
BLACK
10
72.1319
20
-217.445
11
72.4515
21
-217.232
0
LINE
8
BLACK
10
72.4515
20
-217.232
11
88.9615
21
-200.722
0
LINE
8
BLACK
10
88.9615
20
-200.722
11
88.9615
21
-200.722
0
LINE
8
BLACK
10
88.9615
20
-200.722
11
89.1042
21
-200.508
0
LINE
8
BLACK
10
89.1042
20
-200.508
11
89.175
21
-200.402
0
LINE
8
BLACK
10
89.175
20
-200.402
11
89.175
21
-200.402
0
LINE
8
BLACK
10
89.175
20
-200.402
11
89.25
21
-200.025
0
LINE
8
BLACK
10
89.25
20
-200.025
11
89.25
21
-200.025
0
LINE
8
BLACK
10
89.25
20
-200.025
11
89.25
21
-194.718
0
LINE
8
BLACK
10
89.25
20
-194.718
11
89.308
21
-194.66
0
LINE
8
BLACK
10
89.308
20
-194.66
11
90.0299
21
-194.66
0
LINE
8
BLACK
10
90.0299
20
-194.66
11
90.0438
21
-194.681
0
LINE
8
BLACK
10
90.0438
20
-194.681
11
90.211
21
-194.792
0
LINE
8
BLACK
10
90.211
20
-194.792
11
90.1712
21
-194.792
0
LINE
8
BLACK
10
90.1712
20
-194.792
11
89.9378
21
-194.889
0
LINE
8
BLACK
10
89.9378
20
-194.889
11
89.759
21
-195.067
0
LINE
8
BLACK
10
89.759
20
-195.067
11
89.6621
21
-195.301
0
LINE
8
BLACK
10
89.6621
20
-195.301
11
89.6619
21
-195.553
0
LINE
8
BLACK
10
89.6619
20
-195.553
11
89.6619
21
-197.128
0
LINE
8
BLACK
10
89.6619
20
-197.128
11
89.7584
21
-197.362
0
LINE
8
BLACK
10
89.7584
20
-197.362
11
89.9368
21
-197.54
0
LINE
8
BLACK
10
89.9368
20
-197.54
11
90.1701
21
-197.637
0
LINE
8
BLACK
10
90.1701
20
-197.637
11
90.4228
21
-197.638
0
LINE
8
BLACK
10
90.4228
20
-197.638
11
92.7088
21
-197.638
0
LINE
8
BLACK
10
92.7088
20
-197.638
11
92.9422
21
-197.541
0
LINE
8
BLACK
10
92.9422
20
-197.541
11
93.121
21
-197.363
0
LINE
8
BLACK
10
93.121
20
-197.363
11
93.2179
21
-197.129
0
LINE
8
BLACK
10
93.2179
20
-197.129
11
93.2181
21
-196.877
0
LINE
8
BLACK
10
93.2181
20
-196.877
11
93.2181
21
-195.302
0
LINE
8
BLACK
10
93.2181
20
-195.302
11
93.1216
21
-195.068
0
LINE
8
BLACK
10
93.1216
20
-195.068
11
92.9432
21
-194.89
0
LINE
8
BLACK
10
92.9432
20
-194.89
11
92.7099
21
-194.793
0
LINE
8
BLACK
10
92.7099
20
-194.793
11
92.6688
21
-194.793
0
LINE
8
BLACK
10
92.6688
20
-194.793
11
92.8362
21
-194.681
0
LINE
8
BLACK
10
92.8362
20
-194.681
11
93.1446
21
-194.219
0
LINE
8
BLACK
10
93.1446
20
-194.219
11
93.2528
21
-193.675
0
LINE
8
BLACK
10
93.2528
20
-193.675
11
93.2528
21
-224.74
0
LINE
8
BLACK
10
93.2528
20
-224.74
11
86.3601
21
-224.74
0
LINE
8
BLACK
10
86.3601
20
-224.74
11
86.3601
21
-223.394
0
LINE
8
BLACK
10
86.3601
20
-223.394
11
86.3601
21
-214.504
0
LINE
8
BLACK
10
86.3601
20
-214.504
11
86.2636
21
-214.271
0
LINE
8
BLACK
10
86.2636
20
-214.271
11
86.0852
21
-214.092
0
LINE
8
BLACK
10
86.0852
20
-214.092
11
85.8519
21
-213.995
0
LINE
8
BLACK
10
85.8519
20
-213.995
11
85.5992
21
-213.995
0
LINE
8
BLACK
10
85.5992
20
-213.995
11
76.7092
21
-213.995
0
LINE
8
BLACK
10
76.7092
20
-213.995
11
76.4758
21
-214.091
0
LINE
8
BLACK
10
76.4758
20
-214.091
11
76.297
21
-214.27
0
LINE
8
BLACK
10
76.297
20
-214.27
11
76.2001
21
-214.503
0
LINE
8
BLACK
10
76.2001
20
-214.503
11
76.1999
21
-214.756
0
LINE
8
BLACK
10
76.1999
20
-214.756
11
76.1999
21
-223.646
0
LINE
8
BLACK
10
76.1999
20
-223.646
11
76.2964
21
-223.879
0
LINE
8
BLACK
10
76.2964
20
-223.879
11
76.4748
21
-224.058
0
LINE
8
BLACK
10
76.4748
20
-224.058
11
76.7081
21
-224.155
0
LINE
8
BLACK
10
76.7081
20
-224.155
11
76.9608
21
-224.155
0
LINE
8
BLACK
10
76.9608
20
-224.155
11
85.8508
21
-224.155
0
LINE
8
BLACK
10
85.8508
20
-224.155
11
86.0842
21
-224.059
0
LINE
8
BLACK
10
86.0842
20
-224.059
11
86.263
21
-223.88
0
LINE
8
BLACK
10
86.263
20
-223.88
11
86.3599
21
-223.647
0
LINE
8
BLACK
10
86.3599
20
-223.647
11
86.3601
21
-223.394
0
LINE
8
BLACK
10
86.3601
20
-223.394
11
86.3601
21
-224.74
0
LINE
8
BLACK
10
86.3601
20
-224.74
11
60.5791
21
-224.74
0
LINE
8
BLACK
10
60.5791
20
-224.74
11
60.5791
21
-219.203
0
LINE
8
BLACK
10
60.5791
20
-219.203
11
60.5791
21
-217.425
0
LINE
8
BLACK
10
60.5791
20
-217.425
11
60.4826
21
-217.192
0
LINE
8
BLACK
10
60.4826
20
-217.192
11
60.3042
21
-217.013
0
LINE
8
BLACK
10
60.3042
20
-217.013
11
60.0709
21
-216.916
0
LINE
8
BLACK
10
60.0709
20
-216.916
11
59.8182
21
-216.916
0
LINE
8
BLACK
10
59.8182
20
-216.916
11
58.0402
21
-216.916
0
LINE
8
BLACK
10
58.0402
20
-216.916
11
57.8068
21
-217.012
0
LINE
8
BLACK
10
57.8068
20
-217.012
11
57.628
21
-217.191
0
LINE
8
BLACK
10
57.628
20
-217.191
11
57.5311
21
-217.424
0
LINE
8
BLACK
10
57.5311
20
-217.424
11
57.5309
21
-217.677
0
LINE
8
BLACK
10
57.5309
20
-217.677
11
57.5309
21
-219.455
0
LINE
8
BLACK
10
57.5309
20
-219.455
11
57.6274
21
-219.688
0
LINE
8
BLACK
10
57.6274
20
-219.688
11
57.8058
21
-219.867
0
LINE
8
BLACK
10
57.8058
20
-219.867
11
58.0391
21
-219.964
0
LINE
8
BLACK
10
58.0391
20
-219.964
11
58.2918
21
-219.964
0
LINE
8
BLACK
10
58.2918
20
-219.964
11
60.0698
21
-219.964
0
LINE
8
BLACK
10
60.0698
20
-219.964
11
60.3032
21
-219.868
0
LINE
8
BLACK
10
60.3032
20
-219.868
11
60.482
21
-219.689
0
LINE
8
BLACK
10
60.482
20
-219.689
11
60.5789
21
-219.456
0
LINE
8
BLACK
10
60.5789
20
-219.456
11
60.5791
21
-219.203
0
LINE
8
BLACK
10
60.5791
20
-219.203
11
60.5791
21
-224.74
0
LINE
8
BLACK
10
60.5791
20
-224.74
11
50.85
21
-224.74
0
LINE
8
BLACK
10
50.85
20
-224.74
11
50.85
21
-172.135
0
LINE
8
BLACK
10
50.85
20
-172.135
11
93.93
21
-172.135
0
LINE
8
BLACK
10
93.93
20
-172.135
11
93.93
21
-224.74
  0
ENDSEC
  0
EOF
