G75*
G70*
%OFA0B0*%
%FSLAX24Y24*%
%IPPOS*%
%LPD*%
%AMOC8*
5,1,8,0,0,1.08239X$1,22.5*
%
%ADD10R,0.0800X0.0260*%
%ADD11R,0.0236X0.0866*%
%ADD12R,0.0709X0.0669*%
%ADD13R,0.0394X0.0551*%
%ADD14R,0.0480X0.0880*%
%ADD15R,0.1417X0.0866*%
%ADD16R,0.0512X0.0591*%
%ADD17R,0.0591X0.0512*%
%ADD18R,0.0551X0.0394*%
%ADD19R,0.0630X0.0709*%
%ADD20R,0.0787X0.0591*%
%ADD21R,0.0880X0.0480*%
%ADD22R,0.0866X0.1417*%
%ADD23R,0.0630X0.0512*%
%ADD24R,0.4291X0.4094*%
%ADD25R,0.0984X0.0433*%
D10*
X034570Y015996D03*
X034570Y016496D03*
X034570Y016996D03*
X034570Y017496D03*
X034570Y017996D03*
X034570Y018496D03*
X034570Y018996D03*
X034570Y019496D03*
X036990Y019496D03*
X036990Y018996D03*
X036990Y018496D03*
X036990Y017996D03*
X036990Y017496D03*
X036990Y016996D03*
X036990Y016496D03*
X036990Y015996D03*
D11*
X022280Y007520D03*
X021780Y007520D03*
X021280Y007520D03*
X020780Y007520D03*
X020780Y005473D03*
X021280Y005473D03*
X021780Y005473D03*
X022280Y005473D03*
X011780Y006270D03*
X011280Y006270D03*
X010780Y006270D03*
X010280Y006270D03*
X010280Y004223D03*
X010780Y004223D03*
X011280Y004223D03*
X011780Y004223D03*
D12*
X002723Y003246D03*
X004337Y003246D03*
X004337Y004496D03*
X002723Y004496D03*
X002723Y005746D03*
X004337Y005746D03*
X004337Y006996D03*
X002723Y006996D03*
X002723Y008246D03*
X004337Y008246D03*
X023223Y013246D03*
X024837Y013246D03*
X024837Y015746D03*
X023223Y015746D03*
X023223Y016996D03*
X024837Y016996D03*
D13*
X005154Y011063D03*
X004406Y011063D03*
X004780Y011930D03*
X018030Y002555D03*
X017656Y001688D03*
X018404Y001688D03*
X042676Y004592D03*
X043424Y004592D03*
X043050Y005458D03*
X044926Y008117D03*
X045674Y008117D03*
X045300Y008983D03*
D14*
X013815Y017216D03*
X012905Y017216D03*
X011995Y017216D03*
X003440Y010526D03*
X002530Y010526D03*
X001620Y010526D03*
D15*
X002530Y012967D03*
X012905Y014776D03*
D16*
X002904Y014246D03*
X002156Y014246D03*
X002154Y016871D03*
X001406Y016871D03*
X001406Y017996D03*
X002154Y017996D03*
X002154Y019121D03*
X001406Y019121D03*
X012781Y018871D03*
X013529Y018871D03*
X033656Y014496D03*
X034404Y014496D03*
X035656Y013996D03*
X036404Y013996D03*
X035154Y011496D03*
X034406Y011496D03*
X034406Y008746D03*
X035154Y008746D03*
X041501Y007775D03*
X042249Y007775D03*
X044751Y006300D03*
X045499Y006300D03*
X048951Y008150D03*
X049699Y008150D03*
X050901Y012150D03*
X051649Y012150D03*
X055151Y015350D03*
X055899Y015350D03*
X053299Y016250D03*
X052551Y016250D03*
X052276Y018250D03*
X053024Y018250D03*
X018279Y006496D03*
X017531Y006496D03*
X013654Y005371D03*
X012906Y005371D03*
X012906Y003871D03*
X013654Y003871D03*
X013654Y002496D03*
X012906Y002496D03*
X020781Y002996D03*
X021529Y002996D03*
X021529Y001871D03*
X020781Y001871D03*
X020781Y004246D03*
X021529Y004246D03*
X034406Y005871D03*
X035154Y005871D03*
X052651Y002250D03*
X053399Y002250D03*
X055151Y002600D03*
X055899Y002600D03*
D17*
X059425Y003226D03*
X059425Y003974D03*
X061775Y003974D03*
X063500Y003974D03*
X063500Y003226D03*
X061775Y003226D03*
X053175Y008826D03*
X051925Y009076D03*
X053175Y009574D03*
X051925Y009824D03*
X055700Y010201D03*
X055700Y010949D03*
X043175Y007224D03*
X042100Y006824D03*
X043175Y006476D03*
X042100Y006076D03*
X036655Y006872D03*
X036655Y007620D03*
X036655Y009747D03*
X036655Y010495D03*
X023280Y009495D03*
X021780Y009122D03*
X020280Y009122D03*
X020280Y009870D03*
X021780Y009870D03*
X023280Y008747D03*
X023280Y007370D03*
X023280Y006622D03*
X019530Y006995D03*
X019530Y006247D03*
X023030Y004370D03*
X023030Y003622D03*
X023030Y002370D03*
X023030Y001622D03*
X019405Y001497D03*
X019405Y002245D03*
X009280Y004247D03*
X009280Y004995D03*
X018655Y009122D03*
X018655Y009870D03*
X010780Y014372D03*
X009530Y014372D03*
X009530Y015120D03*
X010780Y015120D03*
X010780Y016372D03*
X009530Y016372D03*
X009530Y017120D03*
X010780Y017120D03*
X004280Y013870D03*
X004280Y013122D03*
X036630Y004870D03*
X036630Y004122D03*
X044200Y002724D03*
X045500Y003101D03*
X045500Y003849D03*
X044200Y001976D03*
X062550Y018601D03*
X062550Y019349D03*
X060025Y020326D03*
X060025Y021074D03*
X056875Y021074D03*
X056875Y020326D03*
D18*
X035338Y013120D03*
X034472Y012746D03*
X035338Y012372D03*
X033213Y012120D03*
X032347Y011746D03*
X033213Y011372D03*
X035338Y010370D03*
X034472Y009996D03*
X035338Y009622D03*
X033088Y009370D03*
X032222Y008996D03*
X033088Y008622D03*
X035338Y007745D03*
X034472Y007371D03*
X035338Y006997D03*
X033213Y006620D03*
X032347Y006246D03*
X033213Y005872D03*
X026222Y009997D03*
X027088Y010371D03*
X026222Y010745D03*
X013963Y007246D03*
X013097Y006872D03*
X013097Y007620D03*
X010097Y018622D03*
X010963Y018996D03*
X010097Y019370D03*
D19*
X010581Y002496D03*
X009479Y002496D03*
D20*
X017905Y003781D03*
X019405Y003781D03*
X019405Y004962D03*
X017905Y004962D03*
X023030Y010656D03*
X023030Y011837D03*
D21*
X027810Y002781D03*
X027810Y001871D03*
X027810Y000961D03*
X032185Y000961D03*
X032185Y001871D03*
X032185Y002781D03*
D22*
X030250Y001871D03*
X034625Y001871D03*
D23*
X011405Y001603D03*
X011405Y002390D03*
D24*
X048792Y018100D03*
D25*
X045721Y019100D03*
X045721Y017100D03*
M02*
