%
M48
M72
T01C0.0236
T02C0.0240
T03C0.0320
T04C0.0394
T05C0.0400
T06C0.0440
T07C0.0470
T08C0.0512
T09C0.0600
T10C0.0700
T11C0.0750
T12C0.1300
T13C0.2283
%
T01
X3530Y1496
X2780Y2371
X6155Y996
X13905Y6434
X11280Y7246
X4280Y8996
X5155Y10246
X8655Y11121
X12905Y12621
X9155Y13121
X9155Y13746
X13405Y13996
X14405Y15746
X22405Y14121
X26030Y15871
X28780Y13996
X32780Y14496
X34530Y15245
X35280Y15496
X35780Y14996
X32155Y16746
X33280Y17871
X31405Y18621
X35090Y20075
X36030Y19746
X36780Y20246
X34530Y20496
X23655Y18371
X23155Y18121
X22955Y19271
X36780Y12246
X36655Y11246
X36280Y8746
X37030Y8371
X35905Y5871
X28280Y8996
X22530Y9443
X21030Y9871
X18655Y10496
X17405Y10246
X23905Y4246
X25280Y3371
T02
X43825Y5900
X49200Y6150
X49700Y7275
X51700Y10525
T03
X50675Y10200
X50675Y9200
X50675Y8200
X50675Y7200
X50675Y6200
X50675Y5200
X50675Y4200
X50675Y3200
X47675Y3200
X47675Y4200
X47675Y5200
X47675Y6200
X47675Y7200
X47675Y8200
X47675Y9200
X47675Y10200
X46175Y11600
X46175Y12600
X49175Y12600
X50625Y13050
X49175Y13600
X50625Y14050
X49175Y14600
X50425Y15250
X51675Y15250
X52675Y15250
X53175Y13500
X54175Y13500
X49175Y11600
X46175Y13600
X46175Y14600
X44425Y15250
X44375Y16300
X51800Y17200
X52800Y17200
X52800Y19150
X51800Y19150
X54925Y20350
X55925Y20350
X57925Y20325
X58925Y20325
X60725Y17125
X61725Y17125
X62800Y17125
X63800Y17125
X63475Y15000
X62475Y15000
X62475Y13200
X63475Y13200
X63475Y11400
X62475Y11400
X57975Y11000
X56975Y11000
X62475Y9600
X63475Y9600
X63475Y7800
X62475Y7800
X62675Y5100
X63675Y5100
X61425Y5150
X60425Y5150
X59050Y5200
X58050Y5200
X54925Y5350
X53925Y5350
X53925Y3550
X54925Y3550
X54975Y1650
X53975Y1650
X56175Y1625
X57175Y1625
X46050Y1950
X46050Y900
X41050Y900
X40175Y900
X39175Y900
X39825Y1800
X41050Y1950
X39825Y6800
X40375Y7750
X39125Y7800
X42175Y11550
X43175Y11550
X43175Y12800
X42175Y12800
X40375Y12750
X39125Y12800
X24780Y11746
X24030Y11246
X24780Y10746
X21780Y11496
X17780Y11496
X23280Y14746
X44375Y21300
X53925Y7150
X54925Y7150
T04
X45325Y5300
X43825Y3800
X35030Y3746
X35030Y4746
X43825Y8800
X45325Y10300
X43825Y13800
X45325Y15300
X43825Y19300
X45325Y20800
X33155Y20496
X32155Y20496
X31155Y20496
X30155Y20496
X29155Y20496
X3405Y19496
X3405Y18496
X3405Y17496
X3405Y16496
X3405Y15496
T05
X655Y20121
X1280Y20246
X1780Y20496
X2030Y20996
X2030Y21496
X17280Y15146
X17280Y2546
X36155Y1121
X36280Y1621
X36655Y1996
X37155Y2121
X37655Y2196
X36155Y621
T06
X30815Y3494
X28731Y4872
X26565Y3494
X32981Y4872
X30815Y6250
X28731Y7628
X30815Y9006
X28731Y10384
X26565Y9006
X32981Y7628
X26565Y6250
X32981Y10384
X30815Y11762
X28731Y13140
X30815Y14518
X28731Y15896
X30815Y17274
X32981Y15896
X26565Y14518
X21030Y12746
X20030Y12746
X19030Y12746
X26565Y11762
X32981Y13140
X26565Y17274
X28731Y18652
X32981Y18652
T07
X1280Y871
X1280Y7871
X1280Y8871
X1280Y15871
T08
X42325Y15300
X45325Y17800
X42325Y20800
X45325Y12300
X42325Y10300
X45325Y7300
X42325Y5300
X45325Y2300
T09
X47325Y2150
X48825Y900
X52825Y1275
X46575Y3775
X46575Y5650
X41075Y4150
X41075Y2900
X38950Y2400
X40700Y5400
X40825Y6650
X38825Y6775
X52200Y8025
X54200Y8775
X56425Y8600
X58450Y9025
X57325Y9525
X54200Y10400
X56325Y11775
X57450Y12400
X58450Y11775
X52075Y13525
X56450Y14525
X58450Y14525
X54200Y15900
X57450Y16650
X54200Y17275
X54200Y18650
X56325Y18650
X59825Y18400
X63325Y20400
X48700Y20900
X40325Y20900
X38950Y20900
X40325Y19775
X40325Y18775
X40575Y17650
X40325Y16525
X40325Y15525
X40450Y13650
X38950Y13650
X56325Y7525
X56300Y6475
X58450Y6525
X56200Y4775
T10
X15825Y4057
X15825Y2498
X7282Y2498
X7282Y4057
X7282Y5617
X7282Y7176
X7282Y8735
X7282Y10294
X7282Y11853
X7282Y13412
X7282Y14971
X7282Y16530
X7282Y18089
X7282Y19648
X15825Y19648
X15825Y18089
X15825Y16530
X15825Y14971
X15825Y13412
X15825Y11853
X15825Y10294
X15825Y8735
X15825Y7176
X15825Y5617
T11
X24886Y1231
X37485Y3042
X51432Y1231
X62376Y1231
X64030Y19105
X51432Y20916
X35831Y20916
X24886Y20916
X4808Y20916
X4808Y1231
T12
X20030Y18646
T13
X11554Y11073
M30
