G75*
G70*
%OFA0B0*%
%FSLAX24Y24*%
%IPPOS*%
%LPD*%
%AMOC8*
5,1,8,0,0,1.08239X$1,22.5*
%
%ADD10C,0.2343*%
%ADD11C,0.0810*%
%ADD12C,0.0460*%
%ADD13R,0.0860X0.0320*%
%ADD14R,0.0296X0.0926*%
%ADD15R,0.0769X0.0729*%
%ADD16OC8,0.0690*%
%ADD17OC8,0.0540*%
%ADD18C,0.0660*%
%ADD19C,0.1360*%
%ADD20R,0.0454X0.0611*%
%ADD21R,0.0540X0.0940*%
%ADD22R,0.1477X0.0926*%
%ADD23C,0.0920*%
%ADD24R,0.0572X0.0651*%
%ADD25R,0.0651X0.0572*%
%ADD26R,0.0611X0.0454*%
%ADD27R,0.0690X0.0769*%
%ADD28R,0.0847X0.0651*%
%ADD29C,0.0614*%
%ADD30R,0.0940X0.0540*%
%ADD31R,0.0926X0.1477*%
%ADD32R,0.0690X0.0572*%
%ADD33C,0.0560*%
%ADD34C,0.0620*%
%ADD35C,0.0540*%
%ADD36R,0.4351X0.4154*%
%ADD37R,0.1044X0.0493*%
%ADD38OC8,0.0614*%
%ADD39C,0.0572*%
%ADD40C,0.0820*%
%ADD41C,0.0416*%
%ADD42C,0.0420*%
%ADD43C,0.0500*%
D10*
X011554Y011073D03*
D11*
X037485Y003042D03*
X024886Y001231D03*
X004808Y001231D03*
X051432Y001231D03*
X062376Y001231D03*
X064030Y019105D03*
X051432Y020916D03*
X035831Y020916D03*
X024886Y020916D03*
X004808Y020916D03*
D12*
X002030Y020996D03*
X001780Y020496D03*
X001280Y020246D03*
X000655Y020121D03*
X002030Y021496D03*
X036655Y001996D03*
X037155Y002121D03*
X037655Y002196D03*
X036280Y001621D03*
X036155Y001121D03*
X036155Y000621D03*
D13*
X036990Y015996D03*
X036990Y016496D03*
X036990Y016996D03*
X036990Y017496D03*
X036990Y017996D03*
X036990Y018496D03*
X036990Y018996D03*
X036990Y019496D03*
X034570Y019496D03*
X034570Y018996D03*
X034570Y018496D03*
X034570Y017996D03*
X034570Y017496D03*
X034570Y016996D03*
X034570Y016496D03*
X034570Y015996D03*
D14*
X022280Y007520D03*
X021780Y007520D03*
X021280Y007520D03*
X020780Y007520D03*
X020780Y005473D03*
X021280Y005473D03*
X021780Y005473D03*
X022280Y005473D03*
X011780Y006270D03*
X011280Y006270D03*
X010780Y006270D03*
X010280Y006270D03*
X010280Y004223D03*
X010780Y004223D03*
X011280Y004223D03*
X011780Y004223D03*
D15*
X004337Y004496D03*
X002723Y004496D03*
X002723Y005746D03*
X004337Y005746D03*
X004337Y006996D03*
X002723Y006996D03*
X002723Y008246D03*
X004337Y008246D03*
X004337Y003246D03*
X002723Y003246D03*
X023223Y013246D03*
X024837Y013246D03*
X024837Y015746D03*
X023223Y015746D03*
X023223Y016996D03*
X024837Y016996D03*
D16*
X001280Y000871D03*
X001280Y007871D03*
X001280Y008871D03*
X001280Y015871D03*
D17*
X017780Y011496D03*
X021780Y011496D03*
X024030Y011246D03*
X024780Y010746D03*
X024780Y011746D03*
X039125Y012800D03*
X040375Y012750D03*
X042175Y012800D03*
X043175Y012800D03*
X043175Y011550D03*
X042175Y011550D03*
X050625Y013050D03*
X053175Y013500D03*
X054175Y013500D03*
X050625Y014050D03*
X050425Y015250D03*
X051675Y015250D03*
X052675Y015250D03*
X052800Y017200D03*
X051800Y017200D03*
X051800Y019150D03*
X052800Y019150D03*
X054925Y020350D03*
X055925Y020350D03*
X057925Y020325D03*
X058925Y020325D03*
X060725Y017125D03*
X061725Y017125D03*
X062800Y017125D03*
X063800Y017125D03*
X063475Y015000D03*
X062475Y015000D03*
X062475Y013200D03*
X063475Y013200D03*
X063475Y011400D03*
X062475Y011400D03*
X057975Y011000D03*
X056975Y011000D03*
X062475Y009600D03*
X063475Y009600D03*
X063475Y007800D03*
X062475Y007800D03*
X062675Y005100D03*
X063675Y005100D03*
X061425Y005150D03*
X060425Y005150D03*
X059050Y005200D03*
X058050Y005200D03*
X054925Y005350D03*
X053925Y005350D03*
X053925Y003550D03*
X054925Y003550D03*
X054975Y001650D03*
X053975Y001650D03*
X056175Y001625D03*
X057175Y001625D03*
X046050Y001950D03*
X046050Y000900D03*
X041050Y000900D03*
X040175Y000900D03*
X039175Y000900D03*
X039825Y001800D03*
X041050Y001950D03*
X039825Y006800D03*
X040375Y007750D03*
X039125Y007800D03*
X053925Y007150D03*
X054925Y007150D03*
X044425Y015250D03*
X044375Y016300D03*
X044375Y021300D03*
D18*
X033281Y018652D02*
X032681Y018652D01*
X029031Y018652D02*
X028431Y018652D01*
X026865Y017274D02*
X026265Y017274D01*
X028431Y015896D02*
X029031Y015896D01*
X030515Y014518D02*
X031115Y014518D01*
X032681Y013140D02*
X033281Y013140D01*
X031115Y011762D02*
X030515Y011762D01*
X029031Y013140D02*
X028431Y013140D01*
X026865Y011762D02*
X026265Y011762D01*
X028431Y010384D02*
X029031Y010384D01*
X030515Y009006D02*
X031115Y009006D01*
X032681Y007628D02*
X033281Y007628D01*
X031115Y006250D02*
X030515Y006250D01*
X029031Y007628D02*
X028431Y007628D01*
X026865Y006250D02*
X026265Y006250D01*
X028431Y004872D02*
X029031Y004872D01*
X030515Y003494D02*
X031115Y003494D01*
X032681Y004872D02*
X033281Y004872D01*
X026865Y003494D02*
X026265Y003494D01*
X026265Y009006D02*
X026865Y009006D01*
X032681Y010384D02*
X033281Y010384D01*
X026865Y014518D02*
X026265Y014518D01*
X021030Y013046D02*
X021030Y012446D01*
X020030Y012446D02*
X020030Y013046D01*
X019030Y013046D02*
X019030Y012446D01*
X030515Y017274D02*
X031115Y017274D01*
X032681Y015896D02*
X033281Y015896D01*
D19*
X020030Y018646D03*
D20*
X004780Y011930D03*
X004406Y011063D03*
X005154Y011063D03*
X018030Y002555D03*
X017656Y001688D03*
X018404Y001688D03*
X042676Y004592D03*
X043424Y004592D03*
X043050Y005458D03*
X044926Y008117D03*
X045674Y008117D03*
X045300Y008983D03*
D21*
X013815Y017216D03*
X012905Y017216D03*
X011995Y017216D03*
X003440Y010526D03*
X002530Y010526D03*
X001620Y010526D03*
D22*
X002530Y012967D03*
X012905Y014776D03*
D23*
X015395Y014971D02*
X016255Y014971D01*
X016255Y016530D02*
X015395Y016530D01*
X015395Y018089D02*
X016255Y018089D01*
X016255Y019648D02*
X015395Y019648D01*
X007712Y019648D02*
X006852Y019648D01*
X006852Y018089D02*
X007712Y018089D01*
X007712Y016530D02*
X006852Y016530D01*
X006852Y014971D02*
X007712Y014971D01*
X007712Y013412D02*
X006852Y013412D01*
X006852Y011853D02*
X007712Y011853D01*
X007712Y010294D02*
X006852Y010294D01*
X006852Y008735D02*
X007712Y008735D01*
X007712Y007176D02*
X006852Y007176D01*
X006852Y005617D02*
X007712Y005617D01*
X007712Y004057D02*
X006852Y004057D01*
X006852Y002498D02*
X007712Y002498D01*
X015395Y002498D02*
X016255Y002498D01*
X016255Y004057D02*
X015395Y004057D01*
X015395Y005617D02*
X016255Y005617D01*
X016255Y007176D02*
X015395Y007176D01*
X015395Y008735D02*
X016255Y008735D01*
X016255Y010294D02*
X015395Y010294D01*
X015395Y011853D02*
X016255Y011853D01*
X016255Y013412D02*
X015395Y013412D01*
D24*
X002904Y014246D03*
X002156Y014246D03*
X002154Y016871D03*
X001406Y016871D03*
X001406Y017996D03*
X002154Y017996D03*
X002154Y019121D03*
X001406Y019121D03*
X012781Y018871D03*
X013529Y018871D03*
X033656Y014496D03*
X034404Y014496D03*
X035656Y013996D03*
X036404Y013996D03*
X035154Y011496D03*
X034406Y011496D03*
X034406Y008746D03*
X035154Y008746D03*
X041501Y007775D03*
X042249Y007775D03*
X044751Y006300D03*
X045499Y006300D03*
X048951Y008150D03*
X049699Y008150D03*
X050901Y012150D03*
X051649Y012150D03*
X055151Y015350D03*
X055899Y015350D03*
X053299Y016250D03*
X052551Y016250D03*
X052276Y018250D03*
X053024Y018250D03*
X018279Y006496D03*
X017531Y006496D03*
X013654Y005371D03*
X012906Y005371D03*
X012906Y003871D03*
X013654Y003871D03*
X013654Y002496D03*
X012906Y002496D03*
X020781Y002996D03*
X021529Y002996D03*
X021529Y001871D03*
X020781Y001871D03*
X020781Y004246D03*
X021529Y004246D03*
X034406Y005871D03*
X035154Y005871D03*
X052651Y002250D03*
X053399Y002250D03*
X055151Y002600D03*
X055899Y002600D03*
D25*
X059425Y003226D03*
X059425Y003974D03*
X061775Y003974D03*
X063500Y003974D03*
X063500Y003226D03*
X061775Y003226D03*
X053175Y008826D03*
X051925Y009076D03*
X053175Y009574D03*
X051925Y009824D03*
X055700Y010201D03*
X055700Y010949D03*
X043175Y007224D03*
X042100Y006824D03*
X043175Y006476D03*
X042100Y006076D03*
X036655Y006872D03*
X036655Y007620D03*
X036655Y009747D03*
X036655Y010495D03*
X023280Y009495D03*
X021780Y009122D03*
X020280Y009122D03*
X020280Y009870D03*
X021780Y009870D03*
X023280Y008747D03*
X023280Y007370D03*
X023280Y006622D03*
X019530Y006995D03*
X019530Y006247D03*
X023030Y004370D03*
X023030Y003622D03*
X023030Y002370D03*
X023030Y001622D03*
X019405Y001497D03*
X019405Y002245D03*
X009280Y004247D03*
X009280Y004995D03*
X018655Y009122D03*
X018655Y009870D03*
X010780Y014372D03*
X009530Y014372D03*
X009530Y015120D03*
X010780Y015120D03*
X010780Y016372D03*
X009530Y016372D03*
X009530Y017120D03*
X010780Y017120D03*
X004280Y013870D03*
X004280Y013122D03*
X036630Y004870D03*
X036630Y004122D03*
X044200Y002724D03*
X045500Y003101D03*
X045500Y003849D03*
X044200Y001976D03*
X062550Y018601D03*
X062550Y019349D03*
X060025Y020326D03*
X060025Y021074D03*
X056875Y021074D03*
X056875Y020326D03*
D26*
X035338Y013120D03*
X034472Y012746D03*
X035338Y012372D03*
X033213Y012120D03*
X032347Y011746D03*
X033213Y011372D03*
X035338Y010370D03*
X034472Y009996D03*
X035338Y009622D03*
X033088Y009370D03*
X032222Y008996D03*
X033088Y008622D03*
X035338Y007745D03*
X034472Y007371D03*
X035338Y006997D03*
X033213Y006620D03*
X032347Y006246D03*
X033213Y005872D03*
X026222Y009997D03*
X027088Y010371D03*
X026222Y010745D03*
X013963Y007246D03*
X013097Y006872D03*
X013097Y007620D03*
X010097Y018622D03*
X010963Y018996D03*
X010097Y019370D03*
D27*
X010581Y002496D03*
X009479Y002496D03*
D28*
X017905Y003781D03*
X019405Y003781D03*
X019405Y004962D03*
X017905Y004962D03*
X023030Y010656D03*
X023030Y011837D03*
D29*
X003682Y015496D02*
X003128Y015496D01*
X003128Y016496D02*
X003682Y016496D01*
X003682Y017496D02*
X003128Y017496D01*
X003128Y018496D02*
X003682Y018496D01*
X003682Y019496D02*
X003128Y019496D01*
X029155Y020220D02*
X029155Y020773D01*
X030155Y020773D02*
X030155Y020220D01*
X031155Y020220D02*
X031155Y020773D01*
X032155Y020773D02*
X032155Y020220D01*
X033155Y020220D02*
X033155Y020773D01*
X034753Y004746D02*
X035307Y004746D01*
X035307Y003746D02*
X034753Y003746D01*
D30*
X032185Y002781D03*
X032185Y001871D03*
X032185Y000961D03*
X027810Y000961D03*
X027810Y001871D03*
X027810Y002781D03*
D31*
X030250Y001871D03*
X034625Y001871D03*
D32*
X011405Y001603D03*
X011405Y002390D03*
D33*
X027655Y003496D03*
X029780Y003496D03*
X027655Y004871D03*
X030905Y005496D03*
X027655Y006246D03*
X029905Y007621D03*
X031905Y007621D03*
X030905Y009746D03*
X031905Y010371D03*
X029780Y010371D03*
X027655Y011746D03*
X030780Y012621D03*
X031905Y013121D03*
X029880Y013546D03*
X027655Y013371D03*
X025655Y014121D03*
X029780Y014621D03*
X029755Y015671D03*
X031905Y015621D03*
X029655Y017371D03*
X025530Y008621D03*
X033280Y003746D03*
D34*
X017280Y002546D03*
X017280Y015146D03*
D35*
X045935Y014600D02*
X046415Y014600D01*
X046415Y013600D02*
X045935Y013600D01*
X045935Y012600D02*
X046415Y012600D01*
X046415Y011600D02*
X045935Y011600D01*
X048935Y011600D02*
X049415Y011600D01*
X049415Y012600D02*
X048935Y012600D01*
X048935Y013600D02*
X049415Y013600D01*
X049415Y014600D02*
X048935Y014600D01*
X047915Y010200D02*
X047435Y010200D01*
X050435Y010200D02*
X050915Y010200D01*
X050915Y009200D02*
X050435Y009200D01*
X050435Y008200D02*
X050915Y008200D01*
X050915Y007200D02*
X050435Y007200D01*
X047915Y007200D02*
X047435Y007200D01*
X047435Y006200D02*
X047915Y006200D01*
X047915Y005200D02*
X047435Y005200D01*
X050435Y005200D02*
X050915Y005200D01*
X050915Y006200D02*
X050435Y006200D01*
X050435Y004200D02*
X050915Y004200D01*
X050915Y003200D02*
X050435Y003200D01*
X047915Y003200D02*
X047435Y003200D01*
X047435Y004200D02*
X047915Y004200D01*
X047915Y008200D02*
X047435Y008200D01*
X047435Y009200D02*
X047915Y009200D01*
D36*
X048792Y018100D03*
D37*
X045721Y019100D03*
X045721Y017100D03*
D38*
X045325Y015300D03*
X043825Y013800D03*
X045325Y010300D03*
X043825Y008800D03*
X045325Y005300D03*
X043825Y003800D03*
X043825Y019300D03*
X045325Y020800D03*
D39*
X042325Y020800D03*
X045325Y017800D03*
X042325Y015300D03*
X045325Y012300D03*
X042325Y010300D03*
X045325Y007300D03*
X042325Y005300D03*
X045325Y002300D03*
D40*
X047325Y002150D03*
X048825Y000900D03*
X052825Y001275D03*
X046575Y003775D03*
X046575Y005650D03*
X041075Y004150D03*
X041075Y002900D03*
X038950Y002400D03*
X040700Y005400D03*
X040825Y006650D03*
X038825Y006775D03*
X052200Y008025D03*
X054200Y008775D03*
X056425Y008600D03*
X058450Y009025D03*
X057325Y009525D03*
X054200Y010400D03*
X056325Y011775D03*
X057450Y012400D03*
X058450Y011775D03*
X052075Y013525D03*
X056450Y014525D03*
X058450Y014525D03*
X054200Y015900D03*
X057450Y016650D03*
X054200Y017275D03*
X054200Y018650D03*
X056325Y018650D03*
X059825Y018400D03*
X063325Y020400D03*
X048700Y020900D03*
X040325Y020900D03*
X038950Y020900D03*
X040325Y019775D03*
X040325Y018775D03*
X040575Y017650D03*
X040325Y016525D03*
X040325Y015525D03*
X040450Y013650D03*
X038950Y013650D03*
X056325Y007525D03*
X056300Y006475D03*
X058450Y006525D03*
X056200Y004775D03*
D41*
X037030Y008371D03*
X036280Y008746D03*
X036655Y011246D03*
X036780Y012246D03*
X032780Y014496D03*
X034530Y015245D03*
X035280Y015496D03*
X035780Y014996D03*
X032155Y016746D03*
X033280Y017871D03*
X031405Y018621D03*
X035090Y020075D03*
X036030Y019746D03*
X036780Y020246D03*
X034530Y020496D03*
X023655Y018371D03*
X023155Y018121D03*
X022955Y019271D03*
X026030Y015871D03*
X028780Y013996D03*
X022405Y014121D03*
X014405Y015746D03*
X013405Y013996D03*
X009155Y013746D03*
X009155Y013121D03*
X012905Y012621D03*
X008655Y011121D03*
X005155Y010246D03*
X004280Y008996D03*
X011280Y007246D03*
X013905Y006434D03*
X022530Y009443D03*
X021030Y009871D03*
X018655Y010496D03*
X017405Y010246D03*
X028280Y008996D03*
X035905Y005871D03*
X025280Y003371D03*
X023905Y004246D03*
X006155Y000996D03*
X003530Y001496D03*
X002780Y002371D03*
D42*
X043825Y005900D03*
X049200Y006150D03*
X049700Y007275D03*
X051700Y010525D03*
D43*
X023280Y014746D03*
M02*
