G75*
G70*
%OFA0B0*%
%FSLAX24Y24*%
%IPPOS*%
%LPD*%
%AMOC8*
5,1,8,0,0,1.08239X$1,22.5*
%
%ADD10C,0.2343*%
%ADD11C,0.0810*%
%ADD12C,0.0460*%
%ADD13C,0.0140*%
%ADD14OC8,0.0690*%
%ADD15OC8,0.0540*%
%ADD16C,0.0660*%
%ADD17C,0.1360*%
%ADD18C,0.0920*%
%ADD19C,0.0614*%
%ADD20R,0.0651X0.0572*%
%ADD21C,0.0620*%
%ADD22C,0.0540*%
%ADD23R,0.0454X0.0611*%
%ADD24R,0.0572X0.0651*%
%ADD25OC8,0.0614*%
%ADD26C,0.0572*%
%ADD27C,0.0820*%
%ADD28C,0.0416*%
%ADD29C,0.0420*%
%ADD30C,0.0500*%
D10*
X011554Y011073D03*
D11*
X037485Y003042D03*
X024886Y001231D03*
X004808Y001231D03*
X051432Y001231D03*
X062376Y001231D03*
X064030Y019105D03*
X051432Y020916D03*
X035831Y020916D03*
X024886Y020916D03*
X004808Y020916D03*
D12*
X002030Y020996D03*
X001780Y020496D03*
X001280Y020246D03*
X000655Y020121D03*
X002030Y021496D03*
X036655Y001996D03*
X037155Y002121D03*
X037655Y002196D03*
X036280Y001621D03*
X036155Y001121D03*
X036155Y000621D03*
D13*
X035462Y000878D02*
X035089Y000878D01*
X035089Y000785D02*
X035089Y000972D01*
X035182Y001065D01*
X035369Y001065D01*
X035462Y000972D01*
X035462Y000878D01*
X035369Y000691D02*
X035182Y000691D01*
X035089Y000785D01*
X034818Y000691D02*
X034537Y000691D01*
X034444Y000785D01*
X034444Y000972D01*
X034537Y001065D01*
X034818Y001065D01*
X034818Y001252D02*
X034818Y000691D01*
X034215Y000691D02*
X034122Y000691D01*
X034122Y000785D01*
X034215Y000785D01*
X034215Y000691D01*
X033865Y000691D02*
X033585Y000878D01*
X033865Y001065D01*
X033585Y001252D02*
X033585Y000691D01*
X033314Y000691D02*
X033033Y000691D01*
X032940Y000785D01*
X032940Y000972D01*
X033033Y001065D01*
X033314Y001065D01*
X032604Y001065D02*
X032604Y000691D01*
X032697Y000691D02*
X032510Y000691D01*
X032510Y001065D02*
X032604Y001065D01*
X032604Y001252D02*
X032604Y001345D01*
X032253Y001065D02*
X032160Y001065D01*
X031973Y000878D01*
X031973Y000691D02*
X031973Y001065D01*
X031702Y000972D02*
X031702Y000785D01*
X031609Y000691D01*
X031329Y000691D01*
X031329Y001252D01*
X031329Y001065D02*
X031609Y001065D01*
X031702Y000972D01*
X031058Y001065D02*
X030778Y001065D01*
X030684Y000972D01*
X030684Y000785D01*
X030778Y000691D01*
X031058Y000691D01*
X031058Y000598D02*
X031058Y001065D01*
X030413Y000972D02*
X030413Y000691D01*
X030413Y000972D02*
X030320Y001065D01*
X030040Y001065D01*
X030040Y000691D01*
X029797Y000691D02*
X029610Y000691D01*
X029703Y000691D02*
X029703Y001065D01*
X029610Y001065D01*
X029703Y001252D02*
X029703Y001345D01*
X028629Y001252D02*
X028629Y000691D01*
X028536Y000691D02*
X028722Y000691D01*
X028965Y000785D02*
X029059Y000691D01*
X029339Y000691D01*
X029339Y000598D02*
X029246Y000505D01*
X029152Y000505D01*
X029339Y000598D02*
X029339Y001065D01*
X028965Y001065D02*
X028965Y000785D01*
X028293Y000972D02*
X028106Y000972D01*
X028199Y001159D02*
X028199Y000691D01*
X027877Y000691D02*
X027784Y000691D01*
X027784Y000785D01*
X027877Y000785D01*
X027877Y000691D01*
X027513Y000785D02*
X027513Y001065D01*
X027513Y000785D02*
X027419Y000691D01*
X027326Y000785D01*
X027233Y000691D01*
X027139Y000785D01*
X027139Y001065D01*
X026868Y001065D02*
X026868Y000785D01*
X026775Y000691D01*
X026681Y000785D01*
X026588Y000691D01*
X026495Y000785D01*
X026495Y001065D01*
X026224Y001065D02*
X026224Y000785D01*
X026130Y000691D01*
X026037Y000785D01*
X025943Y000691D01*
X025850Y000785D01*
X025850Y001065D01*
X028199Y001159D02*
X028293Y001252D01*
X028536Y001252D02*
X028629Y001252D01*
X030871Y000505D02*
X030964Y000505D01*
X031058Y000598D01*
X058401Y001677D02*
X058401Y002144D01*
X058681Y002144D01*
X058775Y002050D01*
X058775Y001863D01*
X058681Y001770D01*
X058401Y001770D01*
X058401Y001677D02*
X058495Y001583D01*
X058588Y001583D01*
X059046Y001770D02*
X059046Y002050D01*
X059139Y002144D01*
X059419Y002144D01*
X059419Y001770D01*
X059662Y001770D02*
X059849Y001770D01*
X059756Y001770D02*
X059756Y002144D01*
X059849Y002144D01*
X059756Y002330D02*
X059756Y002424D01*
X060120Y002144D02*
X060120Y001677D01*
X060213Y001583D01*
X060307Y001583D01*
X060400Y001770D02*
X060120Y001770D01*
X060400Y001770D02*
X060494Y001863D01*
X060494Y002144D01*
X060830Y002330D02*
X060830Y001770D01*
X060923Y001770D02*
X060737Y001770D01*
X061260Y001770D02*
X061260Y002237D01*
X061166Y002330D01*
X060923Y002330D02*
X060830Y002330D01*
X061166Y002050D02*
X061353Y002050D01*
X060078Y001374D02*
X060078Y001280D01*
X060078Y001094D02*
X060078Y000720D01*
X060171Y000720D02*
X059985Y000720D01*
X059742Y000813D02*
X059648Y000720D01*
X059368Y000720D01*
X059097Y000720D02*
X059097Y001280D01*
X059368Y001094D02*
X059648Y001094D01*
X059742Y001000D01*
X059742Y000813D01*
X060078Y001094D02*
X060171Y001094D01*
X060428Y001094D02*
X060522Y001094D01*
X060708Y000907D01*
X060708Y000720D02*
X060708Y001094D01*
X060979Y001000D02*
X060979Y000813D01*
X061073Y000720D01*
X061353Y000720D01*
X061353Y001280D01*
X061353Y001094D02*
X061073Y001094D01*
X060979Y001000D01*
X059097Y000907D02*
X058817Y001094D01*
X059097Y000907D02*
X058817Y000720D01*
D14*
X001280Y000871D03*
X001280Y007871D03*
X001280Y008871D03*
X001280Y015871D03*
D15*
X017780Y011496D03*
X021780Y011496D03*
X024030Y011246D03*
X024780Y010746D03*
X024780Y011746D03*
X039125Y012800D03*
X040375Y012750D03*
X042175Y012800D03*
X043175Y012800D03*
X043175Y011550D03*
X042175Y011550D03*
X050625Y013050D03*
X053175Y013500D03*
X054175Y013500D03*
X050625Y014050D03*
X050425Y015250D03*
X051675Y015250D03*
X052675Y015250D03*
X052800Y017200D03*
X051800Y017200D03*
X051800Y019150D03*
X052800Y019150D03*
X054925Y020350D03*
X055925Y020350D03*
X057925Y020325D03*
X058925Y020325D03*
X060725Y017125D03*
X061725Y017125D03*
X062800Y017125D03*
X063800Y017125D03*
X063475Y015000D03*
X062475Y015000D03*
X062475Y013200D03*
X063475Y013200D03*
X063475Y011400D03*
X062475Y011400D03*
X057975Y011000D03*
X056975Y011000D03*
X062475Y009600D03*
X063475Y009600D03*
X063475Y007800D03*
X062475Y007800D03*
X062675Y005100D03*
X063675Y005100D03*
X061425Y005150D03*
X060425Y005150D03*
X059050Y005200D03*
X058050Y005200D03*
X054925Y005350D03*
X053925Y005350D03*
X053925Y003550D03*
X054925Y003550D03*
X054975Y001650D03*
X053975Y001650D03*
X056175Y001625D03*
X057175Y001625D03*
X046050Y001950D03*
X046050Y000900D03*
X041050Y000900D03*
X040175Y000900D03*
X039175Y000900D03*
X039825Y001800D03*
X041050Y001950D03*
X039825Y006800D03*
X040375Y007750D03*
X039125Y007800D03*
X053925Y007150D03*
X054925Y007150D03*
X044425Y015250D03*
X044375Y016300D03*
X044375Y021300D03*
D16*
X033281Y018652D02*
X032681Y018652D01*
X029031Y018652D02*
X028431Y018652D01*
X026865Y017274D02*
X026265Y017274D01*
X028431Y015896D02*
X029031Y015896D01*
X030515Y014518D02*
X031115Y014518D01*
X032681Y013140D02*
X033281Y013140D01*
X031115Y011762D02*
X030515Y011762D01*
X029031Y013140D02*
X028431Y013140D01*
X026865Y011762D02*
X026265Y011762D01*
X028431Y010384D02*
X029031Y010384D01*
X030515Y009006D02*
X031115Y009006D01*
X032681Y007628D02*
X033281Y007628D01*
X031115Y006250D02*
X030515Y006250D01*
X029031Y007628D02*
X028431Y007628D01*
X026865Y006250D02*
X026265Y006250D01*
X028431Y004872D02*
X029031Y004872D01*
X030515Y003494D02*
X031115Y003494D01*
X032681Y004872D02*
X033281Y004872D01*
X026865Y003494D02*
X026265Y003494D01*
X026265Y009006D02*
X026865Y009006D01*
X032681Y010384D02*
X033281Y010384D01*
X026865Y014518D02*
X026265Y014518D01*
X021030Y013046D02*
X021030Y012446D01*
X020030Y012446D02*
X020030Y013046D01*
X019030Y013046D02*
X019030Y012446D01*
X030515Y017274D02*
X031115Y017274D01*
X032681Y015896D02*
X033281Y015896D01*
D17*
X020030Y018646D03*
D18*
X016255Y018089D02*
X015395Y018089D01*
X015395Y019648D02*
X016255Y019648D01*
X016255Y016530D02*
X015395Y016530D01*
X015395Y014971D02*
X016255Y014971D01*
X016255Y013412D02*
X015395Y013412D01*
X015395Y011853D02*
X016255Y011853D01*
X016255Y010294D02*
X015395Y010294D01*
X015395Y008735D02*
X016255Y008735D01*
X016255Y007176D02*
X015395Y007176D01*
X015395Y005617D02*
X016255Y005617D01*
X016255Y004057D02*
X015395Y004057D01*
X015395Y002498D02*
X016255Y002498D01*
X007712Y002498D02*
X006852Y002498D01*
X006852Y004057D02*
X007712Y004057D01*
X007712Y005617D02*
X006852Y005617D01*
X006852Y007176D02*
X007712Y007176D01*
X007712Y008735D02*
X006852Y008735D01*
X006852Y010294D02*
X007712Y010294D01*
X007712Y011853D02*
X006852Y011853D01*
X006852Y013412D02*
X007712Y013412D01*
X007712Y014971D02*
X006852Y014971D01*
X006852Y016530D02*
X007712Y016530D01*
X007712Y018089D02*
X006852Y018089D01*
X006852Y019648D02*
X007712Y019648D01*
D19*
X003682Y019496D02*
X003128Y019496D01*
X003128Y018496D02*
X003682Y018496D01*
X003682Y017496D02*
X003128Y017496D01*
X003128Y016496D02*
X003682Y016496D01*
X003682Y015496D02*
X003128Y015496D01*
X029155Y020220D02*
X029155Y020773D01*
X030155Y020773D02*
X030155Y020220D01*
X031155Y020220D02*
X031155Y020773D01*
X032155Y020773D02*
X032155Y020220D01*
X033155Y020220D02*
X033155Y020773D01*
X034753Y004746D02*
X035307Y004746D01*
X035307Y003746D02*
X034753Y003746D01*
D20*
X036630Y004122D03*
X036630Y004870D03*
D21*
X017280Y002546D03*
X017280Y015146D03*
D22*
X045935Y014600D02*
X046415Y014600D01*
X046415Y013600D02*
X045935Y013600D01*
X045935Y012600D02*
X046415Y012600D01*
X046415Y011600D02*
X045935Y011600D01*
X048935Y011600D02*
X049415Y011600D01*
X049415Y012600D02*
X048935Y012600D01*
X048935Y013600D02*
X049415Y013600D01*
X049415Y014600D02*
X048935Y014600D01*
X047915Y010200D02*
X047435Y010200D01*
X050435Y010200D02*
X050915Y010200D01*
X050915Y009200D02*
X050435Y009200D01*
X050435Y008200D02*
X050915Y008200D01*
X050915Y007200D02*
X050435Y007200D01*
X047915Y007200D02*
X047435Y007200D01*
X047435Y006200D02*
X047915Y006200D01*
X047915Y005200D02*
X047435Y005200D01*
X050435Y005200D02*
X050915Y005200D01*
X050915Y006200D02*
X050435Y006200D01*
X050435Y004200D02*
X050915Y004200D01*
X050915Y003200D02*
X050435Y003200D01*
X047915Y003200D02*
X047435Y003200D01*
X047435Y004200D02*
X047915Y004200D01*
X047915Y008200D02*
X047435Y008200D01*
X047435Y009200D02*
X047915Y009200D01*
D23*
X050050Y002458D03*
X049676Y001592D03*
X050424Y001592D03*
D24*
X048999Y002175D03*
X048251Y002175D03*
D25*
X043825Y003800D03*
X045325Y005300D03*
X043825Y008800D03*
X045325Y010300D03*
X043825Y013800D03*
X045325Y015300D03*
X043825Y019300D03*
X045325Y020800D03*
D26*
X042325Y020800D03*
X045325Y017800D03*
X042325Y015300D03*
X045325Y012300D03*
X042325Y010300D03*
X045325Y007300D03*
X042325Y005300D03*
X045325Y002300D03*
D27*
X047325Y002150D03*
X048825Y000900D03*
X052825Y001275D03*
X046575Y003775D03*
X046575Y005650D03*
X041075Y004150D03*
X041075Y002900D03*
X038950Y002400D03*
X040700Y005400D03*
X040825Y006650D03*
X038825Y006775D03*
X052200Y008025D03*
X054200Y008775D03*
X056425Y008600D03*
X058450Y009025D03*
X057325Y009525D03*
X054200Y010400D03*
X056325Y011775D03*
X057450Y012400D03*
X058450Y011775D03*
X052075Y013525D03*
X056450Y014525D03*
X058450Y014525D03*
X054200Y015900D03*
X057450Y016650D03*
X054200Y017275D03*
X054200Y018650D03*
X056325Y018650D03*
X059825Y018400D03*
X063325Y020400D03*
X048700Y020900D03*
X040325Y020900D03*
X038950Y020900D03*
X040325Y019775D03*
X040325Y018775D03*
X040575Y017650D03*
X040325Y016525D03*
X040325Y015525D03*
X040450Y013650D03*
X038950Y013650D03*
X056325Y007525D03*
X056300Y006475D03*
X058450Y006525D03*
X056200Y004775D03*
D28*
X037030Y008371D03*
X036280Y008746D03*
X036655Y011246D03*
X036780Y012246D03*
X032780Y014496D03*
X034530Y015245D03*
X035280Y015496D03*
X035780Y014996D03*
X032155Y016746D03*
X033280Y017871D03*
X031405Y018621D03*
X035090Y020075D03*
X036030Y019746D03*
X036780Y020246D03*
X034530Y020496D03*
X023655Y018371D03*
X023155Y018121D03*
X022955Y019271D03*
X026030Y015871D03*
X028780Y013996D03*
X022405Y014121D03*
X014405Y015746D03*
X013405Y013996D03*
X009155Y013746D03*
X009155Y013121D03*
X012905Y012621D03*
X008655Y011121D03*
X005155Y010246D03*
X004280Y008996D03*
X011280Y007246D03*
X013905Y006434D03*
X022530Y009443D03*
X021030Y009871D03*
X018655Y010496D03*
X017405Y010246D03*
X028280Y008996D03*
X035905Y005871D03*
X025280Y003371D03*
X023905Y004246D03*
X006155Y000996D03*
X003530Y001496D03*
X002780Y002371D03*
D29*
X043825Y005900D03*
X049200Y006150D03*
X049700Y007275D03*
X051700Y010525D03*
D30*
X023280Y014746D03*
M02*
