G75*
G70*
%OFA0B0*%
%FSLAX24Y24*%
%IPPOS*%
%LPD*%
%AMOC8*
5,1,8,0,0,1.08239X$1,22.5*
%
%ADD10C,0.0110*%
%ADD11OC8,0.0630*%
%ADD12OC8,0.0480*%
%ADD13C,0.0600*%
%ADD14C,0.0860*%
%ADD15C,0.0554*%
%ADD16R,0.0591X0.0512*%
%ADD17C,0.0560*%
%ADD18C,0.0480*%
%ADD19R,0.0394X0.0551*%
%ADD20R,0.0512X0.0591*%
%ADD21OC8,0.0554*%
%ADD22C,0.0760*%
%ADD23C,0.0320*%
%ADD24C,0.0356*%
%ADD25C,0.0240*%
%ADD26C,0.0160*%
%ADD27C,0.0500*%
%ADD28C,0.0180*%
%ADD29C,0.0400*%
%ADD30C,0.0200*%
%ADD31C,0.0360*%
%ADD32C,0.0280*%
%ADD33C,0.0440*%
D10*
X030333Y004600D02*
X030432Y004501D01*
X030333Y004600D02*
X030333Y004994D01*
X030235Y004895D02*
X030432Y004895D01*
X030665Y004797D02*
X030665Y004600D01*
X030763Y004501D01*
X030960Y004501D01*
X031058Y004600D01*
X031058Y004797D01*
X030960Y004895D01*
X030763Y004895D01*
X030665Y004797D01*
X031309Y004895D02*
X031605Y004895D01*
X031703Y004797D01*
X031703Y004600D01*
X031605Y004501D01*
X031309Y004501D01*
X031309Y004305D02*
X031309Y004895D01*
D11*
X001280Y000871D03*
X001280Y007871D03*
X001280Y008871D03*
X001280Y015871D03*
D12*
X017780Y011496D03*
X021780Y011496D03*
X024030Y011246D03*
X024780Y010746D03*
X024780Y011746D03*
X039125Y012800D03*
X040375Y012750D03*
X042175Y012800D03*
X043175Y012800D03*
X043175Y011550D03*
X042175Y011550D03*
X050625Y013050D03*
X053175Y013500D03*
X054175Y013500D03*
X050625Y014050D03*
X050425Y015250D03*
X051675Y015250D03*
X052675Y015250D03*
X052800Y017200D03*
X051800Y017200D03*
X051800Y019150D03*
X052800Y019150D03*
X054925Y020350D03*
X055925Y020350D03*
X057925Y020325D03*
X058925Y020325D03*
X060725Y017125D03*
X061725Y017125D03*
X062800Y017125D03*
X063800Y017125D03*
X063475Y015000D03*
X062475Y015000D03*
X062475Y013200D03*
X063475Y013200D03*
X063475Y011400D03*
X062475Y011400D03*
X057975Y011000D03*
X056975Y011000D03*
X062475Y009600D03*
X063475Y009600D03*
X063475Y007800D03*
X062475Y007800D03*
X062675Y005100D03*
X063675Y005100D03*
X061425Y005150D03*
X060425Y005150D03*
X059050Y005200D03*
X058050Y005200D03*
X054925Y005350D03*
X053925Y005350D03*
X053925Y003550D03*
X054925Y003550D03*
X054975Y001650D03*
X053975Y001650D03*
X056175Y001625D03*
X057175Y001625D03*
X046050Y001950D03*
X046050Y000900D03*
X041050Y000900D03*
X040175Y000900D03*
X039175Y000900D03*
X039825Y001800D03*
X041050Y001950D03*
X039825Y006800D03*
X040375Y007750D03*
X039125Y007800D03*
X053925Y007150D03*
X054925Y007150D03*
X044425Y015250D03*
X044375Y016300D03*
X044375Y021300D03*
D13*
X033281Y018652D02*
X032681Y018652D01*
X029031Y018652D02*
X028431Y018652D01*
X026865Y017274D02*
X026265Y017274D01*
X028431Y015896D02*
X029031Y015896D01*
X030515Y014518D02*
X031115Y014518D01*
X032681Y013140D02*
X033281Y013140D01*
X031115Y011762D02*
X030515Y011762D01*
X029031Y013140D02*
X028431Y013140D01*
X026865Y011762D02*
X026265Y011762D01*
X028431Y010384D02*
X029031Y010384D01*
X030515Y009006D02*
X031115Y009006D01*
X032681Y007628D02*
X033281Y007628D01*
X031115Y006250D02*
X030515Y006250D01*
X029031Y007628D02*
X028431Y007628D01*
X026865Y006250D02*
X026265Y006250D01*
X028431Y004872D02*
X029031Y004872D01*
X030515Y003494D02*
X031115Y003494D01*
X032681Y004872D02*
X033281Y004872D01*
X026865Y003494D02*
X026265Y003494D01*
X026265Y009006D02*
X026865Y009006D01*
X032681Y010384D02*
X033281Y010384D01*
X026865Y014518D02*
X026265Y014518D01*
X021030Y013046D02*
X021030Y012446D01*
X020030Y012446D02*
X020030Y013046D01*
X019030Y013046D02*
X019030Y012446D01*
X030515Y017274D02*
X031115Y017274D01*
X032681Y015896D02*
X033281Y015896D01*
D14*
X016255Y016530D02*
X015395Y016530D01*
X015395Y018089D02*
X016255Y018089D01*
X016255Y019648D02*
X015395Y019648D01*
X007712Y019648D02*
X006852Y019648D01*
X006852Y018089D02*
X007712Y018089D01*
X007712Y016530D02*
X006852Y016530D01*
X006852Y014971D02*
X007712Y014971D01*
X007712Y013412D02*
X006852Y013412D01*
X006852Y011853D02*
X007712Y011853D01*
X007712Y010294D02*
X006852Y010294D01*
X006852Y008735D02*
X007712Y008735D01*
X007712Y007176D02*
X006852Y007176D01*
X006852Y005617D02*
X007712Y005617D01*
X007712Y004057D02*
X006852Y004057D01*
X006852Y002498D02*
X007712Y002498D01*
X015395Y002498D02*
X016255Y002498D01*
X016255Y004057D02*
X015395Y004057D01*
X015395Y005617D02*
X016255Y005617D01*
X016255Y007176D02*
X015395Y007176D01*
X015395Y008735D02*
X016255Y008735D01*
X016255Y010294D02*
X015395Y010294D01*
X015395Y011853D02*
X016255Y011853D01*
X016255Y013412D02*
X015395Y013412D01*
X015395Y014971D02*
X016255Y014971D01*
D15*
X003682Y015496D02*
X003128Y015496D01*
X003128Y016496D02*
X003682Y016496D01*
X003682Y017496D02*
X003128Y017496D01*
X003128Y018496D02*
X003682Y018496D01*
X003682Y019496D02*
X003128Y019496D01*
X029155Y020220D02*
X029155Y020773D01*
X030155Y020773D02*
X030155Y020220D01*
X031155Y020220D02*
X031155Y020773D01*
X032155Y020773D02*
X032155Y020220D01*
X033155Y020220D02*
X033155Y020773D01*
X034753Y004746D02*
X035307Y004746D01*
X035307Y003746D02*
X034753Y003746D01*
D16*
X036630Y004122D03*
X036630Y004870D03*
D17*
X017280Y002546D03*
X017280Y015146D03*
D18*
X045935Y014600D02*
X046415Y014600D01*
X046415Y013600D02*
X045935Y013600D01*
X045935Y012600D02*
X046415Y012600D01*
X046415Y011600D02*
X045935Y011600D01*
X048935Y011600D02*
X049415Y011600D01*
X049415Y012600D02*
X048935Y012600D01*
X048935Y013600D02*
X049415Y013600D01*
X049415Y014600D02*
X048935Y014600D01*
X047915Y010200D02*
X047435Y010200D01*
X050435Y010200D02*
X050915Y010200D01*
X050915Y009200D02*
X050435Y009200D01*
X050435Y008200D02*
X050915Y008200D01*
X050915Y007200D02*
X050435Y007200D01*
X047915Y007200D02*
X047435Y007200D01*
X047435Y006200D02*
X047915Y006200D01*
X047915Y005200D02*
X047435Y005200D01*
X050435Y005200D02*
X050915Y005200D01*
X050915Y006200D02*
X050435Y006200D01*
X050435Y004200D02*
X050915Y004200D01*
X050915Y003200D02*
X050435Y003200D01*
X047915Y003200D02*
X047435Y003200D01*
X047435Y004200D02*
X047915Y004200D01*
X047915Y008200D02*
X047435Y008200D01*
X047435Y009200D02*
X047915Y009200D01*
D19*
X050050Y002458D03*
X049676Y001592D03*
X050424Y001592D03*
D20*
X048999Y002175D03*
X048251Y002175D03*
D21*
X043825Y003800D03*
X045325Y005300D03*
X043825Y008800D03*
X045325Y010300D03*
X043825Y013800D03*
X045325Y015300D03*
X043825Y019300D03*
X045325Y020800D03*
D22*
X048700Y020900D03*
X054200Y018650D03*
X056325Y018650D03*
X059825Y018400D03*
X057450Y016650D03*
X054200Y017275D03*
X054200Y015900D03*
X056450Y014525D03*
X058450Y014525D03*
X057450Y012400D03*
X058450Y011775D03*
X056325Y011775D03*
X054200Y010400D03*
X057325Y009525D03*
X058450Y009025D03*
X056425Y008600D03*
X054200Y008775D03*
X052200Y008025D03*
X056325Y007525D03*
X056300Y006475D03*
X058450Y006525D03*
X056200Y004775D03*
X047325Y002150D03*
X048825Y000900D03*
X052825Y001275D03*
X046575Y003775D03*
X046575Y005650D03*
X041075Y004150D03*
X041075Y002900D03*
X038950Y002400D03*
X040700Y005400D03*
X040825Y006650D03*
X038825Y006775D03*
X038950Y013650D03*
X040450Y013650D03*
X040325Y015525D03*
X040325Y016525D03*
X040575Y017650D03*
X040325Y018775D03*
X040325Y019775D03*
X040325Y020900D03*
X038950Y020900D03*
X052075Y013525D03*
X063325Y020400D03*
D23*
X028837Y013246D02*
X027655Y013246D01*
X027780Y012246D02*
X026565Y013461D01*
X026565Y014518D01*
X023280Y014746D02*
X018780Y014746D01*
X016945Y013412D01*
X015825Y013412D01*
X013905Y013371D02*
X013405Y013996D01*
X012905Y012621D02*
X011905Y012996D01*
X011030Y012996D01*
X010030Y012371D01*
X009530Y011621D01*
X009405Y010871D01*
X008905Y010246D01*
X007329Y010246D01*
X014155Y005621D02*
X014655Y006391D01*
X014155Y005621D02*
X007287Y005621D01*
X007282Y005617D01*
X007282Y004057D02*
X008719Y004057D01*
X012135Y004841D01*
X010780Y003276D02*
X008780Y002496D01*
X007284Y002496D01*
X007282Y002498D01*
X006521Y001621D02*
X006490Y001623D01*
X006459Y001628D01*
X006429Y001637D01*
X006400Y001649D01*
X006372Y001664D01*
X006346Y001682D01*
X006323Y001703D01*
X005639Y002387D01*
X005377Y002516D02*
X004530Y002621D01*
X003262Y002621D01*
X003066Y002562D02*
X002780Y002371D01*
X003066Y002563D02*
X003095Y002580D01*
X003127Y002595D01*
X003159Y002607D01*
X003193Y002615D01*
X003227Y002620D01*
X003262Y002622D01*
X005377Y002516D02*
X005414Y002509D01*
X005450Y002500D01*
X005485Y002488D01*
X005519Y002473D01*
X005552Y002455D01*
X005583Y002435D01*
X005612Y002412D01*
X005640Y002387D01*
X006521Y001621D02*
X019280Y001621D01*
X022655Y003371D01*
X025280Y003371D01*
X023156Y004872D02*
X028731Y004872D01*
X026565Y006250D02*
X026561Y006246D01*
X023155Y006246D01*
X018510Y004841D01*
X019030Y003276D02*
X023156Y004872D01*
X022780Y007121D02*
X017530Y006391D01*
X022780Y007121D02*
X027405Y007121D01*
X027912Y007628D01*
X028731Y007628D01*
X028280Y008996D02*
X027780Y009621D01*
X027530Y009871D01*
X027530Y010871D01*
X027780Y011121D01*
X027780Y012246D01*
X026030Y015871D02*
X025780Y015871D01*
X024497Y016371D01*
X017280Y016371D01*
X015825Y016530D01*
X017437Y018089D02*
X018530Y016996D01*
X025530Y016996D01*
X023655Y018371D02*
X023155Y018121D01*
X022955Y019271D01*
X023655Y018371D01*
X017437Y018089D02*
X015825Y018089D01*
D24*
X014405Y015746D03*
X013405Y013996D03*
X009155Y013746D03*
X009155Y013121D03*
X012905Y012621D03*
X008655Y011121D03*
X005155Y010246D03*
X004280Y008996D03*
X011280Y007246D03*
X013905Y006434D03*
X022530Y009443D03*
X021030Y009871D03*
X018655Y010496D03*
X017405Y010246D03*
X022405Y014121D03*
X026030Y015871D03*
X028780Y013996D03*
X032780Y014496D03*
X034530Y015245D03*
X035280Y015496D03*
X035780Y014996D03*
X032155Y016746D03*
X033280Y017871D03*
X031405Y018621D03*
X035090Y020075D03*
X036030Y019746D03*
X036780Y020246D03*
X034530Y020496D03*
X023655Y018371D03*
X023155Y018121D03*
X022955Y019271D03*
X036780Y012246D03*
X036655Y011246D03*
X036280Y008746D03*
X037030Y008371D03*
X035905Y005871D03*
X028280Y008996D03*
X023905Y004246D03*
X025280Y003371D03*
X006155Y000996D03*
X003530Y001496D03*
X002780Y002371D03*
D25*
X015825Y002498D02*
X017232Y002498D01*
X017280Y002546D01*
X023905Y004246D02*
X025782Y004244D01*
X026565Y003494D01*
X034655Y006371D02*
X034655Y013496D01*
X035280Y015496D01*
X036030Y015746D02*
X036280Y015246D01*
X036280Y014496D01*
X035655Y012621D01*
X035655Y009871D01*
X036280Y009371D01*
X036780Y009371D01*
X037030Y008996D01*
X037030Y008371D01*
X036280Y008746D02*
X035780Y008746D01*
X035155Y009371D01*
X035155Y012996D01*
X035780Y014996D01*
X034530Y015245D02*
X034655Y016371D01*
X034655Y018621D01*
X035090Y020075D01*
X036030Y019746D02*
X036030Y015746D01*
X034030Y017171D02*
X033580Y016721D01*
X032180Y016721D01*
X032155Y016746D01*
X031280Y016371D01*
X030405Y016371D01*
X027530Y018371D01*
X027405Y018871D02*
X028030Y019246D01*
X027405Y019621D02*
X027030Y019371D01*
X030030Y019621D02*
X030030Y020496D01*
X030155Y020496D01*
X031155Y020496D02*
X031155Y019621D01*
X031280Y019496D01*
X032155Y019871D02*
X032405Y019621D01*
X033655Y019621D01*
X034030Y019246D01*
X034030Y017171D01*
X029030Y014246D02*
X027752Y015524D01*
X026565Y017274D01*
X025905Y016496D02*
X025530Y016996D01*
X025905Y016496D02*
X026405Y016496D01*
X026655Y016246D01*
X026655Y015746D01*
X027655Y014871D01*
X027655Y013246D01*
X028731Y013140D02*
X028837Y013246D01*
X029780Y013496D02*
X029780Y009996D01*
X029280Y009496D01*
X029280Y008871D01*
X028780Y008371D01*
X027655Y008371D01*
X027280Y007896D01*
X019280Y007896D01*
X017155Y007121D01*
X015879Y007121D01*
X015825Y007176D01*
X016843Y007934D02*
X018540Y008406D01*
X024655Y008396D01*
X025530Y009006D01*
X026565Y009006D01*
X024405Y008896D02*
X026530Y011246D01*
X026530Y011727D01*
X026565Y011762D01*
X024780Y011746D02*
X024780Y014746D01*
X023905Y015746D01*
X016905Y015746D01*
X017280Y015146D02*
X016904Y014971D01*
X015825Y014971D01*
X017030Y012621D02*
X018630Y013746D01*
X020855Y013746D01*
X021080Y013621D01*
X021030Y012746D01*
X019215Y011121D02*
X018294Y012121D01*
X017530Y012121D01*
X017155Y011621D01*
X017155Y011246D01*
X016702Y010294D01*
X015825Y010294D01*
X016780Y009496D02*
X018405Y008896D01*
X024405Y008896D01*
X022405Y011246D02*
X021905Y010746D01*
X020780Y010746D01*
X020405Y011121D01*
X019215Y011121D01*
X022405Y011246D02*
X022405Y014121D01*
X028780Y013996D02*
X029030Y014246D01*
X029780Y013496D01*
X036155Y012496D02*
X036155Y011621D01*
X036655Y011246D01*
X036155Y012496D02*
X036780Y014121D01*
X036780Y020246D01*
X040325Y019775D02*
X040325Y020900D01*
X040325Y019775D02*
X040325Y018775D01*
X041575Y018775D01*
X041950Y018400D01*
X044375Y020825D01*
X044375Y021300D01*
X041950Y018400D02*
X043325Y017025D01*
X043325Y015150D01*
X043875Y014600D01*
X046175Y014600D01*
X046400Y014600D01*
X047450Y014088D01*
X048525Y013600D02*
X047075Y012650D01*
X047100Y012650D01*
X046175Y012600D01*
X049100Y011525D02*
X049175Y011600D01*
X049650Y011600D01*
X050075Y012025D01*
X050075Y012775D01*
X049950Y012900D01*
X049950Y013375D01*
X050625Y014050D01*
X050575Y014025D02*
X050975Y014650D01*
X051325Y015250D01*
X051675Y015250D01*
X050575Y014025D02*
X050075Y014088D01*
X049175Y013600D02*
X048525Y013600D01*
X049175Y011600D02*
X049150Y010975D01*
X045950Y010900D01*
X044950Y010900D01*
X044575Y010525D01*
X044575Y007900D01*
X043825Y005900D01*
X045075Y005025D02*
X045325Y005275D01*
X046075Y006775D01*
X046075Y007900D01*
X045325Y008650D01*
X045325Y010275D01*
X045450Y010150D01*
X047700Y010150D01*
X051700Y010525D02*
X052950Y009900D01*
X053575Y009900D01*
X054200Y009275D01*
X054200Y008775D01*
X055575Y009025D02*
X054200Y010400D01*
X055575Y009025D02*
X055575Y005775D01*
X055150Y005350D01*
X054925Y005350D01*
X056575Y005900D02*
X056575Y006200D01*
X056300Y006475D01*
X056575Y005900D02*
X057450Y004650D01*
X057450Y003650D01*
X057350Y003550D01*
X054925Y003550D01*
X049200Y006150D02*
X049200Y011525D01*
X049100Y011525D01*
X042325Y013025D02*
X042075Y012775D01*
X042325Y013025D02*
X042325Y014275D01*
X041450Y015150D01*
X041450Y015525D01*
X041325Y015650D01*
X040325Y015650D01*
X032155Y019871D02*
X032155Y020496D01*
X013655Y020371D02*
X008280Y014996D01*
X007308Y014996D01*
X007282Y014971D01*
X007282Y016530D02*
X007374Y016621D01*
X008655Y016621D01*
X012905Y020871D01*
X011780Y021371D02*
X008530Y018121D01*
X007314Y018121D01*
X007282Y018089D01*
X013905Y013371D02*
X014655Y012621D01*
X009155Y012496D02*
X009155Y013121D01*
X009155Y012496D02*
X008655Y011371D01*
X008655Y011121D01*
X013643Y008735D02*
X014405Y009496D01*
X013643Y008735D02*
X007282Y008735D01*
X008780Y007121D02*
X010655Y007871D01*
X014405Y007871D01*
X008780Y007121D02*
X007336Y007121D01*
X007282Y007176D01*
X034655Y006371D02*
X035280Y005871D01*
X035905Y005871D01*
X035905Y004871D02*
X035030Y004746D01*
X035905Y004871D02*
X036530Y004871D01*
X036630Y004122D02*
X036530Y003746D01*
X035030Y003746D01*
X044700Y004525D02*
X044700Y001900D01*
X045575Y000900D01*
X045950Y000900D01*
X048825Y000900D02*
X050325Y000900D01*
X045075Y005025D02*
X044700Y004525D01*
X058450Y009025D02*
X058450Y009775D01*
X059200Y010400D01*
X059200Y012900D01*
X057575Y014150D01*
X057575Y014900D01*
X057950Y015275D01*
X060700Y017150D01*
D26*
X034530Y020496D02*
X033155Y020496D01*
X031905Y018871D02*
X031280Y019496D01*
X031405Y018621D02*
X030030Y019621D01*
X027405Y019621D01*
X027030Y019371D02*
X025030Y019371D01*
X022405Y021371D01*
X011780Y021371D01*
X012905Y020871D02*
X022405Y020871D01*
X025155Y018871D01*
X027405Y018871D01*
X028030Y019246D02*
X029405Y019246D01*
X029905Y018996D01*
X030280Y017996D01*
X031530Y017996D01*
X032118Y017849D01*
X031905Y018063D01*
X031905Y018871D01*
X032118Y017849D02*
X032530Y017746D01*
X033155Y017746D01*
X033280Y017871D01*
X027530Y018371D02*
X025155Y018371D01*
X022530Y020371D01*
X013655Y020371D01*
X013280Y018871D02*
X017655Y018871D01*
X019155Y017496D01*
X025280Y017496D01*
X025780Y017996D01*
X027155Y017996D01*
X030530Y015621D01*
X032780Y014496D01*
X023905Y014496D02*
X023905Y014996D01*
X023655Y015246D01*
X018530Y015246D01*
X016780Y014184D01*
X014530Y014184D02*
X013905Y014621D01*
X011155Y014621D01*
X009155Y013746D01*
X008655Y014246D02*
X013280Y018871D01*
X023155Y013621D02*
X023905Y014496D01*
X023155Y013621D02*
X023155Y011246D01*
X022530Y010621D01*
X022530Y009443D01*
X021030Y009871D02*
X017780Y009871D01*
X017405Y010246D01*
X018655Y010496D02*
X017780Y011496D01*
X016780Y009496D02*
X014405Y009496D01*
X014468Y007934D02*
X014405Y007871D01*
X014468Y007934D02*
X016843Y007934D01*
X013905Y006434D02*
X012405Y007246D01*
X011280Y007246D01*
X007329Y010246D02*
X007282Y010294D01*
X005155Y010246D02*
X005155Y011996D01*
X005780Y012621D01*
X008530Y012621D01*
X008655Y012746D01*
X008655Y014246D01*
X047675Y003200D02*
X047675Y002650D01*
X048150Y002175D01*
X048251Y002175D01*
X048999Y002175D02*
X049676Y001498D01*
X049676Y001592D01*
X050424Y001592D02*
X050450Y001441D01*
X050450Y001025D01*
X050325Y000900D01*
X050133Y002333D02*
X050700Y002900D01*
X050700Y003175D01*
X050675Y003200D01*
X050050Y002458D02*
X050133Y002333D01*
D27*
X023655Y018371D02*
X023530Y018371D01*
X023280Y018621D01*
D28*
X016905Y015746D02*
X014405Y015746D01*
X014530Y014184D02*
X016780Y014184D01*
X017030Y012621D02*
X014655Y012621D01*
D29*
X007282Y013412D02*
X007117Y013246D01*
X005280Y013246D01*
X004280Y012246D01*
X004280Y008996D01*
X003155Y012496D02*
X003155Y004776D01*
X003153Y004698D01*
X003147Y004621D01*
X003138Y004544D01*
X003125Y004468D01*
X003108Y004392D01*
X003087Y004317D01*
X003063Y004243D01*
X003035Y004171D01*
X003003Y004100D01*
X002968Y004031D01*
X002930Y003963D01*
X002889Y003898D01*
X002844Y003834D01*
X002796Y003773D01*
X002745Y003714D01*
X002692Y003658D01*
X002289Y003255D01*
X002030Y002630D02*
X002030Y002225D01*
X002032Y002173D01*
X002037Y002121D01*
X002047Y002070D01*
X002060Y002020D01*
X002076Y001970D01*
X002096Y001922D01*
X002119Y001876D01*
X002146Y001831D01*
X002175Y001788D01*
X002208Y001748D01*
X002244Y001710D01*
X002282Y001674D01*
X002322Y001641D01*
X002365Y001612D01*
X002410Y001585D01*
X002456Y001562D01*
X002504Y001542D01*
X002554Y001526D01*
X002604Y001513D01*
X002655Y001503D01*
X002707Y001498D01*
X002759Y001496D01*
X003530Y001496D01*
X006155Y000996D02*
X020155Y000996D01*
X023530Y002621D01*
X028690Y002621D01*
X030815Y003494D01*
X002289Y003255D02*
X002249Y003213D01*
X002213Y003168D01*
X002179Y003121D01*
X002148Y003072D01*
X002121Y003021D01*
X002097Y002968D01*
X002077Y002914D01*
X002060Y002859D01*
X002047Y002802D01*
X002038Y002745D01*
X002032Y002688D01*
X002030Y002630D01*
X003155Y012496D02*
X004905Y014246D01*
X004905Y018996D01*
X005780Y019621D01*
X007282Y019648D01*
D30*
X047450Y014088D02*
X050075Y014088D01*
D31*
X051700Y010525D03*
X049700Y007275D03*
X049200Y006150D03*
X043825Y005900D03*
D32*
X019030Y003276D02*
X010780Y003276D01*
X012135Y004841D02*
X018510Y004841D01*
X017530Y006391D02*
X014655Y006391D01*
D33*
X023280Y014746D03*
M02*
