G75*
G70*
%OFA0B0*%
%FSLAX24Y24*%
%IPPOS*%
%LPD*%
%AMOC8*
5,1,8,0,0,1.08239X$1,22.5*
%
%ADD10C,0.0000*%
%ADD11C,0.0160*%
%ADD12C,0.0040*%
%ADD13C,0.0030*%
%ADD14C,0.0060*%
%ADD15C,0.0020*%
%ADD16C,0.0050*%
%ADD17C,0.0080*%
%ADD18R,0.0160X0.0340*%
%ADD19C,0.0120*%
%ADD20C,0.0240*%
%ADD21R,0.0340X0.0240*%
%ADD22R,0.0240X0.0340*%
D10*
X000280Y000246D02*
X000280Y021900D01*
X038075Y021900D01*
X064621Y021900D01*
X064621Y000246D01*
X038075Y000246D01*
X000280Y000246D01*
X004433Y001231D02*
X004435Y001270D01*
X004441Y001308D01*
X004451Y001345D01*
X004464Y001381D01*
X004482Y001416D01*
X004502Y001448D01*
X004526Y001479D01*
X004553Y001506D01*
X004583Y001531D01*
X004615Y001552D01*
X004649Y001571D01*
X004685Y001585D01*
X004722Y001596D01*
X004760Y001603D01*
X004798Y001606D01*
X004837Y001605D01*
X004875Y001600D01*
X004913Y001591D01*
X004949Y001578D01*
X004984Y001562D01*
X005017Y001542D01*
X005048Y001519D01*
X005077Y001493D01*
X005102Y001464D01*
X005124Y001432D01*
X005143Y001399D01*
X005159Y001363D01*
X005171Y001327D01*
X005179Y001289D01*
X005183Y001250D01*
X005183Y001212D01*
X005179Y001173D01*
X005171Y001135D01*
X005159Y001099D01*
X005143Y001063D01*
X005124Y001030D01*
X005102Y000998D01*
X005077Y000969D01*
X005048Y000943D01*
X005017Y000920D01*
X004984Y000900D01*
X004949Y000884D01*
X004913Y000871D01*
X004875Y000862D01*
X004837Y000857D01*
X004798Y000856D01*
X004760Y000859D01*
X004722Y000866D01*
X004685Y000877D01*
X004649Y000891D01*
X004615Y000910D01*
X004583Y000931D01*
X004553Y000956D01*
X004526Y000983D01*
X004502Y001014D01*
X004482Y001046D01*
X004464Y001081D01*
X004451Y001117D01*
X004441Y001154D01*
X004435Y001192D01*
X004433Y001231D01*
X024511Y001231D02*
X024513Y001270D01*
X024519Y001308D01*
X024529Y001345D01*
X024542Y001381D01*
X024560Y001416D01*
X024580Y001448D01*
X024604Y001479D01*
X024631Y001506D01*
X024661Y001531D01*
X024693Y001552D01*
X024727Y001571D01*
X024763Y001585D01*
X024800Y001596D01*
X024838Y001603D01*
X024876Y001606D01*
X024915Y001605D01*
X024953Y001600D01*
X024991Y001591D01*
X025027Y001578D01*
X025062Y001562D01*
X025095Y001542D01*
X025126Y001519D01*
X025155Y001493D01*
X025180Y001464D01*
X025202Y001432D01*
X025221Y001399D01*
X025237Y001363D01*
X025249Y001327D01*
X025257Y001289D01*
X025261Y001250D01*
X025261Y001212D01*
X025257Y001173D01*
X025249Y001135D01*
X025237Y001099D01*
X025221Y001063D01*
X025202Y001030D01*
X025180Y000998D01*
X025155Y000969D01*
X025126Y000943D01*
X025095Y000920D01*
X025062Y000900D01*
X025027Y000884D01*
X024991Y000871D01*
X024953Y000862D01*
X024915Y000857D01*
X024876Y000856D01*
X024838Y000859D01*
X024800Y000866D01*
X024763Y000877D01*
X024727Y000891D01*
X024693Y000910D01*
X024661Y000931D01*
X024631Y000956D01*
X024604Y000983D01*
X024580Y001014D01*
X024560Y001046D01*
X024542Y001081D01*
X024529Y001117D01*
X024519Y001154D01*
X024513Y001192D01*
X024511Y001231D01*
X027846Y003205D02*
X027853Y003198D01*
X027853Y003196D01*
X027855Y003196D02*
X027862Y003196D01*
X027855Y003203D01*
X027855Y003205D01*
X027857Y003206D01*
X027860Y003206D01*
X027862Y003205D01*
X027865Y003198D02*
X027867Y003198D01*
X027867Y003196D01*
X027865Y003196D01*
X027865Y003198D01*
X027865Y003196D02*
X027868Y003193D01*
X027871Y003196D02*
X027877Y003196D01*
X027874Y003196D02*
X027874Y003206D01*
X027877Y003203D01*
X027880Y003203D02*
X027882Y003201D01*
X027887Y003201D01*
X027889Y003201D02*
X027891Y003200D01*
X027896Y003200D01*
X027896Y003196D02*
X027896Y003206D01*
X027891Y003206D01*
X027889Y003205D01*
X027889Y003201D01*
X027887Y003196D02*
X027882Y003196D01*
X027880Y003198D01*
X027880Y003200D01*
X027882Y003201D01*
X027880Y003203D02*
X027880Y003205D01*
X027882Y003206D01*
X027887Y003206D01*
X027887Y003196D01*
X027902Y003196D02*
X027902Y003206D01*
X027905Y003206D02*
X027898Y003206D01*
X027853Y003206D02*
X027846Y003206D01*
X027846Y003205D01*
X029971Y003205D02*
X029978Y003198D01*
X029978Y003196D01*
X029980Y003196D02*
X029987Y003196D01*
X029980Y003203D01*
X029980Y003205D01*
X029982Y003206D01*
X029985Y003206D01*
X029987Y003205D01*
X029990Y003198D02*
X029992Y003198D01*
X029992Y003196D01*
X029990Y003196D01*
X029990Y003198D01*
X029990Y003196D02*
X029993Y003193D01*
X029996Y003196D02*
X030002Y003196D01*
X029999Y003196D02*
X029999Y003206D01*
X030002Y003203D01*
X030005Y003203D02*
X030007Y003201D01*
X030012Y003201D01*
X030014Y003201D02*
X030016Y003200D01*
X030021Y003200D01*
X030021Y003196D02*
X030021Y003206D01*
X030016Y003206D01*
X030014Y003205D01*
X030014Y003201D01*
X030012Y003196D02*
X030007Y003196D01*
X030005Y003198D01*
X030005Y003200D01*
X030007Y003201D01*
X030005Y003203D02*
X030005Y003205D01*
X030007Y003206D01*
X030012Y003206D01*
X030012Y003196D01*
X030027Y003196D02*
X030027Y003206D01*
X030030Y003206D02*
X030023Y003206D01*
X029978Y003206D02*
X029971Y003206D01*
X029971Y003205D01*
X033471Y003455D02*
X033478Y003448D01*
X033478Y003446D01*
X033480Y003446D02*
X033487Y003446D01*
X033480Y003453D01*
X033480Y003455D01*
X033482Y003456D01*
X033485Y003456D01*
X033487Y003455D01*
X033490Y003448D02*
X033492Y003448D01*
X033492Y003446D01*
X033490Y003446D01*
X033490Y003448D01*
X033490Y003446D02*
X033493Y003443D01*
X033496Y003446D02*
X033502Y003446D01*
X033499Y003446D02*
X033499Y003456D01*
X033502Y003453D01*
X033505Y003453D02*
X033507Y003451D01*
X033512Y003451D01*
X033514Y003451D02*
X033516Y003450D01*
X033521Y003450D01*
X033521Y003446D02*
X033521Y003456D01*
X033516Y003456D01*
X033514Y003455D01*
X033514Y003451D01*
X033512Y003446D02*
X033507Y003446D01*
X033505Y003448D01*
X033505Y003450D01*
X033507Y003451D01*
X033505Y003453D02*
X033505Y003455D01*
X033507Y003456D01*
X033512Y003456D01*
X033512Y003446D01*
X033527Y003446D02*
X033527Y003456D01*
X033530Y003456D02*
X033523Y003456D01*
X033478Y003456D02*
X033471Y003456D01*
X033471Y003455D01*
X036455Y001996D02*
X036457Y002024D01*
X036463Y002051D01*
X036472Y002077D01*
X036485Y002102D01*
X036502Y002125D01*
X036521Y002145D01*
X036543Y002162D01*
X036567Y002176D01*
X036593Y002186D01*
X036620Y002193D01*
X036648Y002196D01*
X036676Y002195D01*
X036703Y002190D01*
X036730Y002181D01*
X036755Y002169D01*
X036778Y002154D01*
X036799Y002135D01*
X036817Y002114D01*
X036832Y002090D01*
X036843Y002064D01*
X036851Y002038D01*
X036855Y002010D01*
X036855Y001982D01*
X036851Y001954D01*
X036843Y001928D01*
X036832Y001902D01*
X036817Y001878D01*
X036799Y001857D01*
X036778Y001838D01*
X036755Y001823D01*
X036730Y001811D01*
X036703Y001802D01*
X036676Y001797D01*
X036648Y001796D01*
X036620Y001799D01*
X036593Y001806D01*
X036567Y001816D01*
X036543Y001830D01*
X036521Y001847D01*
X036502Y001867D01*
X036485Y001890D01*
X036472Y001915D01*
X036463Y001941D01*
X036457Y001968D01*
X036455Y001996D01*
X036955Y002121D02*
X036957Y002149D01*
X036963Y002176D01*
X036972Y002202D01*
X036985Y002227D01*
X037002Y002250D01*
X037021Y002270D01*
X037043Y002287D01*
X037067Y002301D01*
X037093Y002311D01*
X037120Y002318D01*
X037148Y002321D01*
X037176Y002320D01*
X037203Y002315D01*
X037230Y002306D01*
X037255Y002294D01*
X037278Y002279D01*
X037299Y002260D01*
X037317Y002239D01*
X037332Y002215D01*
X037343Y002189D01*
X037351Y002163D01*
X037355Y002135D01*
X037355Y002107D01*
X037351Y002079D01*
X037343Y002053D01*
X037332Y002027D01*
X037317Y002003D01*
X037299Y001982D01*
X037278Y001963D01*
X037255Y001948D01*
X037230Y001936D01*
X037203Y001927D01*
X037176Y001922D01*
X037148Y001921D01*
X037120Y001924D01*
X037093Y001931D01*
X037067Y001941D01*
X037043Y001955D01*
X037021Y001972D01*
X037002Y001992D01*
X036985Y002015D01*
X036972Y002040D01*
X036963Y002066D01*
X036957Y002093D01*
X036955Y002121D01*
X037455Y002196D02*
X037457Y002224D01*
X037463Y002251D01*
X037472Y002277D01*
X037485Y002302D01*
X037502Y002325D01*
X037521Y002345D01*
X037543Y002362D01*
X037567Y002376D01*
X037593Y002386D01*
X037620Y002393D01*
X037648Y002396D01*
X037676Y002395D01*
X037703Y002390D01*
X037730Y002381D01*
X037755Y002369D01*
X037778Y002354D01*
X037799Y002335D01*
X037817Y002314D01*
X037832Y002290D01*
X037843Y002264D01*
X037851Y002238D01*
X037855Y002210D01*
X037855Y002182D01*
X037851Y002154D01*
X037843Y002128D01*
X037832Y002102D01*
X037817Y002078D01*
X037799Y002057D01*
X037778Y002038D01*
X037755Y002023D01*
X037730Y002011D01*
X037703Y002002D01*
X037676Y001997D01*
X037648Y001996D01*
X037620Y001999D01*
X037593Y002006D01*
X037567Y002016D01*
X037543Y002030D01*
X037521Y002047D01*
X037502Y002067D01*
X037485Y002090D01*
X037472Y002115D01*
X037463Y002141D01*
X037457Y002168D01*
X037455Y002196D01*
X036080Y001621D02*
X036082Y001649D01*
X036088Y001676D01*
X036097Y001702D01*
X036110Y001727D01*
X036127Y001750D01*
X036146Y001770D01*
X036168Y001787D01*
X036192Y001801D01*
X036218Y001811D01*
X036245Y001818D01*
X036273Y001821D01*
X036301Y001820D01*
X036328Y001815D01*
X036355Y001806D01*
X036380Y001794D01*
X036403Y001779D01*
X036424Y001760D01*
X036442Y001739D01*
X036457Y001715D01*
X036468Y001689D01*
X036476Y001663D01*
X036480Y001635D01*
X036480Y001607D01*
X036476Y001579D01*
X036468Y001553D01*
X036457Y001527D01*
X036442Y001503D01*
X036424Y001482D01*
X036403Y001463D01*
X036380Y001448D01*
X036355Y001436D01*
X036328Y001427D01*
X036301Y001422D01*
X036273Y001421D01*
X036245Y001424D01*
X036218Y001431D01*
X036192Y001441D01*
X036168Y001455D01*
X036146Y001472D01*
X036127Y001492D01*
X036110Y001515D01*
X036097Y001540D01*
X036088Y001566D01*
X036082Y001593D01*
X036080Y001621D01*
X035955Y001121D02*
X035957Y001149D01*
X035963Y001176D01*
X035972Y001202D01*
X035985Y001227D01*
X036002Y001250D01*
X036021Y001270D01*
X036043Y001287D01*
X036067Y001301D01*
X036093Y001311D01*
X036120Y001318D01*
X036148Y001321D01*
X036176Y001320D01*
X036203Y001315D01*
X036230Y001306D01*
X036255Y001294D01*
X036278Y001279D01*
X036299Y001260D01*
X036317Y001239D01*
X036332Y001215D01*
X036343Y001189D01*
X036351Y001163D01*
X036355Y001135D01*
X036355Y001107D01*
X036351Y001079D01*
X036343Y001053D01*
X036332Y001027D01*
X036317Y001003D01*
X036299Y000982D01*
X036278Y000963D01*
X036255Y000948D01*
X036230Y000936D01*
X036203Y000927D01*
X036176Y000922D01*
X036148Y000921D01*
X036120Y000924D01*
X036093Y000931D01*
X036067Y000941D01*
X036043Y000955D01*
X036021Y000972D01*
X036002Y000992D01*
X035985Y001015D01*
X035972Y001040D01*
X035963Y001066D01*
X035957Y001093D01*
X035955Y001121D01*
X035955Y000621D02*
X035957Y000649D01*
X035963Y000676D01*
X035972Y000702D01*
X035985Y000727D01*
X036002Y000750D01*
X036021Y000770D01*
X036043Y000787D01*
X036067Y000801D01*
X036093Y000811D01*
X036120Y000818D01*
X036148Y000821D01*
X036176Y000820D01*
X036203Y000815D01*
X036230Y000806D01*
X036255Y000794D01*
X036278Y000779D01*
X036299Y000760D01*
X036317Y000739D01*
X036332Y000715D01*
X036343Y000689D01*
X036351Y000663D01*
X036355Y000635D01*
X036355Y000607D01*
X036351Y000579D01*
X036343Y000553D01*
X036332Y000527D01*
X036317Y000503D01*
X036299Y000482D01*
X036278Y000463D01*
X036255Y000448D01*
X036230Y000436D01*
X036203Y000427D01*
X036176Y000422D01*
X036148Y000421D01*
X036120Y000424D01*
X036093Y000431D01*
X036067Y000441D01*
X036043Y000455D01*
X036021Y000472D01*
X036002Y000492D01*
X035985Y000515D01*
X035972Y000540D01*
X035963Y000566D01*
X035957Y000593D01*
X035955Y000621D01*
X037110Y003042D02*
X037112Y003081D01*
X037118Y003119D01*
X037128Y003156D01*
X037141Y003192D01*
X037159Y003227D01*
X037179Y003259D01*
X037203Y003290D01*
X037230Y003317D01*
X037260Y003342D01*
X037292Y003363D01*
X037326Y003382D01*
X037362Y003396D01*
X037399Y003407D01*
X037437Y003414D01*
X037475Y003417D01*
X037514Y003416D01*
X037552Y003411D01*
X037590Y003402D01*
X037626Y003389D01*
X037661Y003373D01*
X037694Y003353D01*
X037725Y003330D01*
X037754Y003304D01*
X037779Y003275D01*
X037801Y003243D01*
X037820Y003210D01*
X037836Y003174D01*
X037848Y003138D01*
X037856Y003100D01*
X037860Y003061D01*
X037860Y003023D01*
X037856Y002984D01*
X037848Y002946D01*
X037836Y002910D01*
X037820Y002874D01*
X037801Y002841D01*
X037779Y002809D01*
X037754Y002780D01*
X037725Y002754D01*
X037694Y002731D01*
X037661Y002711D01*
X037626Y002695D01*
X037590Y002682D01*
X037552Y002673D01*
X037514Y002668D01*
X037475Y002667D01*
X037437Y002670D01*
X037399Y002677D01*
X037362Y002688D01*
X037326Y002702D01*
X037292Y002721D01*
X037260Y002742D01*
X037230Y002767D01*
X037203Y002794D01*
X037179Y002825D01*
X037159Y002857D01*
X037141Y002892D01*
X037128Y002928D01*
X037118Y002965D01*
X037112Y003003D01*
X037110Y003042D01*
X042069Y005300D02*
X042071Y005331D01*
X042077Y005362D01*
X042086Y005392D01*
X042099Y005421D01*
X042116Y005448D01*
X042136Y005472D01*
X042158Y005494D01*
X042184Y005513D01*
X042211Y005529D01*
X042240Y005541D01*
X042270Y005550D01*
X042301Y005555D01*
X042333Y005556D01*
X042364Y005553D01*
X042395Y005546D01*
X042425Y005536D01*
X042453Y005522D01*
X042479Y005504D01*
X042503Y005484D01*
X042524Y005460D01*
X042543Y005435D01*
X042558Y005407D01*
X042569Y005378D01*
X042577Y005347D01*
X042581Y005316D01*
X042581Y005284D01*
X042577Y005253D01*
X042569Y005222D01*
X042558Y005193D01*
X042543Y005165D01*
X042524Y005140D01*
X042503Y005116D01*
X042479Y005096D01*
X042453Y005078D01*
X042425Y005064D01*
X042395Y005054D01*
X042364Y005047D01*
X042333Y005044D01*
X042301Y005045D01*
X042270Y005050D01*
X042240Y005059D01*
X042211Y005071D01*
X042184Y005087D01*
X042158Y005106D01*
X042136Y005128D01*
X042116Y005152D01*
X042099Y005179D01*
X042086Y005208D01*
X042077Y005238D01*
X042071Y005269D01*
X042069Y005300D01*
X045069Y007300D02*
X045071Y007331D01*
X045077Y007362D01*
X045086Y007392D01*
X045099Y007421D01*
X045116Y007448D01*
X045136Y007472D01*
X045158Y007494D01*
X045184Y007513D01*
X045211Y007529D01*
X045240Y007541D01*
X045270Y007550D01*
X045301Y007555D01*
X045333Y007556D01*
X045364Y007553D01*
X045395Y007546D01*
X045425Y007536D01*
X045453Y007522D01*
X045479Y007504D01*
X045503Y007484D01*
X045524Y007460D01*
X045543Y007435D01*
X045558Y007407D01*
X045569Y007378D01*
X045577Y007347D01*
X045581Y007316D01*
X045581Y007284D01*
X045577Y007253D01*
X045569Y007222D01*
X045558Y007193D01*
X045543Y007165D01*
X045524Y007140D01*
X045503Y007116D01*
X045479Y007096D01*
X045453Y007078D01*
X045425Y007064D01*
X045395Y007054D01*
X045364Y007047D01*
X045333Y007044D01*
X045301Y007045D01*
X045270Y007050D01*
X045240Y007059D01*
X045211Y007071D01*
X045184Y007087D01*
X045158Y007106D01*
X045136Y007128D01*
X045116Y007152D01*
X045099Y007179D01*
X045086Y007208D01*
X045077Y007238D01*
X045071Y007269D01*
X045069Y007300D01*
X042069Y010300D02*
X042071Y010331D01*
X042077Y010362D01*
X042086Y010392D01*
X042099Y010421D01*
X042116Y010448D01*
X042136Y010472D01*
X042158Y010494D01*
X042184Y010513D01*
X042211Y010529D01*
X042240Y010541D01*
X042270Y010550D01*
X042301Y010555D01*
X042333Y010556D01*
X042364Y010553D01*
X042395Y010546D01*
X042425Y010536D01*
X042453Y010522D01*
X042479Y010504D01*
X042503Y010484D01*
X042524Y010460D01*
X042543Y010435D01*
X042558Y010407D01*
X042569Y010378D01*
X042577Y010347D01*
X042581Y010316D01*
X042581Y010284D01*
X042577Y010253D01*
X042569Y010222D01*
X042558Y010193D01*
X042543Y010165D01*
X042524Y010140D01*
X042503Y010116D01*
X042479Y010096D01*
X042453Y010078D01*
X042425Y010064D01*
X042395Y010054D01*
X042364Y010047D01*
X042333Y010044D01*
X042301Y010045D01*
X042270Y010050D01*
X042240Y010059D01*
X042211Y010071D01*
X042184Y010087D01*
X042158Y010106D01*
X042136Y010128D01*
X042116Y010152D01*
X042099Y010179D01*
X042086Y010208D01*
X042077Y010238D01*
X042071Y010269D01*
X042069Y010300D01*
X045069Y012300D02*
X045071Y012331D01*
X045077Y012362D01*
X045086Y012392D01*
X045099Y012421D01*
X045116Y012448D01*
X045136Y012472D01*
X045158Y012494D01*
X045184Y012513D01*
X045211Y012529D01*
X045240Y012541D01*
X045270Y012550D01*
X045301Y012555D01*
X045333Y012556D01*
X045364Y012553D01*
X045395Y012546D01*
X045425Y012536D01*
X045453Y012522D01*
X045479Y012504D01*
X045503Y012484D01*
X045524Y012460D01*
X045543Y012435D01*
X045558Y012407D01*
X045569Y012378D01*
X045577Y012347D01*
X045581Y012316D01*
X045581Y012284D01*
X045577Y012253D01*
X045569Y012222D01*
X045558Y012193D01*
X045543Y012165D01*
X045524Y012140D01*
X045503Y012116D01*
X045479Y012096D01*
X045453Y012078D01*
X045425Y012064D01*
X045395Y012054D01*
X045364Y012047D01*
X045333Y012044D01*
X045301Y012045D01*
X045270Y012050D01*
X045240Y012059D01*
X045211Y012071D01*
X045184Y012087D01*
X045158Y012106D01*
X045136Y012128D01*
X045116Y012152D01*
X045099Y012179D01*
X045086Y012208D01*
X045077Y012238D01*
X045071Y012269D01*
X045069Y012300D01*
X042069Y015300D02*
X042071Y015331D01*
X042077Y015362D01*
X042086Y015392D01*
X042099Y015421D01*
X042116Y015448D01*
X042136Y015472D01*
X042158Y015494D01*
X042184Y015513D01*
X042211Y015529D01*
X042240Y015541D01*
X042270Y015550D01*
X042301Y015555D01*
X042333Y015556D01*
X042364Y015553D01*
X042395Y015546D01*
X042425Y015536D01*
X042453Y015522D01*
X042479Y015504D01*
X042503Y015484D01*
X042524Y015460D01*
X042543Y015435D01*
X042558Y015407D01*
X042569Y015378D01*
X042577Y015347D01*
X042581Y015316D01*
X042581Y015284D01*
X042577Y015253D01*
X042569Y015222D01*
X042558Y015193D01*
X042543Y015165D01*
X042524Y015140D01*
X042503Y015116D01*
X042479Y015096D01*
X042453Y015078D01*
X042425Y015064D01*
X042395Y015054D01*
X042364Y015047D01*
X042333Y015044D01*
X042301Y015045D01*
X042270Y015050D01*
X042240Y015059D01*
X042211Y015071D01*
X042184Y015087D01*
X042158Y015106D01*
X042136Y015128D01*
X042116Y015152D01*
X042099Y015179D01*
X042086Y015208D01*
X042077Y015238D01*
X042071Y015269D01*
X042069Y015300D01*
X045069Y017800D02*
X045071Y017831D01*
X045077Y017862D01*
X045086Y017892D01*
X045099Y017921D01*
X045116Y017948D01*
X045136Y017972D01*
X045158Y017994D01*
X045184Y018013D01*
X045211Y018029D01*
X045240Y018041D01*
X045270Y018050D01*
X045301Y018055D01*
X045333Y018056D01*
X045364Y018053D01*
X045395Y018046D01*
X045425Y018036D01*
X045453Y018022D01*
X045479Y018004D01*
X045503Y017984D01*
X045524Y017960D01*
X045543Y017935D01*
X045558Y017907D01*
X045569Y017878D01*
X045577Y017847D01*
X045581Y017816D01*
X045581Y017784D01*
X045577Y017753D01*
X045569Y017722D01*
X045558Y017693D01*
X045543Y017665D01*
X045524Y017640D01*
X045503Y017616D01*
X045479Y017596D01*
X045453Y017578D01*
X045425Y017564D01*
X045395Y017554D01*
X045364Y017547D01*
X045333Y017544D01*
X045301Y017545D01*
X045270Y017550D01*
X045240Y017559D01*
X045211Y017571D01*
X045184Y017587D01*
X045158Y017606D01*
X045136Y017628D01*
X045116Y017652D01*
X045099Y017679D01*
X045086Y017708D01*
X045077Y017738D01*
X045071Y017769D01*
X045069Y017800D01*
X042069Y020800D02*
X042071Y020831D01*
X042077Y020862D01*
X042086Y020892D01*
X042099Y020921D01*
X042116Y020948D01*
X042136Y020972D01*
X042158Y020994D01*
X042184Y021013D01*
X042211Y021029D01*
X042240Y021041D01*
X042270Y021050D01*
X042301Y021055D01*
X042333Y021056D01*
X042364Y021053D01*
X042395Y021046D01*
X042425Y021036D01*
X042453Y021022D01*
X042479Y021004D01*
X042503Y020984D01*
X042524Y020960D01*
X042543Y020935D01*
X042558Y020907D01*
X042569Y020878D01*
X042577Y020847D01*
X042581Y020816D01*
X042581Y020784D01*
X042577Y020753D01*
X042569Y020722D01*
X042558Y020693D01*
X042543Y020665D01*
X042524Y020640D01*
X042503Y020616D01*
X042479Y020596D01*
X042453Y020578D01*
X042425Y020564D01*
X042395Y020554D01*
X042364Y020547D01*
X042333Y020544D01*
X042301Y020545D01*
X042270Y020550D01*
X042240Y020559D01*
X042211Y020571D01*
X042184Y020587D01*
X042158Y020606D01*
X042136Y020628D01*
X042116Y020652D01*
X042099Y020679D01*
X042086Y020708D01*
X042077Y020738D01*
X042071Y020769D01*
X042069Y020800D01*
X035456Y020916D02*
X035458Y020955D01*
X035464Y020993D01*
X035474Y021030D01*
X035487Y021066D01*
X035505Y021101D01*
X035525Y021133D01*
X035549Y021164D01*
X035576Y021191D01*
X035606Y021216D01*
X035638Y021237D01*
X035672Y021256D01*
X035708Y021270D01*
X035745Y021281D01*
X035783Y021288D01*
X035821Y021291D01*
X035860Y021290D01*
X035898Y021285D01*
X035936Y021276D01*
X035972Y021263D01*
X036007Y021247D01*
X036040Y021227D01*
X036071Y021204D01*
X036100Y021178D01*
X036125Y021149D01*
X036147Y021117D01*
X036166Y021084D01*
X036182Y021048D01*
X036194Y021012D01*
X036202Y020974D01*
X036206Y020935D01*
X036206Y020897D01*
X036202Y020858D01*
X036194Y020820D01*
X036182Y020784D01*
X036166Y020748D01*
X036147Y020715D01*
X036125Y020683D01*
X036100Y020654D01*
X036071Y020628D01*
X036040Y020605D01*
X036007Y020585D01*
X035972Y020569D01*
X035936Y020556D01*
X035898Y020547D01*
X035860Y020542D01*
X035821Y020541D01*
X035783Y020544D01*
X035745Y020551D01*
X035708Y020562D01*
X035672Y020576D01*
X035638Y020595D01*
X035606Y020616D01*
X035576Y020641D01*
X035549Y020668D01*
X035525Y020699D01*
X035505Y020731D01*
X035487Y020766D01*
X035474Y020802D01*
X035464Y020839D01*
X035458Y020877D01*
X035456Y020916D01*
X024511Y020916D02*
X024513Y020955D01*
X024519Y020993D01*
X024529Y021030D01*
X024542Y021066D01*
X024560Y021101D01*
X024580Y021133D01*
X024604Y021164D01*
X024631Y021191D01*
X024661Y021216D01*
X024693Y021237D01*
X024727Y021256D01*
X024763Y021270D01*
X024800Y021281D01*
X024838Y021288D01*
X024876Y021291D01*
X024915Y021290D01*
X024953Y021285D01*
X024991Y021276D01*
X025027Y021263D01*
X025062Y021247D01*
X025095Y021227D01*
X025126Y021204D01*
X025155Y021178D01*
X025180Y021149D01*
X025202Y021117D01*
X025221Y021084D01*
X025237Y021048D01*
X025249Y021012D01*
X025257Y020974D01*
X025261Y020935D01*
X025261Y020897D01*
X025257Y020858D01*
X025249Y020820D01*
X025237Y020784D01*
X025221Y020748D01*
X025202Y020715D01*
X025180Y020683D01*
X025155Y020654D01*
X025126Y020628D01*
X025095Y020605D01*
X025062Y020585D01*
X025027Y020569D01*
X024991Y020556D01*
X024953Y020547D01*
X024915Y020542D01*
X024876Y020541D01*
X024838Y020544D01*
X024800Y020551D01*
X024763Y020562D01*
X024727Y020576D01*
X024693Y020595D01*
X024661Y020616D01*
X024631Y020641D01*
X024604Y020668D01*
X024580Y020699D01*
X024560Y020731D01*
X024542Y020766D01*
X024529Y020802D01*
X024519Y020839D01*
X024513Y020877D01*
X024511Y020916D01*
X019380Y018646D02*
X019382Y018696D01*
X019388Y018746D01*
X019398Y018796D01*
X019411Y018844D01*
X019428Y018892D01*
X019449Y018938D01*
X019473Y018982D01*
X019501Y019024D01*
X019532Y019064D01*
X019566Y019101D01*
X019603Y019136D01*
X019642Y019167D01*
X019683Y019196D01*
X019727Y019221D01*
X019773Y019243D01*
X019820Y019261D01*
X019868Y019275D01*
X019917Y019286D01*
X019967Y019293D01*
X020017Y019296D01*
X020068Y019295D01*
X020118Y019290D01*
X020168Y019281D01*
X020216Y019269D01*
X020264Y019252D01*
X020310Y019232D01*
X020355Y019209D01*
X020398Y019182D01*
X020438Y019152D01*
X020476Y019119D01*
X020511Y019083D01*
X020544Y019044D01*
X020573Y019003D01*
X020599Y018960D01*
X020622Y018915D01*
X020641Y018868D01*
X020656Y018820D01*
X020668Y018771D01*
X020676Y018721D01*
X020680Y018671D01*
X020680Y018621D01*
X020676Y018571D01*
X020668Y018521D01*
X020656Y018472D01*
X020641Y018424D01*
X020622Y018377D01*
X020599Y018332D01*
X020573Y018289D01*
X020544Y018248D01*
X020511Y018209D01*
X020476Y018173D01*
X020438Y018140D01*
X020398Y018110D01*
X020355Y018083D01*
X020310Y018060D01*
X020264Y018040D01*
X020216Y018023D01*
X020168Y018011D01*
X020118Y018002D01*
X020068Y017997D01*
X020017Y017996D01*
X019967Y017999D01*
X019917Y018006D01*
X019868Y018017D01*
X019820Y018031D01*
X019773Y018049D01*
X019727Y018071D01*
X019683Y018096D01*
X019642Y018125D01*
X019603Y018156D01*
X019566Y018191D01*
X019532Y018228D01*
X019501Y018268D01*
X019473Y018310D01*
X019449Y018354D01*
X019428Y018400D01*
X019411Y018448D01*
X019398Y018496D01*
X019388Y018546D01*
X019382Y018596D01*
X019380Y018646D01*
X029846Y017081D02*
X029846Y017080D01*
X029853Y017073D01*
X029853Y017071D01*
X029855Y017071D02*
X029862Y017071D01*
X029855Y017078D01*
X029855Y017080D01*
X029857Y017081D01*
X029860Y017081D01*
X029862Y017080D01*
X029865Y017073D02*
X029867Y017073D01*
X029867Y017071D01*
X029865Y017071D01*
X029865Y017073D01*
X029865Y017071D02*
X029868Y017068D01*
X029871Y017071D02*
X029877Y017071D01*
X029874Y017071D02*
X029874Y017081D01*
X029877Y017078D01*
X029880Y017078D02*
X029882Y017076D01*
X029887Y017076D01*
X029889Y017076D02*
X029891Y017075D01*
X029896Y017075D01*
X029896Y017071D02*
X029896Y017081D01*
X029891Y017081D01*
X029889Y017080D01*
X029889Y017076D01*
X029887Y017071D02*
X029882Y017071D01*
X029880Y017073D01*
X029880Y017075D01*
X029882Y017076D01*
X029880Y017078D02*
X029880Y017080D01*
X029882Y017081D01*
X029887Y017081D01*
X029887Y017071D01*
X029902Y017071D02*
X029902Y017081D01*
X029905Y017081D02*
X029898Y017081D01*
X029853Y017081D02*
X029846Y017081D01*
X029946Y015381D02*
X029946Y015380D01*
X029953Y015373D01*
X029953Y015371D01*
X029955Y015371D02*
X029962Y015371D01*
X029955Y015378D01*
X029955Y015380D01*
X029957Y015381D01*
X029960Y015381D01*
X029962Y015380D01*
X029965Y015373D02*
X029967Y015373D01*
X029967Y015371D01*
X029965Y015371D01*
X029965Y015373D01*
X029965Y015371D02*
X029968Y015368D01*
X029971Y015371D02*
X029977Y015371D01*
X029974Y015371D02*
X029974Y015381D01*
X029977Y015378D01*
X029980Y015378D02*
X029982Y015376D01*
X029987Y015376D01*
X029989Y015376D02*
X029991Y015375D01*
X029996Y015375D01*
X029996Y015371D02*
X029996Y015381D01*
X029991Y015381D01*
X029989Y015380D01*
X029989Y015376D01*
X029987Y015371D02*
X029982Y015371D01*
X029980Y015373D01*
X029980Y015375D01*
X029982Y015376D01*
X029980Y015378D02*
X029980Y015380D01*
X029982Y015381D01*
X029987Y015381D01*
X029987Y015371D01*
X030002Y015371D02*
X030002Y015381D01*
X030005Y015381D02*
X029998Y015381D01*
X029953Y015381D02*
X029946Y015381D01*
X032096Y015331D02*
X032096Y015330D01*
X032103Y015323D01*
X032103Y015321D01*
X032105Y015321D02*
X032112Y015321D01*
X032105Y015328D01*
X032105Y015330D01*
X032107Y015331D01*
X032110Y015331D01*
X032112Y015330D01*
X032115Y015323D02*
X032117Y015323D01*
X032117Y015321D01*
X032115Y015321D01*
X032115Y015323D01*
X032115Y015321D02*
X032118Y015318D01*
X032121Y015321D02*
X032127Y015321D01*
X032124Y015321D02*
X032124Y015331D01*
X032127Y015328D01*
X032130Y015328D02*
X032132Y015326D01*
X032137Y015326D01*
X032139Y015326D02*
X032141Y015325D01*
X032146Y015325D01*
X032146Y015321D02*
X032146Y015331D01*
X032141Y015331D01*
X032139Y015330D01*
X032139Y015326D01*
X032137Y015321D02*
X032132Y015321D01*
X032130Y015323D01*
X032130Y015325D01*
X032132Y015326D01*
X032130Y015328D02*
X032130Y015330D01*
X032132Y015331D01*
X032137Y015331D01*
X032137Y015321D01*
X032152Y015321D02*
X032152Y015331D01*
X032155Y015331D02*
X032148Y015331D01*
X032103Y015331D02*
X032096Y015331D01*
X030130Y013256D02*
X030123Y013256D01*
X030121Y013256D02*
X030116Y013256D01*
X030114Y013255D01*
X030114Y013251D01*
X030116Y013250D01*
X030121Y013250D01*
X030121Y013246D02*
X030121Y013256D01*
X030127Y013256D02*
X030127Y013246D01*
X030112Y013246D02*
X030107Y013246D01*
X030105Y013248D01*
X030105Y013250D01*
X030107Y013251D01*
X030112Y013251D01*
X030112Y013246D02*
X030112Y013256D01*
X030107Y013256D01*
X030105Y013255D01*
X030105Y013253D01*
X030107Y013251D01*
X030102Y013253D02*
X030099Y013256D01*
X030099Y013246D01*
X030102Y013246D02*
X030096Y013246D01*
X030093Y013243D02*
X030090Y013246D01*
X030092Y013246D01*
X030092Y013248D01*
X030090Y013248D01*
X030090Y013246D01*
X030087Y013246D02*
X030080Y013253D01*
X030080Y013255D01*
X030082Y013256D01*
X030085Y013256D01*
X030087Y013255D01*
X030087Y013246D02*
X030080Y013246D01*
X030078Y013248D02*
X030078Y013246D01*
X030078Y013248D02*
X030071Y013255D01*
X030071Y013256D01*
X030078Y013256D01*
X032096Y012831D02*
X032096Y012830D01*
X032103Y012823D01*
X032103Y012821D01*
X032105Y012821D02*
X032112Y012821D01*
X032105Y012828D01*
X032105Y012830D01*
X032107Y012831D01*
X032110Y012831D01*
X032112Y012830D01*
X032115Y012823D02*
X032117Y012823D01*
X032117Y012821D01*
X032115Y012821D01*
X032115Y012823D01*
X032115Y012821D02*
X032118Y012818D01*
X032121Y012821D02*
X032127Y012821D01*
X032124Y012821D02*
X032124Y012831D01*
X032127Y012828D01*
X032130Y012828D02*
X032132Y012826D01*
X032137Y012826D01*
X032139Y012826D02*
X032141Y012825D01*
X032146Y012825D01*
X032146Y012821D02*
X032146Y012831D01*
X032141Y012831D01*
X032139Y012830D01*
X032139Y012826D01*
X032137Y012821D02*
X032132Y012821D01*
X032130Y012823D01*
X032130Y012825D01*
X032132Y012826D01*
X032130Y012828D02*
X032130Y012830D01*
X032132Y012831D01*
X032137Y012831D01*
X032137Y012821D01*
X032152Y012821D02*
X032152Y012831D01*
X032155Y012831D02*
X032148Y012831D01*
X032103Y012831D02*
X032096Y012831D01*
X031030Y012331D02*
X031023Y012331D01*
X031021Y012331D02*
X031016Y012331D01*
X031014Y012330D01*
X031014Y012326D01*
X031016Y012325D01*
X031021Y012325D01*
X031021Y012321D02*
X031021Y012331D01*
X031027Y012331D02*
X031027Y012321D01*
X031012Y012321D02*
X031007Y012321D01*
X031005Y012323D01*
X031005Y012325D01*
X031007Y012326D01*
X031012Y012326D01*
X031012Y012321D02*
X031012Y012331D01*
X031007Y012331D01*
X031005Y012330D01*
X031005Y012328D01*
X031007Y012326D01*
X031002Y012328D02*
X030999Y012331D01*
X030999Y012321D01*
X031002Y012321D02*
X030996Y012321D01*
X030993Y012318D02*
X030990Y012321D01*
X030992Y012321D01*
X030992Y012323D01*
X030990Y012323D01*
X030990Y012321D01*
X030987Y012321D02*
X030980Y012328D01*
X030980Y012330D01*
X030982Y012331D01*
X030985Y012331D01*
X030987Y012330D01*
X030987Y012321D02*
X030980Y012321D01*
X030978Y012323D02*
X030978Y012321D01*
X030978Y012323D02*
X030971Y012330D01*
X030971Y012331D01*
X030978Y012331D01*
X027905Y013081D02*
X027898Y013081D01*
X027896Y013081D02*
X027891Y013081D01*
X027889Y013080D01*
X027889Y013076D01*
X027891Y013075D01*
X027896Y013075D01*
X027896Y013071D02*
X027896Y013081D01*
X027902Y013081D02*
X027902Y013071D01*
X027887Y013071D02*
X027882Y013071D01*
X027880Y013073D01*
X027880Y013075D01*
X027882Y013076D01*
X027887Y013076D01*
X027887Y013071D02*
X027887Y013081D01*
X027882Y013081D01*
X027880Y013080D01*
X027880Y013078D01*
X027882Y013076D01*
X027877Y013078D02*
X027874Y013081D01*
X027874Y013071D01*
X027877Y013071D02*
X027871Y013071D01*
X027868Y013068D02*
X027865Y013071D01*
X027867Y013071D01*
X027867Y013073D01*
X027865Y013073D01*
X027865Y013071D01*
X027862Y013071D02*
X027855Y013078D01*
X027855Y013080D01*
X027857Y013081D01*
X027860Y013081D01*
X027862Y013080D01*
X027862Y013071D02*
X027855Y013071D01*
X027853Y013073D02*
X027853Y013071D01*
X027853Y013073D02*
X027846Y013080D01*
X027846Y013081D01*
X027853Y013081D01*
X025902Y013821D02*
X025902Y013831D01*
X025905Y013831D02*
X025898Y013831D01*
X025896Y013831D02*
X025891Y013831D01*
X025889Y013830D01*
X025889Y013826D01*
X025891Y013825D01*
X025896Y013825D01*
X025896Y013821D02*
X025896Y013831D01*
X025887Y013831D02*
X025882Y013831D01*
X025880Y013830D01*
X025880Y013828D01*
X025882Y013826D01*
X025887Y013826D01*
X025887Y013821D02*
X025882Y013821D01*
X025880Y013823D01*
X025880Y013825D01*
X025882Y013826D01*
X025877Y013828D02*
X025874Y013831D01*
X025874Y013821D01*
X025877Y013821D02*
X025871Y013821D01*
X025868Y013818D02*
X025865Y013821D01*
X025867Y013821D01*
X025867Y013823D01*
X025865Y013823D01*
X025865Y013821D01*
X025862Y013821D02*
X025855Y013828D01*
X025855Y013830D01*
X025857Y013831D01*
X025860Y013831D01*
X025862Y013830D01*
X025862Y013821D02*
X025855Y013821D01*
X025853Y013823D02*
X025853Y013821D01*
X025853Y013823D02*
X025846Y013830D01*
X025846Y013831D01*
X025853Y013831D01*
X025887Y013831D02*
X025887Y013821D01*
X027846Y011456D02*
X027846Y011455D01*
X027853Y011448D01*
X027853Y011446D01*
X027855Y011446D02*
X027862Y011446D01*
X027855Y011453D01*
X027855Y011455D01*
X027857Y011456D01*
X027860Y011456D01*
X027862Y011455D01*
X027865Y011448D02*
X027867Y011448D01*
X027867Y011446D01*
X027865Y011446D01*
X027865Y011448D01*
X027865Y011446D02*
X027868Y011443D01*
X027871Y011446D02*
X027877Y011446D01*
X027874Y011446D02*
X027874Y011456D01*
X027877Y011453D01*
X027880Y011453D02*
X027882Y011451D01*
X027887Y011451D01*
X027889Y011451D02*
X027891Y011450D01*
X027896Y011450D01*
X027896Y011446D02*
X027896Y011456D01*
X027891Y011456D01*
X027889Y011455D01*
X027889Y011451D01*
X027887Y011446D02*
X027882Y011446D01*
X027880Y011448D01*
X027880Y011450D01*
X027882Y011451D01*
X027880Y011453D02*
X027880Y011455D01*
X027882Y011456D01*
X027887Y011456D01*
X027887Y011446D01*
X027902Y011446D02*
X027902Y011456D01*
X027905Y011456D02*
X027898Y011456D01*
X027853Y011456D02*
X027846Y011456D01*
X029971Y010081D02*
X029971Y010080D01*
X029978Y010073D01*
X029978Y010071D01*
X029980Y010071D02*
X029987Y010071D01*
X029980Y010078D01*
X029980Y010080D01*
X029982Y010081D01*
X029985Y010081D01*
X029987Y010080D01*
X029990Y010073D02*
X029992Y010073D01*
X029992Y010071D01*
X029990Y010071D01*
X029990Y010073D01*
X029990Y010071D02*
X029993Y010068D01*
X029996Y010071D02*
X030002Y010071D01*
X029999Y010071D02*
X029999Y010081D01*
X030002Y010078D01*
X030005Y010078D02*
X030007Y010076D01*
X030012Y010076D01*
X030014Y010076D02*
X030016Y010075D01*
X030021Y010075D01*
X030021Y010071D02*
X030021Y010081D01*
X030016Y010081D01*
X030014Y010080D01*
X030014Y010076D01*
X030012Y010071D02*
X030007Y010071D01*
X030005Y010073D01*
X030005Y010075D01*
X030007Y010076D01*
X030005Y010078D02*
X030005Y010080D01*
X030007Y010081D01*
X030012Y010081D01*
X030012Y010071D01*
X030027Y010071D02*
X030027Y010081D01*
X030030Y010081D02*
X030023Y010081D01*
X029978Y010081D02*
X029971Y010081D01*
X031096Y009456D02*
X031096Y009455D01*
X031103Y009448D01*
X031103Y009446D01*
X031105Y009446D02*
X031112Y009446D01*
X031105Y009453D01*
X031105Y009455D01*
X031107Y009456D01*
X031110Y009456D01*
X031112Y009455D01*
X031115Y009448D02*
X031117Y009448D01*
X031117Y009446D01*
X031115Y009446D01*
X031115Y009448D01*
X031115Y009446D02*
X031118Y009443D01*
X031121Y009446D02*
X031127Y009446D01*
X031124Y009446D02*
X031124Y009456D01*
X031127Y009453D01*
X031130Y009453D02*
X031132Y009451D01*
X031137Y009451D01*
X031139Y009451D02*
X031141Y009450D01*
X031146Y009450D01*
X031146Y009446D02*
X031146Y009456D01*
X031141Y009456D01*
X031139Y009455D01*
X031139Y009451D01*
X031137Y009446D02*
X031132Y009446D01*
X031130Y009448D01*
X031130Y009450D01*
X031132Y009451D01*
X031130Y009453D02*
X031130Y009455D01*
X031132Y009456D01*
X031137Y009456D01*
X031137Y009446D01*
X031152Y009446D02*
X031152Y009456D01*
X031155Y009456D02*
X031148Y009456D01*
X031103Y009456D02*
X031096Y009456D01*
X032096Y010080D02*
X032103Y010073D01*
X032103Y010071D01*
X032105Y010071D02*
X032112Y010071D01*
X032105Y010078D01*
X032105Y010080D01*
X032107Y010081D01*
X032110Y010081D01*
X032112Y010080D01*
X032115Y010073D02*
X032117Y010073D01*
X032117Y010071D01*
X032115Y010071D01*
X032115Y010073D01*
X032115Y010071D02*
X032118Y010068D01*
X032121Y010071D02*
X032127Y010071D01*
X032124Y010071D02*
X032124Y010081D01*
X032127Y010078D01*
X032130Y010078D02*
X032132Y010076D01*
X032137Y010076D01*
X032139Y010076D02*
X032141Y010075D01*
X032146Y010075D01*
X032146Y010071D02*
X032146Y010081D01*
X032141Y010081D01*
X032139Y010080D01*
X032139Y010076D01*
X032137Y010071D02*
X032132Y010071D01*
X032130Y010073D01*
X032130Y010075D01*
X032132Y010076D01*
X032130Y010078D02*
X032130Y010080D01*
X032132Y010081D01*
X032137Y010081D01*
X032137Y010071D01*
X032152Y010071D02*
X032152Y010081D01*
X032155Y010081D02*
X032148Y010081D01*
X032103Y010081D02*
X032096Y010081D01*
X032096Y010080D01*
X025780Y008331D02*
X025773Y008331D01*
X025771Y008331D02*
X025766Y008331D01*
X025764Y008330D01*
X025764Y008326D01*
X025766Y008325D01*
X025771Y008325D01*
X025771Y008321D02*
X025771Y008331D01*
X025777Y008331D02*
X025777Y008321D01*
X025762Y008321D02*
X025757Y008321D01*
X025755Y008323D01*
X025755Y008325D01*
X025757Y008326D01*
X025762Y008326D01*
X025762Y008321D02*
X025762Y008331D01*
X025757Y008331D01*
X025755Y008330D01*
X025755Y008328D01*
X025757Y008326D01*
X025752Y008328D02*
X025749Y008331D01*
X025749Y008321D01*
X025752Y008321D02*
X025746Y008321D01*
X025743Y008318D02*
X025740Y008321D01*
X025742Y008321D01*
X025742Y008323D01*
X025740Y008323D01*
X025740Y008321D01*
X025737Y008321D02*
X025730Y008328D01*
X025730Y008330D01*
X025732Y008331D01*
X025735Y008331D01*
X025737Y008330D01*
X025737Y008321D02*
X025730Y008321D01*
X025728Y008323D02*
X025728Y008321D01*
X025728Y008323D02*
X025721Y008330D01*
X025721Y008331D01*
X025728Y008331D01*
X030096Y007331D02*
X030096Y007330D01*
X030103Y007323D01*
X030103Y007321D01*
X030105Y007321D02*
X030112Y007321D01*
X030105Y007328D01*
X030105Y007330D01*
X030107Y007331D01*
X030110Y007331D01*
X030112Y007330D01*
X030115Y007323D02*
X030117Y007323D01*
X030117Y007321D01*
X030115Y007321D01*
X030115Y007323D01*
X030115Y007321D02*
X030118Y007318D01*
X030121Y007321D02*
X030127Y007321D01*
X030124Y007321D02*
X030124Y007331D01*
X030127Y007328D01*
X030130Y007328D02*
X030132Y007326D01*
X030137Y007326D01*
X030139Y007326D02*
X030141Y007325D01*
X030146Y007325D01*
X030146Y007321D02*
X030146Y007331D01*
X030141Y007331D01*
X030139Y007330D01*
X030139Y007326D01*
X030137Y007321D02*
X030132Y007321D01*
X030130Y007323D01*
X030130Y007325D01*
X030132Y007326D01*
X030130Y007328D02*
X030130Y007330D01*
X030132Y007331D01*
X030137Y007331D01*
X030137Y007321D01*
X030152Y007321D02*
X030152Y007331D01*
X030155Y007331D02*
X030148Y007331D01*
X030103Y007331D02*
X030096Y007331D01*
X032096Y007330D02*
X032103Y007323D01*
X032103Y007321D01*
X032105Y007321D02*
X032112Y007321D01*
X032105Y007328D01*
X032105Y007330D01*
X032107Y007331D01*
X032110Y007331D01*
X032112Y007330D01*
X032115Y007323D02*
X032117Y007323D01*
X032117Y007321D01*
X032115Y007321D01*
X032115Y007323D01*
X032115Y007321D02*
X032118Y007318D01*
X032121Y007321D02*
X032127Y007321D01*
X032124Y007321D02*
X032124Y007331D01*
X032127Y007328D01*
X032130Y007328D02*
X032132Y007326D01*
X032137Y007326D01*
X032139Y007326D02*
X032141Y007325D01*
X032146Y007325D01*
X032146Y007321D02*
X032146Y007331D01*
X032141Y007331D01*
X032139Y007330D01*
X032139Y007326D01*
X032137Y007321D02*
X032132Y007321D01*
X032130Y007323D01*
X032130Y007325D01*
X032132Y007326D01*
X032130Y007328D02*
X032130Y007330D01*
X032132Y007331D01*
X032137Y007331D01*
X032137Y007321D01*
X032152Y007321D02*
X032152Y007331D01*
X032155Y007331D02*
X032148Y007331D01*
X032103Y007331D02*
X032096Y007331D01*
X032096Y007330D01*
X027905Y005956D02*
X027898Y005956D01*
X027896Y005956D02*
X027891Y005956D01*
X027889Y005955D01*
X027889Y005951D01*
X027891Y005950D01*
X027896Y005950D01*
X027896Y005946D02*
X027896Y005956D01*
X027902Y005956D02*
X027902Y005946D01*
X027887Y005946D02*
X027882Y005946D01*
X027880Y005948D01*
X027880Y005950D01*
X027882Y005951D01*
X027887Y005951D01*
X027887Y005946D02*
X027887Y005956D01*
X027882Y005956D01*
X027880Y005955D01*
X027880Y005953D01*
X027882Y005951D01*
X027877Y005953D02*
X027874Y005956D01*
X027874Y005946D01*
X027877Y005946D02*
X027871Y005946D01*
X027868Y005943D02*
X027865Y005946D01*
X027867Y005946D01*
X027867Y005948D01*
X027865Y005948D01*
X027865Y005946D01*
X027862Y005946D02*
X027855Y005953D01*
X027855Y005955D01*
X027857Y005956D01*
X027860Y005956D01*
X027862Y005955D01*
X027862Y005946D02*
X027855Y005946D01*
X027853Y005948D02*
X027853Y005946D01*
X027853Y005948D02*
X027846Y005955D01*
X027846Y005956D01*
X027853Y005956D01*
X031096Y005206D02*
X031096Y005205D01*
X031103Y005198D01*
X031103Y005196D01*
X031105Y005196D02*
X031112Y005196D01*
X031105Y005203D01*
X031105Y005205D01*
X031107Y005206D01*
X031110Y005206D01*
X031112Y005205D01*
X031115Y005198D02*
X031117Y005198D01*
X031117Y005196D01*
X031115Y005196D01*
X031115Y005198D01*
X031115Y005196D02*
X031118Y005193D01*
X031121Y005196D02*
X031127Y005196D01*
X031124Y005196D02*
X031124Y005206D01*
X031127Y005203D01*
X031130Y005203D02*
X031132Y005201D01*
X031137Y005201D01*
X031139Y005201D02*
X031141Y005200D01*
X031146Y005200D01*
X031146Y005196D02*
X031146Y005206D01*
X031141Y005206D01*
X031139Y005205D01*
X031139Y005201D01*
X031137Y005196D02*
X031132Y005196D01*
X031130Y005198D01*
X031130Y005200D01*
X031132Y005201D01*
X031130Y005203D02*
X031130Y005205D01*
X031132Y005206D01*
X031137Y005206D01*
X031137Y005196D01*
X031152Y005196D02*
X031152Y005206D01*
X031155Y005206D02*
X031148Y005206D01*
X031103Y005206D02*
X031096Y005206D01*
X027905Y004581D02*
X027898Y004581D01*
X027896Y004581D02*
X027891Y004581D01*
X027889Y004580D01*
X027889Y004576D01*
X027891Y004575D01*
X027896Y004575D01*
X027896Y004571D02*
X027896Y004581D01*
X027902Y004581D02*
X027902Y004571D01*
X027887Y004571D02*
X027882Y004571D01*
X027880Y004573D01*
X027880Y004575D01*
X027882Y004576D01*
X027887Y004576D01*
X027887Y004571D02*
X027887Y004581D01*
X027882Y004581D01*
X027880Y004580D01*
X027880Y004578D01*
X027882Y004576D01*
X027877Y004578D02*
X027874Y004581D01*
X027874Y004571D01*
X027877Y004571D02*
X027871Y004571D01*
X027868Y004568D02*
X027865Y004571D01*
X027867Y004571D01*
X027867Y004573D01*
X027865Y004573D01*
X027865Y004571D01*
X027862Y004571D02*
X027855Y004578D01*
X027855Y004580D01*
X027857Y004581D01*
X027860Y004581D01*
X027862Y004580D01*
X027862Y004571D02*
X027855Y004571D01*
X027853Y004573D02*
X027853Y004571D01*
X027853Y004573D02*
X027846Y004580D01*
X027846Y004581D01*
X027853Y004581D01*
X045069Y002300D02*
X045071Y002331D01*
X045077Y002362D01*
X045086Y002392D01*
X045099Y002421D01*
X045116Y002448D01*
X045136Y002472D01*
X045158Y002494D01*
X045184Y002513D01*
X045211Y002529D01*
X045240Y002541D01*
X045270Y002550D01*
X045301Y002555D01*
X045333Y002556D01*
X045364Y002553D01*
X045395Y002546D01*
X045425Y002536D01*
X045453Y002522D01*
X045479Y002504D01*
X045503Y002484D01*
X045524Y002460D01*
X045543Y002435D01*
X045558Y002407D01*
X045569Y002378D01*
X045577Y002347D01*
X045581Y002316D01*
X045581Y002284D01*
X045577Y002253D01*
X045569Y002222D01*
X045558Y002193D01*
X045543Y002165D01*
X045524Y002140D01*
X045503Y002116D01*
X045479Y002096D01*
X045453Y002078D01*
X045425Y002064D01*
X045395Y002054D01*
X045364Y002047D01*
X045333Y002044D01*
X045301Y002045D01*
X045270Y002050D01*
X045240Y002059D01*
X045211Y002071D01*
X045184Y002087D01*
X045158Y002106D01*
X045136Y002128D01*
X045116Y002152D01*
X045099Y002179D01*
X045086Y002208D01*
X045077Y002238D01*
X045071Y002269D01*
X045069Y002300D01*
X051057Y001231D02*
X051059Y001270D01*
X051065Y001308D01*
X051075Y001345D01*
X051088Y001381D01*
X051106Y001416D01*
X051126Y001448D01*
X051150Y001479D01*
X051177Y001506D01*
X051207Y001531D01*
X051239Y001552D01*
X051273Y001571D01*
X051309Y001585D01*
X051346Y001596D01*
X051384Y001603D01*
X051422Y001606D01*
X051461Y001605D01*
X051499Y001600D01*
X051537Y001591D01*
X051573Y001578D01*
X051608Y001562D01*
X051641Y001542D01*
X051672Y001519D01*
X051701Y001493D01*
X051726Y001464D01*
X051748Y001432D01*
X051767Y001399D01*
X051783Y001363D01*
X051795Y001327D01*
X051803Y001289D01*
X051807Y001250D01*
X051807Y001212D01*
X051803Y001173D01*
X051795Y001135D01*
X051783Y001099D01*
X051767Y001063D01*
X051748Y001030D01*
X051726Y000998D01*
X051701Y000969D01*
X051672Y000943D01*
X051641Y000920D01*
X051608Y000900D01*
X051573Y000884D01*
X051537Y000871D01*
X051499Y000862D01*
X051461Y000857D01*
X051422Y000856D01*
X051384Y000859D01*
X051346Y000866D01*
X051309Y000877D01*
X051273Y000891D01*
X051239Y000910D01*
X051207Y000931D01*
X051177Y000956D01*
X051150Y000983D01*
X051126Y001014D01*
X051106Y001046D01*
X051088Y001081D01*
X051075Y001117D01*
X051065Y001154D01*
X051059Y001192D01*
X051057Y001231D01*
X062001Y001231D02*
X062003Y001270D01*
X062009Y001308D01*
X062019Y001345D01*
X062032Y001381D01*
X062050Y001416D01*
X062070Y001448D01*
X062094Y001479D01*
X062121Y001506D01*
X062151Y001531D01*
X062183Y001552D01*
X062217Y001571D01*
X062253Y001585D01*
X062290Y001596D01*
X062328Y001603D01*
X062366Y001606D01*
X062405Y001605D01*
X062443Y001600D01*
X062481Y001591D01*
X062517Y001578D01*
X062552Y001562D01*
X062585Y001542D01*
X062616Y001519D01*
X062645Y001493D01*
X062670Y001464D01*
X062692Y001432D01*
X062711Y001399D01*
X062727Y001363D01*
X062739Y001327D01*
X062747Y001289D01*
X062751Y001250D01*
X062751Y001212D01*
X062747Y001173D01*
X062739Y001135D01*
X062727Y001099D01*
X062711Y001063D01*
X062692Y001030D01*
X062670Y000998D01*
X062645Y000969D01*
X062616Y000943D01*
X062585Y000920D01*
X062552Y000900D01*
X062517Y000884D01*
X062481Y000871D01*
X062443Y000862D01*
X062405Y000857D01*
X062366Y000856D01*
X062328Y000859D01*
X062290Y000866D01*
X062253Y000877D01*
X062217Y000891D01*
X062183Y000910D01*
X062151Y000931D01*
X062121Y000956D01*
X062094Y000983D01*
X062070Y001014D01*
X062050Y001046D01*
X062032Y001081D01*
X062019Y001117D01*
X062009Y001154D01*
X062003Y001192D01*
X062001Y001231D01*
X010412Y011073D02*
X010414Y011140D01*
X010420Y011207D01*
X010430Y011273D01*
X010443Y011339D01*
X010461Y011404D01*
X010482Y011467D01*
X010507Y011529D01*
X010536Y011590D01*
X010568Y011649D01*
X010603Y011706D01*
X010642Y011760D01*
X010684Y011813D01*
X010729Y011863D01*
X010777Y011910D01*
X010827Y011954D01*
X010880Y011995D01*
X010935Y012033D01*
X010993Y012068D01*
X011052Y012099D01*
X011113Y012126D01*
X011176Y012151D01*
X011240Y012171D01*
X011305Y012187D01*
X011370Y012200D01*
X011437Y012209D01*
X011504Y012214D01*
X011571Y012215D01*
X011638Y012212D01*
X011704Y012205D01*
X011771Y012194D01*
X011836Y012180D01*
X011901Y012161D01*
X011964Y012139D01*
X012026Y012113D01*
X012086Y012084D01*
X012144Y012051D01*
X012201Y012014D01*
X012255Y011975D01*
X012306Y011932D01*
X012356Y011886D01*
X012402Y011838D01*
X012445Y011787D01*
X012486Y011733D01*
X012523Y011678D01*
X012557Y011620D01*
X012587Y011560D01*
X012614Y011498D01*
X012637Y011435D01*
X012656Y011371D01*
X012672Y011306D01*
X012684Y011240D01*
X012692Y011173D01*
X012696Y011107D01*
X012696Y011039D01*
X012692Y010973D01*
X012684Y010906D01*
X012672Y010840D01*
X012656Y010775D01*
X012637Y010711D01*
X012614Y010648D01*
X012587Y010586D01*
X012557Y010526D01*
X012523Y010468D01*
X012486Y010413D01*
X012445Y010359D01*
X012402Y010308D01*
X012356Y010260D01*
X012306Y010214D01*
X012255Y010171D01*
X012201Y010132D01*
X012144Y010095D01*
X012086Y010062D01*
X012026Y010033D01*
X011964Y010007D01*
X011901Y009985D01*
X011836Y009966D01*
X011771Y009952D01*
X011704Y009941D01*
X011638Y009934D01*
X011571Y009931D01*
X011504Y009932D01*
X011437Y009937D01*
X011370Y009946D01*
X011305Y009959D01*
X011240Y009975D01*
X011176Y009995D01*
X011113Y010020D01*
X011052Y010047D01*
X010993Y010078D01*
X010935Y010113D01*
X010880Y010151D01*
X010827Y010192D01*
X010777Y010236D01*
X010729Y010283D01*
X010684Y010333D01*
X010642Y010386D01*
X010603Y010440D01*
X010568Y010497D01*
X010536Y010556D01*
X010507Y010617D01*
X010482Y010679D01*
X010461Y010742D01*
X010443Y010807D01*
X010430Y010873D01*
X010420Y010939D01*
X010414Y011006D01*
X010412Y011073D01*
X000455Y020121D02*
X000457Y020149D01*
X000463Y020176D01*
X000472Y020202D01*
X000485Y020227D01*
X000502Y020250D01*
X000521Y020270D01*
X000543Y020287D01*
X000567Y020301D01*
X000593Y020311D01*
X000620Y020318D01*
X000648Y020321D01*
X000676Y020320D01*
X000703Y020315D01*
X000730Y020306D01*
X000755Y020294D01*
X000778Y020279D01*
X000799Y020260D01*
X000817Y020239D01*
X000832Y020215D01*
X000843Y020189D01*
X000851Y020163D01*
X000855Y020135D01*
X000855Y020107D01*
X000851Y020079D01*
X000843Y020053D01*
X000832Y020027D01*
X000817Y020003D01*
X000799Y019982D01*
X000778Y019963D01*
X000755Y019948D01*
X000730Y019936D01*
X000703Y019927D01*
X000676Y019922D01*
X000648Y019921D01*
X000620Y019924D01*
X000593Y019931D01*
X000567Y019941D01*
X000543Y019955D01*
X000521Y019972D01*
X000502Y019992D01*
X000485Y020015D01*
X000472Y020040D01*
X000463Y020066D01*
X000457Y020093D01*
X000455Y020121D01*
X001080Y020246D02*
X001082Y020274D01*
X001088Y020301D01*
X001097Y020327D01*
X001110Y020352D01*
X001127Y020375D01*
X001146Y020395D01*
X001168Y020412D01*
X001192Y020426D01*
X001218Y020436D01*
X001245Y020443D01*
X001273Y020446D01*
X001301Y020445D01*
X001328Y020440D01*
X001355Y020431D01*
X001380Y020419D01*
X001403Y020404D01*
X001424Y020385D01*
X001442Y020364D01*
X001457Y020340D01*
X001468Y020314D01*
X001476Y020288D01*
X001480Y020260D01*
X001480Y020232D01*
X001476Y020204D01*
X001468Y020178D01*
X001457Y020152D01*
X001442Y020128D01*
X001424Y020107D01*
X001403Y020088D01*
X001380Y020073D01*
X001355Y020061D01*
X001328Y020052D01*
X001301Y020047D01*
X001273Y020046D01*
X001245Y020049D01*
X001218Y020056D01*
X001192Y020066D01*
X001168Y020080D01*
X001146Y020097D01*
X001127Y020117D01*
X001110Y020140D01*
X001097Y020165D01*
X001088Y020191D01*
X001082Y020218D01*
X001080Y020246D01*
X001580Y020496D02*
X001582Y020524D01*
X001588Y020551D01*
X001597Y020577D01*
X001610Y020602D01*
X001627Y020625D01*
X001646Y020645D01*
X001668Y020662D01*
X001692Y020676D01*
X001718Y020686D01*
X001745Y020693D01*
X001773Y020696D01*
X001801Y020695D01*
X001828Y020690D01*
X001855Y020681D01*
X001880Y020669D01*
X001903Y020654D01*
X001924Y020635D01*
X001942Y020614D01*
X001957Y020590D01*
X001968Y020564D01*
X001976Y020538D01*
X001980Y020510D01*
X001980Y020482D01*
X001976Y020454D01*
X001968Y020428D01*
X001957Y020402D01*
X001942Y020378D01*
X001924Y020357D01*
X001903Y020338D01*
X001880Y020323D01*
X001855Y020311D01*
X001828Y020302D01*
X001801Y020297D01*
X001773Y020296D01*
X001745Y020299D01*
X001718Y020306D01*
X001692Y020316D01*
X001668Y020330D01*
X001646Y020347D01*
X001627Y020367D01*
X001610Y020390D01*
X001597Y020415D01*
X001588Y020441D01*
X001582Y020468D01*
X001580Y020496D01*
X001830Y020996D02*
X001832Y021024D01*
X001838Y021051D01*
X001847Y021077D01*
X001860Y021102D01*
X001877Y021125D01*
X001896Y021145D01*
X001918Y021162D01*
X001942Y021176D01*
X001968Y021186D01*
X001995Y021193D01*
X002023Y021196D01*
X002051Y021195D01*
X002078Y021190D01*
X002105Y021181D01*
X002130Y021169D01*
X002153Y021154D01*
X002174Y021135D01*
X002192Y021114D01*
X002207Y021090D01*
X002218Y021064D01*
X002226Y021038D01*
X002230Y021010D01*
X002230Y020982D01*
X002226Y020954D01*
X002218Y020928D01*
X002207Y020902D01*
X002192Y020878D01*
X002174Y020857D01*
X002153Y020838D01*
X002130Y020823D01*
X002105Y020811D01*
X002078Y020802D01*
X002051Y020797D01*
X002023Y020796D01*
X001995Y020799D01*
X001968Y020806D01*
X001942Y020816D01*
X001918Y020830D01*
X001896Y020847D01*
X001877Y020867D01*
X001860Y020890D01*
X001847Y020915D01*
X001838Y020941D01*
X001832Y020968D01*
X001830Y020996D01*
X001830Y021496D02*
X001832Y021524D01*
X001838Y021551D01*
X001847Y021577D01*
X001860Y021602D01*
X001877Y021625D01*
X001896Y021645D01*
X001918Y021662D01*
X001942Y021676D01*
X001968Y021686D01*
X001995Y021693D01*
X002023Y021696D01*
X002051Y021695D01*
X002078Y021690D01*
X002105Y021681D01*
X002130Y021669D01*
X002153Y021654D01*
X002174Y021635D01*
X002192Y021614D01*
X002207Y021590D01*
X002218Y021564D01*
X002226Y021538D01*
X002230Y021510D01*
X002230Y021482D01*
X002226Y021454D01*
X002218Y021428D01*
X002207Y021402D01*
X002192Y021378D01*
X002174Y021357D01*
X002153Y021338D01*
X002130Y021323D01*
X002105Y021311D01*
X002078Y021302D01*
X002051Y021297D01*
X002023Y021296D01*
X001995Y021299D01*
X001968Y021306D01*
X001942Y021316D01*
X001918Y021330D01*
X001896Y021347D01*
X001877Y021367D01*
X001860Y021390D01*
X001847Y021415D01*
X001838Y021441D01*
X001832Y021468D01*
X001830Y021496D01*
X004433Y020916D02*
X004435Y020955D01*
X004441Y020993D01*
X004451Y021030D01*
X004464Y021066D01*
X004482Y021101D01*
X004502Y021133D01*
X004526Y021164D01*
X004553Y021191D01*
X004583Y021216D01*
X004615Y021237D01*
X004649Y021256D01*
X004685Y021270D01*
X004722Y021281D01*
X004760Y021288D01*
X004798Y021291D01*
X004837Y021290D01*
X004875Y021285D01*
X004913Y021276D01*
X004949Y021263D01*
X004984Y021247D01*
X005017Y021227D01*
X005048Y021204D01*
X005077Y021178D01*
X005102Y021149D01*
X005124Y021117D01*
X005143Y021084D01*
X005159Y021048D01*
X005171Y021012D01*
X005179Y020974D01*
X005183Y020935D01*
X005183Y020897D01*
X005179Y020858D01*
X005171Y020820D01*
X005159Y020784D01*
X005143Y020748D01*
X005124Y020715D01*
X005102Y020683D01*
X005077Y020654D01*
X005048Y020628D01*
X005017Y020605D01*
X004984Y020585D01*
X004949Y020569D01*
X004913Y020556D01*
X004875Y020547D01*
X004837Y020542D01*
X004798Y020541D01*
X004760Y020544D01*
X004722Y020551D01*
X004685Y020562D01*
X004649Y020576D01*
X004615Y020595D01*
X004583Y020616D01*
X004553Y020641D01*
X004526Y020668D01*
X004502Y020699D01*
X004482Y020731D01*
X004464Y020766D01*
X004451Y020802D01*
X004441Y020839D01*
X004435Y020877D01*
X004433Y020916D01*
X051057Y020916D02*
X051059Y020955D01*
X051065Y020993D01*
X051075Y021030D01*
X051088Y021066D01*
X051106Y021101D01*
X051126Y021133D01*
X051150Y021164D01*
X051177Y021191D01*
X051207Y021216D01*
X051239Y021237D01*
X051273Y021256D01*
X051309Y021270D01*
X051346Y021281D01*
X051384Y021288D01*
X051422Y021291D01*
X051461Y021290D01*
X051499Y021285D01*
X051537Y021276D01*
X051573Y021263D01*
X051608Y021247D01*
X051641Y021227D01*
X051672Y021204D01*
X051701Y021178D01*
X051726Y021149D01*
X051748Y021117D01*
X051767Y021084D01*
X051783Y021048D01*
X051795Y021012D01*
X051803Y020974D01*
X051807Y020935D01*
X051807Y020897D01*
X051803Y020858D01*
X051795Y020820D01*
X051783Y020784D01*
X051767Y020748D01*
X051748Y020715D01*
X051726Y020683D01*
X051701Y020654D01*
X051672Y020628D01*
X051641Y020605D01*
X051608Y020585D01*
X051573Y020569D01*
X051537Y020556D01*
X051499Y020547D01*
X051461Y020542D01*
X051422Y020541D01*
X051384Y020544D01*
X051346Y020551D01*
X051309Y020562D01*
X051273Y020576D01*
X051239Y020595D01*
X051207Y020616D01*
X051177Y020641D01*
X051150Y020668D01*
X051126Y020699D01*
X051106Y020731D01*
X051088Y020766D01*
X051075Y020802D01*
X051065Y020839D01*
X051059Y020877D01*
X051057Y020916D01*
X063655Y019105D02*
X063657Y019144D01*
X063663Y019182D01*
X063673Y019219D01*
X063686Y019255D01*
X063704Y019290D01*
X063724Y019322D01*
X063748Y019353D01*
X063775Y019380D01*
X063805Y019405D01*
X063837Y019426D01*
X063871Y019445D01*
X063907Y019459D01*
X063944Y019470D01*
X063982Y019477D01*
X064020Y019480D01*
X064059Y019479D01*
X064097Y019474D01*
X064135Y019465D01*
X064171Y019452D01*
X064206Y019436D01*
X064239Y019416D01*
X064270Y019393D01*
X064299Y019367D01*
X064324Y019338D01*
X064346Y019306D01*
X064365Y019273D01*
X064381Y019237D01*
X064393Y019201D01*
X064401Y019163D01*
X064405Y019124D01*
X064405Y019086D01*
X064401Y019047D01*
X064393Y019009D01*
X064381Y018973D01*
X064365Y018937D01*
X064346Y018904D01*
X064324Y018872D01*
X064299Y018843D01*
X064270Y018817D01*
X064239Y018794D01*
X064206Y018774D01*
X064171Y018758D01*
X064135Y018745D01*
X064097Y018736D01*
X064059Y018731D01*
X064020Y018730D01*
X063982Y018733D01*
X063944Y018740D01*
X063907Y018751D01*
X063871Y018765D01*
X063837Y018784D01*
X063805Y018805D01*
X063775Y018830D01*
X063748Y018857D01*
X063724Y018888D01*
X063704Y018920D01*
X063686Y018955D01*
X063673Y018991D01*
X063663Y019028D01*
X063657Y019066D01*
X063655Y019105D01*
D11*
X022780Y006621D02*
X022749Y006627D01*
X022718Y006629D01*
X022687Y006627D01*
X022656Y006622D01*
X022626Y006612D01*
X022598Y006600D01*
X022571Y006584D01*
X022546Y006564D01*
X022524Y006542D01*
X022505Y006518D01*
X022489Y006491D01*
X022476Y006463D01*
X022467Y006433D01*
X022461Y006402D01*
X022459Y006371D01*
X022461Y006340D01*
X022467Y006309D01*
X022476Y006279D01*
X022489Y006251D01*
X022505Y006224D01*
X022524Y006200D01*
X022546Y006178D01*
X022571Y006158D01*
X022598Y006142D01*
X022626Y006130D01*
X022656Y006120D01*
X022687Y006115D01*
X022718Y006113D01*
X022749Y006115D01*
X022780Y006121D01*
X012280Y005371D02*
X012250Y005384D01*
X012219Y005394D01*
X012187Y005399D01*
X012155Y005401D01*
X012122Y005399D01*
X012090Y005393D01*
X012059Y005384D01*
X012029Y005371D01*
X012001Y005355D01*
X011975Y005335D01*
X011951Y005313D01*
X011930Y005288D01*
X011912Y005261D01*
X011898Y005232D01*
X011887Y005201D01*
X011879Y005170D01*
X011875Y005137D01*
X011875Y005105D01*
X011879Y005072D01*
X011887Y005041D01*
X011898Y005010D01*
X011912Y004981D01*
X011930Y004954D01*
X011951Y004929D01*
X011975Y004907D01*
X012001Y004887D01*
X012029Y004871D01*
X012059Y004858D01*
X012090Y004849D01*
X012122Y004843D01*
X012155Y004841D01*
X012187Y004843D01*
X012219Y004848D01*
X012250Y004858D01*
X012280Y004871D01*
D12*
X012734Y004698D02*
X012964Y004545D01*
X012734Y004391D01*
X012964Y004391D02*
X012964Y004852D01*
X013118Y004775D02*
X013425Y004468D01*
X013348Y004391D01*
X013194Y004391D01*
X013118Y004468D01*
X013118Y004775D01*
X013194Y004852D01*
X013348Y004852D01*
X013425Y004775D01*
X013425Y004468D01*
X013578Y004391D02*
X013885Y004391D01*
X013732Y004391D02*
X013732Y004852D01*
X013885Y004698D01*
X012260Y005266D02*
X011953Y005266D01*
X011800Y005266D02*
X011800Y005727D01*
X011646Y005573D01*
X011493Y005727D01*
X011493Y005266D01*
X011339Y005266D02*
X011032Y005573D01*
X011032Y005650D01*
X011109Y005727D01*
X011262Y005727D01*
X011339Y005650D01*
X010879Y005650D02*
X010879Y005573D01*
X010802Y005497D01*
X010572Y005497D01*
X010572Y005650D02*
X010572Y005343D01*
X010649Y005266D01*
X010802Y005266D01*
X010879Y005343D01*
X011032Y005266D02*
X011339Y005266D01*
X012260Y005266D02*
X012260Y005727D01*
X012609Y005891D02*
X012839Y006045D01*
X012609Y006198D01*
X012839Y006352D02*
X012839Y005891D01*
X012993Y005968D02*
X013069Y005891D01*
X013223Y005891D01*
X013300Y005968D01*
X012993Y006275D01*
X012993Y005968D01*
X013300Y005968D02*
X013300Y006275D01*
X013223Y006352D01*
X013069Y006352D01*
X012993Y006275D01*
X013607Y006352D02*
X013607Y005891D01*
X013760Y005891D02*
X013453Y005891D01*
X013760Y006198D02*
X013607Y006352D01*
X010879Y005650D02*
X010802Y005727D01*
X010649Y005727D01*
X010572Y005650D01*
X010418Y005650D02*
X010342Y005727D01*
X010188Y005727D01*
X010112Y005650D01*
X010418Y005343D01*
X010342Y005266D01*
X010188Y005266D01*
X010112Y005343D01*
X010112Y005650D01*
X009958Y005497D02*
X009728Y005727D01*
X009728Y005266D01*
X009651Y005497D02*
X009958Y005497D01*
X010418Y005650D02*
X010418Y005343D01*
X009635Y005766D02*
X009328Y005766D01*
X009482Y005766D02*
X009482Y006227D01*
X009635Y006073D01*
X009175Y006150D02*
X009098Y006227D01*
X008944Y006227D01*
X008868Y006150D01*
X009175Y005843D01*
X009098Y005766D01*
X008944Y005766D01*
X008868Y005843D01*
X008868Y006150D01*
X008714Y006227D02*
X008714Y005766D01*
X008714Y005920D02*
X008484Y006073D01*
X008714Y005920D02*
X008484Y005766D01*
X009175Y005843D02*
X009175Y006150D01*
X005806Y005852D02*
X005806Y005391D01*
X005576Y005391D01*
X005499Y005468D01*
X005499Y005775D01*
X005576Y005852D01*
X005806Y005852D01*
X005345Y005622D02*
X005038Y005622D01*
X005115Y005852D02*
X005115Y005391D01*
X005345Y005622D02*
X005115Y005852D01*
X005115Y006641D02*
X005269Y006641D01*
X005345Y006718D01*
X005499Y006718D02*
X005499Y007025D01*
X005576Y007102D01*
X005806Y007102D01*
X005806Y006641D01*
X005576Y006641D01*
X005499Y006718D01*
X005192Y006872D02*
X005115Y006872D01*
X005038Y006795D01*
X005038Y006718D01*
X005115Y006641D01*
X005115Y006872D02*
X005038Y006948D01*
X005038Y007025D01*
X005115Y007102D01*
X005269Y007102D01*
X005345Y007025D01*
X005269Y008016D02*
X005115Y008016D01*
X005038Y008093D01*
X005038Y008400D01*
X005115Y008477D01*
X005269Y008477D01*
X005345Y008400D01*
X005345Y008323D01*
X005269Y008247D01*
X005038Y008247D01*
X005269Y008016D02*
X005345Y008093D01*
X005499Y008093D02*
X005499Y008400D01*
X005576Y008477D01*
X005806Y008477D01*
X005806Y008016D01*
X005576Y008016D01*
X005499Y008093D01*
X013618Y007766D02*
X013925Y007766D01*
X013771Y007766D02*
X013771Y008227D01*
X013925Y008073D01*
X014078Y008227D02*
X014385Y008227D01*
X014232Y008227D02*
X014232Y007766D01*
X017024Y007323D02*
X017254Y007170D01*
X017024Y007016D01*
X017254Y007016D02*
X017254Y007477D01*
X017407Y007400D02*
X017714Y007093D01*
X017637Y007016D01*
X017484Y007016D01*
X017407Y007093D01*
X017407Y007400D01*
X017484Y007477D01*
X017637Y007477D01*
X017714Y007400D01*
X017714Y007093D01*
X017868Y007093D02*
X017944Y007016D01*
X018098Y007016D01*
X018175Y007093D01*
X017868Y007400D01*
X017868Y007093D01*
X018175Y007093D02*
X018175Y007400D01*
X018098Y007477D01*
X017944Y007477D01*
X017868Y007400D01*
X018482Y007477D02*
X018482Y007016D01*
X018635Y007016D02*
X018328Y007016D01*
X018524Y007391D02*
X018754Y007545D01*
X018524Y007698D01*
X018482Y007477D02*
X018635Y007323D01*
X018754Y007391D02*
X018754Y007852D01*
X018907Y007775D02*
X019214Y007468D01*
X019137Y007391D01*
X018984Y007391D01*
X018907Y007468D01*
X018907Y007775D01*
X018984Y007852D01*
X019137Y007852D01*
X019214Y007775D01*
X019214Y007468D01*
X019368Y007468D02*
X019444Y007391D01*
X019598Y007391D01*
X019675Y007468D01*
X019368Y007775D01*
X019368Y007468D01*
X019675Y007468D02*
X019675Y007775D01*
X019598Y007852D01*
X019444Y007852D01*
X019368Y007775D01*
X019982Y007852D02*
X019982Y007391D01*
X020135Y007391D02*
X019828Y007391D01*
X020135Y007698D02*
X019982Y007852D01*
X020103Y006927D02*
X020333Y006927D01*
X020333Y006466D01*
X020103Y006466D01*
X020026Y006543D01*
X020026Y006850D01*
X020103Y006927D01*
X020487Y006850D02*
X020563Y006927D01*
X020717Y006927D01*
X020793Y006850D01*
X020947Y006850D02*
X021254Y006543D01*
X021254Y006466D01*
X021407Y006543D02*
X021407Y006850D01*
X021714Y006543D01*
X021637Y006466D01*
X021484Y006466D01*
X021407Y006543D01*
X021407Y006850D02*
X021484Y006927D01*
X021637Y006927D01*
X021714Y006850D01*
X021714Y006543D01*
X021868Y006466D02*
X022175Y006466D01*
X022175Y006927D01*
X022328Y006927D02*
X022635Y006927D01*
X022482Y006927D02*
X022482Y006466D01*
X021254Y006927D02*
X020947Y006927D01*
X020947Y006850D01*
X020793Y006466D02*
X020487Y006466D01*
X020793Y006466D02*
X020487Y006773D01*
X020487Y006850D01*
X020323Y005852D02*
X020323Y005391D01*
X020170Y005391D02*
X020477Y005391D01*
X020477Y005698D02*
X020323Y005852D01*
X020016Y005775D02*
X019939Y005852D01*
X019786Y005852D01*
X019709Y005775D01*
X020016Y005468D01*
X019939Y005391D01*
X019786Y005391D01*
X019709Y005468D01*
X019709Y005775D01*
X019556Y005775D02*
X019479Y005852D01*
X019326Y005852D01*
X019249Y005775D01*
X019556Y005468D01*
X019479Y005391D01*
X019326Y005391D01*
X019249Y005468D01*
X019249Y005775D01*
X019095Y005698D02*
X019095Y005468D01*
X019019Y005391D01*
X018788Y005391D01*
X018788Y005698D01*
X018477Y005698D02*
X018323Y005852D01*
X018323Y005391D01*
X018170Y005391D02*
X018477Y005391D01*
X018016Y005468D02*
X017709Y005775D01*
X017709Y005468D01*
X017786Y005391D01*
X017939Y005391D01*
X018016Y005468D01*
X018016Y005775D01*
X017939Y005852D01*
X017786Y005852D01*
X017709Y005775D01*
X017556Y005775D02*
X017479Y005852D01*
X017326Y005852D01*
X017249Y005775D01*
X017556Y005468D01*
X017479Y005391D01*
X017326Y005391D01*
X017249Y005468D01*
X017249Y005775D01*
X017095Y005698D02*
X017095Y005468D01*
X017019Y005391D01*
X016788Y005391D01*
X016788Y005698D01*
X017556Y005775D02*
X017556Y005468D01*
X019556Y005468D02*
X019556Y005775D01*
X020016Y005775D02*
X020016Y005468D01*
X021484Y004823D02*
X021714Y004670D01*
X021484Y004516D01*
X021714Y004516D02*
X021714Y004977D01*
X021868Y004900D02*
X022175Y004593D01*
X022098Y004516D01*
X021944Y004516D01*
X021868Y004593D01*
X021868Y004900D01*
X021944Y004977D01*
X022098Y004977D01*
X022175Y004900D01*
X022175Y004593D01*
X022328Y004516D02*
X022635Y004516D01*
X022482Y004516D02*
X022482Y004977D01*
X022635Y004823D01*
X022734Y004766D02*
X022964Y004920D01*
X022734Y005073D01*
X022964Y005227D02*
X022964Y004766D01*
X023118Y005150D02*
X023425Y004843D01*
X023425Y004766D01*
X023578Y004766D02*
X023885Y004766D01*
X023578Y005073D01*
X023578Y005150D01*
X023655Y005227D01*
X023808Y005227D01*
X023885Y005150D01*
X023425Y005227D02*
X023118Y005227D01*
X023118Y005150D01*
X022076Y003852D02*
X022076Y003391D01*
X022229Y003391D02*
X021922Y003391D01*
X021769Y003391D02*
X021769Y003852D01*
X021538Y003698D02*
X021769Y003545D01*
X021538Y003391D01*
X022076Y003852D02*
X022229Y003698D01*
X023894Y002727D02*
X023894Y002266D01*
X023894Y002420D02*
X023663Y002573D01*
X023894Y002420D02*
X023663Y002266D01*
X024047Y002343D02*
X024047Y002650D01*
X024354Y002343D01*
X024277Y002266D01*
X024124Y002266D01*
X024047Y002343D01*
X024354Y002343D02*
X024354Y002650D01*
X024277Y002727D01*
X024124Y002727D01*
X024047Y002650D01*
X024508Y002266D02*
X024814Y002266D01*
X024661Y002266D02*
X024661Y002727D01*
X024814Y002573D01*
X022564Y002525D02*
X022488Y002602D01*
X022334Y002602D01*
X022258Y002525D01*
X022258Y002448D01*
X022564Y002141D01*
X022258Y002141D01*
X022104Y002141D02*
X022104Y002218D01*
X021797Y002525D01*
X021797Y002602D01*
X022104Y002602D01*
X021644Y002602D02*
X021644Y002141D01*
X021644Y002295D02*
X021413Y002141D01*
X021644Y002295D02*
X021413Y002448D01*
X019939Y002641D02*
X019633Y002641D01*
X019786Y002641D02*
X019786Y003102D01*
X019939Y002948D01*
X019479Y003025D02*
X019402Y003102D01*
X019249Y003102D01*
X019172Y003025D01*
X019479Y002718D01*
X019402Y002641D01*
X019249Y002641D01*
X019172Y002718D01*
X019172Y003025D01*
X019019Y003102D02*
X019019Y002641D01*
X019019Y002795D02*
X018788Y002948D01*
X019019Y002795D02*
X018788Y002641D01*
X019479Y002718D02*
X019479Y003025D01*
X017360Y002102D02*
X017053Y002102D01*
X017207Y002102D02*
X017207Y001641D01*
X016900Y001872D02*
X016593Y001872D01*
X016669Y002102D02*
X016669Y001641D01*
X016900Y001872D02*
X016669Y002102D01*
X013645Y003122D02*
X013338Y003122D01*
X013184Y002968D02*
X013108Y002968D01*
X013108Y002891D01*
X013184Y002891D01*
X013184Y002968D01*
X012954Y002968D02*
X012647Y003275D01*
X012647Y003352D01*
X012954Y003352D01*
X012494Y003352D02*
X012494Y002891D01*
X012494Y003045D02*
X012263Y003198D01*
X012494Y003045D02*
X012263Y002891D01*
X012954Y002891D02*
X012954Y002968D01*
X013414Y002891D02*
X013414Y003352D01*
X013645Y003122D01*
X010260Y003372D02*
X009953Y003372D01*
X009800Y003218D02*
X009723Y003218D01*
X009723Y003141D01*
X009800Y003141D01*
X009800Y003218D01*
X009569Y003218D02*
X009262Y003525D01*
X009262Y003602D01*
X009569Y003602D01*
X010030Y003602D02*
X010260Y003372D01*
X010030Y003141D02*
X010030Y003602D01*
X009109Y003448D02*
X009109Y003218D01*
X009032Y003141D01*
X008802Y003141D01*
X008802Y003448D01*
X009569Y003218D02*
X009569Y003141D01*
X005806Y003352D02*
X005806Y002891D01*
X005576Y002891D01*
X005499Y002968D01*
X005499Y003275D01*
X005576Y003352D01*
X005806Y003352D01*
X005345Y003122D02*
X005115Y003122D01*
X005038Y003045D01*
X005038Y002968D01*
X005115Y002891D01*
X005269Y002891D01*
X005345Y002968D01*
X005345Y003122D01*
X005192Y003275D01*
X005038Y003352D01*
X005115Y004141D02*
X005269Y004141D01*
X005345Y004218D01*
X005345Y004372D02*
X005192Y004448D01*
X005115Y004448D01*
X005038Y004372D01*
X005038Y004218D01*
X005115Y004141D01*
X005345Y004372D02*
X005345Y004602D01*
X005038Y004602D01*
X005499Y004525D02*
X005499Y004218D01*
X005576Y004141D01*
X005806Y004141D01*
X005806Y004602D01*
X005576Y004602D01*
X005499Y004525D01*
X019484Y010391D02*
X019714Y010545D01*
X019484Y010698D01*
X019714Y010852D02*
X019714Y010391D01*
X019868Y010775D02*
X020175Y010468D01*
X020175Y010391D01*
X020328Y010391D02*
X020635Y010391D01*
X020328Y010698D01*
X020328Y010775D01*
X020405Y010852D01*
X020558Y010852D01*
X020635Y010775D01*
X020984Y010698D02*
X021214Y010545D01*
X020984Y010391D01*
X021214Y010391D02*
X021214Y010852D01*
X021368Y010852D02*
X021368Y010775D01*
X021675Y010468D01*
X021675Y010391D01*
X021828Y010391D02*
X022135Y010391D01*
X021828Y010698D01*
X021828Y010775D01*
X021905Y010852D01*
X022058Y010852D01*
X022135Y010775D01*
X021675Y010852D02*
X021368Y010852D01*
X020175Y010852D02*
X019868Y010852D01*
X019868Y010775D01*
X019010Y010891D02*
X018703Y010891D01*
X018550Y010891D02*
X018550Y011352D01*
X018319Y011198D02*
X018550Y011045D01*
X018319Y010891D01*
X018857Y010891D02*
X018857Y011352D01*
X019010Y011198D01*
X022072Y012016D02*
X022072Y012247D01*
X022149Y012323D01*
X022379Y012323D01*
X022379Y012016D01*
X022532Y012093D02*
X022609Y012016D01*
X022762Y012016D01*
X022839Y012093D01*
X022532Y012400D01*
X022532Y012093D01*
X022532Y012400D02*
X022609Y012477D01*
X022762Y012477D01*
X022839Y012400D01*
X022839Y012093D01*
X022993Y012093D02*
X023069Y012016D01*
X023223Y012016D01*
X023300Y012093D01*
X022993Y012400D01*
X022993Y012093D01*
X023300Y012093D02*
X023300Y012400D01*
X023223Y012477D01*
X023069Y012477D01*
X022993Y012400D01*
X023453Y012016D02*
X023760Y012016D01*
X023607Y012016D02*
X023607Y012477D01*
X023760Y012323D01*
X025720Y013016D02*
X025720Y013093D01*
X025413Y013400D01*
X025413Y013477D01*
X025720Y013477D01*
X025874Y013400D02*
X025951Y013477D01*
X026181Y013477D01*
X026181Y013016D01*
X025951Y013016D01*
X025874Y013093D01*
X025874Y013400D01*
X025951Y014891D02*
X025874Y014968D01*
X025874Y015275D01*
X025951Y015352D01*
X026181Y015352D01*
X026181Y014891D01*
X025951Y014891D01*
X025720Y014891D02*
X025413Y014891D01*
X025567Y014891D02*
X025567Y015352D01*
X025720Y015198D01*
X025720Y016391D02*
X025413Y016698D01*
X025413Y016775D01*
X025490Y016852D01*
X025644Y016852D01*
X025720Y016775D01*
X025874Y016775D02*
X025951Y016852D01*
X026181Y016852D01*
X026181Y016391D01*
X025951Y016391D01*
X025874Y016468D01*
X025874Y016775D01*
X025720Y016391D02*
X025413Y016391D01*
X032788Y015323D02*
X033019Y015170D01*
X032788Y015016D01*
X033019Y015016D02*
X033019Y015477D01*
X033172Y015400D02*
X033479Y015093D01*
X033402Y015016D01*
X033249Y015016D01*
X033172Y015093D01*
X033172Y015400D01*
X033249Y015477D01*
X033402Y015477D01*
X033479Y015400D01*
X033479Y015093D01*
X033633Y015016D02*
X033939Y015016D01*
X033786Y015016D02*
X033786Y015477D01*
X033939Y015323D01*
X036109Y014823D02*
X036339Y014670D01*
X036109Y014516D01*
X036339Y014516D02*
X036339Y014977D01*
X036493Y014900D02*
X036800Y014593D01*
X036723Y014516D01*
X036569Y014516D01*
X036493Y014593D01*
X036493Y014900D01*
X036569Y014977D01*
X036723Y014977D01*
X036800Y014900D01*
X036800Y014593D01*
X036953Y014516D02*
X037260Y014516D01*
X037107Y014516D02*
X037107Y014977D01*
X037260Y014823D01*
X034931Y013727D02*
X034624Y013727D01*
X034777Y013727D02*
X034777Y013266D01*
X034470Y013266D02*
X034470Y013343D01*
X034163Y013650D01*
X034163Y013727D01*
X034470Y013727D01*
X032681Y012602D02*
X032374Y012602D01*
X032527Y012602D02*
X032527Y012141D01*
X032220Y012218D02*
X032220Y012295D01*
X032144Y012372D01*
X031990Y012372D01*
X031913Y012295D01*
X031913Y012218D01*
X031990Y012141D01*
X032144Y012141D01*
X032220Y012218D01*
X032144Y012372D02*
X032220Y012448D01*
X032220Y012525D01*
X032144Y012602D01*
X031990Y012602D01*
X031913Y012525D01*
X031913Y012448D01*
X031990Y012372D01*
X033788Y012198D02*
X034019Y012045D01*
X033788Y011891D01*
X034019Y011891D02*
X034019Y012352D01*
X034172Y012275D02*
X034479Y011968D01*
X034402Y011891D01*
X034249Y011891D01*
X034172Y011968D01*
X034172Y012275D01*
X034249Y012352D01*
X034402Y012352D01*
X034479Y012275D01*
X034479Y011968D01*
X034633Y011891D02*
X034939Y011891D01*
X034786Y011891D02*
X034786Y012352D01*
X034939Y012198D01*
X035519Y011227D02*
X035519Y010766D01*
X035519Y010920D02*
X035288Y010766D01*
X035519Y010920D02*
X035288Y011073D01*
X035672Y011150D02*
X035979Y010843D01*
X035902Y010766D01*
X035749Y010766D01*
X035672Y010843D01*
X035672Y011150D01*
X035749Y011227D01*
X035902Y011227D01*
X035979Y011150D01*
X035979Y010843D01*
X036133Y010766D02*
X036439Y010766D01*
X036286Y010766D02*
X036286Y011227D01*
X036439Y011073D01*
X034931Y010852D02*
X034624Y010852D01*
X034777Y010852D02*
X034777Y010391D01*
X034470Y010468D02*
X034394Y010391D01*
X034240Y010391D01*
X034163Y010468D01*
X034163Y010775D01*
X034240Y010852D01*
X034394Y010852D01*
X034470Y010775D01*
X034470Y010698D01*
X034394Y010622D01*
X034163Y010622D01*
X032516Y009977D02*
X032209Y009977D01*
X032363Y009977D02*
X032363Y009516D01*
X032056Y009516D02*
X031749Y009516D01*
X031902Y009516D02*
X031902Y009977D01*
X032056Y009823D01*
X031595Y009900D02*
X031595Y009593D01*
X031288Y009900D01*
X031288Y009593D01*
X031365Y009516D01*
X031519Y009516D01*
X031595Y009593D01*
X031595Y009900D02*
X031519Y009977D01*
X031365Y009977D01*
X031288Y009900D01*
X033663Y009448D02*
X033894Y009295D01*
X033663Y009141D01*
X033894Y009141D02*
X033894Y009602D01*
X034047Y009525D02*
X034124Y009602D01*
X034277Y009602D01*
X034354Y009525D01*
X034354Y009218D01*
X034047Y009525D01*
X034047Y009218D01*
X034124Y009141D01*
X034277Y009141D01*
X034354Y009218D01*
X034508Y009141D02*
X034814Y009141D01*
X034661Y009141D02*
X034661Y009602D01*
X034814Y009448D01*
X035769Y008477D02*
X035769Y008016D01*
X035769Y008170D02*
X035538Y008323D01*
X035769Y008170D02*
X035538Y008016D01*
X035922Y008093D02*
X035922Y008400D01*
X036229Y008093D01*
X036152Y008016D01*
X035999Y008016D01*
X035922Y008093D01*
X036229Y008093D02*
X036229Y008400D01*
X036152Y008477D01*
X035999Y008477D01*
X035922Y008400D01*
X036383Y008016D02*
X036689Y008016D01*
X036536Y008016D02*
X036536Y008477D01*
X036689Y008323D01*
X034891Y008227D02*
X034584Y008227D01*
X034738Y008227D02*
X034738Y007766D01*
X034431Y007766D02*
X034124Y007766D01*
X034277Y007766D02*
X034277Y008227D01*
X034431Y008073D01*
X033970Y008073D02*
X033817Y008227D01*
X033817Y007766D01*
X033970Y007766D02*
X033663Y007766D01*
X034269Y006727D02*
X034269Y006266D01*
X034269Y006420D02*
X034038Y006573D01*
X034269Y006420D02*
X034038Y006266D01*
X034422Y006343D02*
X034499Y006266D01*
X034652Y006266D01*
X034729Y006343D01*
X034422Y006650D01*
X034422Y006343D01*
X034729Y006343D02*
X034729Y006650D01*
X034652Y006727D01*
X034499Y006727D01*
X034422Y006650D01*
X035036Y006727D02*
X035189Y006573D01*
X035036Y006727D02*
X035036Y006266D01*
X035189Y006266D02*
X034883Y006266D01*
X036513Y005573D02*
X036744Y005420D01*
X036513Y005266D01*
X036744Y005266D02*
X036744Y005727D01*
X036897Y005727D02*
X036897Y005650D01*
X037204Y005343D01*
X037204Y005266D01*
X037358Y005266D02*
X037434Y005266D01*
X037434Y005343D01*
X037358Y005343D01*
X037358Y005266D01*
X037588Y005266D02*
X037895Y005266D01*
X037588Y005573D01*
X037588Y005650D01*
X037664Y005727D01*
X037818Y005727D01*
X037895Y005650D01*
X037204Y005727D02*
X036897Y005727D01*
X041245Y005718D02*
X041322Y005641D01*
X041245Y005718D02*
X041245Y005871D01*
X041322Y005948D01*
X041399Y005948D01*
X041475Y005871D01*
X041475Y005794D01*
X041475Y005871D02*
X041552Y005948D01*
X041629Y005948D01*
X041706Y005871D01*
X041706Y005718D01*
X041629Y005641D01*
X041706Y005487D02*
X041706Y005180D01*
X041475Y005180D01*
X041552Y005334D01*
X041552Y005411D01*
X041475Y005487D01*
X041322Y005487D01*
X041245Y005411D01*
X041245Y005257D01*
X041322Y005180D01*
X041245Y005027D02*
X041399Y004873D01*
X041399Y004950D02*
X041399Y004720D01*
X041245Y004720D02*
X041706Y004720D01*
X041706Y004950D01*
X041629Y005027D01*
X041475Y005027D01*
X041399Y004950D01*
X042803Y005122D02*
X042879Y005045D01*
X043033Y005045D01*
X043109Y005122D01*
X043109Y005275D02*
X042956Y005352D01*
X042879Y005352D01*
X042803Y005275D01*
X042803Y005122D01*
X043109Y005275D02*
X043109Y005505D01*
X042803Y005505D01*
X043416Y005505D02*
X043416Y005045D01*
X043263Y005045D02*
X043570Y005045D01*
X043877Y005045D02*
X043877Y005505D01*
X044030Y005505D02*
X043723Y005505D01*
X043570Y005352D02*
X043416Y005505D01*
X043820Y005989D02*
X044281Y005989D01*
X044281Y006219D01*
X044204Y006296D01*
X044050Y006296D01*
X043974Y006219D01*
X043974Y005989D01*
X043974Y006142D02*
X043820Y006296D01*
X043897Y006449D02*
X043820Y006526D01*
X043820Y006679D01*
X043897Y006756D01*
X044050Y006756D01*
X044127Y006679D01*
X044127Y006603D01*
X044050Y006449D01*
X044281Y006449D01*
X044281Y006756D01*
X044509Y006820D02*
X044739Y006973D01*
X044509Y007127D01*
X044281Y007217D02*
X044204Y007063D01*
X044050Y006910D01*
X044050Y007140D01*
X043974Y007217D01*
X043897Y007217D01*
X043820Y007140D01*
X043820Y006986D01*
X043897Y006910D01*
X044050Y006910D01*
X043877Y007316D02*
X044031Y007469D01*
X043570Y007469D01*
X043570Y007316D02*
X043570Y007622D01*
X043647Y007776D02*
X043954Y008083D01*
X043647Y008083D01*
X043570Y008006D01*
X043570Y007853D01*
X043647Y007776D01*
X043954Y007776D01*
X044031Y007853D01*
X044031Y008006D01*
X043954Y008083D01*
X044031Y008236D02*
X043570Y008236D01*
X043611Y008198D02*
X043381Y008198D01*
X043305Y008275D01*
X043305Y008429D01*
X043381Y008505D01*
X043611Y008505D01*
X043611Y008045D01*
X043458Y008198D02*
X043305Y008045D01*
X043151Y008122D02*
X043074Y008045D01*
X042921Y008045D01*
X042844Y008122D01*
X042844Y008275D01*
X042921Y008352D01*
X042998Y008352D01*
X043151Y008275D01*
X043151Y008505D01*
X042844Y008505D01*
X042691Y008275D02*
X042384Y008275D01*
X042460Y008045D02*
X042460Y008505D01*
X042691Y008275D01*
X041986Y008247D02*
X041910Y008170D01*
X041756Y008170D01*
X041680Y008247D01*
X041680Y008323D01*
X041756Y008400D01*
X041833Y008400D01*
X041756Y008400D02*
X041680Y008477D01*
X041680Y008554D01*
X041756Y008630D01*
X041910Y008630D01*
X041986Y008554D01*
X041526Y008554D02*
X041526Y008477D01*
X041449Y008400D01*
X041219Y008400D01*
X041219Y008247D02*
X041219Y008554D01*
X041296Y008630D01*
X041449Y008630D01*
X041526Y008554D01*
X041526Y008247D02*
X041449Y008170D01*
X041296Y008170D01*
X041219Y008247D01*
X041066Y008247D02*
X040759Y008554D01*
X040759Y008247D01*
X040835Y008170D01*
X040989Y008170D01*
X041066Y008247D01*
X041066Y008554D01*
X040989Y008630D01*
X040835Y008630D01*
X040759Y008554D01*
X041322Y007323D02*
X041245Y007246D01*
X041245Y007093D01*
X041322Y007016D01*
X041629Y007323D01*
X041322Y007323D01*
X041629Y007323D02*
X041706Y007246D01*
X041706Y007093D01*
X041629Y007016D01*
X041322Y007016D01*
X041322Y006862D02*
X041629Y006862D01*
X041706Y006786D01*
X041706Y006632D01*
X041629Y006555D01*
X041552Y006555D01*
X041475Y006632D01*
X041475Y006862D01*
X041322Y006862D02*
X041245Y006786D01*
X041245Y006632D01*
X041322Y006555D01*
X041322Y006402D02*
X041245Y006325D01*
X041245Y006172D01*
X041322Y006095D01*
X041475Y006248D02*
X041475Y006325D01*
X041399Y006402D01*
X041322Y006402D01*
X041475Y006325D02*
X041552Y006402D01*
X041629Y006402D01*
X041706Y006325D01*
X041706Y006172D01*
X041629Y006095D01*
X044739Y006820D02*
X044739Y007280D01*
X044892Y007204D02*
X045199Y006897D01*
X045123Y006820D01*
X044969Y006820D01*
X044892Y006897D01*
X044892Y007204D01*
X044969Y007280D01*
X045123Y007280D01*
X045199Y007204D01*
X045199Y006897D01*
X045353Y006820D02*
X045660Y006820D01*
X045506Y006820D02*
X045506Y007280D01*
X045660Y007127D01*
X046009Y007050D02*
X046009Y006897D01*
X046085Y006820D01*
X046239Y006820D01*
X046316Y006897D01*
X046469Y006897D02*
X046546Y006820D01*
X046699Y006820D01*
X046776Y006897D01*
X046776Y007050D02*
X046623Y007127D01*
X046546Y007127D01*
X046469Y007050D01*
X046469Y006897D01*
X046316Y007050D02*
X046162Y007127D01*
X046085Y007127D01*
X046009Y007050D01*
X046009Y007280D02*
X046316Y007280D01*
X046316Y007050D01*
X046469Y007280D02*
X046776Y007280D01*
X046776Y007050D01*
X046930Y007050D02*
X047006Y006973D01*
X047236Y006973D01*
X047236Y006820D02*
X047236Y007280D01*
X047006Y007280D01*
X046930Y007204D01*
X046930Y007050D01*
X047083Y006973D02*
X046930Y006820D01*
X048404Y007170D02*
X048634Y007323D01*
X048404Y007477D01*
X048634Y007630D02*
X048634Y007170D01*
X048788Y007247D02*
X048865Y007170D01*
X049018Y007170D01*
X049095Y007247D01*
X048788Y007554D01*
X048788Y007247D01*
X049095Y007247D02*
X049095Y007554D01*
X049018Y007630D01*
X048865Y007630D01*
X048788Y007554D01*
X049402Y007630D02*
X049555Y007477D01*
X049402Y007630D02*
X049402Y007170D01*
X049555Y007170D02*
X049248Y007170D01*
X051195Y007547D02*
X051272Y007470D01*
X051195Y007547D02*
X051195Y007700D01*
X051272Y007777D01*
X051349Y007777D01*
X051425Y007700D01*
X051425Y007623D01*
X051425Y007700D02*
X051502Y007777D01*
X051579Y007777D01*
X051656Y007700D01*
X051656Y007547D01*
X051579Y007470D01*
X051579Y007930D02*
X051502Y007930D01*
X051425Y008007D01*
X051425Y008237D01*
X051272Y008237D02*
X051579Y008237D01*
X051656Y008161D01*
X051656Y008007D01*
X051579Y007930D01*
X051272Y007930D02*
X051195Y008007D01*
X051195Y008161D01*
X051272Y008237D01*
X051272Y008391D02*
X051579Y008698D01*
X051272Y008698D01*
X051195Y008621D01*
X051195Y008468D01*
X051272Y008391D01*
X051579Y008391D01*
X051656Y008468D01*
X051656Y008621D01*
X051579Y008698D01*
X052320Y008797D02*
X052320Y008950D01*
X052397Y009027D01*
X052474Y009027D01*
X052550Y008950D01*
X052550Y008873D01*
X052550Y008950D02*
X052627Y009027D01*
X052704Y009027D01*
X052781Y008950D01*
X052781Y008797D01*
X052704Y008720D01*
X052397Y008720D02*
X052320Y008797D01*
X052397Y009180D02*
X052320Y009257D01*
X052320Y009411D01*
X052397Y009487D01*
X052704Y009487D01*
X052781Y009411D01*
X052781Y009257D01*
X052704Y009180D01*
X052627Y009180D01*
X052550Y009257D01*
X052550Y009487D01*
X052397Y009641D02*
X052704Y009948D01*
X052397Y009948D01*
X052320Y009871D01*
X052320Y009718D01*
X052397Y009641D01*
X052704Y009641D01*
X052781Y009718D01*
X052781Y009871D01*
X052704Y009948D01*
X053195Y010095D02*
X053656Y010095D01*
X053656Y010325D01*
X053579Y010402D01*
X053425Y010402D01*
X053349Y010325D01*
X053349Y010095D01*
X053349Y010248D02*
X053195Y010402D01*
X053272Y010555D02*
X053195Y010632D01*
X053195Y010786D01*
X053272Y010862D01*
X053425Y010862D01*
X053502Y010786D01*
X053502Y010709D01*
X053425Y010555D01*
X053656Y010555D01*
X053656Y010862D01*
X053579Y011016D02*
X053502Y011016D01*
X053425Y011093D01*
X053425Y011246D01*
X053349Y011323D01*
X053272Y011323D01*
X053195Y011246D01*
X053195Y011093D01*
X053272Y011016D01*
X053349Y011016D01*
X053425Y011093D01*
X053425Y011246D02*
X053502Y011323D01*
X053579Y011323D01*
X053656Y011246D01*
X053656Y011093D01*
X053579Y011016D01*
X052656Y010911D02*
X052425Y010680D01*
X052425Y010987D01*
X052425Y011141D02*
X052425Y011371D01*
X052349Y011448D01*
X052272Y011448D01*
X052195Y011371D01*
X052195Y011218D01*
X052272Y011141D01*
X052425Y011141D01*
X052579Y011294D01*
X052656Y011448D01*
X052656Y010911D02*
X052195Y010911D01*
X051505Y011247D02*
X051429Y011170D01*
X051275Y011170D01*
X051198Y011247D01*
X051198Y011323D01*
X051275Y011400D01*
X051352Y011400D01*
X051275Y011400D02*
X051198Y011477D01*
X051198Y011554D01*
X051275Y011630D01*
X051429Y011630D01*
X051505Y011554D01*
X051045Y011554D02*
X051045Y011477D01*
X050968Y011400D01*
X050738Y011400D01*
X050738Y011247D02*
X050738Y011554D01*
X050815Y011630D01*
X050968Y011630D01*
X051045Y011554D01*
X050584Y011554D02*
X050508Y011630D01*
X050354Y011630D01*
X050278Y011554D01*
X050584Y011247D01*
X050508Y011170D01*
X050354Y011170D01*
X050278Y011247D01*
X050278Y011554D01*
X050584Y011554D02*
X050584Y011247D01*
X050738Y011247D02*
X050815Y011170D01*
X050968Y011170D01*
X051045Y011247D01*
X052195Y010527D02*
X052349Y010373D01*
X052349Y010450D02*
X052349Y010220D01*
X052195Y010220D02*
X052656Y010220D01*
X052656Y010450D01*
X052579Y010527D01*
X052425Y010527D01*
X052349Y010450D01*
X054845Y010507D02*
X054845Y010661D01*
X054922Y010737D01*
X055229Y010737D01*
X055306Y010661D01*
X055306Y010507D01*
X055229Y010430D01*
X055152Y010430D01*
X055075Y010507D01*
X055075Y010737D01*
X054922Y010891D02*
X055229Y011198D01*
X054922Y011198D01*
X054845Y011121D01*
X054845Y010968D01*
X054922Y010891D01*
X055229Y010891D01*
X055306Y010968D01*
X055306Y011121D01*
X055229Y011198D01*
X056095Y010996D02*
X056172Y011073D01*
X056249Y011073D01*
X056325Y010996D01*
X056325Y010766D01*
X056172Y010766D01*
X056095Y010843D01*
X056095Y010996D01*
X056325Y010766D02*
X056479Y010919D01*
X056556Y011073D01*
X056556Y010612D02*
X056479Y010459D01*
X056325Y010305D01*
X056325Y010536D01*
X056249Y010612D01*
X056172Y010612D01*
X056095Y010536D01*
X056095Y010382D01*
X056172Y010305D01*
X056325Y010305D01*
X056325Y010152D02*
X056249Y010075D01*
X056249Y009845D01*
X056249Y009998D02*
X056095Y010152D01*
X056325Y010152D02*
X056479Y010152D01*
X056556Y010075D01*
X056556Y009845D01*
X056095Y009845D01*
X055306Y010047D02*
X055306Y010200D01*
X055229Y010277D01*
X055152Y010277D01*
X055075Y010200D01*
X054999Y010277D01*
X054922Y010277D01*
X054845Y010200D01*
X054845Y010047D01*
X054922Y009970D01*
X055075Y010123D02*
X055075Y010200D01*
X054922Y010430D02*
X054845Y010507D01*
X055306Y010047D02*
X055229Y009970D01*
X049555Y009130D02*
X049555Y008670D01*
X049555Y008823D02*
X049325Y008823D01*
X049248Y008900D01*
X049248Y009054D01*
X049325Y009130D01*
X049555Y009130D01*
X049095Y008900D02*
X048865Y008900D01*
X048788Y008823D01*
X048788Y008747D01*
X048865Y008670D01*
X049018Y008670D01*
X049095Y008747D01*
X049095Y008900D01*
X048941Y009054D01*
X048788Y009130D01*
X048634Y009054D02*
X048634Y008977D01*
X048558Y008900D01*
X048328Y008900D01*
X048328Y008747D02*
X048328Y009054D01*
X048404Y009130D01*
X048558Y009130D01*
X048634Y009054D01*
X048634Y008747D02*
X048558Y008670D01*
X048404Y008670D01*
X048328Y008747D01*
X049248Y008670D02*
X049402Y008823D01*
X046655Y008905D02*
X046348Y008905D01*
X046502Y008905D02*
X046502Y008445D01*
X046195Y008445D02*
X045888Y008445D01*
X046041Y008445D02*
X046041Y008905D01*
X046195Y008752D01*
X045734Y008905D02*
X045428Y008905D01*
X045428Y008829D01*
X045734Y008522D01*
X045734Y008445D01*
X043877Y008467D02*
X043724Y008236D01*
X043570Y008467D01*
X044722Y004717D02*
X045029Y004717D01*
X045106Y004640D01*
X045106Y004486D01*
X045029Y004410D01*
X044952Y004410D01*
X044875Y004486D01*
X044875Y004717D01*
X044722Y004717D02*
X044645Y004640D01*
X044645Y004486D01*
X044722Y004410D01*
X044875Y004256D02*
X044875Y003949D01*
X045106Y004179D01*
X044645Y004179D01*
X044645Y003796D02*
X044799Y003642D01*
X044799Y003719D02*
X044799Y003489D01*
X044645Y003489D02*
X045106Y003489D01*
X045106Y003719D01*
X045029Y003796D01*
X044875Y003796D01*
X044799Y003719D01*
X044361Y003380D02*
X044131Y003380D01*
X044055Y003304D01*
X044055Y003150D01*
X044131Y003073D01*
X044361Y003073D01*
X044361Y002920D02*
X044361Y003380D01*
X043901Y003150D02*
X043594Y003150D01*
X043441Y002997D02*
X043441Y002920D01*
X043441Y002997D02*
X043134Y003304D01*
X043134Y003380D01*
X043441Y003380D01*
X043671Y003380D02*
X043901Y003150D01*
X044055Y002920D02*
X044208Y003073D01*
X044595Y002967D02*
X044749Y002736D01*
X044902Y002967D01*
X045056Y002736D02*
X044595Y002736D01*
X044672Y002583D02*
X044595Y002506D01*
X044595Y002353D01*
X044672Y002276D01*
X044979Y002583D01*
X044672Y002583D01*
X044979Y002583D02*
X045056Y002506D01*
X045056Y002353D01*
X044979Y002276D01*
X044672Y002276D01*
X044595Y002122D02*
X044595Y001816D01*
X044595Y001969D02*
X045056Y001969D01*
X044902Y001816D01*
X045895Y002441D02*
X045895Y002747D01*
X045895Y002594D02*
X046356Y002594D01*
X046202Y002441D01*
X046279Y002901D02*
X045972Y002901D01*
X046279Y003208D01*
X045972Y003208D01*
X045895Y003131D01*
X045895Y002978D01*
X045972Y002901D01*
X046279Y002901D02*
X046356Y002978D01*
X046356Y003131D01*
X046279Y003208D01*
X046356Y003361D02*
X045895Y003361D01*
X046049Y003361D02*
X045895Y003592D01*
X046049Y003361D02*
X046202Y003592D01*
X043671Y003380D02*
X043671Y002920D01*
X051028Y002404D02*
X051028Y002097D01*
X051104Y002020D01*
X051258Y002020D01*
X051334Y002097D01*
X051028Y002404D01*
X051104Y002480D01*
X051258Y002480D01*
X051334Y002404D01*
X051334Y002097D01*
X051488Y002097D02*
X051488Y002404D01*
X051565Y002480D01*
X051718Y002480D01*
X051795Y002404D01*
X051795Y002327D01*
X051718Y002250D01*
X051488Y002250D01*
X051488Y002097D02*
X051565Y002020D01*
X051718Y002020D01*
X051795Y002097D01*
X051948Y002097D02*
X052025Y002020D01*
X052179Y002020D01*
X052255Y002097D01*
X052102Y002250D02*
X052025Y002250D01*
X051948Y002173D01*
X051948Y002097D01*
X052025Y002250D02*
X051948Y002327D01*
X051948Y002404D01*
X052025Y002480D01*
X052179Y002480D01*
X052255Y002404D01*
X052334Y002770D02*
X052028Y003077D01*
X052028Y003154D01*
X052104Y003230D01*
X052258Y003230D01*
X052334Y003154D01*
X052488Y003230D02*
X052795Y003230D01*
X052795Y003000D01*
X052641Y003077D01*
X052565Y003077D01*
X052488Y003000D01*
X052488Y002847D01*
X052565Y002770D01*
X052718Y002770D01*
X052795Y002847D01*
X052948Y002770D02*
X053102Y002923D01*
X053025Y002923D02*
X053255Y002923D01*
X053255Y002770D02*
X053255Y003230D01*
X053025Y003230D01*
X052948Y003154D01*
X052948Y003000D01*
X053025Y002923D01*
X052334Y002770D02*
X052028Y002770D01*
X055403Y003322D02*
X055403Y003629D01*
X055479Y003705D01*
X055633Y003705D01*
X055709Y003629D01*
X055709Y003552D01*
X055633Y003475D01*
X055403Y003475D01*
X055403Y003322D02*
X055479Y003245D01*
X055633Y003245D01*
X055709Y003322D01*
X055863Y003322D02*
X055863Y003475D01*
X055940Y003552D01*
X056016Y003552D01*
X056170Y003475D01*
X056170Y003705D01*
X055863Y003705D01*
X056323Y003629D02*
X056323Y003475D01*
X056400Y003398D01*
X056630Y003398D01*
X056630Y003245D02*
X056630Y003705D01*
X056400Y003705D01*
X056323Y003629D01*
X056477Y003398D02*
X056323Y003245D01*
X056170Y003322D02*
X056093Y003245D01*
X055940Y003245D01*
X055863Y003322D01*
X056278Y002879D02*
X056354Y002955D01*
X056508Y002955D01*
X056584Y002879D01*
X056584Y002572D01*
X056278Y002879D01*
X056278Y002572D01*
X056354Y002495D01*
X056508Y002495D01*
X056584Y002572D01*
X056738Y002572D02*
X056738Y002879D01*
X056815Y002955D01*
X056968Y002955D01*
X057045Y002879D01*
X057045Y002802D01*
X056968Y002725D01*
X056738Y002725D01*
X056738Y002572D02*
X056815Y002495D01*
X056968Y002495D01*
X057045Y002572D01*
X057198Y002572D02*
X057275Y002495D01*
X057429Y002495D01*
X057505Y002572D01*
X057352Y002725D02*
X057275Y002725D01*
X057198Y002648D01*
X057198Y002572D01*
X057275Y002725D02*
X057198Y002802D01*
X057198Y002879D01*
X057275Y002955D01*
X057429Y002955D01*
X057505Y002879D01*
X058445Y002796D02*
X058599Y002642D01*
X058599Y002719D02*
X058599Y002489D01*
X058445Y002489D02*
X058906Y002489D01*
X058906Y002719D01*
X058829Y002796D01*
X058675Y002796D01*
X058599Y002719D01*
X058675Y002949D02*
X058675Y003256D01*
X058522Y003410D02*
X058445Y003486D01*
X058445Y003640D01*
X058522Y003717D01*
X058599Y003717D01*
X058675Y003640D01*
X058675Y003563D01*
X058675Y003640D02*
X058752Y003717D01*
X058829Y003717D01*
X058906Y003640D01*
X058906Y003486D01*
X058829Y003410D01*
X058906Y003179D02*
X058675Y002949D01*
X058445Y003179D02*
X058906Y003179D01*
X059945Y003179D02*
X059945Y003026D01*
X060022Y002949D01*
X060022Y002796D02*
X059945Y002719D01*
X059945Y002566D01*
X060022Y002489D01*
X060175Y002642D02*
X060175Y002719D01*
X060099Y002796D01*
X060022Y002796D01*
X060175Y002719D02*
X060252Y002796D01*
X060329Y002796D01*
X060406Y002719D01*
X060406Y002566D01*
X060329Y002489D01*
X060795Y002489D02*
X061256Y002489D01*
X061256Y002719D01*
X061179Y002796D01*
X061025Y002796D01*
X060949Y002719D01*
X060949Y002489D01*
X060949Y002642D02*
X060795Y002796D01*
X061025Y002949D02*
X061025Y003256D01*
X061179Y003410D02*
X061256Y003486D01*
X061256Y003640D01*
X061179Y003717D01*
X061102Y003717D01*
X060795Y003410D01*
X060795Y003717D01*
X060406Y003640D02*
X060329Y003717D01*
X060022Y003410D01*
X059945Y003486D01*
X059945Y003640D01*
X060022Y003717D01*
X060329Y003717D01*
X060406Y003640D02*
X060406Y003486D01*
X060329Y003410D01*
X060022Y003410D01*
X060022Y003256D02*
X060329Y003256D01*
X060406Y003179D01*
X060406Y003026D01*
X060329Y002949D01*
X060252Y002949D01*
X060175Y003026D01*
X060175Y003256D01*
X060022Y003256D02*
X059945Y003179D01*
X060795Y003179D02*
X061256Y003179D01*
X061025Y002949D01*
X062295Y003026D02*
X062295Y003179D01*
X062372Y003256D01*
X062679Y003256D01*
X062756Y003179D01*
X062756Y003026D01*
X062679Y002949D01*
X062602Y002949D01*
X062525Y003026D01*
X062525Y003256D01*
X062372Y003410D02*
X062679Y003717D01*
X062372Y003717D01*
X062295Y003640D01*
X062295Y003486D01*
X062372Y003410D01*
X062679Y003410D01*
X062756Y003486D01*
X062756Y003640D01*
X062679Y003717D01*
X064020Y003640D02*
X064020Y003486D01*
X064097Y003410D01*
X064404Y003717D01*
X064097Y003717D01*
X064020Y003640D01*
X064097Y003410D02*
X064404Y003410D01*
X064481Y003486D01*
X064481Y003640D01*
X064404Y003717D01*
X064404Y003256D02*
X064097Y003256D01*
X064020Y003179D01*
X064020Y003026D01*
X064097Y002949D01*
X064097Y002796D02*
X064020Y002719D01*
X064020Y002566D01*
X064097Y002489D01*
X064250Y002642D02*
X064250Y002719D01*
X064174Y002796D01*
X064097Y002796D01*
X064250Y002719D02*
X064327Y002796D01*
X064404Y002796D01*
X064481Y002719D01*
X064481Y002566D01*
X064404Y002489D01*
X063731Y002429D02*
X063500Y002199D01*
X063500Y002506D01*
X063577Y002660D02*
X063731Y002813D01*
X063270Y002813D01*
X063270Y002660D02*
X063270Y002967D01*
X062756Y002719D02*
X062679Y002796D01*
X062602Y002796D01*
X062525Y002719D01*
X062449Y002796D01*
X062372Y002796D01*
X062295Y002719D01*
X062295Y002566D01*
X062372Y002489D01*
X062525Y002642D02*
X062525Y002719D01*
X062756Y002719D02*
X062756Y002566D01*
X062679Y002489D01*
X063270Y002429D02*
X063731Y002429D01*
X063654Y002046D02*
X063500Y002046D01*
X063424Y001969D01*
X063424Y001739D01*
X063424Y001892D02*
X063270Y002046D01*
X063654Y002046D02*
X063731Y001969D01*
X063731Y001739D01*
X063270Y001739D01*
X062372Y002949D02*
X062295Y003026D01*
X064250Y003026D02*
X064250Y003256D01*
X064404Y003256D02*
X064481Y003179D01*
X064481Y003026D01*
X064404Y002949D01*
X064327Y002949D01*
X064250Y003026D01*
X052255Y012545D02*
X052255Y013005D01*
X052025Y013005D01*
X051948Y012929D01*
X051948Y012775D01*
X052025Y012698D01*
X052255Y012698D01*
X052102Y012698D02*
X051948Y012545D01*
X051795Y012622D02*
X051718Y012545D01*
X051565Y012545D01*
X051488Y012622D01*
X051488Y012775D01*
X051565Y012852D01*
X051641Y012852D01*
X051795Y012775D01*
X051795Y013005D01*
X051488Y013005D01*
X051334Y013005D02*
X051028Y013005D01*
X051028Y012929D01*
X051334Y012622D01*
X051334Y012545D01*
X054403Y014572D02*
X054479Y014495D01*
X054633Y014495D01*
X054709Y014572D01*
X054403Y014879D01*
X054403Y014572D01*
X054709Y014572D02*
X054709Y014879D01*
X054633Y014955D01*
X054479Y014955D01*
X054403Y014879D01*
X054863Y014879D02*
X054940Y014955D01*
X055093Y014955D01*
X055170Y014879D01*
X055170Y014802D01*
X055093Y014725D01*
X054863Y014725D01*
X054863Y014572D02*
X054863Y014879D01*
X055323Y014879D02*
X055323Y014802D01*
X055400Y014725D01*
X055323Y014648D01*
X055323Y014572D01*
X055400Y014495D01*
X055554Y014495D01*
X055630Y014572D01*
X055477Y014725D02*
X055400Y014725D01*
X055323Y014879D02*
X055400Y014955D01*
X055554Y014955D01*
X055630Y014879D01*
X055170Y014572D02*
X055093Y014495D01*
X054940Y014495D01*
X054863Y014572D01*
X055354Y015745D02*
X055508Y015745D01*
X055584Y015822D01*
X055584Y015975D02*
X055431Y016052D01*
X055354Y016052D01*
X055278Y015975D01*
X055278Y015822D01*
X055354Y015745D01*
X055584Y015975D02*
X055584Y016205D01*
X055278Y016205D01*
X055215Y016520D02*
X055138Y016597D01*
X055138Y016673D01*
X055215Y016750D01*
X055445Y016750D01*
X055445Y016597D01*
X055368Y016520D01*
X055215Y016520D01*
X055445Y016750D02*
X055291Y016904D01*
X055138Y016980D01*
X054984Y016750D02*
X054678Y016750D01*
X054754Y016520D02*
X054754Y016980D01*
X054984Y016750D01*
X055598Y016750D02*
X055598Y016904D01*
X055675Y016980D01*
X055905Y016980D01*
X055905Y016520D01*
X055905Y016673D02*
X055675Y016673D01*
X055598Y016750D01*
X055752Y016673D02*
X055598Y016520D01*
X055738Y016205D02*
X055891Y016129D01*
X056045Y015975D01*
X055815Y015975D01*
X055738Y015898D01*
X055738Y015822D01*
X055815Y015745D01*
X055968Y015745D01*
X056045Y015822D01*
X056045Y015975D01*
X056198Y015975D02*
X056275Y015898D01*
X056505Y015898D01*
X056505Y015745D02*
X056505Y016205D01*
X056275Y016205D01*
X056198Y016129D01*
X056198Y015975D01*
X056352Y015898D02*
X056198Y015745D01*
X052211Y016022D02*
X052135Y015945D01*
X051981Y015945D01*
X051905Y016022D01*
X051905Y016098D01*
X051981Y016175D01*
X052058Y016175D01*
X051981Y016175D02*
X051905Y016252D01*
X051905Y016329D01*
X051981Y016405D01*
X052135Y016405D01*
X052211Y016329D01*
X051751Y016329D02*
X051674Y016405D01*
X051521Y016405D01*
X051444Y016329D01*
X051444Y016022D01*
X051521Y015945D01*
X051674Y015945D01*
X051751Y016022D01*
X051674Y016175D02*
X051444Y016175D01*
X051291Y016022D02*
X051291Y016329D01*
X051214Y016405D01*
X051060Y016405D01*
X050984Y016329D01*
X051291Y016022D01*
X051214Y015945D01*
X051060Y015945D01*
X050984Y016022D01*
X050984Y016329D01*
X051674Y016175D02*
X051751Y016252D01*
X051751Y016329D01*
X053778Y017847D02*
X053854Y017770D01*
X054008Y017770D01*
X054084Y017847D01*
X054238Y017847D02*
X054238Y017923D01*
X054315Y018000D01*
X054545Y018000D01*
X054545Y017847D01*
X054468Y017770D01*
X054315Y017770D01*
X054238Y017847D01*
X054391Y018154D02*
X054545Y018000D01*
X054698Y018000D02*
X054775Y017923D01*
X055005Y017923D01*
X055005Y017770D02*
X055005Y018230D01*
X054775Y018230D01*
X054698Y018154D01*
X054698Y018000D01*
X054852Y017923D02*
X054698Y017770D01*
X054391Y018154D02*
X054238Y018230D01*
X054084Y018154D02*
X054008Y018230D01*
X053854Y018230D01*
X053778Y018154D01*
X053778Y018077D01*
X053854Y018000D01*
X053778Y017923D01*
X053778Y017847D01*
X053854Y018000D02*
X053931Y018000D01*
X057145Y018797D02*
X057222Y018720D01*
X057145Y018797D02*
X057145Y018950D01*
X057222Y019027D01*
X057299Y019027D01*
X057375Y018950D01*
X057375Y018873D01*
X057375Y018950D02*
X057452Y019027D01*
X057529Y019027D01*
X057606Y018950D01*
X057606Y018797D01*
X057529Y018720D01*
X057529Y019180D02*
X057452Y019180D01*
X057375Y019257D01*
X057375Y019487D01*
X057222Y019487D02*
X057529Y019487D01*
X057606Y019411D01*
X057606Y019257D01*
X057529Y019180D01*
X057222Y019180D02*
X057145Y019257D01*
X057145Y019411D01*
X057222Y019487D01*
X057116Y019566D02*
X057116Y020027D01*
X056885Y020027D01*
X056809Y019950D01*
X056809Y019797D01*
X056885Y019720D01*
X057116Y019720D01*
X057145Y019718D02*
X057222Y019641D01*
X057529Y019948D01*
X057222Y019948D01*
X057145Y019871D01*
X057145Y019718D01*
X057222Y019641D02*
X057529Y019641D01*
X057606Y019718D01*
X057606Y019871D01*
X057529Y019948D01*
X056962Y019720D02*
X056809Y019566D01*
X056655Y019797D02*
X056348Y019797D01*
X056195Y019797D02*
X056041Y019873D01*
X055965Y019873D01*
X055888Y019797D01*
X055888Y019643D01*
X055965Y019566D01*
X056118Y019566D01*
X056195Y019643D01*
X056195Y019797D02*
X056195Y020027D01*
X055888Y020027D01*
X056425Y020027D02*
X056655Y019797D01*
X056425Y019566D02*
X056425Y020027D01*
X059045Y020547D02*
X059122Y020470D01*
X059045Y020547D02*
X059045Y020700D01*
X059122Y020777D01*
X059199Y020777D01*
X059275Y020700D01*
X059275Y020623D01*
X059275Y020700D02*
X059352Y020777D01*
X059429Y020777D01*
X059506Y020700D01*
X059506Y020547D01*
X059429Y020470D01*
X059429Y020930D02*
X059352Y020930D01*
X059275Y021007D01*
X059275Y021237D01*
X059122Y021237D02*
X059429Y021237D01*
X059506Y021161D01*
X059506Y021007D01*
X059429Y020930D01*
X059122Y020930D02*
X059045Y021007D01*
X059045Y021161D01*
X059122Y021237D01*
X059122Y021391D02*
X059429Y021698D01*
X059122Y021698D01*
X059045Y021621D01*
X059045Y021468D01*
X059122Y021391D01*
X059429Y021391D01*
X059506Y021468D01*
X059506Y021621D01*
X059429Y021698D01*
X060670Y021746D02*
X061131Y021746D01*
X060900Y021516D01*
X060900Y021823D01*
X060900Y021362D02*
X060900Y021055D01*
X061131Y021286D01*
X060670Y021286D01*
X060670Y020902D02*
X060824Y020748D01*
X060824Y020825D02*
X060824Y020595D01*
X060670Y020595D02*
X061131Y020595D01*
X061131Y020825D01*
X061054Y020902D01*
X060900Y020902D01*
X060824Y020825D01*
X061522Y019592D02*
X061445Y019515D01*
X061445Y019361D01*
X061522Y019285D01*
X061829Y019592D01*
X061522Y019592D01*
X061829Y019592D02*
X061906Y019515D01*
X061906Y019361D01*
X061829Y019285D01*
X061522Y019285D01*
X061675Y019131D02*
X061675Y018824D01*
X061906Y019054D01*
X061445Y019054D01*
X061445Y018671D02*
X061599Y018517D01*
X061599Y018594D02*
X061599Y018364D01*
X061445Y018364D02*
X061906Y018364D01*
X061906Y018594D01*
X061829Y018671D01*
X061675Y018671D01*
X061599Y018594D01*
X063070Y018469D02*
X063070Y018316D01*
X063147Y018239D01*
X063300Y018392D02*
X063300Y018469D01*
X063224Y018546D01*
X063147Y018546D01*
X063070Y018469D01*
X063300Y018469D02*
X063377Y018546D01*
X063454Y018546D01*
X063531Y018469D01*
X063531Y018316D01*
X063454Y018239D01*
X063454Y018699D02*
X063377Y018699D01*
X063300Y018776D01*
X063300Y019006D01*
X063147Y019006D02*
X063454Y019006D01*
X063531Y018929D01*
X063531Y018776D01*
X063454Y018699D01*
X063147Y018699D02*
X063070Y018776D01*
X063070Y018929D01*
X063147Y019006D01*
X063147Y019160D02*
X063454Y019467D01*
X063147Y019467D01*
X063070Y019390D01*
X063070Y019236D01*
X063147Y019160D01*
X063454Y019160D01*
X063531Y019236D01*
X063531Y019390D01*
X063454Y019467D01*
X053505Y019472D02*
X053429Y019395D01*
X053275Y019395D01*
X053198Y019472D01*
X053198Y019548D01*
X053275Y019625D01*
X053352Y019625D01*
X053275Y019625D02*
X053198Y019702D01*
X053198Y019779D01*
X053275Y019855D01*
X053429Y019855D01*
X053505Y019779D01*
X053045Y019779D02*
X053045Y019702D01*
X052968Y019625D01*
X052738Y019625D01*
X052738Y019472D02*
X052738Y019779D01*
X052815Y019855D01*
X052968Y019855D01*
X053045Y019779D01*
X052584Y019779D02*
X052508Y019855D01*
X052354Y019855D01*
X052278Y019779D01*
X052584Y019472D01*
X052508Y019395D01*
X052354Y019395D01*
X052278Y019472D01*
X052278Y019779D01*
X052584Y019779D02*
X052584Y019472D01*
X052738Y019472D02*
X052815Y019395D01*
X052968Y019395D01*
X053045Y019472D01*
X050583Y020495D02*
X050430Y020495D01*
X050506Y020495D02*
X050506Y020955D01*
X050430Y020955D02*
X050583Y020955D01*
X050276Y020879D02*
X050276Y020572D01*
X050199Y020495D01*
X050046Y020495D01*
X049969Y020572D01*
X049816Y020572D02*
X049816Y020648D01*
X049739Y020725D01*
X049585Y020725D01*
X049509Y020648D01*
X049509Y020572D01*
X049585Y020495D01*
X049739Y020495D01*
X049816Y020572D01*
X049739Y020725D02*
X049816Y020802D01*
X049816Y020879D01*
X049739Y020955D01*
X049585Y020955D01*
X049509Y020879D01*
X049509Y020802D01*
X049585Y020725D01*
X049969Y020879D02*
X050046Y020955D01*
X050199Y020955D01*
X050276Y020879D01*
X048168Y020830D02*
X048168Y020370D01*
X047937Y020370D01*
X047861Y020447D01*
X047861Y020523D01*
X047937Y020600D01*
X048168Y020600D01*
X047937Y020600D02*
X047861Y020677D01*
X047861Y020754D01*
X047937Y020830D01*
X048168Y020830D01*
X047707Y020830D02*
X047400Y020830D01*
X047554Y020830D02*
X047554Y020370D01*
X047247Y020447D02*
X047170Y020370D01*
X047017Y020370D01*
X046940Y020447D01*
X046940Y020523D01*
X047017Y020600D01*
X047170Y020600D01*
X047247Y020677D01*
X047247Y020754D01*
X047170Y020830D01*
X047017Y020830D01*
X046940Y020754D01*
X046786Y020677D02*
X046633Y020830D01*
X046633Y020370D01*
X046786Y020370D02*
X046480Y020370D01*
X046326Y020600D02*
X046019Y020600D01*
X045866Y020677D02*
X045712Y020830D01*
X045712Y020370D01*
X045559Y020370D02*
X045866Y020370D01*
X046096Y020370D02*
X046096Y020830D01*
X046326Y020600D01*
X027635Y011227D02*
X027328Y011227D01*
X027175Y011227D02*
X027175Y010997D01*
X027021Y011073D01*
X026944Y011073D01*
X026868Y010997D01*
X026868Y010843D01*
X026944Y010766D01*
X027098Y010766D01*
X027175Y010843D01*
X027482Y010766D02*
X027482Y011227D01*
X027175Y011227D02*
X026868Y011227D01*
X023939Y010323D02*
X023786Y010477D01*
X023786Y010016D01*
X023939Y010016D02*
X023633Y010016D01*
X023479Y010093D02*
X023402Y010016D01*
X023249Y010016D01*
X023172Y010093D01*
X023172Y010247D01*
X023249Y010323D01*
X023326Y010323D01*
X023479Y010247D01*
X023479Y010477D01*
X023172Y010477D01*
X023019Y010477D02*
X023019Y010016D01*
X023019Y010170D02*
X022788Y010323D01*
X023019Y010170D02*
X022788Y010016D01*
X023839Y008227D02*
X023839Y007766D01*
X023839Y007920D02*
X023609Y008073D01*
X023839Y007920D02*
X023609Y007766D01*
X023993Y007843D02*
X023993Y007997D01*
X024069Y008073D01*
X024146Y008073D01*
X024300Y007997D01*
X024300Y008227D01*
X023993Y008227D01*
X024607Y008227D02*
X024607Y007766D01*
X024760Y007766D02*
X024453Y007766D01*
X024300Y007843D02*
X024223Y007766D01*
X024069Y007766D01*
X023993Y007843D01*
X024607Y008227D02*
X024760Y008073D01*
X006056Y012102D02*
X005749Y012102D01*
X005902Y012102D02*
X005902Y011641D01*
X005595Y011718D02*
X005595Y011872D01*
X005365Y011872D01*
X005288Y011795D01*
X005288Y011718D01*
X005365Y011641D01*
X005519Y011641D01*
X005595Y011718D01*
X005595Y011872D02*
X005442Y012025D01*
X005288Y012102D01*
X004635Y014391D02*
X004328Y014391D01*
X004175Y014391D02*
X004175Y014852D01*
X003944Y014698D02*
X004175Y014545D01*
X003944Y014391D01*
X004482Y014391D02*
X004482Y014852D01*
X004635Y014698D01*
X003260Y014641D02*
X002953Y014641D01*
X003107Y014641D02*
X003107Y015102D01*
X003260Y014948D01*
X002800Y015025D02*
X002800Y014718D01*
X002493Y015025D01*
X002493Y014718D01*
X002569Y014641D01*
X002723Y014641D01*
X002800Y014718D01*
X002800Y015025D02*
X002723Y015102D01*
X002569Y015102D01*
X002493Y015025D01*
X002339Y015025D02*
X002262Y015102D01*
X002109Y015102D01*
X002032Y015025D01*
X002339Y014718D01*
X002262Y014641D01*
X002109Y014641D01*
X002032Y014718D01*
X002032Y015025D01*
X001879Y015102D02*
X001879Y014641D01*
X001879Y014795D02*
X001649Y014948D01*
X001879Y014795D02*
X001649Y014641D01*
X002339Y014718D02*
X002339Y015025D01*
X000833Y016635D02*
X000920Y016722D01*
X000920Y016895D01*
X000833Y016982D01*
X000747Y016982D01*
X000660Y016895D01*
X000660Y016809D01*
X000660Y016895D02*
X000573Y016982D01*
X000486Y016982D01*
X000400Y016895D01*
X000400Y016722D01*
X000486Y016635D01*
X000573Y017151D02*
X000920Y017498D01*
X000920Y017151D02*
X000573Y017498D01*
X000500Y018027D02*
X000500Y018334D01*
X000500Y018180D02*
X000960Y018180D01*
X000807Y018027D01*
X000884Y018487D02*
X000577Y018487D01*
X000884Y018794D01*
X000577Y018794D01*
X000500Y018717D01*
X000500Y018564D01*
X000577Y018487D01*
X000884Y018487D02*
X000960Y018564D01*
X000960Y018717D01*
X000884Y018794D01*
X000884Y018947D02*
X000577Y018947D01*
X000884Y019254D01*
X000577Y019254D01*
X000500Y019178D01*
X000500Y019024D01*
X000577Y018947D01*
X000884Y018947D02*
X000960Y019024D01*
X000960Y019178D01*
X000884Y019254D01*
X000960Y019408D02*
X000500Y019408D01*
X000653Y019408D02*
X000500Y019638D01*
X000653Y019408D02*
X000807Y019638D01*
X008609Y017948D02*
X008839Y017795D01*
X008609Y017641D01*
X008839Y017641D02*
X008839Y018102D01*
X008993Y018025D02*
X009300Y017718D01*
X009223Y017641D01*
X009069Y017641D01*
X008993Y017718D01*
X008993Y018025D01*
X009069Y018102D01*
X009223Y018102D01*
X009300Y018025D01*
X009300Y017718D01*
X009453Y017641D02*
X009760Y017641D01*
X009607Y017641D02*
X009607Y018102D01*
X009760Y017948D01*
X010319Y017948D02*
X010550Y017795D01*
X010319Y017641D01*
X010550Y017641D02*
X010550Y018102D01*
X010857Y018102D02*
X010857Y017641D01*
X011010Y017641D02*
X010703Y017641D01*
X011010Y017948D02*
X010857Y018102D01*
X012663Y019391D02*
X012894Y019545D01*
X012663Y019698D01*
X012894Y019852D02*
X012894Y019391D01*
X013047Y019775D02*
X013354Y019468D01*
X013354Y019391D01*
X013508Y019391D02*
X013814Y019391D01*
X013508Y019698D01*
X013508Y019775D01*
X013584Y019852D01*
X013738Y019852D01*
X013814Y019775D01*
X013354Y019852D02*
X013047Y019852D01*
X013047Y019775D01*
X011260Y020102D02*
X010953Y020102D01*
X011107Y020102D02*
X011107Y019641D01*
X010800Y019641D02*
X010493Y019948D01*
X010493Y020025D01*
X010569Y020102D01*
X010723Y020102D01*
X010800Y020025D01*
X010800Y019641D02*
X010493Y019641D01*
X010499Y015977D02*
X010422Y015900D01*
X010729Y015593D01*
X010652Y015516D01*
X010499Y015516D01*
X010422Y015593D01*
X010422Y015900D01*
X010499Y015977D02*
X010652Y015977D01*
X010729Y015900D01*
X010729Y015593D01*
X010883Y015593D02*
X010959Y015516D01*
X011113Y015516D01*
X011189Y015593D01*
X010883Y015900D01*
X010883Y015593D01*
X011189Y015593D02*
X011189Y015900D01*
X011113Y015977D01*
X010959Y015977D01*
X010883Y015900D01*
X011343Y015516D02*
X011650Y015516D01*
X011496Y015516D02*
X011496Y015977D01*
X011650Y015823D01*
X010269Y015670D02*
X010038Y015823D01*
X010269Y015670D02*
X010038Y015516D01*
X010269Y015516D02*
X010269Y015977D01*
X009689Y015900D02*
X009613Y015977D01*
X009459Y015977D01*
X009383Y015900D01*
X009383Y015823D01*
X009689Y015516D01*
X009383Y015516D01*
X009229Y015516D02*
X009229Y015593D01*
X008922Y015900D01*
X008922Y015977D01*
X009229Y015977D01*
X008769Y015977D02*
X008769Y015516D01*
X008769Y015670D02*
X008538Y015823D01*
X008769Y015670D02*
X008538Y015516D01*
D13*
X011411Y003230D02*
X011411Y003168D01*
X011658Y002921D01*
X011658Y002859D01*
X011780Y002859D02*
X011780Y002921D01*
X011842Y002921D01*
X011842Y002859D01*
X011780Y002859D01*
X012025Y002859D02*
X012025Y003230D01*
X012210Y003045D01*
X011964Y003045D01*
X011658Y003230D02*
X011411Y003230D01*
X011290Y003106D02*
X011290Y002921D01*
X011228Y002859D01*
X011043Y002859D01*
X011043Y003106D01*
X062932Y007950D02*
X063179Y007950D01*
X062993Y008135D01*
X062993Y007765D01*
X063300Y007827D02*
X063300Y007950D01*
X063423Y007950D01*
X063300Y007827D02*
X063362Y007765D01*
X063485Y007765D01*
X063547Y007827D01*
X063547Y008074D01*
X063485Y008135D01*
X063362Y008135D01*
X063300Y008074D01*
X063182Y010515D02*
X063429Y010515D01*
X063182Y010762D01*
X063182Y010824D01*
X063243Y010885D01*
X063367Y010885D01*
X063429Y010824D01*
X063550Y010824D02*
X063612Y010885D01*
X063735Y010885D01*
X063797Y010824D01*
X063797Y010577D01*
X063735Y010515D01*
X063612Y010515D01*
X063550Y010577D01*
X063550Y010700D01*
X063673Y010700D01*
D14*
X050325Y010700D02*
X048025Y010700D01*
X048025Y002700D01*
X048775Y002700D01*
X048777Y002739D01*
X048783Y002778D01*
X048792Y002816D01*
X048805Y002853D01*
X048822Y002889D01*
X048842Y002922D01*
X048866Y002954D01*
X048892Y002983D01*
X048921Y003009D01*
X048953Y003033D01*
X048986Y003053D01*
X049022Y003070D01*
X049059Y003083D01*
X049097Y003092D01*
X049136Y003098D01*
X049175Y003100D01*
X049214Y003098D01*
X049253Y003092D01*
X049291Y003083D01*
X049328Y003070D01*
X049364Y003053D01*
X049397Y003033D01*
X049429Y003009D01*
X049458Y002983D01*
X049484Y002954D01*
X049508Y002922D01*
X049528Y002889D01*
X049545Y002853D01*
X049558Y002816D01*
X049567Y002778D01*
X049573Y002739D01*
X049575Y002700D01*
X050325Y002700D01*
X050325Y010700D01*
X048825Y011100D02*
X046525Y011100D01*
X046525Y015100D01*
X047275Y015100D01*
X047277Y015061D01*
X047283Y015022D01*
X047292Y014984D01*
X047305Y014947D01*
X047322Y014911D01*
X047342Y014878D01*
X047366Y014846D01*
X047392Y014817D01*
X047421Y014791D01*
X047453Y014767D01*
X047486Y014747D01*
X047522Y014730D01*
X047559Y014717D01*
X047597Y014708D01*
X047636Y014702D01*
X047675Y014700D01*
X047714Y014702D01*
X047753Y014708D01*
X047791Y014717D01*
X047828Y014730D01*
X047864Y014747D01*
X047897Y014767D01*
X047929Y014791D01*
X047958Y014817D01*
X047984Y014846D01*
X048008Y014878D01*
X048028Y014911D01*
X048045Y014947D01*
X048058Y014984D01*
X048067Y015022D01*
X048073Y015061D01*
X048075Y015100D01*
X048825Y015100D01*
X048825Y011100D01*
X043525Y011300D02*
X043525Y011800D01*
X043523Y011826D01*
X043518Y011852D01*
X043510Y011877D01*
X043498Y011900D01*
X043484Y011922D01*
X043466Y011941D01*
X043447Y011959D01*
X043425Y011973D01*
X043402Y011985D01*
X043377Y011993D01*
X043351Y011998D01*
X043325Y012000D01*
X042025Y012000D01*
X041999Y011998D01*
X041973Y011993D01*
X041948Y011985D01*
X041925Y011973D01*
X041903Y011959D01*
X041884Y011941D01*
X041866Y011922D01*
X041852Y011900D01*
X041840Y011877D01*
X041832Y011852D01*
X041827Y011826D01*
X041825Y011800D01*
X041825Y011300D01*
X041827Y011274D01*
X041832Y011248D01*
X041840Y011223D01*
X041852Y011200D01*
X041866Y011178D01*
X041884Y011159D01*
X041903Y011141D01*
X041925Y011127D01*
X041948Y011115D01*
X041973Y011107D01*
X041999Y011102D01*
X042025Y011100D01*
X043325Y011100D01*
X043351Y011102D01*
X043377Y011107D01*
X043402Y011115D01*
X043425Y011127D01*
X043447Y011141D01*
X043466Y011159D01*
X043484Y011178D01*
X043498Y011200D01*
X043510Y011223D01*
X043518Y011248D01*
X043523Y011274D01*
X043525Y011300D01*
X043325Y012350D02*
X042025Y012350D01*
X041999Y012352D01*
X041973Y012357D01*
X041948Y012365D01*
X041925Y012377D01*
X041903Y012391D01*
X041884Y012409D01*
X041866Y012428D01*
X041852Y012450D01*
X041840Y012473D01*
X041832Y012498D01*
X041827Y012524D01*
X041825Y012550D01*
X041825Y013050D01*
X041827Y013076D01*
X041832Y013102D01*
X041840Y013127D01*
X041852Y013150D01*
X041866Y013172D01*
X041884Y013191D01*
X041903Y013209D01*
X041925Y013223D01*
X041948Y013235D01*
X041973Y013243D01*
X041999Y013248D01*
X042025Y013250D01*
X043325Y013250D01*
X043351Y013248D01*
X043377Y013243D01*
X043402Y013235D01*
X043425Y013223D01*
X043447Y013209D01*
X043466Y013191D01*
X043484Y013172D01*
X043498Y013150D01*
X043510Y013127D01*
X043518Y013102D01*
X043523Y013076D01*
X043525Y013050D01*
X043525Y012550D01*
X043523Y012524D01*
X043518Y012498D01*
X043510Y012473D01*
X043498Y012450D01*
X043484Y012428D01*
X043466Y012409D01*
X043447Y012391D01*
X043425Y012377D01*
X043402Y012365D01*
X043377Y012357D01*
X043351Y012352D01*
X043325Y012350D01*
X046275Y014800D02*
X046425Y014800D01*
X046475Y014850D01*
X048375Y014850D01*
X048425Y014800D01*
X048575Y014800D01*
X048592Y014802D01*
X048609Y014806D01*
X048625Y014813D01*
X048639Y014823D01*
X048652Y014836D01*
X048662Y014850D01*
X048669Y014866D01*
X048673Y014883D01*
X048675Y014900D01*
X048675Y015600D01*
X048673Y015617D01*
X048669Y015634D01*
X048662Y015650D01*
X048652Y015664D01*
X048639Y015677D01*
X048625Y015687D01*
X048609Y015694D01*
X048592Y015698D01*
X048575Y015700D01*
X048425Y015700D01*
X048375Y015650D01*
X046475Y015650D01*
X046425Y015700D01*
X046275Y015700D01*
X046258Y015698D01*
X046241Y015694D01*
X046225Y015687D01*
X046211Y015677D01*
X046198Y015664D01*
X046188Y015650D01*
X046181Y015634D01*
X046177Y015617D01*
X046175Y015600D01*
X046175Y014900D01*
X046177Y014883D01*
X046181Y014866D01*
X046188Y014850D01*
X046198Y014836D01*
X046211Y014823D01*
X046225Y014813D01*
X046241Y014806D01*
X046258Y014802D01*
X046275Y014800D01*
X044725Y017550D02*
X044025Y017550D01*
X044008Y017552D01*
X043991Y017556D01*
X043975Y017563D01*
X043961Y017573D01*
X043948Y017586D01*
X043938Y017600D01*
X043931Y017616D01*
X043927Y017633D01*
X043925Y017650D01*
X043925Y017800D01*
X043975Y017850D01*
X043975Y019750D01*
X043925Y019800D01*
X043925Y019950D01*
X043927Y019967D01*
X043931Y019984D01*
X043938Y020000D01*
X043948Y020014D01*
X043961Y020027D01*
X043975Y020037D01*
X043991Y020044D01*
X044008Y020048D01*
X044025Y020050D01*
X044725Y020050D01*
X044742Y020048D01*
X044759Y020044D01*
X044775Y020037D01*
X044789Y020027D01*
X044802Y020014D01*
X044812Y020000D01*
X044819Y019984D01*
X044823Y019967D01*
X044825Y019950D01*
X044825Y019800D01*
X044775Y019750D01*
X044775Y017850D01*
X044825Y017800D01*
X044825Y017650D01*
X044823Y017633D01*
X044819Y017616D01*
X044812Y017600D01*
X044802Y017586D01*
X044789Y017573D01*
X044775Y017563D01*
X044759Y017556D01*
X044742Y017552D01*
X044725Y017550D01*
X036550Y015896D02*
X036550Y019596D01*
X036548Y019619D01*
X036543Y019642D01*
X036534Y019664D01*
X036521Y019684D01*
X036506Y019702D01*
X036488Y019717D01*
X036468Y019730D01*
X036446Y019739D01*
X036423Y019744D01*
X036400Y019746D01*
X035980Y019746D01*
X035580Y019746D01*
X035160Y019746D01*
X035137Y019744D01*
X035114Y019739D01*
X035092Y019730D01*
X035072Y019717D01*
X035054Y019702D01*
X035039Y019684D01*
X035026Y019664D01*
X035017Y019642D01*
X035012Y019619D01*
X035010Y019596D01*
X035010Y015896D01*
X035012Y015873D01*
X035017Y015850D01*
X035026Y015828D01*
X035039Y015808D01*
X035054Y015790D01*
X035072Y015775D01*
X035092Y015762D01*
X035114Y015753D01*
X035137Y015748D01*
X035160Y015746D01*
X036400Y015746D01*
X036423Y015748D01*
X036446Y015753D01*
X036468Y015762D01*
X036488Y015775D01*
X036506Y015790D01*
X036521Y015808D01*
X036534Y015828D01*
X036543Y015850D01*
X036548Y015873D01*
X036550Y015896D01*
X035980Y019746D02*
X035978Y019719D01*
X035973Y019692D01*
X035963Y019666D01*
X035951Y019642D01*
X035935Y019620D01*
X035917Y019600D01*
X035895Y019583D01*
X035872Y019568D01*
X035847Y019558D01*
X035821Y019550D01*
X035794Y019546D01*
X035766Y019546D01*
X035739Y019550D01*
X035713Y019558D01*
X035688Y019568D01*
X035665Y019583D01*
X035643Y019600D01*
X035625Y019620D01*
X035609Y019642D01*
X035597Y019666D01*
X035587Y019692D01*
X035582Y019719D01*
X035580Y019746D01*
X042400Y002400D02*
X042550Y002400D01*
X042600Y002350D01*
X044500Y002350D01*
X044550Y002400D01*
X044700Y002400D01*
X044717Y002398D01*
X044734Y002394D01*
X044750Y002387D01*
X044764Y002377D01*
X044777Y002364D01*
X044787Y002350D01*
X044794Y002334D01*
X044798Y002317D01*
X044800Y002300D01*
X044800Y001600D01*
X044798Y001583D01*
X044794Y001566D01*
X044787Y001550D01*
X044777Y001536D01*
X044764Y001523D01*
X044750Y001513D01*
X044734Y001506D01*
X044717Y001502D01*
X044700Y001500D01*
X044550Y001500D01*
X044500Y001550D01*
X042600Y001550D01*
X042550Y001500D01*
X042400Y001500D01*
X042383Y001502D01*
X042366Y001506D01*
X042350Y001513D01*
X042336Y001523D01*
X042323Y001536D01*
X042313Y001550D01*
X042306Y001566D01*
X042302Y001583D01*
X042300Y001600D01*
X042300Y002300D01*
X042302Y002317D01*
X042306Y002334D01*
X042313Y002350D01*
X042323Y002364D01*
X042336Y002377D01*
X042350Y002387D01*
X042366Y002394D01*
X042383Y002398D01*
X042400Y002400D01*
X042400Y001350D02*
X042550Y001350D01*
X042600Y001300D01*
X044500Y001300D01*
X044550Y001350D01*
X044700Y001350D01*
X044717Y001348D01*
X044734Y001344D01*
X044750Y001337D01*
X044764Y001327D01*
X044777Y001314D01*
X044787Y001300D01*
X044794Y001284D01*
X044798Y001267D01*
X044800Y001250D01*
X044800Y000550D01*
X044798Y000533D01*
X044794Y000516D01*
X044787Y000500D01*
X044777Y000486D01*
X044764Y000473D01*
X044750Y000463D01*
X044734Y000456D01*
X044717Y000452D01*
X044700Y000450D01*
X044550Y000450D01*
X044500Y000500D01*
X042600Y000500D01*
X042550Y000450D01*
X042400Y000450D01*
X042383Y000452D01*
X042366Y000456D01*
X042350Y000463D01*
X042336Y000473D01*
X042323Y000486D01*
X042313Y000500D01*
X042306Y000516D01*
X042302Y000533D01*
X042300Y000550D01*
X042300Y001250D01*
X042302Y001267D01*
X042306Y001284D01*
X042313Y001300D01*
X042323Y001314D01*
X042336Y001327D01*
X042350Y001337D01*
X042366Y001344D01*
X042383Y001348D01*
X042400Y001350D01*
X040525Y001150D02*
X040525Y000650D01*
X040523Y000624D01*
X040518Y000598D01*
X040510Y000573D01*
X040498Y000550D01*
X040484Y000528D01*
X040466Y000509D01*
X040447Y000491D01*
X040425Y000477D01*
X040402Y000465D01*
X040377Y000457D01*
X040351Y000452D01*
X040325Y000450D01*
X039025Y000450D01*
X038999Y000452D01*
X038973Y000457D01*
X038948Y000465D01*
X038925Y000477D01*
X038903Y000491D01*
X038884Y000509D01*
X038866Y000528D01*
X038852Y000550D01*
X038840Y000573D01*
X038832Y000598D01*
X038827Y000624D01*
X038825Y000650D01*
X038825Y001150D01*
X038827Y001176D01*
X038832Y001202D01*
X038840Y001227D01*
X038852Y001250D01*
X038866Y001272D01*
X038884Y001291D01*
X038903Y001309D01*
X038925Y001323D01*
X038948Y001335D01*
X038973Y001343D01*
X038999Y001348D01*
X039025Y001350D01*
X040325Y001350D01*
X040351Y001348D01*
X040377Y001343D01*
X040402Y001335D01*
X040425Y001323D01*
X040447Y001309D01*
X040466Y001291D01*
X040484Y001272D01*
X040498Y001250D01*
X040510Y001227D01*
X040518Y001202D01*
X040523Y001176D01*
X040525Y001150D01*
D15*
X036410Y015746D02*
X036410Y019746D01*
D16*
X035755Y018346D02*
X035755Y018046D01*
X035905Y017886D02*
X035605Y017886D01*
X035530Y017811D01*
X035530Y017661D01*
X035605Y017586D01*
X035905Y017886D01*
X035980Y017811D01*
X035980Y017661D01*
X035905Y017586D01*
X035605Y017586D01*
X035605Y017426D02*
X035530Y017351D01*
X035530Y017200D01*
X035605Y017125D01*
X035680Y017125D01*
X035980Y017426D01*
X035980Y017125D01*
X035905Y016965D02*
X035830Y016965D01*
X035755Y016890D01*
X035755Y016740D01*
X035830Y016665D01*
X035905Y016665D01*
X035980Y016740D01*
X035980Y016890D01*
X035905Y016965D01*
X035755Y016890D02*
X035680Y016965D01*
X035605Y016965D01*
X035530Y016890D01*
X035530Y016740D01*
X035605Y016665D01*
X035680Y016665D01*
X035755Y016740D01*
X035530Y016505D02*
X035980Y016505D01*
X035980Y016280D01*
X035905Y016205D01*
X035605Y016205D01*
X035530Y016280D01*
X035530Y016505D01*
X035530Y018121D02*
X035755Y018346D01*
X035980Y018121D02*
X035530Y018121D01*
X044130Y018075D02*
X044581Y018075D01*
X044431Y017925D01*
X044130Y017925D02*
X044130Y018225D01*
X044205Y018385D02*
X044506Y018686D01*
X044205Y018686D01*
X044130Y018611D01*
X044130Y018460D01*
X044205Y018385D01*
X044506Y018385D01*
X044581Y018460D01*
X044581Y018611D01*
X044506Y018686D01*
X044581Y018846D02*
X044130Y018846D01*
X044280Y018846D02*
X044431Y019071D01*
X044280Y018846D02*
X044130Y019071D01*
X046004Y015900D02*
X045929Y015825D01*
X045929Y015750D01*
X046004Y015675D01*
X046154Y015675D01*
X046229Y015750D01*
X046229Y015825D01*
X046154Y015900D01*
X046004Y015900D01*
X046004Y015675D02*
X045929Y015600D01*
X045929Y015525D01*
X046004Y015450D01*
X046154Y015450D01*
X046229Y015525D01*
X046229Y015600D01*
X046154Y015675D01*
X046390Y015600D02*
X046465Y015675D01*
X046690Y015675D01*
X046690Y015525D01*
X046615Y015450D01*
X046465Y015450D01*
X046390Y015525D01*
X046390Y015600D01*
X046540Y015825D02*
X046690Y015675D01*
X046850Y015675D02*
X046925Y015600D01*
X047150Y015600D01*
X047279Y015555D02*
X047504Y015405D01*
X047279Y015255D01*
X047504Y015255D02*
X047504Y015705D01*
X047665Y015630D02*
X047965Y015330D01*
X047890Y015255D01*
X047740Y015255D01*
X047665Y015330D01*
X047665Y015630D01*
X047740Y015705D01*
X047890Y015705D01*
X047965Y015630D01*
X047965Y015330D01*
X048125Y015255D02*
X048425Y015255D01*
X048275Y015255D02*
X048275Y015705D01*
X048425Y015555D01*
X047150Y015450D02*
X047150Y015900D01*
X046925Y015900D01*
X046850Y015825D01*
X046850Y015675D01*
X047000Y015600D02*
X046850Y015450D01*
X046540Y015825D02*
X046390Y015900D01*
X047525Y014115D02*
X047450Y014040D01*
X047450Y013890D01*
X047525Y013815D01*
X047675Y013815D02*
X047751Y013965D01*
X047751Y014040D01*
X047675Y014115D01*
X047525Y014115D01*
X047675Y013815D02*
X047901Y013815D01*
X047901Y014115D01*
X047901Y013654D02*
X047901Y013354D01*
X047675Y013354D01*
X047751Y013504D01*
X047751Y013579D01*
X047675Y013654D01*
X047525Y013654D01*
X047450Y013579D01*
X047450Y013429D01*
X047525Y013354D01*
X047525Y013194D02*
X047450Y013119D01*
X047450Y012969D01*
X047525Y012894D01*
X047675Y012894D02*
X047751Y013044D01*
X047751Y013119D01*
X047675Y013194D01*
X047525Y013194D01*
X047675Y012894D02*
X047901Y012894D01*
X047901Y013194D01*
X048225Y012692D02*
X048526Y012993D01*
X048601Y012993D01*
X048601Y012692D01*
X048526Y012532D02*
X048601Y012457D01*
X048601Y012307D01*
X048526Y012232D01*
X048225Y012232D01*
X048150Y012307D01*
X048150Y012457D01*
X048225Y012532D01*
X048225Y012692D02*
X048150Y012692D01*
X047901Y012734D02*
X047901Y012433D01*
X047450Y012433D01*
X047450Y012734D01*
X047675Y012584D02*
X047675Y012433D01*
X047450Y012273D02*
X047901Y012273D01*
X047901Y011973D02*
X047450Y012273D01*
X047450Y011973D02*
X047901Y011973D01*
X048150Y012000D02*
X048601Y012000D01*
X048601Y011925D02*
X048601Y012075D01*
X048150Y012075D02*
X048150Y011925D01*
X044475Y012200D02*
X044400Y012125D01*
X044250Y012125D01*
X044175Y012200D01*
X044015Y012200D02*
X043940Y012125D01*
X043790Y012125D01*
X043715Y012200D01*
X043715Y012275D01*
X043790Y012350D01*
X044015Y012350D01*
X044015Y012200D01*
X044015Y012350D02*
X043865Y012500D01*
X043715Y012575D01*
X044175Y012500D02*
X044250Y012575D01*
X044400Y012575D01*
X044475Y012500D01*
X044475Y012200D01*
X044275Y011325D02*
X044350Y011250D01*
X044350Y010950D01*
X044275Y010875D01*
X044125Y010875D01*
X044050Y010950D01*
X043890Y010950D02*
X043890Y010875D01*
X043890Y010950D02*
X043590Y011250D01*
X043590Y011325D01*
X043890Y011325D01*
X044050Y011250D02*
X044125Y011325D01*
X044275Y011325D01*
X043350Y010825D02*
X043200Y010975D01*
X043200Y010525D01*
X043350Y010525D02*
X043050Y010525D01*
X042890Y010600D02*
X042590Y010900D01*
X042590Y010600D01*
X042665Y010525D01*
X042815Y010525D01*
X042890Y010600D01*
X042890Y010900D01*
X042815Y010975D01*
X042665Y010975D01*
X042590Y010900D01*
X042429Y010825D02*
X042204Y010825D01*
X042129Y010750D01*
X042129Y010525D01*
X042429Y010525D02*
X042429Y010825D01*
X041725Y012150D02*
X041425Y012150D01*
X041575Y012150D02*
X041575Y012600D01*
X041725Y012450D01*
X041265Y012525D02*
X041265Y012225D01*
X040965Y012525D01*
X040965Y012225D01*
X041040Y012150D01*
X041190Y012150D01*
X041265Y012225D01*
X041265Y012525D02*
X041190Y012600D01*
X041040Y012600D01*
X040965Y012525D01*
X040804Y012450D02*
X040804Y012225D01*
X040729Y012150D01*
X040504Y012150D01*
X040504Y012450D01*
X024468Y013246D02*
X024155Y013246D01*
X024155Y013434D01*
X024155Y013246D02*
X024155Y013059D01*
X024155Y013246D02*
X023905Y013434D01*
X023905Y013246D01*
X023592Y013246D01*
X023905Y013246D02*
X023905Y013059D01*
X024155Y013246D01*
X017555Y015471D02*
X017555Y015772D01*
X017480Y015772D01*
X017180Y015471D01*
X017105Y015471D01*
X017105Y015772D01*
X017180Y015932D02*
X017105Y016007D01*
X017105Y016232D01*
X017405Y016232D01*
X017555Y016157D02*
X017630Y016157D01*
X017630Y016007D02*
X017555Y016007D01*
X017405Y015932D02*
X017180Y015932D01*
X017105Y016392D02*
X017555Y016392D01*
X017105Y016692D01*
X017555Y016692D01*
X017555Y016853D02*
X017105Y016853D01*
X017105Y017078D01*
X017180Y017153D01*
X017480Y017153D01*
X017555Y017078D01*
X017555Y016853D01*
X017480Y017313D02*
X017405Y017313D01*
X017330Y017388D01*
X017330Y017538D01*
X017255Y017613D01*
X017180Y017613D01*
X017105Y017538D01*
X017105Y017388D01*
X017180Y017313D01*
X017480Y017313D02*
X017555Y017388D01*
X017555Y017538D01*
X017480Y017613D01*
X017555Y017773D02*
X017105Y017773D01*
X017255Y017773D02*
X017255Y017999D01*
X017330Y018074D01*
X017480Y018074D01*
X017555Y017999D01*
X017555Y017773D01*
X017555Y018234D02*
X017180Y018234D01*
X017105Y018309D01*
X017105Y018459D01*
X017180Y018534D01*
X017555Y018534D01*
X017555Y018694D02*
X017105Y018694D01*
X017105Y018994D01*
X017105Y019155D02*
X017105Y019455D01*
X017330Y019305D02*
X017330Y019155D01*
X017555Y019155D02*
X017105Y019155D01*
X017555Y019155D02*
X017555Y019455D01*
X023905Y017184D02*
X024155Y016996D01*
X024468Y016996D01*
X024155Y016996D02*
X024155Y017184D01*
X024155Y016996D02*
X024155Y016809D01*
X024155Y016996D02*
X023905Y016809D01*
X023905Y016996D01*
X023592Y016996D01*
X023905Y016996D02*
X023905Y017184D01*
X023905Y015934D02*
X024155Y015746D01*
X024468Y015746D01*
X024155Y015746D02*
X024155Y015934D01*
X024155Y015746D02*
X024155Y015559D01*
X024155Y015746D02*
X023905Y015559D01*
X023905Y015746D01*
X023592Y015746D01*
X023905Y015746D02*
X023905Y015934D01*
X003655Y008434D02*
X003655Y008246D01*
X003968Y008246D01*
X003655Y008246D02*
X003655Y008059D01*
X003655Y008246D02*
X003405Y008059D01*
X003405Y008246D01*
X003092Y008246D01*
X003405Y008246D02*
X003405Y008434D01*
X003655Y008246D01*
X003655Y007184D02*
X003655Y006996D01*
X003968Y006996D01*
X003655Y006996D02*
X003655Y006809D01*
X003655Y006996D02*
X003405Y006809D01*
X003405Y006996D01*
X003092Y006996D01*
X003405Y006996D02*
X003405Y007184D01*
X003655Y006996D01*
X003655Y005934D02*
X003655Y005746D01*
X003968Y005746D01*
X003655Y005746D02*
X003405Y005934D01*
X003405Y005746D01*
X003092Y005746D01*
X003405Y005746D02*
X003405Y005559D01*
X003655Y005746D01*
X003655Y005559D01*
X003655Y004684D02*
X003655Y004496D01*
X003968Y004496D01*
X003655Y004496D02*
X003655Y004309D01*
X003655Y004496D02*
X003405Y004309D01*
X003405Y004496D01*
X003092Y004496D01*
X003405Y004496D02*
X003405Y004684D01*
X003655Y004496D01*
X003655Y003434D02*
X003655Y003246D01*
X003968Y003246D01*
X003655Y003246D02*
X003655Y003059D01*
X003655Y003246D02*
X003405Y003059D01*
X003405Y003246D01*
X003092Y003246D01*
X003405Y003246D02*
X003405Y003434D01*
X003655Y003246D01*
X013515Y003222D02*
X013515Y003147D01*
X013590Y003071D01*
X013740Y003071D01*
X013815Y003147D01*
X013976Y003147D02*
X013976Y003522D01*
X013815Y003447D02*
X013815Y003372D01*
X013740Y003297D01*
X013590Y003297D01*
X013515Y003222D01*
X013515Y003447D02*
X013590Y003522D01*
X013740Y003522D01*
X013815Y003447D01*
X013976Y003147D02*
X014051Y003071D01*
X014201Y003071D01*
X014276Y003147D01*
X014276Y003522D01*
X014736Y003522D02*
X014736Y003071D01*
X014436Y003071D01*
X014896Y003297D02*
X014971Y003222D01*
X015197Y003222D01*
X015197Y003071D02*
X015197Y003522D01*
X014971Y003522D01*
X014896Y003447D01*
X014896Y003297D01*
X015357Y003447D02*
X015432Y003522D01*
X015657Y003522D01*
X015657Y003071D01*
X015432Y003071D01*
X015357Y003147D01*
X015357Y003447D01*
X015817Y003522D02*
X015817Y003071D01*
X016117Y003522D01*
X016117Y003071D01*
X016277Y003147D02*
X016277Y003522D01*
X016353Y003597D02*
X016353Y003672D01*
X016503Y003672D02*
X016503Y003597D01*
X016578Y003522D02*
X016578Y003147D01*
X016503Y003071D01*
X016353Y003071D01*
X016277Y003147D01*
X016738Y003071D02*
X017038Y003071D01*
X017038Y003147D01*
X016738Y003447D01*
X016738Y003522D01*
X017038Y003522D01*
X038465Y001925D02*
X038765Y001925D01*
X038765Y001700D01*
X038615Y001775D01*
X038540Y001775D01*
X038465Y001700D01*
X038465Y001550D01*
X038540Y001475D01*
X038690Y001475D01*
X038765Y001550D01*
X038925Y001550D02*
X039000Y001475D01*
X039150Y001475D01*
X039225Y001550D01*
X039225Y001850D01*
X039150Y001925D01*
X039000Y001925D01*
X038925Y001850D01*
X039754Y001550D02*
X039754Y001250D01*
X039979Y001250D01*
X040054Y001325D01*
X040054Y001550D01*
X040215Y001625D02*
X040515Y001325D01*
X040440Y001250D01*
X040290Y001250D01*
X040215Y001325D01*
X040215Y001625D01*
X040290Y001700D01*
X040440Y001700D01*
X040515Y001625D01*
X040515Y001325D01*
X040675Y001250D02*
X040975Y001250D01*
X040825Y001250D02*
X040825Y001700D01*
X040975Y001550D01*
X041679Y001100D02*
X041754Y001175D01*
X041904Y001175D01*
X041979Y001100D01*
X041979Y000800D01*
X041679Y001100D01*
X041679Y000800D01*
X041754Y000725D01*
X041904Y000725D01*
X041979Y000800D01*
X042140Y000800D02*
X042140Y000950D01*
X042215Y001025D01*
X042290Y001025D01*
X042440Y000950D01*
X042440Y001175D01*
X042140Y001175D01*
X042600Y001100D02*
X042675Y001175D01*
X042900Y001175D01*
X042900Y000725D01*
X042900Y000875D02*
X042675Y000875D01*
X042600Y000950D01*
X042600Y001100D01*
X042750Y000875D02*
X042600Y000725D01*
X042440Y000800D02*
X042365Y000725D01*
X042215Y000725D01*
X042140Y000800D01*
X043279Y000655D02*
X043504Y000805D01*
X043279Y000955D01*
X043504Y001105D02*
X043504Y000655D01*
X043665Y000730D02*
X043740Y000655D01*
X043890Y000655D01*
X043965Y000730D01*
X043665Y001030D01*
X043665Y000730D01*
X043965Y000730D02*
X043965Y001030D01*
X043890Y001105D01*
X043740Y001105D01*
X043665Y001030D01*
X044275Y001105D02*
X044275Y000655D01*
X044425Y000655D02*
X044125Y000655D01*
X044425Y000955D02*
X044275Y001105D01*
X043800Y001705D02*
X043500Y002005D01*
X043500Y002080D01*
X043575Y002155D01*
X043725Y002155D01*
X043800Y002080D01*
X043340Y002080D02*
X043340Y001780D01*
X043040Y002080D01*
X043040Y001780D01*
X043115Y001705D01*
X043265Y001705D01*
X043340Y001780D01*
X043500Y001705D02*
X043800Y001705D01*
X042879Y001705D02*
X042879Y002155D01*
X043040Y002080D02*
X043115Y002155D01*
X043265Y002155D01*
X043340Y002080D01*
X042879Y001855D02*
X042654Y002005D01*
X042650Y002150D02*
X042650Y002600D01*
X042425Y002600D01*
X042350Y002525D01*
X042350Y002375D01*
X042425Y002300D01*
X042650Y002300D01*
X042500Y002300D02*
X042350Y002150D01*
X042190Y002225D02*
X042115Y002150D01*
X041965Y002150D01*
X041890Y002225D01*
X041890Y002375D01*
X041965Y002450D01*
X042040Y002450D01*
X042190Y002375D01*
X042190Y002600D01*
X041890Y002600D01*
X041729Y002450D02*
X041579Y002600D01*
X041579Y002150D01*
X041729Y002150D02*
X041429Y002150D01*
X042654Y001705D02*
X042879Y001855D01*
X048950Y003625D02*
X049401Y003625D01*
X049175Y003400D01*
X049175Y003700D01*
X049025Y003860D02*
X049326Y004161D01*
X049025Y004161D01*
X048950Y004086D01*
X048950Y003935D01*
X049025Y003860D01*
X049326Y003860D01*
X049401Y003935D01*
X049401Y004086D01*
X049326Y004161D01*
X049326Y004321D02*
X049401Y004396D01*
X049401Y004546D01*
X049326Y004621D01*
X049251Y004621D01*
X048950Y004321D01*
X048950Y004621D01*
X048776Y004650D02*
X048776Y004500D01*
X048776Y004575D02*
X048325Y004575D01*
X048325Y004500D02*
X048325Y004650D01*
X048400Y004807D02*
X048325Y004882D01*
X048325Y005032D01*
X048400Y005107D01*
X048400Y005267D02*
X048325Y005342D01*
X048325Y005493D01*
X048400Y005568D01*
X048475Y005568D01*
X048550Y005493D01*
X048550Y005267D01*
X048400Y005267D01*
X048550Y005267D02*
X048701Y005417D01*
X048776Y005568D01*
X048950Y005542D02*
X049401Y005542D01*
X049401Y005242D02*
X048950Y005542D01*
X048950Y005242D02*
X049401Y005242D01*
X049326Y005081D02*
X049025Y005081D01*
X048950Y005006D01*
X048950Y004856D01*
X049025Y004781D01*
X049326Y005081D01*
X049401Y005006D01*
X049401Y004856D01*
X049326Y004781D01*
X049025Y004781D01*
X048776Y004882D02*
X048701Y004807D01*
X048400Y004807D01*
X048776Y004882D02*
X048776Y005032D01*
X048701Y005107D01*
D17*
X034066Y003161D02*
X034066Y000581D01*
X032744Y000581D01*
X032744Y003161D01*
X034066Y003161D01*
X029691Y003161D02*
X029691Y000581D01*
X028369Y000581D01*
X028369Y003161D01*
X029691Y003161D01*
X003820Y011086D02*
X003820Y012407D01*
X001240Y012407D01*
X001240Y011086D01*
X003820Y011086D01*
X011615Y015336D02*
X014195Y015336D01*
X014195Y016657D01*
X011615Y016657D01*
X011615Y015336D01*
X046565Y015980D02*
X050935Y015980D01*
X046565Y015980D02*
X046565Y020220D01*
X050935Y020220D01*
D18*
X046505Y018100D03*
D19*
X042795Y013100D02*
X042795Y012500D01*
X042545Y012500D02*
X042545Y013100D01*
X042545Y011850D02*
X042545Y011250D01*
X042795Y011250D02*
X042795Y011850D01*
X039795Y001200D02*
X039795Y000600D01*
X039545Y000600D02*
X039545Y001200D01*
D20*
X041800Y000900D02*
X041950Y000900D01*
X041950Y001950D02*
X041800Y001950D01*
X045150Y001950D02*
X045300Y001950D01*
X045300Y000900D02*
X045150Y000900D01*
X045175Y015250D02*
X045825Y015250D01*
X049025Y015250D02*
X049675Y015250D01*
X044375Y017050D02*
X044375Y017200D01*
X044375Y020400D02*
X044375Y020550D01*
D21*
X045005Y015250D03*
X046005Y015250D03*
X048845Y015250D03*
X049845Y015250D03*
X045470Y001950D03*
X044970Y001950D03*
X044970Y000900D03*
X045470Y000900D03*
X042130Y000900D03*
X041630Y000900D03*
X041630Y001950D03*
X042130Y001950D03*
D22*
X044375Y016880D03*
X044375Y017380D03*
X044375Y020220D03*
X044375Y020720D03*
M02*
