G75*
G70*
%OFA0B0*%
%FSLAX24Y24*%
%IPPOS*%
%LPD*%
%AMOC8*
5,1,8,0,0,1.08239X$1,22.5*
%
%ADD10C,0.0460*%
%ADD11C,0.0920*%
%ADD12C,0.0217*%
%ADD13R,0.0860X0.0320*%
%ADD14C,0.0760*%
%ADD15OC8,0.0540*%
%ADD16C,0.0660*%
%ADD17R,0.0560X0.0660*%
%ADD18C,0.0920*%
%ADD19C,0.0115*%
%ADD20R,0.0860X0.0560*%
%ADD21C,0.0720*%
%ADD22C,0.0769*%
%ADD23C,0.0651*%
%ADD24C,0.0620*%
%ADD25R,0.0757X0.0926*%
%ADD26R,0.0926X0.0296*%
%ADD27R,0.0940X0.0460*%
%ADD28R,0.0540X0.0940*%
%ADD29R,0.1477X0.0926*%
%ADD30R,0.0926X0.0757*%
%ADD31R,0.0940X0.0540*%
%ADD32R,0.0926X0.1477*%
%ADD33R,0.0454X0.0611*%
%ADD34R,0.0375X0.0769*%
%ADD35R,0.0375X0.0966*%
%ADD36C,0.0645*%
%ADD37R,0.0808X0.0375*%
%ADD38R,0.0651X0.0375*%
%ADD39R,0.1477X0.0966*%
%ADD40R,0.0769X0.0375*%
%ADD41R,0.0966X0.0375*%
%ADD42R,0.0510X0.0460*%
%ADD43R,0.0296X0.0926*%
%ADD44R,0.0320X0.0860*%
%ADD45C,0.0580*%
%ADD46R,0.0375X0.0808*%
%ADD47R,0.0375X0.0651*%
%ADD48R,0.0966X0.1477*%
%ADD49C,0.0108*%
%ADD50C,0.0416*%
%ADD51C,0.0377*%
%ADD52C,0.0500*%
%ADD53C,0.0820*%
D10*
X034082Y001136D03*
X034400Y001525D03*
X034875Y001750D03*
X035325Y001875D03*
X035825Y001900D03*
D11*
X035555Y002645D03*
X001893Y018157D03*
D12*
X002484Y001014D03*
X002641Y001171D03*
X002878Y001250D03*
X003114Y001171D03*
X003271Y001014D03*
X022563Y001014D03*
X022720Y001171D03*
X022956Y001250D03*
X023193Y001171D03*
X023350Y001014D03*
X022956Y020104D03*
X022720Y020182D03*
X022563Y020340D03*
X023193Y020182D03*
X023350Y020340D03*
X033507Y020340D03*
X033665Y020182D03*
X033901Y020104D03*
X034137Y020182D03*
X034295Y020340D03*
X003271Y020340D03*
X003114Y020182D03*
X002878Y020104D03*
X002641Y020182D03*
X002484Y020340D03*
D13*
X032640Y019100D03*
X032640Y018600D03*
X032640Y018100D03*
X032640Y017600D03*
X032640Y017100D03*
X032640Y016600D03*
X032640Y016100D03*
X032640Y015600D03*
X035060Y015600D03*
X035060Y016100D03*
X035060Y016600D03*
X035060Y017100D03*
X035060Y017600D03*
X035060Y018100D03*
X035060Y018600D03*
X035060Y019100D03*
X035060Y012000D03*
X035060Y011500D03*
X035060Y011000D03*
X035060Y010500D03*
X035060Y010000D03*
X035060Y009500D03*
X035060Y009000D03*
X035060Y008500D03*
X032640Y008500D03*
X032640Y009000D03*
X032640Y009500D03*
X032640Y010000D03*
X032640Y010500D03*
X032640Y011000D03*
X032640Y011500D03*
X032640Y012000D03*
D14*
X002750Y012175D03*
X002750Y011075D03*
X001050Y011075D03*
X001050Y012175D03*
X001050Y019175D03*
X002750Y019175D03*
X002750Y004075D03*
X001050Y004075D03*
D15*
X022150Y004476D03*
X023150Y004476D03*
X022550Y003250D03*
X023300Y002750D03*
X022550Y002250D03*
X022150Y005854D03*
X023150Y005854D03*
X023150Y007232D03*
X022150Y007232D03*
X022150Y008610D03*
X023150Y008610D03*
X023150Y011366D03*
X022150Y011366D03*
X022150Y012744D03*
X023150Y012744D03*
D16*
X024335Y014122D02*
X024935Y014122D01*
X026501Y012744D02*
X027101Y012744D01*
X028585Y014122D02*
X029185Y014122D01*
X030751Y012744D02*
X031351Y012744D01*
X029185Y011366D02*
X028585Y011366D01*
X027101Y009988D02*
X026501Y009988D01*
X024935Y011366D02*
X024335Y011366D01*
X024335Y008610D02*
X024935Y008610D01*
X026501Y007232D02*
X027101Y007232D01*
X028585Y005854D02*
X029185Y005854D01*
X030751Y007232D02*
X031351Y007232D01*
X029185Y008610D02*
X028585Y008610D01*
X030751Y009988D02*
X031351Y009988D01*
X024935Y005854D02*
X024335Y005854D01*
X026501Y004476D02*
X027101Y004476D01*
X028585Y003098D02*
X029185Y003098D01*
X030751Y004476D02*
X031351Y004476D01*
X024935Y003098D02*
X024335Y003098D01*
X019100Y013267D02*
X019100Y013867D01*
X018100Y013867D02*
X018100Y013267D01*
X017100Y013267D02*
X017100Y013867D01*
X024335Y016878D02*
X024935Y016878D01*
X026501Y018256D02*
X027101Y018256D01*
X028585Y016878D02*
X029185Y016878D01*
X030751Y018256D02*
X031351Y018256D01*
X031351Y015500D02*
X030751Y015500D01*
X027101Y015500D02*
X026501Y015500D01*
D17*
X018100Y015300D03*
X017100Y015300D03*
X030250Y005850D03*
X031250Y005850D03*
X029750Y004150D03*
X028750Y004150D03*
D18*
X014384Y003661D02*
X013524Y003661D01*
X013524Y005220D02*
X014384Y005220D01*
X014384Y006779D02*
X013524Y006779D01*
X013524Y008338D02*
X014384Y008338D01*
X014384Y009897D02*
X013524Y009897D01*
X013524Y011456D02*
X014384Y011456D01*
X014384Y013015D02*
X013524Y013015D01*
X013524Y014574D02*
X014384Y014574D01*
X014384Y016133D02*
X013524Y016133D01*
X013524Y017693D02*
X014384Y017693D01*
X014384Y019252D02*
X013524Y019252D01*
X005723Y019252D02*
X004863Y019252D01*
X004863Y017693D02*
X005723Y017693D01*
X005723Y016133D02*
X004863Y016133D01*
X004863Y014574D02*
X005723Y014574D01*
X005723Y013015D02*
X004863Y013015D01*
X004863Y011456D02*
X005723Y011456D01*
X005723Y009897D02*
X004863Y009897D01*
X004863Y008338D02*
X005723Y008338D01*
X005723Y006779D02*
X004863Y006779D01*
X004863Y005220D02*
X005723Y005220D01*
X005723Y003661D02*
X004863Y003661D01*
X004863Y002102D02*
X005723Y002102D01*
X013524Y002102D02*
X014384Y002102D01*
D19*
X016048Y002273D02*
X016048Y001927D01*
X015552Y001927D01*
X015552Y002273D01*
X016048Y002273D01*
X016048Y002041D02*
X015552Y002041D01*
X015552Y002155D02*
X016048Y002155D01*
X016048Y002269D02*
X015552Y002269D01*
X016602Y002273D02*
X016602Y001927D01*
X016602Y002273D02*
X017098Y002273D01*
X017098Y001927D01*
X016602Y001927D01*
X016602Y002041D02*
X017098Y002041D01*
X017098Y002155D02*
X016602Y002155D01*
X016602Y002269D02*
X017098Y002269D01*
X017652Y002273D02*
X017652Y001927D01*
X017652Y002273D02*
X018148Y002273D01*
X018148Y001927D01*
X017652Y001927D01*
X017652Y002041D02*
X018148Y002041D01*
X018148Y002155D02*
X017652Y002155D01*
X017652Y002269D02*
X018148Y002269D01*
X018652Y002273D02*
X018652Y001927D01*
X018652Y002273D02*
X019148Y002273D01*
X019148Y001927D01*
X018652Y001927D01*
X018652Y002041D02*
X019148Y002041D01*
X019148Y002155D02*
X018652Y002155D01*
X018652Y002269D02*
X019148Y002269D01*
X018652Y001573D02*
X018652Y001227D01*
X018652Y001573D02*
X019148Y001573D01*
X019148Y001227D01*
X018652Y001227D01*
X018652Y001341D02*
X019148Y001341D01*
X019148Y001455D02*
X018652Y001455D01*
X018652Y001569D02*
X019148Y001569D01*
X017652Y001573D02*
X017652Y001227D01*
X017652Y001573D02*
X018148Y001573D01*
X018148Y001227D01*
X017652Y001227D01*
X017652Y001341D02*
X018148Y001341D01*
X018148Y001455D02*
X017652Y001455D01*
X017652Y001569D02*
X018148Y001569D01*
X016602Y001573D02*
X016602Y001227D01*
X016602Y001573D02*
X017098Y001573D01*
X017098Y001227D01*
X016602Y001227D01*
X016602Y001341D02*
X017098Y001341D01*
X017098Y001455D02*
X016602Y001455D01*
X016602Y001569D02*
X017098Y001569D01*
X016048Y001573D02*
X016048Y001227D01*
X015552Y001227D01*
X015552Y001573D01*
X016048Y001573D01*
X016048Y001341D02*
X015552Y001341D01*
X015552Y001455D02*
X016048Y001455D01*
X016048Y001569D02*
X015552Y001569D01*
X015848Y003502D02*
X015848Y003848D01*
X015848Y003502D02*
X015352Y003502D01*
X015352Y003848D01*
X015848Y003848D01*
X015848Y003616D02*
X015352Y003616D01*
X015352Y003730D02*
X015848Y003730D01*
X015848Y003844D02*
X015352Y003844D01*
X015848Y004202D02*
X015848Y004548D01*
X015848Y004202D02*
X015352Y004202D01*
X015352Y004548D01*
X015848Y004548D01*
X015848Y004316D02*
X015352Y004316D01*
X015352Y004430D02*
X015848Y004430D01*
X015848Y004544D02*
X015352Y004544D01*
X015352Y005927D02*
X015352Y006273D01*
X015848Y006273D01*
X015848Y005927D01*
X015352Y005927D01*
X015352Y006041D02*
X015848Y006041D01*
X015848Y006155D02*
X015352Y006155D01*
X015352Y006269D02*
X015848Y006269D01*
X015352Y006627D02*
X015352Y006973D01*
X015848Y006973D01*
X015848Y006627D01*
X015352Y006627D01*
X015352Y006741D02*
X015848Y006741D01*
X015848Y006855D02*
X015352Y006855D01*
X015352Y006969D02*
X015848Y006969D01*
X016802Y008052D02*
X017148Y008052D01*
X016802Y008052D02*
X016802Y008548D01*
X017148Y008548D01*
X017148Y008052D01*
X017148Y008166D02*
X016802Y008166D01*
X016802Y008280D02*
X017148Y008280D01*
X017148Y008394D02*
X016802Y008394D01*
X016802Y008508D02*
X017148Y008508D01*
X017502Y008052D02*
X017848Y008052D01*
X017502Y008052D02*
X017502Y008548D01*
X017848Y008548D01*
X017848Y008052D01*
X017848Y008166D02*
X017502Y008166D01*
X017502Y008280D02*
X017848Y008280D01*
X017848Y008394D02*
X017502Y008394D01*
X017502Y008508D02*
X017848Y008508D01*
X018752Y008052D02*
X019098Y008052D01*
X018752Y008052D02*
X018752Y008548D01*
X019098Y008548D01*
X019098Y008052D01*
X019098Y008166D02*
X018752Y008166D01*
X018752Y008280D02*
X019098Y008280D01*
X019098Y008394D02*
X018752Y008394D01*
X018752Y008508D02*
X019098Y008508D01*
X019452Y008052D02*
X019798Y008052D01*
X019452Y008052D02*
X019452Y008548D01*
X019798Y008548D01*
X019798Y008052D01*
X019798Y008166D02*
X019452Y008166D01*
X019452Y008280D02*
X019798Y008280D01*
X019798Y008394D02*
X019452Y008394D01*
X019452Y008508D02*
X019798Y008508D01*
X021002Y007998D02*
X021002Y007652D01*
X021002Y007998D02*
X021498Y007998D01*
X021498Y007652D01*
X021002Y007652D01*
X021002Y007766D02*
X021498Y007766D01*
X021498Y007880D02*
X021002Y007880D01*
X021002Y007994D02*
X021498Y007994D01*
X021002Y007298D02*
X021002Y006952D01*
X021002Y007298D02*
X021498Y007298D01*
X021498Y006952D01*
X021002Y006952D01*
X021002Y007066D02*
X021498Y007066D01*
X021498Y007180D02*
X021002Y007180D01*
X021002Y007294D02*
X021498Y007294D01*
X021498Y006198D02*
X021498Y005852D01*
X021002Y005852D01*
X021002Y006198D01*
X021498Y006198D01*
X021498Y005966D02*
X021002Y005966D01*
X021002Y006080D02*
X021498Y006080D01*
X021498Y006194D02*
X021002Y006194D01*
X020448Y005673D02*
X020448Y005327D01*
X019952Y005327D01*
X019952Y005673D01*
X020448Y005673D01*
X020448Y005441D02*
X019952Y005441D01*
X019952Y005555D02*
X020448Y005555D01*
X020448Y005669D02*
X019952Y005669D01*
X021498Y005498D02*
X021498Y005152D01*
X021002Y005152D01*
X021002Y005498D01*
X021498Y005498D01*
X021498Y005266D02*
X021002Y005266D01*
X021002Y005380D02*
X021498Y005380D01*
X021498Y005494D02*
X021002Y005494D01*
X020448Y004973D02*
X020448Y004627D01*
X019952Y004627D01*
X019952Y004973D01*
X020448Y004973D01*
X020448Y004741D02*
X019952Y004741D01*
X019952Y004855D02*
X020448Y004855D01*
X020448Y004969D02*
X019952Y004969D01*
X021002Y004373D02*
X021002Y004027D01*
X021002Y004373D02*
X021498Y004373D01*
X021498Y004027D01*
X021002Y004027D01*
X021002Y004141D02*
X021498Y004141D01*
X021498Y004255D02*
X021002Y004255D01*
X021002Y004369D02*
X021498Y004369D01*
X021002Y003673D02*
X021002Y003327D01*
X021002Y003673D02*
X021498Y003673D01*
X021498Y003327D01*
X021002Y003327D01*
X021002Y003441D02*
X021498Y003441D01*
X021498Y003555D02*
X021002Y003555D01*
X021002Y003669D02*
X021498Y003669D01*
X023877Y004202D02*
X024223Y004202D01*
X023877Y004202D02*
X023877Y004698D01*
X024223Y004698D01*
X024223Y004202D01*
X024223Y004316D02*
X023877Y004316D01*
X023877Y004430D02*
X024223Y004430D01*
X024223Y004544D02*
X023877Y004544D01*
X023877Y004658D02*
X024223Y004658D01*
X024577Y004202D02*
X024923Y004202D01*
X024577Y004202D02*
X024577Y004698D01*
X024923Y004698D01*
X024923Y004202D01*
X024923Y004316D02*
X024577Y004316D01*
X024577Y004430D02*
X024923Y004430D01*
X024923Y004544D02*
X024577Y004544D01*
X024577Y004658D02*
X024923Y004658D01*
X019248Y007177D02*
X018902Y007177D01*
X018902Y007673D01*
X019248Y007673D01*
X019248Y007177D01*
X019248Y007291D02*
X018902Y007291D01*
X018902Y007405D02*
X019248Y007405D01*
X019248Y007519D02*
X018902Y007519D01*
X018902Y007633D02*
X019248Y007633D01*
X018548Y007177D02*
X018202Y007177D01*
X018202Y007673D01*
X018548Y007673D01*
X018548Y007177D01*
X018548Y007291D02*
X018202Y007291D01*
X018202Y007405D02*
X018548Y007405D01*
X018548Y007519D02*
X018202Y007519D01*
X018202Y007633D02*
X018548Y007633D01*
X016502Y009377D02*
X016502Y009723D01*
X016998Y009723D01*
X016998Y009377D01*
X016502Y009377D01*
X016502Y009491D02*
X016998Y009491D01*
X016998Y009605D02*
X016502Y009605D01*
X016502Y009719D02*
X016998Y009719D01*
X016502Y010077D02*
X016502Y010423D01*
X016998Y010423D01*
X016998Y010077D01*
X016502Y010077D01*
X016502Y010191D02*
X016998Y010191D01*
X016998Y010305D02*
X016502Y010305D01*
X016502Y010419D02*
X016998Y010419D01*
X015502Y010423D02*
X015502Y010077D01*
X015502Y010423D02*
X015998Y010423D01*
X015998Y010077D01*
X015502Y010077D01*
X015502Y010191D02*
X015998Y010191D01*
X015998Y010305D02*
X015502Y010305D01*
X015502Y010419D02*
X015998Y010419D01*
X015502Y009723D02*
X015502Y009377D01*
X015502Y009723D02*
X015998Y009723D01*
X015998Y009377D01*
X015502Y009377D01*
X015502Y009491D02*
X015998Y009491D01*
X015998Y009605D02*
X015502Y009605D01*
X015502Y009719D02*
X015998Y009719D01*
X018177Y012448D02*
X018523Y012448D01*
X018523Y011952D01*
X018177Y011952D01*
X018177Y012448D01*
X018177Y012066D02*
X018523Y012066D01*
X018523Y012180D02*
X018177Y012180D01*
X018177Y012294D02*
X018523Y012294D01*
X018523Y012408D02*
X018177Y012408D01*
X018877Y012448D02*
X019223Y012448D01*
X019223Y011952D01*
X018877Y011952D01*
X018877Y012448D01*
X018877Y012066D02*
X019223Y012066D01*
X019223Y012180D02*
X018877Y012180D01*
X018877Y012294D02*
X019223Y012294D01*
X019223Y012408D02*
X018877Y012408D01*
X024477Y009952D02*
X024823Y009952D01*
X024477Y009952D02*
X024477Y010448D01*
X024823Y010448D01*
X024823Y009952D01*
X024823Y010066D02*
X024477Y010066D01*
X024477Y010180D02*
X024823Y010180D01*
X024823Y010294D02*
X024477Y010294D01*
X024477Y010408D02*
X024823Y010408D01*
X025177Y009952D02*
X025523Y009952D01*
X025177Y009952D02*
X025177Y010448D01*
X025523Y010448D01*
X025523Y009952D01*
X025523Y010066D02*
X025177Y010066D01*
X025177Y010180D02*
X025523Y010180D01*
X025523Y010294D02*
X025177Y010294D01*
X025177Y010408D02*
X025523Y010408D01*
X028377Y010152D02*
X028723Y010152D01*
X028377Y010152D02*
X028377Y010648D01*
X028723Y010648D01*
X028723Y010152D01*
X028723Y010266D02*
X028377Y010266D01*
X028377Y010380D02*
X028723Y010380D01*
X028723Y010494D02*
X028377Y010494D01*
X028377Y010608D02*
X028723Y010608D01*
X029077Y010152D02*
X029423Y010152D01*
X029077Y010152D02*
X029077Y010648D01*
X029423Y010648D01*
X029423Y010152D01*
X029423Y010266D02*
X029077Y010266D01*
X029077Y010380D02*
X029423Y010380D01*
X029423Y010494D02*
X029077Y010494D01*
X029077Y010608D02*
X029423Y010608D01*
X027073Y008798D02*
X026727Y008798D01*
X027073Y008798D02*
X027073Y008302D01*
X026727Y008302D01*
X026727Y008798D01*
X026727Y008416D02*
X027073Y008416D01*
X027073Y008530D02*
X026727Y008530D01*
X026727Y008644D02*
X027073Y008644D01*
X027073Y008758D02*
X026727Y008758D01*
X026373Y008798D02*
X026027Y008798D01*
X026373Y008798D02*
X026373Y008302D01*
X026027Y008302D01*
X026027Y008798D01*
X026027Y008416D02*
X026373Y008416D01*
X026373Y008530D02*
X026027Y008530D01*
X026027Y008644D02*
X026373Y008644D01*
X026373Y008758D02*
X026027Y008758D01*
X034377Y003552D02*
X034723Y003552D01*
X034377Y003552D02*
X034377Y004048D01*
X034723Y004048D01*
X034723Y003552D01*
X034723Y003666D02*
X034377Y003666D01*
X034377Y003780D02*
X034723Y003780D01*
X034723Y003894D02*
X034377Y003894D01*
X034377Y004008D02*
X034723Y004008D01*
X035077Y003552D02*
X035423Y003552D01*
X035077Y003552D02*
X035077Y004048D01*
X035423Y004048D01*
X035423Y003552D01*
X035423Y003666D02*
X035077Y003666D01*
X035077Y003780D02*
X035423Y003780D01*
X035423Y003894D02*
X035077Y003894D01*
X035077Y004008D02*
X035423Y004008D01*
X031673Y013702D02*
X031327Y013702D01*
X031327Y014198D01*
X031673Y014198D01*
X031673Y013702D01*
X031673Y013816D02*
X031327Y013816D01*
X031327Y013930D02*
X031673Y013930D01*
X031673Y014044D02*
X031327Y014044D01*
X031327Y014158D02*
X031673Y014158D01*
X030973Y013702D02*
X030627Y013702D01*
X030627Y014198D01*
X030973Y014198D01*
X030973Y013702D01*
X030973Y013816D02*
X030627Y013816D01*
X030627Y013930D02*
X030973Y013930D01*
X030973Y014044D02*
X030627Y014044D01*
X030627Y014158D02*
X030973Y014158D01*
X026073Y019798D02*
X025727Y019798D01*
X026073Y019798D02*
X026073Y019302D01*
X025727Y019302D01*
X025727Y019798D01*
X025727Y019416D02*
X026073Y019416D01*
X026073Y019530D02*
X025727Y019530D01*
X025727Y019644D02*
X026073Y019644D01*
X026073Y019758D02*
X025727Y019758D01*
X025373Y019798D02*
X025027Y019798D01*
X025373Y019798D02*
X025373Y019302D01*
X025027Y019302D01*
X025027Y019798D01*
X025027Y019416D02*
X025373Y019416D01*
X025373Y019530D02*
X025027Y019530D01*
X025027Y019644D02*
X025373Y019644D01*
X025373Y019758D02*
X025027Y019758D01*
X012052Y016423D02*
X012052Y016077D01*
X012052Y016423D02*
X012548Y016423D01*
X012548Y016077D01*
X012052Y016077D01*
X012052Y016191D02*
X012548Y016191D01*
X012548Y016305D02*
X012052Y016305D01*
X012052Y016419D02*
X012548Y016419D01*
X012052Y015723D02*
X012052Y015377D01*
X012052Y015723D02*
X012548Y015723D01*
X012548Y015377D01*
X012052Y015377D01*
X012052Y015491D02*
X012548Y015491D01*
X012548Y015605D02*
X012052Y015605D01*
X012052Y015719D02*
X012548Y015719D01*
X009273Y014802D02*
X008927Y014802D01*
X008927Y015298D01*
X009273Y015298D01*
X009273Y014802D01*
X009273Y014916D02*
X008927Y014916D01*
X008927Y015030D02*
X009273Y015030D01*
X009273Y015144D02*
X008927Y015144D01*
X008927Y015258D02*
X009273Y015258D01*
X008573Y014802D02*
X008227Y014802D01*
X008227Y015298D01*
X008573Y015298D01*
X008573Y014802D01*
X008573Y014916D02*
X008227Y014916D01*
X008227Y015030D02*
X008573Y015030D01*
X008573Y015144D02*
X008227Y015144D01*
X008227Y015258D02*
X008573Y015258D01*
X007873Y014102D02*
X007527Y014102D01*
X007527Y014598D01*
X007873Y014598D01*
X007873Y014102D01*
X007873Y014216D02*
X007527Y014216D01*
X007527Y014330D02*
X007873Y014330D01*
X007873Y014444D02*
X007527Y014444D01*
X007527Y014558D02*
X007873Y014558D01*
X007173Y014102D02*
X006827Y014102D01*
X006827Y014598D01*
X007173Y014598D01*
X007173Y014102D01*
X007173Y014216D02*
X006827Y014216D01*
X006827Y014330D02*
X007173Y014330D01*
X007173Y014444D02*
X006827Y014444D01*
X006827Y014558D02*
X007173Y014558D01*
X008227Y013948D02*
X008573Y013948D01*
X008573Y013452D01*
X008227Y013452D01*
X008227Y013948D01*
X008227Y013566D02*
X008573Y013566D01*
X008573Y013680D02*
X008227Y013680D01*
X008227Y013794D02*
X008573Y013794D01*
X008573Y013908D02*
X008227Y013908D01*
X008927Y013948D02*
X009273Y013948D01*
X009273Y013452D01*
X008927Y013452D01*
X008927Y013948D01*
X008927Y013566D02*
X009273Y013566D01*
X009273Y013680D02*
X008927Y013680D01*
X008927Y013794D02*
X009273Y013794D01*
X009273Y013908D02*
X008927Y013908D01*
X007873Y013398D02*
X007527Y013398D01*
X007873Y013398D02*
X007873Y012902D01*
X007527Y012902D01*
X007527Y013398D01*
X007527Y013016D02*
X007873Y013016D01*
X007873Y013130D02*
X007527Y013130D01*
X007527Y013244D02*
X007873Y013244D01*
X007873Y013358D02*
X007527Y013358D01*
X007173Y013398D02*
X006827Y013398D01*
X007173Y013398D02*
X007173Y012902D01*
X006827Y012902D01*
X006827Y013398D01*
X006827Y013016D02*
X007173Y013016D01*
X007173Y013130D02*
X006827Y013130D01*
X006827Y013244D02*
X007173Y013244D01*
X007173Y013358D02*
X006827Y013358D01*
X009977Y011602D02*
X010323Y011602D01*
X009977Y011602D02*
X009977Y012098D01*
X010323Y012098D01*
X010323Y011602D01*
X010323Y011716D02*
X009977Y011716D01*
X009977Y011830D02*
X010323Y011830D01*
X010323Y011944D02*
X009977Y011944D01*
X009977Y012058D02*
X010323Y012058D01*
X010677Y011602D02*
X011023Y011602D01*
X010677Y011602D02*
X010677Y012098D01*
X011023Y012098D01*
X011023Y011602D01*
X011023Y011716D02*
X010677Y011716D01*
X010677Y011830D02*
X011023Y011830D01*
X011023Y011944D02*
X010677Y011944D01*
X010677Y012058D02*
X011023Y012058D01*
X009673Y009802D02*
X009327Y009802D01*
X009327Y010298D01*
X009673Y010298D01*
X009673Y009802D01*
X009673Y009916D02*
X009327Y009916D01*
X009327Y010030D02*
X009673Y010030D01*
X009673Y010144D02*
X009327Y010144D01*
X009327Y010258D02*
X009673Y010258D01*
X008973Y009802D02*
X008627Y009802D01*
X008627Y010298D01*
X008973Y010298D01*
X008973Y009802D01*
X008973Y009916D02*
X008627Y009916D01*
X008627Y010030D02*
X008973Y010030D01*
X008973Y010144D02*
X008627Y010144D01*
X008627Y010258D02*
X008973Y010258D01*
X011077Y010048D02*
X011423Y010048D01*
X011423Y009552D01*
X011077Y009552D01*
X011077Y010048D01*
X011077Y009666D02*
X011423Y009666D01*
X011423Y009780D02*
X011077Y009780D01*
X011077Y009894D02*
X011423Y009894D01*
X011423Y010008D02*
X011077Y010008D01*
X011777Y010048D02*
X012123Y010048D01*
X012123Y009552D01*
X011777Y009552D01*
X011777Y010048D01*
X011777Y009666D02*
X012123Y009666D01*
X012123Y009780D02*
X011777Y009780D01*
X011777Y009894D02*
X012123Y009894D01*
X012123Y010008D02*
X011777Y010008D01*
X003273Y014898D02*
X002927Y014898D01*
X003273Y014898D02*
X003273Y014402D01*
X002927Y014402D01*
X002927Y014898D01*
X002927Y014516D02*
X003273Y014516D01*
X003273Y014630D02*
X002927Y014630D01*
X002927Y014744D02*
X003273Y014744D01*
X003273Y014858D02*
X002927Y014858D01*
X002573Y014898D02*
X002227Y014898D01*
X002573Y014898D02*
X002573Y014402D01*
X002227Y014402D01*
X002227Y014898D01*
X002227Y014516D02*
X002573Y014516D01*
X002573Y014630D02*
X002227Y014630D01*
X002227Y014744D02*
X002573Y014744D01*
X002573Y014858D02*
X002227Y014858D01*
X002227Y016048D02*
X002573Y016048D01*
X002573Y015552D01*
X002227Y015552D01*
X002227Y016048D01*
X002227Y015666D02*
X002573Y015666D01*
X002573Y015780D02*
X002227Y015780D01*
X002227Y015894D02*
X002573Y015894D01*
X002573Y016008D02*
X002227Y016008D01*
X002927Y016048D02*
X003273Y016048D01*
X003273Y015552D01*
X002927Y015552D01*
X002927Y016048D01*
X002927Y015666D02*
X003273Y015666D01*
X003273Y015780D02*
X002927Y015780D01*
X002927Y015894D02*
X003273Y015894D01*
X003273Y016008D02*
X002927Y016008D01*
X002927Y017198D02*
X003273Y017198D01*
X003273Y016702D01*
X002927Y016702D01*
X002927Y017198D01*
X002927Y016816D02*
X003273Y016816D01*
X003273Y016930D02*
X002927Y016930D01*
X002927Y017044D02*
X003273Y017044D01*
X003273Y017158D02*
X002927Y017158D01*
X002573Y017198D02*
X002227Y017198D01*
X002573Y017198D02*
X002573Y016702D01*
X002227Y016702D01*
X002227Y017198D01*
X002227Y016816D02*
X002573Y016816D01*
X002573Y016930D02*
X002227Y016930D01*
X002227Y017044D02*
X002573Y017044D01*
X002573Y017158D02*
X002227Y017158D01*
X008348Y019127D02*
X008348Y019473D01*
X008348Y019127D02*
X007852Y019127D01*
X007852Y019473D01*
X008348Y019473D01*
X008348Y019241D02*
X007852Y019241D01*
X007852Y019355D02*
X008348Y019355D01*
X008348Y019469D02*
X007852Y019469D01*
X008348Y019827D02*
X008348Y020173D01*
X008348Y019827D02*
X007852Y019827D01*
X007852Y020173D01*
X008348Y020173D01*
X008348Y019941D02*
X007852Y019941D01*
X007852Y020055D02*
X008348Y020055D01*
X008348Y020169D02*
X007852Y020169D01*
X003023Y005602D02*
X002677Y005602D01*
X002677Y006098D01*
X003023Y006098D01*
X003023Y005602D01*
X003023Y005716D02*
X002677Y005716D01*
X002677Y005830D02*
X003023Y005830D01*
X003023Y005944D02*
X002677Y005944D01*
X002677Y006058D02*
X003023Y006058D01*
X002323Y005602D02*
X001977Y005602D01*
X001977Y006098D01*
X002323Y006098D01*
X002323Y005602D01*
X002323Y005716D02*
X001977Y005716D01*
X001977Y005830D02*
X002323Y005830D01*
X002323Y005944D02*
X001977Y005944D01*
X001977Y006058D02*
X002323Y006058D01*
X010527Y004098D02*
X010873Y004098D01*
X010873Y003602D01*
X010527Y003602D01*
X010527Y004098D01*
X010527Y003716D02*
X010873Y003716D01*
X010873Y003830D02*
X010527Y003830D01*
X010527Y003944D02*
X010873Y003944D01*
X010873Y004058D02*
X010527Y004058D01*
X011227Y004098D02*
X011573Y004098D01*
X011573Y003602D01*
X011227Y003602D01*
X011227Y004098D01*
X011227Y003716D02*
X011573Y003716D01*
X011573Y003830D02*
X011227Y003830D01*
X011227Y003944D02*
X011573Y003944D01*
X011573Y004058D02*
X011227Y004058D01*
X011227Y002798D02*
X011573Y002798D01*
X011573Y002302D01*
X011227Y002302D01*
X011227Y002798D01*
X011227Y002416D02*
X011573Y002416D01*
X011573Y002530D02*
X011227Y002530D01*
X011227Y002644D02*
X011573Y002644D01*
X011573Y002758D02*
X011227Y002758D01*
X010873Y002798D02*
X010527Y002798D01*
X010873Y002798D02*
X010873Y002302D01*
X010527Y002302D01*
X010527Y002798D01*
X010527Y002416D02*
X010873Y002416D01*
X010873Y002530D02*
X010527Y002530D01*
X010527Y002644D02*
X010873Y002644D01*
X010873Y002758D02*
X010527Y002758D01*
D20*
X018075Y009275D03*
X019475Y009275D03*
X019475Y010575D03*
X018075Y010575D03*
D21*
X033100Y004350D03*
X033100Y003350D03*
X031225Y020100D03*
X030225Y020100D03*
X029225Y020100D03*
X028225Y020100D03*
X027225Y020100D03*
D22*
X027725Y016975D03*
X027825Y015275D03*
X027850Y014225D03*
X027950Y013150D03*
X028850Y012225D03*
X029975Y012725D03*
X029975Y015225D03*
X025725Y012975D03*
X025725Y011350D03*
X027850Y009975D03*
X028975Y009350D03*
X029975Y009975D03*
X029975Y007225D03*
X027975Y007225D03*
X025725Y005850D03*
X025725Y004475D03*
X025725Y003100D03*
X027850Y003100D03*
X028975Y005100D03*
X031350Y003350D03*
X023600Y008225D03*
D23*
X023725Y013725D03*
X028150Y018250D03*
D24*
X012550Y002150D03*
D25*
X021000Y008867D03*
X021000Y010633D03*
D26*
X018952Y006350D03*
X018952Y005850D03*
X018952Y005350D03*
X018952Y004850D03*
X018952Y004350D03*
X018952Y003850D03*
X018952Y003350D03*
X016748Y003350D03*
X016748Y003850D03*
X016748Y004350D03*
X016748Y004850D03*
X016748Y005350D03*
X016748Y005850D03*
X016748Y006350D03*
D27*
X032530Y006100D03*
X032530Y005500D03*
X032530Y006700D03*
X032530Y007300D03*
X034970Y007300D03*
X034970Y006700D03*
X034970Y006100D03*
X034970Y005500D03*
D28*
X002960Y007030D03*
X002050Y007030D03*
X001140Y007030D03*
D29*
X002050Y009470D03*
D30*
X007317Y011850D03*
X009083Y011850D03*
X009183Y008650D03*
X007417Y008650D03*
X007417Y007050D03*
X009183Y007050D03*
X009183Y005450D03*
X007417Y005450D03*
X007417Y003850D03*
X009183Y003850D03*
X009183Y002250D03*
X007417Y002250D03*
X020917Y014650D03*
X022683Y014650D03*
X022683Y016150D03*
X020917Y016150D03*
X020917Y017850D03*
X022683Y017850D03*
D31*
X016830Y018260D03*
X016830Y017350D03*
X016830Y016440D03*
D32*
X019270Y017350D03*
D33*
X011350Y005883D03*
X010976Y005017D03*
X011724Y005017D03*
D34*
X011940Y006641D03*
X010760Y006641D03*
X002640Y008041D03*
X001460Y008041D03*
D35*
X002050Y008141D03*
X011350Y006741D03*
D36*
X011242Y008296D02*
X011458Y008296D01*
X011458Y007444D01*
X011242Y007444D01*
X011242Y008296D01*
X011242Y008088D02*
X011458Y008088D01*
X002158Y009696D02*
X001942Y009696D01*
X002158Y009696D02*
X002158Y008844D01*
X001942Y008844D01*
X001942Y009696D01*
X001942Y009488D02*
X002158Y009488D01*
X019546Y017242D02*
X019546Y017458D01*
X019546Y017242D02*
X018694Y017242D01*
X018694Y017458D01*
X019546Y017458D01*
X032946Y002058D02*
X032946Y001842D01*
X032094Y001842D01*
X032094Y002058D01*
X032946Y002058D01*
X027846Y001958D02*
X027846Y001742D01*
X026994Y001742D01*
X026994Y001958D01*
X027846Y001958D01*
D37*
X021668Y001659D03*
X021668Y002841D03*
D38*
X021589Y002250D03*
D39*
X020428Y002250D03*
D40*
X026191Y002440D03*
X026191Y001260D03*
X031291Y001360D03*
X031291Y002540D03*
X017891Y016760D03*
X017891Y017940D03*
D41*
X017991Y017350D03*
X031391Y001950D03*
X026291Y001850D03*
D42*
X016600Y011450D03*
X017400Y011800D03*
X016600Y012150D03*
D43*
X011650Y013576D03*
X011150Y013576D03*
X010650Y013576D03*
X010150Y013576D03*
X010150Y015624D03*
X010650Y015624D03*
X011150Y015624D03*
X011650Y015624D03*
D44*
X011850Y017290D03*
X012350Y017290D03*
X011350Y017290D03*
X010850Y017290D03*
X010350Y017290D03*
X009850Y017290D03*
X009350Y017290D03*
X008850Y017290D03*
X008850Y019710D03*
X009350Y019710D03*
X009850Y019710D03*
X010350Y019710D03*
X010850Y019710D03*
X011350Y019710D03*
X011850Y019710D03*
X012350Y019710D03*
D45*
X020650Y013910D02*
X020650Y013390D01*
X021650Y013390D02*
X021650Y013910D01*
X032390Y013650D02*
X032910Y013650D01*
X032910Y012650D02*
X032390Y012650D01*
X032390Y014650D02*
X032910Y014650D01*
X003610Y013850D02*
X003090Y013850D01*
X003090Y012850D02*
X003610Y012850D01*
X001810Y002900D02*
X001290Y002900D01*
X001290Y001900D02*
X001810Y001900D01*
D46*
X006909Y016182D03*
X008091Y016182D03*
D47*
X007500Y016261D03*
D48*
X007500Y017422D03*
D49*
X007099Y018628D02*
X007045Y018682D01*
X007220Y018713D01*
X007366Y018611D01*
X007397Y018436D01*
X007295Y018290D01*
X007120Y018259D01*
X006974Y018361D01*
X006943Y018536D01*
X007045Y018682D01*
X007091Y018608D01*
X007202Y018628D01*
X007292Y018565D01*
X007312Y018454D01*
X007249Y018364D01*
X007138Y018344D01*
X007048Y018407D01*
X007028Y018518D01*
X007091Y018608D01*
X007139Y018534D01*
X007182Y018542D01*
X007218Y018517D01*
X007226Y018474D01*
X007201Y018438D01*
X007158Y018430D01*
X007122Y018455D01*
X007114Y018498D01*
X007139Y018534D01*
X007939Y018955D02*
X007885Y019009D01*
X008060Y019040D01*
X008206Y018938D01*
X008237Y018763D01*
X008135Y018617D01*
X007960Y018586D01*
X007814Y018688D01*
X007783Y018863D01*
X007885Y019009D01*
X007931Y018935D01*
X008042Y018955D01*
X008132Y018892D01*
X008152Y018781D01*
X008089Y018691D01*
X007978Y018671D01*
X007888Y018734D01*
X007868Y018845D01*
X007931Y018935D01*
X007979Y018861D01*
X008022Y018869D01*
X008058Y018844D01*
X008066Y018801D01*
X008041Y018765D01*
X007998Y018757D01*
X007962Y018782D01*
X007954Y018825D01*
X007979Y018861D01*
X007119Y019529D02*
X007065Y019583D01*
X007240Y019614D01*
X007386Y019512D01*
X007417Y019337D01*
X007315Y019191D01*
X007140Y019160D01*
X006994Y019262D01*
X006963Y019437D01*
X007065Y019583D01*
X007111Y019509D01*
X007222Y019529D01*
X007312Y019466D01*
X007332Y019355D01*
X007269Y019265D01*
X007158Y019245D01*
X007068Y019308D01*
X007048Y019419D01*
X007111Y019509D01*
X007159Y019435D01*
X007202Y019443D01*
X007238Y019418D01*
X007246Y019375D01*
X007221Y019339D01*
X007178Y019331D01*
X007142Y019356D01*
X007134Y019399D01*
X007159Y019435D01*
D50*
X003850Y020000D03*
X009200Y015700D03*
X007750Y014900D03*
X011050Y014550D03*
X012225Y012025D03*
X012225Y011475D03*
X010650Y010350D03*
X010250Y008850D03*
X008350Y009050D03*
X007200Y010400D03*
X006700Y012500D03*
X003750Y015250D03*
X003200Y009400D03*
X008300Y006250D03*
X010300Y006150D03*
X010600Y007350D03*
X015400Y008450D03*
X016450Y008450D03*
X015600Y007250D03*
X019800Y006600D03*
X020350Y006000D03*
X021250Y004850D03*
X020200Y003600D03*
X017650Y003850D03*
X025100Y001300D03*
X028000Y004150D03*
X026900Y005800D03*
X029150Y006650D03*
X027550Y008550D03*
X025800Y010600D03*
X027400Y011200D03*
X024600Y013100D03*
X026650Y013600D03*
X024100Y015475D03*
X022250Y017050D03*
X016500Y014650D03*
X015350Y017100D03*
X021425Y012475D03*
X019900Y012050D03*
X018750Y011100D03*
X020150Y010550D03*
X022650Y010950D03*
X015550Y012050D03*
X029475Y018225D03*
X031350Y017475D03*
X030225Y016350D03*
X030050Y014300D03*
X030750Y011750D03*
X031450Y011750D03*
X034750Y013800D03*
X035700Y015000D03*
X033950Y019350D03*
X034850Y019850D03*
X032600Y019800D03*
X034150Y009100D03*
X035500Y007900D03*
X033975Y004375D03*
X030650Y003750D03*
X030550Y002750D03*
X010050Y001900D03*
X001550Y005850D03*
D51*
X001550Y002400D03*
X003350Y013350D03*
X021150Y013650D03*
D52*
X021550Y015650D03*
D53*
X022200Y009750D03*
M02*
