G75*
G70*
%OFA0B0*%
%FSLAX24Y24*%
%IPPOS*%
%LPD*%
%AMOC8*
5,1,8,0,0,1.08239X$1,22.5*
%
%ADD10R,0.0800X0.0260*%
%ADD11R,0.0500X0.0600*%
%ADD12C,0.0100*%
%ADD13R,0.0800X0.0500*%
%ADD14R,0.0697X0.0866*%
%ADD15R,0.0866X0.0236*%
%ADD16R,0.0880X0.0400*%
%ADD17R,0.0480X0.0880*%
%ADD18R,0.1417X0.0866*%
%ADD19R,0.0866X0.0697*%
%ADD20R,0.0880X0.0480*%
%ADD21R,0.0866X0.1417*%
%ADD22R,0.0394X0.0551*%
%ADD23R,0.0315X0.0709*%
%ADD24R,0.0315X0.0906*%
%ADD25C,0.0600*%
%ADD26R,0.0748X0.0315*%
%ADD27R,0.0591X0.0315*%
%ADD28R,0.1417X0.0906*%
%ADD29R,0.0709X0.0315*%
%ADD30R,0.0906X0.0315*%
%ADD31R,0.0450X0.0400*%
%ADD32R,0.0236X0.0866*%
%ADD33R,0.0260X0.0800*%
%ADD34R,0.0315X0.0748*%
%ADD35R,0.0315X0.0591*%
%ADD36R,0.0906X0.1417*%
D10*
X032640Y008500D03*
X032640Y009000D03*
X032640Y009500D03*
X032640Y010000D03*
X032640Y010500D03*
X032640Y011000D03*
X032640Y011500D03*
X032640Y012000D03*
X035060Y012000D03*
X035060Y011500D03*
X035060Y011000D03*
X035060Y010500D03*
X035060Y010000D03*
X035060Y009500D03*
X035060Y009000D03*
X035060Y008500D03*
X035060Y015600D03*
X035060Y016100D03*
X035060Y016600D03*
X035060Y017100D03*
X035060Y017600D03*
X035060Y018100D03*
X035060Y018600D03*
X035060Y019100D03*
X032640Y019100D03*
X032640Y018600D03*
X032640Y018100D03*
X032640Y017600D03*
X032640Y017100D03*
X032640Y016600D03*
X032640Y016100D03*
X032640Y015600D03*
D11*
X018100Y015300D03*
X017100Y015300D03*
X030250Y005850D03*
X031250Y005850D03*
X029750Y004150D03*
X028750Y004150D03*
D12*
X024900Y004225D02*
X024600Y004225D01*
X024600Y004675D01*
X024900Y004675D01*
X024900Y004225D01*
X024900Y004324D02*
X024600Y004324D01*
X024600Y004423D02*
X024900Y004423D01*
X024900Y004522D02*
X024600Y004522D01*
X024600Y004621D02*
X024900Y004621D01*
X024200Y004225D02*
X023900Y004225D01*
X023900Y004675D01*
X024200Y004675D01*
X024200Y004225D01*
X024200Y004324D02*
X023900Y004324D01*
X023900Y004423D02*
X024200Y004423D01*
X024200Y004522D02*
X023900Y004522D01*
X023900Y004621D02*
X024200Y004621D01*
X021025Y004350D02*
X021025Y004050D01*
X021025Y004350D02*
X021475Y004350D01*
X021475Y004050D01*
X021025Y004050D01*
X021025Y004149D02*
X021475Y004149D01*
X021475Y004248D02*
X021025Y004248D01*
X021025Y004347D02*
X021475Y004347D01*
X020425Y004650D02*
X020425Y004950D01*
X020425Y004650D02*
X019975Y004650D01*
X019975Y004950D01*
X020425Y004950D01*
X020425Y004749D02*
X019975Y004749D01*
X019975Y004848D02*
X020425Y004848D01*
X020425Y004947D02*
X019975Y004947D01*
X020425Y005350D02*
X020425Y005650D01*
X020425Y005350D02*
X019975Y005350D01*
X019975Y005650D01*
X020425Y005650D01*
X020425Y005449D02*
X019975Y005449D01*
X019975Y005548D02*
X020425Y005548D01*
X020425Y005647D02*
X019975Y005647D01*
X021475Y005475D02*
X021475Y005175D01*
X021025Y005175D01*
X021025Y005475D01*
X021475Y005475D01*
X021475Y005274D02*
X021025Y005274D01*
X021025Y005373D02*
X021475Y005373D01*
X021475Y005472D02*
X021025Y005472D01*
X021475Y005875D02*
X021475Y006175D01*
X021475Y005875D02*
X021025Y005875D01*
X021025Y006175D01*
X021475Y006175D01*
X021475Y005974D02*
X021025Y005974D01*
X021025Y006073D02*
X021475Y006073D01*
X021475Y006172D02*
X021025Y006172D01*
X021025Y006975D02*
X021025Y007275D01*
X021475Y007275D01*
X021475Y006975D01*
X021025Y006975D01*
X021025Y007074D02*
X021475Y007074D01*
X021475Y007173D02*
X021025Y007173D01*
X021025Y007272D02*
X021475Y007272D01*
X021025Y007675D02*
X021025Y007975D01*
X021475Y007975D01*
X021475Y007675D01*
X021025Y007675D01*
X021025Y007774D02*
X021475Y007774D01*
X021475Y007873D02*
X021025Y007873D01*
X021025Y007972D02*
X021475Y007972D01*
X019775Y008075D02*
X019475Y008075D01*
X019475Y008525D01*
X019775Y008525D01*
X019775Y008075D01*
X019775Y008174D02*
X019475Y008174D01*
X019475Y008273D02*
X019775Y008273D01*
X019775Y008372D02*
X019475Y008372D01*
X019475Y008471D02*
X019775Y008471D01*
X019075Y008075D02*
X018775Y008075D01*
X018775Y008525D01*
X019075Y008525D01*
X019075Y008075D01*
X019075Y008174D02*
X018775Y008174D01*
X018775Y008273D02*
X019075Y008273D01*
X019075Y008372D02*
X018775Y008372D01*
X018775Y008471D02*
X019075Y008471D01*
X017825Y008075D02*
X017525Y008075D01*
X017525Y008525D01*
X017825Y008525D01*
X017825Y008075D01*
X017825Y008174D02*
X017525Y008174D01*
X017525Y008273D02*
X017825Y008273D01*
X017825Y008372D02*
X017525Y008372D01*
X017525Y008471D02*
X017825Y008471D01*
X017125Y008075D02*
X016825Y008075D01*
X016825Y008525D01*
X017125Y008525D01*
X017125Y008075D01*
X017125Y008174D02*
X016825Y008174D01*
X016825Y008273D02*
X017125Y008273D01*
X017125Y008372D02*
X016825Y008372D01*
X016825Y008471D02*
X017125Y008471D01*
X016525Y009400D02*
X016525Y009700D01*
X016975Y009700D01*
X016975Y009400D01*
X016525Y009400D01*
X016525Y009499D02*
X016975Y009499D01*
X016975Y009598D02*
X016525Y009598D01*
X016525Y009697D02*
X016975Y009697D01*
X016525Y010100D02*
X016525Y010400D01*
X016975Y010400D01*
X016975Y010100D01*
X016525Y010100D01*
X016525Y010199D02*
X016975Y010199D01*
X016975Y010298D02*
X016525Y010298D01*
X016525Y010397D02*
X016975Y010397D01*
X015525Y010400D02*
X015525Y010100D01*
X015525Y010400D02*
X015975Y010400D01*
X015975Y010100D01*
X015525Y010100D01*
X015525Y010199D02*
X015975Y010199D01*
X015975Y010298D02*
X015525Y010298D01*
X015525Y010397D02*
X015975Y010397D01*
X015525Y009700D02*
X015525Y009400D01*
X015525Y009700D02*
X015975Y009700D01*
X015975Y009400D01*
X015525Y009400D01*
X015525Y009499D02*
X015975Y009499D01*
X015975Y009598D02*
X015525Y009598D01*
X015525Y009697D02*
X015975Y009697D01*
X018225Y007200D02*
X018525Y007200D01*
X018225Y007200D02*
X018225Y007650D01*
X018525Y007650D01*
X018525Y007200D01*
X018525Y007299D02*
X018225Y007299D01*
X018225Y007398D02*
X018525Y007398D01*
X018525Y007497D02*
X018225Y007497D01*
X018225Y007596D02*
X018525Y007596D01*
X018925Y007200D02*
X019225Y007200D01*
X018925Y007200D02*
X018925Y007650D01*
X019225Y007650D01*
X019225Y007200D01*
X019225Y007299D02*
X018925Y007299D01*
X018925Y007398D02*
X019225Y007398D01*
X019225Y007497D02*
X018925Y007497D01*
X018925Y007596D02*
X019225Y007596D01*
X015375Y006950D02*
X015375Y006650D01*
X015375Y006950D02*
X015825Y006950D01*
X015825Y006650D01*
X015375Y006650D01*
X015375Y006749D02*
X015825Y006749D01*
X015825Y006848D02*
X015375Y006848D01*
X015375Y006947D02*
X015825Y006947D01*
X015375Y006250D02*
X015375Y005950D01*
X015375Y006250D02*
X015825Y006250D01*
X015825Y005950D01*
X015375Y005950D01*
X015375Y006049D02*
X015825Y006049D01*
X015825Y006148D02*
X015375Y006148D01*
X015375Y006247D02*
X015825Y006247D01*
X015825Y004525D02*
X015825Y004225D01*
X015375Y004225D01*
X015375Y004525D01*
X015825Y004525D01*
X015825Y004324D02*
X015375Y004324D01*
X015375Y004423D02*
X015825Y004423D01*
X015825Y004522D02*
X015375Y004522D01*
X015825Y003825D02*
X015825Y003525D01*
X015375Y003525D01*
X015375Y003825D01*
X015825Y003825D01*
X015825Y003624D02*
X015375Y003624D01*
X015375Y003723D02*
X015825Y003723D01*
X015825Y003822D02*
X015375Y003822D01*
X016025Y002250D02*
X016025Y001950D01*
X015575Y001950D01*
X015575Y002250D01*
X016025Y002250D01*
X016025Y002049D02*
X015575Y002049D01*
X015575Y002148D02*
X016025Y002148D01*
X016025Y002247D02*
X015575Y002247D01*
X016625Y002250D02*
X016625Y001950D01*
X016625Y002250D02*
X017075Y002250D01*
X017075Y001950D01*
X016625Y001950D01*
X016625Y002049D02*
X017075Y002049D01*
X017075Y002148D02*
X016625Y002148D01*
X016625Y002247D02*
X017075Y002247D01*
X017675Y002250D02*
X017675Y001950D01*
X017675Y002250D02*
X018125Y002250D01*
X018125Y001950D01*
X017675Y001950D01*
X017675Y002049D02*
X018125Y002049D01*
X018125Y002148D02*
X017675Y002148D01*
X017675Y002247D02*
X018125Y002247D01*
X018675Y002250D02*
X018675Y001950D01*
X018675Y002250D02*
X019125Y002250D01*
X019125Y001950D01*
X018675Y001950D01*
X018675Y002049D02*
X019125Y002049D01*
X019125Y002148D02*
X018675Y002148D01*
X018675Y002247D02*
X019125Y002247D01*
X018675Y001550D02*
X018675Y001250D01*
X018675Y001550D02*
X019125Y001550D01*
X019125Y001250D01*
X018675Y001250D01*
X018675Y001349D02*
X019125Y001349D01*
X019125Y001448D02*
X018675Y001448D01*
X018675Y001547D02*
X019125Y001547D01*
X017675Y001550D02*
X017675Y001250D01*
X017675Y001550D02*
X018125Y001550D01*
X018125Y001250D01*
X017675Y001250D01*
X017675Y001349D02*
X018125Y001349D01*
X018125Y001448D02*
X017675Y001448D01*
X017675Y001547D02*
X018125Y001547D01*
X016625Y001550D02*
X016625Y001250D01*
X016625Y001550D02*
X017075Y001550D01*
X017075Y001250D01*
X016625Y001250D01*
X016625Y001349D02*
X017075Y001349D01*
X017075Y001448D02*
X016625Y001448D01*
X016625Y001547D02*
X017075Y001547D01*
X016025Y001550D02*
X016025Y001250D01*
X015575Y001250D01*
X015575Y001550D01*
X016025Y001550D01*
X016025Y001349D02*
X015575Y001349D01*
X015575Y001448D02*
X016025Y001448D01*
X016025Y001547D02*
X015575Y001547D01*
X011550Y002775D02*
X011250Y002775D01*
X011550Y002775D02*
X011550Y002325D01*
X011250Y002325D01*
X011250Y002775D01*
X011250Y002424D02*
X011550Y002424D01*
X011550Y002523D02*
X011250Y002523D01*
X011250Y002622D02*
X011550Y002622D01*
X011550Y002721D02*
X011250Y002721D01*
X010850Y002775D02*
X010550Y002775D01*
X010850Y002775D02*
X010850Y002325D01*
X010550Y002325D01*
X010550Y002775D01*
X010550Y002424D02*
X010850Y002424D01*
X010850Y002523D02*
X010550Y002523D01*
X010550Y002622D02*
X010850Y002622D01*
X010850Y002721D02*
X010550Y002721D01*
X010550Y004075D02*
X010850Y004075D01*
X010850Y003625D01*
X010550Y003625D01*
X010550Y004075D01*
X010550Y003724D02*
X010850Y003724D01*
X010850Y003823D02*
X010550Y003823D01*
X010550Y003922D02*
X010850Y003922D01*
X010850Y004021D02*
X010550Y004021D01*
X011250Y004075D02*
X011550Y004075D01*
X011550Y003625D01*
X011250Y003625D01*
X011250Y004075D01*
X011250Y003724D02*
X011550Y003724D01*
X011550Y003823D02*
X011250Y003823D01*
X011250Y003922D02*
X011550Y003922D01*
X011550Y004021D02*
X011250Y004021D01*
X003000Y005625D02*
X002700Y005625D01*
X002700Y006075D01*
X003000Y006075D01*
X003000Y005625D01*
X003000Y005724D02*
X002700Y005724D01*
X002700Y005823D02*
X003000Y005823D01*
X003000Y005922D02*
X002700Y005922D01*
X002700Y006021D02*
X003000Y006021D01*
X002300Y005625D02*
X002000Y005625D01*
X002000Y006075D01*
X002300Y006075D01*
X002300Y005625D01*
X002300Y005724D02*
X002000Y005724D01*
X002000Y005823D02*
X002300Y005823D01*
X002300Y005922D02*
X002000Y005922D01*
X002000Y006021D02*
X002300Y006021D01*
X008650Y009825D02*
X008950Y009825D01*
X008650Y009825D02*
X008650Y010275D01*
X008950Y010275D01*
X008950Y009825D01*
X008950Y009924D02*
X008650Y009924D01*
X008650Y010023D02*
X008950Y010023D01*
X008950Y010122D02*
X008650Y010122D01*
X008650Y010221D02*
X008950Y010221D01*
X009350Y009825D02*
X009650Y009825D01*
X009350Y009825D02*
X009350Y010275D01*
X009650Y010275D01*
X009650Y009825D01*
X009650Y009924D02*
X009350Y009924D01*
X009350Y010023D02*
X009650Y010023D01*
X009650Y010122D02*
X009350Y010122D01*
X009350Y010221D02*
X009650Y010221D01*
X011100Y010025D02*
X011400Y010025D01*
X011400Y009575D01*
X011100Y009575D01*
X011100Y010025D01*
X011100Y009674D02*
X011400Y009674D01*
X011400Y009773D02*
X011100Y009773D01*
X011100Y009872D02*
X011400Y009872D01*
X011400Y009971D02*
X011100Y009971D01*
X011800Y010025D02*
X012100Y010025D01*
X012100Y009575D01*
X011800Y009575D01*
X011800Y010025D01*
X011800Y009674D02*
X012100Y009674D01*
X012100Y009773D02*
X011800Y009773D01*
X011800Y009872D02*
X012100Y009872D01*
X012100Y009971D02*
X011800Y009971D01*
X011000Y011625D02*
X010700Y011625D01*
X010700Y012075D01*
X011000Y012075D01*
X011000Y011625D01*
X011000Y011724D02*
X010700Y011724D01*
X010700Y011823D02*
X011000Y011823D01*
X011000Y011922D02*
X010700Y011922D01*
X010700Y012021D02*
X011000Y012021D01*
X010300Y011625D02*
X010000Y011625D01*
X010000Y012075D01*
X010300Y012075D01*
X010300Y011625D01*
X010300Y011724D02*
X010000Y011724D01*
X010000Y011823D02*
X010300Y011823D01*
X010300Y011922D02*
X010000Y011922D01*
X010000Y012021D02*
X010300Y012021D01*
X007850Y013375D02*
X007550Y013375D01*
X007850Y013375D02*
X007850Y012925D01*
X007550Y012925D01*
X007550Y013375D01*
X007550Y013024D02*
X007850Y013024D01*
X007850Y013123D02*
X007550Y013123D01*
X007550Y013222D02*
X007850Y013222D01*
X007850Y013321D02*
X007550Y013321D01*
X007150Y013375D02*
X006850Y013375D01*
X007150Y013375D02*
X007150Y012925D01*
X006850Y012925D01*
X006850Y013375D01*
X006850Y013024D02*
X007150Y013024D01*
X007150Y013123D02*
X006850Y013123D01*
X006850Y013222D02*
X007150Y013222D01*
X007150Y013321D02*
X006850Y013321D01*
X008250Y013925D02*
X008550Y013925D01*
X008550Y013475D01*
X008250Y013475D01*
X008250Y013925D01*
X008250Y013574D02*
X008550Y013574D01*
X008550Y013673D02*
X008250Y013673D01*
X008250Y013772D02*
X008550Y013772D01*
X008550Y013871D02*
X008250Y013871D01*
X007850Y014125D02*
X007550Y014125D01*
X007550Y014575D01*
X007850Y014575D01*
X007850Y014125D01*
X007850Y014224D02*
X007550Y014224D01*
X007550Y014323D02*
X007850Y014323D01*
X007850Y014422D02*
X007550Y014422D01*
X007550Y014521D02*
X007850Y014521D01*
X007150Y014125D02*
X006850Y014125D01*
X006850Y014575D01*
X007150Y014575D01*
X007150Y014125D01*
X007150Y014224D02*
X006850Y014224D01*
X006850Y014323D02*
X007150Y014323D01*
X007150Y014422D02*
X006850Y014422D01*
X006850Y014521D02*
X007150Y014521D01*
X008250Y014825D02*
X008550Y014825D01*
X008250Y014825D02*
X008250Y015275D01*
X008550Y015275D01*
X008550Y014825D01*
X008550Y014924D02*
X008250Y014924D01*
X008250Y015023D02*
X008550Y015023D01*
X008550Y015122D02*
X008250Y015122D01*
X008250Y015221D02*
X008550Y015221D01*
X008950Y014825D02*
X009250Y014825D01*
X008950Y014825D02*
X008950Y015275D01*
X009250Y015275D01*
X009250Y014825D01*
X009250Y014924D02*
X008950Y014924D01*
X008950Y015023D02*
X009250Y015023D01*
X009250Y015122D02*
X008950Y015122D01*
X008950Y015221D02*
X009250Y015221D01*
X009250Y013925D02*
X008950Y013925D01*
X009250Y013925D02*
X009250Y013475D01*
X008950Y013475D01*
X008950Y013925D01*
X008950Y013574D02*
X009250Y013574D01*
X009250Y013673D02*
X008950Y013673D01*
X008950Y013772D02*
X009250Y013772D01*
X009250Y013871D02*
X008950Y013871D01*
X012075Y015400D02*
X012075Y015700D01*
X012525Y015700D01*
X012525Y015400D01*
X012075Y015400D01*
X012075Y015499D02*
X012525Y015499D01*
X012525Y015598D02*
X012075Y015598D01*
X012075Y015697D02*
X012525Y015697D01*
X012075Y016100D02*
X012075Y016400D01*
X012525Y016400D01*
X012525Y016100D01*
X012075Y016100D01*
X012075Y016199D02*
X012525Y016199D01*
X012525Y016298D02*
X012075Y016298D01*
X012075Y016397D02*
X012525Y016397D01*
X008325Y019150D02*
X008325Y019450D01*
X008325Y019150D02*
X007875Y019150D01*
X007875Y019450D01*
X008325Y019450D01*
X008325Y019249D02*
X007875Y019249D01*
X007875Y019348D02*
X008325Y019348D01*
X008325Y019447D02*
X007875Y019447D01*
X008325Y019850D02*
X008325Y020150D01*
X008325Y019850D02*
X007875Y019850D01*
X007875Y020150D01*
X008325Y020150D01*
X008325Y019949D02*
X007875Y019949D01*
X007875Y020048D02*
X008325Y020048D01*
X008325Y020147D02*
X007875Y020147D01*
X003250Y017175D02*
X002950Y017175D01*
X003250Y017175D02*
X003250Y016725D01*
X002950Y016725D01*
X002950Y017175D01*
X002950Y016824D02*
X003250Y016824D01*
X003250Y016923D02*
X002950Y016923D01*
X002950Y017022D02*
X003250Y017022D01*
X003250Y017121D02*
X002950Y017121D01*
X002550Y017175D02*
X002250Y017175D01*
X002550Y017175D02*
X002550Y016725D01*
X002250Y016725D01*
X002250Y017175D01*
X002250Y016824D02*
X002550Y016824D01*
X002550Y016923D02*
X002250Y016923D01*
X002250Y017022D02*
X002550Y017022D01*
X002550Y017121D02*
X002250Y017121D01*
X002250Y016025D02*
X002550Y016025D01*
X002550Y015575D01*
X002250Y015575D01*
X002250Y016025D01*
X002250Y015674D02*
X002550Y015674D01*
X002550Y015773D02*
X002250Y015773D01*
X002250Y015872D02*
X002550Y015872D01*
X002550Y015971D02*
X002250Y015971D01*
X002950Y016025D02*
X003250Y016025D01*
X003250Y015575D01*
X002950Y015575D01*
X002950Y016025D01*
X002950Y015674D02*
X003250Y015674D01*
X003250Y015773D02*
X002950Y015773D01*
X002950Y015872D02*
X003250Y015872D01*
X003250Y015971D02*
X002950Y015971D01*
X002950Y014875D02*
X003250Y014875D01*
X003250Y014425D01*
X002950Y014425D01*
X002950Y014875D01*
X002950Y014524D02*
X003250Y014524D01*
X003250Y014623D02*
X002950Y014623D01*
X002950Y014722D02*
X003250Y014722D01*
X003250Y014821D02*
X002950Y014821D01*
X002550Y014875D02*
X002250Y014875D01*
X002550Y014875D02*
X002550Y014425D01*
X002250Y014425D01*
X002250Y014875D01*
X002250Y014524D02*
X002550Y014524D01*
X002550Y014623D02*
X002250Y014623D01*
X002250Y014722D02*
X002550Y014722D01*
X002550Y014821D02*
X002250Y014821D01*
X018200Y012425D02*
X018500Y012425D01*
X018500Y011975D01*
X018200Y011975D01*
X018200Y012425D01*
X018200Y012074D02*
X018500Y012074D01*
X018500Y012173D02*
X018200Y012173D01*
X018200Y012272D02*
X018500Y012272D01*
X018500Y012371D02*
X018200Y012371D01*
X018900Y012425D02*
X019200Y012425D01*
X019200Y011975D01*
X018900Y011975D01*
X018900Y012425D01*
X018900Y012074D02*
X019200Y012074D01*
X019200Y012173D02*
X018900Y012173D01*
X018900Y012272D02*
X019200Y012272D01*
X019200Y012371D02*
X018900Y012371D01*
X024500Y009975D02*
X024800Y009975D01*
X024500Y009975D02*
X024500Y010425D01*
X024800Y010425D01*
X024800Y009975D01*
X024800Y010074D02*
X024500Y010074D01*
X024500Y010173D02*
X024800Y010173D01*
X024800Y010272D02*
X024500Y010272D01*
X024500Y010371D02*
X024800Y010371D01*
X025200Y009975D02*
X025500Y009975D01*
X025200Y009975D02*
X025200Y010425D01*
X025500Y010425D01*
X025500Y009975D01*
X025500Y010074D02*
X025200Y010074D01*
X025200Y010173D02*
X025500Y010173D01*
X025500Y010272D02*
X025200Y010272D01*
X025200Y010371D02*
X025500Y010371D01*
X028400Y010175D02*
X028700Y010175D01*
X028400Y010175D02*
X028400Y010625D01*
X028700Y010625D01*
X028700Y010175D01*
X028700Y010274D02*
X028400Y010274D01*
X028400Y010373D02*
X028700Y010373D01*
X028700Y010472D02*
X028400Y010472D01*
X028400Y010571D02*
X028700Y010571D01*
X029100Y010175D02*
X029400Y010175D01*
X029100Y010175D02*
X029100Y010625D01*
X029400Y010625D01*
X029400Y010175D01*
X029400Y010274D02*
X029100Y010274D01*
X029100Y010373D02*
X029400Y010373D01*
X029400Y010472D02*
X029100Y010472D01*
X029100Y010571D02*
X029400Y010571D01*
X027050Y008775D02*
X026750Y008775D01*
X027050Y008775D02*
X027050Y008325D01*
X026750Y008325D01*
X026750Y008775D01*
X026750Y008424D02*
X027050Y008424D01*
X027050Y008523D02*
X026750Y008523D01*
X026750Y008622D02*
X027050Y008622D01*
X027050Y008721D02*
X026750Y008721D01*
X026350Y008775D02*
X026050Y008775D01*
X026350Y008775D02*
X026350Y008325D01*
X026050Y008325D01*
X026050Y008775D01*
X026050Y008424D02*
X026350Y008424D01*
X026350Y008523D02*
X026050Y008523D01*
X026050Y008622D02*
X026350Y008622D01*
X026350Y008721D02*
X026050Y008721D01*
X034400Y003575D02*
X034700Y003575D01*
X034400Y003575D02*
X034400Y004025D01*
X034700Y004025D01*
X034700Y003575D01*
X034700Y003674D02*
X034400Y003674D01*
X034400Y003773D02*
X034700Y003773D01*
X034700Y003872D02*
X034400Y003872D01*
X034400Y003971D02*
X034700Y003971D01*
X035100Y003575D02*
X035400Y003575D01*
X035100Y003575D02*
X035100Y004025D01*
X035400Y004025D01*
X035400Y003575D01*
X035400Y003674D02*
X035100Y003674D01*
X035100Y003773D02*
X035400Y003773D01*
X035400Y003872D02*
X035100Y003872D01*
X035100Y003971D02*
X035400Y003971D01*
X021025Y003650D02*
X021025Y003350D01*
X021025Y003650D02*
X021475Y003650D01*
X021475Y003350D01*
X021025Y003350D01*
X021025Y003449D02*
X021475Y003449D01*
X021475Y003548D02*
X021025Y003548D01*
X021025Y003647D02*
X021475Y003647D01*
X030650Y013725D02*
X030950Y013725D01*
X030650Y013725D02*
X030650Y014175D01*
X030950Y014175D01*
X030950Y013725D01*
X030950Y013824D02*
X030650Y013824D01*
X030650Y013923D02*
X030950Y013923D01*
X030950Y014022D02*
X030650Y014022D01*
X030650Y014121D02*
X030950Y014121D01*
X031350Y013725D02*
X031650Y013725D01*
X031350Y013725D02*
X031350Y014175D01*
X031650Y014175D01*
X031650Y013725D01*
X031650Y013824D02*
X031350Y013824D01*
X031350Y013923D02*
X031650Y013923D01*
X031650Y014022D02*
X031350Y014022D01*
X031350Y014121D02*
X031650Y014121D01*
X026050Y019775D02*
X025750Y019775D01*
X026050Y019775D02*
X026050Y019325D01*
X025750Y019325D01*
X025750Y019775D01*
X025750Y019424D02*
X026050Y019424D01*
X026050Y019523D02*
X025750Y019523D01*
X025750Y019622D02*
X026050Y019622D01*
X026050Y019721D02*
X025750Y019721D01*
X025350Y019775D02*
X025050Y019775D01*
X025350Y019775D02*
X025350Y019325D01*
X025050Y019325D01*
X025050Y019775D01*
X025050Y019424D02*
X025350Y019424D01*
X025350Y019523D02*
X025050Y019523D01*
X025050Y019622D02*
X025350Y019622D01*
X025350Y019721D02*
X025050Y019721D01*
D13*
X019475Y010575D03*
X018075Y010575D03*
X018075Y009275D03*
X019475Y009275D03*
D14*
X021000Y008867D03*
X021000Y010633D03*
D15*
X018952Y006350D03*
X018952Y005850D03*
X018952Y005350D03*
X018952Y004850D03*
X018952Y004350D03*
X018952Y003850D03*
X018952Y003350D03*
X016748Y003350D03*
X016748Y003850D03*
X016748Y004350D03*
X016748Y004850D03*
X016748Y005350D03*
X016748Y005850D03*
X016748Y006350D03*
D16*
X032530Y006100D03*
X032530Y005500D03*
X032530Y006700D03*
X032530Y007300D03*
X034970Y007300D03*
X034970Y006700D03*
X034970Y006100D03*
X034970Y005500D03*
D17*
X002960Y007030D03*
X002050Y007030D03*
X001140Y007030D03*
D18*
X002050Y009470D03*
D19*
X007417Y002250D03*
X009183Y002250D03*
X009183Y003850D03*
X007417Y003850D03*
X007417Y005450D03*
X009183Y005450D03*
X009183Y007050D03*
X007417Y007050D03*
X007417Y008650D03*
X009183Y008650D03*
X009083Y011850D03*
X007317Y011850D03*
X020917Y014650D03*
X022683Y014650D03*
X022683Y016150D03*
X020917Y016150D03*
X020917Y017850D03*
X022683Y017850D03*
D20*
X016830Y018260D03*
X016830Y017350D03*
X016830Y016440D03*
D21*
X019270Y017350D03*
D22*
X011350Y005883D03*
X010976Y005017D03*
X011724Y005017D03*
D23*
X011940Y006641D03*
X010760Y006641D03*
X002640Y008041D03*
X001460Y008041D03*
D24*
X002050Y008141D03*
X011350Y006741D03*
D25*
X011250Y008288D02*
X011450Y008288D01*
X011450Y007452D01*
X011250Y007452D01*
X011250Y008288D01*
X011250Y008051D02*
X011450Y008051D01*
X002150Y009688D02*
X001950Y009688D01*
X002150Y009688D02*
X002150Y008852D01*
X001950Y008852D01*
X001950Y009688D01*
X001950Y009451D02*
X002150Y009451D01*
X019538Y017250D02*
X019538Y017450D01*
X019538Y017250D02*
X018702Y017250D01*
X018702Y017450D01*
X019538Y017450D01*
X032938Y002050D02*
X032938Y001850D01*
X032102Y001850D01*
X032102Y002050D01*
X032938Y002050D01*
X027838Y001950D02*
X027838Y001750D01*
X027002Y001750D01*
X027002Y001950D01*
X027838Y001950D01*
D26*
X021668Y001659D03*
X021668Y002841D03*
D27*
X021589Y002250D03*
D28*
X020428Y002250D03*
D29*
X026191Y002440D03*
X026191Y001260D03*
X031291Y001360D03*
X031291Y002540D03*
X017891Y016760D03*
X017891Y017940D03*
D30*
X017991Y017350D03*
X031391Y001950D03*
X026291Y001850D03*
D31*
X016600Y011450D03*
X017400Y011800D03*
X016600Y012150D03*
D32*
X011650Y013576D03*
X011150Y013576D03*
X010650Y013576D03*
X010150Y013576D03*
X010150Y015624D03*
X010650Y015624D03*
X011150Y015624D03*
X011650Y015624D03*
D33*
X011850Y017290D03*
X012350Y017290D03*
X011350Y017290D03*
X010850Y017290D03*
X010350Y017290D03*
X009850Y017290D03*
X009350Y017290D03*
X008850Y017290D03*
X008850Y019710D03*
X009350Y019710D03*
X009850Y019710D03*
X010350Y019710D03*
X010850Y019710D03*
X011350Y019710D03*
X011850Y019710D03*
X012350Y019710D03*
D34*
X008091Y016182D03*
X006909Y016182D03*
D35*
X007500Y016261D03*
D36*
X007500Y017422D03*
M02*
