%
M48
M72
T01C0.0157
T02C0.0197
T03C0.0236
T04C0.0320
T05C0.0360
T06C0.0394
T07C0.0400
T08C0.0440
T09C0.0700
T10C0.0860
%
T01
X2484Y20340
X2641Y20182
X2878Y20104
X3114Y20182
X3271Y20340
X22563Y20340
X22720Y20182
X22956Y20104
X23193Y20182
X23350Y20340
X33507Y20340
X33665Y20182
X33901Y20104
X34137Y20182
X34295Y20340
X23350Y1014
X23193Y1171
X22956Y1250
X22720Y1171
X22563Y1014
X3271Y1014
X3114Y1171
X2878Y1250
X2641Y1171
X2484Y1014
T02
X1550Y2400
X21150Y13650
X3350Y13350
T03
X6750Y20150
X3750Y15250
X9200Y15700
X11050Y14550
X15300Y12200
X12225Y12025
X12225Y11475
X10650Y10350
X8350Y9050
X10250Y8850
X7200Y10400
X3200Y9400
X6850Y6150
X10300Y6150
X10600Y7350
X15400Y8450
X16450Y8450
X15600Y7250
X19800Y6600
X20350Y6000
X21250Y4850
X20200Y3600
X17650Y3850
X25100Y1300
X30650Y3750
X30750Y2750
X28000Y4150
X26900Y5800
X29150Y6650
X27550Y8550
X24050Y9400
X25800Y10600
X27400Y11200
X30750Y11750
X31450Y11750
X34750Y13800
X35700Y15000
X31350Y17475
X29475Y18225
X32600Y19800
X34850Y19850
X33950Y19350
X30225Y16350
X30050Y14300
X26650Y13600
X24600Y13100
X21325Y12375
X19900Y12200
X20150Y10950
X18750Y11100
X22650Y10950
X24100Y15475
X22250Y17050
X15800Y17250
X34150Y9100
X35500Y7900
X33975Y4475
X10050Y1900
X1550Y5850
T04
X22150Y4476
X23150Y4476
X22550Y3250
X23300Y2750
X22550Y2250
X23150Y5854
X22150Y5854
X22150Y7232
X23150Y7232
X23150Y8610
X22150Y8610
X22150Y9988
X23150Y9988
X23150Y11366
X22150Y11366
X22150Y12744
X23150Y12744
X21550Y15650
T05
X1550Y1900
X1550Y2900
X32550Y12650
X32550Y13650
X32550Y14650
X21650Y13650
X20650Y13650
X3350Y13850
X3350Y12850
T06
X2750Y19175
X1050Y19175
X2750Y12175
X1050Y12175
X1050Y11075
X2750Y11075
X2750Y4075
X1050Y4075
X33100Y3350
X33100Y4350
X21600Y19250
X27225Y20100
X28225Y20100
X29225Y20100
X30225Y20100
X31225Y20100
T07
X35325Y1875
X34875Y1750
X34400Y1525
X34082Y1136
X35825Y1900
X12550Y2150
T08
X24635Y3098
X26801Y4476
X28885Y5854
X26801Y7232
X28885Y8610
X26801Y9988
X28885Y11366
X26801Y12744
X24635Y11366
X24635Y14122
X26801Y15500
X28885Y16878
X26801Y18256
X24635Y16878
X19100Y14550
X18100Y14550
X17100Y14550
X31051Y18256
X31051Y15500
X28885Y14122
X31051Y12744
X31051Y9988
X31051Y7232
X31051Y4476
X28885Y3098
X24635Y5854
X24635Y8610
T09
X5293Y19252
X5293Y17693
X5293Y16133
X5293Y14574
X5293Y13015
X5293Y11456
X5293Y9897
X5293Y8338
X5293Y6779
X5293Y5220
X5293Y3661
X5293Y2102
X13954Y2102
X13954Y3661
X13954Y5220
X13954Y6779
X13954Y8338
X13954Y9897
X13954Y11456
X13954Y13015
X13954Y14574
X13954Y16133
X13954Y17693
X13954Y19252
T10
X35555Y2645
X2681Y18157
M30
