G75*
G70*
%OFA0B0*%
%FSLAX24Y24*%
%IPPOS*%
%LPD*%
%AMOC8*
5,1,8,0,0,1.08239X$1,22.5*
%
%ADD10C,0.0000*%
%ADD11C,0.0060*%
%ADD12C,0.0070*%
%ADD13C,0.0160*%
%ADD14C,0.0100*%
%ADD15C,0.0030*%
%ADD16C,0.0040*%
%ADD17C,0.0020*%
%ADD18R,0.0050X0.0500*%
%ADD19C,0.0080*%
%ADD20R,0.0881X0.0423*%
%ADD21C,0.0056*%
%ADD22C,0.0050*%
D10*
X000350Y000834D02*
X000350Y020519D01*
X036145Y020519D01*
X036145Y000834D01*
X000350Y000834D01*
X002405Y001014D02*
X002407Y001032D01*
X002413Y001048D01*
X002422Y001063D01*
X002435Y001076D01*
X002450Y001085D01*
X002466Y001091D01*
X002484Y001093D01*
X002502Y001091D01*
X002518Y001085D01*
X002533Y001076D01*
X002546Y001063D01*
X002555Y001048D01*
X002561Y001032D01*
X002563Y001014D01*
X002561Y000996D01*
X002555Y000980D01*
X002546Y000965D01*
X002533Y000952D01*
X002518Y000943D01*
X002502Y000937D01*
X002484Y000935D01*
X002466Y000937D01*
X002450Y000943D01*
X002435Y000952D01*
X002422Y000965D01*
X002413Y000980D01*
X002407Y000996D01*
X002405Y001014D01*
X002562Y001171D02*
X002564Y001189D01*
X002570Y001205D01*
X002579Y001220D01*
X002592Y001233D01*
X002607Y001242D01*
X002623Y001248D01*
X002641Y001250D01*
X002659Y001248D01*
X002675Y001242D01*
X002690Y001233D01*
X002703Y001220D01*
X002712Y001205D01*
X002718Y001189D01*
X002720Y001171D01*
X002718Y001153D01*
X002712Y001137D01*
X002703Y001122D01*
X002690Y001109D01*
X002675Y001100D01*
X002659Y001094D01*
X002641Y001092D01*
X002623Y001094D01*
X002607Y001100D01*
X002592Y001109D01*
X002579Y001122D01*
X002570Y001137D01*
X002564Y001153D01*
X002562Y001171D01*
X002799Y001250D02*
X002801Y001268D01*
X002807Y001284D01*
X002816Y001299D01*
X002829Y001312D01*
X002844Y001321D01*
X002860Y001327D01*
X002878Y001329D01*
X002896Y001327D01*
X002912Y001321D01*
X002927Y001312D01*
X002940Y001299D01*
X002949Y001284D01*
X002955Y001268D01*
X002957Y001250D01*
X002955Y001232D01*
X002949Y001216D01*
X002940Y001201D01*
X002927Y001188D01*
X002912Y001179D01*
X002896Y001173D01*
X002878Y001171D01*
X002860Y001173D01*
X002844Y001179D01*
X002829Y001188D01*
X002816Y001201D01*
X002807Y001216D01*
X002801Y001232D01*
X002799Y001250D01*
X003035Y001171D02*
X003037Y001189D01*
X003043Y001205D01*
X003052Y001220D01*
X003065Y001233D01*
X003080Y001242D01*
X003096Y001248D01*
X003114Y001250D01*
X003132Y001248D01*
X003148Y001242D01*
X003163Y001233D01*
X003176Y001220D01*
X003185Y001205D01*
X003191Y001189D01*
X003193Y001171D01*
X003191Y001153D01*
X003185Y001137D01*
X003176Y001122D01*
X003163Y001109D01*
X003148Y001100D01*
X003132Y001094D01*
X003114Y001092D01*
X003096Y001094D01*
X003080Y001100D01*
X003065Y001109D01*
X003052Y001122D01*
X003043Y001137D01*
X003037Y001153D01*
X003035Y001171D01*
X003192Y001014D02*
X003194Y001032D01*
X003200Y001048D01*
X003209Y001063D01*
X003222Y001076D01*
X003237Y001085D01*
X003253Y001091D01*
X003271Y001093D01*
X003289Y001091D01*
X003305Y001085D01*
X003320Y001076D01*
X003333Y001063D01*
X003342Y001048D01*
X003348Y001032D01*
X003350Y001014D01*
X003348Y000996D01*
X003342Y000980D01*
X003333Y000965D01*
X003320Y000952D01*
X003305Y000943D01*
X003289Y000937D01*
X003271Y000935D01*
X003253Y000937D01*
X003237Y000943D01*
X003222Y000952D01*
X003209Y000965D01*
X003200Y000980D01*
X003194Y000996D01*
X003192Y001014D01*
X022484Y001014D02*
X022486Y001032D01*
X022492Y001048D01*
X022501Y001063D01*
X022514Y001076D01*
X022529Y001085D01*
X022545Y001091D01*
X022563Y001093D01*
X022581Y001091D01*
X022597Y001085D01*
X022612Y001076D01*
X022625Y001063D01*
X022634Y001048D01*
X022640Y001032D01*
X022642Y001014D01*
X022640Y000996D01*
X022634Y000980D01*
X022625Y000965D01*
X022612Y000952D01*
X022597Y000943D01*
X022581Y000937D01*
X022563Y000935D01*
X022545Y000937D01*
X022529Y000943D01*
X022514Y000952D01*
X022501Y000965D01*
X022492Y000980D01*
X022486Y000996D01*
X022484Y001014D01*
X022641Y001171D02*
X022643Y001189D01*
X022649Y001205D01*
X022658Y001220D01*
X022671Y001233D01*
X022686Y001242D01*
X022702Y001248D01*
X022720Y001250D01*
X022738Y001248D01*
X022754Y001242D01*
X022769Y001233D01*
X022782Y001220D01*
X022791Y001205D01*
X022797Y001189D01*
X022799Y001171D01*
X022797Y001153D01*
X022791Y001137D01*
X022782Y001122D01*
X022769Y001109D01*
X022754Y001100D01*
X022738Y001094D01*
X022720Y001092D01*
X022702Y001094D01*
X022686Y001100D01*
X022671Y001109D01*
X022658Y001122D01*
X022649Y001137D01*
X022643Y001153D01*
X022641Y001171D01*
X022877Y001250D02*
X022879Y001268D01*
X022885Y001284D01*
X022894Y001299D01*
X022907Y001312D01*
X022922Y001321D01*
X022938Y001327D01*
X022956Y001329D01*
X022974Y001327D01*
X022990Y001321D01*
X023005Y001312D01*
X023018Y001299D01*
X023027Y001284D01*
X023033Y001268D01*
X023035Y001250D01*
X023033Y001232D01*
X023027Y001216D01*
X023018Y001201D01*
X023005Y001188D01*
X022990Y001179D01*
X022974Y001173D01*
X022956Y001171D01*
X022938Y001173D01*
X022922Y001179D01*
X022907Y001188D01*
X022894Y001201D01*
X022885Y001216D01*
X022879Y001232D01*
X022877Y001250D01*
X023114Y001171D02*
X023116Y001189D01*
X023122Y001205D01*
X023131Y001220D01*
X023144Y001233D01*
X023159Y001242D01*
X023175Y001248D01*
X023193Y001250D01*
X023211Y001248D01*
X023227Y001242D01*
X023242Y001233D01*
X023255Y001220D01*
X023264Y001205D01*
X023270Y001189D01*
X023272Y001171D01*
X023270Y001153D01*
X023264Y001137D01*
X023255Y001122D01*
X023242Y001109D01*
X023227Y001100D01*
X023211Y001094D01*
X023193Y001092D01*
X023175Y001094D01*
X023159Y001100D01*
X023144Y001109D01*
X023131Y001122D01*
X023122Y001137D01*
X023116Y001153D01*
X023114Y001171D01*
X023271Y001014D02*
X023273Y001032D01*
X023279Y001048D01*
X023288Y001063D01*
X023301Y001076D01*
X023316Y001085D01*
X023332Y001091D01*
X023350Y001093D01*
X023368Y001091D01*
X023384Y001085D01*
X023399Y001076D01*
X023412Y001063D01*
X023421Y001048D01*
X023427Y001032D01*
X023429Y001014D01*
X023427Y000996D01*
X023421Y000980D01*
X023412Y000965D01*
X023399Y000952D01*
X023384Y000943D01*
X023368Y000937D01*
X023350Y000935D01*
X023332Y000937D01*
X023316Y000943D01*
X023301Y000952D01*
X023288Y000965D01*
X023279Y000980D01*
X023273Y000996D01*
X023271Y001014D01*
X033882Y001136D02*
X033884Y001164D01*
X033890Y001191D01*
X033899Y001217D01*
X033912Y001242D01*
X033929Y001265D01*
X033948Y001285D01*
X033970Y001302D01*
X033994Y001316D01*
X034020Y001326D01*
X034047Y001333D01*
X034075Y001336D01*
X034103Y001335D01*
X034130Y001330D01*
X034157Y001321D01*
X034182Y001309D01*
X034205Y001294D01*
X034226Y001275D01*
X034244Y001254D01*
X034259Y001230D01*
X034270Y001204D01*
X034278Y001178D01*
X034282Y001150D01*
X034282Y001122D01*
X034278Y001094D01*
X034270Y001068D01*
X034259Y001042D01*
X034244Y001018D01*
X034226Y000997D01*
X034205Y000978D01*
X034182Y000963D01*
X034157Y000951D01*
X034130Y000942D01*
X034103Y000937D01*
X034075Y000936D01*
X034047Y000939D01*
X034020Y000946D01*
X033994Y000956D01*
X033970Y000970D01*
X033948Y000987D01*
X033929Y001007D01*
X033912Y001030D01*
X033899Y001055D01*
X033890Y001081D01*
X033884Y001108D01*
X033882Y001136D01*
X034200Y001525D02*
X034202Y001553D01*
X034208Y001580D01*
X034217Y001606D01*
X034230Y001631D01*
X034247Y001654D01*
X034266Y001674D01*
X034288Y001691D01*
X034312Y001705D01*
X034338Y001715D01*
X034365Y001722D01*
X034393Y001725D01*
X034421Y001724D01*
X034448Y001719D01*
X034475Y001710D01*
X034500Y001698D01*
X034523Y001683D01*
X034544Y001664D01*
X034562Y001643D01*
X034577Y001619D01*
X034588Y001593D01*
X034596Y001567D01*
X034600Y001539D01*
X034600Y001511D01*
X034596Y001483D01*
X034588Y001457D01*
X034577Y001431D01*
X034562Y001407D01*
X034544Y001386D01*
X034523Y001367D01*
X034500Y001352D01*
X034475Y001340D01*
X034448Y001331D01*
X034421Y001326D01*
X034393Y001325D01*
X034365Y001328D01*
X034338Y001335D01*
X034312Y001345D01*
X034288Y001359D01*
X034266Y001376D01*
X034247Y001396D01*
X034230Y001419D01*
X034217Y001444D01*
X034208Y001470D01*
X034202Y001497D01*
X034200Y001525D01*
X034675Y001750D02*
X034677Y001778D01*
X034683Y001805D01*
X034692Y001831D01*
X034705Y001856D01*
X034722Y001879D01*
X034741Y001899D01*
X034763Y001916D01*
X034787Y001930D01*
X034813Y001940D01*
X034840Y001947D01*
X034868Y001950D01*
X034896Y001949D01*
X034923Y001944D01*
X034950Y001935D01*
X034975Y001923D01*
X034998Y001908D01*
X035019Y001889D01*
X035037Y001868D01*
X035052Y001844D01*
X035063Y001818D01*
X035071Y001792D01*
X035075Y001764D01*
X035075Y001736D01*
X035071Y001708D01*
X035063Y001682D01*
X035052Y001656D01*
X035037Y001632D01*
X035019Y001611D01*
X034998Y001592D01*
X034975Y001577D01*
X034950Y001565D01*
X034923Y001556D01*
X034896Y001551D01*
X034868Y001550D01*
X034840Y001553D01*
X034813Y001560D01*
X034787Y001570D01*
X034763Y001584D01*
X034741Y001601D01*
X034722Y001621D01*
X034705Y001644D01*
X034692Y001669D01*
X034683Y001695D01*
X034677Y001722D01*
X034675Y001750D01*
X035125Y001875D02*
X035127Y001903D01*
X035133Y001930D01*
X035142Y001956D01*
X035155Y001981D01*
X035172Y002004D01*
X035191Y002024D01*
X035213Y002041D01*
X035237Y002055D01*
X035263Y002065D01*
X035290Y002072D01*
X035318Y002075D01*
X035346Y002074D01*
X035373Y002069D01*
X035400Y002060D01*
X035425Y002048D01*
X035448Y002033D01*
X035469Y002014D01*
X035487Y001993D01*
X035502Y001969D01*
X035513Y001943D01*
X035521Y001917D01*
X035525Y001889D01*
X035525Y001861D01*
X035521Y001833D01*
X035513Y001807D01*
X035502Y001781D01*
X035487Y001757D01*
X035469Y001736D01*
X035448Y001717D01*
X035425Y001702D01*
X035400Y001690D01*
X035373Y001681D01*
X035346Y001676D01*
X035318Y001675D01*
X035290Y001678D01*
X035263Y001685D01*
X035237Y001695D01*
X035213Y001709D01*
X035191Y001726D01*
X035172Y001746D01*
X035155Y001769D01*
X035142Y001794D01*
X035133Y001820D01*
X035127Y001847D01*
X035125Y001875D01*
X035625Y001900D02*
X035627Y001928D01*
X035633Y001955D01*
X035642Y001981D01*
X035655Y002006D01*
X035672Y002029D01*
X035691Y002049D01*
X035713Y002066D01*
X035737Y002080D01*
X035763Y002090D01*
X035790Y002097D01*
X035818Y002100D01*
X035846Y002099D01*
X035873Y002094D01*
X035900Y002085D01*
X035925Y002073D01*
X035948Y002058D01*
X035969Y002039D01*
X035987Y002018D01*
X036002Y001994D01*
X036013Y001968D01*
X036021Y001942D01*
X036025Y001914D01*
X036025Y001886D01*
X036021Y001858D01*
X036013Y001832D01*
X036002Y001806D01*
X035987Y001782D01*
X035969Y001761D01*
X035948Y001742D01*
X035925Y001727D01*
X035900Y001715D01*
X035873Y001706D01*
X035846Y001701D01*
X035818Y001700D01*
X035790Y001703D01*
X035763Y001710D01*
X035737Y001720D01*
X035713Y001734D01*
X035691Y001751D01*
X035672Y001771D01*
X035655Y001794D01*
X035642Y001819D01*
X035633Y001845D01*
X035627Y001872D01*
X035625Y001900D01*
X035125Y002645D02*
X035127Y002686D01*
X035133Y002726D01*
X035142Y002766D01*
X035156Y002805D01*
X035173Y002842D01*
X035193Y002877D01*
X035217Y002911D01*
X035244Y002942D01*
X035273Y002970D01*
X035306Y002995D01*
X035340Y003017D01*
X035376Y003036D01*
X035414Y003051D01*
X035454Y003063D01*
X035494Y003071D01*
X035535Y003075D01*
X035575Y003075D01*
X035616Y003071D01*
X035656Y003063D01*
X035696Y003051D01*
X035734Y003036D01*
X035770Y003017D01*
X035804Y002995D01*
X035837Y002970D01*
X035866Y002942D01*
X035893Y002911D01*
X035917Y002877D01*
X035937Y002842D01*
X035954Y002805D01*
X035968Y002766D01*
X035977Y002726D01*
X035983Y002686D01*
X035985Y002645D01*
X035983Y002604D01*
X035977Y002564D01*
X035968Y002524D01*
X035954Y002485D01*
X035937Y002448D01*
X035917Y002413D01*
X035893Y002379D01*
X035866Y002348D01*
X035837Y002320D01*
X035804Y002295D01*
X035770Y002273D01*
X035734Y002254D01*
X035696Y002239D01*
X035656Y002227D01*
X035616Y002219D01*
X035575Y002215D01*
X035535Y002215D01*
X035494Y002219D01*
X035454Y002227D01*
X035414Y002239D01*
X035376Y002254D01*
X035340Y002273D01*
X035306Y002295D01*
X035273Y002320D01*
X035244Y002348D01*
X035217Y002379D01*
X035193Y002413D01*
X035173Y002448D01*
X035156Y002485D01*
X035142Y002524D01*
X035133Y002564D01*
X035127Y002604D01*
X035125Y002645D01*
X033822Y020104D02*
X033824Y020122D01*
X033830Y020138D01*
X033839Y020153D01*
X033852Y020166D01*
X033867Y020175D01*
X033883Y020181D01*
X033901Y020183D01*
X033919Y020181D01*
X033935Y020175D01*
X033950Y020166D01*
X033963Y020153D01*
X033972Y020138D01*
X033978Y020122D01*
X033980Y020104D01*
X033978Y020086D01*
X033972Y020070D01*
X033963Y020055D01*
X033950Y020042D01*
X033935Y020033D01*
X033919Y020027D01*
X033901Y020025D01*
X033883Y020027D01*
X033867Y020033D01*
X033852Y020042D01*
X033839Y020055D01*
X033830Y020070D01*
X033824Y020086D01*
X033822Y020104D01*
X033586Y020182D02*
X033588Y020200D01*
X033594Y020216D01*
X033603Y020231D01*
X033616Y020244D01*
X033631Y020253D01*
X033647Y020259D01*
X033665Y020261D01*
X033683Y020259D01*
X033699Y020253D01*
X033714Y020244D01*
X033727Y020231D01*
X033736Y020216D01*
X033742Y020200D01*
X033744Y020182D01*
X033742Y020164D01*
X033736Y020148D01*
X033727Y020133D01*
X033714Y020120D01*
X033699Y020111D01*
X033683Y020105D01*
X033665Y020103D01*
X033647Y020105D01*
X033631Y020111D01*
X033616Y020120D01*
X033603Y020133D01*
X033594Y020148D01*
X033588Y020164D01*
X033586Y020182D01*
X033428Y020340D02*
X033430Y020358D01*
X033436Y020374D01*
X033445Y020389D01*
X033458Y020402D01*
X033473Y020411D01*
X033489Y020417D01*
X033507Y020419D01*
X033525Y020417D01*
X033541Y020411D01*
X033556Y020402D01*
X033569Y020389D01*
X033578Y020374D01*
X033584Y020358D01*
X033586Y020340D01*
X033584Y020322D01*
X033578Y020306D01*
X033569Y020291D01*
X033556Y020278D01*
X033541Y020269D01*
X033525Y020263D01*
X033507Y020261D01*
X033489Y020263D01*
X033473Y020269D01*
X033458Y020278D01*
X033445Y020291D01*
X033436Y020306D01*
X033430Y020322D01*
X033428Y020340D01*
X034058Y020182D02*
X034060Y020200D01*
X034066Y020216D01*
X034075Y020231D01*
X034088Y020244D01*
X034103Y020253D01*
X034119Y020259D01*
X034137Y020261D01*
X034155Y020259D01*
X034171Y020253D01*
X034186Y020244D01*
X034199Y020231D01*
X034208Y020216D01*
X034214Y020200D01*
X034216Y020182D01*
X034214Y020164D01*
X034208Y020148D01*
X034199Y020133D01*
X034186Y020120D01*
X034171Y020111D01*
X034155Y020105D01*
X034137Y020103D01*
X034119Y020105D01*
X034103Y020111D01*
X034088Y020120D01*
X034075Y020133D01*
X034066Y020148D01*
X034060Y020164D01*
X034058Y020182D01*
X034216Y020340D02*
X034218Y020358D01*
X034224Y020374D01*
X034233Y020389D01*
X034246Y020402D01*
X034261Y020411D01*
X034277Y020417D01*
X034295Y020419D01*
X034313Y020417D01*
X034329Y020411D01*
X034344Y020402D01*
X034357Y020389D01*
X034366Y020374D01*
X034372Y020358D01*
X034374Y020340D01*
X034372Y020322D01*
X034366Y020306D01*
X034357Y020291D01*
X034344Y020278D01*
X034329Y020269D01*
X034313Y020263D01*
X034295Y020261D01*
X034277Y020263D01*
X034261Y020269D01*
X034246Y020278D01*
X034233Y020291D01*
X034224Y020306D01*
X034218Y020322D01*
X034216Y020340D01*
X023271Y020340D02*
X023273Y020358D01*
X023279Y020374D01*
X023288Y020389D01*
X023301Y020402D01*
X023316Y020411D01*
X023332Y020417D01*
X023350Y020419D01*
X023368Y020417D01*
X023384Y020411D01*
X023399Y020402D01*
X023412Y020389D01*
X023421Y020374D01*
X023427Y020358D01*
X023429Y020340D01*
X023427Y020322D01*
X023421Y020306D01*
X023412Y020291D01*
X023399Y020278D01*
X023384Y020269D01*
X023368Y020263D01*
X023350Y020261D01*
X023332Y020263D01*
X023316Y020269D01*
X023301Y020278D01*
X023288Y020291D01*
X023279Y020306D01*
X023273Y020322D01*
X023271Y020340D01*
X023114Y020182D02*
X023116Y020200D01*
X023122Y020216D01*
X023131Y020231D01*
X023144Y020244D01*
X023159Y020253D01*
X023175Y020259D01*
X023193Y020261D01*
X023211Y020259D01*
X023227Y020253D01*
X023242Y020244D01*
X023255Y020231D01*
X023264Y020216D01*
X023270Y020200D01*
X023272Y020182D01*
X023270Y020164D01*
X023264Y020148D01*
X023255Y020133D01*
X023242Y020120D01*
X023227Y020111D01*
X023211Y020105D01*
X023193Y020103D01*
X023175Y020105D01*
X023159Y020111D01*
X023144Y020120D01*
X023131Y020133D01*
X023122Y020148D01*
X023116Y020164D01*
X023114Y020182D01*
X022877Y020104D02*
X022879Y020122D01*
X022885Y020138D01*
X022894Y020153D01*
X022907Y020166D01*
X022922Y020175D01*
X022938Y020181D01*
X022956Y020183D01*
X022974Y020181D01*
X022990Y020175D01*
X023005Y020166D01*
X023018Y020153D01*
X023027Y020138D01*
X023033Y020122D01*
X023035Y020104D01*
X023033Y020086D01*
X023027Y020070D01*
X023018Y020055D01*
X023005Y020042D01*
X022990Y020033D01*
X022974Y020027D01*
X022956Y020025D01*
X022938Y020027D01*
X022922Y020033D01*
X022907Y020042D01*
X022894Y020055D01*
X022885Y020070D01*
X022879Y020086D01*
X022877Y020104D01*
X022641Y020182D02*
X022643Y020200D01*
X022649Y020216D01*
X022658Y020231D01*
X022671Y020244D01*
X022686Y020253D01*
X022702Y020259D01*
X022720Y020261D01*
X022738Y020259D01*
X022754Y020253D01*
X022769Y020244D01*
X022782Y020231D01*
X022791Y020216D01*
X022797Y020200D01*
X022799Y020182D01*
X022797Y020164D01*
X022791Y020148D01*
X022782Y020133D01*
X022769Y020120D01*
X022754Y020111D01*
X022738Y020105D01*
X022720Y020103D01*
X022702Y020105D01*
X022686Y020111D01*
X022671Y020120D01*
X022658Y020133D01*
X022649Y020148D01*
X022643Y020164D01*
X022641Y020182D01*
X022484Y020340D02*
X022486Y020358D01*
X022492Y020374D01*
X022501Y020389D01*
X022514Y020402D01*
X022529Y020411D01*
X022545Y020417D01*
X022563Y020419D01*
X022581Y020417D01*
X022597Y020411D01*
X022612Y020402D01*
X022625Y020389D01*
X022634Y020374D01*
X022640Y020358D01*
X022642Y020340D01*
X022640Y020322D01*
X022634Y020306D01*
X022625Y020291D01*
X022612Y020278D01*
X022597Y020269D01*
X022581Y020263D01*
X022563Y020261D01*
X022545Y020263D01*
X022529Y020269D01*
X022514Y020278D01*
X022501Y020291D01*
X022492Y020306D01*
X022486Y020322D01*
X022484Y020340D01*
X003192Y020340D02*
X003194Y020358D01*
X003200Y020374D01*
X003209Y020389D01*
X003222Y020402D01*
X003237Y020411D01*
X003253Y020417D01*
X003271Y020419D01*
X003289Y020417D01*
X003305Y020411D01*
X003320Y020402D01*
X003333Y020389D01*
X003342Y020374D01*
X003348Y020358D01*
X003350Y020340D01*
X003348Y020322D01*
X003342Y020306D01*
X003333Y020291D01*
X003320Y020278D01*
X003305Y020269D01*
X003289Y020263D01*
X003271Y020261D01*
X003253Y020263D01*
X003237Y020269D01*
X003222Y020278D01*
X003209Y020291D01*
X003200Y020306D01*
X003194Y020322D01*
X003192Y020340D01*
X003035Y020182D02*
X003037Y020200D01*
X003043Y020216D01*
X003052Y020231D01*
X003065Y020244D01*
X003080Y020253D01*
X003096Y020259D01*
X003114Y020261D01*
X003132Y020259D01*
X003148Y020253D01*
X003163Y020244D01*
X003176Y020231D01*
X003185Y020216D01*
X003191Y020200D01*
X003193Y020182D01*
X003191Y020164D01*
X003185Y020148D01*
X003176Y020133D01*
X003163Y020120D01*
X003148Y020111D01*
X003132Y020105D01*
X003114Y020103D01*
X003096Y020105D01*
X003080Y020111D01*
X003065Y020120D01*
X003052Y020133D01*
X003043Y020148D01*
X003037Y020164D01*
X003035Y020182D01*
X002799Y020104D02*
X002801Y020122D01*
X002807Y020138D01*
X002816Y020153D01*
X002829Y020166D01*
X002844Y020175D01*
X002860Y020181D01*
X002878Y020183D01*
X002896Y020181D01*
X002912Y020175D01*
X002927Y020166D01*
X002940Y020153D01*
X002949Y020138D01*
X002955Y020122D01*
X002957Y020104D01*
X002955Y020086D01*
X002949Y020070D01*
X002940Y020055D01*
X002927Y020042D01*
X002912Y020033D01*
X002896Y020027D01*
X002878Y020025D01*
X002860Y020027D01*
X002844Y020033D01*
X002829Y020042D01*
X002816Y020055D01*
X002807Y020070D01*
X002801Y020086D01*
X002799Y020104D01*
X002562Y020182D02*
X002564Y020200D01*
X002570Y020216D01*
X002579Y020231D01*
X002592Y020244D01*
X002607Y020253D01*
X002623Y020259D01*
X002641Y020261D01*
X002659Y020259D01*
X002675Y020253D01*
X002690Y020244D01*
X002703Y020231D01*
X002712Y020216D01*
X002718Y020200D01*
X002720Y020182D01*
X002718Y020164D01*
X002712Y020148D01*
X002703Y020133D01*
X002690Y020120D01*
X002675Y020111D01*
X002659Y020105D01*
X002641Y020103D01*
X002623Y020105D01*
X002607Y020111D01*
X002592Y020120D01*
X002579Y020133D01*
X002570Y020148D01*
X002564Y020164D01*
X002562Y020182D01*
X002405Y020340D02*
X002407Y020358D01*
X002413Y020374D01*
X002422Y020389D01*
X002435Y020402D01*
X002450Y020411D01*
X002466Y020417D01*
X002484Y020419D01*
X002502Y020417D01*
X002518Y020411D01*
X002533Y020402D01*
X002546Y020389D01*
X002555Y020374D01*
X002561Y020358D01*
X002563Y020340D01*
X002561Y020322D01*
X002555Y020306D01*
X002546Y020291D01*
X002533Y020278D01*
X002518Y020269D01*
X002502Y020263D01*
X002484Y020261D01*
X002466Y020263D01*
X002450Y020269D01*
X002435Y020278D01*
X002422Y020291D01*
X002413Y020306D01*
X002407Y020322D01*
X002405Y020340D01*
X001463Y018157D02*
X001465Y018198D01*
X001471Y018238D01*
X001480Y018278D01*
X001494Y018317D01*
X001511Y018354D01*
X001531Y018389D01*
X001555Y018423D01*
X001582Y018454D01*
X001611Y018482D01*
X001644Y018507D01*
X001678Y018529D01*
X001714Y018548D01*
X001752Y018563D01*
X001792Y018575D01*
X001832Y018583D01*
X001873Y018587D01*
X001913Y018587D01*
X001954Y018583D01*
X001994Y018575D01*
X002034Y018563D01*
X002072Y018548D01*
X002108Y018529D01*
X002142Y018507D01*
X002175Y018482D01*
X002204Y018454D01*
X002231Y018423D01*
X002255Y018389D01*
X002275Y018354D01*
X002292Y018317D01*
X002306Y018278D01*
X002315Y018238D01*
X002321Y018198D01*
X002323Y018157D01*
X002321Y018116D01*
X002315Y018076D01*
X002306Y018036D01*
X002292Y017997D01*
X002275Y017960D01*
X002255Y017925D01*
X002231Y017891D01*
X002204Y017860D01*
X002175Y017832D01*
X002142Y017807D01*
X002108Y017785D01*
X002072Y017766D01*
X002034Y017751D01*
X001994Y017739D01*
X001954Y017731D01*
X001913Y017727D01*
X001873Y017727D01*
X001832Y017731D01*
X001792Y017739D01*
X001752Y017751D01*
X001714Y017766D01*
X001678Y017785D01*
X001644Y017807D01*
X001611Y017832D01*
X001582Y017860D01*
X001555Y017891D01*
X001531Y017925D01*
X001511Y017960D01*
X001494Y017997D01*
X001480Y018036D01*
X001471Y018076D01*
X001465Y018116D01*
X001463Y018157D01*
D11*
X006801Y019781D02*
X006930Y019691D01*
X007297Y020106D02*
X008648Y019159D01*
X008384Y018673D02*
X008514Y018582D01*
X008648Y019159D02*
X008650Y019096D01*
X008648Y019032D01*
X008642Y018969D01*
X008632Y018906D01*
X008618Y018844D01*
X008601Y018783D01*
X008580Y018723D01*
X008555Y018664D01*
X008527Y018607D01*
X008496Y018552D01*
X008461Y018499D01*
X008423Y018448D01*
X008382Y018399D01*
X008338Y018353D01*
X008291Y018310D01*
X008242Y018269D01*
X008191Y018232D01*
X008137Y018198D01*
X008081Y018167D01*
X008024Y018139D01*
X007965Y018115D01*
X007905Y018095D01*
X007843Y018079D01*
X007781Y018066D01*
X007718Y018057D01*
X007655Y018051D01*
X007591Y018050D01*
X007527Y018053D01*
X007464Y018059D01*
X007401Y018069D01*
X007339Y018083D01*
X007278Y018101D01*
X006771Y018456D02*
X006733Y018507D01*
X006699Y018561D01*
X006668Y018616D01*
X006641Y018674D01*
X006616Y018732D01*
X006596Y018793D01*
X006579Y018854D01*
X006566Y018916D01*
X006557Y018979D01*
X006552Y019043D01*
X006550Y019106D01*
X006552Y019170D01*
X006558Y019233D01*
X006568Y019296D01*
X006582Y019358D01*
X006600Y019419D01*
X006621Y019479D01*
X006646Y019538D01*
X006674Y019595D01*
X006706Y019650D01*
X006740Y019703D01*
X006779Y019754D01*
X006820Y019803D01*
X006864Y019849D01*
X006910Y019892D01*
X006960Y019932D01*
X007011Y019969D01*
X007065Y020003D01*
X007121Y020034D01*
X007178Y020061D01*
X007237Y020085D01*
X007297Y020105D01*
X003750Y014350D02*
X002950Y014350D01*
X002850Y014250D01*
X002850Y013450D01*
X002950Y013350D01*
X002850Y013250D01*
X002850Y012450D01*
X002950Y012350D01*
X003750Y012350D01*
X003850Y012450D01*
X003850Y013250D01*
X003750Y013350D01*
X003850Y013450D01*
X003850Y014250D01*
X003750Y014350D01*
X020150Y014050D02*
X020150Y013250D01*
X020250Y013150D01*
X021050Y013150D01*
X021150Y013250D01*
X021250Y013150D01*
X022050Y013150D01*
X022150Y013250D01*
X022150Y014050D01*
X022050Y014150D01*
X021250Y014150D01*
X021150Y014050D01*
X021050Y014150D01*
X020250Y014150D01*
X020150Y014050D01*
X022150Y013244D02*
X022150Y013094D01*
X022150Y013244D02*
X022650Y013244D01*
X023150Y013244D01*
X023150Y013094D01*
X023040Y012432D02*
X023014Y012401D01*
X022985Y012372D01*
X022953Y012346D01*
X022920Y012323D01*
X022885Y012303D01*
X022848Y012285D01*
X022810Y012270D01*
X022771Y012259D01*
X022731Y012251D01*
X022691Y012246D01*
X022650Y012244D01*
X023150Y012244D01*
X023150Y012394D01*
X022650Y012244D02*
X022150Y012244D01*
X022150Y012394D01*
X022150Y011866D02*
X022150Y011716D01*
X022150Y011866D02*
X022650Y011866D01*
X023150Y011866D01*
X023150Y011716D01*
X023040Y011054D02*
X023014Y011023D01*
X022985Y010994D01*
X022953Y010968D01*
X022920Y010945D01*
X022885Y010925D01*
X022848Y010907D01*
X022810Y010892D01*
X022771Y010881D01*
X022731Y010873D01*
X022691Y010868D01*
X022650Y010866D01*
X023150Y010866D01*
X023150Y011016D01*
X022650Y010866D02*
X022150Y010866D01*
X022150Y011016D01*
X022260Y011678D02*
X022286Y011709D01*
X022315Y011738D01*
X022347Y011764D01*
X022380Y011787D01*
X022415Y011807D01*
X022452Y011825D01*
X022490Y011840D01*
X022529Y011851D01*
X022569Y011859D01*
X022609Y011864D01*
X022650Y011866D01*
X022850Y011366D02*
X022848Y011340D01*
X022843Y011314D01*
X022835Y011289D01*
X022823Y011266D01*
X022809Y011244D01*
X022791Y011225D01*
X022772Y011207D01*
X022750Y011193D01*
X022727Y011181D01*
X022702Y011173D01*
X022676Y011168D01*
X022650Y011166D01*
X023040Y011678D02*
X023014Y011709D01*
X022985Y011738D01*
X022953Y011764D01*
X022920Y011787D01*
X022885Y011807D01*
X022848Y011825D01*
X022810Y011840D01*
X022771Y011851D01*
X022731Y011859D01*
X022691Y011864D01*
X022650Y011866D01*
X022260Y011054D02*
X022286Y011023D01*
X022315Y010994D01*
X022347Y010968D01*
X022380Y010945D01*
X022415Y010925D01*
X022452Y010907D01*
X022490Y010892D01*
X022529Y010881D01*
X022569Y010873D01*
X022609Y010868D01*
X022650Y010866D01*
X022650Y009110D02*
X022150Y009110D01*
X022150Y008960D01*
X022650Y009110D02*
X023150Y009110D01*
X023150Y008960D01*
X023040Y008298D02*
X023014Y008267D01*
X022985Y008238D01*
X022953Y008212D01*
X022920Y008189D01*
X022885Y008169D01*
X022848Y008151D01*
X022810Y008136D01*
X022771Y008125D01*
X022731Y008117D01*
X022691Y008112D01*
X022650Y008110D01*
X023150Y008110D01*
X023150Y008260D01*
X022650Y008110D02*
X022150Y008110D01*
X022150Y008260D01*
X022260Y008298D02*
X022286Y008267D01*
X022315Y008238D01*
X022347Y008212D01*
X022380Y008189D01*
X022415Y008169D01*
X022452Y008151D01*
X022490Y008136D01*
X022529Y008125D01*
X022569Y008117D01*
X022609Y008112D01*
X022650Y008110D01*
X022650Y007732D02*
X022150Y007732D01*
X022150Y007582D01*
X022650Y007732D02*
X023150Y007732D01*
X023150Y007582D01*
X023040Y006920D02*
X023014Y006889D01*
X022985Y006860D01*
X022953Y006834D01*
X022920Y006811D01*
X022885Y006791D01*
X022848Y006773D01*
X022810Y006758D01*
X022771Y006747D01*
X022731Y006739D01*
X022691Y006734D01*
X022650Y006732D01*
X023150Y006732D01*
X023150Y006882D01*
X022650Y006732D02*
X022150Y006732D01*
X022150Y006882D01*
X022260Y007544D02*
X022286Y007575D01*
X022315Y007604D01*
X022347Y007630D01*
X022380Y007653D01*
X022415Y007673D01*
X022452Y007691D01*
X022490Y007706D01*
X022529Y007717D01*
X022569Y007725D01*
X022609Y007730D01*
X022650Y007732D01*
X022850Y007232D02*
X022848Y007206D01*
X022843Y007180D01*
X022835Y007155D01*
X022823Y007132D01*
X022809Y007110D01*
X022791Y007091D01*
X022772Y007073D01*
X022750Y007059D01*
X022727Y007047D01*
X022702Y007039D01*
X022676Y007034D01*
X022650Y007032D01*
X023040Y007544D02*
X023014Y007575D01*
X022985Y007604D01*
X022953Y007630D01*
X022920Y007653D01*
X022885Y007673D01*
X022848Y007691D01*
X022810Y007706D01*
X022771Y007717D01*
X022731Y007725D01*
X022691Y007730D01*
X022650Y007732D01*
X022260Y006920D02*
X022286Y006889D01*
X022315Y006860D01*
X022347Y006834D01*
X022380Y006811D01*
X022415Y006791D01*
X022452Y006773D01*
X022490Y006758D01*
X022529Y006747D01*
X022569Y006739D01*
X022609Y006734D01*
X022650Y006732D01*
X022650Y006354D02*
X022150Y006354D01*
X022150Y006204D01*
X022650Y006354D02*
X023150Y006354D01*
X023150Y006204D01*
X023040Y005542D02*
X023014Y005511D01*
X022985Y005482D01*
X022953Y005456D01*
X022920Y005433D01*
X022885Y005413D01*
X022848Y005395D01*
X022810Y005380D01*
X022771Y005369D01*
X022731Y005361D01*
X022691Y005356D01*
X022650Y005354D01*
X023150Y005354D01*
X023150Y005504D01*
X022650Y005354D02*
X022150Y005354D01*
X022150Y005504D01*
X022150Y004976D02*
X022150Y004826D01*
X022150Y004976D02*
X022650Y004976D01*
X023150Y004976D01*
X023150Y004826D01*
X023040Y004164D02*
X023014Y004133D01*
X022985Y004104D01*
X022953Y004078D01*
X022920Y004055D01*
X022885Y004035D01*
X022848Y004017D01*
X022810Y004002D01*
X022771Y003991D01*
X022731Y003983D01*
X022691Y003978D01*
X022650Y003976D01*
X023150Y003976D01*
X023150Y004126D01*
X022650Y003976D02*
X022150Y003976D01*
X022150Y004126D01*
X022260Y004164D02*
X022286Y004133D01*
X022315Y004104D01*
X022347Y004078D01*
X022380Y004055D01*
X022415Y004035D01*
X022452Y004017D01*
X022490Y004002D01*
X022529Y003991D01*
X022569Y003983D01*
X022609Y003978D01*
X022650Y003976D01*
X022450Y003795D02*
X022450Y003637D01*
X021900Y003575D02*
X021900Y001925D01*
X022450Y001863D02*
X022450Y001705D01*
X023769Y002409D02*
X027431Y002409D01*
X027431Y018944D01*
X023769Y018944D01*
X023769Y002409D01*
X023553Y002440D02*
X023533Y002380D01*
X023509Y002321D01*
X023481Y002264D01*
X023450Y002209D01*
X023415Y002155D01*
X023378Y002104D01*
X023337Y002055D01*
X023293Y002009D01*
X023247Y001965D01*
X023198Y001924D01*
X023147Y001886D01*
X023094Y001852D01*
X023038Y001820D01*
X022981Y001793D01*
X022922Y001768D01*
X022862Y001748D01*
X022801Y001730D01*
X022739Y001717D01*
X022676Y001708D01*
X022613Y001702D01*
X022549Y001700D01*
X022485Y001702D01*
X022422Y001708D01*
X022359Y001717D01*
X022297Y001731D01*
X022236Y001748D01*
X022176Y001769D01*
X022117Y001793D01*
X022060Y001821D01*
X022004Y001853D01*
X021951Y001888D01*
X021900Y001925D01*
X021900Y003575D02*
X021951Y003612D01*
X022004Y003647D01*
X022060Y003679D01*
X022117Y003707D01*
X022176Y003731D01*
X022236Y003752D01*
X022297Y003769D01*
X022359Y003783D01*
X022422Y003792D01*
X022485Y003798D01*
X022549Y003800D01*
X022613Y003798D01*
X022676Y003792D01*
X022739Y003783D01*
X022801Y003770D01*
X022862Y003752D01*
X022922Y003732D01*
X022981Y003707D01*
X023038Y003679D01*
X023094Y003648D01*
X023147Y003614D01*
X023198Y003576D01*
X023247Y003535D01*
X023293Y003491D01*
X023337Y003445D01*
X023378Y003396D01*
X023415Y003345D01*
X023450Y003291D01*
X023481Y003236D01*
X023509Y003179D01*
X023533Y003120D01*
X023553Y003060D01*
X023040Y004788D02*
X023014Y004819D01*
X022985Y004848D01*
X022953Y004874D01*
X022920Y004897D01*
X022885Y004917D01*
X022848Y004935D01*
X022810Y004950D01*
X022771Y004961D01*
X022731Y004969D01*
X022691Y004974D01*
X022650Y004976D01*
X022850Y004476D02*
X022848Y004450D01*
X022843Y004424D01*
X022835Y004399D01*
X022823Y004376D01*
X022809Y004354D01*
X022791Y004335D01*
X022772Y004317D01*
X022750Y004303D01*
X022727Y004291D01*
X022702Y004283D01*
X022676Y004278D01*
X022650Y004276D01*
X022260Y004788D02*
X022286Y004819D01*
X022315Y004848D01*
X022347Y004874D01*
X022380Y004897D01*
X022415Y004917D01*
X022452Y004935D01*
X022490Y004950D01*
X022529Y004961D01*
X022569Y004969D01*
X022609Y004974D01*
X022650Y004976D01*
X022260Y006166D02*
X022286Y006197D01*
X022315Y006226D01*
X022347Y006252D01*
X022380Y006275D01*
X022415Y006295D01*
X022452Y006313D01*
X022490Y006328D01*
X022529Y006339D01*
X022569Y006347D01*
X022609Y006352D01*
X022650Y006354D01*
X022850Y005854D02*
X022848Y005828D01*
X022843Y005802D01*
X022835Y005777D01*
X022823Y005754D01*
X022809Y005732D01*
X022791Y005713D01*
X022772Y005695D01*
X022750Y005681D01*
X022727Y005669D01*
X022702Y005661D01*
X022676Y005656D01*
X022650Y005654D01*
X023040Y006166D02*
X023014Y006197D01*
X022985Y006226D01*
X022953Y006252D01*
X022920Y006275D01*
X022885Y006295D01*
X022848Y006313D01*
X022810Y006328D01*
X022771Y006339D01*
X022731Y006347D01*
X022691Y006352D01*
X022650Y006354D01*
X022260Y005542D02*
X022286Y005511D01*
X022315Y005482D01*
X022347Y005456D01*
X022380Y005433D01*
X022415Y005413D01*
X022452Y005395D01*
X022490Y005380D01*
X022529Y005369D01*
X022569Y005361D01*
X022609Y005356D01*
X022650Y005354D01*
X028019Y002409D02*
X031681Y002409D01*
X031681Y018944D01*
X028019Y018944D01*
X028019Y002409D01*
X023040Y008922D02*
X023014Y008953D01*
X022985Y008982D01*
X022953Y009008D01*
X022920Y009031D01*
X022885Y009051D01*
X022848Y009069D01*
X022810Y009084D01*
X022771Y009095D01*
X022731Y009103D01*
X022691Y009108D01*
X022650Y009110D01*
X022850Y008610D02*
X022848Y008584D01*
X022843Y008558D01*
X022835Y008533D01*
X022823Y008510D01*
X022809Y008488D01*
X022791Y008469D01*
X022772Y008451D01*
X022750Y008437D01*
X022727Y008425D01*
X022702Y008417D01*
X022676Y008412D01*
X022650Y008410D01*
X022260Y008922D02*
X022286Y008953D01*
X022315Y008982D01*
X022347Y009008D01*
X022380Y009031D01*
X022415Y009051D01*
X022452Y009069D01*
X022490Y009084D01*
X022529Y009095D01*
X022569Y009103D01*
X022609Y009108D01*
X022650Y009110D01*
X022260Y013056D02*
X022286Y013087D01*
X022315Y013116D01*
X022347Y013142D01*
X022380Y013165D01*
X022415Y013185D01*
X022452Y013203D01*
X022490Y013218D01*
X022529Y013229D01*
X022569Y013237D01*
X022609Y013242D01*
X022650Y013244D01*
X022850Y012744D02*
X022848Y012718D01*
X022843Y012692D01*
X022835Y012667D01*
X022823Y012644D01*
X022809Y012622D01*
X022791Y012603D01*
X022772Y012585D01*
X022750Y012571D01*
X022727Y012559D01*
X022702Y012551D01*
X022676Y012546D01*
X022650Y012544D01*
X023040Y013056D02*
X023014Y013087D01*
X022985Y013116D01*
X022953Y013142D01*
X022920Y013165D01*
X022885Y013185D01*
X022848Y013203D01*
X022810Y013218D01*
X022771Y013229D01*
X022731Y013237D01*
X022691Y013242D01*
X022650Y013244D01*
X022260Y012432D02*
X022286Y012401D01*
X022315Y012372D01*
X022347Y012346D01*
X022380Y012323D01*
X022415Y012303D01*
X022452Y012285D01*
X022490Y012270D01*
X022529Y012259D01*
X022569Y012251D01*
X022609Y012246D01*
X022650Y012244D01*
X032150Y012250D02*
X032250Y012150D01*
X033050Y012150D01*
X033150Y012250D01*
X033150Y013050D01*
X033050Y013150D01*
X033150Y013250D01*
X033150Y014050D01*
X033050Y014150D01*
X033150Y014250D01*
X033150Y015050D01*
X033050Y015150D01*
X032250Y015150D01*
X032150Y015050D01*
X032150Y014250D01*
X032250Y014150D01*
X032150Y014050D01*
X032150Y013250D01*
X032250Y013150D01*
X032150Y013050D01*
X032150Y012250D01*
X031752Y019280D02*
X031898Y019427D01*
X031898Y019720D01*
X031605Y019720D02*
X031605Y019427D01*
X031752Y019280D01*
X031438Y019280D02*
X031144Y019280D01*
X031438Y019574D01*
X031438Y019647D01*
X031365Y019720D01*
X031218Y019720D01*
X031144Y019647D01*
X030831Y019720D02*
X030831Y019280D01*
X030684Y019280D02*
X030978Y019280D01*
X030684Y019574D02*
X030831Y019720D01*
X030057Y019500D02*
X030057Y019280D01*
X029837Y019280D01*
X029763Y019353D01*
X029837Y019427D01*
X030057Y019427D01*
X030057Y019500D02*
X029983Y019574D01*
X029837Y019574D01*
X029136Y019500D02*
X029063Y019574D01*
X028842Y019574D01*
X028842Y019720D02*
X028842Y019280D01*
X029063Y019280D01*
X029136Y019353D01*
X029136Y019500D01*
X028215Y019574D02*
X027995Y019574D01*
X027922Y019500D01*
X027922Y019353D01*
X027995Y019280D01*
X028215Y019280D01*
X027294Y019353D02*
X027221Y019280D01*
X027001Y019280D01*
X027001Y019720D01*
X027221Y019720D01*
X027294Y019647D01*
X027294Y019353D01*
X026834Y019280D02*
X026834Y019720D01*
X026540Y019720D02*
X026834Y019280D01*
X026540Y019280D02*
X026540Y019720D01*
X026374Y019647D02*
X026300Y019720D01*
X026153Y019720D01*
X026080Y019647D01*
X026080Y019353D01*
X026153Y019280D01*
X026300Y019280D01*
X026374Y019353D01*
X026374Y019500D01*
X026227Y019500D01*
X002050Y003300D02*
X002050Y002500D01*
X001950Y002400D01*
X002050Y002300D01*
X002050Y001500D01*
X001950Y001400D01*
X001150Y001400D01*
X001050Y001500D01*
X001050Y002300D01*
X001150Y002400D01*
X001050Y002500D01*
X001050Y003300D01*
X001150Y003400D01*
X001950Y003400D01*
X002050Y003300D01*
D12*
X002987Y003472D02*
X003059Y003400D01*
X003202Y003400D01*
X003274Y003472D01*
X003274Y003759D01*
X003202Y003830D01*
X003059Y003830D01*
X002987Y003759D01*
X002987Y003472D01*
X003447Y003400D02*
X003591Y003400D01*
X003519Y003400D02*
X003519Y003830D01*
X003447Y003830D02*
X003591Y003830D01*
X003754Y003830D02*
X003754Y003400D01*
X004041Y003400D01*
X002987Y004965D02*
X002987Y005395D01*
X003202Y005395D01*
X003274Y005324D01*
X003274Y005180D01*
X003202Y005108D01*
X002987Y005108D01*
X002813Y004965D02*
X002813Y005395D01*
X002670Y005252D01*
X002527Y005395D01*
X002527Y004965D01*
X002210Y004965D02*
X002210Y005395D01*
X002353Y005395D02*
X002066Y005395D01*
X001432Y005324D02*
X001145Y005037D01*
X001217Y004965D01*
X001361Y004965D01*
X001432Y005037D01*
X001432Y005324D01*
X001361Y005395D01*
X001217Y005395D01*
X001145Y005324D01*
X001145Y005037D01*
X000972Y004965D02*
X000685Y004965D01*
X000828Y004965D02*
X000828Y005395D01*
X000685Y005252D01*
X000757Y006530D02*
X000685Y006602D01*
X000757Y006530D02*
X000900Y006530D01*
X000972Y006602D01*
X000972Y006889D01*
X000900Y006960D01*
X000757Y006960D01*
X000685Y006889D01*
X000685Y006817D01*
X000757Y006745D01*
X000972Y006745D01*
X001606Y006745D02*
X001893Y006745D01*
X001893Y006817D02*
X001893Y006530D01*
X002066Y006530D02*
X002353Y006530D01*
X002066Y006530D02*
X002066Y006960D01*
X001893Y006817D02*
X001749Y006960D01*
X001606Y006817D01*
X001606Y006530D01*
X002527Y006960D02*
X002813Y006960D01*
X002670Y006960D02*
X002670Y006530D01*
X002598Y008095D02*
X002527Y008167D01*
X002598Y008095D02*
X002742Y008095D01*
X002813Y008167D01*
X002813Y008238D01*
X002742Y008310D01*
X002598Y008310D01*
X002527Y008382D01*
X002527Y008454D01*
X002598Y008525D01*
X002742Y008525D01*
X002813Y008454D01*
X002353Y008454D02*
X002353Y008382D01*
X002281Y008310D01*
X002066Y008310D01*
X001893Y008310D02*
X001606Y008310D01*
X001606Y008382D02*
X001749Y008525D01*
X001893Y008382D01*
X001893Y008095D01*
X002066Y008095D02*
X002281Y008095D01*
X002353Y008167D01*
X002353Y008238D01*
X002281Y008310D01*
X002353Y008454D02*
X002281Y008525D01*
X002066Y008525D01*
X002066Y008095D01*
X001606Y008095D02*
X001606Y008382D01*
X000972Y008382D02*
X000900Y008310D01*
X000757Y008310D01*
X000685Y008382D01*
X000685Y008454D01*
X000757Y008525D01*
X000900Y008525D01*
X000972Y008454D01*
X000972Y008382D01*
X000900Y008310D02*
X000972Y008238D01*
X000972Y008167D01*
X000900Y008095D01*
X000757Y008095D01*
X000685Y008167D01*
X000685Y008238D01*
X000757Y008310D01*
X000685Y009660D02*
X000685Y009732D01*
X000972Y010019D01*
X000972Y010090D01*
X000685Y010090D01*
X001606Y010090D02*
X001606Y009660D01*
X001606Y009803D02*
X001821Y009803D01*
X001893Y009875D01*
X001893Y010019D01*
X001821Y010090D01*
X001606Y010090D01*
X001749Y009803D02*
X001893Y009660D01*
X002066Y009660D02*
X002353Y009660D01*
X002527Y009732D02*
X002598Y009660D01*
X002742Y009660D01*
X002813Y009732D01*
X002813Y009803D01*
X002742Y009875D01*
X002598Y009875D01*
X002527Y009947D01*
X002527Y010019D01*
X002598Y010090D01*
X002742Y010090D01*
X002813Y010019D01*
X002353Y010090D02*
X002066Y010090D01*
X002066Y009660D01*
X002066Y009875D02*
X002210Y009875D01*
X002281Y011225D02*
X002138Y011225D01*
X002066Y011297D01*
X002138Y011440D02*
X002281Y011440D01*
X002353Y011368D01*
X002353Y011297D01*
X002281Y011225D01*
X002527Y011225D02*
X002670Y011368D01*
X002813Y011225D01*
X002813Y011655D01*
X002987Y011655D02*
X003202Y011655D01*
X003274Y011584D01*
X003274Y011440D01*
X003202Y011368D01*
X002987Y011368D01*
X002987Y011225D02*
X002987Y011655D01*
X002527Y011655D02*
X002527Y011225D01*
X002353Y011584D02*
X002281Y011655D01*
X002138Y011655D01*
X002066Y011584D01*
X002066Y011512D01*
X002138Y011440D01*
X001893Y011368D02*
X001821Y011440D01*
X001606Y011440D01*
X001606Y011297D01*
X001678Y011225D01*
X001821Y011225D01*
X001893Y011297D01*
X001893Y011368D01*
X001749Y011584D02*
X001606Y011440D01*
X001749Y011584D02*
X001893Y011655D01*
X002138Y014355D02*
X002281Y014355D01*
X002353Y014427D01*
X002353Y014570D01*
X002210Y014570D01*
X002353Y014714D02*
X002281Y014785D01*
X002138Y014785D01*
X002066Y014714D01*
X002066Y014427D01*
X002138Y014355D01*
X002527Y014355D02*
X002527Y014642D01*
X002670Y014785D01*
X002813Y014642D01*
X002813Y014355D01*
X002813Y014570D02*
X002527Y014570D01*
X000972Y014570D02*
X000685Y014570D01*
X000900Y014785D01*
X000900Y014355D01*
X000900Y015920D02*
X000757Y015920D01*
X000685Y015992D01*
X000828Y016135D02*
X000900Y016135D01*
X000972Y016063D01*
X000972Y015992D01*
X000900Y015920D01*
X000900Y016135D02*
X000972Y016207D01*
X000972Y016279D01*
X000900Y016350D01*
X000757Y016350D01*
X000685Y016279D01*
X002066Y016279D02*
X002066Y015992D01*
X002138Y015920D01*
X002281Y015920D01*
X002353Y015992D01*
X002353Y016135D01*
X002210Y016135D01*
X002353Y016279D02*
X002281Y016350D01*
X002138Y016350D01*
X002066Y016279D01*
X002527Y016350D02*
X002527Y015920D01*
X002742Y015920D01*
X002813Y015992D01*
X002813Y016063D01*
X002742Y016135D01*
X002527Y016135D01*
X002742Y016135D02*
X002813Y016207D01*
X002813Y016279D01*
X002742Y016350D01*
X002527Y016350D01*
X002598Y017485D02*
X002527Y017557D01*
X002527Y017844D01*
X002598Y017915D01*
X002742Y017915D01*
X002813Y017844D01*
X002813Y017557D02*
X002742Y017485D01*
X002598Y017485D01*
X002353Y017557D02*
X002353Y017700D01*
X002210Y017700D01*
X002353Y017557D02*
X002281Y017485D01*
X002138Y017485D01*
X002066Y017557D01*
X002066Y017844D01*
X002138Y017915D01*
X002281Y017915D01*
X002353Y017844D01*
X000972Y017844D02*
X000900Y017915D01*
X000757Y017915D01*
X000685Y017844D01*
X000972Y017844D02*
X000972Y017772D01*
X000685Y017485D01*
X000972Y017485D01*
X001606Y019050D02*
X001893Y019050D01*
X001749Y019050D02*
X001749Y019480D01*
X001606Y019337D01*
X002066Y019265D02*
X002281Y019265D01*
X002353Y019193D01*
X002353Y019122D01*
X002281Y019050D01*
X002066Y019050D01*
X002066Y019480D01*
X002281Y019480D01*
X002353Y019409D01*
X002353Y019337D01*
X002281Y019265D01*
X002527Y019265D02*
X002813Y019265D01*
X002813Y019337D02*
X002813Y019050D01*
X002527Y019050D02*
X002527Y019337D01*
X002670Y019480D01*
X002813Y019337D01*
X002987Y019480D02*
X003274Y019480D01*
X003130Y019480D02*
X003130Y019050D01*
X015185Y019737D02*
X015257Y019665D01*
X015400Y019665D01*
X015472Y019737D01*
X015472Y019880D01*
X015328Y019880D01*
X015185Y020024D02*
X015185Y019737D01*
X015645Y019665D02*
X015645Y020095D01*
X015932Y019665D01*
X015932Y020095D01*
X016106Y020095D02*
X016321Y020095D01*
X016393Y020024D01*
X016393Y019737D01*
X016321Y019665D01*
X016106Y019665D01*
X016106Y020095D01*
X015472Y020024D02*
X015400Y020095D01*
X015257Y020095D01*
X015185Y020024D01*
X015885Y019402D02*
X016028Y019545D01*
X016028Y019115D01*
X015885Y019115D02*
X016172Y019115D01*
X016345Y019187D02*
X016417Y019115D01*
X016561Y019115D01*
X016632Y019187D01*
X016632Y019258D01*
X016561Y019330D01*
X016489Y019330D01*
X016561Y019330D02*
X016632Y019402D01*
X016632Y019474D01*
X016561Y019545D01*
X016417Y019545D01*
X016345Y019474D01*
X016566Y018530D02*
X016781Y018530D01*
X016853Y018459D01*
X016853Y018387D01*
X016781Y018315D01*
X016566Y018315D01*
X016566Y018100D02*
X016781Y018100D01*
X016853Y018172D01*
X016853Y018243D01*
X016781Y018315D01*
X016566Y018100D02*
X016566Y018530D01*
X017027Y018530D02*
X017313Y018530D01*
X017170Y018530D02*
X017170Y018100D01*
X016561Y017980D02*
X016345Y017765D01*
X016632Y017765D01*
X016561Y017550D02*
X016561Y017980D01*
X016028Y017980D02*
X016028Y017550D01*
X015885Y017550D02*
X016172Y017550D01*
X015885Y017837D02*
X016028Y017980D01*
X015717Y017037D02*
X015717Y016965D01*
X015717Y016822D02*
X015717Y016535D01*
X015645Y016535D02*
X015789Y016535D01*
X015952Y016535D02*
X016168Y016535D01*
X016239Y016607D01*
X016239Y016678D01*
X016168Y016750D01*
X015952Y016750D01*
X015952Y016535D02*
X015952Y016965D01*
X016168Y016965D01*
X016239Y016894D01*
X016239Y016822D01*
X016168Y016750D01*
X016028Y016415D02*
X016028Y015985D01*
X015885Y015985D02*
X016172Y015985D01*
X016345Y016057D02*
X016417Y015985D01*
X016561Y015985D01*
X016632Y016057D01*
X016632Y016200D01*
X016561Y016272D01*
X016489Y016272D01*
X016345Y016200D01*
X016345Y016415D01*
X016632Y016415D01*
X016028Y016415D02*
X015885Y016272D01*
X015472Y016535D02*
X015472Y016965D01*
X015472Y016750D02*
X015185Y016750D01*
X015185Y016535D02*
X015185Y016965D01*
X015645Y016822D02*
X015717Y016822D01*
X016028Y014850D02*
X016028Y014420D01*
X015885Y014420D02*
X016172Y014420D01*
X016345Y014492D02*
X016417Y014420D01*
X016561Y014420D01*
X016632Y014492D01*
X016632Y014563D01*
X016561Y014635D01*
X016345Y014635D01*
X016345Y014492D01*
X016345Y014635D02*
X016489Y014779D01*
X016632Y014850D01*
X016028Y014850D02*
X015885Y014707D01*
X016028Y013285D02*
X016028Y012855D01*
X015885Y012855D02*
X016172Y012855D01*
X016345Y012855D02*
X016345Y012927D01*
X016632Y013214D01*
X016632Y013285D01*
X016345Y013285D01*
X016028Y013285D02*
X015885Y013142D01*
X016806Y013285D02*
X017093Y013070D01*
X016806Y012855D01*
X016511Y011765D02*
X016367Y011765D01*
X016295Y011694D01*
X016295Y011622D01*
X016367Y011550D01*
X016511Y011550D01*
X016582Y011478D01*
X016582Y011407D01*
X016511Y011335D01*
X016367Y011335D01*
X016295Y011407D01*
X016295Y011478D01*
X016367Y011550D01*
X016511Y011550D02*
X016582Y011622D01*
X016582Y011694D01*
X016511Y011765D01*
X015978Y011765D02*
X015978Y011335D01*
X015835Y011335D02*
X016122Y011335D01*
X015835Y011622D02*
X015978Y011765D01*
X015978Y010265D02*
X015978Y009835D01*
X015835Y009835D02*
X016122Y009835D01*
X016295Y009907D02*
X016367Y009835D01*
X016511Y009835D01*
X016582Y009907D01*
X016582Y010194D01*
X016511Y010265D01*
X016367Y010265D01*
X016295Y010194D01*
X016295Y010122D01*
X016367Y010050D01*
X016582Y010050D01*
X016756Y010050D02*
X017043Y009835D01*
X016756Y010050D02*
X017043Y010265D01*
X015978Y010265D02*
X015835Y010122D01*
X019185Y010215D02*
X019185Y009785D01*
X019400Y009785D01*
X019472Y009857D01*
X019472Y009928D01*
X019400Y010000D01*
X019185Y010000D01*
X019400Y010000D02*
X019472Y010072D01*
X019472Y010144D01*
X019400Y010215D01*
X019185Y010215D01*
X019645Y010072D02*
X019789Y010215D01*
X019932Y010072D01*
X019932Y009785D01*
X020106Y009785D02*
X020106Y010215D01*
X020321Y010215D01*
X020393Y010144D01*
X020393Y010000D01*
X020321Y009928D01*
X020106Y009928D01*
X020249Y009928D02*
X020393Y009785D01*
X019932Y010000D02*
X019645Y010000D01*
X019645Y010072D02*
X019645Y009785D01*
X019645Y008835D02*
X019645Y008405D01*
X019932Y008405D01*
X020249Y008405D02*
X020249Y008835D01*
X020106Y008835D02*
X020393Y008835D01*
X020735Y008794D02*
X020807Y008865D01*
X020950Y008865D01*
X021022Y008794D01*
X021022Y008722D01*
X020735Y008435D01*
X021022Y008435D01*
X021195Y008435D02*
X021267Y008435D01*
X021267Y008507D01*
X021195Y008507D01*
X021195Y008435D01*
X021426Y008507D02*
X021497Y008435D01*
X021641Y008435D01*
X021712Y008507D01*
X021712Y008650D01*
X021641Y008722D01*
X021569Y008722D01*
X021426Y008650D01*
X021426Y008865D01*
X021712Y008865D01*
X021697Y009785D02*
X021841Y009785D01*
X021912Y009857D01*
X021912Y009928D01*
X021841Y010000D01*
X021626Y010000D01*
X021626Y009857D01*
X021697Y009785D01*
X021626Y010000D02*
X021769Y010144D01*
X021912Y010215D01*
X021467Y009857D02*
X021467Y009785D01*
X021395Y009785D01*
X021395Y009857D01*
X021467Y009857D01*
X021222Y009785D02*
X020935Y009785D01*
X021222Y010072D01*
X021222Y010144D01*
X021150Y010215D01*
X021007Y010215D01*
X020935Y010144D01*
X020935Y011165D02*
X021222Y011452D01*
X021222Y011524D01*
X021150Y011595D01*
X021007Y011595D01*
X020935Y011524D01*
X021395Y011237D02*
X021467Y011237D01*
X021467Y011165D01*
X021395Y011165D01*
X021395Y011237D01*
X021222Y011165D02*
X020935Y011165D01*
X020393Y011237D02*
X020321Y011165D01*
X020178Y011165D01*
X020106Y011237D01*
X020178Y011380D02*
X020106Y011452D01*
X020106Y011524D01*
X020178Y011595D01*
X020321Y011595D01*
X020393Y011524D01*
X020321Y011380D02*
X020393Y011308D01*
X020393Y011237D01*
X020321Y011380D02*
X020178Y011380D01*
X019932Y011308D02*
X019932Y011237D01*
X019861Y011165D01*
X019645Y011165D01*
X019645Y011595D01*
X019861Y011595D01*
X019932Y011524D01*
X019932Y011452D01*
X019861Y011380D01*
X019645Y011380D01*
X019472Y011380D02*
X019185Y011380D01*
X019185Y011452D02*
X019185Y011165D01*
X019472Y011165D02*
X019472Y011452D01*
X019328Y011595D01*
X019185Y011452D01*
X019861Y011380D02*
X019932Y011308D01*
X021626Y011237D02*
X021626Y011165D01*
X021626Y011237D02*
X021912Y011524D01*
X021912Y011595D01*
X021626Y011595D01*
X020710Y012545D02*
X020710Y012975D01*
X020853Y012975D02*
X020566Y012975D01*
X020393Y012904D02*
X020393Y012832D01*
X020321Y012760D01*
X020106Y012760D01*
X020321Y012760D02*
X020393Y012688D01*
X020393Y012617D01*
X020321Y012545D01*
X020106Y012545D01*
X020106Y012975D01*
X020321Y012975D01*
X020393Y012904D01*
X020735Y013955D02*
X021022Y014242D01*
X021022Y014314D01*
X020950Y014385D01*
X020807Y014385D01*
X020735Y014314D01*
X021195Y014027D02*
X021267Y014027D01*
X021267Y013955D01*
X021195Y013955D01*
X021195Y014027D01*
X021022Y013955D02*
X020735Y013955D01*
X021426Y014027D02*
X021497Y013955D01*
X021641Y013955D01*
X021712Y014027D01*
X021712Y014314D01*
X021641Y014385D01*
X021497Y014385D01*
X021426Y014314D01*
X021426Y014242D01*
X021497Y014170D01*
X021712Y014170D01*
X021712Y015335D02*
X021426Y015335D01*
X021569Y015335D02*
X021569Y015765D01*
X021426Y015622D01*
X021267Y015407D02*
X021195Y015407D01*
X021195Y015335D01*
X021267Y015335D01*
X021267Y015407D01*
X021022Y015335D02*
X020735Y015335D01*
X021022Y015622D01*
X021022Y015694D01*
X020950Y015765D01*
X020807Y015765D01*
X020735Y015694D01*
X021886Y015694D02*
X021886Y015407D01*
X022173Y015694D01*
X022173Y015407D01*
X022101Y015335D01*
X021958Y015335D01*
X021886Y015407D01*
X021886Y015694D02*
X021958Y015765D01*
X022101Y015765D01*
X022173Y015694D01*
X022335Y015650D02*
X022622Y015650D01*
X022795Y015722D02*
X022867Y015722D01*
X022867Y015435D01*
X022795Y015435D02*
X022939Y015435D01*
X023102Y015435D02*
X023318Y015435D01*
X023389Y015507D01*
X023389Y015578D01*
X023318Y015650D01*
X023102Y015650D01*
X023102Y015435D02*
X023102Y015865D01*
X023318Y015865D01*
X023389Y015794D01*
X023389Y015722D01*
X023318Y015650D01*
X022867Y015865D02*
X022867Y015937D01*
X022622Y015865D02*
X022622Y015435D01*
X022335Y015435D02*
X022335Y015865D01*
X022173Y016715D02*
X021886Y016715D01*
X022029Y016715D02*
X022029Y017145D01*
X021886Y017002D01*
X021569Y017145D02*
X021569Y016715D01*
X021426Y016715D02*
X021712Y016715D01*
X021267Y016715D02*
X021267Y016787D01*
X021195Y016787D01*
X021195Y016715D01*
X021267Y016715D01*
X021022Y016715D02*
X020735Y016715D01*
X021022Y017002D01*
X021022Y017074D01*
X020950Y017145D01*
X020807Y017145D01*
X020735Y017074D01*
X021426Y017002D02*
X021569Y017145D01*
X022795Y017174D02*
X022795Y017102D01*
X022867Y017030D01*
X023011Y017030D01*
X023082Y016958D01*
X023082Y016887D01*
X023011Y016815D01*
X022867Y016815D01*
X022795Y016887D01*
X022795Y017174D02*
X022867Y017245D01*
X023011Y017245D01*
X023082Y017174D01*
X023256Y017245D02*
X023256Y016815D01*
X023256Y016958D02*
X023471Y016958D01*
X023543Y017030D01*
X023543Y017174D01*
X023471Y017245D01*
X023256Y017245D01*
X023716Y017245D02*
X023931Y017245D01*
X024003Y017174D01*
X024003Y016887D01*
X023931Y016815D01*
X023716Y016815D01*
X023716Y017245D01*
X023543Y018195D02*
X023543Y018625D01*
X023399Y018482D01*
X023256Y018625D01*
X023256Y018195D01*
X023082Y018410D02*
X023011Y018338D01*
X022795Y018338D01*
X022795Y018195D02*
X022795Y018625D01*
X023011Y018625D01*
X023082Y018554D01*
X023082Y018410D01*
X022622Y018410D02*
X022622Y018554D01*
X022550Y018625D01*
X022335Y018625D01*
X022335Y018195D01*
X022335Y018338D02*
X022550Y018338D01*
X022622Y018410D01*
X022478Y018338D02*
X022622Y018195D01*
X022173Y018095D02*
X021886Y018095D01*
X022173Y018382D01*
X022173Y018454D01*
X022101Y018525D01*
X021958Y018525D01*
X021886Y018454D01*
X021569Y018525D02*
X021569Y018095D01*
X021426Y018095D02*
X021712Y018095D01*
X021426Y018382D02*
X021569Y018525D01*
X021022Y018454D02*
X020950Y018525D01*
X020807Y018525D01*
X020735Y018454D01*
X021022Y018454D02*
X021022Y018382D01*
X020735Y018095D01*
X021022Y018095D01*
X021195Y018095D02*
X021267Y018095D01*
X021267Y018167D01*
X021195Y018167D01*
X021195Y018095D01*
X031985Y018055D02*
X032272Y018055D01*
X032128Y018055D02*
X032128Y018485D01*
X031985Y018342D01*
X032445Y018127D02*
X032517Y018127D01*
X032517Y018055D01*
X032445Y018055D01*
X032445Y018127D01*
X032676Y018055D02*
X032962Y018055D01*
X032819Y018055D02*
X032819Y018485D01*
X032676Y018342D01*
X033136Y018414D02*
X033208Y018485D01*
X033351Y018485D01*
X033423Y018414D01*
X033423Y018342D01*
X033136Y018055D01*
X033423Y018055D01*
X034057Y018127D02*
X034128Y018055D01*
X034272Y018055D01*
X034344Y018127D01*
X034344Y018270D01*
X034200Y018270D01*
X034057Y018414D02*
X034057Y018127D01*
X034057Y018414D02*
X034128Y018485D01*
X034272Y018485D01*
X034344Y018414D01*
X034517Y018485D02*
X034804Y018055D01*
X034804Y018485D01*
X034978Y018485D02*
X035193Y018485D01*
X035264Y018414D01*
X035264Y018127D01*
X035193Y018055D01*
X034978Y018055D01*
X034978Y018485D01*
X034517Y018485D02*
X034517Y018055D01*
X033883Y017105D02*
X033596Y016890D01*
X033883Y016675D01*
X033423Y016675D02*
X033136Y016675D01*
X033279Y016675D02*
X033279Y017105D01*
X033136Y016962D01*
X032962Y016675D02*
X032676Y016675D01*
X032819Y016675D02*
X032819Y017105D01*
X032676Y016962D01*
X032517Y016747D02*
X032517Y016675D01*
X032445Y016675D01*
X032445Y016747D01*
X032517Y016747D01*
X032272Y016675D02*
X031985Y016675D01*
X032128Y016675D02*
X032128Y017105D01*
X031985Y016962D01*
X032128Y015725D02*
X032128Y015295D01*
X031985Y015295D02*
X032272Y015295D01*
X032445Y015295D02*
X032517Y015295D01*
X032517Y015367D01*
X032445Y015367D01*
X032445Y015295D01*
X032676Y015295D02*
X032962Y015295D01*
X032819Y015295D02*
X032819Y015725D01*
X032676Y015582D01*
X033136Y015654D02*
X033136Y015367D01*
X033423Y015654D01*
X033423Y015367D01*
X033351Y015295D01*
X033208Y015295D01*
X033136Y015367D01*
X033136Y015654D02*
X033208Y015725D01*
X033351Y015725D01*
X033423Y015654D01*
X033596Y015510D02*
X033883Y015295D01*
X034057Y015295D02*
X034344Y015510D01*
X034057Y015725D01*
X033883Y015725D02*
X033596Y015510D01*
X032128Y015725D02*
X031985Y015582D01*
X032128Y014345D02*
X032128Y013915D01*
X031985Y013915D02*
X032272Y013915D01*
X032445Y013915D02*
X032517Y013915D01*
X032517Y013987D01*
X032445Y013987D01*
X032445Y013915D01*
X032676Y013987D02*
X032747Y013915D01*
X032891Y013915D01*
X032962Y013987D01*
X032962Y014274D01*
X032891Y014345D01*
X032747Y014345D01*
X032676Y014274D01*
X032676Y014202D01*
X032747Y014130D01*
X032962Y014130D01*
X033596Y013915D02*
X033883Y014130D01*
X033596Y014345D01*
X032128Y014345D02*
X031985Y014202D01*
X032128Y012965D02*
X032128Y012535D01*
X031985Y012535D02*
X032272Y012535D01*
X032445Y012535D02*
X032517Y012535D01*
X032517Y012607D01*
X032445Y012607D01*
X032445Y012535D01*
X032676Y012607D02*
X032676Y012678D01*
X032747Y012750D01*
X032891Y012750D01*
X032962Y012678D01*
X032962Y012607D01*
X032891Y012535D01*
X032747Y012535D01*
X032676Y012607D01*
X032747Y012750D02*
X032676Y012822D01*
X032676Y012894D01*
X032747Y012965D01*
X032891Y012965D01*
X032962Y012894D01*
X032962Y012822D01*
X032891Y012750D01*
X032128Y012965D02*
X031985Y012822D01*
X032128Y011585D02*
X032128Y011155D01*
X031985Y011155D02*
X032272Y011155D01*
X032445Y011155D02*
X032517Y011155D01*
X032517Y011227D01*
X032445Y011227D01*
X032445Y011155D01*
X032676Y011155D02*
X032676Y011227D01*
X032962Y011514D01*
X032962Y011585D01*
X032676Y011585D01*
X032128Y011585D02*
X031985Y011442D01*
X032128Y010205D02*
X032128Y009775D01*
X031985Y009775D02*
X032272Y009775D01*
X032445Y009775D02*
X032517Y009775D01*
X032517Y009847D01*
X032445Y009847D01*
X032445Y009775D01*
X032676Y009847D02*
X032676Y009990D01*
X032891Y009990D01*
X032962Y009918D01*
X032962Y009847D01*
X032891Y009775D01*
X032747Y009775D01*
X032676Y009847D01*
X032676Y009990D02*
X032819Y010134D01*
X032962Y010205D01*
X032128Y010205D02*
X031985Y010062D01*
X032128Y008825D02*
X032128Y008395D01*
X031985Y008395D02*
X032272Y008395D01*
X032445Y008395D02*
X032517Y008395D01*
X032517Y008467D01*
X032445Y008467D01*
X032445Y008395D01*
X032676Y008467D02*
X032747Y008395D01*
X032891Y008395D01*
X032962Y008467D01*
X032962Y008610D01*
X032891Y008682D01*
X032819Y008682D01*
X032676Y008610D01*
X032676Y008825D01*
X032962Y008825D01*
X032128Y008825D02*
X031985Y008682D01*
X032128Y007445D02*
X032128Y007015D01*
X031985Y007015D02*
X032272Y007015D01*
X032445Y007015D02*
X032517Y007015D01*
X032517Y007087D01*
X032445Y007087D01*
X032445Y007015D01*
X032676Y007230D02*
X032962Y007230D01*
X032891Y007015D02*
X032891Y007445D01*
X032676Y007230D01*
X032128Y007445D02*
X031985Y007302D01*
X032128Y006065D02*
X032128Y005635D01*
X031985Y005635D02*
X032272Y005635D01*
X032445Y005635D02*
X032517Y005635D01*
X032517Y005707D01*
X032445Y005707D01*
X032445Y005635D01*
X032676Y005707D02*
X032747Y005635D01*
X032891Y005635D01*
X032962Y005707D01*
X032962Y005778D01*
X032891Y005850D01*
X032819Y005850D01*
X032891Y005850D02*
X032962Y005922D01*
X032962Y005994D01*
X032891Y006065D01*
X032747Y006065D01*
X032676Y005994D01*
X032128Y006065D02*
X031985Y005922D01*
X034978Y005994D02*
X034978Y005707D01*
X035049Y005635D01*
X035193Y005635D01*
X035264Y005707D01*
X035264Y005850D01*
X035121Y005850D01*
X034978Y005994D02*
X035049Y006065D01*
X035193Y006065D01*
X035264Y005994D01*
X035378Y005852D02*
X035378Y005780D01*
X035522Y005637D01*
X035581Y005635D02*
X035581Y006065D01*
X035438Y005922D01*
X035438Y005635D02*
X035725Y005635D01*
X035665Y005637D02*
X035378Y005637D01*
X035450Y005463D02*
X035522Y005463D01*
X035522Y005177D01*
X035593Y005177D02*
X035450Y005177D01*
X035378Y005248D01*
X035378Y005392D01*
X035450Y005463D01*
X035665Y005392D02*
X035665Y005248D01*
X035593Y005177D01*
X035593Y005003D02*
X035522Y004931D01*
X035522Y004788D01*
X035450Y004716D01*
X035378Y004788D01*
X035378Y005003D01*
X035593Y005003D02*
X035665Y004931D01*
X035665Y004716D01*
X035665Y004543D02*
X035378Y004543D01*
X035665Y004543D02*
X035665Y004328D01*
X035593Y004256D01*
X035378Y004256D01*
X035737Y004082D02*
X035737Y003795D01*
X035665Y003622D02*
X035522Y003478D01*
X035522Y003550D02*
X035522Y003335D01*
X035665Y003335D02*
X035235Y003335D01*
X035235Y003550D01*
X035306Y003622D01*
X035450Y003622D01*
X035522Y003550D01*
X035064Y003707D02*
X034993Y003635D01*
X034849Y003635D01*
X034778Y003707D01*
X034778Y003994D01*
X034849Y004065D01*
X034993Y004065D01*
X035064Y003994D01*
X034604Y003994D02*
X034532Y004065D01*
X034389Y004065D01*
X034317Y003994D01*
X034317Y003707D01*
X034389Y003635D01*
X034532Y003635D01*
X034604Y003707D01*
X034661Y002715D02*
X034661Y002285D01*
X034344Y002285D02*
X034344Y002572D01*
X034200Y002715D01*
X034057Y002572D01*
X034057Y002285D01*
X033883Y002357D02*
X033812Y002285D01*
X033596Y002285D01*
X033596Y002715D01*
X033812Y002715D01*
X033883Y002644D01*
X033883Y002572D01*
X033812Y002500D01*
X033596Y002500D01*
X033812Y002500D02*
X033883Y002428D01*
X033883Y002357D01*
X034057Y002500D02*
X034344Y002500D01*
X034517Y002715D02*
X034804Y002715D01*
X032962Y002285D02*
X032676Y002285D01*
X032819Y002285D02*
X032819Y002715D01*
X032676Y002572D01*
X032517Y002357D02*
X032517Y002285D01*
X032445Y002285D01*
X032445Y002357D01*
X032517Y002357D01*
X032272Y002285D02*
X031985Y002285D01*
X032128Y002285D02*
X032128Y002715D01*
X031985Y002572D01*
X031928Y003635D02*
X031928Y004065D01*
X031785Y003922D01*
X031785Y003635D02*
X032072Y003635D01*
X032245Y003635D02*
X032245Y003707D01*
X032317Y003707D01*
X032317Y003635D01*
X032245Y003635D01*
X032476Y003635D02*
X032762Y003922D01*
X032762Y003994D01*
X032691Y004065D01*
X032547Y004065D01*
X032476Y003994D01*
X032476Y003635D02*
X032762Y003635D01*
X035049Y007015D02*
X035193Y007015D01*
X035264Y007087D01*
X035264Y007230D01*
X035121Y007230D01*
X034978Y007087D02*
X035049Y007015D01*
X034978Y007087D02*
X034978Y007374D01*
X035049Y007445D01*
X035193Y007445D01*
X035264Y007374D01*
X035438Y007374D02*
X035510Y007445D01*
X035653Y007445D01*
X035725Y007374D01*
X035725Y007302D01*
X035438Y007015D01*
X035725Y007015D01*
X035653Y008395D02*
X035510Y008395D01*
X035438Y008467D01*
X035264Y008467D02*
X035264Y008610D01*
X035121Y008610D01*
X034978Y008754D02*
X034978Y008467D01*
X035049Y008395D01*
X035193Y008395D01*
X035264Y008467D01*
X035264Y008754D02*
X035193Y008825D01*
X035049Y008825D01*
X034978Y008754D01*
X035438Y008754D02*
X035510Y008825D01*
X035653Y008825D01*
X035725Y008754D01*
X035725Y008682D01*
X035653Y008610D01*
X035725Y008538D01*
X035725Y008467D01*
X035653Y008395D01*
X035653Y008610D02*
X035581Y008610D01*
X035264Y009703D02*
X034978Y009703D01*
X035438Y009847D02*
X035510Y009775D01*
X035653Y009775D01*
X035725Y009847D01*
X035725Y009990D01*
X035581Y009990D01*
X035438Y010134D02*
X035438Y009847D01*
X035898Y009990D02*
X036185Y009990D01*
X036114Y009775D02*
X036114Y010205D01*
X035898Y009990D01*
X035725Y010134D02*
X035653Y010205D01*
X035510Y010205D01*
X035438Y010134D01*
X035510Y011155D02*
X035653Y011155D01*
X035725Y011227D01*
X035725Y011370D01*
X035581Y011370D01*
X035438Y011227D02*
X035510Y011155D01*
X035438Y011227D02*
X035438Y011514D01*
X035510Y011585D01*
X035653Y011585D01*
X035725Y011514D01*
X035898Y011585D02*
X035898Y011370D01*
X036042Y011442D01*
X036114Y011442D01*
X036185Y011370D01*
X036185Y011227D01*
X036114Y011155D01*
X035970Y011155D01*
X035898Y011227D01*
X035898Y011585D02*
X036185Y011585D01*
X035725Y012535D02*
X035725Y012965D01*
X035438Y012965D02*
X035725Y012535D01*
X035438Y012535D02*
X035438Y012965D01*
X021641Y007485D02*
X021641Y007055D01*
X021712Y007270D02*
X021426Y007270D01*
X021641Y007485D01*
X021267Y007127D02*
X021267Y007055D01*
X021195Y007055D01*
X021195Y007127D01*
X021267Y007127D01*
X021022Y007055D02*
X020735Y007055D01*
X021022Y007342D01*
X021022Y007414D01*
X020950Y007485D01*
X020807Y007485D01*
X020735Y007414D01*
X020393Y007384D02*
X020393Y007240D01*
X020321Y007168D01*
X020106Y007168D01*
X020106Y007025D02*
X020106Y007455D01*
X020321Y007455D01*
X020393Y007384D01*
X019932Y007455D02*
X019932Y007025D01*
X019645Y007025D02*
X019645Y007455D01*
X019789Y007312D01*
X019932Y007455D01*
X019472Y007455D02*
X019185Y007455D01*
X019328Y007455D02*
X019328Y007025D01*
X019169Y006882D02*
X019241Y006810D01*
X019241Y006595D01*
X018954Y006595D02*
X018954Y006882D01*
X019169Y006882D01*
X018719Y006882D02*
X018719Y006595D01*
X018647Y006595D02*
X018791Y006595D01*
X018474Y006667D02*
X018474Y006954D01*
X018402Y007025D01*
X018187Y007025D01*
X018187Y006595D01*
X018402Y006595D01*
X018474Y006667D01*
X018647Y006882D02*
X018719Y006882D01*
X018719Y007025D02*
X018719Y007097D01*
X018013Y006954D02*
X018013Y006810D01*
X017942Y006738D01*
X017727Y006738D01*
X017727Y006595D02*
X017727Y007025D01*
X017942Y007025D01*
X018013Y006954D01*
X017553Y006954D02*
X017481Y007025D01*
X017338Y007025D01*
X017266Y006954D01*
X017266Y006882D01*
X017338Y006810D01*
X017481Y006810D01*
X017553Y006738D01*
X017553Y006667D01*
X017481Y006595D01*
X017338Y006595D01*
X017266Y006667D01*
X016632Y006595D02*
X016345Y006595D01*
X016489Y006595D02*
X016489Y007025D01*
X016345Y006882D01*
X016172Y006882D02*
X016172Y006954D01*
X016100Y007025D01*
X015957Y007025D01*
X015885Y006954D01*
X016172Y006882D02*
X015885Y006595D01*
X016172Y006595D01*
X016100Y005460D02*
X015957Y005460D01*
X015885Y005389D01*
X016100Y005460D02*
X016172Y005389D01*
X016172Y005317D01*
X015885Y005030D01*
X016172Y005030D01*
X016345Y005030D02*
X016632Y005317D01*
X016632Y005389D01*
X016561Y005460D01*
X016417Y005460D01*
X016345Y005389D01*
X016345Y005030D02*
X016632Y005030D01*
X017266Y005102D02*
X017338Y005030D01*
X017481Y005030D01*
X017553Y005102D01*
X017553Y005173D01*
X017481Y005245D01*
X017338Y005245D01*
X017266Y005317D01*
X017266Y005389D01*
X017338Y005460D01*
X017481Y005460D01*
X017553Y005389D01*
X017727Y005460D02*
X017942Y005460D01*
X018013Y005389D01*
X018013Y005245D01*
X017942Y005173D01*
X017727Y005173D01*
X017727Y005030D02*
X017727Y005460D01*
X018187Y005460D02*
X018402Y005460D01*
X018474Y005389D01*
X018474Y005102D01*
X018402Y005030D01*
X018187Y005030D01*
X018187Y005460D01*
X018647Y005245D02*
X018647Y005102D01*
X018719Y005030D01*
X018863Y005030D01*
X018934Y005102D01*
X018934Y005245D01*
X018863Y005317D01*
X018719Y005317D01*
X018647Y005245D01*
X019108Y005317D02*
X019108Y005102D01*
X019179Y005030D01*
X019395Y005030D01*
X019395Y005317D01*
X019568Y005317D02*
X019712Y005317D01*
X019640Y005389D02*
X019640Y005102D01*
X019712Y005030D01*
X019645Y004695D02*
X019645Y004265D01*
X019472Y004337D02*
X019400Y004265D01*
X019257Y004265D01*
X019185Y004337D01*
X019185Y004624D01*
X019257Y004695D01*
X019400Y004695D01*
X019472Y004624D01*
X019645Y004480D02*
X019932Y004480D01*
X020106Y004408D02*
X020393Y004695D01*
X020106Y004695D02*
X020106Y004265D01*
X019932Y004265D02*
X019932Y004695D01*
X020178Y004480D02*
X020393Y004265D01*
X020735Y004295D02*
X021022Y004582D01*
X021022Y004654D01*
X020950Y004725D01*
X020807Y004725D01*
X020735Y004654D01*
X021195Y004367D02*
X021267Y004367D01*
X021267Y004295D01*
X021195Y004295D01*
X021195Y004367D01*
X021022Y004295D02*
X020735Y004295D01*
X021426Y004295D02*
X021712Y004582D01*
X021712Y004654D01*
X021641Y004725D01*
X021497Y004725D01*
X021426Y004654D01*
X021426Y004295D02*
X021712Y004295D01*
X021569Y003345D02*
X021569Y002915D01*
X021426Y002915D02*
X021712Y002915D01*
X021426Y003202D02*
X021569Y003345D01*
X021022Y003274D02*
X021022Y003202D01*
X020735Y002915D01*
X021022Y002915D01*
X021195Y002915D02*
X021267Y002915D01*
X021267Y002987D01*
X021195Y002987D01*
X021195Y002915D01*
X021022Y003274D02*
X020950Y003345D01*
X020807Y003345D01*
X020735Y003274D01*
X020393Y003244D02*
X020393Y003100D01*
X020321Y003028D01*
X020106Y003028D01*
X020106Y002885D02*
X020106Y003315D01*
X020321Y003315D01*
X020393Y003244D01*
X019932Y003315D02*
X019932Y002885D01*
X019789Y003028D01*
X019645Y002885D01*
X019645Y003315D01*
X019472Y003244D02*
X019400Y003315D01*
X019257Y003315D01*
X019185Y003244D01*
X019185Y003172D01*
X019257Y003100D01*
X019400Y003100D01*
X019472Y003028D01*
X019472Y002957D01*
X019400Y002885D01*
X019257Y002885D01*
X019185Y002957D01*
X016632Y003537D02*
X016561Y003465D01*
X016417Y003465D01*
X016345Y003537D01*
X016172Y003465D02*
X015885Y003465D01*
X016172Y003752D01*
X016172Y003824D01*
X016100Y003895D01*
X015957Y003895D01*
X015885Y003824D01*
X016345Y003824D02*
X016417Y003895D01*
X016561Y003895D01*
X016632Y003824D01*
X016632Y003752D01*
X016561Y003680D01*
X016632Y003608D01*
X016632Y003537D01*
X016561Y003680D02*
X016489Y003680D01*
X016561Y002330D02*
X016345Y002115D01*
X016632Y002115D01*
X016561Y001900D02*
X016561Y002330D01*
X016172Y002259D02*
X016100Y002330D01*
X015957Y002330D01*
X015885Y002259D01*
X016172Y002259D02*
X016172Y002187D01*
X015885Y001900D01*
X016172Y001900D01*
X019257Y005645D02*
X019400Y005645D01*
X019472Y005717D01*
X019472Y006004D01*
X019400Y006075D01*
X019257Y006075D01*
X019185Y006004D01*
X019185Y005717D01*
X019257Y005645D01*
X019645Y005645D02*
X019789Y005645D01*
X019717Y005645D02*
X019717Y006075D01*
X019645Y006075D02*
X019789Y006075D01*
X019952Y006075D02*
X019952Y005645D01*
X020239Y005645D01*
X020735Y005675D02*
X021022Y005962D01*
X021022Y006034D01*
X020950Y006105D01*
X020807Y006105D01*
X020735Y006034D01*
X020735Y005675D02*
X021022Y005675D01*
X021195Y005675D02*
X021267Y005675D01*
X021267Y005747D01*
X021195Y005747D01*
X021195Y005675D01*
X021426Y005747D02*
X021497Y005675D01*
X021641Y005675D01*
X021712Y005747D01*
X021712Y005818D01*
X021641Y005890D01*
X021569Y005890D01*
X021641Y005890D02*
X021712Y005962D01*
X021712Y006034D01*
X021641Y006105D01*
X021497Y006105D01*
X021426Y006034D01*
X019472Y008405D02*
X019472Y008692D01*
X019328Y008835D01*
X019185Y008692D01*
X019185Y008405D01*
X019185Y008620D02*
X019472Y008620D01*
D13*
X022200Y010000D02*
X022450Y009750D01*
X023150Y009750D01*
X023400Y010000D01*
X023750Y010000D01*
X023750Y010050D02*
X025850Y010050D01*
X023750Y011400D02*
X023650Y011400D01*
X023550Y012700D02*
X025950Y012700D01*
X029750Y011350D02*
X030300Y011350D01*
X031450Y011350D02*
X031750Y011350D01*
X031800Y008600D02*
X029850Y008600D01*
X025900Y007200D02*
X023550Y007200D01*
X023700Y004500D02*
X025850Y004500D01*
X023950Y002900D02*
X023400Y002900D01*
X017000Y002200D02*
X017002Y002270D01*
X017008Y002340D01*
X017018Y002409D01*
X017031Y002478D01*
X017049Y002546D01*
X017070Y002613D01*
X017095Y002678D01*
X017124Y002742D01*
X017156Y002805D01*
X017192Y002865D01*
X017231Y002923D01*
X017273Y002979D01*
X017318Y003033D01*
X017366Y003084D01*
X017417Y003132D01*
X017471Y003177D01*
X017527Y003219D01*
X017585Y003258D01*
X017645Y003294D01*
X017708Y003326D01*
X017772Y003355D01*
X017837Y003380D01*
X017904Y003401D01*
X017972Y003419D01*
X018041Y003432D01*
X018110Y003442D01*
X018180Y003448D01*
X018250Y003450D01*
X018320Y003448D01*
X018390Y003442D01*
X018459Y003432D01*
X018528Y003419D01*
X018596Y003401D01*
X018663Y003380D01*
X018728Y003355D01*
X018792Y003326D01*
X018855Y003294D01*
X018915Y003258D01*
X018973Y003219D01*
X019029Y003177D01*
X019083Y003132D01*
X019134Y003084D01*
X019182Y003033D01*
X019227Y002979D01*
X019269Y002923D01*
X019308Y002865D01*
X019344Y002805D01*
X019376Y002742D01*
X019405Y002678D01*
X019430Y002613D01*
X019451Y002546D01*
X019469Y002478D01*
X019482Y002409D01*
X019492Y002340D01*
X019498Y002270D01*
X019500Y002200D01*
X019498Y002130D01*
X019492Y002060D01*
X019482Y001991D01*
X019469Y001922D01*
X019451Y001854D01*
X019430Y001787D01*
X019405Y001722D01*
X019376Y001658D01*
X019344Y001595D01*
X019308Y001535D01*
X019269Y001477D01*
X019227Y001421D01*
X019182Y001367D01*
X019134Y001316D01*
X019083Y001268D01*
X019029Y001223D01*
X018973Y001181D01*
X018915Y001142D01*
X018855Y001106D01*
X018792Y001074D01*
X018728Y001045D01*
X018663Y001020D01*
X018596Y000999D01*
X018528Y000981D01*
X018459Y000968D01*
X018390Y000958D01*
X018320Y000952D01*
X018250Y000950D01*
X018180Y000952D01*
X018110Y000958D01*
X018041Y000968D01*
X017972Y000981D01*
X017904Y000999D01*
X017837Y001020D01*
X017772Y001045D01*
X017708Y001074D01*
X017645Y001106D01*
X017585Y001142D01*
X017527Y001181D01*
X017471Y001223D01*
X017417Y001268D01*
X017366Y001316D01*
X017318Y001367D01*
X017273Y001421D01*
X017231Y001477D01*
X017192Y001535D01*
X017156Y001595D01*
X017124Y001658D01*
X017095Y001722D01*
X017070Y001787D01*
X017049Y001854D01*
X017031Y001922D01*
X017018Y001991D01*
X017008Y002060D01*
X017002Y002130D01*
X017000Y002200D01*
X015700Y002150D02*
X015000Y002150D01*
X015000Y003650D02*
X015700Y003650D01*
X016650Y003450D02*
X017150Y003450D01*
X016850Y003500D02*
X016850Y003900D01*
X015700Y005250D02*
X015050Y005250D01*
X014950Y006800D02*
X015650Y006800D01*
X015700Y010150D02*
X015100Y010150D01*
X016600Y011250D02*
X017100Y011250D01*
X016850Y011300D02*
X016850Y011700D01*
X015700Y011600D02*
X014950Y011600D01*
X015000Y013050D02*
X015700Y013050D01*
X015200Y014550D02*
X015750Y014850D01*
X015650Y016050D02*
X015000Y016050D01*
X015050Y017700D02*
X015600Y017700D01*
X015650Y019300D02*
X015050Y019300D01*
X015000Y019250D01*
X023750Y018250D02*
X025900Y018250D01*
X029800Y016850D02*
X031750Y016850D01*
X033739Y014326D02*
X033739Y013933D01*
X033593Y014130D01*
X033739Y014326D01*
X033593Y014130D02*
X034027Y014130D01*
X031750Y014100D02*
X031200Y014100D01*
X030500Y014050D02*
X029800Y014050D01*
X023750Y015450D02*
X023550Y015450D01*
X021150Y013650D02*
X019400Y012850D01*
X030100Y005850D02*
X031800Y005850D01*
X031800Y004450D02*
X032100Y004450D01*
X032300Y004200D01*
X032050Y003100D02*
X031600Y003100D01*
X032050Y003100D02*
X032400Y002750D01*
X004250Y005200D02*
X003300Y005200D01*
X003000Y006750D02*
X004200Y006750D01*
X004200Y008250D02*
X003000Y008250D01*
X003000Y010100D02*
X004200Y010100D01*
X003150Y013350D02*
X002400Y013350D01*
X002850Y014550D02*
X004050Y014550D01*
X004100Y016100D02*
X002900Y016100D01*
X002950Y017700D02*
X004150Y017700D01*
X002150Y002400D02*
X001800Y002400D01*
D14*
X017550Y002450D02*
X017550Y002050D01*
X017650Y001950D01*
X017850Y001950D01*
X017950Y002050D01*
X017950Y002450D01*
X017850Y002551D01*
X017650Y002551D01*
X017550Y002450D01*
X017750Y002150D02*
X017950Y001950D01*
X018195Y002050D02*
X018295Y001950D01*
X018495Y001950D01*
X018595Y002050D01*
X018195Y002050D02*
X018195Y002450D01*
X018295Y002551D01*
X018495Y002551D01*
X018595Y002450D01*
X022350Y013450D02*
X022350Y013550D01*
X022350Y013600D02*
X022350Y014350D01*
X022100Y014350D02*
X022100Y014850D01*
X022150Y014850D02*
X022450Y014850D01*
X022450Y015350D01*
X022750Y015350D01*
X022750Y014850D01*
X023050Y014850D01*
X023100Y014850D02*
X023100Y014350D01*
X022850Y014350D01*
X022100Y014350D01*
X022850Y014350D02*
X022850Y013850D01*
D15*
X019793Y012154D02*
X019686Y012154D01*
X019739Y012207D02*
X019739Y011993D01*
X019793Y011940D01*
X019577Y011993D02*
X019524Y012047D01*
X019417Y012047D01*
X019363Y012100D01*
X019417Y012154D01*
X019577Y012154D01*
X019577Y011993D02*
X019524Y011940D01*
X019363Y011940D01*
X019255Y012047D02*
X019041Y012047D01*
X019041Y012100D02*
X019095Y012154D01*
X019201Y012154D01*
X019255Y012100D01*
X019255Y012047D01*
X019201Y011940D02*
X019095Y011940D01*
X019041Y011993D01*
X019041Y012100D01*
X018932Y012260D02*
X018719Y012260D01*
X018826Y012260D02*
X018826Y011940D01*
X018826Y011735D02*
X019040Y011415D01*
X019040Y011735D01*
X018826Y011735D02*
X018826Y011415D01*
X018718Y011415D02*
X018611Y011522D01*
X018664Y011522D02*
X018504Y011522D01*
X018504Y011415D02*
X018504Y011735D01*
X018664Y011735D01*
X018718Y011682D01*
X018718Y011575D01*
X018664Y011522D01*
X018395Y011415D02*
X018395Y011735D01*
X018182Y011735D02*
X018182Y011415D01*
X018289Y011522D01*
X018395Y011415D01*
X018235Y011940D02*
X018288Y011993D01*
X018288Y012100D01*
X018235Y012154D01*
X018074Y012154D01*
X018074Y012260D02*
X018074Y011940D01*
X018235Y011940D01*
X017966Y011940D02*
X017860Y011940D01*
X017913Y011940D02*
X017913Y012260D01*
X017860Y012260D01*
X017751Y012154D02*
X017751Y011940D01*
X017591Y011940D01*
X017537Y011993D01*
X017537Y012154D01*
X017429Y012154D02*
X017375Y012100D01*
X017215Y012100D01*
X017215Y011940D02*
X017375Y011940D01*
X017429Y011993D01*
X017429Y012047D01*
X017375Y012100D01*
X017429Y012154D02*
X017429Y012207D01*
X017375Y012260D01*
X017215Y012260D01*
X017215Y011940D01*
X017268Y011629D02*
X017215Y011575D01*
X017215Y011468D01*
X017268Y011415D01*
X017375Y011415D01*
X017429Y011468D01*
X017429Y011575D01*
X017375Y011629D01*
X017268Y011629D01*
X017537Y011629D02*
X017697Y011629D01*
X017751Y011575D01*
X017751Y011415D01*
X017537Y011415D02*
X017537Y011629D01*
X017537Y012465D02*
X017644Y012465D01*
X017591Y012465D02*
X017591Y012679D01*
X017537Y012679D01*
X017429Y012679D02*
X017268Y012679D01*
X017215Y012625D01*
X017215Y012518D01*
X017268Y012465D01*
X017429Y012465D01*
X017429Y012785D01*
X017591Y012785D02*
X017591Y012839D01*
X017752Y012625D02*
X017806Y012679D01*
X017966Y012679D01*
X017912Y012572D02*
X017966Y012518D01*
X017912Y012465D01*
X017752Y012465D01*
X017806Y012572D02*
X017752Y012625D01*
X017806Y012572D02*
X017912Y012572D01*
X018074Y012518D02*
X018128Y012465D01*
X018288Y012465D01*
X018288Y012625D01*
X018235Y012679D01*
X018128Y012679D01*
X018128Y012572D02*
X018288Y012572D01*
X018397Y012679D02*
X018557Y012679D01*
X018610Y012625D01*
X018610Y012518D01*
X018557Y012465D01*
X018397Y012465D01*
X018397Y012785D01*
X018719Y012785D02*
X018772Y012785D01*
X018772Y012465D01*
X018719Y012465D02*
X018826Y012465D01*
X018934Y012518D02*
X018987Y012465D01*
X019094Y012465D01*
X019147Y012572D02*
X018934Y012572D01*
X018934Y012625D02*
X018987Y012679D01*
X019094Y012679D01*
X019147Y012625D01*
X019147Y012572D01*
X018934Y012518D02*
X018934Y012625D01*
X018128Y012572D02*
X018074Y012518D01*
X002657Y012979D02*
X002603Y012979D01*
X002496Y012872D01*
X002496Y012765D02*
X002496Y012979D01*
X002388Y012925D02*
X002334Y012979D01*
X002228Y012979D01*
X002174Y012925D01*
X002174Y012818D01*
X002228Y012765D01*
X002334Y012765D01*
X002388Y012818D01*
X002388Y012925D01*
X002066Y012979D02*
X001959Y012979D01*
X002013Y013032D02*
X002013Y012818D01*
X002066Y012765D01*
X001851Y012818D02*
X001797Y012872D01*
X001690Y012872D01*
X001637Y012925D01*
X001690Y012979D01*
X001851Y012979D01*
X001851Y012818D02*
X001797Y012765D01*
X001637Y012765D01*
X001529Y012765D02*
X001422Y012765D01*
X001476Y012765D02*
X001476Y012979D01*
X001422Y012979D01*
X001313Y012979D02*
X001153Y012979D01*
X001100Y012925D01*
X001153Y012872D01*
X001260Y012872D01*
X001313Y012818D01*
X001260Y012765D01*
X001100Y012765D01*
X000991Y012872D02*
X000991Y012925D01*
X000938Y012979D01*
X000831Y012979D01*
X000778Y012925D01*
X000778Y012818D01*
X000831Y012765D01*
X000938Y012765D01*
X000991Y012872D02*
X000778Y012872D01*
X000669Y012925D02*
X000615Y012872D01*
X000455Y012872D01*
X000455Y012765D02*
X000455Y013085D01*
X000615Y013085D01*
X000669Y013032D01*
X000669Y012925D01*
X000562Y012872D02*
X000669Y012765D01*
X000615Y013290D02*
X000455Y013290D01*
X000455Y013610D01*
X000615Y013610D01*
X000669Y013557D01*
X000669Y013504D01*
X000615Y013450D01*
X000455Y013450D01*
X000615Y013450D02*
X000669Y013397D01*
X000669Y013343D01*
X000615Y013290D01*
X000778Y013290D02*
X000991Y013290D01*
X000778Y013290D02*
X000778Y013610D01*
X000778Y013815D02*
X000884Y013815D01*
X000831Y013815D02*
X000831Y014029D01*
X000778Y014029D01*
X000669Y014029D02*
X000509Y014029D01*
X000455Y013975D01*
X000455Y013868D01*
X000509Y013815D01*
X000669Y013815D01*
X000669Y014135D01*
X000831Y014135D02*
X000831Y014189D01*
X000992Y013975D02*
X001046Y014029D01*
X001206Y014029D01*
X001153Y013922D02*
X001046Y013922D01*
X000992Y013975D01*
X000992Y013815D02*
X001153Y013815D01*
X001206Y013868D01*
X001153Y013922D01*
X001315Y013868D02*
X001368Y013922D01*
X001528Y013922D01*
X001528Y013975D02*
X001528Y013815D01*
X001368Y013815D01*
X001315Y013868D01*
X001368Y014029D02*
X001475Y014029D01*
X001528Y013975D01*
X001637Y014029D02*
X001797Y014029D01*
X001851Y013975D01*
X001851Y013868D01*
X001797Y013815D01*
X001637Y013815D01*
X001637Y014135D01*
X001959Y014135D02*
X002013Y014135D01*
X002013Y013815D01*
X002066Y013815D02*
X001959Y013815D01*
X002174Y013868D02*
X002174Y013975D01*
X002228Y014029D01*
X002334Y014029D01*
X002388Y013975D01*
X002388Y013922D01*
X002174Y013922D01*
X002174Y013868D02*
X002228Y013815D01*
X002334Y013815D01*
X001476Y013139D02*
X001476Y013085D01*
X002585Y002889D02*
X002585Y002835D01*
X002585Y002729D02*
X002531Y002729D01*
X002585Y002729D02*
X002585Y002515D01*
X002638Y002515D02*
X002531Y002515D01*
X002423Y002515D02*
X002262Y002515D01*
X002209Y002568D01*
X002209Y002675D01*
X002262Y002729D01*
X002423Y002729D01*
X002423Y002835D02*
X002423Y002515D01*
X002369Y002310D02*
X002262Y002310D01*
X002209Y002257D01*
X002209Y002043D01*
X002262Y001990D01*
X002369Y001990D01*
X002423Y002043D01*
X002531Y001990D02*
X002531Y002310D01*
X002585Y002204D02*
X002531Y002150D01*
X002585Y002204D02*
X002691Y002204D01*
X002745Y002150D01*
X002745Y001990D01*
X002854Y002043D02*
X002907Y001990D01*
X003014Y001990D01*
X003067Y002043D01*
X003067Y002150D01*
X003014Y002204D01*
X002907Y002204D01*
X002854Y002150D01*
X002854Y002043D01*
X003176Y001990D02*
X003176Y002310D01*
X003336Y002204D02*
X003176Y002097D01*
X003336Y001990D01*
X003444Y002043D02*
X003444Y002150D01*
X003498Y002204D01*
X003605Y002204D01*
X003658Y002150D01*
X003658Y002097D01*
X003444Y002097D01*
X003444Y002043D02*
X003498Y001990D01*
X003605Y001990D01*
X003658Y001785D02*
X003712Y001732D01*
X003712Y001625D01*
X003658Y001572D01*
X003498Y001572D01*
X003605Y001572D02*
X003712Y001465D01*
X003820Y001465D02*
X003820Y001785D01*
X004034Y001465D01*
X004034Y001785D01*
X003658Y001785D02*
X003498Y001785D01*
X003498Y001465D01*
X003389Y001465D02*
X003389Y001785D01*
X003176Y001785D02*
X003176Y001465D01*
X003283Y001572D01*
X003389Y001465D01*
X002745Y001465D02*
X002745Y001625D01*
X002691Y001679D01*
X002531Y001679D01*
X002531Y001465D01*
X002423Y001518D02*
X002369Y001465D01*
X002262Y001465D01*
X002209Y001518D01*
X002209Y001625D01*
X002262Y001679D01*
X002369Y001679D01*
X002423Y001625D01*
X002423Y001518D01*
X002423Y002257D02*
X002369Y002310D01*
X002746Y002515D02*
X002906Y002515D01*
X002960Y002568D01*
X002906Y002622D01*
X002800Y002622D01*
X002746Y002675D01*
X002800Y002729D01*
X002960Y002729D01*
X003122Y002729D02*
X003229Y002729D01*
X003282Y002675D01*
X003282Y002515D01*
X003122Y002515D01*
X003068Y002568D01*
X003122Y002622D01*
X003282Y002622D01*
X003391Y002729D02*
X003551Y002729D01*
X003604Y002675D01*
X003604Y002568D01*
X003551Y002515D01*
X003391Y002515D01*
X003391Y002835D01*
X003713Y002835D02*
X003766Y002835D01*
X003766Y002515D01*
X003713Y002515D02*
X003820Y002515D01*
X003928Y002568D02*
X003928Y002675D01*
X003981Y002729D01*
X004088Y002729D01*
X004141Y002675D01*
X004141Y002622D01*
X003928Y002622D01*
X003928Y002568D02*
X003981Y002515D01*
X004088Y002515D01*
X034280Y013313D02*
X034280Y013498D01*
X034342Y013619D02*
X034280Y013681D01*
X034280Y013804D01*
X034342Y013866D01*
X034404Y013866D01*
X034404Y013619D01*
X034465Y013619D02*
X034342Y013619D01*
X034465Y013619D02*
X034527Y013681D01*
X034527Y013804D01*
X034465Y014049D02*
X034219Y014049D01*
X034280Y013987D02*
X034280Y014111D01*
X034465Y014049D02*
X034527Y014111D01*
X034819Y014049D02*
X035065Y014049D01*
X035127Y014111D01*
X035065Y014233D02*
X035127Y014295D01*
X035127Y014418D01*
X035065Y014480D01*
X034942Y014480D01*
X034880Y014418D01*
X034880Y014295D01*
X034942Y014233D01*
X035065Y014233D01*
X034880Y014111D02*
X034880Y013987D01*
X034942Y013866D02*
X034880Y013804D01*
X034880Y013681D01*
X034942Y013619D01*
X035065Y013619D01*
X035127Y013681D01*
X035127Y013804D01*
X035065Y013866D01*
X034942Y013866D01*
X035480Y013866D02*
X035727Y013866D01*
X035727Y013681D01*
X035665Y013619D01*
X035480Y013619D01*
X035480Y013498D02*
X035480Y013313D01*
X035542Y013251D01*
X035604Y013313D01*
X035604Y013436D01*
X035665Y013498D01*
X035727Y013436D01*
X035727Y013251D01*
X035127Y013251D02*
X034880Y013251D01*
X034880Y013313D01*
X034942Y013374D01*
X034880Y013436D01*
X034942Y013498D01*
X035127Y013498D01*
X035127Y013374D02*
X034942Y013374D01*
X034527Y013436D02*
X034527Y013251D01*
X034404Y013313D02*
X034404Y013436D01*
X034465Y013498D01*
X034527Y013436D01*
X034404Y013313D02*
X034342Y013251D01*
X034280Y013313D01*
X035480Y013987D02*
X035480Y014173D01*
X035542Y014234D01*
X035665Y014234D01*
X035727Y014173D01*
X035727Y013987D01*
X035851Y013987D02*
X035480Y013987D01*
X035480Y014356D02*
X035480Y014541D01*
X035542Y014603D01*
X035665Y014603D01*
X035727Y014541D01*
X035727Y014356D01*
X035851Y014356D02*
X035480Y014356D01*
X035127Y014601D02*
X035127Y014786D01*
X035065Y014848D01*
X035004Y014786D01*
X035004Y014663D01*
X034942Y014601D01*
X034880Y014663D01*
X034880Y014848D01*
X034942Y014970D02*
X035065Y014970D01*
X035127Y015031D01*
X035127Y015217D01*
X035065Y015338D02*
X035127Y015400D01*
X035127Y015523D01*
X035065Y015585D01*
X034942Y015585D01*
X034880Y015523D01*
X034880Y015400D01*
X034942Y015338D01*
X035065Y015338D01*
X034880Y015217D02*
X034880Y015031D01*
X034942Y014970D01*
X034527Y014909D02*
X034527Y015094D01*
X034280Y015094D01*
X034280Y015215D02*
X034280Y015277D01*
X034342Y015339D01*
X034280Y015400D01*
X034342Y015462D01*
X034527Y015462D01*
X034527Y015583D02*
X034527Y015769D01*
X034465Y015830D01*
X034342Y015830D01*
X034280Y015769D01*
X034280Y015583D01*
X034651Y015583D01*
X034880Y015706D02*
X034880Y015891D01*
X034942Y015953D01*
X035065Y015953D01*
X035127Y015891D01*
X035127Y015706D01*
X035251Y015706D02*
X034880Y015706D01*
X034942Y016075D02*
X034880Y016136D01*
X034880Y016260D01*
X034942Y016321D01*
X035004Y016321D01*
X035004Y016075D01*
X035065Y016075D02*
X034942Y016075D01*
X035065Y016075D02*
X035127Y016136D01*
X035127Y016260D01*
X034527Y016320D02*
X034280Y016320D01*
X034404Y016320D02*
X034280Y016444D01*
X034280Y016505D01*
X034342Y016199D02*
X034404Y016199D01*
X034404Y015952D01*
X034465Y015952D02*
X034342Y015952D01*
X034280Y016014D01*
X034280Y016137D01*
X034342Y016199D01*
X034527Y016137D02*
X034527Y016014D01*
X034465Y015952D01*
X035480Y015523D02*
X035480Y015399D01*
X035419Y015461D02*
X035665Y015461D01*
X035727Y015523D01*
X035480Y015278D02*
X035480Y015216D01*
X035604Y015092D01*
X035727Y015092D02*
X035480Y015092D01*
X035542Y014971D02*
X035480Y014909D01*
X035480Y014786D01*
X035542Y014724D01*
X035665Y014724D01*
X035727Y014786D01*
X035727Y014909D01*
X035665Y014971D01*
X035542Y014971D01*
X034651Y014663D02*
X034651Y014601D01*
X034651Y014663D02*
X034589Y014725D01*
X034280Y014725D01*
X034280Y014847D02*
X034465Y014847D01*
X034527Y014909D01*
X034527Y015215D02*
X034280Y015215D01*
X034342Y015339D02*
X034527Y015339D01*
X034157Y014725D02*
X034095Y014725D01*
X034880Y016811D02*
X034880Y016935D01*
X034819Y016873D02*
X035065Y016873D01*
X035127Y016935D01*
X035127Y017057D02*
X035127Y017180D01*
X035127Y017118D02*
X034880Y017118D01*
X034880Y017057D01*
X034757Y017118D02*
X034695Y017118D01*
X034527Y017057D02*
X034219Y017057D01*
X034157Y017119D01*
X034342Y017119D02*
X034342Y016995D01*
X034342Y017241D02*
X034465Y017241D01*
X034527Y017303D01*
X034527Y017426D01*
X034465Y017488D01*
X034342Y017488D01*
X034280Y017426D01*
X034280Y017303D01*
X034342Y017241D01*
X034404Y017609D02*
X034280Y017733D01*
X034280Y017794D01*
X034280Y017609D02*
X034527Y017609D01*
X034880Y017671D02*
X035065Y017671D01*
X035127Y017732D01*
X035127Y017917D01*
X035189Y017917D02*
X034880Y017917D01*
X035189Y017917D02*
X035251Y017856D01*
X035251Y017794D01*
X035127Y017549D02*
X034942Y017549D01*
X034880Y017487D01*
X034880Y017302D01*
X035127Y017302D01*
D16*
X016517Y015530D02*
X016517Y015070D01*
X016210Y015070D02*
X016210Y015530D01*
X016363Y015377D01*
X016517Y015530D01*
X016056Y015454D02*
X016056Y015300D01*
X015979Y015223D01*
X015749Y015223D01*
X015749Y015070D02*
X015749Y015530D01*
X015979Y015530D01*
X016056Y015454D01*
X015596Y015454D02*
X015519Y015530D01*
X015289Y015530D01*
X015289Y015070D01*
X015289Y015223D02*
X015519Y015223D01*
X015596Y015300D01*
X015596Y015454D01*
X015442Y015223D02*
X015596Y015070D01*
X005017Y001330D02*
X004710Y001023D01*
X004786Y001100D02*
X005017Y000870D01*
X004710Y000870D02*
X004710Y001330D01*
X004556Y001330D02*
X004556Y000870D01*
X004556Y001100D02*
X004249Y001100D01*
X004096Y000947D02*
X004019Y000870D01*
X003866Y000870D01*
X003789Y000947D01*
X003789Y001254D01*
X003866Y001330D01*
X004019Y001330D01*
X004096Y001254D01*
X004249Y001330D02*
X004249Y000870D01*
D17*
X016300Y014817D02*
X016300Y018067D01*
X019900Y018067D01*
X019900Y014817D01*
X016300Y014817D01*
D18*
X023425Y012744D03*
X023425Y011366D03*
X023425Y008610D03*
X023425Y007232D03*
X023425Y005854D03*
X023425Y004476D03*
D19*
X032360Y006089D02*
X034940Y006089D01*
X034940Y007411D01*
X032360Y007411D01*
X032360Y006089D01*
X032960Y010489D02*
X032960Y011811D01*
X035540Y011811D01*
X035540Y010489D01*
X032960Y010489D01*
D20*
X010783Y002881D03*
D21*
X010345Y002923D02*
X009978Y002923D01*
X009975Y002881D02*
X009988Y003072D01*
X010027Y003258D01*
X010091Y003438D01*
X010179Y003607D01*
X010289Y003763D01*
X010420Y003902D01*
X010568Y004022D01*
X010731Y004120D01*
X010906Y004195D01*
X011090Y004246D01*
X011279Y004271D01*
X011470Y004270D01*
X011470Y003889D01*
X011315Y003895D01*
X011161Y003877D01*
X011012Y003835D01*
X010870Y003772D01*
X010740Y003687D01*
X010624Y003584D01*
X010526Y003464D01*
X010447Y003331D01*
X010389Y003187D01*
X010354Y003036D01*
X010342Y002881D01*
X010354Y002727D01*
X010389Y002576D01*
X010447Y002432D01*
X010526Y002298D01*
X010624Y002179D01*
X010740Y002075D01*
X010870Y001991D01*
X011012Y001927D01*
X011161Y001886D01*
X011315Y001867D01*
X011470Y001873D01*
X011470Y001492D01*
X011279Y001491D01*
X011090Y001516D01*
X010906Y001567D01*
X010731Y001642D01*
X010568Y001741D01*
X010420Y001861D01*
X010289Y002000D01*
X010179Y002156D01*
X010091Y002325D01*
X010027Y002504D01*
X009988Y002691D01*
X009975Y002881D01*
X009976Y002868D02*
X010343Y002868D01*
X010347Y002813D02*
X009980Y002813D01*
X009983Y002759D02*
X010351Y002759D01*
X010359Y002704D02*
X009987Y002704D01*
X009997Y002649D02*
X010372Y002649D01*
X010385Y002594D02*
X010008Y002594D01*
X010020Y002539D02*
X010404Y002539D01*
X010426Y002484D02*
X010034Y002484D01*
X010054Y002429D02*
X010448Y002429D01*
X010481Y002374D02*
X010073Y002374D01*
X010094Y002320D02*
X010513Y002320D01*
X010554Y002265D02*
X010122Y002265D01*
X010151Y002210D02*
X010599Y002210D01*
X010651Y002155D02*
X010179Y002155D01*
X010218Y002100D02*
X010712Y002100D01*
X010786Y002045D02*
X010257Y002045D01*
X010298Y001990D02*
X010871Y001990D01*
X010993Y001935D02*
X010350Y001935D01*
X010401Y001880D02*
X011205Y001880D01*
X011470Y001826D02*
X010463Y001826D01*
X010531Y001771D02*
X011470Y001771D01*
X011470Y001716D02*
X010610Y001716D01*
X010701Y001661D02*
X011470Y001661D01*
X011470Y001606D02*
X010816Y001606D01*
X010964Y001551D02*
X011470Y001551D01*
X011470Y001496D02*
X011242Y001496D01*
X009087Y001496D02*
X008859Y001496D01*
X008896Y001491D02*
X008707Y001516D01*
X008523Y001567D01*
X008348Y001642D01*
X008185Y001741D01*
X008037Y001861D01*
X007906Y002000D01*
X007796Y002156D01*
X007708Y002325D01*
X007644Y002504D01*
X007605Y002691D01*
X007592Y002881D01*
X007605Y003072D01*
X007644Y003258D01*
X007708Y003438D01*
X007796Y003607D01*
X007906Y003763D01*
X008037Y003902D01*
X008185Y004022D01*
X008348Y004120D01*
X008523Y004195D01*
X008707Y004246D01*
X008896Y004271D01*
X009087Y004270D01*
X009087Y003889D01*
X008932Y003895D01*
X008778Y003877D01*
X008629Y003835D01*
X008487Y003772D01*
X008357Y003687D01*
X008241Y003584D01*
X008143Y003464D01*
X008064Y003331D01*
X008006Y003187D01*
X007971Y003036D01*
X007959Y002881D01*
X007971Y002727D01*
X008006Y002576D01*
X008064Y002432D01*
X008143Y002298D01*
X008241Y002179D01*
X008357Y002075D01*
X008487Y001991D01*
X008629Y001927D01*
X008778Y001886D01*
X008932Y001867D01*
X009087Y001873D01*
X009087Y001492D01*
X008896Y001491D01*
X009087Y001551D02*
X008581Y001551D01*
X008433Y001606D02*
X009087Y001606D01*
X009087Y001661D02*
X008317Y001661D01*
X008227Y001716D02*
X009087Y001716D01*
X009087Y001771D02*
X008148Y001771D01*
X008080Y001826D02*
X009087Y001826D01*
X008822Y001880D02*
X008018Y001880D01*
X007967Y001935D02*
X008610Y001935D01*
X008488Y001990D02*
X007915Y001990D01*
X007874Y002045D02*
X008403Y002045D01*
X008329Y002100D02*
X007835Y002100D01*
X007796Y002155D02*
X008268Y002155D01*
X008216Y002210D02*
X007768Y002210D01*
X007739Y002265D02*
X008171Y002265D01*
X008130Y002320D02*
X007711Y002320D01*
X007690Y002374D02*
X008098Y002374D01*
X008065Y002429D02*
X007671Y002429D01*
X007651Y002484D02*
X008043Y002484D01*
X008021Y002539D02*
X007637Y002539D01*
X007625Y002594D02*
X008002Y002594D01*
X007989Y002649D02*
X007614Y002649D01*
X007604Y002704D02*
X007976Y002704D01*
X007968Y002759D02*
X007600Y002759D01*
X007597Y002813D02*
X007964Y002813D01*
X007960Y002868D02*
X007593Y002868D01*
X007595Y002923D02*
X007962Y002923D01*
X007966Y002978D02*
X007599Y002978D01*
X007602Y003033D02*
X007970Y003033D01*
X007983Y003088D02*
X007608Y003088D01*
X007620Y003143D02*
X007995Y003143D01*
X008010Y003198D02*
X007631Y003198D01*
X007643Y003252D02*
X008032Y003252D01*
X008054Y003307D02*
X007661Y003307D01*
X007681Y003362D02*
X008082Y003362D01*
X008115Y003417D02*
X007701Y003417D01*
X007726Y003472D02*
X008149Y003472D01*
X008194Y003527D02*
X007754Y003527D01*
X007783Y003582D02*
X008240Y003582D01*
X008300Y003637D02*
X007817Y003637D01*
X007856Y003691D02*
X008363Y003691D01*
X008448Y003746D02*
X007895Y003746D01*
X007942Y003801D02*
X008552Y003801D01*
X008703Y003856D02*
X007994Y003856D01*
X008048Y003911D02*
X009087Y003911D01*
X009087Y003966D02*
X008116Y003966D01*
X008184Y004021D02*
X009087Y004021D01*
X009087Y004076D02*
X008275Y004076D01*
X008372Y004130D02*
X009087Y004130D01*
X009087Y004185D02*
X008500Y004185D01*
X008686Y004240D02*
X009087Y004240D01*
X010166Y003582D02*
X010623Y003582D01*
X010577Y003527D02*
X010137Y003527D01*
X010109Y003472D02*
X010532Y003472D01*
X010498Y003417D02*
X010084Y003417D01*
X010064Y003362D02*
X010465Y003362D01*
X010437Y003307D02*
X010044Y003307D01*
X010026Y003252D02*
X010415Y003252D01*
X010393Y003198D02*
X010014Y003198D01*
X010003Y003143D02*
X010379Y003143D01*
X010366Y003088D02*
X009991Y003088D01*
X009985Y003033D02*
X010353Y003033D01*
X010349Y002978D02*
X009982Y002978D01*
X010200Y003637D02*
X010683Y003637D01*
X010747Y003691D02*
X010239Y003691D01*
X010278Y003746D02*
X010831Y003746D01*
X010936Y003801D02*
X010326Y003801D01*
X010377Y003856D02*
X011086Y003856D01*
X011470Y003911D02*
X010431Y003911D01*
X010499Y003966D02*
X011470Y003966D01*
X011470Y004021D02*
X010567Y004021D01*
X010658Y004076D02*
X011470Y004076D01*
X011470Y004130D02*
X010756Y004130D01*
X010883Y004185D02*
X011470Y004185D01*
X011470Y004240D02*
X011069Y004240D01*
D22*
X031625Y012373D02*
X031625Y012486D01*
X031681Y012543D01*
X031738Y012543D01*
X031795Y012486D01*
X031852Y012543D01*
X031908Y012543D01*
X031965Y012486D01*
X031965Y012373D01*
X031908Y012316D01*
X031795Y012429D02*
X031795Y012486D01*
X031681Y012316D02*
X031625Y012373D01*
X031681Y013316D02*
X031625Y013373D01*
X031625Y013486D01*
X031681Y013543D01*
X031738Y013543D01*
X031965Y013316D01*
X031965Y013543D01*
X031965Y014316D02*
X031965Y014543D01*
X031965Y014429D02*
X031625Y014429D01*
X031738Y014316D01*
X010142Y018859D02*
X009970Y018613D01*
X009865Y018594D01*
X009742Y018680D01*
X009724Y018785D01*
X010142Y018859D01*
X010123Y018963D01*
X010000Y019049D01*
X009896Y019031D01*
X009724Y018785D01*
X009549Y018815D02*
X009303Y018987D01*
X009426Y018901D02*
X009685Y019270D01*
X009476Y019233D01*
X009172Y019079D02*
X008926Y019251D01*
X009185Y019620D01*
X009010Y019651D02*
X008967Y019589D01*
X008863Y019571D01*
X008740Y019657D01*
X008721Y019761D01*
X008764Y019823D01*
X008869Y019841D01*
X008992Y019755D01*
X009010Y019651D01*
X008863Y019571D02*
X008881Y019466D01*
X008838Y019405D01*
X008734Y019386D01*
X008611Y019472D01*
X008592Y019577D01*
X008635Y019638D01*
X008740Y019657D01*
X008633Y019915D02*
X008215Y019841D01*
X008172Y019780D01*
X008430Y020149D02*
X008676Y019976D01*
X008633Y019915D01*
M02*
