G75*
G70*
%OFA0B0*%
%FSLAX24Y24*%
%IPPOS*%
%LPD*%
%AMOC8*
5,1,8,0,0,1.08239X$1,22.5*
%
%ADD10C,0.0000*%
%ADD11C,0.0060*%
%ADD12C,0.0100*%
%ADD13C,0.0700*%
%ADD14OC8,0.0520*%
%ADD15C,0.0660*%
%ADD16C,0.1050*%
%ADD17C,0.0660*%
%ADD18R,0.0591X0.0512*%
%ADD19C,0.0600*%
%ADD20R,0.0480X0.0880*%
%ADD21R,0.1417X0.0866*%
%ADD22C,0.0560*%
%ADD23C,0.0356*%
%ADD24C,0.0240*%
%ADD25C,0.0320*%
%ADD26C,0.0317*%
%ADD27C,0.0160*%
%ADD28C,0.0500*%
%ADD29C,0.0400*%
%ADD30C,0.0280*%
%ADD31C,0.0480*%
%ADD32C,0.0200*%
%ADD33C,0.0760*%
D10*
X000350Y000834D02*
X000350Y020519D01*
X036145Y020519D01*
X036145Y000834D01*
X000350Y000834D01*
X002405Y001014D02*
X002407Y001032D01*
X002413Y001048D01*
X002422Y001063D01*
X002435Y001076D01*
X002450Y001085D01*
X002466Y001091D01*
X002484Y001093D01*
X002502Y001091D01*
X002518Y001085D01*
X002533Y001076D01*
X002546Y001063D01*
X002555Y001048D01*
X002561Y001032D01*
X002563Y001014D01*
X002561Y000996D01*
X002555Y000980D01*
X002546Y000965D01*
X002533Y000952D01*
X002518Y000943D01*
X002502Y000937D01*
X002484Y000935D01*
X002466Y000937D01*
X002450Y000943D01*
X002435Y000952D01*
X002422Y000965D01*
X002413Y000980D01*
X002407Y000996D01*
X002405Y001014D01*
X002562Y001171D02*
X002564Y001189D01*
X002570Y001205D01*
X002579Y001220D01*
X002592Y001233D01*
X002607Y001242D01*
X002623Y001248D01*
X002641Y001250D01*
X002659Y001248D01*
X002675Y001242D01*
X002690Y001233D01*
X002703Y001220D01*
X002712Y001205D01*
X002718Y001189D01*
X002720Y001171D01*
X002718Y001153D01*
X002712Y001137D01*
X002703Y001122D01*
X002690Y001109D01*
X002675Y001100D01*
X002659Y001094D01*
X002641Y001092D01*
X002623Y001094D01*
X002607Y001100D01*
X002592Y001109D01*
X002579Y001122D01*
X002570Y001137D01*
X002564Y001153D01*
X002562Y001171D01*
X002799Y001250D02*
X002801Y001268D01*
X002807Y001284D01*
X002816Y001299D01*
X002829Y001312D01*
X002844Y001321D01*
X002860Y001327D01*
X002878Y001329D01*
X002896Y001327D01*
X002912Y001321D01*
X002927Y001312D01*
X002940Y001299D01*
X002949Y001284D01*
X002955Y001268D01*
X002957Y001250D01*
X002955Y001232D01*
X002949Y001216D01*
X002940Y001201D01*
X002927Y001188D01*
X002912Y001179D01*
X002896Y001173D01*
X002878Y001171D01*
X002860Y001173D01*
X002844Y001179D01*
X002829Y001188D01*
X002816Y001201D01*
X002807Y001216D01*
X002801Y001232D01*
X002799Y001250D01*
X003035Y001171D02*
X003037Y001189D01*
X003043Y001205D01*
X003052Y001220D01*
X003065Y001233D01*
X003080Y001242D01*
X003096Y001248D01*
X003114Y001250D01*
X003132Y001248D01*
X003148Y001242D01*
X003163Y001233D01*
X003176Y001220D01*
X003185Y001205D01*
X003191Y001189D01*
X003193Y001171D01*
X003191Y001153D01*
X003185Y001137D01*
X003176Y001122D01*
X003163Y001109D01*
X003148Y001100D01*
X003132Y001094D01*
X003114Y001092D01*
X003096Y001094D01*
X003080Y001100D01*
X003065Y001109D01*
X003052Y001122D01*
X003043Y001137D01*
X003037Y001153D01*
X003035Y001171D01*
X003192Y001014D02*
X003194Y001032D01*
X003200Y001048D01*
X003209Y001063D01*
X003222Y001076D01*
X003237Y001085D01*
X003253Y001091D01*
X003271Y001093D01*
X003289Y001091D01*
X003305Y001085D01*
X003320Y001076D01*
X003333Y001063D01*
X003342Y001048D01*
X003348Y001032D01*
X003350Y001014D01*
X003348Y000996D01*
X003342Y000980D01*
X003333Y000965D01*
X003320Y000952D01*
X003305Y000943D01*
X003289Y000937D01*
X003271Y000935D01*
X003253Y000937D01*
X003237Y000943D01*
X003222Y000952D01*
X003209Y000965D01*
X003200Y000980D01*
X003194Y000996D01*
X003192Y001014D01*
X022484Y001014D02*
X022486Y001032D01*
X022492Y001048D01*
X022501Y001063D01*
X022514Y001076D01*
X022529Y001085D01*
X022545Y001091D01*
X022563Y001093D01*
X022581Y001091D01*
X022597Y001085D01*
X022612Y001076D01*
X022625Y001063D01*
X022634Y001048D01*
X022640Y001032D01*
X022642Y001014D01*
X022640Y000996D01*
X022634Y000980D01*
X022625Y000965D01*
X022612Y000952D01*
X022597Y000943D01*
X022581Y000937D01*
X022563Y000935D01*
X022545Y000937D01*
X022529Y000943D01*
X022514Y000952D01*
X022501Y000965D01*
X022492Y000980D01*
X022486Y000996D01*
X022484Y001014D01*
X022641Y001171D02*
X022643Y001189D01*
X022649Y001205D01*
X022658Y001220D01*
X022671Y001233D01*
X022686Y001242D01*
X022702Y001248D01*
X022720Y001250D01*
X022738Y001248D01*
X022754Y001242D01*
X022769Y001233D01*
X022782Y001220D01*
X022791Y001205D01*
X022797Y001189D01*
X022799Y001171D01*
X022797Y001153D01*
X022791Y001137D01*
X022782Y001122D01*
X022769Y001109D01*
X022754Y001100D01*
X022738Y001094D01*
X022720Y001092D01*
X022702Y001094D01*
X022686Y001100D01*
X022671Y001109D01*
X022658Y001122D01*
X022649Y001137D01*
X022643Y001153D01*
X022641Y001171D01*
X022877Y001250D02*
X022879Y001268D01*
X022885Y001284D01*
X022894Y001299D01*
X022907Y001312D01*
X022922Y001321D01*
X022938Y001327D01*
X022956Y001329D01*
X022974Y001327D01*
X022990Y001321D01*
X023005Y001312D01*
X023018Y001299D01*
X023027Y001284D01*
X023033Y001268D01*
X023035Y001250D01*
X023033Y001232D01*
X023027Y001216D01*
X023018Y001201D01*
X023005Y001188D01*
X022990Y001179D01*
X022974Y001173D01*
X022956Y001171D01*
X022938Y001173D01*
X022922Y001179D01*
X022907Y001188D01*
X022894Y001201D01*
X022885Y001216D01*
X022879Y001232D01*
X022877Y001250D01*
X023114Y001171D02*
X023116Y001189D01*
X023122Y001205D01*
X023131Y001220D01*
X023144Y001233D01*
X023159Y001242D01*
X023175Y001248D01*
X023193Y001250D01*
X023211Y001248D01*
X023227Y001242D01*
X023242Y001233D01*
X023255Y001220D01*
X023264Y001205D01*
X023270Y001189D01*
X023272Y001171D01*
X023270Y001153D01*
X023264Y001137D01*
X023255Y001122D01*
X023242Y001109D01*
X023227Y001100D01*
X023211Y001094D01*
X023193Y001092D01*
X023175Y001094D01*
X023159Y001100D01*
X023144Y001109D01*
X023131Y001122D01*
X023122Y001137D01*
X023116Y001153D01*
X023114Y001171D01*
X023271Y001014D02*
X023273Y001032D01*
X023279Y001048D01*
X023288Y001063D01*
X023301Y001076D01*
X023316Y001085D01*
X023332Y001091D01*
X023350Y001093D01*
X023368Y001091D01*
X023384Y001085D01*
X023399Y001076D01*
X023412Y001063D01*
X023421Y001048D01*
X023427Y001032D01*
X023429Y001014D01*
X023427Y000996D01*
X023421Y000980D01*
X023412Y000965D01*
X023399Y000952D01*
X023384Y000943D01*
X023368Y000937D01*
X023350Y000935D01*
X023332Y000937D01*
X023316Y000943D01*
X023301Y000952D01*
X023288Y000965D01*
X023279Y000980D01*
X023273Y000996D01*
X023271Y001014D01*
X033882Y001136D02*
X033884Y001164D01*
X033890Y001191D01*
X033899Y001217D01*
X033912Y001242D01*
X033929Y001265D01*
X033948Y001285D01*
X033970Y001302D01*
X033994Y001316D01*
X034020Y001326D01*
X034047Y001333D01*
X034075Y001336D01*
X034103Y001335D01*
X034130Y001330D01*
X034157Y001321D01*
X034182Y001309D01*
X034205Y001294D01*
X034226Y001275D01*
X034244Y001254D01*
X034259Y001230D01*
X034270Y001204D01*
X034278Y001178D01*
X034282Y001150D01*
X034282Y001122D01*
X034278Y001094D01*
X034270Y001068D01*
X034259Y001042D01*
X034244Y001018D01*
X034226Y000997D01*
X034205Y000978D01*
X034182Y000963D01*
X034157Y000951D01*
X034130Y000942D01*
X034103Y000937D01*
X034075Y000936D01*
X034047Y000939D01*
X034020Y000946D01*
X033994Y000956D01*
X033970Y000970D01*
X033948Y000987D01*
X033929Y001007D01*
X033912Y001030D01*
X033899Y001055D01*
X033890Y001081D01*
X033884Y001108D01*
X033882Y001136D01*
X034200Y001525D02*
X034202Y001553D01*
X034208Y001580D01*
X034217Y001606D01*
X034230Y001631D01*
X034247Y001654D01*
X034266Y001674D01*
X034288Y001691D01*
X034312Y001705D01*
X034338Y001715D01*
X034365Y001722D01*
X034393Y001725D01*
X034421Y001724D01*
X034448Y001719D01*
X034475Y001710D01*
X034500Y001698D01*
X034523Y001683D01*
X034544Y001664D01*
X034562Y001643D01*
X034577Y001619D01*
X034588Y001593D01*
X034596Y001567D01*
X034600Y001539D01*
X034600Y001511D01*
X034596Y001483D01*
X034588Y001457D01*
X034577Y001431D01*
X034562Y001407D01*
X034544Y001386D01*
X034523Y001367D01*
X034500Y001352D01*
X034475Y001340D01*
X034448Y001331D01*
X034421Y001326D01*
X034393Y001325D01*
X034365Y001328D01*
X034338Y001335D01*
X034312Y001345D01*
X034288Y001359D01*
X034266Y001376D01*
X034247Y001396D01*
X034230Y001419D01*
X034217Y001444D01*
X034208Y001470D01*
X034202Y001497D01*
X034200Y001525D01*
X034675Y001750D02*
X034677Y001778D01*
X034683Y001805D01*
X034692Y001831D01*
X034705Y001856D01*
X034722Y001879D01*
X034741Y001899D01*
X034763Y001916D01*
X034787Y001930D01*
X034813Y001940D01*
X034840Y001947D01*
X034868Y001950D01*
X034896Y001949D01*
X034923Y001944D01*
X034950Y001935D01*
X034975Y001923D01*
X034998Y001908D01*
X035019Y001889D01*
X035037Y001868D01*
X035052Y001844D01*
X035063Y001818D01*
X035071Y001792D01*
X035075Y001764D01*
X035075Y001736D01*
X035071Y001708D01*
X035063Y001682D01*
X035052Y001656D01*
X035037Y001632D01*
X035019Y001611D01*
X034998Y001592D01*
X034975Y001577D01*
X034950Y001565D01*
X034923Y001556D01*
X034896Y001551D01*
X034868Y001550D01*
X034840Y001553D01*
X034813Y001560D01*
X034787Y001570D01*
X034763Y001584D01*
X034741Y001601D01*
X034722Y001621D01*
X034705Y001644D01*
X034692Y001669D01*
X034683Y001695D01*
X034677Y001722D01*
X034675Y001750D01*
X035125Y001875D02*
X035127Y001903D01*
X035133Y001930D01*
X035142Y001956D01*
X035155Y001981D01*
X035172Y002004D01*
X035191Y002024D01*
X035213Y002041D01*
X035237Y002055D01*
X035263Y002065D01*
X035290Y002072D01*
X035318Y002075D01*
X035346Y002074D01*
X035373Y002069D01*
X035400Y002060D01*
X035425Y002048D01*
X035448Y002033D01*
X035469Y002014D01*
X035487Y001993D01*
X035502Y001969D01*
X035513Y001943D01*
X035521Y001917D01*
X035525Y001889D01*
X035525Y001861D01*
X035521Y001833D01*
X035513Y001807D01*
X035502Y001781D01*
X035487Y001757D01*
X035469Y001736D01*
X035448Y001717D01*
X035425Y001702D01*
X035400Y001690D01*
X035373Y001681D01*
X035346Y001676D01*
X035318Y001675D01*
X035290Y001678D01*
X035263Y001685D01*
X035237Y001695D01*
X035213Y001709D01*
X035191Y001726D01*
X035172Y001746D01*
X035155Y001769D01*
X035142Y001794D01*
X035133Y001820D01*
X035127Y001847D01*
X035125Y001875D01*
X035625Y001900D02*
X035627Y001928D01*
X035633Y001955D01*
X035642Y001981D01*
X035655Y002006D01*
X035672Y002029D01*
X035691Y002049D01*
X035713Y002066D01*
X035737Y002080D01*
X035763Y002090D01*
X035790Y002097D01*
X035818Y002100D01*
X035846Y002099D01*
X035873Y002094D01*
X035900Y002085D01*
X035925Y002073D01*
X035948Y002058D01*
X035969Y002039D01*
X035987Y002018D01*
X036002Y001994D01*
X036013Y001968D01*
X036021Y001942D01*
X036025Y001914D01*
X036025Y001886D01*
X036021Y001858D01*
X036013Y001832D01*
X036002Y001806D01*
X035987Y001782D01*
X035969Y001761D01*
X035948Y001742D01*
X035925Y001727D01*
X035900Y001715D01*
X035873Y001706D01*
X035846Y001701D01*
X035818Y001700D01*
X035790Y001703D01*
X035763Y001710D01*
X035737Y001720D01*
X035713Y001734D01*
X035691Y001751D01*
X035672Y001771D01*
X035655Y001794D01*
X035642Y001819D01*
X035633Y001845D01*
X035627Y001872D01*
X035625Y001900D01*
X035125Y002645D02*
X035127Y002686D01*
X035133Y002726D01*
X035142Y002766D01*
X035156Y002805D01*
X035173Y002842D01*
X035193Y002877D01*
X035217Y002911D01*
X035244Y002942D01*
X035273Y002970D01*
X035306Y002995D01*
X035340Y003017D01*
X035376Y003036D01*
X035414Y003051D01*
X035454Y003063D01*
X035494Y003071D01*
X035535Y003075D01*
X035575Y003075D01*
X035616Y003071D01*
X035656Y003063D01*
X035696Y003051D01*
X035734Y003036D01*
X035770Y003017D01*
X035804Y002995D01*
X035837Y002970D01*
X035866Y002942D01*
X035893Y002911D01*
X035917Y002877D01*
X035937Y002842D01*
X035954Y002805D01*
X035968Y002766D01*
X035977Y002726D01*
X035983Y002686D01*
X035985Y002645D01*
X035983Y002604D01*
X035977Y002564D01*
X035968Y002524D01*
X035954Y002485D01*
X035937Y002448D01*
X035917Y002413D01*
X035893Y002379D01*
X035866Y002348D01*
X035837Y002320D01*
X035804Y002295D01*
X035770Y002273D01*
X035734Y002254D01*
X035696Y002239D01*
X035656Y002227D01*
X035616Y002219D01*
X035575Y002215D01*
X035535Y002215D01*
X035494Y002219D01*
X035454Y002227D01*
X035414Y002239D01*
X035376Y002254D01*
X035340Y002273D01*
X035306Y002295D01*
X035273Y002320D01*
X035244Y002348D01*
X035217Y002379D01*
X035193Y002413D01*
X035173Y002448D01*
X035156Y002485D01*
X035142Y002524D01*
X035133Y002564D01*
X035127Y002604D01*
X035125Y002645D01*
X002251Y018157D02*
X002253Y018198D01*
X002259Y018238D01*
X002268Y018278D01*
X002282Y018317D01*
X002299Y018354D01*
X002319Y018389D01*
X002343Y018423D01*
X002370Y018454D01*
X002399Y018482D01*
X002432Y018507D01*
X002466Y018529D01*
X002502Y018548D01*
X002540Y018563D01*
X002580Y018575D01*
X002620Y018583D01*
X002661Y018587D01*
X002701Y018587D01*
X002742Y018583D01*
X002782Y018575D01*
X002822Y018563D01*
X002860Y018548D01*
X002896Y018529D01*
X002930Y018507D01*
X002963Y018482D01*
X002992Y018454D01*
X003019Y018423D01*
X003043Y018389D01*
X003063Y018354D01*
X003080Y018317D01*
X003094Y018278D01*
X003103Y018238D01*
X003109Y018198D01*
X003111Y018157D01*
X003109Y018116D01*
X003103Y018076D01*
X003094Y018036D01*
X003080Y017997D01*
X003063Y017960D01*
X003043Y017925D01*
X003019Y017891D01*
X002992Y017860D01*
X002963Y017832D01*
X002930Y017807D01*
X002896Y017785D01*
X002860Y017766D01*
X002822Y017751D01*
X002782Y017739D01*
X002742Y017731D01*
X002701Y017727D01*
X002661Y017727D01*
X002620Y017731D01*
X002580Y017739D01*
X002540Y017751D01*
X002502Y017766D01*
X002466Y017785D01*
X002432Y017807D01*
X002399Y017832D01*
X002370Y017860D01*
X002343Y017891D01*
X002319Y017925D01*
X002299Y017960D01*
X002282Y017997D01*
X002268Y018036D01*
X002259Y018076D01*
X002253Y018116D01*
X002251Y018157D01*
X002799Y020104D02*
X002801Y020122D01*
X002807Y020138D01*
X002816Y020153D01*
X002829Y020166D01*
X002844Y020175D01*
X002860Y020181D01*
X002878Y020183D01*
X002896Y020181D01*
X002912Y020175D01*
X002927Y020166D01*
X002940Y020153D01*
X002949Y020138D01*
X002955Y020122D01*
X002957Y020104D01*
X002955Y020086D01*
X002949Y020070D01*
X002940Y020055D01*
X002927Y020042D01*
X002912Y020033D01*
X002896Y020027D01*
X002878Y020025D01*
X002860Y020027D01*
X002844Y020033D01*
X002829Y020042D01*
X002816Y020055D01*
X002807Y020070D01*
X002801Y020086D01*
X002799Y020104D01*
X002562Y020182D02*
X002564Y020200D01*
X002570Y020216D01*
X002579Y020231D01*
X002592Y020244D01*
X002607Y020253D01*
X002623Y020259D01*
X002641Y020261D01*
X002659Y020259D01*
X002675Y020253D01*
X002690Y020244D01*
X002703Y020231D01*
X002712Y020216D01*
X002718Y020200D01*
X002720Y020182D01*
X002718Y020164D01*
X002712Y020148D01*
X002703Y020133D01*
X002690Y020120D01*
X002675Y020111D01*
X002659Y020105D01*
X002641Y020103D01*
X002623Y020105D01*
X002607Y020111D01*
X002592Y020120D01*
X002579Y020133D01*
X002570Y020148D01*
X002564Y020164D01*
X002562Y020182D01*
X002405Y020340D02*
X002407Y020358D01*
X002413Y020374D01*
X002422Y020389D01*
X002435Y020402D01*
X002450Y020411D01*
X002466Y020417D01*
X002484Y020419D01*
X002502Y020417D01*
X002518Y020411D01*
X002533Y020402D01*
X002546Y020389D01*
X002555Y020374D01*
X002561Y020358D01*
X002563Y020340D01*
X002561Y020322D01*
X002555Y020306D01*
X002546Y020291D01*
X002533Y020278D01*
X002518Y020269D01*
X002502Y020263D01*
X002484Y020261D01*
X002466Y020263D01*
X002450Y020269D01*
X002435Y020278D01*
X002422Y020291D01*
X002413Y020306D01*
X002407Y020322D01*
X002405Y020340D01*
X003035Y020182D02*
X003037Y020200D01*
X003043Y020216D01*
X003052Y020231D01*
X003065Y020244D01*
X003080Y020253D01*
X003096Y020259D01*
X003114Y020261D01*
X003132Y020259D01*
X003148Y020253D01*
X003163Y020244D01*
X003176Y020231D01*
X003185Y020216D01*
X003191Y020200D01*
X003193Y020182D01*
X003191Y020164D01*
X003185Y020148D01*
X003176Y020133D01*
X003163Y020120D01*
X003148Y020111D01*
X003132Y020105D01*
X003114Y020103D01*
X003096Y020105D01*
X003080Y020111D01*
X003065Y020120D01*
X003052Y020133D01*
X003043Y020148D01*
X003037Y020164D01*
X003035Y020182D01*
X003192Y020340D02*
X003194Y020358D01*
X003200Y020374D01*
X003209Y020389D01*
X003222Y020402D01*
X003237Y020411D01*
X003253Y020417D01*
X003271Y020419D01*
X003289Y020417D01*
X003305Y020411D01*
X003320Y020402D01*
X003333Y020389D01*
X003342Y020374D01*
X003348Y020358D01*
X003350Y020340D01*
X003348Y020322D01*
X003342Y020306D01*
X003333Y020291D01*
X003320Y020278D01*
X003305Y020269D01*
X003289Y020263D01*
X003271Y020261D01*
X003253Y020263D01*
X003237Y020269D01*
X003222Y020278D01*
X003209Y020291D01*
X003200Y020306D01*
X003194Y020322D01*
X003192Y020340D01*
X022484Y020340D02*
X022486Y020358D01*
X022492Y020374D01*
X022501Y020389D01*
X022514Y020402D01*
X022529Y020411D01*
X022545Y020417D01*
X022563Y020419D01*
X022581Y020417D01*
X022597Y020411D01*
X022612Y020402D01*
X022625Y020389D01*
X022634Y020374D01*
X022640Y020358D01*
X022642Y020340D01*
X022640Y020322D01*
X022634Y020306D01*
X022625Y020291D01*
X022612Y020278D01*
X022597Y020269D01*
X022581Y020263D01*
X022563Y020261D01*
X022545Y020263D01*
X022529Y020269D01*
X022514Y020278D01*
X022501Y020291D01*
X022492Y020306D01*
X022486Y020322D01*
X022484Y020340D01*
X022641Y020182D02*
X022643Y020200D01*
X022649Y020216D01*
X022658Y020231D01*
X022671Y020244D01*
X022686Y020253D01*
X022702Y020259D01*
X022720Y020261D01*
X022738Y020259D01*
X022754Y020253D01*
X022769Y020244D01*
X022782Y020231D01*
X022791Y020216D01*
X022797Y020200D01*
X022799Y020182D01*
X022797Y020164D01*
X022791Y020148D01*
X022782Y020133D01*
X022769Y020120D01*
X022754Y020111D01*
X022738Y020105D01*
X022720Y020103D01*
X022702Y020105D01*
X022686Y020111D01*
X022671Y020120D01*
X022658Y020133D01*
X022649Y020148D01*
X022643Y020164D01*
X022641Y020182D01*
X022877Y020104D02*
X022879Y020122D01*
X022885Y020138D01*
X022894Y020153D01*
X022907Y020166D01*
X022922Y020175D01*
X022938Y020181D01*
X022956Y020183D01*
X022974Y020181D01*
X022990Y020175D01*
X023005Y020166D01*
X023018Y020153D01*
X023027Y020138D01*
X023033Y020122D01*
X023035Y020104D01*
X023033Y020086D01*
X023027Y020070D01*
X023018Y020055D01*
X023005Y020042D01*
X022990Y020033D01*
X022974Y020027D01*
X022956Y020025D01*
X022938Y020027D01*
X022922Y020033D01*
X022907Y020042D01*
X022894Y020055D01*
X022885Y020070D01*
X022879Y020086D01*
X022877Y020104D01*
X023114Y020182D02*
X023116Y020200D01*
X023122Y020216D01*
X023131Y020231D01*
X023144Y020244D01*
X023159Y020253D01*
X023175Y020259D01*
X023193Y020261D01*
X023211Y020259D01*
X023227Y020253D01*
X023242Y020244D01*
X023255Y020231D01*
X023264Y020216D01*
X023270Y020200D01*
X023272Y020182D01*
X023270Y020164D01*
X023264Y020148D01*
X023255Y020133D01*
X023242Y020120D01*
X023227Y020111D01*
X023211Y020105D01*
X023193Y020103D01*
X023175Y020105D01*
X023159Y020111D01*
X023144Y020120D01*
X023131Y020133D01*
X023122Y020148D01*
X023116Y020164D01*
X023114Y020182D01*
X023271Y020340D02*
X023273Y020358D01*
X023279Y020374D01*
X023288Y020389D01*
X023301Y020402D01*
X023316Y020411D01*
X023332Y020417D01*
X023350Y020419D01*
X023368Y020417D01*
X023384Y020411D01*
X023399Y020402D01*
X023412Y020389D01*
X023421Y020374D01*
X023427Y020358D01*
X023429Y020340D01*
X023427Y020322D01*
X023421Y020306D01*
X023412Y020291D01*
X023399Y020278D01*
X023384Y020269D01*
X023368Y020263D01*
X023350Y020261D01*
X023332Y020263D01*
X023316Y020269D01*
X023301Y020278D01*
X023288Y020291D01*
X023279Y020306D01*
X023273Y020322D01*
X023271Y020340D01*
X033428Y020340D02*
X033430Y020358D01*
X033436Y020374D01*
X033445Y020389D01*
X033458Y020402D01*
X033473Y020411D01*
X033489Y020417D01*
X033507Y020419D01*
X033525Y020417D01*
X033541Y020411D01*
X033556Y020402D01*
X033569Y020389D01*
X033578Y020374D01*
X033584Y020358D01*
X033586Y020340D01*
X033584Y020322D01*
X033578Y020306D01*
X033569Y020291D01*
X033556Y020278D01*
X033541Y020269D01*
X033525Y020263D01*
X033507Y020261D01*
X033489Y020263D01*
X033473Y020269D01*
X033458Y020278D01*
X033445Y020291D01*
X033436Y020306D01*
X033430Y020322D01*
X033428Y020340D01*
X033586Y020182D02*
X033588Y020200D01*
X033594Y020216D01*
X033603Y020231D01*
X033616Y020244D01*
X033631Y020253D01*
X033647Y020259D01*
X033665Y020261D01*
X033683Y020259D01*
X033699Y020253D01*
X033714Y020244D01*
X033727Y020231D01*
X033736Y020216D01*
X033742Y020200D01*
X033744Y020182D01*
X033742Y020164D01*
X033736Y020148D01*
X033727Y020133D01*
X033714Y020120D01*
X033699Y020111D01*
X033683Y020105D01*
X033665Y020103D01*
X033647Y020105D01*
X033631Y020111D01*
X033616Y020120D01*
X033603Y020133D01*
X033594Y020148D01*
X033588Y020164D01*
X033586Y020182D01*
X033822Y020104D02*
X033824Y020122D01*
X033830Y020138D01*
X033839Y020153D01*
X033852Y020166D01*
X033867Y020175D01*
X033883Y020181D01*
X033901Y020183D01*
X033919Y020181D01*
X033935Y020175D01*
X033950Y020166D01*
X033963Y020153D01*
X033972Y020138D01*
X033978Y020122D01*
X033980Y020104D01*
X033978Y020086D01*
X033972Y020070D01*
X033963Y020055D01*
X033950Y020042D01*
X033935Y020033D01*
X033919Y020027D01*
X033901Y020025D01*
X033883Y020027D01*
X033867Y020033D01*
X033852Y020042D01*
X033839Y020055D01*
X033830Y020070D01*
X033824Y020086D01*
X033822Y020104D01*
X034058Y020182D02*
X034060Y020200D01*
X034066Y020216D01*
X034075Y020231D01*
X034088Y020244D01*
X034103Y020253D01*
X034119Y020259D01*
X034137Y020261D01*
X034155Y020259D01*
X034171Y020253D01*
X034186Y020244D01*
X034199Y020231D01*
X034208Y020216D01*
X034214Y020200D01*
X034216Y020182D01*
X034214Y020164D01*
X034208Y020148D01*
X034199Y020133D01*
X034186Y020120D01*
X034171Y020111D01*
X034155Y020105D01*
X034137Y020103D01*
X034119Y020105D01*
X034103Y020111D01*
X034088Y020120D01*
X034075Y020133D01*
X034066Y020148D01*
X034060Y020164D01*
X034058Y020182D01*
X034216Y020340D02*
X034218Y020358D01*
X034224Y020374D01*
X034233Y020389D01*
X034246Y020402D01*
X034261Y020411D01*
X034277Y020417D01*
X034295Y020419D01*
X034313Y020417D01*
X034329Y020411D01*
X034344Y020402D01*
X034357Y020389D01*
X034366Y020374D01*
X034372Y020358D01*
X034374Y020340D01*
X034372Y020322D01*
X034366Y020306D01*
X034357Y020291D01*
X034344Y020278D01*
X034329Y020269D01*
X034313Y020263D01*
X034295Y020261D01*
X034277Y020263D01*
X034261Y020269D01*
X034246Y020278D01*
X034233Y020291D01*
X034224Y020306D01*
X034218Y020322D01*
X034216Y020340D01*
D11*
X007921Y004700D02*
X007921Y004587D01*
X007864Y004530D01*
X007694Y004530D01*
X007694Y004417D02*
X007694Y004757D01*
X007864Y004757D01*
X007921Y004700D01*
X007552Y004700D02*
X007496Y004757D01*
X007382Y004757D01*
X007326Y004700D01*
X007326Y004587D01*
X007382Y004530D01*
X007496Y004530D01*
X007552Y004587D01*
X007552Y004700D01*
X007193Y004757D02*
X007080Y004757D01*
X007137Y004814D02*
X007137Y004587D01*
X007193Y004530D01*
D12*
X008826Y003790D02*
X012765Y003790D01*
X012766Y003793D02*
X012755Y003711D01*
X013904Y003711D01*
X013904Y003611D01*
X012755Y003611D01*
X012766Y003529D01*
X012789Y003444D01*
X012823Y003362D01*
X012867Y003285D01*
X012921Y003215D01*
X012946Y003190D01*
X008965Y003190D01*
X008923Y003209D01*
X008791Y003211D01*
X006788Y002430D01*
X006434Y002430D01*
X006407Y002496D01*
X006212Y002691D01*
X005956Y002797D01*
X004630Y002797D01*
X004374Y002691D01*
X004200Y002517D01*
X004200Y003246D01*
X004374Y003072D01*
X004630Y002966D01*
X005956Y002966D01*
X006212Y003072D01*
X006407Y003267D01*
X006433Y003331D01*
X006761Y003331D01*
X006799Y003325D01*
X006826Y003331D01*
X006855Y003331D01*
X006890Y003346D01*
X010330Y004135D01*
X012949Y004135D01*
X012921Y004107D01*
X012867Y004037D01*
X012823Y003960D01*
X012789Y003878D01*
X012766Y003793D01*
X012793Y003889D02*
X009255Y003889D01*
X009685Y003987D02*
X012838Y003987D01*
X012904Y004086D02*
X010114Y004086D01*
X008944Y003199D02*
X012937Y003199D01*
X012860Y003298D02*
X006420Y003298D01*
X006339Y003199D02*
X008760Y003199D01*
X008507Y003101D02*
X006240Y003101D01*
X006043Y003002D02*
X008255Y003002D01*
X008002Y002904D02*
X004200Y002904D01*
X004200Y003002D02*
X004543Y003002D01*
X004346Y003101D02*
X004200Y003101D01*
X004200Y003199D02*
X004247Y003199D01*
X004200Y002805D02*
X007749Y002805D01*
X007497Y002707D02*
X006175Y002707D01*
X006295Y002608D02*
X007244Y002608D01*
X006992Y002510D02*
X006393Y002510D01*
X007293Y001919D02*
X012137Y001919D01*
X012152Y001884D02*
X012284Y001752D01*
X012457Y001680D01*
X012643Y001680D01*
X012816Y001752D01*
X012820Y001756D01*
X012840Y001708D01*
X012918Y001630D01*
X006329Y001630D01*
X006407Y001708D01*
X006433Y001770D01*
X006847Y001770D01*
X006909Y001769D01*
X006912Y001770D01*
X006916Y001770D01*
X006973Y001794D01*
X008963Y002570D01*
X012336Y002570D01*
X012284Y002548D01*
X012152Y002416D01*
X012080Y002243D01*
X012080Y002057D01*
X012152Y001884D01*
X012215Y001820D02*
X007040Y001820D01*
X007545Y002017D02*
X012096Y002017D01*
X012080Y002116D02*
X007798Y002116D01*
X008051Y002214D02*
X012080Y002214D01*
X012109Y002313D02*
X008303Y002313D01*
X008556Y002411D02*
X012149Y002411D01*
X012245Y002510D02*
X008808Y002510D01*
X007110Y003396D02*
X012808Y003396D01*
X012775Y003495D02*
X007539Y003495D01*
X007968Y003593D02*
X012757Y003593D01*
X013904Y003692D02*
X008397Y003692D01*
X006431Y005555D02*
X006407Y005614D01*
X006212Y005809D01*
X005956Y005915D01*
X004630Y005915D01*
X004374Y005809D01*
X004190Y005625D01*
X004162Y005692D01*
X004092Y005762D01*
X003792Y006062D01*
X003700Y006100D01*
X001699Y006100D01*
X001607Y006138D01*
X001493Y006138D01*
X001387Y006094D01*
X001320Y006027D01*
X001320Y007347D01*
X002214Y008240D01*
X002270Y008376D01*
X002270Y010875D01*
X002309Y010780D01*
X002455Y010634D01*
X002647Y010555D01*
X002853Y010555D01*
X003045Y010634D01*
X003191Y010780D01*
X003270Y010972D01*
X003270Y011178D01*
X003191Y011370D01*
X003080Y011480D01*
X003080Y011770D01*
X003191Y011880D01*
X003270Y012072D01*
X003270Y012278D01*
X003220Y012400D01*
X003720Y012400D01*
X003885Y012469D01*
X004011Y012595D01*
X004080Y012760D01*
X004080Y012860D01*
X004157Y012674D01*
X003763Y012280D01*
X003670Y012187D01*
X003620Y012066D01*
X003620Y010737D01*
X003063Y010180D01*
X002970Y010087D01*
X002920Y009966D01*
X002920Y009586D01*
X002870Y009466D01*
X002870Y009334D01*
X002920Y009213D01*
X003013Y009120D01*
X003134Y009070D01*
X003266Y009070D01*
X003387Y009120D01*
X003530Y009263D01*
X003580Y009384D01*
X003580Y009763D01*
X004230Y010413D01*
X004280Y010534D01*
X004280Y010961D01*
X004374Y010867D01*
X004630Y010761D01*
X005956Y010761D01*
X006212Y010867D01*
X006407Y011063D01*
X006513Y011318D01*
X006513Y011595D01*
X006407Y011850D01*
X006212Y012045D01*
X005956Y012151D01*
X004630Y012151D01*
X004524Y012108D01*
X004737Y012320D01*
X005956Y012320D01*
X006212Y012426D01*
X006407Y012622D01*
X006513Y012877D01*
X006513Y013154D01*
X006407Y013409D01*
X006336Y013480D01*
X011087Y013480D01*
X011141Y013459D01*
X011272Y013461D01*
X011392Y013514D01*
X012860Y015040D01*
X012912Y015040D01*
X012840Y014968D01*
X012734Y014713D01*
X012734Y014436D01*
X012840Y014181D01*
X012870Y014151D01*
X012849Y014160D01*
X012555Y014160D01*
X012547Y014163D01*
X012482Y014160D01*
X012416Y014160D01*
X012408Y014157D01*
X012400Y014156D01*
X012341Y014129D01*
X012280Y014104D01*
X012274Y014097D01*
X012266Y014094D01*
X012222Y014046D01*
X012176Y014000D01*
X012173Y013991D01*
X011182Y012906D01*
X011136Y012860D01*
X011133Y012851D01*
X011127Y012845D01*
X011105Y012784D01*
X011080Y012724D01*
X011080Y012715D01*
X011077Y012707D01*
X011080Y012642D01*
X011080Y011584D01*
X009207Y010692D01*
X009155Y010673D01*
X009148Y010667D01*
X009140Y010664D01*
X009133Y010657D01*
X009124Y010652D01*
X009087Y010611D01*
X008670Y010229D01*
X006433Y010229D01*
X006407Y010291D01*
X008737Y010291D01*
X008845Y010390D02*
X006309Y010390D01*
X006212Y010486D02*
X006407Y010291D01*
X006212Y010486D02*
X005956Y010592D01*
X004630Y010592D01*
X004374Y010486D01*
X004179Y010291D01*
X004108Y010291D01*
X004179Y010291D02*
X004073Y010035D01*
X004073Y009759D01*
X004179Y009504D01*
X004374Y009308D01*
X004630Y009202D01*
X005956Y009202D01*
X006212Y009308D01*
X006393Y009489D01*
X008806Y009489D01*
X008871Y009487D01*
X008879Y009489D01*
X008887Y009489D01*
X008948Y009515D01*
X009009Y009537D01*
X009016Y009543D01*
X009023Y009546D01*
X009070Y009592D01*
X009494Y009980D01*
X010724Y009980D01*
X010860Y010036D01*
X010964Y010140D01*
X011020Y010276D01*
X011020Y010424D01*
X010964Y010560D01*
X010863Y010661D01*
X011600Y011012D01*
X011660Y011036D01*
X011667Y011043D01*
X011676Y011048D01*
X011718Y011095D01*
X011764Y011140D01*
X011767Y011150D01*
X011774Y011157D01*
X011795Y011217D01*
X011820Y011276D01*
X011820Y011276D01*
X011820Y011277D01*
X011844Y011220D01*
X011970Y011094D01*
X012135Y011025D01*
X012315Y011025D01*
X012480Y011094D01*
X012606Y011220D01*
X012675Y011385D01*
X012675Y011793D01*
X012898Y011873D01*
X012867Y011832D01*
X012823Y011755D01*
X012789Y011674D01*
X012766Y011588D01*
X012755Y011506D01*
X013904Y011506D01*
X013904Y011406D01*
X012755Y011406D01*
X012766Y011324D01*
X012789Y011239D01*
X012823Y011157D01*
X012867Y011080D01*
X012921Y011010D01*
X012961Y010970D01*
X012728Y010970D01*
X012698Y010976D01*
X012670Y010970D01*
X012642Y010970D01*
X012614Y010958D01*
X012585Y010952D01*
X012562Y010937D01*
X012536Y010926D01*
X012514Y010905D01*
X012489Y010888D01*
X012474Y010864D01*
X012454Y010844D01*
X012443Y010816D01*
X012213Y010468D01*
X011206Y009140D01*
X010192Y009140D01*
X010086Y009096D01*
X010004Y009014D01*
X009960Y008908D01*
X009960Y008792D01*
X010004Y008686D01*
X010062Y008628D01*
X006450Y008628D01*
X006407Y008732D01*
X006212Y008927D01*
X005956Y009033D01*
X004630Y009033D01*
X004374Y008927D01*
X004179Y008732D01*
X004073Y008476D01*
X004073Y008200D01*
X004179Y007945D01*
X004374Y007749D01*
X004630Y007643D01*
X005956Y007643D01*
X006212Y007749D01*
X006407Y007945D01*
X006450Y008048D01*
X008801Y008048D01*
X006780Y007015D01*
X006472Y007015D01*
X006407Y007173D01*
X006212Y007368D01*
X005956Y007474D01*
X004630Y007474D01*
X004374Y007368D01*
X004179Y007173D01*
X004073Y006917D01*
X004073Y006641D01*
X004179Y006385D01*
X004374Y006190D01*
X004630Y006084D01*
X005956Y006084D01*
X006212Y006190D01*
X006407Y006385D01*
X006428Y006435D01*
X006804Y006435D01*
X006816Y006431D01*
X006862Y006435D01*
X006908Y006435D01*
X006919Y006440D01*
X006931Y006441D01*
X006972Y006462D01*
X007014Y006479D01*
X007023Y006488D01*
X009120Y007560D01*
X010400Y007560D01*
X010358Y007520D01*
X010311Y007414D01*
X010309Y007299D01*
X010531Y006725D01*
X010531Y006721D01*
X010552Y006671D01*
X010571Y006621D01*
X010574Y006618D01*
X010575Y006615D01*
X010613Y006576D01*
X010651Y006537D01*
X010654Y006536D01*
X010657Y006533D01*
X010707Y006513D01*
X010756Y006491D01*
X010760Y006490D01*
X010763Y006489D01*
X010817Y006489D01*
X010872Y006488D01*
X010875Y006489D01*
X012797Y006489D01*
X012840Y006385D01*
X012921Y006305D01*
X012854Y006305D01*
X012850Y006308D01*
X012721Y006331D01*
X012592Y006304D01*
X012484Y006230D01*
X012046Y005555D01*
X006431Y005555D01*
X006428Y005563D02*
X012051Y005563D01*
X012115Y005662D02*
X006359Y005662D01*
X006261Y005760D02*
X012179Y005760D01*
X012243Y005859D02*
X006093Y005859D01*
X006125Y006154D02*
X012435Y006154D01*
X012371Y006056D02*
X003798Y006056D01*
X003897Y005957D02*
X012307Y005957D01*
X012517Y006253D02*
X006274Y006253D01*
X006373Y006351D02*
X012875Y006351D01*
X012814Y006450D02*
X006948Y006450D01*
X007141Y006548D02*
X010641Y006548D01*
X010561Y006647D02*
X007333Y006647D01*
X007526Y006745D02*
X010523Y006745D01*
X010485Y006844D02*
X007719Y006844D01*
X007911Y006942D02*
X010447Y006942D01*
X010409Y007041D02*
X008104Y007041D01*
X008297Y007139D02*
X010371Y007139D01*
X010333Y007238D02*
X008489Y007238D01*
X008682Y007336D02*
X010310Y007336D01*
X010320Y007435D02*
X008874Y007435D01*
X009067Y007533D02*
X010372Y007533D01*
X008756Y008026D02*
X006441Y008026D01*
X006390Y007927D02*
X008564Y007927D01*
X008371Y007829D02*
X006291Y007829D01*
X006166Y007730D02*
X008178Y007730D01*
X007986Y007632D02*
X001605Y007632D01*
X001703Y007730D02*
X004420Y007730D01*
X004295Y007829D02*
X001802Y007829D01*
X001900Y007927D02*
X004196Y007927D01*
X004145Y008026D02*
X001999Y008026D01*
X002097Y008124D02*
X004104Y008124D01*
X004073Y008223D02*
X002196Y008223D01*
X002247Y008321D02*
X004073Y008321D01*
X004073Y008420D02*
X002270Y008420D01*
X002270Y008518D02*
X004090Y008518D01*
X004131Y008617D02*
X002270Y008617D01*
X002270Y008715D02*
X004172Y008715D01*
X004260Y008814D02*
X002270Y008814D01*
X002270Y008912D02*
X004359Y008912D01*
X004575Y009011D02*
X002270Y009011D01*
X002270Y009109D02*
X003040Y009109D01*
X002926Y009208D02*
X002270Y009208D01*
X002270Y009306D02*
X002882Y009306D01*
X002870Y009405D02*
X002270Y009405D01*
X002270Y009503D02*
X002885Y009503D01*
X002920Y009602D02*
X002270Y009602D01*
X002270Y009700D02*
X002920Y009700D01*
X002920Y009799D02*
X002270Y009799D01*
X002270Y009897D02*
X002920Y009897D01*
X002932Y009996D02*
X002270Y009996D01*
X002270Y010094D02*
X002977Y010094D01*
X003076Y010193D02*
X002270Y010193D01*
X002270Y010291D02*
X003174Y010291D01*
X003273Y010390D02*
X002270Y010390D01*
X002270Y010488D02*
X003371Y010488D01*
X003470Y010587D02*
X002930Y010587D01*
X003095Y010685D02*
X003568Y010685D01*
X003620Y010784D02*
X003192Y010784D01*
X003233Y010882D02*
X003620Y010882D01*
X003620Y010981D02*
X003270Y010981D01*
X003270Y011079D02*
X003620Y011079D01*
X003620Y011178D02*
X003270Y011178D01*
X003230Y011276D02*
X003620Y011276D01*
X003620Y011375D02*
X003186Y011375D01*
X003087Y011473D02*
X003620Y011473D01*
X003620Y011572D02*
X003080Y011572D01*
X003080Y011670D02*
X003620Y011670D01*
X003620Y011769D02*
X003080Y011769D01*
X003177Y011867D02*
X003620Y011867D01*
X003620Y011966D02*
X003226Y011966D01*
X003267Y012064D02*
X003620Y012064D01*
X003660Y012163D02*
X003270Y012163D01*
X003270Y012261D02*
X003744Y012261D01*
X003843Y012360D02*
X003236Y012360D01*
X003860Y012458D02*
X003941Y012458D01*
X003973Y012557D02*
X004040Y012557D01*
X004036Y012655D02*
X004138Y012655D01*
X004124Y012754D02*
X004077Y012754D01*
X004080Y012852D02*
X004083Y012852D01*
X003350Y012850D02*
X003350Y013350D01*
X003350Y013750D01*
X002980Y013400D02*
X002815Y013469D01*
X002689Y013595D01*
X002620Y013760D01*
X002620Y013940D01*
X002689Y014105D01*
X002815Y014231D01*
X002270Y014231D01*
X002270Y014133D02*
X002716Y014133D01*
X002659Y014034D02*
X002270Y014034D01*
X002270Y013936D02*
X002620Y013936D01*
X002620Y013837D02*
X002270Y013837D01*
X002270Y013739D02*
X002629Y013739D01*
X002670Y013640D02*
X002270Y013640D01*
X002270Y013542D02*
X002742Y013542D01*
X002877Y013443D02*
X002270Y013443D01*
X002270Y013345D02*
X003082Y013345D01*
X003082Y013300D02*
X002980Y013300D01*
X002815Y013231D01*
X002749Y013165D01*
X002663Y013130D01*
X002470Y012937D01*
X002420Y012816D01*
X002420Y012580D01*
X002309Y012470D01*
X002270Y012375D01*
X002270Y015198D01*
X003962Y016914D01*
X004014Y016965D01*
X004014Y016967D01*
X004015Y016968D01*
X004042Y017035D01*
X004070Y017101D01*
X004070Y017103D01*
X004070Y017104D01*
X004070Y017176D01*
X004070Y018427D01*
X004364Y018672D01*
X004374Y018662D01*
X004630Y018557D01*
X005956Y018557D01*
X006212Y018662D01*
X006407Y018858D01*
X006513Y019113D01*
X006513Y019390D01*
X006407Y019645D01*
X006212Y019841D01*
X005956Y019947D01*
X004630Y019947D01*
X004374Y019841D01*
X004179Y019645D01*
X004075Y019394D01*
X003506Y018920D01*
X003490Y018914D01*
X003450Y018873D01*
X003407Y018837D01*
X003399Y018822D01*
X003386Y018810D01*
X003365Y018757D01*
X003338Y018707D01*
X003337Y018690D01*
X003330Y018674D01*
X003330Y018617D01*
X003325Y018560D01*
X003330Y018544D01*
X003330Y017327D01*
X001638Y015611D01*
X001586Y015560D01*
X001586Y015558D01*
X001585Y015557D01*
X001558Y015490D01*
X001530Y015424D01*
X001530Y015422D01*
X001530Y015421D01*
X001530Y015349D01*
X001530Y012375D01*
X001491Y012470D01*
X001345Y012616D01*
X001153Y012695D01*
X000947Y012695D01*
X000755Y012616D01*
X000609Y012470D01*
X000530Y012278D01*
X000530Y012072D01*
X000609Y011880D01*
X000755Y011734D01*
X000947Y011655D01*
X001153Y011655D01*
X001345Y011734D01*
X001491Y011880D01*
X001530Y011975D01*
X001530Y011275D01*
X001491Y011370D01*
X001345Y011516D01*
X001153Y011595D01*
X000947Y011595D01*
X000755Y011516D01*
X000609Y011370D01*
X000530Y011178D01*
X000530Y010972D01*
X000609Y010780D01*
X000755Y010634D01*
X000947Y010555D01*
X001153Y010555D01*
X001345Y010634D01*
X001491Y010780D01*
X001530Y010875D01*
X001530Y008603D01*
X000740Y007814D01*
X000636Y007710D01*
X000580Y007574D01*
X000580Y004876D01*
X000636Y004740D01*
X000740Y004636D01*
X000876Y004580D01*
X000910Y004580D01*
X000755Y004516D01*
X000609Y004370D01*
X000530Y004178D01*
X000530Y003972D01*
X000609Y003780D01*
X000755Y003634D01*
X000947Y003555D01*
X001153Y003555D01*
X001345Y003634D01*
X001491Y003780D01*
X001570Y003972D01*
X001570Y004178D01*
X001491Y004370D01*
X001345Y004516D01*
X001190Y004580D01*
X003170Y004580D01*
X003170Y004348D01*
X003131Y004401D01*
X003076Y004456D01*
X003012Y004503D01*
X002942Y004538D01*
X002867Y004563D01*
X002798Y004574D01*
X002798Y004123D01*
X002702Y004123D01*
X002702Y004027D01*
X002798Y004027D01*
X002798Y003576D01*
X002867Y003587D01*
X002942Y003612D01*
X003012Y003647D01*
X003076Y003694D01*
X003131Y003749D01*
X003170Y003802D01*
X003170Y001658D01*
X003164Y001625D01*
X003170Y001593D01*
X003170Y001559D01*
X003183Y001529D01*
X003189Y001497D01*
X003207Y001469D01*
X003220Y001438D01*
X003244Y001415D01*
X003358Y001243D01*
X003343Y001243D01*
X003343Y001266D01*
X003209Y001400D01*
X003051Y001400D01*
X002972Y001479D01*
X002783Y001479D01*
X002704Y001400D01*
X002547Y001400D01*
X002413Y001266D01*
X002413Y001243D01*
X002389Y001243D01*
X002255Y001109D01*
X002255Y000984D01*
X000500Y000984D01*
X000500Y020369D01*
X002255Y020369D01*
X002255Y020245D01*
X002389Y020111D01*
X002413Y020111D01*
X002413Y020088D01*
X002547Y019954D01*
X002704Y019954D01*
X002783Y019875D01*
X002972Y019875D01*
X003051Y019954D01*
X003209Y019954D01*
X003343Y020088D01*
X003343Y020111D01*
X003366Y020111D01*
X003500Y020245D01*
X003500Y020369D01*
X010290Y020369D01*
X010188Y020318D01*
X007602Y019440D01*
X007592Y019440D01*
X007548Y019422D01*
X007502Y019406D01*
X007495Y019400D01*
X007486Y019396D01*
X007452Y019362D01*
X007415Y019330D01*
X007411Y019321D01*
X006414Y018324D01*
X006269Y018224D01*
X006212Y018282D01*
X005956Y018388D01*
X004630Y018388D01*
X004374Y018282D01*
X004179Y018086D01*
X004073Y017831D01*
X004073Y017554D01*
X004179Y017299D01*
X004374Y017103D01*
X004630Y016998D01*
X005956Y016998D01*
X006212Y017103D01*
X006407Y017299D01*
X006513Y017554D01*
X006513Y017688D01*
X006739Y017844D01*
X006764Y017854D01*
X006786Y017876D01*
X006812Y017894D01*
X006827Y017917D01*
X007807Y018897D01*
X010358Y019763D01*
X010378Y019765D01*
X010412Y019782D01*
X010448Y019794D01*
X010463Y019807D01*
X010681Y019916D01*
X010713Y019953D01*
X010837Y019990D01*
X012613Y019990D01*
X012144Y019440D01*
X011367Y019440D01*
X011327Y019445D01*
X011310Y019440D01*
X011292Y019440D01*
X011255Y019425D01*
X011216Y019414D01*
X011202Y019403D01*
X011186Y019396D01*
X011157Y019367D01*
X007525Y016515D01*
X006412Y016515D01*
X006407Y016527D01*
X006212Y016723D01*
X005956Y016828D01*
X004630Y016828D01*
X004374Y016723D01*
X004179Y016527D01*
X004073Y016272D01*
X004073Y015995D01*
X004179Y015740D01*
X004374Y015544D01*
X004630Y015438D01*
X005956Y015438D01*
X006212Y015544D01*
X006407Y015740D01*
X006488Y015935D01*
X007608Y015935D01*
X007648Y015930D01*
X007665Y015935D01*
X007683Y015935D01*
X007720Y015950D01*
X007759Y015961D01*
X007773Y015972D01*
X007789Y015979D01*
X007818Y016008D01*
X011450Y018860D01*
X012283Y018860D01*
X012389Y018904D01*
X012471Y018986D01*
X012515Y019092D01*
X012515Y019105D01*
X012772Y019405D01*
X012766Y019384D01*
X012755Y019302D01*
X013904Y019302D01*
X013904Y019202D01*
X012755Y019202D01*
X012766Y019120D01*
X012789Y019034D01*
X012823Y018952D01*
X012867Y018876D01*
X012921Y018806D01*
X012983Y018743D01*
X013000Y018730D01*
X012779Y018730D01*
X012683Y018770D01*
X011708Y018770D01*
X011671Y018775D01*
X011651Y018770D01*
X011630Y018770D01*
X011595Y018756D01*
X011559Y018746D01*
X011542Y018734D01*
X011523Y018726D01*
X011497Y018699D01*
X006440Y014890D01*
X006439Y014890D01*
X006407Y014968D01*
X006212Y015164D01*
X005956Y015269D01*
X004630Y015269D01*
X004374Y015164D01*
X004179Y014968D01*
X004073Y014713D01*
X004073Y014436D01*
X004179Y014181D01*
X004256Y014103D01*
X004216Y014120D01*
X003996Y014120D01*
X003885Y014231D01*
X004158Y014231D01*
X004117Y014330D02*
X002270Y014330D01*
X002270Y014428D02*
X004076Y014428D01*
X004073Y014527D02*
X002270Y014527D01*
X002270Y014625D02*
X004073Y014625D01*
X004077Y014724D02*
X002270Y014724D01*
X002270Y014822D02*
X004118Y014822D01*
X004159Y014921D02*
X002270Y014921D01*
X002270Y015019D02*
X004230Y015019D01*
X004328Y015118D02*
X002270Y015118D01*
X002288Y015216D02*
X004501Y015216D01*
X004453Y015512D02*
X002579Y015512D01*
X002676Y015610D02*
X004308Y015610D01*
X004210Y015709D02*
X002773Y015709D01*
X002870Y015807D02*
X004151Y015807D01*
X004110Y015906D02*
X002968Y015906D01*
X003065Y016004D02*
X004073Y016004D01*
X004073Y016103D02*
X003162Y016103D01*
X003259Y016201D02*
X004073Y016201D01*
X004084Y016300D02*
X003356Y016300D01*
X003453Y016398D02*
X004125Y016398D01*
X004166Y016497D02*
X003551Y016497D01*
X003648Y016595D02*
X004247Y016595D01*
X004345Y016694D02*
X003745Y016694D01*
X003842Y016792D02*
X004542Y016792D01*
X004412Y017088D02*
X004064Y017088D01*
X004070Y017186D02*
X004292Y017186D01*
X004193Y017285D02*
X004070Y017285D01*
X004070Y017383D02*
X004144Y017383D01*
X004103Y017482D02*
X004070Y017482D01*
X004070Y017580D02*
X004073Y017580D01*
X004070Y017679D02*
X004073Y017679D01*
X004070Y017777D02*
X004073Y017777D01*
X004070Y017876D02*
X004091Y017876D01*
X004070Y017974D02*
X004132Y017974D01*
X004173Y018073D02*
X004070Y018073D01*
X004070Y018171D02*
X004264Y018171D01*
X004362Y018270D02*
X004070Y018270D01*
X004070Y018368D02*
X004583Y018368D01*
X004609Y018565D02*
X004236Y018565D01*
X004118Y018467D02*
X006556Y018467D01*
X006655Y018565D02*
X005977Y018565D01*
X006003Y018368D02*
X006458Y018368D01*
X006335Y018270D02*
X006224Y018270D01*
X006786Y017876D02*
X009257Y017876D01*
X009132Y017777D02*
X006642Y017777D01*
X006513Y017679D02*
X009007Y017679D01*
X008881Y017580D02*
X006513Y017580D01*
X006483Y017482D02*
X008756Y017482D01*
X008630Y017383D02*
X006442Y017383D01*
X006393Y017285D02*
X008505Y017285D01*
X008379Y017186D02*
X006294Y017186D01*
X006173Y017088D02*
X008254Y017088D01*
X008128Y016989D02*
X004024Y016989D01*
X003939Y016891D02*
X008003Y016891D01*
X007878Y016792D02*
X006044Y016792D01*
X006241Y016694D02*
X007752Y016694D01*
X007627Y016595D02*
X006339Y016595D01*
X006476Y015906D02*
X007788Y015906D01*
X007814Y016004D02*
X007919Y016004D01*
X007939Y016103D02*
X008050Y016103D01*
X008064Y016201D02*
X008181Y016201D01*
X008189Y016300D02*
X008311Y016300D01*
X008315Y016398D02*
X008442Y016398D01*
X008440Y016497D02*
X008573Y016497D01*
X008566Y016595D02*
X008704Y016595D01*
X008691Y016694D02*
X008834Y016694D01*
X008817Y016792D02*
X008965Y016792D01*
X008942Y016891D02*
X009096Y016891D01*
X009068Y016989D02*
X009226Y016989D01*
X009193Y017088D02*
X009357Y017088D01*
X009318Y017186D02*
X009488Y017186D01*
X009444Y017285D02*
X009619Y017285D01*
X009569Y017383D02*
X009749Y017383D01*
X009695Y017482D02*
X009880Y017482D01*
X009820Y017580D02*
X010011Y017580D01*
X009946Y017679D02*
X010142Y017679D01*
X010071Y017777D02*
X010272Y017777D01*
X010197Y017876D02*
X010403Y017876D01*
X010322Y017974D02*
X010534Y017974D01*
X010447Y018073D02*
X010665Y018073D01*
X010573Y018171D02*
X010795Y018171D01*
X010698Y018270D02*
X010926Y018270D01*
X010824Y018368D02*
X011057Y018368D01*
X010949Y018467D02*
X011188Y018467D01*
X011075Y018565D02*
X011318Y018565D01*
X011200Y018664D02*
X011449Y018664D01*
X011326Y018762D02*
X011611Y018762D01*
X012284Y018861D02*
X012879Y018861D01*
X012820Y018959D02*
X012444Y018959D01*
X012501Y019058D02*
X012783Y019058D01*
X012761Y019156D02*
X012559Y019156D01*
X012643Y019255D02*
X013904Y019255D01*
X014004Y019255D02*
X021110Y019255D01*
X021110Y019347D02*
X021110Y019153D01*
X021185Y018972D01*
X021322Y018835D01*
X021503Y018760D01*
X021697Y018760D01*
X021878Y018835D01*
X022015Y018972D01*
X022090Y019153D01*
X022090Y019347D01*
X022015Y019528D01*
X021996Y019547D01*
X023766Y018732D01*
X023865Y018728D01*
X023924Y018750D01*
X026358Y018750D01*
X026188Y018679D01*
X026047Y018539D01*
X025971Y018355D01*
X025971Y018156D01*
X026047Y017972D01*
X026188Y017832D01*
X026371Y017756D01*
X027230Y017756D01*
X027414Y017832D01*
X027555Y017972D01*
X027631Y018156D01*
X027631Y018355D01*
X027555Y018539D01*
X027414Y018679D01*
X027244Y018750D01*
X027606Y018750D01*
X028030Y018496D01*
X029081Y017615D01*
X029108Y017588D01*
X029119Y017584D01*
X029128Y017576D01*
X029165Y017565D01*
X029200Y017550D01*
X029212Y017550D01*
X029223Y017547D01*
X029261Y017550D01*
X029620Y017550D01*
X030026Y017261D01*
X030047Y017241D01*
X030064Y017234D01*
X030079Y017222D01*
X030082Y017222D01*
X030084Y017220D01*
X030112Y017214D01*
X030139Y017203D01*
X030157Y017203D01*
X030521Y017112D01*
X030550Y017100D01*
X030569Y017100D01*
X030588Y017095D01*
X030618Y017100D01*
X031275Y017100D01*
X031367Y017138D01*
X031421Y017193D01*
X031513Y017231D01*
X031594Y017312D01*
X031638Y017418D01*
X031638Y017532D01*
X031594Y017638D01*
X031513Y017719D01*
X031407Y017763D01*
X031293Y017763D01*
X031187Y017719D01*
X031106Y017638D01*
X031090Y017600D01*
X030631Y017600D01*
X030316Y017679D01*
X030225Y017770D01*
X030225Y018525D01*
X030187Y018617D01*
X030117Y018687D01*
X029636Y019168D01*
X029596Y019264D01*
X029515Y019345D01*
X029515Y019683D01*
X029649Y019817D01*
X029725Y020001D01*
X029801Y019817D01*
X029935Y019683D01*
X029935Y019417D01*
X029979Y019311D01*
X030229Y019061D01*
X030311Y018979D01*
X030417Y018935D01*
X031621Y018935D01*
X032010Y018613D01*
X032010Y016848D01*
X031577Y016615D01*
X030352Y016615D01*
X030343Y016621D01*
X030312Y016628D01*
X030283Y016640D01*
X030256Y016640D01*
X030231Y016646D01*
X030199Y016640D01*
X030167Y016640D01*
X030143Y016630D01*
X029572Y016528D01*
X029639Y016594D01*
X029715Y016778D01*
X029715Y016977D01*
X029639Y017161D01*
X029499Y017301D01*
X029315Y017378D01*
X028456Y017378D01*
X028272Y017301D01*
X028132Y017161D01*
X028055Y016977D01*
X028055Y016778D01*
X028095Y016682D01*
X026650Y017553D01*
X026536Y017570D01*
X026532Y017569D01*
X025551Y018102D01*
X025542Y018112D01*
X025508Y018126D01*
X025476Y018143D01*
X025462Y018145D01*
X025450Y018150D01*
X025413Y018150D01*
X025377Y018154D01*
X025364Y018150D01*
X024992Y018150D01*
X024774Y018513D01*
X024762Y018542D01*
X024749Y018555D01*
X024739Y018571D01*
X024714Y018590D01*
X024692Y018612D01*
X024674Y018619D01*
X024659Y018630D01*
X024629Y018638D01*
X024600Y018650D01*
X024581Y018650D01*
X024562Y018655D01*
X024532Y018650D01*
X017529Y018650D01*
X016104Y018698D01*
X016100Y018700D01*
X016054Y018700D01*
X016009Y018702D01*
X016005Y018700D01*
X015409Y018700D01*
X015059Y018726D01*
X015050Y018730D01*
X015009Y018730D01*
X014969Y018733D01*
X014960Y018730D01*
X014908Y018730D01*
X014925Y018743D01*
X014988Y018806D01*
X015042Y018876D01*
X015086Y018952D01*
X015120Y019034D01*
X015143Y019120D01*
X015154Y019202D01*
X014004Y019202D01*
X014004Y019302D01*
X015154Y019302D01*
X015143Y019384D01*
X015120Y019469D01*
X015086Y019551D01*
X015042Y019627D01*
X014988Y019698D01*
X014965Y019720D01*
X021454Y019720D01*
X021322Y019665D01*
X021185Y019528D01*
X021110Y019347D01*
X021112Y019353D02*
X015147Y019353D01*
X015125Y019452D02*
X021153Y019452D01*
X021207Y019550D02*
X015086Y019550D01*
X015026Y019649D02*
X021306Y019649D01*
X021110Y019156D02*
X015148Y019156D01*
X015126Y019058D02*
X021149Y019058D01*
X021198Y018959D02*
X015089Y018959D01*
X015030Y018861D02*
X021296Y018861D01*
X021498Y018762D02*
X014944Y018762D01*
X015697Y017416D02*
X016270Y017670D01*
X018109Y017670D01*
X014847Y016733D01*
X014618Y016828D01*
X013291Y016828D01*
X013036Y016723D01*
X012840Y016527D01*
X012734Y016272D01*
X012734Y015995D01*
X012840Y015740D01*
X012920Y015660D01*
X012813Y015660D01*
X012759Y015681D01*
X012628Y015679D01*
X012508Y015626D01*
X011040Y014100D01*
X006326Y014100D01*
X006407Y014181D01*
X006461Y014310D01*
X006517Y014310D01*
X006554Y014305D01*
X006574Y014310D01*
X006595Y014310D01*
X006630Y014324D01*
X006666Y014334D01*
X006682Y014346D01*
X006702Y014354D01*
X006728Y014381D01*
X011784Y018190D01*
X012683Y018190D01*
X012779Y018230D01*
X012984Y018230D01*
X012840Y018086D01*
X012734Y017831D01*
X012734Y017554D01*
X012840Y017299D01*
X013036Y017103D01*
X013291Y016998D01*
X014618Y016998D01*
X014873Y017103D01*
X015069Y017299D01*
X015095Y017363D01*
X015446Y017363D01*
X015450Y017361D01*
X015512Y017363D01*
X015573Y017363D01*
X015577Y017364D01*
X015581Y017364D01*
X015638Y017389D01*
X015694Y017413D01*
X015697Y017416D01*
X015624Y017383D02*
X017110Y017383D01*
X016767Y017285D02*
X015054Y017285D01*
X014956Y017186D02*
X016424Y017186D01*
X016081Y017088D02*
X014835Y017088D01*
X014706Y016792D02*
X015052Y016792D01*
X015395Y016891D02*
X010060Y016891D01*
X010190Y016989D02*
X015738Y016989D01*
X015846Y017482D02*
X017453Y017482D01*
X017796Y017580D02*
X016067Y017580D01*
X017130Y018664D02*
X026172Y018664D01*
X026073Y018565D02*
X024743Y018565D01*
X024802Y018467D02*
X026017Y018467D01*
X025976Y018368D02*
X024861Y018368D01*
X024920Y018270D02*
X025971Y018270D01*
X025971Y018171D02*
X024979Y018171D01*
X024573Y017876D02*
X023464Y017876D01*
X023430Y017959D02*
X023430Y018066D01*
X023395Y018150D01*
X024408Y018150D01*
X024626Y017787D01*
X024638Y017758D01*
X024651Y017745D01*
X024661Y017729D01*
X024686Y017710D01*
X024708Y017688D01*
X024726Y017681D01*
X024741Y017670D01*
X024771Y017662D01*
X024800Y017650D01*
X024819Y017650D01*
X024838Y017645D01*
X024868Y017650D01*
X025336Y017650D01*
X026299Y017127D01*
X026351Y017056D01*
X028195Y015945D01*
X028211Y015929D01*
X028244Y015915D01*
X028275Y015897D01*
X028297Y015894D01*
X028317Y015885D01*
X028353Y015885D01*
X028389Y015880D01*
X028410Y015885D01*
X029219Y015885D01*
X029244Y015879D01*
X029276Y015885D01*
X029308Y015885D01*
X029332Y015895D01*
X030168Y016045D01*
X030192Y016035D01*
X031607Y016035D01*
X031622Y016031D01*
X031665Y016035D01*
X031708Y016035D01*
X031722Y016041D01*
X031737Y016042D01*
X031775Y016063D01*
X031814Y016079D01*
X031825Y016090D01*
X032425Y016413D01*
X032464Y016429D01*
X032475Y016440D01*
X032488Y016447D01*
X032515Y016480D01*
X032546Y016511D01*
X032552Y016525D01*
X032561Y016536D01*
X032574Y016578D01*
X032590Y016617D01*
X032590Y016632D01*
X032594Y016647D01*
X032590Y016690D01*
X032590Y018707D01*
X032594Y018720D01*
X032590Y018764D01*
X032590Y018808D01*
X032585Y018821D01*
X032583Y018835D01*
X032563Y018874D01*
X032546Y018914D01*
X032536Y018924D01*
X032529Y018937D01*
X032495Y018965D01*
X032464Y018996D01*
X032451Y019001D01*
X031920Y019440D01*
X031889Y019471D01*
X031876Y019476D01*
X031865Y019485D01*
X031823Y019498D01*
X031783Y019515D01*
X031768Y019515D01*
X031755Y019519D01*
X031711Y019515D01*
X030595Y019515D01*
X030515Y019595D01*
X030515Y019683D01*
X030649Y019817D01*
X030725Y020001D01*
X030801Y019817D01*
X030942Y019676D01*
X031126Y019600D01*
X031324Y019600D01*
X031508Y019676D01*
X031528Y019696D01*
X032487Y019487D01*
X033161Y018701D01*
X033200Y014916D01*
X033085Y015031D01*
X032920Y015100D01*
X032180Y015100D01*
X032015Y015031D01*
X031889Y014905D01*
X031820Y014740D01*
X031820Y014560D01*
X031889Y014395D01*
X032015Y014269D01*
X032180Y014200D01*
X032920Y014200D01*
X033085Y014269D01*
X033206Y014390D01*
X033208Y014201D01*
X032926Y014097D01*
X032920Y014100D01*
X032180Y014100D01*
X032015Y014031D01*
X031924Y013940D01*
X030421Y013940D01*
X030386Y013945D01*
X030364Y013940D01*
X030342Y013940D01*
X030309Y013926D01*
X029767Y013791D01*
X029747Y013791D01*
X029711Y013777D01*
X029674Y013767D01*
X029658Y013756D01*
X029640Y013749D01*
X029612Y013722D01*
X029581Y013699D01*
X029571Y013682D01*
X028111Y012271D01*
X028126Y012295D01*
X028131Y012320D01*
X028140Y012342D01*
X028140Y012376D01*
X028146Y012409D01*
X028140Y012433D01*
X028140Y013158D01*
X028096Y013264D01*
X028014Y013346D01*
X027612Y013748D01*
X027580Y013784D01*
X027571Y013789D01*
X027564Y013796D01*
X027559Y013798D01*
X027295Y014194D01*
X027206Y014254D01*
X027198Y014256D01*
X026929Y014525D01*
X026476Y015000D01*
X027230Y015000D01*
X027414Y015076D01*
X027555Y015216D01*
X027631Y015400D01*
X027631Y015599D01*
X027555Y015783D01*
X027414Y015923D01*
X027230Y016000D01*
X026371Y016000D01*
X026188Y015923D01*
X026047Y015783D01*
X025971Y015599D01*
X025971Y015528D01*
X025914Y015588D01*
X025790Y015898D01*
X025790Y016008D01*
X025746Y016114D01*
X025328Y016533D01*
X025389Y016594D01*
X025465Y016778D01*
X025465Y016977D01*
X025389Y017161D01*
X025249Y017301D01*
X025065Y017378D01*
X024206Y017378D01*
X024022Y017301D01*
X023882Y017161D01*
X023818Y017007D01*
X023430Y017959D01*
X023430Y017974D02*
X024514Y017974D01*
X024455Y018073D02*
X023427Y018073D01*
X023504Y017777D02*
X024630Y017777D01*
X024729Y017679D02*
X023544Y017679D01*
X023584Y017580D02*
X025465Y017580D01*
X025646Y017482D02*
X023625Y017482D01*
X023665Y017383D02*
X025828Y017383D01*
X026009Y017285D02*
X025266Y017285D01*
X025364Y017186D02*
X026190Y017186D01*
X026328Y017088D02*
X025420Y017088D01*
X025460Y016989D02*
X026463Y016989D01*
X026626Y016891D02*
X025465Y016891D01*
X025465Y016792D02*
X026789Y016792D01*
X026953Y016694D02*
X025430Y016694D01*
X025390Y016595D02*
X027116Y016595D01*
X027280Y016497D02*
X025364Y016497D01*
X025462Y016398D02*
X027443Y016398D01*
X027607Y016300D02*
X025561Y016300D01*
X025659Y016201D02*
X027770Y016201D01*
X027933Y016103D02*
X025751Y016103D01*
X025790Y016004D02*
X028097Y016004D01*
X028260Y015906D02*
X027432Y015906D01*
X027530Y015807D02*
X030321Y015807D01*
X030297Y015783D02*
X030221Y015599D01*
X030221Y015400D01*
X030297Y015216D01*
X027554Y015216D01*
X027595Y015315D02*
X030256Y015315D01*
X030221Y015413D02*
X027631Y015413D01*
X027631Y015512D02*
X030221Y015512D01*
X030225Y015610D02*
X027626Y015610D01*
X027585Y015709D02*
X030266Y015709D01*
X030297Y015783D02*
X030438Y015923D01*
X030621Y016000D01*
X031480Y016000D01*
X031664Y015923D01*
X031805Y015783D01*
X031881Y015599D01*
X031881Y015400D01*
X031805Y015216D01*
X031664Y015076D01*
X031480Y015000D01*
X030621Y015000D01*
X030438Y015076D01*
X030297Y015216D01*
X030396Y015118D02*
X027456Y015118D01*
X027277Y015019D02*
X030574Y015019D01*
X031527Y015019D02*
X032003Y015019D01*
X031904Y014921D02*
X026551Y014921D01*
X026645Y014822D02*
X031854Y014822D01*
X031820Y014724D02*
X026739Y014724D01*
X026833Y014625D02*
X031820Y014625D01*
X031834Y014527D02*
X029518Y014527D01*
X029499Y014546D02*
X029315Y014622D01*
X028456Y014622D01*
X028272Y014546D01*
X028132Y014405D01*
X028055Y014221D01*
X028055Y014022D01*
X028132Y013838D01*
X028272Y013698D01*
X028456Y013622D01*
X029315Y013622D01*
X029499Y013698D01*
X029639Y013838D01*
X029715Y014022D01*
X029715Y014221D01*
X029639Y014405D01*
X029499Y014546D01*
X029616Y014428D02*
X031875Y014428D01*
X031954Y014330D02*
X029671Y014330D01*
X029711Y014231D02*
X032106Y014231D01*
X032021Y014034D02*
X029715Y014034D01*
X029715Y014133D02*
X033021Y014133D01*
X032994Y014231D02*
X033208Y014231D01*
X033207Y014330D02*
X033146Y014330D01*
X033787Y014330D02*
X034000Y014330D01*
X034000Y014428D02*
X033786Y014428D01*
X033785Y014527D02*
X034000Y014527D01*
X034000Y014600D02*
X034000Y013492D01*
X033997Y013485D01*
X034000Y013443D01*
X033231Y013443D01*
X033211Y013395D02*
X033280Y013560D01*
X033280Y013610D01*
X033553Y013711D01*
X033561Y013711D01*
X033607Y013730D01*
X033654Y013748D01*
X033660Y013753D01*
X033667Y013756D01*
X033702Y013792D01*
X033739Y013826D01*
X033742Y013833D01*
X033748Y013838D01*
X033766Y013885D01*
X033787Y013931D01*
X033788Y013938D01*
X033791Y013945D01*
X033790Y013996D01*
X033792Y014046D01*
X033789Y014053D01*
X033740Y018800D01*
X033744Y018846D01*
X033740Y018858D01*
X033739Y018871D01*
X033722Y018912D01*
X033708Y018955D01*
X033699Y018965D01*
X033694Y018977D01*
X033662Y019008D01*
X032923Y019869D01*
X032913Y019923D01*
X032842Y020033D01*
X032734Y020108D01*
X031666Y020342D01*
X031655Y020369D01*
X033279Y020369D01*
X033279Y020245D01*
X033413Y020111D01*
X033436Y020111D01*
X033436Y020088D01*
X033570Y019954D01*
X033728Y019954D01*
X033806Y019875D01*
X033996Y019875D01*
X034075Y019954D01*
X034232Y019954D01*
X034366Y020088D01*
X034366Y020111D01*
X034390Y020111D01*
X034524Y020245D01*
X034524Y020369D01*
X035995Y020369D01*
X035995Y003025D01*
X035883Y003137D01*
X035670Y003225D01*
X035439Y003225D01*
X035226Y003137D01*
X035063Y002974D01*
X034975Y002761D01*
X034975Y002530D01*
X035063Y002317D01*
X035184Y002196D01*
X035127Y002172D01*
X035028Y002073D01*
X035025Y002067D01*
X034945Y002100D01*
X034805Y002100D01*
X034677Y002047D01*
X034578Y001948D01*
X034536Y001847D01*
X034470Y001875D01*
X034330Y001875D01*
X034202Y001822D01*
X034103Y001723D01*
X034050Y001595D01*
X034050Y001486D01*
X034013Y001486D01*
X033884Y001432D01*
X033786Y001334D01*
X033732Y001205D01*
X033732Y001066D01*
X033766Y000984D01*
X032526Y000984D01*
X032526Y001316D01*
X032500Y001343D01*
X032500Y002371D01*
X032471Y002400D01*
X028440Y002400D01*
X028771Y002598D01*
X029315Y002598D01*
X029499Y002674D01*
X029639Y002815D01*
X029715Y002999D01*
X029715Y003197D01*
X029639Y003381D01*
X029499Y003522D01*
X029315Y003598D01*
X028456Y003598D01*
X028448Y003595D01*
X028862Y004008D01*
X028900Y004100D01*
X028900Y004200D01*
X028900Y004800D01*
X028862Y004892D01*
X028792Y004962D01*
X028360Y005394D01*
X028456Y005354D01*
X029315Y005354D01*
X029499Y005430D01*
X029639Y005571D01*
X029715Y005754D01*
X029715Y005953D01*
X029639Y006137D01*
X029499Y006278D01*
X029315Y006354D01*
X028507Y006354D01*
X028762Y006608D01*
X028800Y006700D01*
X028800Y006846D01*
X029897Y007944D01*
X029625Y007535D01*
X028904Y006814D01*
X028860Y006708D01*
X028860Y006592D01*
X028904Y006486D01*
X028986Y006404D01*
X029092Y006360D01*
X029208Y006360D01*
X029304Y006400D01*
X029405Y006400D01*
X030000Y006177D01*
X030000Y005642D01*
X029466Y005020D01*
X029438Y004992D01*
X029434Y004982D01*
X029428Y004975D01*
X029415Y004937D01*
X029400Y004900D01*
X029400Y004890D01*
X029397Y004880D01*
X029400Y004840D01*
X029400Y003880D01*
X029395Y003860D01*
X029400Y003830D01*
X029400Y003800D01*
X029408Y003782D01*
X029411Y003762D01*
X029427Y003736D01*
X029438Y003708D01*
X029452Y003694D01*
X029463Y003677D01*
X029487Y003659D01*
X029508Y003638D01*
X029527Y003630D01*
X030500Y002923D01*
X030500Y002899D01*
X030462Y002807D01*
X030462Y002693D01*
X030506Y002587D01*
X030587Y002506D01*
X030693Y002462D01*
X030807Y002462D01*
X030913Y002506D01*
X030994Y002587D01*
X031038Y002693D01*
X031038Y002807D01*
X031000Y002899D01*
X031000Y003020D01*
X031005Y003040D01*
X031000Y003070D01*
X031000Y003100D01*
X030992Y003118D01*
X030989Y003138D01*
X030973Y003164D01*
X030962Y003192D01*
X030948Y003206D01*
X030937Y003223D01*
X030913Y003241D01*
X030892Y003262D01*
X030873Y003270D01*
X030609Y003462D01*
X030613Y003462D01*
X030654Y003454D01*
X030689Y003462D01*
X030707Y003462D01*
X030726Y003470D01*
X030767Y003478D01*
X030797Y003499D01*
X030813Y003506D01*
X030828Y003520D01*
X030862Y003544D01*
X030882Y003574D01*
X030894Y003587D01*
X030902Y003606D01*
X030925Y003641D01*
X030931Y003676D01*
X030938Y003693D01*
X030938Y003713D01*
X030946Y003754D01*
X030938Y003789D01*
X030938Y003807D01*
X030930Y003826D01*
X030922Y003867D01*
X030901Y003897D01*
X030894Y003913D01*
X030880Y003928D01*
X030856Y003962D01*
X030835Y003976D01*
X031480Y003976D01*
X031664Y004052D01*
X031805Y004193D01*
X031863Y004333D01*
X031898Y004368D01*
X032771Y005241D01*
X032771Y005026D01*
X032871Y004927D01*
X034429Y004927D01*
X034495Y004993D01*
X034460Y004908D01*
X034460Y004900D01*
X034334Y004900D01*
X034235Y004800D01*
X034235Y004765D01*
X034012Y004765D01*
X033991Y004770D01*
X033954Y004765D01*
X033917Y004765D01*
X033898Y004757D01*
X033462Y004695D01*
X033383Y004774D01*
X033199Y004850D01*
X033001Y004850D01*
X032817Y004774D01*
X032676Y004633D01*
X032600Y004449D01*
X032600Y004251D01*
X032676Y004067D01*
X032817Y003926D01*
X033001Y003850D01*
X033199Y003850D01*
X033383Y003926D01*
X033524Y004067D01*
X033546Y004121D01*
X033996Y004185D01*
X034235Y004185D01*
X034235Y004148D01*
X034297Y004086D01*
X034285Y004074D01*
X034265Y004040D01*
X034255Y004002D01*
X034255Y003776D01*
X034650Y003776D01*
X034650Y003676D01*
X034255Y003676D01*
X034255Y003450D01*
X034265Y003412D01*
X034285Y003378D01*
X034313Y003350D01*
X034347Y003330D01*
X034385Y003320D01*
X034650Y003320D01*
X034650Y003676D01*
X034750Y003676D01*
X034750Y003776D01*
X035145Y003776D01*
X035145Y004002D01*
X035135Y004040D01*
X035115Y004074D01*
X035103Y004086D01*
X035165Y004148D01*
X035165Y004800D01*
X035138Y004828D01*
X035216Y004906D01*
X035260Y005012D01*
X035260Y006758D01*
X035216Y006864D01*
X035134Y006946D01*
X034850Y007230D01*
X034850Y007360D01*
X034870Y007360D01*
X034970Y007460D01*
X034970Y008480D01*
X034870Y008580D01*
X034563Y008580D01*
X034480Y008768D01*
X034462Y008812D01*
X034460Y008814D01*
X034458Y008817D01*
X034425Y008849D01*
X034424Y008850D01*
X035600Y008850D01*
X035692Y008888D01*
X035762Y008958D01*
X035800Y009050D01*
X035800Y012958D01*
X035803Y012965D01*
X035800Y013007D01*
X035800Y013050D01*
X035797Y013057D01*
X035797Y013064D01*
X035778Y013103D01*
X035762Y013142D01*
X035757Y013147D01*
X035753Y013154D01*
X035722Y013182D01*
X035692Y013212D01*
X035685Y013215D01*
X035679Y013220D01*
X035639Y013234D01*
X035600Y013250D01*
X035592Y013250D01*
X034880Y013497D01*
X034938Y013553D01*
X034959Y013601D01*
X034994Y013637D01*
X035038Y013743D01*
X035038Y013857D01*
X034994Y013963D01*
X034988Y013969D01*
X034989Y014015D01*
X034990Y014017D01*
X034990Y014073D01*
X034991Y014128D01*
X034990Y014130D01*
X034990Y019553D01*
X035078Y019670D01*
X035094Y019687D01*
X035099Y019699D01*
X035117Y019722D01*
X035129Y019771D01*
X035138Y019793D01*
X035138Y019806D01*
X035145Y019834D01*
X035138Y019884D01*
X035138Y019907D01*
X035133Y019920D01*
X035129Y019948D01*
X035103Y019992D01*
X035094Y020013D01*
X035085Y020023D01*
X035070Y020047D01*
X035030Y020078D01*
X035013Y020094D01*
X035001Y020099D01*
X034978Y020117D01*
X034929Y020129D01*
X034907Y020138D01*
X034894Y020138D01*
X034866Y020145D01*
X034816Y020138D01*
X034793Y020138D01*
X034780Y020133D01*
X034752Y020129D01*
X034708Y020103D01*
X034687Y020094D01*
X034677Y020085D01*
X034653Y020070D01*
X034622Y020030D01*
X034606Y020013D01*
X034601Y020001D01*
X034480Y019840D01*
X034454Y019814D01*
X034446Y019795D01*
X034433Y019778D01*
X034424Y019742D01*
X034410Y019708D01*
X034410Y019687D01*
X034405Y019666D01*
X034410Y019629D01*
X034410Y019280D01*
X034396Y019314D01*
X034114Y019596D01*
X034008Y019640D01*
X033892Y019640D01*
X033786Y019596D01*
X033704Y019514D01*
X033660Y019408D01*
X033660Y019292D01*
X033704Y019186D01*
X033986Y018904D01*
X034082Y018864D01*
X034100Y018846D01*
X034100Y014754D01*
X034038Y014692D01*
X034000Y014600D01*
X034010Y014625D02*
X033784Y014625D01*
X033782Y014724D02*
X034070Y014724D01*
X034100Y014822D02*
X033781Y014822D01*
X033780Y014921D02*
X034100Y014921D01*
X034100Y015019D02*
X033779Y015019D01*
X033778Y015118D02*
X034100Y015118D01*
X034100Y015216D02*
X033777Y015216D01*
X033776Y015315D02*
X034100Y015315D01*
X034100Y015413D02*
X033775Y015413D01*
X033774Y015512D02*
X034100Y015512D01*
X034100Y015610D02*
X033773Y015610D01*
X033772Y015709D02*
X034100Y015709D01*
X034100Y015807D02*
X033771Y015807D01*
X033770Y015906D02*
X034100Y015906D01*
X034100Y016004D02*
X033769Y016004D01*
X033768Y016103D02*
X034100Y016103D01*
X034100Y016201D02*
X033767Y016201D01*
X033766Y016300D02*
X034100Y016300D01*
X034100Y016398D02*
X033765Y016398D01*
X033764Y016497D02*
X034100Y016497D01*
X034100Y016595D02*
X033763Y016595D01*
X033762Y016694D02*
X034100Y016694D01*
X034100Y016792D02*
X033761Y016792D01*
X033760Y016891D02*
X034100Y016891D01*
X034100Y016989D02*
X033759Y016989D01*
X033758Y017088D02*
X034100Y017088D01*
X034100Y017186D02*
X033757Y017186D01*
X033756Y017285D02*
X034100Y017285D01*
X034100Y017383D02*
X033755Y017383D01*
X033754Y017482D02*
X034100Y017482D01*
X034100Y017580D02*
X033753Y017580D01*
X033752Y017679D02*
X034100Y017679D01*
X034100Y017777D02*
X033751Y017777D01*
X033750Y017876D02*
X034100Y017876D01*
X034100Y017974D02*
X033749Y017974D01*
X033748Y018073D02*
X034100Y018073D01*
X034100Y018171D02*
X033747Y018171D01*
X033746Y018270D02*
X034100Y018270D01*
X034100Y018368D02*
X033745Y018368D01*
X033744Y018467D02*
X034100Y018467D01*
X034100Y018565D02*
X033743Y018565D01*
X033742Y018664D02*
X034100Y018664D01*
X034100Y018762D02*
X033741Y018762D01*
X033739Y018861D02*
X034086Y018861D01*
X033931Y018959D02*
X033704Y018959D01*
X033620Y019058D02*
X033832Y019058D01*
X033734Y019156D02*
X033535Y019156D01*
X033451Y019255D02*
X033676Y019255D01*
X033660Y019353D02*
X033366Y019353D01*
X033281Y019452D02*
X033678Y019452D01*
X033740Y019550D02*
X033197Y019550D01*
X033112Y019649D02*
X034407Y019649D01*
X034410Y019550D02*
X034160Y019550D01*
X034259Y019452D02*
X034410Y019452D01*
X034410Y019353D02*
X034357Y019353D01*
X034990Y019353D02*
X035995Y019353D01*
X035995Y019255D02*
X034990Y019255D01*
X034990Y019156D02*
X035995Y019156D01*
X035995Y019058D02*
X034990Y019058D01*
X034990Y018959D02*
X035995Y018959D01*
X035995Y018861D02*
X034990Y018861D01*
X034990Y018762D02*
X035995Y018762D01*
X035995Y018664D02*
X034990Y018664D01*
X034990Y018565D02*
X035995Y018565D01*
X035995Y018467D02*
X034990Y018467D01*
X034990Y018368D02*
X035995Y018368D01*
X035995Y018270D02*
X034990Y018270D01*
X034990Y018171D02*
X035995Y018171D01*
X035995Y018073D02*
X034990Y018073D01*
X034990Y017974D02*
X035995Y017974D01*
X035995Y017876D02*
X034990Y017876D01*
X034990Y017777D02*
X035995Y017777D01*
X035995Y017679D02*
X034990Y017679D01*
X034990Y017580D02*
X035995Y017580D01*
X035995Y017482D02*
X034990Y017482D01*
X034990Y017383D02*
X035995Y017383D01*
X035995Y017285D02*
X034990Y017285D01*
X034990Y017186D02*
X035995Y017186D01*
X035995Y017088D02*
X034990Y017088D01*
X034990Y016989D02*
X035995Y016989D01*
X035995Y016891D02*
X034990Y016891D01*
X034990Y016792D02*
X035995Y016792D01*
X035995Y016694D02*
X034990Y016694D01*
X034990Y016595D02*
X035995Y016595D01*
X035995Y016497D02*
X034990Y016497D01*
X034990Y016398D02*
X035995Y016398D01*
X035995Y016300D02*
X034990Y016300D01*
X034990Y016201D02*
X035995Y016201D01*
X035995Y016103D02*
X034990Y016103D01*
X034990Y016004D02*
X035995Y016004D01*
X035995Y015906D02*
X034990Y015906D01*
X034990Y015807D02*
X035995Y015807D01*
X035995Y015709D02*
X034990Y015709D01*
X034990Y015610D02*
X035995Y015610D01*
X035995Y015512D02*
X034990Y015512D01*
X034990Y015413D02*
X035995Y015413D01*
X035995Y015315D02*
X034990Y015315D01*
X034990Y015216D02*
X035995Y015216D01*
X035995Y015118D02*
X034990Y015118D01*
X034990Y015019D02*
X035995Y015019D01*
X035995Y014921D02*
X034990Y014921D01*
X034990Y014822D02*
X035995Y014822D01*
X035995Y014724D02*
X034990Y014724D01*
X034990Y014625D02*
X035995Y014625D01*
X035995Y014527D02*
X034990Y014527D01*
X034990Y014428D02*
X035995Y014428D01*
X035995Y014330D02*
X034990Y014330D01*
X034990Y014231D02*
X035995Y014231D01*
X035995Y014133D02*
X034990Y014133D01*
X034990Y014034D02*
X035995Y014034D01*
X035995Y013936D02*
X035006Y013936D01*
X035038Y013837D02*
X035995Y013837D01*
X035995Y013739D02*
X035036Y013739D01*
X034996Y013640D02*
X035995Y013640D01*
X035995Y013542D02*
X034926Y013542D01*
X035034Y013443D02*
X035995Y013443D01*
X035995Y013345D02*
X035319Y013345D01*
X035609Y013246D02*
X035995Y013246D01*
X035995Y013148D02*
X035756Y013148D01*
X035800Y013049D02*
X035995Y013049D01*
X035995Y012951D02*
X035800Y012951D01*
X035800Y012852D02*
X035995Y012852D01*
X035995Y012754D02*
X035800Y012754D01*
X035800Y012655D02*
X035995Y012655D01*
X035995Y012557D02*
X035800Y012557D01*
X035800Y012458D02*
X035995Y012458D01*
X035995Y012360D02*
X035800Y012360D01*
X035800Y012261D02*
X035995Y012261D01*
X035995Y012163D02*
X035800Y012163D01*
X035800Y012064D02*
X035995Y012064D01*
X035995Y011966D02*
X035800Y011966D01*
X035800Y011867D02*
X035995Y011867D01*
X035995Y011769D02*
X035800Y011769D01*
X035800Y011670D02*
X035995Y011670D01*
X035995Y011572D02*
X035800Y011572D01*
X035800Y011473D02*
X035995Y011473D01*
X035995Y011375D02*
X035800Y011375D01*
X035800Y011276D02*
X035995Y011276D01*
X035995Y011178D02*
X035800Y011178D01*
X035800Y011079D02*
X035995Y011079D01*
X035995Y010981D02*
X035800Y010981D01*
X035800Y010882D02*
X035995Y010882D01*
X035995Y010784D02*
X035800Y010784D01*
X035800Y010685D02*
X035995Y010685D01*
X035995Y010587D02*
X035800Y010587D01*
X035800Y010488D02*
X035995Y010488D01*
X035995Y010390D02*
X035800Y010390D01*
X035800Y010291D02*
X035995Y010291D01*
X035995Y010193D02*
X035800Y010193D01*
X035800Y010094D02*
X035995Y010094D01*
X035995Y009996D02*
X035800Y009996D01*
X035800Y009897D02*
X035995Y009897D01*
X035995Y009799D02*
X035800Y009799D01*
X035800Y009700D02*
X035995Y009700D01*
X035995Y009602D02*
X035800Y009602D01*
X035800Y009503D02*
X035995Y009503D01*
X035995Y009405D02*
X035800Y009405D01*
X035800Y009306D02*
X035995Y009306D01*
X035995Y009208D02*
X035800Y009208D01*
X035800Y009109D02*
X035995Y009109D01*
X035995Y009011D02*
X035784Y009011D01*
X035716Y008912D02*
X035995Y008912D01*
X035995Y008814D02*
X034460Y008814D01*
X034503Y008715D02*
X035995Y008715D01*
X035995Y008617D02*
X034547Y008617D01*
X034932Y008518D02*
X035995Y008518D01*
X035995Y008420D02*
X034970Y008420D01*
X034970Y008321D02*
X035995Y008321D01*
X035995Y008223D02*
X034970Y008223D01*
X034970Y008124D02*
X035995Y008124D01*
X035995Y008026D02*
X034970Y008026D01*
X034970Y007927D02*
X035995Y007927D01*
X035995Y007829D02*
X034970Y007829D01*
X034970Y007730D02*
X035995Y007730D01*
X035995Y007632D02*
X034970Y007632D01*
X034970Y007533D02*
X035995Y007533D01*
X035995Y007435D02*
X034945Y007435D01*
X034850Y007336D02*
X035995Y007336D01*
X035995Y007238D02*
X034850Y007238D01*
X034941Y007139D02*
X035995Y007139D01*
X035995Y007041D02*
X035040Y007041D01*
X035138Y006942D02*
X035995Y006942D01*
X035995Y006844D02*
X035224Y006844D01*
X035260Y006745D02*
X035995Y006745D01*
X035995Y006647D02*
X035260Y006647D01*
X035260Y006548D02*
X035995Y006548D01*
X035995Y006450D02*
X035260Y006450D01*
X035260Y006351D02*
X035995Y006351D01*
X035995Y006253D02*
X035260Y006253D01*
X035260Y006154D02*
X035995Y006154D01*
X035995Y006056D02*
X035260Y006056D01*
X035260Y005957D02*
X035995Y005957D01*
X035995Y005859D02*
X035260Y005859D01*
X035260Y005760D02*
X035995Y005760D01*
X035995Y005662D02*
X035260Y005662D01*
X035260Y005563D02*
X035995Y005563D01*
X035995Y005465D02*
X035260Y005465D01*
X035260Y005366D02*
X035995Y005366D01*
X035995Y005268D02*
X035260Y005268D01*
X035260Y005169D02*
X035995Y005169D01*
X035995Y005071D02*
X035260Y005071D01*
X035243Y004972D02*
X035995Y004972D01*
X035995Y004874D02*
X035184Y004874D01*
X035165Y004775D02*
X035995Y004775D01*
X035995Y004677D02*
X035165Y004677D01*
X035165Y004578D02*
X035995Y004578D01*
X035995Y004480D02*
X035165Y004480D01*
X035165Y004381D02*
X035995Y004381D01*
X035995Y004283D02*
X035165Y004283D01*
X035165Y004184D02*
X035995Y004184D01*
X035995Y004086D02*
X035104Y004086D01*
X035145Y003987D02*
X035995Y003987D01*
X035995Y003889D02*
X035145Y003889D01*
X035145Y003790D02*
X035995Y003790D01*
X035995Y003692D02*
X034750Y003692D01*
X034750Y003676D02*
X035145Y003676D01*
X035145Y003450D01*
X035135Y003412D01*
X035115Y003378D01*
X035087Y003350D01*
X035053Y003330D01*
X035015Y003320D01*
X034750Y003320D01*
X034750Y003676D01*
X034750Y003593D02*
X034650Y003593D01*
X034650Y003495D02*
X034750Y003495D01*
X034750Y003396D02*
X034650Y003396D01*
X034650Y003692D02*
X033437Y003692D01*
X033413Y003716D02*
X033466Y003663D01*
X033511Y003602D01*
X033545Y003534D01*
X033568Y003462D01*
X033578Y003398D01*
X033148Y003398D01*
X033148Y003302D01*
X033578Y003302D01*
X033568Y003238D01*
X033545Y003166D01*
X033511Y003098D01*
X033466Y003037D01*
X033413Y002984D01*
X033352Y002939D01*
X033284Y002905D01*
X033212Y002882D01*
X033148Y002872D01*
X033148Y003302D01*
X033052Y003302D01*
X033052Y002872D01*
X032988Y002882D01*
X032916Y002905D01*
X032848Y002939D01*
X032787Y002984D01*
X032734Y003037D01*
X032689Y003098D01*
X032655Y003166D01*
X032632Y003238D01*
X032622Y003302D01*
X033052Y003302D01*
X033052Y003398D01*
X032622Y003398D01*
X032632Y003462D01*
X032655Y003534D01*
X032689Y003602D01*
X032734Y003663D01*
X032787Y003716D01*
X032848Y003761D01*
X032916Y003795D01*
X032988Y003818D01*
X033052Y003828D01*
X033052Y003398D01*
X033148Y003398D01*
X033148Y003828D01*
X033212Y003818D01*
X033284Y003795D01*
X033352Y003761D01*
X033413Y003716D01*
X033294Y003790D02*
X034255Y003790D01*
X034255Y003889D02*
X033292Y003889D01*
X033148Y003790D02*
X033052Y003790D01*
X033052Y003692D02*
X033148Y003692D01*
X033148Y003593D02*
X033052Y003593D01*
X033052Y003495D02*
X033148Y003495D01*
X033148Y003396D02*
X034274Y003396D01*
X034255Y003495D02*
X033558Y003495D01*
X033515Y003593D02*
X034255Y003593D01*
X035145Y003593D02*
X035995Y003593D01*
X035995Y003495D02*
X035145Y003495D01*
X035126Y003396D02*
X035995Y003396D01*
X035995Y003298D02*
X033578Y003298D01*
X033556Y003199D02*
X035376Y003199D01*
X035190Y003101D02*
X033512Y003101D01*
X033431Y003002D02*
X035091Y003002D01*
X035034Y002904D02*
X033279Y002904D01*
X033148Y002904D02*
X033052Y002904D01*
X033052Y003002D02*
X033148Y003002D01*
X033148Y003101D02*
X033052Y003101D01*
X033052Y003199D02*
X033148Y003199D01*
X033148Y003298D02*
X033052Y003298D01*
X033052Y003396D02*
X030699Y003396D01*
X030790Y003495D02*
X032642Y003495D01*
X032685Y003593D02*
X030897Y003593D01*
X030938Y003692D02*
X032763Y003692D01*
X032906Y003790D02*
X030938Y003790D01*
X030907Y003889D02*
X032908Y003889D01*
X032756Y003987D02*
X031507Y003987D01*
X031697Y004086D02*
X032668Y004086D01*
X032628Y004184D02*
X031796Y004184D01*
X031842Y004283D02*
X032600Y004283D01*
X032600Y004381D02*
X031911Y004381D01*
X032009Y004480D02*
X032612Y004480D01*
X032653Y004578D02*
X032108Y004578D01*
X032206Y004677D02*
X032719Y004677D01*
X032820Y004775D02*
X032305Y004775D01*
X032403Y004874D02*
X034308Y004874D01*
X034235Y004775D02*
X033380Y004775D01*
X032826Y004972D02*
X032502Y004972D01*
X032600Y005071D02*
X032771Y005071D01*
X032771Y005169D02*
X032699Y005169D01*
X033989Y004184D02*
X034235Y004184D01*
X034296Y004086D02*
X033532Y004086D01*
X033444Y003987D02*
X034255Y003987D01*
X034474Y004972D02*
X034487Y004972D01*
X032622Y003298D02*
X030835Y003298D01*
X030955Y003199D02*
X032644Y003199D01*
X032688Y003101D02*
X031000Y003101D01*
X031000Y003002D02*
X032769Y003002D01*
X032921Y002904D02*
X031000Y002904D01*
X031038Y002805D02*
X034993Y002805D01*
X034975Y002707D02*
X031038Y002707D01*
X031003Y002608D02*
X034975Y002608D01*
X034983Y002510D02*
X030917Y002510D01*
X030583Y002510D02*
X028623Y002510D01*
X028458Y002411D02*
X035024Y002411D01*
X035067Y002313D02*
X032500Y002313D01*
X032500Y002214D02*
X035166Y002214D01*
X035071Y002116D02*
X032500Y002116D01*
X032500Y002017D02*
X034647Y002017D01*
X034566Y001919D02*
X032500Y001919D01*
X032500Y001820D02*
X034200Y001820D01*
X034103Y001722D02*
X032500Y001722D01*
X032500Y001623D02*
X034062Y001623D01*
X034050Y001525D02*
X032500Y001525D01*
X032500Y001426D02*
X033878Y001426D01*
X033783Y001328D02*
X032515Y001328D01*
X032526Y001229D02*
X033742Y001229D01*
X033732Y001131D02*
X032526Y001131D01*
X032526Y001032D02*
X033747Y001032D01*
X032306Y001025D02*
X032306Y001225D01*
X032239Y001292D01*
X032173Y001225D01*
X032173Y001025D01*
X032039Y001025D02*
X032039Y001292D01*
X032106Y001292D01*
X032173Y001225D01*
X031846Y001225D02*
X031779Y001292D01*
X031646Y001292D01*
X031579Y001225D01*
X031579Y001092D01*
X031646Y001025D01*
X031779Y001025D01*
X031846Y001092D01*
X031846Y001225D01*
X031385Y001292D02*
X031185Y001292D01*
X031119Y001225D01*
X031119Y001092D01*
X031185Y001025D01*
X031385Y001025D01*
X030955Y001025D02*
X030888Y001025D01*
X030888Y001092D01*
X030955Y001092D01*
X030955Y001025D01*
X030695Y001092D02*
X030628Y001158D01*
X030495Y001158D01*
X030428Y001225D01*
X030495Y001292D01*
X030695Y001292D01*
X030695Y001092D02*
X030628Y001025D01*
X030428Y001025D01*
X030234Y001092D02*
X030234Y001225D01*
X030168Y001292D01*
X029968Y001292D01*
X029968Y001425D02*
X029968Y001025D01*
X030168Y001025D01*
X030234Y001092D01*
X029774Y001158D02*
X029574Y001158D01*
X029507Y001092D01*
X029574Y001025D01*
X029774Y001025D01*
X029774Y001225D01*
X029707Y001292D01*
X029574Y001292D01*
X029267Y001425D02*
X029200Y001425D01*
X029267Y001425D02*
X029267Y001025D01*
X029200Y001025D02*
X029334Y001025D01*
X029007Y001225D02*
X028740Y001225D01*
X028546Y001292D02*
X028546Y001025D01*
X028346Y001025D01*
X028279Y001092D01*
X028279Y001292D01*
X028096Y001292D02*
X028029Y001292D01*
X027896Y001158D01*
X027896Y001025D02*
X027896Y001292D01*
X027702Y001225D02*
X027702Y001025D01*
X027502Y001025D01*
X027435Y001092D01*
X027502Y001158D01*
X027702Y001158D01*
X027702Y001225D02*
X027636Y001292D01*
X027502Y001292D01*
X027242Y001225D02*
X027242Y001025D01*
X027108Y001025D02*
X027108Y001225D01*
X027175Y001292D01*
X027242Y001225D01*
X027108Y001225D02*
X027042Y001292D01*
X026975Y001292D01*
X026975Y001025D01*
X026600Y001032D02*
X023579Y001032D01*
X023579Y000984D02*
X023579Y001109D01*
X023482Y001205D01*
X024045Y001205D01*
X024074Y001173D01*
X024206Y001110D01*
X024353Y001102D01*
X024492Y001150D01*
X025167Y001755D01*
X027215Y001755D01*
X027242Y001748D01*
X027288Y001755D01*
X027334Y001755D01*
X027360Y001766D01*
X027387Y001770D01*
X027427Y001794D01*
X027470Y001811D01*
X027490Y001831D01*
X028379Y002363D01*
X028379Y001600D01*
X026629Y001600D01*
X026600Y001571D01*
X026600Y000984D01*
X023579Y000984D01*
X023557Y001131D02*
X024163Y001131D01*
X024436Y001131D02*
X026600Y001131D01*
X026600Y001229D02*
X024580Y001229D01*
X024690Y001328D02*
X026600Y001328D01*
X026600Y001426D02*
X024800Y001426D01*
X024909Y001525D02*
X026600Y001525D01*
X027479Y001820D02*
X028379Y001820D01*
X028379Y001722D02*
X025129Y001722D01*
X025019Y001623D02*
X028379Y001623D01*
X028379Y001919D02*
X027636Y001919D01*
X027800Y002017D02*
X028379Y002017D01*
X028379Y002116D02*
X027965Y002116D01*
X028129Y002214D02*
X028379Y002214D01*
X028379Y002313D02*
X028294Y002313D01*
X028817Y002175D02*
X029017Y002175D01*
X029083Y002109D01*
X029083Y002042D01*
X029017Y001975D01*
X028817Y001975D01*
X029017Y001975D02*
X029083Y001908D01*
X029083Y001842D01*
X029017Y001775D01*
X028817Y001775D01*
X028817Y002175D01*
X029277Y002175D02*
X029277Y001775D01*
X029544Y001775D01*
X029737Y001775D02*
X029737Y002175D01*
X029938Y002175D01*
X030004Y002109D01*
X030004Y001975D01*
X029938Y001908D01*
X029737Y001908D01*
X029544Y002175D02*
X029277Y002175D01*
X029277Y001975D02*
X029410Y001975D01*
X030658Y001908D02*
X030792Y001775D01*
X030925Y001908D01*
X030925Y002175D01*
X031119Y002109D02*
X031185Y002175D01*
X031319Y002175D01*
X031385Y002109D01*
X031385Y002042D01*
X031319Y001975D01*
X031385Y001908D01*
X031385Y001842D01*
X031319Y001775D01*
X031185Y001775D01*
X031119Y001842D01*
X031252Y001975D02*
X031319Y001975D01*
X031579Y001842D02*
X031646Y001842D01*
X031646Y001775D01*
X031579Y001775D01*
X031579Y001842D01*
X031809Y001842D02*
X032076Y002109D01*
X032076Y001842D01*
X032009Y001775D01*
X031876Y001775D01*
X031809Y001842D01*
X031809Y002109D01*
X031876Y002175D01*
X032009Y002175D01*
X032076Y002109D01*
X030658Y002175D02*
X030658Y001908D01*
X030497Y002608D02*
X029339Y002608D01*
X029531Y002707D02*
X030462Y002707D01*
X030462Y002805D02*
X029630Y002805D01*
X029676Y002904D02*
X030500Y002904D01*
X030391Y003002D02*
X029715Y003002D01*
X029715Y003101D02*
X030256Y003101D01*
X030120Y003199D02*
X029715Y003199D01*
X029674Y003298D02*
X029985Y003298D01*
X029849Y003396D02*
X029625Y003396D01*
X029714Y003495D02*
X029526Y003495D01*
X029578Y003593D02*
X029327Y003593D01*
X029454Y003692D02*
X028545Y003692D01*
X028644Y003790D02*
X029404Y003790D01*
X029400Y003889D02*
X028742Y003889D01*
X028841Y003987D02*
X029400Y003987D01*
X029400Y004086D02*
X028894Y004086D01*
X028900Y004184D02*
X029400Y004184D01*
X029400Y004283D02*
X028900Y004283D01*
X028900Y004381D02*
X029400Y004381D01*
X029400Y004480D02*
X028900Y004480D01*
X028900Y004578D02*
X029400Y004578D01*
X029400Y004677D02*
X028900Y004677D01*
X028900Y004775D02*
X029400Y004775D01*
X029397Y004874D02*
X028869Y004874D01*
X028782Y004972D02*
X029427Y004972D01*
X029510Y005071D02*
X028683Y005071D01*
X028585Y005169D02*
X029594Y005169D01*
X029679Y005268D02*
X028486Y005268D01*
X028427Y005366D02*
X028388Y005366D01*
X029344Y005366D02*
X029763Y005366D01*
X029847Y005465D02*
X029533Y005465D01*
X029632Y005563D02*
X029932Y005563D01*
X030000Y005662D02*
X029677Y005662D01*
X029715Y005760D02*
X030000Y005760D01*
X030000Y005859D02*
X029715Y005859D01*
X029714Y005957D02*
X030000Y005957D01*
X030000Y006056D02*
X029673Y006056D01*
X029622Y006154D02*
X030000Y006154D01*
X029798Y006253D02*
X029524Y006253D01*
X029535Y006351D02*
X029322Y006351D01*
X028940Y006450D02*
X028603Y006450D01*
X028702Y006548D02*
X028878Y006548D01*
X028860Y006647D02*
X028778Y006647D01*
X028800Y006745D02*
X028875Y006745D01*
X028933Y006844D02*
X028800Y006844D01*
X028896Y006942D02*
X029032Y006942D01*
X028994Y007041D02*
X029130Y007041D01*
X029093Y007139D02*
X029229Y007139D01*
X029191Y007238D02*
X029327Y007238D01*
X029290Y007336D02*
X029426Y007336D01*
X029388Y007435D02*
X029524Y007435D01*
X029487Y007533D02*
X029623Y007533D01*
X029585Y007632D02*
X029689Y007632D01*
X029684Y007730D02*
X029755Y007730D01*
X029782Y007829D02*
X029820Y007829D01*
X029881Y007927D02*
X029886Y007927D01*
X030194Y008240D02*
X030262Y008308D01*
X030300Y008400D01*
X030300Y009100D01*
X030262Y009192D01*
X030192Y009262D01*
X030000Y009454D01*
X030000Y010346D01*
X030154Y010500D01*
X030500Y010500D01*
X030592Y010538D01*
X030662Y010608D01*
X031521Y011468D01*
X031613Y011506D01*
X031694Y011587D01*
X031738Y011693D01*
X031738Y011807D01*
X031694Y011913D01*
X031613Y011994D01*
X031507Y012038D01*
X031393Y012038D01*
X031287Y011994D01*
X031206Y011913D01*
X031168Y011821D01*
X030346Y011000D01*
X030000Y011000D01*
X029908Y010962D01*
X029608Y010662D01*
X029538Y010592D01*
X029500Y010500D01*
X029500Y009300D01*
X029538Y009208D01*
X029800Y008946D01*
X029800Y008554D01*
X029686Y008440D01*
X029715Y008510D01*
X029715Y008709D01*
X029639Y008893D01*
X029499Y009034D01*
X029315Y009110D01*
X028469Y009110D01*
X028818Y009558D01*
X028846Y009586D01*
X028853Y009603D01*
X028864Y009617D01*
X028875Y009656D01*
X028890Y009692D01*
X028890Y009711D01*
X028895Y009729D01*
X028890Y009768D01*
X028890Y010372D01*
X028896Y010400D01*
X028890Y010429D01*
X028890Y010458D01*
X028879Y010485D01*
X028873Y010513D01*
X028857Y010538D01*
X028846Y010564D01*
X028825Y010585D01*
X028809Y010609D01*
X028785Y010625D01*
X028764Y010646D01*
X028737Y010657D01*
X028372Y010901D01*
X028456Y010866D01*
X029315Y010866D01*
X029499Y010942D01*
X029639Y011083D01*
X029715Y011266D01*
X029715Y011465D01*
X029639Y011649D01*
X029499Y011790D01*
X029315Y011866D01*
X028527Y011866D01*
X028541Y011879D01*
X028542Y011880D01*
X029946Y013238D01*
X030436Y013360D01*
X031924Y013360D01*
X032015Y013269D01*
X032180Y013200D01*
X032920Y013200D01*
X033085Y013269D01*
X033211Y013395D01*
X033161Y013345D02*
X034023Y013345D01*
X034022Y013347D02*
X034038Y013308D01*
X034043Y013303D01*
X034047Y013296D01*
X034078Y013268D01*
X034108Y013238D01*
X034115Y013235D01*
X034121Y013230D01*
X034161Y013216D01*
X034200Y013200D01*
X034208Y013200D01*
X034863Y012973D01*
X033371Y012973D01*
X033271Y012874D01*
X033271Y012760D01*
X033211Y012905D01*
X033085Y013031D01*
X032920Y013100D01*
X032180Y013100D01*
X032015Y013031D01*
X031889Y012905D01*
X031872Y012865D01*
X031805Y013027D01*
X031664Y013168D01*
X031480Y013244D01*
X030621Y013244D01*
X030438Y013168D01*
X030297Y013027D01*
X030221Y012843D01*
X030221Y012644D01*
X030297Y012460D01*
X030438Y012320D01*
X030621Y012244D01*
X031480Y012244D01*
X031664Y012320D01*
X031805Y012460D01*
X031833Y012529D01*
X031889Y012395D01*
X032015Y012269D01*
X032180Y012200D01*
X032920Y012200D01*
X033085Y012269D01*
X033211Y012395D01*
X033271Y012540D01*
X033271Y011867D01*
X031713Y011867D01*
X031738Y011769D02*
X033369Y011769D01*
X033371Y011767D02*
X034929Y011767D01*
X035029Y011867D01*
X035300Y011867D01*
X035300Y011769D02*
X034931Y011769D01*
X035029Y011867D02*
X035029Y012874D01*
X034964Y012938D01*
X035300Y012822D01*
X035300Y010540D01*
X034985Y010540D01*
X034803Y010799D01*
X034778Y010840D01*
X034770Y010846D01*
X034764Y010854D01*
X034723Y010880D01*
X034189Y011271D01*
X034164Y011296D01*
X034143Y011305D01*
X034125Y011318D01*
X034090Y011326D01*
X034058Y011340D01*
X034035Y011340D01*
X034013Y011345D01*
X033978Y011340D01*
X032300Y011340D01*
X032243Y011340D01*
X032243Y011340D01*
X032242Y011340D01*
X032189Y011318D01*
X032136Y011296D01*
X032136Y011296D01*
X032136Y011296D01*
X032095Y011255D01*
X032054Y011215D01*
X032054Y011214D01*
X032032Y011161D01*
X031804Y010614D01*
X031782Y010561D01*
X031760Y010508D01*
X031760Y010508D01*
X031760Y010508D01*
X031760Y010450D01*
X031760Y010393D01*
X031760Y010393D01*
X031760Y010316D01*
X031664Y010412D01*
X031480Y010488D01*
X030621Y010488D01*
X030438Y010412D01*
X030297Y010271D01*
X030221Y010087D01*
X030221Y009888D01*
X030297Y009705D01*
X030438Y009564D01*
X030621Y009488D01*
X031480Y009488D01*
X031664Y009564D01*
X031760Y009660D01*
X031760Y008240D01*
X030278Y008240D01*
X030250Y008246D01*
X030221Y008240D01*
X030194Y008240D01*
X030267Y008321D02*
X031760Y008321D01*
X031760Y008420D02*
X030300Y008420D01*
X030300Y008518D02*
X031760Y008518D01*
X031760Y008617D02*
X030300Y008617D01*
X030300Y008715D02*
X031760Y008715D01*
X031760Y008814D02*
X030300Y008814D01*
X030300Y008912D02*
X031760Y008912D01*
X031760Y009011D02*
X030300Y009011D01*
X030296Y009109D02*
X031760Y009109D01*
X031760Y009208D02*
X030246Y009208D01*
X030148Y009306D02*
X031760Y009306D01*
X031760Y009405D02*
X030049Y009405D01*
X030000Y009503D02*
X030585Y009503D01*
X030400Y009602D02*
X030000Y009602D01*
X030000Y009700D02*
X030301Y009700D01*
X030258Y009799D02*
X030000Y009799D01*
X030000Y009897D02*
X030221Y009897D01*
X030221Y009996D02*
X030000Y009996D01*
X030000Y010094D02*
X030224Y010094D01*
X030264Y010193D02*
X030000Y010193D01*
X030000Y010291D02*
X030317Y010291D01*
X030415Y010390D02*
X030043Y010390D01*
X030142Y010488D02*
X031760Y010488D01*
X031760Y010390D02*
X031686Y010390D01*
X031793Y010587D02*
X030640Y010587D01*
X030739Y010685D02*
X031834Y010685D01*
X031804Y010614D02*
X031804Y010614D01*
X031875Y010784D02*
X030837Y010784D01*
X030936Y010882D02*
X031916Y010882D01*
X031957Y010981D02*
X031034Y010981D01*
X031133Y011079D02*
X031998Y011079D01*
X032039Y011178D02*
X031231Y011178D01*
X031330Y011276D02*
X032116Y011276D01*
X032054Y011214D02*
X032054Y011214D01*
X031679Y011572D02*
X035300Y011572D01*
X035300Y011670D02*
X031729Y011670D01*
X031534Y011473D02*
X035300Y011473D01*
X035300Y011375D02*
X031428Y011375D01*
X031115Y011769D02*
X029520Y011769D01*
X029618Y011670D02*
X031016Y011670D01*
X030918Y011572D02*
X029671Y011572D01*
X029712Y011473D02*
X030819Y011473D01*
X030721Y011375D02*
X029715Y011375D01*
X029715Y011276D02*
X030622Y011276D01*
X030524Y011178D02*
X029679Y011178D01*
X029636Y011079D02*
X030425Y011079D01*
X029953Y010981D02*
X029537Y010981D01*
X029354Y010882D02*
X029828Y010882D01*
X029730Y010784D02*
X028548Y010784D01*
X028417Y010882D02*
X028400Y010882D01*
X028695Y010685D02*
X029631Y010685D01*
X029536Y010587D02*
X028824Y010587D01*
X028878Y010488D02*
X029500Y010488D01*
X029500Y010390D02*
X028894Y010390D01*
X028890Y010291D02*
X029500Y010291D01*
X029500Y010193D02*
X028890Y010193D01*
X028890Y010094D02*
X029500Y010094D01*
X029500Y009996D02*
X028890Y009996D01*
X028890Y009897D02*
X029500Y009897D01*
X029500Y009799D02*
X028890Y009799D01*
X028890Y009700D02*
X029500Y009700D01*
X029500Y009602D02*
X028852Y009602D01*
X028775Y009503D02*
X029500Y009503D01*
X029500Y009405D02*
X028699Y009405D01*
X028622Y009306D02*
X029500Y009306D01*
X029539Y009208D02*
X028545Y009208D01*
X029317Y009109D02*
X029637Y009109D01*
X029736Y009011D02*
X029522Y009011D01*
X029620Y008912D02*
X029800Y008912D01*
X029800Y008814D02*
X029672Y008814D01*
X029713Y008715D02*
X029800Y008715D01*
X029800Y008617D02*
X029715Y008617D01*
X029715Y008518D02*
X029764Y008518D01*
X031517Y009503D02*
X031760Y009503D01*
X031760Y009602D02*
X031702Y009602D01*
X034451Y011079D02*
X035300Y011079D01*
X035300Y010981D02*
X034586Y010981D01*
X034720Y010882D02*
X035300Y010882D01*
X035300Y010784D02*
X034814Y010784D01*
X034883Y010685D02*
X035300Y010685D01*
X035300Y010587D02*
X034952Y010587D01*
X035300Y011178D02*
X034317Y011178D01*
X034184Y011276D02*
X035300Y011276D01*
X035300Y011966D02*
X035029Y011966D01*
X035029Y012064D02*
X035300Y012064D01*
X035300Y012163D02*
X035029Y012163D01*
X035029Y012261D02*
X035300Y012261D01*
X035300Y012360D02*
X035029Y012360D01*
X035029Y012458D02*
X035300Y012458D01*
X035300Y012557D02*
X035029Y012557D01*
X035029Y012655D02*
X035300Y012655D01*
X035300Y012754D02*
X035029Y012754D01*
X035029Y012852D02*
X035213Y012852D01*
X034644Y013049D02*
X033043Y013049D01*
X033166Y012951D02*
X033348Y012951D01*
X033271Y012852D02*
X033233Y012852D01*
X033238Y012458D02*
X033271Y012458D01*
X033271Y012360D02*
X033176Y012360D01*
X033271Y012261D02*
X033067Y012261D01*
X033271Y012163D02*
X028834Y012163D01*
X028936Y012261D02*
X030579Y012261D01*
X030398Y012360D02*
X029037Y012360D01*
X029139Y012458D02*
X030299Y012458D01*
X030257Y012557D02*
X029241Y012557D01*
X029343Y012655D02*
X030221Y012655D01*
X030221Y012754D02*
X029445Y012754D01*
X029547Y012852D02*
X030224Y012852D01*
X030265Y012951D02*
X029649Y012951D01*
X029751Y013049D02*
X030319Y013049D01*
X030418Y013148D02*
X029853Y013148D01*
X029980Y013246D02*
X032069Y013246D01*
X031939Y013345D02*
X030374Y013345D01*
X029952Y013837D02*
X029638Y013837D01*
X029630Y013739D02*
X029539Y013739D01*
X029528Y013640D02*
X029359Y013640D01*
X029426Y013542D02*
X027819Y013542D01*
X027720Y013640D02*
X028412Y013640D01*
X028231Y013739D02*
X027622Y013739D01*
X027533Y013837D02*
X028133Y013837D01*
X028091Y013936D02*
X027467Y013936D01*
X027402Y014034D02*
X028055Y014034D01*
X028055Y014133D02*
X027336Y014133D01*
X027240Y014231D02*
X028060Y014231D01*
X028100Y014330D02*
X027124Y014330D01*
X027026Y014428D02*
X028155Y014428D01*
X028253Y014527D02*
X026927Y014527D01*
X025735Y014457D02*
X025735Y013410D01*
X025697Y013323D01*
X025694Y013192D01*
X025741Y013070D01*
X025971Y012829D01*
X025971Y012644D01*
X026047Y012460D01*
X026188Y012320D01*
X026371Y012244D01*
X027230Y012244D01*
X027414Y012320D01*
X027531Y012437D01*
X027397Y012223D01*
X026680Y011864D01*
X026636Y011846D01*
X026628Y011838D01*
X026619Y011834D01*
X026588Y011798D01*
X026554Y011764D01*
X026550Y011754D01*
X026543Y011746D01*
X026528Y011701D01*
X026510Y011658D01*
X026510Y011647D01*
X026507Y011637D01*
X026510Y011590D01*
X026510Y011027D01*
X026504Y010996D01*
X026510Y010970D01*
X026510Y010942D01*
X026522Y010914D01*
X026528Y010883D01*
X026544Y010861D01*
X026554Y010836D01*
X026576Y010814D01*
X026594Y010788D01*
X026616Y010773D01*
X026636Y010754D01*
X026664Y010742D01*
X027056Y010488D01*
X026371Y010488D01*
X026188Y010412D01*
X026054Y010278D01*
X023468Y010278D01*
X023351Y010395D01*
X023582Y010472D01*
X023628Y010483D01*
X023636Y010490D01*
X023646Y010493D01*
X023682Y010524D01*
X023920Y010703D01*
X023979Y010802D01*
X023995Y010916D01*
X023977Y010987D01*
X024022Y010942D01*
X024206Y010866D01*
X025065Y010866D01*
X025249Y010942D01*
X025389Y011083D01*
X025465Y011266D01*
X025465Y011465D01*
X025389Y011649D01*
X025249Y011790D01*
X025065Y011866D01*
X024206Y011866D01*
X024022Y011790D01*
X023986Y011753D01*
X023964Y011833D01*
X023603Y012297D01*
X023596Y012314D01*
X023568Y012342D01*
X023543Y012374D01*
X023527Y012383D01*
X023514Y012396D01*
X023478Y012411D01*
X023444Y012430D01*
X023580Y012566D01*
X023580Y012922D01*
X023328Y013174D01*
X022972Y013174D01*
X022720Y012922D01*
X022720Y012584D01*
X022580Y012724D01*
X022580Y012922D01*
X022328Y013174D01*
X022056Y013174D01*
X022100Y013280D01*
X022100Y013770D01*
X023950Y013770D01*
X024022Y013698D01*
X024206Y013622D01*
X025065Y013622D01*
X025249Y013698D01*
X025389Y013838D01*
X025465Y014022D01*
X025465Y014221D01*
X025389Y014405D01*
X025249Y014546D01*
X025065Y014622D01*
X024206Y014622D01*
X024022Y014546D01*
X023907Y014430D01*
X021684Y014430D01*
X021628Y014433D01*
X021619Y014430D01*
X021609Y014430D01*
X021557Y014408D01*
X021504Y014390D01*
X021497Y014383D01*
X021488Y014380D01*
X021448Y014340D01*
X021435Y014328D01*
X021395Y014311D01*
X021269Y014185D01*
X021200Y014020D01*
X021200Y013918D01*
X021100Y013918D01*
X021100Y014020D01*
X021031Y014185D01*
X020905Y014311D01*
X020740Y014380D01*
X020560Y014380D01*
X020395Y014311D01*
X020314Y014231D01*
X020315Y014231D01*
X020314Y014231D02*
X020325Y014602D01*
X021598Y015300D01*
X021620Y015300D01*
X021748Y015353D01*
X021847Y015452D01*
X021900Y015580D01*
X021900Y015720D01*
X021847Y015848D01*
X021748Y015947D01*
X021620Y016000D01*
X021480Y016000D01*
X021352Y015947D01*
X021287Y015882D01*
X019861Y015100D01*
X019821Y015085D01*
X019804Y015069D01*
X019784Y015058D01*
X019757Y015024D01*
X019726Y014995D01*
X019716Y014973D01*
X019702Y014955D01*
X019690Y014914D01*
X019672Y014875D01*
X019671Y014852D01*
X019665Y014829D01*
X019670Y014787D01*
X019623Y013127D01*
X015200Y013081D01*
X015174Y013099D01*
X015174Y013154D01*
X015069Y013409D01*
X014998Y013480D01*
X015637Y013480D01*
X015690Y013459D01*
X016353Y013470D01*
X016416Y013470D01*
X016418Y013471D01*
X016421Y013471D01*
X016479Y013496D01*
X016537Y013520D01*
X016539Y013522D01*
X016542Y013523D01*
X016585Y013569D01*
X016815Y013798D01*
X016817Y013796D01*
X017001Y013720D01*
X017199Y013720D01*
X017383Y013796D01*
X017524Y013937D01*
X017600Y014121D01*
X017676Y013937D01*
X017817Y013796D01*
X018001Y013720D01*
X018199Y013720D01*
X018383Y013796D01*
X018524Y013937D01*
X018600Y014121D01*
X018676Y013937D01*
X018817Y013796D01*
X019001Y013720D01*
X019199Y013720D01*
X019383Y013796D01*
X019524Y013937D01*
X019600Y014121D01*
X019600Y014979D01*
X019524Y015163D01*
X019383Y015304D01*
X019199Y015380D01*
X019001Y015380D01*
X018817Y015304D01*
X018676Y015163D01*
X018600Y014979D01*
X018600Y014121D01*
X018600Y014979D01*
X018524Y015163D01*
X018383Y015304D01*
X018199Y015380D01*
X018001Y015380D01*
X017817Y015304D01*
X017676Y015163D01*
X017600Y014979D01*
X017600Y014121D01*
X017600Y014979D01*
X017524Y015163D01*
X017383Y015304D01*
X017199Y015380D01*
X017001Y015380D01*
X016817Y015304D01*
X016676Y015163D01*
X016600Y014979D01*
X016600Y014517D01*
X016211Y014128D01*
X015679Y014119D01*
X015635Y014100D01*
X014988Y014100D01*
X015069Y014181D01*
X015174Y014436D01*
X015174Y014713D01*
X015069Y014968D01*
X014973Y015064D01*
X019015Y016720D01*
X022316Y016720D01*
X022437Y016770D01*
X022530Y016863D01*
X022543Y016896D01*
X023040Y015637D01*
X023058Y015583D01*
X023064Y015576D01*
X023067Y015568D01*
X023107Y015527D01*
X023144Y015484D01*
X023152Y015480D01*
X023158Y015473D01*
X023210Y015451D01*
X023705Y015204D01*
X023713Y015195D01*
X023763Y015175D01*
X023811Y015150D01*
X023823Y015150D01*
X023834Y015145D01*
X023888Y015145D01*
X023942Y015141D01*
X023954Y015145D01*
X024166Y015145D01*
X024287Y015195D01*
X024380Y015288D01*
X024430Y015409D01*
X024430Y015541D01*
X024380Y015662D01*
X024287Y015755D01*
X024166Y015805D01*
X023978Y015805D01*
X023968Y015810D01*
X024355Y015810D01*
X024494Y015671D01*
X024505Y015653D01*
X024535Y015630D01*
X024561Y015604D01*
X024580Y015596D01*
X024733Y015481D01*
X025735Y014457D01*
X025735Y014428D02*
X025366Y014428D01*
X025421Y014330D02*
X025735Y014330D01*
X025735Y014231D02*
X025461Y014231D01*
X025465Y014133D02*
X025735Y014133D01*
X025735Y014034D02*
X025465Y014034D01*
X025430Y013936D02*
X025735Y013936D01*
X025735Y013837D02*
X025388Y013837D01*
X025289Y013739D02*
X025735Y013739D01*
X025735Y013640D02*
X025109Y013640D01*
X025735Y013542D02*
X022100Y013542D01*
X022100Y013640D02*
X024162Y013640D01*
X023981Y013739D02*
X022100Y013739D01*
X021650Y013650D02*
X021150Y013650D01*
X020650Y013650D01*
X021100Y013936D02*
X021200Y013936D01*
X021206Y014034D02*
X021094Y014034D01*
X021053Y014133D02*
X021247Y014133D01*
X021315Y014231D02*
X020985Y014231D01*
X020861Y014330D02*
X021437Y014330D01*
X021605Y014428D02*
X020320Y014428D01*
X020317Y014330D02*
X020439Y014330D01*
X020323Y014527D02*
X024003Y014527D01*
X025268Y014527D02*
X025667Y014527D01*
X025570Y014625D02*
X020367Y014625D01*
X020547Y014724D02*
X025474Y014724D01*
X025378Y014822D02*
X020726Y014822D01*
X020906Y014921D02*
X025282Y014921D01*
X025185Y015019D02*
X021086Y015019D01*
X021265Y015118D02*
X025089Y015118D01*
X024993Y015216D02*
X024308Y015216D01*
X024391Y015315D02*
X024896Y015315D01*
X024800Y015413D02*
X024430Y015413D01*
X024430Y015512D02*
X024693Y015512D01*
X024555Y015610D02*
X024401Y015610D01*
X024456Y015709D02*
X024333Y015709D01*
X024358Y015807D02*
X023974Y015807D01*
X023483Y015315D02*
X021655Y015315D01*
X021808Y015413D02*
X023286Y015413D01*
X023120Y015512D02*
X021871Y015512D01*
X021900Y015610D02*
X023049Y015610D01*
X023012Y015709D02*
X021900Y015709D01*
X021864Y015807D02*
X022973Y015807D01*
X022934Y015906D02*
X021789Y015906D01*
X021311Y015906D02*
X017027Y015906D01*
X017267Y016004D02*
X022895Y016004D01*
X022856Y016103D02*
X017508Y016103D01*
X017748Y016201D02*
X022817Y016201D01*
X022779Y016300D02*
X017989Y016300D01*
X018229Y016398D02*
X022740Y016398D01*
X022701Y016497D02*
X018469Y016497D01*
X018710Y016595D02*
X022662Y016595D01*
X022623Y016694D02*
X018950Y016694D01*
X016786Y015807D02*
X021150Y015807D01*
X020970Y015709D02*
X016546Y015709D01*
X016305Y015610D02*
X020791Y015610D01*
X020611Y015512D02*
X016065Y015512D01*
X015824Y015413D02*
X020432Y015413D01*
X020252Y015315D02*
X019357Y015315D01*
X019471Y015216D02*
X020072Y015216D01*
X019893Y015118D02*
X019543Y015118D01*
X019584Y015019D02*
X019751Y015019D01*
X019691Y014921D02*
X019600Y014921D01*
X019600Y014822D02*
X019666Y014822D01*
X019668Y014724D02*
X019600Y014724D01*
X019600Y014625D02*
X019665Y014625D01*
X019662Y014527D02*
X019600Y014527D01*
X019600Y014428D02*
X019660Y014428D01*
X019657Y014330D02*
X019600Y014330D01*
X019600Y014231D02*
X019654Y014231D01*
X019651Y014133D02*
X019600Y014133D01*
X019564Y014034D02*
X019649Y014034D01*
X019646Y013936D02*
X019523Y013936D01*
X019424Y013837D02*
X019643Y013837D01*
X019640Y013739D02*
X019244Y013739D01*
X018956Y013739D02*
X018244Y013739D01*
X018424Y013837D02*
X018776Y013837D01*
X018677Y013936D02*
X018523Y013936D01*
X018564Y014034D02*
X018636Y014034D01*
X018600Y014133D02*
X018600Y014133D01*
X018600Y014231D02*
X018600Y014231D01*
X018600Y014330D02*
X018600Y014330D01*
X018600Y014428D02*
X018600Y014428D01*
X018600Y014527D02*
X018600Y014527D01*
X018600Y014625D02*
X018600Y014625D01*
X018600Y014724D02*
X018600Y014724D01*
X018600Y014822D02*
X018600Y014822D01*
X018600Y014921D02*
X018600Y014921D01*
X018584Y015019D02*
X018616Y015019D01*
X018657Y015118D02*
X018543Y015118D01*
X018471Y015216D02*
X018729Y015216D01*
X018843Y015315D02*
X018357Y015315D01*
X017843Y015315D02*
X017357Y015315D01*
X017471Y015216D02*
X017729Y015216D01*
X017657Y015118D02*
X017543Y015118D01*
X017584Y015019D02*
X017616Y015019D01*
X017600Y014921D02*
X017600Y014921D01*
X017600Y014822D02*
X017600Y014822D01*
X017600Y014724D02*
X017600Y014724D01*
X017600Y014625D02*
X017600Y014625D01*
X017600Y014527D02*
X017600Y014527D01*
X017600Y014428D02*
X017600Y014428D01*
X017600Y014330D02*
X017600Y014330D01*
X017600Y014231D02*
X017600Y014231D01*
X017600Y014133D02*
X017600Y014133D01*
X017564Y014034D02*
X017636Y014034D01*
X017677Y013936D02*
X017523Y013936D01*
X017424Y013837D02*
X017776Y013837D01*
X017956Y013739D02*
X017244Y013739D01*
X016956Y013739D02*
X016755Y013739D01*
X016657Y013640D02*
X019638Y013640D01*
X019635Y013542D02*
X016559Y013542D01*
X016216Y014133D02*
X015020Y014133D01*
X015089Y014231D02*
X016314Y014231D01*
X016413Y014330D02*
X015130Y014330D01*
X015171Y014428D02*
X016511Y014428D01*
X016600Y014527D02*
X015174Y014527D01*
X015174Y014625D02*
X016600Y014625D01*
X016600Y014724D02*
X015170Y014724D01*
X015129Y014822D02*
X016600Y014822D01*
X016600Y014921D02*
X015088Y014921D01*
X015018Y015019D02*
X016616Y015019D01*
X016657Y015118D02*
X015103Y015118D01*
X015344Y015216D02*
X016729Y015216D01*
X016843Y015315D02*
X015584Y015315D01*
X012891Y015019D02*
X012840Y015019D01*
X012820Y014921D02*
X012745Y014921D01*
X012780Y014822D02*
X012650Y014822D01*
X012739Y014724D02*
X012555Y014724D01*
X012461Y014625D02*
X012734Y014625D01*
X012734Y014527D02*
X012366Y014527D01*
X012271Y014428D02*
X012738Y014428D01*
X012778Y014330D02*
X012177Y014330D01*
X012082Y014231D02*
X012819Y014231D01*
X012349Y014133D02*
X011987Y014133D01*
X011892Y014034D02*
X012211Y014034D01*
X012122Y013936D02*
X011798Y013936D01*
X011703Y013837D02*
X012032Y013837D01*
X011942Y013739D02*
X011608Y013739D01*
X011514Y013640D02*
X011852Y013640D01*
X011762Y013542D02*
X011419Y013542D01*
X011583Y013345D02*
X006434Y013345D01*
X006475Y013246D02*
X011493Y013246D01*
X011403Y013148D02*
X006513Y013148D01*
X006513Y013049D02*
X011313Y013049D01*
X011223Y012951D02*
X006513Y012951D01*
X006503Y012852D02*
X011133Y012852D01*
X011092Y012754D02*
X006462Y012754D01*
X006421Y012655D02*
X011079Y012655D01*
X011080Y012557D02*
X006342Y012557D01*
X006243Y012458D02*
X011080Y012458D01*
X011080Y012360D02*
X006051Y012360D01*
X006167Y012064D02*
X011080Y012064D01*
X011080Y011966D02*
X006292Y011966D01*
X006390Y011867D02*
X011080Y011867D01*
X011080Y011769D02*
X006441Y011769D01*
X006482Y011670D02*
X011080Y011670D01*
X011055Y011572D02*
X006513Y011572D01*
X006513Y011473D02*
X010848Y011473D01*
X010641Y011375D02*
X006513Y011375D01*
X006496Y011276D02*
X010434Y011276D01*
X010227Y011178D02*
X006455Y011178D01*
X006414Y011079D02*
X010020Y011079D01*
X009814Y010981D02*
X006325Y010981D01*
X006227Y010882D02*
X009607Y010882D01*
X009400Y010784D02*
X006010Y010784D01*
X005970Y010587D02*
X009060Y010587D01*
X008953Y010488D02*
X006208Y010488D01*
X004616Y010587D02*
X004280Y010587D01*
X004280Y010685D02*
X009189Y010685D01*
X010761Y009996D02*
X011855Y009996D01*
X011930Y010094D02*
X010917Y010094D01*
X010985Y010193D02*
X012004Y010193D01*
X012079Y010291D02*
X011020Y010291D01*
X011020Y010390D02*
X012154Y010390D01*
X012227Y010488D02*
X010993Y010488D01*
X010937Y010587D02*
X012291Y010587D01*
X012356Y010685D02*
X010914Y010685D01*
X011121Y010784D02*
X012421Y010784D01*
X012486Y010882D02*
X011328Y010882D01*
X011535Y010981D02*
X012951Y010981D01*
X012868Y011079D02*
X012445Y011079D01*
X012564Y011178D02*
X012814Y011178D01*
X012779Y011276D02*
X012630Y011276D01*
X012670Y011375D02*
X012759Y011375D01*
X012675Y011473D02*
X013904Y011473D01*
X014004Y011473D02*
X019509Y011473D01*
X019505Y011469D02*
X019491Y011459D01*
X019468Y011425D01*
X019441Y011393D01*
X019436Y011377D01*
X019427Y011363D01*
X019419Y011323D01*
X019088Y010290D01*
X016686Y010290D01*
X015733Y010907D01*
X015714Y010926D01*
X015685Y010938D01*
X015659Y010955D01*
X015633Y010960D01*
X015608Y010970D01*
X015576Y010970D01*
X015546Y010976D01*
X015519Y010970D01*
X014948Y010970D01*
X014988Y011010D01*
X015042Y011080D01*
X015086Y011157D01*
X015120Y011239D01*
X015143Y011324D01*
X015154Y011406D01*
X014004Y011406D01*
X014004Y011506D01*
X015154Y011506D01*
X015143Y011588D01*
X015120Y011674D01*
X015086Y011755D01*
X015042Y011832D01*
X015025Y011854D01*
X015210Y011837D01*
X015226Y011830D01*
X015283Y011830D01*
X015339Y011825D01*
X015356Y011830D01*
X019974Y011830D01*
X020110Y011886D01*
X020120Y011897D01*
X020120Y011879D01*
X019553Y011500D01*
X019516Y011481D01*
X019505Y011469D01*
X019434Y011375D02*
X015149Y011375D01*
X015130Y011276D02*
X019404Y011276D01*
X019372Y011178D02*
X015094Y011178D01*
X015041Y011079D02*
X019341Y011079D01*
X019309Y010981D02*
X014958Y010981D01*
X015772Y010882D02*
X019278Y010882D01*
X019246Y010784D02*
X015924Y010784D01*
X016076Y010685D02*
X019215Y010685D01*
X019183Y010587D02*
X016228Y010587D01*
X016380Y010488D02*
X019152Y010488D01*
X019120Y010390D02*
X016532Y010390D01*
X016684Y010291D02*
X019089Y010291D01*
X019635Y010094D02*
X020064Y010094D01*
X019978Y009996D02*
X019603Y009996D01*
X019590Y009955D02*
X019945Y011065D01*
X020478Y011420D01*
X020516Y011420D01*
X020637Y011470D01*
X020730Y011563D01*
X020780Y011684D01*
X020780Y012481D01*
X021073Y012614D01*
X021078Y012615D01*
X021125Y012638D01*
X021173Y012660D01*
X021176Y012664D01*
X021181Y012666D01*
X021216Y012706D01*
X021251Y012744D01*
X021253Y012749D01*
X021443Y012969D01*
X021560Y012920D01*
X021720Y012920D01*
X021720Y012566D01*
X021972Y012314D01*
X022170Y012314D01*
X022579Y011904D01*
X022686Y011860D01*
X022801Y011860D01*
X023208Y011860D01*
X023258Y011796D01*
X022972Y011796D01*
X022720Y011544D01*
X022720Y011188D01*
X022972Y010936D01*
X023140Y010936D01*
X022818Y010828D01*
X022772Y010817D01*
X022764Y010810D01*
X022754Y010807D01*
X022718Y010776D01*
X022240Y010418D01*
X021972Y010418D01*
X021720Y010166D01*
X021720Y009810D01*
X021860Y009670D01*
X021860Y008928D01*
X021720Y008788D01*
X021720Y008485D01*
X021708Y008490D01*
X017633Y008490D01*
X017599Y008495D01*
X017576Y008490D01*
X017552Y008490D01*
X017520Y008477D01*
X016685Y008278D01*
X016694Y008287D01*
X016738Y008393D01*
X016738Y008507D01*
X016694Y008613D01*
X016613Y008694D01*
X016507Y008738D01*
X016393Y008738D01*
X016301Y008700D01*
X015549Y008700D01*
X015457Y008738D01*
X015343Y008738D01*
X015237Y008694D01*
X015156Y008613D01*
X015137Y008567D01*
X015069Y008732D01*
X014990Y008810D01*
X020306Y008810D01*
X020319Y008806D01*
X020363Y008810D01*
X020408Y008810D01*
X020420Y008815D01*
X020434Y008816D01*
X020473Y008837D01*
X020514Y008854D01*
X020524Y008864D01*
X020536Y008870D01*
X020564Y008904D01*
X020596Y008936D01*
X020601Y008948D01*
X021793Y010379D01*
X021802Y010385D01*
X021830Y010423D01*
X021860Y010459D01*
X021863Y010469D01*
X022196Y010936D01*
X022328Y010936D01*
X022580Y011188D01*
X022580Y011544D01*
X022328Y011796D01*
X021972Y011796D01*
X021720Y011544D01*
X021720Y011267D01*
X021615Y011120D01*
X021615Y012433D01*
X021571Y012539D01*
X021489Y012621D01*
X021383Y012665D01*
X021267Y012665D01*
X021161Y012621D01*
X021079Y012539D01*
X021035Y012433D01*
X021035Y011209D01*
X019843Y009840D01*
X019548Y009840D01*
X019551Y009847D01*
X019559Y009857D01*
X019573Y009900D01*
X019590Y009942D01*
X019590Y009955D01*
X019572Y009897D02*
X019893Y009897D01*
X019666Y010193D02*
X020150Y010193D01*
X020236Y010291D02*
X019698Y010291D01*
X019729Y010390D02*
X020322Y010390D01*
X020407Y010488D02*
X019761Y010488D01*
X019792Y010587D02*
X020493Y010587D01*
X020579Y010685D02*
X019824Y010685D01*
X019855Y010784D02*
X020665Y010784D01*
X020751Y010882D02*
X019887Y010882D01*
X019918Y010981D02*
X020836Y010981D01*
X020922Y011079D02*
X019966Y011079D01*
X020114Y011178D02*
X021008Y011178D01*
X021035Y011276D02*
X020262Y011276D01*
X020410Y011375D02*
X021035Y011375D01*
X021035Y011473D02*
X020640Y011473D01*
X020733Y011572D02*
X021035Y011572D01*
X021035Y011670D02*
X020774Y011670D01*
X020780Y011769D02*
X021035Y011769D01*
X021035Y011867D02*
X020780Y011867D01*
X020780Y011966D02*
X021035Y011966D01*
X021035Y012064D02*
X020780Y012064D01*
X020780Y012163D02*
X021035Y012163D01*
X021035Y012261D02*
X020780Y012261D01*
X020780Y012360D02*
X021035Y012360D01*
X021045Y012458D02*
X020780Y012458D01*
X020945Y012557D02*
X021096Y012557D01*
X021162Y012655D02*
X021243Y012655D01*
X021257Y012754D02*
X021720Y012754D01*
X021720Y012852D02*
X021342Y012852D01*
X021428Y012951D02*
X021487Y012951D01*
X021407Y012655D02*
X021720Y012655D01*
X021729Y012557D02*
X021554Y012557D01*
X021605Y012458D02*
X021828Y012458D01*
X021926Y012360D02*
X021615Y012360D01*
X021615Y012261D02*
X022223Y012261D01*
X022321Y012163D02*
X021615Y012163D01*
X021615Y012064D02*
X022420Y012064D01*
X022518Y011966D02*
X021615Y011966D01*
X021615Y011867D02*
X022669Y011867D01*
X022846Y011670D02*
X022454Y011670D01*
X022552Y011572D02*
X022748Y011572D01*
X022720Y011473D02*
X022580Y011473D01*
X022580Y011375D02*
X022720Y011375D01*
X022720Y011276D02*
X022580Y011276D01*
X022570Y011178D02*
X022730Y011178D01*
X022829Y011079D02*
X022471Y011079D01*
X022373Y010981D02*
X022927Y010981D01*
X022979Y010882D02*
X022158Y010882D01*
X022087Y010784D02*
X022727Y010784D01*
X022597Y010685D02*
X022017Y010685D01*
X021947Y010587D02*
X022465Y010587D01*
X022334Y010488D02*
X021876Y010488D01*
X021944Y010390D02*
X021806Y010390D01*
X021845Y010291D02*
X021720Y010291D01*
X021747Y010193D02*
X021638Y010193D01*
X021556Y010094D02*
X021720Y010094D01*
X021720Y009996D02*
X021474Y009996D01*
X021392Y009897D02*
X021720Y009897D01*
X021731Y009799D02*
X021310Y009799D01*
X021228Y009700D02*
X021830Y009700D01*
X021860Y009602D02*
X021145Y009602D01*
X021063Y009503D02*
X021860Y009503D01*
X021860Y009405D02*
X020981Y009405D01*
X020899Y009306D02*
X021860Y009306D01*
X021860Y009208D02*
X020817Y009208D01*
X020735Y009109D02*
X021860Y009109D01*
X021860Y009011D02*
X020653Y009011D01*
X020572Y008912D02*
X021844Y008912D01*
X021746Y008814D02*
X020416Y008814D01*
X021720Y008715D02*
X016563Y008715D01*
X016691Y008617D02*
X021720Y008617D01*
X021720Y008518D02*
X016734Y008518D01*
X016738Y008420D02*
X017280Y008420D01*
X016866Y008321D02*
X016708Y008321D01*
X016337Y008715D02*
X015513Y008715D01*
X015287Y008715D02*
X015076Y008715D01*
X015116Y008617D02*
X015159Y008617D01*
X011780Y009897D02*
X009403Y009897D01*
X009295Y009799D02*
X011706Y009799D01*
X011631Y009700D02*
X009188Y009700D01*
X009080Y009602D02*
X011556Y009602D01*
X011481Y009503D02*
X008920Y009503D01*
X010003Y009011D02*
X006011Y009011D01*
X005969Y009208D02*
X011257Y009208D01*
X011332Y009306D02*
X006207Y009306D01*
X006308Y009405D02*
X011407Y009405D01*
X010118Y009109D02*
X003360Y009109D01*
X003474Y009208D02*
X004617Y009208D01*
X004379Y009306D02*
X003548Y009306D01*
X003580Y009405D02*
X004278Y009405D01*
X004179Y009503D02*
X003580Y009503D01*
X003580Y009602D02*
X004138Y009602D01*
X004097Y009700D02*
X003580Y009700D01*
X003615Y009799D02*
X004073Y009799D01*
X004073Y009897D02*
X003714Y009897D01*
X003812Y009996D02*
X004073Y009996D01*
X004097Y010094D02*
X003911Y010094D01*
X004009Y010193D02*
X004138Y010193D01*
X004206Y010390D02*
X004277Y010390D01*
X004261Y010488D02*
X004378Y010488D01*
X004280Y010784D02*
X004576Y010784D01*
X004359Y010882D02*
X004280Y010882D01*
X002570Y010587D02*
X002270Y010587D01*
X002270Y010685D02*
X002405Y010685D01*
X002308Y010784D02*
X002270Y010784D01*
X001530Y010784D02*
X001492Y010784D01*
X001530Y010685D02*
X001395Y010685D01*
X001530Y010587D02*
X001230Y010587D01*
X001530Y010488D02*
X000500Y010488D01*
X000500Y010390D02*
X001530Y010390D01*
X001530Y010291D02*
X000500Y010291D01*
X000500Y010193D02*
X001530Y010193D01*
X001530Y010094D02*
X000500Y010094D01*
X000500Y009996D02*
X001530Y009996D01*
X001530Y009897D02*
X000500Y009897D01*
X000500Y009799D02*
X001530Y009799D01*
X001530Y009700D02*
X000500Y009700D01*
X000500Y009602D02*
X001530Y009602D01*
X001530Y009503D02*
X000500Y009503D01*
X000500Y009405D02*
X001530Y009405D01*
X001530Y009306D02*
X000500Y009306D01*
X000500Y009208D02*
X001530Y009208D01*
X001530Y009109D02*
X000500Y009109D01*
X000500Y009011D02*
X001530Y009011D01*
X001530Y008912D02*
X000500Y008912D01*
X000500Y008814D02*
X001530Y008814D01*
X001530Y008715D02*
X000500Y008715D01*
X000500Y008617D02*
X001530Y008617D01*
X001445Y008518D02*
X000500Y008518D01*
X000500Y008420D02*
X001346Y008420D01*
X001248Y008321D02*
X000500Y008321D01*
X000500Y008223D02*
X001149Y008223D01*
X001051Y008124D02*
X000500Y008124D01*
X000500Y008026D02*
X000952Y008026D01*
X000854Y007927D02*
X000500Y007927D01*
X000500Y007829D02*
X000755Y007829D01*
X000657Y007730D02*
X000500Y007730D01*
X000500Y007632D02*
X000604Y007632D01*
X000580Y007533D02*
X000500Y007533D01*
X000500Y007435D02*
X000580Y007435D01*
X000580Y007336D02*
X000500Y007336D01*
X000500Y007238D02*
X000580Y007238D01*
X000580Y007139D02*
X000500Y007139D01*
X000500Y007041D02*
X000580Y007041D01*
X000580Y006942D02*
X000500Y006942D01*
X000500Y006844D02*
X000580Y006844D01*
X000580Y006745D02*
X000500Y006745D01*
X000500Y006647D02*
X000580Y006647D01*
X000580Y006548D02*
X000500Y006548D01*
X000500Y006450D02*
X000580Y006450D01*
X000580Y006351D02*
X000500Y006351D01*
X000500Y006253D02*
X000580Y006253D01*
X000580Y006154D02*
X000500Y006154D01*
X000500Y006056D02*
X000580Y006056D01*
X000580Y005957D02*
X000500Y005957D01*
X000500Y005859D02*
X000580Y005859D01*
X000580Y005760D02*
X000500Y005760D01*
X000500Y005662D02*
X000580Y005662D01*
X000580Y005563D02*
X000500Y005563D01*
X000500Y005465D02*
X000580Y005465D01*
X000580Y005366D02*
X000500Y005366D01*
X000500Y005268D02*
X000580Y005268D01*
X000580Y005169D02*
X000500Y005169D01*
X000500Y005071D02*
X000580Y005071D01*
X000580Y004972D02*
X000500Y004972D01*
X000500Y004874D02*
X000581Y004874D01*
X000622Y004775D02*
X000500Y004775D01*
X000500Y004677D02*
X000700Y004677D01*
X000719Y004480D02*
X000500Y004480D01*
X000500Y004578D02*
X000906Y004578D01*
X001194Y004578D02*
X003170Y004578D01*
X003170Y004480D02*
X003044Y004480D01*
X003146Y004381D02*
X003170Y004381D01*
X002798Y004381D02*
X002702Y004381D01*
X002702Y004283D02*
X002798Y004283D01*
X002798Y004184D02*
X002702Y004184D01*
X002702Y004123D02*
X002702Y004574D01*
X002633Y004563D01*
X002558Y004538D01*
X002488Y004503D01*
X002424Y004456D01*
X002369Y004401D01*
X002322Y004337D01*
X002287Y004267D01*
X002262Y004192D01*
X002251Y004123D01*
X002702Y004123D01*
X002702Y004086D02*
X001570Y004086D01*
X001568Y004184D02*
X002261Y004184D01*
X002295Y004283D02*
X001527Y004283D01*
X001479Y004381D02*
X002354Y004381D01*
X002456Y004480D02*
X001381Y004480D01*
X000621Y004381D02*
X000500Y004381D01*
X000500Y004283D02*
X000573Y004283D01*
X000532Y004184D02*
X000500Y004184D01*
X000500Y004086D02*
X000530Y004086D01*
X000530Y003987D02*
X000500Y003987D01*
X000500Y003889D02*
X000564Y003889D01*
X000605Y003790D02*
X000500Y003790D01*
X000500Y003692D02*
X000698Y003692D01*
X000855Y003593D02*
X000500Y003593D01*
X000500Y003495D02*
X003170Y003495D01*
X003170Y003593D02*
X002885Y003593D01*
X002798Y003593D02*
X002702Y003593D01*
X002702Y003576D02*
X002702Y004027D01*
X002251Y004027D01*
X002262Y003958D01*
X002287Y003883D01*
X002322Y003813D01*
X002369Y003749D01*
X002424Y003694D01*
X002488Y003647D01*
X002558Y003612D01*
X002633Y003587D01*
X002702Y003576D01*
X002615Y003593D02*
X001245Y003593D01*
X001402Y003692D02*
X002427Y003692D01*
X002339Y003790D02*
X001495Y003790D01*
X001536Y003889D02*
X002285Y003889D01*
X002258Y003987D02*
X001570Y003987D01*
X002702Y003987D02*
X002798Y003987D01*
X002798Y003889D02*
X002702Y003889D01*
X002702Y003790D02*
X002798Y003790D01*
X002798Y003692D02*
X002702Y003692D01*
X003073Y003692D02*
X003170Y003692D01*
X003161Y003790D02*
X003170Y003790D01*
X003170Y003396D02*
X000500Y003396D01*
X000500Y003298D02*
X001054Y003298D01*
X001015Y003281D02*
X000889Y003155D01*
X000820Y002990D01*
X000820Y002810D01*
X000889Y002645D01*
X001015Y002519D01*
X001180Y002450D01*
X001282Y002450D01*
X001282Y002350D01*
X001180Y002350D01*
X001015Y002281D01*
X000889Y002155D01*
X000820Y001990D01*
X000820Y001810D01*
X000889Y001645D01*
X001015Y001519D01*
X001180Y001450D01*
X001920Y001450D01*
X002085Y001519D01*
X002211Y001645D01*
X002280Y001810D01*
X002280Y001990D01*
X002211Y002155D01*
X002085Y002281D01*
X001920Y002350D01*
X001818Y002350D01*
X001818Y002450D01*
X001920Y002450D01*
X002085Y002519D01*
X002211Y002645D01*
X002280Y002810D01*
X002280Y002990D01*
X002211Y003155D01*
X002085Y003281D01*
X001920Y003350D01*
X001180Y003350D01*
X001015Y003281D01*
X000933Y003199D02*
X000500Y003199D01*
X000500Y003101D02*
X000866Y003101D01*
X000825Y003002D02*
X000500Y003002D01*
X000500Y002904D02*
X000820Y002904D01*
X000822Y002805D02*
X000500Y002805D01*
X000500Y002707D02*
X000863Y002707D01*
X000926Y002608D02*
X000500Y002608D01*
X000500Y002510D02*
X001037Y002510D01*
X001090Y002313D02*
X000500Y002313D01*
X000500Y002411D02*
X001282Y002411D01*
X001550Y002400D02*
X001550Y001750D01*
X002091Y001525D02*
X003183Y001525D01*
X003164Y001623D02*
X002189Y001623D01*
X002243Y001722D02*
X003170Y001722D01*
X003170Y001820D02*
X002280Y001820D01*
X002280Y001919D02*
X003170Y001919D01*
X003170Y002017D02*
X002269Y002017D01*
X002228Y002116D02*
X003170Y002116D01*
X003170Y002214D02*
X002152Y002214D01*
X002010Y002313D02*
X003170Y002313D01*
X003170Y002411D02*
X001818Y002411D01*
X002063Y002510D02*
X003170Y002510D01*
X003170Y002608D02*
X002174Y002608D01*
X002237Y002707D02*
X003170Y002707D01*
X003170Y002805D02*
X002278Y002805D01*
X002280Y002904D02*
X003170Y002904D01*
X003170Y003002D02*
X002275Y003002D01*
X002234Y003101D02*
X003170Y003101D01*
X003170Y003199D02*
X002167Y003199D01*
X002046Y003298D02*
X003170Y003298D01*
X004200Y002707D02*
X004411Y002707D01*
X004291Y002608D02*
X004200Y002608D01*
X006413Y001722D02*
X012356Y001722D01*
X012744Y001722D02*
X012835Y001722D01*
X014983Y003210D02*
X014988Y003215D01*
X015042Y003285D01*
X015086Y003362D01*
X015120Y003444D01*
X015143Y003529D01*
X015154Y003611D01*
X014004Y003611D01*
X014004Y003711D01*
X015154Y003711D01*
X015143Y003793D01*
X015120Y003878D01*
X015086Y003960D01*
X015042Y004037D01*
X014988Y004107D01*
X014960Y004135D01*
X015142Y004135D01*
X015256Y004182D01*
X015343Y004269D01*
X015353Y004295D01*
X018330Y006760D01*
X020956Y006760D01*
X021331Y006265D01*
X021338Y006248D01*
X021361Y006225D01*
X021381Y006199D01*
X021396Y006191D01*
X021408Y006178D01*
X021438Y006166D01*
X021467Y006149D01*
X021484Y006147D01*
X021500Y006140D01*
X021533Y006140D01*
X021565Y006136D01*
X021582Y006140D01*
X021828Y006140D01*
X021720Y006032D01*
X021720Y005676D01*
X021860Y005536D01*
X021860Y004794D01*
X021720Y004654D01*
X021720Y004298D01*
X021838Y004180D01*
X021704Y004180D01*
X021642Y004182D01*
X021639Y004180D01*
X021634Y004180D01*
X021577Y004156D01*
X021520Y004134D01*
X021517Y004131D01*
X021513Y004130D01*
X021470Y004086D01*
X020518Y003180D01*
X020008Y003180D01*
X019423Y003207D01*
X019416Y003210D01*
X019358Y003210D01*
X019300Y003213D01*
X019292Y003210D01*
X014983Y003210D01*
X015049Y003298D02*
X020641Y003298D01*
X020745Y003396D02*
X020406Y003396D01*
X020446Y003436D02*
X020490Y003542D01*
X020490Y005703D01*
X020578Y005820D01*
X020594Y005837D01*
X020599Y005849D01*
X020617Y005872D01*
X020629Y005921D01*
X020638Y005943D01*
X020638Y005956D01*
X020645Y005984D01*
X020638Y006034D01*
X020638Y006057D01*
X020633Y006070D01*
X020629Y006098D01*
X020603Y006142D01*
X020594Y006163D01*
X020585Y006173D01*
X020570Y006197D01*
X020530Y006228D01*
X020513Y006244D01*
X020501Y006249D01*
X020478Y006267D01*
X020429Y006279D01*
X020407Y006288D01*
X020394Y006288D01*
X020366Y006295D01*
X020316Y006288D01*
X020293Y006288D01*
X020280Y006283D01*
X020252Y006279D01*
X020208Y006253D01*
X020187Y006244D01*
X020177Y006235D01*
X020153Y006220D01*
X020122Y006180D01*
X020106Y006163D01*
X020101Y006151D01*
X019980Y005990D01*
X019954Y005964D01*
X019946Y005945D01*
X019933Y005928D01*
X019924Y005892D01*
X019910Y005858D01*
X019910Y005837D01*
X019905Y005816D01*
X019910Y005779D01*
X019910Y003542D01*
X019954Y003436D01*
X020036Y003354D01*
X020142Y003310D01*
X020258Y003310D01*
X020364Y003354D01*
X020446Y003436D01*
X020470Y003495D02*
X020848Y003495D01*
X020952Y003593D02*
X020490Y003593D01*
X020490Y003692D02*
X021055Y003692D01*
X021159Y003790D02*
X020490Y003790D01*
X020490Y003889D02*
X021262Y003889D01*
X021365Y003987D02*
X020490Y003987D01*
X020490Y004086D02*
X021469Y004086D01*
X021735Y004283D02*
X020490Y004283D01*
X020490Y004381D02*
X021720Y004381D01*
X021720Y004480D02*
X020490Y004480D01*
X020490Y004578D02*
X021720Y004578D01*
X021742Y004677D02*
X020490Y004677D01*
X020490Y004775D02*
X021841Y004775D01*
X021860Y004874D02*
X020490Y004874D01*
X020490Y004972D02*
X021860Y004972D01*
X021860Y005071D02*
X020490Y005071D01*
X020490Y005169D02*
X021860Y005169D01*
X021860Y005268D02*
X020490Y005268D01*
X020490Y005366D02*
X021860Y005366D01*
X021860Y005465D02*
X020490Y005465D01*
X020490Y005563D02*
X021833Y005563D01*
X021734Y005662D02*
X020490Y005662D01*
X020533Y005760D02*
X021720Y005760D01*
X021720Y005859D02*
X020606Y005859D01*
X020638Y005957D02*
X021720Y005957D01*
X021743Y006056D02*
X020638Y006056D01*
X020598Y006154D02*
X021458Y006154D01*
X021336Y006253D02*
X020497Y006253D01*
X020207Y006253D02*
X017717Y006253D01*
X017836Y006351D02*
X021266Y006351D01*
X021191Y006450D02*
X017955Y006450D01*
X018074Y006548D02*
X021117Y006548D01*
X021042Y006647D02*
X018192Y006647D01*
X018311Y006745D02*
X020967Y006745D01*
X020102Y006154D02*
X017598Y006154D01*
X017479Y006056D02*
X020029Y006056D01*
X019951Y005957D02*
X017360Y005957D01*
X017241Y005859D02*
X019910Y005859D01*
X019910Y005760D02*
X017122Y005760D01*
X017003Y005662D02*
X019910Y005662D01*
X019910Y005563D02*
X016884Y005563D01*
X016765Y005465D02*
X019910Y005465D01*
X019910Y005366D02*
X016647Y005366D01*
X016528Y005268D02*
X019910Y005268D01*
X019910Y005169D02*
X016409Y005169D01*
X016290Y005071D02*
X019910Y005071D01*
X019910Y004972D02*
X016171Y004972D01*
X016052Y004874D02*
X019910Y004874D01*
X019910Y004775D02*
X015933Y004775D01*
X015814Y004677D02*
X019910Y004677D01*
X019910Y004578D02*
X015695Y004578D01*
X015576Y004480D02*
X019910Y004480D01*
X019910Y004381D02*
X015457Y004381D01*
X015348Y004283D02*
X019910Y004283D01*
X019910Y004184D02*
X015257Y004184D01*
X015004Y004086D02*
X019910Y004086D01*
X019910Y003987D02*
X015071Y003987D01*
X015116Y003889D02*
X019910Y003889D01*
X019910Y003790D02*
X015143Y003790D01*
X015151Y003593D02*
X019910Y003593D01*
X019910Y003692D02*
X014004Y003692D01*
X015100Y003396D02*
X019994Y003396D01*
X019930Y003495D02*
X015134Y003495D01*
X019596Y003199D02*
X020538Y003199D01*
X021081Y002805D02*
X022890Y002805D01*
X022890Y002780D02*
X022890Y002920D01*
X023130Y003160D01*
X023270Y003160D01*
X023270Y002780D01*
X023330Y002780D01*
X023330Y003160D01*
X023470Y003160D01*
X023710Y002920D01*
X023710Y002780D01*
X023330Y002780D01*
X023330Y002720D01*
X023710Y002720D01*
X023710Y002580D01*
X023570Y002440D01*
X023625Y002440D01*
X023931Y002765D01*
X023882Y002815D01*
X023805Y002999D01*
X023805Y003197D01*
X023882Y003381D01*
X024022Y003522D01*
X024206Y003598D01*
X025065Y003598D01*
X025205Y003540D01*
X026930Y003540D01*
X027699Y004309D01*
X027631Y004393D01*
X027631Y004377D01*
X027555Y004193D01*
X027414Y004052D01*
X027230Y003976D01*
X026371Y003976D01*
X026188Y004052D01*
X026094Y004146D01*
X023428Y004146D01*
X023337Y004055D01*
X023230Y003787D01*
X023230Y003784D01*
X023206Y003726D01*
X023182Y003667D01*
X023181Y003665D01*
X023180Y003663D01*
X023135Y003618D01*
X023090Y003573D01*
X023088Y003572D01*
X023087Y003570D01*
X023028Y003546D01*
X022970Y003521D01*
X022968Y003521D01*
X022966Y003520D01*
X022902Y003520D01*
X022888Y003520D01*
X022980Y003428D01*
X022980Y003072D01*
X022728Y002820D01*
X022372Y002820D01*
X022120Y003072D01*
X022120Y003428D01*
X022212Y003520D01*
X021832Y003520D01*
X020971Y002700D01*
X021047Y002700D01*
X021094Y002701D01*
X021097Y002700D01*
X021100Y002700D01*
X021143Y002682D01*
X021187Y002665D01*
X021189Y002663D01*
X021192Y002662D01*
X021225Y002629D01*
X021850Y002030D01*
X022162Y002030D01*
X022120Y002072D01*
X022120Y002428D01*
X022372Y002680D01*
X022728Y002680D01*
X022968Y002440D01*
X023030Y002440D01*
X022890Y002580D01*
X022890Y002720D01*
X023270Y002720D01*
X023270Y002780D01*
X022890Y002780D01*
X022890Y002707D02*
X020978Y002707D01*
X021185Y002904D02*
X022288Y002904D01*
X022190Y003002D02*
X021288Y003002D01*
X021392Y003101D02*
X022120Y003101D01*
X022120Y003199D02*
X021495Y003199D01*
X021598Y003298D02*
X022120Y003298D01*
X022120Y003396D02*
X021702Y003396D01*
X021805Y003495D02*
X022186Y003495D01*
X022914Y003495D02*
X023995Y003495D01*
X023896Y003396D02*
X022980Y003396D01*
X022980Y003298D02*
X023847Y003298D01*
X023806Y003199D02*
X022980Y003199D01*
X022980Y003101D02*
X023071Y003101D01*
X022972Y003002D02*
X022910Y003002D01*
X022890Y002904D02*
X022812Y002904D01*
X022800Y002608D02*
X022890Y002608D01*
X022899Y002510D02*
X022961Y002510D01*
X023639Y002510D02*
X023690Y002510D01*
X023710Y002608D02*
X023783Y002608D01*
X023710Y002707D02*
X023876Y002707D01*
X023891Y002805D02*
X023710Y002805D01*
X023710Y002904D02*
X023845Y002904D01*
X023805Y003002D02*
X023628Y003002D01*
X023529Y003101D02*
X023805Y003101D01*
X023330Y003101D02*
X023270Y003101D01*
X023270Y003002D02*
X023330Y003002D01*
X023330Y002904D02*
X023270Y002904D01*
X023270Y002805D02*
X023330Y002805D01*
X023110Y003593D02*
X024194Y003593D01*
X025077Y003593D02*
X026983Y003593D01*
X027081Y003692D02*
X023192Y003692D01*
X023231Y003790D02*
X027180Y003790D01*
X027278Y003889D02*
X023271Y003889D01*
X023310Y003987D02*
X026345Y003987D01*
X026154Y004086D02*
X023368Y004086D01*
X022723Y004295D02*
X022676Y004180D01*
X022462Y004180D01*
X022580Y004298D01*
X022580Y004654D01*
X022440Y004794D01*
X022440Y005536D01*
X022580Y005676D01*
X022580Y006032D01*
X022472Y006140D01*
X022828Y006140D01*
X022720Y006032D01*
X022720Y005676D01*
X022972Y005424D01*
X023328Y005424D01*
X023425Y005521D01*
X023930Y005522D01*
X024022Y005430D01*
X024206Y005354D01*
X025065Y005354D01*
X025249Y005430D01*
X025389Y005571D01*
X025465Y005754D01*
X025465Y005953D01*
X025389Y006137D01*
X025249Y006278D01*
X025065Y006354D01*
X024206Y006354D01*
X024022Y006278D01*
X023926Y006182D01*
X023431Y006181D01*
X023421Y006191D01*
X023421Y006376D01*
X023377Y006483D01*
X023296Y006564D01*
X023225Y006594D01*
X023231Y006603D01*
X023238Y006632D01*
X023250Y006660D01*
X023250Y006680D01*
X023280Y006802D01*
X023328Y006802D01*
X023422Y006896D01*
X025983Y006902D01*
X026094Y006902D01*
X026188Y006808D01*
X026371Y006732D01*
X027230Y006732D01*
X027414Y006808D01*
X027555Y006949D01*
X027631Y007132D01*
X027631Y007331D01*
X027555Y007515D01*
X027414Y007656D01*
X027230Y007732D01*
X026371Y007732D01*
X026188Y007656D01*
X026094Y007562D01*
X026047Y007562D01*
X026047Y007562D01*
X025981Y007562D01*
X025916Y007562D01*
X025916Y007562D01*
X023434Y007556D01*
X023328Y007662D01*
X023105Y007662D01*
X023170Y007705D01*
X025289Y007705D01*
X025377Y007680D01*
X025492Y007694D01*
X026294Y008145D01*
X026296Y008145D01*
X026344Y008173D01*
X026392Y008201D01*
X026394Y008202D01*
X027342Y008752D01*
X027304Y008714D01*
X027260Y008608D01*
X027260Y008492D01*
X027304Y008386D01*
X027386Y008304D01*
X027492Y008260D01*
X027610Y008260D01*
X027610Y008242D01*
X027617Y008225D01*
X027710Y007482D01*
X027710Y006971D01*
X027424Y006812D01*
X027386Y006796D01*
X027374Y006784D01*
X027359Y006775D01*
X027333Y006743D01*
X027304Y006714D01*
X027298Y006699D01*
X027287Y006685D01*
X027276Y006646D01*
X027260Y006608D01*
X027260Y006591D01*
X027255Y006574D01*
X027260Y006533D01*
X027260Y004964D01*
X027230Y004976D01*
X026371Y004976D01*
X026188Y004900D01*
X026094Y004806D01*
X023428Y004806D01*
X023328Y004906D01*
X022972Y004906D01*
X022720Y004654D01*
X022720Y004298D01*
X022723Y004295D01*
X022717Y004283D02*
X022565Y004283D01*
X022580Y004381D02*
X022720Y004381D01*
X022720Y004480D02*
X022580Y004480D01*
X022580Y004578D02*
X022720Y004578D01*
X022742Y004677D02*
X022558Y004677D01*
X022459Y004775D02*
X022841Y004775D01*
X022939Y004874D02*
X022440Y004874D01*
X022440Y004972D02*
X026362Y004972D01*
X026161Y004874D02*
X023361Y004874D01*
X023369Y005465D02*
X023988Y005465D01*
X024177Y005366D02*
X022440Y005366D01*
X022440Y005268D02*
X027260Y005268D01*
X027260Y005366D02*
X025094Y005366D01*
X025283Y005465D02*
X027260Y005465D01*
X027260Y005563D02*
X025382Y005563D01*
X025427Y005662D02*
X027260Y005662D01*
X027260Y005760D02*
X025465Y005760D01*
X025465Y005859D02*
X027260Y005859D01*
X027260Y005957D02*
X025464Y005957D01*
X025423Y006056D02*
X027260Y006056D01*
X027260Y006154D02*
X025372Y006154D01*
X025274Y006253D02*
X027260Y006253D01*
X027260Y006351D02*
X025072Y006351D01*
X024199Y006351D02*
X023421Y006351D01*
X023421Y006253D02*
X023997Y006253D01*
X023391Y006450D02*
X027260Y006450D01*
X027258Y006548D02*
X023312Y006548D01*
X023244Y006647D02*
X027276Y006647D01*
X027262Y006745D02*
X027335Y006745D01*
X027450Y006844D02*
X027481Y006844D01*
X027548Y006942D02*
X027658Y006942D01*
X027710Y007041D02*
X027593Y007041D01*
X027631Y007139D02*
X027710Y007139D01*
X027710Y007238D02*
X027631Y007238D01*
X027629Y007336D02*
X027710Y007336D01*
X027710Y007435D02*
X027588Y007435D01*
X027537Y007533D02*
X027704Y007533D01*
X027691Y007632D02*
X027438Y007632D01*
X027235Y007730D02*
X027679Y007730D01*
X027667Y007829D02*
X025731Y007829D01*
X025906Y007927D02*
X027654Y007927D01*
X027642Y008026D02*
X026081Y008026D01*
X026256Y008124D02*
X027630Y008124D01*
X027617Y008223D02*
X026429Y008223D01*
X026599Y008321D02*
X027369Y008321D01*
X027290Y008420D02*
X026769Y008420D01*
X026938Y008518D02*
X027260Y008518D01*
X027264Y008617D02*
X027108Y008617D01*
X027278Y008715D02*
X027305Y008715D01*
X026971Y009208D02*
X022440Y009208D01*
X022440Y009306D02*
X027141Y009306D01*
X027272Y009382D02*
X027510Y009620D01*
X027510Y009660D01*
X027414Y009564D01*
X027230Y009488D01*
X026371Y009488D01*
X026188Y009564D01*
X026054Y009698D01*
X023468Y009698D01*
X023328Y009558D01*
X022972Y009558D01*
X022720Y009810D01*
X022720Y010053D01*
X022580Y009948D01*
X022580Y009810D01*
X022440Y009670D01*
X022440Y008928D01*
X022580Y008788D01*
X022580Y008432D01*
X022488Y008340D01*
X022565Y008340D01*
X022720Y008510D01*
X022720Y008788D01*
X022972Y009040D01*
X023328Y009040D01*
X023468Y008900D01*
X023888Y008900D01*
X024022Y009034D01*
X024206Y009110D01*
X025065Y009110D01*
X025249Y009034D01*
X025389Y008893D01*
X025465Y008709D01*
X025465Y008510D01*
X025389Y008327D01*
X025332Y008270D01*
X026056Y008677D01*
X027272Y009382D01*
X027294Y009405D02*
X022440Y009405D01*
X022440Y009503D02*
X026335Y009503D01*
X026150Y009602D02*
X023372Y009602D01*
X022928Y009602D02*
X022440Y009602D01*
X022470Y009700D02*
X022830Y009700D01*
X022731Y009799D02*
X022569Y009799D01*
X022580Y009897D02*
X022720Y009897D01*
X022720Y009996D02*
X022644Y009996D01*
X023356Y010390D02*
X026165Y010390D01*
X026067Y010291D02*
X023455Y010291D01*
X023634Y010488D02*
X027056Y010488D01*
X026904Y010587D02*
X023765Y010587D01*
X023897Y010685D02*
X026752Y010685D01*
X026601Y010784D02*
X023968Y010784D01*
X023990Y010882D02*
X024167Y010882D01*
X023984Y010981D02*
X023979Y010981D01*
X025104Y010882D02*
X026529Y010882D01*
X026508Y010981D02*
X025287Y010981D01*
X025386Y011079D02*
X026510Y011079D01*
X026510Y011178D02*
X025429Y011178D01*
X025465Y011276D02*
X026510Y011276D01*
X026510Y011375D02*
X025465Y011375D01*
X025462Y011473D02*
X026510Y011473D01*
X026510Y011572D02*
X025421Y011572D01*
X025368Y011670D02*
X026515Y011670D01*
X026558Y011769D02*
X025270Y011769D01*
X024001Y011769D02*
X023982Y011769D01*
X023937Y011867D02*
X026686Y011867D01*
X026883Y011966D02*
X023861Y011966D01*
X023784Y012064D02*
X027080Y012064D01*
X027277Y012163D02*
X023708Y012163D01*
X023631Y012261D02*
X026329Y012261D01*
X026148Y012360D02*
X023554Y012360D01*
X023472Y012458D02*
X026049Y012458D01*
X026007Y012557D02*
X023571Y012557D01*
X023580Y012655D02*
X025971Y012655D01*
X025971Y012754D02*
X023580Y012754D01*
X023580Y012852D02*
X025949Y012852D01*
X025855Y012951D02*
X023551Y012951D01*
X023453Y013049D02*
X025761Y013049D01*
X025711Y013148D02*
X023354Y013148D01*
X022946Y013148D02*
X022354Y013148D01*
X022453Y013049D02*
X022847Y013049D01*
X022749Y012951D02*
X022551Y012951D01*
X022580Y012852D02*
X022720Y012852D01*
X022720Y012754D02*
X022580Y012754D01*
X022649Y012655D02*
X022720Y012655D01*
X022086Y013246D02*
X025695Y013246D01*
X025706Y013345D02*
X022100Y013345D01*
X022100Y013443D02*
X025735Y013443D01*
X027454Y012360D02*
X027483Y012360D01*
X027421Y012261D02*
X027272Y012261D01*
X028140Y012360D02*
X028203Y012360D01*
X028140Y012458D02*
X028305Y012458D01*
X028407Y012557D02*
X028140Y012557D01*
X028140Y012655D02*
X028509Y012655D01*
X028611Y012754D02*
X028140Y012754D01*
X028140Y012852D02*
X028712Y012852D01*
X028814Y012951D02*
X028140Y012951D01*
X028140Y013049D02*
X028916Y013049D01*
X029018Y013148D02*
X028140Y013148D01*
X028103Y013246D02*
X029120Y013246D01*
X029222Y013345D02*
X028016Y013345D01*
X027917Y013443D02*
X029324Y013443D01*
X029680Y013936D02*
X030332Y013936D01*
X031684Y013148D02*
X034360Y013148D01*
X034100Y013246D02*
X033031Y013246D01*
X033272Y013542D02*
X034000Y013542D01*
X034000Y013640D02*
X033362Y013640D01*
X033629Y013739D02*
X034000Y013739D01*
X034000Y013837D02*
X033746Y013837D01*
X033788Y013936D02*
X034000Y013936D01*
X034000Y014034D02*
X033792Y014034D01*
X033789Y014133D02*
X034000Y014133D01*
X034000Y014231D02*
X033788Y014231D01*
X033200Y014921D02*
X033196Y014921D01*
X033199Y015019D02*
X033097Y015019D01*
X033198Y015118D02*
X031706Y015118D01*
X031804Y015216D02*
X033197Y015216D01*
X033196Y015315D02*
X031845Y015315D01*
X031881Y015413D02*
X033195Y015413D01*
X033194Y015512D02*
X031881Y015512D01*
X031876Y015610D02*
X033193Y015610D01*
X033192Y015709D02*
X031835Y015709D01*
X031780Y015807D02*
X033191Y015807D01*
X033190Y015906D02*
X031682Y015906D01*
X031849Y016103D02*
X033188Y016103D01*
X033187Y016201D02*
X032031Y016201D01*
X032214Y016300D02*
X033186Y016300D01*
X033185Y016398D02*
X032397Y016398D01*
X032532Y016497D02*
X033184Y016497D01*
X033183Y016595D02*
X032581Y016595D01*
X032590Y016694D02*
X033182Y016694D01*
X033181Y016792D02*
X032590Y016792D01*
X032590Y016891D02*
X033180Y016891D01*
X033179Y016989D02*
X032590Y016989D01*
X032590Y017088D02*
X033178Y017088D01*
X033177Y017186D02*
X032590Y017186D01*
X032590Y017285D02*
X033176Y017285D01*
X033175Y017383D02*
X032590Y017383D01*
X032590Y017482D02*
X033174Y017482D01*
X033173Y017580D02*
X032590Y017580D01*
X032590Y017679D02*
X033172Y017679D01*
X033171Y017777D02*
X032590Y017777D01*
X032590Y017876D02*
X033170Y017876D01*
X033169Y017974D02*
X032590Y017974D01*
X032590Y018073D02*
X033168Y018073D01*
X033167Y018171D02*
X032590Y018171D01*
X032590Y018270D02*
X033166Y018270D01*
X033165Y018368D02*
X032590Y018368D01*
X032590Y018467D02*
X033164Y018467D01*
X033163Y018565D02*
X032590Y018565D01*
X032590Y018664D02*
X033162Y018664D01*
X033109Y018762D02*
X032590Y018762D01*
X032570Y018861D02*
X033024Y018861D01*
X032940Y018959D02*
X032502Y018959D01*
X032383Y019058D02*
X032855Y019058D01*
X032771Y019156D02*
X032264Y019156D01*
X032145Y019255D02*
X032686Y019255D01*
X032602Y019353D02*
X032025Y019353D01*
X031909Y019452D02*
X032517Y019452D01*
X032198Y019550D02*
X030560Y019550D01*
X030515Y019649D02*
X031008Y019649D01*
X030871Y019747D02*
X030579Y019747D01*
X030661Y019846D02*
X030789Y019846D01*
X030748Y019944D02*
X030702Y019944D01*
X030725Y020001D02*
X030725Y020199D01*
X030795Y020369D01*
X030655Y020369D01*
X030725Y020199D01*
X030725Y020001D01*
X030725Y020043D02*
X030725Y020043D01*
X030725Y020141D02*
X030725Y020141D01*
X030708Y020240D02*
X030742Y020240D01*
X030782Y020338D02*
X030668Y020338D01*
X029795Y020369D02*
X029725Y020199D01*
X029725Y020001D01*
X029725Y020199D01*
X029655Y020369D01*
X029795Y020369D01*
X029782Y020338D02*
X029668Y020338D01*
X029708Y020240D02*
X029742Y020240D01*
X029725Y020141D02*
X029725Y020141D01*
X029725Y020043D02*
X029725Y020043D01*
X029702Y019944D02*
X029748Y019944D01*
X029789Y019846D02*
X029661Y019846D01*
X029579Y019747D02*
X029871Y019747D01*
X029935Y019649D02*
X029515Y019649D01*
X029515Y019550D02*
X029935Y019550D01*
X029935Y019452D02*
X029515Y019452D01*
X029515Y019353D02*
X029962Y019353D01*
X030035Y019255D02*
X029600Y019255D01*
X029648Y019156D02*
X030134Y019156D01*
X030232Y019058D02*
X029746Y019058D01*
X029845Y018959D02*
X030359Y018959D01*
X030469Y018666D02*
X030408Y018622D01*
X030355Y018568D01*
X030310Y018507D01*
X030276Y018440D01*
X030253Y018368D01*
X030225Y018368D01*
X030253Y018368D02*
X030243Y018306D01*
X031001Y018306D01*
X031001Y018736D01*
X030683Y018736D01*
X030608Y018724D01*
X030537Y018700D01*
X030469Y018666D01*
X030466Y018664D02*
X030140Y018664D01*
X030208Y018565D02*
X030352Y018565D01*
X030290Y018467D02*
X030225Y018467D01*
X030225Y018270D02*
X031001Y018270D01*
X031001Y018306D02*
X031001Y018206D01*
X030243Y018206D01*
X030253Y018143D01*
X030276Y018071D01*
X030310Y018004D01*
X030355Y017943D01*
X030408Y017889D01*
X030469Y017845D01*
X030537Y017811D01*
X030608Y017787D01*
X030683Y017776D01*
X031001Y017776D01*
X031001Y018206D01*
X031101Y018206D01*
X031101Y018306D01*
X031001Y018306D01*
X031001Y018368D02*
X031101Y018368D01*
X031101Y018306D02*
X031101Y018736D01*
X031419Y018736D01*
X031493Y018724D01*
X031565Y018700D01*
X031632Y018666D01*
X031693Y018622D01*
X031747Y018568D01*
X031791Y018507D01*
X031826Y018440D01*
X031849Y018368D01*
X032010Y018368D01*
X032010Y018270D02*
X031101Y018270D01*
X031101Y018306D02*
X031859Y018306D01*
X031849Y018368D01*
X031812Y018467D02*
X032010Y018467D01*
X032010Y018565D02*
X031749Y018565D01*
X031636Y018664D02*
X031949Y018664D01*
X031830Y018762D02*
X030042Y018762D01*
X029943Y018861D02*
X031711Y018861D01*
X031101Y018664D02*
X031001Y018664D01*
X031001Y018565D02*
X031101Y018565D01*
X031101Y018467D02*
X031001Y018467D01*
X031101Y018206D02*
X031859Y018206D01*
X031849Y018143D01*
X031826Y018071D01*
X031791Y018004D01*
X031747Y017943D01*
X031693Y017889D01*
X031632Y017845D01*
X031565Y017811D01*
X031493Y017787D01*
X031419Y017776D01*
X031101Y017776D01*
X031101Y018206D01*
X031101Y018171D02*
X031001Y018171D01*
X031001Y018073D02*
X031101Y018073D01*
X031101Y017974D02*
X031001Y017974D01*
X031001Y017876D02*
X031101Y017876D01*
X031101Y017777D02*
X031001Y017777D01*
X031146Y017679D02*
X030317Y017679D01*
X030225Y017777D02*
X030673Y017777D01*
X030427Y017876D02*
X030225Y017876D01*
X030225Y017974D02*
X030332Y017974D01*
X030276Y018073D02*
X030225Y018073D01*
X030225Y018171D02*
X030248Y018171D01*
X031428Y017777D02*
X032010Y017777D01*
X032010Y017679D02*
X031554Y017679D01*
X031618Y017580D02*
X032010Y017580D01*
X032010Y017482D02*
X031638Y017482D01*
X031624Y017383D02*
X032010Y017383D01*
X032010Y017285D02*
X031567Y017285D01*
X031415Y017186D02*
X032010Y017186D01*
X032010Y017088D02*
X029670Y017088D01*
X029710Y016989D02*
X032010Y016989D01*
X032010Y016891D02*
X029715Y016891D01*
X029715Y016792D02*
X031906Y016792D01*
X031723Y016694D02*
X029680Y016694D01*
X029640Y016595D02*
X029949Y016595D01*
X029939Y016004D02*
X033189Y016004D01*
X030420Y015906D02*
X029390Y015906D01*
X028090Y016694D02*
X028076Y016694D01*
X028055Y016792D02*
X027913Y016792D01*
X028055Y016891D02*
X027750Y016891D01*
X027586Y016989D02*
X028060Y016989D01*
X028101Y017088D02*
X027423Y017088D01*
X027259Y017186D02*
X028157Y017186D01*
X028255Y017285D02*
X027096Y017285D01*
X026933Y017383D02*
X029855Y017383D01*
X029717Y017482D02*
X026769Y017482D01*
X026512Y017580D02*
X029123Y017580D01*
X029006Y017679D02*
X026331Y017679D01*
X026319Y017777D02*
X026150Y017777D01*
X026144Y017876D02*
X025969Y017876D01*
X026046Y017974D02*
X025787Y017974D01*
X025606Y018073D02*
X026005Y018073D01*
X027282Y017777D02*
X028888Y017777D01*
X028770Y017876D02*
X027458Y017876D01*
X027555Y017974D02*
X028653Y017974D01*
X028535Y018073D02*
X027596Y018073D01*
X027631Y018171D02*
X028417Y018171D01*
X028300Y018270D02*
X027631Y018270D01*
X027625Y018368D02*
X028182Y018368D01*
X028064Y018467D02*
X027585Y018467D01*
X027528Y018565D02*
X027914Y018565D01*
X027750Y018664D02*
X027430Y018664D01*
X027273Y019622D02*
X027337Y019632D01*
X027409Y019655D01*
X027477Y019689D01*
X027538Y019734D01*
X027591Y019787D01*
X027636Y019848D01*
X027670Y019916D01*
X027693Y019988D01*
X027703Y020052D01*
X027273Y020052D01*
X027273Y020148D01*
X027703Y020148D01*
X027693Y020212D01*
X027670Y020284D01*
X027636Y020352D01*
X027623Y020369D01*
X027795Y020369D01*
X027725Y020199D01*
X027725Y020001D01*
X027801Y019817D01*
X027810Y019808D01*
X027810Y019575D01*
X023855Y019575D01*
X023101Y019924D01*
X023130Y019954D01*
X023287Y019954D01*
X023421Y020088D01*
X023421Y020111D01*
X023445Y020111D01*
X023579Y020245D01*
X023579Y020369D01*
X026827Y020369D01*
X026814Y020352D01*
X026780Y020284D01*
X026757Y020212D01*
X026747Y020148D01*
X027177Y020148D01*
X027177Y020052D01*
X027273Y020052D01*
X027273Y019622D01*
X027273Y019649D02*
X027177Y019649D01*
X027177Y019622D02*
X027177Y020052D01*
X026747Y020052D01*
X026757Y019988D01*
X026780Y019916D01*
X026814Y019848D01*
X026859Y019787D01*
X026912Y019734D01*
X026973Y019689D01*
X027041Y019655D01*
X027113Y019632D01*
X027177Y019622D01*
X027061Y019649D02*
X023696Y019649D01*
X023484Y019747D02*
X026899Y019747D01*
X026817Y019846D02*
X023271Y019846D01*
X023120Y019944D02*
X026771Y019944D01*
X026748Y020043D02*
X023376Y020043D01*
X023475Y020141D02*
X027177Y020141D01*
X027273Y020141D02*
X027725Y020141D01*
X027725Y020043D02*
X027702Y020043D01*
X027679Y019944D02*
X027748Y019944D01*
X027789Y019846D02*
X027633Y019846D01*
X027551Y019747D02*
X027810Y019747D01*
X027810Y019649D02*
X027389Y019649D01*
X027273Y019747D02*
X027177Y019747D01*
X027177Y019846D02*
X027273Y019846D01*
X027273Y019944D02*
X027177Y019944D01*
X027177Y020043D02*
X027273Y020043D01*
X027684Y020240D02*
X027742Y020240D01*
X027782Y020338D02*
X027642Y020338D01*
X026808Y020338D02*
X023579Y020338D01*
X023573Y020240D02*
X026766Y020240D01*
X023487Y018861D02*
X021904Y018861D01*
X022002Y018959D02*
X023273Y018959D01*
X023059Y019058D02*
X022051Y019058D01*
X022090Y019156D02*
X022845Y019156D01*
X022631Y019255D02*
X022090Y019255D01*
X022088Y019353D02*
X022417Y019353D01*
X022203Y019452D02*
X022047Y019452D01*
X021702Y018762D02*
X023701Y018762D01*
X023705Y017285D02*
X024005Y017285D01*
X023907Y017186D02*
X023745Y017186D01*
X023785Y017088D02*
X023851Y017088D01*
X022584Y016792D02*
X022459Y016792D01*
X022541Y016891D02*
X022545Y016891D01*
X021445Y015216D02*
X023680Y015216D01*
X025790Y015906D02*
X026170Y015906D01*
X026071Y015807D02*
X025826Y015807D01*
X025866Y015709D02*
X026016Y015709D01*
X025975Y015610D02*
X025905Y015610D01*
X029516Y017285D02*
X029994Y017285D01*
X030225Y017186D02*
X029614Y017186D01*
X031674Y017876D02*
X032010Y017876D01*
X032010Y017974D02*
X031770Y017974D01*
X031826Y018073D02*
X032010Y018073D01*
X032010Y018171D02*
X031853Y018171D01*
X031746Y019649D02*
X031442Y019649D01*
X032585Y020141D02*
X033383Y020141D01*
X033481Y020043D02*
X032829Y020043D01*
X032900Y019944D02*
X033737Y019944D01*
X034065Y019944D02*
X034558Y019944D01*
X034484Y019846D02*
X032943Y019846D01*
X033028Y019747D02*
X034425Y019747D01*
X034321Y020043D02*
X034632Y020043D01*
X034837Y020141D02*
X034420Y020141D01*
X034518Y020240D02*
X035995Y020240D01*
X035995Y020338D02*
X034524Y020338D01*
X034882Y020141D02*
X035995Y020141D01*
X035995Y020043D02*
X035073Y020043D01*
X035130Y019944D02*
X035995Y019944D01*
X035995Y019846D02*
X035144Y019846D01*
X035123Y019747D02*
X035995Y019747D01*
X035995Y019649D02*
X035061Y019649D01*
X034990Y019550D02*
X035995Y019550D01*
X035995Y019452D02*
X034990Y019452D01*
X033284Y020240D02*
X032133Y020240D01*
X031682Y020338D02*
X033279Y020338D01*
X034000Y013443D02*
X034000Y013400D01*
X034003Y013393D01*
X034003Y013386D01*
X034022Y013347D01*
X032057Y013049D02*
X031783Y013049D01*
X031836Y012951D02*
X031934Y012951D01*
X031862Y012458D02*
X031802Y012458D01*
X031704Y012360D02*
X031924Y012360D01*
X032033Y012261D02*
X031522Y012261D01*
X031642Y011966D02*
X033271Y011966D01*
X033271Y012064D02*
X028732Y012064D01*
X028630Y011966D02*
X031258Y011966D01*
X031187Y011867D02*
X028529Y011867D01*
X027491Y009602D02*
X027452Y009602D01*
X027393Y009503D02*
X027267Y009503D01*
X026801Y009109D02*
X025067Y009109D01*
X025272Y009011D02*
X026632Y009011D01*
X026462Y008912D02*
X025370Y008912D01*
X025422Y008814D02*
X026292Y008814D01*
X026122Y008715D02*
X025463Y008715D01*
X025465Y008617D02*
X025949Y008617D01*
X025774Y008518D02*
X025465Y008518D01*
X025428Y008420D02*
X025599Y008420D01*
X025424Y008321D02*
X025384Y008321D01*
X025556Y007730D02*
X026367Y007730D01*
X026163Y007632D02*
X023358Y007632D01*
X023370Y006844D02*
X026152Y006844D01*
X026340Y006745D02*
X023266Y006745D01*
X022743Y006056D02*
X022557Y006056D01*
X022580Y005957D02*
X022720Y005957D01*
X022720Y005859D02*
X022580Y005859D01*
X022580Y005760D02*
X022720Y005760D01*
X022734Y005662D02*
X022566Y005662D01*
X022467Y005563D02*
X022833Y005563D01*
X022931Y005465D02*
X022440Y005465D01*
X022440Y005169D02*
X027260Y005169D01*
X027260Y005071D02*
X022440Y005071D01*
X022466Y004184D02*
X022678Y004184D01*
X021834Y004184D02*
X020490Y004184D01*
X021246Y002608D02*
X022300Y002608D01*
X022201Y002510D02*
X021349Y002510D01*
X021452Y002411D02*
X022120Y002411D01*
X022120Y002313D02*
X021555Y002313D01*
X021658Y002214D02*
X022120Y002214D01*
X022120Y002116D02*
X021761Y002116D01*
X027257Y003987D02*
X027377Y003987D01*
X027447Y004086D02*
X027475Y004086D01*
X027546Y004184D02*
X027574Y004184D01*
X027592Y004283D02*
X027672Y004283D01*
X027641Y004381D02*
X027631Y004381D01*
X027260Y004964D02*
X027260Y004964D01*
X027260Y004972D02*
X027240Y004972D01*
X022720Y008518D02*
X022580Y008518D01*
X022580Y008617D02*
X022720Y008617D01*
X022720Y008715D02*
X022580Y008715D01*
X022554Y008814D02*
X022746Y008814D01*
X022844Y008912D02*
X022456Y008912D01*
X022440Y009011D02*
X022943Y009011D01*
X023357Y009011D02*
X023999Y009011D01*
X023901Y008912D02*
X023456Y008912D01*
X024204Y009109D02*
X022440Y009109D01*
X022568Y008420D02*
X022637Y008420D01*
X021656Y011178D02*
X021615Y011178D01*
X021615Y011276D02*
X021720Y011276D01*
X021720Y011375D02*
X021615Y011375D01*
X021615Y011473D02*
X021720Y011473D01*
X021748Y011572D02*
X021615Y011572D01*
X021615Y011670D02*
X021846Y011670D01*
X021945Y011769D02*
X021615Y011769D01*
X022355Y011769D02*
X022945Y011769D01*
X020103Y011867D02*
X020063Y011867D01*
X019955Y011769D02*
X015078Y011769D01*
X015121Y011670D02*
X019807Y011670D01*
X019659Y011572D02*
X015145Y011572D01*
X012894Y011867D02*
X012881Y011867D01*
X012830Y011769D02*
X012675Y011769D01*
X012675Y011670D02*
X012788Y011670D01*
X012764Y011572D02*
X012675Y011572D01*
X012005Y011079D02*
X011704Y011079D01*
X011781Y011178D02*
X011886Y011178D01*
X011080Y012163D02*
X004579Y012163D01*
X004678Y012261D02*
X011080Y012261D01*
X011673Y013443D02*
X006373Y013443D01*
X006359Y014133D02*
X011072Y014133D01*
X011107Y014262D02*
X011213Y014306D01*
X011294Y014387D01*
X011338Y014493D01*
X011338Y014607D01*
X011294Y014713D01*
X011213Y014794D01*
X011107Y014838D01*
X010993Y014838D01*
X010901Y014800D01*
X010154Y014800D01*
X009450Y015504D01*
X009450Y015551D01*
X009488Y015643D01*
X009488Y015757D01*
X009444Y015863D01*
X009363Y015944D01*
X009257Y015988D01*
X009143Y015988D01*
X009037Y015944D01*
X008956Y015863D01*
X008912Y015757D01*
X008912Y015643D01*
X008950Y015551D01*
X008950Y015350D01*
X008988Y015258D01*
X009838Y014408D01*
X009908Y014338D01*
X010000Y014300D01*
X010901Y014300D01*
X010993Y014262D01*
X011107Y014262D01*
X011166Y014231D02*
X006428Y014231D01*
X006650Y014330D02*
X009929Y014330D01*
X009818Y014428D02*
X006791Y014428D01*
X006922Y014527D02*
X009720Y014527D01*
X009621Y014625D02*
X007053Y014625D01*
X007183Y014724D02*
X009523Y014724D01*
X009424Y014822D02*
X007314Y014822D01*
X007445Y014921D02*
X009326Y014921D01*
X009227Y015019D02*
X007576Y015019D01*
X007706Y015118D02*
X009129Y015118D01*
X009030Y015216D02*
X007837Y015216D01*
X007968Y015315D02*
X008965Y015315D01*
X008950Y015413D02*
X008099Y015413D01*
X008229Y015512D02*
X008950Y015512D01*
X008925Y015610D02*
X008360Y015610D01*
X008491Y015709D02*
X008912Y015709D01*
X008932Y015807D02*
X008621Y015807D01*
X008752Y015906D02*
X008998Y015906D01*
X008883Y016004D02*
X012734Y016004D01*
X012734Y016103D02*
X009014Y016103D01*
X009144Y016201D02*
X012734Y016201D01*
X012746Y016300D02*
X009275Y016300D01*
X009406Y016398D02*
X012787Y016398D01*
X012827Y016497D02*
X009537Y016497D01*
X009667Y016595D02*
X012908Y016595D01*
X013007Y016694D02*
X009798Y016694D01*
X009929Y016792D02*
X013203Y016792D01*
X013074Y017088D02*
X010321Y017088D01*
X010452Y017186D02*
X012953Y017186D01*
X012854Y017285D02*
X010583Y017285D01*
X010713Y017383D02*
X012805Y017383D01*
X012764Y017482D02*
X010844Y017482D01*
X010975Y017580D02*
X012734Y017580D01*
X012734Y017679D02*
X011106Y017679D01*
X011236Y017777D02*
X012734Y017777D01*
X012753Y017876D02*
X011367Y017876D01*
X011498Y017974D02*
X012794Y017974D01*
X012834Y018073D02*
X011629Y018073D01*
X011759Y018171D02*
X012925Y018171D01*
X012964Y018762D02*
X012702Y018762D01*
X012727Y019353D02*
X012762Y019353D01*
X012322Y019649D02*
X010020Y019649D01*
X010310Y019747D02*
X012406Y019747D01*
X012490Y019846D02*
X010540Y019846D01*
X010705Y019944D02*
X012574Y019944D01*
X012238Y019550D02*
X009730Y019550D01*
X009440Y019452D02*
X012154Y019452D01*
X011139Y019353D02*
X009150Y019353D01*
X008860Y019255D02*
X011014Y019255D01*
X010888Y019156D02*
X008570Y019156D01*
X008280Y019058D02*
X010763Y019058D01*
X010637Y018959D02*
X007990Y018959D01*
X007771Y018861D02*
X010512Y018861D01*
X010386Y018762D02*
X007672Y018762D01*
X007574Y018664D02*
X010261Y018664D01*
X010135Y018565D02*
X007475Y018565D01*
X007377Y018467D02*
X010010Y018467D01*
X009885Y018368D02*
X007278Y018368D01*
X007180Y018270D02*
X009759Y018270D01*
X009634Y018171D02*
X007081Y018171D01*
X006983Y018073D02*
X009508Y018073D01*
X009383Y017974D02*
X006884Y017974D01*
X006753Y018664D02*
X006213Y018664D01*
X006311Y018762D02*
X006852Y018762D01*
X006950Y018861D02*
X006408Y018861D01*
X006449Y018959D02*
X007049Y018959D01*
X007147Y019058D02*
X006490Y019058D01*
X006513Y019156D02*
X007246Y019156D01*
X007344Y019255D02*
X006513Y019255D01*
X006513Y019353D02*
X007442Y019353D01*
X007636Y019452D02*
X006487Y019452D01*
X006447Y019550D02*
X007926Y019550D01*
X008216Y019649D02*
X006404Y019649D01*
X006305Y019747D02*
X008506Y019747D01*
X008796Y019846D02*
X006200Y019846D01*
X005962Y019944D02*
X009086Y019944D01*
X009376Y020043D02*
X003298Y020043D01*
X003396Y020141D02*
X009666Y020141D01*
X009956Y020240D02*
X003495Y020240D01*
X003500Y020338D02*
X010228Y020338D01*
X004624Y019944D02*
X003042Y019944D01*
X002714Y019944D02*
X000500Y019944D01*
X000500Y019846D02*
X004386Y019846D01*
X004281Y019747D02*
X000500Y019747D01*
X000500Y019649D02*
X000834Y019649D01*
X000755Y019616D02*
X000609Y019470D01*
X000530Y019278D01*
X000530Y019072D01*
X000609Y018880D01*
X000755Y018734D01*
X000947Y018655D01*
X001153Y018655D01*
X001345Y018734D01*
X001491Y018880D01*
X001570Y019072D01*
X001570Y019278D01*
X001491Y019470D01*
X001345Y019616D01*
X001153Y019695D01*
X000947Y019695D01*
X000755Y019616D01*
X000690Y019550D02*
X000500Y019550D01*
X000500Y019452D02*
X000602Y019452D01*
X000561Y019353D02*
X000500Y019353D01*
X000500Y019255D02*
X000530Y019255D01*
X000530Y019156D02*
X000500Y019156D01*
X000500Y019058D02*
X000536Y019058D01*
X000500Y018959D02*
X000577Y018959D01*
X000629Y018861D02*
X000500Y018861D01*
X000500Y018762D02*
X000728Y018762D01*
X000926Y018664D02*
X000500Y018664D01*
X000500Y018565D02*
X002268Y018565D01*
X002189Y018486D02*
X002352Y018649D01*
X002534Y018724D01*
X002488Y018747D01*
X002424Y018794D01*
X002369Y018849D01*
X002322Y018913D01*
X002287Y018983D01*
X002262Y019058D01*
X002251Y019127D01*
X002702Y019127D01*
X002702Y019223D01*
X002251Y019223D01*
X002262Y019292D01*
X002287Y019367D01*
X002322Y019437D01*
X002369Y019501D01*
X002424Y019556D01*
X002488Y019603D01*
X002558Y019638D01*
X002633Y019663D01*
X002702Y019674D01*
X002702Y019223D01*
X002798Y019223D01*
X003249Y019223D01*
X003238Y019292D01*
X003213Y019367D01*
X003178Y019437D01*
X003131Y019501D01*
X003076Y019556D01*
X003012Y019603D01*
X002942Y019638D01*
X002867Y019663D01*
X002798Y019674D01*
X002798Y019223D01*
X002798Y019127D01*
X003249Y019127D01*
X003238Y019058D01*
X003213Y018983D01*
X003178Y018913D01*
X003131Y018849D01*
X003076Y018794D01*
X003012Y018747D01*
X002942Y018712D01*
X002895Y018696D01*
X003009Y018649D01*
X003172Y018486D01*
X003261Y018272D01*
X003261Y018042D01*
X003172Y017829D01*
X003009Y017665D01*
X002796Y017577D01*
X002565Y017577D01*
X002352Y017665D01*
X002189Y017829D01*
X002101Y018042D01*
X002101Y018272D01*
X002189Y018486D01*
X002181Y018467D02*
X000500Y018467D01*
X000500Y018368D02*
X002140Y018368D01*
X002101Y018270D02*
X000500Y018270D01*
X000500Y018171D02*
X002101Y018171D01*
X002101Y018073D02*
X000500Y018073D01*
X000500Y017974D02*
X002129Y017974D01*
X002170Y017876D02*
X000500Y017876D01*
X000500Y017777D02*
X002241Y017777D01*
X002339Y017679D02*
X000500Y017679D01*
X000500Y017580D02*
X002558Y017580D01*
X002803Y017580D02*
X003330Y017580D01*
X003330Y017482D02*
X000500Y017482D01*
X000500Y017383D02*
X003330Y017383D01*
X003288Y017285D02*
X000500Y017285D01*
X000500Y017186D02*
X003191Y017186D01*
X003094Y017088D02*
X000500Y017088D01*
X000500Y016989D02*
X002997Y016989D01*
X002900Y016891D02*
X000500Y016891D01*
X000500Y016792D02*
X002803Y016792D01*
X002705Y016694D02*
X000500Y016694D01*
X000500Y016595D02*
X002608Y016595D01*
X002511Y016497D02*
X000500Y016497D01*
X000500Y016398D02*
X002414Y016398D01*
X002317Y016300D02*
X000500Y016300D01*
X000500Y016201D02*
X002220Y016201D01*
X002123Y016103D02*
X000500Y016103D01*
X000500Y016004D02*
X002025Y016004D01*
X001928Y015906D02*
X000500Y015906D01*
X000500Y015807D02*
X001831Y015807D01*
X001734Y015709D02*
X000500Y015709D01*
X000500Y015610D02*
X001637Y015610D01*
X001566Y015512D02*
X000500Y015512D01*
X000500Y015413D02*
X001530Y015413D01*
X001530Y015315D02*
X000500Y015315D01*
X000500Y015216D02*
X001530Y015216D01*
X001530Y015118D02*
X000500Y015118D01*
X000500Y015019D02*
X001530Y015019D01*
X001530Y014921D02*
X000500Y014921D01*
X000500Y014822D02*
X001530Y014822D01*
X001530Y014724D02*
X000500Y014724D01*
X000500Y014625D02*
X001530Y014625D01*
X001530Y014527D02*
X000500Y014527D01*
X000500Y014428D02*
X001530Y014428D01*
X001530Y014330D02*
X000500Y014330D01*
X000500Y014231D02*
X001530Y014231D01*
X001530Y014133D02*
X000500Y014133D01*
X000500Y014034D02*
X001530Y014034D01*
X001530Y013936D02*
X000500Y013936D01*
X000500Y013837D02*
X001530Y013837D01*
X001530Y013739D02*
X000500Y013739D01*
X000500Y013640D02*
X001530Y013640D01*
X001530Y013542D02*
X000500Y013542D01*
X000500Y013443D02*
X001530Y013443D01*
X001530Y013345D02*
X000500Y013345D01*
X000500Y013246D02*
X001530Y013246D01*
X001530Y013148D02*
X000500Y013148D01*
X000500Y013049D02*
X001530Y013049D01*
X001530Y012951D02*
X000500Y012951D01*
X000500Y012852D02*
X001530Y012852D01*
X001530Y012754D02*
X000500Y012754D01*
X000500Y012655D02*
X000850Y012655D01*
X000696Y012557D02*
X000500Y012557D01*
X000500Y012458D02*
X000604Y012458D01*
X000564Y012360D02*
X000500Y012360D01*
X000500Y012261D02*
X000530Y012261D01*
X000530Y012163D02*
X000500Y012163D01*
X000500Y012064D02*
X000533Y012064D01*
X000500Y011966D02*
X000574Y011966D01*
X000623Y011867D02*
X000500Y011867D01*
X000500Y011769D02*
X000721Y011769D01*
X000910Y011670D02*
X000500Y011670D01*
X000500Y011572D02*
X000890Y011572D01*
X000713Y011473D02*
X000500Y011473D01*
X000500Y011375D02*
X000614Y011375D01*
X000570Y011276D02*
X000500Y011276D01*
X000500Y011178D02*
X000530Y011178D01*
X000530Y011079D02*
X000500Y011079D01*
X000500Y010981D02*
X000530Y010981D01*
X000500Y010882D02*
X000567Y010882D01*
X000608Y010784D02*
X000500Y010784D01*
X000500Y010685D02*
X000705Y010685D01*
X000870Y010587D02*
X000500Y010587D01*
X001530Y011276D02*
X001530Y011276D01*
X001530Y011375D02*
X001486Y011375D01*
X001530Y011473D02*
X001387Y011473D01*
X001530Y011572D02*
X001210Y011572D01*
X001190Y011670D02*
X001530Y011670D01*
X001530Y011769D02*
X001379Y011769D01*
X001477Y011867D02*
X001530Y011867D01*
X001526Y011966D02*
X001530Y011966D01*
X001530Y012458D02*
X001496Y012458D01*
X001530Y012557D02*
X001404Y012557D01*
X001530Y012655D02*
X001250Y012655D01*
X002270Y012655D02*
X002420Y012655D01*
X002420Y012754D02*
X002270Y012754D01*
X002270Y012852D02*
X002435Y012852D01*
X002484Y012951D02*
X002270Y012951D01*
X002270Y013049D02*
X002582Y013049D01*
X002706Y013148D02*
X002270Y013148D01*
X002270Y013246D02*
X002850Y013246D01*
X002980Y013400D02*
X003082Y013400D01*
X003082Y013300D01*
X002396Y012557D02*
X002270Y012557D01*
X002270Y012458D02*
X002304Y012458D01*
X003984Y014133D02*
X004227Y014133D01*
X003885Y014231D02*
X003720Y014300D01*
X002980Y014300D01*
X002815Y014231D01*
X002385Y015315D02*
X007004Y015315D01*
X007135Y015413D02*
X002482Y015413D01*
X006085Y015216D02*
X006873Y015216D01*
X006742Y015118D02*
X006258Y015118D01*
X006356Y015019D02*
X006612Y015019D01*
X006481Y014921D02*
X006427Y014921D01*
X006133Y015512D02*
X007265Y015512D01*
X007396Y015610D02*
X006277Y015610D01*
X006376Y015709D02*
X007527Y015709D01*
X007658Y015807D02*
X006435Y015807D01*
X009402Y015906D02*
X012771Y015906D01*
X012812Y015807D02*
X009468Y015807D01*
X009488Y015709D02*
X012871Y015709D01*
X012492Y015610D02*
X009475Y015610D01*
X009450Y015512D02*
X012398Y015512D01*
X012303Y015413D02*
X009541Y015413D01*
X009639Y015315D02*
X012208Y015315D01*
X012113Y015216D02*
X009738Y015216D01*
X009836Y015118D02*
X012019Y015118D01*
X011924Y015019D02*
X009935Y015019D01*
X010033Y014921D02*
X011829Y014921D01*
X011735Y014822D02*
X011146Y014822D01*
X011284Y014724D02*
X011640Y014724D01*
X011545Y014625D02*
X011331Y014625D01*
X011338Y014527D02*
X011450Y014527D01*
X011356Y014428D02*
X011311Y014428D01*
X011261Y014330D02*
X011237Y014330D01*
X010954Y014822D02*
X010132Y014822D01*
X015035Y013443D02*
X019632Y013443D01*
X019629Y013345D02*
X015095Y013345D01*
X015136Y013246D02*
X019627Y013246D01*
X019624Y013148D02*
X015174Y013148D01*
X009962Y008912D02*
X006227Y008912D01*
X006325Y008814D02*
X009960Y008814D01*
X009992Y008715D02*
X006414Y008715D01*
X006052Y007435D02*
X007601Y007435D01*
X007793Y007533D02*
X001506Y007533D01*
X001408Y007435D02*
X004534Y007435D01*
X004342Y007336D02*
X001320Y007336D01*
X001320Y007238D02*
X004243Y007238D01*
X004165Y007139D02*
X001320Y007139D01*
X001320Y007041D02*
X004124Y007041D01*
X004083Y006942D02*
X001320Y006942D01*
X001320Y006844D02*
X004073Y006844D01*
X004073Y006745D02*
X001320Y006745D01*
X001320Y006647D02*
X004073Y006647D01*
X004111Y006548D02*
X001320Y006548D01*
X001320Y006450D02*
X004152Y006450D01*
X004213Y006351D02*
X001320Y006351D01*
X001320Y006253D02*
X004312Y006253D01*
X004461Y006154D02*
X001320Y006154D01*
X001320Y006056D02*
X001348Y006056D01*
X003995Y005859D02*
X004493Y005859D01*
X004325Y005760D02*
X004094Y005760D01*
X004174Y005662D02*
X004226Y005662D01*
X002798Y004480D02*
X002702Y004480D01*
X001550Y002900D02*
X001550Y002400D01*
X000948Y002214D02*
X000500Y002214D01*
X000500Y002116D02*
X000872Y002116D01*
X000831Y002017D02*
X000500Y002017D01*
X000500Y001919D02*
X000820Y001919D01*
X000820Y001820D02*
X000500Y001820D01*
X000500Y001722D02*
X000857Y001722D01*
X000911Y001623D02*
X000500Y001623D01*
X000500Y001525D02*
X001009Y001525D01*
X000500Y001426D02*
X002730Y001426D01*
X002474Y001328D02*
X000500Y001328D01*
X000500Y001229D02*
X002376Y001229D01*
X002277Y001131D02*
X000500Y001131D01*
X000500Y001032D02*
X002255Y001032D01*
X003025Y001426D02*
X003232Y001426D01*
X003281Y001328D02*
X003302Y001328D01*
X006462Y007041D02*
X006830Y007041D01*
X007023Y007139D02*
X006421Y007139D01*
X006342Y007238D02*
X007215Y007238D01*
X007408Y007336D02*
X006244Y007336D01*
X003330Y017679D02*
X003022Y017679D01*
X003121Y017777D02*
X003330Y017777D01*
X003330Y017876D02*
X003192Y017876D01*
X003233Y017974D02*
X003330Y017974D01*
X003330Y018073D02*
X003261Y018073D01*
X003261Y018171D02*
X003330Y018171D01*
X003330Y018270D02*
X003261Y018270D01*
X003221Y018368D02*
X003330Y018368D01*
X003330Y018467D02*
X003180Y018467D01*
X003093Y018565D02*
X003325Y018565D01*
X003330Y018664D02*
X002974Y018664D01*
X003032Y018762D02*
X003367Y018762D01*
X003435Y018861D02*
X003140Y018861D01*
X003201Y018959D02*
X003553Y018959D01*
X003671Y019058D02*
X003238Y019058D01*
X003244Y019255D02*
X003908Y019255D01*
X004026Y019353D02*
X003218Y019353D01*
X003167Y019452D02*
X004098Y019452D01*
X004139Y019550D02*
X003082Y019550D01*
X002911Y019649D02*
X004182Y019649D01*
X003789Y019156D02*
X002798Y019156D01*
X002702Y019156D02*
X001570Y019156D01*
X001570Y019255D02*
X002256Y019255D01*
X002282Y019353D02*
X001539Y019353D01*
X001498Y019452D02*
X002333Y019452D01*
X002418Y019550D02*
X001410Y019550D01*
X001266Y019649D02*
X002589Y019649D01*
X002702Y019649D02*
X002798Y019649D01*
X002798Y019550D02*
X002702Y019550D01*
X002702Y019452D02*
X002798Y019452D01*
X002798Y019353D02*
X002702Y019353D01*
X002702Y019255D02*
X002798Y019255D01*
X002262Y019058D02*
X001564Y019058D01*
X001523Y018959D02*
X002299Y018959D01*
X002360Y018861D02*
X001471Y018861D01*
X001372Y018762D02*
X002468Y018762D01*
X002388Y018664D02*
X001174Y018664D01*
X000500Y020043D02*
X002458Y020043D01*
X002359Y020141D02*
X000500Y020141D01*
X000500Y020240D02*
X002261Y020240D01*
X002255Y020338D02*
X000500Y020338D01*
X004354Y018664D02*
X004373Y018664D01*
X033271Y011867D02*
X033371Y011767D01*
X035734Y003199D02*
X035995Y003199D01*
X035995Y003101D02*
X035920Y003101D01*
D13*
X002750Y004075D03*
X001050Y004075D03*
X001050Y011075D03*
X002750Y011075D03*
X002750Y012175D03*
X001050Y012175D03*
X001050Y019175D03*
X002750Y019175D03*
D14*
X022150Y012744D03*
X023150Y012744D03*
X023150Y011366D03*
X022150Y011366D03*
X022150Y009988D03*
X023150Y009988D03*
X023150Y008610D03*
X022150Y008610D03*
X022150Y007232D03*
X023150Y007232D03*
X023150Y005854D03*
X022150Y005854D03*
X022150Y004476D03*
X023150Y004476D03*
X022550Y003250D03*
X023300Y002750D03*
X022550Y002250D03*
D15*
X024305Y003098D02*
X024965Y003098D01*
X026471Y004476D02*
X027131Y004476D01*
X028555Y005854D02*
X029215Y005854D01*
X030721Y007232D02*
X031381Y007232D01*
X029215Y008610D02*
X028555Y008610D01*
X027131Y009988D02*
X026471Y009988D01*
X024965Y011366D02*
X024305Y011366D01*
X026471Y012744D02*
X027131Y012744D01*
X028555Y011366D02*
X029215Y011366D01*
X030721Y012744D02*
X031381Y012744D01*
X029215Y014122D02*
X028555Y014122D01*
X027131Y015500D02*
X026471Y015500D01*
X024965Y016878D02*
X024305Y016878D01*
X026471Y018256D02*
X027131Y018256D01*
X028555Y016878D02*
X029215Y016878D01*
X030721Y018256D02*
X031381Y018256D01*
X031381Y015500D02*
X030721Y015500D01*
X024965Y014122D02*
X024305Y014122D01*
X019100Y014220D02*
X019100Y014880D01*
X018100Y014880D02*
X018100Y014220D01*
X017100Y014220D02*
X017100Y014880D01*
X024305Y008610D02*
X024965Y008610D01*
X026471Y007232D02*
X027131Y007232D01*
X024965Y005854D02*
X024305Y005854D01*
X028555Y003098D02*
X029215Y003098D01*
X030721Y004476D02*
X031381Y004476D01*
X031381Y009988D02*
X030721Y009988D01*
D16*
X014479Y009897D02*
X013429Y009897D01*
X013429Y008338D02*
X014479Y008338D01*
X014479Y006779D02*
X013429Y006779D01*
X013429Y005220D02*
X014479Y005220D01*
X014479Y003661D02*
X013429Y003661D01*
X013429Y002102D02*
X014479Y002102D01*
X005818Y002102D02*
X004768Y002102D01*
X004768Y003661D02*
X005818Y003661D01*
X005818Y005220D02*
X004768Y005220D01*
X004768Y006779D02*
X005818Y006779D01*
X005818Y008338D02*
X004768Y008338D01*
X004768Y009897D02*
X005818Y009897D01*
X005818Y011456D02*
X004768Y011456D01*
X004768Y013015D02*
X005818Y013015D01*
X005818Y014574D02*
X004768Y014574D01*
X004768Y016133D02*
X005818Y016133D01*
X005818Y017693D02*
X004768Y017693D01*
X004768Y019252D02*
X005818Y019252D01*
X013429Y019252D02*
X014479Y019252D01*
X014479Y017693D02*
X013429Y017693D01*
X013429Y016133D02*
X014479Y016133D01*
X014479Y014574D02*
X013429Y014574D01*
X013429Y013015D02*
X014479Y013015D01*
X014479Y011456D02*
X013429Y011456D01*
D17*
X027225Y020100D03*
X028225Y020100D03*
X029225Y020100D03*
X030225Y020100D03*
X031225Y020100D03*
X033100Y004350D03*
X033100Y003350D03*
D18*
X034700Y003726D03*
X034700Y004474D03*
D19*
X012550Y002150D03*
D20*
X032740Y007970D03*
X033650Y007970D03*
X034560Y007970D03*
X034150Y009930D03*
X033240Y009930D03*
X035060Y009930D03*
D21*
X034150Y012370D03*
X033650Y005530D03*
D22*
X032830Y012650D02*
X032270Y012650D01*
X032270Y013650D02*
X032830Y013650D01*
X032830Y014650D02*
X032270Y014650D01*
X021650Y013930D02*
X021650Y013370D01*
X020650Y013370D02*
X020650Y013930D01*
X012225Y012025D02*
X012225Y011475D01*
X003630Y012850D02*
X003070Y012850D01*
X003070Y013850D02*
X003630Y013850D01*
X001830Y002900D02*
X001270Y002900D01*
X001270Y001900D02*
X001830Y001900D01*
D23*
X001550Y005850D03*
X006850Y006150D03*
X010300Y006150D03*
X010600Y007350D03*
X010250Y008850D03*
X008350Y009050D03*
X007200Y010400D03*
X010650Y010350D03*
X012225Y011475D03*
X012225Y012025D03*
X015300Y012200D03*
X018750Y011100D03*
X020150Y010950D03*
X019900Y012200D03*
X021325Y012375D03*
X022650Y010950D03*
X024050Y009400D03*
X025800Y010600D03*
X027400Y011200D03*
X030750Y011750D03*
X031450Y011750D03*
X034750Y013800D03*
X035700Y015000D03*
X031350Y017475D03*
X029475Y018225D03*
X032600Y019800D03*
X033950Y019350D03*
X034850Y019850D03*
X030225Y016350D03*
X030050Y014300D03*
X026650Y013600D03*
X024600Y013100D03*
X024100Y015475D03*
X022250Y017050D03*
X015800Y017250D03*
X011050Y014550D03*
X009200Y015700D03*
X003750Y015250D03*
X006750Y020150D03*
X003200Y009400D03*
X015400Y008450D03*
X016450Y008450D03*
X015600Y007250D03*
X019800Y006600D03*
X020350Y006000D03*
X021250Y004850D03*
X020200Y003600D03*
X017650Y003850D03*
X010050Y001900D03*
X025100Y001300D03*
X030650Y003750D03*
X030750Y002750D03*
X028000Y004150D03*
X026900Y005800D03*
X029150Y006650D03*
X027550Y008550D03*
X034150Y009100D03*
X035500Y007900D03*
X033975Y004475D03*
D24*
X034600Y004475D01*
X034700Y004474D02*
X034750Y004524D01*
X034750Y004850D01*
X034970Y005070D01*
X034970Y006700D01*
X034560Y007110D01*
X034560Y007970D01*
X033650Y007970D02*
X033650Y005750D01*
X032870Y005750D01*
X031652Y004532D01*
X031107Y004532D01*
X031051Y004476D01*
X030650Y003750D02*
X030082Y004118D01*
X030082Y004726D01*
X030506Y005150D01*
X031150Y005150D01*
X032740Y006740D01*
X032740Y007970D01*
X032050Y007950D02*
X030250Y007950D01*
X029850Y007350D01*
X029150Y006650D01*
X028000Y006800D02*
X027550Y006550D01*
X027550Y004950D01*
X028000Y004400D01*
X028000Y004150D01*
X027950Y004150D01*
X027050Y003250D01*
X024787Y003250D01*
X024635Y003098D01*
X024550Y003000D02*
X023750Y002150D01*
X022650Y002150D01*
X020200Y003600D02*
X020200Y005800D01*
X020350Y006000D01*
X022150Y005854D02*
X022150Y004476D01*
X023131Y005850D02*
X023131Y006319D01*
X021050Y007050D02*
X018225Y007050D01*
X015080Y004445D01*
X015600Y005995D02*
X017850Y007450D01*
X021200Y007450D01*
X021650Y008200D02*
X017610Y008200D01*
X016350Y007900D01*
X015650Y007900D01*
X014988Y007538D01*
X014913Y007538D01*
X013954Y006779D02*
X010821Y006779D01*
X010600Y007350D01*
X011750Y007850D02*
X009050Y007850D01*
X006850Y006725D01*
X005406Y006725D01*
X005293Y006779D01*
X005293Y008338D02*
X011713Y008338D01*
X012475Y009100D01*
X011350Y008850D02*
X012450Y010300D01*
X012700Y010680D01*
X015550Y010680D01*
X016600Y010000D01*
X019300Y010000D01*
X019700Y011250D01*
X020450Y011750D01*
X021325Y012375D02*
X021325Y011100D01*
X019975Y009550D01*
X016250Y009550D01*
X015272Y009897D01*
X013954Y009897D01*
X014850Y009100D02*
X020350Y009100D01*
X021600Y010600D01*
X022100Y011300D01*
X022175Y011325D01*
X022900Y010550D02*
X023500Y010750D01*
X023700Y010900D01*
X022900Y010550D02*
X022150Y009988D01*
X022150Y008610D01*
X023150Y008610D02*
X024635Y008610D01*
X025400Y007975D02*
X026200Y008425D01*
X027450Y009150D01*
X027800Y009500D01*
X027800Y010350D01*
X026800Y011000D01*
X026800Y011600D01*
X027600Y012000D01*
X027850Y012400D01*
X027850Y013100D01*
X027400Y013550D01*
X026650Y013600D01*
X026025Y013250D02*
X026025Y014575D01*
X024925Y015700D01*
X024725Y015850D01*
X024475Y016100D01*
X023875Y016100D01*
X023100Y018000D01*
X024635Y016878D02*
X024635Y016815D01*
X025500Y015950D01*
X026550Y017275D02*
X028375Y016175D01*
X029250Y016175D01*
X030225Y016350D01*
X030250Y016325D01*
X031650Y016325D01*
X032300Y016675D01*
X032300Y018750D01*
X031725Y019225D01*
X030475Y019225D01*
X030225Y019475D01*
X030225Y020100D01*
X029225Y020100D02*
X029225Y019225D01*
X029350Y019100D01*
X028100Y019325D02*
X028100Y020100D01*
X028225Y020100D01*
X032600Y019800D02*
X033450Y018810D01*
X033500Y014000D01*
X032550Y013650D01*
X030400Y013650D01*
X029800Y013500D01*
X028300Y012050D01*
X027400Y011200D01*
X028600Y010400D01*
X028600Y009750D01*
X027900Y008850D01*
X027900Y008550D01*
X027550Y008550D01*
X027900Y008550D02*
X027900Y008300D01*
X028000Y007500D01*
X028000Y006800D01*
X032050Y007950D02*
X032050Y010450D01*
X032300Y011050D01*
X034000Y011050D01*
X034560Y010640D01*
X035060Y009930D01*
X034150Y009930D02*
X033240Y009930D01*
X026801Y009988D02*
X023150Y009988D01*
X023700Y011700D02*
X023350Y012150D01*
X022744Y012150D01*
X022150Y012744D01*
X021650Y013650D02*
X021000Y012900D01*
X020450Y012650D01*
X016800Y012200D02*
X015300Y012200D01*
X011350Y008850D02*
X010250Y008850D01*
X011750Y007850D02*
X012050Y007550D01*
X012450Y007550D01*
X012550Y002150D02*
X012702Y002102D01*
X013954Y002102D01*
X033100Y003350D02*
X034600Y003350D01*
X034700Y003726D01*
X033975Y004475D02*
X033100Y004350D01*
X026801Y012744D02*
X026407Y012850D01*
X034695Y013721D02*
X034700Y014075D01*
X034700Y019650D01*
X034850Y019850D01*
X034150Y019150D02*
X033950Y019350D01*
X012625Y018480D02*
X011687Y018480D01*
X006537Y014600D01*
X005378Y014600D01*
X005293Y014574D01*
X005293Y016133D02*
X005444Y016225D01*
X007625Y016225D01*
X011350Y019150D01*
X012225Y019150D01*
X010500Y020150D02*
X010300Y020050D01*
X007650Y019150D01*
X006600Y018100D01*
X006200Y017825D01*
X005384Y017725D01*
X005293Y017693D01*
D25*
X011200Y013790D02*
X012700Y015350D01*
X013954Y016133D02*
X018800Y017525D01*
X022650Y017525D01*
X023350Y015750D01*
X023900Y015475D01*
X024100Y015475D01*
X021550Y015650D02*
X020000Y014800D01*
X019950Y013000D01*
X019900Y012800D01*
X015100Y012750D01*
X014785Y012965D01*
X013954Y013015D01*
X015750Y013790D02*
X016350Y013800D01*
X017100Y014550D01*
X014800Y015350D02*
X018950Y017050D01*
X022250Y017050D01*
X023100Y018000D02*
X016200Y018000D01*
X015507Y017693D01*
X013954Y017693D01*
X021675Y014100D02*
X024122Y014100D01*
X024635Y014122D01*
X026025Y013250D02*
X026407Y012850D01*
X027750Y011350D02*
X027750Y011150D01*
X021650Y013650D02*
X021675Y014100D01*
X020450Y012650D02*
X020450Y011750D01*
X023125Y007225D02*
X025982Y007232D01*
X026801Y007232D01*
X024635Y005854D02*
X023131Y005850D01*
X023150Y004476D02*
X026801Y004476D01*
X023150Y004476D02*
X022900Y003850D01*
X021700Y003850D01*
X020650Y002850D01*
X020000Y002850D01*
X019350Y002880D01*
X014900Y002880D01*
X016750Y001325D02*
X018500Y001350D01*
X020450Y001300D01*
X020875Y001475D01*
X012725Y005995D02*
X012225Y005225D01*
X005357Y005225D01*
X005293Y005220D01*
X003500Y004900D02*
X003500Y001625D01*
X003850Y001100D01*
X005293Y002102D02*
X005354Y002100D01*
X006850Y002100D01*
X008850Y002880D01*
X010205Y004445D02*
X006789Y003661D01*
X005293Y003661D01*
X003500Y004900D02*
X003150Y004950D01*
X003200Y009400D02*
X003250Y009450D01*
X003250Y009900D01*
X003950Y010600D01*
X003950Y012000D01*
X004965Y013015D01*
X005293Y013015D01*
X004150Y013790D02*
X003590Y013790D01*
X003350Y013850D01*
X003350Y012850D02*
X002850Y012850D01*
X002750Y012750D01*
X002750Y012175D01*
X002750Y011650D01*
X002750Y011075D01*
X031225Y020100D02*
X032600Y019800D01*
D26*
X021150Y013650D03*
X003350Y013350D03*
X001550Y002400D03*
D27*
X003950Y001750D02*
X004250Y001380D01*
X014950Y001380D01*
X016050Y002450D01*
X021050Y002450D01*
X021750Y001780D01*
X023850Y001780D01*
X024650Y002550D01*
X027050Y002550D01*
X028650Y004150D01*
X028650Y004750D01*
X027950Y005450D01*
X027950Y006150D01*
X028550Y006750D01*
X028550Y006950D01*
X030050Y008450D01*
X030050Y009050D01*
X029750Y009350D01*
X029750Y010450D01*
X030050Y010750D01*
X030450Y010750D01*
X031450Y011750D01*
X033650Y009950D02*
X033650Y008670D01*
X034250Y008670D01*
X034560Y007970D01*
X034150Y009100D02*
X035550Y009100D01*
X035550Y013000D01*
X034250Y013450D01*
X034250Y014550D01*
X034350Y014650D01*
X034350Y018950D01*
X034150Y019150D01*
X031350Y017475D02*
X031225Y017350D01*
X030600Y017350D01*
X030188Y017453D01*
X029975Y017666D01*
X029975Y018475D01*
X029350Y019100D01*
X029475Y018225D02*
X028100Y019325D01*
X023800Y019325D01*
X021825Y020240D01*
X010800Y020240D01*
X010500Y020150D01*
X012225Y019150D02*
X012925Y019970D01*
X021675Y019970D01*
X023825Y018980D01*
X023800Y019000D02*
X027675Y019000D01*
X028175Y018700D01*
X029250Y017800D01*
X029700Y017800D01*
X030188Y017453D01*
X026550Y017275D02*
X025400Y017900D01*
X024850Y017900D01*
X024550Y018400D01*
X017525Y018400D01*
X016050Y018450D01*
X015400Y018450D01*
X015000Y018480D01*
X012625Y018480D01*
X009200Y015700D02*
X009200Y015400D01*
X010050Y014550D01*
X011050Y014550D01*
X012475Y009100D02*
X014850Y009100D01*
X015400Y008450D02*
X016450Y008450D01*
X014913Y007538D02*
X012538Y007538D01*
X012450Y007550D01*
X015600Y007250D02*
X015903Y007350D01*
X015898Y007355D01*
X021050Y007050D02*
X021550Y006390D01*
X022950Y006390D01*
X023131Y006319D01*
X023000Y006710D02*
X023125Y007225D01*
X022800Y007760D02*
X021750Y007760D01*
X021600Y007800D01*
X021800Y008090D02*
X021650Y008200D01*
X021800Y008090D02*
X022675Y008090D01*
X023150Y008610D01*
X023125Y007975D02*
X022800Y007760D01*
X021750Y006710D02*
X021200Y007450D01*
X021750Y006710D02*
X023000Y006710D01*
X029150Y006650D02*
X029450Y006650D01*
X030250Y006350D01*
X030250Y005550D01*
X029650Y004850D01*
X029650Y003850D01*
X030750Y003050D01*
X030750Y002750D01*
X024550Y003000D02*
X024537Y003000D01*
X022650Y002150D02*
X022550Y002250D01*
X015425Y001100D02*
X003850Y001100D01*
X003850Y000950D02*
X015350Y000950D01*
X003950Y001750D02*
X003950Y005550D01*
X003650Y005850D01*
X001550Y005850D01*
X025700Y015450D02*
X025500Y015950D01*
X025700Y015450D02*
X026750Y014350D01*
X027100Y014000D01*
X034673Y013700D02*
X034695Y013721D01*
X034673Y013700D02*
X034750Y013800D01*
X034150Y009930D02*
X033650Y009950D01*
D28*
X018750Y011100D02*
X016350Y011400D01*
X014500Y011400D01*
D29*
X014875Y012240D02*
X015300Y012200D01*
X019900Y012200D01*
X012825Y012240D02*
X012225Y012025D01*
X011450Y012650D02*
X011450Y011350D01*
X009350Y010350D01*
X010650Y010350D01*
X009350Y010350D02*
X008814Y009859D01*
X005390Y009859D01*
X005293Y009897D01*
X001900Y008450D02*
X000950Y007500D01*
X000950Y004950D01*
X003150Y004950D01*
X001900Y008450D02*
X001900Y015350D01*
X003700Y017175D01*
X003700Y018600D01*
X004450Y019225D01*
X005293Y019252D01*
X011450Y012650D02*
X012490Y013790D01*
X012775Y013790D01*
X027260Y002125D02*
X028885Y003098D01*
X027260Y002125D02*
X025025Y002125D01*
X024300Y001475D01*
X016750Y001325D02*
X015425Y001100D01*
D30*
X014900Y002880D02*
X008850Y002880D01*
X010205Y004445D02*
X015080Y004445D01*
X015600Y005995D02*
X012725Y005995D01*
X012825Y012240D02*
X014875Y012240D01*
X015750Y013790D02*
X012775Y013790D01*
X011200Y013790D02*
X004150Y013790D01*
X012700Y015350D02*
X014800Y015350D01*
D31*
X021550Y015650D03*
D32*
X027100Y014000D02*
X027400Y013550D01*
X023700Y011700D02*
X023700Y010900D01*
X023125Y007975D02*
X025400Y007975D01*
X021600Y007800D02*
X017750Y007800D01*
X015898Y007355D01*
X020875Y001475D02*
X024300Y001475D01*
D33*
X021600Y019250D03*
M02*
