G75*
G70*
%OFA0B0*%
%FSLAX24Y24*%
%IPPOS*%
%LPD*%
%AMOC8*
5,1,8,0,0,1.08239X$1,22.5*
%
%ADD10C,0.0000*%
%ADD11R,0.0800X0.0260*%
%ADD12R,0.0500X0.0600*%
%ADD13C,0.0100*%
%ADD14R,0.0800X0.0500*%
%ADD15R,0.0697X0.0866*%
%ADD16R,0.0866X0.0236*%
%ADD17R,0.0880X0.0400*%
%ADD18R,0.0480X0.0880*%
%ADD19R,0.1417X0.0866*%
%ADD20R,0.0866X0.0697*%
%ADD21R,0.0880X0.0480*%
%ADD22R,0.0866X0.1417*%
%ADD23R,0.0394X0.0551*%
%ADD24R,0.0315X0.0709*%
%ADD25R,0.0315X0.0906*%
%ADD26C,0.0600*%
%ADD27R,0.0748X0.0315*%
%ADD28R,0.0591X0.0315*%
%ADD29R,0.1417X0.0906*%
%ADD30R,0.0709X0.0315*%
%ADD31R,0.0906X0.0315*%
%ADD32R,0.0450X0.0400*%
%ADD33R,0.0236X0.0866*%
%ADD34R,0.0260X0.0800*%
%ADD35R,0.0315X0.0748*%
%ADD36R,0.0315X0.0591*%
%ADD37R,0.0906X0.1417*%
D10*
X000350Y000834D02*
X000350Y020519D01*
X036145Y020519D01*
X036145Y000834D01*
X000350Y000834D01*
X002405Y001014D02*
X002407Y001032D01*
X002413Y001048D01*
X002422Y001063D01*
X002435Y001076D01*
X002450Y001085D01*
X002466Y001091D01*
X002484Y001093D01*
X002502Y001091D01*
X002518Y001085D01*
X002533Y001076D01*
X002546Y001063D01*
X002555Y001048D01*
X002561Y001032D01*
X002563Y001014D01*
X002561Y000996D01*
X002555Y000980D01*
X002546Y000965D01*
X002533Y000952D01*
X002518Y000943D01*
X002502Y000937D01*
X002484Y000935D01*
X002466Y000937D01*
X002450Y000943D01*
X002435Y000952D01*
X002422Y000965D01*
X002413Y000980D01*
X002407Y000996D01*
X002405Y001014D01*
X002562Y001171D02*
X002564Y001189D01*
X002570Y001205D01*
X002579Y001220D01*
X002592Y001233D01*
X002607Y001242D01*
X002623Y001248D01*
X002641Y001250D01*
X002659Y001248D01*
X002675Y001242D01*
X002690Y001233D01*
X002703Y001220D01*
X002712Y001205D01*
X002718Y001189D01*
X002720Y001171D01*
X002718Y001153D01*
X002712Y001137D01*
X002703Y001122D01*
X002690Y001109D01*
X002675Y001100D01*
X002659Y001094D01*
X002641Y001092D01*
X002623Y001094D01*
X002607Y001100D01*
X002592Y001109D01*
X002579Y001122D01*
X002570Y001137D01*
X002564Y001153D01*
X002562Y001171D01*
X002799Y001250D02*
X002801Y001268D01*
X002807Y001284D01*
X002816Y001299D01*
X002829Y001312D01*
X002844Y001321D01*
X002860Y001327D01*
X002878Y001329D01*
X002896Y001327D01*
X002912Y001321D01*
X002927Y001312D01*
X002940Y001299D01*
X002949Y001284D01*
X002955Y001268D01*
X002957Y001250D01*
X002955Y001232D01*
X002949Y001216D01*
X002940Y001201D01*
X002927Y001188D01*
X002912Y001179D01*
X002896Y001173D01*
X002878Y001171D01*
X002860Y001173D01*
X002844Y001179D01*
X002829Y001188D01*
X002816Y001201D01*
X002807Y001216D01*
X002801Y001232D01*
X002799Y001250D01*
X003035Y001171D02*
X003037Y001189D01*
X003043Y001205D01*
X003052Y001220D01*
X003065Y001233D01*
X003080Y001242D01*
X003096Y001248D01*
X003114Y001250D01*
X003132Y001248D01*
X003148Y001242D01*
X003163Y001233D01*
X003176Y001220D01*
X003185Y001205D01*
X003191Y001189D01*
X003193Y001171D01*
X003191Y001153D01*
X003185Y001137D01*
X003176Y001122D01*
X003163Y001109D01*
X003148Y001100D01*
X003132Y001094D01*
X003114Y001092D01*
X003096Y001094D01*
X003080Y001100D01*
X003065Y001109D01*
X003052Y001122D01*
X003043Y001137D01*
X003037Y001153D01*
X003035Y001171D01*
X003192Y001014D02*
X003194Y001032D01*
X003200Y001048D01*
X003209Y001063D01*
X003222Y001076D01*
X003237Y001085D01*
X003253Y001091D01*
X003271Y001093D01*
X003289Y001091D01*
X003305Y001085D01*
X003320Y001076D01*
X003333Y001063D01*
X003342Y001048D01*
X003348Y001032D01*
X003350Y001014D01*
X003348Y000996D01*
X003342Y000980D01*
X003333Y000965D01*
X003320Y000952D01*
X003305Y000943D01*
X003289Y000937D01*
X003271Y000935D01*
X003253Y000937D01*
X003237Y000943D01*
X003222Y000952D01*
X003209Y000965D01*
X003200Y000980D01*
X003194Y000996D01*
X003192Y001014D01*
X022484Y001014D02*
X022486Y001032D01*
X022492Y001048D01*
X022501Y001063D01*
X022514Y001076D01*
X022529Y001085D01*
X022545Y001091D01*
X022563Y001093D01*
X022581Y001091D01*
X022597Y001085D01*
X022612Y001076D01*
X022625Y001063D01*
X022634Y001048D01*
X022640Y001032D01*
X022642Y001014D01*
X022640Y000996D01*
X022634Y000980D01*
X022625Y000965D01*
X022612Y000952D01*
X022597Y000943D01*
X022581Y000937D01*
X022563Y000935D01*
X022545Y000937D01*
X022529Y000943D01*
X022514Y000952D01*
X022501Y000965D01*
X022492Y000980D01*
X022486Y000996D01*
X022484Y001014D01*
X022641Y001171D02*
X022643Y001189D01*
X022649Y001205D01*
X022658Y001220D01*
X022671Y001233D01*
X022686Y001242D01*
X022702Y001248D01*
X022720Y001250D01*
X022738Y001248D01*
X022754Y001242D01*
X022769Y001233D01*
X022782Y001220D01*
X022791Y001205D01*
X022797Y001189D01*
X022799Y001171D01*
X022797Y001153D01*
X022791Y001137D01*
X022782Y001122D01*
X022769Y001109D01*
X022754Y001100D01*
X022738Y001094D01*
X022720Y001092D01*
X022702Y001094D01*
X022686Y001100D01*
X022671Y001109D01*
X022658Y001122D01*
X022649Y001137D01*
X022643Y001153D01*
X022641Y001171D01*
X022877Y001250D02*
X022879Y001268D01*
X022885Y001284D01*
X022894Y001299D01*
X022907Y001312D01*
X022922Y001321D01*
X022938Y001327D01*
X022956Y001329D01*
X022974Y001327D01*
X022990Y001321D01*
X023005Y001312D01*
X023018Y001299D01*
X023027Y001284D01*
X023033Y001268D01*
X023035Y001250D01*
X023033Y001232D01*
X023027Y001216D01*
X023018Y001201D01*
X023005Y001188D01*
X022990Y001179D01*
X022974Y001173D01*
X022956Y001171D01*
X022938Y001173D01*
X022922Y001179D01*
X022907Y001188D01*
X022894Y001201D01*
X022885Y001216D01*
X022879Y001232D01*
X022877Y001250D01*
X023114Y001171D02*
X023116Y001189D01*
X023122Y001205D01*
X023131Y001220D01*
X023144Y001233D01*
X023159Y001242D01*
X023175Y001248D01*
X023193Y001250D01*
X023211Y001248D01*
X023227Y001242D01*
X023242Y001233D01*
X023255Y001220D01*
X023264Y001205D01*
X023270Y001189D01*
X023272Y001171D01*
X023270Y001153D01*
X023264Y001137D01*
X023255Y001122D01*
X023242Y001109D01*
X023227Y001100D01*
X023211Y001094D01*
X023193Y001092D01*
X023175Y001094D01*
X023159Y001100D01*
X023144Y001109D01*
X023131Y001122D01*
X023122Y001137D01*
X023116Y001153D01*
X023114Y001171D01*
X023271Y001014D02*
X023273Y001032D01*
X023279Y001048D01*
X023288Y001063D01*
X023301Y001076D01*
X023316Y001085D01*
X023332Y001091D01*
X023350Y001093D01*
X023368Y001091D01*
X023384Y001085D01*
X023399Y001076D01*
X023412Y001063D01*
X023421Y001048D01*
X023427Y001032D01*
X023429Y001014D01*
X023427Y000996D01*
X023421Y000980D01*
X023412Y000965D01*
X023399Y000952D01*
X023384Y000943D01*
X023368Y000937D01*
X023350Y000935D01*
X023332Y000937D01*
X023316Y000943D01*
X023301Y000952D01*
X023288Y000965D01*
X023279Y000980D01*
X023273Y000996D01*
X023271Y001014D01*
X033882Y001136D02*
X033884Y001164D01*
X033890Y001191D01*
X033899Y001217D01*
X033912Y001242D01*
X033929Y001265D01*
X033948Y001285D01*
X033970Y001302D01*
X033994Y001316D01*
X034020Y001326D01*
X034047Y001333D01*
X034075Y001336D01*
X034103Y001335D01*
X034130Y001330D01*
X034157Y001321D01*
X034182Y001309D01*
X034205Y001294D01*
X034226Y001275D01*
X034244Y001254D01*
X034259Y001230D01*
X034270Y001204D01*
X034278Y001178D01*
X034282Y001150D01*
X034282Y001122D01*
X034278Y001094D01*
X034270Y001068D01*
X034259Y001042D01*
X034244Y001018D01*
X034226Y000997D01*
X034205Y000978D01*
X034182Y000963D01*
X034157Y000951D01*
X034130Y000942D01*
X034103Y000937D01*
X034075Y000936D01*
X034047Y000939D01*
X034020Y000946D01*
X033994Y000956D01*
X033970Y000970D01*
X033948Y000987D01*
X033929Y001007D01*
X033912Y001030D01*
X033899Y001055D01*
X033890Y001081D01*
X033884Y001108D01*
X033882Y001136D01*
X034200Y001525D02*
X034202Y001553D01*
X034208Y001580D01*
X034217Y001606D01*
X034230Y001631D01*
X034247Y001654D01*
X034266Y001674D01*
X034288Y001691D01*
X034312Y001705D01*
X034338Y001715D01*
X034365Y001722D01*
X034393Y001725D01*
X034421Y001724D01*
X034448Y001719D01*
X034475Y001710D01*
X034500Y001698D01*
X034523Y001683D01*
X034544Y001664D01*
X034562Y001643D01*
X034577Y001619D01*
X034588Y001593D01*
X034596Y001567D01*
X034600Y001539D01*
X034600Y001511D01*
X034596Y001483D01*
X034588Y001457D01*
X034577Y001431D01*
X034562Y001407D01*
X034544Y001386D01*
X034523Y001367D01*
X034500Y001352D01*
X034475Y001340D01*
X034448Y001331D01*
X034421Y001326D01*
X034393Y001325D01*
X034365Y001328D01*
X034338Y001335D01*
X034312Y001345D01*
X034288Y001359D01*
X034266Y001376D01*
X034247Y001396D01*
X034230Y001419D01*
X034217Y001444D01*
X034208Y001470D01*
X034202Y001497D01*
X034200Y001525D01*
X034675Y001750D02*
X034677Y001778D01*
X034683Y001805D01*
X034692Y001831D01*
X034705Y001856D01*
X034722Y001879D01*
X034741Y001899D01*
X034763Y001916D01*
X034787Y001930D01*
X034813Y001940D01*
X034840Y001947D01*
X034868Y001950D01*
X034896Y001949D01*
X034923Y001944D01*
X034950Y001935D01*
X034975Y001923D01*
X034998Y001908D01*
X035019Y001889D01*
X035037Y001868D01*
X035052Y001844D01*
X035063Y001818D01*
X035071Y001792D01*
X035075Y001764D01*
X035075Y001736D01*
X035071Y001708D01*
X035063Y001682D01*
X035052Y001656D01*
X035037Y001632D01*
X035019Y001611D01*
X034998Y001592D01*
X034975Y001577D01*
X034950Y001565D01*
X034923Y001556D01*
X034896Y001551D01*
X034868Y001550D01*
X034840Y001553D01*
X034813Y001560D01*
X034787Y001570D01*
X034763Y001584D01*
X034741Y001601D01*
X034722Y001621D01*
X034705Y001644D01*
X034692Y001669D01*
X034683Y001695D01*
X034677Y001722D01*
X034675Y001750D01*
X035125Y001875D02*
X035127Y001903D01*
X035133Y001930D01*
X035142Y001956D01*
X035155Y001981D01*
X035172Y002004D01*
X035191Y002024D01*
X035213Y002041D01*
X035237Y002055D01*
X035263Y002065D01*
X035290Y002072D01*
X035318Y002075D01*
X035346Y002074D01*
X035373Y002069D01*
X035400Y002060D01*
X035425Y002048D01*
X035448Y002033D01*
X035469Y002014D01*
X035487Y001993D01*
X035502Y001969D01*
X035513Y001943D01*
X035521Y001917D01*
X035525Y001889D01*
X035525Y001861D01*
X035521Y001833D01*
X035513Y001807D01*
X035502Y001781D01*
X035487Y001757D01*
X035469Y001736D01*
X035448Y001717D01*
X035425Y001702D01*
X035400Y001690D01*
X035373Y001681D01*
X035346Y001676D01*
X035318Y001675D01*
X035290Y001678D01*
X035263Y001685D01*
X035237Y001695D01*
X035213Y001709D01*
X035191Y001726D01*
X035172Y001746D01*
X035155Y001769D01*
X035142Y001794D01*
X035133Y001820D01*
X035127Y001847D01*
X035125Y001875D01*
X035625Y001900D02*
X035627Y001928D01*
X035633Y001955D01*
X035642Y001981D01*
X035655Y002006D01*
X035672Y002029D01*
X035691Y002049D01*
X035713Y002066D01*
X035737Y002080D01*
X035763Y002090D01*
X035790Y002097D01*
X035818Y002100D01*
X035846Y002099D01*
X035873Y002094D01*
X035900Y002085D01*
X035925Y002073D01*
X035948Y002058D01*
X035969Y002039D01*
X035987Y002018D01*
X036002Y001994D01*
X036013Y001968D01*
X036021Y001942D01*
X036025Y001914D01*
X036025Y001886D01*
X036021Y001858D01*
X036013Y001832D01*
X036002Y001806D01*
X035987Y001782D01*
X035969Y001761D01*
X035948Y001742D01*
X035925Y001727D01*
X035900Y001715D01*
X035873Y001706D01*
X035846Y001701D01*
X035818Y001700D01*
X035790Y001703D01*
X035763Y001710D01*
X035737Y001720D01*
X035713Y001734D01*
X035691Y001751D01*
X035672Y001771D01*
X035655Y001794D01*
X035642Y001819D01*
X035633Y001845D01*
X035627Y001872D01*
X035625Y001900D01*
X035125Y002645D02*
X035127Y002686D01*
X035133Y002726D01*
X035142Y002766D01*
X035156Y002805D01*
X035173Y002842D01*
X035193Y002877D01*
X035217Y002911D01*
X035244Y002942D01*
X035273Y002970D01*
X035306Y002995D01*
X035340Y003017D01*
X035376Y003036D01*
X035414Y003051D01*
X035454Y003063D01*
X035494Y003071D01*
X035535Y003075D01*
X035575Y003075D01*
X035616Y003071D01*
X035656Y003063D01*
X035696Y003051D01*
X035734Y003036D01*
X035770Y003017D01*
X035804Y002995D01*
X035837Y002970D01*
X035866Y002942D01*
X035893Y002911D01*
X035917Y002877D01*
X035937Y002842D01*
X035954Y002805D01*
X035968Y002766D01*
X035977Y002726D01*
X035983Y002686D01*
X035985Y002645D01*
X035983Y002604D01*
X035977Y002564D01*
X035968Y002524D01*
X035954Y002485D01*
X035937Y002448D01*
X035917Y002413D01*
X035893Y002379D01*
X035866Y002348D01*
X035837Y002320D01*
X035804Y002295D01*
X035770Y002273D01*
X035734Y002254D01*
X035696Y002239D01*
X035656Y002227D01*
X035616Y002219D01*
X035575Y002215D01*
X035535Y002215D01*
X035494Y002219D01*
X035454Y002227D01*
X035414Y002239D01*
X035376Y002254D01*
X035340Y002273D01*
X035306Y002295D01*
X035273Y002320D01*
X035244Y002348D01*
X035217Y002379D01*
X035193Y002413D01*
X035173Y002448D01*
X035156Y002485D01*
X035142Y002524D01*
X035133Y002564D01*
X035127Y002604D01*
X035125Y002645D01*
X002251Y018157D02*
X002253Y018198D01*
X002259Y018238D01*
X002268Y018278D01*
X002282Y018317D01*
X002299Y018354D01*
X002319Y018389D01*
X002343Y018423D01*
X002370Y018454D01*
X002399Y018482D01*
X002432Y018507D01*
X002466Y018529D01*
X002502Y018548D01*
X002540Y018563D01*
X002580Y018575D01*
X002620Y018583D01*
X002661Y018587D01*
X002701Y018587D01*
X002742Y018583D01*
X002782Y018575D01*
X002822Y018563D01*
X002860Y018548D01*
X002896Y018529D01*
X002930Y018507D01*
X002963Y018482D01*
X002992Y018454D01*
X003019Y018423D01*
X003043Y018389D01*
X003063Y018354D01*
X003080Y018317D01*
X003094Y018278D01*
X003103Y018238D01*
X003109Y018198D01*
X003111Y018157D01*
X003109Y018116D01*
X003103Y018076D01*
X003094Y018036D01*
X003080Y017997D01*
X003063Y017960D01*
X003043Y017925D01*
X003019Y017891D01*
X002992Y017860D01*
X002963Y017832D01*
X002930Y017807D01*
X002896Y017785D01*
X002860Y017766D01*
X002822Y017751D01*
X002782Y017739D01*
X002742Y017731D01*
X002701Y017727D01*
X002661Y017727D01*
X002620Y017731D01*
X002580Y017739D01*
X002540Y017751D01*
X002502Y017766D01*
X002466Y017785D01*
X002432Y017807D01*
X002399Y017832D01*
X002370Y017860D01*
X002343Y017891D01*
X002319Y017925D01*
X002299Y017960D01*
X002282Y017997D01*
X002268Y018036D01*
X002259Y018076D01*
X002253Y018116D01*
X002251Y018157D01*
X002799Y020104D02*
X002801Y020122D01*
X002807Y020138D01*
X002816Y020153D01*
X002829Y020166D01*
X002844Y020175D01*
X002860Y020181D01*
X002878Y020183D01*
X002896Y020181D01*
X002912Y020175D01*
X002927Y020166D01*
X002940Y020153D01*
X002949Y020138D01*
X002955Y020122D01*
X002957Y020104D01*
X002955Y020086D01*
X002949Y020070D01*
X002940Y020055D01*
X002927Y020042D01*
X002912Y020033D01*
X002896Y020027D01*
X002878Y020025D01*
X002860Y020027D01*
X002844Y020033D01*
X002829Y020042D01*
X002816Y020055D01*
X002807Y020070D01*
X002801Y020086D01*
X002799Y020104D01*
X002562Y020182D02*
X002564Y020200D01*
X002570Y020216D01*
X002579Y020231D01*
X002592Y020244D01*
X002607Y020253D01*
X002623Y020259D01*
X002641Y020261D01*
X002659Y020259D01*
X002675Y020253D01*
X002690Y020244D01*
X002703Y020231D01*
X002712Y020216D01*
X002718Y020200D01*
X002720Y020182D01*
X002718Y020164D01*
X002712Y020148D01*
X002703Y020133D01*
X002690Y020120D01*
X002675Y020111D01*
X002659Y020105D01*
X002641Y020103D01*
X002623Y020105D01*
X002607Y020111D01*
X002592Y020120D01*
X002579Y020133D01*
X002570Y020148D01*
X002564Y020164D01*
X002562Y020182D01*
X002405Y020340D02*
X002407Y020358D01*
X002413Y020374D01*
X002422Y020389D01*
X002435Y020402D01*
X002450Y020411D01*
X002466Y020417D01*
X002484Y020419D01*
X002502Y020417D01*
X002518Y020411D01*
X002533Y020402D01*
X002546Y020389D01*
X002555Y020374D01*
X002561Y020358D01*
X002563Y020340D01*
X002561Y020322D01*
X002555Y020306D01*
X002546Y020291D01*
X002533Y020278D01*
X002518Y020269D01*
X002502Y020263D01*
X002484Y020261D01*
X002466Y020263D01*
X002450Y020269D01*
X002435Y020278D01*
X002422Y020291D01*
X002413Y020306D01*
X002407Y020322D01*
X002405Y020340D01*
X003035Y020182D02*
X003037Y020200D01*
X003043Y020216D01*
X003052Y020231D01*
X003065Y020244D01*
X003080Y020253D01*
X003096Y020259D01*
X003114Y020261D01*
X003132Y020259D01*
X003148Y020253D01*
X003163Y020244D01*
X003176Y020231D01*
X003185Y020216D01*
X003191Y020200D01*
X003193Y020182D01*
X003191Y020164D01*
X003185Y020148D01*
X003176Y020133D01*
X003163Y020120D01*
X003148Y020111D01*
X003132Y020105D01*
X003114Y020103D01*
X003096Y020105D01*
X003080Y020111D01*
X003065Y020120D01*
X003052Y020133D01*
X003043Y020148D01*
X003037Y020164D01*
X003035Y020182D01*
X003192Y020340D02*
X003194Y020358D01*
X003200Y020374D01*
X003209Y020389D01*
X003222Y020402D01*
X003237Y020411D01*
X003253Y020417D01*
X003271Y020419D01*
X003289Y020417D01*
X003305Y020411D01*
X003320Y020402D01*
X003333Y020389D01*
X003342Y020374D01*
X003348Y020358D01*
X003350Y020340D01*
X003348Y020322D01*
X003342Y020306D01*
X003333Y020291D01*
X003320Y020278D01*
X003305Y020269D01*
X003289Y020263D01*
X003271Y020261D01*
X003253Y020263D01*
X003237Y020269D01*
X003222Y020278D01*
X003209Y020291D01*
X003200Y020306D01*
X003194Y020322D01*
X003192Y020340D01*
X022484Y020340D02*
X022486Y020358D01*
X022492Y020374D01*
X022501Y020389D01*
X022514Y020402D01*
X022529Y020411D01*
X022545Y020417D01*
X022563Y020419D01*
X022581Y020417D01*
X022597Y020411D01*
X022612Y020402D01*
X022625Y020389D01*
X022634Y020374D01*
X022640Y020358D01*
X022642Y020340D01*
X022640Y020322D01*
X022634Y020306D01*
X022625Y020291D01*
X022612Y020278D01*
X022597Y020269D01*
X022581Y020263D01*
X022563Y020261D01*
X022545Y020263D01*
X022529Y020269D01*
X022514Y020278D01*
X022501Y020291D01*
X022492Y020306D01*
X022486Y020322D01*
X022484Y020340D01*
X022641Y020182D02*
X022643Y020200D01*
X022649Y020216D01*
X022658Y020231D01*
X022671Y020244D01*
X022686Y020253D01*
X022702Y020259D01*
X022720Y020261D01*
X022738Y020259D01*
X022754Y020253D01*
X022769Y020244D01*
X022782Y020231D01*
X022791Y020216D01*
X022797Y020200D01*
X022799Y020182D01*
X022797Y020164D01*
X022791Y020148D01*
X022782Y020133D01*
X022769Y020120D01*
X022754Y020111D01*
X022738Y020105D01*
X022720Y020103D01*
X022702Y020105D01*
X022686Y020111D01*
X022671Y020120D01*
X022658Y020133D01*
X022649Y020148D01*
X022643Y020164D01*
X022641Y020182D01*
X022877Y020104D02*
X022879Y020122D01*
X022885Y020138D01*
X022894Y020153D01*
X022907Y020166D01*
X022922Y020175D01*
X022938Y020181D01*
X022956Y020183D01*
X022974Y020181D01*
X022990Y020175D01*
X023005Y020166D01*
X023018Y020153D01*
X023027Y020138D01*
X023033Y020122D01*
X023035Y020104D01*
X023033Y020086D01*
X023027Y020070D01*
X023018Y020055D01*
X023005Y020042D01*
X022990Y020033D01*
X022974Y020027D01*
X022956Y020025D01*
X022938Y020027D01*
X022922Y020033D01*
X022907Y020042D01*
X022894Y020055D01*
X022885Y020070D01*
X022879Y020086D01*
X022877Y020104D01*
X023114Y020182D02*
X023116Y020200D01*
X023122Y020216D01*
X023131Y020231D01*
X023144Y020244D01*
X023159Y020253D01*
X023175Y020259D01*
X023193Y020261D01*
X023211Y020259D01*
X023227Y020253D01*
X023242Y020244D01*
X023255Y020231D01*
X023264Y020216D01*
X023270Y020200D01*
X023272Y020182D01*
X023270Y020164D01*
X023264Y020148D01*
X023255Y020133D01*
X023242Y020120D01*
X023227Y020111D01*
X023211Y020105D01*
X023193Y020103D01*
X023175Y020105D01*
X023159Y020111D01*
X023144Y020120D01*
X023131Y020133D01*
X023122Y020148D01*
X023116Y020164D01*
X023114Y020182D01*
X023271Y020340D02*
X023273Y020358D01*
X023279Y020374D01*
X023288Y020389D01*
X023301Y020402D01*
X023316Y020411D01*
X023332Y020417D01*
X023350Y020419D01*
X023368Y020417D01*
X023384Y020411D01*
X023399Y020402D01*
X023412Y020389D01*
X023421Y020374D01*
X023427Y020358D01*
X023429Y020340D01*
X023427Y020322D01*
X023421Y020306D01*
X023412Y020291D01*
X023399Y020278D01*
X023384Y020269D01*
X023368Y020263D01*
X023350Y020261D01*
X023332Y020263D01*
X023316Y020269D01*
X023301Y020278D01*
X023288Y020291D01*
X023279Y020306D01*
X023273Y020322D01*
X023271Y020340D01*
X033428Y020340D02*
X033430Y020358D01*
X033436Y020374D01*
X033445Y020389D01*
X033458Y020402D01*
X033473Y020411D01*
X033489Y020417D01*
X033507Y020419D01*
X033525Y020417D01*
X033541Y020411D01*
X033556Y020402D01*
X033569Y020389D01*
X033578Y020374D01*
X033584Y020358D01*
X033586Y020340D01*
X033584Y020322D01*
X033578Y020306D01*
X033569Y020291D01*
X033556Y020278D01*
X033541Y020269D01*
X033525Y020263D01*
X033507Y020261D01*
X033489Y020263D01*
X033473Y020269D01*
X033458Y020278D01*
X033445Y020291D01*
X033436Y020306D01*
X033430Y020322D01*
X033428Y020340D01*
X033586Y020182D02*
X033588Y020200D01*
X033594Y020216D01*
X033603Y020231D01*
X033616Y020244D01*
X033631Y020253D01*
X033647Y020259D01*
X033665Y020261D01*
X033683Y020259D01*
X033699Y020253D01*
X033714Y020244D01*
X033727Y020231D01*
X033736Y020216D01*
X033742Y020200D01*
X033744Y020182D01*
X033742Y020164D01*
X033736Y020148D01*
X033727Y020133D01*
X033714Y020120D01*
X033699Y020111D01*
X033683Y020105D01*
X033665Y020103D01*
X033647Y020105D01*
X033631Y020111D01*
X033616Y020120D01*
X033603Y020133D01*
X033594Y020148D01*
X033588Y020164D01*
X033586Y020182D01*
X033822Y020104D02*
X033824Y020122D01*
X033830Y020138D01*
X033839Y020153D01*
X033852Y020166D01*
X033867Y020175D01*
X033883Y020181D01*
X033901Y020183D01*
X033919Y020181D01*
X033935Y020175D01*
X033950Y020166D01*
X033963Y020153D01*
X033972Y020138D01*
X033978Y020122D01*
X033980Y020104D01*
X033978Y020086D01*
X033972Y020070D01*
X033963Y020055D01*
X033950Y020042D01*
X033935Y020033D01*
X033919Y020027D01*
X033901Y020025D01*
X033883Y020027D01*
X033867Y020033D01*
X033852Y020042D01*
X033839Y020055D01*
X033830Y020070D01*
X033824Y020086D01*
X033822Y020104D01*
X034058Y020182D02*
X034060Y020200D01*
X034066Y020216D01*
X034075Y020231D01*
X034088Y020244D01*
X034103Y020253D01*
X034119Y020259D01*
X034137Y020261D01*
X034155Y020259D01*
X034171Y020253D01*
X034186Y020244D01*
X034199Y020231D01*
X034208Y020216D01*
X034214Y020200D01*
X034216Y020182D01*
X034214Y020164D01*
X034208Y020148D01*
X034199Y020133D01*
X034186Y020120D01*
X034171Y020111D01*
X034155Y020105D01*
X034137Y020103D01*
X034119Y020105D01*
X034103Y020111D01*
X034088Y020120D01*
X034075Y020133D01*
X034066Y020148D01*
X034060Y020164D01*
X034058Y020182D01*
X034216Y020340D02*
X034218Y020358D01*
X034224Y020374D01*
X034233Y020389D01*
X034246Y020402D01*
X034261Y020411D01*
X034277Y020417D01*
X034295Y020419D01*
X034313Y020417D01*
X034329Y020411D01*
X034344Y020402D01*
X034357Y020389D01*
X034366Y020374D01*
X034372Y020358D01*
X034374Y020340D01*
X034372Y020322D01*
X034366Y020306D01*
X034357Y020291D01*
X034344Y020278D01*
X034329Y020269D01*
X034313Y020263D01*
X034295Y020261D01*
X034277Y020263D01*
X034261Y020269D01*
X034246Y020278D01*
X034233Y020291D01*
X034224Y020306D01*
X034218Y020322D01*
X034216Y020340D01*
D11*
X035060Y019100D03*
X035060Y018600D03*
X035060Y018100D03*
X035060Y017600D03*
X035060Y017100D03*
X035060Y016600D03*
X035060Y016100D03*
X035060Y015600D03*
X032640Y015600D03*
X032640Y016100D03*
X032640Y016600D03*
X032640Y017100D03*
X032640Y017600D03*
X032640Y018100D03*
X032640Y018600D03*
X032640Y019100D03*
X032640Y012000D03*
X032640Y011500D03*
X032640Y011000D03*
X032640Y010500D03*
X032640Y010000D03*
X032640Y009500D03*
X032640Y009000D03*
X032640Y008500D03*
X035060Y008500D03*
X035060Y009000D03*
X035060Y009500D03*
X035060Y010000D03*
X035060Y010500D03*
X035060Y011000D03*
X035060Y011500D03*
X035060Y012000D03*
D12*
X031250Y005850D03*
X030250Y005850D03*
X029750Y004150D03*
X028750Y004150D03*
X018100Y015900D03*
X017100Y015900D03*
D13*
X012075Y015700D02*
X012075Y015400D01*
X012075Y015700D02*
X012525Y015700D01*
X012525Y015400D01*
X012075Y015400D01*
X012075Y015499D02*
X012525Y015499D01*
X012525Y015598D02*
X012075Y015598D01*
X012075Y015697D02*
X012525Y015697D01*
X012075Y016100D02*
X012075Y016400D01*
X012525Y016400D01*
X012525Y016100D01*
X012075Y016100D01*
X012075Y016199D02*
X012525Y016199D01*
X012525Y016298D02*
X012075Y016298D01*
X012075Y016397D02*
X012525Y016397D01*
X009250Y014825D02*
X008950Y014825D01*
X008950Y015275D01*
X009250Y015275D01*
X009250Y014825D01*
X009250Y014924D02*
X008950Y014924D01*
X008950Y015023D02*
X009250Y015023D01*
X009250Y015122D02*
X008950Y015122D01*
X008950Y015221D02*
X009250Y015221D01*
X008550Y014825D02*
X008250Y014825D01*
X008250Y015275D01*
X008550Y015275D01*
X008550Y014825D01*
X008550Y014924D02*
X008250Y014924D01*
X008250Y015023D02*
X008550Y015023D01*
X008550Y015122D02*
X008250Y015122D01*
X008250Y015221D02*
X008550Y015221D01*
X007850Y014125D02*
X007550Y014125D01*
X007550Y014575D01*
X007850Y014575D01*
X007850Y014125D01*
X007850Y014224D02*
X007550Y014224D01*
X007550Y014323D02*
X007850Y014323D01*
X007850Y014422D02*
X007550Y014422D01*
X007550Y014521D02*
X007850Y014521D01*
X007150Y014125D02*
X006850Y014125D01*
X006850Y014575D01*
X007150Y014575D01*
X007150Y014125D01*
X007150Y014224D02*
X006850Y014224D01*
X006850Y014323D02*
X007150Y014323D01*
X007150Y014422D02*
X006850Y014422D01*
X006850Y014521D02*
X007150Y014521D01*
X008250Y013925D02*
X008550Y013925D01*
X008550Y013475D01*
X008250Y013475D01*
X008250Y013925D01*
X008250Y013574D02*
X008550Y013574D01*
X008550Y013673D02*
X008250Y013673D01*
X008250Y013772D02*
X008550Y013772D01*
X008550Y013871D02*
X008250Y013871D01*
X008950Y013925D02*
X009250Y013925D01*
X009250Y013475D01*
X008950Y013475D01*
X008950Y013925D01*
X008950Y013574D02*
X009250Y013574D01*
X009250Y013673D02*
X008950Y013673D01*
X008950Y013772D02*
X009250Y013772D01*
X009250Y013871D02*
X008950Y013871D01*
X007850Y013375D02*
X007550Y013375D01*
X007850Y013375D02*
X007850Y012925D01*
X007550Y012925D01*
X007550Y013375D01*
X007550Y013024D02*
X007850Y013024D01*
X007850Y013123D02*
X007550Y013123D01*
X007550Y013222D02*
X007850Y013222D01*
X007850Y013321D02*
X007550Y013321D01*
X007150Y013375D02*
X006850Y013375D01*
X007150Y013375D02*
X007150Y012925D01*
X006850Y012925D01*
X006850Y013375D01*
X006850Y013024D02*
X007150Y013024D01*
X007150Y013123D02*
X006850Y013123D01*
X006850Y013222D02*
X007150Y013222D01*
X007150Y013321D02*
X006850Y013321D01*
X010000Y011625D02*
X010300Y011625D01*
X010000Y011625D02*
X010000Y012075D01*
X010300Y012075D01*
X010300Y011625D01*
X010300Y011724D02*
X010000Y011724D01*
X010000Y011823D02*
X010300Y011823D01*
X010300Y011922D02*
X010000Y011922D01*
X010000Y012021D02*
X010300Y012021D01*
X010700Y011625D02*
X011000Y011625D01*
X010700Y011625D02*
X010700Y012075D01*
X011000Y012075D01*
X011000Y011625D01*
X011000Y011724D02*
X010700Y011724D01*
X010700Y011823D02*
X011000Y011823D01*
X011000Y011922D02*
X010700Y011922D01*
X010700Y012021D02*
X011000Y012021D01*
X009650Y009825D02*
X009350Y009825D01*
X009350Y010275D01*
X009650Y010275D01*
X009650Y009825D01*
X009650Y009924D02*
X009350Y009924D01*
X009350Y010023D02*
X009650Y010023D01*
X009650Y010122D02*
X009350Y010122D01*
X009350Y010221D02*
X009650Y010221D01*
X008950Y009825D02*
X008650Y009825D01*
X008650Y010275D01*
X008950Y010275D01*
X008950Y009825D01*
X008950Y009924D02*
X008650Y009924D01*
X008650Y010023D02*
X008950Y010023D01*
X008950Y010122D02*
X008650Y010122D01*
X008650Y010221D02*
X008950Y010221D01*
X011100Y010025D02*
X011400Y010025D01*
X011400Y009575D01*
X011100Y009575D01*
X011100Y010025D01*
X011100Y009674D02*
X011400Y009674D01*
X011400Y009773D02*
X011100Y009773D01*
X011100Y009872D02*
X011400Y009872D01*
X011400Y009971D02*
X011100Y009971D01*
X011800Y010025D02*
X012100Y010025D01*
X012100Y009575D01*
X011800Y009575D01*
X011800Y010025D01*
X011800Y009674D02*
X012100Y009674D01*
X012100Y009773D02*
X011800Y009773D01*
X011800Y009872D02*
X012100Y009872D01*
X012100Y009971D02*
X011800Y009971D01*
X015525Y010100D02*
X015525Y010400D01*
X015975Y010400D01*
X015975Y010100D01*
X015525Y010100D01*
X015525Y010199D02*
X015975Y010199D01*
X015975Y010298D02*
X015525Y010298D01*
X015525Y010397D02*
X015975Y010397D01*
X016525Y010400D02*
X016525Y010100D01*
X016525Y010400D02*
X016975Y010400D01*
X016975Y010100D01*
X016525Y010100D01*
X016525Y010199D02*
X016975Y010199D01*
X016975Y010298D02*
X016525Y010298D01*
X016525Y010397D02*
X016975Y010397D01*
X016525Y009700D02*
X016525Y009400D01*
X016525Y009700D02*
X016975Y009700D01*
X016975Y009400D01*
X016525Y009400D01*
X016525Y009499D02*
X016975Y009499D01*
X016975Y009598D02*
X016525Y009598D01*
X016525Y009697D02*
X016975Y009697D01*
X015525Y009700D02*
X015525Y009400D01*
X015525Y009700D02*
X015975Y009700D01*
X015975Y009400D01*
X015525Y009400D01*
X015525Y009499D02*
X015975Y009499D01*
X015975Y009598D02*
X015525Y009598D01*
X015525Y009697D02*
X015975Y009697D01*
X016825Y008075D02*
X017125Y008075D01*
X016825Y008075D02*
X016825Y008525D01*
X017125Y008525D01*
X017125Y008075D01*
X017125Y008174D02*
X016825Y008174D01*
X016825Y008273D02*
X017125Y008273D01*
X017125Y008372D02*
X016825Y008372D01*
X016825Y008471D02*
X017125Y008471D01*
X017525Y008075D02*
X017825Y008075D01*
X017525Y008075D02*
X017525Y008525D01*
X017825Y008525D01*
X017825Y008075D01*
X017825Y008174D02*
X017525Y008174D01*
X017525Y008273D02*
X017825Y008273D01*
X017825Y008372D02*
X017525Y008372D01*
X017525Y008471D02*
X017825Y008471D01*
X018775Y008075D02*
X019075Y008075D01*
X018775Y008075D02*
X018775Y008525D01*
X019075Y008525D01*
X019075Y008075D01*
X019075Y008174D02*
X018775Y008174D01*
X018775Y008273D02*
X019075Y008273D01*
X019075Y008372D02*
X018775Y008372D01*
X018775Y008471D02*
X019075Y008471D01*
X019475Y008075D02*
X019775Y008075D01*
X019475Y008075D02*
X019475Y008525D01*
X019775Y008525D01*
X019775Y008075D01*
X019775Y008174D02*
X019475Y008174D01*
X019475Y008273D02*
X019775Y008273D01*
X019775Y008372D02*
X019475Y008372D01*
X019475Y008471D02*
X019775Y008471D01*
X021025Y007975D02*
X021025Y007675D01*
X021025Y007975D02*
X021475Y007975D01*
X021475Y007675D01*
X021025Y007675D01*
X021025Y007774D02*
X021475Y007774D01*
X021475Y007873D02*
X021025Y007873D01*
X021025Y007972D02*
X021475Y007972D01*
X021025Y007275D02*
X021025Y006975D01*
X021025Y007275D02*
X021475Y007275D01*
X021475Y006975D01*
X021025Y006975D01*
X021025Y007074D02*
X021475Y007074D01*
X021475Y007173D02*
X021025Y007173D01*
X021025Y007272D02*
X021475Y007272D01*
X019225Y007200D02*
X018925Y007200D01*
X018925Y007650D01*
X019225Y007650D01*
X019225Y007200D01*
X019225Y007299D02*
X018925Y007299D01*
X018925Y007398D02*
X019225Y007398D01*
X019225Y007497D02*
X018925Y007497D01*
X018925Y007596D02*
X019225Y007596D01*
X018525Y007200D02*
X018225Y007200D01*
X018225Y007650D01*
X018525Y007650D01*
X018525Y007200D01*
X018525Y007299D02*
X018225Y007299D01*
X018225Y007398D02*
X018525Y007398D01*
X018525Y007497D02*
X018225Y007497D01*
X018225Y007596D02*
X018525Y007596D01*
X015375Y006950D02*
X015375Y006650D01*
X015375Y006950D02*
X015825Y006950D01*
X015825Y006650D01*
X015375Y006650D01*
X015375Y006749D02*
X015825Y006749D01*
X015825Y006848D02*
X015375Y006848D01*
X015375Y006947D02*
X015825Y006947D01*
X015375Y006250D02*
X015375Y005950D01*
X015375Y006250D02*
X015825Y006250D01*
X015825Y005950D01*
X015375Y005950D01*
X015375Y006049D02*
X015825Y006049D01*
X015825Y006148D02*
X015375Y006148D01*
X015375Y006247D02*
X015825Y006247D01*
X015825Y004525D02*
X015825Y004225D01*
X015375Y004225D01*
X015375Y004525D01*
X015825Y004525D01*
X015825Y004324D02*
X015375Y004324D01*
X015375Y004423D02*
X015825Y004423D01*
X015825Y004522D02*
X015375Y004522D01*
X015825Y003825D02*
X015825Y003525D01*
X015375Y003525D01*
X015375Y003825D01*
X015825Y003825D01*
X015825Y003624D02*
X015375Y003624D01*
X015375Y003723D02*
X015825Y003723D01*
X015825Y003822D02*
X015375Y003822D01*
X016025Y002250D02*
X016025Y001950D01*
X015575Y001950D01*
X015575Y002250D01*
X016025Y002250D01*
X016025Y002049D02*
X015575Y002049D01*
X015575Y002148D02*
X016025Y002148D01*
X016025Y002247D02*
X015575Y002247D01*
X016625Y002250D02*
X016625Y001950D01*
X016625Y002250D02*
X017075Y002250D01*
X017075Y001950D01*
X016625Y001950D01*
X016625Y002049D02*
X017075Y002049D01*
X017075Y002148D02*
X016625Y002148D01*
X016625Y002247D02*
X017075Y002247D01*
X017675Y002250D02*
X017675Y001950D01*
X017675Y002250D02*
X018125Y002250D01*
X018125Y001950D01*
X017675Y001950D01*
X017675Y002049D02*
X018125Y002049D01*
X018125Y002148D02*
X017675Y002148D01*
X017675Y002247D02*
X018125Y002247D01*
X018675Y002250D02*
X018675Y001950D01*
X018675Y002250D02*
X019125Y002250D01*
X019125Y001950D01*
X018675Y001950D01*
X018675Y002049D02*
X019125Y002049D01*
X019125Y002148D02*
X018675Y002148D01*
X018675Y002247D02*
X019125Y002247D01*
X018675Y001550D02*
X018675Y001250D01*
X018675Y001550D02*
X019125Y001550D01*
X019125Y001250D01*
X018675Y001250D01*
X018675Y001349D02*
X019125Y001349D01*
X019125Y001448D02*
X018675Y001448D01*
X018675Y001547D02*
X019125Y001547D01*
X017675Y001550D02*
X017675Y001250D01*
X017675Y001550D02*
X018125Y001550D01*
X018125Y001250D01*
X017675Y001250D01*
X017675Y001349D02*
X018125Y001349D01*
X018125Y001448D02*
X017675Y001448D01*
X017675Y001547D02*
X018125Y001547D01*
X016625Y001550D02*
X016625Y001250D01*
X016625Y001550D02*
X017075Y001550D01*
X017075Y001250D01*
X016625Y001250D01*
X016625Y001349D02*
X017075Y001349D01*
X017075Y001448D02*
X016625Y001448D01*
X016625Y001547D02*
X017075Y001547D01*
X016025Y001550D02*
X016025Y001250D01*
X015575Y001250D01*
X015575Y001550D01*
X016025Y001550D01*
X016025Y001349D02*
X015575Y001349D01*
X015575Y001448D02*
X016025Y001448D01*
X016025Y001547D02*
X015575Y001547D01*
X011550Y002775D02*
X011250Y002775D01*
X011550Y002775D02*
X011550Y002325D01*
X011250Y002325D01*
X011250Y002775D01*
X011250Y002424D02*
X011550Y002424D01*
X011550Y002523D02*
X011250Y002523D01*
X011250Y002622D02*
X011550Y002622D01*
X011550Y002721D02*
X011250Y002721D01*
X010850Y002775D02*
X010550Y002775D01*
X010850Y002775D02*
X010850Y002325D01*
X010550Y002325D01*
X010550Y002775D01*
X010550Y002424D02*
X010850Y002424D01*
X010850Y002523D02*
X010550Y002523D01*
X010550Y002622D02*
X010850Y002622D01*
X010850Y002721D02*
X010550Y002721D01*
X010550Y004075D02*
X010850Y004075D01*
X010850Y003625D01*
X010550Y003625D01*
X010550Y004075D01*
X010550Y003724D02*
X010850Y003724D01*
X010850Y003823D02*
X010550Y003823D01*
X010550Y003922D02*
X010850Y003922D01*
X010850Y004021D02*
X010550Y004021D01*
X011250Y004075D02*
X011550Y004075D01*
X011550Y003625D01*
X011250Y003625D01*
X011250Y004075D01*
X011250Y003724D02*
X011550Y003724D01*
X011550Y003823D02*
X011250Y003823D01*
X011250Y003922D02*
X011550Y003922D01*
X011550Y004021D02*
X011250Y004021D01*
X003000Y005625D02*
X002700Y005625D01*
X002700Y006075D01*
X003000Y006075D01*
X003000Y005625D01*
X003000Y005724D02*
X002700Y005724D01*
X002700Y005823D02*
X003000Y005823D01*
X003000Y005922D02*
X002700Y005922D01*
X002700Y006021D02*
X003000Y006021D01*
X002300Y005625D02*
X002000Y005625D01*
X002000Y006075D01*
X002300Y006075D01*
X002300Y005625D01*
X002300Y005724D02*
X002000Y005724D01*
X002000Y005823D02*
X002300Y005823D01*
X002300Y005922D02*
X002000Y005922D01*
X002000Y006021D02*
X002300Y006021D01*
X020425Y005650D02*
X020425Y005350D01*
X019975Y005350D01*
X019975Y005650D01*
X020425Y005650D01*
X020425Y005449D02*
X019975Y005449D01*
X019975Y005548D02*
X020425Y005548D01*
X020425Y005647D02*
X019975Y005647D01*
X021475Y005475D02*
X021475Y005175D01*
X021025Y005175D01*
X021025Y005475D01*
X021475Y005475D01*
X021475Y005274D02*
X021025Y005274D01*
X021025Y005373D02*
X021475Y005373D01*
X021475Y005472D02*
X021025Y005472D01*
X021475Y005875D02*
X021475Y006175D01*
X021475Y005875D02*
X021025Y005875D01*
X021025Y006175D01*
X021475Y006175D01*
X021475Y005974D02*
X021025Y005974D01*
X021025Y006073D02*
X021475Y006073D01*
X021475Y006172D02*
X021025Y006172D01*
X020425Y004950D02*
X020425Y004650D01*
X019975Y004650D01*
X019975Y004950D01*
X020425Y004950D01*
X020425Y004749D02*
X019975Y004749D01*
X019975Y004848D02*
X020425Y004848D01*
X020425Y004947D02*
X019975Y004947D01*
X021025Y004350D02*
X021025Y004050D01*
X021025Y004350D02*
X021475Y004350D01*
X021475Y004050D01*
X021025Y004050D01*
X021025Y004149D02*
X021475Y004149D01*
X021475Y004248D02*
X021025Y004248D01*
X021025Y004347D02*
X021475Y004347D01*
X021025Y003650D02*
X021025Y003350D01*
X021025Y003650D02*
X021475Y003650D01*
X021475Y003350D01*
X021025Y003350D01*
X021025Y003449D02*
X021475Y003449D01*
X021475Y003548D02*
X021025Y003548D01*
X021025Y003647D02*
X021475Y003647D01*
X023900Y004225D02*
X024200Y004225D01*
X023900Y004225D02*
X023900Y004675D01*
X024200Y004675D01*
X024200Y004225D01*
X024200Y004324D02*
X023900Y004324D01*
X023900Y004423D02*
X024200Y004423D01*
X024200Y004522D02*
X023900Y004522D01*
X023900Y004621D02*
X024200Y004621D01*
X024600Y004225D02*
X024900Y004225D01*
X024600Y004225D02*
X024600Y004675D01*
X024900Y004675D01*
X024900Y004225D01*
X024900Y004324D02*
X024600Y004324D01*
X024600Y004423D02*
X024900Y004423D01*
X024900Y004522D02*
X024600Y004522D01*
X024600Y004621D02*
X024900Y004621D01*
X026150Y008775D02*
X026450Y008775D01*
X026450Y008325D01*
X026150Y008325D01*
X026150Y008775D01*
X026150Y008424D02*
X026450Y008424D01*
X026450Y008523D02*
X026150Y008523D01*
X026150Y008622D02*
X026450Y008622D01*
X026450Y008721D02*
X026150Y008721D01*
X026850Y008775D02*
X027150Y008775D01*
X027150Y008325D01*
X026850Y008325D01*
X026850Y008775D01*
X026850Y008424D02*
X027150Y008424D01*
X027150Y008523D02*
X026850Y008523D01*
X026850Y008622D02*
X027150Y008622D01*
X027150Y008721D02*
X026850Y008721D01*
X025500Y009975D02*
X025200Y009975D01*
X025200Y010425D01*
X025500Y010425D01*
X025500Y009975D01*
X025500Y010074D02*
X025200Y010074D01*
X025200Y010173D02*
X025500Y010173D01*
X025500Y010272D02*
X025200Y010272D01*
X025200Y010371D02*
X025500Y010371D01*
X024800Y009975D02*
X024500Y009975D01*
X024500Y010425D01*
X024800Y010425D01*
X024800Y009975D01*
X024800Y010074D02*
X024500Y010074D01*
X024500Y010173D02*
X024800Y010173D01*
X024800Y010272D02*
X024500Y010272D01*
X024500Y010371D02*
X024800Y010371D01*
X030650Y013725D02*
X030950Y013725D01*
X030650Y013725D02*
X030650Y014175D01*
X030950Y014175D01*
X030950Y013725D01*
X030950Y013824D02*
X030650Y013824D01*
X030650Y013923D02*
X030950Y013923D01*
X030950Y014022D02*
X030650Y014022D01*
X030650Y014121D02*
X030950Y014121D01*
X031350Y013725D02*
X031650Y013725D01*
X031350Y013725D02*
X031350Y014175D01*
X031650Y014175D01*
X031650Y013725D01*
X031650Y013824D02*
X031350Y013824D01*
X031350Y013923D02*
X031650Y013923D01*
X031650Y014022D02*
X031350Y014022D01*
X031350Y014121D02*
X031650Y014121D01*
X026050Y019775D02*
X025750Y019775D01*
X026050Y019775D02*
X026050Y019325D01*
X025750Y019325D01*
X025750Y019775D01*
X025750Y019424D02*
X026050Y019424D01*
X026050Y019523D02*
X025750Y019523D01*
X025750Y019622D02*
X026050Y019622D01*
X026050Y019721D02*
X025750Y019721D01*
X025350Y019775D02*
X025050Y019775D01*
X025350Y019775D02*
X025350Y019325D01*
X025050Y019325D01*
X025050Y019775D01*
X025050Y019424D02*
X025350Y019424D01*
X025350Y019523D02*
X025050Y019523D01*
X025050Y019622D02*
X025350Y019622D01*
X025350Y019721D02*
X025050Y019721D01*
X019500Y018725D02*
X019200Y018725D01*
X019500Y018725D02*
X019500Y018275D01*
X019200Y018275D01*
X019200Y018725D01*
X019200Y018374D02*
X019500Y018374D01*
X019500Y018473D02*
X019200Y018473D01*
X019200Y018572D02*
X019500Y018572D01*
X019500Y018671D02*
X019200Y018671D01*
X018800Y018725D02*
X018500Y018725D01*
X018800Y018725D02*
X018800Y018275D01*
X018500Y018275D01*
X018500Y018725D01*
X018500Y018374D02*
X018800Y018374D01*
X018800Y018473D02*
X018500Y018473D01*
X018500Y018572D02*
X018800Y018572D01*
X018800Y018671D02*
X018500Y018671D01*
X017800Y019025D02*
X017500Y019025D01*
X017800Y019025D02*
X017800Y018575D01*
X017500Y018575D01*
X017500Y019025D01*
X017500Y018674D02*
X017800Y018674D01*
X017800Y018773D02*
X017500Y018773D01*
X017500Y018872D02*
X017800Y018872D01*
X017800Y018971D02*
X017500Y018971D01*
X017100Y019025D02*
X016800Y019025D01*
X017100Y019025D02*
X017100Y018575D01*
X016800Y018575D01*
X016800Y019025D01*
X016800Y018674D02*
X017100Y018674D01*
X017100Y018773D02*
X016800Y018773D01*
X016800Y018872D02*
X017100Y018872D01*
X017100Y018971D02*
X016800Y018971D01*
X008000Y019525D02*
X007700Y019525D01*
X008000Y019525D02*
X008000Y019075D01*
X007700Y019075D01*
X007700Y019525D01*
X007700Y019174D02*
X008000Y019174D01*
X008000Y019273D02*
X007700Y019273D01*
X007700Y019372D02*
X008000Y019372D01*
X008000Y019471D02*
X007700Y019471D01*
X007300Y019525D02*
X007000Y019525D01*
X007300Y019525D02*
X007300Y019075D01*
X007000Y019075D01*
X007000Y019525D01*
X007000Y019174D02*
X007300Y019174D01*
X007300Y019273D02*
X007000Y019273D01*
X007000Y019372D02*
X007300Y019372D01*
X007300Y019471D02*
X007000Y019471D01*
X003250Y017175D02*
X002950Y017175D01*
X003250Y017175D02*
X003250Y016725D01*
X002950Y016725D01*
X002950Y017175D01*
X002950Y016824D02*
X003250Y016824D01*
X003250Y016923D02*
X002950Y016923D01*
X002950Y017022D02*
X003250Y017022D01*
X003250Y017121D02*
X002950Y017121D01*
X002550Y017175D02*
X002250Y017175D01*
X002550Y017175D02*
X002550Y016725D01*
X002250Y016725D01*
X002250Y017175D01*
X002250Y016824D02*
X002550Y016824D01*
X002550Y016923D02*
X002250Y016923D01*
X002250Y017022D02*
X002550Y017022D01*
X002550Y017121D02*
X002250Y017121D01*
X002250Y016025D02*
X002550Y016025D01*
X002550Y015575D01*
X002250Y015575D01*
X002250Y016025D01*
X002250Y015674D02*
X002550Y015674D01*
X002550Y015773D02*
X002250Y015773D01*
X002250Y015872D02*
X002550Y015872D01*
X002550Y015971D02*
X002250Y015971D01*
X002950Y016025D02*
X003250Y016025D01*
X003250Y015575D01*
X002950Y015575D01*
X002950Y016025D01*
X002950Y015674D02*
X003250Y015674D01*
X003250Y015773D02*
X002950Y015773D01*
X002950Y015872D02*
X003250Y015872D01*
X003250Y015971D02*
X002950Y015971D01*
X002950Y014875D02*
X003250Y014875D01*
X003250Y014425D01*
X002950Y014425D01*
X002950Y014875D01*
X002950Y014524D02*
X003250Y014524D01*
X003250Y014623D02*
X002950Y014623D01*
X002950Y014722D02*
X003250Y014722D01*
X003250Y014821D02*
X002950Y014821D01*
X002550Y014875D02*
X002250Y014875D01*
X002550Y014875D02*
X002550Y014425D01*
X002250Y014425D01*
X002250Y014875D01*
X002250Y014524D02*
X002550Y014524D01*
X002550Y014623D02*
X002250Y014623D01*
X002250Y014722D02*
X002550Y014722D01*
X002550Y014821D02*
X002250Y014821D01*
X034400Y003575D02*
X034700Y003575D01*
X034400Y003575D02*
X034400Y004025D01*
X034700Y004025D01*
X034700Y003575D01*
X034700Y003674D02*
X034400Y003674D01*
X034400Y003773D02*
X034700Y003773D01*
X034700Y003872D02*
X034400Y003872D01*
X034400Y003971D02*
X034700Y003971D01*
X035100Y003575D02*
X035400Y003575D01*
X035100Y003575D02*
X035100Y004025D01*
X035400Y004025D01*
X035400Y003575D01*
X035400Y003674D02*
X035100Y003674D01*
X035100Y003773D02*
X035400Y003773D01*
X035400Y003872D02*
X035100Y003872D01*
X035100Y003971D02*
X035400Y003971D01*
D14*
X019475Y009275D03*
X018075Y009275D03*
X018075Y010575D03*
X019475Y010575D03*
D15*
X021000Y010633D03*
X021000Y008867D03*
D16*
X018952Y006350D03*
X018952Y005850D03*
X018952Y005350D03*
X018952Y004850D03*
X018952Y004350D03*
X018952Y003850D03*
X018952Y003350D03*
X016748Y003350D03*
X016748Y003850D03*
X016748Y004350D03*
X016748Y004850D03*
X016748Y005350D03*
X016748Y005850D03*
X016748Y006350D03*
D17*
X032530Y006100D03*
X032530Y006700D03*
X032530Y007300D03*
X034970Y007300D03*
X034970Y006700D03*
X034970Y006100D03*
X034970Y005500D03*
X032530Y005500D03*
D18*
X002960Y007030D03*
X002050Y007030D03*
X001140Y007030D03*
D19*
X002050Y009470D03*
D20*
X007417Y008650D03*
X009183Y008650D03*
X009183Y007050D03*
X007417Y007050D03*
X007417Y005450D03*
X009183Y005450D03*
X009183Y003850D03*
X007417Y003850D03*
X007417Y002250D03*
X009183Y002250D03*
X009083Y011850D03*
X007317Y011850D03*
X020917Y014650D03*
X022683Y014650D03*
X022683Y016150D03*
X020917Y016150D03*
X020917Y017850D03*
X022683Y017850D03*
D21*
X016230Y013360D03*
X016230Y012450D03*
X016230Y011540D03*
D22*
X018670Y012450D03*
D23*
X011350Y005883D03*
X010976Y005017D03*
X011724Y005017D03*
D24*
X011940Y006641D03*
X010760Y006641D03*
X002640Y008041D03*
X001460Y008041D03*
D25*
X002050Y008141D03*
X011350Y006741D03*
D26*
X011250Y008288D02*
X011450Y008288D01*
X011450Y007452D01*
X011250Y007452D01*
X011250Y008288D01*
X011250Y008051D02*
X011450Y008051D01*
X018938Y012350D02*
X018938Y012550D01*
X018938Y012350D02*
X018102Y012350D01*
X018102Y012550D01*
X018938Y012550D01*
X002150Y009688D02*
X001950Y009688D01*
X002150Y009688D02*
X002150Y008852D01*
X001950Y008852D01*
X001950Y009688D01*
X001950Y009451D02*
X002150Y009451D01*
X027838Y001950D02*
X027838Y001750D01*
X027002Y001750D01*
X027002Y001950D01*
X027838Y001950D01*
X032938Y002050D02*
X032938Y001850D01*
X032102Y001850D01*
X032102Y002050D01*
X032938Y002050D01*
D27*
X021668Y001659D03*
X021668Y002841D03*
D28*
X021589Y002250D03*
D29*
X020428Y002250D03*
D30*
X026191Y002440D03*
X026191Y001260D03*
X031291Y001360D03*
X031291Y002540D03*
X017291Y011860D03*
X017291Y013040D03*
D31*
X017391Y012450D03*
X031391Y001950D03*
X026291Y001850D03*
D32*
X016900Y017150D03*
X017700Y017500D03*
X016900Y017850D03*
D33*
X011650Y015624D03*
X011150Y015624D03*
X010650Y015624D03*
X010150Y015624D03*
X010150Y013576D03*
X010650Y013576D03*
X011150Y013576D03*
X011650Y013576D03*
D34*
X011800Y017290D03*
X011300Y017290D03*
X010800Y017290D03*
X010300Y017290D03*
X009800Y017290D03*
X009300Y017290D03*
X008800Y017290D03*
X012300Y017290D03*
X012300Y019710D03*
X011800Y019710D03*
X011300Y019710D03*
X010800Y019710D03*
X010300Y019710D03*
X009800Y019710D03*
X009300Y019710D03*
X008800Y019710D03*
D35*
X008091Y016182D03*
X006909Y016182D03*
D36*
X007500Y016261D03*
D37*
X007500Y017422D03*
M02*
