G75*
G70*
%OFA0B0*%
%FSLAX24Y24*%
%IPPOS*%
%LPD*%
%AMOC8*
5,1,8,0,0,1.08239X$1,22.5*
%
%ADD10C,0.0060*%
%ADD11C,0.0100*%
%ADD12C,0.0700*%
%ADD13OC8,0.0480*%
%ADD14C,0.0600*%
%ADD15C,0.0860*%
%ADD16C,0.0660*%
%ADD17R,0.0591X0.0512*%
%ADD18C,0.0560*%
%ADD19R,0.0480X0.0880*%
%ADD20R,0.1417X0.0866*%
%ADD21C,0.0520*%
%ADD22C,0.0096*%
%ADD23C,0.0356*%
%ADD24C,0.0240*%
%ADD25C,0.0320*%
%ADD26C,0.0317*%
%ADD27C,0.0160*%
%ADD28C,0.0500*%
%ADD29C,0.0400*%
%ADD30C,0.0280*%
%ADD31C,0.0560*%
%ADD32C,0.0440*%
%ADD33C,0.0200*%
%ADD34C,0.0760*%
D10*
X007694Y004417D02*
X007694Y004757D01*
X007864Y004757D01*
X007921Y004700D01*
X007921Y004587D01*
X007864Y004530D01*
X007694Y004530D01*
X007552Y004587D02*
X007552Y004700D01*
X007496Y004757D01*
X007382Y004757D01*
X007326Y004700D01*
X007326Y004587D01*
X007382Y004530D01*
X007496Y004530D01*
X007552Y004587D01*
X007193Y004530D02*
X007137Y004587D01*
X007137Y004814D01*
X007193Y004757D02*
X007080Y004757D01*
D11*
X000550Y003923D02*
X000550Y001034D01*
X002205Y001034D01*
X002205Y001069D01*
X002248Y001172D01*
X002326Y001250D01*
X002382Y001273D01*
X002405Y001329D01*
X002483Y001408D01*
X002586Y001450D01*
X002683Y001450D01*
X002720Y001486D01*
X002822Y001529D01*
X002933Y001529D01*
X003035Y001486D01*
X003072Y001450D01*
X003169Y001450D01*
X003236Y001422D01*
X003220Y001438D01*
X003207Y001469D01*
X003189Y001497D01*
X003183Y001529D01*
X003170Y001559D01*
X003170Y001593D01*
X003164Y001625D01*
X003170Y001658D01*
X003170Y003842D01*
X003161Y003823D01*
X003116Y003762D01*
X003063Y003709D01*
X003002Y003664D01*
X002934Y003630D01*
X002862Y003607D01*
X002798Y003597D01*
X002798Y004027D01*
X002702Y004027D01*
X002272Y004027D01*
X002282Y003963D01*
X002305Y003891D01*
X002339Y003823D01*
X002384Y003762D01*
X002437Y003709D01*
X002498Y003664D01*
X002566Y003630D01*
X002638Y003607D01*
X002702Y003597D01*
X002702Y004027D01*
X002702Y004123D01*
X002272Y004123D01*
X002282Y004187D01*
X002305Y004259D01*
X002339Y004327D01*
X002384Y004388D01*
X002437Y004441D01*
X002498Y004486D01*
X002566Y004520D01*
X002638Y004543D01*
X002702Y004553D01*
X002702Y004123D01*
X002798Y004123D01*
X002798Y004553D01*
X002862Y004543D01*
X002934Y004520D01*
X003002Y004486D01*
X003063Y004441D01*
X003116Y004388D01*
X003161Y004327D01*
X003170Y004308D01*
X003170Y004580D01*
X001190Y004580D01*
X001345Y004516D01*
X001491Y004370D01*
X001570Y004178D01*
X001570Y003972D01*
X001491Y003780D01*
X001345Y003634D01*
X001153Y003555D01*
X000947Y003555D01*
X000755Y003634D01*
X000609Y003780D01*
X000550Y003923D01*
X000550Y003889D02*
X000564Y003889D01*
X000550Y003790D02*
X000605Y003790D01*
X000550Y003692D02*
X000698Y003692D01*
X000550Y003593D02*
X000855Y003593D01*
X000550Y003495D02*
X003170Y003495D01*
X003170Y003593D02*
X001245Y003593D01*
X001402Y003692D02*
X002461Y003692D01*
X002364Y003790D02*
X001495Y003790D01*
X001536Y003889D02*
X002306Y003889D01*
X002278Y003987D02*
X001570Y003987D01*
X001570Y004086D02*
X002702Y004086D01*
X002702Y004184D02*
X002798Y004184D01*
X002798Y004283D02*
X002702Y004283D01*
X002702Y004381D02*
X002798Y004381D01*
X002798Y004480D02*
X002702Y004480D01*
X002490Y004480D02*
X001381Y004480D01*
X001479Y004381D02*
X002379Y004381D01*
X002317Y004283D02*
X001527Y004283D01*
X001568Y004184D02*
X002281Y004184D01*
X002702Y003987D02*
X002798Y003987D01*
X002798Y003889D02*
X002702Y003889D01*
X002702Y003790D02*
X002798Y003790D01*
X002798Y003692D02*
X002702Y003692D01*
X003039Y003692D02*
X003170Y003692D01*
X003170Y003790D02*
X003136Y003790D01*
X003170Y003396D02*
X000550Y003396D01*
X000550Y003298D02*
X001126Y003298D01*
X001204Y003330D02*
X001046Y003265D01*
X000925Y003144D01*
X000860Y002986D01*
X000860Y002814D01*
X000925Y002656D01*
X001000Y002582D01*
X001000Y002218D01*
X000925Y002144D01*
X000860Y001986D01*
X000860Y001814D01*
X000925Y001656D01*
X001046Y001535D01*
X001204Y001470D01*
X001896Y001470D01*
X002054Y001535D01*
X002175Y001656D01*
X002240Y001814D01*
X002240Y001986D01*
X002175Y002144D01*
X002054Y002265D01*
X002050Y002266D01*
X002050Y002534D01*
X002054Y002535D01*
X002175Y002656D01*
X002240Y002814D01*
X002240Y002986D01*
X002175Y003144D01*
X002054Y003265D01*
X001896Y003330D01*
X001204Y003330D01*
X000981Y003199D02*
X000550Y003199D01*
X000550Y003101D02*
X000908Y003101D01*
X000867Y003002D02*
X000550Y003002D01*
X000550Y002904D02*
X000860Y002904D01*
X000864Y002805D02*
X000550Y002805D01*
X000550Y002707D02*
X000905Y002707D01*
X000974Y002608D02*
X000550Y002608D01*
X000550Y002510D02*
X001000Y002510D01*
X001000Y002411D02*
X000550Y002411D01*
X000550Y002313D02*
X001000Y002313D01*
X000996Y002214D02*
X000550Y002214D01*
X000550Y002116D02*
X000914Y002116D01*
X000873Y002017D02*
X000550Y002017D01*
X000550Y001919D02*
X000860Y001919D01*
X000860Y001820D02*
X000550Y001820D01*
X000550Y001722D02*
X000899Y001722D01*
X000959Y001623D02*
X000550Y001623D01*
X000550Y001525D02*
X001073Y001525D01*
X000550Y001426D02*
X002528Y001426D01*
X002404Y001328D02*
X000550Y001328D01*
X000550Y001229D02*
X002305Y001229D01*
X002231Y001131D02*
X000550Y001131D01*
X001550Y001750D02*
X001550Y002400D01*
X001550Y002900D01*
X002119Y003199D02*
X003170Y003199D01*
X003170Y003101D02*
X002192Y003101D01*
X002233Y003002D02*
X003170Y003002D01*
X003170Y002904D02*
X002240Y002904D01*
X002236Y002805D02*
X003170Y002805D01*
X003170Y002707D02*
X002195Y002707D01*
X002126Y002608D02*
X003170Y002608D01*
X003170Y002510D02*
X002050Y002510D01*
X002050Y002411D02*
X003170Y002411D01*
X003170Y002313D02*
X002050Y002313D01*
X002104Y002214D02*
X003170Y002214D01*
X003170Y002116D02*
X002186Y002116D01*
X002227Y002017D02*
X003170Y002017D01*
X003170Y001919D02*
X002240Y001919D01*
X002240Y001820D02*
X003170Y001820D01*
X003170Y001722D02*
X002201Y001722D01*
X002141Y001623D02*
X003164Y001623D01*
X003183Y001525D02*
X002943Y001525D01*
X002812Y001525D02*
X002027Y001525D01*
X003227Y001426D02*
X003232Y001426D01*
X004200Y001839D02*
X004369Y001630D01*
X004486Y001630D01*
X004354Y001762D01*
X004263Y001983D01*
X004263Y002221D01*
X004354Y002442D01*
X004523Y002611D01*
X004744Y002702D01*
X005842Y002702D01*
X006063Y002611D01*
X006232Y002442D01*
X006236Y002430D01*
X006788Y002430D01*
X008791Y003211D01*
X008923Y003209D01*
X008965Y003190D01*
X013220Y003190D01*
X013160Y003234D01*
X013097Y003296D01*
X013045Y003368D01*
X013005Y003446D01*
X012978Y003530D01*
X012965Y003611D01*
X013904Y003611D01*
X013904Y003711D01*
X012965Y003711D01*
X012978Y003792D01*
X013005Y003876D01*
X013045Y003955D01*
X013097Y004026D01*
X013160Y004088D01*
X013224Y004135D01*
X010330Y004135D01*
X006890Y003346D01*
X006855Y003331D01*
X006826Y003331D01*
X006799Y003325D01*
X006761Y003331D01*
X006236Y003331D01*
X006232Y003321D01*
X006063Y003152D01*
X005842Y003061D01*
X004744Y003061D01*
X004523Y003152D01*
X004354Y003321D01*
X004263Y003542D01*
X004263Y003780D01*
X004354Y004001D01*
X004523Y004170D01*
X004744Y004261D01*
X005842Y004261D01*
X006063Y004170D01*
X006232Y004001D01*
X006236Y003991D01*
X006752Y003991D01*
X007734Y004217D01*
X007611Y004217D01*
X007498Y004330D01*
X007299Y004330D01*
X007288Y004342D01*
X007276Y004330D01*
X007111Y004330D01*
X006937Y004504D01*
X006937Y004617D01*
X006880Y004674D01*
X006880Y004840D01*
X006935Y004895D01*
X006238Y004895D01*
X006232Y004880D01*
X006063Y004711D01*
X005842Y004620D01*
X004744Y004620D01*
X004523Y004711D01*
X004354Y004880D01*
X004263Y005101D01*
X004263Y005339D01*
X004354Y005560D01*
X004523Y005729D01*
X004744Y005820D01*
X005842Y005820D01*
X006063Y005729D01*
X006232Y005560D01*
X006234Y005555D01*
X012046Y005555D01*
X012484Y006230D01*
X012592Y006304D01*
X012721Y006331D01*
X012850Y006308D01*
X012854Y006305D01*
X013150Y006305D01*
X013016Y006439D01*
X012995Y006489D01*
X010875Y006489D01*
X010872Y006488D01*
X010817Y006489D01*
X010763Y006489D01*
X010760Y006490D01*
X010756Y006491D01*
X010707Y006513D01*
X010657Y006533D01*
X010654Y006536D01*
X010651Y006537D01*
X010613Y006576D01*
X010575Y006615D01*
X010574Y006618D01*
X010571Y006621D01*
X010552Y006671D01*
X010531Y006721D01*
X010531Y006725D01*
X010309Y007299D01*
X010311Y007414D01*
X010358Y007520D01*
X010400Y007560D01*
X009120Y007560D01*
X007023Y006488D01*
X007014Y006479D01*
X006972Y006462D01*
X006931Y006441D01*
X006919Y006440D01*
X006908Y006435D01*
X006862Y006435D01*
X006816Y006431D01*
X006804Y006435D01*
X006227Y006435D01*
X006063Y006270D01*
X005842Y006179D01*
X004744Y006179D01*
X004523Y006270D01*
X004354Y006439D01*
X004263Y006660D01*
X004263Y006898D01*
X004354Y007119D01*
X004523Y007288D01*
X004744Y007379D01*
X005842Y007379D01*
X006063Y007288D01*
X006232Y007119D01*
X006275Y007015D01*
X006780Y007015D01*
X008801Y008048D01*
X006252Y008048D01*
X006232Y007998D01*
X006063Y007830D01*
X005842Y007738D01*
X004744Y007738D01*
X004523Y007830D01*
X004354Y007998D01*
X004263Y008219D01*
X004263Y008458D01*
X004354Y008678D01*
X004523Y008847D01*
X004744Y008938D01*
X005842Y008938D01*
X006063Y008847D01*
X006232Y008678D01*
X006252Y008628D01*
X010062Y008628D01*
X010004Y008686D01*
X009960Y008792D01*
X009960Y008908D01*
X010004Y009014D01*
X010086Y009096D01*
X010192Y009140D01*
X011206Y009140D01*
X012213Y010468D01*
X012443Y010816D01*
X012454Y010844D01*
X012474Y010864D01*
X012489Y010888D01*
X012514Y010905D01*
X012536Y010926D01*
X012562Y010937D01*
X012585Y010952D01*
X012614Y010958D01*
X012642Y010970D01*
X012670Y010970D01*
X012698Y010976D01*
X012728Y010970D01*
X013245Y010970D01*
X013231Y010977D01*
X013160Y011029D01*
X013097Y011091D01*
X013045Y011163D01*
X013005Y011241D01*
X012978Y011325D01*
X012965Y011406D01*
X013904Y011406D01*
X013904Y011506D01*
X012965Y011506D01*
X012978Y011587D01*
X013005Y011671D01*
X013045Y011750D01*
X013097Y011821D01*
X013160Y011883D01*
X013224Y011930D01*
X013034Y011930D01*
X013019Y011917D01*
X012675Y011793D01*
X012675Y011385D01*
X012606Y011220D01*
X012480Y011094D01*
X012315Y011025D01*
X012135Y011025D01*
X011970Y011094D01*
X011844Y011220D01*
X011820Y011277D01*
X011820Y011276D01*
X011820Y011276D01*
X011795Y011217D01*
X011774Y011157D01*
X011767Y011150D01*
X011764Y011140D01*
X011718Y011095D01*
X011676Y011048D01*
X011667Y011043D01*
X011660Y011036D01*
X011600Y011012D01*
X010863Y010661D01*
X010964Y010560D01*
X011020Y010424D01*
X011020Y010276D01*
X010964Y010140D01*
X010860Y010036D01*
X010724Y009980D01*
X009494Y009980D01*
X009070Y009592D01*
X009023Y009546D01*
X009016Y009543D01*
X009009Y009537D01*
X008948Y009515D01*
X008887Y009489D01*
X008879Y009489D01*
X008871Y009487D01*
X008806Y009489D01*
X006164Y009489D01*
X006063Y009389D01*
X005842Y009297D01*
X004744Y009297D01*
X004523Y009389D01*
X004354Y009557D01*
X004263Y009778D01*
X004263Y010017D01*
X004354Y010237D01*
X004523Y010406D01*
X004744Y010497D01*
X005842Y010497D01*
X006063Y010406D01*
X006232Y010237D01*
X006235Y010229D01*
X008670Y010229D01*
X009087Y010611D01*
X009124Y010652D01*
X009133Y010657D01*
X009140Y010664D01*
X009148Y010667D01*
X009155Y010673D01*
X009207Y010692D01*
X011080Y011584D01*
X011080Y012642D01*
X011077Y012707D01*
X011080Y012715D01*
X011080Y012724D01*
X011105Y012784D01*
X011127Y012845D01*
X011133Y012851D01*
X011136Y012860D01*
X011182Y012906D01*
X012173Y013991D01*
X012176Y014000D01*
X012222Y014046D01*
X012266Y014094D01*
X012274Y014097D01*
X012280Y014104D01*
X012341Y014129D01*
X012400Y014156D01*
X012408Y014157D01*
X012416Y014160D01*
X012482Y014160D01*
X012547Y014163D01*
X012555Y014160D01*
X012849Y014160D01*
X012985Y014104D01*
X012988Y014100D01*
X013150Y014100D01*
X013016Y014235D01*
X012924Y014455D01*
X012924Y014694D01*
X013016Y014914D01*
X013141Y015040D01*
X012860Y015040D01*
X011392Y013514D01*
X011272Y013461D01*
X011141Y013459D01*
X011087Y013480D01*
X006107Y013480D01*
X006232Y013355D01*
X006323Y013135D01*
X006323Y012896D01*
X006232Y012675D01*
X006063Y012507D01*
X005842Y012415D01*
X004832Y012415D01*
X004280Y011863D01*
X004280Y011617D01*
X004354Y011796D01*
X004523Y011965D01*
X004744Y012056D01*
X005842Y012056D01*
X006063Y011965D01*
X006232Y011796D01*
X006323Y011576D01*
X006323Y011337D01*
X006232Y011116D01*
X006063Y010948D01*
X005842Y010856D01*
X004744Y010856D01*
X004523Y010948D01*
X004354Y011116D01*
X004280Y011296D01*
X004280Y010534D01*
X004230Y010413D01*
X003580Y009763D01*
X003580Y009384D01*
X003530Y009263D01*
X003387Y009120D01*
X003266Y009070D01*
X003134Y009070D01*
X003013Y009120D01*
X002920Y009213D01*
X002870Y009334D01*
X002870Y009466D01*
X002920Y009586D01*
X002920Y009966D01*
X002970Y010087D01*
X003620Y010737D01*
X003620Y012066D01*
X003670Y012187D01*
X003763Y012280D01*
X004297Y012814D01*
X004263Y012896D01*
X004263Y013135D01*
X004354Y013355D01*
X004479Y013480D01*
X004264Y013480D01*
X004216Y013460D01*
X003850Y013460D01*
X003850Y013216D01*
X003854Y013215D01*
X003975Y013094D01*
X004040Y012936D01*
X004040Y012764D01*
X003975Y012606D01*
X003854Y012485D01*
X003696Y012420D01*
X003211Y012420D01*
X003270Y012278D01*
X003270Y012072D01*
X003191Y011880D01*
X003080Y011770D01*
X003080Y011480D01*
X003191Y011370D01*
X003270Y011178D01*
X003270Y010972D01*
X003191Y010780D01*
X003045Y010634D01*
X002853Y010555D01*
X002647Y010555D01*
X002455Y010634D01*
X002309Y010780D01*
X002270Y010875D01*
X002270Y008376D01*
X002214Y008240D01*
X001320Y007347D01*
X001320Y006027D01*
X001387Y006094D01*
X001493Y006138D01*
X001607Y006138D01*
X001699Y006100D01*
X003700Y006100D01*
X003792Y006062D01*
X004092Y005762D01*
X004162Y005692D01*
X004200Y005600D01*
X004200Y001839D01*
X004215Y001820D02*
X004330Y001820D01*
X004295Y001722D02*
X004395Y001722D01*
X004289Y001919D02*
X004200Y001919D01*
X004200Y002017D02*
X004263Y002017D01*
X004263Y002116D02*
X004200Y002116D01*
X004200Y002214D02*
X004263Y002214D01*
X004301Y002313D02*
X004200Y002313D01*
X004200Y002411D02*
X004341Y002411D01*
X004422Y002510D02*
X004200Y002510D01*
X004200Y002608D02*
X004520Y002608D01*
X004200Y002707D02*
X007497Y002707D01*
X007749Y002805D02*
X004200Y002805D01*
X004200Y002904D02*
X008002Y002904D01*
X008255Y003002D02*
X004200Y003002D01*
X004200Y003101D02*
X004648Y003101D01*
X004476Y003199D02*
X004200Y003199D01*
X004200Y003298D02*
X004378Y003298D01*
X004323Y003396D02*
X004200Y003396D01*
X004200Y003495D02*
X004282Y003495D01*
X004263Y003593D02*
X004200Y003593D01*
X004200Y003692D02*
X004263Y003692D01*
X004267Y003790D02*
X004200Y003790D01*
X004200Y003889D02*
X004308Y003889D01*
X004349Y003987D02*
X004200Y003987D01*
X004200Y004086D02*
X004439Y004086D01*
X004558Y004184D02*
X004200Y004184D01*
X004200Y004283D02*
X007545Y004283D01*
X007593Y004184D02*
X006028Y004184D01*
X006147Y004086D02*
X007163Y004086D01*
X007060Y004381D02*
X004200Y004381D01*
X004200Y004480D02*
X006961Y004480D01*
X006937Y004578D02*
X004200Y004578D01*
X004200Y004677D02*
X004607Y004677D01*
X004459Y004775D02*
X004200Y004775D01*
X004200Y004874D02*
X004361Y004874D01*
X004316Y004972D02*
X004200Y004972D01*
X004200Y005071D02*
X004275Y005071D01*
X004263Y005169D02*
X004200Y005169D01*
X004200Y005268D02*
X004263Y005268D01*
X004274Y005366D02*
X004200Y005366D01*
X004200Y005465D02*
X004315Y005465D01*
X004357Y005563D02*
X004200Y005563D01*
X004174Y005662D02*
X004456Y005662D01*
X004599Y005760D02*
X004094Y005760D01*
X003995Y005859D02*
X012243Y005859D01*
X012307Y005957D02*
X003897Y005957D01*
X003798Y006056D02*
X012371Y006056D01*
X012435Y006154D02*
X001320Y006154D01*
X001320Y006056D02*
X001348Y006056D01*
X001320Y006253D02*
X004566Y006253D01*
X004443Y006351D02*
X001320Y006351D01*
X001320Y006450D02*
X004350Y006450D01*
X004309Y006548D02*
X001320Y006548D01*
X001320Y006647D02*
X004268Y006647D01*
X004263Y006745D02*
X001320Y006745D01*
X001320Y006844D02*
X004263Y006844D01*
X004281Y006942D02*
X001320Y006942D01*
X001320Y007041D02*
X004322Y007041D01*
X004374Y007139D02*
X001320Y007139D01*
X001320Y007238D02*
X004473Y007238D01*
X004639Y007336D02*
X001320Y007336D01*
X001408Y007435D02*
X007601Y007435D01*
X007793Y007533D02*
X001506Y007533D01*
X001605Y007632D02*
X007986Y007632D01*
X008178Y007730D02*
X001703Y007730D01*
X001802Y007829D02*
X004525Y007829D01*
X004426Y007927D02*
X001900Y007927D01*
X001999Y008026D02*
X004343Y008026D01*
X004302Y008124D02*
X002097Y008124D01*
X002196Y008223D02*
X004263Y008223D01*
X004263Y008321D02*
X002247Y008321D01*
X002270Y008420D02*
X004263Y008420D01*
X004288Y008518D02*
X002270Y008518D01*
X002270Y008617D02*
X004329Y008617D01*
X004391Y008715D02*
X002270Y008715D01*
X002270Y008814D02*
X004490Y008814D01*
X004680Y008912D02*
X002270Y008912D01*
X002270Y009011D02*
X010003Y009011D01*
X009962Y008912D02*
X005905Y008912D01*
X006096Y008814D02*
X009960Y008814D01*
X009992Y008715D02*
X006195Y008715D01*
X005863Y009306D02*
X011332Y009306D01*
X011407Y009405D02*
X006079Y009405D01*
X006178Y010291D02*
X008737Y010291D01*
X008845Y010390D02*
X006079Y010390D01*
X005865Y010488D02*
X008953Y010488D01*
X009060Y010587D02*
X004280Y010587D01*
X004280Y010685D02*
X009189Y010685D01*
X009400Y010784D02*
X004280Y010784D01*
X004280Y010882D02*
X004681Y010882D01*
X004490Y010981D02*
X004280Y010981D01*
X004280Y011079D02*
X004392Y011079D01*
X004329Y011178D02*
X004280Y011178D01*
X004280Y011276D02*
X004288Y011276D01*
X004280Y011670D02*
X004302Y011670D01*
X004280Y011769D02*
X004343Y011769D01*
X004284Y011867D02*
X004425Y011867D01*
X004382Y011966D02*
X004524Y011966D01*
X004481Y012064D02*
X011080Y012064D01*
X011080Y011966D02*
X006061Y011966D01*
X006161Y011867D02*
X011080Y011867D01*
X011080Y011769D02*
X006243Y011769D01*
X006284Y011670D02*
X011080Y011670D01*
X011055Y011572D02*
X006323Y011572D01*
X006323Y011473D02*
X010848Y011473D01*
X010641Y011375D02*
X006323Y011375D01*
X006298Y011276D02*
X010434Y011276D01*
X010227Y011178D02*
X006257Y011178D01*
X006194Y011079D02*
X010020Y011079D01*
X009814Y010981D02*
X006096Y010981D01*
X005904Y010882D02*
X009607Y010882D01*
X010914Y010685D02*
X012356Y010685D01*
X012291Y010587D02*
X010937Y010587D01*
X010993Y010488D02*
X012227Y010488D01*
X012154Y010390D02*
X011020Y010390D01*
X011020Y010291D02*
X012079Y010291D01*
X012004Y010193D02*
X010985Y010193D01*
X010917Y010094D02*
X011930Y010094D01*
X011855Y009996D02*
X010761Y009996D01*
X011481Y009503D02*
X008920Y009503D01*
X009080Y009602D02*
X011556Y009602D01*
X011631Y009700D02*
X009188Y009700D01*
X009295Y009799D02*
X011706Y009799D01*
X011780Y009897D02*
X009403Y009897D01*
X010118Y009109D02*
X003360Y009109D01*
X003474Y009208D02*
X011257Y009208D01*
X010372Y007533D02*
X009067Y007533D01*
X008874Y007435D02*
X010320Y007435D01*
X010310Y007336D02*
X008682Y007336D01*
X008489Y007238D02*
X010333Y007238D01*
X010371Y007139D02*
X008297Y007139D01*
X008104Y007041D02*
X010409Y007041D01*
X010447Y006942D02*
X007911Y006942D01*
X007719Y006844D02*
X010485Y006844D01*
X010523Y006745D02*
X007526Y006745D01*
X007333Y006647D02*
X010561Y006647D01*
X010641Y006548D02*
X007141Y006548D01*
X006948Y006450D02*
X013011Y006450D01*
X013104Y006351D02*
X006143Y006351D01*
X006019Y006253D02*
X012517Y006253D01*
X012179Y005760D02*
X005987Y005760D01*
X006130Y005662D02*
X012115Y005662D01*
X012051Y005563D02*
X006229Y005563D01*
X006225Y004874D02*
X006914Y004874D01*
X006880Y004775D02*
X006126Y004775D01*
X005979Y004677D02*
X006880Y004677D01*
X008397Y003692D02*
X013904Y003692D01*
X014004Y003692D02*
X019910Y003692D01*
X019910Y003790D02*
X014931Y003790D01*
X014931Y003792D02*
X014903Y003876D01*
X014863Y003955D01*
X014811Y004026D01*
X014749Y004088D01*
X014685Y004135D01*
X015142Y004135D01*
X015256Y004182D01*
X015343Y004269D01*
X015353Y004295D01*
X018330Y006760D01*
X020956Y006760D01*
X021331Y006265D01*
X021338Y006248D01*
X021361Y006225D01*
X021381Y006199D01*
X021396Y006191D01*
X021408Y006178D01*
X021438Y006166D01*
X021467Y006149D01*
X021484Y006147D01*
X021500Y006140D01*
X021533Y006140D01*
X021565Y006136D01*
X021582Y006140D01*
X021856Y006140D01*
X021740Y006024D01*
X021740Y005684D01*
X021860Y005564D01*
X021860Y004766D01*
X021740Y004646D01*
X021740Y004306D01*
X021866Y004180D01*
X021704Y004180D01*
X021642Y004182D01*
X021639Y004180D01*
X021634Y004180D01*
X021577Y004156D01*
X021520Y004134D01*
X021517Y004131D01*
X021513Y004130D01*
X021470Y004086D01*
X020518Y003180D01*
X020008Y003180D01*
X019423Y003207D01*
X019416Y003210D01*
X019358Y003210D01*
X019300Y003213D01*
X019292Y003210D01*
X014834Y003210D01*
X014786Y003190D01*
X014689Y003190D01*
X014749Y003234D01*
X014811Y003296D01*
X014863Y003368D01*
X014903Y003446D01*
X014931Y003530D01*
X014943Y003611D01*
X014004Y003611D01*
X014004Y003711D01*
X014943Y003711D01*
X014931Y003792D01*
X014897Y003889D02*
X019910Y003889D01*
X019910Y003987D02*
X014840Y003987D01*
X014752Y004086D02*
X019910Y004086D01*
X019910Y004184D02*
X015257Y004184D01*
X015348Y004283D02*
X019910Y004283D01*
X019910Y004381D02*
X015457Y004381D01*
X015576Y004480D02*
X019910Y004480D01*
X019910Y004578D02*
X015695Y004578D01*
X015814Y004677D02*
X019910Y004677D01*
X019910Y004775D02*
X015933Y004775D01*
X016052Y004874D02*
X019910Y004874D01*
X019910Y004972D02*
X016171Y004972D01*
X016290Y005071D02*
X019910Y005071D01*
X019910Y005169D02*
X016409Y005169D01*
X016528Y005268D02*
X019910Y005268D01*
X019910Y005366D02*
X016647Y005366D01*
X016765Y005465D02*
X019910Y005465D01*
X019910Y005563D02*
X016884Y005563D01*
X017003Y005662D02*
X019910Y005662D01*
X019910Y005760D02*
X017122Y005760D01*
X017241Y005859D02*
X019910Y005859D01*
X019910Y005858D02*
X019924Y005892D01*
X019933Y005928D01*
X019946Y005945D01*
X019954Y005964D01*
X019980Y005990D01*
X020101Y006151D01*
X020106Y006163D01*
X020122Y006180D01*
X020153Y006220D01*
X020177Y006235D01*
X020187Y006244D01*
X020208Y006253D01*
X020252Y006279D01*
X020280Y006283D01*
X020293Y006288D01*
X020316Y006288D01*
X020366Y006295D01*
X020394Y006288D01*
X020407Y006288D01*
X020429Y006279D01*
X020478Y006267D01*
X020501Y006249D01*
X020513Y006244D01*
X020530Y006228D01*
X020570Y006197D01*
X020585Y006173D01*
X020594Y006163D01*
X020603Y006142D01*
X020629Y006098D01*
X020633Y006070D01*
X020638Y006057D01*
X020638Y006034D01*
X020645Y005984D01*
X020638Y005956D01*
X020638Y005943D01*
X020629Y005921D01*
X020617Y005872D01*
X020599Y005849D01*
X020594Y005837D01*
X020578Y005820D01*
X020490Y005703D01*
X020490Y003542D01*
X020446Y003436D01*
X020364Y003354D01*
X020258Y003310D01*
X020142Y003310D01*
X020036Y003354D01*
X019954Y003436D01*
X019910Y003542D01*
X019910Y005779D01*
X019905Y005816D01*
X019910Y005837D01*
X019910Y005858D01*
X019951Y005957D02*
X017360Y005957D01*
X017479Y006056D02*
X020029Y006056D01*
X020102Y006154D02*
X017598Y006154D01*
X017717Y006253D02*
X020207Y006253D01*
X020497Y006253D02*
X021336Y006253D01*
X021266Y006351D02*
X017836Y006351D01*
X017955Y006450D02*
X021191Y006450D01*
X021117Y006548D02*
X018074Y006548D01*
X018192Y006647D02*
X021042Y006647D01*
X020967Y006745D02*
X018311Y006745D01*
X020490Y005662D02*
X021763Y005662D01*
X021740Y005760D02*
X020533Y005760D01*
X020606Y005859D02*
X021740Y005859D01*
X021740Y005957D02*
X020638Y005957D01*
X020638Y006056D02*
X021772Y006056D01*
X021458Y006154D02*
X020598Y006154D01*
X020490Y005563D02*
X021860Y005563D01*
X021860Y005465D02*
X020490Y005465D01*
X020490Y005366D02*
X021860Y005366D01*
X021860Y005268D02*
X020490Y005268D01*
X020490Y005169D02*
X021860Y005169D01*
X021860Y005071D02*
X020490Y005071D01*
X020490Y004972D02*
X021860Y004972D01*
X021860Y004874D02*
X020490Y004874D01*
X020490Y004775D02*
X021860Y004775D01*
X021771Y004677D02*
X020490Y004677D01*
X020490Y004578D02*
X021740Y004578D01*
X021740Y004480D02*
X020490Y004480D01*
X020490Y004381D02*
X021740Y004381D01*
X021764Y004283D02*
X020490Y004283D01*
X020490Y004184D02*
X021862Y004184D01*
X021469Y004086D02*
X020490Y004086D01*
X020490Y003987D02*
X021365Y003987D01*
X021262Y003889D02*
X020490Y003889D01*
X020490Y003790D02*
X021159Y003790D01*
X021055Y003692D02*
X020490Y003692D01*
X020490Y003593D02*
X020952Y003593D01*
X020848Y003495D02*
X020470Y003495D01*
X020406Y003396D02*
X020745Y003396D01*
X020641Y003298D02*
X014812Y003298D01*
X014808Y003199D02*
X014701Y003199D01*
X014878Y003396D02*
X019994Y003396D01*
X019930Y003495D02*
X014919Y003495D01*
X014941Y003593D02*
X019910Y003593D01*
X019596Y003199D02*
X020538Y003199D01*
X021081Y002805D02*
X022930Y002805D01*
X022930Y002780D02*
X022930Y002903D01*
X023147Y003120D01*
X023270Y003120D01*
X023270Y002780D01*
X023330Y002780D01*
X023330Y003120D01*
X023453Y003120D01*
X023670Y002903D01*
X023670Y002780D01*
X023330Y002780D01*
X023330Y002720D01*
X023670Y002720D01*
X023670Y002597D01*
X023513Y002440D01*
X023625Y002440D01*
X023966Y002803D01*
X023937Y002832D01*
X023865Y003005D01*
X023865Y003192D01*
X023937Y003364D01*
X024069Y003496D01*
X024242Y003568D01*
X025029Y003568D01*
X025097Y003540D01*
X026930Y003540D01*
X027699Y004309D01*
X027571Y004467D01*
X027571Y004382D01*
X027499Y004210D01*
X027367Y004078D01*
X027194Y004006D01*
X026407Y004006D01*
X026235Y004078D01*
X026166Y004146D01*
X023400Y004146D01*
X023356Y004102D01*
X023230Y003787D01*
X023230Y003784D01*
X023206Y003726D01*
X023182Y003667D01*
X023181Y003665D01*
X023180Y003663D01*
X023135Y003618D01*
X023090Y003573D01*
X023088Y003572D01*
X023087Y003570D01*
X023028Y003546D01*
X022970Y003521D01*
X022968Y003521D01*
X022966Y003520D01*
X022902Y003520D01*
X022860Y003519D01*
X022960Y003420D01*
X022960Y003080D01*
X022720Y002840D01*
X022380Y002840D01*
X022140Y003080D01*
X022140Y003420D01*
X022240Y003520D01*
X021832Y003520D01*
X020971Y002700D01*
X021047Y002700D01*
X021094Y002701D01*
X021097Y002700D01*
X021100Y002700D01*
X021143Y002682D01*
X021187Y002665D01*
X021189Y002663D01*
X021192Y002662D01*
X021225Y002629D01*
X021850Y002030D01*
X022190Y002030D01*
X022140Y002080D01*
X022140Y002420D01*
X022380Y002660D01*
X022720Y002660D01*
X022940Y002440D01*
X023087Y002440D01*
X022930Y002597D01*
X022930Y002720D01*
X023270Y002720D01*
X023270Y002780D01*
X022930Y002780D01*
X022930Y002707D02*
X020978Y002707D01*
X021185Y002904D02*
X022317Y002904D01*
X022218Y003002D02*
X021288Y003002D01*
X021392Y003101D02*
X022140Y003101D01*
X022140Y003199D02*
X021495Y003199D01*
X021598Y003298D02*
X022140Y003298D01*
X022140Y003396D02*
X021702Y003396D01*
X021805Y003495D02*
X022215Y003495D01*
X022885Y003495D02*
X024067Y003495D01*
X023969Y003396D02*
X022960Y003396D01*
X022960Y003298D02*
X023909Y003298D01*
X023869Y003199D02*
X022960Y003199D01*
X022960Y003101D02*
X023127Y003101D01*
X023029Y003002D02*
X022882Y003002D01*
X022930Y002904D02*
X022783Y002904D01*
X022772Y002608D02*
X022930Y002608D01*
X022870Y002510D02*
X023017Y002510D01*
X023270Y002805D02*
X023330Y002805D01*
X023330Y002904D02*
X023270Y002904D01*
X023270Y003002D02*
X023330Y003002D01*
X023330Y003101D02*
X023270Y003101D01*
X023473Y003101D02*
X023865Y003101D01*
X023866Y003002D02*
X023571Y003002D01*
X023670Y002904D02*
X023907Y002904D01*
X023964Y002805D02*
X023670Y002805D01*
X023670Y002707D02*
X023876Y002707D01*
X023783Y002608D02*
X023670Y002608D01*
X023690Y002510D02*
X023583Y002510D01*
X022328Y002608D02*
X021246Y002608D01*
X021349Y002510D02*
X022230Y002510D01*
X022140Y002411D02*
X021452Y002411D01*
X021555Y002313D02*
X022140Y002313D01*
X022140Y002214D02*
X021658Y002214D01*
X021761Y002116D02*
X022140Y002116D01*
X023553Y001205D02*
X024045Y001205D01*
X024074Y001173D01*
X024206Y001110D01*
X024353Y001102D01*
X024492Y001150D01*
X025167Y001755D01*
X027215Y001755D01*
X027242Y001748D01*
X027288Y001755D01*
X027334Y001755D01*
X027360Y001766D01*
X027387Y001770D01*
X027427Y001794D01*
X027470Y001811D01*
X027490Y001831D01*
X028379Y002363D01*
X028379Y001600D01*
X026629Y001600D01*
X026600Y001571D01*
X026600Y001034D01*
X023629Y001034D01*
X023629Y001069D01*
X023586Y001172D01*
X023553Y001205D01*
X023603Y001131D02*
X024163Y001131D01*
X024436Y001131D02*
X026600Y001131D01*
X026600Y001229D02*
X024580Y001229D01*
X024690Y001328D02*
X026600Y001328D01*
X026600Y001426D02*
X024800Y001426D01*
X024909Y001525D02*
X026600Y001525D01*
X026975Y001292D02*
X027042Y001292D01*
X027108Y001225D01*
X027175Y001292D01*
X027242Y001225D01*
X027242Y001025D01*
X027108Y001025D02*
X027108Y001225D01*
X026975Y001292D02*
X026975Y001025D01*
X027435Y001092D02*
X027502Y001158D01*
X027702Y001158D01*
X027702Y001225D02*
X027702Y001025D01*
X027502Y001025D01*
X027435Y001092D01*
X027502Y001292D02*
X027636Y001292D01*
X027702Y001225D01*
X027896Y001158D02*
X028029Y001292D01*
X028096Y001292D01*
X028279Y001292D02*
X028279Y001092D01*
X028346Y001025D01*
X028546Y001025D01*
X028546Y001292D01*
X028740Y001225D02*
X029007Y001225D01*
X029200Y001025D02*
X029334Y001025D01*
X029267Y001025D02*
X029267Y001425D01*
X029200Y001425D01*
X029574Y001292D02*
X029707Y001292D01*
X029774Y001225D01*
X029774Y001025D01*
X029574Y001025D01*
X029507Y001092D01*
X029574Y001158D01*
X029774Y001158D01*
X029968Y001025D02*
X030168Y001025D01*
X030234Y001092D01*
X030234Y001225D01*
X030168Y001292D01*
X029968Y001292D01*
X029968Y001425D02*
X029968Y001025D01*
X030428Y001025D02*
X030628Y001025D01*
X030695Y001092D01*
X030628Y001158D01*
X030495Y001158D01*
X030428Y001225D01*
X030495Y001292D01*
X030695Y001292D01*
X030888Y001092D02*
X030955Y001092D01*
X030955Y001025D01*
X030888Y001025D01*
X030888Y001092D01*
X031119Y001092D02*
X031185Y001025D01*
X031385Y001025D01*
X031579Y001092D02*
X031646Y001025D01*
X031779Y001025D01*
X031846Y001092D01*
X031846Y001225D01*
X031779Y001292D01*
X031646Y001292D01*
X031579Y001225D01*
X031579Y001092D01*
X031385Y001292D02*
X031185Y001292D01*
X031119Y001225D01*
X031119Y001092D01*
X031185Y001775D02*
X031119Y001842D01*
X031185Y001775D02*
X031319Y001775D01*
X031385Y001842D01*
X031385Y001908D01*
X031319Y001975D01*
X031252Y001975D01*
X031319Y001975D02*
X031385Y002042D01*
X031385Y002109D01*
X031319Y002175D01*
X031185Y002175D01*
X031119Y002109D01*
X030925Y002175D02*
X030925Y001908D01*
X030792Y001775D01*
X030658Y001908D01*
X030658Y002175D01*
X030607Y002462D02*
X030713Y002506D01*
X030794Y002587D01*
X030838Y002693D01*
X030838Y002807D01*
X030800Y002899D01*
X030800Y003008D01*
X030802Y003015D01*
X030800Y003057D01*
X030800Y003100D01*
X030797Y003107D01*
X030797Y003114D01*
X030778Y003152D01*
X030762Y003192D01*
X030757Y003197D01*
X030753Y003204D01*
X030722Y003232D01*
X030692Y003262D01*
X030685Y003265D01*
X030198Y003697D01*
X030474Y003518D01*
X030487Y003506D01*
X030506Y003498D01*
X030541Y003475D01*
X030576Y003469D01*
X030593Y003462D01*
X030613Y003462D01*
X030654Y003454D01*
X030689Y003462D01*
X030707Y003462D01*
X030726Y003470D01*
X030767Y003478D01*
X030797Y003499D01*
X030813Y003506D01*
X030828Y003520D01*
X030862Y003544D01*
X030882Y003574D01*
X030894Y003587D01*
X030902Y003606D01*
X030925Y003641D01*
X030931Y003676D01*
X030938Y003693D01*
X030938Y003713D01*
X030946Y003754D01*
X030938Y003789D01*
X030938Y003807D01*
X030930Y003826D01*
X030922Y003867D01*
X030901Y003897D01*
X030894Y003913D01*
X030880Y003928D01*
X030856Y003962D01*
X030826Y003982D01*
X030813Y003994D01*
X030794Y004002D01*
X030788Y004006D01*
X031444Y004006D01*
X031617Y004078D01*
X031749Y004210D01*
X031774Y004268D01*
X031816Y004286D01*
X031898Y004368D01*
X032771Y005241D01*
X032771Y005026D01*
X032871Y004927D01*
X034429Y004927D01*
X034495Y004993D01*
X034460Y004908D01*
X034460Y004900D01*
X034334Y004900D01*
X034235Y004800D01*
X034235Y004710D01*
X033948Y004664D01*
X033505Y004652D01*
X033383Y004774D01*
X033199Y004850D01*
X033001Y004850D01*
X032817Y004774D01*
X032676Y004633D01*
X032600Y004449D01*
X032600Y004251D01*
X032676Y004067D01*
X032817Y003926D01*
X033001Y003850D01*
X033199Y003850D01*
X033383Y003926D01*
X033524Y004067D01*
X033526Y004072D01*
X033945Y004084D01*
X033964Y004080D01*
X034002Y004086D01*
X034041Y004087D01*
X034059Y004095D01*
X034256Y004126D01*
X034311Y004072D01*
X034301Y004062D01*
X034284Y004032D01*
X034275Y003999D01*
X034275Y003776D01*
X034650Y003776D01*
X034650Y003676D01*
X034275Y003676D01*
X034275Y003453D01*
X034284Y003420D01*
X034301Y003390D01*
X034325Y003366D01*
X034355Y003349D01*
X034388Y003340D01*
X034650Y003340D01*
X034650Y003676D01*
X034750Y003676D01*
X034750Y003776D01*
X035125Y003776D01*
X035125Y003999D01*
X035116Y004032D01*
X035099Y004062D01*
X035089Y004072D01*
X035165Y004148D01*
X035165Y004800D01*
X035138Y004828D01*
X035216Y004906D01*
X035260Y005012D01*
X035260Y006758D01*
X035216Y006864D01*
X035134Y006946D01*
X034850Y007230D01*
X034850Y007360D01*
X034870Y007360D01*
X034970Y007460D01*
X034970Y008480D01*
X034870Y008580D01*
X034563Y008580D01*
X034480Y008768D01*
X034462Y008812D01*
X034460Y008814D01*
X034458Y008817D01*
X034425Y008849D01*
X034424Y008850D01*
X035700Y008850D01*
X035792Y008888D01*
X035862Y008958D01*
X035900Y009050D01*
X035900Y012961D01*
X035903Y012971D01*
X035900Y013010D01*
X035900Y013050D01*
X035896Y013059D01*
X035895Y013070D01*
X035877Y013105D01*
X035862Y013142D01*
X035854Y013149D01*
X035850Y013158D01*
X035820Y013184D01*
X035792Y013212D01*
X035782Y013216D01*
X035774Y013223D01*
X035736Y013235D01*
X035700Y013250D01*
X035689Y013250D01*
X034890Y013507D01*
X034938Y013553D01*
X034959Y013601D01*
X034994Y013637D01*
X035038Y013743D01*
X035038Y013857D01*
X034994Y013963D01*
X034988Y013969D01*
X034989Y014015D01*
X034990Y014017D01*
X034990Y014073D01*
X034991Y014128D01*
X034990Y014130D01*
X034990Y019553D01*
X035078Y019670D01*
X035094Y019687D01*
X035099Y019699D01*
X035117Y019722D01*
X035129Y019771D01*
X035138Y019793D01*
X035138Y019806D01*
X035145Y019834D01*
X035138Y019884D01*
X035138Y019907D01*
X035133Y019920D01*
X035129Y019948D01*
X035103Y019992D01*
X035094Y020013D01*
X035085Y020023D01*
X035070Y020047D01*
X035030Y020078D01*
X035013Y020094D01*
X035001Y020099D01*
X034978Y020117D01*
X034929Y020129D01*
X034907Y020138D01*
X034894Y020138D01*
X034866Y020145D01*
X034816Y020138D01*
X034793Y020138D01*
X034780Y020133D01*
X034752Y020129D01*
X034708Y020103D01*
X034687Y020094D01*
X034677Y020085D01*
X034653Y020070D01*
X034622Y020030D01*
X034606Y020013D01*
X034601Y020001D01*
X034480Y019840D01*
X034454Y019814D01*
X034446Y019795D01*
X034433Y019778D01*
X034424Y019742D01*
X034410Y019708D01*
X034410Y019687D01*
X034405Y019666D01*
X034410Y019629D01*
X034410Y019280D01*
X034396Y019314D01*
X034114Y019596D01*
X034008Y019640D01*
X033892Y019640D01*
X033786Y019596D01*
X033704Y019514D01*
X033660Y019408D01*
X033660Y019292D01*
X033704Y019186D01*
X033986Y018904D01*
X034082Y018864D01*
X034100Y018846D01*
X034100Y014754D01*
X034038Y014692D01*
X034000Y014600D01*
X034000Y013489D01*
X033997Y013479D01*
X034000Y013440D01*
X034000Y013400D01*
X034004Y013391D01*
X034005Y013380D01*
X034023Y013345D01*
X034038Y013308D01*
X034046Y013301D01*
X034050Y013292D01*
X034080Y013266D01*
X034108Y013238D01*
X034118Y013234D01*
X034126Y013227D01*
X034164Y013215D01*
X034200Y013200D01*
X034211Y013200D01*
X034917Y012973D01*
X033471Y012973D01*
X033371Y012874D01*
X033371Y011867D01*
X031713Y011867D01*
X031694Y011913D02*
X031613Y011994D01*
X031507Y012038D01*
X031393Y012038D01*
X031287Y011994D01*
X031206Y011913D01*
X031168Y011821D01*
X030346Y011000D01*
X030000Y011000D01*
X029908Y010962D01*
X029608Y010662D01*
X029538Y010592D01*
X029500Y010500D01*
X029500Y009300D01*
X029538Y009208D01*
X029800Y008946D01*
X029800Y008554D01*
X028408Y007162D01*
X028338Y007092D01*
X028300Y007000D01*
X028300Y006854D01*
X028290Y006844D01*
X028290Y007461D01*
X028295Y007479D01*
X028290Y007518D01*
X028290Y007558D01*
X028283Y007575D01*
X028190Y008318D01*
X028190Y008341D01*
X028319Y008211D01*
X028492Y008140D01*
X029279Y008140D01*
X029452Y008211D01*
X029584Y008344D01*
X029655Y008516D01*
X029655Y008703D01*
X029584Y008876D01*
X029452Y009008D01*
X029279Y009080D01*
X028492Y009080D01*
X028424Y009052D01*
X028818Y009558D01*
X028846Y009586D01*
X028853Y009603D01*
X028864Y009617D01*
X028875Y009656D01*
X028890Y009692D01*
X028890Y009711D01*
X028895Y009729D01*
X028890Y009768D01*
X028890Y010372D01*
X028896Y010400D01*
X028890Y010429D01*
X028890Y010458D01*
X028879Y010485D01*
X028873Y010513D01*
X028857Y010538D01*
X028846Y010564D01*
X028825Y010585D01*
X028809Y010609D01*
X028785Y010625D01*
X028764Y010646D01*
X028737Y010657D01*
X028080Y011095D01*
X028080Y011416D01*
X028072Y011436D01*
X028127Y011488D01*
X028115Y011459D01*
X028115Y011272D01*
X028187Y011100D01*
X028319Y010967D01*
X028492Y010896D01*
X029279Y010896D01*
X029452Y010967D01*
X029584Y011100D01*
X029655Y011272D01*
X029655Y011459D01*
X029584Y011632D01*
X029452Y011764D01*
X029279Y011836D01*
X028496Y011836D01*
X028500Y011840D01*
X028541Y011879D01*
X028542Y011880D01*
X029946Y013238D01*
X030436Y013360D01*
X032072Y013360D01*
X032146Y013285D01*
X032304Y013220D01*
X032996Y013220D01*
X033154Y013285D01*
X033275Y013406D01*
X033340Y013564D01*
X033340Y013620D01*
X033559Y013711D01*
X033561Y013711D01*
X033612Y013733D01*
X033664Y013754D01*
X033665Y013755D01*
X033667Y013756D01*
X033706Y013796D01*
X033746Y013835D01*
X033746Y013837D01*
X033748Y013838D01*
X033768Y013890D01*
X033790Y013942D01*
X033790Y013944D01*
X033791Y013945D01*
X033790Y014001D01*
X033790Y014057D01*
X033789Y014059D01*
X033740Y018800D01*
X033744Y018846D01*
X033740Y018858D01*
X033739Y018871D01*
X033722Y018912D01*
X033708Y018955D01*
X033699Y018965D01*
X033694Y018977D01*
X033662Y019008D01*
X032923Y019869D01*
X032913Y019923D01*
X032842Y020033D01*
X032734Y020108D01*
X031768Y020319D01*
X033229Y020319D01*
X033229Y020284D01*
X033271Y020182D01*
X033350Y020103D01*
X033405Y020080D01*
X033429Y020024D01*
X033507Y019946D01*
X033610Y019904D01*
X033707Y019904D01*
X033743Y019867D01*
X033846Y019825D01*
X033957Y019825D01*
X034059Y019867D01*
X034095Y019904D01*
X034193Y019904D01*
X034295Y019946D01*
X034374Y020024D01*
X034397Y020080D01*
X034453Y020103D01*
X034531Y020182D01*
X034574Y020284D01*
X034574Y020319D01*
X035945Y020319D01*
X035945Y003146D01*
X035912Y003179D01*
X035680Y003275D01*
X035429Y003275D01*
X035198Y003179D01*
X035021Y003002D01*
X034925Y002771D01*
X034925Y002520D01*
X035021Y002288D01*
X035097Y002212D01*
X035011Y002127D01*
X034955Y002150D01*
X034795Y002150D01*
X034648Y002089D01*
X034536Y001977D01*
X034509Y001913D01*
X034480Y001925D01*
X034320Y001925D01*
X034173Y001864D01*
X034061Y001752D01*
X034000Y001605D01*
X034000Y001534D01*
X033856Y001475D01*
X033743Y001362D01*
X033682Y001215D01*
X033682Y001056D01*
X033692Y001034D01*
X032526Y001034D01*
X032526Y001316D01*
X032500Y001343D01*
X032500Y002371D01*
X032471Y002400D01*
X028440Y002400D01*
X028821Y002628D01*
X029279Y002628D01*
X029452Y002700D01*
X029584Y002832D01*
X029655Y003005D01*
X029655Y003192D01*
X029584Y003364D01*
X029452Y003496D01*
X029279Y003568D01*
X028492Y003568D01*
X028372Y003518D01*
X028862Y004008D01*
X028900Y004100D01*
X028900Y004800D01*
X028862Y004892D01*
X028792Y004962D01*
X028200Y005554D01*
X028200Y005575D01*
X028319Y005455D01*
X028492Y005384D01*
X029279Y005384D01*
X029452Y005455D01*
X029584Y005588D01*
X029655Y005760D01*
X030000Y005760D01*
X030000Y005662D02*
X029614Y005662D01*
X029655Y005760D02*
X029655Y005947D01*
X029584Y006120D01*
X029452Y006252D01*
X029279Y006324D01*
X028492Y006324D01*
X028467Y006314D01*
X028762Y006608D01*
X028800Y006700D01*
X028800Y006846D01*
X030262Y008308D01*
X030300Y008400D01*
X030300Y009100D01*
X030262Y009192D01*
X030192Y009262D01*
X030000Y009454D01*
X030000Y010346D01*
X030154Y010500D01*
X030500Y010500D01*
X030592Y010538D01*
X030662Y010608D01*
X031521Y011468D01*
X031613Y011506D01*
X031694Y011587D01*
X031738Y011693D01*
X031738Y011807D01*
X031694Y011913D01*
X031642Y011966D02*
X033371Y011966D01*
X033371Y012064D02*
X028732Y012064D01*
X028834Y012163D02*
X033371Y012163D01*
X033371Y012261D02*
X033095Y012261D01*
X033154Y012285D02*
X033275Y012406D01*
X033340Y012564D01*
X033340Y012736D01*
X033275Y012894D01*
X033154Y013015D01*
X032996Y013080D01*
X032304Y013080D01*
X032146Y013015D01*
X032025Y012894D01*
X031960Y012736D01*
X031960Y012564D01*
X032025Y012406D01*
X032146Y012285D01*
X032304Y012220D01*
X032996Y012220D01*
X033154Y012285D01*
X033228Y012360D02*
X033371Y012360D01*
X033371Y012458D02*
X033296Y012458D01*
X033337Y012557D02*
X033371Y012557D01*
X033371Y012655D02*
X033340Y012655D01*
X033333Y012754D02*
X033371Y012754D01*
X033371Y012852D02*
X033292Y012852D01*
X033218Y012951D02*
X033448Y012951D01*
X033070Y013049D02*
X034680Y013049D01*
X034374Y013148D02*
X031604Y013148D01*
X031617Y013142D02*
X031444Y013214D01*
X030657Y013214D01*
X030485Y013142D01*
X030352Y013010D01*
X030281Y012837D01*
X030281Y012650D01*
X030352Y012477D01*
X030485Y012345D01*
X030657Y012274D01*
X031444Y012274D01*
X031617Y012345D01*
X031749Y012477D01*
X031821Y012650D01*
X031821Y012837D01*
X031749Y013010D01*
X031617Y013142D01*
X031710Y013049D02*
X032230Y013049D01*
X032082Y012951D02*
X031774Y012951D01*
X031815Y012852D02*
X032008Y012852D01*
X031967Y012754D02*
X031821Y012754D01*
X031821Y012655D02*
X031960Y012655D01*
X031963Y012557D02*
X031782Y012557D01*
X031730Y012458D02*
X032004Y012458D01*
X032072Y012360D02*
X031631Y012360D01*
X032205Y012261D02*
X028936Y012261D01*
X029037Y012360D02*
X030470Y012360D01*
X030372Y012458D02*
X029139Y012458D01*
X029241Y012557D02*
X030320Y012557D01*
X030281Y012655D02*
X029343Y012655D01*
X029445Y012754D02*
X030281Y012754D01*
X030287Y012852D02*
X029547Y012852D01*
X029649Y012951D02*
X030328Y012951D01*
X030391Y013049D02*
X029751Y013049D01*
X029853Y013148D02*
X030498Y013148D01*
X030374Y013345D02*
X032087Y013345D01*
X032242Y013246D02*
X029980Y013246D01*
X029426Y013542D02*
X027819Y013542D01*
X027720Y013640D02*
X029528Y013640D01*
X029571Y013682D02*
X028111Y012271D01*
X028126Y012295D01*
X028131Y012320D01*
X028140Y012342D01*
X028140Y012376D01*
X028146Y012409D01*
X028140Y012433D01*
X028140Y013158D01*
X028096Y013264D01*
X028014Y013346D01*
X027612Y013748D01*
X027580Y013784D01*
X027571Y013789D01*
X027564Y013796D01*
X027559Y013798D01*
X027295Y014194D01*
X027206Y014254D01*
X027198Y014256D01*
X026929Y014525D01*
X026447Y015030D01*
X027194Y015030D01*
X027367Y015101D01*
X027499Y015233D01*
X027571Y015406D01*
X027571Y015593D01*
X027499Y015766D01*
X027367Y015898D01*
X027194Y015970D01*
X026407Y015970D01*
X026235Y015898D01*
X026102Y015766D01*
X026031Y015593D01*
X026031Y015466D01*
X025914Y015588D01*
X025790Y015898D01*
X025790Y016008D01*
X025746Y016114D01*
X025291Y016569D01*
X025334Y016611D01*
X025405Y016784D01*
X025405Y016971D01*
X025334Y017144D01*
X025202Y017276D01*
X025029Y017348D01*
X024242Y017348D01*
X024069Y017276D01*
X023937Y017144D01*
X023899Y017052D01*
X023330Y018278D01*
X023330Y018345D01*
X023654Y018192D01*
X023658Y018188D01*
X023699Y018171D01*
X023739Y018153D01*
X023745Y018152D01*
X023750Y018150D01*
X023794Y018150D01*
X023838Y018148D01*
X023844Y018150D01*
X024408Y018150D01*
X024626Y017787D01*
X024638Y017758D01*
X024651Y017745D01*
X024661Y017729D01*
X024686Y017710D01*
X024708Y017688D01*
X024726Y017681D01*
X024741Y017670D01*
X024771Y017662D01*
X024800Y017650D01*
X024819Y017650D01*
X024838Y017645D01*
X024868Y017650D01*
X025336Y017650D01*
X026299Y017127D01*
X026351Y017056D01*
X028195Y015945D01*
X028211Y015929D01*
X028244Y015915D01*
X028275Y015897D01*
X028297Y015894D01*
X028317Y015885D01*
X028353Y015885D01*
X028389Y015880D01*
X028410Y015885D01*
X029219Y015885D01*
X029244Y015879D01*
X029276Y015885D01*
X029308Y015885D01*
X029332Y015895D01*
X030168Y016045D01*
X030192Y016035D01*
X031607Y016035D01*
X031622Y016031D01*
X031665Y016035D01*
X031708Y016035D01*
X031722Y016041D01*
X031737Y016042D01*
X031775Y016063D01*
X031814Y016079D01*
X031825Y016090D01*
X032425Y016413D01*
X032464Y016429D01*
X032475Y016440D01*
X032488Y016447D01*
X032515Y016480D01*
X032546Y016511D01*
X032552Y016525D01*
X032561Y016536D01*
X032574Y016578D01*
X032590Y016617D01*
X032590Y016632D01*
X032594Y016647D01*
X032590Y016690D01*
X032590Y018707D01*
X032594Y018720D01*
X032590Y018764D01*
X032590Y018808D01*
X032585Y018821D01*
X032583Y018835D01*
X032563Y018874D01*
X032546Y018914D01*
X032536Y018924D01*
X032529Y018937D01*
X032495Y018965D01*
X032464Y018996D01*
X032451Y019001D01*
X031920Y019440D01*
X031889Y019471D01*
X031876Y019476D01*
X031865Y019485D01*
X031823Y019498D01*
X031783Y019515D01*
X031768Y019515D01*
X031755Y019519D01*
X031711Y019515D01*
X030595Y019515D01*
X030515Y019595D01*
X030515Y019683D01*
X030649Y019817D01*
X030725Y020001D01*
X030801Y019817D01*
X030942Y019676D01*
X031126Y019600D01*
X031324Y019600D01*
X031508Y019676D01*
X031528Y019696D01*
X032487Y019487D01*
X033161Y018701D01*
X033200Y014968D01*
X033154Y015015D01*
X032996Y015080D01*
X032304Y015080D01*
X032146Y015015D01*
X032025Y014894D01*
X031960Y014736D01*
X031960Y014564D01*
X032025Y014406D01*
X032146Y014285D01*
X032304Y014220D01*
X032996Y014220D01*
X033154Y014285D01*
X033206Y014338D01*
X033208Y014193D01*
X032933Y014080D01*
X032304Y014080D01*
X032146Y014015D01*
X032072Y013940D01*
X030421Y013940D01*
X030386Y013945D01*
X030364Y013940D01*
X030342Y013940D01*
X030309Y013926D01*
X029767Y013791D01*
X029747Y013791D01*
X029711Y013777D01*
X029674Y013767D01*
X029658Y013756D01*
X029640Y013749D01*
X029612Y013722D01*
X029581Y013699D01*
X029571Y013682D01*
X029630Y013739D02*
X029467Y013739D01*
X029452Y013723D02*
X029584Y013855D01*
X029655Y014028D01*
X029655Y014215D01*
X029584Y014388D01*
X029452Y014520D01*
X029279Y014592D01*
X028492Y014592D01*
X028319Y014520D01*
X028187Y014388D01*
X028115Y014215D01*
X028115Y014028D01*
X028187Y013855D01*
X028319Y013723D01*
X028492Y013652D01*
X029279Y013652D01*
X029452Y013723D01*
X029565Y013837D02*
X029952Y013837D01*
X029617Y013936D02*
X030332Y013936D01*
X029655Y014034D02*
X032194Y014034D01*
X032278Y014231D02*
X029649Y014231D01*
X029655Y014133D02*
X033060Y014133D01*
X033022Y014231D02*
X033208Y014231D01*
X033198Y014330D02*
X033207Y014330D01*
X033787Y014330D02*
X034000Y014330D01*
X034000Y014428D02*
X033786Y014428D01*
X033785Y014527D02*
X034000Y014527D01*
X034010Y014625D02*
X033784Y014625D01*
X033782Y014724D02*
X034070Y014724D01*
X034100Y014822D02*
X033781Y014822D01*
X033780Y014921D02*
X034100Y014921D01*
X034100Y015019D02*
X033779Y015019D01*
X033778Y015118D02*
X034100Y015118D01*
X034100Y015216D02*
X033777Y015216D01*
X033776Y015315D02*
X034100Y015315D01*
X034100Y015413D02*
X033775Y015413D01*
X033774Y015512D02*
X034100Y015512D01*
X034100Y015610D02*
X033773Y015610D01*
X033772Y015709D02*
X034100Y015709D01*
X034100Y015807D02*
X033771Y015807D01*
X033770Y015906D02*
X034100Y015906D01*
X034100Y016004D02*
X033769Y016004D01*
X033768Y016103D02*
X034100Y016103D01*
X034100Y016201D02*
X033767Y016201D01*
X033766Y016300D02*
X034100Y016300D01*
X034100Y016398D02*
X033765Y016398D01*
X033764Y016497D02*
X034100Y016497D01*
X034100Y016595D02*
X033763Y016595D01*
X033762Y016694D02*
X034100Y016694D01*
X034100Y016792D02*
X033761Y016792D01*
X033760Y016891D02*
X034100Y016891D01*
X034100Y016989D02*
X033759Y016989D01*
X033758Y017088D02*
X034100Y017088D01*
X034100Y017186D02*
X033757Y017186D01*
X033756Y017285D02*
X034100Y017285D01*
X034100Y017383D02*
X033755Y017383D01*
X033754Y017482D02*
X034100Y017482D01*
X034100Y017580D02*
X033753Y017580D01*
X033752Y017679D02*
X034100Y017679D01*
X034100Y017777D02*
X033751Y017777D01*
X033750Y017876D02*
X034100Y017876D01*
X034100Y017974D02*
X033749Y017974D01*
X033748Y018073D02*
X034100Y018073D01*
X034100Y018171D02*
X033747Y018171D01*
X033746Y018270D02*
X034100Y018270D01*
X034100Y018368D02*
X033745Y018368D01*
X033744Y018467D02*
X034100Y018467D01*
X034100Y018565D02*
X033743Y018565D01*
X033742Y018664D02*
X034100Y018664D01*
X034100Y018762D02*
X033741Y018762D01*
X033739Y018861D02*
X034086Y018861D01*
X033931Y018959D02*
X033704Y018959D01*
X033620Y019058D02*
X033832Y019058D01*
X033734Y019156D02*
X033535Y019156D01*
X033451Y019255D02*
X033676Y019255D01*
X033660Y019353D02*
X033366Y019353D01*
X033281Y019452D02*
X033678Y019452D01*
X033740Y019550D02*
X033197Y019550D01*
X033112Y019649D02*
X034407Y019649D01*
X034410Y019550D02*
X034160Y019550D01*
X034259Y019452D02*
X034410Y019452D01*
X034410Y019353D02*
X034357Y019353D01*
X034425Y019747D02*
X033028Y019747D01*
X032943Y019846D02*
X033796Y019846D01*
X034007Y019846D02*
X034484Y019846D01*
X034558Y019944D02*
X034291Y019944D01*
X034381Y020043D02*
X034632Y020043D01*
X034490Y020141D02*
X034837Y020141D01*
X034882Y020141D02*
X035945Y020141D01*
X035945Y020043D02*
X035073Y020043D01*
X035130Y019944D02*
X035945Y019944D01*
X035945Y019846D02*
X035144Y019846D01*
X035123Y019747D02*
X035945Y019747D01*
X035945Y019649D02*
X035061Y019649D01*
X034990Y019550D02*
X035945Y019550D01*
X035945Y019452D02*
X034990Y019452D01*
X034990Y019353D02*
X035945Y019353D01*
X035945Y019255D02*
X034990Y019255D01*
X034990Y019156D02*
X035945Y019156D01*
X035945Y019058D02*
X034990Y019058D01*
X034990Y018959D02*
X035945Y018959D01*
X035945Y018861D02*
X034990Y018861D01*
X034990Y018762D02*
X035945Y018762D01*
X035945Y018664D02*
X034990Y018664D01*
X034990Y018565D02*
X035945Y018565D01*
X035945Y018467D02*
X034990Y018467D01*
X034990Y018368D02*
X035945Y018368D01*
X035945Y018270D02*
X034990Y018270D01*
X034990Y018171D02*
X035945Y018171D01*
X035945Y018073D02*
X034990Y018073D01*
X034990Y017974D02*
X035945Y017974D01*
X035945Y017876D02*
X034990Y017876D01*
X034990Y017777D02*
X035945Y017777D01*
X035945Y017679D02*
X034990Y017679D01*
X034990Y017580D02*
X035945Y017580D01*
X035945Y017482D02*
X034990Y017482D01*
X034990Y017383D02*
X035945Y017383D01*
X035945Y017285D02*
X034990Y017285D01*
X034990Y017186D02*
X035945Y017186D01*
X035945Y017088D02*
X034990Y017088D01*
X034990Y016989D02*
X035945Y016989D01*
X035945Y016891D02*
X034990Y016891D01*
X034990Y016792D02*
X035945Y016792D01*
X035945Y016694D02*
X034990Y016694D01*
X034990Y016595D02*
X035945Y016595D01*
X035945Y016497D02*
X034990Y016497D01*
X034990Y016398D02*
X035945Y016398D01*
X035945Y016300D02*
X034990Y016300D01*
X034990Y016201D02*
X035945Y016201D01*
X035945Y016103D02*
X034990Y016103D01*
X034990Y016004D02*
X035945Y016004D01*
X035945Y015906D02*
X034990Y015906D01*
X034990Y015807D02*
X035945Y015807D01*
X035945Y015709D02*
X034990Y015709D01*
X034990Y015610D02*
X035945Y015610D01*
X035945Y015512D02*
X034990Y015512D01*
X034990Y015413D02*
X035945Y015413D01*
X035945Y015315D02*
X034990Y015315D01*
X034990Y015216D02*
X035945Y015216D01*
X035945Y015118D02*
X034990Y015118D01*
X034990Y015019D02*
X035945Y015019D01*
X035945Y014921D02*
X034990Y014921D01*
X034990Y014822D02*
X035945Y014822D01*
X035945Y014724D02*
X034990Y014724D01*
X034990Y014625D02*
X035945Y014625D01*
X035945Y014527D02*
X034990Y014527D01*
X034990Y014428D02*
X035945Y014428D01*
X035945Y014330D02*
X034990Y014330D01*
X034990Y014231D02*
X035945Y014231D01*
X035945Y014133D02*
X034990Y014133D01*
X034990Y014034D02*
X035945Y014034D01*
X035945Y013936D02*
X035006Y013936D01*
X035038Y013837D02*
X035945Y013837D01*
X035945Y013739D02*
X035036Y013739D01*
X034996Y013640D02*
X035945Y013640D01*
X035945Y013542D02*
X034926Y013542D01*
X035089Y013443D02*
X035945Y013443D01*
X035945Y013345D02*
X035395Y013345D01*
X035709Y013246D02*
X035945Y013246D01*
X035945Y013148D02*
X035856Y013148D01*
X035900Y013049D02*
X035945Y013049D01*
X035945Y012951D02*
X035900Y012951D01*
X035900Y012852D02*
X035945Y012852D01*
X035945Y012754D02*
X035900Y012754D01*
X035900Y012655D02*
X035945Y012655D01*
X035945Y012557D02*
X035900Y012557D01*
X035900Y012458D02*
X035945Y012458D01*
X035945Y012360D02*
X035900Y012360D01*
X035900Y012261D02*
X035945Y012261D01*
X035945Y012163D02*
X035900Y012163D01*
X035900Y012064D02*
X035945Y012064D01*
X035945Y011966D02*
X035900Y011966D01*
X035900Y011867D02*
X035945Y011867D01*
X035945Y011769D02*
X035900Y011769D01*
X035900Y011670D02*
X035945Y011670D01*
X035945Y011572D02*
X035900Y011572D01*
X035900Y011473D02*
X035945Y011473D01*
X035945Y011375D02*
X035900Y011375D01*
X035900Y011276D02*
X035945Y011276D01*
X035945Y011178D02*
X035900Y011178D01*
X035900Y011079D02*
X035945Y011079D01*
X035945Y010981D02*
X035900Y010981D01*
X035900Y010882D02*
X035945Y010882D01*
X035945Y010784D02*
X035900Y010784D01*
X035900Y010685D02*
X035945Y010685D01*
X035945Y010587D02*
X035900Y010587D01*
X035900Y010488D02*
X035945Y010488D01*
X035945Y010390D02*
X035900Y010390D01*
X035900Y010291D02*
X035945Y010291D01*
X035945Y010193D02*
X035900Y010193D01*
X035900Y010094D02*
X035945Y010094D01*
X035945Y009996D02*
X035900Y009996D01*
X035900Y009897D02*
X035945Y009897D01*
X035945Y009799D02*
X035900Y009799D01*
X035900Y009700D02*
X035945Y009700D01*
X035945Y009602D02*
X035900Y009602D01*
X035900Y009503D02*
X035945Y009503D01*
X035945Y009405D02*
X035900Y009405D01*
X035900Y009306D02*
X035945Y009306D01*
X035945Y009208D02*
X035900Y009208D01*
X035900Y009109D02*
X035945Y009109D01*
X035945Y009011D02*
X035884Y009011D01*
X035945Y008912D02*
X035816Y008912D01*
X035945Y008814D02*
X034460Y008814D01*
X034503Y008715D02*
X035945Y008715D01*
X035945Y008617D02*
X034547Y008617D01*
X034932Y008518D02*
X035945Y008518D01*
X035945Y008420D02*
X034970Y008420D01*
X034970Y008321D02*
X035945Y008321D01*
X035945Y008223D02*
X034970Y008223D01*
X034970Y008124D02*
X035945Y008124D01*
X035945Y008026D02*
X034970Y008026D01*
X034970Y007927D02*
X035945Y007927D01*
X035945Y007829D02*
X034970Y007829D01*
X034970Y007730D02*
X035945Y007730D01*
X035945Y007632D02*
X034970Y007632D01*
X034970Y007533D02*
X035945Y007533D01*
X035945Y007435D02*
X034945Y007435D01*
X034850Y007336D02*
X035945Y007336D01*
X035945Y007238D02*
X034850Y007238D01*
X034941Y007139D02*
X035945Y007139D01*
X035945Y007041D02*
X035040Y007041D01*
X035138Y006942D02*
X035945Y006942D01*
X035945Y006844D02*
X035224Y006844D01*
X035260Y006745D02*
X035945Y006745D01*
X035945Y006647D02*
X035260Y006647D01*
X035260Y006548D02*
X035945Y006548D01*
X035945Y006450D02*
X035260Y006450D01*
X035260Y006351D02*
X035945Y006351D01*
X035945Y006253D02*
X035260Y006253D01*
X035260Y006154D02*
X035945Y006154D01*
X035945Y006056D02*
X035260Y006056D01*
X035260Y005957D02*
X035945Y005957D01*
X035945Y005859D02*
X035260Y005859D01*
X035260Y005760D02*
X035945Y005760D01*
X035945Y005662D02*
X035260Y005662D01*
X035260Y005563D02*
X035945Y005563D01*
X035945Y005465D02*
X035260Y005465D01*
X035260Y005366D02*
X035945Y005366D01*
X035945Y005268D02*
X035260Y005268D01*
X035260Y005169D02*
X035945Y005169D01*
X035945Y005071D02*
X035260Y005071D01*
X035243Y004972D02*
X035945Y004972D01*
X035945Y004874D02*
X035184Y004874D01*
X035165Y004775D02*
X035945Y004775D01*
X035945Y004677D02*
X035165Y004677D01*
X035165Y004578D02*
X035945Y004578D01*
X035945Y004480D02*
X035165Y004480D01*
X035165Y004381D02*
X035945Y004381D01*
X035945Y004283D02*
X035165Y004283D01*
X035165Y004184D02*
X035945Y004184D01*
X035945Y004086D02*
X035103Y004086D01*
X035125Y003987D02*
X035945Y003987D01*
X035945Y003889D02*
X035125Y003889D01*
X035125Y003790D02*
X035945Y003790D01*
X035945Y003692D02*
X034750Y003692D01*
X034750Y003676D02*
X035125Y003676D01*
X035125Y003453D01*
X035116Y003420D01*
X035099Y003390D01*
X035075Y003366D01*
X035045Y003349D01*
X035012Y003340D01*
X034750Y003340D01*
X034750Y003676D01*
X034750Y003593D02*
X034650Y003593D01*
X034650Y003495D02*
X034750Y003495D01*
X034750Y003396D02*
X034650Y003396D01*
X034297Y003396D02*
X033148Y003396D01*
X033148Y003398D02*
X033558Y003398D01*
X033549Y003458D01*
X033526Y003527D01*
X033493Y003591D01*
X033451Y003650D01*
X033400Y003701D01*
X033341Y003743D01*
X033277Y003776D01*
X033208Y003799D01*
X033148Y003808D01*
X033148Y003398D01*
X033148Y003302D01*
X033558Y003302D01*
X033549Y003242D01*
X033526Y003173D01*
X033493Y003109D01*
X033451Y003050D01*
X033400Y002999D01*
X033341Y002957D01*
X033277Y002924D01*
X033208Y002901D01*
X033148Y002892D01*
X033148Y003302D01*
X033052Y003302D01*
X033052Y002892D01*
X032992Y002901D01*
X032923Y002924D01*
X032859Y002957D01*
X032800Y002999D01*
X032749Y003050D01*
X032707Y003109D01*
X032674Y003173D01*
X032651Y003242D01*
X032642Y003302D01*
X033052Y003302D01*
X033052Y003398D01*
X032642Y003398D01*
X032651Y003458D01*
X032674Y003527D01*
X032707Y003591D01*
X032749Y003650D01*
X032800Y003701D01*
X032859Y003743D01*
X032923Y003776D01*
X032992Y003799D01*
X033052Y003808D01*
X033052Y003398D01*
X033148Y003398D01*
X033052Y003396D02*
X030537Y003396D01*
X030511Y003495D02*
X030426Y003495D01*
X030359Y003593D02*
X030315Y003593D01*
X030207Y003692D02*
X030205Y003692D01*
X029895Y003298D02*
X029612Y003298D01*
X029652Y003199D02*
X030006Y003199D01*
X030117Y003101D02*
X029655Y003101D01*
X029654Y003002D02*
X030228Y003002D01*
X030300Y002938D02*
X030300Y002899D01*
X030262Y002807D01*
X030262Y002693D01*
X030306Y002587D01*
X030387Y002506D01*
X030493Y002462D01*
X030607Y002462D01*
X030717Y002510D02*
X034929Y002510D01*
X034925Y002608D02*
X030803Y002608D01*
X030838Y002707D02*
X034925Y002707D01*
X034939Y002805D02*
X030838Y002805D01*
X030800Y002904D02*
X032986Y002904D01*
X033052Y002904D02*
X033148Y002904D01*
X033214Y002904D02*
X034980Y002904D01*
X035021Y003002D02*
X033403Y003002D01*
X033487Y003101D02*
X035119Y003101D01*
X035245Y003199D02*
X033535Y003199D01*
X033557Y003298D02*
X035945Y003298D01*
X035945Y003396D02*
X035103Y003396D01*
X035125Y003495D02*
X035945Y003495D01*
X035945Y003593D02*
X035125Y003593D01*
X034650Y003692D02*
X033409Y003692D01*
X033492Y003593D02*
X034275Y003593D01*
X034275Y003495D02*
X033537Y003495D01*
X033148Y003495D02*
X033052Y003495D01*
X033052Y003593D02*
X033148Y003593D01*
X033148Y003692D02*
X033052Y003692D01*
X033052Y003790D02*
X033148Y003790D01*
X033234Y003790D02*
X034275Y003790D01*
X034275Y003889D02*
X033292Y003889D01*
X033444Y003987D02*
X034275Y003987D01*
X034297Y004086D02*
X034001Y004086D01*
X034024Y004677D02*
X033481Y004677D01*
X033380Y004775D02*
X034235Y004775D01*
X034308Y004874D02*
X032403Y004874D01*
X032502Y004972D02*
X032826Y004972D01*
X032771Y005071D02*
X032600Y005071D01*
X032699Y005169D02*
X032771Y005169D01*
X032820Y004775D02*
X032305Y004775D01*
X032206Y004677D02*
X032719Y004677D01*
X032653Y004578D02*
X032108Y004578D01*
X032009Y004480D02*
X032612Y004480D01*
X032600Y004381D02*
X031911Y004381D01*
X031808Y004283D02*
X032600Y004283D01*
X032628Y004184D02*
X031723Y004184D01*
X031625Y004086D02*
X032668Y004086D01*
X032756Y003987D02*
X030820Y003987D01*
X030907Y003889D02*
X032908Y003889D01*
X032966Y003790D02*
X030938Y003790D01*
X030938Y003692D02*
X032791Y003692D01*
X032708Y003593D02*
X030897Y003593D01*
X030790Y003495D02*
X032663Y003495D01*
X032643Y003298D02*
X030648Y003298D01*
X030756Y003199D02*
X032665Y003199D01*
X032713Y003101D02*
X030800Y003101D01*
X030800Y003002D02*
X032797Y003002D01*
X033052Y003002D02*
X033148Y003002D01*
X033148Y003101D02*
X033052Y003101D01*
X033052Y003199D02*
X033148Y003199D01*
X033148Y003298D02*
X033052Y003298D01*
X032500Y002313D02*
X035011Y002313D01*
X034970Y002411D02*
X028458Y002411D01*
X028379Y002313D02*
X028294Y002313D01*
X028379Y002214D02*
X028129Y002214D01*
X027965Y002116D02*
X028379Y002116D01*
X028379Y002017D02*
X027800Y002017D01*
X027636Y001919D02*
X028379Y001919D01*
X028379Y001820D02*
X027479Y001820D01*
X027896Y001292D02*
X027896Y001025D01*
X028379Y001623D02*
X025019Y001623D01*
X025129Y001722D02*
X028379Y001722D01*
X028817Y001775D02*
X029017Y001775D01*
X029083Y001842D01*
X029083Y001908D01*
X029017Y001975D01*
X028817Y001975D01*
X029017Y001975D02*
X029083Y002042D01*
X029083Y002109D01*
X029017Y002175D01*
X028817Y002175D01*
X028817Y001775D01*
X029277Y001775D02*
X029544Y001775D01*
X029737Y001775D02*
X029737Y002175D01*
X029938Y002175D01*
X030004Y002109D01*
X030004Y001975D01*
X029938Y001908D01*
X029737Y001908D01*
X029410Y001975D02*
X029277Y001975D01*
X029277Y002175D02*
X029277Y001775D01*
X029277Y002175D02*
X029544Y002175D01*
X029459Y002707D02*
X030262Y002707D01*
X030262Y002805D02*
X029557Y002805D01*
X029614Y002904D02*
X030300Y002904D01*
X030300Y002938D02*
X029515Y003635D01*
X029508Y003638D01*
X029478Y003668D01*
X029447Y003696D01*
X029443Y003703D01*
X029438Y003708D01*
X029422Y003748D01*
X029403Y003786D01*
X029403Y003793D01*
X029400Y003800D01*
X029400Y003843D01*
X029398Y003885D01*
X029400Y003892D01*
X029400Y004840D01*
X029397Y004880D01*
X029400Y004890D01*
X029400Y004900D01*
X029415Y004937D01*
X029428Y004975D01*
X029434Y004982D01*
X029438Y004992D01*
X029466Y005020D01*
X030000Y005642D01*
X030000Y006177D01*
X029405Y006400D01*
X029304Y006400D01*
X029208Y006360D01*
X029092Y006360D01*
X028986Y006404D01*
X028904Y006486D01*
X028860Y006592D01*
X028860Y006708D01*
X028904Y006814D01*
X030286Y008196D01*
X030392Y008240D01*
X031760Y008240D01*
X031760Y009748D01*
X031749Y009722D01*
X031617Y009589D01*
X031444Y009518D01*
X030657Y009518D01*
X030485Y009589D01*
X030352Y009722D01*
X030281Y009894D01*
X030281Y010081D01*
X030352Y010254D01*
X030485Y010386D01*
X030657Y010458D01*
X031444Y010458D01*
X031617Y010386D01*
X031749Y010254D01*
X031760Y010228D01*
X031760Y010393D01*
X031760Y010393D01*
X031760Y010450D01*
X031760Y010508D01*
X031760Y010508D01*
X031760Y010508D01*
X031782Y010561D01*
X031804Y010614D01*
X031804Y010614D01*
X032032Y011161D01*
X032054Y011214D01*
X032054Y011214D01*
X032054Y011215D01*
X032095Y011255D01*
X032136Y011296D01*
X032136Y011296D01*
X032136Y011296D01*
X032189Y011318D01*
X032242Y011340D01*
X032243Y011340D01*
X032243Y011340D01*
X032300Y011340D01*
X033958Y011340D01*
X033972Y011344D01*
X034015Y011340D01*
X034058Y011340D01*
X034072Y011334D01*
X034087Y011333D01*
X034125Y011312D01*
X034164Y011296D01*
X034175Y011285D01*
X034869Y010911D01*
X034894Y010904D01*
X034919Y010883D01*
X034948Y010868D01*
X034964Y010848D01*
X034984Y010833D01*
X035001Y010804D01*
X035021Y010778D01*
X035029Y010754D01*
X035149Y010540D01*
X035400Y010540D01*
X035400Y012818D01*
X035082Y012920D01*
X035129Y012874D01*
X035129Y011867D01*
X035400Y011867D01*
X035400Y011769D02*
X035031Y011769D01*
X035029Y011767D02*
X035129Y011867D01*
X035129Y011966D02*
X035400Y011966D01*
X035400Y012064D02*
X035129Y012064D01*
X035129Y012163D02*
X035400Y012163D01*
X035400Y012261D02*
X035129Y012261D01*
X035129Y012360D02*
X035400Y012360D01*
X035400Y012458D02*
X035129Y012458D01*
X035129Y012557D02*
X035400Y012557D01*
X035400Y012655D02*
X035129Y012655D01*
X035129Y012754D02*
X035400Y012754D01*
X035293Y012852D02*
X035129Y012852D01*
X034100Y013246D02*
X033058Y013246D01*
X033213Y013345D02*
X034023Y013345D01*
X034000Y013443D02*
X033290Y013443D01*
X033330Y013542D02*
X034000Y013542D01*
X034000Y013640D02*
X033387Y013640D01*
X033627Y013739D02*
X034000Y013739D01*
X034000Y013837D02*
X033746Y013837D01*
X033787Y013936D02*
X034000Y013936D01*
X034000Y014034D02*
X033790Y014034D01*
X033789Y014133D02*
X034000Y014133D01*
X034000Y014231D02*
X033788Y014231D01*
X033199Y015019D02*
X033143Y015019D01*
X033198Y015118D02*
X031633Y015118D01*
X031617Y015101D02*
X031749Y015233D01*
X031821Y015406D01*
X031821Y015593D01*
X031749Y015766D01*
X031617Y015898D01*
X031444Y015970D01*
X030657Y015970D01*
X030485Y015898D01*
X030352Y015766D01*
X030281Y015593D01*
X030281Y015406D01*
X030352Y015233D01*
X030485Y015101D01*
X030657Y015030D01*
X031444Y015030D01*
X031617Y015101D01*
X031732Y015216D02*
X033197Y015216D01*
X033196Y015315D02*
X031783Y015315D01*
X031821Y015413D02*
X033195Y015413D01*
X033194Y015512D02*
X031821Y015512D01*
X031814Y015610D02*
X033193Y015610D01*
X033192Y015709D02*
X031773Y015709D01*
X031708Y015807D02*
X033191Y015807D01*
X033190Y015906D02*
X031599Y015906D01*
X031849Y016103D02*
X033188Y016103D01*
X033187Y016201D02*
X032031Y016201D01*
X032214Y016300D02*
X033186Y016300D01*
X033185Y016398D02*
X032397Y016398D01*
X032532Y016497D02*
X033184Y016497D01*
X033183Y016595D02*
X032581Y016595D01*
X032590Y016694D02*
X033182Y016694D01*
X033181Y016792D02*
X032590Y016792D01*
X032590Y016891D02*
X033180Y016891D01*
X033179Y016989D02*
X032590Y016989D01*
X032590Y017088D02*
X033178Y017088D01*
X033177Y017186D02*
X032590Y017186D01*
X032590Y017285D02*
X033176Y017285D01*
X033175Y017383D02*
X032590Y017383D01*
X032590Y017482D02*
X033174Y017482D01*
X033173Y017580D02*
X032590Y017580D01*
X032590Y017679D02*
X033172Y017679D01*
X033171Y017777D02*
X032590Y017777D01*
X032590Y017876D02*
X033170Y017876D01*
X033169Y017974D02*
X032590Y017974D01*
X032590Y018073D02*
X033168Y018073D01*
X033167Y018171D02*
X032590Y018171D01*
X032590Y018270D02*
X033166Y018270D01*
X033165Y018368D02*
X032590Y018368D01*
X032590Y018467D02*
X033164Y018467D01*
X033163Y018565D02*
X032590Y018565D01*
X032590Y018664D02*
X033162Y018664D01*
X033109Y018762D02*
X032590Y018762D01*
X032570Y018861D02*
X033024Y018861D01*
X032940Y018959D02*
X032502Y018959D01*
X032383Y019058D02*
X032855Y019058D01*
X032771Y019156D02*
X032264Y019156D01*
X032145Y019255D02*
X032686Y019255D01*
X032602Y019353D02*
X032025Y019353D01*
X031909Y019452D02*
X032517Y019452D01*
X032198Y019550D02*
X030560Y019550D01*
X030515Y019649D02*
X031008Y019649D01*
X030871Y019747D02*
X030579Y019747D01*
X030661Y019846D02*
X030789Y019846D01*
X030748Y019944D02*
X030702Y019944D01*
X030725Y020001D02*
X030725Y020199D01*
X030775Y020319D01*
X030675Y020319D01*
X030725Y020199D01*
X030725Y020001D01*
X030725Y020043D02*
X030725Y020043D01*
X030725Y020141D02*
X030725Y020141D01*
X030708Y020240D02*
X030742Y020240D01*
X029775Y020319D02*
X029725Y020199D01*
X029725Y020001D01*
X029801Y019817D01*
X029935Y019683D01*
X029935Y019417D01*
X029979Y019311D01*
X030229Y019061D01*
X030311Y018979D01*
X030417Y018935D01*
X031621Y018935D01*
X032010Y018613D01*
X032010Y016848D01*
X031577Y016615D01*
X030352Y016615D01*
X030343Y016621D01*
X030312Y016628D01*
X030283Y016640D01*
X030256Y016640D01*
X030231Y016646D01*
X030199Y016640D01*
X030167Y016640D01*
X030143Y016630D01*
X029484Y016512D01*
X029584Y016611D01*
X029655Y016784D01*
X029655Y016971D01*
X029584Y017144D01*
X029452Y017276D01*
X029279Y017348D01*
X028492Y017348D01*
X028319Y017276D01*
X028187Y017144D01*
X028115Y016971D01*
X028115Y016784D01*
X028178Y016632D01*
X026650Y017553D01*
X026536Y017570D01*
X026532Y017569D01*
X025551Y018102D01*
X025542Y018112D01*
X025508Y018126D01*
X025476Y018143D01*
X025462Y018145D01*
X025450Y018150D01*
X025413Y018150D01*
X025377Y018154D01*
X025364Y018150D01*
X024992Y018150D01*
X024774Y018513D01*
X024762Y018542D01*
X024749Y018555D01*
X024739Y018571D01*
X024714Y018590D01*
X024692Y018612D01*
X024674Y018619D01*
X024659Y018630D01*
X024629Y018638D01*
X024600Y018650D01*
X024581Y018650D01*
X024562Y018655D01*
X024532Y018650D01*
X023856Y018650D01*
X022671Y019208D01*
X022667Y019212D01*
X022626Y019229D01*
X022586Y019247D01*
X022580Y019248D01*
X022575Y019250D01*
X022531Y019250D01*
X022487Y019252D01*
X022481Y019250D01*
X016196Y019250D01*
X016192Y019251D01*
X016146Y019250D01*
X016100Y019250D01*
X016096Y019248D01*
X016092Y019248D01*
X016051Y019229D01*
X016008Y019212D01*
X016005Y019209D01*
X014946Y018730D01*
X014591Y018730D01*
X014599Y018733D01*
X014678Y018773D01*
X014749Y018824D01*
X014811Y018887D01*
X014863Y018958D01*
X014903Y019037D01*
X014931Y019120D01*
X014943Y019202D01*
X014004Y019202D01*
X014004Y019302D01*
X014943Y019302D01*
X014931Y019383D01*
X014903Y019467D01*
X014863Y019545D01*
X014811Y019616D01*
X014749Y019679D01*
X014692Y019720D01*
X021620Y019720D01*
X023766Y018732D01*
X023865Y018728D01*
X023924Y018750D01*
X027606Y018750D01*
X028030Y018496D01*
X029081Y017615D01*
X029108Y017588D01*
X029119Y017584D01*
X029128Y017576D01*
X029165Y017565D01*
X029200Y017550D01*
X029212Y017550D01*
X029223Y017547D01*
X029261Y017550D01*
X029620Y017550D01*
X030026Y017261D01*
X030047Y017241D01*
X030064Y017234D01*
X030079Y017222D01*
X030082Y017222D01*
X030084Y017220D01*
X030112Y017214D01*
X030139Y017203D01*
X030157Y017203D01*
X030521Y017112D01*
X030550Y017100D01*
X030569Y017100D01*
X030588Y017095D01*
X030618Y017100D01*
X031275Y017100D01*
X031367Y017138D01*
X031421Y017193D01*
X031513Y017231D01*
X031594Y017312D01*
X031638Y017418D01*
X031638Y017532D01*
X031594Y017638D01*
X031513Y017719D01*
X031407Y017763D01*
X031293Y017763D01*
X031187Y017719D01*
X031106Y017638D01*
X031090Y017600D01*
X030631Y017600D01*
X030316Y017679D01*
X030225Y017770D01*
X030225Y018525D01*
X030187Y018617D01*
X030117Y018687D01*
X029636Y019168D01*
X029596Y019264D01*
X029515Y019345D01*
X029515Y019683D01*
X029649Y019817D01*
X029725Y020001D01*
X029725Y020199D01*
X029675Y020319D01*
X029775Y020319D01*
X029742Y020240D02*
X029708Y020240D01*
X029725Y020141D02*
X029725Y020141D01*
X029725Y020043D02*
X029725Y020043D01*
X029702Y019944D02*
X029748Y019944D01*
X029789Y019846D02*
X029661Y019846D01*
X029579Y019747D02*
X029871Y019747D01*
X029935Y019649D02*
X029515Y019649D01*
X029515Y019550D02*
X029935Y019550D01*
X029935Y019452D02*
X029515Y019452D01*
X029515Y019353D02*
X029962Y019353D01*
X030035Y019255D02*
X029600Y019255D01*
X029648Y019156D02*
X030134Y019156D01*
X030232Y019058D02*
X029746Y019058D01*
X029845Y018959D02*
X030359Y018959D01*
X030042Y018762D02*
X031830Y018762D01*
X031711Y018861D02*
X029943Y018861D01*
X030140Y018664D02*
X030615Y018664D01*
X030586Y018654D02*
X030525Y018623D01*
X030471Y018583D01*
X030423Y018536D01*
X030383Y018481D01*
X030352Y018421D01*
X030331Y018356D01*
X030323Y018306D01*
X031001Y018306D01*
X031001Y018686D01*
X030717Y018686D01*
X030650Y018675D01*
X030586Y018654D01*
X030452Y018565D02*
X030208Y018565D01*
X030225Y018467D02*
X030376Y018467D01*
X030335Y018368D02*
X030225Y018368D01*
X030225Y018270D02*
X031001Y018270D01*
X031001Y018306D02*
X031001Y018206D01*
X030323Y018206D01*
X030331Y018155D01*
X030352Y018090D01*
X030383Y018030D01*
X030423Y017975D01*
X030471Y017928D01*
X030525Y017888D01*
X030586Y017857D01*
X030650Y017836D01*
X030717Y017826D01*
X031001Y017826D01*
X031001Y018206D01*
X031101Y018206D01*
X031101Y018306D01*
X031001Y018306D01*
X031001Y018368D02*
X031101Y018368D01*
X031101Y018306D02*
X031101Y018686D01*
X031385Y018686D01*
X031451Y018675D01*
X031516Y018654D01*
X031576Y018623D01*
X031631Y018583D01*
X031679Y018536D01*
X031719Y018481D01*
X031749Y018421D01*
X031770Y018356D01*
X031778Y018306D01*
X031101Y018306D01*
X031101Y018270D02*
X032010Y018270D01*
X032010Y018368D02*
X031766Y018368D01*
X031726Y018467D02*
X032010Y018467D01*
X032010Y018565D02*
X031649Y018565D01*
X031486Y018664D02*
X031949Y018664D01*
X031778Y018206D02*
X031101Y018206D01*
X031101Y017826D01*
X031385Y017826D01*
X031451Y017836D01*
X031516Y017857D01*
X031576Y017888D01*
X031631Y017928D01*
X031679Y017975D01*
X031719Y018030D01*
X031749Y018090D01*
X031770Y018155D01*
X031778Y018206D01*
X031773Y018171D02*
X032010Y018171D01*
X032010Y018073D02*
X031740Y018073D01*
X031677Y017974D02*
X032010Y017974D01*
X032010Y017876D02*
X031552Y017876D01*
X031554Y017679D02*
X032010Y017679D01*
X032010Y017777D02*
X030225Y017777D01*
X030225Y017876D02*
X030549Y017876D01*
X030424Y017974D02*
X030225Y017974D01*
X030225Y018073D02*
X030361Y018073D01*
X030329Y018171D02*
X030225Y018171D01*
X030317Y017679D02*
X031146Y017679D01*
X031101Y017876D02*
X031001Y017876D01*
X031001Y017974D02*
X031101Y017974D01*
X031101Y018073D02*
X031001Y018073D01*
X031001Y018171D02*
X031101Y018171D01*
X031101Y018467D02*
X031001Y018467D01*
X031001Y018565D02*
X031101Y018565D01*
X031101Y018664D02*
X031001Y018664D01*
X031442Y019649D02*
X031746Y019649D01*
X032585Y020141D02*
X033312Y020141D01*
X033247Y020240D02*
X032133Y020240D01*
X032829Y020043D02*
X033421Y020043D01*
X033512Y019944D02*
X032900Y019944D01*
X034555Y020240D02*
X035945Y020240D01*
X032010Y017580D02*
X031618Y017580D01*
X031638Y017482D02*
X032010Y017482D01*
X032010Y017383D02*
X031624Y017383D01*
X031567Y017285D02*
X032010Y017285D01*
X032010Y017186D02*
X031415Y017186D01*
X031723Y016694D02*
X029618Y016694D01*
X029655Y016792D02*
X031906Y016792D01*
X032010Y016891D02*
X029655Y016891D01*
X029648Y016989D02*
X032010Y016989D01*
X032010Y017088D02*
X029607Y017088D01*
X029542Y017186D02*
X030225Y017186D01*
X029994Y017285D02*
X029431Y017285D01*
X029717Y017482D02*
X026769Y017482D01*
X026933Y017383D02*
X029855Y017383D01*
X029123Y017580D02*
X026512Y017580D01*
X026331Y017679D02*
X029006Y017679D01*
X028888Y017777D02*
X026150Y017777D01*
X026235Y017857D02*
X026407Y017786D01*
X027194Y017786D01*
X027367Y017857D01*
X027499Y017989D01*
X027571Y018162D01*
X027571Y018349D01*
X027499Y018522D01*
X027367Y018654D01*
X027194Y018726D01*
X026407Y018726D01*
X026235Y018654D01*
X026102Y018522D01*
X026031Y018349D01*
X026031Y018162D01*
X026102Y017989D01*
X026235Y017857D01*
X026216Y017876D02*
X025969Y017876D01*
X026118Y017974D02*
X025787Y017974D01*
X025606Y018073D02*
X026068Y018073D01*
X026031Y018171D02*
X024979Y018171D01*
X024920Y018270D02*
X026031Y018270D01*
X026039Y018368D02*
X024861Y018368D01*
X024802Y018467D02*
X026079Y018467D01*
X026146Y018565D02*
X024743Y018565D01*
X024455Y018073D02*
X023425Y018073D01*
X023380Y018171D02*
X023699Y018171D01*
X023490Y018270D02*
X023334Y018270D01*
X023471Y017974D02*
X024514Y017974D01*
X024573Y017876D02*
X023517Y017876D01*
X023563Y017777D02*
X024630Y017777D01*
X024729Y017679D02*
X023608Y017679D01*
X023654Y017580D02*
X025465Y017580D01*
X025646Y017482D02*
X023700Y017482D01*
X023745Y017383D02*
X025828Y017383D01*
X026009Y017285D02*
X025181Y017285D01*
X025292Y017186D02*
X026190Y017186D01*
X026328Y017088D02*
X025357Y017088D01*
X025398Y016989D02*
X026463Y016989D01*
X026626Y016891D02*
X025405Y016891D01*
X025405Y016792D02*
X026789Y016792D01*
X026953Y016694D02*
X025368Y016694D01*
X025318Y016595D02*
X027116Y016595D01*
X027280Y016497D02*
X025364Y016497D01*
X025462Y016398D02*
X027443Y016398D01*
X027607Y016300D02*
X025561Y016300D01*
X025659Y016201D02*
X027770Y016201D01*
X027933Y016103D02*
X025751Y016103D01*
X025790Y016004D02*
X028097Y016004D01*
X028260Y015906D02*
X027349Y015906D01*
X027458Y015807D02*
X030394Y015807D01*
X030329Y015709D02*
X027523Y015709D01*
X027564Y015610D02*
X030288Y015610D01*
X030281Y015512D02*
X027571Y015512D01*
X027571Y015413D02*
X030281Y015413D01*
X030319Y015315D02*
X027533Y015315D01*
X027482Y015216D02*
X030370Y015216D01*
X030468Y015118D02*
X027383Y015118D01*
X026833Y014625D02*
X031960Y014625D01*
X031960Y014724D02*
X026739Y014724D01*
X026645Y014822D02*
X031996Y014822D01*
X032052Y014921D02*
X026551Y014921D01*
X026457Y015019D02*
X032157Y015019D01*
X031976Y014527D02*
X029436Y014527D01*
X029544Y014428D02*
X032017Y014428D01*
X032102Y014330D02*
X029608Y014330D01*
X028335Y014527D02*
X026927Y014527D01*
X027026Y014428D02*
X028227Y014428D01*
X028163Y014330D02*
X027124Y014330D01*
X027240Y014231D02*
X028122Y014231D01*
X028115Y014133D02*
X027336Y014133D01*
X027402Y014034D02*
X028115Y014034D01*
X028154Y013936D02*
X027467Y013936D01*
X027533Y013837D02*
X028205Y013837D01*
X028304Y013739D02*
X027622Y013739D01*
X027917Y013443D02*
X029324Y013443D01*
X029222Y013345D02*
X028016Y013345D01*
X028103Y013246D02*
X029120Y013246D01*
X029018Y013148D02*
X028140Y013148D01*
X028140Y013049D02*
X028916Y013049D01*
X028814Y012951D02*
X028140Y012951D01*
X028140Y012852D02*
X028712Y012852D01*
X028611Y012754D02*
X028140Y012754D01*
X028140Y012655D02*
X028509Y012655D01*
X028407Y012557D02*
X028140Y012557D01*
X028140Y012458D02*
X028305Y012458D01*
X028203Y012360D02*
X028140Y012360D01*
X027560Y012483D02*
X027397Y012223D01*
X026680Y011864D01*
X026636Y011846D01*
X026628Y011838D01*
X026619Y011834D01*
X026588Y011798D01*
X026554Y011764D01*
X026550Y011754D01*
X026543Y011746D01*
X026528Y011701D01*
X026510Y011658D01*
X026510Y011647D01*
X026507Y011637D01*
X026510Y011590D01*
X026510Y011027D01*
X026504Y010996D01*
X026510Y010970D01*
X026510Y010942D01*
X026522Y010914D01*
X026528Y010883D01*
X026544Y010861D01*
X026554Y010836D01*
X026576Y010814D01*
X026594Y010788D01*
X026616Y010773D01*
X026636Y010754D01*
X026664Y010742D01*
X027102Y010458D01*
X026407Y010458D01*
X026235Y010386D01*
X026102Y010254D01*
X026031Y010081D01*
X026031Y009894D01*
X026102Y009722D01*
X026235Y009589D01*
X026407Y009518D01*
X027194Y009518D01*
X027367Y009589D01*
X027499Y009722D01*
X027510Y009748D01*
X027510Y009620D01*
X027272Y009382D01*
X026056Y008677D01*
X025288Y008245D01*
X025235Y008245D01*
X025334Y008344D01*
X025405Y008516D01*
X025405Y008703D01*
X025334Y008876D01*
X025202Y009008D01*
X025029Y009080D01*
X024242Y009080D01*
X024069Y009008D01*
X023961Y008900D01*
X023440Y008900D01*
X023320Y009020D01*
X022980Y009020D01*
X022740Y008780D01*
X022740Y008532D01*
X022565Y008340D01*
X022460Y008340D01*
X022560Y008440D01*
X022560Y008607D01*
X023040Y009080D01*
X023071Y009104D01*
X023081Y009120D01*
X023095Y009134D01*
X023110Y009170D01*
X023931Y010571D01*
X023946Y010586D01*
X023960Y010621D01*
X023979Y010653D01*
X023982Y010673D01*
X023990Y010692D01*
X023990Y010730D01*
X023995Y010767D01*
X023990Y010787D01*
X023990Y010958D01*
X023970Y011006D01*
X023970Y011067D01*
X024069Y010967D01*
X024242Y010896D01*
X025029Y010896D01*
X025202Y010967D01*
X025334Y011100D01*
X025405Y011272D01*
X025405Y011459D01*
X025334Y011632D01*
X025202Y011764D01*
X025029Y011836D01*
X024242Y011836D01*
X024069Y011764D01*
X023990Y011685D01*
X023995Y011721D01*
X023964Y011833D01*
X023603Y012297D01*
X023596Y012314D01*
X023568Y012342D01*
X023543Y012374D01*
X023527Y012383D01*
X023514Y012396D01*
X023478Y012411D01*
X023443Y012431D01*
X023425Y012433D01*
X023421Y012435D01*
X023560Y012574D01*
X023560Y012914D01*
X023320Y013154D01*
X022980Y013154D01*
X022740Y012914D01*
X022740Y012574D01*
X022874Y012440D01*
X022864Y012440D01*
X022560Y012744D01*
X022560Y012914D01*
X022320Y013154D01*
X022018Y013154D01*
X022080Y013304D01*
X022080Y013770D01*
X024022Y013770D01*
X024069Y013723D01*
X024242Y013652D01*
X025029Y013652D01*
X025202Y013723D01*
X025334Y013855D01*
X025405Y014028D01*
X025405Y014215D01*
X025334Y014388D01*
X025202Y014520D01*
X025029Y014592D01*
X024242Y014592D01*
X024069Y014520D01*
X023979Y014430D01*
X021684Y014430D01*
X021628Y014433D01*
X021619Y014430D01*
X021609Y014430D01*
X021557Y014408D01*
X021504Y014390D01*
X021497Y014383D01*
X021488Y014380D01*
X021448Y014340D01*
X021406Y014302D01*
X021402Y014294D01*
X021395Y014287D01*
X021379Y014247D01*
X021285Y014154D01*
X021220Y013996D01*
X021220Y013912D01*
X021203Y013918D01*
X021097Y013918D01*
X021080Y013912D01*
X021080Y013996D01*
X021015Y014154D01*
X020894Y014275D01*
X020736Y014340D01*
X020564Y014340D01*
X020406Y014275D01*
X020313Y014181D01*
X020325Y014602D01*
X021693Y015352D01*
X021737Y015370D01*
X021750Y015383D01*
X021766Y015392D01*
X021796Y015429D01*
X021830Y015463D01*
X021837Y015480D01*
X021848Y015495D01*
X021862Y015540D01*
X021880Y015584D01*
X021880Y015603D01*
X021885Y015621D01*
X021880Y015668D01*
X021880Y015716D01*
X021873Y015733D01*
X021871Y015751D01*
X021848Y015793D01*
X021830Y015837D01*
X021817Y015850D01*
X021808Y015866D01*
X021771Y015896D01*
X021737Y015930D01*
X021720Y015937D01*
X021705Y015948D01*
X021660Y015962D01*
X021616Y015980D01*
X021597Y015980D01*
X021579Y015985D01*
X021532Y015980D01*
X021484Y015980D01*
X021467Y015973D01*
X021449Y015971D01*
X021407Y015948D01*
X021363Y015930D01*
X021350Y015917D01*
X019861Y015100D01*
X019821Y015085D01*
X019804Y015069D01*
X019784Y015058D01*
X019757Y015024D01*
X019726Y014995D01*
X019716Y014973D01*
X019702Y014955D01*
X019690Y014914D01*
X019672Y014875D01*
X019671Y014852D01*
X019665Y014829D01*
X019670Y014787D01*
X019625Y013168D01*
X019543Y013107D01*
X019570Y013173D01*
X019570Y013960D01*
X019498Y014133D01*
X019366Y014265D01*
X019193Y014337D01*
X019007Y014337D01*
X018834Y014265D01*
X018702Y014133D01*
X018630Y013960D01*
X018630Y013173D01*
X018702Y013000D01*
X018822Y012880D01*
X018378Y012880D01*
X018498Y013000D01*
X018570Y013173D01*
X018570Y013960D01*
X018498Y014133D01*
X018366Y014265D01*
X018193Y014337D01*
X018007Y014337D01*
X017834Y014265D01*
X017702Y014133D01*
X017630Y013960D01*
X017630Y013173D01*
X017702Y013000D01*
X017822Y012880D01*
X017378Y012880D01*
X017498Y013000D01*
X017570Y013173D01*
X017570Y013960D01*
X017498Y014133D01*
X017366Y014265D01*
X017193Y014337D01*
X017007Y014337D01*
X016834Y014265D01*
X016702Y014133D01*
X016666Y014047D01*
X016460Y014111D01*
X016410Y014131D01*
X016397Y014131D01*
X016385Y014135D01*
X016332Y014130D01*
X015679Y014119D01*
X015635Y014100D01*
X014758Y014100D01*
X014893Y014235D01*
X014984Y014455D01*
X014984Y014694D01*
X014893Y014914D01*
X014787Y015020D01*
X014864Y015020D01*
X019015Y016720D01*
X022316Y016720D01*
X022437Y016770D01*
X022530Y016863D01*
X022543Y016896D01*
X023040Y015637D01*
X023058Y015583D01*
X023064Y015576D01*
X023067Y015568D01*
X023107Y015527D01*
X023144Y015484D01*
X023152Y015480D01*
X023158Y015473D01*
X023210Y015451D01*
X023705Y015204D01*
X023713Y015195D01*
X023763Y015175D01*
X023811Y015150D01*
X023823Y015150D01*
X023834Y015145D01*
X023888Y015145D01*
X023942Y015141D01*
X023954Y015145D01*
X024166Y015145D01*
X024287Y015195D01*
X024380Y015288D01*
X024430Y015409D01*
X024430Y015541D01*
X024380Y015662D01*
X024287Y015755D01*
X024166Y015805D01*
X023978Y015805D01*
X023611Y015989D01*
X022980Y017588D01*
X022980Y017591D01*
X022956Y017649D01*
X022933Y017707D01*
X022931Y017709D01*
X022930Y017712D01*
X022885Y017756D01*
X022842Y017802D01*
X022839Y017803D01*
X022837Y017805D01*
X022779Y017829D01*
X022721Y017854D01*
X022718Y017854D01*
X022716Y017855D01*
X022653Y017855D01*
X022590Y017856D01*
X022587Y017855D01*
X018819Y017855D01*
X018772Y017860D01*
X018754Y017855D01*
X018734Y017855D01*
X018691Y017837D01*
X014645Y016675D01*
X014504Y016733D01*
X013405Y016733D01*
X013184Y016642D01*
X013016Y016473D01*
X012924Y016253D01*
X012924Y016014D01*
X013016Y015794D01*
X013149Y015660D01*
X012813Y015660D01*
X012759Y015681D01*
X012628Y015679D01*
X012508Y015626D01*
X011040Y014100D01*
X006097Y014100D01*
X006232Y014235D01*
X006263Y014310D01*
X006517Y014310D01*
X006554Y014305D01*
X006574Y014310D01*
X006595Y014310D01*
X006630Y014324D01*
X006666Y014334D01*
X006682Y014346D01*
X006702Y014354D01*
X006728Y014381D01*
X011784Y018190D01*
X012683Y018190D01*
X012779Y018230D01*
X013254Y018230D01*
X013184Y018201D01*
X013016Y018032D01*
X012924Y017812D01*
X012924Y017573D01*
X013016Y017353D01*
X013184Y017184D01*
X013405Y017093D01*
X014504Y017093D01*
X014724Y017184D01*
X014893Y017353D01*
X014897Y017363D01*
X015491Y017363D01*
X015540Y017358D01*
X015556Y017363D01*
X015573Y017363D01*
X015619Y017381D01*
X015666Y017396D01*
X015679Y017406D01*
X015694Y017413D01*
X015729Y017448D01*
X016368Y017970D01*
X022833Y017970D01*
X023709Y016083D01*
X023729Y016036D01*
X023734Y016031D01*
X023736Y016026D01*
X023774Y015991D01*
X023811Y015954D01*
X023817Y015952D01*
X023821Y015947D01*
X023870Y015930D01*
X023917Y015910D01*
X023924Y015910D01*
X023930Y015908D01*
X023981Y015910D01*
X024355Y015910D01*
X024555Y015710D01*
X024670Y015557D01*
X024677Y015539D01*
X024704Y015511D01*
X024728Y015480D01*
X024744Y015470D01*
X025735Y014457D01*
X025735Y013410D01*
X025697Y013323D01*
X025694Y013192D01*
X025741Y013070D01*
X026031Y012766D01*
X026031Y012650D01*
X026102Y012477D01*
X026235Y012345D01*
X026407Y012274D01*
X027194Y012274D01*
X027367Y012345D01*
X027499Y012477D01*
X027560Y012624D01*
X027560Y012483D01*
X027544Y012458D02*
X027480Y012458D01*
X027483Y012360D02*
X027381Y012360D01*
X027421Y012261D02*
X023631Y012261D01*
X023708Y012163D02*
X027277Y012163D01*
X027080Y012064D02*
X023784Y012064D01*
X023861Y011966D02*
X026883Y011966D01*
X026686Y011867D02*
X023937Y011867D01*
X023982Y011769D02*
X024080Y011769D01*
X023274Y011776D02*
X022980Y011776D01*
X022740Y011536D01*
X022740Y011196D01*
X022980Y010956D01*
X023320Y010956D01*
X023430Y011066D01*
X023430Y011006D01*
X023410Y010958D01*
X023410Y010829D01*
X022619Y009480D01*
X022618Y009478D01*
X022690Y009653D01*
X022690Y009847D01*
X022615Y010028D01*
X022478Y010165D01*
X022297Y010240D01*
X022103Y010240D01*
X021922Y010165D01*
X021785Y010028D01*
X021710Y009847D01*
X021710Y009653D01*
X021785Y009472D01*
X021922Y009335D01*
X022103Y009260D01*
X022297Y009260D01*
X022468Y009331D01*
X022153Y009020D01*
X021980Y009020D01*
X021740Y008780D01*
X021740Y008477D01*
X021708Y008490D01*
X017633Y008490D01*
X017599Y008495D01*
X017576Y008490D01*
X017552Y008490D01*
X017520Y008477D01*
X016685Y008278D01*
X016694Y008287D01*
X016738Y008393D01*
X016738Y008507D01*
X016694Y008613D01*
X016613Y008694D01*
X016507Y008738D01*
X016393Y008738D01*
X016301Y008700D01*
X015549Y008700D01*
X015457Y008738D01*
X015343Y008738D01*
X015237Y008694D01*
X015156Y008613D01*
X015112Y008507D01*
X015112Y008393D01*
X015156Y008287D01*
X015237Y008206D01*
X015343Y008162D01*
X015457Y008162D01*
X015549Y008200D01*
X016301Y008200D01*
X016322Y008191D01*
X016316Y008190D01*
X015692Y008190D01*
X015676Y008195D01*
X015634Y008190D01*
X015592Y008190D01*
X015577Y008184D01*
X015561Y008182D01*
X015525Y008162D01*
X015486Y008146D01*
X015474Y008134D01*
X014913Y007827D01*
X014855Y007827D01*
X014758Y007787D01*
X014623Y007787D01*
X014724Y007830D01*
X014893Y007998D01*
X014984Y008219D01*
X014984Y008458D01*
X014893Y008678D01*
X014739Y008832D01*
X014792Y008810D01*
X020306Y008810D01*
X020319Y008806D01*
X020363Y008810D01*
X020408Y008810D01*
X020420Y008815D01*
X020434Y008816D01*
X020473Y008837D01*
X020514Y008854D01*
X020524Y008864D01*
X020536Y008870D01*
X020564Y008904D01*
X020596Y008936D01*
X020601Y008948D01*
X021793Y010379D01*
X021802Y010385D01*
X021830Y010423D01*
X021860Y010459D01*
X021863Y010469D01*
X022210Y010956D01*
X022320Y010956D01*
X022560Y011196D01*
X022560Y011536D01*
X022320Y011776D01*
X021980Y011776D01*
X021740Y011536D01*
X021740Y011295D01*
X021617Y011123D01*
X021711Y012413D01*
X021713Y012418D01*
X021713Y012438D01*
X021718Y012511D01*
X021713Y012528D01*
X021713Y012532D01*
X021705Y012552D01*
X021682Y012621D01*
X021671Y012634D01*
X021669Y012638D01*
X021655Y012653D01*
X021607Y012708D01*
X021592Y012716D01*
X021588Y012719D01*
X021569Y012727D01*
X021504Y012760D01*
X021487Y012761D01*
X021482Y012763D01*
X021462Y012763D01*
X021389Y012768D01*
X021372Y012763D01*
X021368Y012763D01*
X021348Y012755D01*
X021279Y012732D01*
X021266Y012721D01*
X021262Y012719D01*
X021247Y012705D01*
X021192Y012657D01*
X021184Y012642D01*
X021181Y012638D01*
X021173Y012619D01*
X021140Y012554D01*
X021139Y012537D01*
X021137Y012532D01*
X021137Y012512D01*
X021043Y011218D01*
X019843Y009840D01*
X019548Y009840D01*
X019551Y009847D01*
X019559Y009857D01*
X019573Y009900D01*
X019590Y009942D01*
X019590Y009955D01*
X019945Y011065D01*
X020478Y011420D01*
X020516Y011420D01*
X020637Y011470D01*
X020730Y011563D01*
X020780Y011684D01*
X020780Y012481D01*
X021073Y012614D01*
X021078Y012615D01*
X021125Y012638D01*
X021173Y012660D01*
X021176Y012664D01*
X021181Y012666D01*
X021216Y012706D01*
X021251Y012744D01*
X021253Y012749D01*
X021470Y012999D01*
X021564Y012960D01*
X021736Y012960D01*
X021822Y012996D01*
X021740Y012914D01*
X021740Y012574D01*
X021980Y012334D01*
X022150Y012334D01*
X022579Y011904D01*
X022686Y011860D01*
X023208Y011860D01*
X023274Y011776D01*
X022973Y011769D02*
X022327Y011769D01*
X022426Y011670D02*
X022874Y011670D01*
X022776Y011572D02*
X022524Y011572D01*
X022560Y011473D02*
X022740Y011473D01*
X022740Y011375D02*
X022560Y011375D01*
X022560Y011276D02*
X022740Y011276D01*
X022758Y011178D02*
X022542Y011178D01*
X022443Y011079D02*
X022857Y011079D01*
X022955Y010981D02*
X022345Y010981D01*
X022158Y010882D02*
X023410Y010882D01*
X023419Y010981D02*
X023345Y010981D01*
X023384Y010784D02*
X022087Y010784D01*
X022017Y010685D02*
X023326Y010685D01*
X023268Y010587D02*
X021947Y010587D01*
X021876Y010488D02*
X023210Y010488D01*
X023153Y010390D02*
X021806Y010390D01*
X021720Y010291D02*
X023095Y010291D01*
X023037Y010193D02*
X022412Y010193D01*
X022549Y010094D02*
X022979Y010094D01*
X022922Y009996D02*
X022629Y009996D01*
X022669Y009897D02*
X022864Y009897D01*
X022806Y009799D02*
X022690Y009799D01*
X022690Y009700D02*
X022748Y009700D01*
X022691Y009602D02*
X022669Y009602D01*
X022633Y009503D02*
X022628Y009503D01*
X022443Y009306D02*
X022409Y009306D01*
X022343Y009208D02*
X020817Y009208D01*
X020899Y009306D02*
X021991Y009306D01*
X021853Y009405D02*
X020981Y009405D01*
X021063Y009503D02*
X021772Y009503D01*
X021731Y009602D02*
X021145Y009602D01*
X021228Y009700D02*
X021710Y009700D01*
X021710Y009799D02*
X021310Y009799D01*
X021392Y009897D02*
X021731Y009897D01*
X021771Y009996D02*
X021474Y009996D01*
X021556Y010094D02*
X021851Y010094D01*
X021988Y010193D02*
X021638Y010193D01*
X020751Y010882D02*
X019887Y010882D01*
X019918Y010981D02*
X020836Y010981D01*
X020922Y011079D02*
X019966Y011079D01*
X020114Y011178D02*
X021008Y011178D01*
X021047Y011276D02*
X020262Y011276D01*
X020410Y011375D02*
X021054Y011375D01*
X021061Y011473D02*
X020640Y011473D01*
X020733Y011572D02*
X021069Y011572D01*
X021076Y011670D02*
X020774Y011670D01*
X020780Y011769D02*
X021083Y011769D01*
X021090Y011867D02*
X020780Y011867D01*
X020780Y011966D02*
X021097Y011966D01*
X021104Y012064D02*
X020780Y012064D01*
X020780Y012163D02*
X021112Y012163D01*
X021119Y012261D02*
X020780Y012261D01*
X020780Y012360D02*
X021126Y012360D01*
X021133Y012458D02*
X020780Y012458D01*
X020945Y012557D02*
X021141Y012557D01*
X021162Y012655D02*
X021191Y012655D01*
X021257Y012754D02*
X021344Y012754D01*
X021342Y012852D02*
X021740Y012852D01*
X021740Y012754D02*
X021517Y012754D01*
X021653Y012655D02*
X021740Y012655D01*
X021757Y012557D02*
X021703Y012557D01*
X021715Y012458D02*
X021856Y012458D01*
X021954Y012360D02*
X021707Y012360D01*
X021700Y012261D02*
X022223Y012261D01*
X022321Y012163D02*
X021693Y012163D01*
X021686Y012064D02*
X022420Y012064D01*
X022518Y011966D02*
X021679Y011966D01*
X021672Y011867D02*
X022669Y011867D01*
X022846Y012458D02*
X022856Y012458D01*
X022757Y012557D02*
X022747Y012557D01*
X022740Y012655D02*
X022649Y012655D01*
X022560Y012754D02*
X022740Y012754D01*
X022740Y012852D02*
X022560Y012852D01*
X022523Y012951D02*
X022777Y012951D01*
X022876Y013049D02*
X022424Y013049D01*
X022326Y013148D02*
X022974Y013148D01*
X023326Y013148D02*
X025711Y013148D01*
X025695Y013246D02*
X022056Y013246D01*
X022080Y013345D02*
X025706Y013345D01*
X025735Y013443D02*
X022080Y013443D01*
X022080Y013542D02*
X025735Y013542D01*
X025735Y013640D02*
X022080Y013640D01*
X022080Y013739D02*
X024054Y013739D01*
X023424Y013049D02*
X025761Y013049D01*
X025855Y012951D02*
X023523Y012951D01*
X023560Y012852D02*
X025949Y012852D01*
X026031Y012754D02*
X023560Y012754D01*
X023560Y012655D02*
X026031Y012655D01*
X026070Y012557D02*
X023543Y012557D01*
X023444Y012458D02*
X026122Y012458D01*
X026220Y012360D02*
X023554Y012360D01*
X025191Y011769D02*
X026558Y011769D01*
X026515Y011670D02*
X025296Y011670D01*
X025359Y011572D02*
X026510Y011572D01*
X026510Y011473D02*
X025400Y011473D01*
X025405Y011375D02*
X026510Y011375D01*
X026510Y011276D02*
X025405Y011276D01*
X025366Y011178D02*
X026510Y011178D01*
X026510Y011079D02*
X025313Y011079D01*
X025215Y010981D02*
X026508Y010981D01*
X026529Y010882D02*
X023990Y010882D01*
X023991Y010784D02*
X026601Y010784D01*
X026752Y010685D02*
X023987Y010685D01*
X023946Y010587D02*
X026904Y010587D01*
X027056Y010488D02*
X023883Y010488D01*
X023825Y010390D02*
X026242Y010390D01*
X026139Y010291D02*
X023767Y010291D01*
X023709Y010193D02*
X026077Y010193D01*
X026036Y010094D02*
X023652Y010094D01*
X023594Y009996D02*
X026031Y009996D01*
X026031Y009897D02*
X023536Y009897D01*
X023478Y009799D02*
X026070Y009799D01*
X026124Y009700D02*
X023421Y009700D01*
X023363Y009602D02*
X026222Y009602D01*
X026801Y009109D02*
X023074Y009109D01*
X023132Y009208D02*
X026971Y009208D01*
X027141Y009306D02*
X023190Y009306D01*
X023247Y009405D02*
X027294Y009405D01*
X027393Y009503D02*
X023305Y009503D01*
X023329Y009011D02*
X024075Y009011D01*
X023973Y008912D02*
X023428Y008912D01*
X022971Y009011D02*
X022969Y009011D01*
X022872Y008912D02*
X022870Y008912D01*
X022774Y008814D02*
X022770Y008814D01*
X022740Y008715D02*
X022670Y008715D01*
X022740Y008617D02*
X022570Y008617D01*
X022560Y008518D02*
X022727Y008518D01*
X022637Y008420D02*
X022540Y008420D01*
X021740Y008518D02*
X016734Y008518D01*
X016738Y008420D02*
X017280Y008420D01*
X016866Y008321D02*
X016708Y008321D01*
X016691Y008617D02*
X021740Y008617D01*
X021740Y008715D02*
X016563Y008715D01*
X016337Y008715D02*
X015513Y008715D01*
X015287Y008715D02*
X014856Y008715D01*
X014918Y008617D02*
X015159Y008617D01*
X015116Y008518D02*
X014959Y008518D01*
X014984Y008420D02*
X015112Y008420D01*
X015142Y008321D02*
X014984Y008321D01*
X014984Y008223D02*
X015220Y008223D01*
X015275Y008026D02*
X014904Y008026D01*
X014945Y008124D02*
X015455Y008124D01*
X015095Y007927D02*
X014822Y007927D01*
X014915Y007829D02*
X014722Y007829D01*
X014758Y008814D02*
X014784Y008814D01*
X015733Y010907D02*
X016686Y010290D01*
X019088Y010290D01*
X019419Y011323D01*
X019427Y011363D01*
X019436Y011377D01*
X019441Y011393D01*
X019468Y011425D01*
X019491Y011459D01*
X019505Y011469D01*
X019516Y011481D01*
X019553Y011500D01*
X019822Y011680D01*
X015572Y011680D01*
X015521Y011674D01*
X015499Y011680D01*
X015476Y011680D01*
X015429Y011700D01*
X014732Y011896D01*
X014749Y011883D01*
X014811Y011821D01*
X014863Y011750D01*
X014903Y011671D01*
X014931Y011587D01*
X014943Y011506D01*
X014004Y011506D01*
X014004Y011406D01*
X014943Y011406D01*
X014931Y011325D01*
X014903Y011241D01*
X014863Y011163D01*
X014811Y011091D01*
X014749Y011029D01*
X014678Y010977D01*
X014663Y010970D01*
X015519Y010970D01*
X015546Y010976D01*
X015576Y010970D01*
X015608Y010970D01*
X015633Y010960D01*
X015659Y010955D01*
X015685Y010938D01*
X015714Y010926D01*
X015733Y010907D01*
X015772Y010882D02*
X019278Y010882D01*
X019309Y010981D02*
X014682Y010981D01*
X014799Y011079D02*
X019341Y011079D01*
X019372Y011178D02*
X014871Y011178D01*
X014915Y011276D02*
X019404Y011276D01*
X019434Y011375D02*
X014938Y011375D01*
X014933Y011572D02*
X019659Y011572D01*
X019807Y011670D02*
X014904Y011670D01*
X014850Y011769D02*
X015184Y011769D01*
X014834Y011867D02*
X014766Y011867D01*
X014004Y011473D02*
X019509Y011473D01*
X019246Y010784D02*
X015924Y010784D01*
X016076Y010685D02*
X019215Y010685D01*
X019183Y010587D02*
X016228Y010587D01*
X016380Y010488D02*
X019152Y010488D01*
X019120Y010390D02*
X016532Y010390D01*
X016684Y010291D02*
X019089Y010291D01*
X019635Y010094D02*
X020064Y010094D01*
X019978Y009996D02*
X019603Y009996D01*
X019572Y009897D02*
X019893Y009897D01*
X019666Y010193D02*
X020150Y010193D01*
X020236Y010291D02*
X019698Y010291D01*
X019729Y010390D02*
X020322Y010390D01*
X020407Y010488D02*
X019761Y010488D01*
X019792Y010587D02*
X020493Y010587D01*
X020579Y010685D02*
X019824Y010685D01*
X019855Y010784D02*
X020665Y010784D01*
X021621Y011178D02*
X021656Y011178D01*
X021629Y011276D02*
X021726Y011276D01*
X021740Y011375D02*
X021636Y011375D01*
X021643Y011473D02*
X021740Y011473D01*
X021776Y011572D02*
X021650Y011572D01*
X021657Y011670D02*
X021874Y011670D01*
X021973Y011769D02*
X021664Y011769D01*
X021777Y012951D02*
X021428Y012951D01*
X021650Y013650D02*
X021150Y013650D01*
X020650Y013650D01*
X021080Y013936D02*
X021220Y013936D01*
X021236Y014034D02*
X021064Y014034D01*
X021023Y014133D02*
X021277Y014133D01*
X021363Y014231D02*
X020937Y014231D01*
X020761Y014330D02*
X021437Y014330D01*
X021605Y014428D02*
X020320Y014428D01*
X020317Y014330D02*
X020539Y014330D01*
X020363Y014231D02*
X020314Y014231D01*
X020323Y014527D02*
X024085Y014527D01*
X024308Y015216D02*
X024993Y015216D01*
X025089Y015118D02*
X021265Y015118D01*
X021086Y015019D02*
X025185Y015019D01*
X025282Y014921D02*
X020906Y014921D01*
X020726Y014822D02*
X025378Y014822D01*
X025474Y014724D02*
X020547Y014724D01*
X020367Y014625D02*
X025570Y014625D01*
X025667Y014527D02*
X025186Y014527D01*
X025294Y014428D02*
X025735Y014428D01*
X025735Y014330D02*
X025358Y014330D01*
X025399Y014231D02*
X025735Y014231D01*
X025735Y014133D02*
X025405Y014133D01*
X025405Y014034D02*
X025735Y014034D01*
X025735Y013936D02*
X025367Y013936D01*
X025315Y013837D02*
X025735Y013837D01*
X025735Y013739D02*
X025217Y013739D01*
X023680Y015216D02*
X021445Y015216D01*
X021625Y015315D02*
X023483Y015315D01*
X023286Y015413D02*
X021783Y015413D01*
X021853Y015512D02*
X023120Y015512D01*
X023049Y015610D02*
X021882Y015610D01*
X021880Y015709D02*
X023012Y015709D01*
X022973Y015807D02*
X021842Y015807D01*
X021761Y015906D02*
X022934Y015906D01*
X022895Y016004D02*
X017267Y016004D01*
X017027Y015906D02*
X021330Y015906D01*
X021150Y015807D02*
X016786Y015807D01*
X016546Y015709D02*
X020970Y015709D01*
X020791Y015610D02*
X016305Y015610D01*
X016065Y015512D02*
X020611Y015512D01*
X020432Y015413D02*
X015824Y015413D01*
X015584Y015315D02*
X020252Y015315D01*
X020072Y015216D02*
X015344Y015216D01*
X015103Y015118D02*
X019893Y015118D01*
X019751Y015019D02*
X014788Y015019D01*
X014887Y014921D02*
X019691Y014921D01*
X019666Y014822D02*
X014931Y014822D01*
X014972Y014724D02*
X019668Y014724D01*
X019665Y014625D02*
X014984Y014625D01*
X014984Y014527D02*
X019662Y014527D01*
X019660Y014428D02*
X014973Y014428D01*
X014932Y014330D02*
X016990Y014330D01*
X016800Y014231D02*
X014889Y014231D01*
X014791Y014133D02*
X016363Y014133D01*
X016392Y014133D02*
X016701Y014133D01*
X017210Y014330D02*
X017990Y014330D01*
X017800Y014231D02*
X017400Y014231D01*
X017499Y014133D02*
X017701Y014133D01*
X017661Y014034D02*
X017539Y014034D01*
X017570Y013936D02*
X017630Y013936D01*
X017630Y013837D02*
X017570Y013837D01*
X017570Y013739D02*
X017630Y013739D01*
X017630Y013640D02*
X017570Y013640D01*
X017570Y013542D02*
X017630Y013542D01*
X017630Y013443D02*
X017570Y013443D01*
X017570Y013345D02*
X017630Y013345D01*
X017630Y013246D02*
X017570Y013246D01*
X017559Y013148D02*
X017641Y013148D01*
X017681Y013049D02*
X017519Y013049D01*
X017449Y012951D02*
X017751Y012951D01*
X018449Y012951D02*
X018751Y012951D01*
X018681Y013049D02*
X018519Y013049D01*
X018559Y013148D02*
X018641Y013148D01*
X018630Y013246D02*
X018570Y013246D01*
X018570Y013345D02*
X018630Y013345D01*
X018630Y013443D02*
X018570Y013443D01*
X018570Y013542D02*
X018630Y013542D01*
X018630Y013640D02*
X018570Y013640D01*
X018570Y013739D02*
X018630Y013739D01*
X018630Y013837D02*
X018570Y013837D01*
X018570Y013936D02*
X018630Y013936D01*
X018661Y014034D02*
X018539Y014034D01*
X018499Y014133D02*
X018701Y014133D01*
X018800Y014231D02*
X018400Y014231D01*
X018210Y014330D02*
X018990Y014330D01*
X019210Y014330D02*
X019657Y014330D01*
X019654Y014231D02*
X019400Y014231D01*
X019499Y014133D02*
X019651Y014133D01*
X019649Y014034D02*
X019539Y014034D01*
X019570Y013936D02*
X019646Y013936D01*
X019643Y013837D02*
X019570Y013837D01*
X019570Y013739D02*
X019640Y013739D01*
X019638Y013640D02*
X019570Y013640D01*
X019570Y013542D02*
X019635Y013542D01*
X019632Y013443D02*
X019570Y013443D01*
X019570Y013345D02*
X019629Y013345D01*
X019627Y013246D02*
X019570Y013246D01*
X019559Y013148D02*
X019597Y013148D01*
X023981Y010981D02*
X024056Y010981D01*
X022243Y009109D02*
X020735Y009109D01*
X020653Y009011D02*
X021971Y009011D01*
X021872Y008912D02*
X020572Y008912D01*
X020416Y008814D02*
X021774Y008814D01*
X023075Y007642D02*
X023170Y007705D01*
X025289Y007705D01*
X025377Y007680D01*
X025492Y007694D01*
X026294Y008145D01*
X026296Y008145D01*
X026344Y008173D01*
X026392Y008201D01*
X026394Y008202D01*
X027342Y008752D01*
X027304Y008714D01*
X027260Y008608D01*
X027260Y008492D01*
X027304Y008386D01*
X027386Y008304D01*
X027492Y008260D01*
X027610Y008260D01*
X027610Y008242D01*
X027617Y008225D01*
X027710Y007482D01*
X027710Y006971D01*
X027424Y006812D01*
X027386Y006796D01*
X027374Y006784D01*
X027359Y006775D01*
X027333Y006743D01*
X027304Y006714D01*
X027298Y006699D01*
X027287Y006685D01*
X027276Y006646D01*
X027260Y006608D01*
X027260Y006591D01*
X027255Y006574D01*
X027260Y006533D01*
X027260Y004964D01*
X027256Y004921D01*
X027256Y004920D01*
X027194Y004946D01*
X026407Y004946D01*
X026235Y004874D01*
X026166Y004806D01*
X023400Y004806D01*
X023320Y004886D01*
X022980Y004886D01*
X022740Y004646D01*
X022740Y004339D01*
X022676Y004180D01*
X022434Y004180D01*
X022560Y004306D01*
X022560Y004646D01*
X022440Y004766D01*
X022440Y005564D01*
X022560Y005684D01*
X022560Y006024D01*
X022444Y006140D01*
X022841Y006140D01*
X022841Y006125D01*
X022740Y006024D01*
X022740Y005684D01*
X022980Y005444D01*
X023320Y005444D01*
X023397Y005521D01*
X024002Y005522D01*
X024069Y005455D01*
X024242Y005384D01*
X025029Y005384D01*
X025202Y005455D01*
X025334Y005588D01*
X025405Y005760D01*
X027260Y005760D01*
X027260Y005662D02*
X025364Y005662D01*
X025405Y005760D02*
X025405Y005947D01*
X025334Y006120D01*
X025202Y006252D01*
X025029Y006324D01*
X024242Y006324D01*
X024069Y006252D01*
X023999Y006182D01*
X023421Y006181D01*
X023421Y006376D01*
X023377Y006483D01*
X023296Y006564D01*
X023225Y006594D01*
X023231Y006603D01*
X023238Y006632D01*
X023250Y006660D01*
X023250Y006680D01*
X023284Y006822D01*
X023320Y006822D01*
X023394Y006896D01*
X025983Y006902D01*
X026166Y006902D01*
X026235Y006833D01*
X026407Y006762D01*
X027194Y006762D01*
X027367Y006833D01*
X027499Y006966D01*
X027571Y007138D01*
X027571Y007325D01*
X027499Y007498D01*
X027367Y007630D01*
X027194Y007702D01*
X026407Y007702D01*
X026235Y007630D01*
X026166Y007562D01*
X026047Y007562D01*
X026047Y007562D01*
X025981Y007562D01*
X025916Y007562D01*
X025916Y007562D01*
X023406Y007556D01*
X023320Y007642D01*
X023075Y007642D01*
X023330Y007632D02*
X026237Y007632D01*
X025906Y007927D02*
X027654Y007927D01*
X027642Y008026D02*
X026081Y008026D01*
X026256Y008124D02*
X027630Y008124D01*
X027617Y008223D02*
X026429Y008223D01*
X026599Y008321D02*
X027369Y008321D01*
X027290Y008420D02*
X026769Y008420D01*
X026938Y008518D02*
X027260Y008518D01*
X027264Y008617D02*
X027108Y008617D01*
X027278Y008715D02*
X027305Y008715D01*
X026632Y009011D02*
X025196Y009011D01*
X025298Y008912D02*
X026462Y008912D01*
X026292Y008814D02*
X025360Y008814D01*
X025401Y008715D02*
X026122Y008715D01*
X025949Y008617D02*
X025405Y008617D01*
X025405Y008518D02*
X025774Y008518D01*
X025599Y008420D02*
X025365Y008420D01*
X025311Y008321D02*
X025424Y008321D01*
X025731Y007829D02*
X027667Y007829D01*
X027679Y007730D02*
X025556Y007730D01*
X026224Y006844D02*
X023341Y006844D01*
X023266Y006745D02*
X027335Y006745D01*
X027377Y006844D02*
X027481Y006844D01*
X027476Y006942D02*
X027658Y006942D01*
X027710Y007041D02*
X027530Y007041D01*
X027571Y007139D02*
X027710Y007139D01*
X027710Y007238D02*
X027571Y007238D01*
X027566Y007336D02*
X027710Y007336D01*
X027710Y007435D02*
X027526Y007435D01*
X027464Y007533D02*
X027704Y007533D01*
X027691Y007632D02*
X027364Y007632D01*
X028214Y008124D02*
X029370Y008124D01*
X029463Y008223D02*
X029469Y008223D01*
X029561Y008321D02*
X029567Y008321D01*
X029615Y008420D02*
X029666Y008420D01*
X029655Y008518D02*
X029764Y008518D01*
X029800Y008617D02*
X029655Y008617D01*
X029651Y008715D02*
X029800Y008715D01*
X029800Y008814D02*
X029610Y008814D01*
X029548Y008912D02*
X029800Y008912D01*
X029736Y009011D02*
X029446Y009011D01*
X029637Y009109D02*
X028469Y009109D01*
X028545Y009208D02*
X029539Y009208D01*
X029500Y009306D02*
X028622Y009306D01*
X028699Y009405D02*
X029500Y009405D01*
X029500Y009503D02*
X028775Y009503D01*
X028852Y009602D02*
X029500Y009602D01*
X029500Y009700D02*
X028890Y009700D01*
X028890Y009799D02*
X029500Y009799D01*
X029500Y009897D02*
X028890Y009897D01*
X028890Y009996D02*
X029500Y009996D01*
X029500Y010094D02*
X028890Y010094D01*
X028890Y010193D02*
X029500Y010193D01*
X029500Y010291D02*
X028890Y010291D01*
X028894Y010390D02*
X029500Y010390D01*
X029500Y010488D02*
X028878Y010488D01*
X028824Y010587D02*
X029536Y010587D01*
X029631Y010685D02*
X028695Y010685D01*
X028548Y010784D02*
X029730Y010784D01*
X029828Y010882D02*
X028400Y010882D01*
X028306Y010981D02*
X028252Y010981D01*
X028207Y011079D02*
X028104Y011079D01*
X028080Y011178D02*
X028155Y011178D01*
X028115Y011276D02*
X028080Y011276D01*
X028080Y011375D02*
X028115Y011375D01*
X028111Y011473D02*
X028121Y011473D01*
X028529Y011867D02*
X031187Y011867D01*
X031258Y011966D02*
X028630Y011966D01*
X029441Y011769D02*
X031115Y011769D01*
X031016Y011670D02*
X029546Y011670D01*
X029609Y011572D02*
X030918Y011572D01*
X030819Y011473D02*
X029650Y011473D01*
X029655Y011375D02*
X030721Y011375D01*
X030622Y011276D02*
X029655Y011276D01*
X029616Y011178D02*
X030524Y011178D01*
X030425Y011079D02*
X029563Y011079D01*
X029465Y010981D02*
X029953Y010981D01*
X030640Y010587D02*
X031793Y010587D01*
X031760Y010488D02*
X030142Y010488D01*
X030043Y010390D02*
X030492Y010390D01*
X030389Y010291D02*
X030000Y010291D01*
X030000Y010193D02*
X030327Y010193D01*
X030286Y010094D02*
X030000Y010094D01*
X030000Y009996D02*
X030281Y009996D01*
X030281Y009897D02*
X030000Y009897D01*
X030000Y009799D02*
X030320Y009799D01*
X030374Y009700D02*
X030000Y009700D01*
X030000Y009602D02*
X030472Y009602D01*
X030148Y009306D02*
X031760Y009306D01*
X031760Y009208D02*
X030246Y009208D01*
X030296Y009109D02*
X031760Y009109D01*
X031760Y009011D02*
X030300Y009011D01*
X030300Y008912D02*
X031760Y008912D01*
X031760Y008814D02*
X030300Y008814D01*
X030300Y008715D02*
X031760Y008715D01*
X031760Y008617D02*
X030300Y008617D01*
X030300Y008518D02*
X031760Y008518D01*
X031760Y008420D02*
X030300Y008420D01*
X030267Y008321D02*
X031760Y008321D01*
X030350Y008223D02*
X030176Y008223D01*
X030214Y008124D02*
X030078Y008124D01*
X030115Y008026D02*
X029979Y008026D01*
X030017Y007927D02*
X029881Y007927D01*
X029918Y007829D02*
X029782Y007829D01*
X029820Y007730D02*
X029684Y007730D01*
X029721Y007632D02*
X029585Y007632D01*
X029623Y007533D02*
X029487Y007533D01*
X029524Y007435D02*
X029388Y007435D01*
X029426Y007336D02*
X029290Y007336D01*
X029327Y007238D02*
X029191Y007238D01*
X029229Y007139D02*
X029093Y007139D01*
X029130Y007041D02*
X028994Y007041D01*
X029032Y006942D02*
X028896Y006942D01*
X028933Y006844D02*
X028800Y006844D01*
X028800Y006745D02*
X028875Y006745D01*
X028860Y006647D02*
X028778Y006647D01*
X028702Y006548D02*
X028878Y006548D01*
X028940Y006450D02*
X028603Y006450D01*
X028505Y006351D02*
X029535Y006351D01*
X029451Y006253D02*
X029798Y006253D01*
X030000Y006154D02*
X029550Y006154D01*
X029611Y006056D02*
X030000Y006056D01*
X030000Y005957D02*
X029651Y005957D01*
X029655Y005859D02*
X030000Y005859D01*
X029932Y005563D02*
X029559Y005563D01*
X029461Y005465D02*
X029847Y005465D01*
X029763Y005366D02*
X028388Y005366D01*
X028310Y005465D02*
X028289Y005465D01*
X028212Y005563D02*
X028200Y005563D01*
X028486Y005268D02*
X029679Y005268D01*
X029594Y005169D02*
X028585Y005169D01*
X028683Y005071D02*
X029510Y005071D01*
X029427Y004972D02*
X028782Y004972D01*
X028869Y004874D02*
X029397Y004874D01*
X029400Y004775D02*
X028900Y004775D01*
X028900Y004677D02*
X029400Y004677D01*
X029400Y004578D02*
X028900Y004578D01*
X028900Y004480D02*
X029400Y004480D01*
X029400Y004381D02*
X028900Y004381D01*
X028900Y004283D02*
X029400Y004283D01*
X029400Y004184D02*
X028900Y004184D01*
X028894Y004086D02*
X029400Y004086D01*
X029400Y003987D02*
X028841Y003987D01*
X028742Y003889D02*
X029399Y003889D01*
X029403Y003790D02*
X028644Y003790D01*
X028545Y003692D02*
X029452Y003692D01*
X029563Y003593D02*
X028447Y003593D01*
X029454Y003495D02*
X029674Y003495D01*
X029784Y003396D02*
X029552Y003396D01*
X030297Y002608D02*
X028787Y002608D01*
X028623Y002510D02*
X030383Y002510D01*
X031579Y001842D02*
X031646Y001842D01*
X031646Y001775D01*
X031579Y001775D01*
X031579Y001842D01*
X031809Y001842D02*
X032076Y002109D01*
X032076Y001842D01*
X032009Y001775D01*
X031876Y001775D01*
X031809Y001842D01*
X031809Y002109D01*
X031876Y002175D01*
X032009Y002175D01*
X032076Y002109D01*
X032500Y002116D02*
X034712Y002116D01*
X034576Y002017D02*
X032500Y002017D01*
X032500Y001919D02*
X034305Y001919D01*
X034495Y001919D02*
X034512Y001919D01*
X034129Y001820D02*
X032500Y001820D01*
X032500Y001722D02*
X034048Y001722D01*
X034008Y001623D02*
X032500Y001623D01*
X032500Y001525D02*
X033976Y001525D01*
X033807Y001426D02*
X032500Y001426D01*
X032515Y001328D02*
X033729Y001328D01*
X033688Y001229D02*
X032526Y001229D01*
X032526Y001131D02*
X033682Y001131D01*
X032306Y001225D02*
X032306Y001025D01*
X032173Y001025D02*
X032173Y001225D01*
X032239Y001292D01*
X032306Y001225D01*
X032173Y001225D02*
X032106Y001292D01*
X032039Y001292D01*
X032039Y001025D01*
X032500Y002214D02*
X035095Y002214D01*
X035864Y003199D02*
X035945Y003199D01*
X034487Y004972D02*
X034474Y004972D01*
X029272Y008026D02*
X028227Y008026D01*
X028239Y007927D02*
X029173Y007927D01*
X029075Y007829D02*
X028251Y007829D01*
X028264Y007730D02*
X028976Y007730D01*
X028878Y007632D02*
X028276Y007632D01*
X028290Y007533D02*
X028779Y007533D01*
X028681Y007435D02*
X028290Y007435D01*
X028290Y007336D02*
X028582Y007336D01*
X028484Y007238D02*
X028290Y007238D01*
X028290Y007139D02*
X028385Y007139D01*
X028317Y007041D02*
X028290Y007041D01*
X028290Y006942D02*
X028300Y006942D01*
X027276Y006647D02*
X023244Y006647D01*
X023312Y006548D02*
X027258Y006548D01*
X027260Y006450D02*
X023391Y006450D01*
X023421Y006351D02*
X027260Y006351D01*
X027260Y006253D02*
X025201Y006253D01*
X025300Y006154D02*
X027260Y006154D01*
X027260Y006056D02*
X025361Y006056D01*
X025401Y005957D02*
X027260Y005957D01*
X027260Y005859D02*
X025405Y005859D01*
X025309Y005563D02*
X027260Y005563D01*
X027260Y005465D02*
X025211Y005465D01*
X024060Y005465D02*
X023340Y005465D01*
X022960Y005465D02*
X022440Y005465D01*
X022440Y005563D02*
X022861Y005563D01*
X022763Y005662D02*
X022537Y005662D01*
X022560Y005760D02*
X022740Y005760D01*
X022740Y005859D02*
X022560Y005859D01*
X022560Y005957D02*
X022740Y005957D01*
X022772Y006056D02*
X022528Y006056D01*
X023421Y006253D02*
X024070Y006253D01*
X022440Y005366D02*
X027260Y005366D01*
X027260Y005268D02*
X022440Y005268D01*
X022440Y005169D02*
X027260Y005169D01*
X027260Y005071D02*
X022440Y005071D01*
X022440Y004972D02*
X027260Y004972D01*
X027570Y004381D02*
X027641Y004381D01*
X027672Y004283D02*
X027529Y004283D01*
X027574Y004184D02*
X027473Y004184D01*
X027475Y004086D02*
X027375Y004086D01*
X027377Y003987D02*
X023310Y003987D01*
X023271Y003889D02*
X027278Y003889D01*
X027180Y003790D02*
X023231Y003790D01*
X023192Y003692D02*
X027081Y003692D01*
X026983Y003593D02*
X023110Y003593D01*
X023349Y004086D02*
X026227Y004086D01*
X026234Y004874D02*
X023332Y004874D01*
X022968Y004874D02*
X022440Y004874D01*
X022440Y004775D02*
X022869Y004775D01*
X022771Y004677D02*
X022529Y004677D01*
X022560Y004578D02*
X022740Y004578D01*
X022740Y004480D02*
X022560Y004480D01*
X022560Y004381D02*
X022740Y004381D01*
X022717Y004283D02*
X022536Y004283D01*
X022438Y004184D02*
X022678Y004184D01*
X028202Y008223D02*
X028308Y008223D01*
X028210Y008321D02*
X028190Y008321D01*
X027491Y009602D02*
X027379Y009602D01*
X027478Y009700D02*
X027510Y009700D01*
X030000Y009503D02*
X031760Y009503D01*
X031760Y009405D02*
X030049Y009405D01*
X031629Y009602D02*
X031760Y009602D01*
X031760Y009700D02*
X031728Y009700D01*
X031712Y010291D02*
X031760Y010291D01*
X031760Y010390D02*
X031609Y010390D01*
X031834Y010685D02*
X030739Y010685D01*
X030837Y010784D02*
X031875Y010784D01*
X031916Y010882D02*
X030936Y010882D01*
X031034Y010981D02*
X031957Y010981D01*
X031998Y011079D02*
X031133Y011079D01*
X031231Y011178D02*
X032039Y011178D01*
X032116Y011276D02*
X031330Y011276D01*
X031428Y011375D02*
X035400Y011375D01*
X035400Y011473D02*
X031534Y011473D01*
X031679Y011572D02*
X035400Y011572D01*
X035400Y011670D02*
X031729Y011670D01*
X031738Y011769D02*
X033469Y011769D01*
X033471Y011767D02*
X035029Y011767D01*
X035400Y011276D02*
X034192Y011276D01*
X034374Y011178D02*
X035400Y011178D01*
X035400Y011079D02*
X034557Y011079D01*
X034740Y010981D02*
X035400Y010981D01*
X035400Y010882D02*
X034922Y010882D01*
X035017Y010784D02*
X035400Y010784D01*
X035400Y010685D02*
X035067Y010685D01*
X035123Y010587D02*
X035400Y010587D01*
X033471Y011767D02*
X033371Y011867D01*
X027560Y012557D02*
X027532Y012557D01*
X024896Y015315D02*
X024391Y015315D01*
X024430Y015413D02*
X024800Y015413D01*
X024704Y015512D02*
X024430Y015512D01*
X024401Y015610D02*
X024630Y015610D01*
X024556Y015709D02*
X024333Y015709D01*
X024458Y015807D02*
X023974Y015807D01*
X023777Y015906D02*
X024359Y015906D01*
X023760Y016004D02*
X023605Y016004D01*
X023566Y016103D02*
X023701Y016103D01*
X023655Y016201D02*
X023527Y016201D01*
X023488Y016300D02*
X023609Y016300D01*
X023563Y016398D02*
X023449Y016398D01*
X023410Y016497D02*
X023518Y016497D01*
X023472Y016595D02*
X023371Y016595D01*
X023333Y016694D02*
X023426Y016694D01*
X023380Y016792D02*
X023294Y016792D01*
X023255Y016891D02*
X023335Y016891D01*
X023289Y016989D02*
X023216Y016989D01*
X023243Y017088D02*
X023177Y017088D01*
X023197Y017186D02*
X023138Y017186D01*
X023152Y017285D02*
X023100Y017285D01*
X023106Y017383D02*
X023061Y017383D01*
X023060Y017482D02*
X023022Y017482D01*
X023015Y017580D02*
X022983Y017580D01*
X022969Y017679D02*
X022944Y017679D01*
X022923Y017777D02*
X022865Y017777D01*
X022877Y017876D02*
X016252Y017876D01*
X016132Y017777D02*
X018482Y017777D01*
X018139Y017679D02*
X016012Y017679D01*
X015891Y017580D02*
X017796Y017580D01*
X017453Y017482D02*
X015771Y017482D01*
X015624Y017383D02*
X017110Y017383D01*
X016767Y017285D02*
X014825Y017285D01*
X014726Y017186D02*
X016424Y017186D01*
X016081Y017088D02*
X010321Y017088D01*
X010452Y017186D02*
X013182Y017186D01*
X013084Y017285D02*
X010583Y017285D01*
X010713Y017383D02*
X013003Y017383D01*
X012962Y017482D02*
X010844Y017482D01*
X010975Y017580D02*
X012924Y017580D01*
X012924Y017679D02*
X011106Y017679D01*
X011236Y017777D02*
X012924Y017777D01*
X012951Y017876D02*
X011367Y017876D01*
X011498Y017974D02*
X012992Y017974D01*
X013056Y018073D02*
X011629Y018073D01*
X011759Y018171D02*
X013154Y018171D01*
X013317Y018730D02*
X012779Y018730D01*
X012683Y018770D01*
X011708Y018770D01*
X011671Y018775D01*
X011651Y018770D01*
X011630Y018770D01*
X011595Y018756D01*
X011559Y018746D01*
X011542Y018734D01*
X011523Y018726D01*
X011497Y018699D01*
X006440Y014890D01*
X006242Y014890D01*
X006232Y014914D01*
X006063Y015083D01*
X005842Y015174D01*
X004744Y015174D01*
X004523Y015083D01*
X004354Y014914D01*
X004263Y014694D01*
X004263Y014455D01*
X004354Y014235D01*
X004489Y014100D01*
X004264Y014100D01*
X004216Y014120D01*
X003948Y014120D01*
X003854Y014215D01*
X003696Y014280D01*
X003004Y014280D01*
X002846Y014215D01*
X002725Y014094D01*
X002660Y013936D01*
X002270Y013936D01*
X002270Y014034D02*
X002701Y014034D01*
X002660Y013936D02*
X002660Y013764D01*
X002725Y013606D01*
X002846Y013485D01*
X002900Y013463D01*
X002900Y013237D01*
X002846Y013215D01*
X002812Y013180D01*
X002784Y013180D01*
X002663Y013130D01*
X002570Y013037D01*
X002563Y013030D01*
X002470Y012937D01*
X002420Y012816D01*
X002420Y012580D01*
X002309Y012470D01*
X002270Y012375D01*
X002270Y015198D01*
X003962Y016914D01*
X004014Y016965D01*
X004014Y016967D01*
X004015Y016968D01*
X004042Y017035D01*
X004070Y017101D01*
X004070Y017103D01*
X004070Y017104D01*
X004070Y017176D01*
X004070Y018427D01*
X004490Y018776D01*
X004523Y018743D01*
X004744Y018652D01*
X005842Y018652D01*
X006063Y018743D01*
X006232Y018912D01*
X006323Y019132D01*
X006323Y019371D01*
X006232Y019591D01*
X006063Y019760D01*
X005842Y019852D01*
X004744Y019852D01*
X004523Y019760D01*
X004354Y019591D01*
X004352Y019587D01*
X004318Y019572D01*
X004270Y019556D01*
X004252Y019541D01*
X004231Y019532D01*
X004196Y019495D01*
X003506Y018920D01*
X003490Y018914D01*
X003450Y018873D01*
X003407Y018837D01*
X003399Y018822D01*
X003386Y018810D01*
X003365Y018757D01*
X003338Y018707D01*
X003337Y018690D01*
X003330Y018674D01*
X003330Y018617D01*
X003325Y018560D01*
X003330Y018544D01*
X003330Y017327D01*
X001638Y015611D01*
X001586Y015560D01*
X001586Y015558D01*
X001585Y015557D01*
X001558Y015490D01*
X001530Y015424D01*
X001530Y015422D01*
X001530Y015421D01*
X001530Y015349D01*
X001530Y012375D01*
X001491Y012470D01*
X001345Y012616D01*
X001153Y012695D01*
X000947Y012695D01*
X000755Y012616D01*
X000609Y012470D01*
X000550Y012327D01*
X000550Y019023D01*
X000609Y018880D01*
X000755Y018734D01*
X000947Y018655D01*
X001153Y018655D01*
X001345Y018734D01*
X001491Y018880D01*
X001570Y019072D01*
X001570Y019278D01*
X001491Y019470D01*
X001345Y019616D01*
X001153Y019695D01*
X000947Y019695D01*
X000755Y019616D01*
X000609Y019470D01*
X000550Y019327D01*
X000550Y020319D01*
X002205Y020319D01*
X002205Y020284D01*
X002248Y020182D01*
X002326Y020103D01*
X002382Y020080D01*
X002405Y020024D01*
X002483Y019946D01*
X002586Y019904D01*
X002683Y019904D01*
X002720Y019867D01*
X002822Y019825D01*
X002933Y019825D01*
X003035Y019867D01*
X003072Y019904D01*
X003169Y019904D01*
X003272Y019946D01*
X003350Y020024D01*
X003373Y020080D01*
X003429Y020103D01*
X003508Y020182D01*
X003550Y020284D01*
X003550Y020319D01*
X010190Y020319D01*
X010176Y020312D01*
X010129Y020291D01*
X010125Y020287D01*
X010119Y020284D01*
X010085Y020245D01*
X007925Y017965D01*
X006259Y017965D01*
X006232Y018032D01*
X006063Y018201D01*
X005842Y018293D01*
X004744Y018293D01*
X004523Y018201D01*
X004354Y018032D01*
X004263Y017812D01*
X004263Y017573D01*
X004354Y017353D01*
X004523Y017184D01*
X004744Y017093D01*
X005842Y017093D01*
X006063Y017184D01*
X006232Y017353D01*
X006245Y017385D01*
X007996Y017385D01*
X008000Y017384D01*
X008054Y017385D01*
X008108Y017385D01*
X008111Y017387D01*
X008115Y017387D01*
X008165Y017409D01*
X008214Y017429D01*
X008217Y017432D01*
X008221Y017434D01*
X008258Y017473D01*
X008296Y017511D01*
X008297Y017514D01*
X010475Y019813D01*
X010681Y019916D01*
X010713Y019953D01*
X010837Y019990D01*
X012613Y019990D01*
X012144Y019440D01*
X011367Y019440D01*
X011327Y019445D01*
X011310Y019440D01*
X011292Y019440D01*
X011255Y019425D01*
X011216Y019414D01*
X011202Y019403D01*
X011186Y019396D01*
X011157Y019367D01*
X007525Y016515D01*
X006190Y016515D01*
X006063Y016642D01*
X005842Y016733D01*
X004744Y016733D01*
X004523Y016642D01*
X004354Y016473D01*
X004263Y016253D01*
X004263Y016014D01*
X004354Y015794D01*
X004523Y015625D01*
X004744Y015533D01*
X005842Y015533D01*
X006063Y015625D01*
X006232Y015794D01*
X006290Y015935D01*
X007608Y015935D01*
X007648Y015930D01*
X007665Y015935D01*
X007683Y015935D01*
X007720Y015950D01*
X007759Y015961D01*
X007773Y015972D01*
X007789Y015979D01*
X007818Y016008D01*
X011450Y018860D01*
X012283Y018860D01*
X012389Y018904D01*
X012471Y018986D01*
X012515Y019092D01*
X012515Y019105D01*
X013040Y019720D01*
X013216Y019720D01*
X013160Y019679D01*
X013097Y019616D01*
X013045Y019545D01*
X013005Y019467D01*
X012978Y019383D01*
X012965Y019302D01*
X013904Y019302D01*
X013904Y019202D01*
X012965Y019202D01*
X012978Y019120D01*
X013005Y019037D01*
X013045Y018958D01*
X013097Y018887D01*
X013160Y018824D01*
X013231Y018773D01*
X013309Y018733D01*
X013317Y018730D01*
X013252Y018762D02*
X012702Y018762D01*
X012444Y018959D02*
X013045Y018959D01*
X012999Y019058D02*
X012501Y019058D01*
X012559Y019156D02*
X012972Y019156D01*
X012973Y019353D02*
X012727Y019353D01*
X012643Y019255D02*
X013904Y019255D01*
X014004Y019255D02*
X022631Y019255D01*
X022781Y019156D02*
X022845Y019156D01*
X022990Y019058D02*
X023059Y019058D01*
X023199Y018959D02*
X023273Y018959D01*
X023408Y018861D02*
X023487Y018861D01*
X023618Y018762D02*
X023701Y018762D01*
X023827Y018664D02*
X026258Y018664D01*
X027344Y018664D02*
X027750Y018664D01*
X027914Y018565D02*
X027456Y018565D01*
X027522Y018467D02*
X028064Y018467D01*
X028182Y018368D02*
X027563Y018368D01*
X027571Y018270D02*
X028300Y018270D01*
X028417Y018171D02*
X027571Y018171D01*
X027534Y018073D02*
X028535Y018073D01*
X028653Y017974D02*
X027484Y017974D01*
X027386Y017876D02*
X028770Y017876D01*
X028340Y017285D02*
X027096Y017285D01*
X027259Y017186D02*
X028229Y017186D01*
X028164Y017088D02*
X027423Y017088D01*
X027586Y016989D02*
X028123Y016989D01*
X028115Y016891D02*
X027750Y016891D01*
X027913Y016792D02*
X028115Y016792D01*
X028076Y016694D02*
X028153Y016694D01*
X029568Y016595D02*
X029949Y016595D01*
X029939Y016004D02*
X033189Y016004D01*
X030503Y015906D02*
X029390Y015906D01*
X026253Y015906D02*
X025790Y015906D01*
X025826Y015807D02*
X026144Y015807D01*
X026079Y015709D02*
X025866Y015709D01*
X025905Y015610D02*
X026038Y015610D01*
X026031Y015512D02*
X025987Y015512D01*
X023914Y017088D02*
X023883Y017088D01*
X023837Y017186D02*
X023979Y017186D01*
X024090Y017285D02*
X023791Y017285D01*
X022584Y016792D02*
X022459Y016792D01*
X022541Y016891D02*
X022545Y016891D01*
X022623Y016694D02*
X018950Y016694D01*
X018710Y016595D02*
X022662Y016595D01*
X022701Y016497D02*
X018469Y016497D01*
X018229Y016398D02*
X022740Y016398D01*
X022779Y016300D02*
X017989Y016300D01*
X017748Y016201D02*
X022817Y016201D01*
X022856Y016103D02*
X017508Y016103D01*
X015738Y016989D02*
X010190Y016989D01*
X010060Y016891D02*
X015395Y016891D01*
X015052Y016792D02*
X009929Y016792D01*
X009798Y016694D02*
X013309Y016694D01*
X013137Y016595D02*
X009667Y016595D01*
X009537Y016497D02*
X013039Y016497D01*
X012984Y016398D02*
X009406Y016398D01*
X009275Y016300D02*
X012944Y016300D01*
X012924Y016201D02*
X009144Y016201D01*
X009014Y016103D02*
X012924Y016103D01*
X012929Y016004D02*
X008883Y016004D01*
X008998Y015906D02*
X008752Y015906D01*
X008621Y015807D02*
X008932Y015807D01*
X008912Y015757D02*
X008912Y015643D01*
X008950Y015551D01*
X008950Y015350D01*
X008988Y015258D01*
X009838Y014408D01*
X009908Y014338D01*
X010000Y014300D01*
X010901Y014300D01*
X010993Y014262D01*
X011107Y014262D01*
X011213Y014306D01*
X011294Y014387D01*
X011338Y014493D01*
X011338Y014607D01*
X011294Y014713D01*
X011213Y014794D01*
X011107Y014838D01*
X010993Y014838D01*
X010901Y014800D01*
X010154Y014800D01*
X009450Y015504D01*
X009450Y015551D01*
X009488Y015643D01*
X009488Y015757D01*
X009444Y015863D01*
X009363Y015944D01*
X009257Y015988D01*
X009143Y015988D01*
X009037Y015944D01*
X008956Y015863D01*
X008912Y015757D01*
X008912Y015709D02*
X008491Y015709D01*
X008360Y015610D02*
X008925Y015610D01*
X008950Y015512D02*
X008229Y015512D01*
X008099Y015413D02*
X008950Y015413D01*
X008965Y015315D02*
X007968Y015315D01*
X007837Y015216D02*
X009030Y015216D01*
X009129Y015118D02*
X007706Y015118D01*
X007576Y015019D02*
X009227Y015019D01*
X009326Y014921D02*
X007445Y014921D01*
X007314Y014822D02*
X009424Y014822D01*
X009523Y014724D02*
X007183Y014724D01*
X007053Y014625D02*
X009621Y014625D01*
X009720Y014527D02*
X006922Y014527D01*
X006791Y014428D02*
X009818Y014428D01*
X009929Y014330D02*
X006650Y014330D01*
X006228Y014231D02*
X011166Y014231D01*
X011237Y014330D02*
X011261Y014330D01*
X011311Y014428D02*
X011356Y014428D01*
X011338Y014527D02*
X011450Y014527D01*
X011545Y014625D02*
X011331Y014625D01*
X011284Y014724D02*
X011640Y014724D01*
X011735Y014822D02*
X011146Y014822D01*
X010954Y014822D02*
X010132Y014822D01*
X010033Y014921D02*
X011829Y014921D01*
X011924Y015019D02*
X009935Y015019D01*
X009836Y015118D02*
X012019Y015118D01*
X012113Y015216D02*
X009738Y015216D01*
X009639Y015315D02*
X012208Y015315D01*
X012303Y015413D02*
X009541Y015413D01*
X009450Y015512D02*
X012398Y015512D01*
X012492Y015610D02*
X009475Y015610D01*
X009488Y015709D02*
X013101Y015709D01*
X013010Y015807D02*
X009468Y015807D01*
X009402Y015906D02*
X012969Y015906D01*
X012840Y015019D02*
X013120Y015019D01*
X013022Y014921D02*
X012745Y014921D01*
X012650Y014822D02*
X012977Y014822D01*
X012937Y014724D02*
X012555Y014724D01*
X012461Y014625D02*
X012924Y014625D01*
X012924Y014527D02*
X012366Y014527D01*
X012271Y014428D02*
X012936Y014428D01*
X012976Y014330D02*
X012177Y014330D01*
X012082Y014231D02*
X013019Y014231D01*
X013118Y014133D02*
X012915Y014133D01*
X012349Y014133D02*
X011987Y014133D01*
X011892Y014034D02*
X012211Y014034D01*
X012122Y013936D02*
X011798Y013936D01*
X011703Y013837D02*
X012032Y013837D01*
X011942Y013739D02*
X011608Y013739D01*
X011514Y013640D02*
X011852Y013640D01*
X011762Y013542D02*
X011419Y013542D01*
X011583Y013345D02*
X006236Y013345D01*
X006277Y013246D02*
X011493Y013246D01*
X011403Y013148D02*
X006318Y013148D01*
X006323Y013049D02*
X011313Y013049D01*
X011223Y012951D02*
X006323Y012951D01*
X006305Y012852D02*
X011133Y012852D01*
X011092Y012754D02*
X006264Y012754D01*
X006211Y012655D02*
X011079Y012655D01*
X011080Y012557D02*
X006113Y012557D01*
X005945Y012458D02*
X011080Y012458D01*
X011080Y012360D02*
X004776Y012360D01*
X004678Y012261D02*
X011080Y012261D01*
X011080Y012163D02*
X004579Y012163D01*
X004138Y012655D02*
X003995Y012655D01*
X004035Y012754D02*
X004237Y012754D01*
X004281Y012852D02*
X004040Y012852D01*
X004034Y012951D02*
X004263Y012951D01*
X004263Y013049D02*
X003993Y013049D01*
X003921Y013148D02*
X004268Y013148D01*
X004309Y013246D02*
X003850Y013246D01*
X003850Y013345D02*
X004350Y013345D01*
X004442Y013443D02*
X003850Y013443D01*
X003350Y013350D02*
X003350Y013750D01*
X003350Y013350D02*
X003350Y012850D01*
X003925Y012557D02*
X004040Y012557D01*
X003941Y012458D02*
X003787Y012458D01*
X003843Y012360D02*
X003236Y012360D01*
X003270Y012261D02*
X003744Y012261D01*
X003660Y012163D02*
X003270Y012163D01*
X003267Y012064D02*
X003620Y012064D01*
X003620Y011966D02*
X003226Y011966D01*
X003177Y011867D02*
X003620Y011867D01*
X003620Y011769D02*
X003080Y011769D01*
X003080Y011670D02*
X003620Y011670D01*
X003620Y011572D02*
X003080Y011572D01*
X003087Y011473D02*
X003620Y011473D01*
X003620Y011375D02*
X003186Y011375D01*
X003230Y011276D02*
X003620Y011276D01*
X003620Y011178D02*
X003270Y011178D01*
X003270Y011079D02*
X003620Y011079D01*
X003620Y010981D02*
X003270Y010981D01*
X003233Y010882D02*
X003620Y010882D01*
X003620Y010784D02*
X003192Y010784D01*
X003095Y010685D02*
X003568Y010685D01*
X003470Y010587D02*
X002930Y010587D01*
X002570Y010587D02*
X002270Y010587D01*
X002270Y010685D02*
X002405Y010685D01*
X002308Y010784D02*
X002270Y010784D01*
X002270Y010488D02*
X003371Y010488D01*
X003273Y010390D02*
X002270Y010390D01*
X002270Y010291D02*
X003174Y010291D01*
X003076Y010193D02*
X002270Y010193D01*
X002270Y010094D02*
X002977Y010094D01*
X002932Y009996D02*
X002270Y009996D01*
X002270Y009897D02*
X002920Y009897D01*
X002920Y009799D02*
X002270Y009799D01*
X002270Y009700D02*
X002920Y009700D01*
X002920Y009602D02*
X002270Y009602D01*
X002270Y009503D02*
X002885Y009503D01*
X002870Y009405D02*
X002270Y009405D01*
X002270Y009306D02*
X002882Y009306D01*
X002926Y009208D02*
X002270Y009208D01*
X002270Y009109D02*
X003040Y009109D01*
X003548Y009306D02*
X004722Y009306D01*
X004507Y009405D02*
X003580Y009405D01*
X003580Y009503D02*
X004409Y009503D01*
X004336Y009602D02*
X003580Y009602D01*
X003580Y009700D02*
X004295Y009700D01*
X004263Y009799D02*
X003615Y009799D01*
X003714Y009897D02*
X004263Y009897D01*
X004263Y009996D02*
X003812Y009996D01*
X003911Y010094D02*
X004295Y010094D01*
X004336Y010193D02*
X004009Y010193D01*
X004108Y010291D02*
X004408Y010291D01*
X004507Y010390D02*
X004206Y010390D01*
X004261Y010488D02*
X004721Y010488D01*
X002304Y012458D02*
X002270Y012458D01*
X002270Y012557D02*
X002396Y012557D01*
X002420Y012655D02*
X002270Y012655D01*
X002270Y012754D02*
X002420Y012754D01*
X002435Y012852D02*
X002270Y012852D01*
X002270Y012951D02*
X002484Y012951D01*
X002563Y013030D02*
X002563Y013030D01*
X002570Y013037D02*
X002570Y013037D01*
X002582Y013049D02*
X002270Y013049D01*
X002270Y013148D02*
X002706Y013148D01*
X002900Y013246D02*
X002270Y013246D01*
X002270Y013345D02*
X002900Y013345D01*
X002900Y013443D02*
X002270Y013443D01*
X002270Y013542D02*
X002790Y013542D01*
X002712Y013640D02*
X002270Y013640D01*
X002270Y013739D02*
X002671Y013739D01*
X002660Y013837D02*
X002270Y013837D01*
X002270Y014133D02*
X002764Y014133D01*
X002886Y014231D02*
X002270Y014231D01*
X002270Y014330D02*
X004315Y014330D01*
X004274Y014428D02*
X002270Y014428D01*
X002270Y014527D02*
X004263Y014527D01*
X004263Y014625D02*
X002270Y014625D01*
X002270Y014724D02*
X004275Y014724D01*
X004316Y014822D02*
X002270Y014822D01*
X002270Y014921D02*
X004361Y014921D01*
X004459Y015019D02*
X002270Y015019D01*
X002270Y015118D02*
X004606Y015118D01*
X004559Y015610D02*
X002676Y015610D01*
X002579Y015512D02*
X007265Y015512D01*
X007135Y015413D02*
X002482Y015413D01*
X002385Y015315D02*
X007004Y015315D01*
X006873Y015216D02*
X002288Y015216D01*
X001530Y015216D02*
X000550Y015216D01*
X000550Y015118D02*
X001530Y015118D01*
X001530Y015019D02*
X000550Y015019D01*
X000550Y014921D02*
X001530Y014921D01*
X001530Y014822D02*
X000550Y014822D01*
X000550Y014724D02*
X001530Y014724D01*
X001530Y014625D02*
X000550Y014625D01*
X000550Y014527D02*
X001530Y014527D01*
X001530Y014428D02*
X000550Y014428D01*
X000550Y014330D02*
X001530Y014330D01*
X001530Y014231D02*
X000550Y014231D01*
X000550Y014133D02*
X001530Y014133D01*
X001530Y014034D02*
X000550Y014034D01*
X000550Y013936D02*
X001530Y013936D01*
X001530Y013837D02*
X000550Y013837D01*
X000550Y013739D02*
X001530Y013739D01*
X001530Y013640D02*
X000550Y013640D01*
X000550Y013542D02*
X001530Y013542D01*
X001530Y013443D02*
X000550Y013443D01*
X000550Y013345D02*
X001530Y013345D01*
X001530Y013246D02*
X000550Y013246D01*
X000550Y013148D02*
X001530Y013148D01*
X001530Y013049D02*
X000550Y013049D01*
X000550Y012951D02*
X001530Y012951D01*
X001530Y012852D02*
X000550Y012852D01*
X000550Y012754D02*
X001530Y012754D01*
X001530Y012655D02*
X001250Y012655D01*
X001404Y012557D02*
X001530Y012557D01*
X001530Y012458D02*
X001496Y012458D01*
X000850Y012655D02*
X000550Y012655D01*
X000550Y012557D02*
X000696Y012557D01*
X000604Y012458D02*
X000550Y012458D01*
X000550Y012360D02*
X000564Y012360D01*
X003814Y014231D02*
X004358Y014231D01*
X004456Y014133D02*
X003936Y014133D01*
X006130Y014133D02*
X011072Y014133D01*
X011673Y013443D02*
X006144Y013443D01*
X006225Y014921D02*
X006481Y014921D01*
X006612Y015019D02*
X006127Y015019D01*
X005980Y015118D02*
X006742Y015118D01*
X007396Y015610D02*
X006027Y015610D01*
X006147Y015709D02*
X007527Y015709D01*
X007658Y015807D02*
X006237Y015807D01*
X006278Y015906D02*
X007788Y015906D01*
X007814Y016004D02*
X007919Y016004D01*
X007939Y016103D02*
X008050Y016103D01*
X008064Y016201D02*
X008181Y016201D01*
X008189Y016300D02*
X008311Y016300D01*
X008315Y016398D02*
X008442Y016398D01*
X008440Y016497D02*
X008573Y016497D01*
X008566Y016595D02*
X008704Y016595D01*
X008691Y016694D02*
X008834Y016694D01*
X008817Y016792D02*
X008965Y016792D01*
X008942Y016891D02*
X009096Y016891D01*
X009068Y016989D02*
X009226Y016989D01*
X009193Y017088D02*
X009357Y017088D01*
X009318Y017186D02*
X009488Y017186D01*
X009444Y017285D02*
X009619Y017285D01*
X009569Y017383D02*
X009749Y017383D01*
X009695Y017482D02*
X009880Y017482D01*
X009820Y017580D02*
X010011Y017580D01*
X009946Y017679D02*
X010142Y017679D01*
X010071Y017777D02*
X010272Y017777D01*
X010197Y017876D02*
X010403Y017876D01*
X010322Y017974D02*
X010534Y017974D01*
X010447Y018073D02*
X010665Y018073D01*
X010573Y018171D02*
X010795Y018171D01*
X010698Y018270D02*
X010926Y018270D01*
X010824Y018368D02*
X011057Y018368D01*
X010949Y018467D02*
X011188Y018467D01*
X011075Y018565D02*
X011318Y018565D01*
X011200Y018664D02*
X011449Y018664D01*
X011326Y018762D02*
X011611Y018762D01*
X012284Y018861D02*
X013123Y018861D01*
X013000Y019452D02*
X012811Y019452D01*
X012895Y019550D02*
X013049Y019550D01*
X012979Y019649D02*
X013129Y019649D01*
X012574Y019944D02*
X010705Y019944D01*
X010540Y019846D02*
X012490Y019846D01*
X012406Y019747D02*
X010412Y019747D01*
X010319Y019649D02*
X012322Y019649D01*
X012238Y019550D02*
X010226Y019550D01*
X010133Y019452D02*
X012154Y019452D01*
X011139Y019353D02*
X010039Y019353D01*
X009946Y019255D02*
X011014Y019255D01*
X010888Y019156D02*
X009853Y019156D01*
X009759Y019058D02*
X010763Y019058D01*
X010637Y018959D02*
X009666Y018959D01*
X009573Y018861D02*
X010512Y018861D01*
X010386Y018762D02*
X009479Y018762D01*
X009386Y018664D02*
X010261Y018664D01*
X010135Y018565D02*
X009293Y018565D01*
X009199Y018467D02*
X010010Y018467D01*
X009885Y018368D02*
X009106Y018368D01*
X009013Y018270D02*
X009759Y018270D01*
X009634Y018171D02*
X008919Y018171D01*
X008826Y018073D02*
X009508Y018073D01*
X009383Y017974D02*
X008733Y017974D01*
X008639Y017876D02*
X009257Y017876D01*
X009132Y017777D02*
X008546Y017777D01*
X008453Y017679D02*
X009007Y017679D01*
X008881Y017580D02*
X008360Y017580D01*
X008267Y017482D02*
X008756Y017482D01*
X008630Y017383D02*
X006244Y017383D01*
X006163Y017285D02*
X008505Y017285D01*
X008379Y017186D02*
X006065Y017186D01*
X005939Y016694D02*
X007752Y016694D01*
X007878Y016792D02*
X003842Y016792D01*
X003745Y016694D02*
X004647Y016694D01*
X004476Y016595D02*
X003648Y016595D01*
X003551Y016497D02*
X004377Y016497D01*
X004323Y016398D02*
X003453Y016398D01*
X003356Y016300D02*
X004282Y016300D01*
X004263Y016201D02*
X003259Y016201D01*
X003162Y016103D02*
X004263Y016103D01*
X004267Y016004D02*
X003065Y016004D01*
X002968Y015906D02*
X004308Y015906D01*
X004349Y015807D02*
X002870Y015807D01*
X002773Y015709D02*
X004439Y015709D01*
X006110Y016595D02*
X007627Y016595D01*
X008003Y016891D02*
X003939Y016891D01*
X004024Y016989D02*
X008128Y016989D01*
X008254Y017088D02*
X004064Y017088D01*
X004070Y017186D02*
X004521Y017186D01*
X004422Y017285D02*
X004070Y017285D01*
X004070Y017383D02*
X004342Y017383D01*
X004301Y017482D02*
X004070Y017482D01*
X004070Y017580D02*
X004263Y017580D01*
X004263Y017679D02*
X004070Y017679D01*
X004070Y017777D02*
X004263Y017777D01*
X004289Y017876D02*
X004070Y017876D01*
X004070Y017974D02*
X004330Y017974D01*
X004394Y018073D02*
X004070Y018073D01*
X004070Y018171D02*
X004493Y018171D01*
X004688Y018270D02*
X004070Y018270D01*
X004070Y018368D02*
X006815Y018368D01*
X006832Y018270D02*
X006933Y018200D01*
X007128Y018478D01*
X007177Y018444D01*
X006982Y018165D01*
X007083Y018095D01*
X007385Y018148D01*
X007456Y018249D01*
X007177Y018444D01*
X007212Y018493D01*
X007490Y018298D01*
X007561Y018399D01*
X007508Y018701D01*
X007407Y018772D01*
X007212Y018493D01*
X007162Y018527D01*
X007128Y018478D01*
X006850Y018673D01*
X006779Y018572D01*
X006832Y018270D01*
X006833Y018270D02*
X005898Y018270D01*
X006093Y018171D02*
X006986Y018171D01*
X006982Y018270D02*
X007055Y018270D01*
X007051Y018368D02*
X007124Y018368D01*
X007120Y018467D02*
X007145Y018467D01*
X007193Y018467D02*
X007249Y018467D01*
X007262Y018565D02*
X007189Y018565D01*
X007162Y018527D02*
X007357Y018806D01*
X007256Y018877D01*
X006955Y018823D01*
X006884Y018722D01*
X007162Y018527D01*
X007109Y018565D02*
X007004Y018565D01*
X006968Y018664D02*
X006863Y018664D01*
X006843Y018664D02*
X005871Y018664D01*
X006082Y018762D02*
X006912Y018762D01*
X006780Y018565D02*
X004236Y018565D01*
X004118Y018467D02*
X006797Y018467D01*
X007285Y018368D02*
X007390Y018368D01*
X007426Y018270D02*
X008214Y018270D01*
X008307Y018368D02*
X007539Y018368D01*
X007549Y018467D02*
X007790Y018467D01*
X007914Y018380D02*
X008248Y018439D01*
X008443Y018717D01*
X008384Y019052D01*
X008106Y019246D01*
X007771Y019187D01*
X007576Y018909D01*
X007635Y018575D01*
X007914Y018380D01*
X008120Y018171D02*
X007401Y018171D01*
X007934Y017974D02*
X006256Y017974D01*
X006191Y018073D02*
X008027Y018073D01*
X008267Y018467D02*
X008400Y018467D01*
X008336Y018565D02*
X008494Y018565D01*
X008405Y018664D02*
X008587Y018664D01*
X008680Y018762D02*
X008435Y018762D01*
X008418Y018861D02*
X008774Y018861D01*
X008867Y018959D02*
X008400Y018959D01*
X008375Y019058D02*
X008960Y019058D01*
X009054Y019156D02*
X008235Y019156D01*
X007749Y019156D02*
X007529Y019156D01*
X007460Y019058D02*
X007680Y019058D01*
X007611Y018959D02*
X007126Y018959D01*
X007094Y018954D02*
X007429Y019013D01*
X007624Y019291D01*
X007565Y019625D01*
X007286Y019820D01*
X006952Y019761D01*
X006757Y019483D01*
X006816Y019148D01*
X007094Y018954D01*
X007086Y018959D02*
X006251Y018959D01*
X006292Y019058D02*
X006946Y019058D01*
X006815Y019156D02*
X006323Y019156D01*
X006323Y019255D02*
X006797Y019255D01*
X006780Y019353D02*
X006323Y019353D01*
X006290Y019452D02*
X006763Y019452D01*
X006804Y019550D02*
X006249Y019550D01*
X006174Y019649D02*
X006873Y019649D01*
X006942Y019747D02*
X006076Y019747D01*
X005857Y019846D02*
X009707Y019846D01*
X009800Y019944D02*
X003267Y019944D01*
X003358Y020043D02*
X009893Y020043D01*
X009987Y020141D02*
X003467Y020141D01*
X003531Y020240D02*
X010080Y020240D01*
X009614Y019747D02*
X007391Y019747D01*
X007531Y019649D02*
X009520Y019649D01*
X009427Y019550D02*
X007578Y019550D01*
X007595Y019452D02*
X009334Y019452D01*
X009240Y019353D02*
X007613Y019353D01*
X007598Y019255D02*
X009147Y019255D01*
X007585Y018861D02*
X007279Y018861D01*
X007327Y018762D02*
X007400Y018762D01*
X007420Y018762D02*
X007602Y018762D01*
X007620Y018664D02*
X007514Y018664D01*
X007532Y018565D02*
X007649Y018565D01*
X007331Y018664D02*
X007258Y018664D01*
X007165Y018861D02*
X006180Y018861D01*
X004715Y018664D02*
X004354Y018664D01*
X004472Y018762D02*
X004504Y018762D01*
X003908Y019255D02*
X003223Y019255D01*
X003228Y019223D02*
X003218Y019287D01*
X003195Y019359D01*
X003161Y019427D01*
X003116Y019488D01*
X003063Y019541D01*
X003002Y019586D01*
X002934Y019620D01*
X002862Y019643D01*
X002798Y019653D01*
X002798Y019223D01*
X002702Y019223D01*
X002702Y019127D01*
X002272Y019127D01*
X002282Y019063D01*
X002305Y018991D01*
X002339Y018923D01*
X002384Y018862D01*
X002437Y018809D01*
X002498Y018764D01*
X002566Y018730D01*
X002638Y018707D01*
X002702Y018697D01*
X002702Y019127D01*
X002798Y019127D01*
X002798Y019223D01*
X003228Y019223D01*
X003228Y019127D02*
X002798Y019127D01*
X002798Y018697D01*
X002862Y018707D01*
X002934Y018730D01*
X003002Y018764D01*
X003063Y018809D01*
X003116Y018862D01*
X003161Y018923D01*
X003195Y018991D01*
X003218Y019063D01*
X003228Y019127D01*
X003217Y019058D02*
X003671Y019058D01*
X003789Y019156D02*
X002798Y019156D01*
X002702Y019156D02*
X001570Y019156D01*
X001570Y019255D02*
X002277Y019255D01*
X002272Y019223D02*
X002702Y019223D01*
X002702Y019653D01*
X002638Y019643D01*
X002566Y019620D01*
X002498Y019586D01*
X002437Y019541D01*
X002384Y019488D01*
X002339Y019427D01*
X002305Y019359D01*
X002282Y019287D01*
X002272Y019223D01*
X002303Y019353D02*
X001539Y019353D01*
X001498Y019452D02*
X002358Y019452D01*
X002450Y019550D02*
X001410Y019550D01*
X001266Y019649D02*
X002672Y019649D01*
X002702Y019649D02*
X002798Y019649D01*
X002828Y019649D02*
X004411Y019649D01*
X004510Y019747D02*
X000550Y019747D01*
X000550Y019649D02*
X000834Y019649D01*
X000690Y019550D02*
X000550Y019550D01*
X000550Y019452D02*
X000602Y019452D01*
X000561Y019353D02*
X000550Y019353D01*
X000550Y018959D02*
X000577Y018959D01*
X000550Y018861D02*
X000629Y018861D01*
X000550Y018762D02*
X000728Y018762D01*
X000550Y018664D02*
X000926Y018664D01*
X001174Y018664D02*
X001509Y018664D01*
X001536Y018691D02*
X001359Y018514D01*
X001263Y018282D01*
X001263Y018032D01*
X001359Y017800D01*
X001536Y017623D01*
X001768Y017527D01*
X002019Y017527D01*
X002250Y017623D01*
X002427Y017800D01*
X002523Y018032D01*
X002523Y018282D01*
X002427Y018514D01*
X002250Y018691D01*
X002019Y018787D01*
X001768Y018787D01*
X001536Y018691D01*
X001410Y018565D02*
X000550Y018565D01*
X000550Y018467D02*
X001340Y018467D01*
X001299Y018368D02*
X000550Y018368D01*
X000550Y018270D02*
X001263Y018270D01*
X001263Y018171D02*
X000550Y018171D01*
X000550Y018073D02*
X001263Y018073D01*
X001287Y017974D02*
X000550Y017974D01*
X000550Y017876D02*
X001328Y017876D01*
X001382Y017777D02*
X000550Y017777D01*
X000550Y017679D02*
X001481Y017679D01*
X001640Y017580D02*
X000550Y017580D01*
X000550Y017482D02*
X003330Y017482D01*
X003330Y017580D02*
X002146Y017580D01*
X002306Y017679D02*
X003330Y017679D01*
X003330Y017777D02*
X002404Y017777D01*
X002459Y017876D02*
X003330Y017876D01*
X003330Y017974D02*
X002499Y017974D01*
X002523Y018073D02*
X003330Y018073D01*
X003330Y018171D02*
X002523Y018171D01*
X002523Y018270D02*
X003330Y018270D01*
X003330Y018368D02*
X002488Y018368D01*
X002447Y018467D02*
X003330Y018467D01*
X003325Y018565D02*
X002376Y018565D01*
X002278Y018664D02*
X003330Y018664D01*
X003367Y018762D02*
X002997Y018762D01*
X003114Y018861D02*
X003435Y018861D01*
X003553Y018959D02*
X003179Y018959D01*
X002798Y018959D02*
X002702Y018959D01*
X002702Y018861D02*
X002798Y018861D01*
X002798Y018762D02*
X002702Y018762D01*
X002503Y018762D02*
X002079Y018762D01*
X002321Y018959D02*
X001523Y018959D01*
X001564Y019058D02*
X002283Y019058D01*
X002386Y018861D02*
X001471Y018861D01*
X001372Y018762D02*
X001708Y018762D01*
X002702Y019058D02*
X002798Y019058D01*
X002798Y019255D02*
X002702Y019255D01*
X002702Y019353D02*
X002798Y019353D01*
X002798Y019452D02*
X002702Y019452D01*
X002702Y019550D02*
X002798Y019550D01*
X003050Y019550D02*
X004262Y019550D01*
X004144Y019452D02*
X003142Y019452D01*
X003197Y019353D02*
X004026Y019353D01*
X004729Y019846D02*
X002983Y019846D01*
X002772Y019846D02*
X000550Y019846D01*
X000550Y019944D02*
X002488Y019944D01*
X002398Y020043D02*
X000550Y020043D01*
X000550Y020141D02*
X002288Y020141D01*
X002224Y020240D02*
X000550Y020240D01*
X000550Y017383D02*
X003330Y017383D01*
X003288Y017285D02*
X000550Y017285D01*
X000550Y017186D02*
X003191Y017186D01*
X003094Y017088D02*
X000550Y017088D01*
X000550Y016989D02*
X002997Y016989D01*
X002900Y016891D02*
X000550Y016891D01*
X000550Y016792D02*
X002803Y016792D01*
X002705Y016694D02*
X000550Y016694D01*
X000550Y016595D02*
X002608Y016595D01*
X002511Y016497D02*
X000550Y016497D01*
X000550Y016398D02*
X002414Y016398D01*
X002317Y016300D02*
X000550Y016300D01*
X000550Y016201D02*
X002220Y016201D01*
X002123Y016103D02*
X000550Y016103D01*
X000550Y016004D02*
X002025Y016004D01*
X001928Y015906D02*
X000550Y015906D01*
X000550Y015807D02*
X001831Y015807D01*
X001734Y015709D02*
X000550Y015709D01*
X000550Y015610D02*
X001637Y015610D01*
X001566Y015512D02*
X000550Y015512D01*
X000550Y015413D02*
X001530Y015413D01*
X001530Y015315D02*
X000550Y015315D01*
X011121Y010784D02*
X012421Y010784D01*
X012486Y010882D02*
X011328Y010882D01*
X011535Y010981D02*
X013226Y010981D01*
X013110Y011079D02*
X012445Y011079D01*
X012564Y011178D02*
X013038Y011178D01*
X012994Y011276D02*
X012630Y011276D01*
X012670Y011375D02*
X012970Y011375D01*
X012976Y011572D02*
X012675Y011572D01*
X012675Y011670D02*
X013005Y011670D01*
X013059Y011769D02*
X012675Y011769D01*
X012881Y011867D02*
X013143Y011867D01*
X012675Y011473D02*
X013904Y011473D01*
X012005Y011079D02*
X011704Y011079D01*
X011781Y011178D02*
X011886Y011178D01*
X008756Y008026D02*
X006243Y008026D01*
X006160Y007927D02*
X008564Y007927D01*
X008371Y007829D02*
X006060Y007829D01*
X005946Y007336D02*
X007408Y007336D01*
X007215Y007238D02*
X006113Y007238D01*
X006212Y007139D02*
X007023Y007139D01*
X006830Y007041D02*
X006264Y007041D01*
X003170Y004578D02*
X001194Y004578D01*
X003010Y004480D02*
X003170Y004480D01*
X003170Y004381D02*
X003121Y004381D01*
X003170Y003298D02*
X001974Y003298D01*
X005938Y003101D02*
X008507Y003101D01*
X008760Y003199D02*
X006109Y003199D01*
X006208Y003298D02*
X013096Y003298D01*
X013031Y003396D02*
X007110Y003396D01*
X007539Y003495D02*
X012990Y003495D01*
X012968Y003593D02*
X007968Y003593D01*
X008826Y003790D02*
X012978Y003790D01*
X013012Y003889D02*
X009255Y003889D01*
X009685Y003987D02*
X013069Y003987D01*
X013157Y004086D02*
X010114Y004086D01*
X008944Y003199D02*
X013208Y003199D01*
X012388Y002570D02*
X012295Y002531D01*
X012169Y002405D01*
X012100Y002240D01*
X012100Y002060D01*
X012169Y001895D01*
X012295Y001769D01*
X012460Y001700D01*
X012640Y001700D01*
X012805Y001769D01*
X012848Y001812D01*
X012995Y001812D01*
X013016Y001762D01*
X013148Y001630D01*
X006099Y001630D01*
X006232Y001762D01*
X006235Y001770D01*
X006847Y001770D01*
X006909Y001769D01*
X006912Y001770D01*
X006916Y001770D01*
X006973Y001794D01*
X008963Y002570D01*
X012388Y002570D01*
X012273Y002510D02*
X008808Y002510D01*
X008556Y002411D02*
X012175Y002411D01*
X012130Y002313D02*
X008303Y002313D01*
X008051Y002214D02*
X012100Y002214D01*
X012100Y002116D02*
X007798Y002116D01*
X007545Y002017D02*
X012118Y002017D01*
X012159Y001919D02*
X007293Y001919D01*
X007040Y001820D02*
X012244Y001820D01*
X012409Y001722D02*
X006191Y001722D01*
X006164Y002510D02*
X006992Y002510D01*
X007244Y002608D02*
X006065Y002608D01*
X012691Y001722D02*
X013056Y001722D01*
X014600Y016694D02*
X014709Y016694D01*
X014657Y018762D02*
X015017Y018762D01*
X015235Y018861D02*
X014785Y018861D01*
X014864Y018959D02*
X015453Y018959D01*
X015670Y019058D02*
X014910Y019058D01*
X014936Y019156D02*
X015888Y019156D01*
X014935Y019353D02*
X022417Y019353D01*
X022203Y019452D02*
X014908Y019452D01*
X014860Y019550D02*
X021989Y019550D01*
X021775Y019649D02*
X014779Y019649D01*
X023149Y019902D02*
X023150Y019904D01*
X023248Y019904D01*
X023350Y019946D01*
X023429Y020024D01*
X023452Y020080D01*
X023508Y020103D01*
X023586Y020182D01*
X023629Y020284D01*
X023629Y020319D01*
X026820Y020319D01*
X026799Y020277D01*
X026776Y020208D01*
X026767Y020148D01*
X027177Y020148D01*
X027177Y020052D01*
X027273Y020052D01*
X027273Y020148D01*
X027683Y020148D01*
X027674Y020208D01*
X027651Y020277D01*
X027630Y020319D01*
X027775Y020319D01*
X027725Y020199D01*
X027725Y020001D01*
X027801Y019817D01*
X027810Y019808D01*
X027810Y019575D01*
X023855Y019575D01*
X023149Y019902D01*
X023271Y019846D02*
X026841Y019846D01*
X026832Y019859D02*
X026874Y019800D01*
X026925Y019749D01*
X026984Y019707D01*
X027048Y019674D01*
X027117Y019651D01*
X027177Y019642D01*
X027177Y020052D01*
X026767Y020052D01*
X026776Y019992D01*
X026799Y019923D01*
X026832Y019859D01*
X026792Y019944D02*
X023346Y019944D01*
X023436Y020043D02*
X026768Y020043D01*
X026787Y020240D02*
X023610Y020240D01*
X023545Y020141D02*
X027177Y020141D01*
X027273Y020141D02*
X027725Y020141D01*
X027725Y020043D02*
X027682Y020043D01*
X027683Y020052D02*
X027273Y020052D01*
X027273Y019642D01*
X027333Y019651D01*
X027402Y019674D01*
X027466Y019707D01*
X027525Y019749D01*
X027576Y019800D01*
X027618Y019859D01*
X027651Y019923D01*
X027674Y019992D01*
X027683Y020052D01*
X027658Y019944D02*
X027748Y019944D01*
X027789Y019846D02*
X027609Y019846D01*
X027522Y019747D02*
X027810Y019747D01*
X027810Y019649D02*
X027315Y019649D01*
X027273Y019649D02*
X027177Y019649D01*
X027135Y019649D02*
X023696Y019649D01*
X023484Y019747D02*
X026928Y019747D01*
X027177Y019747D02*
X027273Y019747D01*
X027273Y019846D02*
X027177Y019846D01*
X027177Y019944D02*
X027273Y019944D01*
X027273Y020043D02*
X027177Y020043D01*
X027663Y020240D02*
X027742Y020240D01*
D12*
X002750Y019175D03*
X001050Y019175D03*
X001050Y012175D03*
X001050Y011075D03*
X002750Y011075D03*
X002750Y012175D03*
X002750Y004075D03*
X001050Y004075D03*
D13*
X022150Y004476D03*
X023150Y004476D03*
X022550Y003250D03*
X023300Y002750D03*
X022550Y002250D03*
X022150Y005854D03*
X023150Y005854D03*
X023150Y007232D03*
X022150Y007232D03*
X022150Y008610D03*
X023150Y008610D03*
X023150Y011366D03*
X022150Y011366D03*
X022150Y012744D03*
X023150Y012744D03*
D14*
X024335Y014122D02*
X024935Y014122D01*
X026501Y012744D02*
X027101Y012744D01*
X028585Y014122D02*
X029185Y014122D01*
X030751Y012744D02*
X031351Y012744D01*
X029185Y011366D02*
X028585Y011366D01*
X027101Y009988D02*
X026501Y009988D01*
X024935Y011366D02*
X024335Y011366D01*
X024335Y008610D02*
X024935Y008610D01*
X026501Y007232D02*
X027101Y007232D01*
X028585Y005854D02*
X029185Y005854D01*
X030751Y007232D02*
X031351Y007232D01*
X029185Y008610D02*
X028585Y008610D01*
X030751Y009988D02*
X031351Y009988D01*
X024935Y005854D02*
X024335Y005854D01*
X026501Y004476D02*
X027101Y004476D01*
X028585Y003098D02*
X029185Y003098D01*
X030751Y004476D02*
X031351Y004476D01*
X024935Y003098D02*
X024335Y003098D01*
X019100Y013267D02*
X019100Y013867D01*
X018100Y013867D02*
X018100Y013267D01*
X017100Y013267D02*
X017100Y013867D01*
X024335Y016878D02*
X024935Y016878D01*
X026501Y018256D02*
X027101Y018256D01*
X028585Y016878D02*
X029185Y016878D01*
X030751Y018256D02*
X031351Y018256D01*
X031351Y015500D02*
X030751Y015500D01*
X027101Y015500D02*
X026501Y015500D01*
D15*
X014384Y016133D02*
X013524Y016133D01*
X013524Y017693D02*
X014384Y017693D01*
X014384Y019252D02*
X013524Y019252D01*
X005723Y019252D02*
X004863Y019252D01*
X004863Y017693D02*
X005723Y017693D01*
X005723Y016133D02*
X004863Y016133D01*
X004863Y014574D02*
X005723Y014574D01*
X005723Y013015D02*
X004863Y013015D01*
X004863Y011456D02*
X005723Y011456D01*
X005723Y009897D02*
X004863Y009897D01*
X004863Y008338D02*
X005723Y008338D01*
X005723Y006779D02*
X004863Y006779D01*
X004863Y005220D02*
X005723Y005220D01*
X005723Y003661D02*
X004863Y003661D01*
X004863Y002102D02*
X005723Y002102D01*
X013524Y002102D02*
X014384Y002102D01*
X014384Y003661D02*
X013524Y003661D01*
X013524Y005220D02*
X014384Y005220D01*
X014384Y006779D02*
X013524Y006779D01*
X013524Y008338D02*
X014384Y008338D01*
X014384Y009897D02*
X013524Y009897D01*
X013524Y011456D02*
X014384Y011456D01*
X014384Y013015D02*
X013524Y013015D01*
X013524Y014574D02*
X014384Y014574D01*
D16*
X027225Y020100D03*
X028225Y020100D03*
X029225Y020100D03*
X030225Y020100D03*
X031225Y020100D03*
X033100Y004350D03*
X033100Y003350D03*
D17*
X034700Y003726D03*
X034700Y004474D03*
D18*
X012550Y002150D03*
D19*
X032740Y007970D03*
X033650Y007970D03*
X034560Y007970D03*
X034250Y009930D03*
X035160Y009930D03*
X033340Y009930D03*
D20*
X034250Y012370D03*
X033650Y005530D03*
D21*
X032910Y012650D02*
X032390Y012650D01*
X032390Y013650D02*
X032910Y013650D01*
X032910Y014650D02*
X032390Y014650D01*
X021650Y013910D02*
X021650Y013390D01*
X020650Y013390D02*
X020650Y013910D01*
X003610Y013850D02*
X003090Y013850D01*
X003090Y012850D02*
X003610Y012850D01*
X001810Y002900D02*
X001290Y002900D01*
X001290Y001900D02*
X001810Y001900D01*
D22*
X007107Y018612D02*
X007059Y018660D01*
X007215Y018688D01*
X007344Y018597D01*
X007372Y018441D01*
X007281Y018312D01*
X007125Y018284D01*
X006996Y018375D01*
X006968Y018531D01*
X007059Y018660D01*
X007100Y018594D01*
X007198Y018612D01*
X007278Y018556D01*
X007296Y018458D01*
X007240Y018378D01*
X007142Y018360D01*
X007062Y018416D01*
X007044Y018514D01*
X007100Y018594D01*
X007142Y018529D01*
X007181Y018536D01*
X007213Y018514D01*
X007220Y018475D01*
X007198Y018443D01*
X007159Y018436D01*
X007127Y018458D01*
X007120Y018497D01*
X007142Y018529D01*
X007947Y018939D02*
X007899Y018987D01*
X008055Y019015D01*
X008184Y018924D01*
X008212Y018768D01*
X008121Y018639D01*
X007965Y018611D01*
X007836Y018702D01*
X007808Y018858D01*
X007899Y018987D01*
X007940Y018921D01*
X008038Y018939D01*
X008118Y018883D01*
X008136Y018785D01*
X008080Y018705D01*
X007982Y018687D01*
X007902Y018743D01*
X007884Y018841D01*
X007940Y018921D01*
X007982Y018856D01*
X008021Y018863D01*
X008053Y018841D01*
X008060Y018802D01*
X008038Y018770D01*
X007999Y018763D01*
X007967Y018785D01*
X007960Y018824D01*
X007982Y018856D01*
X007127Y019513D02*
X007079Y019561D01*
X007235Y019589D01*
X007364Y019498D01*
X007392Y019342D01*
X007301Y019213D01*
X007145Y019185D01*
X007016Y019276D01*
X006988Y019432D01*
X007079Y019561D01*
X007120Y019495D01*
X007218Y019513D01*
X007298Y019457D01*
X007316Y019359D01*
X007260Y019279D01*
X007162Y019261D01*
X007082Y019317D01*
X007064Y019415D01*
X007120Y019495D01*
X007162Y019430D01*
X007201Y019437D01*
X007233Y019415D01*
X007240Y019376D01*
X007218Y019344D01*
X007179Y019337D01*
X007147Y019359D01*
X007140Y019398D01*
X007162Y019430D01*
D23*
X003850Y020000D03*
X009200Y015700D03*
X007750Y014900D03*
X011050Y014550D03*
X012225Y012025D03*
X012225Y011475D03*
X010650Y010350D03*
X010250Y008850D03*
X008350Y009050D03*
X007200Y010400D03*
X006700Y012500D03*
X003750Y015250D03*
X003200Y009400D03*
X008300Y006250D03*
X010300Y006150D03*
X010600Y007350D03*
X015400Y008450D03*
X016450Y008450D03*
X015600Y007250D03*
X019800Y006600D03*
X020350Y006000D03*
X021250Y004850D03*
X020200Y003600D03*
X017650Y003850D03*
X025100Y001300D03*
X028000Y004150D03*
X026900Y005800D03*
X029150Y006650D03*
X027550Y008550D03*
X025800Y010600D03*
X027400Y011200D03*
X024600Y013100D03*
X026650Y013600D03*
X024100Y015475D03*
X022250Y017050D03*
X016500Y014650D03*
X015350Y017100D03*
X021425Y012475D03*
X019900Y012050D03*
X018750Y011100D03*
X020150Y010550D03*
X022650Y010950D03*
X015550Y012050D03*
X029475Y018225D03*
X031350Y017475D03*
X030225Y016350D03*
X030050Y014300D03*
X030750Y011750D03*
X031450Y011750D03*
X034750Y013800D03*
X035700Y015000D03*
X033950Y019350D03*
X034850Y019850D03*
X032600Y019800D03*
X034150Y009100D03*
X035500Y007900D03*
X033975Y004375D03*
X030650Y003750D03*
X030550Y002750D03*
X010050Y001900D03*
X001550Y005850D03*
D24*
X005293Y006779D02*
X005406Y006725D01*
X006850Y006725D01*
X009050Y007850D01*
X011750Y007850D01*
X012050Y007550D01*
X012450Y007550D01*
X011713Y008338D02*
X012475Y009100D01*
X011713Y008338D02*
X005293Y008338D01*
X010250Y008850D02*
X011350Y008850D01*
X012450Y010300D01*
X012700Y010680D01*
X015550Y010680D01*
X016600Y010000D01*
X019300Y010000D01*
X019700Y011250D01*
X020450Y011750D01*
X021325Y011100D02*
X021425Y012475D01*
X021000Y012900D02*
X021650Y013650D01*
X021000Y012900D02*
X020450Y012650D01*
X022150Y012744D02*
X022744Y012150D01*
X023350Y012150D01*
X023700Y011700D01*
X023700Y010900D02*
X023700Y010750D01*
X022850Y009300D01*
X022150Y008610D01*
X021650Y008200D02*
X017610Y008200D01*
X016350Y007900D01*
X015650Y007900D01*
X014988Y007538D01*
X014913Y007538D01*
X013954Y006779D02*
X010821Y006779D01*
X010600Y007350D01*
X013954Y009897D02*
X015272Y009897D01*
X016250Y009550D01*
X019975Y009550D01*
X021325Y011100D01*
X021600Y010600D02*
X022100Y011300D01*
X022175Y011325D01*
X021600Y010600D02*
X020350Y009100D01*
X014850Y009100D01*
X015600Y005995D02*
X017850Y007450D01*
X021200Y007450D01*
X021050Y007050D02*
X018225Y007050D01*
X015080Y004445D01*
X012702Y002102D02*
X012550Y002150D01*
X012702Y002102D02*
X013954Y002102D01*
X020200Y003600D02*
X020200Y005800D01*
X020350Y006000D01*
X022150Y005854D02*
X022150Y004476D01*
X023131Y005850D02*
X023131Y006319D01*
X025400Y007975D02*
X026200Y008425D01*
X027450Y009150D01*
X027800Y009500D01*
X027800Y010350D01*
X026800Y011000D01*
X026800Y011600D01*
X027600Y012000D01*
X027850Y012400D01*
X027850Y013100D01*
X027400Y013550D01*
X026650Y013600D01*
X026025Y013250D02*
X026025Y014575D01*
X024925Y015700D01*
X024775Y015900D01*
X024475Y016200D01*
X023975Y016200D01*
X023000Y018300D01*
X024635Y016878D02*
X024635Y016815D01*
X025500Y015950D01*
X026550Y017275D02*
X028375Y016175D01*
X029250Y016175D01*
X030225Y016350D01*
X030250Y016325D01*
X031650Y016325D01*
X032300Y016675D01*
X032300Y018750D01*
X031725Y019225D01*
X030475Y019225D01*
X030225Y019475D01*
X030225Y020100D01*
X029225Y020100D02*
X029225Y019225D01*
X029350Y019100D01*
X028100Y019325D02*
X028100Y020100D01*
X028225Y020100D01*
X032600Y019800D02*
X033450Y018810D01*
X033500Y014000D01*
X032650Y013650D01*
X030400Y013650D01*
X029800Y013500D01*
X028300Y012050D01*
X027400Y011200D01*
X028600Y010400D01*
X028600Y009750D01*
X027900Y008850D01*
X027900Y008550D01*
X027550Y008550D01*
X027900Y008550D02*
X027900Y008300D01*
X028000Y007500D01*
X028000Y006800D01*
X027550Y006550D01*
X027550Y004950D01*
X028000Y004400D01*
X028000Y004150D01*
X027950Y004150D01*
X027050Y003250D01*
X024787Y003250D01*
X024635Y003098D01*
X024550Y003000D02*
X023750Y002150D01*
X022650Y002150D01*
X029150Y006650D02*
X030450Y007950D01*
X032050Y007950D01*
X032050Y010450D01*
X032300Y011050D01*
X034000Y011050D01*
X034760Y010640D01*
X035160Y009930D01*
X034250Y009930D02*
X033340Y009930D01*
X033650Y007970D02*
X033650Y005750D01*
X032870Y005750D01*
X031652Y004532D01*
X031107Y004532D01*
X031051Y004476D01*
X030650Y003750D02*
X030082Y004118D01*
X030082Y004726D01*
X030506Y005150D01*
X031150Y005150D01*
X032740Y006740D01*
X032740Y007970D01*
X034560Y007970D02*
X034560Y007110D01*
X034970Y006700D01*
X034970Y005070D01*
X034750Y004850D01*
X034750Y004524D01*
X034700Y004474D01*
X034600Y004475D02*
X033975Y004375D01*
X033100Y004350D01*
X034700Y003726D02*
X034600Y003350D01*
X033100Y003350D01*
X024635Y008610D02*
X023150Y008610D01*
X026407Y012850D02*
X026801Y012744D01*
X034695Y013721D02*
X034700Y014075D01*
X034700Y019650D01*
X034850Y019850D01*
X034150Y019150D02*
X033950Y019350D01*
X012625Y018480D02*
X011687Y018480D01*
X006537Y014600D01*
X005378Y014600D01*
X005293Y014574D01*
X005293Y016133D02*
X005444Y016225D01*
X007625Y016225D01*
X011350Y019150D01*
X012225Y019150D01*
X010500Y020150D02*
X010300Y020050D01*
X008050Y017675D01*
X005384Y017675D01*
X005293Y017693D01*
D25*
X004150Y013790D02*
X003590Y013790D01*
X003350Y013850D01*
X004965Y013015D02*
X003950Y012000D01*
X003950Y010600D01*
X003250Y009900D01*
X003250Y009450D01*
X003200Y009400D01*
X002750Y011075D02*
X002750Y011650D01*
X002750Y012175D01*
X002750Y012750D01*
X002850Y012850D01*
X003350Y012850D01*
X004965Y013015D02*
X005293Y013015D01*
X011200Y013790D02*
X012700Y015350D01*
X013954Y016133D02*
X018800Y017525D01*
X022650Y017525D01*
X023350Y015750D01*
X023900Y015475D01*
X024100Y015475D01*
X024122Y014100D02*
X021675Y014100D01*
X021650Y013650D01*
X020450Y012650D02*
X020450Y011750D01*
X019950Y013000D02*
X019350Y012550D01*
X015700Y012550D01*
X014785Y012965D01*
X013954Y013015D01*
X015750Y013790D02*
X016350Y013800D01*
X017100Y013567D01*
X019950Y013000D02*
X020000Y014800D01*
X021550Y015650D01*
X022250Y017050D02*
X018950Y017050D01*
X014800Y015350D01*
X015507Y017693D02*
X013954Y017693D01*
X015507Y017693D02*
X016250Y018300D01*
X023000Y018300D01*
X024122Y014100D02*
X024635Y014122D01*
X026025Y013250D02*
X026407Y012850D01*
X027750Y011350D02*
X027750Y011150D01*
X026801Y007232D02*
X025982Y007232D01*
X023125Y007225D01*
X023131Y005850D02*
X024635Y005854D01*
X023150Y004476D02*
X026801Y004476D01*
X023150Y004476D02*
X022900Y003850D01*
X021700Y003850D01*
X020650Y002850D01*
X020000Y002850D01*
X019350Y002880D01*
X014900Y002880D01*
X016750Y001325D02*
X018500Y001350D01*
X020450Y001300D01*
X020875Y001475D01*
X012725Y005995D02*
X012225Y005225D01*
X005357Y005225D01*
X005293Y005220D01*
X003500Y004900D02*
X003500Y001625D01*
X003850Y001100D01*
X005293Y002102D02*
X005354Y002100D01*
X006850Y002100D01*
X008850Y002880D01*
X010205Y004445D02*
X006789Y003661D01*
X005293Y003661D01*
X003500Y004900D02*
X003150Y004950D01*
X031225Y020100D02*
X032600Y019800D01*
D26*
X021150Y013650D03*
X003350Y013350D03*
X001550Y002400D03*
D27*
X003950Y001750D02*
X004250Y001380D01*
X014950Y001380D01*
X016050Y002450D01*
X021050Y002450D01*
X021750Y001780D01*
X023850Y001780D01*
X024650Y002550D01*
X027050Y002550D01*
X028650Y004150D01*
X028650Y004750D01*
X027950Y005450D01*
X027950Y006150D01*
X028550Y006750D01*
X028550Y006950D01*
X030050Y008450D01*
X030050Y009050D01*
X029750Y009350D01*
X029750Y010450D01*
X030050Y010750D01*
X030450Y010750D01*
X031450Y011750D01*
X033650Y009950D02*
X033650Y008670D01*
X034250Y008670D01*
X034560Y007970D01*
X034150Y009100D02*
X035650Y009100D01*
X035650Y013000D01*
X034250Y013450D01*
X034250Y014550D01*
X034350Y014650D01*
X034350Y018950D01*
X034150Y019150D01*
X031350Y017475D02*
X031225Y017350D01*
X030600Y017350D01*
X030188Y017453D01*
X029975Y017666D01*
X029975Y018475D01*
X029350Y019100D01*
X029475Y018225D02*
X028100Y019325D01*
X023800Y019325D01*
X021825Y020240D01*
X010800Y020240D01*
X010500Y020150D01*
X012225Y019150D02*
X012925Y019970D01*
X021675Y019970D01*
X023825Y018980D01*
X023800Y019000D02*
X027675Y019000D01*
X028175Y018700D01*
X029250Y017800D01*
X029700Y017800D01*
X030188Y017453D01*
X026550Y017275D02*
X025400Y017900D01*
X024850Y017900D01*
X024550Y018400D01*
X023800Y018400D01*
X022525Y019000D01*
X016150Y019000D01*
X015000Y018480D01*
X012625Y018480D01*
X009200Y015700D02*
X009200Y015400D01*
X010050Y014550D01*
X011050Y014550D01*
X012475Y009100D02*
X014850Y009100D01*
X015400Y008450D02*
X016450Y008450D01*
X014913Y007538D02*
X012538Y007538D01*
X012450Y007550D01*
X015600Y007250D02*
X015903Y007350D01*
X015898Y007355D01*
X021050Y007050D02*
X021550Y006390D01*
X022950Y006390D01*
X023131Y006319D01*
X023000Y006710D02*
X023125Y007225D01*
X023000Y006710D02*
X021750Y006710D01*
X021200Y007450D01*
X021600Y007800D02*
X021750Y007760D01*
X022800Y007760D01*
X023125Y007975D01*
X022675Y008090D02*
X021800Y008090D01*
X021650Y008200D01*
X022675Y008090D02*
X023150Y008610D01*
X029150Y006650D02*
X029450Y006650D01*
X030250Y006350D01*
X030250Y005550D01*
X029650Y004850D01*
X029650Y003850D01*
X030550Y003050D01*
X030550Y002750D01*
X024550Y003000D02*
X024537Y003000D01*
X022650Y002150D02*
X022550Y002250D01*
X015425Y001100D02*
X003850Y001100D01*
X003850Y000950D02*
X015350Y000950D01*
X003950Y001750D02*
X003950Y005550D01*
X003650Y005850D01*
X001550Y005850D01*
X025700Y015450D02*
X025500Y015950D01*
X025700Y015450D02*
X026750Y014350D01*
X027100Y014000D01*
X033650Y009950D02*
X034250Y009930D01*
X034673Y013700D02*
X034695Y013721D01*
X034673Y013700D02*
X034750Y013800D01*
D28*
X018750Y011100D02*
X016350Y011400D01*
X014500Y011400D01*
D29*
X014875Y012240D02*
X015550Y012050D01*
X019900Y012050D01*
X012825Y012240D02*
X012225Y012025D01*
X011450Y012650D02*
X011450Y011350D01*
X009350Y010350D01*
X010650Y010350D01*
X009350Y010350D02*
X008814Y009859D01*
X005390Y009859D01*
X005293Y009897D01*
X001900Y008450D02*
X000950Y007500D01*
X000950Y004950D01*
X003150Y004950D01*
X001900Y008450D02*
X001900Y015350D01*
X003700Y017175D01*
X003700Y018600D01*
X004450Y019225D01*
X005293Y019252D01*
X011450Y012650D02*
X012490Y013790D01*
X012775Y013790D01*
X027260Y002125D02*
X028885Y003098D01*
X027260Y002125D02*
X025025Y002125D01*
X024300Y001475D01*
X016750Y001325D02*
X015425Y001100D01*
D30*
X014900Y002880D02*
X008850Y002880D01*
X010205Y004445D02*
X015080Y004445D01*
X015600Y005995D02*
X012725Y005995D01*
X012825Y012240D02*
X014875Y012240D01*
X015750Y013790D02*
X012775Y013790D01*
X011200Y013790D02*
X004150Y013790D01*
X012700Y015350D02*
X014800Y015350D01*
D31*
X012225Y012025D02*
X012225Y011475D01*
D32*
X021550Y015650D03*
D33*
X027100Y014000D02*
X027400Y013550D01*
X023700Y011700D02*
X023700Y010900D01*
X023125Y007975D02*
X025400Y007975D01*
X021600Y007800D02*
X017750Y007800D01*
X015898Y007355D01*
X020875Y001475D02*
X024300Y001475D01*
D34*
X022200Y009750D03*
M02*
