G75*
G70*
%OFA0B0*%
%FSLAX24Y24*%
%IPPOS*%
%LPD*%
%AMOC8*
5,1,8,0,0,1.08239X$1,22.5*
%
%ADD10C,0.0460*%
%ADD11C,0.0100*%
%ADD12C,0.0920*%
%ADD13C,0.0217*%
%ADD14C,0.0760*%
%ADD15OC8,0.0540*%
%ADD16C,0.0660*%
%ADD17C,0.0920*%
%ADD18C,0.0720*%
%ADD19R,0.0651X0.0572*%
%ADD20C,0.0620*%
%ADD21R,0.0540X0.0940*%
%ADD22R,0.1477X0.0926*%
%ADD23C,0.0580*%
%ADD24C,0.0108*%
%ADD25C,0.0416*%
%ADD26C,0.0377*%
%ADD27C,0.0500*%
%ADD28C,0.0820*%
D10*
X034082Y001136D03*
X034400Y001525D03*
X034875Y001750D03*
X035325Y001875D03*
X035825Y001900D03*
D11*
X032306Y001225D02*
X032306Y001025D01*
X032173Y001025D02*
X032173Y001225D01*
X032239Y001292D01*
X032306Y001225D01*
X032173Y001225D02*
X032106Y001292D01*
X032039Y001292D01*
X032039Y001025D01*
X031846Y001092D02*
X031846Y001225D01*
X031779Y001292D01*
X031646Y001292D01*
X031579Y001225D01*
X031579Y001092D01*
X031646Y001025D01*
X031779Y001025D01*
X031846Y001092D01*
X031385Y001025D02*
X031185Y001025D01*
X031119Y001092D01*
X031119Y001225D01*
X031185Y001292D01*
X031385Y001292D01*
X030955Y001092D02*
X030955Y001025D01*
X030888Y001025D01*
X030888Y001092D01*
X030955Y001092D01*
X030695Y001092D02*
X030628Y001025D01*
X030428Y001025D01*
X030495Y001158D02*
X030428Y001225D01*
X030495Y001292D01*
X030695Y001292D01*
X030628Y001158D02*
X030495Y001158D01*
X030628Y001158D02*
X030695Y001092D01*
X030234Y001092D02*
X030168Y001025D01*
X029968Y001025D01*
X029968Y001425D01*
X029968Y001292D02*
X030168Y001292D01*
X030234Y001225D01*
X030234Y001092D01*
X029774Y001158D02*
X029574Y001158D01*
X029507Y001092D01*
X029574Y001025D01*
X029774Y001025D01*
X029774Y001225D01*
X029707Y001292D01*
X029574Y001292D01*
X029267Y001425D02*
X029267Y001025D01*
X029200Y001025D02*
X029334Y001025D01*
X029007Y001225D02*
X028740Y001225D01*
X028546Y001292D02*
X028546Y001025D01*
X028346Y001025D01*
X028279Y001092D01*
X028279Y001292D01*
X028096Y001292D02*
X028029Y001292D01*
X027896Y001158D01*
X027896Y001025D02*
X027896Y001292D01*
X027702Y001225D02*
X027702Y001025D01*
X027502Y001025D01*
X027435Y001092D01*
X027502Y001158D01*
X027702Y001158D01*
X027702Y001225D02*
X027636Y001292D01*
X027502Y001292D01*
X027242Y001225D02*
X027242Y001025D01*
X027108Y001025D02*
X027108Y001225D01*
X027175Y001292D01*
X027242Y001225D01*
X027108Y001225D02*
X027042Y001292D01*
X026975Y001292D01*
X026975Y001025D01*
X028817Y001775D02*
X029017Y001775D01*
X029083Y001842D01*
X029083Y001908D01*
X029017Y001975D01*
X028817Y001975D01*
X029017Y001975D02*
X029083Y002042D01*
X029083Y002109D01*
X029017Y002175D01*
X028817Y002175D01*
X028817Y001775D01*
X029277Y001775D02*
X029544Y001775D01*
X029737Y001775D02*
X029737Y002175D01*
X029938Y002175D01*
X030004Y002109D01*
X030004Y001975D01*
X029938Y001908D01*
X029737Y001908D01*
X029410Y001975D02*
X029277Y001975D01*
X029277Y002175D02*
X029277Y001775D01*
X029267Y001425D02*
X029200Y001425D01*
X029277Y002175D02*
X029544Y002175D01*
X030658Y002175D02*
X030658Y001908D01*
X030792Y001775D01*
X030925Y001908D01*
X030925Y002175D01*
X031119Y002109D02*
X031185Y002175D01*
X031319Y002175D01*
X031385Y002109D01*
X031385Y002042D01*
X031319Y001975D01*
X031385Y001908D01*
X031385Y001842D01*
X031319Y001775D01*
X031185Y001775D01*
X031119Y001842D01*
X031252Y001975D02*
X031319Y001975D01*
X031579Y001842D02*
X031646Y001842D01*
X031646Y001775D01*
X031579Y001775D01*
X031579Y001842D01*
X031809Y001842D02*
X032076Y002109D01*
X032076Y001842D01*
X032009Y001775D01*
X031876Y001775D01*
X031809Y001842D01*
X031809Y002109D01*
X031876Y002175D01*
X032009Y002175D01*
X032076Y002109D01*
D12*
X035555Y002645D03*
X001893Y018157D03*
D13*
X002484Y001014D03*
X002641Y001171D03*
X002878Y001250D03*
X003114Y001171D03*
X003271Y001014D03*
X022563Y001014D03*
X022720Y001171D03*
X022956Y001250D03*
X023193Y001171D03*
X023350Y001014D03*
X022956Y020104D03*
X022720Y020182D03*
X022563Y020340D03*
X023193Y020182D03*
X023350Y020340D03*
X033507Y020340D03*
X033665Y020182D03*
X033901Y020104D03*
X034137Y020182D03*
X034295Y020340D03*
X003271Y020340D03*
X003114Y020182D03*
X002878Y020104D03*
X002641Y020182D03*
X002484Y020340D03*
D14*
X002750Y019175D03*
X001050Y019175D03*
X001050Y012175D03*
X001050Y011075D03*
X002750Y011075D03*
X002750Y012175D03*
X002750Y004075D03*
X001050Y004075D03*
D15*
X022150Y004476D03*
X023150Y004476D03*
X022550Y003250D03*
X023300Y002750D03*
X022550Y002250D03*
X022150Y005854D03*
X023150Y005854D03*
X023150Y007232D03*
X022150Y007232D03*
X022150Y008610D03*
X023150Y008610D03*
X023150Y011366D03*
X022150Y011366D03*
X022150Y012744D03*
X023150Y012744D03*
D16*
X024335Y014122D02*
X024935Y014122D01*
X026501Y012744D02*
X027101Y012744D01*
X028585Y014122D02*
X029185Y014122D01*
X030751Y012744D02*
X031351Y012744D01*
X029185Y011366D02*
X028585Y011366D01*
X027101Y009988D02*
X026501Y009988D01*
X024935Y011366D02*
X024335Y011366D01*
X024335Y008610D02*
X024935Y008610D01*
X026501Y007232D02*
X027101Y007232D01*
X028585Y005854D02*
X029185Y005854D01*
X030751Y007232D02*
X031351Y007232D01*
X029185Y008610D02*
X028585Y008610D01*
X030751Y009988D02*
X031351Y009988D01*
X024935Y005854D02*
X024335Y005854D01*
X026501Y004476D02*
X027101Y004476D01*
X028585Y003098D02*
X029185Y003098D01*
X030751Y004476D02*
X031351Y004476D01*
X024935Y003098D02*
X024335Y003098D01*
X019100Y013267D02*
X019100Y013867D01*
X018100Y013867D02*
X018100Y013267D01*
X017100Y013267D02*
X017100Y013867D01*
X024335Y016878D02*
X024935Y016878D01*
X026501Y018256D02*
X027101Y018256D01*
X028585Y016878D02*
X029185Y016878D01*
X030751Y018256D02*
X031351Y018256D01*
X031351Y015500D02*
X030751Y015500D01*
X027101Y015500D02*
X026501Y015500D01*
D17*
X014384Y016133D02*
X013524Y016133D01*
X013524Y017693D02*
X014384Y017693D01*
X014384Y019252D02*
X013524Y019252D01*
X005723Y019252D02*
X004863Y019252D01*
X004863Y017693D02*
X005723Y017693D01*
X005723Y016133D02*
X004863Y016133D01*
X004863Y014574D02*
X005723Y014574D01*
X005723Y013015D02*
X004863Y013015D01*
X004863Y011456D02*
X005723Y011456D01*
X005723Y009897D02*
X004863Y009897D01*
X004863Y008338D02*
X005723Y008338D01*
X005723Y006779D02*
X004863Y006779D01*
X004863Y005220D02*
X005723Y005220D01*
X005723Y003661D02*
X004863Y003661D01*
X004863Y002102D02*
X005723Y002102D01*
X013524Y002102D02*
X014384Y002102D01*
X014384Y003661D02*
X013524Y003661D01*
X013524Y005220D02*
X014384Y005220D01*
X014384Y006779D02*
X013524Y006779D01*
X013524Y008338D02*
X014384Y008338D01*
X014384Y009897D02*
X013524Y009897D01*
X013524Y011456D02*
X014384Y011456D01*
X014384Y013015D02*
X013524Y013015D01*
X013524Y014574D02*
X014384Y014574D01*
D18*
X027225Y020100D03*
X028225Y020100D03*
X029225Y020100D03*
X030225Y020100D03*
X031225Y020100D03*
X033100Y004350D03*
X033100Y003350D03*
D19*
X034700Y003726D03*
X034700Y004474D03*
D20*
X012550Y002150D03*
D21*
X032740Y007970D03*
X033650Y007970D03*
X034560Y007970D03*
X034250Y009930D03*
X035160Y009930D03*
X033340Y009930D03*
D22*
X034250Y012370D03*
X033650Y005530D03*
D23*
X032910Y012650D02*
X032390Y012650D01*
X032390Y013650D02*
X032910Y013650D01*
X032910Y014650D02*
X032390Y014650D01*
X021650Y013910D02*
X021650Y013390D01*
X020650Y013390D02*
X020650Y013910D01*
X003610Y013850D02*
X003090Y013850D01*
X003090Y012850D02*
X003610Y012850D01*
X001810Y002900D02*
X001290Y002900D01*
X001290Y001900D02*
X001810Y001900D01*
D24*
X007099Y018628D02*
X007045Y018682D01*
X007220Y018713D01*
X007366Y018611D01*
X007397Y018436D01*
X007295Y018290D01*
X007120Y018259D01*
X006974Y018361D01*
X006943Y018536D01*
X007045Y018682D01*
X007091Y018608D01*
X007202Y018628D01*
X007292Y018565D01*
X007312Y018454D01*
X007249Y018364D01*
X007138Y018344D01*
X007048Y018407D01*
X007028Y018518D01*
X007091Y018608D01*
X007139Y018534D01*
X007182Y018542D01*
X007218Y018517D01*
X007226Y018474D01*
X007201Y018438D01*
X007158Y018430D01*
X007122Y018455D01*
X007114Y018498D01*
X007139Y018534D01*
X007939Y018955D02*
X007885Y019009D01*
X008060Y019040D01*
X008206Y018938D01*
X008237Y018763D01*
X008135Y018617D01*
X007960Y018586D01*
X007814Y018688D01*
X007783Y018863D01*
X007885Y019009D01*
X007931Y018935D01*
X008042Y018955D01*
X008132Y018892D01*
X008152Y018781D01*
X008089Y018691D01*
X007978Y018671D01*
X007888Y018734D01*
X007868Y018845D01*
X007931Y018935D01*
X007979Y018861D01*
X008022Y018869D01*
X008058Y018844D01*
X008066Y018801D01*
X008041Y018765D01*
X007998Y018757D01*
X007962Y018782D01*
X007954Y018825D01*
X007979Y018861D01*
X007119Y019529D02*
X007065Y019583D01*
X007240Y019614D01*
X007386Y019512D01*
X007417Y019337D01*
X007315Y019191D01*
X007140Y019160D01*
X006994Y019262D01*
X006963Y019437D01*
X007065Y019583D01*
X007111Y019509D01*
X007222Y019529D01*
X007312Y019466D01*
X007332Y019355D01*
X007269Y019265D01*
X007158Y019245D01*
X007068Y019308D01*
X007048Y019419D01*
X007111Y019509D01*
X007159Y019435D01*
X007202Y019443D01*
X007238Y019418D01*
X007246Y019375D01*
X007221Y019339D01*
X007178Y019331D01*
X007142Y019356D01*
X007134Y019399D01*
X007159Y019435D01*
D25*
X003850Y020000D03*
X009200Y015700D03*
X007750Y014900D03*
X011050Y014550D03*
X012225Y012025D03*
X012225Y011475D03*
X010650Y010350D03*
X010250Y008850D03*
X008350Y009050D03*
X007200Y010400D03*
X006700Y012500D03*
X003750Y015250D03*
X003200Y009400D03*
X008300Y006250D03*
X010300Y006150D03*
X010600Y007350D03*
X015400Y008450D03*
X016450Y008450D03*
X015600Y007250D03*
X019800Y006600D03*
X020350Y006000D03*
X021250Y004850D03*
X020200Y003600D03*
X017650Y003850D03*
X025100Y001300D03*
X028000Y004150D03*
X026900Y005800D03*
X029150Y006650D03*
X027550Y008550D03*
X025800Y010600D03*
X027400Y011200D03*
X024600Y013100D03*
X026650Y013600D03*
X024100Y015475D03*
X022250Y017050D03*
X016500Y014650D03*
X015350Y017100D03*
X021425Y012475D03*
X019900Y012050D03*
X018750Y011100D03*
X020150Y010550D03*
X022650Y010950D03*
X015550Y012050D03*
X029475Y018225D03*
X031350Y017475D03*
X030225Y016350D03*
X030050Y014300D03*
X030750Y011750D03*
X031450Y011750D03*
X034750Y013800D03*
X035700Y015000D03*
X033950Y019350D03*
X034850Y019850D03*
X032600Y019800D03*
X034150Y009100D03*
X035500Y007900D03*
X033975Y004375D03*
X030650Y003750D03*
X030550Y002750D03*
X010050Y001900D03*
X001550Y005850D03*
D26*
X001550Y002400D03*
X003350Y013350D03*
X021150Y013650D03*
D27*
X021550Y015650D03*
D28*
X022200Y009750D03*
M02*
